<svg xmlns="http://www.w3.org/2000/svg" width="55" height="24" viewBox="0 0 55 24" fill="none"><g clip-path="url(#clip0_166_1183)"><path d="M12 24.0134C18.6274 24.0134 24 18.6408 24 12.0134C24 5.38595 18.6274 0.0134277 12 0.0134277C5.37258 0.0134277 0 5.38595 0 12.0134C0 18.6408 5.37258 24.0134 12 24.0134Z" fill="#666666"></path><path d="M9.53674e-07 36C6.62742 36 12 30.6274 12 24C12 17.3726 6.62742 12 9.53674e-07 12C-6.62742 12 -12 17.3726 -12 24C-12 30.6274 -6.62742 36 9.53674e-07 36Z" fill="#141414"></path><path d="M24 36C30.6274 36 36 30.6274 36 24C36 17.3726 30.6274 12 24 12C17.3726 12 12 17.3726 12 24C12 30.6274 17.3726 36 24 36Z" fill="#141414"></path><path d="M9.53674e-07 12C6.62742 12 12 6.62742 12 9.53674e-07C12 -6.62742 6.62742 -12 9.53674e-07 -12C-6.62742 -12 -12 -6.62742 -12 9.53674e-07C-12 6.62742 -6.62742 12 9.53674e-07 12Z" fill="#141414"></path><path d="M24 12C30.6274 12 36 6.62742 36 9.53674e-07C36 -6.62742 30.6274 -12 24 -12C17.3726 -12 12 -6.62742 12 9.53674e-07C12 6.62742 17.3726 12 24 12Z" fill="#141414"></path></g><g clip-path="url(#clip1_166_1183)"><path d="M36.0008 19.2081C39.9772 19.2081 43.2008 15.9845 43.2008 12.0081C43.2008 8.03162 39.9772 4.80811 36.0008 4.80811C32.0243 4.80811 28.8008 8.03162 28.8008 12.0081C28.8008 15.9845 32.0243 19.2081 36.0008 19.2081Z" fill="#333333"></path><path d="M28.8016 26.4C32.778 26.4 36.0016 23.1764 36.0016 19.2C36.0016 15.2235 32.778 12 28.8016 12C24.8251 12 21.6016 15.2235 21.6016 19.2C21.6016 23.1764 24.8251 26.4 28.8016 26.4Z" fill="#141414"></path><path d="M43.2 26.4C47.1764 26.4 50.4 23.1764 50.4 19.2C50.4 15.2235 47.1764 12 43.2 12C39.2235 12 36 15.2235 36 19.2C36 23.1764 39.2235 26.4 43.2 26.4Z" fill="#141414"></path><path d="M28.8016 12.0001C32.778 12.0001 36.0016 8.77655 36.0016 4.8001C36.0016 0.823647 32.778 -2.3999 28.8016 -2.3999C24.8251 -2.3999 21.6016 0.823647 21.6016 4.8001C21.6016 8.77655 24.8251 12.0001 28.8016 12.0001Z" fill="#141414"></path><path d="M43.2 12.0001C47.1764 12.0001 50.4 8.77655 50.4 4.8001C50.4 0.823647 47.1764 -2.3999 43.2 -2.3999C39.2235 -2.3999 36 0.823647 36 4.8001C36 8.77655 39.2235 12.0001 43.2 12.0001Z" fill="#141414"></path></g><g clip-path="url(#clip2_166_1183)"><path d="M51.36 15.3635C53.2157 15.3635 54.72 13.8592 54.72 12.0035C54.72 10.1479 53.2157 8.64355 51.36 8.64355C49.5043 8.64355 48 10.1479 48 12.0035C48 13.8592 49.5043 15.3635 51.36 15.3635Z" fill="#333333"></path><path d="M48.0006 18.7198C49.8563 18.7198 51.3606 17.2154 51.3606 15.3598C51.3606 13.5041 49.8563 11.9998 48.0006 11.9998C46.1449 11.9998 44.6406 13.5041 44.6406 15.3598C44.6406 17.2154 46.1449 18.7198 48.0006 18.7198Z" fill="#141414"></path><path d="M54.7194 18.7198C56.5751 18.7198 58.0794 17.2154 58.0794 15.3598C58.0794 13.5041 56.5751 11.9998 54.7194 11.9998C52.8637 11.9998 51.3594 13.5041 51.3594 15.3598C51.3594 17.2154 52.8637 18.7198 54.7194 18.7198Z" fill="#141414"></path><path d="M48.0006 11.9998C49.8563 11.9998 51.3606 10.4955 51.3606 8.63979C51.3606 6.78411 49.8563 5.27979 48.0006 5.27979C46.1449 5.27979 44.6406 6.78411 44.6406 8.63979C44.6406 10.4955 46.1449 11.9998 48.0006 11.9998Z" fill="#141414"></path><path d="M54.7194 11.9998C56.5751 11.9998 58.0794 10.4955 58.0794 8.63979C58.0794 6.78411 56.5751 5.27979 54.7194 5.27979C52.8637 5.27979 51.3594 6.78411 51.3594 8.63979C51.3594 10.4955 52.8637 11.9998 54.7194 11.9998Z" fill="#141414"></path></g><defs><clipPath id="clip0_166_1183"><rect width="24" height="24" fill="white"></rect></clipPath><clipPath id="clip1_166_1183"><rect width="14.4" height="14.4" fill="white" transform="translate(28.8008 4.80005)"></rect></clipPath><clipPath id="clip2_166_1183"><rect width="6.72" height="6.72" fill="white" transform="translate(48 8.63989)"></rect></clipPath></defs></svg>