<svg xmlns="http://www.w3.org/2000/svg" width="191" height="52" viewBox="0 0 191 52" fill="none"><rect width="191" height="52" rx="6" fill="#703BF7"></rect><path d="M38.291 31.182C37.7637 31.182 37.255 31.1003 36.765 30.937C36.275 30.769 35.8457 30.531 35.477 30.223C35.113 29.915 34.854 29.5487 34.7 29.124L35.799 28.711C35.8923 28.9723 36.065 29.201 36.317 29.397C36.5737 29.5883 36.8747 29.7377 37.22 29.845C37.5653 29.9523 37.9223 30.006 38.291 30.006C38.711 30.006 39.1007 29.9383 39.46 29.803C39.824 29.663 40.118 29.4693 40.342 29.222C40.566 28.9747 40.678 28.6853 40.678 28.354C40.678 28.0133 40.5613 27.7357 40.328 27.521C40.0947 27.3017 39.796 27.129 39.432 27.003C39.068 26.8723 38.6877 26.772 38.291 26.702C37.6143 26.59 37.0077 26.4313 36.471 26.226C35.939 26.016 35.5167 25.7243 35.204 25.351C34.896 24.9777 34.742 24.4853 34.742 23.874C34.742 23.3047 34.9053 22.8077 35.232 22.383C35.5633 21.9583 35.9997 21.6293 36.541 21.396C37.0823 21.1627 37.6657 21.046 38.291 21.046C38.809 21.046 39.3107 21.1277 39.796 21.291C40.286 21.4497 40.7177 21.683 41.091 21.991C41.4643 22.299 41.7327 22.6747 41.896 23.118L40.783 23.524C40.6897 23.258 40.5147 23.0293 40.258 22.838C40.006 22.642 39.7073 22.4927 39.362 22.39C39.0213 22.2827 38.6643 22.229 38.291 22.229C37.8757 22.2243 37.4883 22.292 37.129 22.432C36.7697 22.572 36.478 22.7657 36.254 23.013C36.03 23.2603 35.918 23.5473 35.918 23.874C35.918 24.266 36.0207 24.567 36.226 24.777C36.436 24.9823 36.7207 25.1363 37.08 25.239C37.4393 25.3417 37.843 25.4327 38.291 25.512C38.9257 25.6193 39.5137 25.7897 40.055 26.023C40.5963 26.2517 41.0303 26.5573 41.357 26.94C41.6883 27.3227 41.854 27.794 41.854 28.354C41.854 28.9233 41.6883 29.4203 41.357 29.845C41.0303 30.2697 40.5963 30.5987 40.055 30.832C39.5137 31.0653 38.9257 31.182 38.291 31.182ZM46.3966 31.182C45.7526 31.182 45.1646 31.0163 44.6326 30.685C44.1052 30.3537 43.6829 29.9103 43.3656 29.355C43.0529 28.795 42.8966 28.1767 42.8966 27.5C42.8966 26.9867 42.9876 26.5083 43.1696 26.065C43.3516 25.617 43.6012 25.225 43.9186 24.889C44.2406 24.5483 44.6139 24.2823 45.0386 24.091C45.4632 23.8997 45.9159 23.804 46.3966 23.804C46.9239 23.804 47.4069 23.9113 47.8456 24.126C48.2889 24.336 48.6669 24.63 48.9796 25.008C49.2969 25.386 49.5326 25.8247 49.6866 26.324C49.8452 26.8233 49.9036 27.3577 49.8616 27.927H44.1496C44.2056 28.3237 44.3362 28.6783 44.5416 28.991C44.7469 29.299 45.0082 29.544 45.3256 29.726C45.6476 29.908 46.0046 30.0013 46.3966 30.006C46.8166 30.006 47.1969 29.8987 47.5376 29.684C47.8782 29.4647 48.1536 29.166 48.3636 28.788L49.5606 29.068C49.2806 29.6887 48.8582 30.1973 48.2936 30.594C47.7289 30.986 47.0966 31.182 46.3966 31.182ZM44.1146 27.003H48.6786C48.6412 26.611 48.5152 26.254 48.3006 25.932C48.0859 25.6053 47.8129 25.344 47.4816 25.148C47.1502 24.952 46.7886 24.854 46.3966 24.854C46.0046 24.854 45.6452 24.9497 45.3186 25.141C44.9919 25.3323 44.7212 25.5913 44.5066 25.918C44.2966 26.24 44.1659 26.6017 44.1146 27.003ZM57.2292 26.646V31H56.0532V26.905C56.0532 26.5503 55.9668 26.2283 55.7942 25.939C55.6215 25.6497 55.3905 25.421 55.1012 25.253C54.8118 25.0803 54.4898 24.994 54.1352 24.994C53.7852 24.994 53.4632 25.0803 53.1692 25.253C52.8798 25.421 52.6488 25.6497 52.4762 25.939C52.3035 26.2283 52.2172 26.5503 52.2172 26.905V31H51.0412V24H52.2172V24.875C52.4645 24.5483 52.7772 24.2893 53.1552 24.098C53.5332 23.902 53.9438 23.804 54.3872 23.804C54.9098 23.804 55.3858 23.9323 55.8152 24.189C56.2492 24.441 56.5922 24.7817 56.8442 25.211C57.1008 25.6403 57.2292 26.1187 57.2292 26.646ZM64.1273 20.5H65.3033V31H64.1273V29.81C63.8893 30.2207 63.5697 30.552 63.1683 30.804C62.767 31.056 62.2957 31.182 61.7543 31.182C61.2457 31.182 60.7697 31.0863 60.3263 30.895C59.883 30.7037 59.491 30.44 59.1503 30.104C58.8143 29.7633 58.5507 29.3713 58.3593 28.928C58.168 28.4847 58.0723 28.0087 58.0723 27.5C58.0723 26.9913 58.168 26.5153 58.3593 26.072C58.5507 25.624 58.8143 25.232 59.1503 24.896C59.491 24.5553 59.883 24.2893 60.3263 24.098C60.7697 23.9067 61.2457 23.811 61.7543 23.811C62.2957 23.811 62.767 23.937 63.1683 24.189C63.5697 24.441 63.8893 24.7723 64.1273 25.183V20.5ZM61.7683 30.041C62.2303 30.041 62.6293 29.929 62.9653 29.705C63.306 29.4763 63.5673 29.1683 63.7493 28.781C63.936 28.3937 64.0293 27.9667 64.0293 27.5C64.0293 27.024 63.936 26.5947 63.7493 26.212C63.5627 25.8247 63.299 25.519 62.9583 25.295C62.6223 25.0663 62.2257 24.952 61.7683 24.952C61.3063 24.952 60.8863 25.0663 60.5083 25.295C60.135 25.5237 59.8363 25.8317 59.6123 26.219C59.3883 26.6017 59.2763 27.0287 59.2763 27.5C59.2763 27.9713 59.3907 28.4007 59.6193 28.788C59.848 29.1707 60.1513 29.4763 60.5293 29.705C60.9073 29.929 61.3203 30.041 61.7683 30.041ZM76.3519 21.2H77.7379L74.4199 26.569V31H73.2439V26.569L69.9259 21.2H71.3119L73.8319 25.281L76.3519 21.2ZM80.8634 31.182C80.2194 31.182 79.6314 31.0163 79.0994 30.685C78.572 30.3537 78.1497 29.9103 77.8324 29.355C77.5197 28.795 77.3634 28.1767 77.3634 27.5C77.3634 26.9867 77.4544 26.5083 77.6364 26.065C77.8184 25.617 78.068 25.225 78.3854 24.889C78.7074 24.5483 79.0807 24.2823 79.5054 24.091C79.93 23.8997 80.3827 23.804 80.8634 23.804C81.5074 23.804 82.093 23.9697 82.6204 24.301C83.1524 24.6323 83.5747 25.078 83.8874 25.638C84.2047 26.198 84.3634 26.8187 84.3634 27.5C84.3634 28.0087 84.2724 28.4847 84.0904 28.928C83.9084 29.3713 83.6564 29.7633 83.3344 30.104C83.017 30.44 82.646 30.7037 82.2214 30.895C81.8014 31.0863 81.3487 31.182 80.8634 31.182ZM80.8634 30.006C81.302 30.006 81.6964 29.8917 82.0464 29.663C82.401 29.4297 82.6787 29.124 82.8794 28.746C83.0847 28.3633 83.1874 27.948 83.1874 27.5C83.1874 27.0427 83.0824 26.6227 82.8724 26.24C82.667 25.8573 82.3894 25.5517 82.0394 25.323C81.6894 25.0943 81.2974 24.98 80.8634 24.98C80.4247 24.98 80.0304 25.0967 79.6804 25.33C79.3304 25.5587 79.0527 25.8643 78.8474 26.247C78.642 26.6297 78.5394 27.0473 78.5394 27.5C78.5394 27.9667 78.6444 28.3913 78.8544 28.774C79.0644 29.152 79.3467 29.453 79.7014 29.677C80.056 29.8963 80.4434 30.006 80.8634 30.006ZM85.1459 28.34V24H86.3219V28.081C86.3219 28.4357 86.4083 28.7577 86.5809 29.047C86.7536 29.3363 86.9846 29.5673 87.2739 29.74C87.5679 29.908 87.8899 29.992 88.2399 29.992C88.5946 29.992 88.9143 29.908 89.1989 29.74C89.4883 29.5673 89.7193 29.3363 89.8919 29.047C90.0646 28.7577 90.1509 28.4357 90.1509 28.081V24H91.3269L91.3339 31H90.1579L90.1509 30.111C89.9036 30.4377 89.5909 30.699 89.2129 30.895C88.8349 31.0863 88.4266 31.182 87.9879 31.182C87.4653 31.182 86.9869 31.056 86.5529 30.804C86.1236 30.5473 85.7806 30.2043 85.5239 29.775C85.2719 29.3457 85.1459 28.8673 85.1459 28.34ZM92.7404 31V24H93.9164V24.875C94.1637 24.5483 94.4764 24.2893 94.8544 24.098C95.2324 23.902 95.6431 23.804 96.0864 23.804C96.3571 23.804 96.6184 23.839 96.8704 23.909L96.3944 25.085C96.2031 25.0243 96.0164 24.994 95.8344 24.994C95.4844 24.994 95.1624 25.0803 94.8684 25.253C94.5791 25.421 94.3481 25.6497 94.1754 25.939C94.0027 26.2283 93.9164 26.5503 93.9164 26.905V31H92.7404ZM101.217 31L103.114 21.2H104.017L106.663 28.158L109.302 21.2H110.205L112.109 31H110.912L109.533 23.888L107.048 30.468H106.271L103.786 23.888L102.414 31H101.217ZM116.26 31.182C115.616 31.182 115.028 31.0163 114.496 30.685C113.969 30.3537 113.546 29.9103 113.229 29.355C112.916 28.795 112.76 28.1767 112.76 27.5C112.76 26.9867 112.851 26.5083 113.033 26.065C113.215 25.617 113.465 25.225 113.782 24.889C114.104 24.5483 114.477 24.2823 114.902 24.091C115.327 23.8997 115.779 23.804 116.26 23.804C116.787 23.804 117.27 23.9113 117.709 24.126C118.152 24.336 118.53 24.63 118.843 25.008C119.16 25.386 119.396 25.8247 119.55 26.324C119.709 26.8233 119.767 27.3577 119.725 27.927H114.013C114.069 28.3237 114.2 28.6783 114.405 28.991C114.61 29.299 114.872 29.544 115.189 29.726C115.511 29.908 115.868 30.0013 116.26 30.006C116.68 30.006 117.06 29.8987 117.401 29.684C117.742 29.4647 118.017 29.166 118.227 28.788L119.424 29.068C119.144 29.6887 118.722 30.1973 118.157 30.594C117.592 30.986 116.96 31.182 116.26 31.182ZM113.978 27.003H118.542C118.505 26.611 118.379 26.254 118.164 25.932C117.949 25.6053 117.676 25.344 117.345 25.148C117.014 24.952 116.652 24.854 116.26 24.854C115.868 24.854 115.509 24.9497 115.182 25.141C114.855 25.3323 114.585 25.5913 114.37 25.918C114.16 26.24 114.029 26.6017 113.978 27.003ZM123.067 31.133C122.689 31.119 122.32 31.049 121.961 30.923C121.606 30.7923 121.293 30.6173 121.023 30.398C120.757 30.174 120.563 29.9173 120.442 29.628L121.45 29.194C121.52 29.3527 121.646 29.502 121.828 29.642C122.01 29.782 122.22 29.894 122.458 29.978C122.696 30.062 122.936 30.104 123.179 30.104C123.435 30.104 123.676 30.0643 123.9 29.985C124.124 29.9057 124.306 29.789 124.446 29.635C124.59 29.4763 124.663 29.2873 124.663 29.068C124.663 28.8347 124.583 28.6527 124.425 28.522C124.271 28.3867 124.075 28.2817 123.837 28.207C123.603 28.1277 123.365 28.053 123.123 27.983C122.642 27.8617 122.213 27.717 121.835 27.549C121.457 27.3763 121.158 27.1593 120.939 26.898C120.724 26.632 120.617 26.2937 120.617 25.883C120.617 25.449 120.736 25.0733 120.974 24.756C121.216 24.4387 121.534 24.1937 121.926 24.021C122.318 23.8483 122.738 23.762 123.186 23.762C123.75 23.762 124.266 23.8833 124.733 24.126C125.199 24.3687 125.547 24.6977 125.776 25.113L124.831 25.666C124.751 25.498 124.63 25.351 124.467 25.225C124.303 25.0943 124.117 24.9917 123.907 24.917C123.697 24.8423 123.482 24.8027 123.263 24.798C122.992 24.7887 122.738 24.8237 122.5 24.903C122.266 24.9823 122.077 25.1037 121.933 25.267C121.793 25.4257 121.723 25.624 121.723 25.862C121.723 26.0953 121.797 26.2727 121.947 26.394C122.101 26.5153 122.299 26.6133 122.542 26.688C122.789 26.758 123.057 26.8397 123.347 26.933C123.771 27.0683 124.168 27.2247 124.537 27.402C124.905 27.5793 125.202 27.801 125.426 28.067C125.654 28.333 125.766 28.662 125.762 29.054C125.762 29.4833 125.633 29.859 125.377 30.181C125.12 30.4983 124.786 30.741 124.376 30.909C123.97 31.077 123.533 31.1517 123.067 31.133ZM129.096 31.133C128.718 31.119 128.349 31.049 127.99 30.923C127.635 30.7923 127.323 30.6173 127.052 30.398C126.786 30.174 126.592 29.9173 126.471 29.628L127.479 29.194C127.549 29.3527 127.675 29.502 127.857 29.642C128.039 29.782 128.249 29.894 128.487 29.978C128.725 30.062 128.965 30.104 129.208 30.104C129.465 30.104 129.705 30.0643 129.929 29.985C130.153 29.9057 130.335 29.789 130.475 29.635C130.62 29.4763 130.692 29.2873 130.692 29.068C130.692 28.8347 130.613 28.6527 130.454 28.522C130.3 28.3867 130.104 28.2817 129.866 28.207C129.633 28.1277 129.395 28.053 129.152 27.983C128.671 27.8617 128.242 27.717 127.864 27.549C127.486 27.3763 127.187 27.1593 126.968 26.898C126.753 26.632 126.646 26.2937 126.646 25.883C126.646 25.449 126.765 25.0733 127.003 24.756C127.246 24.4387 127.563 24.1937 127.955 24.021C128.347 23.8483 128.767 23.762 129.215 23.762C129.78 23.762 130.295 23.8833 130.762 24.126C131.229 24.3687 131.576 24.6977 131.805 25.113L130.86 25.666C130.781 25.498 130.659 25.351 130.496 25.225C130.333 25.0943 130.146 24.9917 129.936 24.917C129.726 24.8423 129.511 24.8027 129.292 24.798C129.021 24.7887 128.767 24.8237 128.529 24.903C128.296 24.9823 128.107 25.1037 127.962 25.267C127.822 25.4257 127.752 25.624 127.752 25.862C127.752 26.0953 127.827 26.2727 127.976 26.394C128.13 26.5153 128.328 26.6133 128.571 26.688C128.818 26.758 129.087 26.8397 129.376 26.933C129.801 27.0683 130.197 27.2247 130.566 27.402C130.935 27.5793 131.231 27.801 131.455 28.067C131.684 28.333 131.796 28.662 131.791 29.054C131.791 29.4833 131.663 29.859 131.406 30.181C131.149 30.4983 130.816 30.741 130.405 30.909C129.999 31.077 129.563 31.1517 129.096 31.133ZM138.55 24H139.726V31H138.55L138.501 29.817C138.282 30.223 137.978 30.552 137.591 30.804C137.208 31.056 136.751 31.182 136.219 31.182C135.706 31.182 135.225 31.0863 134.777 30.895C134.329 30.699 133.932 30.4307 133.587 30.09C133.246 29.7447 132.98 29.348 132.789 28.9C132.598 28.452 132.502 27.969 132.502 27.451C132.502 26.9517 132.595 26.4803 132.782 26.037C132.969 25.5937 133.228 25.2063 133.559 24.875C133.895 24.539 134.282 24.2777 134.721 24.091C135.16 23.8997 135.631 23.804 136.135 23.804C136.686 23.804 137.169 23.9347 137.584 24.196C137.999 24.4527 138.335 24.7863 138.592 25.197L138.55 24ZM136.198 30.041C136.66 30.041 137.059 29.929 137.395 29.705C137.736 29.4763 137.997 29.1683 138.179 28.781C138.366 28.3937 138.459 27.9667 138.459 27.5C138.459 27.024 138.366 26.5947 138.179 26.212C137.992 25.8247 137.729 25.519 137.388 25.295C137.052 25.0663 136.655 24.952 136.198 24.952C135.736 24.952 135.316 25.0663 134.938 25.295C134.56 25.5237 134.259 25.8317 134.035 26.219C133.816 26.6017 133.706 27.0287 133.706 27.5C133.706 27.9713 133.82 28.4007 134.049 28.788C134.278 29.1707 134.581 29.4763 134.959 29.705C135.337 29.929 135.75 30.041 136.198 30.041ZM146.455 24H147.631V31.224C147.631 31.686 147.531 32.1153 147.33 32.512C147.134 32.9133 146.868 33.261 146.532 33.555C146.196 33.8537 145.814 34.0847 145.384 34.248C144.955 34.416 144.507 34.5 144.04 34.5C143.555 34.5 143.086 34.3903 142.633 34.171C142.181 33.9563 141.784 33.667 141.443 33.303C141.107 32.9437 140.865 32.54 140.715 32.092L141.793 31.602C141.882 31.924 142.041 32.2133 142.269 32.47C142.503 32.7313 142.773 32.9367 143.081 33.086C143.394 33.24 143.714 33.317 144.04 33.317C144.348 33.317 144.645 33.2633 144.929 33.156C145.219 33.0487 145.478 32.8993 145.706 32.708C145.94 32.5213 146.122 32.2997 146.252 32.043C146.388 31.791 146.455 31.518 146.455 31.224V29.831C146.217 30.2323 145.902 30.559 145.51 30.811C145.123 31.0583 144.67 31.182 144.152 31.182C143.658 31.182 143.193 31.0863 142.759 30.895C142.325 30.7037 141.945 30.44 141.618 30.104C141.292 29.7633 141.035 29.3713 140.848 28.928C140.662 28.4847 140.568 28.0087 140.568 27.5C140.568 26.9913 140.662 26.5153 140.848 26.072C141.035 25.624 141.292 25.232 141.618 24.896C141.945 24.5553 142.325 24.2893 142.759 24.098C143.193 23.9067 143.658 23.811 144.152 23.811C144.67 23.811 145.123 23.9347 145.51 24.182C145.902 24.4293 146.217 24.756 146.455 25.162V24ZM144.159 30.041C144.612 30.041 145.004 29.9243 145.335 29.691C145.671 29.4577 145.93 29.1473 146.112 28.76C146.294 28.3727 146.385 27.9527 146.385 27.5C146.385 27.0333 146.292 26.6087 146.105 26.226C145.923 25.8387 145.664 25.5307 145.328 25.302C144.997 25.0687 144.607 24.952 144.159 24.952C143.721 24.952 143.319 25.0663 142.955 25.295C142.591 25.5237 142.302 25.8317 142.087 26.219C141.877 26.6017 141.772 27.0287 141.772 27.5C141.772 27.9713 141.88 28.4007 142.094 28.788C142.314 29.1707 142.603 29.4763 142.962 29.705C143.326 29.929 143.725 30.041 144.159 30.041ZM152.299 31.182C151.655 31.182 151.067 31.0163 150.535 30.685C150.008 30.3537 149.585 29.9103 149.268 29.355C148.955 28.795 148.799 28.1767 148.799 27.5C148.799 26.9867 148.89 26.5083 149.072 26.065C149.254 25.617 149.504 25.225 149.821 24.889C150.143 24.5483 150.516 24.2823 150.941 24.091C151.366 23.8997 151.818 23.804 152.299 23.804C152.826 23.804 153.309 23.9113 153.748 24.126C154.191 24.336 154.569 24.63 154.882 25.008C155.199 25.386 155.435 25.8247 155.589 26.324C155.748 26.8233 155.806 27.3577 155.764 27.927H150.052C150.108 28.3237 150.239 28.6783 150.444 28.991C150.649 29.299 150.911 29.544 151.228 29.726C151.55 29.908 151.907 30.0013 152.299 30.006C152.719 30.006 153.099 29.8987 153.44 29.684C153.781 29.4647 154.056 29.166 154.266 28.788L155.463 29.068C155.183 29.6887 154.761 30.1973 154.196 30.594C153.631 30.986 152.999 31.182 152.299 31.182ZM150.017 27.003H154.581C154.544 26.611 154.418 26.254 154.203 25.932C153.988 25.6053 153.715 25.344 153.384 25.148C153.053 24.952 152.691 24.854 152.299 24.854C151.907 24.854 151.548 24.9497 151.221 25.141C150.894 25.3323 150.624 25.5913 150.409 25.918C150.199 26.24 150.068 26.6017 150.017 27.003Z" fill="white"></path></svg>