<svg xmlns="http://www.w3.org/2000/svg" width="155" height="49" viewBox="0 0 155 49" fill="none"><rect x="0.5" y="0.5" width="154" height="48" rx="7.5" fill="#1A1A1A"></rect><rect x="0.5" y="0.5" width="154" height="48" rx="7.5" stroke="#262626"></rect><path d="M23.948 29L20.392 19.2H21.638L24.676 27.565L27.721 19.2H28.96L25.404 29H23.948ZM29.6857 22H30.8617V29H29.6857V22ZM30.2877 20.859C30.101 20.859 29.9447 20.7983 29.8187 20.677C29.6927 20.5557 29.6297 20.404 29.6297 20.222C29.6297 20.04 29.6927 19.8883 29.8187 19.767C29.9447 19.6457 30.0987 19.585 30.2807 19.585C30.4627 19.585 30.6167 19.6457 30.7427 19.767C30.8687 19.8883 30.9317 20.04 30.9317 20.222C30.9317 20.404 30.8687 20.5557 30.7427 20.677C30.6214 20.7983 30.4697 20.859 30.2877 20.859ZM35.5274 29.182C34.8834 29.182 34.2954 29.0163 33.7634 28.685C33.2361 28.3537 32.8138 27.9103 32.4964 27.355C32.1838 26.795 32.0274 26.1767 32.0274 25.5C32.0274 24.9867 32.1184 24.5083 32.3004 24.065C32.4824 23.617 32.7321 23.225 33.0494 22.889C33.3714 22.5483 33.7448 22.2823 34.1694 22.091C34.5941 21.8997 35.0468 21.804 35.5274 21.804C36.0548 21.804 36.5378 21.9113 36.9764 22.126C37.4198 22.336 37.7978 22.63 38.1104 23.008C38.4278 23.386 38.6634 23.8247 38.8174 24.324C38.9761 24.8233 39.0344 25.3577 38.9924 25.927H33.2804C33.3364 26.3237 33.4671 26.6783 33.6724 26.991C33.8778 27.299 34.1391 27.544 34.4564 27.726C34.7784 27.908 35.1354 28.0013 35.5274 28.006C35.9474 28.006 36.3278 27.8987 36.6684 27.684C37.0091 27.4647 37.2844 27.166 37.4944 26.788L38.6914 27.068C38.4114 27.6887 37.9891 28.1973 37.4244 28.594C36.8598 28.986 36.2274 29.182 35.5274 29.182ZM33.2454 25.003H37.8094C37.7721 24.611 37.6461 24.254 37.4314 23.932C37.2168 23.6053 36.9438 23.344 36.6124 23.148C36.2811 22.952 35.9194 22.854 35.5274 22.854C35.1354 22.854 34.7761 22.9497 34.4494 23.141C34.1228 23.3323 33.8521 23.5913 33.6374 23.918C33.4274 24.24 33.2968 24.6017 33.2454 25.003ZM42.9862 29H41.7963L39.4513 22H40.5993L42.4053 27.341L44.1903 22H45.4013L47.1933 27.341L48.9783 22H50.1403L47.7953 29H46.5983L44.7853 23.61L42.9862 29ZM58.0429 19.2H59.4639L63.0269 29H61.7809L61.0529 26.998H56.4539L55.7329 29H54.4799L58.0429 19.2ZM56.8879 25.822H60.6189L58.7499 20.705L56.8879 25.822ZM64.3029 29V18.5H65.4789V29H64.3029ZM67.1603 29V18.5H68.3363V29H67.1603ZM73.381 29V19.2H76.615C77.1423 19.2 77.616 19.3283 78.036 19.585C78.4607 19.8417 78.7967 20.1893 79.044 20.628C79.296 21.062 79.422 21.5473 79.422 22.084C79.422 22.63 79.2937 23.1223 79.037 23.561C78.785 23.995 78.4443 24.3403 78.015 24.597C77.5903 24.849 77.1237 24.975 76.615 24.975H74.557V29H73.381ZM74.557 23.799H76.51C76.8273 23.799 77.1167 23.722 77.378 23.568C77.644 23.4093 77.854 23.197 78.008 22.931C78.1667 22.6603 78.246 22.357 78.246 22.021C78.246 21.6803 78.1667 21.377 78.008 21.111C77.854 20.8403 77.644 20.628 77.378 20.474C77.1167 20.3153 76.8273 20.236 76.51 20.236H74.557V23.799ZM80.6271 29V22H81.8031V22.875C82.0504 22.5483 82.3631 22.2893 82.7411 22.098C83.1191 21.902 83.5298 21.804 83.9731 21.804C84.2438 21.804 84.5051 21.839 84.7571 21.909L84.2811 23.085C84.0898 23.0243 83.9031 22.994 83.7211 22.994C83.3711 22.994 83.0491 23.0803 82.7551 23.253C82.4658 23.421 82.2348 23.6497 82.0621 23.939C81.8894 24.2283 81.8031 24.5503 81.8031 24.905V29H80.6271ZM88.3419 29.182C87.6979 29.182 87.1099 29.0163 86.5779 28.685C86.0505 28.3537 85.6282 27.9103 85.3109 27.355C84.9982 26.795 84.8419 26.1767 84.8419 25.5C84.8419 24.9867 84.9329 24.5083 85.1149 24.065C85.2969 23.617 85.5465 23.225 85.8639 22.889C86.1859 22.5483 86.5592 22.2823 86.9839 22.091C87.4085 21.8997 87.8612 21.804 88.3419 21.804C88.9859 21.804 89.5715 21.9697 90.0989 22.301C90.6309 22.6323 91.0532 23.078 91.3659 23.638C91.6832 24.198 91.8419 24.8187 91.8419 25.5C91.8419 26.0087 91.7509 26.4847 91.5689 26.928C91.3869 27.3713 91.1349 27.7633 90.8129 28.104C90.4955 28.44 90.1245 28.7037 89.6999 28.895C89.2799 29.0863 88.8272 29.182 88.3419 29.182ZM88.3419 28.006C88.7805 28.006 89.1749 27.8917 89.5249 27.663C89.8795 27.4297 90.1572 27.124 90.3579 26.746C90.5632 26.3633 90.6659 25.948 90.6659 25.5C90.6659 25.0427 90.5609 24.6227 90.3509 24.24C90.1455 23.8573 89.8679 23.5517 89.5179 23.323C89.1679 23.0943 88.7759 22.98 88.3419 22.98C87.9032 22.98 87.5089 23.0967 87.1589 23.33C86.8089 23.5587 86.5312 23.8643 86.3259 24.247C86.1205 24.6297 86.0179 25.0473 86.0179 25.5C86.0179 25.9667 86.1229 26.3913 86.3329 26.774C86.5429 27.152 86.8252 27.453 87.1799 27.677C87.5345 27.8963 87.9219 28.006 88.3419 28.006ZM94.1762 32.5H93.0002V22H94.1762V23.197C94.4142 22.7863 94.7315 22.455 95.1282 22.203C95.5248 21.9463 95.9962 21.818 96.5422 21.818C97.0508 21.818 97.5268 21.9137 97.9702 22.105C98.4182 22.2963 98.8102 22.5623 99.1462 22.903C99.4822 23.239 99.7458 23.6287 99.9372 24.072C100.128 24.5153 100.224 24.9913 100.224 25.5C100.224 26.0087 100.128 26.487 99.9372 26.935C99.7458 27.383 99.4822 27.7773 99.1462 28.118C98.8102 28.454 98.4182 28.7177 97.9702 28.909C97.5268 29.1003 97.0508 29.196 96.5422 29.196C95.9962 29.196 95.5248 29.07 95.1282 28.818C94.7315 28.5613 94.4142 28.2277 94.1762 27.817V32.5ZM96.5282 22.959C96.0755 22.959 95.6788 23.0733 95.3382 23.302C94.9975 23.5307 94.7338 23.8363 94.5472 24.219C94.3652 24.6017 94.2742 25.0287 94.2742 25.5C94.2742 25.9667 94.3652 26.3937 94.5472 26.781C94.7338 27.1683 94.9952 27.4763 95.3312 27.705C95.6718 27.9337 96.0708 28.048 96.5282 28.048C96.9808 28.048 97.3962 27.936 97.7742 27.712C98.1522 27.4833 98.4555 27.1777 98.6842 26.795C98.9128 26.4077 99.0272 25.976 99.0272 25.5C99.0272 25.0333 98.9152 24.6087 98.6912 24.226C98.4672 23.8387 98.1662 23.5307 97.7882 23.302C97.4102 23.0733 96.9902 22.959 96.5282 22.959ZM104.434 29.182C103.79 29.182 103.202 29.0163 102.67 28.685C102.142 28.3537 101.72 27.9103 101.403 27.355C101.09 26.795 100.934 26.1767 100.934 25.5C100.934 24.9867 101.025 24.5083 101.207 24.065C101.389 23.617 101.638 23.225 101.956 22.889C102.278 22.5483 102.651 22.2823 103.076 22.091C103.5 21.8997 103.953 21.804 104.434 21.804C104.961 21.804 105.444 21.9113 105.883 22.126C106.326 22.336 106.704 22.63 107.017 23.008C107.334 23.386 107.57 23.8247 107.724 24.324C107.882 24.8233 107.941 25.3577 107.899 25.927H102.187C102.243 26.3237 102.373 26.6783 102.579 26.991C102.784 27.299 103.045 27.544 103.363 27.726C103.685 27.908 104.042 28.0013 104.434 28.006C104.854 28.006 105.234 27.8987 105.575 27.684C105.915 27.4647 106.191 27.166 106.401 26.788L107.598 27.068C107.318 27.6887 106.895 28.1973 106.331 28.594C105.766 28.986 105.134 29.182 104.434 29.182ZM102.152 25.003H106.716C106.678 24.611 106.552 24.254 106.338 23.932C106.123 23.6053 105.85 23.344 105.519 23.148C105.187 22.952 104.826 22.854 104.434 22.854C104.042 22.854 103.682 22.9497 103.356 23.141C103.029 23.3323 102.758 23.5913 102.544 23.918C102.334 24.24 102.203 24.6017 102.152 25.003ZM109.078 29V22H110.254V22.875C110.502 22.5483 110.814 22.2893 111.192 22.098C111.57 21.902 111.981 21.804 112.424 21.804C112.695 21.804 112.956 21.839 113.208 21.909L112.732 23.085C112.541 23.0243 112.354 22.994 112.172 22.994C111.822 22.994 111.5 23.0803 111.206 23.253C110.917 23.421 110.686 23.6497 110.513 23.939C110.341 24.2283 110.254 24.5503 110.254 24.905V29H109.078ZM117.818 23.176H116.229L116.222 29H115.046L115.053 23.176H113.849V22H115.053L115.046 19.802H116.222L116.229 22H117.818V23.176ZM119.004 22H120.18V29H119.004V22ZM119.606 20.859C119.419 20.859 119.263 20.7983 119.137 20.677C119.011 20.5557 118.948 20.404 118.948 20.222C118.948 20.04 119.011 19.8883 119.137 19.767C119.263 19.6457 119.417 19.585 119.599 19.585C119.781 19.585 119.935 19.6457 120.061 19.767C120.187 19.8883 120.25 20.04 120.25 20.222C120.25 20.404 120.187 20.5557 120.061 20.677C119.94 20.7983 119.788 20.859 119.606 20.859ZM124.846 29.182C124.202 29.182 123.614 29.0163 123.082 28.685C122.554 28.3537 122.132 27.9103 121.815 27.355C121.502 26.795 121.346 26.1767 121.346 25.5C121.346 24.9867 121.437 24.5083 121.619 24.065C121.801 23.617 122.05 23.225 122.368 22.889C122.69 22.5483 123.063 22.2823 123.488 22.091C123.912 21.8997 124.365 21.804 124.846 21.804C125.373 21.804 125.856 21.9113 126.295 22.126C126.738 22.336 127.116 22.63 127.429 23.008C127.746 23.386 127.982 23.8247 128.136 24.324C128.294 24.8233 128.353 25.3577 128.311 25.927H122.599C122.655 26.3237 122.785 26.6783 122.991 26.991C123.196 27.299 123.457 27.544 123.775 27.726C124.097 27.908 124.454 28.0013 124.846 28.006C125.266 28.006 125.646 27.8987 125.987 27.684C126.327 27.4647 126.603 27.166 126.813 26.788L128.01 27.068C127.73 27.6887 127.307 28.1973 126.743 28.594C126.178 28.986 125.546 29.182 124.846 29.182ZM122.564 25.003H127.128C127.09 24.611 126.964 24.254 126.75 23.932C126.535 23.6053 126.262 23.344 125.931 23.148C125.599 22.952 125.238 22.854 124.846 22.854C124.454 22.854 124.094 22.9497 123.768 23.141C123.441 23.3323 123.17 23.5913 122.956 23.918C122.746 24.24 122.615 24.6017 122.564 25.003ZM131.653 29.133C131.275 29.119 130.906 29.049 130.547 28.923C130.192 28.7923 129.879 28.6173 129.609 28.398C129.343 28.174 129.149 27.9173 129.028 27.628L130.036 27.194C130.106 27.3527 130.232 27.502 130.414 27.642C130.596 27.782 130.806 27.894 131.044 27.978C131.282 28.062 131.522 28.104 131.765 28.104C132.021 28.104 132.262 28.0643 132.486 27.985C132.71 27.9057 132.892 27.789 133.032 27.635C133.176 27.4763 133.249 27.2873 133.249 27.068C133.249 26.8347 133.169 26.6527 133.011 26.522C132.857 26.3867 132.661 26.2817 132.423 26.207C132.189 26.1277 131.951 26.053 131.709 25.983C131.228 25.8617 130.799 25.717 130.421 25.549C130.043 25.3763 129.744 25.1593 129.525 24.898C129.31 24.632 129.203 24.2937 129.203 23.883C129.203 23.449 129.322 23.0733 129.56 22.756C129.802 22.4387 130.12 22.1937 130.512 22.021C130.904 21.8483 131.324 21.762 131.772 21.762C132.336 21.762 132.852 21.8833 133.319 22.126C133.785 22.3687 134.133 22.6977 134.362 23.113L133.417 23.666C133.337 23.498 133.216 23.351 133.053 23.225C132.889 23.0943 132.703 22.9917 132.493 22.917C132.283 22.8423 132.068 22.8027 131.849 22.798C131.578 22.7887 131.324 22.8237 131.086 22.903C130.852 22.9823 130.663 23.1037 130.519 23.267C130.379 23.4257 130.309 23.624 130.309 23.862C130.309 24.0953 130.383 24.2727 130.533 24.394C130.687 24.5153 130.885 24.6133 131.128 24.688C131.375 24.758 131.643 24.8397 131.933 24.933C132.357 25.0683 132.754 25.2247 133.123 25.402C133.491 25.5793 133.788 25.801 134.012 26.067C134.24 26.333 134.352 26.662 134.348 27.054C134.348 27.4833 134.219 27.859 133.963 28.181C133.706 28.4983 133.372 28.741 132.962 28.909C132.556 29.077 132.119 29.1517 131.653 29.133Z" fill="white"></path></svg>