<svg xmlns="http://www.w3.org/2000/svg" width="170" height="49" viewBox="0 0 170 49" fill="none"><rect x="0.5" y="0.5" width="169" height="48" rx="7.5" fill="#1A1A1A"></rect><rect x="0.5" y="0.5" width="169" height="48" rx="7.5" stroke="#262626"></rect><path d="M23.948 29L20.392 19.2H21.638L24.676 27.565L27.721 19.2H28.96L25.404 29H23.948ZM29.6857 22H30.8617V29H29.6857V22ZM30.2877 20.859C30.101 20.859 29.9447 20.7983 29.8187 20.677C29.6927 20.5557 29.6297 20.404 29.6297 20.222C29.6297 20.04 29.6927 19.8883 29.8187 19.767C29.9447 19.6457 30.0987 19.585 30.2807 19.585C30.4627 19.585 30.6167 19.6457 30.7427 19.767C30.8687 19.8883 30.9317 20.04 30.9317 20.222C30.9317 20.404 30.8687 20.5557 30.7427 20.677C30.6214 20.7983 30.4697 20.859 30.2877 20.859ZM35.5274 29.182C34.8834 29.182 34.2954 29.0163 33.7634 28.685C33.2361 28.3537 32.8138 27.9103 32.4964 27.355C32.1838 26.795 32.0274 26.1767 32.0274 25.5C32.0274 24.9867 32.1184 24.5083 32.3004 24.065C32.4824 23.617 32.7321 23.225 33.0494 22.889C33.3714 22.5483 33.7448 22.2823 34.1694 22.091C34.5941 21.8997 35.0468 21.804 35.5274 21.804C36.0548 21.804 36.5378 21.9113 36.9764 22.126C37.4198 22.336 37.7978 22.63 38.1104 23.008C38.4278 23.386 38.6634 23.8247 38.8174 24.324C38.9761 24.8233 39.0344 25.3577 38.9924 25.927H33.2804C33.3364 26.3237 33.4671 26.6783 33.6724 26.991C33.8778 27.299 34.1391 27.544 34.4564 27.726C34.7784 27.908 35.1354 28.0013 35.5274 28.006C35.9474 28.006 36.3278 27.8987 36.6684 27.684C37.0091 27.4647 37.2844 27.166 37.4944 26.788L38.6914 27.068C38.4114 27.6887 37.9891 28.1973 37.4244 28.594C36.8598 28.986 36.2274 29.182 35.5274 29.182ZM33.2454 25.003H37.8094C37.7721 24.611 37.6461 24.254 37.4314 23.932C37.2168 23.6053 36.9438 23.344 36.6124 23.148C36.2811 22.952 35.9194 22.854 35.5274 22.854C35.1354 22.854 34.7761 22.9497 34.4494 23.141C34.1228 23.3323 33.8521 23.5913 33.6374 23.918C33.4274 24.24 33.2968 24.6017 33.2454 25.003ZM42.9862 29H41.7963L39.4513 22H40.5993L42.4053 27.341L44.1903 22H45.4013L47.1933 27.341L48.9783 22H50.1403L47.7953 29H46.5983L44.7853 23.61L42.9862 29ZM58.0429 19.2H59.4639L63.0269 29H61.7809L61.0529 26.998H56.4539L55.7329 29H54.4799L58.0429 19.2ZM56.8879 25.822H60.6189L58.7499 20.705L56.8879 25.822ZM64.3029 29V18.5H65.4789V29H64.3029ZM67.1603 29V18.5H68.3363V29H67.1603ZM80.794 19.2V20.376H77.532V29H76.356V20.376H73.101V19.2H80.794ZM84.1993 29.182C83.5553 29.182 82.9673 29.0163 82.4353 28.685C81.908 28.3537 81.4856 27.9103 81.1683 27.355C80.8556 26.795 80.6993 26.1767 80.6993 25.5C80.6993 24.9867 80.7903 24.5083 80.9723 24.065C81.1543 23.617 81.404 23.225 81.7213 22.889C82.0433 22.5483 82.4166 22.2823 82.8413 22.091C83.266 21.8997 83.7186 21.804 84.1993 21.804C84.7266 21.804 85.2096 21.9113 85.6483 22.126C86.0916 22.336 86.4696 22.63 86.7823 23.008C87.0996 23.386 87.3353 23.8247 87.4893 24.324C87.648 24.8233 87.7063 25.3577 87.6643 25.927H81.9523C82.0083 26.3237 82.139 26.6783 82.3443 26.991C82.5496 27.299 82.811 27.544 83.1283 27.726C83.4503 27.908 83.8073 28.0013 84.1993 28.006C84.6193 28.006 84.9996 27.8987 85.3403 27.684C85.681 27.4647 85.9563 27.166 86.1663 26.788L87.3633 27.068C87.0833 27.6887 86.661 28.1973 86.0963 28.594C85.5316 28.986 84.8993 29.182 84.1993 29.182ZM81.9173 25.003H86.4813C86.444 24.611 86.318 24.254 86.1033 23.932C85.8886 23.6053 85.6156 23.344 85.2843 23.148C84.953 22.952 84.5913 22.854 84.1993 22.854C83.8073 22.854 83.448 22.9497 83.1213 23.141C82.7946 23.3323 82.524 23.5913 82.3093 23.918C82.0993 24.24 81.9686 24.6017 81.9173 25.003ZM91.0063 29.133C90.6283 29.119 90.2596 29.049 89.9003 28.923C89.5456 28.7923 89.2329 28.6173 88.9623 28.398C88.6963 28.174 88.5026 27.9173 88.3813 27.628L89.3893 27.194C89.4593 27.3527 89.5853 27.502 89.7673 27.642C89.9493 27.782 90.1593 27.894 90.3973 27.978C90.6353 28.062 90.8756 28.104 91.1183 28.104C91.3749 28.104 91.6153 28.0643 91.8393 27.985C92.0633 27.9057 92.2453 27.789 92.3853 27.635C92.5299 27.4763 92.6023 27.2873 92.6023 27.068C92.6023 26.8347 92.5229 26.6527 92.3643 26.522C92.2103 26.3867 92.0143 26.2817 91.7763 26.207C91.5429 26.1277 91.3049 26.053 91.0623 25.983C90.5816 25.8617 90.1523 25.717 89.7743 25.549C89.3963 25.3763 89.0976 25.1593 88.8783 24.898C88.6636 24.632 88.5563 24.2937 88.5563 23.883C88.5563 23.449 88.6753 23.0733 88.9133 22.756C89.1559 22.4387 89.4733 22.1937 89.8653 22.021C90.2573 21.8483 90.6773 21.762 91.1253 21.762C91.6899 21.762 92.2056 21.8833 92.6723 22.126C93.1389 22.3687 93.4866 22.6977 93.7153 23.113L92.7703 23.666C92.6909 23.498 92.5696 23.351 92.4062 23.225C92.2429 23.0943 92.0563 22.9917 91.8463 22.917C91.6363 22.8423 91.4216 22.8027 91.2023 22.798C90.9316 22.7887 90.6773 22.8237 90.4393 22.903C90.2059 22.9823 90.0169 23.1037 89.8723 23.267C89.7323 23.4257 89.6623 23.624 89.6623 23.862C89.6623 24.0953 89.7369 24.2727 89.8863 24.394C90.0403 24.5153 90.2386 24.6133 90.4813 24.688C90.7286 24.758 90.9969 24.8397 91.2863 24.933C91.7109 25.0683 92.1076 25.2247 92.4763 25.402C92.8449 25.5793 93.1413 25.801 93.3653 26.067C93.5939 26.333 93.7059 26.662 93.7013 27.054C93.7013 27.4833 93.5729 27.859 93.3163 28.181C93.0596 28.4983 92.7259 28.741 92.3153 28.909C91.9093 29.077 91.4729 29.1517 91.0063 29.133ZM98.5265 23.176H96.9375L96.9305 29H95.7545L95.7615 23.176H94.5575V22H95.7615L95.7545 19.802H96.9305L96.9375 22H98.5265V23.176ZM99.713 22H100.889V29H99.713V22ZM100.315 20.859C100.128 20.859 99.972 20.7983 99.846 20.677C99.72 20.5557 99.657 20.404 99.657 20.222C99.657 20.04 99.72 19.8883 99.846 19.767C99.972 19.6457 100.126 19.585 100.308 19.585C100.49 19.585 100.644 19.6457 100.77 19.767C100.896 19.8883 100.959 20.04 100.959 20.222C100.959 20.404 100.896 20.5557 100.77 20.677C100.649 20.7983 100.497 20.859 100.315 20.859ZM102.529 29V22H103.705V22.875C103.953 22.5483 104.263 22.2893 104.636 22.098C105.014 21.902 105.425 21.804 105.868 21.804C106.386 21.804 106.86 21.93 107.289 22.182C107.719 22.434 108.057 22.7677 108.304 23.183C108.552 22.7677 108.888 22.434 109.312 22.182C109.742 21.93 110.213 21.804 110.726 21.804C111.254 21.804 111.732 21.9323 112.161 22.189C112.591 22.441 112.931 22.7817 113.183 23.211C113.44 23.6403 113.568 24.1187 113.568 24.646V29H112.392V24.926C112.392 24.5807 112.308 24.261 112.14 23.967C111.972 23.673 111.746 23.4373 111.461 23.26C111.177 23.0827 110.862 22.994 110.516 22.994C110.171 22.994 109.856 23.078 109.571 23.246C109.287 23.4093 109.06 23.638 108.892 23.932C108.724 24.2213 108.64 24.5527 108.64 24.926V29H107.464V24.926C107.464 24.5527 107.38 24.2213 107.212 23.932C107.044 23.638 106.816 23.4093 106.526 23.246C106.242 23.078 105.927 22.994 105.581 22.994C105.241 22.994 104.926 23.0827 104.636 23.26C104.352 23.4373 104.125 23.673 103.957 23.967C103.789 24.261 103.705 24.5807 103.705 24.926V29H102.529ZM117.914 29.182C117.27 29.182 116.682 29.0163 116.15 28.685C115.623 28.3537 115.2 27.9103 114.883 27.355C114.57 26.795 114.414 26.1767 114.414 25.5C114.414 24.9867 114.505 24.5083 114.687 24.065C114.869 23.617 115.119 23.225 115.436 22.889C115.758 22.5483 116.131 22.2823 116.556 22.091C116.981 21.8997 117.433 21.804 117.914 21.804C118.558 21.804 119.144 21.9697 119.671 22.301C120.203 22.6323 120.625 23.078 120.938 23.638C121.255 24.198 121.414 24.8187 121.414 25.5C121.414 26.0087 121.323 26.4847 121.141 26.928C120.959 27.3713 120.707 27.7633 120.385 28.104C120.068 28.44 119.697 28.7037 119.272 28.895C118.852 29.0863 118.399 29.182 117.914 29.182ZM117.914 28.006C118.353 28.006 118.747 27.8917 119.097 27.663C119.452 27.4297 119.729 27.124 119.93 26.746C120.135 26.3633 120.238 25.948 120.238 25.5C120.238 25.0427 120.133 24.6227 119.923 24.24C119.718 23.8573 119.44 23.5517 119.09 23.323C118.74 23.0943 118.348 22.98 117.914 22.98C117.475 22.98 117.081 23.0967 116.731 23.33C116.381 23.5587 116.103 23.8643 115.898 24.247C115.693 24.6297 115.59 25.0473 115.59 25.5C115.59 25.9667 115.695 26.3913 115.905 26.774C116.115 27.152 116.397 27.453 116.752 27.677C117.107 27.8963 117.494 28.006 117.914 28.006ZM128.76 24.646V29H127.584V24.905C127.584 24.5503 127.498 24.2283 127.325 23.939C127.153 23.6497 126.922 23.421 126.632 23.253C126.343 23.0803 126.021 22.994 125.666 22.994C125.316 22.994 124.994 23.0803 124.7 23.253C124.411 23.421 124.18 23.6497 124.007 23.939C123.835 24.2283 123.748 24.5503 123.748 24.905V29H122.572V22H123.748V22.875C123.996 22.5483 124.308 22.2893 124.686 22.098C125.064 21.902 125.475 21.804 125.918 21.804C126.441 21.804 126.917 21.9323 127.346 22.189C127.78 22.441 128.123 22.7817 128.375 23.211C128.632 23.6403 128.76 24.1187 128.76 24.646ZM130.16 22H131.336V29H130.16V22ZM130.762 20.859C130.576 20.859 130.419 20.7983 130.293 20.677C130.167 20.5557 130.104 20.404 130.104 20.222C130.104 20.04 130.167 19.8883 130.293 19.767C130.419 19.6457 130.573 19.585 130.755 19.585C130.937 19.585 131.091 19.6457 131.217 19.767C131.343 19.8883 131.406 20.04 131.406 20.222C131.406 20.404 131.343 20.5557 131.217 20.677C131.096 20.7983 130.944 20.859 130.762 20.859ZM138.55 22H139.726V29H138.55L138.501 27.817C138.282 28.223 137.978 28.552 137.591 28.804C137.208 29.056 136.751 29.182 136.219 29.182C135.706 29.182 135.225 29.0863 134.777 28.895C134.329 28.699 133.932 28.4307 133.587 28.09C133.246 27.7447 132.98 27.348 132.789 26.9C132.598 26.452 132.502 25.969 132.502 25.451C132.502 24.9517 132.595 24.4803 132.782 24.037C132.969 23.5937 133.228 23.2063 133.559 22.875C133.895 22.539 134.282 22.2777 134.721 22.091C135.16 21.8997 135.631 21.804 136.135 21.804C136.686 21.804 137.169 21.9347 137.584 22.196C137.999 22.4527 138.335 22.7863 138.592 23.197L138.55 22ZM136.198 28.041C136.66 28.041 137.059 27.929 137.395 27.705C137.736 27.4763 137.997 27.1683 138.179 26.781C138.366 26.3937 138.459 25.9667 138.459 25.5C138.459 25.024 138.366 24.5947 138.179 24.212C137.992 23.8247 137.729 23.519 137.388 23.295C137.052 23.0663 136.655 22.952 136.198 22.952C135.736 22.952 135.316 23.0663 134.938 23.295C134.56 23.5237 134.259 23.8317 134.035 24.219C133.816 24.6017 133.706 25.0287 133.706 25.5C133.706 25.9713 133.82 26.4007 134.049 26.788C134.278 27.1707 134.581 27.4763 134.959 27.705C135.337 27.929 135.75 28.041 136.198 28.041ZM141.207 29V18.5H142.383V29H141.207ZM146.2 29.133C145.822 29.119 145.453 29.049 145.094 28.923C144.739 28.7923 144.426 28.6173 144.156 28.398C143.89 28.174 143.696 27.9173 143.575 27.628L144.583 27.194C144.653 27.3527 144.779 27.502 144.961 27.642C145.143 27.782 145.353 27.894 145.591 27.978C145.829 28.062 146.069 28.104 146.312 28.104C146.568 28.104 146.809 28.0643 147.033 27.985C147.257 27.9057 147.439 27.789 147.579 27.635C147.723 27.4763 147.796 27.2873 147.796 27.068C147.796 26.8347 147.716 26.6527 147.558 26.522C147.404 26.3867 147.208 26.2817 146.97 26.207C146.736 26.1277 146.498 26.053 146.256 25.983C145.775 25.8617 145.346 25.717 144.968 25.549C144.59 25.3763 144.291 25.1593 144.072 24.898C143.857 24.632 143.75 24.2937 143.75 23.883C143.75 23.449 143.869 23.0733 144.107 22.756C144.349 22.4387 144.667 22.1937 145.059 22.021C145.451 21.8483 145.871 21.762 146.319 21.762C146.883 21.762 147.399 21.8833 147.866 22.126C148.332 22.3687 148.68 22.6977 148.909 23.113L147.964 23.666C147.884 23.498 147.763 23.351 147.6 23.225C147.436 23.0943 147.25 22.9917 147.04 22.917C146.83 22.8423 146.615 22.8027 146.396 22.798C146.125 22.7887 145.871 22.8237 145.633 22.903C145.399 22.9823 145.21 23.1037 145.066 23.267C144.926 23.4257 144.856 23.624 144.856 23.862C144.856 24.0953 144.93 24.2727 145.08 24.394C145.234 24.5153 145.432 24.6133 145.675 24.688C145.922 24.758 146.19 24.8397 146.48 24.933C146.904 25.0683 147.301 25.2247 147.67 25.402C148.038 25.5793 148.335 25.801 148.559 26.067C148.787 26.333 148.899 26.662 148.895 27.054C148.895 27.4833 148.766 27.859 148.51 28.181C148.253 28.4983 147.919 28.741 147.509 28.909C147.103 29.077 146.666 29.1517 146.2 29.133Z" fill="white"></path></svg>