<svg xmlns="http://www.w3.org/2000/svg" width="414" height="282" viewBox="0 0 414 282" fill="none"><rect x="0.5" y="0.5" width="412.333" height="281" rx="9.5" fill="#141414"></rect><rect x="0.5" y="0.5" width="412.333" height="281" rx="9.5" stroke="#262626"></rect><path d="M49.61 48H51.69V62H49.61V55.54H43.28V62H41.2V48H43.28V53.46H49.61V48ZM58.3539 62.26C57.4339 62.26 56.5939 62.0233 55.8339 61.55C55.0806 61.0767 54.4772 60.4433 54.0239 59.65C53.5772 58.85 53.3539 57.9667 53.3539 57C53.3539 56.2667 53.4839 55.5833 53.7439 54.95C54.0039 54.31 54.3606 53.75 54.8139 53.27C55.2739 52.7833 55.8072 52.4033 56.4139 52.13C57.0206 51.8567 57.6672 51.72 58.3539 51.72C59.2739 51.72 60.1106 51.9567 60.8639 52.43C61.6239 52.9033 62.2272 53.54 62.6739 54.34C63.1272 55.14 63.3539 56.0267 63.3539 57C63.3539 57.7267 63.2239 58.4067 62.9639 59.04C62.7039 59.6733 62.3439 60.2333 61.8839 60.72C61.4306 61.2 60.9006 61.5767 60.2939 61.85C59.6939 62.1233 59.0472 62.26 58.3539 62.26ZM58.3539 60.18C58.9072 60.18 59.4039 60.0333 59.8439 59.74C60.2839 59.4467 60.6306 59.06 60.8839 58.58C61.1439 58.0933 61.2739 57.5667 61.2739 57C61.2739 56.42 61.1406 55.8867 60.8739 55.4C60.6139 54.9133 60.2639 54.5267 59.8239 54.24C59.3839 53.9467 58.8939 53.8 58.3539 53.8C57.8072 53.8 57.3106 53.9467 56.8639 54.24C56.4239 54.5333 56.0739 54.9233 55.8139 55.41C55.5606 55.8967 55.4339 56.4267 55.4339 57C55.4339 57.5933 55.5672 58.13 55.8339 58.61C56.1006 59.09 56.4539 59.4733 56.8939 59.76C57.3406 60.04 57.8272 60.18 58.3539 60.18ZM69.3208 62H67.2508L63.9008 52H65.9408L68.3008 59.02L70.6408 52H72.7408L75.0808 59.02L77.4308 52H79.4708L76.1308 62H74.0408L71.6808 54.93L69.3208 62ZM93.8728 47H95.9528V62H93.8728V60.53C93.5461 61.05 93.1195 61.47 92.5928 61.79C92.0661 62.1033 91.4495 62.26 90.7428 62.26C90.0161 62.26 89.3361 62.1233 88.7028 61.85C88.0695 61.5767 87.5095 61.2 87.0228 60.72C86.5428 60.2333 86.1661 59.6733 85.8928 59.04C85.6195 58.4067 85.4828 57.7267 85.4828 57C85.4828 56.2733 85.6195 55.5933 85.8928 54.96C86.1661 54.32 86.5428 53.76 87.0228 53.28C87.5095 52.7933 88.0695 52.4133 88.7028 52.14C89.3361 51.8667 90.0161 51.73 90.7428 51.73C91.4495 51.73 92.0661 51.89 92.5928 52.21C93.1195 52.5233 93.5461 52.9367 93.8728 53.45V47ZM90.7628 60.25C91.3495 60.25 91.8628 60.1067 92.3028 59.82C92.7428 59.5267 93.0828 59.1333 93.3228 58.64C93.5695 58.1467 93.6928 57.6 93.6928 57C93.6928 56.3933 93.5695 55.8433 93.3228 55.35C93.0761 54.8567 92.7328 54.4667 92.2928 54.18C91.8595 53.8867 91.3495 53.74 90.7628 53.74C90.1828 53.74 89.6528 53.8867 89.1728 54.18C88.6995 54.4733 88.3195 54.8667 88.0328 55.36C87.7528 55.8533 87.6128 56.4 87.6128 57C87.6128 57.6067 87.7561 58.1567 88.0428 58.65C88.3361 59.1367 88.7195 59.5267 89.1928 59.82C89.6728 60.1067 90.1961 60.25 90.7628 60.25ZM102.612 62.26C101.692 62.26 100.852 62.0233 100.092 61.55C99.3384 61.0767 98.7351 60.4433 98.2817 59.65C97.8351 58.85 97.6117 57.9667 97.6117 57C97.6117 56.2667 97.7417 55.5833 98.0017 54.95C98.2617 54.31 98.6184 53.75 99.0717 53.27C99.5317 52.7833 100.065 52.4033 100.672 52.13C101.278 51.8567 101.925 51.72 102.612 51.72C103.532 51.72 104.368 51.9567 105.122 52.43C105.882 52.9033 106.485 53.54 106.932 54.34C107.385 55.14 107.612 56.0267 107.612 57C107.612 57.7267 107.482 58.4067 107.222 59.04C106.962 59.6733 106.602 60.2333 106.142 60.72C105.688 61.2 105.158 61.5767 104.552 61.85C103.952 62.1233 103.305 62.26 102.612 62.26ZM102.612 60.18C103.165 60.18 103.662 60.0333 104.102 59.74C104.542 59.4467 104.888 59.06 105.142 58.58C105.402 58.0933 105.532 57.5667 105.532 57C105.532 56.42 105.398 55.8867 105.132 55.4C104.872 54.9133 104.522 54.5267 104.082 54.24C103.642 53.9467 103.152 53.8 102.612 53.8C102.065 53.8 101.568 53.9467 101.122 54.24C100.682 54.5333 100.332 54.9233 100.072 55.41C99.8184 55.8967 99.6917 56.4267 99.6917 57C99.6917 57.5933 99.8251 58.13 100.092 58.61C100.358 59.09 100.712 59.4733 101.152 59.76C101.598 60.04 102.085 60.18 102.612 60.18ZM114.508 62V48H116.588V62H114.508ZM127.091 62.19C126.564 62.1567 126.051 62.05 125.551 61.87C125.051 61.69 124.611 61.4467 124.231 61.14C123.857 60.8267 123.577 60.46 123.391 60.04L125.161 59.28C125.247 59.46 125.397 59.6367 125.611 59.81C125.831 59.9833 126.087 60.1267 126.381 60.24C126.674 60.3467 126.981 60.4 127.301 60.4C127.614 60.4 127.904 60.3567 128.171 60.27C128.444 60.1767 128.667 60.0367 128.841 59.85C129.014 59.6633 129.101 59.44 129.101 59.18C129.101 58.8867 129.001 58.66 128.801 58.5C128.607 58.3333 128.364 58.2067 128.071 58.12C127.777 58.0333 127.484 57.95 127.191 57.87C126.537 57.7233 125.937 57.5233 125.391 57.27C124.851 57.01 124.421 56.68 124.101 56.28C123.781 55.8733 123.621 55.3767 123.621 54.79C123.621 54.15 123.794 53.5967 124.141 53.13C124.487 52.6567 124.941 52.2933 125.501 52.04C126.067 51.7867 126.671 51.66 127.311 51.66C128.111 51.66 128.844 51.83 129.511 52.17C130.177 52.51 130.687 52.9767 131.041 53.57L129.391 54.55C129.291 54.35 129.141 54.17 128.941 54.01C128.741 53.85 128.514 53.7233 128.261 53.63C128.007 53.53 127.744 53.4733 127.471 53.46C127.131 53.4467 126.814 53.4867 126.521 53.58C126.234 53.6667 126.004 53.8067 125.831 54C125.657 54.1933 125.571 54.44 125.571 54.74C125.571 55.0333 125.674 55.2533 125.881 55.4C126.087 55.54 126.347 55.6533 126.661 55.74C126.981 55.8267 127.307 55.9233 127.641 56.03C128.234 56.2167 128.791 56.4467 129.311 56.72C129.831 56.9867 130.251 57.3167 130.571 57.71C130.891 58.1033 131.044 58.5833 131.031 59.15C131.031 59.7767 130.841 60.3267 130.461 60.8C130.087 61.2733 129.601 61.6333 129.001 61.88C128.401 62.1267 127.764 62.23 127.091 62.19ZM137.006 62.26C136.086 62.26 135.246 62.0233 134.486 61.55C133.733 61.0767 133.13 60.4433 132.676 59.65C132.23 58.85 132.006 57.9667 132.006 57C132.006 56.2667 132.136 55.5833 132.396 54.95C132.656 54.31 133.013 53.75 133.466 53.27C133.926 52.7833 134.46 52.4033 135.066 52.13C135.673 51.8567 136.32 51.72 137.006 51.72C137.773 51.72 138.476 51.88 139.116 52.2C139.756 52.5133 140.303 52.95 140.756 53.51C141.21 54.0633 141.543 54.7033 141.756 55.43C141.97 56.15 142.033 56.9167 141.946 57.73H134.236C134.323 58.19 134.49 58.6067 134.736 58.98C134.99 59.3467 135.31 59.6367 135.696 59.85C136.09 60.0633 136.526 60.1733 137.006 60.18C137.513 60.18 137.973 60.0533 138.386 59.8C138.806 59.5467 139.15 59.1967 139.416 58.75L141.526 59.24C141.126 60.1267 140.523 60.8533 139.716 61.42C138.91 61.98 138.006 62.26 137.006 62.26ZM134.166 56.14H139.846C139.78 55.66 139.61 55.2267 139.336 54.84C139.07 54.4467 138.733 54.1367 138.326 53.91C137.926 53.6767 137.486 53.56 137.006 53.56C136.533 53.56 136.093 53.6733 135.686 53.9C135.286 54.1267 134.953 54.4367 134.686 54.83C134.426 55.2167 134.253 55.6533 134.166 56.14ZM151.363 52H153.443V62H151.353L151.273 60.55C150.979 61.0633 150.583 61.4767 150.083 61.79C149.583 62.1033 148.993 62.26 148.313 62.26C147.579 62.26 146.889 62.1233 146.243 61.85C145.596 61.57 145.026 61.1833 144.533 60.69C144.046 60.1967 143.666 59.63 143.393 58.99C143.119 58.3433 142.983 57.65 142.983 56.91C142.983 56.1967 143.116 55.5267 143.383 54.9C143.649 54.2667 144.019 53.7133 144.493 53.24C144.966 52.7667 145.513 52.3967 146.133 52.13C146.759 51.8567 147.429 51.72 148.143 51.72C148.869 51.72 149.509 51.8867 150.063 52.22C150.623 52.5467 151.086 52.9667 151.453 53.48L151.363 52ZM148.263 60.25C148.849 60.25 149.363 60.1067 149.803 59.82C150.243 59.5267 150.583 59.1333 150.823 58.64C151.069 58.1467 151.193 57.6 151.193 57C151.193 56.3933 151.069 55.8433 150.823 55.35C150.576 54.8567 150.233 54.4667 149.793 54.18C149.359 53.8867 148.849 53.74 148.263 53.74C147.683 53.74 147.153 53.8867 146.673 54.18C146.193 54.4733 145.813 54.8667 145.533 55.36C145.253 55.8533 145.113 56.4 145.113 57C145.113 57.6067 145.256 58.1567 145.543 58.65C145.836 59.1367 146.219 59.5267 146.693 59.82C147.173 60.1067 147.696 60.25 148.263 60.25ZM155.438 62V52H157.518V53.06C157.865 52.6467 158.292 52.32 158.798 52.08C159.305 51.84 159.852 51.72 160.438 51.72C160.812 51.72 161.182 51.77 161.548 51.87L160.718 53.97C160.458 53.87 160.198 53.82 159.938 53.82C159.498 53.82 159.095 53.93 158.728 54.15C158.362 54.3633 158.068 54.6533 157.848 55.02C157.628 55.3867 157.518 55.7933 157.518 56.24V62H155.438ZM168.765 59.16L170.625 60.17C170.172 60.8033 169.595 61.31 168.895 61.69C168.202 62.07 167.448 62.26 166.635 62.26C165.715 62.26 164.875 62.0233 164.115 61.55C163.362 61.0767 162.758 60.4433 162.305 59.65C161.858 58.85 161.635 57.9667 161.635 57C161.635 56.2667 161.765 55.5833 162.025 54.95C162.285 54.31 162.642 53.75 163.095 53.27C163.555 52.7833 164.088 52.4033 164.695 52.13C165.302 51.8567 165.948 51.72 166.635 51.72C167.448 51.72 168.202 51.91 168.895 52.29C169.595 52.67 170.172 53.18 170.625 53.82L168.765 54.83C168.485 54.4967 168.158 54.2433 167.785 54.07C167.412 53.89 167.028 53.8 166.635 53.8C166.088 53.8 165.592 53.95 165.145 54.25C164.705 54.5433 164.355 54.9333 164.095 55.42C163.842 55.9 163.715 56.4267 163.715 57C163.715 57.5667 163.845 58.0933 164.105 58.58C164.365 59.06 164.715 59.4467 165.155 59.74C165.602 60.0333 166.095 60.18 166.635 60.18C167.048 60.18 167.442 60.0867 167.815 59.9C168.188 59.7133 168.505 59.4667 168.765 59.16ZM181.196 55.73V62H179.116V56.24C179.116 55.7933 179.006 55.3867 178.786 55.02C178.573 54.6533 178.283 54.3633 177.916 54.15C177.556 53.93 177.149 53.82 176.696 53.82C176.256 53.82 175.853 53.93 175.486 54.15C175.119 54.3633 174.826 54.6533 174.606 55.02C174.386 55.3867 174.276 55.7933 174.276 56.24V62H172.196V47H174.276V53.06C174.623 52.6467 175.049 52.32 175.556 52.08C176.063 51.84 176.609 51.72 177.196 51.72C177.936 51.72 178.609 51.9 179.216 52.26C179.823 52.62 180.303 53.1033 180.656 53.71C181.016 54.3167 181.196 54.99 181.196 55.73ZM190.567 49.73V52H193.387V54.08H190.567V62H188.487V54.08H187.297V52H188.487V49.73C188.487 49.1833 188.62 48.6867 188.887 48.24C189.154 47.7867 189.51 47.4267 189.957 47.16C190.41 46.8933 190.914 46.76 191.467 46.76C191.867 46.76 192.257 46.84 192.637 47C193.017 47.16 193.357 47.4067 193.657 47.74L192.167 49.21C192.094 49.09 191.99 49 191.857 48.94C191.73 48.8733 191.6 48.84 191.467 48.84C191.22 48.84 191.007 48.9267 190.827 49.1C190.654 49.2733 190.567 49.4833 190.567 49.73ZM199.213 62.26C198.293 62.26 197.453 62.0233 196.693 61.55C195.94 61.0767 195.337 60.4433 194.883 59.65C194.437 58.85 194.213 57.9667 194.213 57C194.213 56.2667 194.343 55.5833 194.603 54.95C194.863 54.31 195.22 53.75 195.673 53.27C196.133 52.7833 196.667 52.4033 197.273 52.13C197.88 51.8567 198.527 51.72 199.213 51.72C200.133 51.72 200.97 51.9567 201.723 52.43C202.483 52.9033 203.087 53.54 203.533 54.34C203.987 55.14 204.213 56.0267 204.213 57C204.213 57.7267 204.083 58.4067 203.823 59.04C203.563 59.6733 203.203 60.2333 202.743 60.72C202.29 61.2 201.76 61.5767 201.153 61.85C200.553 62.1233 199.907 62.26 199.213 62.26ZM199.213 60.18C199.767 60.18 200.263 60.0333 200.703 59.74C201.143 59.4467 201.49 59.06 201.743 58.58C202.003 58.0933 202.133 57.5667 202.133 57C202.133 56.42 202 55.8867 201.733 55.4C201.473 54.9133 201.123 54.5267 200.683 54.24C200.243 53.9467 199.753 53.8 199.213 53.8C198.667 53.8 198.17 53.9467 197.723 54.24C197.283 54.5333 196.933 54.9233 196.673 55.41C196.42 55.8967 196.293 56.4267 196.293 57C196.293 57.5933 196.427 58.13 196.693 58.61C196.96 59.09 197.313 59.4733 197.753 59.76C198.2 60.04 198.687 60.18 199.213 60.18ZM205.829 62V52H207.909V53.06C208.256 52.6467 208.682 52.32 209.189 52.08C209.696 51.84 210.242 51.72 210.829 51.72C211.202 51.72 211.572 51.77 211.939 51.87L211.109 53.97C210.849 53.87 210.589 53.82 210.329 53.82C209.889 53.82 209.486 53.93 209.119 54.15C208.752 54.3633 208.459 54.6533 208.239 55.02C208.019 55.3867 207.909 55.7933 207.909 56.24V62H205.829ZM220.233 67H218.153V52H220.233V53.47C220.566 52.9567 220.993 52.54 221.513 52.22C222.033 51.9 222.646 51.74 223.353 51.74C224.08 51.74 224.76 51.8767 225.393 52.15C226.033 52.4233 226.593 52.8033 227.073 53.29C227.553 53.77 227.93 54.3267 228.203 54.96C228.476 55.5933 228.613 56.2733 228.613 57C228.613 57.7267 228.476 58.41 228.203 59.05C227.93 59.69 227.553 60.2533 227.073 60.74C226.593 61.22 226.033 61.5967 225.393 61.87C224.76 62.1433 224.08 62.28 223.353 62.28C222.646 62.28 222.033 62.12 221.513 61.8C220.993 61.4733 220.566 61.0567 220.233 60.55V67ZM223.333 53.75C222.753 53.75 222.243 53.8967 221.803 54.19C221.363 54.4833 221.02 54.8767 220.773 55.37C220.526 55.8567 220.403 56.4 220.403 57C220.403 57.6 220.526 58.1467 220.773 58.64C221.02 59.1333 221.363 59.5267 221.803 59.82C222.243 60.1133 222.753 60.26 223.333 60.26C223.906 60.26 224.433 60.1167 224.913 59.83C225.393 59.5367 225.776 59.1433 226.063 58.65C226.35 58.1567 226.493 57.6067 226.493 57C226.493 56.4067 226.35 55.8633 226.063 55.37C225.783 54.8767 225.403 54.4833 224.923 54.19C224.443 53.8967 223.913 53.75 223.333 53.75ZM230.243 62V52H232.323V53.06C232.67 52.6467 233.096 52.32 233.603 52.08C234.11 51.84 234.656 51.72 235.243 51.72C235.616 51.72 235.986 51.77 236.353 51.87L235.523 53.97C235.263 53.87 235.003 53.82 234.743 53.82C234.303 53.82 233.9 53.93 233.533 54.15C233.166 54.3633 232.873 54.6533 232.653 55.02C232.433 55.3867 232.323 55.7933 232.323 56.24V62H230.243ZM241.44 62.26C240.52 62.26 239.68 62.0233 238.92 61.55C238.167 61.0767 237.563 60.4433 237.11 59.65C236.663 58.85 236.44 57.9667 236.44 57C236.44 56.2667 236.57 55.5833 236.83 54.95C237.09 54.31 237.447 53.75 237.9 53.27C238.36 52.7833 238.893 52.4033 239.5 52.13C240.107 51.8567 240.753 51.72 241.44 51.72C242.36 51.72 243.197 51.9567 243.95 52.43C244.71 52.9033 245.313 53.54 245.76 54.34C246.213 55.14 246.44 56.0267 246.44 57C246.44 57.7267 246.31 58.4067 246.05 59.04C245.79 59.6733 245.43 60.2333 244.97 60.72C244.517 61.2 243.987 61.5767 243.38 61.85C242.78 62.1233 242.133 62.26 241.44 62.26ZM241.44 60.18C241.993 60.18 242.49 60.0333 242.93 59.74C243.37 59.4467 243.717 59.06 243.97 58.58C244.23 58.0933 244.36 57.5667 244.36 57C244.36 56.42 244.227 55.8867 243.96 55.4C243.7 54.9133 243.35 54.5267 242.91 54.24C242.47 53.9467 241.98 53.8 241.44 53.8C240.893 53.8 240.397 53.9467 239.95 54.24C239.51 54.5333 239.16 54.9233 238.9 55.41C238.647 55.8967 238.52 56.4267 238.52 57C238.52 57.5933 238.653 58.13 238.92 58.61C239.187 59.09 239.54 59.4733 239.98 59.76C240.427 60.04 240.913 60.18 241.44 60.18ZM250.135 67H248.055V52H250.135V53.47C250.469 52.9567 250.895 52.54 251.415 52.22C251.935 51.9 252.549 51.74 253.255 51.74C253.982 51.74 254.662 51.8767 255.295 52.15C255.935 52.4233 256.495 52.8033 256.975 53.29C257.455 53.77 257.832 54.3267 258.105 54.96C258.379 55.5933 258.515 56.2733 258.515 57C258.515 57.7267 258.379 58.41 258.105 59.05C257.832 59.69 257.455 60.2533 256.975 60.74C256.495 61.22 255.935 61.5967 255.295 61.87C254.662 62.1433 253.982 62.28 253.255 62.28C252.549 62.28 251.935 62.12 251.415 61.8C250.895 61.4733 250.469 61.0567 250.135 60.55V67ZM253.235 53.75C252.655 53.75 252.145 53.8967 251.705 54.19C251.265 54.4833 250.922 54.8767 250.675 55.37C250.429 55.8567 250.305 56.4 250.305 57C250.305 57.6 250.429 58.1467 250.675 58.64C250.922 59.1333 251.265 59.5267 251.705 59.82C252.145 60.1133 252.655 60.26 253.235 60.26C253.809 60.26 254.335 60.1167 254.815 59.83C255.295 59.5367 255.679 59.1433 255.965 58.65C256.252 58.1567 256.395 57.6067 256.395 57C256.395 56.4067 256.252 55.8633 255.965 55.37C255.685 54.8767 255.305 54.4833 254.825 54.19C254.345 53.8967 253.815 53.75 253.235 53.75ZM264.526 62.26C263.606 62.26 262.766 62.0233 262.006 61.55C261.252 61.0767 260.649 60.4433 260.196 59.65C259.749 58.85 259.526 57.9667 259.526 57C259.526 56.2667 259.656 55.5833 259.916 54.95C260.176 54.31 260.532 53.75 260.986 53.27C261.446 52.7833 261.979 52.4033 262.586 52.13C263.192 51.8567 263.839 51.72 264.526 51.72C265.292 51.72 265.996 51.88 266.636 52.2C267.276 52.5133 267.822 52.95 268.276 53.51C268.729 54.0633 269.062 54.7033 269.276 55.43C269.489 56.15 269.552 56.9167 269.466 57.73H261.756C261.842 58.19 262.009 58.6067 262.256 58.98C262.509 59.3467 262.829 59.6367 263.216 59.85C263.609 60.0633 264.046 60.1733 264.526 60.18C265.032 60.18 265.492 60.0533 265.906 59.8C266.326 59.5467 266.669 59.1967 266.936 58.75L269.046 59.24C268.646 60.1267 268.042 60.8533 267.236 61.42C266.429 61.98 265.526 62.26 264.526 62.26ZM261.686 56.14H267.366C267.299 55.66 267.129 55.2267 266.856 54.84C266.589 54.4467 266.252 54.1367 265.846 53.91C265.446 53.6767 265.006 53.56 264.526 53.56C264.052 53.56 263.612 53.6733 263.206 53.9C262.806 54.1267 262.472 54.4367 262.206 54.83C261.946 55.2167 261.772 55.6533 261.686 56.14ZM271.122 62V52H273.202V53.06C273.549 52.6467 273.975 52.32 274.482 52.08C274.989 51.84 275.535 51.72 276.122 51.72C276.495 51.72 276.865 51.77 277.232 51.87L276.402 53.97C276.142 53.87 275.882 53.82 275.622 53.82C275.182 53.82 274.779 53.93 274.412 54.15C274.045 54.3633 273.752 54.6533 273.532 55.02C273.312 55.3867 273.202 55.7933 273.202 56.24V62H271.122ZM283.921 54.08H281.821L281.811 62H279.731L279.741 54.08H278.151V52H279.741L279.731 48.86H281.811L281.821 52H283.921V54.08ZM285.575 52H287.655V62H285.575V52ZM286.635 50.55C286.315 50.55 286.048 50.4467 285.835 50.24C285.622 50.0333 285.515 49.7733 285.515 49.46C285.515 49.1533 285.622 48.8967 285.835 48.69C286.048 48.4767 286.312 48.37 286.625 48.37C286.932 48.37 287.192 48.4767 287.405 48.69C287.618 48.8967 287.725 49.1533 287.725 49.46C287.725 49.7733 287.618 50.0333 287.405 50.24C287.198 50.4467 286.942 50.55 286.635 50.55ZM294.272 62.26C293.352 62.26 292.512 62.0233 291.752 61.55C290.999 61.0767 290.395 60.4433 289.942 59.65C289.495 58.85 289.272 57.9667 289.272 57C289.272 56.2667 289.402 55.5833 289.662 54.95C289.922 54.31 290.279 53.75 290.732 53.27C291.192 52.7833 291.725 52.4033 292.332 52.13C292.939 51.8567 293.585 51.72 294.272 51.72C295.039 51.72 295.742 51.88 296.382 52.2C297.022 52.5133 297.569 52.95 298.022 53.51C298.475 54.0633 298.809 54.7033 299.022 55.43C299.235 56.15 299.299 56.9167 299.212 57.73H291.502C291.589 58.19 291.755 58.6067 292.002 58.98C292.255 59.3467 292.575 59.6367 292.962 59.85C293.355 60.0633 293.792 60.1733 294.272 60.18C294.779 60.18 295.239 60.0533 295.652 59.8C296.072 59.5467 296.415 59.1967 296.682 58.75L298.792 59.24C298.392 60.1267 297.789 60.8533 296.982 61.42C296.175 61.98 295.272 62.26 294.272 62.26ZM291.432 56.14H297.112C297.045 55.66 296.875 55.2267 296.602 54.84C296.335 54.4467 295.999 54.1367 295.592 53.91C295.192 53.6767 294.752 53.56 294.272 53.56C293.799 53.56 293.359 53.6733 292.952 53.9C292.552 54.1267 292.219 54.4367 291.952 54.83C291.692 55.2167 291.519 55.6533 291.432 56.14ZM303.907 62.19C303.38 62.1567 302.867 62.05 302.367 61.87C301.867 61.69 301.427 61.4467 301.047 61.14C300.674 60.8267 300.394 60.46 300.207 60.04L301.977 59.28C302.064 59.46 302.214 59.6367 302.427 59.81C302.647 59.9833 302.904 60.1267 303.197 60.24C303.49 60.3467 303.797 60.4 304.117 60.4C304.43 60.4 304.72 60.3567 304.987 60.27C305.26 60.1767 305.484 60.0367 305.657 59.85C305.83 59.6633 305.917 59.44 305.917 59.18C305.917 58.8867 305.817 58.66 305.617 58.5C305.424 58.3333 305.18 58.2067 304.887 58.12C304.594 58.0333 304.3 57.95 304.007 57.87C303.354 57.7233 302.754 57.5233 302.207 57.27C301.667 57.01 301.237 56.68 300.917 56.28C300.597 55.8733 300.437 55.3767 300.437 54.79C300.437 54.15 300.61 53.5967 300.957 53.13C301.304 52.6567 301.757 52.2933 302.317 52.04C302.884 51.7867 303.487 51.66 304.127 51.66C304.927 51.66 305.66 51.83 306.327 52.17C306.994 52.51 307.504 52.9767 307.857 53.57L306.207 54.55C306.107 54.35 305.957 54.17 305.757 54.01C305.557 53.85 305.33 53.7233 305.077 53.63C304.824 53.53 304.56 53.4733 304.287 53.46C303.947 53.4467 303.63 53.4867 303.337 53.58C303.05 53.6667 302.82 53.8067 302.647 54C302.474 54.1933 302.387 54.44 302.387 54.74C302.387 55.0333 302.49 55.2533 302.697 55.4C302.904 55.54 303.164 55.6533 303.477 55.74C303.797 55.8267 304.124 55.9233 304.457 56.03C305.05 56.2167 305.607 56.4467 306.127 56.72C306.647 56.9867 307.067 57.3167 307.387 57.71C307.707 58.1033 307.86 58.5833 307.847 59.15C307.847 59.7767 307.657 60.3267 307.277 60.8C306.904 61.2733 306.417 61.6333 305.817 61.88C305.217 62.1267 304.58 62.23 303.907 62.19ZM318.764 62.26C317.844 62.26 317.004 62.0233 316.244 61.55C315.491 61.0767 314.887 60.4433 314.434 59.65C313.987 58.85 313.764 57.9667 313.764 57C313.764 56.2667 313.894 55.5833 314.154 54.95C314.414 54.31 314.771 53.75 315.224 53.27C315.684 52.7833 316.217 52.4033 316.824 52.13C317.431 51.8567 318.077 51.72 318.764 51.72C319.684 51.72 320.521 51.9567 321.274 52.43C322.034 52.9033 322.637 53.54 323.084 54.34C323.537 55.14 323.764 56.0267 323.764 57C323.764 57.7267 323.634 58.4067 323.374 59.04C323.114 59.6733 322.754 60.2333 322.294 60.72C321.841 61.2 321.311 61.5767 320.704 61.85C320.104 62.1233 319.457 62.26 318.764 62.26ZM318.764 60.18C319.317 60.18 319.814 60.0333 320.254 59.74C320.694 59.4467 321.041 59.06 321.294 58.58C321.554 58.0933 321.684 57.5667 321.684 57C321.684 56.42 321.551 55.8867 321.284 55.4C321.024 54.9133 320.674 54.5267 320.234 54.24C319.794 53.9467 319.304 53.8 318.764 53.8C318.217 53.8 317.721 53.9467 317.274 54.24C316.834 54.5333 316.484 54.9233 316.224 55.41C315.971 55.8967 315.844 56.4267 315.844 57C315.844 57.5933 315.977 58.13 316.244 58.61C316.511 59.09 316.864 59.4733 317.304 59.76C317.751 60.04 318.237 60.18 318.764 60.18ZM334.38 55.73V62H332.3V56.24C332.3 55.7933 332.19 55.3867 331.97 55.02C331.756 54.6533 331.466 54.3633 331.1 54.15C330.74 53.93 330.333 53.82 329.88 53.82C329.44 53.82 329.036 53.93 328.67 54.15C328.303 54.3633 328.01 54.6533 327.79 55.02C327.57 55.3867 327.46 55.7933 327.46 56.24V62H325.38V52H327.46V53.06C327.806 52.6467 328.233 52.32 328.74 52.08C329.246 51.84 329.793 51.72 330.38 51.72C331.12 51.72 331.793 51.9 332.4 52.26C333.006 52.62 333.486 53.1033 333.84 53.71C334.2 54.3167 334.38 54.99 334.38 55.73ZM41.2 92V78H49.89V80.08H43.28V83.46H48.6V85.54H43.28V89.92H49.89V92H41.2ZM55.0984 92.19C54.5718 92.1567 54.0584 92.05 53.5584 91.87C53.0584 91.69 52.6184 91.4467 52.2384 91.14C51.8651 90.8267 51.5851 90.46 51.3984 90.04L53.1684 89.28C53.2551 89.46 53.4051 89.6367 53.6184 89.81C53.8384 89.9833 54.0951 90.1267 54.3884 90.24C54.6818 90.3467 54.9884 90.4 55.3084 90.4C55.6218 90.4 55.9118 90.3567 56.1784 90.27C56.4518 90.1767 56.6751 90.0367 56.8484 89.85C57.0218 89.6633 57.1084 89.44 57.1084 89.18C57.1084 88.8867 57.0084 88.66 56.8084 88.5C56.6151 88.3333 56.3718 88.2067 56.0784 88.12C55.7851 88.0333 55.4918 87.95 55.1984 87.87C54.5451 87.7233 53.9451 87.5233 53.3984 87.27C52.8584 87.01 52.4284 86.68 52.1084 86.28C51.7884 85.8733 51.6284 85.3767 51.6284 84.79C51.6284 84.15 51.8018 83.5967 52.1484 83.13C52.4951 82.6567 52.9484 82.2933 53.5084 82.04C54.0751 81.7867 54.6784 81.66 55.3184 81.66C56.1184 81.66 56.8518 81.83 57.5184 82.17C58.1851 82.51 58.6951 82.9767 59.0484 83.57L57.3984 84.55C57.2984 84.35 57.1484 84.17 56.9484 84.01C56.7484 83.85 56.5218 83.7233 56.2684 83.63C56.0151 83.53 55.7518 83.4733 55.4784 83.46C55.1384 83.4467 54.8218 83.4867 54.5284 83.58C54.2418 83.6667 54.0118 83.8067 53.8384 84C53.6651 84.1933 53.5784 84.44 53.5784 84.74C53.5784 85.0333 53.6818 85.2533 53.8884 85.4C54.0951 85.54 54.3551 85.6533 54.6684 85.74C54.9884 85.8267 55.3151 85.9233 55.6484 86.03C56.2418 86.2167 56.7984 86.4467 57.3184 86.72C57.8384 86.9867 58.2584 87.3167 58.5784 87.71C58.8984 88.1033 59.0518 88.5833 59.0384 89.15C59.0384 89.7767 58.8484 90.3267 58.4684 90.8C58.0951 91.2733 57.6084 91.6333 57.0084 91.88C56.4084 92.1267 55.7718 92.23 55.0984 92.19ZM66.0308 84.08H63.9308L63.9208 92H61.8408L61.8508 84.08H60.2608V82H61.8508L61.8408 78.86H63.9208L63.9308 82H66.0308V84.08ZM75.3667 82H77.4467V92H75.3567L75.2767 90.55C74.9834 91.0633 74.5867 91.4767 74.0867 91.79C73.5867 92.1033 72.9967 92.26 72.3167 92.26C71.5834 92.26 70.8934 92.1233 70.2467 91.85C69.6001 91.57 69.0301 91.1833 68.5367 90.69C68.0501 90.1967 67.6701 89.63 67.3967 88.99C67.1234 88.3433 66.9867 87.65 66.9867 86.91C66.9867 86.1967 67.1201 85.5267 67.3867 84.9C67.6534 84.2667 68.0234 83.7133 68.4967 83.24C68.9701 82.7667 69.5167 82.3967 70.1367 82.13C70.7634 81.8567 71.4334 81.72 72.1467 81.72C72.8734 81.72 73.5134 81.8867 74.0667 82.22C74.6267 82.5467 75.0901 82.9667 75.4567 83.48L75.3667 82ZM72.2667 90.25C72.8534 90.25 73.3667 90.1067 73.8067 89.82C74.2467 89.5267 74.5867 89.1333 74.8267 88.64C75.0734 88.1467 75.1967 87.6 75.1967 87C75.1967 86.3933 75.0734 85.8433 74.8267 85.35C74.5801 84.8567 74.2367 84.4667 73.7967 84.18C73.3634 83.8867 72.8534 83.74 72.2667 83.74C71.6867 83.74 71.1567 83.8867 70.6767 84.18C70.1967 84.4733 69.8167 84.8667 69.5367 85.36C69.2567 85.8533 69.1167 86.4 69.1167 87C69.1167 87.6067 69.2601 88.1567 69.5467 88.65C69.8401 89.1367 70.2234 89.5267 70.6967 89.82C71.1767 90.1067 71.7001 90.25 72.2667 90.25ZM84.7222 84.08H82.6222L82.6122 92H80.5322L80.5422 84.08H78.9522V82H80.5422L80.5322 78.86H82.6122L82.6222 82H84.7222V84.08ZM90.6781 92.26C89.7581 92.26 88.9181 92.0233 88.1581 91.55C87.4048 91.0767 86.8015 90.4433 86.3481 89.65C85.9015 88.85 85.6781 87.9667 85.6781 87C85.6781 86.2667 85.8081 85.5833 86.0681 84.95C86.3281 84.31 86.6848 83.75 87.1381 83.27C87.5981 82.7833 88.1315 82.4033 88.7381 82.13C89.3448 81.8567 89.9915 81.72 90.6781 81.72C91.4448 81.72 92.1481 81.88 92.7881 82.2C93.4281 82.5133 93.9748 82.95 94.4281 83.51C94.8815 84.0633 95.2148 84.7033 95.4281 85.43C95.6415 86.15 95.7048 86.9167 95.6181 87.73H87.9081C87.9948 88.19 88.1615 88.6067 88.4081 88.98C88.6615 89.3467 88.9815 89.6367 89.3681 89.85C89.7615 90.0633 90.1981 90.1733 90.6781 90.18C91.1848 90.18 91.6448 90.0533 92.0581 89.8C92.4781 89.5467 92.8215 89.1967 93.0881 88.75L95.1981 89.24C94.7981 90.1267 94.1948 90.8533 93.3881 91.42C92.5815 91.98 91.6781 92.26 90.6781 92.26ZM87.8381 86.14H93.5181C93.4515 85.66 93.2815 85.2267 93.0081 84.84C92.7415 84.4467 92.4048 84.1367 91.9981 83.91C91.5981 83.6767 91.1581 83.56 90.6781 83.56C90.2048 83.56 89.7648 83.6733 89.3581 83.9C88.9581 84.1267 88.6248 84.4367 88.3581 84.83C88.0981 85.2167 87.9248 85.6533 87.8381 86.14ZM97.0789 82H99.1589V92H97.0789V82ZM98.1389 80.55C97.8189 80.55 97.5522 80.4467 97.3389 80.24C97.1256 80.0333 97.0189 79.7733 97.0189 79.46C97.0189 79.1533 97.1256 78.8967 97.3389 78.69C97.5522 78.4767 97.8156 78.37 98.1289 78.37C98.4356 78.37 98.6956 78.4767 98.9089 78.69C99.1222 78.8967 99.2289 79.1533 99.2289 79.46C99.2289 79.7733 99.1222 80.0333 98.9089 80.24C98.7022 80.4467 98.4456 80.55 98.1389 80.55ZM110.493 85.73V92H108.413V86.24C108.413 85.7933 108.303 85.3867 108.083 85.02C107.87 84.6533 107.58 84.3633 107.213 84.15C106.853 83.93 106.446 83.82 105.993 83.82C105.553 83.82 105.15 83.93 104.783 84.15C104.416 84.3633 104.123 84.6533 103.903 85.02C103.683 85.3867 103.573 85.7933 103.573 86.24V92H101.493V82H103.573V83.06C103.92 82.6467 104.346 82.32 104.853 82.08C105.36 81.84 105.906 81.72 106.493 81.72C107.233 81.72 107.906 81.9 108.513 82.26C109.12 82.62 109.6 83.1033 109.953 83.71C110.313 84.3167 110.493 84.99 110.493 85.73ZM115.539 87.53C115.539 86.81 115.719 86.1467 116.079 85.54C116.446 84.9333 116.946 84.4567 117.579 84.11C117.939 83.9233 118.219 83.65 118.419 83.29C118.619 82.9233 118.719 82.52 118.719 82.08C118.719 81.66 118.616 81.28 118.409 80.94C118.209 80.5933 117.936 80.32 117.589 80.12C117.242 79.9133 116.859 79.81 116.439 79.81C116.026 79.81 115.646 79.9133 115.299 80.12C114.952 80.32 114.676 80.5933 114.469 80.94C114.269 81.28 114.169 81.66 114.169 82.08H112.089C112.089 81.28 112.282 80.5533 112.669 79.9C113.062 79.24 113.589 78.7133 114.249 78.32C114.916 77.9267 115.646 77.73 116.439 77.73C117.246 77.73 117.979 77.9267 118.639 78.32C119.299 78.7133 119.822 79.24 120.209 79.9C120.602 80.5533 120.799 81.28 120.799 82.08C120.799 82.9 120.599 83.6567 120.199 84.35C119.806 85.0367 119.262 85.57 118.569 85.95C118.276 86.1033 118.042 86.32 117.869 86.6C117.702 86.88 117.619 87.19 117.619 87.53H115.539ZM116.629 92.26C116.322 92.26 116.062 92.1533 115.849 91.94C115.636 91.72 115.529 91.4567 115.529 91.15C115.529 90.85 115.636 90.5967 115.849 90.39C116.062 90.1767 116.322 90.07 116.629 90.07C116.929 90.07 117.186 90.1767 117.399 90.39C117.612 90.5967 117.719 90.85 117.719 91.15C117.719 91.4567 117.612 91.72 117.399 91.94C117.186 92.1533 116.929 92.26 116.629 92.26Z" fill="white"></path><path d="M40.96 142V130.8H42.304V140.656H47.32V142H40.96ZM51.7277 142.208C50.9917 142.208 50.3197 142.019 49.7118 141.64C49.1091 141.261 48.6264 140.755 48.2637 140.12C47.9064 139.48 47.7277 138.773 47.7277 138C47.7277 137.413 47.8317 136.867 48.0397 136.36C48.2477 135.848 48.5331 135.4 48.8957 135.016C49.2637 134.627 49.6904 134.323 50.1758 134.104C50.6611 133.885 51.1784 133.776 51.7277 133.776C52.3304 133.776 52.8824 133.899 53.3837 134.144C53.8904 134.384 54.3224 134.72 54.6797 135.152C55.0424 135.584 55.3118 136.085 55.4878 136.656C55.6691 137.227 55.7358 137.837 55.6878 138.488H49.1597C49.2237 138.941 49.3731 139.347 49.6077 139.704C49.8424 140.056 50.1411 140.336 50.5037 140.544C50.8717 140.752 51.2797 140.859 51.7277 140.864C52.2078 140.864 52.6424 140.741 53.0318 140.496C53.4211 140.245 53.7358 139.904 53.9757 139.472L55.3438 139.792C55.0238 140.501 54.5411 141.083 53.8958 141.536C53.2504 141.984 52.5278 142.208 51.7277 142.208ZM49.1197 137.432H54.3358C54.2931 136.984 54.1491 136.576 53.9037 136.208C53.6584 135.835 53.3464 135.536 52.9678 135.312C52.5891 135.088 52.1758 134.976 51.7277 134.976C51.2797 134.976 50.8691 135.085 50.4957 135.304C50.1224 135.523 49.8131 135.819 49.5677 136.192C49.3277 136.56 49.1784 136.973 49.1197 137.432ZM63.325 134H64.669V142H63.325L63.269 140.648C63.0183 141.112 62.6717 141.488 62.229 141.776C61.7917 142.064 61.269 142.208 60.661 142.208C60.0743 142.208 59.525 142.099 59.013 141.88C58.501 141.656 58.0477 141.349 57.653 140.96C57.2637 140.565 56.9597 140.112 56.741 139.6C56.5223 139.088 56.413 138.536 56.413 137.944C56.413 137.373 56.5197 136.835 56.733 136.328C56.9463 135.821 57.2423 135.379 57.621 135C58.005 134.616 58.4477 134.317 58.949 134.104C59.4503 133.885 59.989 133.776 60.565 133.776C61.1943 133.776 61.7463 133.925 62.221 134.224C62.6957 134.517 63.0797 134.899 63.373 135.368L63.325 134ZM60.637 140.904C61.165 140.904 61.621 140.776 62.005 140.52C62.3943 140.259 62.693 139.907 62.901 139.464C63.1143 139.021 63.221 138.533 63.221 138C63.221 137.456 63.1143 136.965 62.901 136.528C62.6877 136.085 62.3863 135.736 61.997 135.48C61.613 135.219 61.1597 135.088 60.637 135.088C60.109 135.088 59.629 135.219 59.197 135.48C58.765 135.741 58.421 136.093 58.165 136.536C57.9143 136.973 57.789 137.461 57.789 138C57.789 138.539 57.9197 139.029 58.181 139.472C58.4423 139.909 58.789 140.259 59.221 140.52C59.653 140.776 60.125 140.904 60.637 140.904ZM66.172 142V134H67.516V135C67.7987 134.627 68.156 134.331 68.588 134.112C69.02 133.888 69.4893 133.776 69.996 133.776C70.3053 133.776 70.604 133.816 70.892 133.896L70.348 135.24C70.1293 135.171 69.916 135.136 69.708 135.136C69.308 135.136 68.94 135.235 68.604 135.432C68.2733 135.624 68.0093 135.885 67.812 136.216C67.6147 136.547 67.516 136.915 67.516 137.32V142H66.172ZM78.8824 137.024V142H77.5384V137.32C77.5384 136.915 77.4397 136.547 77.2424 136.216C77.045 135.885 76.781 135.624 76.4504 135.432C76.1197 135.235 75.7517 135.136 75.3464 135.136C74.9464 135.136 74.5784 135.235 74.2424 135.432C73.9117 135.624 73.6477 135.885 73.4504 136.216C73.253 136.547 73.1544 136.915 73.1544 137.32V142H71.8104V134H73.1544V135C73.437 134.627 73.7944 134.331 74.2264 134.112C74.6584 133.888 75.1277 133.776 75.6344 133.776C76.2317 133.776 76.7757 133.923 77.2664 134.216C77.7624 134.504 78.1544 134.893 78.4424 135.384C78.7357 135.875 78.8824 136.421 78.8824 137.024ZM91.206 137.024V142H89.862V137.32C89.862 136.915 89.7633 136.547 89.566 136.216C89.3687 135.885 89.1047 135.624 88.774 135.432C88.4433 135.235 88.0753 135.136 87.67 135.136C87.27 135.136 86.902 135.235 86.566 135.432C86.2353 135.624 85.9713 135.885 85.774 136.216C85.5767 136.547 85.478 136.915 85.478 137.32V142H84.134V130H85.478V135C85.7607 134.627 86.118 134.331 86.55 134.112C86.982 133.888 87.4513 133.776 87.958 133.776C88.5553 133.776 89.0993 133.923 89.59 134.216C90.086 134.504 90.478 134.893 90.766 135.384C91.0593 135.875 91.206 136.421 91.206 137.024ZM96.0736 142.208C95.3376 142.208 94.6656 142.019 94.0576 141.64C93.455 141.261 92.9723 140.755 92.6096 140.12C92.2523 139.48 92.0736 138.773 92.0736 138C92.0736 137.413 92.1776 136.867 92.3856 136.36C92.5936 135.848 92.879 135.4 93.2416 135.016C93.6096 134.627 94.0363 134.323 94.5216 134.104C95.007 133.885 95.5243 133.776 96.0736 133.776C96.8096 133.776 97.479 133.965 98.0816 134.344C98.6896 134.723 99.1723 135.232 99.5296 135.872C99.8923 136.512 100.074 137.221 100.074 138C100.074 138.581 99.9696 139.125 99.7616 139.632C99.5536 140.139 99.2656 140.587 98.8976 140.976C98.535 141.36 98.111 141.661 97.6256 141.88C97.1456 142.099 96.6283 142.208 96.0736 142.208ZM96.0736 140.864C96.575 140.864 97.0256 140.733 97.4256 140.472C97.831 140.205 98.1483 139.856 98.3776 139.424C98.6123 138.987 98.7296 138.512 98.7296 138C98.7296 137.477 98.6096 136.997 98.3696 136.56C98.135 136.123 97.8176 135.773 97.4176 135.512C97.0176 135.251 96.5696 135.12 96.0736 135.12C95.5723 135.12 95.1216 135.253 94.7216 135.52C94.3216 135.781 94.0043 136.131 93.7696 136.568C93.535 137.005 93.4176 137.483 93.4176 138C93.4176 138.533 93.5376 139.019 93.7776 139.456C94.0176 139.888 94.3403 140.232 94.7456 140.488C95.151 140.739 95.5936 140.864 96.0736 140.864ZM104.502 142H103.142L100.462 134H101.774L103.838 140.104L105.878 134H107.262L109.31 140.104L111.35 134H112.678L109.998 142H108.63L106.558 135.84L104.502 142ZM121.91 135.344H120.094L120.086 142H118.742L118.75 135.344H117.374V134H118.75L118.742 131.488H120.086L120.094 134H121.91V135.344ZM126.565 142.208C125.829 142.208 125.157 142.019 124.549 141.64C123.946 141.261 123.463 140.755 123.101 140.12C122.743 139.48 122.565 138.773 122.565 138C122.565 137.413 122.669 136.867 122.877 136.36C123.085 135.848 123.37 135.4 123.733 135.016C124.101 134.627 124.527 134.323 125.013 134.104C125.498 133.885 126.015 133.776 126.565 133.776C127.301 133.776 127.97 133.965 128.573 134.344C129.181 134.723 129.663 135.232 130.021 135.872C130.383 136.512 130.565 137.221 130.565 138C130.565 138.581 130.461 139.125 130.253 139.632C130.045 140.139 129.757 140.587 129.389 140.976C129.026 141.36 128.602 141.661 128.117 141.88C127.637 142.099 127.119 142.208 126.565 142.208ZM126.565 140.864C127.066 140.864 127.517 140.733 127.917 140.472C128.322 140.205 128.639 139.856 128.869 139.424C129.103 138.987 129.221 138.512 129.221 138C129.221 137.477 129.101 136.997 128.861 136.56C128.626 136.123 128.309 135.773 127.909 135.512C127.509 135.251 127.061 135.12 126.565 135.12C126.063 135.12 125.613 135.253 125.213 135.52C124.813 135.781 124.495 136.131 124.261 136.568C124.026 137.005 123.909 137.483 123.909 138C123.909 138.533 124.029 139.019 124.269 139.456C124.509 139.888 124.831 140.232 125.237 140.488C125.642 140.739 126.085 140.864 126.565 140.864ZM135.329 138.96V134H136.673V138.664C136.673 139.069 136.772 139.437 136.969 139.768C137.167 140.099 137.431 140.363 137.761 140.56C138.097 140.752 138.465 140.848 138.865 140.848C139.271 140.848 139.636 140.752 139.961 140.56C140.292 140.363 140.556 140.099 140.753 139.768C140.951 139.437 141.049 139.069 141.049 138.664V134H142.393L142.401 142H141.057L141.049 140.984C140.767 141.357 140.409 141.656 139.977 141.88C139.545 142.099 139.079 142.208 138.577 142.208C137.98 142.208 137.433 142.064 136.937 141.776C136.447 141.483 136.055 141.091 135.761 140.6C135.473 140.109 135.329 139.563 135.329 138.96ZM146.353 142.152C145.921 142.136 145.5 142.056 145.089 141.912C144.684 141.763 144.326 141.563 144.017 141.312C143.713 141.056 143.492 140.763 143.353 140.432L144.505 139.936C144.585 140.117 144.729 140.288 144.937 140.448C145.145 140.608 145.385 140.736 145.657 140.832C145.929 140.928 146.204 140.976 146.481 140.976C146.774 140.976 147.049 140.931 147.305 140.84C147.561 140.749 147.769 140.616 147.929 140.44C148.094 140.259 148.177 140.043 148.177 139.792C148.177 139.525 148.086 139.317 147.905 139.168C147.729 139.013 147.505 138.893 147.233 138.808C146.966 138.717 146.694 138.632 146.417 138.552C145.868 138.413 145.377 138.248 144.945 138.056C144.513 137.859 144.172 137.611 143.921 137.312C143.676 137.008 143.553 136.621 143.553 136.152C143.553 135.656 143.689 135.227 143.961 134.864C144.238 134.501 144.601 134.221 145.049 134.024C145.497 133.827 145.977 133.728 146.489 133.728C147.134 133.728 147.724 133.867 148.257 134.144C148.79 134.421 149.188 134.797 149.449 135.272L148.369 135.904C148.278 135.712 148.14 135.544 147.953 135.4C147.766 135.251 147.553 135.133 147.313 135.048C147.073 134.963 146.828 134.917 146.577 134.912C146.268 134.901 145.977 134.941 145.705 135.032C145.438 135.123 145.222 135.261 145.057 135.448C144.897 135.629 144.817 135.856 144.817 136.128C144.817 136.395 144.902 136.597 145.073 136.736C145.249 136.875 145.476 136.987 145.753 137.072C146.036 137.152 146.342 137.245 146.673 137.352C147.158 137.507 147.612 137.685 148.033 137.888C148.454 138.091 148.793 138.344 149.049 138.648C149.31 138.952 149.438 139.328 149.433 139.776C149.433 140.267 149.286 140.696 148.993 141.064C148.7 141.427 148.318 141.704 147.849 141.896C147.385 142.088 146.886 142.173 146.353 142.152ZM154.149 142.208C153.413 142.208 152.741 142.019 152.133 141.64C151.531 141.261 151.048 140.755 150.685 140.12C150.328 139.48 150.149 138.773 150.149 138C150.149 137.413 150.253 136.867 150.461 136.36C150.669 135.848 150.955 135.4 151.317 135.016C151.685 134.627 152.112 134.323 152.597 134.104C153.083 133.885 153.6 133.776 154.149 133.776C154.752 133.776 155.304 133.899 155.805 134.144C156.312 134.384 156.744 134.72 157.101 135.152C157.464 135.584 157.733 136.085 157.909 136.656C158.091 137.227 158.157 137.837 158.109 138.488H151.581C151.645 138.941 151.795 139.347 152.029 139.704C152.264 140.056 152.563 140.336 152.925 140.544C153.293 140.752 153.701 140.859 154.149 140.864C154.629 140.864 155.064 140.741 155.453 140.496C155.843 140.245 156.157 139.904 156.397 139.472L157.765 139.792C157.445 140.501 156.963 141.083 156.317 141.536C155.672 141.984 154.949 142.208 154.149 142.208ZM151.541 137.432H156.757C156.715 136.984 156.571 136.576 156.325 136.208C156.08 135.835 155.768 135.536 155.389 135.312C155.011 135.088 154.597 134.976 154.149 134.976C153.701 134.976 153.291 135.085 152.917 135.304C152.544 135.523 152.235 135.819 151.989 136.192C151.749 136.56 151.6 136.973 151.541 137.432ZM166.739 142.208C166.003 142.208 165.331 142.019 164.723 141.64C164.12 141.261 163.637 140.755 163.275 140.12C162.917 139.48 162.739 138.773 162.739 138C162.739 137.413 162.843 136.867 163.051 136.36C163.259 135.848 163.544 135.4 163.907 135.016C164.275 134.627 164.701 134.323 165.187 134.104C165.672 133.885 166.189 133.776 166.739 133.776C167.475 133.776 168.144 133.965 168.747 134.344C169.355 134.723 169.837 135.232 170.195 135.872C170.557 136.512 170.739 137.221 170.739 138C170.739 138.581 170.635 139.125 170.427 139.632C170.219 140.139 169.931 140.587 169.563 140.976C169.2 141.36 168.776 141.661 168.291 141.88C167.811 142.099 167.293 142.208 166.739 142.208ZM166.739 140.864C167.24 140.864 167.691 140.733 168.091 140.472C168.496 140.205 168.813 139.856 169.043 139.424C169.277 138.987 169.395 138.512 169.395 138C169.395 137.477 169.275 136.997 169.035 136.56C168.8 136.123 168.483 135.773 168.083 135.512C167.683 135.251 167.235 135.12 166.739 135.12C166.237 135.12 165.787 135.253 165.387 135.52C164.987 135.781 164.669 136.131 164.435 136.568C164.2 137.005 164.083 137.483 164.083 138C164.083 138.533 164.203 139.019 164.443 139.456C164.683 139.888 165.005 140.232 165.411 140.488C165.816 140.739 166.259 140.864 166.739 140.864ZM171.537 138.96V134H172.881V138.664C172.881 139.069 172.98 139.437 173.177 139.768C173.374 140.099 173.638 140.363 173.969 140.56C174.305 140.752 174.673 140.848 175.073 140.848C175.478 140.848 175.844 140.752 176.169 140.56C176.5 140.363 176.764 140.099 176.961 139.768C177.158 139.437 177.257 139.069 177.257 138.664V134H178.601L178.609 142H177.265L177.257 140.984C176.974 141.357 176.617 141.656 176.185 141.88C175.753 142.099 175.286 142.208 174.785 142.208C174.188 142.208 173.641 142.064 173.145 141.776C172.654 141.483 172.262 141.091 171.969 140.6C171.681 140.109 171.537 139.563 171.537 138.96ZM180.12 142V134H181.464V135C181.747 134.627 182.104 134.331 182.536 134.112C182.968 133.888 183.438 133.776 183.944 133.776C184.254 133.776 184.552 133.816 184.84 133.896L184.296 135.24C184.078 135.171 183.864 135.136 183.656 135.136C183.256 135.136 182.888 135.235 182.552 135.432C182.222 135.624 181.958 135.885 181.76 136.216C181.563 136.547 181.464 136.915 181.464 137.32V142H180.12ZM189.296 138.96V134H190.64V138.664C190.64 139.069 190.739 139.437 190.936 139.768C191.133 140.099 191.397 140.363 191.728 140.56C192.064 140.752 192.432 140.848 192.832 140.848C193.237 140.848 193.603 140.752 193.928 140.56C194.259 140.363 194.523 140.099 194.72 139.768C194.917 139.437 195.016 139.069 195.016 138.664V134H196.36L196.368 142H195.024L195.016 140.984C194.733 141.357 194.376 141.656 193.944 141.88C193.512 142.099 193.045 142.208 192.544 142.208C191.947 142.208 191.4 142.064 190.904 141.776C190.413 141.483 190.021 141.091 189.728 140.6C189.44 140.109 189.296 139.563 189.296 138.96ZM200.319 142.152C199.887 142.136 199.466 142.056 199.055 141.912C198.65 141.763 198.293 141.563 197.983 141.312C197.679 141.056 197.458 140.763 197.319 140.432L198.471 139.936C198.551 140.117 198.695 140.288 198.903 140.448C199.111 140.608 199.351 140.736 199.623 140.832C199.895 140.928 200.17 140.976 200.447 140.976C200.741 140.976 201.015 140.931 201.271 140.84C201.527 140.749 201.735 140.616 201.895 140.44C202.061 140.259 202.143 140.043 202.143 139.792C202.143 139.525 202.053 139.317 201.871 139.168C201.695 139.013 201.471 138.893 201.199 138.808C200.933 138.717 200.661 138.632 200.383 138.552C199.834 138.413 199.343 138.248 198.911 138.056C198.479 137.859 198.138 137.611 197.887 137.312C197.642 137.008 197.519 136.621 197.519 136.152C197.519 135.656 197.655 135.227 197.927 134.864C198.205 134.501 198.567 134.221 199.015 134.024C199.463 133.827 199.943 133.728 200.455 133.728C201.101 133.728 201.69 133.867 202.223 134.144C202.757 134.421 203.154 134.797 203.415 135.272L202.335 135.904C202.245 135.712 202.106 135.544 201.919 135.4C201.733 135.251 201.519 135.133 201.279 135.048C201.039 134.963 200.794 134.917 200.543 134.912C200.234 134.901 199.943 134.941 199.671 135.032C199.405 135.123 199.189 135.261 199.023 135.448C198.863 135.629 198.783 135.856 198.783 136.128C198.783 136.395 198.869 136.597 199.039 136.736C199.215 136.875 199.442 136.987 199.719 137.072C200.002 137.152 200.309 137.245 200.639 137.352C201.125 137.507 201.578 137.685 201.999 137.888C202.421 138.091 202.759 138.344 203.015 138.648C203.277 138.952 203.405 139.328 203.399 139.776C203.399 140.267 203.253 140.696 202.959 141.064C202.666 141.427 202.285 141.704 201.815 141.896C201.351 142.088 200.853 142.173 200.319 142.152ZM208.116 142.208C207.38 142.208 206.708 142.019 206.1 141.64C205.497 141.261 205.014 140.755 204.652 140.12C204.294 139.48 204.116 138.773 204.116 138C204.116 137.413 204.22 136.867 204.428 136.36C204.636 135.848 204.921 135.4 205.284 135.016C205.652 134.627 206.078 134.323 206.564 134.104C207.049 133.885 207.566 133.776 208.116 133.776C208.718 133.776 209.27 133.899 209.772 134.144C210.278 134.384 210.71 134.72 211.068 135.152C211.43 135.584 211.7 136.085 211.876 136.656C212.057 137.227 212.124 137.837 212.076 138.488H205.548C205.612 138.941 205.761 139.347 205.996 139.704C206.23 140.056 206.529 140.336 206.892 140.544C207.26 140.752 207.668 140.859 208.116 140.864C208.596 140.864 209.03 140.741 209.42 140.496C209.809 140.245 210.124 139.904 210.364 139.472L211.732 139.792C211.412 140.501 210.929 141.083 210.284 141.536C209.638 141.984 208.916 142.208 208.116 142.208ZM205.508 137.432H210.724C210.681 136.984 210.537 136.576 210.292 136.208C210.046 135.835 209.734 135.536 209.356 135.312C208.977 135.088 208.564 134.976 208.116 134.976C207.668 134.976 207.257 135.085 206.884 135.304C206.51 135.523 206.201 135.819 205.956 136.192C205.716 136.56 205.566 136.973 205.508 137.432ZM213.328 142V134H214.672V135C214.955 134.627 215.312 134.331 215.744 134.112C216.176 133.888 216.645 133.776 217.152 133.776C217.461 133.776 217.76 133.816 218.048 133.896L217.504 135.24C217.285 135.171 217.072 135.136 216.864 135.136C216.464 135.136 216.096 135.235 215.76 135.432C215.429 135.624 215.165 135.885 214.968 136.216C214.771 136.547 214.672 136.915 214.672 137.32V142H213.328ZM218.919 136.528H224.039V137.872H218.919V136.528ZM227.686 132.024V134H230.03V135.344H227.686V142H226.342V135.344H225.31V134H226.342V132.024C226.342 131.613 226.441 131.243 226.638 130.912C226.841 130.576 227.11 130.309 227.446 130.112C227.788 129.909 228.161 129.808 228.566 129.808C228.865 129.808 229.156 129.869 229.438 129.992C229.721 130.109 229.972 130.285 230.19 130.52L229.23 131.472C229.156 131.371 229.057 131.293 228.934 131.24C228.817 131.181 228.694 131.152 228.566 131.152C228.326 131.152 228.118 131.237 227.942 131.408C227.772 131.579 227.686 131.784 227.686 132.024ZM231.415 142V134H232.759V135C233.042 134.627 233.399 134.331 233.831 134.112C234.263 133.888 234.732 133.776 235.239 133.776C235.548 133.776 235.847 133.816 236.135 133.896L235.591 135.24C235.372 135.171 235.159 135.136 234.951 135.136C234.551 135.136 234.183 135.235 233.847 135.432C233.516 135.624 233.252 135.885 233.055 136.216C232.858 136.547 232.759 136.915 232.759 137.32V142H231.415ZM237.022 134H238.366V142H237.022V134ZM237.71 132.696C237.497 132.696 237.318 132.627 237.174 132.488C237.03 132.349 236.958 132.176 236.958 131.968C236.958 131.76 237.03 131.587 237.174 131.448C237.318 131.309 237.494 131.24 237.702 131.24C237.91 131.24 238.086 131.309 238.23 131.448C238.374 131.587 238.446 131.76 238.446 131.968C238.446 132.176 238.374 132.349 238.23 132.488C238.091 132.627 237.918 132.696 237.71 132.696ZM243.602 142.208C242.866 142.208 242.194 142.019 241.586 141.64C240.984 141.261 240.501 140.755 240.138 140.12C239.781 139.48 239.602 138.773 239.602 138C239.602 137.413 239.706 136.867 239.914 136.36C240.122 135.848 240.408 135.4 240.77 135.016C241.138 134.627 241.565 134.323 242.05 134.104C242.536 133.885 243.053 133.776 243.602 133.776C244.205 133.776 244.757 133.899 245.258 134.144C245.765 134.384 246.197 134.72 246.554 135.152C246.917 135.584 247.186 136.085 247.362 136.656C247.544 137.227 247.61 137.837 247.562 138.488H241.034C241.098 138.941 241.248 139.347 241.482 139.704C241.717 140.056 242.016 140.336 242.378 140.544C242.746 140.752 243.154 140.859 243.602 140.864C244.082 140.864 244.517 140.741 244.906 140.496C245.296 140.245 245.61 139.904 245.85 139.472L247.218 139.792C246.898 140.501 246.416 141.083 245.77 141.536C245.125 141.984 244.402 142.208 243.602 142.208ZM240.994 137.432H246.21C246.168 136.984 246.024 136.576 245.778 136.208C245.533 135.835 245.221 135.536 244.842 135.312C244.464 135.088 244.05 134.976 243.602 134.976C243.154 134.976 242.744 135.085 242.37 135.304C241.997 135.523 241.688 135.819 241.442 136.192C241.202 136.56 241.053 136.973 240.994 137.432ZM255.886 137.024V142H254.542V137.32C254.542 136.915 254.444 136.547 254.246 136.216C254.049 135.885 253.785 135.624 253.454 135.432C253.124 135.235 252.756 135.136 252.35 135.136C251.95 135.136 251.582 135.235 251.246 135.432C250.916 135.624 250.652 135.885 250.454 136.216C250.257 136.547 250.158 136.915 250.158 137.32V142H248.814V134H250.158V135C250.441 134.627 250.798 134.331 251.23 134.112C251.662 133.888 252.132 133.776 252.638 133.776C253.236 133.776 253.78 133.923 254.27 134.216C254.766 134.504 255.158 134.893 255.446 135.384C255.74 135.875 255.886 136.421 255.886 137.024ZM263.674 130H265.018V142H263.674V140.64C263.402 141.109 263.037 141.488 262.578 141.776C262.119 142.064 261.581 142.208 260.962 142.208C260.381 142.208 259.837 142.099 259.33 141.88C258.823 141.661 258.375 141.36 257.986 140.976C257.602 140.587 257.301 140.139 257.082 139.632C256.863 139.125 256.754 138.581 256.754 138C256.754 137.419 256.863 136.875 257.082 136.368C257.301 135.856 257.602 135.408 257.986 135.024C258.375 134.635 258.823 134.331 259.33 134.112C259.837 133.893 260.381 133.784 260.962 133.784C261.581 133.784 262.119 133.928 262.578 134.216C263.037 134.504 263.402 134.883 263.674 135.352V130ZM260.978 140.904C261.506 140.904 261.962 140.776 262.346 140.52C262.735 140.259 263.034 139.907 263.242 139.464C263.455 139.021 263.562 138.533 263.562 138C263.562 137.456 263.455 136.965 263.242 136.528C263.029 136.085 262.727 135.736 262.338 135.48C261.954 135.219 261.501 135.088 260.978 135.088C260.45 135.088 259.97 135.219 259.538 135.48C259.111 135.741 258.77 136.093 258.514 136.536C258.258 136.973 258.13 137.461 258.13 138C258.13 138.539 258.261 139.029 258.522 139.472C258.783 139.909 259.13 140.259 259.562 140.52C259.994 140.776 260.466 140.904 260.978 140.904ZM266.841 142V130H268.185V142H266.841ZM275.178 134H276.602L272.226 146H270.802L272.25 142L269.378 134H270.85L272.922 140.152L275.178 134ZM284.29 142.152C283.858 142.136 283.437 142.056 283.026 141.912C282.621 141.763 282.263 141.563 281.954 141.312C281.65 141.056 281.429 140.763 281.29 140.432L282.442 139.936C282.522 140.117 282.666 140.288 282.874 140.448C283.082 140.608 283.322 140.736 283.594 140.832C283.866 140.928 284.141 140.976 284.418 140.976C284.711 140.976 284.986 140.931 285.242 140.84C285.498 140.749 285.706 140.616 285.866 140.44C286.031 140.259 286.114 140.043 286.114 139.792C286.114 139.525 286.023 139.317 285.842 139.168C285.666 139.013 285.442 138.893 285.17 138.808C284.903 138.717 284.631 138.632 284.354 138.552C283.805 138.413 283.314 138.248 282.882 138.056C282.45 137.859 282.109 137.611 281.858 137.312C281.613 137.008 281.49 136.621 281.49 136.152C281.49 135.656 281.626 135.227 281.898 134.864C282.175 134.501 282.538 134.221 282.986 134.024C283.434 133.827 283.914 133.728 284.426 133.728C285.071 133.728 285.661 133.867 286.194 134.144C286.727 134.421 287.125 134.797 287.386 135.272L286.306 135.904C286.215 135.712 286.077 135.544 285.89 135.4C285.703 135.251 285.49 135.133 285.25 135.048C285.01 134.963 284.765 134.917 284.514 134.912C284.205 134.901 283.914 134.941 283.642 135.032C283.375 135.123 283.159 135.261 282.994 135.448C282.834 135.629 282.754 135.856 282.754 136.128C282.754 136.395 282.839 136.597 283.01 136.736C283.186 136.875 283.413 136.987 283.69 137.072C283.973 137.152 284.279 137.245 284.61 137.352C285.095 137.507 285.549 137.685 285.97 137.888C286.391 138.091 286.73 138.344 286.986 138.648C287.247 138.952 287.375 139.328 287.37 139.776C287.37 140.267 287.223 140.696 286.93 141.064C286.637 141.427 286.255 141.704 285.786 141.896C285.322 142.088 284.823 142.173 284.29 142.152ZM292.087 142.208C291.351 142.208 290.679 142.019 290.071 141.64C289.468 141.261 288.985 140.755 288.623 140.12C288.265 139.48 288.087 138.773 288.087 138C288.087 137.413 288.191 136.867 288.399 136.36C288.607 135.848 288.892 135.4 289.255 135.016C289.623 134.627 290.049 134.323 290.535 134.104C291.02 133.885 291.537 133.776 292.087 133.776C292.689 133.776 293.241 133.899 293.743 134.144C294.249 134.384 294.681 134.72 295.039 135.152C295.401 135.584 295.671 136.085 295.847 136.656C296.028 137.227 296.095 137.837 296.047 138.488H289.519C289.583 138.941 289.732 139.347 289.967 139.704C290.201 140.056 290.5 140.336 290.863 140.544C291.231 140.752 291.639 140.859 292.087 140.864C292.567 140.864 293.001 140.741 293.391 140.496C293.78 140.245 294.095 139.904 294.335 139.472L295.703 139.792C295.383 140.501 294.9 141.083 294.255 141.536C293.609 141.984 292.887 142.208 292.087 142.208ZM289.479 137.432H294.695C294.652 136.984 294.508 136.576 294.263 136.208C294.017 135.835 293.705 135.536 293.327 135.312C292.948 135.088 292.535 134.976 292.087 134.976C291.639 134.976 291.228 135.085 290.855 135.304C290.481 135.523 290.172 135.819 289.927 136.192C289.687 136.56 289.537 136.973 289.479 137.432ZM303.684 134H305.028V142H303.684L303.628 140.648C303.377 141.112 303.03 141.488 302.588 141.776C302.15 142.064 301.628 142.208 301.02 142.208C300.433 142.208 299.884 142.099 299.372 141.88C298.86 141.656 298.406 141.349 298.012 140.96C297.622 140.565 297.318 140.112 297.1 139.6C296.881 139.088 296.772 138.536 296.772 137.944C296.772 137.373 296.878 136.835 297.092 136.328C297.305 135.821 297.601 135.379 297.98 135C298.364 134.616 298.806 134.317 299.308 134.104C299.809 133.885 300.348 133.776 300.924 133.776C301.553 133.776 302.105 133.925 302.58 134.224C303.054 134.517 303.438 134.899 303.732 135.368L303.684 134ZM300.996 140.904C301.524 140.904 301.98 140.776 302.364 140.52C302.753 140.259 303.052 139.907 303.26 139.464C303.473 139.021 303.58 138.533 303.58 138C303.58 137.456 303.473 136.965 303.26 136.528C303.046 136.085 302.745 135.736 302.356 135.48C301.972 135.219 301.518 135.088 300.996 135.088C300.468 135.088 299.988 135.219 299.556 135.48C299.124 135.741 298.78 136.093 298.524 136.536C298.273 136.973 298.148 137.461 298.148 138C298.148 138.539 298.278 139.029 298.54 139.472C298.801 139.909 299.148 140.259 299.58 140.52C300.012 140.776 300.484 140.904 300.996 140.904ZM306.531 142V134H307.875V135C308.157 134.627 308.515 134.331 308.947 134.112C309.379 133.888 309.848 133.776 310.355 133.776C310.664 133.776 310.963 133.816 311.251 133.896L310.707 135.24C310.488 135.171 310.275 135.136 310.067 135.136C309.667 135.136 309.299 135.235 308.963 135.432C308.632 135.624 308.368 135.885 308.171 136.216C307.973 136.547 307.875 136.915 307.875 137.32V142H306.531ZM317.244 139.888L318.444 140.536C318.081 141.043 317.62 141.448 317.06 141.752C316.505 142.056 315.902 142.208 315.252 142.208C314.516 142.208 313.844 142.019 313.236 141.64C312.633 141.261 312.15 140.755 311.788 140.12C311.43 139.48 311.252 138.773 311.252 138C311.252 137.413 311.356 136.867 311.564 136.36C311.772 135.848 312.057 135.4 312.42 135.016C312.788 134.627 313.214 134.323 313.7 134.104C314.185 133.885 314.702 133.776 315.252 133.776C315.902 133.776 316.505 133.928 317.06 134.232C317.62 134.536 318.081 134.944 318.444 135.456L317.244 136.104C316.988 135.789 316.684 135.547 316.332 135.376C315.98 135.205 315.62 135.12 315.252 135.12C314.756 135.12 314.305 135.253 313.9 135.52C313.5 135.781 313.182 136.131 312.948 136.568C312.713 137.005 312.596 137.483 312.596 138C312.596 138.517 312.713 138.995 312.948 139.432C313.188 139.864 313.508 140.211 313.908 140.472C314.313 140.733 314.761 140.864 315.252 140.864C315.646 140.864 316.017 140.773 316.364 140.592C316.71 140.411 317.004 140.176 317.244 139.888ZM326.723 137.024V142H325.379V137.32C325.379 136.915 325.281 136.547 325.083 136.216C324.886 135.885 324.622 135.624 324.291 135.432C323.961 135.235 323.593 135.136 323.187 135.136C322.787 135.136 322.419 135.235 322.083 135.432C321.753 135.624 321.489 135.885 321.291 136.216C321.094 136.547 320.995 136.915 320.995 137.32V142H319.651V130H320.995V135C321.278 134.627 321.635 134.331 322.067 134.112C322.499 133.888 322.969 133.776 323.475 133.776C324.073 133.776 324.617 133.923 325.107 134.216C325.603 134.504 325.995 134.893 326.283 135.384C326.577 135.875 326.723 136.421 326.723 137.024ZM336.119 135.344H334.303L334.295 142H332.951L332.959 135.344H331.583V134H332.959L332.951 131.488H334.295L334.303 134H336.119V135.344ZM340.774 142.208C340.038 142.208 339.366 142.019 338.758 141.64C338.155 141.261 337.673 140.755 337.31 140.12C336.953 139.48 336.774 138.773 336.774 138C336.774 137.413 336.878 136.867 337.086 136.36C337.294 135.848 337.579 135.4 337.942 135.016C338.31 134.627 338.737 134.323 339.222 134.104C339.707 133.885 340.225 133.776 340.774 133.776C341.51 133.776 342.179 133.965 342.782 134.344C343.39 134.723 343.873 135.232 344.23 135.872C344.593 136.512 344.774 137.221 344.774 138C344.774 138.581 344.67 139.125 344.462 139.632C344.254 140.139 343.966 140.587 343.598 140.976C343.235 141.36 342.811 141.661 342.326 141.88C341.846 142.099 341.329 142.208 340.774 142.208ZM340.774 140.864C341.275 140.864 341.726 140.733 342.126 140.472C342.531 140.205 342.849 139.856 343.078 139.424C343.313 138.987 343.43 138.512 343.43 138C343.43 137.477 343.31 136.997 343.07 136.56C342.835 136.123 342.518 135.773 342.118 135.512C341.718 135.251 341.27 135.12 340.774 135.12C340.273 135.12 339.822 135.253 339.422 135.52C339.022 135.781 338.705 136.131 338.47 136.568C338.235 137.005 338.118 137.483 338.118 138C338.118 138.533 338.238 139.019 338.478 139.456C338.718 139.888 339.041 140.232 339.446 140.488C339.851 140.739 340.294 140.864 340.774 140.864ZM349.475 142.208C348.739 142.208 348.067 142.019 347.459 141.64C346.856 141.261 346.373 140.755 346.011 140.12C345.653 139.48 345.475 138.773 345.475 138C345.475 137.413 345.579 136.867 345.787 136.36C345.995 135.848 346.28 135.4 346.643 135.016C347.011 134.627 347.437 134.323 347.923 134.104C348.408 133.885 348.925 133.776 349.475 133.776C350.211 133.776 350.88 133.965 351.483 134.344C352.091 134.723 352.573 135.232 352.931 135.872C353.293 136.512 353.475 137.221 353.475 138C353.475 138.581 353.371 139.125 353.163 139.632C352.955 140.139 352.667 140.587 352.299 140.976C351.936 141.36 351.512 141.661 351.027 141.88C350.547 142.099 350.029 142.208 349.475 142.208ZM349.475 140.864C349.976 140.864 350.427 140.733 350.827 140.472C351.232 140.205 351.549 139.856 351.779 139.424C352.013 138.987 352.131 138.512 352.131 138C352.131 137.477 352.011 136.997 351.771 136.56C351.536 136.123 351.219 135.773 350.819 135.512C350.419 135.251 349.971 135.12 349.475 135.12C348.973 135.12 348.523 135.253 348.123 135.52C347.723 135.781 347.405 136.131 347.171 136.568C346.936 137.005 346.819 137.483 346.819 138C346.819 138.533 346.939 139.019 347.179 139.456C347.419 139.888 347.741 140.232 348.147 140.488C348.552 140.739 348.995 140.864 349.475 140.864ZM354.624 142V130H355.968V142H354.624ZM360.234 142.152C359.802 142.136 359.381 142.056 358.97 141.912C358.565 141.763 358.207 141.563 357.898 141.312C357.594 141.056 357.373 140.763 357.234 140.432L358.386 139.936C358.466 140.117 358.61 140.288 358.818 140.448C359.026 140.608 359.266 140.736 359.538 140.832C359.81 140.928 360.085 140.976 360.362 140.976C360.655 140.976 360.93 140.931 361.186 140.84C361.442 140.749 361.65 140.616 361.81 140.44C361.975 140.259 362.058 140.043 362.058 139.792C362.058 139.525 361.967 139.317 361.786 139.168C361.61 139.013 361.386 138.893 361.114 138.808C360.847 138.717 360.575 138.632 360.298 138.552C359.749 138.413 359.258 138.248 358.826 138.056C358.394 137.859 358.053 137.611 357.802 137.312C357.557 137.008 357.434 136.621 357.434 136.152C357.434 135.656 357.57 135.227 357.842 134.864C358.119 134.501 358.482 134.221 358.93 134.024C359.378 133.827 359.858 133.728 360.37 133.728C361.015 133.728 361.605 133.867 362.138 134.144C362.671 134.421 363.069 134.797 363.33 135.272L362.25 135.904C362.159 135.712 362.021 135.544 361.834 135.4C361.647 135.251 361.434 135.133 361.194 135.048C360.954 134.963 360.709 134.917 360.458 134.912C360.149 134.901 359.858 134.941 359.586 135.032C359.319 135.123 359.103 135.261 358.938 135.448C358.778 135.629 358.698 135.856 358.698 136.128C358.698 136.395 358.783 136.597 358.954 136.736C359.13 136.875 359.357 136.987 359.634 137.072C359.917 137.152 360.223 137.245 360.554 137.352C361.039 137.507 361.493 137.685 361.914 137.888C362.335 138.091 362.674 138.344 362.93 138.648C363.191 138.952 363.319 139.328 363.314 139.776C363.314 140.267 363.167 140.696 362.874 141.064C362.581 141.427 362.199 141.704 361.73 141.896C361.266 142.088 360.767 142.173 360.234 142.152ZM45.104 159.344H43.288L43.28 166H41.936L41.944 159.344H40.568V158H41.944L41.936 155.488H43.28L43.288 158H45.104V159.344ZM49.759 166.208C49.023 166.208 48.351 166.019 47.743 165.64C47.1403 165.261 46.6577 164.755 46.295 164.12C45.9377 163.48 45.759 162.773 45.759 162C45.759 161.413 45.863 160.867 46.071 160.36C46.279 159.848 46.5643 159.4 46.927 159.016C47.295 158.627 47.7217 158.323 48.207 158.104C48.6923 157.885 49.2097 157.776 49.759 157.776C50.495 157.776 51.1643 157.965 51.767 158.344C52.375 158.723 52.8577 159.232 53.215 159.872C53.5777 160.512 53.759 161.221 53.759 162C53.759 162.581 53.655 163.125 53.447 163.632C53.239 164.139 52.951 164.587 52.583 164.976C52.2203 165.36 51.7963 165.661 51.311 165.88C50.831 166.099 50.3137 166.208 49.759 166.208ZM49.759 164.864C50.2603 164.864 50.711 164.733 51.111 164.472C51.5163 164.205 51.8337 163.856 52.063 163.424C52.2977 162.987 52.415 162.512 52.415 162C52.415 161.477 52.295 160.997 52.055 160.56C51.8203 160.123 51.503 159.773 51.103 159.512C50.703 159.251 50.255 159.12 49.759 159.12C49.2577 159.12 48.807 159.253 48.407 159.52C48.007 159.781 47.6897 160.131 47.455 160.568C47.2203 161.005 47.103 161.483 47.103 162C47.103 162.533 47.223 163.019 47.463 163.456C47.703 163.888 48.0257 164.232 48.431 164.488C48.8363 164.739 49.279 164.864 49.759 164.864ZM60.6599 156.024V158H63.0039V159.344H60.6599V166H59.3159V159.344H58.2839V158H59.3159V156.024C59.3159 155.613 59.4145 155.243 59.6119 154.912C59.8145 154.576 60.0839 154.309 60.4199 154.112C60.7612 153.909 61.1345 153.808 61.5399 153.808C61.8385 153.808 62.1292 153.869 62.4119 153.992C62.6945 154.109 62.9452 154.285 63.1639 154.52L62.2039 155.472C62.1292 155.371 62.0305 155.293 61.9079 155.24C61.7905 155.181 61.6679 155.152 61.5399 155.152C61.2999 155.152 61.0919 155.237 60.9159 155.408C60.7452 155.579 60.6599 155.784 60.6599 156.024ZM64.1385 158H65.4825V166H64.1385V158ZM64.8265 156.696C64.6132 156.696 64.4345 156.627 64.2905 156.488C64.1465 156.349 64.0745 156.176 64.0745 155.968C64.0745 155.76 64.1465 155.587 64.2905 155.448C64.4345 155.309 64.6105 155.24 64.8185 155.24C65.0265 155.24 65.2025 155.309 65.3465 155.448C65.4905 155.587 65.5625 155.76 65.5625 155.968C65.5625 156.176 65.4905 156.349 65.3465 156.488C65.2078 156.627 65.0345 156.696 64.8265 156.696ZM74.3489 161.024V166H73.0049V161.32C73.0049 160.915 72.9062 160.547 72.7089 160.216C72.5115 159.885 72.2475 159.624 71.9169 159.432C71.5862 159.235 71.2182 159.136 70.8129 159.136C70.4129 159.136 70.0449 159.235 69.7089 159.432C69.3782 159.624 69.1142 159.885 68.9169 160.216C68.7195 160.547 68.6209 160.915 68.6209 161.32V166H67.2769V158H68.6209V159C68.9035 158.627 69.2609 158.331 69.6929 158.112C70.1249 157.888 70.5942 157.776 71.1009 157.776C71.6982 157.776 72.2422 157.923 72.7329 158.216C73.2289 158.504 73.6209 158.893 73.9089 159.384C74.2022 159.875 74.3489 160.421 74.3489 161.024ZM82.1365 154H83.4805V166H82.1365V164.64C81.8645 165.109 81.4992 165.488 81.0405 165.776C80.5818 166.064 80.0432 166.208 79.4245 166.208C78.8432 166.208 78.2992 166.099 77.7925 165.88C77.2858 165.661 76.8378 165.36 76.4485 164.976C76.0645 164.587 75.7632 164.139 75.5445 163.632C75.3258 163.125 75.2165 162.581 75.2165 162C75.2165 161.419 75.3258 160.875 75.5445 160.368C75.7632 159.856 76.0645 159.408 76.4485 159.024C76.8378 158.635 77.2858 158.331 77.7925 158.112C78.2992 157.893 78.8432 157.784 79.4245 157.784C80.0432 157.784 80.5818 157.928 81.0405 158.216C81.4992 158.504 81.8645 158.883 82.1365 159.352V154ZM79.4405 164.904C79.9685 164.904 80.4245 164.776 80.8085 164.52C81.1978 164.259 81.4965 163.907 81.7045 163.464C81.9178 163.021 82.0245 162.533 82.0245 162C82.0245 161.456 81.9178 160.965 81.7045 160.528C81.4912 160.085 81.1898 159.736 80.8005 159.48C80.4165 159.219 79.9632 159.088 79.4405 159.088C78.9125 159.088 78.4325 159.219 78.0005 159.48C77.5738 159.741 77.2325 160.093 76.9765 160.536C76.7205 160.973 76.5925 161.461 76.5925 162C76.5925 162.539 76.7232 163.029 76.9845 163.472C77.2458 163.909 77.5925 164.259 78.0245 164.52C78.4565 164.776 78.9285 164.904 79.4405 164.904ZM90.3954 170H89.0514V158H90.3954V159.368C90.6674 158.899 91.03 158.52 91.4834 158.232C91.9367 157.939 92.4754 157.792 93.0994 157.792C93.6807 157.792 94.2247 157.901 94.7314 158.12C95.2434 158.339 95.6914 158.643 96.0754 159.032C96.4594 159.416 96.7607 159.861 96.9794 160.368C97.198 160.875 97.3074 161.419 97.3074 162C97.3074 162.581 97.198 163.128 96.9794 163.64C96.7607 164.152 96.4594 164.603 96.0754 164.992C95.6914 165.376 95.2434 165.677 94.7314 165.896C94.2247 166.115 93.6807 166.224 93.0994 166.224C92.4754 166.224 91.9367 166.08 91.4834 165.792C91.03 165.499 90.6674 165.117 90.3954 164.648V170ZM93.0834 159.096C92.566 159.096 92.1127 159.227 91.7234 159.488C91.334 159.749 91.0327 160.099 90.8194 160.536C90.6114 160.973 90.5074 161.461 90.5074 162C90.5074 162.533 90.6114 163.021 90.8194 163.464C91.0327 163.907 91.3314 164.259 91.7154 164.52C92.1047 164.781 92.5607 164.912 93.0834 164.912C93.6007 164.912 94.0754 164.784 94.5074 164.528C94.9394 164.267 95.286 163.917 95.5474 163.48C95.8087 163.037 95.9394 162.544 95.9394 162C95.9394 161.467 95.8114 160.981 95.5554 160.544C95.2994 160.101 94.9554 159.749 94.5234 159.488C94.0914 159.227 93.6114 159.096 93.0834 159.096ZM98.5491 166V158H99.8931V159C100.176 158.627 100.533 158.331 100.965 158.112C101.397 157.888 101.866 157.776 102.373 157.776C102.682 157.776 102.981 157.816 103.269 157.896L102.725 159.24C102.506 159.171 102.293 159.136 102.085 159.136C101.685 159.136 101.317 159.235 100.981 159.432C100.65 159.624 100.386 159.885 100.189 160.216C99.9918 160.547 99.8931 160.915 99.8931 161.32V166H98.5491ZM107.27 166.208C106.534 166.208 105.862 166.019 105.254 165.64C104.651 165.261 104.169 164.755 103.806 164.12C103.449 163.48 103.27 162.773 103.27 162C103.27 161.413 103.374 160.867 103.582 160.36C103.79 159.848 104.075 159.4 104.438 159.016C104.806 158.627 105.233 158.323 105.718 158.104C106.203 157.885 106.721 157.776 107.27 157.776C108.006 157.776 108.675 157.965 109.278 158.344C109.886 158.723 110.369 159.232 110.726 159.872C111.089 160.512 111.27 161.221 111.27 162C111.27 162.581 111.166 163.125 110.958 163.632C110.75 164.139 110.462 164.587 110.094 164.976C109.731 165.36 109.307 165.661 108.822 165.88C108.342 166.099 107.825 166.208 107.27 166.208ZM107.27 164.864C107.771 164.864 108.222 164.733 108.622 164.472C109.027 164.205 109.345 163.856 109.574 163.424C109.809 162.987 109.926 162.512 109.926 162C109.926 161.477 109.806 160.997 109.566 160.56C109.331 160.123 109.014 159.773 108.614 159.512C108.214 159.251 107.766 159.12 107.27 159.12C106.769 159.12 106.318 159.253 105.918 159.52C105.518 159.781 105.201 160.131 104.966 160.568C104.731 161.005 104.614 161.483 104.614 162C104.614 162.533 104.734 163.019 104.974 163.456C105.214 163.888 105.537 164.232 105.942 164.488C106.347 164.739 106.79 164.864 107.27 164.864ZM113.842 170H112.498V158H113.842V159.368C114.114 158.899 114.476 158.52 114.93 158.232C115.383 157.939 115.922 157.792 116.546 157.792C117.127 157.792 117.671 157.901 118.178 158.12C118.69 158.339 119.138 158.643 119.522 159.032C119.906 159.416 120.207 159.861 120.426 160.368C120.644 160.875 120.754 161.419 120.754 162C120.754 162.581 120.644 163.128 120.426 163.64C120.207 164.152 119.906 164.603 119.522 164.992C119.138 165.376 118.69 165.677 118.178 165.896C117.671 166.115 117.127 166.224 116.546 166.224C115.922 166.224 115.383 166.08 114.93 165.792C114.476 165.499 114.114 165.117 113.842 164.648V170ZM116.53 159.096C116.012 159.096 115.559 159.227 115.17 159.488C114.78 159.749 114.479 160.099 114.266 160.536C114.058 160.973 113.954 161.461 113.954 162C113.954 162.533 114.058 163.021 114.266 163.464C114.479 163.907 114.778 164.259 115.162 164.52C115.551 164.781 116.007 164.912 116.53 164.912C117.047 164.912 117.522 164.784 117.954 164.528C118.386 164.267 118.732 163.917 118.994 163.48C119.255 163.037 119.386 162.544 119.386 162C119.386 161.467 119.258 160.981 119.002 160.544C118.746 160.101 118.402 159.749 117.97 159.488C117.538 159.227 117.058 159.096 116.53 159.096ZM125.469 166.208C124.733 166.208 124.061 166.019 123.453 165.64C122.85 165.261 122.367 164.755 122.005 164.12C121.647 163.48 121.469 162.773 121.469 162C121.469 161.413 121.573 160.867 121.781 160.36C121.989 159.848 122.274 159.4 122.637 159.016C123.005 158.627 123.431 158.323 123.917 158.104C124.402 157.885 124.919 157.776 125.469 157.776C126.071 157.776 126.623 157.899 127.125 158.144C127.631 158.384 128.063 158.72 128.421 159.152C128.783 159.584 129.053 160.085 129.229 160.656C129.41 161.227 129.477 161.837 129.429 162.488H122.901C122.965 162.941 123.114 163.347 123.349 163.704C123.583 164.056 123.882 164.336 124.245 164.544C124.613 164.752 125.021 164.859 125.469 164.864C125.949 164.864 126.383 164.741 126.773 164.496C127.162 164.245 127.477 163.904 127.717 163.472L129.085 163.792C128.765 164.501 128.282 165.083 127.637 165.536C126.991 165.984 126.269 166.208 125.469 166.208ZM122.861 161.432H128.077C128.034 160.984 127.89 160.576 127.645 160.208C127.399 159.835 127.087 159.536 126.709 159.312C126.33 159.088 125.917 158.976 125.469 158.976C125.021 158.976 124.61 159.085 124.237 159.304C123.863 159.523 123.554 159.819 123.309 160.192C123.069 160.56 122.919 160.973 122.861 161.432ZM130.681 166V158H132.025V159C132.307 158.627 132.665 158.331 133.097 158.112C133.529 157.888 133.998 157.776 134.505 157.776C134.814 157.776 135.113 157.816 135.401 157.896L134.857 159.24C134.638 159.171 134.425 159.136 134.217 159.136C133.817 159.136 133.449 159.235 133.113 159.432C132.782 159.624 132.518 159.885 132.321 160.216C132.123 160.547 132.025 160.915 132.025 161.32V166H130.681ZM140.572 159.344H138.756L138.748 166H137.404L137.412 159.344H136.036V158H137.412L137.404 155.488H138.748L138.756 158H140.572V159.344ZM141.832 158H143.176V166H141.832V158ZM142.52 156.696C142.307 156.696 142.128 156.627 141.984 156.488C141.84 156.349 141.768 156.176 141.768 155.968C141.768 155.76 141.84 155.587 141.984 155.448C142.128 155.309 142.304 155.24 142.512 155.24C142.72 155.24 142.896 155.309 143.04 155.448C143.184 155.587 143.256 155.76 143.256 155.968C143.256 156.176 143.184 156.349 143.04 156.488C142.902 156.627 142.728 156.696 142.52 156.696ZM148.413 166.208C147.677 166.208 147.005 166.019 146.397 165.64C145.794 165.261 145.311 164.755 144.949 164.12C144.591 163.48 144.413 162.773 144.413 162C144.413 161.413 144.517 160.867 144.725 160.36C144.933 159.848 145.218 159.4 145.581 159.016C145.949 158.627 146.375 158.323 146.861 158.104C147.346 157.885 147.863 157.776 148.413 157.776C149.015 157.776 149.567 157.899 150.069 158.144C150.575 158.384 151.007 158.72 151.365 159.152C151.727 159.584 151.997 160.085 152.173 160.656C152.354 161.227 152.421 161.837 152.373 162.488H145.845C145.909 162.941 146.058 163.347 146.293 163.704C146.527 164.056 146.826 164.336 147.189 164.544C147.557 164.752 147.965 164.859 148.413 164.864C148.893 164.864 149.327 164.741 149.717 164.496C150.106 164.245 150.421 163.904 150.661 163.472L152.029 163.792C151.709 164.501 151.226 165.083 150.581 165.536C149.935 165.984 149.213 166.208 148.413 166.208ZM145.805 161.432H151.021C150.978 160.984 150.834 160.576 150.589 160.208C150.343 159.835 150.031 159.536 149.653 159.312C149.274 159.088 148.861 158.976 148.413 158.976C147.965 158.976 147.554 159.085 147.181 159.304C146.807 159.523 146.498 159.819 146.253 160.192C146.013 160.56 145.863 160.973 145.805 161.432ZM156.096 166.152C155.664 166.136 155.243 166.056 154.832 165.912C154.427 165.763 154.069 165.563 153.76 165.312C153.456 165.056 153.235 164.763 153.096 164.432L154.248 163.936C154.328 164.117 154.472 164.288 154.68 164.448C154.888 164.608 155.128 164.736 155.4 164.832C155.672 164.928 155.947 164.976 156.224 164.976C156.517 164.976 156.792 164.931 157.048 164.84C157.304 164.749 157.512 164.616 157.672 164.44C157.837 164.259 157.92 164.043 157.92 163.792C157.92 163.525 157.829 163.317 157.648 163.168C157.472 163.013 157.248 162.893 156.976 162.808C156.709 162.717 156.437 162.632 156.16 162.552C155.611 162.413 155.12 162.248 154.688 162.056C154.256 161.859 153.915 161.611 153.664 161.312C153.419 161.008 153.296 160.621 153.296 160.152C153.296 159.656 153.432 159.227 153.704 158.864C153.981 158.501 154.344 158.221 154.792 158.024C155.24 157.827 155.72 157.728 156.232 157.728C156.877 157.728 157.467 157.867 158 158.144C158.533 158.421 158.931 158.797 159.192 159.272L158.112 159.904C158.021 159.712 157.883 159.544 157.696 159.4C157.509 159.251 157.296 159.133 157.056 159.048C156.816 158.963 156.571 158.917 156.32 158.912C156.011 158.901 155.72 158.941 155.448 159.032C155.181 159.123 154.965 159.261 154.8 159.448C154.64 159.629 154.56 159.856 154.56 160.128C154.56 160.395 154.645 160.597 154.816 160.736C154.992 160.875 155.219 160.987 155.496 161.072C155.779 161.152 156.085 161.245 156.416 161.352C156.901 161.507 157.355 161.685 157.776 161.888C158.197 162.091 158.536 162.344 158.792 162.648C159.053 162.952 159.181 163.328 159.176 163.776C159.176 164.267 159.029 164.696 158.736 165.064C158.443 165.427 158.061 165.704 157.592 165.896C157.128 166.088 156.629 166.173 156.096 166.152ZM168.343 159.344H166.527L166.519 166H165.175L165.183 159.344H163.807V158H165.183L165.175 155.488H166.519L166.527 158H168.343V159.344ZM176.753 161.024V166H175.409V161.32C175.409 160.915 175.31 160.547 175.113 160.216C174.915 159.885 174.651 159.624 174.321 159.432C173.99 159.235 173.622 159.136 173.217 159.136C172.817 159.136 172.449 159.235 172.113 159.432C171.782 159.624 171.518 159.885 171.321 160.216C171.123 160.547 171.025 160.915 171.025 161.32V166H169.681V154H171.025V159C171.307 158.627 171.665 158.331 172.097 158.112C172.529 157.888 172.998 157.776 173.505 157.776C174.102 157.776 174.646 157.923 175.137 158.216C175.633 158.504 176.025 158.893 176.313 159.384C176.606 159.875 176.753 160.421 176.753 161.024ZM184.532 158H185.876V166H184.532L184.476 164.648C184.226 165.112 183.879 165.488 183.436 165.776C182.999 166.064 182.476 166.208 181.868 166.208C181.282 166.208 180.732 166.099 180.22 165.88C179.708 165.656 179.255 165.349 178.86 164.96C178.471 164.565 178.167 164.112 177.948 163.6C177.73 163.088 177.62 162.536 177.62 161.944C177.62 161.373 177.727 160.835 177.94 160.328C178.154 159.821 178.45 159.379 178.828 159C179.212 158.616 179.655 158.317 180.156 158.104C180.658 157.885 181.196 157.776 181.772 157.776C182.402 157.776 182.954 157.925 183.428 158.224C183.903 158.517 184.287 158.899 184.58 159.368L184.532 158ZM181.844 164.904C182.372 164.904 182.828 164.776 183.212 164.52C183.602 164.259 183.9 163.907 184.108 163.464C184.322 163.021 184.428 162.533 184.428 162C184.428 161.456 184.322 160.965 184.108 160.528C183.895 160.085 183.594 159.736 183.204 159.48C182.82 159.219 182.367 159.088 181.844 159.088C181.316 159.088 180.836 159.219 180.404 159.48C179.972 159.741 179.628 160.093 179.372 160.536C179.122 160.973 178.996 161.461 178.996 162C178.996 162.539 179.127 163.029 179.388 163.472C179.65 163.909 179.996 164.259 180.428 164.52C180.86 164.776 181.332 164.904 181.844 164.904ZM191.523 159.344H189.707L189.699 166H188.355L188.363 159.344H186.987V158H188.363L188.355 155.488H189.699L189.707 158H191.523V159.344ZM196.609 166V158H197.953V159C198.236 158.627 198.59 158.331 199.017 158.112C199.449 157.888 199.918 157.776 200.425 157.776C201.017 157.776 201.558 157.92 202.049 158.208C202.54 158.496 202.926 158.877 203.209 159.352C203.492 158.877 203.876 158.496 204.361 158.208C204.852 157.92 205.39 157.776 205.977 157.776C206.58 157.776 207.126 157.923 207.617 158.216C208.108 158.504 208.497 158.893 208.785 159.384C209.078 159.875 209.225 160.421 209.225 161.024V166H207.881V161.344C207.881 160.949 207.785 160.584 207.593 160.248C207.401 159.912 207.142 159.643 206.817 159.44C206.492 159.237 206.132 159.136 205.737 159.136C205.342 159.136 204.982 159.232 204.657 159.424C204.332 159.611 204.073 159.872 203.881 160.208C203.689 160.539 203.593 160.917 203.593 161.344V166H202.249V161.344C202.249 160.917 202.153 160.539 201.961 160.208C201.769 159.872 201.508 159.611 201.177 159.424C200.852 159.232 200.492 159.136 200.097 159.136C199.708 159.136 199.348 159.237 199.017 159.44C198.692 159.643 198.433 159.912 198.241 160.248C198.049 160.584 197.953 160.949 197.953 161.344V166H196.609ZM217.008 158H218.352V166H217.008L216.952 164.648C216.701 165.112 216.354 165.488 215.912 165.776C215.474 166.064 214.952 166.208 214.344 166.208C213.757 166.208 213.208 166.099 212.696 165.88C212.184 165.656 211.73 165.349 211.336 164.96C210.946 164.565 210.642 164.112 210.424 163.6C210.205 163.088 210.096 162.536 210.096 161.944C210.096 161.373 210.202 160.835 210.416 160.328C210.629 159.821 210.925 159.379 211.304 159C211.688 158.616 212.13 158.317 212.632 158.104C213.133 157.885 213.672 157.776 214.248 157.776C214.877 157.776 215.429 157.925 215.904 158.224C216.378 158.517 216.762 158.899 217.056 159.368L217.008 158ZM214.32 164.904C214.848 164.904 215.304 164.776 215.688 164.52C216.077 164.259 216.376 163.907 216.584 163.464C216.797 163.021 216.904 162.533 216.904 162C216.904 161.456 216.797 160.965 216.584 160.528C216.37 160.085 216.069 159.736 215.68 159.48C215.296 159.219 214.842 159.088 214.32 159.088C213.792 159.088 213.312 159.219 212.88 159.48C212.448 159.741 212.104 160.093 211.848 160.536C211.597 160.973 211.472 161.461 211.472 162C211.472 162.539 211.602 163.029 211.864 163.472C212.125 163.909 212.472 164.259 212.904 164.52C213.336 164.776 213.808 164.904 214.32 164.904ZM223.999 159.344H222.183L222.175 166H220.831L220.839 159.344H219.463V158H220.839L220.831 155.488H222.175L222.183 158H223.999V159.344ZM230.646 163.888L231.846 164.536C231.483 165.043 231.022 165.448 230.462 165.752C229.907 166.056 229.304 166.208 228.654 166.208C227.918 166.208 227.246 166.019 226.638 165.64C226.035 165.261 225.552 164.755 225.19 164.12C224.832 163.48 224.654 162.773 224.654 162C224.654 161.413 224.758 160.867 224.966 160.36C225.174 159.848 225.459 159.4 225.822 159.016C226.19 158.627 226.616 158.323 227.102 158.104C227.587 157.885 228.104 157.776 228.654 157.776C229.304 157.776 229.907 157.928 230.462 158.232C231.022 158.536 231.483 158.944 231.846 159.456L230.646 160.104C230.39 159.789 230.086 159.547 229.734 159.376C229.382 159.205 229.022 159.12 228.654 159.12C228.158 159.12 227.707 159.253 227.302 159.52C226.902 159.781 226.584 160.131 226.35 160.568C226.115 161.005 225.998 161.483 225.998 162C225.998 162.517 226.115 162.995 226.35 163.432C226.59 163.864 226.91 164.211 227.31 164.472C227.715 164.733 228.163 164.864 228.654 164.864C229.048 164.864 229.419 164.773 229.766 164.592C230.112 164.411 230.406 164.176 230.646 163.888ZM240.125 161.024V166H238.781V161.32C238.781 160.915 238.683 160.547 238.485 160.216C238.288 159.885 238.024 159.624 237.693 159.432C237.363 159.235 236.995 159.136 236.589 159.136C236.189 159.136 235.821 159.235 235.485 159.432C235.155 159.624 234.891 159.885 234.693 160.216C234.496 160.547 234.397 160.915 234.397 161.32V166H233.053V154H234.397V159C234.68 158.627 235.037 158.331 235.469 158.112C235.901 157.888 236.371 157.776 236.877 157.776C237.475 157.776 238.019 157.923 238.509 158.216C239.005 158.504 239.397 158.893 239.685 159.384C239.979 159.875 240.125 160.421 240.125 161.024ZM250.857 158H252.281L247.905 170H246.481L247.929 166L245.057 158H246.529L248.601 164.152L250.857 158ZM256.738 166.208C256.002 166.208 255.33 166.019 254.722 165.64C254.12 165.261 253.637 164.755 253.274 164.12C252.917 163.48 252.738 162.773 252.738 162C252.738 161.413 252.842 160.867 253.05 160.36C253.258 159.848 253.544 159.4 253.906 159.016C254.274 158.627 254.701 158.323 255.186 158.104C255.672 157.885 256.189 157.776 256.738 157.776C257.474 157.776 258.144 157.965 258.746 158.344C259.354 158.723 259.837 159.232 260.194 159.872C260.557 160.512 260.738 161.221 260.738 162C260.738 162.581 260.634 163.125 260.426 163.632C260.218 164.139 259.93 164.587 259.562 164.976C259.2 165.36 258.776 165.661 258.29 165.88C257.81 166.099 257.293 166.208 256.738 166.208ZM256.738 164.864C257.24 164.864 257.69 164.733 258.09 164.472C258.496 164.205 258.813 163.856 259.042 163.424C259.277 162.987 259.394 162.512 259.394 162C259.394 161.477 259.274 160.997 259.034 160.56C258.8 160.123 258.482 159.773 258.082 159.512C257.682 159.251 257.234 159.12 256.738 159.12C256.237 159.12 255.786 159.253 255.386 159.52C254.986 159.781 254.669 160.131 254.434 160.568C254.2 161.005 254.082 161.483 254.082 162C254.082 162.533 254.202 163.019 254.442 163.456C254.682 163.888 255.005 164.232 255.41 164.488C255.816 164.739 256.258 164.864 256.738 164.864ZM261.537 162.96V158H262.881V162.664C262.881 163.069 262.979 163.437 263.177 163.768C263.374 164.099 263.638 164.363 263.969 164.56C264.305 164.752 264.673 164.848 265.073 164.848C265.478 164.848 265.843 164.752 266.169 164.56C266.499 164.363 266.763 164.099 266.961 163.768C267.158 163.437 267.257 163.069 267.257 162.664V158H268.601L268.609 166H267.265L267.257 164.984C266.974 165.357 266.617 165.656 266.185 165.88C265.753 166.099 265.286 166.208 264.785 166.208C264.187 166.208 263.641 166.064 263.145 165.776C262.654 165.483 262.262 165.091 261.969 164.6C261.681 164.109 261.537 163.563 261.537 162.96ZM270.12 166V158H271.464V159C271.747 158.627 272.104 158.331 272.536 158.112C272.968 157.888 273.437 157.776 273.944 157.776C274.253 157.776 274.552 157.816 274.84 157.896L274.296 159.24C274.077 159.171 273.864 159.136 273.656 159.136C273.256 159.136 272.888 159.235 272.552 159.432C272.221 159.624 271.957 159.885 271.76 160.216C271.563 160.547 271.464 160.915 271.464 161.32V166H270.12ZM285.128 163.888L286.328 164.536C285.965 165.043 285.504 165.448 284.944 165.752C284.389 166.056 283.786 166.208 283.136 166.208C282.4 166.208 281.728 166.019 281.12 165.64C280.517 165.261 280.034 164.755 279.672 164.12C279.314 163.48 279.136 162.773 279.136 162C279.136 161.413 279.24 160.867 279.448 160.36C279.656 159.848 279.941 159.4 280.304 159.016C280.672 158.627 281.098 158.323 281.584 158.104C282.069 157.885 282.586 157.776 283.136 157.776C283.786 157.776 284.389 157.928 284.944 158.232C285.504 158.536 285.965 158.944 286.328 159.456L285.128 160.104C284.872 159.789 284.568 159.547 284.216 159.376C283.864 159.205 283.504 159.12 283.136 159.12C282.64 159.12 282.189 159.253 281.784 159.52C281.384 159.781 281.066 160.131 280.832 160.568C280.597 161.005 280.48 161.483 280.48 162C280.48 162.517 280.597 162.995 280.832 163.432C281.072 163.864 281.392 164.211 281.792 164.472C282.197 164.733 282.645 164.864 283.136 164.864C283.53 164.864 283.901 164.773 284.248 164.592C284.594 164.411 284.888 164.176 285.128 163.888ZM287.676 166V158H289.02V159C289.303 158.627 289.66 158.331 290.092 158.112C290.524 157.888 290.993 157.776 291.5 157.776C291.809 157.776 292.108 157.816 292.396 157.896L291.852 159.24C291.633 159.171 291.42 159.136 291.212 159.136C290.812 159.136 290.444 159.235 290.108 159.432C289.777 159.624 289.513 159.885 289.316 160.216C289.119 160.547 289.02 160.915 289.02 161.32V166H287.676ZM293.283 158H294.627V166H293.283V158ZM293.971 156.696C293.758 156.696 293.579 156.627 293.435 156.488C293.291 156.349 293.219 156.176 293.219 155.968C293.219 155.76 293.291 155.587 293.435 155.448C293.579 155.309 293.755 155.24 293.963 155.24C294.171 155.24 294.347 155.309 294.491 155.448C294.635 155.587 294.707 155.76 294.707 155.968C294.707 156.176 294.635 156.349 294.491 156.488C294.352 156.627 294.179 156.696 293.971 156.696ZM300.597 159.344H298.781L298.773 166H297.429L297.437 159.344H296.061V158H297.437L297.429 155.488H298.773L298.781 158H300.597V159.344ZM305.252 166.208C304.516 166.208 303.844 166.019 303.236 165.64C302.633 165.261 302.15 164.755 301.788 164.12C301.43 163.48 301.252 162.773 301.252 162C301.252 161.413 301.356 160.867 301.564 160.36C301.772 159.848 302.057 159.4 302.42 159.016C302.788 158.627 303.214 158.323 303.7 158.104C304.185 157.885 304.702 157.776 305.252 157.776C305.854 157.776 306.406 157.899 306.908 158.144C307.414 158.384 307.846 158.72 308.204 159.152C308.566 159.584 308.836 160.085 309.012 160.656C309.193 161.227 309.26 161.837 309.212 162.488H302.684C302.748 162.941 302.897 163.347 303.132 163.704C303.366 164.056 303.665 164.336 304.028 164.544C304.396 164.752 304.804 164.859 305.252 164.864C305.732 164.864 306.166 164.741 306.556 164.496C306.945 164.245 307.26 163.904 307.5 163.472L308.868 163.792C308.548 164.501 308.065 165.083 307.42 165.536C306.774 165.984 306.052 166.208 305.252 166.208ZM302.644 161.432H307.86C307.817 160.984 307.673 160.576 307.428 160.208C307.182 159.835 306.87 159.536 306.492 159.312C306.113 159.088 305.7 158.976 305.252 158.976C304.804 158.976 304.393 159.085 304.02 159.304C303.646 159.523 303.337 159.819 303.092 160.192C302.852 160.56 302.702 160.973 302.644 161.432ZM310.464 166V158H311.808V159C312.09 158.627 312.448 158.331 312.88 158.112C313.312 157.888 313.781 157.776 314.288 157.776C314.597 157.776 314.896 157.816 315.184 157.896L314.64 159.24C314.421 159.171 314.208 159.136 314 159.136C313.6 159.136 313.232 159.235 312.896 159.432C312.565 159.624 312.301 159.885 312.104 160.216C311.906 160.547 311.808 160.915 311.808 161.32V166H310.464ZM316.071 158H317.415V166H316.071V158ZM316.759 156.696C316.546 156.696 316.367 156.627 316.223 156.488C316.079 156.349 316.007 156.176 316.007 155.968C316.007 155.76 316.079 155.587 316.223 155.448C316.367 155.309 316.543 155.24 316.751 155.24C316.959 155.24 317.135 155.309 317.279 155.448C317.423 155.587 317.495 155.76 317.495 155.968C317.495 156.176 317.423 156.349 317.279 156.488C317.14 156.627 316.967 156.696 316.759 156.696ZM325.563 158H326.907V166H325.563L325.507 164.648C325.256 165.112 324.91 165.488 324.467 165.776C324.03 166.064 323.507 166.208 322.899 166.208C322.312 166.208 321.763 166.099 321.251 165.88C320.739 165.656 320.286 165.349 319.891 164.96C319.502 164.565 319.198 164.112 318.979 163.6C318.76 163.088 318.651 162.536 318.651 161.944C318.651 161.373 318.758 160.835 318.971 160.328C319.184 159.821 319.48 159.379 319.859 159C320.243 158.616 320.686 158.317 321.187 158.104C321.688 157.885 322.227 157.776 322.803 157.776C323.432 157.776 323.984 157.925 324.459 158.224C324.934 158.517 325.318 158.899 325.611 159.368L325.563 158ZM322.875 164.904C323.403 164.904 323.859 164.776 324.243 164.52C324.632 164.259 324.931 163.907 325.139 163.464C325.352 163.021 325.459 162.533 325.459 162C325.459 161.456 325.352 160.965 325.139 160.528C324.926 160.085 324.624 159.736 324.235 159.48C323.851 159.219 323.398 159.088 322.875 159.088C322.347 159.088 321.867 159.219 321.435 159.48C321.003 159.741 320.659 160.093 320.403 160.536C320.152 160.973 320.027 161.461 320.027 162C320.027 162.539 320.158 163.029 320.419 163.472C320.68 163.909 321.027 164.259 321.459 164.52C321.891 164.776 322.363 164.904 322.875 164.904ZM328.818 166.208C328.615 166.208 328.442 166.136 328.298 165.992C328.159 165.848 328.09 165.672 328.09 165.464C328.09 165.267 328.159 165.096 328.298 164.952C328.442 164.808 328.615 164.736 328.818 164.736C329.026 164.736 329.202 164.808 329.346 164.952C329.49 165.096 329.562 165.267 329.562 165.464C329.562 165.672 329.49 165.848 329.346 165.992C329.202 166.136 329.026 166.208 328.818 166.208Z" fill="#999999"></path><rect x="40.5" y="196.5" width="106" height="45" rx="7.5" fill="#1A1A1A"></rect><rect x="40.5" y="196.5" width="106" height="45" rx="7.5" stroke="#262626"></rect><path d="M60.84 224V214.2H64.284C64.8067 214.2 65.278 214.328 65.698 214.585C66.1227 214.842 66.4587 215.189 66.706 215.628C66.958 216.062 67.084 216.547 67.084 217.084C67.084 217.555 66.9907 217.985 66.804 218.372C66.6173 218.759 66.3607 219.084 66.034 219.345C65.712 219.602 65.3457 219.779 64.935 219.877L67.315 224H65.957L63.619 219.975H62.016V224H60.84ZM62.016 218.799H64.165C64.4823 218.799 64.774 218.722 65.04 218.568C65.306 218.409 65.516 218.197 65.67 217.931C65.8287 217.66 65.908 217.357 65.908 217.021C65.908 216.68 65.8287 216.377 65.67 216.111C65.516 215.84 65.306 215.628 65.04 215.474C64.774 215.315 64.4823 215.236 64.165 215.236H62.016V218.799ZM71.4649 224.182C70.8209 224.182 70.2329 224.016 69.7009 223.685C69.1736 223.354 68.7512 222.91 68.4339 222.355C68.1212 221.795 67.9649 221.177 67.9649 220.5C67.9649 219.987 68.0559 219.508 68.2379 219.065C68.4199 218.617 68.6696 218.225 68.9869 217.889C69.3089 217.548 69.6822 217.282 70.1069 217.091C70.5316 216.9 70.9842 216.804 71.4649 216.804C71.9922 216.804 72.4752 216.911 72.9139 217.126C73.3572 217.336 73.7352 217.63 74.0479 218.008C74.3652 218.386 74.6009 218.825 74.7549 219.324C74.9136 219.823 74.9719 220.358 74.9299 220.927H69.2179C69.2739 221.324 69.4046 221.678 69.6099 221.991C69.8152 222.299 70.0766 222.544 70.3939 222.726C70.7159 222.908 71.0729 223.001 71.4649 223.006C71.8849 223.006 72.2652 222.899 72.6059 222.684C72.9466 222.465 73.2219 222.166 73.4319 221.788L74.6289 222.068C74.3489 222.689 73.9266 223.197 73.3619 223.594C72.7972 223.986 72.1649 224.182 71.4649 224.182ZM69.1829 220.003H73.7469C73.7096 219.611 73.5836 219.254 73.3689 218.932C73.1542 218.605 72.8812 218.344 72.5499 218.148C72.2186 217.952 71.8569 217.854 71.4649 217.854C71.0729 217.854 70.7136 217.95 70.3869 218.141C70.0602 218.332 69.7896 218.591 69.5749 218.918C69.3649 219.24 69.2342 219.602 69.1829 220.003ZM81.6125 217H82.7885V224H81.6125L81.5635 222.817C81.3442 223.223 81.0408 223.552 80.6535 223.804C80.2708 224.056 79.8135 224.182 79.2815 224.182C78.7682 224.182 78.2875 224.086 77.8395 223.895C77.3915 223.699 76.9948 223.431 76.6495 223.09C76.3088 222.745 76.0428 222.348 75.8515 221.9C75.6602 221.452 75.5645 220.969 75.5645 220.451C75.5645 219.952 75.6578 219.48 75.8445 219.037C76.0312 218.594 76.2902 218.206 76.6215 217.875C76.9575 217.539 77.3448 217.278 77.7835 217.091C78.2222 216.9 78.6935 216.804 79.1975 216.804C79.7482 216.804 80.2312 216.935 80.6465 217.196C81.0618 217.453 81.3978 217.786 81.6545 218.197L81.6125 217ZM79.2605 223.041C79.7225 223.041 80.1215 222.929 80.4575 222.705C80.7982 222.476 81.0595 222.168 81.2415 221.781C81.4282 221.394 81.5215 220.967 81.5215 220.5C81.5215 220.024 81.4282 219.595 81.2415 219.212C81.0548 218.825 80.7912 218.519 80.4505 218.295C80.1145 218.066 79.7178 217.952 79.2605 217.952C78.7985 217.952 78.3785 218.066 78.0005 218.295C77.6225 218.524 77.3215 218.832 77.0975 219.219C76.8782 219.602 76.7685 220.029 76.7685 220.5C76.7685 220.971 76.8828 221.401 77.1115 221.788C77.3402 222.171 77.6435 222.476 78.0215 222.705C78.3995 222.929 78.8125 223.041 79.2605 223.041ZM89.6019 213.5H90.7779V224H89.6019V222.81C89.3639 223.221 89.0442 223.552 88.6429 223.804C88.2416 224.056 87.7702 224.182 87.2289 224.182C86.7202 224.182 86.2442 224.086 85.8009 223.895C85.3576 223.704 84.9656 223.44 84.6249 223.104C84.2889 222.763 84.0252 222.371 83.8339 221.928C83.6426 221.485 83.5469 221.009 83.5469 220.5C83.5469 219.991 83.6426 219.515 83.8339 219.072C84.0252 218.624 84.2889 218.232 84.6249 217.896C84.9656 217.555 85.3576 217.289 85.8009 217.098C86.2442 216.907 86.7202 216.811 87.2289 216.811C87.7702 216.811 88.2416 216.937 88.6429 217.189C89.0442 217.441 89.3639 217.772 89.6019 218.183V213.5ZM87.2429 223.041C87.7049 223.041 88.1039 222.929 88.4399 222.705C88.7806 222.476 89.0419 222.168 89.2239 221.781C89.4106 221.394 89.5039 220.967 89.5039 220.5C89.5039 220.024 89.4106 219.595 89.2239 219.212C89.0372 218.825 88.7736 218.519 88.4329 218.295C88.0969 218.066 87.7002 217.952 87.2429 217.952C86.7809 217.952 86.3609 218.066 85.9829 218.295C85.6096 218.524 85.3109 218.832 85.0869 219.219C84.8629 219.602 84.7509 220.029 84.7509 220.5C84.7509 220.971 84.8652 221.401 85.0939 221.788C85.3226 222.171 85.6259 222.476 86.0039 222.705C86.3819 222.929 86.7949 223.041 87.2429 223.041ZM95.6524 224L97.5494 214.2H98.4524L101.098 221.158L103.737 214.2H104.64L106.544 224H105.347L103.968 216.888L101.483 223.468H100.706L98.2214 216.888L96.8494 224H95.6524ZM110.611 224.182C109.967 224.182 109.379 224.016 108.847 223.685C108.32 223.354 107.898 222.91 107.58 222.355C107.268 221.795 107.111 221.177 107.111 220.5C107.111 219.987 107.202 219.508 107.384 219.065C107.566 218.617 107.816 218.225 108.133 217.889C108.455 217.548 108.829 217.282 109.253 217.091C109.678 216.9 110.131 216.804 110.611 216.804C111.255 216.804 111.841 216.97 112.368 217.301C112.9 217.632 113.323 218.078 113.635 218.638C113.953 219.198 114.111 219.819 114.111 220.5C114.111 221.009 114.02 221.485 113.838 221.928C113.656 222.371 113.404 222.763 113.082 223.104C112.765 223.44 112.394 223.704 111.969 223.895C111.549 224.086 111.097 224.182 110.611 224.182ZM110.611 223.006C111.05 223.006 111.444 222.892 111.794 222.663C112.149 222.43 112.427 222.124 112.627 221.746C112.833 221.363 112.935 220.948 112.935 220.5C112.935 220.043 112.83 219.623 112.62 219.24C112.415 218.857 112.137 218.552 111.787 218.323C111.437 218.094 111.045 217.98 110.611 217.98C110.173 217.98 109.778 218.097 109.428 218.33C109.078 218.559 108.801 218.864 108.595 219.247C108.39 219.63 108.287 220.047 108.287 220.5C108.287 220.967 108.392 221.391 108.602 221.774C108.812 222.152 109.095 222.453 109.449 222.677C109.804 222.896 110.191 223.006 110.611 223.006ZM115.186 224V217H116.362V217.875C116.609 217.548 116.922 217.289 117.3 217.098C117.678 216.902 118.088 216.804 118.532 216.804C118.802 216.804 119.064 216.839 119.316 216.909L118.84 218.085C118.648 218.024 118.462 217.994 118.28 217.994C117.93 217.994 117.608 218.08 117.314 218.253C117.024 218.421 116.793 218.65 116.621 218.939C116.448 219.228 116.362 219.55 116.362 219.905V224H115.186ZM122.816 224.182C122.172 224.182 121.584 224.016 121.052 223.685C120.525 223.354 120.103 222.91 119.785 222.355C119.473 221.795 119.316 221.177 119.316 220.5C119.316 219.987 119.407 219.508 119.589 219.065C119.771 218.617 120.021 218.225 120.338 217.889C120.66 217.548 121.034 217.282 121.458 217.091C121.883 216.9 122.336 216.804 122.816 216.804C123.344 216.804 123.827 216.911 124.265 217.126C124.709 217.336 125.087 217.63 125.399 218.008C125.717 218.386 125.952 218.825 126.106 219.324C126.265 219.823 126.323 220.358 126.281 220.927H120.569C120.625 221.324 120.756 221.678 120.961 221.991C121.167 222.299 121.428 222.544 121.745 222.726C122.067 222.908 122.424 223.001 122.816 223.006C123.236 223.006 123.617 222.899 123.957 222.684C124.298 222.465 124.573 222.166 124.783 221.788L125.98 222.068C125.7 222.689 125.278 223.197 124.713 223.594C124.149 223.986 123.516 224.182 122.816 224.182ZM120.534 220.003H125.098C125.061 219.611 124.935 219.254 124.72 218.932C124.506 218.605 124.233 218.344 123.901 218.148C123.57 217.952 123.208 217.854 122.816 217.854C122.424 217.854 122.065 217.95 121.738 218.141C121.412 218.332 121.141 218.591 120.926 218.918C120.716 219.24 120.586 219.602 120.534 220.003Z" fill="white"></path></svg>