<svg xmlns="http://www.w3.org/2000/svg" width="419" height="224" viewBox="0 0 419 224" fill="none"><g filter="url(#filter0_d_144_10240)"><rect x="6" y="6" width="406.333" height="212" rx="10" fill="#141414"></rect><rect x="6.5" y="6.5" width="405.333" height="211" rx="9.5" stroke="#262626"></rect><path d="M52.048 72.312C51.032 72.312 50.12 72.076 49.312 71.604C48.512 71.132 47.88 70.5 47.416 69.708C46.952 68.916 46.72 68.036 46.72 67.068H49.216C49.216 67.572 49.336 68.032 49.576 68.448C49.816 68.864 50.148 69.196 50.572 69.444C50.996 69.692 51.488 69.816 52.048 69.816C52.552 69.816 53.02 69.692 53.452 69.444C53.884 69.196 54.232 68.864 54.496 68.448C54.76 68.032 54.892 67.572 54.892 67.068C54.892 66.428 54.724 65.892 54.388 65.46C54.052 65.028 53.584 64.708 52.984 64.5C52.392 64.284 51.708 64.176 50.932 64.176V62.208C51.988 62.208 52.832 62 53.464 61.584C54.096 61.168 54.412 60.548 54.412 59.724C54.412 59.292 54.296 58.9 54.064 58.548C53.84 58.188 53.54 57.904 53.164 57.696C52.796 57.48 52.4 57.372 51.976 57.372C51.536 57.372 51.112 57.48 50.704 57.696C50.304 57.904 49.976 58.188 49.72 58.548C49.464 58.9 49.336 59.292 49.336 59.724H46.84C46.84 59.06 46.976 58.436 47.248 57.852C47.528 57.26 47.904 56.744 48.376 56.304C48.856 55.856 49.4 55.508 50.008 55.26C50.624 55.004 51.268 54.876 51.94 54.876C52.82 54.876 53.636 55.096 54.388 55.536C55.148 55.968 55.756 56.552 56.212 57.288C56.676 58.016 56.908 58.828 56.908 59.724C56.908 60.436 56.732 61.112 56.38 61.752C56.036 62.384 55.556 62.832 54.94 63.096C55.476 63.288 55.924 63.592 56.284 64.008C56.652 64.416 56.928 64.888 57.112 65.424C57.296 65.952 57.388 66.5 57.388 67.068C57.388 68.028 57.144 68.908 56.656 69.708C56.168 70.5 55.516 71.132 54.7 71.604C53.892 72.076 53.008 72.312 52.048 72.312ZM63.8292 70.8V66.048H59.0772V63.552H63.8292V58.8H66.3252V63.552H71.0772V66.048H66.3252V70.8H63.8292ZM89.5407 55.2H92.4807L86.7447 64.416V72H84.2487V64.416L78.5247 55.2H81.4647L85.4967 61.692L89.5407 55.2ZM97.6028 72.312C96.4988 72.312 95.4908 72.028 94.5788 71.46C93.6748 70.892 92.9508 70.132 92.4068 69.18C91.8708 68.22 91.6028 67.16 91.6028 66C91.6028 65.12 91.7588 64.3 92.0708 63.54C92.3828 62.772 92.8108 62.1 93.3548 61.524C93.9068 60.94 94.5468 60.484 95.2748 60.156C96.0028 59.828 96.7788 59.664 97.6028 59.664C98.5228 59.664 99.3668 59.856 100.135 60.24C100.903 60.616 101.559 61.14 102.103 61.812C102.647 62.476 103.047 63.244 103.303 64.116C103.559 64.98 103.635 65.9 103.531 66.876H94.2788C94.3828 67.428 94.5828 67.928 94.8788 68.376C95.1828 68.816 95.5668 69.164 96.0308 69.42C96.5028 69.676 97.0268 69.808 97.6028 69.816C98.2108 69.816 98.7628 69.664 99.2588 69.36C99.7628 69.056 100.175 68.636 100.495 68.1L103.027 68.688C102.547 69.752 101.823 70.624 100.855 71.304C99.8868 71.976 98.8028 72.312 97.6028 72.312ZM94.1948 64.968H101.011C100.931 64.392 100.727 63.872 100.399 63.408C100.079 62.936 99.6748 62.564 99.1868 62.292C98.7068 62.012 98.1788 61.872 97.6028 61.872C97.0348 61.872 96.5068 62.008 96.0188 62.28C95.5388 62.552 95.1388 62.924 94.8188 63.396C94.5068 63.86 94.2988 64.384 94.1948 64.968ZM114.831 60H117.327V72H114.819L114.723 70.26C114.371 70.876 113.895 71.372 113.295 71.748C112.695 72.124 111.987 72.312 111.171 72.312C110.291 72.312 109.463 72.148 108.687 71.82C107.911 71.484 107.227 71.02 106.635 70.428C106.051 69.836 105.595 69.156 105.267 68.388C104.939 67.612 104.775 66.78 104.775 65.892C104.775 65.036 104.935 64.232 105.255 63.48C105.575 62.72 106.019 62.056 106.587 61.488C107.155 60.92 107.811 60.476 108.555 60.156C109.307 59.828 110.111 59.664 110.967 59.664C111.839 59.664 112.607 59.864 113.271 60.264C113.943 60.656 114.499 61.16 114.939 61.776L114.831 60ZM111.111 69.9C111.815 69.9 112.431 69.728 112.959 69.384C113.487 69.032 113.895 68.56 114.183 67.968C114.479 67.376 114.627 66.72 114.627 66C114.627 65.272 114.479 64.612 114.183 64.02C113.887 63.428 113.475 62.96 112.947 62.616C112.427 62.264 111.815 62.088 111.111 62.088C110.415 62.088 109.779 62.264 109.203 62.616C108.627 62.968 108.171 63.44 107.835 64.032C107.499 64.624 107.331 65.28 107.331 66C107.331 66.728 107.503 67.388 107.847 67.98C108.199 68.564 108.659 69.032 109.227 69.384C109.803 69.728 110.431 69.9 111.111 69.9ZM119.721 72V60H122.217V61.272C122.633 60.776 123.145 60.384 123.753 60.096C124.361 59.808 125.017 59.664 125.721 59.664C126.169 59.664 126.613 59.724 127.053 59.844L126.057 62.364C125.745 62.244 125.433 62.184 125.121 62.184C124.593 62.184 124.109 62.316 123.669 62.58C123.229 62.836 122.877 63.184 122.613 63.624C122.349 64.064 122.217 64.552 122.217 65.088V72H119.721ZM132.063 72.228C131.431 72.188 130.815 72.06 130.215 71.844C129.615 71.628 129.087 71.336 128.631 70.968C128.183 70.592 127.847 70.152 127.623 69.648L129.747 68.736C129.851 68.952 130.031 69.164 130.287 69.372C130.551 69.58 130.859 69.752 131.211 69.888C131.563 70.016 131.931 70.08 132.315 70.08C132.691 70.08 133.039 70.028 133.359 69.924C133.687 69.812 133.955 69.644 134.163 69.42C134.371 69.196 134.475 68.928 134.475 68.616C134.475 68.264 134.355 67.992 134.115 67.8C133.883 67.6 133.591 67.448 133.239 67.344C132.887 67.24 132.535 67.14 132.183 67.044C131.399 66.868 130.679 66.628 130.023 66.324C129.375 66.012 128.859 65.616 128.475 65.136C128.091 64.648 127.899 64.052 127.899 63.348C127.899 62.58 128.107 61.916 128.523 61.356C128.939 60.788 129.483 60.352 130.155 60.048C130.835 59.744 131.559 59.592 132.327 59.592C133.287 59.592 134.167 59.796 134.967 60.204C135.767 60.612 136.379 61.172 136.803 61.884L134.823 63.06C134.703 62.82 134.523 62.604 134.283 62.412C134.043 62.22 133.771 62.068 133.467 61.956C133.163 61.836 132.847 61.768 132.519 61.752C132.111 61.736 131.731 61.784 131.379 61.896C131.035 62 130.759 62.168 130.551 62.4C130.343 62.632 130.239 62.928 130.239 63.288C130.239 63.64 130.363 63.904 130.611 64.08C130.859 64.248 131.171 64.384 131.547 64.488C131.931 64.592 132.323 64.708 132.723 64.836C133.435 65.06 134.103 65.336 134.727 65.664C135.351 65.984 135.855 66.38 136.239 66.852C136.623 67.324 136.807 67.9 136.791 68.58C136.791 69.332 136.563 69.992 136.107 70.56C135.659 71.128 135.075 71.56 134.355 71.856C133.635 72.152 132.871 72.276 132.063 72.228ZM149.892 72.312C148.788 72.312 147.78 72.028 146.868 71.46C145.964 70.892 145.24 70.132 144.696 69.18C144.16 68.22 143.892 67.16 143.892 66C143.892 65.12 144.048 64.3 144.36 63.54C144.672 62.772 145.1 62.1 145.644 61.524C146.196 60.94 146.836 60.484 147.564 60.156C148.292 59.828 149.068 59.664 149.892 59.664C150.996 59.664 152 59.948 152.904 60.516C153.816 61.084 154.54 61.848 155.076 62.808C155.62 63.768 155.892 64.832 155.892 66C155.892 66.872 155.736 67.688 155.424 68.448C155.112 69.208 154.68 69.88 154.128 70.464C153.584 71.04 152.948 71.492 152.22 71.82C151.5 72.148 150.724 72.312 149.892 72.312ZM149.892 69.816C150.556 69.816 151.152 69.64 151.68 69.288C152.208 68.936 152.624 68.472 152.928 67.896C153.24 67.312 153.396 66.68 153.396 66C153.396 65.304 153.236 64.664 152.916 64.08C152.604 63.496 152.184 63.032 151.656 62.688C151.128 62.336 150.54 62.16 149.892 62.16C149.236 62.16 148.64 62.336 148.104 62.688C147.576 63.04 147.156 63.508 146.844 64.092C146.54 64.676 146.388 65.312 146.388 66C146.388 66.712 146.548 67.356 146.868 67.932C147.188 68.508 147.612 68.968 148.14 69.312C148.676 69.648 149.26 69.816 149.892 69.816ZM161.126 57.276V60H164.51V62.496H161.126V72H158.63V62.496H157.202V60H158.63V57.276C158.63 56.62 158.79 56.024 159.11 55.488C159.43 54.944 159.858 54.512 160.394 54.192C160.938 53.872 161.542 53.712 162.206 53.712C162.686 53.712 163.154 53.808 163.61 54C164.066 54.192 164.474 54.488 164.834 54.888L163.046 56.652C162.958 56.508 162.834 56.4 162.674 56.328C162.522 56.248 162.366 56.208 162.206 56.208C161.91 56.208 161.654 56.312 161.438 56.52C161.23 56.728 161.126 56.98 161.126 57.276ZM172.292 72V55.2H182.72V57.696H174.788V61.752H181.172V64.248H174.788V69.504H182.72V72H172.292ZM184.21 72L188.602 65.976L184.234 59.976H187.318L190.138 63.84L192.97 59.976H196.042L191.686 65.976L196.078 72H192.994L190.138 68.088L187.294 72H184.21ZM205.182 68.592L207.414 69.804C206.87 70.564 206.178 71.172 205.338 71.628C204.506 72.084 203.602 72.312 202.626 72.312C201.522 72.312 200.514 72.028 199.602 71.46C198.698 70.892 197.974 70.132 197.43 69.18C196.894 68.22 196.626 67.16 196.626 66C196.626 65.12 196.782 64.3 197.094 63.54C197.406 62.772 197.834 62.1 198.378 61.524C198.93 60.94 199.57 60.484 200.298 60.156C201.026 59.828 201.802 59.664 202.626 59.664C203.602 59.664 204.506 59.892 205.338 60.348C206.178 60.804 206.87 61.416 207.414 62.184L205.182 63.396C204.846 62.996 204.454 62.692 204.006 62.484C203.558 62.268 203.098 62.16 202.626 62.16C201.97 62.16 201.374 62.34 200.838 62.7C200.31 63.052 199.89 63.52 199.578 64.104C199.274 64.68 199.122 65.312 199.122 66C199.122 66.68 199.278 67.312 199.59 67.896C199.902 68.472 200.322 68.936 200.85 69.288C201.386 69.64 201.978 69.816 202.626 69.816C203.122 69.816 203.594 69.704 204.042 69.48C204.49 69.256 204.87 68.96 205.182 68.592ZM214.579 72.312C213.475 72.312 212.467 72.028 211.555 71.46C210.651 70.892 209.927 70.132 209.383 69.18C208.847 68.22 208.579 67.16 208.579 66C208.579 65.12 208.735 64.3 209.047 63.54C209.359 62.772 209.787 62.1 210.331 61.524C210.883 60.94 211.523 60.484 212.251 60.156C212.979 59.828 213.755 59.664 214.579 59.664C215.499 59.664 216.343 59.856 217.111 60.24C217.879 60.616 218.535 61.14 219.079 61.812C219.623 62.476 220.023 63.244 220.279 64.116C220.535 64.98 220.611 65.9 220.507 66.876H211.255C211.359 67.428 211.559 67.928 211.855 68.376C212.159 68.816 212.543 69.164 213.007 69.42C213.479 69.676 214.003 69.808 214.579 69.816C215.187 69.816 215.739 69.664 216.235 69.36C216.739 69.056 217.151 68.636 217.471 68.1L220.003 68.688C219.523 69.752 218.799 70.624 217.831 71.304C216.863 71.976 215.779 72.312 214.579 72.312ZM211.171 64.968H217.987C217.907 64.392 217.703 63.872 217.375 63.408C217.055 62.936 216.651 62.564 216.163 62.292C215.683 62.012 215.155 61.872 214.579 61.872C214.011 61.872 213.483 62.008 212.995 62.28C212.515 62.552 212.115 62.924 211.795 63.396C211.483 63.86 211.275 64.384 211.171 64.968ZM222.331 72V54H224.827V72H222.331ZM227.698 72V54H230.194V72H227.698ZM238.181 72.312C237.077 72.312 236.069 72.028 235.157 71.46C234.253 70.892 233.529 70.132 232.985 69.18C232.449 68.22 232.181 67.16 232.181 66C232.181 65.12 232.337 64.3 232.649 63.54C232.961 62.772 233.389 62.1 233.933 61.524C234.485 60.94 235.125 60.484 235.853 60.156C236.581 59.828 237.357 59.664 238.181 59.664C239.101 59.664 239.945 59.856 240.713 60.24C241.481 60.616 242.137 61.14 242.681 61.812C243.225 62.476 243.625 63.244 243.881 64.116C244.137 64.98 244.213 65.9 244.109 66.876H234.857C234.961 67.428 235.161 67.928 235.457 68.376C235.761 68.816 236.145 69.164 236.609 69.42C237.081 69.676 237.605 69.808 238.181 69.816C238.789 69.816 239.341 69.664 239.837 69.36C240.341 69.056 240.753 68.636 241.073 68.1L243.605 68.688C243.125 69.752 242.401 70.624 241.433 71.304C240.465 71.976 239.381 72.312 238.181 72.312ZM234.773 64.968H241.589C241.509 64.392 241.305 63.872 240.977 63.408C240.657 62.936 240.253 62.564 239.765 62.292C239.285 62.012 238.757 61.872 238.181 61.872C237.613 61.872 237.085 62.008 236.597 62.28C236.117 62.552 235.717 62.924 235.397 63.396C235.085 63.86 234.877 64.384 234.773 64.968ZM256.896 64.476V72H254.4V65.088C254.4 64.552 254.268 64.064 254.004 63.624C253.748 63.184 253.4 62.836 252.96 62.58C252.528 62.316 252.04 62.184 251.496 62.184C250.968 62.184 250.484 62.316 250.044 62.58C249.604 62.836 249.252 63.184 248.988 63.624C248.724 64.064 248.592 64.552 248.592 65.088V72H246.096V60H248.592V61.272C249.008 60.776 249.52 60.384 250.128 60.096C250.736 59.808 251.392 59.664 252.096 59.664C252.984 59.664 253.792 59.88 254.52 60.312C255.248 60.744 255.824 61.324 256.248 62.052C256.68 62.78 256.896 63.588 256.896 64.476ZM266.893 68.592L269.125 69.804C268.581 70.564 267.889 71.172 267.049 71.628C266.217 72.084 265.313 72.312 264.337 72.312C263.233 72.312 262.225 72.028 261.313 71.46C260.409 70.892 259.685 70.132 259.141 69.18C258.605 68.22 258.337 67.16 258.337 66C258.337 65.12 258.493 64.3 258.805 63.54C259.117 62.772 259.545 62.1 260.089 61.524C260.641 60.94 261.281 60.484 262.009 60.156C262.737 59.828 263.513 59.664 264.337 59.664C265.313 59.664 266.217 59.892 267.049 60.348C267.889 60.804 268.581 61.416 269.125 62.184L266.893 63.396C266.557 62.996 266.165 62.692 265.717 62.484C265.269 62.268 264.809 62.16 264.337 62.16C263.681 62.16 263.085 62.34 262.549 62.7C262.021 63.052 261.601 63.52 261.289 64.104C260.985 64.68 260.833 65.312 260.833 66C260.833 66.68 260.989 67.312 261.301 67.896C261.613 68.472 262.033 68.936 262.561 69.288C263.097 69.64 263.689 69.816 264.337 69.816C264.833 69.816 265.305 69.704 265.753 69.48C266.201 69.256 266.581 68.96 266.893 68.592ZM276.29 72.312C275.186 72.312 274.178 72.028 273.266 71.46C272.362 70.892 271.638 70.132 271.094 69.18C270.558 68.22 270.29 67.16 270.29 66C270.29 65.12 270.446 64.3 270.758 63.54C271.07 62.772 271.498 62.1 272.042 61.524C272.594 60.94 273.234 60.484 273.962 60.156C274.69 59.828 275.466 59.664 276.29 59.664C277.21 59.664 278.054 59.856 278.822 60.24C279.59 60.616 280.246 61.14 280.79 61.812C281.334 62.476 281.734 63.244 281.99 64.116C282.246 64.98 282.322 65.9 282.218 66.876H272.966C273.07 67.428 273.27 67.928 273.566 68.376C273.87 68.816 274.254 69.164 274.718 69.42C275.19 69.676 275.714 69.808 276.29 69.816C276.898 69.816 277.45 69.664 277.946 69.36C278.45 69.056 278.862 68.636 279.182 68.1L281.714 68.688C281.234 69.752 280.51 70.624 279.542 71.304C278.574 71.976 277.49 72.312 276.29 72.312ZM272.882 64.968H279.698C279.618 64.392 279.414 63.872 279.086 63.408C278.766 62.936 278.362 62.564 277.874 62.292C277.394 62.012 276.866 61.872 276.29 61.872C275.722 61.872 275.194 62.008 274.706 62.28C274.226 62.552 273.826 62.924 273.506 63.396C273.194 63.86 272.986 64.384 272.882 64.968Z" fill="white"></path><path d="M49.312 124L46.448 112.8H47.832L50.088 121.64L52.336 112.8H53.544L55.8 121.64L58.048 112.8H59.432L56.584 124H55.016L52.944 115.888L50.872 124H49.312ZM60.2725 116H61.6165V124H60.2725V116ZM60.9605 114.696C60.7472 114.696 60.5685 114.627 60.4245 114.488C60.2805 114.349 60.2085 114.176 60.2085 113.968C60.2085 113.76 60.2805 113.587 60.4245 113.448C60.5685 113.309 60.7445 113.24 60.9525 113.24C61.1605 113.24 61.3365 113.309 61.4805 113.448C61.6245 113.587 61.6965 113.76 61.6965 113.968C61.6965 114.176 61.6245 114.349 61.4805 114.488C61.3418 114.627 61.1685 114.696 60.9605 114.696ZM67.6821 117.344H65.8661L65.8581 124H64.5141L64.5221 117.344H63.1461V116H64.5221L64.5141 113.488H65.8581L65.8661 116H67.6821V117.344ZM76.1883 119.024V124H74.8443V119.32C74.8443 118.915 74.7456 118.547 74.5483 118.216C74.3509 117.885 74.0869 117.624 73.7563 117.432C73.4256 117.235 73.0576 117.136 72.6523 117.136C72.2523 117.136 71.8843 117.235 71.5483 117.432C71.2176 117.624 70.9536 117.885 70.7563 118.216C70.5589 118.547 70.4603 118.915 70.4603 119.32V124H69.1163V112H70.4603V117C70.7429 116.627 71.1003 116.331 71.5323 116.112C71.9643 115.888 72.4336 115.776 72.9403 115.776C73.5376 115.776 74.0816 115.923 74.5723 116.216C75.0683 116.504 75.4603 116.893 75.7483 117.384C76.0416 117.875 76.1883 118.421 76.1883 119.024ZM85.1519 124.208C84.4159 124.208 83.7439 124.019 83.1359 123.64C82.5332 123.261 82.0505 122.755 81.6879 122.12C81.3305 121.48 81.1519 120.773 81.1519 120C81.1519 119.413 81.2559 118.867 81.4639 118.36C81.6719 117.848 81.9572 117.4 82.3199 117.016C82.6879 116.627 83.1145 116.323 83.5999 116.104C84.0852 115.885 84.6025 115.776 85.1519 115.776C85.8879 115.776 86.5572 115.965 87.1599 116.344C87.7679 116.723 88.2505 117.232 88.6079 117.872C88.9705 118.512 89.1519 119.221 89.1519 120C89.1519 120.581 89.0479 121.125 88.8399 121.632C88.6319 122.139 88.3439 122.587 87.9759 122.976C87.6132 123.36 87.1892 123.661 86.7039 123.88C86.2239 124.099 85.7065 124.208 85.1519 124.208ZM85.1519 122.864C85.6532 122.864 86.1039 122.733 86.5039 122.472C86.9092 122.205 87.2265 121.856 87.4559 121.424C87.6905 120.987 87.8079 120.512 87.8079 120C87.8079 119.477 87.6879 118.997 87.4479 118.56C87.2132 118.123 86.8959 117.773 86.4959 117.512C86.0959 117.251 85.6479 117.12 85.1519 117.12C84.6505 117.12 84.1999 117.253 83.7999 117.52C83.3999 117.781 83.0825 118.131 82.8479 118.568C82.6132 119.005 82.4959 119.483 82.4959 120C82.4959 120.533 82.6159 121.019 82.8559 121.456C83.0959 121.888 83.4185 122.232 83.8239 122.488C84.2292 122.739 84.6719 122.864 85.1519 122.864ZM94.2763 124H92.5563L89.6363 115.984H91.0683L93.4123 122.44L95.7563 115.984H97.1883L94.2763 124ZM101.683 124.208C100.947 124.208 100.275 124.019 99.6671 123.64C99.0645 123.261 98.5818 122.755 98.2191 122.12C97.8618 121.48 97.6831 120.773 97.6831 120C97.6831 119.413 97.7871 118.867 97.9951 118.36C98.2031 117.848 98.4885 117.4 98.8511 117.016C99.2191 116.627 99.6458 116.323 100.131 116.104C100.616 115.885 101.134 115.776 101.683 115.776C102.286 115.776 102.838 115.899 103.339 116.144C103.846 116.384 104.278 116.72 104.635 117.152C104.998 117.584 105.267 118.085 105.443 118.656C105.624 119.227 105.691 119.837 105.643 120.488H99.1151C99.1791 120.941 99.3285 121.347 99.5631 121.704C99.7978 122.056 100.096 122.336 100.459 122.544C100.827 122.752 101.235 122.859 101.683 122.864C102.163 122.864 102.598 122.741 102.987 122.496C103.376 122.245 103.691 121.904 103.931 121.472L105.299 121.792C104.979 122.501 104.496 123.083 103.851 123.536C103.206 123.984 102.483 124.208 101.683 124.208ZM99.0751 119.432H104.291C104.248 118.984 104.104 118.576 103.859 118.208C103.614 117.835 103.302 117.536 102.923 117.312C102.544 117.088 102.131 116.976 101.683 116.976C101.235 116.976 100.824 117.085 100.451 117.304C100.078 117.523 99.7685 117.819 99.5231 118.192C99.2831 118.56 99.1338 118.973 99.0751 119.432ZM106.991 124V116H108.335V117C108.618 116.627 108.975 116.331 109.407 116.112C109.839 115.888 110.309 115.776 110.815 115.776C111.125 115.776 111.423 115.816 111.711 115.896L111.167 117.24C110.949 117.171 110.735 117.136 110.527 117.136C110.127 117.136 109.759 117.235 109.423 117.432C109.093 117.624 108.829 117.885 108.631 118.216C108.434 118.547 108.335 118.915 108.335 119.32V124H106.991ZM119.687 124.208C119.009 124.208 118.407 124.056 117.879 123.752C117.356 123.443 116.945 123.032 116.647 122.52C116.348 122.003 116.199 121.429 116.199 120.8H117.543C117.543 121.179 117.631 121.525 117.807 121.84C117.983 122.149 118.231 122.397 118.551 122.584C118.871 122.771 119.249 122.864 119.687 122.864C120.065 122.864 120.417 122.771 120.743 122.584C121.073 122.397 121.34 122.149 121.543 121.84C121.745 121.525 121.847 121.179 121.847 120.8C121.847 120.325 121.724 119.931 121.479 119.616C121.239 119.296 120.903 119.059 120.471 118.904C120.044 118.744 119.556 118.664 119.007 118.664V117.584C119.764 117.584 120.369 117.427 120.823 117.112C121.281 116.797 121.511 116.333 121.511 115.72C121.511 115.395 121.423 115.096 121.247 114.824C121.071 114.552 120.839 114.336 120.551 114.176C120.268 114.011 119.964 113.928 119.639 113.928C119.308 113.928 118.991 114.011 118.687 114.176C118.383 114.336 118.135 114.552 117.943 114.824C117.751 115.096 117.655 115.395 117.655 115.72H116.311C116.311 115.288 116.399 114.883 116.575 114.504C116.756 114.125 117.001 113.792 117.311 113.504C117.625 113.216 117.98 112.992 118.375 112.832C118.769 112.667 119.185 112.584 119.623 112.584C120.193 112.584 120.724 112.725 121.215 113.008C121.705 113.291 122.1 113.669 122.399 114.144C122.703 114.619 122.855 115.144 122.855 115.72C122.855 116.237 122.724 116.715 122.463 117.152C122.201 117.589 121.847 117.896 121.399 118.072C121.788 118.205 122.116 118.413 122.383 118.696C122.649 118.973 122.849 119.293 122.983 119.656C123.121 120.019 123.191 120.4 123.191 120.8C123.191 121.424 123.028 121.995 122.703 122.512C122.383 123.029 121.956 123.443 121.423 123.752C120.895 124.056 120.316 124.208 119.687 124.208ZM133.956 116H135.38L131.004 128H129.58L131.028 124L128.156 116H129.628L131.7 122.152L133.956 116ZM139.933 124.208C139.197 124.208 138.525 124.019 137.917 123.64C137.314 123.261 136.832 122.755 136.469 122.12C136.112 121.48 135.933 120.773 135.933 120C135.933 119.413 136.037 118.867 136.245 118.36C136.453 117.848 136.738 117.4 137.101 117.016C137.469 116.627 137.896 116.323 138.381 116.104C138.866 115.885 139.384 115.776 139.933 115.776C140.536 115.776 141.088 115.899 141.589 116.144C142.096 116.384 142.528 116.72 142.885 117.152C143.248 117.584 143.517 118.085 143.693 118.656C143.874 119.227 143.941 119.837 143.893 120.488H137.365C137.429 120.941 137.578 121.347 137.813 121.704C138.048 122.056 138.346 122.336 138.709 122.544C139.077 122.752 139.485 122.859 139.933 122.864C140.413 122.864 140.848 122.741 141.237 122.496C141.626 122.245 141.941 121.904 142.181 121.472L143.549 121.792C143.229 122.501 142.746 123.083 142.101 123.536C141.456 123.984 140.733 124.208 139.933 124.208ZM137.325 119.432H142.541C142.498 118.984 142.354 118.576 142.109 118.208C141.864 117.835 141.552 117.536 141.173 117.312C140.794 117.088 140.381 116.976 139.933 116.976C139.485 116.976 139.074 117.085 138.701 117.304C138.328 117.523 138.018 117.819 137.773 118.192C137.533 118.56 137.384 118.973 137.325 119.432ZM151.626 116H152.97V124H151.626L151.57 122.648C151.32 123.112 150.973 123.488 150.53 123.776C150.093 124.064 149.57 124.208 148.962 124.208C148.376 124.208 147.826 124.099 147.314 123.88C146.802 123.656 146.349 123.349 145.954 122.96C145.565 122.565 145.261 122.112 145.042 121.6C144.824 121.088 144.714 120.536 144.714 119.944C144.714 119.373 144.821 118.835 145.034 118.328C145.248 117.821 145.544 117.379 145.922 117C146.306 116.616 146.749 116.317 147.25 116.104C147.752 115.885 148.29 115.776 148.866 115.776C149.496 115.776 150.048 115.925 150.522 116.224C150.997 116.517 151.381 116.899 151.674 117.368L151.626 116ZM148.938 122.904C149.466 122.904 149.922 122.776 150.306 122.52C150.696 122.259 150.994 121.907 151.202 121.464C151.416 121.021 151.522 120.533 151.522 120C151.522 119.456 151.416 118.965 151.202 118.528C150.989 118.085 150.688 117.736 150.298 117.48C149.914 117.219 149.461 117.088 148.938 117.088C148.41 117.088 147.93 117.219 147.498 117.48C147.066 117.741 146.722 118.093 146.466 118.536C146.216 118.973 146.09 119.461 146.09 120C146.09 120.539 146.221 121.029 146.482 121.472C146.744 121.909 147.09 122.259 147.522 122.52C147.954 122.776 148.426 122.904 148.938 122.904ZM154.569 124V116H155.913V117C156.196 116.627 156.553 116.331 156.985 116.112C157.417 115.888 157.887 115.776 158.393 115.776C158.703 115.776 159.001 115.816 159.289 115.896L158.745 117.24C158.527 117.171 158.313 117.136 158.105 117.136C157.705 117.136 157.337 117.235 157.001 117.432C156.671 117.624 156.407 117.885 156.209 118.216C156.012 118.547 155.913 118.915 155.913 119.32V124H154.569ZM162.713 124.152C162.281 124.136 161.859 124.056 161.449 123.912C161.043 123.763 160.686 123.563 160.377 123.312C160.073 123.056 159.851 122.763 159.713 122.432L160.865 121.936C160.945 122.117 161.089 122.288 161.297 122.448C161.505 122.608 161.745 122.736 162.017 122.832C162.289 122.928 162.563 122.976 162.841 122.976C163.134 122.976 163.409 122.931 163.665 122.84C163.921 122.749 164.129 122.616 164.289 122.44C164.454 122.259 164.537 122.043 164.537 121.792C164.537 121.525 164.446 121.317 164.265 121.168C164.089 121.013 163.865 120.893 163.593 120.808C163.326 120.717 163.054 120.632 162.777 120.552C162.227 120.413 161.737 120.248 161.305 120.056C160.873 119.859 160.531 119.611 160.281 119.312C160.035 119.008 159.913 118.621 159.913 118.152C159.913 117.656 160.049 117.227 160.321 116.864C160.598 116.501 160.961 116.221 161.409 116.024C161.857 115.827 162.337 115.728 162.849 115.728C163.494 115.728 164.083 115.867 164.617 116.144C165.15 116.421 165.547 116.797 165.809 117.272L164.729 117.904C164.638 117.712 164.499 117.544 164.312 117.4C164.126 117.251 163.913 117.133 163.673 117.048C163.433 116.963 163.187 116.917 162.937 116.912C162.627 116.901 162.337 116.941 162.065 117.032C161.798 117.123 161.582 117.261 161.417 117.448C161.257 117.629 161.177 117.856 161.177 118.128C161.177 118.395 161.262 118.597 161.433 118.736C161.609 118.875 161.835 118.987 162.113 119.072C162.395 119.152 162.702 119.245 163.033 119.352C163.518 119.507 163.971 119.685 164.393 119.888C164.814 120.091 165.153 120.344 165.409 120.648C165.67 120.952 165.798 121.328 165.793 121.776C165.793 122.267 165.646 122.696 165.353 123.064C165.059 123.427 164.678 123.704 164.209 123.896C163.745 124.088 163.246 124.173 162.713 124.152ZM171.007 116H172.351V124H171.007V116ZM171.695 114.696C171.482 114.696 171.303 114.627 171.159 114.488C171.015 114.349 170.943 114.176 170.943 113.968C170.943 113.76 171.015 113.587 171.159 113.448C171.303 113.309 171.479 113.24 171.687 113.24C171.895 113.24 172.071 113.309 172.215 113.448C172.359 113.587 172.431 113.76 172.431 113.968C172.431 114.176 172.359 114.349 172.215 114.488C172.076 114.627 171.903 114.696 171.695 114.696ZM181.313 119.024V124H179.969V119.32C179.969 118.915 179.871 118.547 179.673 118.216C179.476 117.885 179.212 117.624 178.881 117.432C178.551 117.235 178.183 117.136 177.777 117.136C177.377 117.136 177.009 117.235 176.673 117.432C176.343 117.624 176.079 117.885 175.881 118.216C175.684 118.547 175.585 118.915 175.585 119.32V124H174.241V116H175.585V117C175.868 116.627 176.225 116.331 176.657 116.112C177.089 115.888 177.559 115.776 178.065 115.776C178.663 115.776 179.207 115.923 179.697 116.216C180.193 116.504 180.585 116.893 180.873 117.384C181.167 117.875 181.313 118.421 181.313 119.024ZM190.901 117.344H189.085L189.077 124H187.733L187.741 117.344H186.365V116H187.741L187.733 113.488H189.077L189.085 116H190.901V117.344ZM199.407 119.024V124H198.063V119.32C198.063 118.915 197.964 118.547 197.767 118.216C197.57 117.885 197.306 117.624 196.975 117.432C196.644 117.235 196.276 117.136 195.871 117.136C195.471 117.136 195.103 117.235 194.767 117.432C194.436 117.624 194.172 117.885 193.975 118.216C193.778 118.547 193.679 118.915 193.679 119.32V124H192.335V112H193.679V117C193.962 116.627 194.319 116.331 194.751 116.112C195.183 115.888 195.652 115.776 196.159 115.776C196.756 115.776 197.3 115.923 197.791 116.216C198.287 116.504 198.679 116.893 198.967 117.384C199.26 117.875 199.407 118.421 199.407 119.024ZM204.371 124.208C203.635 124.208 202.963 124.019 202.355 123.64C201.752 123.261 201.269 122.755 200.907 122.12C200.549 121.48 200.371 120.773 200.371 120C200.371 119.413 200.475 118.867 200.683 118.36C200.891 117.848 201.176 117.4 201.539 117.016C201.907 116.627 202.333 116.323 202.819 116.104C203.304 115.885 203.821 115.776 204.371 115.776C204.973 115.776 205.525 115.899 206.027 116.144C206.533 116.384 206.965 116.72 207.323 117.152C207.685 117.584 207.955 118.085 208.131 118.656C208.312 119.227 208.379 119.837 208.331 120.488H201.803C201.867 120.941 202.016 121.347 202.251 121.704C202.485 122.056 202.784 122.336 203.147 122.544C203.515 122.752 203.923 122.859 204.371 122.864C204.851 122.864 205.285 122.741 205.675 122.496C206.064 122.245 206.379 121.904 206.619 121.472L207.987 121.792C207.667 122.501 207.184 123.083 206.539 123.536C205.893 123.984 205.171 124.208 204.371 124.208ZM201.763 119.432H206.979C206.936 118.984 206.792 118.576 206.547 118.208C206.301 117.835 205.989 117.536 205.611 117.312C205.232 117.088 204.819 116.976 204.371 116.976C203.923 116.976 203.512 117.085 203.139 117.304C202.765 117.523 202.456 117.819 202.211 118.192C201.971 118.56 201.821 118.973 201.763 119.432ZM213.632 116H214.976V124H213.632V116ZM214.32 114.696C214.107 114.696 213.928 114.627 213.784 114.488C213.64 114.349 213.568 114.176 213.568 113.968C213.568 113.76 213.64 113.587 213.784 113.448C213.928 113.309 214.104 113.24 214.312 113.24C214.52 113.24 214.696 113.309 214.84 113.448C214.984 113.587 215.056 113.76 215.056 113.968C215.056 114.176 214.984 114.349 214.84 114.488C214.701 114.627 214.528 114.696 214.32 114.696ZM223.938 119.024V124H222.594V119.32C222.594 118.915 222.496 118.547 222.298 118.216C222.101 117.885 221.837 117.624 221.506 117.432C221.176 117.235 220.808 117.136 220.402 117.136C220.002 117.136 219.634 117.235 219.298 117.432C218.968 117.624 218.704 117.885 218.506 118.216C218.309 118.547 218.21 118.915 218.21 119.32V124H216.866V116H218.21V117C218.493 116.627 218.85 116.331 219.282 116.112C219.714 115.888 220.184 115.776 220.69 115.776C221.288 115.776 221.832 115.923 222.322 116.216C222.818 116.504 223.21 116.893 223.498 117.384C223.792 117.875 223.938 118.421 223.938 119.024ZM231.822 112H233.166V124H231.822V122.64C231.55 123.109 231.185 123.488 230.726 123.776C230.267 124.064 229.729 124.208 229.11 124.208C228.529 124.208 227.985 124.099 227.478 123.88C226.971 123.661 226.523 123.36 226.134 122.976C225.75 122.587 225.449 122.139 225.23 121.632C225.011 121.125 224.902 120.581 224.902 120C224.902 119.419 225.011 118.875 225.23 118.368C225.449 117.856 225.75 117.408 226.134 117.024C226.523 116.635 226.971 116.331 227.478 116.112C227.985 115.893 228.529 115.784 229.11 115.784C229.729 115.784 230.267 115.928 230.726 116.216C231.185 116.504 231.55 116.883 231.822 117.352V112ZM229.126 122.904C229.654 122.904 230.11 122.776 230.494 122.52C230.883 122.259 231.182 121.907 231.39 121.464C231.603 121.021 231.71 120.533 231.71 120C231.71 119.456 231.603 118.965 231.39 118.528C231.177 118.085 230.875 117.736 230.486 117.48C230.102 117.219 229.649 117.088 229.126 117.088C228.598 117.088 228.118 117.219 227.686 117.48C227.259 117.741 226.918 118.093 226.662 118.536C226.406 118.973 226.278 119.461 226.278 120C226.278 120.539 226.409 121.029 226.67 121.472C226.931 121.909 227.278 122.259 227.71 122.52C228.142 122.776 228.614 122.904 229.126 122.904ZM234.765 120.96V116H236.109V120.664C236.109 121.069 236.208 121.437 236.405 121.768C236.602 122.099 236.866 122.363 237.197 122.56C237.533 122.752 237.901 122.848 238.301 122.848C238.706 122.848 239.072 122.752 239.397 122.56C239.728 122.363 239.992 122.099 240.189 121.768C240.386 121.437 240.485 121.069 240.485 120.664V116H241.829L241.837 124H240.493L240.485 122.984C240.202 123.357 239.845 123.656 239.413 123.88C238.981 124.099 238.514 124.208 238.013 124.208C237.416 124.208 236.869 124.064 236.373 123.776C235.882 123.483 235.49 123.091 235.197 122.6C234.909 122.109 234.765 121.563 234.765 120.96ZM245.884 124.152C245.452 124.136 245.031 124.056 244.62 123.912C244.215 123.763 243.858 123.563 243.548 123.312C243.244 123.056 243.023 122.763 242.884 122.432L244.036 121.936C244.116 122.117 244.26 122.288 244.468 122.448C244.676 122.608 244.916 122.736 245.188 122.832C245.46 122.928 245.735 122.976 246.012 122.976C246.306 122.976 246.58 122.931 246.836 122.84C247.092 122.749 247.3 122.616 247.46 122.44C247.626 122.259 247.708 122.043 247.708 121.792C247.708 121.525 247.618 121.317 247.436 121.168C247.26 121.013 247.036 120.893 246.764 120.808C246.498 120.717 246.226 120.632 245.948 120.552C245.399 120.413 244.908 120.248 244.476 120.056C244.044 119.859 243.703 119.611 243.452 119.312C243.207 119.008 243.084 118.621 243.084 118.152C243.084 117.656 243.22 117.227 243.492 116.864C243.77 116.501 244.132 116.221 244.58 116.024C245.028 115.827 245.508 115.728 246.02 115.728C246.666 115.728 247.255 115.867 247.788 116.144C248.322 116.421 248.719 116.797 248.98 117.272L247.9 117.904C247.81 117.712 247.671 117.544 247.484 117.4C247.298 117.251 247.084 117.133 246.844 117.048C246.604 116.963 246.359 116.917 246.108 116.912C245.799 116.901 245.508 116.941 245.236 117.032C244.97 117.123 244.754 117.261 244.588 117.448C244.428 117.629 244.348 117.856 244.348 118.128C244.348 118.395 244.434 118.597 244.604 118.736C244.78 118.875 245.007 118.987 245.284 119.072C245.567 119.152 245.874 119.245 246.204 119.352C246.69 119.507 247.143 119.685 247.564 119.888C247.986 120.091 248.324 120.344 248.58 120.648C248.842 120.952 248.97 121.328 248.964 121.776C248.964 122.267 248.818 122.696 248.524 123.064C248.231 123.427 247.85 123.704 247.38 123.896C246.916 124.088 246.418 124.173 245.884 124.152ZM254.479 117.344H252.663L252.655 124H251.311L251.319 117.344H249.943V116H251.319L251.311 113.488H252.655L252.663 116H254.479V117.344ZM255.913 124V116H257.257V117C257.54 116.627 257.897 116.331 258.329 116.112C258.761 115.888 259.23 115.776 259.737 115.776C260.046 115.776 260.345 115.816 260.633 115.896L260.089 117.24C259.87 117.171 259.657 117.136 259.449 117.136C259.049 117.136 258.681 117.235 258.345 117.432C258.014 117.624 257.75 117.885 257.553 118.216C257.356 118.547 257.257 118.915 257.257 119.32V124H255.913ZM267.096 116H268.52L264.144 128H262.72L264.168 124L261.296 116H262.768L264.84 122.152L267.096 116ZM269.218 124.896L269.714 122.192H271.058L270.114 124.896H269.218ZM280.379 124H279.019L276.339 116H277.651L279.715 122.104L281.755 116H283.139L285.187 122.104L287.227 116H288.555L285.875 124H284.507L282.435 117.84L280.379 124ZM293.043 124.208C292.307 124.208 291.635 124.019 291.027 123.64C290.424 123.261 289.941 122.755 289.579 122.12C289.221 121.48 289.043 120.773 289.043 120C289.043 119.413 289.147 118.867 289.355 118.36C289.563 117.848 289.848 117.4 290.211 117.016C290.579 116.627 291.005 116.323 291.491 116.104C291.976 115.885 292.493 115.776 293.043 115.776C293.645 115.776 294.197 115.899 294.699 116.144C295.205 116.384 295.637 116.72 295.995 117.152C296.357 117.584 296.627 118.085 296.803 118.656C296.984 119.227 297.051 119.837 297.003 120.488H290.475C290.539 120.941 290.688 121.347 290.923 121.704C291.157 122.056 291.456 122.336 291.819 122.544C292.187 122.752 292.595 122.859 293.043 122.864C293.523 122.864 293.957 122.741 294.347 122.496C294.736 122.245 295.051 121.904 295.291 121.472L296.659 121.792C296.339 122.501 295.856 123.083 295.211 123.536C294.565 123.984 293.843 124.208 293.043 124.208ZM290.435 119.432H295.651C295.608 118.984 295.464 118.576 295.219 118.208C294.973 117.835 294.661 117.536 294.283 117.312C293.904 117.088 293.491 116.976 293.043 116.976C292.595 116.976 292.184 117.085 291.811 117.304C291.437 117.523 291.128 117.819 290.883 118.192C290.643 118.56 290.493 118.973 290.435 119.432ZM298.068 116.976V112.8H299.052V116.976H298.068ZM304.745 124H303.025L300.105 115.984H301.537L303.881 122.44L306.225 115.984H307.657L304.745 124ZM312.152 124.208C311.416 124.208 310.744 124.019 310.136 123.64C309.533 123.261 309.051 122.755 308.688 122.12C308.331 121.48 308.152 120.773 308.152 120C308.152 119.413 308.256 118.867 308.464 118.36C308.672 117.848 308.957 117.4 309.32 117.016C309.688 116.627 310.115 116.323 310.6 116.104C311.085 115.885 311.603 115.776 312.152 115.776C312.755 115.776 313.307 115.899 313.808 116.144C314.315 116.384 314.747 116.72 315.104 117.152C315.467 117.584 315.736 118.085 315.912 118.656C316.093 119.227 316.16 119.837 316.112 120.488H309.584C309.648 120.941 309.797 121.347 310.032 121.704C310.267 122.056 310.565 122.336 310.928 122.544C311.296 122.752 311.704 122.859 312.152 122.864C312.632 122.864 313.067 122.741 313.456 122.496C313.845 122.245 314.16 121.904 314.4 121.472L315.768 121.792C315.448 122.501 314.965 123.083 314.32 123.536C313.675 123.984 312.952 124.208 312.152 124.208ZM309.544 119.432H314.76C314.717 118.984 314.573 118.576 314.328 118.208C314.083 117.835 313.771 117.536 313.392 117.312C313.013 117.088 312.6 116.976 312.152 116.976C311.704 116.976 311.293 117.085 310.92 117.304C310.547 117.523 310.237 117.819 309.992 118.192C309.752 118.56 309.603 118.973 309.544 119.432ZM53.392 140H54.736V148H53.392L53.336 146.648C53.0853 147.112 52.7387 147.488 52.296 147.776C51.8587 148.064 51.336 148.208 50.728 148.208C50.1413 148.208 49.592 148.099 49.08 147.88C48.568 147.656 48.1147 147.349 47.72 146.96C47.3307 146.565 47.0267 146.112 46.808 145.6C46.5893 145.088 46.48 144.536 46.48 143.944C46.48 143.373 46.5867 142.835 46.8 142.328C47.0133 141.821 47.3093 141.379 47.688 141C48.072 140.616 48.5147 140.317 49.016 140.104C49.5173 139.885 50.056 139.776 50.632 139.776C51.2613 139.776 51.8133 139.925 52.288 140.224C52.7627 140.517 53.1467 140.899 53.44 141.368L53.392 140ZM50.704 146.904C51.232 146.904 51.688 146.776 52.072 146.52C52.4613 146.259 52.76 145.907 52.968 145.464C53.1813 145.021 53.288 144.533 53.288 144C53.288 143.456 53.1813 142.965 52.968 142.528C52.7547 142.085 52.4533 141.736 52.064 141.48C51.68 141.219 51.2267 141.088 50.704 141.088C50.176 141.088 49.696 141.219 49.264 141.48C48.832 141.741 48.488 142.093 48.232 142.536C47.9813 142.973 47.856 143.461 47.856 144C47.856 144.539 47.9867 145.029 48.248 145.472C48.5093 145.909 48.856 146.259 49.288 146.52C49.72 146.776 50.192 146.904 50.704 146.904ZM56.335 148V140H57.679V141C57.9617 140.627 58.3163 140.331 58.743 140.112C59.175 139.888 59.6443 139.776 60.151 139.776C60.743 139.776 61.2843 139.92 61.775 140.208C62.2657 140.496 62.6523 140.877 62.935 141.352C63.2177 140.877 63.6017 140.496 64.087 140.208C64.5777 139.92 65.1163 139.776 65.703 139.776C66.3057 139.776 66.8523 139.923 67.343 140.216C67.8337 140.504 68.223 140.893 68.511 141.384C68.8043 141.875 68.951 142.421 68.951 143.024V148H67.607V143.344C67.607 142.949 67.511 142.584 67.319 142.248C67.127 141.912 66.8683 141.643 66.543 141.44C66.2177 141.237 65.8577 141.136 65.463 141.136C65.0683 141.136 64.7083 141.232 64.383 141.424C64.0577 141.611 63.799 141.872 63.607 142.208C63.415 142.539 63.319 142.917 63.319 143.344V148H61.975V143.344C61.975 142.917 61.879 142.539 61.687 142.208C61.495 141.872 61.2337 141.611 60.903 141.424C60.5777 141.232 60.2177 141.136 59.823 141.136C59.4337 141.136 59.0737 141.237 58.743 141.44C58.4177 141.643 58.159 141.912 57.967 142.248C57.775 142.584 57.679 142.949 57.679 143.344V148H56.335ZM76.8295 140H78.1735V148H76.8295L76.7735 146.648C76.5228 147.112 76.1762 147.488 75.7335 147.776C75.2962 148.064 74.7735 148.208 74.1655 148.208C73.5788 148.208 73.0295 148.099 72.5175 147.88C72.0055 147.656 71.5522 147.349 71.1575 146.96C70.7682 146.565 70.4642 146.112 70.2455 145.6C70.0268 145.088 69.9175 144.536 69.9175 143.944C69.9175 143.373 70.0242 142.835 70.2375 142.328C70.4508 141.821 70.7468 141.379 71.1255 141C71.5095 140.616 71.9522 140.317 72.4535 140.104C72.9548 139.885 73.4935 139.776 74.0695 139.776C74.6988 139.776 75.2508 139.925 75.7255 140.224C76.2002 140.517 76.5842 140.899 76.8775 141.368L76.8295 140ZM74.1415 146.904C74.6695 146.904 75.1255 146.776 75.5095 146.52C75.8988 146.259 76.1975 145.907 76.4055 145.464C76.6188 145.021 76.7255 144.533 76.7255 144C76.7255 143.456 76.6188 142.965 76.4055 142.528C76.1922 142.085 75.8908 141.736 75.5015 141.48C75.1175 141.219 74.6642 141.088 74.1415 141.088C73.6135 141.088 73.1335 141.219 72.7015 141.48C72.2695 141.741 71.9255 142.093 71.6695 142.536C71.4188 142.973 71.2935 143.461 71.2935 144C71.2935 144.539 71.4242 145.029 71.6855 145.472C71.9468 145.909 72.2935 146.259 72.7255 146.52C73.1575 146.776 73.6295 146.904 74.1415 146.904ZM82.2125 148.152C81.7805 148.136 81.3592 148.056 80.9485 147.912C80.5432 147.763 80.1858 147.563 79.8765 147.312C79.5725 147.056 79.3512 146.763 79.2125 146.432L80.3645 145.936C80.4445 146.117 80.5885 146.288 80.7965 146.448C81.0045 146.608 81.2445 146.736 81.5165 146.832C81.7885 146.928 82.0632 146.976 82.3405 146.976C82.6338 146.976 82.9085 146.931 83.1645 146.84C83.4205 146.749 83.6285 146.616 83.7885 146.44C83.9538 146.259 84.0365 146.043 84.0365 145.792C84.0365 145.525 83.9458 145.317 83.7645 145.168C83.5885 145.013 83.3645 144.893 83.0925 144.808C82.8258 144.717 82.5538 144.632 82.2765 144.552C81.7272 144.413 81.2365 144.248 80.8045 144.056C80.3725 143.859 80.0312 143.611 79.7805 143.312C79.5352 143.008 79.4125 142.621 79.4125 142.152C79.4125 141.656 79.5485 141.227 79.8205 140.864C80.0978 140.501 80.4605 140.221 80.9085 140.024C81.3565 139.827 81.8365 139.728 82.3485 139.728C82.9938 139.728 83.5832 139.867 84.1165 140.144C84.6498 140.421 85.0472 140.797 85.3085 141.272L84.2285 141.904C84.1378 141.712 83.9992 141.544 83.8125 141.4C83.6258 141.251 83.4125 141.133 83.1725 141.048C82.9325 140.963 82.6872 140.917 82.4365 140.912C82.1272 140.901 81.8365 140.941 81.5645 141.032C81.2978 141.123 81.0818 141.261 80.9165 141.448C80.7565 141.629 80.6765 141.856 80.6765 142.128C80.6765 142.395 80.7618 142.597 80.9325 142.736C81.1085 142.875 81.3352 142.987 81.6125 143.072C81.8952 143.152 82.2018 143.245 82.5325 143.352C83.0178 143.507 83.4712 143.685 83.8925 143.888C84.3138 144.091 84.6525 144.344 84.9085 144.648C85.1698 144.952 85.2978 145.328 85.2925 145.776C85.2925 146.267 85.1458 146.696 84.8525 147.064C84.5592 147.427 84.1778 147.704 83.7085 147.896C83.2445 148.088 82.7458 148.173 82.2125 148.152ZM89.1031 148.152C88.6711 148.136 88.2498 148.056 87.8391 147.912C87.4338 147.763 87.0765 147.563 86.7671 147.312C86.4631 147.056 86.2418 146.763 86.1031 146.432L87.2551 145.936C87.3351 146.117 87.4791 146.288 87.6871 146.448C87.8951 146.608 88.1351 146.736 88.4071 146.832C88.6791 146.928 88.9538 146.976 89.2311 146.976C89.5245 146.976 89.7991 146.931 90.0551 146.84C90.3111 146.749 90.5191 146.616 90.6791 146.44C90.8445 146.259 90.9271 146.043 90.9271 145.792C90.9271 145.525 90.8365 145.317 90.6551 145.168C90.4791 145.013 90.2551 144.893 89.9831 144.808C89.7165 144.717 89.4445 144.632 89.1671 144.552C88.6178 144.413 88.1271 144.248 87.6951 144.056C87.2631 143.859 86.9218 143.611 86.6711 143.312C86.4258 143.008 86.3031 142.621 86.3031 142.152C86.3031 141.656 86.4391 141.227 86.7111 140.864C86.9885 140.501 87.3511 140.221 87.7991 140.024C88.2471 139.827 88.7271 139.728 89.2391 139.728C89.8845 139.728 90.4738 139.867 91.0071 140.144C91.5405 140.421 91.9378 140.797 92.1991 141.272L91.1191 141.904C91.0285 141.712 90.8898 141.544 90.7031 141.4C90.5165 141.251 90.3031 141.133 90.0631 141.048C89.8231 140.963 89.5778 140.917 89.3271 140.912C89.0178 140.901 88.7271 140.941 88.4551 141.032C88.1885 141.123 87.9725 141.261 87.8071 141.448C87.6471 141.629 87.5671 141.856 87.5671 142.128C87.5671 142.395 87.6525 142.597 87.8231 142.736C87.9991 142.875 88.2258 142.987 88.5031 143.072C88.7858 143.152 89.0925 143.245 89.4231 143.352C89.9085 143.507 90.3618 143.685 90.7831 143.888C91.2045 144.091 91.5431 144.344 91.7991 144.648C92.0605 144.952 92.1885 145.328 92.1831 145.776C92.1831 146.267 92.0365 146.696 91.7431 147.064C91.4498 147.427 91.0685 147.704 90.5991 147.896C90.1351 148.088 89.6365 148.173 89.1031 148.152ZM96.9956 148.208C96.2596 148.208 95.5876 148.019 94.9796 147.64C94.377 147.261 93.8943 146.755 93.5316 146.12C93.1743 145.48 92.9956 144.773 92.9956 144C92.9956 143.413 93.0996 142.867 93.3076 142.36C93.5156 141.848 93.801 141.4 94.1636 141.016C94.5316 140.627 94.9583 140.323 95.4436 140.104C95.929 139.885 96.4463 139.776 96.9956 139.776C97.5983 139.776 98.1503 139.899 98.6516 140.144C99.1583 140.384 99.5903 140.72 99.9476 141.152C100.31 141.584 100.58 142.085 100.756 142.656C100.937 143.227 101.004 143.837 100.956 144.488H94.4276C94.4916 144.941 94.641 145.347 94.8756 145.704C95.1103 146.056 95.409 146.336 95.7716 146.544C96.1396 146.752 96.5476 146.859 96.9956 146.864C97.4756 146.864 97.9103 146.741 98.2996 146.496C98.689 146.245 99.0036 145.904 99.2436 145.472L100.612 145.792C100.292 146.501 99.809 147.083 99.1636 147.536C98.5183 147.984 97.7956 148.208 96.9956 148.208ZM94.3876 143.432H99.6036C99.561 142.984 99.417 142.576 99.1716 142.208C98.9263 141.835 98.6143 141.536 98.2356 141.312C97.857 141.088 97.4436 140.976 96.9956 140.976C96.5476 140.976 96.137 141.085 95.7636 141.304C95.3903 141.523 95.081 141.819 94.8356 142.192C94.5956 142.56 94.4463 142.973 94.3876 143.432ZM108.697 136H110.041V148H108.697V146.64C108.425 147.109 108.06 147.488 107.601 147.776C107.142 148.064 106.604 148.208 105.985 148.208C105.404 148.208 104.86 148.099 104.353 147.88C103.846 147.661 103.398 147.36 103.009 146.976C102.625 146.587 102.324 146.139 102.105 145.632C101.886 145.125 101.777 144.581 101.777 144C101.777 143.419 101.886 142.875 102.105 142.368C102.324 141.856 102.625 141.408 103.009 141.024C103.398 140.635 103.846 140.331 104.353 140.112C104.86 139.893 105.404 139.784 105.985 139.784C106.604 139.784 107.142 139.928 107.601 140.216C108.06 140.504 108.425 140.883 108.697 141.352V136ZM106.001 146.904C106.529 146.904 106.985 146.776 107.369 146.52C107.758 146.259 108.057 145.907 108.265 145.464C108.478 145.021 108.585 144.533 108.585 144C108.585 143.456 108.478 142.965 108.265 142.528C108.052 142.085 107.75 141.736 107.361 141.48C106.977 141.219 106.524 141.088 106.001 141.088C105.473 141.088 104.993 141.219 104.561 141.48C104.134 141.741 103.793 142.093 103.537 142.536C103.281 142.973 103.153 143.461 103.153 144C103.153 144.539 103.284 145.029 103.545 145.472C103.806 145.909 104.153 146.259 104.585 146.52C105.017 146.776 105.489 146.904 106.001 146.904ZM122.236 140H123.58V148H122.236L122.18 146.648C121.929 147.112 121.582 147.488 121.14 147.776C120.702 148.064 120.18 148.208 119.572 148.208C118.985 148.208 118.436 148.099 117.924 147.88C117.412 147.656 116.958 147.349 116.564 146.96C116.174 146.565 115.87 146.112 115.652 145.6C115.433 145.088 115.324 144.536 115.324 143.944C115.324 143.373 115.43 142.835 115.644 142.328C115.857 141.821 116.153 141.379 116.532 141C116.916 140.616 117.358 140.317 117.86 140.104C118.361 139.885 118.9 139.776 119.476 139.776C120.105 139.776 120.657 139.925 121.132 140.224C121.606 140.517 121.99 140.899 122.284 141.368L122.236 140ZM119.548 146.904C120.076 146.904 120.532 146.776 120.916 146.52C121.305 146.259 121.604 145.907 121.812 145.464C122.025 145.021 122.132 144.533 122.132 144C122.132 143.456 122.025 142.965 121.812 142.528C121.598 142.085 121.297 141.736 120.908 141.48C120.524 141.219 120.07 141.088 119.548 141.088C119.02 141.088 118.54 141.219 118.108 141.48C117.676 141.741 117.332 142.093 117.076 142.536C116.825 142.973 116.7 143.461 116.7 144C116.7 144.539 116.83 145.029 117.092 145.472C117.353 145.909 117.7 146.259 118.132 146.52C118.564 146.776 119.036 146.904 119.548 146.904ZM132.582 148H131.223L128.543 140H129.855L131.919 146.104L133.959 140H135.343L137.391 146.104L139.431 140H140.759L138.079 148H136.711L134.639 141.84L132.582 148ZM145.246 148.208C144.51 148.208 143.838 148.019 143.23 147.64C142.627 147.261 142.144 146.755 141.782 146.12C141.424 145.48 141.246 144.773 141.246 144C141.246 143.413 141.35 142.867 141.558 142.36C141.766 141.848 142.051 141.4 142.414 141.016C142.782 140.627 143.208 140.323 143.694 140.104C144.179 139.885 144.696 139.776 145.246 139.776C145.848 139.776 146.4 139.899 146.902 140.144C147.408 140.384 147.84 140.72 148.198 141.152C148.56 141.584 148.83 142.085 149.006 142.656C149.187 143.227 149.254 143.837 149.206 144.488H142.678C142.742 144.941 142.891 145.347 143.126 145.704C143.36 146.056 143.659 146.336 144.022 146.544C144.39 146.752 144.798 146.859 145.246 146.864C145.726 146.864 146.16 146.741 146.55 146.496C146.939 146.245 147.254 145.904 147.494 145.472L148.862 145.792C148.542 146.501 148.059 147.083 147.414 147.536C146.768 147.984 146.046 148.208 145.246 148.208ZM142.638 143.432H147.854C147.811 142.984 147.667 142.576 147.422 142.208C147.176 141.835 146.864 141.536 146.486 141.312C146.107 141.088 145.694 140.976 145.246 140.976C144.798 140.976 144.387 141.085 144.014 141.304C143.64 141.523 143.331 141.819 143.086 142.192C142.846 142.56 142.696 142.973 142.638 143.432ZM156.939 140H158.283V148H156.939L156.883 146.648C156.632 147.112 156.286 147.488 155.843 147.776C155.406 148.064 154.883 148.208 154.275 148.208C153.688 148.208 153.139 148.099 152.627 147.88C152.115 147.656 151.662 147.349 151.267 146.96C150.878 146.565 150.574 146.112 150.355 145.6C150.136 145.088 150.027 144.536 150.027 143.944C150.027 143.373 150.134 142.835 150.347 142.328C150.56 141.821 150.856 141.379 151.235 141C151.619 140.616 152.062 140.317 152.563 140.104C153.064 139.885 153.603 139.776 154.179 139.776C154.808 139.776 155.36 139.925 155.835 140.224C156.31 140.517 156.694 140.899 156.987 141.368L156.939 140ZM154.251 146.904C154.779 146.904 155.235 146.776 155.619 146.52C156.008 146.259 156.307 145.907 156.515 145.464C156.728 145.021 156.835 144.533 156.835 144C156.835 143.456 156.728 142.965 156.515 142.528C156.302 142.085 156 141.736 155.611 141.48C155.227 141.219 154.774 141.088 154.251 141.088C153.723 141.088 153.243 141.219 152.811 141.48C152.379 141.741 152.035 142.093 151.779 142.536C151.528 142.973 151.403 143.461 151.403 144C151.403 144.539 151.534 145.029 151.795 145.472C152.056 145.909 152.403 146.259 152.835 146.52C153.267 146.776 153.739 146.904 154.251 146.904ZM159.976 148V136H161.32V148H159.976ZM167.385 141.344H165.569L165.561 148H164.217L164.225 141.344H162.849V140H164.225L164.217 137.488H165.561L165.569 140H167.385V141.344ZM175.891 143.024V148H174.547V143.32C174.547 142.915 174.449 142.547 174.251 142.216C174.054 141.885 173.79 141.624 173.459 141.432C173.129 141.235 172.761 141.136 172.355 141.136C171.955 141.136 171.587 141.235 171.251 141.432C170.921 141.624 170.657 141.885 170.459 142.216C170.262 142.547 170.163 142.915 170.163 143.32V148H168.819V136H170.163V141C170.446 140.627 170.803 140.331 171.235 140.112C171.667 139.888 172.137 139.776 172.643 139.776C173.241 139.776 173.785 139.923 174.275 140.216C174.771 140.504 175.163 140.893 175.451 141.384C175.745 141.875 175.891 142.421 175.891 143.024ZM184.855 148.208C184.119 148.208 183.447 148.019 182.839 147.64C182.236 147.261 181.754 146.755 181.391 146.12C181.034 145.48 180.855 144.773 180.855 144C180.855 143.413 180.959 142.867 181.167 142.36C181.375 141.848 181.66 141.4 182.023 141.016C182.391 140.627 182.818 140.323 183.303 140.104C183.788 139.885 184.306 139.776 184.855 139.776C185.591 139.776 186.26 139.965 186.863 140.344C187.471 140.723 187.954 141.232 188.311 141.872C188.674 142.512 188.855 143.221 188.855 144C188.855 144.581 188.751 145.125 188.543 145.632C188.335 146.139 188.047 146.587 187.679 146.976C187.316 147.36 186.892 147.661 186.407 147.88C185.927 148.099 185.41 148.208 184.855 148.208ZM184.855 146.864C185.356 146.864 185.807 146.733 186.207 146.472C186.612 146.205 186.93 145.856 187.159 145.424C187.394 144.987 187.511 144.512 187.511 144C187.511 143.477 187.391 142.997 187.151 142.56C186.916 142.123 186.599 141.773 186.199 141.512C185.799 141.251 185.351 141.12 184.855 141.12C184.354 141.12 183.903 141.253 183.503 141.52C183.103 141.781 182.786 142.131 182.551 142.568C182.316 143.005 182.199 143.483 182.199 144C182.199 144.533 182.319 145.019 182.559 145.456C182.799 145.888 183.122 146.232 183.527 146.488C183.932 146.739 184.375 146.864 184.855 146.864ZM192.104 138.024V140H194.448V141.344H192.104V148H190.76V141.344H189.728V140H190.76V138.024C190.76 137.613 190.859 137.243 191.056 136.912C191.259 136.576 191.528 136.309 191.864 136.112C192.205 135.909 192.579 135.808 192.984 135.808C193.283 135.808 193.573 135.869 193.856 135.992C194.139 136.109 194.389 136.285 194.608 136.52L193.648 137.472C193.573 137.371 193.475 137.293 193.352 137.24C193.235 137.181 193.112 137.152 192.984 137.152C192.744 137.152 192.536 137.237 192.36 137.408C192.189 137.579 192.104 137.784 192.104 138.024ZM206.089 148H204.545L202.417 144.328L200.945 146.088V148H199.601V136H200.945V144L204.297 140H206.049L203.329 143.24L206.089 148ZM214.72 143.024V148H213.376V143.32C213.376 142.915 213.277 142.547 213.08 142.216C212.882 141.885 212.618 141.624 212.288 141.432C211.957 141.235 211.589 141.136 211.184 141.136C210.784 141.136 210.416 141.235 210.08 141.432C209.749 141.624 209.485 141.885 209.288 142.216C209.09 142.547 208.992 142.915 208.992 143.32V148H207.648V140H208.992V141C209.274 140.627 209.632 140.331 210.064 140.112C210.496 139.888 210.965 139.776 211.472 139.776C212.069 139.776 212.613 139.923 213.104 140.216C213.6 140.504 213.992 140.893 214.28 141.384C214.573 141.875 214.72 142.421 214.72 143.024ZM219.683 148.208C218.947 148.208 218.275 148.019 217.667 147.64C217.064 147.261 216.582 146.755 216.219 146.12C215.862 145.48 215.683 144.773 215.683 144C215.683 143.413 215.787 142.867 215.995 142.36C216.203 141.848 216.488 141.4 216.851 141.016C217.219 140.627 217.646 140.323 218.131 140.104C218.616 139.885 219.134 139.776 219.683 139.776C220.419 139.776 221.088 139.965 221.691 140.344C222.299 140.723 222.782 141.232 223.139 141.872C223.502 142.512 223.683 143.221 223.683 144C223.683 144.581 223.579 145.125 223.371 145.632C223.163 146.139 222.875 146.587 222.507 146.976C222.144 147.36 221.72 147.661 221.235 147.88C220.755 148.099 220.238 148.208 219.683 148.208ZM219.683 146.864C220.184 146.864 220.635 146.733 221.035 146.472C221.44 146.205 221.758 145.856 221.987 145.424C222.222 144.987 222.339 144.512 222.339 144C222.339 143.477 222.219 142.997 221.979 142.56C221.744 142.123 221.427 141.773 221.027 141.512C220.627 141.251 220.179 141.12 219.683 141.12C219.182 141.12 218.731 141.253 218.331 141.52C217.931 141.781 217.614 142.131 217.379 142.568C217.144 143.005 217.027 143.483 217.027 144C217.027 144.533 217.147 145.019 217.387 145.456C217.627 145.888 217.95 146.232 218.355 146.488C218.76 146.739 219.203 146.864 219.683 146.864ZM228.207 148H226.848L224.168 140H225.48L227.544 146.104L229.584 140H230.968L233.016 146.104L235.056 140H236.384L233.704 148H232.336L230.264 141.84L228.207 148ZM237.819 148V136H239.163V148H237.819ZM244.527 148.208C243.791 148.208 243.119 148.019 242.511 147.64C241.908 147.261 241.426 146.755 241.063 146.12C240.706 145.48 240.527 144.773 240.527 144C240.527 143.413 240.631 142.867 240.839 142.36C241.047 141.848 241.332 141.4 241.695 141.016C242.063 140.627 242.49 140.323 242.975 140.104C243.46 139.885 243.978 139.776 244.527 139.776C245.13 139.776 245.682 139.899 246.183 140.144C246.69 140.384 247.122 140.72 247.479 141.152C247.842 141.584 248.111 142.085 248.287 142.656C248.468 143.227 248.535 143.837 248.487 144.488H241.959C242.023 144.941 242.172 145.347 242.407 145.704C242.642 146.056 242.94 146.336 243.303 146.544C243.671 146.752 244.079 146.859 244.527 146.864C245.007 146.864 245.442 146.741 245.831 146.496C246.22 146.245 246.535 145.904 246.775 145.472L248.143 145.792C247.823 146.501 247.34 147.083 246.695 147.536C246.05 147.984 245.327 148.208 244.527 148.208ZM241.919 143.432H247.135C247.092 142.984 246.948 142.576 246.703 142.208C246.458 141.835 246.146 141.536 245.767 141.312C245.388 141.088 244.975 140.976 244.527 140.976C244.079 140.976 243.668 141.085 243.295 141.304C242.922 141.523 242.612 141.819 242.367 142.192C242.127 142.56 241.978 142.973 241.919 143.432ZM256.228 136H257.572V148H256.228V146.64C255.956 147.109 255.591 147.488 255.132 147.776C254.673 148.064 254.135 148.208 253.516 148.208C252.935 148.208 252.391 148.099 251.884 147.88C251.377 147.661 250.929 147.36 250.54 146.976C250.156 146.587 249.855 146.139 249.636 145.632C249.417 145.125 249.308 144.581 249.308 144C249.308 143.419 249.417 142.875 249.636 142.368C249.855 141.856 250.156 141.408 250.54 141.024C250.929 140.635 251.377 140.331 251.884 140.112C252.391 139.893 252.935 139.784 253.516 139.784C254.135 139.784 254.673 139.928 255.132 140.216C255.591 140.504 255.956 140.883 256.228 141.352V136ZM253.532 146.904C254.06 146.904 254.516 146.776 254.9 146.52C255.289 146.259 255.588 145.907 255.796 145.464C256.009 145.021 256.116 144.533 256.116 144C256.116 143.456 256.009 142.965 255.796 142.528C255.583 142.085 255.281 141.736 254.892 141.48C254.508 141.219 254.055 141.088 253.532 141.088C253.004 141.088 252.524 141.219 252.092 141.48C251.665 141.741 251.324 142.093 251.068 142.536C250.812 142.973 250.684 143.461 250.684 144C250.684 144.539 250.815 145.029 251.076 145.472C251.337 145.909 251.684 146.259 252.116 146.52C252.548 146.776 253.02 146.904 253.532 146.904ZM265.661 140H267.005V148.256C267.005 148.784 266.89 149.275 266.661 149.728C266.437 150.187 266.133 150.584 265.749 150.92C265.365 151.261 264.928 151.525 264.437 151.712C263.946 151.904 263.434 152 262.901 152C262.346 152 261.81 151.875 261.293 151.624C260.776 151.379 260.322 151.048 259.933 150.632C259.549 150.221 259.272 149.76 259.101 149.248L260.333 148.688C260.434 149.056 260.616 149.387 260.877 149.68C261.144 149.979 261.453 150.213 261.805 150.384C262.162 150.56 262.528 150.648 262.901 150.648C263.253 150.648 263.592 150.587 263.917 150.464C264.248 150.341 264.544 150.171 264.805 149.952C265.072 149.739 265.28 149.485 265.429 149.192C265.584 148.904 265.661 148.592 265.661 148.256V146.664C265.389 147.123 265.029 147.496 264.581 147.784C264.138 148.067 263.621 148.208 263.029 148.208C262.464 148.208 261.933 148.099 261.437 147.88C260.941 147.661 260.506 147.36 260.133 146.976C259.76 146.587 259.466 146.139 259.253 145.632C259.04 145.125 258.933 144.581 258.933 144C258.933 143.419 259.04 142.875 259.253 142.368C259.466 141.856 259.76 141.408 260.133 141.024C260.506 140.635 260.941 140.331 261.437 140.112C261.933 139.893 262.464 139.784 263.029 139.784C263.621 139.784 264.138 139.925 264.581 140.208C265.029 140.491 265.389 140.864 265.661 141.328V140ZM263.037 146.904C263.554 146.904 264.002 146.771 264.381 146.504C264.765 146.237 265.061 145.883 265.269 145.44C265.477 144.997 265.581 144.517 265.581 144C265.581 143.467 265.474 142.981 265.261 142.544C265.053 142.101 264.757 141.749 264.373 141.488C263.994 141.221 263.549 141.088 263.037 141.088C262.536 141.088 262.077 141.219 261.661 141.48C261.245 141.741 260.914 142.093 260.669 142.536C260.429 142.973 260.309 143.461 260.309 144C260.309 144.539 260.432 145.029 260.677 145.472C260.928 145.909 261.258 146.259 261.669 146.52C262.085 146.776 262.541 146.904 263.037 146.904ZM272.339 148.208C271.603 148.208 270.931 148.019 270.323 147.64C269.721 147.261 269.238 146.755 268.875 146.12C268.518 145.48 268.339 144.773 268.339 144C268.339 143.413 268.443 142.867 268.651 142.36C268.859 141.848 269.145 141.4 269.507 141.016C269.875 140.627 270.302 140.323 270.787 140.104C271.273 139.885 271.79 139.776 272.339 139.776C272.942 139.776 273.494 139.899 273.995 140.144C274.502 140.384 274.934 140.72 275.291 141.152C275.654 141.584 275.923 142.085 276.099 142.656C276.281 143.227 276.347 143.837 276.299 144.488H269.771C269.835 144.941 269.985 145.347 270.219 145.704C270.454 146.056 270.753 146.336 271.115 146.544C271.483 146.752 271.891 146.859 272.339 146.864C272.819 146.864 273.254 146.741 273.643 146.496C274.033 146.245 274.347 145.904 274.587 145.472L275.955 145.792C275.635 146.501 275.153 147.083 274.507 147.536C273.862 147.984 273.139 148.208 272.339 148.208ZM269.731 143.432H274.947C274.905 142.984 274.761 142.576 274.515 142.208C274.27 141.835 273.958 141.536 273.579 141.312C273.201 141.088 272.787 140.976 272.339 140.976C271.891 140.976 271.481 141.085 271.107 141.304C270.734 141.523 270.425 141.819 270.179 142.192C269.939 142.56 269.79 142.973 269.731 143.432ZM288.033 140H289.377V148H288.033L287.977 146.648C287.726 147.112 287.379 147.488 286.937 147.776C286.499 148.064 285.977 148.208 285.369 148.208C284.782 148.208 284.233 148.099 283.721 147.88C283.209 147.656 282.755 147.349 282.361 146.96C281.971 146.565 281.667 146.112 281.449 145.6C281.23 145.088 281.121 144.536 281.121 143.944C281.121 143.373 281.227 142.835 281.441 142.328C281.654 141.821 281.95 141.379 282.329 141C282.713 140.616 283.155 140.317 283.657 140.104C284.158 139.885 284.697 139.776 285.273 139.776C285.902 139.776 286.454 139.925 286.929 140.224C287.403 140.517 287.787 140.899 288.081 141.368L288.033 140ZM285.345 146.904C285.873 146.904 286.329 146.776 286.713 146.52C287.102 146.259 287.401 145.907 287.609 145.464C287.822 145.021 287.929 144.533 287.929 144C287.929 143.456 287.822 142.965 287.609 142.528C287.395 142.085 287.094 141.736 286.705 141.48C286.321 141.219 285.867 141.088 285.345 141.088C284.817 141.088 284.337 141.219 283.905 141.48C283.473 141.741 283.129 142.093 282.873 142.536C282.622 142.973 282.497 143.461 282.497 144C282.497 144.539 282.627 145.029 282.889 145.472C283.15 145.909 283.497 146.259 283.929 146.52C284.361 146.776 284.833 146.904 285.345 146.904ZM298.048 143.024V148H296.704V143.32C296.704 142.915 296.605 142.547 296.408 142.216C296.21 141.885 295.946 141.624 295.616 141.432C295.285 141.235 294.917 141.136 294.512 141.136C294.112 141.136 293.744 141.235 293.408 141.432C293.077 141.624 292.813 141.885 292.616 142.216C292.418 142.547 292.32 142.915 292.32 143.32V148H290.976V140H292.32V141C292.602 140.627 292.96 140.331 293.392 140.112C293.824 139.888 294.293 139.776 294.8 139.776C295.397 139.776 295.941 139.923 296.432 140.216C296.928 140.504 297.32 140.893 297.608 141.384C297.901 141.875 298.048 142.421 298.048 143.024ZM305.931 136H307.275V148H305.931V146.64C305.659 147.109 305.294 147.488 304.835 147.776C304.377 148.064 303.838 148.208 303.219 148.208C302.638 148.208 302.094 148.099 301.587 147.88C301.081 147.661 300.633 147.36 300.243 146.976C299.859 146.587 299.558 146.139 299.339 145.632C299.121 145.125 299.011 144.581 299.011 144C299.011 143.419 299.121 142.875 299.339 142.368C299.558 141.856 299.859 141.408 300.243 141.024C300.633 140.635 301.081 140.331 301.587 140.112C302.094 139.893 302.638 139.784 303.219 139.784C303.838 139.784 304.377 139.928 304.835 140.216C305.294 140.504 305.659 140.883 305.931 141.352V136ZM303.235 146.904C303.763 146.904 304.219 146.776 304.603 146.52C304.993 146.259 305.291 145.907 305.499 145.464C305.713 145.021 305.819 144.533 305.819 144C305.819 143.456 305.713 142.965 305.499 142.528C305.286 142.085 304.985 141.736 304.595 141.48C304.211 141.219 303.758 141.088 303.235 141.088C302.707 141.088 302.227 141.219 301.795 141.48C301.369 141.741 301.027 142.093 300.771 142.536C300.515 142.973 300.387 143.461 300.387 144C300.387 144.539 300.518 145.029 300.779 145.472C301.041 145.909 301.387 146.259 301.819 146.52C302.251 146.776 302.723 146.904 303.235 146.904ZM50.48 172.208C49.744 172.208 49.072 172.019 48.464 171.64C47.8613 171.261 47.3787 170.755 47.016 170.12C46.6587 169.48 46.48 168.773 46.48 168C46.48 167.413 46.584 166.867 46.792 166.36C47 165.848 47.2853 165.4 47.648 165.016C48.016 164.627 48.4427 164.323 48.928 164.104C49.4133 163.885 49.9307 163.776 50.48 163.776C51.0827 163.776 51.6347 163.899 52.136 164.144C52.6427 164.384 53.0747 164.72 53.432 165.152C53.7947 165.584 54.064 166.085 54.24 166.656C54.4213 167.227 54.488 167.837 54.44 168.488H47.912C47.976 168.941 48.1253 169.347 48.36 169.704C48.5947 170.056 48.8933 170.336 49.256 170.544C49.624 170.752 50.032 170.859 50.48 170.864C50.96 170.864 51.3947 170.741 51.784 170.496C52.1733 170.245 52.488 169.904 52.728 169.472L54.096 169.792C53.776 170.501 53.2933 171.083 52.648 171.536C52.0027 171.984 51.28 172.208 50.48 172.208ZM47.872 167.432H53.088C53.0453 166.984 52.9013 166.576 52.656 166.208C52.4107 165.835 52.0987 165.536 51.72 165.312C51.3413 165.088 50.928 164.976 50.48 164.976C50.032 164.976 49.6213 165.085 49.248 165.304C48.8747 165.523 48.5653 165.819 48.32 166.192C48.08 166.56 47.9307 166.973 47.872 167.432ZM54.8744 172L57.8024 167.984L54.8904 163.984H56.5464L58.6344 166.832L60.7144 163.984H62.3704L59.4584 167.984L62.3864 172H60.7304L58.6344 169.12L56.5304 172H54.8744ZM65.1165 176H63.7725V164H65.1165V165.368C65.3885 164.899 65.7512 164.52 66.2045 164.232C66.6578 163.939 67.1965 163.792 67.8205 163.792C68.4018 163.792 68.9458 163.901 69.4525 164.12C69.9645 164.339 70.4125 164.643 70.7965 165.032C71.1805 165.416 71.4818 165.861 71.7005 166.368C71.9192 166.875 72.0285 167.419 72.0285 168C72.0285 168.581 71.9192 169.128 71.7005 169.64C71.4818 170.152 71.1805 170.603 70.7965 170.992C70.4125 171.376 69.9645 171.677 69.4525 171.896C68.9458 172.115 68.4018 172.224 67.8205 172.224C67.1965 172.224 66.6578 172.08 66.2045 171.792C65.7512 171.499 65.3885 171.117 65.1165 170.648V176ZM67.8045 165.096C67.2872 165.096 66.8338 165.227 66.4445 165.488C66.0552 165.749 65.7538 166.099 65.5405 166.536C65.3325 166.973 65.2285 167.461 65.2285 168C65.2285 168.533 65.3325 169.021 65.5405 169.464C65.7538 169.907 66.0525 170.259 66.4365 170.52C66.8258 170.781 67.2818 170.912 67.8045 170.912C68.3218 170.912 68.7965 170.784 69.2285 170.528C69.6605 170.267 70.0072 169.917 70.2685 169.48C70.5298 169.037 70.6605 168.544 70.6605 168C70.6605 167.467 70.5325 166.981 70.2765 166.544C70.0205 166.101 69.6765 165.749 69.2445 165.488C68.8125 165.227 68.3325 165.096 67.8045 165.096ZM76.8394 172.208C76.1034 172.208 75.4314 172.019 74.8234 171.64C74.2207 171.261 73.738 170.755 73.3754 170.12C73.018 169.48 72.8394 168.773 72.8394 168C72.8394 167.413 72.9434 166.867 73.1514 166.36C73.3594 165.848 73.6447 165.4 74.0074 165.016C74.3754 164.627 74.802 164.323 75.2874 164.104C75.7727 163.885 76.29 163.776 76.8394 163.776C77.442 163.776 77.994 163.899 78.4954 164.144C79.002 164.384 79.434 164.72 79.7914 165.152C80.154 165.584 80.4234 166.085 80.5994 166.656C80.7807 167.227 80.8474 167.837 80.7994 168.488H74.2714C74.3354 168.941 74.4847 169.347 74.7194 169.704C74.954 170.056 75.2527 170.336 75.6154 170.544C75.9834 170.752 76.3914 170.859 76.8394 170.864C77.3194 170.864 77.754 170.741 78.1434 170.496C78.5327 170.245 78.8474 169.904 79.0874 169.472L80.4554 169.792C80.1354 170.501 79.6527 171.083 79.0074 171.536C78.362 171.984 77.6394 172.208 76.8394 172.208ZM74.2314 167.432H79.4474C79.4047 166.984 79.2607 166.576 79.0154 166.208C78.77 165.835 78.458 165.536 78.0794 165.312C77.7007 165.088 77.2874 164.976 76.8394 164.976C76.3914 164.976 75.9807 165.085 75.6074 165.304C75.234 165.523 74.9247 165.819 74.6794 166.192C74.4394 166.56 74.29 166.973 74.2314 167.432ZM82.1475 172V164H83.4915V165C83.7742 164.627 84.1315 164.331 84.5635 164.112C84.9955 163.888 85.4648 163.776 85.9715 163.776C86.2808 163.776 86.5795 163.816 86.8675 163.896L86.3235 165.24C86.1048 165.171 85.8915 165.136 85.6835 165.136C85.2835 165.136 84.9155 165.235 84.5795 165.432C84.2488 165.624 83.9848 165.885 83.7875 166.216C83.5902 166.547 83.4915 166.915 83.4915 167.32V172H82.1475ZM87.8506 164H89.1946V172H87.8506V164ZM88.5386 162.696C88.3253 162.696 88.1466 162.627 88.0026 162.488C87.8586 162.349 87.7866 162.176 87.7866 161.968C87.7866 161.76 87.8586 161.587 88.0026 161.448C88.1466 161.309 88.3226 161.24 88.5306 161.24C88.7386 161.24 88.9146 161.309 89.0586 161.448C89.2026 161.587 89.2746 161.76 89.2746 161.968C89.2746 162.176 89.2026 162.349 89.0586 162.488C88.92 162.627 88.7466 162.696 88.5386 162.696ZM94.5269 172.208C93.7909 172.208 93.1189 172.019 92.5109 171.64C91.9082 171.261 91.4255 170.755 91.0629 170.12C90.7055 169.48 90.5269 168.773 90.5269 168C90.5269 167.413 90.6309 166.867 90.8389 166.36C91.0469 165.848 91.3322 165.4 91.6949 165.016C92.0629 164.627 92.4895 164.323 92.9749 164.104C93.4602 163.885 93.9775 163.776 94.5269 163.776C95.1295 163.776 95.6815 163.899 96.1829 164.144C96.6895 164.384 97.1215 164.72 97.4789 165.152C97.8415 165.584 98.1109 166.085 98.2869 166.656C98.4682 167.227 98.5349 167.837 98.4869 168.488H91.9589C92.0229 168.941 92.1722 169.347 92.4069 169.704C92.6415 170.056 92.9402 170.336 93.3029 170.544C93.6709 170.752 94.0789 170.859 94.5269 170.864C95.0069 170.864 95.4415 170.741 95.8309 170.496C96.2202 170.245 96.5349 169.904 96.7749 169.472L98.1429 169.792C97.8229 170.501 97.3402 171.083 96.6949 171.536C96.0495 171.984 95.3269 172.208 94.5269 172.208ZM91.9189 167.432H97.1349C97.0922 166.984 96.9482 166.576 96.7029 166.208C96.4575 165.835 96.1455 165.536 95.7669 165.312C95.3882 165.088 94.9749 164.976 94.5269 164.976C94.0789 164.976 93.6682 165.085 93.2949 165.304C92.9215 165.523 92.6122 165.819 92.3669 166.192C92.1269 166.56 91.9775 166.973 91.9189 167.432ZM106.907 167.024V172H105.563V167.32C105.563 166.915 105.464 166.547 105.267 166.216C105.07 165.885 104.806 165.624 104.475 165.432C104.144 165.235 103.776 165.136 103.371 165.136C102.971 165.136 102.603 165.235 102.267 165.432C101.936 165.624 101.672 165.885 101.475 166.216C101.278 166.547 101.179 166.915 101.179 167.32V172H99.835V164H101.179V165C101.462 164.627 101.819 164.331 102.251 164.112C102.683 163.888 103.152 163.776 103.659 163.776C104.256 163.776 104.8 163.923 105.291 164.216C105.787 164.504 106.179 164.893 106.467 165.384C106.76 165.875 106.907 166.421 106.907 167.024ZM113.863 169.888L115.063 170.536C114.7 171.043 114.239 171.448 113.679 171.752C113.124 172.056 112.521 172.208 111.871 172.208C111.135 172.208 110.463 172.019 109.855 171.64C109.252 171.261 108.769 170.755 108.407 170.12C108.049 169.48 107.871 168.773 107.871 168C107.871 167.413 107.975 166.867 108.183 166.36C108.391 165.848 108.676 165.4 109.039 165.016C109.407 164.627 109.833 164.323 110.319 164.104C110.804 163.885 111.321 163.776 111.871 163.776C112.521 163.776 113.124 163.928 113.679 164.232C114.239 164.536 114.7 164.944 115.063 165.456L113.863 166.104C113.607 165.789 113.303 165.547 112.951 165.376C112.599 165.205 112.239 165.12 111.871 165.12C111.375 165.12 110.924 165.253 110.519 165.52C110.119 165.781 109.801 166.131 109.567 166.568C109.332 167.005 109.215 167.483 109.215 168C109.215 168.517 109.332 168.995 109.567 169.432C109.807 169.864 110.127 170.211 110.527 170.472C110.932 170.733 111.38 170.864 111.871 170.864C112.265 170.864 112.636 170.773 112.983 170.592C113.329 170.411 113.623 170.176 113.863 169.888ZM119.886 172.208C119.15 172.208 118.478 172.019 117.87 171.64C117.268 171.261 116.785 170.755 116.422 170.12C116.065 169.48 115.886 168.773 115.886 168C115.886 167.413 115.99 166.867 116.198 166.36C116.406 165.848 116.692 165.4 117.054 165.016C117.422 164.627 117.849 164.323 118.334 164.104C118.82 163.885 119.337 163.776 119.886 163.776C120.489 163.776 121.041 163.899 121.542 164.144C122.049 164.384 122.481 164.72 122.838 165.152C123.201 165.584 123.47 166.085 123.646 166.656C123.828 167.227 123.894 167.837 123.846 168.488H117.318C117.382 168.941 117.532 169.347 117.766 169.704C118.001 170.056 118.3 170.336 118.662 170.544C119.03 170.752 119.438 170.859 119.886 170.864C120.366 170.864 120.801 170.741 121.19 170.496C121.58 170.245 121.894 169.904 122.134 169.472L123.502 169.792C123.182 170.501 122.7 171.083 122.054 171.536C121.409 171.984 120.686 172.208 119.886 172.208ZM117.278 167.432H122.494C122.452 166.984 122.308 166.576 122.062 166.208C121.817 165.835 121.505 165.536 121.126 165.312C120.748 165.088 120.334 164.976 119.886 164.976C119.438 164.976 119.028 165.085 118.654 165.304C118.281 165.523 117.972 165.819 117.726 166.192C117.486 166.56 117.337 166.973 117.278 167.432ZM125.556 172.208C125.353 172.208 125.18 172.136 125.036 171.992C124.897 171.848 124.828 171.672 124.828 171.464C124.828 171.267 124.897 171.096 125.036 170.952C125.18 170.808 125.353 170.736 125.556 170.736C125.764 170.736 125.94 170.808 126.084 170.952C126.228 171.096 126.299 171.267 126.299 171.464C126.299 171.672 126.228 171.848 126.084 171.992C125.94 172.136 125.764 172.208 125.556 172.208Z" fill="#999999"></path></g><defs><filter id="filter0_d_144_10240" x="0" y="0" width="418.334" height="224" filterUnits="userSpaceOnUse" color-interpolation-filters="sRGB"></filter></defs></svg>