<svg xmlns="http://www.w3.org/2000/svg" width="512" height="266" viewBox="0 0 512 266" fill="none"><rect x="0.5" y="0.5" width="511" height="265" rx="11.5" stroke="#262626"></rect><rect x="50.5" y="50.5" width="81" height="81" rx="40.5" stroke="url(#paint0_linear_104_11607)"></rect><rect x="50.5" y="50.5" width="81" height="81" rx="40.5" stroke="url(#paint1_linear_104_11607)"></rect><rect x="60.5" y="60.5" width="61" height="61" rx="30.5" stroke="url(#paint2_linear_104_11607)"></rect><rect x="60.5" y="60.5" width="61" height="61" rx="30.5" stroke="url(#paint3_linear_104_11607)"></rect><path fill-rule="evenodd" clip-rule="evenodd" d="M77.1875 79.8438C77.1875 78.3767 78.3767 77.1875 79.8438 77.1875H87.2812C88.7483 77.1875 89.9375 78.3767 89.9375 79.8438V98.4375C89.9375 101.958 87.0833 104.812 83.5625 104.812C80.0417 104.812 77.1875 101.958 77.1875 98.4375V79.8438ZM83.5625 100.031C84.4427 100.031 85.1562 99.3177 85.1562 98.4375C85.1562 97.5573 84.4427 96.8438 83.5625 96.8438C82.6823 96.8438 81.9688 97.5573 81.9688 98.4375C81.9688 99.3177 82.6823 100.031 83.5625 100.031Z" fill="#A685FA"></path><path d="M89.1852 104.812H102.156C103.623 104.812 104.813 103.623 104.813 102.156V94.7188C104.813 93.2517 103.623 92.0625 102.156 92.0625H101.958L89.573 104.448C89.4466 104.574 89.3173 104.696 89.1852 104.812Z" fill="#A685FA"></path><path d="M92.0459 98.9694L101.218 89.7975C102.255 88.7602 102.255 87.0784 101.218 86.041L95.9587 80.7819C94.9213 79.7446 93.2395 79.7446 92.2021 80.7819L92.0623 80.9218V98.4375C92.0623 98.6161 92.0568 98.7935 92.0459 98.9694Z" fill="#A685FA"></path><path d="M153.44 99L156.692 82.2H158.708L163.016 93.516L167.3 82.2H169.316L172.58 99H170.036L167.864 87.756L163.844 98.364H162.164L158.156 87.756L155.984 99H153.44ZM183.635 87H186.131V99H183.623L183.527 97.26C183.175 97.876 182.699 98.372 182.099 98.748C181.499 99.124 180.791 99.312 179.975 99.312C179.095 99.312 178.267 99.148 177.491 98.82C176.715 98.484 176.031 98.02 175.439 97.428C174.855 96.836 174.399 96.156 174.071 95.388C173.743 94.612 173.579 93.78 173.579 92.892C173.579 92.036 173.739 91.232 174.059 90.48C174.379 89.72 174.823 89.056 175.391 88.488C175.959 87.92 176.615 87.476 177.359 87.156C178.111 86.828 178.915 86.664 179.771 86.664C180.643 86.664 181.411 86.864 182.075 87.264C182.747 87.656 183.303 88.16 183.743 88.776L183.635 87ZM179.915 96.9C180.619 96.9 181.235 96.728 181.763 96.384C182.291 96.032 182.699 95.56 182.987 94.968C183.283 94.376 183.431 93.72 183.431 93C183.431 92.272 183.283 91.612 182.987 91.02C182.691 90.428 182.279 89.96 181.751 89.616C181.231 89.264 180.619 89.088 179.915 89.088C179.219 89.088 178.583 89.264 178.007 89.616C177.431 89.968 176.975 90.44 176.639 91.032C176.303 91.624 176.135 92.28 176.135 93C176.135 93.728 176.307 94.388 176.651 94.98C177.003 95.564 177.463 96.032 178.031 96.384C178.607 96.728 179.235 96.9 179.915 96.9ZM188.526 87H191.022V99H188.526V87ZM189.798 85.26C189.414 85.26 189.094 85.136 188.838 84.888C188.582 84.64 188.454 84.328 188.454 83.952C188.454 83.584 188.582 83.276 188.838 83.028C189.094 82.772 189.41 82.644 189.786 82.644C190.154 82.644 190.466 82.772 190.722 83.028C190.978 83.276 191.106 83.584 191.106 83.952C191.106 84.328 190.978 84.64 190.722 84.888C190.474 85.136 190.166 85.26 189.798 85.26ZM204.623 91.476V99H202.127V92.088C202.127 91.552 201.995 91.064 201.731 90.624C201.475 90.184 201.127 89.836 200.687 89.58C200.255 89.316 199.767 89.184 199.223 89.184C198.695 89.184 198.211 89.316 197.771 89.58C197.331 89.836 196.979 90.184 196.715 90.624C196.451 91.064 196.319 91.552 196.319 92.088V99H193.823V87H196.319V88.272C196.735 87.776 197.247 87.384 197.855 87.096C198.463 86.808 199.119 86.664 199.823 86.664C200.711 86.664 201.519 86.88 202.247 87.312C202.975 87.744 203.551 88.324 203.975 89.052C204.407 89.78 204.623 90.588 204.623 91.476ZM213.354 89.496H210.834L210.822 99H208.326L208.338 89.496H206.43V87H208.338L208.326 83.232H210.822L210.834 87H213.354V89.496ZM220.501 99.312C219.397 99.312 218.389 99.028 217.477 98.46C216.573 97.892 215.849 97.132 215.305 96.18C214.769 95.22 214.501 94.16 214.501 93C214.501 92.12 214.657 91.3 214.969 90.54C215.281 89.772 215.709 89.1 216.253 88.524C216.805 87.94 217.445 87.484 218.173 87.156C218.901 86.828 219.677 86.664 220.501 86.664C221.421 86.664 222.265 86.856 223.033 87.24C223.801 87.616 224.457 88.14 225.001 88.812C225.545 89.476 225.945 90.244 226.201 91.116C226.457 91.98 226.533 92.9 226.429 93.876H217.177C217.281 94.428 217.481 94.928 217.777 95.376C218.081 95.816 218.465 96.164 218.929 96.42C219.401 96.676 219.925 96.808 220.501 96.816C221.109 96.816 221.661 96.664 222.157 96.36C222.661 96.056 223.073 95.636 223.393 95.1L225.925 95.688C225.445 96.752 224.721 97.624 223.753 98.304C222.785 98.976 221.701 99.312 220.501 99.312ZM217.093 91.968H223.909C223.829 91.392 223.625 90.872 223.297 90.408C222.977 89.936 222.573 89.564 222.085 89.292C221.605 89.012 221.077 88.872 220.501 88.872C219.933 88.872 219.405 89.008 218.917 89.28C218.437 89.552 218.037 89.924 217.717 90.396C217.405 90.86 217.197 91.384 217.093 91.968ZM239.217 91.476V99H236.721V92.088C236.721 91.552 236.589 91.064 236.325 90.624C236.069 90.184 235.721 89.836 235.281 89.58C234.849 89.316 234.361 89.184 233.817 89.184C233.289 89.184 232.805 89.316 232.365 89.58C231.925 89.836 231.573 90.184 231.309 90.624C231.045 91.064 230.913 91.552 230.913 92.088V99H228.417V87H230.913V88.272C231.329 87.776 231.841 87.384 232.449 87.096C233.057 86.808 233.713 86.664 234.417 86.664C235.305 86.664 236.113 86.88 236.841 87.312C237.569 87.744 238.145 88.324 238.569 89.052C239.001 89.78 239.217 90.588 239.217 91.476ZM250.714 87H253.21V99H250.702L250.606 97.26C250.254 97.876 249.778 98.372 249.178 98.748C248.578 99.124 247.87 99.312 247.054 99.312C246.174 99.312 245.346 99.148 244.57 98.82C243.794 98.484 243.11 98.02 242.518 97.428C241.934 96.836 241.478 96.156 241.15 95.388C240.822 94.612 240.658 93.78 240.658 92.892C240.658 92.036 240.818 91.232 241.138 90.48C241.458 89.72 241.902 89.056 242.47 88.488C243.038 87.92 243.694 87.476 244.438 87.156C245.19 86.828 245.994 86.664 246.85 86.664C247.722 86.664 248.49 86.864 249.154 87.264C249.826 87.656 250.382 88.16 250.822 88.776L250.714 87ZM246.993 96.9C247.698 96.9 248.314 96.728 248.842 96.384C249.37 96.032 249.778 95.56 250.066 94.968C250.362 94.376 250.51 93.72 250.51 93C250.51 92.272 250.362 91.612 250.066 91.02C249.77 90.428 249.358 89.96 248.83 89.616C248.31 89.264 247.698 89.088 246.993 89.088C246.298 89.088 245.662 89.264 245.086 89.616C244.51 89.968 244.054 90.44 243.718 91.032C243.382 91.624 243.214 92.28 243.214 93C243.214 93.728 243.386 94.388 243.73 94.98C244.082 95.564 244.542 96.032 245.11 96.384C245.686 96.728 246.314 96.9 246.993 96.9ZM266.404 91.476V99H263.908V92.088C263.908 91.552 263.776 91.064 263.512 90.624C263.256 90.184 262.908 89.836 262.468 89.58C262.036 89.316 261.548 89.184 261.004 89.184C260.476 89.184 259.992 89.316 259.552 89.58C259.112 89.836 258.76 90.184 258.496 90.624C258.232 91.064 258.1 91.552 258.1 92.088V99H255.604V87H258.1V88.272C258.516 87.776 259.028 87.384 259.636 87.096C260.244 86.808 260.9 86.664 261.604 86.664C262.492 86.664 263.3 86.88 264.028 87.312C264.756 87.744 265.332 88.324 265.756 89.052C266.188 89.78 266.404 90.588 266.404 91.476ZM276.401 95.592L278.633 96.804C278.089 97.564 277.397 98.172 276.557 98.628C275.725 99.084 274.821 99.312 273.845 99.312C272.741 99.312 271.733 99.028 270.821 98.46C269.917 97.892 269.193 97.132 268.649 96.18C268.113 95.22 267.845 94.16 267.845 93C267.845 92.12 268.001 91.3 268.313 90.54C268.625 89.772 269.053 89.1 269.597 88.524C270.149 87.94 270.789 87.484 271.517 87.156C272.245 86.828 273.021 86.664 273.845 86.664C274.821 86.664 275.725 86.892 276.557 87.348C277.397 87.804 278.089 88.416 278.633 89.184L276.401 90.396C276.065 89.996 275.673 89.692 275.225 89.484C274.777 89.268 274.317 89.16 273.845 89.16C273.189 89.16 272.593 89.34 272.057 89.7C271.529 90.052 271.109 90.52 270.797 91.104C270.493 91.68 270.341 92.312 270.341 93C270.341 93.68 270.497 94.312 270.809 94.896C271.121 95.472 271.541 95.936 272.069 96.288C272.605 96.64 273.197 96.816 273.845 96.816C274.341 96.816 274.813 96.704 275.261 96.48C275.709 96.256 276.089 95.96 276.401 95.592ZM285.798 99.312C284.694 99.312 283.686 99.028 282.774 98.46C281.87 97.892 281.146 97.132 280.602 96.18C280.066 95.22 279.798 94.16 279.798 93C279.798 92.12 279.954 91.3 280.266 90.54C280.578 89.772 281.006 89.1 281.55 88.524C282.102 87.94 282.742 87.484 283.47 87.156C284.198 86.828 284.974 86.664 285.798 86.664C286.718 86.664 287.562 86.856 288.33 87.24C289.098 87.616 289.754 88.14 290.298 88.812C290.842 89.476 291.242 90.244 291.498 91.116C291.754 91.98 291.83 92.9 291.726 93.876H282.474C282.578 94.428 282.778 94.928 283.074 95.376C283.378 95.816 283.762 96.164 284.226 96.42C284.698 96.676 285.222 96.808 285.798 96.816C286.406 96.816 286.958 96.664 287.454 96.36C287.958 96.056 288.37 95.636 288.69 95.1L291.222 95.688C290.742 96.752 290.018 97.624 289.05 98.304C288.082 98.976 286.998 99.312 285.798 99.312ZM282.39 91.968H289.206C289.126 91.392 288.922 90.872 288.594 90.408C288.274 89.936 287.87 89.564 287.382 89.292C286.902 89.012 286.374 88.872 285.798 88.872C285.23 88.872 284.702 89.008 284.214 89.28C283.734 89.552 283.334 89.924 283.014 90.396C282.702 90.86 282.494 91.384 282.39 91.968ZM299.69 99V82.2H310.118V84.696H302.186V88.752H308.57V91.248H302.186V96.504H310.118V99H299.69ZM321.589 87H324.085V99H321.577L321.481 97.26C321.129 97.876 320.653 98.372 320.053 98.748C319.453 99.124 318.745 99.312 317.929 99.312C317.049 99.312 316.221 99.148 315.445 98.82C314.669 98.484 313.985 98.02 313.393 97.428C312.809 96.836 312.353 96.156 312.025 95.388C311.697 94.612 311.533 93.78 311.533 92.892C311.533 92.036 311.693 91.232 312.013 90.48C312.333 89.72 312.777 89.056 313.345 88.488C313.913 87.92 314.569 87.476 315.313 87.156C316.065 86.828 316.869 86.664 317.725 86.664C318.597 86.664 319.365 86.864 320.029 87.264C320.701 87.656 321.257 88.16 321.697 88.776L321.589 87ZM317.868 96.9C318.573 96.9 319.189 96.728 319.717 96.384C320.245 96.032 320.653 95.56 320.941 94.968C321.237 94.376 321.385 93.72 321.385 93C321.385 92.272 321.237 91.612 320.941 91.02C320.645 90.428 320.233 89.96 319.705 89.616C319.185 89.264 318.573 89.088 317.868 89.088C317.173 89.088 316.537 89.264 315.961 89.616C315.385 89.968 314.929 90.44 314.593 91.032C314.257 91.624 314.089 92.28 314.089 93C314.089 93.728 314.261 94.388 314.605 94.98C314.957 95.564 315.417 96.032 315.985 96.384C316.561 96.728 317.189 96.9 317.868 96.9ZM330.079 99.228C329.447 99.188 328.831 99.06 328.231 98.844C327.631 98.628 327.103 98.336 326.647 97.968C326.199 97.592 325.863 97.152 325.639 96.648L327.763 95.736C327.867 95.952 328.047 96.164 328.303 96.372C328.567 96.58 328.875 96.752 329.227 96.888C329.579 97.016 329.947 97.08 330.331 97.08C330.707 97.08 331.055 97.028 331.375 96.924C331.703 96.812 331.971 96.644 332.179 96.42C332.387 96.196 332.491 95.928 332.491 95.616C332.491 95.264 332.371 94.992 332.131 94.8C331.899 94.6 331.607 94.448 331.255 94.344C330.903 94.24 330.551 94.14 330.199 94.044C329.415 93.868 328.695 93.628 328.039 93.324C327.391 93.012 326.875 92.616 326.491 92.136C326.107 91.648 325.915 91.052 325.915 90.348C325.915 89.58 326.123 88.916 326.539 88.356C326.955 87.788 327.499 87.352 328.171 87.048C328.851 86.744 329.575 86.592 330.343 86.592C331.303 86.592 332.183 86.796 332.983 87.204C333.783 87.612 334.395 88.172 334.819 88.884L332.839 90.06C332.719 89.82 332.539 89.604 332.299 89.412C332.059 89.22 331.787 89.068 331.483 88.956C331.179 88.836 330.863 88.768 330.535 88.752C330.127 88.736 329.747 88.784 329.395 88.896C329.051 89 328.775 89.168 328.567 89.4C328.359 89.632 328.255 89.928 328.255 90.288C328.255 90.64 328.379 90.904 328.627 91.08C328.875 91.248 329.187 91.384 329.563 91.488C329.947 91.592 330.339 91.708 330.739 91.836C331.451 92.06 332.119 92.336 332.743 92.664C333.367 92.984 333.871 93.38 334.255 93.852C334.639 94.324 334.823 94.9 334.807 95.58C334.807 96.332 334.579 96.992 334.123 97.56C333.675 98.128 333.091 98.56 332.371 98.856C331.651 99.152 330.887 99.276 330.079 99.228ZM341.978 99.312C340.874 99.312 339.866 99.028 338.954 98.46C338.05 97.892 337.326 97.132 336.782 96.18C336.246 95.22 335.978 94.16 335.978 93C335.978 92.12 336.134 91.3 336.446 90.54C336.758 89.772 337.186 89.1 337.73 88.524C338.282 87.94 338.922 87.484 339.65 87.156C340.378 86.828 341.154 86.664 341.978 86.664C342.898 86.664 343.742 86.856 344.51 87.24C345.278 87.616 345.934 88.14 346.478 88.812C347.022 89.476 347.422 90.244 347.678 91.116C347.934 91.98 348.01 92.9 347.906 93.876H338.654C338.758 94.428 338.958 94.928 339.254 95.376C339.558 95.816 339.942 96.164 340.406 96.42C340.878 96.676 341.402 96.808 341.978 96.816C342.586 96.816 343.138 96.664 343.634 96.36C344.138 96.056 344.55 95.636 344.87 95.1L347.402 95.688C346.922 96.752 346.198 97.624 345.23 98.304C344.262 98.976 343.178 99.312 341.978 99.312ZM338.57 91.968H345.386C345.306 91.392 345.102 90.872 344.774 90.408C344.454 89.936 344.05 89.564 343.562 89.292C343.082 89.012 342.554 88.872 341.978 88.872C341.41 88.872 340.882 89.008 340.394 89.28C339.914 89.552 339.514 89.924 339.194 90.396C338.882 90.86 338.674 91.384 338.57 91.968Z" fill="white"></path><path d="M55.517 182.234C54.839 182.234 54.185 182.129 53.555 181.919C52.925 181.703 52.373 181.397 51.899 181.001C51.431 180.605 51.098 180.134 50.9 179.588L52.313 179.057C52.433 179.393 52.655 179.687 52.979 179.939C53.309 180.185 53.696 180.377 54.14 180.515C54.584 180.653 55.043 180.722 55.517 180.722C56.057 180.722 56.558 180.635 57.02 180.461C57.488 180.281 57.866 180.032 58.154 179.714C58.442 179.396 58.586 179.024 58.586 178.598C58.586 178.16 58.436 177.803 58.136 177.527C57.836 177.245 57.452 177.023 56.984 176.861C56.516 176.693 56.027 176.564 55.517 176.474C54.647 176.33 53.867 176.126 53.177 175.862C52.493 175.592 51.95 175.217 51.548 174.737C51.152 174.257 50.954 173.624 50.954 172.838C50.954 172.106 51.164 171.467 51.584 170.921C52.01 170.375 52.571 169.952 53.267 169.652C53.963 169.352 54.713 169.202 55.517 169.202C56.183 169.202 56.828 169.307 57.452 169.517C58.082 169.721 58.637 170.021 59.117 170.417C59.597 170.813 59.942 171.296 60.152 171.866L58.721 172.388C58.601 172.046 58.376 171.752 58.046 171.506C57.722 171.254 57.338 171.062 56.894 170.93C56.456 170.792 55.997 170.723 55.517 170.723C54.983 170.717 54.485 170.804 54.023 170.984C53.561 171.164 53.186 171.413 52.898 171.731C52.61 172.049 52.466 172.418 52.466 172.838C52.466 173.342 52.598 173.729 52.862 173.999C53.132 174.263 53.498 174.461 53.96 174.593C54.422 174.725 54.941 174.842 55.517 174.944C56.333 175.082 57.089 175.301 57.785 175.601C58.481 175.895 59.039 176.288 59.459 176.78C59.885 177.272 60.098 177.878 60.098 178.598C60.098 179.33 59.885 179.969 59.459 180.515C59.039 181.061 58.481 181.484 57.785 181.784C57.089 182.084 56.333 182.234 55.517 182.234ZM69.2144 173H70.7264V182H69.2144L69.1514 180.479C68.8694 181.001 68.4794 181.424 67.9814 181.748C67.4894 182.072 66.9014 182.234 66.2174 182.234C65.5574 182.234 64.9394 182.111 64.3634 181.865C63.7874 181.613 63.2774 181.268 62.8334 180.83C62.3954 180.386 62.0534 179.876 61.8074 179.3C61.5614 178.724 61.4384 178.103 61.4384 177.437C61.4384 176.795 61.5584 176.189 61.7984 175.619C62.0384 175.049 62.3714 174.551 62.7974 174.125C63.2294 173.693 63.7274 173.357 64.2914 173.117C64.8554 172.871 65.4614 172.748 66.1094 172.748C66.8174 172.748 67.4384 172.916 67.9724 173.252C68.5064 173.582 68.9384 174.011 69.2684 174.539L69.2144 173ZM66.1904 180.767C66.7844 180.767 67.2974 180.623 67.7294 180.335C68.1674 180.041 68.5034 179.645 68.7374 179.147C68.9774 178.649 69.0974 178.1 69.0974 177.5C69.0974 176.888 68.9774 176.336 68.7374 175.844C68.4974 175.346 68.1584 174.953 67.7204 174.665C67.2884 174.371 66.7784 174.224 66.1904 174.224C65.5964 174.224 65.0564 174.371 64.5704 174.665C64.0844 174.959 63.6974 175.355 63.4094 175.853C63.1274 176.345 62.9864 176.894 62.9864 177.5C62.9864 178.106 63.1334 178.658 63.4274 179.156C63.7214 179.648 64.1114 180.041 64.5974 180.335C65.0834 180.623 65.6144 180.767 66.1904 180.767ZM78.4091 173H80.0111L75.0881 186.5H73.4861L75.1151 182L71.8841 173H73.5401L75.8711 179.921L78.4091 173ZM93.1598 173H94.6718V182.288C94.6718 182.882 94.5428 183.434 94.2848 183.944C94.0328 184.46 93.6908 184.907 93.2588 185.285C92.8268 185.669 92.3348 185.966 91.7828 186.176C91.2308 186.392 90.6548 186.5 90.0548 186.5C89.4308 186.5 88.8278 186.359 88.2458 186.077C87.6638 185.801 87.1538 185.429 86.7158 184.961C86.2838 184.499 85.9718 183.98 85.7798 183.404L87.1658 182.774C87.2798 183.188 87.4838 183.56 87.7778 183.89C88.0778 184.226 88.4258 184.49 88.8218 184.682C89.2238 184.88 89.6348 184.979 90.0548 184.979C90.4508 184.979 90.8318 184.91 91.1978 184.772C91.5698 184.634 91.9028 184.442 92.1968 184.196C92.4968 183.956 92.7308 183.671 92.8988 183.341C93.0728 183.017 93.1598 182.666 93.1598 182.288V180.497C92.8538 181.013 92.4488 181.433 91.9448 181.757C91.4468 182.075 90.8648 182.234 90.1988 182.234C89.5628 182.234 88.9658 182.111 88.4078 181.865C87.8498 181.619 87.3608 181.28 86.9408 180.848C86.5208 180.41 86.1908 179.906 85.9508 179.336C85.7108 178.766 85.5908 178.154 85.5908 177.5C85.5908 176.846 85.7108 176.234 85.9508 175.664C86.1908 175.088 86.5208 174.584 86.9408 174.152C87.3608 173.714 87.8498 173.372 88.4078 173.126C88.9658 172.88 89.5628 172.757 90.1988 172.757C90.8648 172.757 91.4468 172.916 91.9448 173.234C92.4488 173.552 92.8538 173.972 93.1598 174.494V173ZM90.2078 180.767C90.7898 180.767 91.2938 180.617 91.7198 180.317C92.1518 180.017 92.4848 179.618 92.7188 179.12C92.9528 178.622 93.0698 178.082 93.0698 177.5C93.0698 176.9 92.9498 176.354 92.7098 175.862C92.4758 175.364 92.1428 174.968 91.7108 174.674C91.2848 174.374 90.7838 174.224 90.2078 174.224C89.6438 174.224 89.1278 174.371 88.6598 174.665C88.1918 174.959 87.8198 175.355 87.5438 175.853C87.2738 176.345 87.1388 176.894 87.1388 177.5C87.1388 178.106 87.2768 178.658 87.5528 179.156C87.8348 179.648 88.2068 180.041 88.6688 180.335C89.1368 180.623 89.6498 180.767 90.2078 180.767ZM100.673 182.234C99.8448 182.234 99.0888 182.021 98.4048 181.595C97.7268 181.169 97.1838 180.599 96.7758 179.885C96.3738 179.165 96.1728 178.37 96.1728 177.5C96.1728 176.84 96.2898 176.225 96.5238 175.655C96.7578 175.079 97.0788 174.575 97.4868 174.143C97.9008 173.705 98.3808 173.363 98.9268 173.117C99.4728 172.871 100.055 172.748 100.673 172.748C101.501 172.748 102.254 172.961 102.932 173.387C103.616 173.813 104.159 174.386 104.561 175.106C104.969 175.826 105.173 176.624 105.173 177.5C105.173 178.154 105.056 178.766 104.822 179.336C104.588 179.906 104.264 180.41 103.85 180.848C103.442 181.28 102.965 181.619 102.419 181.865C101.879 182.111 101.297 182.234 100.673 182.234ZM100.673 180.722C101.237 180.722 101.744 180.575 102.194 180.281C102.65 179.981 103.007 179.588 103.265 179.102C103.529 178.61 103.661 178.076 103.661 177.5C103.661 176.912 103.526 176.372 103.256 175.88C102.992 175.388 102.635 174.995 102.185 174.701C101.735 174.407 101.231 174.26 100.673 174.26C100.109 174.26 99.6018 174.41 99.1518 174.71C98.7018 175.004 98.3448 175.397 98.0808 175.889C97.8168 176.381 97.6848 176.918 97.6848 177.5C97.6848 178.1 97.8198 178.646 98.0898 179.138C98.3598 179.624 98.7228 180.011 99.1788 180.299C99.6348 180.581 100.133 180.722 100.673 180.722ZM110.569 182.234C109.741 182.234 108.985 182.021 108.301 181.595C107.623 181.169 107.08 180.599 106.672 179.885C106.27 179.165 106.069 178.37 106.069 177.5C106.069 176.84 106.186 176.225 106.42 175.655C106.654 175.079 106.975 174.575 107.383 174.143C107.797 173.705 108.277 173.363 108.823 173.117C109.369 172.871 109.951 172.748 110.569 172.748C111.397 172.748 112.15 172.961 112.828 173.387C113.512 173.813 114.055 174.386 114.457 175.106C114.865 175.826 115.069 176.624 115.069 177.5C115.069 178.154 114.952 178.766 114.718 179.336C114.484 179.906 114.16 180.41 113.746 180.848C113.338 181.28 112.861 181.619 112.315 181.865C111.775 182.111 111.193 182.234 110.569 182.234ZM110.569 180.722C111.133 180.722 111.64 180.575 112.09 180.281C112.546 179.981 112.903 179.588 113.161 179.102C113.425 178.61 113.557 178.076 113.557 177.5C113.557 176.912 113.422 176.372 113.152 175.88C112.888 175.388 112.531 174.995 112.081 174.701C111.631 174.407 111.127 174.26 110.569 174.26C110.005 174.26 109.498 174.41 109.048 174.71C108.598 175.004 108.241 175.397 107.977 175.889C107.713 176.381 107.581 176.918 107.581 177.5C107.581 178.1 107.716 178.646 107.986 179.138C108.256 179.624 108.619 180.011 109.075 180.299C109.531 180.581 110.029 180.722 110.569 180.722ZM123.751 168.5H125.263V182H123.751V180.47C123.445 180.998 123.034 181.424 122.518 181.748C122.002 182.072 121.396 182.234 120.7 182.234C120.046 182.234 119.434 182.111 118.864 181.865C118.294 181.619 117.79 181.28 117.352 180.848C116.92 180.41 116.581 179.906 116.335 179.336C116.089 178.766 115.966 178.154 115.966 177.5C115.966 176.846 116.089 176.234 116.335 175.664C116.581 175.088 116.92 174.584 117.352 174.152C117.79 173.714 118.294 173.372 118.864 173.126C119.434 172.88 120.046 172.757 120.7 172.757C121.396 172.757 122.002 172.919 122.518 173.243C123.034 173.567 123.445 173.993 123.751 174.521V168.5ZM120.718 180.767C121.312 180.767 121.825 180.623 122.257 180.335C122.695 180.041 123.031 179.645 123.265 179.147C123.505 178.649 123.625 178.1 123.625 177.5C123.625 176.888 123.505 176.336 123.265 175.844C123.025 175.346 122.686 174.953 122.248 174.665C121.816 174.371 121.306 174.224 120.718 174.224C120.124 174.224 119.584 174.371 119.098 174.665C118.618 174.959 118.234 175.355 117.946 175.853C117.658 176.345 117.514 176.894 117.514 177.5C117.514 178.106 117.661 178.658 117.955 179.156C118.249 179.648 118.639 180.041 119.125 180.335C119.611 180.623 120.142 180.767 120.718 180.767ZM131.976 172.748C132.852 172.748 133.647 172.961 134.361 173.387C135.081 173.813 135.654 174.386 136.08 175.106C136.506 175.82 136.719 176.615 136.719 177.491C136.719 178.145 136.596 178.76 136.35 179.336C136.104 179.906 135.762 180.41 135.324 180.848C134.892 181.28 134.388 181.619 133.812 181.865C133.242 182.111 132.63 182.234 131.976 182.234C131.28 182.234 130.674 182.072 130.158 181.748C129.648 181.418 129.24 180.989 128.934 180.461V182H127.422V168.5H128.934V174.521C129.24 173.993 129.648 173.567 130.158 173.243C130.674 172.913 131.28 172.748 131.976 172.748ZM131.958 180.758C132.552 180.758 133.092 180.611 133.578 180.317C134.064 180.023 134.451 179.63 134.739 179.138C135.027 178.64 135.171 178.091 135.171 177.491C135.171 176.879 135.024 176.327 134.73 175.835C134.436 175.337 134.046 174.944 133.56 174.656C133.074 174.362 132.54 174.215 131.958 174.215C131.37 174.215 130.857 174.362 130.419 174.656C129.987 174.95 129.651 175.346 129.411 175.844C129.177 176.342 129.06 176.891 129.06 177.491C129.06 178.097 129.177 178.649 129.411 179.147C129.651 179.639 129.99 180.032 130.428 180.326C130.866 180.614 131.376 180.758 131.958 180.758ZM143.905 173H145.507L140.584 186.5H138.982L140.611 182L137.38 173H139.036L141.367 179.921L143.905 173ZM150.63 182.234C149.802 182.234 149.046 182.021 148.362 181.595C147.684 181.169 147.141 180.599 146.733 179.885C146.331 179.165 146.13 178.37 146.13 177.5C146.13 176.84 146.247 176.225 146.481 175.655C146.715 175.079 147.036 174.575 147.444 174.143C147.858 173.705 148.338 173.363 148.884 173.117C149.43 172.871 150.012 172.748 150.63 172.748C151.308 172.748 151.929 172.886 152.493 173.162C153.063 173.432 153.549 173.81 153.951 174.296C154.359 174.782 154.662 175.346 154.86 175.988C155.064 176.63 155.139 177.317 155.085 178.049H147.741C147.813 178.559 147.981 179.015 148.245 179.417C148.509 179.813 148.845 180.128 149.253 180.362C149.667 180.596 150.126 180.716 150.63 180.722C151.17 180.722 151.659 180.584 152.097 180.308C152.535 180.026 152.889 179.642 153.159 179.156L154.698 179.516C154.338 180.314 153.795 180.968 153.069 181.478C152.343 181.982 151.53 182.234 150.63 182.234ZM147.696 176.861H153.564C153.516 176.357 153.354 175.898 153.078 175.484C152.802 175.064 152.451 174.728 152.025 174.476C151.599 174.224 151.134 174.098 150.63 174.098C150.126 174.098 149.664 174.221 149.244 174.467C148.824 174.713 148.476 175.046 148.2 175.466C147.93 175.88 147.762 176.345 147.696 176.861ZM165.711 174.512H163.668L163.659 182H162.147L162.156 174.512H160.608V173H162.156L162.147 170.174H163.659L163.668 173H165.711V174.512ZM171.056 182.234C170.228 182.234 169.472 182.021 168.788 181.595C168.11 181.169 167.567 180.599 167.159 179.885C166.757 179.165 166.556 178.37 166.556 177.5C166.556 176.84 166.673 176.225 166.907 175.655C167.141 175.079 167.462 174.575 167.87 174.143C168.284 173.705 168.764 173.363 169.31 173.117C169.856 172.871 170.438 172.748 171.056 172.748C171.884 172.748 172.637 172.961 173.315 173.387C173.999 173.813 174.542 174.386 174.944 175.106C175.352 175.826 175.556 176.624 175.556 177.5C175.556 178.154 175.439 178.766 175.205 179.336C174.971 179.906 174.647 180.41 174.233 180.848C173.825 181.28 173.348 181.619 172.802 181.865C172.262 182.111 171.68 182.234 171.056 182.234ZM171.056 180.722C171.62 180.722 172.127 180.575 172.577 180.281C173.033 179.981 173.39 179.588 173.648 179.102C173.912 178.61 174.044 178.076 174.044 177.5C174.044 176.912 173.909 176.372 173.639 175.88C173.375 175.388 173.018 174.995 172.568 174.701C172.118 174.407 171.614 174.26 171.056 174.26C170.492 174.26 169.985 174.41 169.535 174.71C169.085 175.004 168.728 175.397 168.464 175.889C168.2 176.381 168.068 176.918 168.068 177.5C168.068 178.1 168.203 178.646 168.473 179.138C168.743 179.624 169.106 180.011 169.562 180.299C170.018 180.581 170.516 180.722 171.056 180.722ZM183.004 186.5H181.492V173H183.004V174.539C183.31 174.011 183.718 173.585 184.228 173.261C184.738 172.931 185.344 172.766 186.046 172.766C186.7 172.766 187.312 172.889 187.882 173.135C188.458 173.381 188.962 173.723 189.394 174.161C189.826 174.593 190.165 175.094 190.411 175.664C190.657 176.234 190.78 176.846 190.78 177.5C190.78 178.154 190.657 178.769 190.411 179.345C190.165 179.921 189.826 180.428 189.394 180.866C188.962 181.298 188.458 181.637 187.882 181.883C187.312 182.129 186.7 182.252 186.046 182.252C185.344 182.252 184.738 182.09 184.228 181.766C183.718 181.436 183.31 181.007 183.004 180.479V186.5ZM186.028 174.233C185.446 174.233 184.936 174.38 184.498 174.674C184.06 174.968 183.721 175.361 183.481 175.853C183.247 176.345 183.13 176.894 183.13 177.5C183.13 178.1 183.247 178.649 183.481 179.147C183.721 179.645 184.057 180.041 184.489 180.335C184.927 180.629 185.44 180.776 186.028 180.776C186.61 180.776 187.144 180.632 187.63 180.344C188.116 180.05 188.506 179.657 188.8 179.165C189.094 178.667 189.241 178.112 189.241 177.5C189.241 176.9 189.097 176.354 188.809 175.862C188.521 175.364 188.134 174.968 187.648 174.674C187.162 174.38 186.622 174.233 186.028 174.233ZM192.285 182V173H193.797V174.125C194.115 173.705 194.517 173.372 195.003 173.126C195.489 172.874 196.017 172.748 196.587 172.748C196.935 172.748 197.271 172.793 197.595 172.883L196.983 174.395C196.737 174.317 196.497 174.278 196.263 174.278C195.813 174.278 195.399 174.389 195.021 174.611C194.649 174.827 194.352 175.121 194.13 175.493C193.908 175.865 193.797 176.279 193.797 176.735V182H192.285ZM202.204 182.234C201.376 182.234 200.62 182.021 199.936 181.595C199.258 181.169 198.715 180.599 198.307 179.885C197.905 179.165 197.704 178.37 197.704 177.5C197.704 176.84 197.821 176.225 198.055 175.655C198.289 175.079 198.61 174.575 199.018 174.143C199.432 173.705 199.912 173.363 200.458 173.117C201.004 172.871 201.586 172.748 202.204 172.748C203.032 172.748 203.785 172.961 204.463 173.387C205.147 173.813 205.69 174.386 206.092 175.106C206.5 175.826 206.704 176.624 206.704 177.5C206.704 178.154 206.587 178.766 206.353 179.336C206.119 179.906 205.795 180.41 205.381 180.848C204.973 181.28 204.496 181.619 203.95 181.865C203.41 182.111 202.828 182.234 202.204 182.234ZM202.204 180.722C202.768 180.722 203.275 180.575 203.725 180.281C204.181 179.981 204.538 179.588 204.796 179.102C205.06 178.61 205.192 178.076 205.192 177.5C205.192 176.912 205.057 176.372 204.787 175.88C204.523 175.388 204.166 174.995 203.716 174.701C203.266 174.407 202.762 174.26 202.204 174.26C201.64 174.26 201.133 174.41 200.683 174.71C200.233 175.004 199.876 175.397 199.612 175.889C199.348 176.381 199.216 176.918 199.216 177.5C199.216 178.1 199.351 178.646 199.621 179.138C199.891 179.624 200.254 180.011 200.71 180.299C201.166 180.581 201.664 180.722 202.204 180.722ZM209.705 186.5H208.193V173H209.705V174.539C210.011 174.011 210.419 173.585 210.929 173.261C211.439 172.931 212.045 172.766 212.747 172.766C213.401 172.766 214.013 172.889 214.583 173.135C215.159 173.381 215.663 173.723 216.095 174.161C216.527 174.593 216.866 175.094 217.112 175.664C217.358 176.234 217.481 176.846 217.481 177.5C217.481 178.154 217.358 178.769 217.112 179.345C216.866 179.921 216.527 180.428 216.095 180.866C215.663 181.298 215.159 181.637 214.583 181.883C214.013 182.129 213.401 182.252 212.747 182.252C212.045 182.252 211.439 182.09 210.929 181.766C210.419 181.436 210.011 181.007 209.705 180.479V186.5ZM212.729 174.233C212.147 174.233 211.637 174.38 211.199 174.674C210.761 174.968 210.422 175.361 210.182 175.853C209.948 176.345 209.831 176.894 209.831 177.5C209.831 178.1 209.948 178.649 210.182 179.147C210.422 179.645 210.758 180.041 211.19 180.335C211.628 180.629 212.141 180.776 212.729 180.776C213.311 180.776 213.845 180.632 214.331 180.344C214.817 180.05 215.207 179.657 215.501 179.165C215.795 178.667 215.942 178.112 215.942 177.5C215.942 176.9 215.798 176.354 215.51 175.862C215.222 175.364 214.835 174.968 214.349 174.674C213.863 174.38 213.323 174.233 212.729 174.233ZM222.894 182.234C222.066 182.234 221.31 182.021 220.626 181.595C219.948 181.169 219.405 180.599 218.997 179.885C218.595 179.165 218.394 178.37 218.394 177.5C218.394 176.84 218.511 176.225 218.745 175.655C218.979 175.079 219.3 174.575 219.708 174.143C220.122 173.705 220.602 173.363 221.148 173.117C221.694 172.871 222.276 172.748 222.894 172.748C223.572 172.748 224.193 172.886 224.757 173.162C225.327 173.432 225.813 173.81 226.215 174.296C226.623 174.782 226.926 175.346 227.124 175.988C227.328 176.63 227.403 177.317 227.349 178.049H220.005C220.077 178.559 220.245 179.015 220.509 179.417C220.773 179.813 221.109 180.128 221.517 180.362C221.931 180.596 222.39 180.716 222.894 180.722C223.434 180.722 223.923 180.584 224.361 180.308C224.799 180.026 225.153 179.642 225.423 179.156L226.962 179.516C226.602 180.314 226.059 180.968 225.333 181.478C224.607 181.982 223.794 182.234 222.894 182.234ZM219.96 176.861H225.828C225.78 176.357 225.618 175.898 225.342 175.484C225.066 175.064 224.715 174.728 224.289 174.476C223.863 174.224 223.398 174.098 222.894 174.098C222.39 174.098 221.928 174.221 221.508 174.467C221.088 174.713 220.74 175.046 220.464 175.466C220.194 175.88 220.026 176.345 219.96 176.861ZM228.865 182V173H230.377V174.125C230.695 173.705 231.097 173.372 231.583 173.126C232.069 172.874 232.597 172.748 233.167 172.748C233.515 172.748 233.851 172.793 234.175 172.883L233.563 174.395C233.317 174.317 233.077 174.278 232.843 174.278C232.393 174.278 231.979 174.389 231.601 174.611C231.229 174.827 230.932 175.121 230.71 175.493C230.488 175.865 230.377 176.279 230.377 176.735V182H228.865ZM240.101 174.512H238.058L238.049 182H236.537L236.546 174.512H234.998V173H236.546L236.537 170.174H238.049L238.058 173H240.101V174.512ZM247.669 173H249.271L244.348 186.5H242.746L244.375 182L241.144 173H242.8L245.131 179.921L247.669 173ZM255.391 182V173H256.903V174.125C257.221 173.705 257.62 173.372 258.1 173.126C258.586 172.874 259.114 172.748 259.684 172.748C260.35 172.748 260.959 172.91 261.511 173.234C262.063 173.558 262.498 173.987 262.816 174.521C263.134 173.987 263.566 173.558 264.112 173.234C264.664 172.91 265.27 172.748 265.93 172.748C266.608 172.748 267.223 172.913 267.775 173.243C268.327 173.567 268.765 174.005 269.089 174.557C269.419 175.109 269.584 175.724 269.584 176.402V182H268.072V176.762C268.072 176.318 267.964 175.907 267.748 175.529C267.532 175.151 267.241 174.848 266.875 174.62C266.509 174.392 266.104 174.278 265.66 174.278C265.216 174.278 264.811 174.386 264.445 174.602C264.079 174.812 263.788 175.106 263.572 175.484C263.356 175.856 263.248 176.282 263.248 176.762V182H261.736V176.762C261.736 176.282 261.628 175.856 261.412 175.484C261.196 175.106 260.902 174.812 260.53 174.602C260.164 174.386 259.759 174.278 259.315 174.278C258.877 174.278 258.472 174.392 258.1 174.62C257.734 174.848 257.443 175.151 257.227 175.529C257.011 175.907 256.903 176.318 256.903 176.762V182H255.391ZM278.447 173H279.959V182H278.447L278.384 180.479C278.102 181.001 277.712 181.424 277.214 181.748C276.722 182.072 276.134 182.234 275.45 182.234C274.79 182.234 274.172 182.111 273.596 181.865C273.02 181.613 272.51 181.268 272.066 180.83C271.628 180.386 271.286 179.876 271.04 179.3C270.794 178.724 270.671 178.103 270.671 177.437C270.671 176.795 270.791 176.189 271.031 175.619C271.271 175.049 271.604 174.551 272.03 174.125C272.462 173.693 272.96 173.357 273.524 173.117C274.088 172.871 274.694 172.748 275.342 172.748C276.05 172.748 276.671 172.916 277.205 173.252C277.739 173.582 278.171 174.011 278.501 174.539L278.447 173ZM275.423 180.767C276.017 180.767 276.53 180.623 276.962 180.335C277.4 180.041 277.736 179.645 277.97 179.147C278.21 178.649 278.33 178.1 278.33 177.5C278.33 176.888 278.21 176.336 277.97 175.844C277.73 175.346 277.391 174.953 276.953 174.665C276.521 174.371 276.011 174.224 275.423 174.224C274.829 174.224 274.289 174.371 273.803 174.665C273.317 174.959 272.93 175.355 272.642 175.853C272.36 176.345 272.219 176.894 272.219 177.5C272.219 178.106 272.366 178.658 272.66 179.156C272.954 179.648 273.344 180.041 273.83 180.335C274.316 180.623 274.847 180.767 275.423 180.767ZM281.758 173H283.27V182H281.758V173ZM282.532 171.533C282.292 171.533 282.091 171.455 281.929 171.299C281.767 171.143 281.686 170.948 281.686 170.714C281.686 170.48 281.767 170.285 281.929 170.129C282.091 169.973 282.289 169.895 282.523 169.895C282.757 169.895 282.955 169.973 283.117 170.129C283.279 170.285 283.36 170.48 283.36 170.714C283.36 170.948 283.279 171.143 283.117 171.299C282.961 171.455 282.766 171.533 282.532 171.533ZM293.352 176.402V182H291.84V176.735C291.84 176.279 291.729 175.865 291.507 175.493C291.285 175.121 290.988 174.827 290.616 174.611C290.244 174.389 289.83 174.278 289.374 174.278C288.924 174.278 288.51 174.389 288.132 174.611C287.76 174.827 287.463 175.121 287.241 175.493C287.019 175.865 286.908 176.279 286.908 176.735V182H285.396V173H286.908V174.125C287.226 173.705 287.628 173.372 288.114 173.126C288.6 172.874 289.128 172.748 289.698 172.748C290.37 172.748 290.982 172.913 291.534 173.243C292.092 173.567 292.533 174.005 292.857 174.557C293.187 175.109 293.352 175.724 293.352 176.402ZM299.814 174.512H297.771L297.762 182H296.25L296.259 174.512H294.711V173H296.259L296.25 170.174H297.762L297.771 173H299.814V174.512ZM305.159 182.234C304.331 182.234 303.575 182.021 302.891 181.595C302.213 181.169 301.67 180.599 301.262 179.885C300.86 179.165 300.659 178.37 300.659 177.5C300.659 176.84 300.776 176.225 301.01 175.655C301.244 175.079 301.565 174.575 301.973 174.143C302.387 173.705 302.867 173.363 303.413 173.117C303.959 172.871 304.541 172.748 305.159 172.748C305.837 172.748 306.458 172.886 307.022 173.162C307.592 173.432 308.078 173.81 308.48 174.296C308.888 174.782 309.191 175.346 309.389 175.988C309.593 176.63 309.668 177.317 309.614 178.049H302.27C302.342 178.559 302.51 179.015 302.774 179.417C303.038 179.813 303.374 180.128 303.782 180.362C304.196 180.596 304.655 180.716 305.159 180.722C305.699 180.722 306.188 180.584 306.626 180.308C307.064 180.026 307.418 179.642 307.688 179.156L309.227 179.516C308.867 180.314 308.324 180.968 307.598 181.478C306.872 181.982 306.059 182.234 305.159 182.234ZM302.225 176.861H308.093C308.045 176.357 307.883 175.898 307.607 175.484C307.331 175.064 306.98 174.728 306.554 174.476C306.128 174.224 305.663 174.098 305.159 174.098C304.655 174.098 304.193 174.221 303.773 174.467C303.353 174.713 303.005 175.046 302.729 175.466C302.459 175.88 302.291 176.345 302.225 176.861ZM319.087 176.402V182H317.575V176.735C317.575 176.279 317.464 175.865 317.242 175.493C317.02 175.121 316.723 174.827 316.351 174.611C315.979 174.389 315.565 174.278 315.109 174.278C314.659 174.278 314.245 174.389 313.867 174.611C313.495 174.827 313.198 175.121 312.976 175.493C312.754 175.865 312.643 176.279 312.643 176.735V182H311.131V173H312.643V174.125C312.961 173.705 313.363 173.372 313.849 173.126C314.335 172.874 314.863 172.748 315.433 172.748C316.105 172.748 316.717 172.913 317.269 173.243C317.827 173.567 318.268 174.005 318.592 174.557C318.922 175.109 319.087 175.724 319.087 176.402ZM327.947 173H329.459V182H327.947L327.884 180.479C327.602 181.001 327.212 181.424 326.714 181.748C326.222 182.072 325.634 182.234 324.95 182.234C324.29 182.234 323.672 182.111 323.096 181.865C322.52 181.613 322.01 181.268 321.566 180.83C321.128 180.386 320.786 179.876 320.54 179.3C320.294 178.724 320.171 178.103 320.171 177.437C320.171 176.795 320.291 176.189 320.531 175.619C320.771 175.049 321.104 174.551 321.53 174.125C321.962 173.693 322.46 173.357 323.024 173.117C323.588 172.871 324.194 172.748 324.842 172.748C325.55 172.748 326.171 172.916 326.705 173.252C327.239 173.582 327.671 174.011 328.001 174.539L327.947 173ZM324.923 180.767C325.517 180.767 326.03 180.623 326.462 180.335C326.9 180.041 327.236 179.645 327.47 179.147C327.71 178.649 327.83 178.1 327.83 177.5C327.83 176.888 327.71 176.336 327.47 175.844C327.23 175.346 326.891 174.953 326.453 174.665C326.021 174.371 325.511 174.224 324.923 174.224C324.329 174.224 323.789 174.371 323.303 174.665C322.817 174.959 322.43 175.355 322.142 175.853C321.86 176.345 321.719 176.894 321.719 177.5C321.719 178.106 321.866 178.658 322.16 179.156C322.454 179.648 322.844 180.041 323.33 180.335C323.816 180.623 324.347 180.767 324.923 180.767ZM339.214 176.402V182H337.702V176.735C337.702 176.279 337.591 175.865 337.369 175.493C337.147 175.121 336.85 174.827 336.478 174.611C336.106 174.389 335.692 174.278 335.236 174.278C334.786 174.278 334.372 174.389 333.994 174.611C333.622 174.827 333.325 175.121 333.103 175.493C332.881 175.865 332.77 176.279 332.77 176.735V182H331.258V173H332.77V174.125C333.088 173.705 333.49 173.372 333.976 173.126C334.462 172.874 334.99 172.748 335.56 172.748C336.232 172.748 336.844 172.913 337.396 173.243C337.954 173.567 338.395 174.005 338.719 174.557C339.049 175.109 339.214 175.724 339.214 176.402ZM347.039 179.624L348.389 180.353C347.981 180.923 347.462 181.379 346.832 181.721C346.208 182.063 345.53 182.234 344.798 182.234C343.97 182.234 343.214 182.021 342.53 181.595C341.852 181.169 341.309 180.599 340.901 179.885C340.499 179.165 340.298 178.37 340.298 177.5C340.298 176.84 340.415 176.225 340.649 175.655C340.883 175.079 341.204 174.575 341.612 174.143C342.026 173.705 342.506 173.363 343.052 173.117C343.598 172.871 344.18 172.748 344.798 172.748C345.53 172.748 346.208 172.919 346.832 173.261C347.462 173.603 347.981 174.062 348.389 174.638L347.039 175.367C346.751 175.013 346.409 174.74 346.013 174.548C345.617 174.356 345.212 174.26 344.798 174.26C344.24 174.26 343.733 174.41 343.277 174.71C342.827 175.004 342.47 175.397 342.206 175.889C341.942 176.381 341.81 176.918 341.81 177.5C341.81 178.082 341.942 178.619 342.206 179.111C342.476 179.597 342.836 179.987 343.286 180.281C343.742 180.575 344.246 180.722 344.798 180.722C345.242 180.722 345.659 180.62 346.049 180.416C346.439 180.212 346.769 179.948 347.039 179.624ZM353.815 182.234C352.987 182.234 352.231 182.021 351.547 181.595C350.869 181.169 350.326 180.599 349.918 179.885C349.516 179.165 349.315 178.37 349.315 177.5C349.315 176.84 349.432 176.225 349.666 175.655C349.9 175.079 350.221 174.575 350.629 174.143C351.043 173.705 351.523 173.363 352.069 173.117C352.615 172.871 353.197 172.748 353.815 172.748C354.493 172.748 355.114 172.886 355.678 173.162C356.248 173.432 356.734 173.81 357.136 174.296C357.544 174.782 357.847 175.346 358.045 175.988C358.249 176.63 358.324 177.317 358.27 178.049H350.926C350.998 178.559 351.166 179.015 351.43 179.417C351.694 179.813 352.03 180.128 352.438 180.362C352.852 180.596 353.311 180.716 353.815 180.722C354.355 180.722 354.844 180.584 355.282 180.308C355.72 180.026 356.074 179.642 356.344 179.156L357.883 179.516C357.523 180.314 356.98 180.968 356.254 181.478C355.528 181.982 354.715 182.234 353.815 182.234ZM350.881 176.861H356.749C356.701 176.357 356.539 175.898 356.263 175.484C355.987 175.064 355.636 174.728 355.21 174.476C354.784 174.224 354.319 174.098 353.815 174.098C353.311 174.098 352.849 174.221 352.429 174.467C352.009 174.713 351.661 175.046 351.385 175.466C351.115 175.88 350.947 176.345 350.881 176.861ZM372.19 176.402V182H370.678V176.735C370.678 176.279 370.567 175.865 370.345 175.493C370.123 175.121 369.826 174.827 369.454 174.611C369.082 174.389 368.668 174.278 368.212 174.278C367.762 174.278 367.348 174.389 366.97 174.611C366.598 174.827 366.301 175.121 366.079 175.493C365.857 175.865 365.746 176.279 365.746 176.735V182H364.234V168.5H365.746V174.125C366.064 173.705 366.466 173.372 366.952 173.126C367.438 172.874 367.966 172.748 368.536 172.748C369.208 172.748 369.82 172.913 370.372 173.243C370.93 173.567 371.371 174.005 371.695 174.557C372.025 175.109 372.19 175.724 372.19 176.402ZM377.774 182.234C376.946 182.234 376.19 182.021 375.506 181.595C374.828 181.169 374.285 180.599 373.877 179.885C373.475 179.165 373.274 178.37 373.274 177.5C373.274 176.84 373.391 176.225 373.625 175.655C373.859 175.079 374.18 174.575 374.588 174.143C375.002 173.705 375.482 173.363 376.028 173.117C376.574 172.871 377.156 172.748 377.774 172.748C378.452 172.748 379.073 172.886 379.637 173.162C380.207 173.432 380.693 173.81 381.095 174.296C381.503 174.782 381.806 175.346 382.004 175.988C382.208 176.63 382.283 177.317 382.229 178.049H374.885C374.957 178.559 375.125 179.015 375.389 179.417C375.653 179.813 375.989 180.128 376.397 180.362C376.811 180.596 377.27 180.716 377.774 180.722C378.314 180.722 378.803 180.584 379.241 180.308C379.679 180.026 380.033 179.642 380.303 179.156L381.842 179.516C381.482 180.314 380.939 180.968 380.213 181.478C379.487 181.982 378.674 182.234 377.774 182.234ZM374.84 176.861H380.708C380.66 176.357 380.498 175.898 380.222 175.484C379.946 175.064 379.595 174.728 379.169 174.476C378.743 174.224 378.278 174.098 377.774 174.098C377.27 174.098 376.808 174.221 376.388 174.467C375.968 174.713 375.62 175.046 375.344 175.466C375.074 175.88 374.906 176.345 374.84 176.861ZM390.929 173H392.441V182H390.929L390.866 180.479C390.584 181.001 390.194 181.424 389.696 181.748C389.204 182.072 388.616 182.234 387.932 182.234C387.272 182.234 386.654 182.111 386.078 181.865C385.502 181.613 384.992 181.268 384.548 180.83C384.11 180.386 383.768 179.876 383.522 179.3C383.276 178.724 383.153 178.103 383.153 177.437C383.153 176.795 383.273 176.189 383.513 175.619C383.753 175.049 384.086 174.551 384.512 174.125C384.944 173.693 385.442 173.357 386.006 173.117C386.57 172.871 387.176 172.748 387.824 172.748C388.532 172.748 389.153 172.916 389.687 173.252C390.221 173.582 390.653 174.011 390.983 174.539L390.929 173ZM387.905 180.767C388.499 180.767 389.012 180.623 389.444 180.335C389.882 180.041 390.218 179.645 390.452 179.147C390.692 178.649 390.812 178.1 390.812 177.5C390.812 176.888 390.692 176.336 390.452 175.844C390.212 175.346 389.873 174.953 389.435 174.665C389.003 174.371 388.493 174.224 387.905 174.224C387.311 174.224 386.771 174.371 386.285 174.665C385.799 174.959 385.412 175.355 385.124 175.853C384.842 176.345 384.701 176.894 384.701 177.5C384.701 178.106 384.848 178.658 385.142 179.156C385.436 179.648 385.826 180.041 386.312 180.335C386.798 180.623 387.329 180.767 387.905 180.767ZM401.309 168.5H402.821V182H401.309V180.47C401.003 180.998 400.592 181.424 400.076 181.748C399.56 182.072 398.954 182.234 398.258 182.234C397.604 182.234 396.992 182.111 396.422 181.865C395.852 181.619 395.348 181.28 394.91 180.848C394.478 180.41 394.139 179.906 393.893 179.336C393.647 178.766 393.524 178.154 393.524 177.5C393.524 176.846 393.647 176.234 393.893 175.664C394.139 175.088 394.478 174.584 394.91 174.152C395.348 173.714 395.852 173.372 396.422 173.126C396.992 172.88 397.604 172.757 398.258 172.757C398.954 172.757 399.56 172.919 400.076 173.243C400.592 173.567 401.003 173.993 401.309 174.521V168.5ZM398.276 180.767C398.87 180.767 399.383 180.623 399.815 180.335C400.253 180.041 400.589 179.645 400.823 179.147C401.063 178.649 401.183 178.1 401.183 177.5C401.183 176.888 401.063 176.336 400.823 175.844C400.583 175.346 400.244 174.953 399.806 174.665C399.374 174.371 398.864 174.224 398.276 174.224C397.682 174.224 397.142 174.371 396.656 174.665C396.176 174.959 395.792 175.355 395.504 175.853C395.216 176.345 395.072 176.894 395.072 177.5C395.072 178.106 395.219 178.658 395.513 179.156C395.807 179.648 396.197 180.041 396.683 180.335C397.169 180.623 397.7 180.767 398.276 180.767ZM412.129 173H413.641V182H412.129L412.066 180.479C411.784 181.001 411.394 181.424 410.896 181.748C410.404 182.072 409.816 182.234 409.132 182.234C408.472 182.234 407.854 182.111 407.278 181.865C406.702 181.613 406.192 181.268 405.748 180.83C405.31 180.386 404.968 179.876 404.722 179.3C404.476 178.724 404.353 178.103 404.353 177.437C404.353 176.795 404.473 176.189 404.713 175.619C404.953 175.049 405.286 174.551 405.712 174.125C406.144 173.693 406.642 173.357 407.206 173.117C407.77 172.871 408.376 172.748 409.024 172.748C409.732 172.748 410.353 172.916 410.887 173.252C411.421 173.582 411.853 174.011 412.183 174.539L412.129 173ZM409.104 180.767C409.699 180.767 410.212 180.623 410.644 180.335C411.082 180.041 411.418 179.645 411.652 179.147C411.892 178.649 412.012 178.1 412.012 177.5C412.012 176.888 411.892 176.336 411.652 175.844C411.412 175.346 411.073 174.953 410.635 174.665C410.203 174.371 409.693 174.224 409.104 174.224C408.511 174.224 407.971 174.371 407.485 174.665C406.999 174.959 406.612 175.355 406.324 175.853C406.042 176.345 405.901 176.894 405.901 177.5C405.901 178.106 406.048 178.658 406.342 179.156C406.636 179.648 407.026 180.041 407.512 180.335C407.998 180.623 408.529 180.767 409.104 180.767ZM421.465 179.624L422.815 180.353C422.407 180.923 421.888 181.379 421.258 181.721C420.634 182.063 419.956 182.234 419.224 182.234C418.396 182.234 417.64 182.021 416.956 181.595C416.278 181.169 415.735 180.599 415.327 179.885C414.925 179.165 414.724 178.37 414.724 177.5C414.724 176.84 414.841 176.225 415.075 175.655C415.309 175.079 415.63 174.575 416.038 174.143C416.452 173.705 416.932 173.363 417.478 173.117C418.024 172.871 418.606 172.748 419.224 172.748C419.956 172.748 420.634 172.919 421.258 173.261C421.888 173.603 422.407 174.062 422.815 174.638L421.465 175.367C421.177 175.013 420.835 174.74 420.439 174.548C420.043 174.356 419.638 174.26 419.224 174.26C418.666 174.26 418.159 174.41 417.703 174.71C417.253 175.004 416.896 175.397 416.632 175.889C416.368 176.381 416.236 176.918 416.236 177.5C416.236 178.082 416.368 178.619 416.632 179.111C416.902 179.597 417.262 179.987 417.712 180.281C418.168 180.575 418.672 180.722 419.224 180.722C419.668 180.722 420.085 180.62 420.475 180.416C420.865 180.212 421.195 179.948 421.465 179.624ZM432.237 176.402V182H430.725V176.735C430.725 176.279 430.614 175.865 430.392 175.493C430.17 175.121 429.873 174.827 429.501 174.611C429.129 174.389 428.715 174.278 428.259 174.278C427.809 174.278 427.395 174.389 427.017 174.611C426.645 174.827 426.348 175.121 426.126 175.493C425.904 175.865 425.793 176.279 425.793 176.735V182H424.281V168.5H425.793V174.125C426.111 173.705 426.513 173.372 426.999 173.126C427.485 172.874 428.013 172.748 428.583 172.748C429.255 172.748 429.867 172.913 430.419 173.243C430.977 173.567 431.418 174.005 431.742 174.557C432.072 175.109 432.237 175.724 432.237 176.402ZM437.821 182.234C436.993 182.234 436.237 182.021 435.553 181.595C434.875 181.169 434.332 180.599 433.924 179.885C433.522 179.165 433.321 178.37 433.321 177.5C433.321 176.84 433.438 176.225 433.672 175.655C433.906 175.079 434.227 174.575 434.635 174.143C435.049 173.705 435.529 173.363 436.075 173.117C436.621 172.871 437.203 172.748 437.821 172.748C438.499 172.748 439.12 172.886 439.684 173.162C440.254 173.432 440.74 173.81 441.142 174.296C441.55 174.782 441.853 175.346 442.051 175.988C442.255 176.63 442.33 177.317 442.276 178.049H434.932C435.004 178.559 435.172 179.015 435.436 179.417C435.7 179.813 436.036 180.128 436.444 180.362C436.858 180.596 437.317 180.716 437.821 180.722C438.361 180.722 438.85 180.584 439.288 180.308C439.726 180.026 440.08 179.642 440.35 179.156L441.889 179.516C441.529 180.314 440.986 180.968 440.26 181.478C439.534 181.982 438.721 182.234 437.821 182.234ZM434.887 176.861H440.755C440.707 176.357 440.545 175.898 440.269 175.484C439.993 175.064 439.642 174.728 439.216 174.476C438.79 174.224 438.325 174.098 437.821 174.098C437.317 174.098 436.855 174.221 436.435 174.467C436.015 174.713 435.667 175.046 435.391 175.466C435.121 175.88 434.953 176.345 434.887 176.861ZM446.573 182.171C446.087 182.153 445.613 182.063 445.151 181.901C444.695 181.733 444.293 181.508 443.945 181.226C443.603 180.938 443.354 180.608 443.198 180.236L444.494 179.678C444.584 179.882 444.746 180.074 444.98 180.254C445.214 180.434 445.484 180.578 445.79 180.686C446.096 180.794 446.405 180.848 446.717 180.848C447.047 180.848 447.356 180.797 447.644 180.695C447.932 180.593 448.166 180.443 448.346 180.245C448.532 180.041 448.625 179.798 448.625 179.516C448.625 179.216 448.523 178.982 448.319 178.814C448.121 178.64 447.869 178.505 447.563 178.409C447.263 178.307 446.957 178.211 446.645 178.121C446.027 177.965 445.475 177.779 444.989 177.563C444.503 177.341 444.119 177.062 443.837 176.726C443.561 176.384 443.423 175.949 443.423 175.421C443.423 174.863 443.576 174.38 443.882 173.972C444.194 173.564 444.602 173.249 445.106 173.027C445.61 172.805 446.15 172.694 446.726 172.694C447.452 172.694 448.115 172.85 448.715 173.162C449.315 173.474 449.762 173.897 450.056 174.431L448.841 175.142C448.739 174.926 448.583 174.737 448.373 174.575C448.163 174.407 447.923 174.275 447.653 174.179C447.383 174.083 447.107 174.032 446.825 174.026C446.477 174.014 446.15 174.059 445.844 174.161C445.544 174.263 445.301 174.419 445.115 174.629C444.935 174.833 444.845 175.088 444.845 175.394C444.845 175.694 444.941 175.922 445.133 176.078C445.331 176.234 445.586 176.36 445.898 176.456C446.216 176.546 446.561 176.651 446.933 176.771C447.479 176.945 447.989 177.146 448.463 177.374C448.937 177.602 449.318 177.887 449.606 178.229C449.9 178.571 450.044 178.994 450.038 179.498C450.038 180.05 449.873 180.533 449.543 180.947C449.213 181.355 448.784 181.667 448.256 181.883C447.734 182.099 447.173 182.195 446.573 182.171ZM452.004 182.234C451.776 182.234 451.581 182.153 451.419 181.991C451.263 181.829 451.185 181.631 451.185 181.397C451.185 181.175 451.263 180.983 451.419 180.821C451.581 180.659 451.776 180.578 452.004 180.578C452.238 180.578 452.436 180.659 452.598 180.821C452.76 180.983 452.841 181.175 452.841 181.397C452.841 181.631 452.76 181.829 452.598 181.991C452.436 182.153 452.238 182.234 452.004 182.234ZM53.726 209L50.504 196.4H52.061L54.599 206.345L57.128 196.4H58.487L61.025 206.345L63.554 196.4H65.111L61.907 209H60.143L57.812 199.874L55.481 209H53.726ZM69.6123 209.234C68.7843 209.234 68.0283 209.021 67.3443 208.595C66.6663 208.169 66.1233 207.599 65.7153 206.885C65.3133 206.165 65.1123 205.37 65.1123 204.5C65.1123 203.84 65.2293 203.225 65.4633 202.655C65.6973 202.079 66.0183 201.575 66.4263 201.143C66.8403 200.705 67.3203 200.363 67.8663 200.117C68.4123 199.871 68.9943 199.748 69.6123 199.748C70.2903 199.748 70.9113 199.886 71.4753 200.162C72.0453 200.432 72.5313 200.81 72.9333 201.296C73.3413 201.782 73.6443 202.346 73.8423 202.988C74.0463 203.63 74.1213 204.317 74.0673 205.049H66.7233C66.7953 205.559 66.9633 206.015 67.2273 206.417C67.4913 206.813 67.8273 207.128 68.2353 207.362C68.6493 207.596 69.1083 207.716 69.6123 207.722C70.1523 207.722 70.6413 207.584 71.0793 207.308C71.5173 207.026 71.8713 206.642 72.1413 206.156L73.6803 206.516C73.3203 207.314 72.7773 207.968 72.0513 208.478C71.3253 208.982 70.5123 209.234 69.6123 209.234ZM66.6783 203.861H72.5463C72.4983 203.357 72.3363 202.898 72.0603 202.484C71.7843 202.064 71.4333 201.728 71.0073 201.476C70.5813 201.224 70.1163 201.098 69.6123 201.098C69.1083 201.098 68.6463 201.221 68.2263 201.467C67.8063 201.713 67.4583 202.046 67.1823 202.466C66.9123 202.88 66.7443 203.345 66.6783 203.861ZM87.9872 203.402V209H86.4752V203.735C86.4752 203.279 86.3642 202.865 86.1422 202.493C85.9202 202.121 85.6232 201.827 85.2512 201.611C84.8792 201.389 84.4652 201.278 84.0092 201.278C83.5592 201.278 83.1452 201.389 82.7672 201.611C82.3952 201.827 82.0982 202.121 81.8762 202.493C81.6542 202.865 81.5432 203.279 81.5432 203.735V209H80.0312V195.5H81.5432V201.125C81.8612 200.705 82.2632 200.372 82.7492 200.126C83.2352 199.874 83.7632 199.748 84.3332 199.748C85.0052 199.748 85.6172 199.913 86.1692 200.243C86.7272 200.567 87.1682 201.005 87.4922 201.557C87.8222 202.109 87.9872 202.724 87.9872 203.402ZM96.8473 200H98.3593V209H96.8473L96.7843 207.479C96.5023 208.001 96.1123 208.424 95.6143 208.748C95.1223 209.072 94.5343 209.234 93.8503 209.234C93.1903 209.234 92.5723 209.111 91.9963 208.865C91.4203 208.613 90.9103 208.268 90.4663 207.83C90.0283 207.386 89.6863 206.876 89.4403 206.3C89.1943 205.724 89.0713 205.103 89.0713 204.437C89.0713 203.795 89.1913 203.189 89.4313 202.619C89.6713 202.049 90.0043 201.551 90.4303 201.125C90.8623 200.693 91.3603 200.357 91.9243 200.117C92.4883 199.871 93.0943 199.748 93.7423 199.748C94.4503 199.748 95.0713 199.916 95.6053 200.252C96.1393 200.582 96.5713 201.011 96.9013 201.539L96.8473 200ZM93.8232 207.767C94.4173 207.767 94.9303 207.623 95.3623 207.335C95.8003 207.041 96.1363 206.645 96.3703 206.147C96.6103 205.649 96.7303 205.1 96.7303 204.5C96.7303 203.888 96.6103 203.336 96.3703 202.844C96.1303 202.346 95.7913 201.953 95.3533 201.665C94.9213 201.371 94.4113 201.224 93.8232 201.224C93.2293 201.224 92.6893 201.371 92.2033 201.665C91.7173 201.959 91.3303 202.355 91.0423 202.853C90.7603 203.345 90.6193 203.894 90.6193 204.5C90.6193 205.106 90.7663 205.658 91.0603 206.156C91.3543 206.648 91.7443 207.041 92.2303 207.335C92.7163 207.623 93.2473 207.767 93.8232 207.767ZM108.114 203.402V209H106.602V203.735C106.602 203.279 106.491 202.865 106.269 202.493C106.047 202.121 105.75 201.827 105.378 201.611C105.006 201.389 104.592 201.278 104.136 201.278C103.686 201.278 103.272 201.389 102.894 201.611C102.522 201.827 102.225 202.121 102.003 202.493C101.781 202.865 101.67 203.279 101.67 203.735V209H100.158V200H101.67V201.125C101.988 200.705 102.39 200.372 102.876 200.126C103.362 199.874 103.89 199.748 104.46 199.748C105.132 199.748 105.744 199.913 106.296 200.243C106.854 200.567 107.295 201.005 107.619 201.557C107.949 202.109 108.114 202.724 108.114 203.402ZM116.983 195.5H118.495V209H116.983V207.47C116.677 207.998 116.266 208.424 115.75 208.748C115.234 209.072 114.628 209.234 113.932 209.234C113.278 209.234 112.666 209.111 112.096 208.865C111.526 208.619 111.022 208.28 110.584 207.848C110.152 207.41 109.813 206.906 109.567 206.336C109.321 205.766 109.198 205.154 109.198 204.5C109.198 203.846 109.321 203.234 109.567 202.664C109.813 202.088 110.152 201.584 110.584 201.152C111.022 200.714 111.526 200.372 112.096 200.126C112.666 199.88 113.278 199.757 113.932 199.757C114.628 199.757 115.234 199.919 115.75 200.243C116.266 200.567 116.677 200.993 116.983 201.521V195.5ZM113.95 207.767C114.544 207.767 115.057 207.623 115.489 207.335C115.927 207.041 116.263 206.645 116.497 206.147C116.737 205.649 116.857 205.1 116.857 204.5C116.857 203.888 116.737 203.336 116.497 202.844C116.257 202.346 115.918 201.953 115.48 201.665C115.048 201.371 114.538 201.224 113.95 201.224C113.356 201.224 112.816 201.371 112.33 201.665C111.85 201.959 111.466 202.355 111.178 202.853C110.89 203.345 110.746 203.894 110.746 204.5C110.746 205.106 110.893 205.658 111.187 206.156C111.481 206.648 111.871 207.041 112.357 207.335C112.843 207.623 113.374 207.767 113.95 207.767ZM120.654 209V195.5H122.166V209H120.654ZM128.2 209.234C127.372 209.234 126.616 209.021 125.932 208.595C125.254 208.169 124.711 207.599 124.303 206.885C123.901 206.165 123.7 205.37 123.7 204.5C123.7 203.84 123.817 203.225 124.051 202.655C124.285 202.079 124.606 201.575 125.014 201.143C125.428 200.705 125.908 200.363 126.454 200.117C127 199.871 127.582 199.748 128.2 199.748C128.878 199.748 129.499 199.886 130.063 200.162C130.633 200.432 131.119 200.81 131.521 201.296C131.929 201.782 132.232 202.346 132.43 202.988C132.634 203.63 132.709 204.317 132.655 205.049H125.311C125.383 205.559 125.551 206.015 125.815 206.417C126.079 206.813 126.415 207.128 126.823 207.362C127.237 207.596 127.696 207.716 128.2 207.722C128.74 207.722 129.229 207.584 129.667 207.308C130.105 207.026 130.459 206.642 130.729 206.156L132.268 206.516C131.908 207.314 131.365 207.968 130.639 208.478C129.913 208.982 129.1 209.234 128.2 209.234ZM125.266 203.861H131.134C131.086 203.357 130.924 202.898 130.648 202.484C130.372 202.064 130.021 201.728 129.595 201.476C129.169 201.224 128.704 201.098 128.2 201.098C127.696 201.098 127.234 201.221 126.814 201.467C126.394 201.713 126.046 202.046 125.77 202.466C125.5 202.88 125.332 203.345 125.266 203.861ZM145.855 200H147.367V209H145.855L145.792 207.479C145.51 208.001 145.12 208.424 144.622 208.748C144.13 209.072 143.542 209.234 142.858 209.234C142.198 209.234 141.58 209.111 141.004 208.865C140.428 208.613 139.918 208.268 139.474 207.83C139.036 207.386 138.694 206.876 138.448 206.3C138.202 205.724 138.079 205.103 138.079 204.437C138.079 203.795 138.199 203.189 138.439 202.619C138.679 202.049 139.012 201.551 139.438 201.125C139.87 200.693 140.368 200.357 140.932 200.117C141.496 199.871 142.102 199.748 142.75 199.748C143.458 199.748 144.079 199.916 144.613 200.252C145.147 200.582 145.579 201.011 145.909 201.539L145.855 200ZM142.831 207.767C143.425 207.767 143.938 207.623 144.37 207.335C144.808 207.041 145.144 206.645 145.378 206.147C145.618 205.649 145.738 205.1 145.738 204.5C145.738 203.888 145.618 203.336 145.378 202.844C145.138 202.346 144.799 201.953 144.361 201.665C143.929 201.371 143.419 201.224 142.831 201.224C142.237 201.224 141.697 201.371 141.211 201.665C140.725 201.959 140.338 202.355 140.05 202.853C139.768 203.345 139.627 203.894 139.627 204.5C139.627 205.106 139.774 205.658 140.068 206.156C140.362 206.648 140.752 207.041 141.238 207.335C141.724 207.623 142.255 207.767 142.831 207.767ZM149.271 209V195.5H150.783V209H149.271ZM152.945 209V195.5H154.457V209H152.945ZM168.179 200H169.691V209H168.179L168.116 207.479C167.834 208.001 167.444 208.424 166.946 208.748C166.454 209.072 165.866 209.234 165.182 209.234C164.522 209.234 163.904 209.111 163.328 208.865C162.752 208.613 162.242 208.268 161.798 207.83C161.36 207.386 161.018 206.876 160.772 206.3C160.526 205.724 160.403 205.103 160.403 204.437C160.403 203.795 160.523 203.189 160.763 202.619C161.003 202.049 161.336 201.551 161.762 201.125C162.194 200.693 162.692 200.357 163.256 200.117C163.82 199.871 164.426 199.748 165.074 199.748C165.782 199.748 166.403 199.916 166.937 200.252C167.471 200.582 167.903 201.011 168.233 201.539L168.179 200ZM165.155 207.767C165.749 207.767 166.262 207.623 166.694 207.335C167.132 207.041 167.468 206.645 167.702 206.147C167.942 205.649 168.062 205.1 168.062 204.5C168.062 203.888 167.942 203.336 167.702 202.844C167.462 202.346 167.123 201.953 166.685 201.665C166.253 201.371 165.743 201.224 165.155 201.224C164.561 201.224 164.021 201.371 163.535 201.665C163.049 201.959 162.662 202.355 162.374 202.853C162.092 203.345 161.951 203.894 161.951 204.5C161.951 205.106 162.098 205.658 162.392 206.156C162.686 206.648 163.076 207.041 163.562 207.335C164.048 207.623 164.579 207.767 165.155 207.767ZM174.235 209.171C173.749 209.153 173.275 209.063 172.813 208.901C172.357 208.733 171.955 208.508 171.607 208.226C171.265 207.938 171.016 207.608 170.86 207.236L172.156 206.678C172.246 206.882 172.408 207.074 172.642 207.254C172.876 207.434 173.146 207.578 173.452 207.686C173.758 207.794 174.067 207.848 174.379 207.848C174.709 207.848 175.018 207.797 175.306 207.695C175.594 207.593 175.828 207.443 176.008 207.245C176.194 207.041 176.287 206.798 176.287 206.516C176.287 206.216 176.185 205.982 175.981 205.814C175.783 205.64 175.531 205.505 175.225 205.409C174.925 205.307 174.619 205.211 174.307 205.121C173.689 204.965 173.137 204.779 172.651 204.563C172.165 204.341 171.781 204.062 171.499 203.726C171.223 203.384 171.085 202.949 171.085 202.421C171.085 201.863 171.238 201.38 171.544 200.972C171.856 200.564 172.264 200.249 172.768 200.027C173.272 199.805 173.812 199.694 174.388 199.694C175.114 199.694 175.777 199.85 176.377 200.162C176.977 200.474 177.424 200.897 177.718 201.431L176.503 202.142C176.401 201.926 176.245 201.737 176.035 201.575C175.825 201.407 175.585 201.275 175.315 201.179C175.045 201.083 174.769 201.032 174.487 201.026C174.139 201.014 173.812 201.059 173.506 201.161C173.206 201.263 172.963 201.419 172.777 201.629C172.597 201.833 172.507 202.088 172.507 202.394C172.507 202.694 172.603 202.922 172.795 203.078C172.993 203.234 173.248 203.36 173.56 203.456C173.878 203.546 174.223 203.651 174.595 203.771C175.141 203.945 175.651 204.146 176.125 204.374C176.599 204.602 176.98 204.887 177.268 205.229C177.562 205.571 177.706 205.994 177.7 206.498C177.7 207.05 177.535 207.533 177.205 207.947C176.875 208.355 176.446 208.667 175.918 208.883C175.396 209.099 174.835 209.195 174.235 209.171ZM180.754 213.5H179.242V200H180.754V201.539C181.06 201.011 181.468 200.585 181.978 200.261C182.488 199.931 183.094 199.766 183.796 199.766C184.45 199.766 185.062 199.889 185.632 200.135C186.208 200.381 186.712 200.723 187.144 201.161C187.576 201.593 187.915 202.094 188.161 202.664C188.407 203.234 188.53 203.846 188.53 204.5C188.53 205.154 188.407 205.769 188.161 206.345C187.915 206.921 187.576 207.428 187.144 207.866C186.712 208.298 186.208 208.637 185.632 208.883C185.062 209.129 184.45 209.252 183.796 209.252C183.094 209.252 182.488 209.09 181.978 208.766C181.468 208.436 181.06 208.007 180.754 207.479V213.5ZM183.778 201.233C183.196 201.233 182.686 201.38 182.248 201.674C181.81 201.968 181.471 202.361 181.231 202.853C180.997 203.345 180.88 203.894 180.88 204.5C180.88 205.1 180.997 205.649 181.231 206.147C181.471 206.645 181.807 207.041 182.239 207.335C182.677 207.629 183.19 207.776 183.778 207.776C184.36 207.776 184.894 207.632 185.38 207.344C185.866 207.05 186.256 206.657 186.55 206.165C186.844 205.667 186.991 205.112 186.991 204.5C186.991 203.9 186.847 203.354 186.559 202.862C186.271 202.364 185.884 201.968 185.398 201.674C184.912 201.38 184.372 201.233 183.778 201.233ZM193.942 209.234C193.114 209.234 192.358 209.021 191.674 208.595C190.996 208.169 190.453 207.599 190.045 206.885C189.643 206.165 189.442 205.37 189.442 204.5C189.442 203.84 189.559 203.225 189.793 202.655C190.027 202.079 190.348 201.575 190.756 201.143C191.17 200.705 191.65 200.363 192.196 200.117C192.742 199.871 193.324 199.748 193.942 199.748C194.62 199.748 195.241 199.886 195.805 200.162C196.375 200.432 196.861 200.81 197.263 201.296C197.671 201.782 197.974 202.346 198.172 202.988C198.376 203.63 198.451 204.317 198.397 205.049H191.053C191.125 205.559 191.293 206.015 191.557 206.417C191.821 206.813 192.157 207.128 192.565 207.362C192.979 207.596 193.438 207.716 193.942 207.722C194.482 207.722 194.971 207.584 195.409 207.308C195.847 207.026 196.201 206.642 196.471 206.156L198.01 206.516C197.65 207.314 197.107 207.968 196.381 208.478C195.655 208.982 194.842 209.234 193.942 209.234ZM191.008 203.861H196.876C196.828 203.357 196.666 202.898 196.39 202.484C196.114 202.064 195.763 201.728 195.337 201.476C194.911 201.224 194.446 201.098 193.942 201.098C193.438 201.098 192.976 201.221 192.556 201.467C192.136 201.713 191.788 202.046 191.512 202.466C191.242 202.88 191.074 203.345 191.008 203.861ZM206.062 206.624L207.412 207.353C207.004 207.923 206.485 208.379 205.855 208.721C205.231 209.063 204.553 209.234 203.821 209.234C202.993 209.234 202.237 209.021 201.553 208.595C200.875 208.169 200.332 207.599 199.924 206.885C199.522 206.165 199.321 205.37 199.321 204.5C199.321 203.84 199.438 203.225 199.672 202.655C199.906 202.079 200.227 201.575 200.635 201.143C201.049 200.705 201.529 200.363 202.075 200.117C202.621 199.871 203.203 199.748 203.821 199.748C204.553 199.748 205.231 199.919 205.855 200.261C206.485 200.603 207.004 201.062 207.412 201.638L206.062 202.367C205.774 202.013 205.432 201.74 205.036 201.548C204.64 201.356 204.235 201.26 203.821 201.26C203.263 201.26 202.756 201.41 202.3 201.71C201.85 202.004 201.493 202.397 201.229 202.889C200.965 203.381 200.833 203.918 200.833 204.5C200.833 205.082 200.965 205.619 201.229 206.111C201.499 206.597 201.859 206.987 202.309 207.281C202.765 207.575 203.269 207.722 203.821 207.722C204.265 207.722 204.682 207.62 205.072 207.416C205.462 207.212 205.792 206.948 206.062 206.624ZM213.699 201.512H211.656L211.647 209H210.135L210.144 201.512H208.596V200H210.144L210.135 197.174H211.647L211.656 200H213.699V201.512ZM217.97 209.171C217.484 209.153 217.01 209.063 216.548 208.901C216.092 208.733 215.69 208.508 215.342 208.226C215 207.938 214.751 207.608 214.595 207.236L215.891 206.678C215.981 206.882 216.143 207.074 216.377 207.254C216.611 207.434 216.881 207.578 217.187 207.686C217.493 207.794 217.802 207.848 218.114 207.848C218.444 207.848 218.753 207.797 219.041 207.695C219.329 207.593 219.563 207.443 219.743 207.245C219.929 207.041 220.022 206.798 220.022 206.516C220.022 206.216 219.92 205.982 219.716 205.814C219.518 205.64 219.266 205.505 218.96 205.409C218.66 205.307 218.354 205.211 218.042 205.121C217.424 204.965 216.872 204.779 216.386 204.563C215.9 204.341 215.516 204.062 215.234 203.726C214.958 203.384 214.82 202.949 214.82 202.421C214.82 201.863 214.973 201.38 215.279 200.972C215.591 200.564 215.999 200.249 216.503 200.027C217.007 199.805 217.547 199.694 218.123 199.694C218.849 199.694 219.512 199.85 220.112 200.162C220.712 200.474 221.159 200.897 221.453 201.431L220.238 202.142C220.136 201.926 219.98 201.737 219.77 201.575C219.56 201.407 219.32 201.275 219.05 201.179C218.78 201.083 218.504 201.032 218.222 201.026C217.874 201.014 217.547 201.059 217.241 201.161C216.941 201.263 216.698 201.419 216.512 201.629C216.332 201.833 216.242 202.088 216.242 202.394C216.242 202.694 216.338 202.922 216.53 203.078C216.728 203.234 216.983 203.36 217.295 203.456C217.613 203.546 217.958 203.651 218.33 203.771C218.876 203.945 219.386 204.146 219.86 204.374C220.334 204.602 220.715 204.887 221.003 205.229C221.297 205.571 221.441 205.994 221.435 206.498C221.435 207.05 221.27 207.533 220.94 207.947C220.61 208.355 220.181 208.667 219.653 208.883C219.131 209.099 218.57 209.195 217.97 209.171ZM231.261 209.234C230.433 209.234 229.677 209.021 228.993 208.595C228.315 208.169 227.772 207.599 227.364 206.885C226.962 206.165 226.761 205.37 226.761 204.5C226.761 203.84 226.878 203.225 227.112 202.655C227.346 202.079 227.667 201.575 228.075 201.143C228.489 200.705 228.969 200.363 229.515 200.117C230.061 199.871 230.643 199.748 231.261 199.748C232.089 199.748 232.842 199.961 233.52 200.387C234.204 200.813 234.747 201.386 235.149 202.106C235.557 202.826 235.761 203.624 235.761 204.5C235.761 205.154 235.644 205.766 235.41 206.336C235.176 206.906 234.852 207.41 234.438 207.848C234.03 208.28 233.553 208.619 233.007 208.865C232.467 209.111 231.885 209.234 231.261 209.234ZM231.261 207.722C231.825 207.722 232.332 207.575 232.782 207.281C233.238 206.981 233.595 206.588 233.853 206.102C234.117 205.61 234.249 205.076 234.249 204.5C234.249 203.912 234.114 203.372 233.844 202.88C233.58 202.388 233.223 201.995 232.773 201.701C232.323 201.407 231.819 201.26 231.261 201.26C230.697 201.26 230.19 201.41 229.74 201.71C229.29 202.004 228.933 202.397 228.669 202.889C228.405 203.381 228.273 203.918 228.273 204.5C228.273 205.1 228.408 205.646 228.678 206.138C228.948 206.624 229.311 207.011 229.767 207.299C230.223 207.581 230.721 207.722 231.261 207.722ZM239.416 197.777V200H242.053V201.512H239.416V209H237.904V201.512H236.743V200H237.904V197.777C237.904 197.315 238.015 196.898 238.237 196.526C238.465 196.148 238.768 195.848 239.146 195.626C239.53 195.398 239.95 195.284 240.406 195.284C240.742 195.284 241.069 195.353 241.387 195.491C241.705 195.623 241.987 195.821 242.233 196.085L241.153 197.156C241.069 197.042 240.958 196.955 240.82 196.895C240.688 196.829 240.55 196.796 240.406 196.796C240.136 196.796 239.902 196.892 239.704 197.084C239.512 197.276 239.416 197.507 239.416 197.777ZM249.362 213.5H247.85V200H249.362V201.539C249.668 201.011 250.076 200.585 250.586 200.261C251.096 199.931 251.702 199.766 252.404 199.766C253.058 199.766 253.67 199.889 254.24 200.135C254.816 200.381 255.32 200.723 255.752 201.161C256.184 201.593 256.523 202.094 256.769 202.664C257.015 203.234 257.138 203.846 257.138 204.5C257.138 205.154 257.015 205.769 256.769 206.345C256.523 206.921 256.184 207.428 255.752 207.866C255.32 208.298 254.816 208.637 254.24 208.883C253.67 209.129 253.058 209.252 252.404 209.252C251.702 209.252 251.096 209.09 250.586 208.766C250.076 208.436 249.668 208.007 249.362 207.479V213.5ZM252.386 201.233C251.804 201.233 251.294 201.38 250.856 201.674C250.418 201.968 250.079 202.361 249.839 202.853C249.605 203.345 249.488 203.894 249.488 204.5C249.488 205.1 249.605 205.649 249.839 206.147C250.079 206.645 250.415 207.041 250.847 207.335C251.285 207.629 251.798 207.776 252.386 207.776C252.968 207.776 253.502 207.632 253.988 207.344C254.474 207.05 254.864 206.657 255.158 206.165C255.452 205.667 255.599 205.112 255.599 204.5C255.599 203.9 255.455 203.354 255.167 202.862C254.879 202.364 254.492 201.968 254.006 201.674C253.52 201.38 252.98 201.233 252.386 201.233ZM258.643 209V200H260.155V201.125C260.473 200.705 260.875 200.372 261.361 200.126C261.847 199.874 262.375 199.748 262.945 199.748C263.293 199.748 263.629 199.793 263.953 199.883L263.341 201.395C263.095 201.317 262.855 201.278 262.621 201.278C262.171 201.278 261.757 201.389 261.379 201.611C261.007 201.827 260.71 202.121 260.488 202.493C260.266 202.865 260.155 203.279 260.155 203.735V209H258.643ZM268.561 209.234C267.733 209.234 266.977 209.021 266.293 208.595C265.615 208.169 265.072 207.599 264.664 206.885C264.262 206.165 264.061 205.37 264.061 204.5C264.061 203.84 264.178 203.225 264.412 202.655C264.646 202.079 264.967 201.575 265.375 201.143C265.789 200.705 266.269 200.363 266.815 200.117C267.361 199.871 267.943 199.748 268.561 199.748C269.389 199.748 270.142 199.961 270.82 200.387C271.504 200.813 272.047 201.386 272.449 202.106C272.857 202.826 273.061 203.624 273.061 204.5C273.061 205.154 272.944 205.766 272.71 206.336C272.476 206.906 272.152 207.41 271.738 207.848C271.33 208.28 270.853 208.619 270.307 208.865C269.767 209.111 269.185 209.234 268.561 209.234ZM268.561 207.722C269.125 207.722 269.632 207.575 270.082 207.281C270.538 206.981 270.895 206.588 271.153 206.102C271.417 205.61 271.549 205.076 271.549 204.5C271.549 203.912 271.414 203.372 271.144 202.88C270.88 202.388 270.523 201.995 270.073 201.701C269.623 201.407 269.119 201.26 268.561 201.26C267.997 201.26 267.49 201.41 267.04 201.71C266.59 202.004 266.233 202.397 265.969 202.889C265.705 203.381 265.573 203.918 265.573 204.5C265.573 205.1 265.708 205.646 265.978 206.138C266.248 206.624 266.611 207.011 267.067 207.299C267.523 207.581 268.021 207.722 268.561 207.722ZM276.063 213.5H274.551V200H276.063V201.539C276.369 201.011 276.777 200.585 277.287 200.261C277.797 199.931 278.403 199.766 279.105 199.766C279.759 199.766 280.371 199.889 280.941 200.135C281.517 200.381 282.021 200.723 282.453 201.161C282.885 201.593 283.224 202.094 283.47 202.664C283.716 203.234 283.839 203.846 283.839 204.5C283.839 205.154 283.716 205.769 283.47 206.345C283.224 206.921 282.885 207.428 282.453 207.866C282.021 208.298 281.517 208.637 280.941 208.883C280.371 209.129 279.759 209.252 279.105 209.252C278.403 209.252 277.797 209.09 277.287 208.766C276.777 208.436 276.369 208.007 276.063 207.479V213.5ZM279.087 201.233C278.505 201.233 277.995 201.38 277.557 201.674C277.119 201.968 276.78 202.361 276.54 202.853C276.306 203.345 276.189 203.894 276.189 204.5C276.189 205.1 276.306 205.649 276.54 206.147C276.78 206.645 277.116 207.041 277.548 207.335C277.986 207.629 278.499 207.776 279.087 207.776C279.669 207.776 280.203 207.632 280.689 207.344C281.175 207.05 281.565 206.657 281.859 206.165C282.153 205.667 282.3 205.112 282.3 204.5C282.3 203.9 282.156 203.354 281.868 202.862C281.58 202.364 281.193 201.968 280.707 201.674C280.221 201.38 279.681 201.233 279.087 201.233ZM289.251 209.234C288.423 209.234 287.667 209.021 286.983 208.595C286.305 208.169 285.762 207.599 285.354 206.885C284.952 206.165 284.751 205.37 284.751 204.5C284.751 203.84 284.868 203.225 285.102 202.655C285.336 202.079 285.657 201.575 286.065 201.143C286.479 200.705 286.959 200.363 287.505 200.117C288.051 199.871 288.633 199.748 289.251 199.748C289.929 199.748 290.55 199.886 291.114 200.162C291.684 200.432 292.17 200.81 292.572 201.296C292.98 201.782 293.283 202.346 293.481 202.988C293.685 203.63 293.76 204.317 293.706 205.049H286.362C286.434 205.559 286.602 206.015 286.866 206.417C287.13 206.813 287.466 207.128 287.874 207.362C288.288 207.596 288.747 207.716 289.251 207.722C289.791 207.722 290.28 207.584 290.718 207.308C291.156 207.026 291.51 206.642 291.78 206.156L293.319 206.516C292.959 207.314 292.416 207.968 291.69 208.478C290.964 208.982 290.151 209.234 289.251 209.234ZM286.317 203.861H292.185C292.137 203.357 291.975 202.898 291.699 202.484C291.423 202.064 291.072 201.728 290.646 201.476C290.22 201.224 289.755 201.098 289.251 201.098C288.747 201.098 288.285 201.221 287.865 201.467C287.445 201.713 287.097 202.046 286.821 202.466C286.551 202.88 286.383 203.345 286.317 203.861ZM295.223 209V200H296.735V201.125C297.053 200.705 297.455 200.372 297.941 200.126C298.427 199.874 298.955 199.748 299.525 199.748C299.873 199.748 300.209 199.793 300.533 199.883L299.921 201.395C299.675 201.317 299.435 201.278 299.201 201.278C298.751 201.278 298.337 201.389 297.959 201.611C297.587 201.827 297.29 202.121 297.068 202.493C296.846 202.865 296.735 203.279 296.735 203.735V209H295.223ZM306.459 201.512H304.416L304.407 209H302.895L302.904 201.512H301.356V200H302.904L302.895 197.174H304.407L304.416 200H306.459V201.512ZM314.026 200H315.628L310.705 213.5H309.103L310.732 209L307.501 200H309.157L311.488 206.921L314.026 200ZM321.388 205.58V200H322.9V205.247C322.9 205.703 323.011 206.117 323.233 206.489C323.455 206.861 323.752 207.158 324.124 207.38C324.502 207.596 324.916 207.704 325.366 207.704C325.822 207.704 326.233 207.596 326.599 207.38C326.971 207.158 327.268 206.861 327.49 206.489C327.712 206.117 327.823 205.703 327.823 205.247V200H329.335L329.344 209H327.832L327.823 207.857C327.505 208.277 327.103 208.613 326.617 208.865C326.131 209.111 325.606 209.234 325.042 209.234C324.37 209.234 323.755 209.072 323.197 208.748C322.645 208.418 322.204 207.977 321.874 207.425C321.55 206.873 321.388 206.258 321.388 205.58ZM332.418 213.5H330.906V200H332.418V201.539C332.724 201.011 333.132 200.585 333.642 200.261C334.152 199.931 334.758 199.766 335.46 199.766C336.114 199.766 336.726 199.889 337.296 200.135C337.872 200.381 338.376 200.723 338.808 201.161C339.24 201.593 339.579 202.094 339.825 202.664C340.071 203.234 340.194 203.846 340.194 204.5C340.194 205.154 340.071 205.769 339.825 206.345C339.579 206.921 339.24 207.428 338.808 207.866C338.376 208.298 337.872 208.637 337.296 208.883C336.726 209.129 336.114 209.252 335.46 209.252C334.758 209.252 334.152 209.09 333.642 208.766C333.132 208.436 332.724 208.007 332.418 207.479V213.5ZM335.442 201.233C334.86 201.233 334.35 201.38 333.912 201.674C333.474 201.968 333.135 202.361 332.895 202.853C332.661 203.345 332.544 203.894 332.544 204.5C332.544 205.1 332.661 205.649 332.895 206.147C333.135 206.645 333.471 207.041 333.903 207.335C334.341 207.629 334.854 207.776 335.442 207.776C336.024 207.776 336.558 207.632 337.044 207.344C337.53 207.05 337.92 206.657 338.214 206.165C338.508 205.667 338.655 205.112 338.655 204.5C338.655 203.9 338.511 203.354 338.223 202.862C337.935 202.364 337.548 201.968 337.062 201.674C336.576 201.38 336.036 201.233 335.442 201.233ZM348.91 209H347.173L344.779 204.869L343.123 206.849V209H341.611V195.5H343.123V204.5L346.894 200H348.865L345.805 203.645L348.91 209ZM353.921 209.234C353.093 209.234 352.337 209.021 351.653 208.595C350.975 208.169 350.432 207.599 350.024 206.885C349.622 206.165 349.421 205.37 349.421 204.5C349.421 203.84 349.538 203.225 349.772 202.655C350.006 202.079 350.327 201.575 350.735 201.143C351.149 200.705 351.629 200.363 352.175 200.117C352.721 199.871 353.303 199.748 353.921 199.748C354.599 199.748 355.22 199.886 355.784 200.162C356.354 200.432 356.84 200.81 357.242 201.296C357.65 201.782 357.953 202.346 358.151 202.988C358.355 203.63 358.43 204.317 358.376 205.049H351.032C351.104 205.559 351.272 206.015 351.536 206.417C351.8 206.813 352.136 207.128 352.544 207.362C352.958 207.596 353.417 207.716 353.921 207.722C354.461 207.722 354.95 207.584 355.388 207.308C355.826 207.026 356.18 206.642 356.45 206.156L357.989 206.516C357.629 207.314 357.086 207.968 356.36 208.478C355.634 208.982 354.821 209.234 353.921 209.234ZM350.987 203.861H356.855C356.807 203.357 356.645 202.898 356.369 202.484C356.093 202.064 355.742 201.728 355.316 201.476C354.89 201.224 354.425 201.098 353.921 201.098C353.417 201.098 352.955 201.221 352.535 201.467C352.115 201.713 351.767 202.046 351.491 202.466C351.221 202.88 351.053 203.345 350.987 203.861ZM363.8 209.234C362.972 209.234 362.216 209.021 361.532 208.595C360.854 208.169 360.311 207.599 359.903 206.885C359.501 206.165 359.3 205.37 359.3 204.5C359.3 203.84 359.417 203.225 359.651 202.655C359.885 202.079 360.206 201.575 360.614 201.143C361.028 200.705 361.508 200.363 362.054 200.117C362.6 199.871 363.182 199.748 363.8 199.748C364.478 199.748 365.099 199.886 365.663 200.162C366.233 200.432 366.719 200.81 367.121 201.296C367.529 201.782 367.832 202.346 368.03 202.988C368.234 203.63 368.309 204.317 368.255 205.049H360.911C360.983 205.559 361.151 206.015 361.415 206.417C361.679 206.813 362.015 207.128 362.423 207.362C362.837 207.596 363.296 207.716 363.8 207.722C364.34 207.722 364.829 207.584 365.267 207.308C365.705 207.026 366.059 206.642 366.329 206.156L367.868 206.516C367.508 207.314 366.965 207.968 366.239 208.478C365.513 208.982 364.7 209.234 363.8 209.234ZM360.866 203.861H366.734C366.686 203.357 366.524 202.898 366.248 202.484C365.972 202.064 365.621 201.728 365.195 201.476C364.769 201.224 364.304 201.098 363.8 201.098C363.296 201.098 362.834 201.221 362.414 201.467C361.994 201.713 361.646 202.046 361.37 202.466C361.1 202.88 360.932 203.345 360.866 203.861ZM371.283 213.5H369.771V200H371.283V201.539C371.589 201.011 371.997 200.585 372.507 200.261C373.017 199.931 373.623 199.766 374.325 199.766C374.979 199.766 375.591 199.889 376.161 200.135C376.737 200.381 377.241 200.723 377.673 201.161C378.105 201.593 378.444 202.094 378.69 202.664C378.936 203.234 379.059 203.846 379.059 204.5C379.059 205.154 378.936 205.769 378.69 206.345C378.444 206.921 378.105 207.428 377.673 207.866C377.241 208.298 376.737 208.637 376.161 208.883C375.591 209.129 374.979 209.252 374.325 209.252C373.623 209.252 373.017 209.09 372.507 208.766C371.997 208.436 371.589 208.007 371.283 207.479V213.5ZM374.307 201.233C373.725 201.233 373.215 201.38 372.777 201.674C372.339 201.968 372 202.361 371.76 202.853C371.526 203.345 371.409 203.894 371.409 204.5C371.409 205.1 371.526 205.649 371.76 206.147C372 206.645 372.336 207.041 372.768 207.335C373.206 207.629 373.719 207.776 374.307 207.776C374.889 207.776 375.423 207.632 375.909 207.344C376.395 207.05 376.785 206.657 377.079 206.165C377.373 205.667 377.52 205.112 377.52 204.5C377.52 203.9 377.376 203.354 377.088 202.862C376.8 202.364 376.413 201.968 375.927 201.674C375.441 201.38 374.901 201.233 374.307 201.233ZM380.971 209.234C380.743 209.234 380.548 209.153 380.386 208.991C380.23 208.829 380.152 208.631 380.152 208.397C380.152 208.175 380.23 207.983 380.386 207.821C380.548 207.659 380.743 207.578 380.971 207.578C381.205 207.578 381.403 207.659 381.565 207.821C381.727 207.983 381.808 208.175 381.808 208.397C381.808 208.631 381.727 208.829 381.565 208.991C381.403 209.153 381.205 209.234 380.971 209.234Z" fill="#999999"></path><defs><linearGradient id="paint0_linear_104_11607" x1="56.75" y1="136.5" x2="135.75" y2="44.5" gradientUnits="userSpaceOnUse"><stop stop-color="#A685FA"></stop><stop offset="0.323723" stop-color="#A685FA" stop-opacity="0"></stop></linearGradient><linearGradient id="paint1_linear_104_11607" x1="131.75" y1="39.5" x2="56.75" y2="132" gradientUnits="userSpaceOnUse"><stop stop-color="#A685FA"></stop><stop offset="0.576615" stop-color="#A685FA" stop-opacity="0"></stop></linearGradient><linearGradient id="paint2_linear_104_11607" x1="53.25" y1="63.5" x2="121.75" y2="122" gradientUnits="userSpaceOnUse"><stop stop-color="#A685FA"></stop><stop offset="0.323723" stop-color="#A685FA" stop-opacity="0"></stop></linearGradient><linearGradient id="paint3_linear_104_11607" x1="134.25" y1="136" x2="62.25" y2="85" gradientUnits="userSpaceOnUse"><stop stop-color="#A685FA"></stop><stop offset="0.576615" stop-color="#A685FA" stop-opacity="0"></stop></linearGradient></defs></svg>