<svg xmlns="http://www.w3.org/2000/svg" width="419" height="224" viewBox="0 0 419 224" fill="none"><g filter="url(#filter0_d_144_10243)"><rect x="6.33398" y="6" width="406.333" height="212" rx="10" fill="#141414"></rect><rect x="6.83398" y="6.5" width="405.333" height="211" rx="9.5" stroke="#262626"></rect><path d="M57.866 55.2H60.362V72H57.866V64.248H50.27V72H47.774V55.2H50.27V61.752H57.866V55.2ZM72.4147 60H74.9107V72H72.4027L72.3067 70.26C71.9547 70.876 71.4787 71.372 70.8787 71.748C70.2787 72.124 69.5707 72.312 68.7547 72.312C67.8747 72.312 67.0467 72.148 66.2707 71.82C65.4947 71.484 64.8107 71.02 64.2187 70.428C63.6347 69.836 63.1787 69.156 62.8507 68.388C62.5227 67.612 62.3587 66.78 62.3587 65.892C62.3587 65.036 62.5187 64.232 62.8387 63.48C63.1587 62.72 63.6027 62.056 64.1707 61.488C64.7387 60.92 65.3947 60.476 66.1387 60.156C66.8907 59.828 67.6947 59.664 68.5507 59.664C69.4227 59.664 70.1907 59.864 70.8547 60.264C71.5267 60.656 72.0827 61.16 72.5227 61.776L72.4147 60ZM68.6947 69.9C69.3987 69.9 70.0147 69.728 70.5427 69.384C71.0707 69.032 71.4787 68.56 71.7667 67.968C72.0627 67.376 72.2107 66.72 72.2107 66C72.2107 65.272 72.0627 64.612 71.7667 64.02C71.4707 63.428 71.0587 62.96 70.5307 62.616C70.0107 62.264 69.3987 62.088 68.6947 62.088C67.9987 62.088 67.3627 62.264 66.7867 62.616C66.2107 62.968 65.7547 63.44 65.4187 64.032C65.0827 64.624 64.9147 65.28 64.9147 66C64.9147 66.728 65.0867 67.388 65.4307 67.98C65.7827 68.564 66.2427 69.032 66.8107 69.384C67.3867 69.728 68.0147 69.9 68.6947 69.9ZM79.8012 78H77.3052V60H79.8012V61.764C80.2012 61.148 80.7132 60.648 81.3372 60.264C81.9612 59.88 82.6972 59.688 83.5452 59.688C84.4172 59.688 85.2332 59.852 85.9932 60.18C86.7612 60.508 87.4332 60.964 88.0092 61.548C88.5852 62.124 89.0372 62.792 89.3652 63.552C89.6932 64.312 89.8572 65.128 89.8572 66C89.8572 66.872 89.6932 67.692 89.3652 68.46C89.0372 69.228 88.5852 69.904 88.0092 70.488C87.4332 71.064 86.7612 71.516 85.9932 71.844C85.2332 72.172 84.4172 72.336 83.5452 72.336C82.6972 72.336 81.9612 72.144 81.3372 71.76C80.7132 71.368 80.2012 70.868 79.8012 70.26V78ZM83.5212 62.1C82.8252 62.1 82.2132 62.276 81.6852 62.628C81.1572 62.98 80.7452 63.452 80.4492 64.044C80.1532 64.628 80.0052 65.28 80.0052 66C80.0052 66.72 80.1532 67.376 80.4492 67.968C80.7452 68.56 81.1572 69.032 81.6852 69.384C82.2132 69.736 82.8252 69.912 83.5212 69.912C84.2092 69.912 84.8412 69.74 85.4172 69.396C85.9932 69.044 86.4532 68.572 86.7972 67.98C87.1412 67.388 87.3132 66.728 87.3132 66C87.3132 65.288 87.1412 64.636 86.7972 64.044C86.4612 63.452 86.0052 62.98 85.4292 62.628C84.8532 62.276 84.2172 62.1 83.5212 62.1ZM94.309 78H91.813V60H94.309V61.764C94.709 61.148 95.221 60.648 95.845 60.264C96.469 59.88 97.205 59.688 98.053 59.688C98.925 59.688 99.741 59.852 100.501 60.18C101.269 60.508 101.941 60.964 102.517 61.548C103.093 62.124 103.545 62.792 103.873 63.552C104.201 64.312 104.365 65.128 104.365 66C104.365 66.872 104.201 67.692 103.873 68.46C103.545 69.228 103.093 69.904 102.517 70.488C101.941 71.064 101.269 71.516 100.501 71.844C99.741 72.172 98.925 72.336 98.053 72.336C97.205 72.336 96.469 72.144 95.845 71.76C95.221 71.368 94.709 70.868 94.309 70.26V78ZM98.029 62.1C97.333 62.1 96.721 62.276 96.193 62.628C95.665 62.98 95.253 63.452 94.957 64.044C94.661 64.628 94.513 65.28 94.513 66C94.513 66.72 94.661 67.376 94.957 67.968C95.253 68.56 95.665 69.032 96.193 69.384C96.721 69.736 97.333 69.912 98.029 69.912C98.717 69.912 99.349 69.74 99.925 69.396C100.501 69.044 100.961 68.572 101.305 67.98C101.649 67.388 101.821 66.728 101.821 66C101.821 65.288 101.649 64.636 101.305 64.044C100.969 63.452 100.513 62.98 99.937 62.628C99.361 62.276 98.725 62.1 98.029 62.1ZM113.838 60H116.502L109.926 78H107.274L109.446 72L105.138 60H107.862L110.694 68.58L113.838 60ZM132.448 72.312C131.312 72.312 130.244 72.088 129.244 71.64C128.244 71.184 127.364 70.56 126.604 69.768C125.852 68.968 125.26 68.04 124.828 66.984C124.404 65.928 124.192 64.8 124.192 63.6C124.192 62.4 124.404 61.272 124.828 60.216C125.26 59.16 125.852 58.236 126.604 57.444C127.364 56.644 128.244 56.02 129.244 55.572C130.244 55.116 131.312 54.888 132.448 54.888C133.808 54.888 135.06 55.204 136.204 55.836C137.348 56.468 138.296 57.308 139.048 58.356L136.828 59.544C136.308 58.888 135.664 58.364 134.896 57.972C134.128 57.58 133.312 57.384 132.448 57.384C131.648 57.384 130.9 57.548 130.204 57.876C129.508 58.204 128.896 58.652 128.368 59.22C127.84 59.788 127.428 60.448 127.132 61.2C126.836 61.952 126.688 62.752 126.688 63.6C126.688 64.456 126.836 65.26 127.132 66.012C127.428 66.756 127.84 67.416 128.368 67.992C128.904 68.56 129.52 69.008 130.216 69.336C130.912 69.656 131.656 69.816 132.448 69.816C133.328 69.816 134.148 69.62 134.908 69.228C135.676 68.828 136.316 68.3 136.828 67.644L139.048 68.856C138.296 69.904 137.348 70.744 136.204 71.376C135.06 72 133.808 72.312 132.448 72.312ZM141.407 72V54H143.903V72H141.407ZM146.774 60H149.27V72H146.774V60ZM148.046 58.26C147.662 58.26 147.342 58.136 147.086 57.888C146.83 57.64 146.702 57.328 146.702 56.952C146.702 56.584 146.83 56.276 147.086 56.028C147.342 55.772 147.658 55.644 148.034 55.644C148.402 55.644 148.714 55.772 148.97 56.028C149.226 56.276 149.354 56.584 149.354 56.952C149.354 57.328 149.226 57.64 148.97 57.888C148.722 58.136 148.414 58.26 148.046 58.26ZM157.21 72.312C156.106 72.312 155.098 72.028 154.186 71.46C153.282 70.892 152.558 70.132 152.014 69.18C151.478 68.22 151.21 67.16 151.21 66C151.21 65.12 151.366 64.3 151.678 63.54C151.99 62.772 152.418 62.1 152.962 61.524C153.514 60.94 154.154 60.484 154.882 60.156C155.61 59.828 156.386 59.664 157.21 59.664C158.13 59.664 158.974 59.856 159.742 60.24C160.51 60.616 161.166 61.14 161.71 61.812C162.254 62.476 162.654 63.244 162.91 64.116C163.166 64.98 163.242 65.9 163.138 66.876H153.886C153.99 67.428 154.19 67.928 154.486 68.376C154.79 68.816 155.174 69.164 155.638 69.42C156.11 69.676 156.634 69.808 157.21 69.816C157.818 69.816 158.37 69.664 158.866 69.36C159.37 69.056 159.782 68.636 160.102 68.1L162.634 68.688C162.154 69.752 161.43 70.624 160.462 71.304C159.494 71.976 158.41 72.312 157.21 72.312ZM153.802 64.968H160.618C160.538 64.392 160.334 63.872 160.006 63.408C159.686 62.936 159.282 62.564 158.794 62.292C158.314 62.012 157.786 61.872 157.21 61.872C156.642 61.872 156.114 62.008 155.626 62.28C155.146 62.552 154.746 62.924 154.426 63.396C154.114 63.86 153.906 64.384 153.802 64.968ZM175.926 64.476V72H173.43V65.088C173.43 64.552 173.298 64.064 173.034 63.624C172.778 63.184 172.43 62.836 171.99 62.58C171.558 62.316 171.07 62.184 170.526 62.184C169.998 62.184 169.514 62.316 169.074 62.58C168.634 62.836 168.282 63.184 168.018 63.624C167.754 64.064 167.622 64.552 167.622 65.088V72H165.126V60H167.622V61.272C168.038 60.776 168.55 60.384 169.158 60.096C169.766 59.808 170.422 59.664 171.126 59.664C172.014 59.664 172.822 59.88 173.55 60.312C174.278 60.744 174.854 61.324 175.278 62.052C175.71 62.78 175.926 63.588 175.926 64.476ZM184.657 62.496H182.137L182.125 72H179.629L179.641 62.496H177.733V60H179.641L179.629 56.232H182.125L182.137 60H184.657V62.496ZM190.241 72.228C189.609 72.188 188.993 72.06 188.393 71.844C187.793 71.628 187.265 71.336 186.809 70.968C186.361 70.592 186.025 70.152 185.801 69.648L187.925 68.736C188.029 68.952 188.209 69.164 188.465 69.372C188.729 69.58 189.037 69.752 189.389 69.888C189.741 70.016 190.109 70.08 190.493 70.08C190.869 70.08 191.217 70.028 191.537 69.924C191.865 69.812 192.133 69.644 192.341 69.42C192.549 69.196 192.653 68.928 192.653 68.616C192.653 68.264 192.533 67.992 192.293 67.8C192.061 67.6 191.769 67.448 191.417 67.344C191.065 67.24 190.713 67.14 190.361 67.044C189.577 66.868 188.857 66.628 188.201 66.324C187.553 66.012 187.037 65.616 186.653 65.136C186.269 64.648 186.077 64.052 186.077 63.348C186.077 62.58 186.285 61.916 186.701 61.356C187.117 60.788 187.661 60.352 188.333 60.048C189.013 59.744 189.737 59.592 190.505 59.592C191.465 59.592 192.345 59.796 193.145 60.204C193.945 60.612 194.557 61.172 194.981 61.884L193.001 63.06C192.881 62.82 192.701 62.604 192.461 62.412C192.221 62.22 191.949 62.068 191.645 61.956C191.341 61.836 191.025 61.768 190.697 61.752C190.289 61.736 189.909 61.784 189.557 61.896C189.213 62 188.937 62.168 188.729 62.4C188.521 62.632 188.417 62.928 188.417 63.288C188.417 63.64 188.541 63.904 188.789 64.08C189.037 64.248 189.349 64.384 189.725 64.488C190.109 64.592 190.501 64.708 190.901 64.836C191.613 65.06 192.281 65.336 192.905 65.664C193.529 65.984 194.033 66.38 194.417 66.852C194.801 67.324 194.985 67.9 194.969 68.58C194.969 69.332 194.741 69.992 194.285 70.56C193.837 71.128 193.253 71.56 192.533 71.856C191.813 72.152 191.049 72.276 190.241 72.228Z" fill="white"></path><path d="M52.494 124.208C51.7367 124.208 51.0247 124.059 50.358 123.76C49.6913 123.456 49.1047 123.037 48.598 122.504C48.0913 121.971 47.694 121.355 47.406 120.656C47.118 119.952 46.974 119.2 46.974 118.4C46.974 117.6 47.118 116.851 47.406 116.152C47.694 115.448 48.0913 114.829 48.598 114.296C49.1047 113.763 49.6913 113.347 50.358 113.048C51.0247 112.744 51.7367 112.592 52.494 112.592C53.2567 112.592 53.9713 112.744 54.638 113.048C55.3047 113.347 55.8913 113.763 56.398 114.296C56.9047 114.829 57.2993 115.448 57.582 116.152C57.87 116.851 58.014 117.6 58.014 118.4C58.014 119.2 57.87 119.952 57.582 120.656C57.2993 121.355 56.9047 121.971 56.398 122.504C55.8913 123.037 55.3047 123.456 54.638 123.76C53.9713 124.059 53.2567 124.208 52.494 124.208ZM52.494 122.864C53.0753 122.864 53.6167 122.747 54.118 122.512C54.6247 122.277 55.0673 121.955 55.446 121.544C55.83 121.128 56.1287 120.653 56.342 120.12C56.5607 119.581 56.67 119.008 56.67 118.4C56.67 117.792 56.5607 117.219 56.342 116.68C56.1233 116.136 55.822 115.661 55.438 115.256C55.0593 114.845 54.6167 114.523 54.11 114.288C53.6087 114.053 53.07 113.936 52.494 113.936C51.9127 113.936 51.3687 114.053 50.862 114.288C50.3607 114.523 49.918 114.848 49.534 115.264C49.1553 115.675 48.8567 116.149 48.638 116.688C48.4247 117.221 48.318 117.792 48.318 118.4C48.318 119.013 48.4273 119.589 48.646 120.128C48.8647 120.667 49.1633 121.141 49.542 121.552C49.926 121.963 50.3687 122.285 50.87 122.52C51.3767 122.749 51.918 122.864 52.494 122.864ZM59.1459 120.96V116H60.4899V120.664C60.4899 121.069 60.5885 121.437 60.7859 121.768C60.9832 122.099 61.2472 122.363 61.5779 122.56C61.9139 122.752 62.2819 122.848 62.6819 122.848C63.0872 122.848 63.4525 122.752 63.7779 122.56C64.1085 122.363 64.3725 122.099 64.5699 121.768C64.7672 121.437 64.8659 121.069 64.8659 120.664V116H66.2099L66.2179 124H64.8739L64.8659 122.984C64.5832 123.357 64.2259 123.656 63.7939 123.88C63.3619 124.099 62.8952 124.208 62.3939 124.208C61.7965 124.208 61.2499 124.064 60.7539 123.776C60.2632 123.483 59.8712 123.091 59.5779 122.6C59.2899 122.109 59.1459 121.563 59.1459 120.96ZM67.8252 124V116H69.1692V117C69.4519 116.627 69.8092 116.331 70.2412 116.112C70.6732 115.888 71.1426 115.776 71.6492 115.776C71.9586 115.776 72.2572 115.816 72.5452 115.896L72.0012 117.24C71.7826 117.171 71.5692 117.136 71.3612 117.136C70.9612 117.136 70.5932 117.235 70.2572 117.432C69.9266 117.624 69.6626 117.885 69.4652 118.216C69.2679 118.547 69.1692 118.915 69.1692 119.32V124H67.8252ZM83.7607 116H85.1047V124.256C85.1047 124.784 84.9901 125.275 84.7607 125.728C84.5367 126.187 84.2327 126.584 83.8487 126.92C83.4647 127.261 83.0274 127.525 82.5367 127.712C82.0461 127.904 81.5341 128 81.0007 128C80.4461 128 79.9101 127.875 79.3927 127.624C78.8754 127.379 78.4221 127.048 78.0327 126.632C77.6487 126.221 77.3714 125.76 77.2007 125.248L78.4327 124.688C78.5341 125.056 78.7154 125.387 78.9767 125.68C79.2434 125.979 79.5527 126.213 79.9047 126.384C80.2621 126.56 80.6274 126.648 81.0007 126.648C81.3527 126.648 81.6914 126.587 82.0167 126.464C82.3474 126.341 82.6434 126.171 82.9047 125.952C83.1714 125.739 83.3794 125.485 83.5287 125.192C83.6834 124.904 83.7607 124.592 83.7607 124.256V122.664C83.4887 123.123 83.1287 123.496 82.6807 123.784C82.2381 124.067 81.7207 124.208 81.1287 124.208C80.5634 124.208 80.0327 124.099 79.5367 123.88C79.0407 123.661 78.6061 123.36 78.2327 122.976C77.8594 122.587 77.5661 122.139 77.3527 121.632C77.1394 121.125 77.0327 120.581 77.0327 120C77.0327 119.419 77.1394 118.875 77.3527 118.368C77.5661 117.856 77.8594 117.408 78.2327 117.024C78.6061 116.635 79.0407 116.331 79.5367 116.112C80.0327 115.893 80.5634 115.784 81.1287 115.784C81.7207 115.784 82.2381 115.925 82.6807 116.208C83.1287 116.491 83.4887 116.864 83.7607 117.328V116ZM81.1367 122.904C81.6541 122.904 82.1021 122.771 82.4807 122.504C82.8647 122.237 83.1607 121.883 83.3687 121.44C83.5767 120.997 83.6807 120.517 83.6807 120C83.6807 119.467 83.5741 118.981 83.3607 118.544C83.1527 118.101 82.8567 117.749 82.4727 117.488C82.0941 117.221 81.6487 117.088 81.1367 117.088C80.6354 117.088 80.1767 117.219 79.7607 117.48C79.3447 117.741 79.0141 118.093 78.7687 118.536C78.5287 118.973 78.4087 119.461 78.4087 120C78.4087 120.539 78.5314 121.029 78.7767 121.472C79.0274 121.909 79.3581 122.259 79.7687 122.52C80.1847 122.776 80.6407 122.904 81.1367 122.904ZM87.0284 124V116H88.3724V117C88.655 116.627 89.0124 116.331 89.4444 116.112C89.8764 115.888 90.3457 115.776 90.8524 115.776C91.1617 115.776 91.4604 115.816 91.7484 115.896L91.2044 117.24C90.9857 117.171 90.7724 117.136 90.5644 117.136C90.1644 117.136 89.7964 117.235 89.4604 117.432C89.1297 117.624 88.8657 117.885 88.6684 118.216C88.471 118.547 88.3724 118.915 88.3724 119.32V124H87.0284ZM95.8452 124.208C95.1092 124.208 94.4372 124.019 93.8292 123.64C93.2266 123.261 92.7439 122.755 92.3812 122.12C92.0239 121.48 91.8452 120.773 91.8452 120C91.8452 119.413 91.9492 118.867 92.1572 118.36C92.3652 117.848 92.6506 117.4 93.0132 117.016C93.3812 116.627 93.8079 116.323 94.2932 116.104C94.7786 115.885 95.2959 115.776 95.8452 115.776C96.4479 115.776 96.9999 115.899 97.5012 116.144C98.0079 116.384 98.4399 116.72 98.7972 117.152C99.1599 117.584 99.4292 118.085 99.6052 118.656C99.7866 119.227 99.8532 119.837 99.8052 120.488H93.2772C93.3412 120.941 93.4906 121.347 93.7252 121.704C93.9599 122.056 94.2586 122.336 94.6212 122.544C94.9892 122.752 95.3972 122.859 95.8452 122.864C96.3252 122.864 96.7599 122.741 97.1492 122.496C97.5386 122.245 97.8532 121.904 98.0932 121.472L99.4612 121.792C99.1412 122.501 98.6586 123.083 98.0132 123.536C97.3679 123.984 96.6452 124.208 95.8452 124.208ZM93.2372 119.432H98.4532C98.4106 118.984 98.2666 118.576 98.0212 118.208C97.7759 117.835 97.4639 117.536 97.0852 117.312C96.7066 117.088 96.2932 116.976 95.8452 116.976C95.3972 116.976 94.9866 117.085 94.6132 117.304C94.2399 117.523 93.9306 117.819 93.6852 118.192C93.4452 118.56 93.2959 118.973 93.2372 119.432ZM107.538 116H108.882V124H107.538L107.482 122.648C107.232 123.112 106.885 123.488 106.442 123.776C106.005 124.064 105.482 124.208 104.874 124.208C104.288 124.208 103.738 124.099 103.226 123.88C102.714 123.656 102.261 123.349 101.866 122.96C101.477 122.565 101.173 122.112 100.954 121.6C100.736 121.088 100.626 120.536 100.626 119.944C100.626 119.373 100.733 118.835 100.946 118.328C101.16 117.821 101.456 117.379 101.834 117C102.218 116.616 102.661 116.317 103.162 116.104C103.664 115.885 104.202 115.776 104.778 115.776C105.408 115.776 105.96 115.925 106.434 116.224C106.909 116.517 107.293 116.899 107.586 117.368L107.538 116ZM104.85 122.904C105.378 122.904 105.834 122.776 106.218 122.52C106.608 122.259 106.906 121.907 107.114 121.464C107.328 121.021 107.434 120.533 107.434 120C107.434 119.456 107.328 118.965 107.114 118.528C106.901 118.085 106.6 117.736 106.21 117.48C105.826 117.219 105.373 117.088 104.85 117.088C104.322 117.088 103.842 117.219 103.41 117.48C102.978 117.741 102.634 118.093 102.378 118.536C102.128 118.973 102.002 119.461 102.002 120C102.002 120.539 102.133 121.029 102.394 121.472C102.656 121.909 103.002 122.259 103.434 122.52C103.866 122.776 104.338 122.904 104.85 122.904ZM114.625 117.344H112.809L112.801 124H111.457L111.465 117.344H110.089V116H111.465L111.457 113.488H112.801L112.809 116H114.625V117.344ZM119.376 124.208C118.64 124.208 117.968 124.019 117.36 123.64C116.758 123.261 116.275 122.755 115.912 122.12C115.555 121.48 115.376 120.773 115.376 120C115.376 119.413 115.48 118.867 115.688 118.36C115.896 117.848 116.182 117.4 116.544 117.016C116.912 116.627 117.339 116.323 117.824 116.104C118.31 115.885 118.827 115.776 119.376 115.776C119.979 115.776 120.531 115.899 121.032 116.144C121.539 116.384 121.971 116.72 122.328 117.152C122.691 117.584 122.96 118.085 123.136 118.656C123.318 119.227 123.384 119.837 123.336 120.488H116.808C116.872 120.941 117.022 121.347 117.256 121.704C117.491 122.056 117.79 122.336 118.152 122.544C118.52 122.752 118.928 122.859 119.376 122.864C119.856 122.864 120.291 122.741 120.68 122.496C121.07 122.245 121.384 121.904 121.624 121.472L122.992 121.792C122.672 122.501 122.19 123.083 121.544 123.536C120.899 123.984 120.176 124.208 119.376 124.208ZM116.768 119.432H121.984C121.942 118.984 121.798 118.576 121.552 118.208C121.307 117.835 120.995 117.536 120.616 117.312C120.238 117.088 119.824 116.976 119.376 116.976C118.928 116.976 118.518 117.085 118.144 117.304C117.771 117.523 117.462 117.819 117.216 118.192C116.976 118.56 116.827 118.973 116.768 119.432ZM127.156 124.152C126.724 124.136 126.303 124.056 125.892 123.912C125.487 123.763 125.129 123.563 124.82 123.312C124.516 123.056 124.295 122.763 124.156 122.432L125.308 121.936C125.388 122.117 125.532 122.288 125.74 122.448C125.948 122.608 126.188 122.736 126.46 122.832C126.732 122.928 127.007 122.976 127.284 122.976C127.577 122.976 127.852 122.931 128.108 122.84C128.364 122.749 128.572 122.616 128.732 122.44C128.897 122.259 128.98 122.043 128.98 121.792C128.98 121.525 128.889 121.317 128.708 121.168C128.532 121.013 128.308 120.893 128.036 120.808C127.769 120.717 127.497 120.632 127.22 120.552C126.671 120.413 126.18 120.248 125.748 120.056C125.316 119.859 124.975 119.611 124.724 119.312C124.479 119.008 124.356 118.621 124.356 118.152C124.356 117.656 124.492 117.227 124.764 116.864C125.041 116.501 125.404 116.221 125.852 116.024C126.3 115.827 126.78 115.728 127.292 115.728C127.937 115.728 128.527 115.867 129.06 116.144C129.593 116.421 129.991 116.797 130.252 117.272L129.172 117.904C129.081 117.712 128.943 117.544 128.756 117.4C128.569 117.251 128.356 117.133 128.116 117.048C127.876 116.963 127.631 116.917 127.38 116.912C127.071 116.901 126.78 116.941 126.508 117.032C126.241 117.123 126.025 117.261 125.86 117.448C125.7 117.629 125.62 117.856 125.62 118.128C125.62 118.395 125.705 118.597 125.876 118.736C126.052 118.875 126.279 118.987 126.556 119.072C126.839 119.152 127.145 119.245 127.476 119.352C127.961 119.507 128.415 119.685 128.836 119.888C129.257 120.091 129.596 120.344 129.852 120.648C130.113 120.952 130.241 121.328 130.236 121.776C130.236 122.267 130.089 122.696 129.796 123.064C129.503 123.427 129.121 123.704 128.652 123.896C128.188 124.088 127.689 124.173 127.156 124.152ZM135.75 117.344H133.934L133.926 124H132.582L132.59 117.344H131.214V116H132.59L132.582 113.488H133.926L133.934 116H135.75V117.344ZM147.46 116H148.804V124H147.46L147.404 122.648C147.154 123.112 146.807 123.488 146.364 123.776C145.927 124.064 145.404 124.208 144.796 124.208C144.21 124.208 143.66 124.099 143.148 123.88C142.636 123.656 142.183 123.349 141.788 122.96C141.399 122.565 141.095 122.112 140.876 121.6C140.658 121.088 140.548 120.536 140.548 119.944C140.548 119.373 140.655 118.835 140.868 118.328C141.082 117.821 141.378 117.379 141.756 117C142.14 116.616 142.583 116.317 143.084 116.104C143.586 115.885 144.124 115.776 144.7 115.776C145.33 115.776 145.882 115.925 146.356 116.224C146.831 116.517 147.215 116.899 147.508 117.368L147.46 116ZM144.772 122.904C145.3 122.904 145.756 122.776 146.14 122.52C146.53 122.259 146.828 121.907 147.036 121.464C147.25 121.021 147.356 120.533 147.356 120C147.356 119.456 147.25 118.965 147.036 118.528C146.823 118.085 146.522 117.736 146.132 117.48C145.748 117.219 145.295 117.088 144.772 117.088C144.244 117.088 143.764 117.219 143.332 117.48C142.9 117.741 142.556 118.093 142.3 118.536C142.05 118.973 141.924 119.461 141.924 120C141.924 120.539 142.055 121.029 142.316 121.472C142.578 121.909 142.924 122.259 143.356 122.52C143.788 122.776 144.26 122.904 144.772 122.904ZM155.759 121.888L156.959 122.536C156.596 123.043 156.135 123.448 155.575 123.752C155.02 124.056 154.418 124.208 153.767 124.208C153.031 124.208 152.359 124.019 151.751 123.64C151.148 123.261 150.666 122.755 150.303 122.12C149.946 121.48 149.767 120.773 149.767 120C149.767 119.413 149.871 118.867 150.079 118.36C150.287 117.848 150.572 117.4 150.935 117.016C151.303 116.627 151.73 116.323 152.215 116.104C152.7 115.885 153.218 115.776 153.767 115.776C154.418 115.776 155.02 115.928 155.575 116.232C156.135 116.536 156.596 116.944 156.959 117.456L155.759 118.104C155.503 117.789 155.199 117.547 154.847 117.376C154.495 117.205 154.135 117.12 153.767 117.12C153.271 117.12 152.82 117.253 152.415 117.52C152.015 117.781 151.698 118.131 151.463 118.568C151.228 119.005 151.111 119.483 151.111 120C151.111 120.517 151.228 120.995 151.463 121.432C151.703 121.864 152.023 122.211 152.423 122.472C152.828 122.733 153.276 122.864 153.767 122.864C154.162 122.864 154.532 122.773 154.879 122.592C155.226 122.411 155.519 122.176 155.759 121.888ZM165.335 119.024V124H163.991V119.32C163.991 118.915 163.892 118.547 163.695 118.216C163.497 117.885 163.233 117.624 162.903 117.432C162.572 117.235 162.204 117.136 161.799 117.136C161.399 117.136 161.031 117.235 160.695 117.432C160.364 117.624 160.1 117.885 159.903 118.216C159.705 118.547 159.607 118.915 159.607 119.32V124H158.263V112H159.607V117C159.889 116.627 160.247 116.331 160.679 116.112C161.111 115.888 161.58 115.776 162.087 115.776C162.684 115.776 163.228 115.923 163.719 116.216C164.215 116.504 164.607 116.893 164.895 117.384C165.188 117.875 165.335 118.421 165.335 119.024ZM166.935 116H168.279V124H166.935V116ZM167.623 114.696C167.409 114.696 167.231 114.627 167.087 114.488C166.943 114.349 166.871 114.176 166.871 113.968C166.871 113.76 166.943 113.587 167.087 113.448C167.231 113.309 167.407 113.24 167.615 113.24C167.823 113.24 167.999 113.309 168.143 113.448C168.287 113.587 168.359 113.76 168.359 113.968C168.359 114.176 168.287 114.349 168.143 114.488C168.004 114.627 167.831 114.696 167.623 114.696ZM173.611 124.208C172.875 124.208 172.203 124.019 171.595 123.64C170.992 123.261 170.51 122.755 170.147 122.12C169.79 121.48 169.611 120.773 169.611 120C169.611 119.413 169.715 118.867 169.923 118.36C170.131 117.848 170.416 117.4 170.779 117.016C171.147 116.627 171.574 116.323 172.059 116.104C172.544 115.885 173.062 115.776 173.611 115.776C174.214 115.776 174.766 115.899 175.267 116.144C175.774 116.384 176.206 116.72 176.563 117.152C176.926 117.584 177.195 118.085 177.371 118.656C177.552 119.227 177.619 119.837 177.571 120.488H171.043C171.107 120.941 171.256 121.347 171.491 121.704C171.726 122.056 172.024 122.336 172.387 122.544C172.755 122.752 173.163 122.859 173.611 122.864C174.091 122.864 174.526 122.741 174.915 122.496C175.304 122.245 175.619 121.904 175.859 121.472L177.227 121.792C176.907 122.501 176.424 123.083 175.779 123.536C175.134 123.984 174.411 124.208 173.611 124.208ZM171.003 119.432H176.219C176.176 118.984 176.032 118.576 175.787 118.208C175.542 117.835 175.23 117.536 174.851 117.312C174.472 117.088 174.059 116.976 173.611 116.976C173.163 116.976 172.752 117.085 172.379 117.304C172.006 117.523 171.696 117.819 171.451 118.192C171.211 118.56 171.062 118.973 171.003 119.432ZM182.72 124H181L178.08 115.984H179.512L181.856 122.44L184.2 115.984H185.632L182.72 124ZM190.126 124.208C189.39 124.208 188.718 124.019 188.11 123.64C187.508 123.261 187.025 122.755 186.662 122.12C186.305 121.48 186.126 120.773 186.126 120C186.126 119.413 186.23 118.867 186.438 118.36C186.646 117.848 186.932 117.4 187.294 117.016C187.662 116.627 188.089 116.323 188.574 116.104C189.06 115.885 189.577 115.776 190.126 115.776C190.729 115.776 191.281 115.899 191.782 116.144C192.289 116.384 192.721 116.72 193.078 117.152C193.441 117.584 193.71 118.085 193.886 118.656C194.068 119.227 194.134 119.837 194.086 120.488H187.558C187.622 120.941 187.772 121.347 188.006 121.704C188.241 122.056 188.54 122.336 188.902 122.544C189.27 122.752 189.678 122.859 190.126 122.864C190.606 122.864 191.041 122.741 191.43 122.496C191.82 122.245 192.134 121.904 192.374 121.472L193.742 121.792C193.422 122.501 192.94 123.083 192.294 123.536C191.649 123.984 190.926 124.208 190.126 124.208ZM187.518 119.432H192.734C192.692 118.984 192.548 118.576 192.302 118.208C192.057 117.835 191.745 117.536 191.366 117.312C190.988 117.088 190.574 116.976 190.126 116.976C189.678 116.976 189.268 117.085 188.894 117.304C188.521 117.523 188.212 117.819 187.966 118.192C187.726 118.56 187.577 118.973 187.518 119.432ZM195.435 124V116H196.779V117C197.061 116.627 197.416 116.331 197.843 116.112C198.275 115.888 198.744 115.776 199.251 115.776C199.843 115.776 200.384 115.92 200.875 116.208C201.365 116.496 201.752 116.877 202.035 117.352C202.317 116.877 202.701 116.496 203.187 116.208C203.677 115.92 204.216 115.776 204.803 115.776C205.405 115.776 205.952 115.923 206.443 116.216C206.933 116.504 207.323 116.893 207.611 117.384C207.904 117.875 208.051 118.421 208.051 119.024V124H206.707V119.344C206.707 118.949 206.611 118.584 206.419 118.248C206.227 117.912 205.968 117.643 205.643 117.44C205.317 117.237 204.957 117.136 204.563 117.136C204.168 117.136 203.808 117.232 203.483 117.424C203.157 117.611 202.899 117.872 202.707 118.208C202.515 118.539 202.419 118.917 202.419 119.344V124H201.075V119.344C201.075 118.917 200.979 118.539 200.787 118.208C200.595 117.872 200.333 117.611 200.003 117.424C199.677 117.232 199.317 117.136 198.923 117.136C198.533 117.136 198.173 117.237 197.843 117.44C197.517 117.643 197.259 117.912 197.067 118.248C196.875 118.584 196.779 118.949 196.779 119.344V124H195.435ZM213.017 124.208C212.281 124.208 211.609 124.019 211.001 123.64C210.398 123.261 209.916 122.755 209.553 122.12C209.196 121.48 209.017 120.773 209.017 120C209.017 119.413 209.121 118.867 209.329 118.36C209.537 117.848 209.822 117.4 210.185 117.016C210.553 116.627 210.98 116.323 211.465 116.104C211.95 115.885 212.468 115.776 213.017 115.776C213.62 115.776 214.172 115.899 214.673 116.144C215.18 116.384 215.612 116.72 215.969 117.152C216.332 117.584 216.601 118.085 216.777 118.656C216.958 119.227 217.025 119.837 216.977 120.488H210.449C210.513 120.941 210.662 121.347 210.897 121.704C211.132 122.056 211.43 122.336 211.793 122.544C212.161 122.752 212.569 122.859 213.017 122.864C213.497 122.864 213.932 122.741 214.321 122.496C214.71 122.245 215.025 121.904 215.265 121.472L216.633 121.792C216.313 122.501 215.83 123.083 215.185 123.536C214.54 123.984 213.817 124.208 213.017 124.208ZM210.409 119.432H215.625C215.582 118.984 215.438 118.576 215.193 118.208C214.948 117.835 214.636 117.536 214.257 117.312C213.878 117.088 213.465 116.976 213.017 116.976C212.569 116.976 212.158 117.085 211.785 117.304C211.412 117.523 211.102 117.819 210.857 118.192C210.617 118.56 210.468 118.973 210.409 119.432ZM225.397 119.024V124H224.053V119.32C224.053 118.915 223.955 118.547 223.757 118.216C223.56 117.885 223.296 117.624 222.965 117.432C222.635 117.235 222.267 117.136 221.861 117.136C221.461 117.136 221.093 117.235 220.757 117.432C220.427 117.624 220.163 117.885 219.965 118.216C219.768 118.547 219.669 118.915 219.669 119.32V124H218.325V116H219.669V117C219.952 116.627 220.309 116.331 220.741 116.112C221.173 115.888 221.643 115.776 222.149 115.776C222.747 115.776 223.291 115.923 223.781 116.216C224.277 116.504 224.669 116.893 224.957 117.384C225.251 117.875 225.397 118.421 225.397 119.024ZM231.141 117.344H229.325L229.317 124H227.973L227.981 117.344H226.605V116H227.981L227.973 113.488H229.317L229.325 116H231.141V117.344ZM236.419 116H237.763V124H236.419V116ZM237.107 114.696C236.894 114.696 236.715 114.627 236.571 114.488C236.427 114.349 236.355 114.176 236.355 113.968C236.355 113.76 236.427 113.587 236.571 113.448C236.715 113.309 236.891 113.24 237.099 113.24C237.307 113.24 237.483 113.309 237.627 113.448C237.771 113.587 237.843 113.76 237.843 113.968C237.843 114.176 237.771 114.349 237.627 114.488C237.488 114.627 237.315 114.696 237.107 114.696ZM242.046 124.152C241.614 124.136 241.193 124.056 240.782 123.912C240.377 123.763 240.02 123.563 239.71 123.312C239.406 123.056 239.185 122.763 239.046 122.432L240.198 121.936C240.278 122.117 240.422 122.288 240.63 122.448C240.838 122.608 241.078 122.736 241.35 122.832C241.622 122.928 241.897 122.976 242.174 122.976C242.468 122.976 242.742 122.931 242.998 122.84C243.254 122.749 243.462 122.616 243.622 122.44C243.788 122.259 243.87 122.043 243.87 121.792C243.87 121.525 243.78 121.317 243.598 121.168C243.422 121.013 243.198 120.893 242.926 120.808C242.66 120.717 242.388 120.632 242.11 120.552C241.561 120.413 241.07 120.248 240.638 120.056C240.206 119.859 239.865 119.611 239.614 119.312C239.369 119.008 239.246 118.621 239.246 118.152C239.246 117.656 239.382 117.227 239.654 116.864C239.932 116.501 240.294 116.221 240.742 116.024C241.19 115.827 241.67 115.728 242.182 115.728C242.828 115.728 243.417 115.867 243.95 116.144C244.484 116.421 244.881 116.797 245.142 117.272L244.062 117.904C243.972 117.712 243.833 117.544 243.646 117.4C243.46 117.251 243.246 117.133 243.006 117.048C242.766 116.963 242.521 116.917 242.27 116.912C241.961 116.901 241.67 116.941 241.398 117.032C241.132 117.123 240.916 117.261 240.75 117.448C240.59 117.629 240.51 117.856 240.51 118.128C240.51 118.395 240.596 118.597 240.766 118.736C240.942 118.875 241.169 118.987 241.446 119.072C241.729 119.152 242.036 119.245 242.366 119.352C242.852 119.507 243.305 119.685 243.726 119.888C244.148 120.091 244.486 120.344 244.742 120.648C245.004 120.952 245.132 121.328 245.126 121.776C245.126 122.267 244.98 122.696 244.686 123.064C244.393 123.427 244.012 123.704 243.542 123.896C243.078 124.088 242.58 124.173 242.046 124.152ZM254.485 117.344H252.669L252.661 124H251.317L251.325 117.344H249.949V116H251.325L251.317 113.488H252.661L252.669 116H254.485V117.344ZM262.991 119.024V124H261.647V119.32C261.647 118.915 261.548 118.547 261.351 118.216C261.154 117.885 260.89 117.624 260.559 117.432C260.228 117.235 259.86 117.136 259.455 117.136C259.055 117.136 258.687 117.235 258.351 117.432C258.02 117.624 257.756 117.885 257.559 118.216C257.362 118.547 257.263 118.915 257.263 119.32V124H255.919V112H257.263V117C257.546 116.627 257.903 116.331 258.335 116.112C258.767 115.888 259.236 115.776 259.743 115.776C260.34 115.776 260.884 115.923 261.375 116.216C261.871 116.504 262.263 116.893 262.551 117.384C262.844 117.875 262.991 118.421 262.991 119.024ZM267.955 124.208C267.219 124.208 266.547 124.019 265.939 123.64C265.336 123.261 264.853 122.755 264.491 122.12C264.133 121.48 263.955 120.773 263.955 120C263.955 119.413 264.059 118.867 264.267 118.36C264.475 117.848 264.76 117.4 265.123 117.016C265.491 116.627 265.917 116.323 266.403 116.104C266.888 115.885 267.405 115.776 267.955 115.776C268.557 115.776 269.109 115.899 269.611 116.144C270.117 116.384 270.549 116.72 270.907 117.152C271.269 117.584 271.539 118.085 271.715 118.656C271.896 119.227 271.963 119.837 271.915 120.488H265.387C265.451 120.941 265.6 121.347 265.835 121.704C266.069 122.056 266.368 122.336 266.731 122.544C267.099 122.752 267.507 122.859 267.955 122.864C268.435 122.864 268.869 122.741 269.259 122.496C269.648 122.245 269.963 121.904 270.203 121.472L271.571 121.792C271.251 122.501 270.768 123.083 270.123 123.536C269.477 123.984 268.755 124.208 267.955 124.208ZM265.347 119.432H270.563C270.52 118.984 270.376 118.576 270.131 118.208C269.885 117.835 269.573 117.536 269.195 117.312C268.816 117.088 268.403 116.976 267.955 116.976C267.507 116.976 267.096 117.085 266.723 117.304C266.349 117.523 266.04 117.819 265.795 118.192C265.555 118.56 265.405 118.973 265.347 119.432ZM279.656 124.152C279.224 124.136 278.803 124.056 278.392 123.912C277.987 123.763 277.629 123.563 277.32 123.312C277.016 123.056 276.795 122.763 276.656 122.432L277.808 121.936C277.888 122.117 278.032 122.288 278.24 122.448C278.448 122.608 278.688 122.736 278.96 122.832C279.232 122.928 279.507 122.976 279.784 122.976C280.077 122.976 280.352 122.931 280.608 122.84C280.864 122.749 281.072 122.616 281.232 122.44C281.397 122.259 281.48 122.043 281.48 121.792C281.48 121.525 281.389 121.317 281.208 121.168C281.032 121.013 280.808 120.893 280.536 120.808C280.269 120.717 279.997 120.632 279.72 120.552C279.171 120.413 278.68 120.248 278.248 120.056C277.816 119.859 277.475 119.611 277.224 119.312C276.979 119.008 276.856 118.621 276.856 118.152C276.856 117.656 276.992 117.227 277.264 116.864C277.541 116.501 277.904 116.221 278.352 116.024C278.8 115.827 279.28 115.728 279.792 115.728C280.437 115.728 281.027 115.867 281.56 116.144C282.093 116.421 282.491 116.797 282.752 117.272L281.672 117.904C281.581 117.712 281.443 117.544 281.256 117.4C281.069 117.251 280.856 117.133 280.616 117.048C280.376 116.963 280.131 116.917 279.88 116.912C279.571 116.901 279.28 116.941 279.008 117.032C278.741 117.123 278.525 117.261 278.36 117.448C278.2 117.629 278.12 117.856 278.12 118.128C278.12 118.395 278.205 118.597 278.376 118.736C278.552 118.875 278.779 118.987 279.056 119.072C279.339 119.152 279.645 119.245 279.976 119.352C280.461 119.507 280.915 119.685 281.336 119.888C281.757 120.091 282.096 120.344 282.352 120.648C282.613 120.952 282.741 121.328 282.736 121.776C282.736 122.267 282.589 122.696 282.296 123.064C282.003 123.427 281.621 123.704 281.152 123.896C280.688 124.088 280.189 124.173 279.656 124.152ZM290.46 116H291.804V124H290.46L290.404 122.648C290.154 123.112 289.807 123.488 289.364 123.776C288.927 124.064 288.404 124.208 287.796 124.208C287.21 124.208 286.66 124.099 286.148 123.88C285.636 123.656 285.183 123.349 284.788 122.96C284.399 122.565 284.095 122.112 283.876 121.6C283.658 121.088 283.548 120.536 283.548 119.944C283.548 119.373 283.655 118.835 283.868 118.328C284.082 117.821 284.378 117.379 284.756 117C285.14 116.616 285.583 116.317 286.084 116.104C286.586 115.885 287.124 115.776 287.7 115.776C288.33 115.776 288.882 115.925 289.356 116.224C289.831 116.517 290.215 116.899 290.508 117.368L290.46 116ZM287.772 122.904C288.3 122.904 288.756 122.776 289.14 122.52C289.53 122.259 289.828 121.907 290.036 121.464C290.25 121.021 290.356 120.533 290.356 120C290.356 119.456 290.25 118.965 290.036 118.528C289.823 118.085 289.522 117.736 289.132 117.48C288.748 117.219 288.295 117.088 287.772 117.088C287.244 117.088 286.764 117.219 286.332 117.48C285.9 117.741 285.556 118.093 285.3 118.536C285.05 118.973 284.924 119.461 284.924 120C284.924 120.539 285.055 121.029 285.316 121.472C285.578 121.909 285.924 122.259 286.356 122.52C286.788 122.776 287.26 122.904 287.772 122.904ZM297.547 117.344H295.731L295.723 124H294.379L294.387 117.344H293.011V116H294.387L294.379 113.488H295.723L295.731 116H297.547V117.344ZM298.903 116H300.247V124H298.903V116ZM299.591 114.696C299.378 114.696 299.199 114.627 299.055 114.488C298.911 114.349 298.839 114.176 298.839 113.968C298.839 113.76 298.911 113.587 299.055 113.448C299.199 113.309 299.375 113.24 299.583 113.24C299.791 113.24 299.967 113.309 300.111 113.448C300.255 113.587 300.327 113.76 300.327 113.968C300.327 114.176 300.255 114.349 300.111 114.488C299.973 114.627 299.799 114.696 299.591 114.696ZM304.531 124.152C304.099 124.136 303.678 124.056 303.267 123.912C302.862 123.763 302.504 123.563 302.195 123.312C301.891 123.056 301.67 122.763 301.531 122.432L302.683 121.936C302.763 122.117 302.907 122.288 303.115 122.448C303.323 122.608 303.563 122.736 303.835 122.832C304.107 122.928 304.382 122.976 304.659 122.976C304.952 122.976 305.227 122.931 305.483 122.84C305.739 122.749 305.947 122.616 306.107 122.44C306.272 122.259 306.355 122.043 306.355 121.792C306.355 121.525 306.264 121.317 306.083 121.168C305.907 121.013 305.683 120.893 305.411 120.808C305.144 120.717 304.872 120.632 304.595 120.552C304.046 120.413 303.555 120.248 303.123 120.056C302.691 119.859 302.35 119.611 302.099 119.312C301.854 119.008 301.731 118.621 301.731 118.152C301.731 117.656 301.867 117.227 302.139 116.864C302.416 116.501 302.779 116.221 303.227 116.024C303.675 115.827 304.155 115.728 304.667 115.728C305.312 115.728 305.902 115.867 306.435 116.144C306.968 116.421 307.366 116.797 307.627 117.272L306.547 117.904C306.456 117.712 306.318 117.544 306.131 117.4C305.944 117.251 305.731 117.133 305.491 117.048C305.251 116.963 305.006 116.917 304.755 116.912C304.446 116.901 304.155 116.941 303.883 117.032C303.616 117.123 303.4 117.261 303.235 117.448C303.075 117.629 302.995 117.856 302.995 118.128C302.995 118.395 303.08 118.597 303.251 118.736C303.427 118.875 303.654 118.987 303.931 119.072C304.214 119.152 304.52 119.245 304.851 119.352C305.336 119.507 305.79 119.685 306.211 119.888C306.632 120.091 306.971 120.344 307.227 120.648C307.488 120.952 307.616 121.328 307.611 121.776C307.611 122.267 307.464 122.696 307.171 123.064C306.878 123.427 306.496 123.704 306.027 123.896C305.563 124.088 305.064 124.173 304.531 124.152ZM310.797 114.024V116H313.141V117.344H310.797V124H309.453V117.344H308.421V116H309.453V114.024C309.453 113.613 309.552 113.243 309.749 112.912C309.952 112.576 310.221 112.309 310.557 112.112C310.899 111.909 311.272 111.808 311.677 111.808C311.976 111.808 312.267 111.869 312.549 111.992C312.832 112.109 313.083 112.285 313.301 112.52L312.341 113.472C312.267 113.371 312.168 113.293 312.045 113.24C311.928 113.181 311.805 113.152 311.677 113.152C311.437 113.152 311.229 113.237 311.053 113.408C310.883 113.579 310.797 113.784 310.797 114.024ZM320.695 116H322.039V124H320.695L320.639 122.648C320.388 123.112 320.041 123.488 319.599 123.776C319.161 124.064 318.639 124.208 318.031 124.208C317.444 124.208 316.895 124.099 316.383 123.88C315.871 123.656 315.417 123.349 315.023 122.96C314.633 122.565 314.329 122.112 314.111 121.6C313.892 121.088 313.783 120.536 313.783 119.944C313.783 119.373 313.889 118.835 314.103 118.328C314.316 117.821 314.612 117.379 314.991 117C315.375 116.616 315.817 116.317 316.319 116.104C316.82 115.885 317.359 115.776 317.935 115.776C318.564 115.776 319.116 115.925 319.591 116.224C320.065 116.517 320.449 116.899 320.743 117.368L320.695 116ZM318.007 122.904C318.535 122.904 318.991 122.776 319.375 122.52C319.764 122.259 320.063 121.907 320.271 121.464C320.484 121.021 320.591 120.533 320.591 120C320.591 119.456 320.484 118.965 320.271 118.528C320.057 118.085 319.756 117.736 319.367 117.48C318.983 117.219 318.529 117.088 318.007 117.088C317.479 117.088 316.999 117.219 316.567 117.48C316.135 117.741 315.791 118.093 315.535 118.536C315.284 118.973 315.159 119.461 315.159 120C315.159 120.539 315.289 121.029 315.551 121.472C315.812 121.909 316.159 122.259 316.591 122.52C317.023 122.776 317.495 122.904 318.007 122.904ZM328.993 121.888L330.193 122.536C329.831 123.043 329.369 123.448 328.809 123.752C328.255 124.056 327.652 124.208 327.001 124.208C326.265 124.208 325.593 124.019 324.985 123.64C324.383 123.261 323.9 122.755 323.537 122.12C323.18 121.48 323.001 120.773 323.001 120C323.001 119.413 323.105 118.867 323.313 118.36C323.521 117.848 323.807 117.4 324.169 117.016C324.537 116.627 324.964 116.323 325.449 116.104C325.935 115.885 326.452 115.776 327.001 115.776C327.652 115.776 328.255 115.928 328.809 116.232C329.369 116.536 329.831 116.944 330.193 117.456L328.993 118.104C328.737 117.789 328.433 117.547 328.081 117.376C327.729 117.205 327.369 117.12 327.001 117.12C326.505 117.12 326.055 117.253 325.649 117.52C325.249 117.781 324.932 118.131 324.697 118.568C324.463 119.005 324.345 119.483 324.345 120C324.345 120.517 324.463 120.995 324.697 121.432C324.937 121.864 325.257 122.211 325.657 122.472C326.063 122.733 326.511 122.864 327.001 122.864C327.396 122.864 327.767 122.773 328.113 122.592C328.46 122.411 328.753 122.176 328.993 121.888ZM335.782 117.344H333.966L333.958 124H332.614L332.622 117.344H331.246V116H332.622L332.614 113.488H333.958L333.966 116H335.782V117.344ZM337.138 116H338.482V124H337.138V116ZM337.826 114.696C337.612 114.696 337.434 114.627 337.29 114.488C337.146 114.349 337.074 114.176 337.074 113.968C337.074 113.76 337.146 113.587 337.29 113.448C337.434 113.309 337.61 113.24 337.818 113.24C338.026 113.24 338.202 113.309 338.346 113.448C338.49 113.587 338.562 113.76 338.562 113.968C338.562 114.176 338.49 114.349 338.346 114.488C338.207 114.627 338.034 114.696 337.826 114.696ZM343.814 124.208C343.078 124.208 342.406 124.019 341.798 123.64C341.195 123.261 340.713 122.755 340.35 122.12C339.993 121.48 339.814 120.773 339.814 120C339.814 119.413 339.918 118.867 340.126 118.36C340.334 117.848 340.619 117.4 340.982 117.016C341.35 116.627 341.777 116.323 342.262 116.104C342.747 115.885 343.265 115.776 343.814 115.776C344.55 115.776 345.219 115.965 345.822 116.344C346.43 116.723 346.913 117.232 347.27 117.872C347.633 118.512 347.814 119.221 347.814 120C347.814 120.581 347.71 121.125 347.502 121.632C347.294 122.139 347.006 122.587 346.638 122.976C346.275 123.36 345.851 123.661 345.366 123.88C344.886 124.099 344.369 124.208 343.814 124.208ZM343.814 122.864C344.315 122.864 344.766 122.733 345.166 122.472C345.571 122.205 345.889 121.856 346.118 121.424C346.353 120.987 346.47 120.512 346.47 120C346.47 119.477 346.35 118.997 346.11 118.56C345.875 118.123 345.558 117.773 345.158 117.512C344.758 117.251 344.31 117.12 343.814 117.12C343.313 117.12 342.862 117.253 342.462 117.52C342.062 117.781 341.745 118.131 341.51 118.568C341.275 119.005 341.158 119.483 341.158 120C341.158 120.533 341.278 121.019 341.518 121.456C341.758 121.888 342.081 122.232 342.486 122.488C342.891 122.739 343.334 122.864 343.814 122.864ZM356.21 119.024V124H354.866V119.32C354.866 118.915 354.767 118.547 354.57 118.216C354.372 117.885 354.108 117.624 353.778 117.432C353.447 117.235 353.079 117.136 352.674 117.136C352.274 117.136 351.906 117.235 351.57 117.432C351.239 117.624 350.975 117.885 350.778 118.216C350.58 118.547 350.482 118.915 350.482 119.32V124H349.138V116H350.482V117C350.764 116.627 351.122 116.331 351.554 116.112C351.986 115.888 352.455 115.776 352.962 115.776C353.559 115.776 354.103 115.923 354.594 116.216C355.09 116.504 355.482 116.893 355.77 117.384C356.063 117.875 356.21 118.421 356.21 119.024ZM50.814 148.208C50.078 148.208 49.406 148.019 48.798 147.64C48.1953 147.261 47.7127 146.755 47.35 146.12C46.9927 145.48 46.814 144.773 46.814 144C46.814 143.413 46.918 142.867 47.126 142.36C47.334 141.848 47.6193 141.4 47.982 141.016C48.35 140.627 48.7767 140.323 49.262 140.104C49.7473 139.885 50.2647 139.776 50.814 139.776C51.55 139.776 52.2193 139.965 52.822 140.344C53.43 140.723 53.9127 141.232 54.27 141.872C54.6327 142.512 54.814 143.221 54.814 144C54.814 144.581 54.71 145.125 54.502 145.632C54.294 146.139 54.006 146.587 53.638 146.976C53.2753 147.36 52.8513 147.661 52.366 147.88C51.886 148.099 51.3687 148.208 50.814 148.208ZM50.814 146.864C51.3153 146.864 51.766 146.733 52.166 146.472C52.5713 146.205 52.8887 145.856 53.118 145.424C53.3527 144.987 53.47 144.512 53.47 144C53.47 143.477 53.35 142.997 53.11 142.56C52.8753 142.123 52.558 141.773 52.158 141.512C51.758 141.251 51.31 141.12 50.814 141.12C50.3127 141.12 49.862 141.253 49.462 141.52C49.062 141.781 48.7447 142.131 48.51 142.568C48.2753 143.005 48.158 143.483 48.158 144C48.158 144.533 48.278 145.019 48.518 145.456C48.758 145.888 49.0807 146.232 49.486 146.488C49.8913 146.739 50.334 146.864 50.814 146.864ZM58.0631 138.024V140H60.4071V141.344H58.0631V148H56.7191V141.344H55.6871V140H56.7191V138.024C56.7191 137.613 56.8178 137.243 57.0151 136.912C57.2178 136.576 57.4871 136.309 57.8231 136.112C58.1644 135.909 58.5378 135.808 58.9431 135.808C59.2418 135.808 59.5324 135.869 59.8151 135.992C60.0978 136.109 60.3484 136.285 60.5671 136.52L59.6071 137.472C59.5324 137.371 59.4338 137.293 59.3111 137.24C59.1938 137.181 59.0711 137.152 58.9431 137.152C58.7031 137.152 58.4951 137.237 58.3191 137.408C58.1484 137.579 58.0631 137.784 58.0631 138.024ZM69.0796 148.208C68.3436 148.208 67.6716 148.019 67.0636 147.64C66.4609 147.261 65.9783 146.755 65.6156 146.12C65.2583 145.48 65.0796 144.773 65.0796 144C65.0796 143.413 65.1836 142.867 65.3916 142.36C65.5996 141.848 65.8849 141.4 66.2476 141.016C66.6156 140.627 67.0423 140.323 67.5276 140.104C68.0129 139.885 68.5303 139.776 69.0796 139.776C69.8156 139.776 70.4849 139.965 71.0876 140.344C71.6956 140.723 72.1783 141.232 72.5356 141.872C72.8983 142.512 73.0796 143.221 73.0796 144C73.0796 144.581 72.9756 145.125 72.7676 145.632C72.5596 146.139 72.2716 146.587 71.9036 146.976C71.5409 147.36 71.1169 147.661 70.6316 147.88C70.1516 148.099 69.6343 148.208 69.0796 148.208ZM69.0796 146.864C69.5809 146.864 70.0316 146.733 70.4316 146.472C70.8369 146.205 71.1543 145.856 71.3836 145.424C71.6183 144.987 71.7356 144.512 71.7356 144C71.7356 143.477 71.6156 142.997 71.3756 142.56C71.1409 142.123 70.8236 141.773 70.4236 141.512C70.0236 141.251 69.5756 141.12 69.0796 141.12C68.5783 141.12 68.1276 141.253 67.7276 141.52C67.3276 141.781 67.0103 142.131 66.7756 142.568C66.5409 143.005 66.4236 143.483 66.4236 144C66.4236 144.533 66.5436 145.019 66.7836 145.456C67.0236 145.888 67.3463 146.232 67.7516 146.488C68.1569 146.739 68.5996 146.864 69.0796 146.864ZM73.974 144.96V140H75.318V144.664C75.318 145.069 75.4167 145.437 75.614 145.768C75.8113 146.099 76.0753 146.363 76.406 146.56C76.742 146.752 77.11 146.848 77.51 146.848C77.9153 146.848 78.2807 146.752 78.606 146.56C78.9367 146.363 79.2007 146.099 79.398 145.768C79.5953 145.437 79.694 145.069 79.694 144.664V140H81.038L81.046 148H79.702L79.694 146.984C79.4113 147.357 79.054 147.656 78.622 147.88C78.19 148.099 77.7233 148.208 77.222 148.208C76.6247 148.208 76.078 148.064 75.582 147.776C75.0913 147.483 74.6993 147.091 74.406 146.6C74.118 146.109 73.974 145.563 73.974 144.96ZM82.6534 148V140H83.9974V141C84.28 140.627 84.6374 140.331 85.0694 140.112C85.5014 139.888 85.9707 139.776 86.4774 139.776C86.7867 139.776 87.0854 139.816 87.3734 139.896L86.8294 141.24C86.6107 141.171 86.3974 141.136 86.1894 141.136C85.7894 141.136 85.4214 141.235 85.0854 141.432C84.7547 141.624 84.4907 141.885 84.2934 142.216C84.096 142.547 83.9974 142.915 83.9974 143.32V148H82.6534ZM97.8529 145.888L99.0529 146.536C98.6902 147.043 98.2289 147.448 97.6689 147.752C97.1142 148.056 96.5115 148.208 95.8609 148.208C95.1249 148.208 94.4529 148.019 93.8449 147.64C93.2422 147.261 92.7595 146.755 92.3969 146.12C92.0395 145.48 91.8609 144.773 91.8609 144C91.8609 143.413 91.9649 142.867 92.1729 142.36C92.3809 141.848 92.6662 141.4 93.0289 141.016C93.3969 140.627 93.8235 140.323 94.3089 140.104C94.7942 139.885 95.3115 139.776 95.8609 139.776C96.5115 139.776 97.1142 139.928 97.6689 140.232C98.2289 140.536 98.6902 140.944 99.0529 141.456L97.8529 142.104C97.5969 141.789 97.2929 141.547 96.9409 141.376C96.5889 141.205 96.2289 141.12 95.8609 141.12C95.3649 141.12 94.9142 141.253 94.5089 141.52C94.1089 141.781 93.7915 142.131 93.5569 142.568C93.3222 143.005 93.2049 143.483 93.2049 144C93.2049 144.517 93.3222 144.995 93.5569 145.432C93.7969 145.864 94.1169 146.211 94.5169 146.472C94.9222 146.733 95.3702 146.864 95.8609 146.864C96.2555 146.864 96.6262 146.773 96.9729 146.592C97.3195 146.411 97.6129 146.176 97.8529 145.888ZM100.356 148V136H101.7V148H100.356ZM103.622 140H104.966V148H103.622V140ZM104.31 138.696C104.097 138.696 103.918 138.627 103.774 138.488C103.63 138.349 103.558 138.176 103.558 137.968C103.558 137.76 103.63 137.587 103.774 137.448C103.918 137.309 104.094 137.24 104.302 137.24C104.51 137.24 104.686 137.309 104.83 137.448C104.974 137.587 105.046 137.76 105.046 137.968C105.046 138.176 104.974 138.349 104.83 138.488C104.691 138.627 104.518 138.696 104.31 138.696ZM110.298 148.208C109.562 148.208 108.89 148.019 108.282 147.64C107.68 147.261 107.197 146.755 106.834 146.12C106.477 145.48 106.298 144.773 106.298 144C106.298 143.413 106.402 142.867 106.61 142.36C106.818 141.848 107.104 141.4 107.466 141.016C107.834 140.627 108.261 140.323 108.746 140.104C109.232 139.885 109.749 139.776 110.298 139.776C110.901 139.776 111.453 139.899 111.954 140.144C112.461 140.384 112.893 140.72 113.25 141.152C113.613 141.584 113.882 142.085 114.058 142.656C114.24 143.227 114.306 143.837 114.258 144.488H107.73C107.794 144.941 107.944 145.347 108.178 145.704C108.413 146.056 108.712 146.336 109.074 146.544C109.442 146.752 109.85 146.859 110.298 146.864C110.778 146.864 111.213 146.741 111.602 146.496C111.992 146.245 112.306 145.904 112.546 145.472L113.914 145.792C113.594 146.501 113.112 147.083 112.466 147.536C111.821 147.984 111.098 148.208 110.298 148.208ZM107.69 143.432H112.906C112.864 142.984 112.72 142.576 112.474 142.208C112.229 141.835 111.917 141.536 111.538 141.312C111.16 141.088 110.746 140.976 110.298 140.976C109.85 140.976 109.44 141.085 109.066 141.304C108.693 141.523 108.384 141.819 108.138 142.192C107.898 142.56 107.749 142.973 107.69 143.432ZM122.678 143.024V148H121.334V143.32C121.334 142.915 121.236 142.547 121.038 142.216C120.841 141.885 120.577 141.624 120.246 141.432C119.916 141.235 119.548 141.136 119.142 141.136C118.742 141.136 118.374 141.235 118.038 141.432C117.708 141.624 117.444 141.885 117.246 142.216C117.049 142.547 116.95 142.915 116.95 143.32V148H115.606V140H116.95V141C117.233 140.627 117.59 140.331 118.022 140.112C118.454 139.888 118.924 139.776 119.43 139.776C120.028 139.776 120.572 139.923 121.062 140.216C121.558 140.504 121.95 140.893 122.238 141.384C122.532 141.875 122.678 142.421 122.678 143.024ZM128.422 141.344H126.606L126.598 148H125.254L125.262 141.344H123.886V140H125.262L125.254 137.488H126.598L126.606 140H128.422V141.344ZM132.218 148.152C131.786 148.136 131.365 148.056 130.954 147.912C130.549 147.763 130.192 147.563 129.882 147.312C129.578 147.056 129.357 146.763 129.218 146.432L130.37 145.936C130.45 146.117 130.594 146.288 130.802 146.448C131.01 146.608 131.25 146.736 131.522 146.832C131.794 146.928 132.069 146.976 132.346 146.976C132.64 146.976 132.914 146.931 133.17 146.84C133.426 146.749 133.634 146.616 133.794 146.44C133.96 146.259 134.042 146.043 134.042 145.792C134.042 145.525 133.952 145.317 133.77 145.168C133.594 145.013 133.37 144.893 133.098 144.808C132.832 144.717 132.56 144.632 132.282 144.552C131.733 144.413 131.242 144.248 130.81 144.056C130.378 143.859 130.037 143.611 129.786 143.312C129.541 143.008 129.418 142.621 129.418 142.152C129.418 141.656 129.554 141.227 129.826 140.864C130.104 140.501 130.466 140.221 130.914 140.024C131.362 139.827 131.842 139.728 132.354 139.728C133 139.728 133.589 139.867 134.122 140.144C134.656 140.421 135.053 140.797 135.314 141.272L134.234 141.904C134.144 141.712 134.005 141.544 133.818 141.4C133.632 141.251 133.418 141.133 133.178 141.048C132.938 140.963 132.693 140.917 132.442 140.912C132.133 140.901 131.842 140.941 131.57 141.032C131.304 141.123 131.088 141.261 130.922 141.448C130.762 141.629 130.682 141.856 130.682 142.128C130.682 142.395 130.768 142.597 130.938 142.736C131.114 142.875 131.341 142.987 131.618 143.072C131.901 143.152 132.208 143.245 132.538 143.352C133.024 143.507 133.477 143.685 133.898 143.888C134.32 144.091 134.658 144.344 134.914 144.648C135.176 144.952 135.304 145.328 135.298 145.776C135.298 146.267 135.152 146.696 134.858 147.064C134.565 147.427 134.184 147.704 133.714 147.896C133.25 148.088 132.752 148.173 132.218 148.152ZM137.046 148.208C136.843 148.208 136.67 148.136 136.526 147.992C136.387 147.848 136.318 147.672 136.318 147.464C136.318 147.267 136.387 147.096 136.526 146.952C136.67 146.808 136.843 146.736 137.046 146.736C137.254 146.736 137.43 146.808 137.574 146.952C137.718 147.096 137.79 147.267 137.79 147.464C137.79 147.672 137.718 147.848 137.574 147.992C137.43 148.136 137.254 148.208 137.046 148.208ZM152.032 136.8V138.144H148.304V148H146.96V138.144H143.24V136.8H152.032ZM160.71 143.024V148H159.366V143.32C159.366 142.915 159.267 142.547 159.07 142.216C158.872 141.885 158.608 141.624 158.278 141.432C157.947 141.235 157.579 141.136 157.174 141.136C156.774 141.136 156.406 141.235 156.07 141.432C155.739 141.624 155.475 141.885 155.278 142.216C155.08 142.547 154.982 142.915 154.982 143.32V148H153.638V136H154.982V141C155.264 140.627 155.622 140.331 156.054 140.112C156.486 139.888 156.955 139.776 157.462 139.776C158.059 139.776 158.603 139.923 159.094 140.216C159.59 140.504 159.982 140.893 160.27 141.384C160.563 141.875 160.71 142.421 160.71 143.024ZM165.673 148.208C164.937 148.208 164.265 148.019 163.657 147.64C163.055 147.261 162.572 146.755 162.209 146.12C161.852 145.48 161.673 144.773 161.673 144C161.673 143.413 161.777 142.867 161.985 142.36C162.193 141.848 162.479 141.4 162.841 141.016C163.209 140.627 163.636 140.323 164.121 140.104C164.607 139.885 165.124 139.776 165.673 139.776C166.276 139.776 166.828 139.899 167.329 140.144C167.836 140.384 168.268 140.72 168.625 141.152C168.988 141.584 169.257 142.085 169.433 142.656C169.615 143.227 169.681 143.837 169.633 144.488H163.105C163.169 144.941 163.319 145.347 163.553 145.704C163.788 146.056 164.087 146.336 164.449 146.544C164.817 146.752 165.225 146.859 165.673 146.864C166.153 146.864 166.588 146.741 166.977 146.496C167.367 146.245 167.681 145.904 167.921 145.472L169.289 145.792C168.969 146.501 168.487 147.083 167.841 147.536C167.196 147.984 166.473 148.208 165.673 148.208ZM163.065 143.432H168.281C168.239 142.984 168.095 142.576 167.849 142.208C167.604 141.835 167.292 141.536 166.913 141.312C166.535 141.088 166.121 140.976 165.673 140.976C165.225 140.976 164.815 141.085 164.441 141.304C164.068 141.523 163.759 141.819 163.513 142.192C163.273 142.56 163.124 142.973 163.065 143.432ZM170.872 140H172.216V148H170.872V140ZM171.56 138.696C171.347 138.696 171.168 138.627 171.024 138.488C170.88 138.349 170.808 138.176 170.808 137.968C170.808 137.76 170.88 137.587 171.024 137.448C171.168 137.309 171.344 137.24 171.552 137.24C171.76 137.24 171.936 137.309 172.08 137.448C172.224 137.587 172.296 137.76 172.296 137.968C172.296 138.176 172.224 138.349 172.08 138.488C171.941 138.627 171.768 138.696 171.56 138.696ZM174.106 148V140H175.45V141C175.733 140.627 176.09 140.331 176.522 140.112C176.954 139.888 177.424 139.776 177.93 139.776C178.24 139.776 178.538 139.816 178.826 139.896L178.282 141.24C178.064 141.171 177.85 141.136 177.642 141.136C177.242 141.136 176.874 141.235 176.538 141.432C176.208 141.624 175.944 141.885 175.746 142.216C175.549 142.547 175.45 142.915 175.45 143.32V148H174.106ZM186.234 148.152C185.802 148.136 185.381 148.056 184.97 147.912C184.565 147.763 184.207 147.563 183.898 147.312C183.594 147.056 183.373 146.763 183.234 146.432L184.386 145.936C184.466 146.117 184.61 146.288 184.818 146.448C185.026 146.608 185.266 146.736 185.538 146.832C185.81 146.928 186.085 146.976 186.362 146.976C186.655 146.976 186.93 146.931 187.186 146.84C187.442 146.749 187.65 146.616 187.81 146.44C187.975 146.259 188.058 146.043 188.058 145.792C188.058 145.525 187.967 145.317 187.786 145.168C187.61 145.013 187.386 144.893 187.114 144.808C186.847 144.717 186.575 144.632 186.298 144.552C185.749 144.413 185.258 144.248 184.826 144.056C184.394 143.859 184.053 143.611 183.802 143.312C183.557 143.008 183.434 142.621 183.434 142.152C183.434 141.656 183.57 141.227 183.842 140.864C184.119 140.501 184.482 140.221 184.93 140.024C185.378 139.827 185.858 139.728 186.37 139.728C187.015 139.728 187.605 139.867 188.138 140.144C188.671 140.421 189.069 140.797 189.33 141.272L188.25 141.904C188.159 141.712 188.021 141.544 187.834 141.4C187.647 141.251 187.434 141.133 187.194 141.048C186.954 140.963 186.709 140.917 186.458 140.912C186.149 140.901 185.858 140.941 185.586 141.032C185.319 141.123 185.103 141.261 184.938 141.448C184.778 141.629 184.698 141.856 184.698 142.128C184.698 142.395 184.783 142.597 184.954 142.736C185.13 142.875 185.357 142.987 185.634 143.072C185.917 143.152 186.223 143.245 186.554 143.352C187.039 143.507 187.493 143.685 187.914 143.888C188.335 144.091 188.674 144.344 188.93 144.648C189.191 144.952 189.319 145.328 189.314 145.776C189.314 146.267 189.167 146.696 188.874 147.064C188.581 147.427 188.199 147.704 187.73 147.896C187.266 148.088 186.767 148.173 186.234 148.152ZM190.365 144.96V140H191.709V144.664C191.709 145.069 191.807 145.437 192.005 145.768C192.202 146.099 192.466 146.363 192.797 146.56C193.133 146.752 193.501 146.848 193.901 146.848C194.306 146.848 194.671 146.752 194.997 146.56C195.327 146.363 195.591 146.099 195.789 145.768C195.986 145.437 196.085 145.069 196.085 144.664V140H197.429L197.437 148H196.093L196.085 146.984C195.802 147.357 195.445 147.656 195.013 147.88C194.581 148.099 194.114 148.208 193.613 148.208C193.015 148.208 192.469 148.064 191.973 147.776C191.482 147.483 191.09 147.091 190.797 146.6C190.509 146.109 190.365 145.563 190.365 144.96ZM204.478 145.888L205.678 146.536C205.315 147.043 204.854 147.448 204.294 147.752C203.739 148.056 203.137 148.208 202.486 148.208C201.75 148.208 201.078 148.019 200.47 147.64C199.867 147.261 199.385 146.755 199.022 146.12C198.665 145.48 198.486 144.773 198.486 144C198.486 143.413 198.59 142.867 198.798 142.36C199.006 141.848 199.291 141.4 199.654 141.016C200.022 140.627 200.449 140.323 200.934 140.104C201.419 139.885 201.937 139.776 202.486 139.776C203.137 139.776 203.739 139.928 204.294 140.232C204.854 140.536 205.315 140.944 205.678 141.456L204.478 142.104C204.222 141.789 203.918 141.547 203.566 141.376C203.214 141.205 202.854 141.12 202.486 141.12C201.99 141.12 201.539 141.253 201.134 141.52C200.734 141.781 200.417 142.131 200.182 142.568C199.947 143.005 199.83 143.483 199.83 144C199.83 144.517 199.947 144.995 200.182 145.432C200.422 145.864 200.742 146.211 201.142 146.472C201.547 146.733 201.995 146.864 202.486 146.864C202.881 146.864 203.251 146.773 203.598 146.592C203.945 146.411 204.238 146.176 204.478 145.888ZM212.493 145.888L213.693 146.536C213.331 147.043 212.869 147.448 212.309 147.752C211.755 148.056 211.152 148.208 210.501 148.208C209.765 148.208 209.093 148.019 208.485 147.64C207.883 147.261 207.4 146.755 207.037 146.12C206.68 145.48 206.501 144.773 206.501 144C206.501 143.413 206.605 142.867 206.813 142.36C207.021 141.848 207.307 141.4 207.669 141.016C208.037 140.627 208.464 140.323 208.949 140.104C209.435 139.885 209.952 139.776 210.501 139.776C211.152 139.776 211.755 139.928 212.309 140.232C212.869 140.536 213.331 140.944 213.693 141.456L212.493 142.104C212.237 141.789 211.933 141.547 211.581 141.376C211.229 141.205 210.869 141.12 210.501 141.12C210.005 141.12 209.555 141.253 209.149 141.52C208.749 141.781 208.432 142.131 208.197 142.568C207.963 143.005 207.845 143.483 207.845 144C207.845 144.517 207.963 144.995 208.197 145.432C208.437 145.864 208.757 146.211 209.157 146.472C209.563 146.733 210.011 146.864 210.501 146.864C210.896 146.864 211.267 146.773 211.613 146.592C211.96 146.411 212.253 146.176 212.493 145.888ZM218.517 148.208C217.781 148.208 217.109 148.019 216.501 147.64C215.898 147.261 215.416 146.755 215.053 146.12C214.696 145.48 214.517 144.773 214.517 144C214.517 143.413 214.621 142.867 214.829 142.36C215.037 141.848 215.322 141.4 215.685 141.016C216.053 140.627 216.48 140.323 216.965 140.104C217.45 139.885 217.968 139.776 218.517 139.776C219.12 139.776 219.672 139.899 220.173 140.144C220.68 140.384 221.112 140.72 221.469 141.152C221.832 141.584 222.101 142.085 222.277 142.656C222.458 143.227 222.525 143.837 222.477 144.488H215.949C216.013 144.941 216.162 145.347 216.397 145.704C216.632 146.056 216.93 146.336 217.293 146.544C217.661 146.752 218.069 146.859 218.517 146.864C218.997 146.864 219.432 146.741 219.821 146.496C220.21 146.245 220.525 145.904 220.765 145.472L222.133 145.792C221.813 146.501 221.33 147.083 220.685 147.536C220.04 147.984 219.317 148.208 218.517 148.208ZM215.909 143.432H221.125C221.082 142.984 220.938 142.576 220.693 142.208C220.448 141.835 220.136 141.536 219.757 141.312C219.378 141.088 218.965 140.976 218.517 140.976C218.069 140.976 217.658 141.085 217.285 141.304C216.912 141.523 216.602 141.819 216.357 142.192C216.117 142.56 215.968 142.973 215.909 143.432ZM226.296 148.152C225.864 148.136 225.443 148.056 225.032 147.912C224.627 147.763 224.27 147.563 223.96 147.312C223.656 147.056 223.435 146.763 223.296 146.432L224.448 145.936C224.528 146.117 224.672 146.288 224.88 146.448C225.088 146.608 225.328 146.736 225.6 146.832C225.872 146.928 226.147 146.976 226.424 146.976C226.718 146.976 226.992 146.931 227.248 146.84C227.504 146.749 227.712 146.616 227.872 146.44C228.038 146.259 228.12 146.043 228.12 145.792C228.12 145.525 228.03 145.317 227.848 145.168C227.672 145.013 227.448 144.893 227.176 144.808C226.91 144.717 226.638 144.632 226.36 144.552C225.811 144.413 225.32 144.248 224.888 144.056C224.456 143.859 224.115 143.611 223.864 143.312C223.619 143.008 223.496 142.621 223.496 142.152C223.496 141.656 223.632 141.227 223.904 140.864C224.182 140.501 224.544 140.221 224.992 140.024C225.44 139.827 225.92 139.728 226.432 139.728C227.078 139.728 227.667 139.867 228.2 140.144C228.734 140.421 229.131 140.797 229.392 141.272L228.312 141.904C228.222 141.712 228.083 141.544 227.896 141.4C227.71 141.251 227.496 141.133 227.256 141.048C227.016 140.963 226.771 140.917 226.52 140.912C226.211 140.901 225.92 140.941 225.648 141.032C225.382 141.123 225.166 141.261 225 141.448C224.84 141.629 224.76 141.856 224.76 142.128C224.76 142.395 224.846 142.597 225.016 142.736C225.192 142.875 225.419 142.987 225.696 143.072C225.979 143.152 226.286 143.245 226.616 143.352C227.102 143.507 227.555 143.685 227.976 143.888C228.398 144.091 228.736 144.344 228.992 144.648C229.254 144.952 229.382 145.328 229.376 145.776C229.376 146.267 229.23 146.696 228.936 147.064C228.643 147.427 228.262 147.704 227.792 147.896C227.328 148.088 226.83 148.173 226.296 148.152ZM233.187 148.152C232.755 148.136 232.334 148.056 231.923 147.912C231.518 147.763 231.16 147.563 230.851 147.312C230.547 147.056 230.326 146.763 230.187 146.432L231.339 145.936C231.419 146.117 231.563 146.288 231.771 146.448C231.979 146.608 232.219 146.736 232.491 146.832C232.763 146.928 233.038 146.976 233.315 146.976C233.608 146.976 233.883 146.931 234.139 146.84C234.395 146.749 234.603 146.616 234.763 146.44C234.928 146.259 235.011 146.043 235.011 145.792C235.011 145.525 234.92 145.317 234.739 145.168C234.563 145.013 234.339 144.893 234.067 144.808C233.8 144.717 233.528 144.632 233.251 144.552C232.702 144.413 232.211 144.248 231.779 144.056C231.347 143.859 231.006 143.611 230.755 143.312C230.51 143.008 230.387 142.621 230.387 142.152C230.387 141.656 230.523 141.227 230.795 140.864C231.072 140.501 231.435 140.221 231.883 140.024C232.331 139.827 232.811 139.728 233.323 139.728C233.968 139.728 234.558 139.867 235.091 140.144C235.624 140.421 236.022 140.797 236.283 141.272L235.203 141.904C235.112 141.712 234.974 141.544 234.787 141.4C234.6 141.251 234.387 141.133 234.147 141.048C233.907 140.963 233.662 140.917 233.411 140.912C233.102 140.901 232.811 140.941 232.539 141.032C232.272 141.123 232.056 141.261 231.891 141.448C231.731 141.629 231.651 141.856 231.651 142.128C231.651 142.395 231.736 142.597 231.907 142.736C232.083 142.875 232.31 142.987 232.587 143.072C232.87 143.152 233.176 143.245 233.507 143.352C233.992 143.507 234.446 143.685 234.867 143.888C235.288 144.091 235.627 144.344 235.883 144.648C236.144 144.952 236.272 145.328 236.267 145.776C236.267 146.267 236.12 146.696 235.827 147.064C235.534 147.427 235.152 147.704 234.683 147.896C234.219 148.088 233.72 148.173 233.187 148.152ZM243.921 148.152C243.489 148.136 243.068 148.056 242.657 147.912C242.252 147.763 241.895 147.563 241.585 147.312C241.281 147.056 241.06 146.763 240.921 146.432L242.073 145.936C242.153 146.117 242.297 146.288 242.505 146.448C242.713 146.608 242.953 146.736 243.225 146.832C243.497 146.928 243.772 146.976 244.049 146.976C244.343 146.976 244.617 146.931 244.873 146.84C245.129 146.749 245.337 146.616 245.497 146.44C245.663 146.259 245.745 146.043 245.745 145.792C245.745 145.525 245.655 145.317 245.473 145.168C245.297 145.013 245.073 144.893 244.801 144.808C244.535 144.717 244.263 144.632 243.985 144.552C243.436 144.413 242.945 144.248 242.513 144.056C242.081 143.859 241.74 143.611 241.489 143.312C241.244 143.008 241.121 142.621 241.121 142.152C241.121 141.656 241.257 141.227 241.529 140.864C241.807 140.501 242.169 140.221 242.617 140.024C243.065 139.827 243.545 139.728 244.057 139.728C244.703 139.728 245.292 139.867 245.825 140.144C246.359 140.421 246.756 140.797 247.017 141.272L245.937 141.904C245.847 141.712 245.708 141.544 245.521 141.4C245.335 141.251 245.121 141.133 244.881 141.048C244.641 140.963 244.396 140.917 244.145 140.912C243.836 140.901 243.545 140.941 243.273 141.032C243.007 141.123 242.791 141.261 242.625 141.448C242.465 141.629 242.385 141.856 242.385 142.128C242.385 142.395 242.471 142.597 242.641 142.736C242.817 142.875 243.044 142.987 243.321 143.072C243.604 143.152 243.911 143.245 244.241 143.352C244.727 143.507 245.18 143.685 245.601 143.888C246.023 144.091 246.361 144.344 246.617 144.648C246.879 144.952 247.007 145.328 247.001 145.776C247.001 146.267 246.855 146.696 246.561 147.064C246.268 147.427 245.887 147.704 245.417 147.896C244.953 148.088 244.455 148.173 243.921 148.152ZM252.516 141.344H250.7L250.692 148H249.348L249.356 141.344H247.98V140H249.356L249.348 137.488H250.692L250.7 140H252.516V141.344ZM257.267 148.208C256.531 148.208 255.859 148.019 255.251 147.64C254.648 147.261 254.166 146.755 253.803 146.12C253.446 145.48 253.267 144.773 253.267 144C253.267 143.413 253.371 142.867 253.579 142.36C253.787 141.848 254.072 141.4 254.435 141.016C254.803 140.627 255.23 140.323 255.715 140.104C256.2 139.885 256.718 139.776 257.267 139.776C258.003 139.776 258.672 139.965 259.275 140.344C259.883 140.723 260.366 141.232 260.723 141.872C261.086 142.512 261.267 143.221 261.267 144C261.267 144.581 261.163 145.125 260.955 145.632C260.747 146.139 260.459 146.587 260.091 146.976C259.728 147.36 259.304 147.661 258.819 147.88C258.339 148.099 257.822 148.208 257.267 148.208ZM257.267 146.864C257.768 146.864 258.219 146.733 258.619 146.472C259.024 146.205 259.342 145.856 259.571 145.424C259.806 144.987 259.923 144.512 259.923 144C259.923 143.477 259.803 142.997 259.563 142.56C259.328 142.123 259.011 141.773 258.611 141.512C258.211 141.251 257.763 141.12 257.267 141.12C256.766 141.12 256.315 141.253 255.915 141.52C255.515 141.781 255.198 142.131 254.963 142.568C254.728 143.005 254.611 143.483 254.611 144C254.611 144.533 254.731 145.019 254.971 145.456C255.211 145.888 255.534 146.232 255.939 146.488C256.344 146.739 256.787 146.864 257.267 146.864ZM262.591 148V140H263.935V141C264.218 140.627 264.575 140.331 265.007 140.112C265.439 139.888 265.908 139.776 266.415 139.776C266.724 139.776 267.023 139.816 267.311 139.896L266.767 141.24C266.548 141.171 266.335 141.136 266.127 141.136C265.727 141.136 265.359 141.235 265.023 141.432C264.692 141.624 264.428 141.885 264.231 142.216C264.034 142.547 263.935 142.915 263.935 143.32V148H262.591ZM268.294 140H269.638V148H268.294V140ZM268.982 138.696C268.769 138.696 268.59 138.627 268.446 138.488C268.302 138.349 268.23 138.176 268.23 137.968C268.23 137.76 268.302 137.587 268.446 137.448C268.59 137.309 268.766 137.24 268.974 137.24C269.182 137.24 269.358 137.309 269.502 137.448C269.646 137.587 269.718 137.76 269.718 137.968C269.718 138.176 269.646 138.349 269.502 138.488C269.363 138.627 269.19 138.696 268.982 138.696ZM274.97 148.208C274.234 148.208 273.562 148.019 272.954 147.64C272.352 147.261 271.869 146.755 271.506 146.12C271.149 145.48 270.97 144.773 270.97 144C270.97 143.413 271.074 142.867 271.282 142.36C271.49 141.848 271.776 141.4 272.138 141.016C272.506 140.627 272.933 140.323 273.418 140.104C273.904 139.885 274.421 139.776 274.97 139.776C275.573 139.776 276.125 139.899 276.626 140.144C277.133 140.384 277.565 140.72 277.922 141.152C278.285 141.584 278.554 142.085 278.73 142.656C278.912 143.227 278.978 143.837 278.93 144.488H272.402C272.466 144.941 272.616 145.347 272.85 145.704C273.085 146.056 273.384 146.336 273.746 146.544C274.114 146.752 274.522 146.859 274.97 146.864C275.45 146.864 275.885 146.741 276.274 146.496C276.664 146.245 276.978 145.904 277.218 145.472L278.586 145.792C278.266 146.501 277.784 147.083 277.138 147.536C276.493 147.984 275.77 148.208 274.97 148.208ZM272.362 143.432H277.578C277.536 142.984 277.392 142.576 277.146 142.208C276.901 141.835 276.589 141.536 276.21 141.312C275.832 141.088 275.418 140.976 274.97 140.976C274.522 140.976 274.112 141.085 273.738 141.304C273.365 141.523 273.056 141.819 272.81 142.192C272.57 142.56 272.421 142.973 272.362 143.432ZM282.75 148.152C282.318 148.136 281.896 148.056 281.486 147.912C281.08 147.763 280.723 147.563 280.414 147.312C280.11 147.056 279.888 146.763 279.75 146.432L280.902 145.936C280.982 146.117 281.126 146.288 281.334 146.448C281.542 146.608 281.782 146.736 282.054 146.832C282.326 146.928 282.6 146.976 282.878 146.976C283.171 146.976 283.446 146.931 283.702 146.84C283.958 146.749 284.166 146.616 284.326 146.44C284.491 146.259 284.574 146.043 284.574 145.792C284.574 145.525 284.483 145.317 284.302 145.168C284.126 145.013 283.902 144.893 283.63 144.808C283.363 144.717 283.091 144.632 282.814 144.552C282.264 144.413 281.774 144.248 281.342 144.056C280.91 143.859 280.568 143.611 280.318 143.312C280.072 143.008 279.95 142.621 279.95 142.152C279.95 141.656 280.086 141.227 280.358 140.864C280.635 140.501 280.998 140.221 281.446 140.024C281.894 139.827 282.374 139.728 282.886 139.728C283.531 139.728 284.12 139.867 284.654 140.144C285.187 140.421 285.584 140.797 285.846 141.272L284.766 141.904C284.675 141.712 284.536 141.544 284.35 141.4C284.163 141.251 283.95 141.133 283.71 141.048C283.47 140.963 283.224 140.917 282.974 140.912C282.664 140.901 282.374 140.941 282.102 141.032C281.835 141.123 281.619 141.261 281.454 141.448C281.294 141.629 281.214 141.856 281.214 142.128C281.214 142.395 281.299 142.597 281.47 142.736C281.646 142.875 281.872 142.987 282.15 143.072C282.432 143.152 282.739 143.245 283.07 143.352C283.555 143.507 284.008 143.685 284.43 143.888C284.851 144.091 285.19 144.344 285.446 144.648C285.707 144.952 285.835 145.328 285.83 145.776C285.83 146.267 285.683 146.696 285.39 147.064C285.096 147.427 284.715 147.704 284.246 147.896C283.782 148.088 283.283 148.173 282.75 148.152ZM292.86 138.024V140H295.204V141.344H292.86V148H291.516V141.344H290.484V140H291.516V138.024C291.516 137.613 291.615 137.243 291.812 136.912C292.015 136.576 292.284 136.309 292.62 136.112C292.961 135.909 293.335 135.808 293.74 135.808C294.039 135.808 294.329 135.869 294.612 135.992C294.895 136.109 295.145 136.285 295.364 136.52L294.404 137.472C294.329 137.371 294.231 137.293 294.108 137.24C293.991 137.181 293.868 137.152 293.74 137.152C293.5 137.152 293.292 137.237 293.116 137.408C292.945 137.579 292.86 137.784 292.86 138.024ZM296.365 144.96V140H297.709V144.664C297.709 145.069 297.807 145.437 298.005 145.768C298.202 146.099 298.466 146.363 298.797 146.56C299.133 146.752 299.501 146.848 299.901 146.848C300.306 146.848 300.671 146.752 300.997 146.56C301.327 146.363 301.591 146.099 301.789 145.768C301.986 145.437 302.085 145.069 302.085 144.664V140H303.429L303.437 148H302.093L302.085 146.984C301.802 147.357 301.445 147.656 301.013 147.88C300.581 148.099 300.114 148.208 299.613 148.208C299.015 148.208 298.469 148.064 297.973 147.776C297.482 147.483 297.09 147.091 296.797 146.6C296.509 146.109 296.365 145.563 296.365 144.96ZM308.486 148.208C307.75 148.208 307.078 148.019 306.47 147.64C305.867 147.261 305.385 146.755 305.022 146.12C304.665 145.48 304.486 144.773 304.486 144C304.486 143.413 304.59 142.867 304.798 142.36C305.006 141.848 305.291 141.4 305.654 141.016C306.022 140.627 306.449 140.323 306.934 140.104C307.419 139.885 307.937 139.776 308.486 139.776C309.089 139.776 309.641 139.899 310.142 140.144C310.649 140.384 311.081 140.72 311.438 141.152C311.801 141.584 312.07 142.085 312.246 142.656C312.427 143.227 312.494 143.837 312.446 144.488H305.918C305.982 144.941 306.131 145.347 306.366 145.704C306.601 146.056 306.899 146.336 307.262 146.544C307.63 146.752 308.038 146.859 308.486 146.864C308.966 146.864 309.401 146.741 309.79 146.496C310.179 146.245 310.494 145.904 310.734 145.472L312.102 145.792C311.782 146.501 311.299 147.083 310.654 147.536C310.009 147.984 309.286 148.208 308.486 148.208ZM305.878 143.432H311.094C311.051 142.984 310.907 142.576 310.662 142.208C310.417 141.835 310.105 141.536 309.726 141.312C309.347 141.088 308.934 140.976 308.486 140.976C308.038 140.976 307.627 141.085 307.254 141.304C306.881 141.523 306.571 141.819 306.326 142.192C306.086 142.56 305.937 142.973 305.878 143.432ZM313.716 148V136H315.06V148H313.716ZM324.345 148.208C323.609 148.208 322.937 148.019 322.329 147.64C321.727 147.261 321.244 146.755 320.881 146.12C320.524 145.48 320.345 144.773 320.345 144C320.345 143.413 320.449 142.867 320.657 142.36C320.865 141.848 321.151 141.4 321.513 141.016C321.881 140.627 322.308 140.323 322.793 140.104C323.279 139.885 323.796 139.776 324.345 139.776C325.081 139.776 325.751 139.965 326.353 140.344C326.961 140.723 327.444 141.232 327.801 141.872C328.164 142.512 328.345 143.221 328.345 144C328.345 144.581 328.241 145.125 328.033 145.632C327.825 146.139 327.537 146.587 327.169 146.976C326.807 147.36 326.383 147.661 325.897 147.88C325.417 148.099 324.9 148.208 324.345 148.208ZM324.345 146.864C324.847 146.864 325.297 146.733 325.697 146.472C326.103 146.205 326.42 145.856 326.649 145.424C326.884 144.987 327.001 144.512 327.001 144C327.001 143.477 326.881 142.997 326.641 142.56C326.407 142.123 326.089 141.773 325.689 141.512C325.289 141.251 324.841 141.12 324.345 141.12C323.844 141.12 323.393 141.253 322.993 141.52C322.593 141.781 322.276 142.131 322.041 142.568C321.807 143.005 321.689 143.483 321.689 144C321.689 144.533 321.809 145.019 322.049 145.456C322.289 145.888 322.612 146.232 323.017 146.488C323.423 146.739 323.865 146.864 324.345 146.864ZM329.24 144.96V140H330.584V144.664C330.584 145.069 330.682 145.437 330.88 145.768C331.077 146.099 331.341 146.363 331.672 146.56C332.008 146.752 332.376 146.848 332.776 146.848C333.181 146.848 333.546 146.752 333.872 146.56C334.202 146.363 334.466 146.099 334.664 145.768C334.861 145.437 334.96 145.069 334.96 144.664V140H336.304L336.312 148H334.968L334.96 146.984C334.677 147.357 334.32 147.656 333.888 147.88C333.456 148.099 332.989 148.208 332.488 148.208C331.89 148.208 331.344 148.064 330.848 147.776C330.357 147.483 329.965 147.091 329.672 146.6C329.384 146.109 329.24 145.563 329.24 144.96ZM337.919 148V140H339.263V141C339.546 140.627 339.903 140.331 340.335 140.112C340.767 139.888 341.236 139.776 341.743 139.776C342.052 139.776 342.351 139.816 342.639 139.896L342.095 141.24C341.876 141.171 341.663 141.136 341.455 141.136C341.055 141.136 340.687 141.235 340.351 141.432C340.02 141.624 339.756 141.885 339.559 142.216C339.362 142.547 339.263 142.915 339.263 143.32V148H337.919ZM48.638 176H47.294V164H48.638V165.368C48.91 164.899 49.2727 164.52 49.726 164.232C50.1793 163.939 50.718 163.792 51.342 163.792C51.9233 163.792 52.4673 163.901 52.974 164.12C53.486 164.339 53.934 164.643 54.318 165.032C54.702 165.416 55.0033 165.861 55.222 166.368C55.4407 166.875 55.55 167.419 55.55 168C55.55 168.581 55.4407 169.128 55.222 169.64C55.0033 170.152 54.702 170.603 54.318 170.992C53.934 171.376 53.486 171.677 52.974 171.896C52.4673 172.115 51.9233 172.224 51.342 172.224C50.718 172.224 50.1793 172.08 49.726 171.792C49.2727 171.499 48.91 171.117 48.638 170.648V176ZM51.326 165.096C50.8087 165.096 50.3553 165.227 49.966 165.488C49.5767 165.749 49.2753 166.099 49.062 166.536C48.854 166.973 48.75 167.461 48.75 168C48.75 168.533 48.854 169.021 49.062 169.464C49.2753 169.907 49.574 170.259 49.958 170.52C50.3473 170.781 50.8033 170.912 51.326 170.912C51.8433 170.912 52.318 170.784 52.75 170.528C53.182 170.267 53.5287 169.917 53.79 169.48C54.0513 169.037 54.182 168.544 54.182 168C54.182 167.467 54.054 166.981 53.798 166.544C53.542 166.101 53.198 165.749 52.766 165.488C52.334 165.227 51.854 165.096 51.326 165.096ZM63.2729 164H64.6169V172H63.2729L63.2169 170.648C62.9662 171.112 62.6195 171.488 62.1769 171.776C61.7395 172.064 61.2169 172.208 60.6089 172.208C60.0222 172.208 59.4729 172.099 58.9609 171.88C58.4489 171.656 57.9955 171.349 57.6009 170.96C57.2115 170.565 56.9075 170.112 56.6889 169.6C56.4702 169.088 56.3609 168.536 56.3609 167.944C56.3609 167.373 56.4675 166.835 56.6809 166.328C56.8942 165.821 57.1902 165.379 57.5689 165C57.9529 164.616 58.3955 164.317 58.8969 164.104C59.3982 163.885 59.9369 163.776 60.5129 163.776C61.1422 163.776 61.6942 163.925 62.1689 164.224C62.6435 164.517 63.0275 164.899 63.3209 165.368L63.2729 164ZM60.5849 170.904C61.1129 170.904 61.5689 170.776 61.9529 170.52C62.3422 170.259 62.6409 169.907 62.8489 169.464C63.0622 169.021 63.1689 168.533 63.1689 168C63.1689 167.456 63.0622 166.965 62.8489 166.528C62.6355 166.085 62.3342 165.736 61.9449 165.48C61.5609 165.219 61.1075 165.088 60.5849 165.088C60.0569 165.088 59.5769 165.219 59.1449 165.48C58.7129 165.741 58.3689 166.093 58.1129 166.536C57.8622 166.973 57.7369 167.461 57.7369 168C57.7369 168.539 57.8675 169.029 58.1289 169.472C58.3902 169.909 58.7369 170.259 59.1689 170.52C59.6009 170.776 60.0729 170.904 60.5849 170.904ZM68.6559 172.152C68.2239 172.136 67.8025 172.056 67.3919 171.912C66.9865 171.763 66.6292 171.563 66.3199 171.312C66.0159 171.056 65.7945 170.763 65.6559 170.432L66.8079 169.936C66.8879 170.117 67.0319 170.288 67.2399 170.448C67.4479 170.608 67.6879 170.736 67.9599 170.832C68.2319 170.928 68.5065 170.976 68.7839 170.976C69.0772 170.976 69.3519 170.931 69.6079 170.84C69.8639 170.749 70.0719 170.616 70.2319 170.44C70.3972 170.259 70.4799 170.043 70.4799 169.792C70.4799 169.525 70.3892 169.317 70.2079 169.168C70.0319 169.013 69.8079 168.893 69.5359 168.808C69.2692 168.717 68.9972 168.632 68.7199 168.552C68.1705 168.413 67.6799 168.248 67.2479 168.056C66.8159 167.859 66.4745 167.611 66.2239 167.312C65.9785 167.008 65.8559 166.621 65.8559 166.152C65.8559 165.656 65.9919 165.227 66.2639 164.864C66.5412 164.501 66.9039 164.221 67.3519 164.024C67.7999 163.827 68.2799 163.728 68.7919 163.728C69.4372 163.728 70.0265 163.867 70.5599 164.144C71.0932 164.421 71.4905 164.797 71.7519 165.272L70.6719 165.904C70.5812 165.712 70.4425 165.544 70.2559 165.4C70.0692 165.251 69.8559 165.133 69.6159 165.048C69.3759 164.963 69.1305 164.917 68.8799 164.912C68.5705 164.901 68.2799 164.941 68.0079 165.032C67.7412 165.123 67.5252 165.261 67.3599 165.448C67.1999 165.629 67.1199 165.856 67.1199 166.128C67.1199 166.395 67.2052 166.597 67.3759 166.736C67.5519 166.875 67.7785 166.987 68.0559 167.072C68.3385 167.152 68.6452 167.245 68.9759 167.352C69.4612 167.507 69.9145 167.685 70.3359 167.888C70.7572 168.091 71.0959 168.344 71.3519 168.648C71.6132 168.952 71.7412 169.328 71.7359 169.776C71.7359 170.267 71.5892 170.696 71.2959 171.064C71.0025 171.427 70.6212 171.704 70.1519 171.896C69.6879 172.088 69.1892 172.173 68.6559 172.152ZM75.5465 172.152C75.1145 172.136 74.6932 172.056 74.2825 171.912C73.8772 171.763 73.5198 171.563 73.2105 171.312C72.9065 171.056 72.6852 170.763 72.5465 170.432L73.6985 169.936C73.7785 170.117 73.9225 170.288 74.1305 170.448C74.3385 170.608 74.5785 170.736 74.8505 170.832C75.1225 170.928 75.3972 170.976 75.6745 170.976C75.9678 170.976 76.2425 170.931 76.4985 170.84C76.7545 170.749 76.9625 170.616 77.1225 170.44C77.2878 170.259 77.3705 170.043 77.3705 169.792C77.3705 169.525 77.2798 169.317 77.0985 169.168C76.9225 169.013 76.6985 168.893 76.4265 168.808C76.1598 168.717 75.8878 168.632 75.6105 168.552C75.0612 168.413 74.5705 168.248 74.1385 168.056C73.7065 167.859 73.3652 167.611 73.1145 167.312C72.8692 167.008 72.7465 166.621 72.7465 166.152C72.7465 165.656 72.8825 165.227 73.1545 164.864C73.4318 164.501 73.7945 164.221 74.2425 164.024C74.6905 163.827 75.1705 163.728 75.6825 163.728C76.3278 163.728 76.9172 163.867 77.4505 164.144C77.9838 164.421 78.3812 164.797 78.6425 165.272L77.5625 165.904C77.4718 165.712 77.3332 165.544 77.1465 165.4C76.9598 165.251 76.7465 165.133 76.5065 165.048C76.2665 164.963 76.0212 164.917 75.7705 164.912C75.4612 164.901 75.1705 164.941 74.8985 165.032C74.6318 165.123 74.4158 165.261 74.2505 165.448C74.0905 165.629 74.0105 165.856 74.0105 166.128C74.0105 166.395 74.0958 166.597 74.2665 166.736C74.4425 166.875 74.6692 166.987 74.9465 167.072C75.2292 167.152 75.5358 167.245 75.8665 167.352C76.3518 167.507 76.8052 167.685 77.2265 167.888C77.6478 168.091 77.9865 168.344 78.2425 168.648C78.5038 168.952 78.6318 169.328 78.6265 169.776C78.6265 170.267 78.4798 170.696 78.1865 171.064C77.8932 171.427 77.5118 171.704 77.0425 171.896C76.5785 172.088 76.0798 172.173 75.5465 172.152ZM79.8877 164H81.2317V172H79.8877V164ZM80.5757 162.696C80.3624 162.696 80.1837 162.627 80.0397 162.488C79.8957 162.349 79.8237 162.176 79.8237 161.968C79.8237 161.76 79.8957 161.587 80.0397 161.448C80.1837 161.309 80.3597 161.24 80.5677 161.24C80.7757 161.24 80.9517 161.309 81.0957 161.448C81.2397 161.587 81.3117 161.76 81.3117 161.968C81.3117 162.176 81.2397 162.349 81.0957 162.488C80.9571 162.627 80.7837 162.696 80.5757 162.696ZM86.564 172.208C85.828 172.208 85.156 172.019 84.548 171.64C83.9453 171.261 83.4627 170.755 83.1 170.12C82.7427 169.48 82.564 168.773 82.564 168C82.564 167.413 82.668 166.867 82.876 166.36C83.084 165.848 83.3693 165.4 83.732 165.016C84.1 164.627 84.5267 164.323 85.012 164.104C85.4973 163.885 86.0147 163.776 86.564 163.776C87.3 163.776 87.9693 163.965 88.572 164.344C89.18 164.723 89.6627 165.232 90.02 165.872C90.3827 166.512 90.564 167.221 90.564 168C90.564 168.581 90.46 169.125 90.252 169.632C90.044 170.139 89.756 170.587 89.388 170.976C89.0253 171.36 88.6013 171.661 88.116 171.88C87.636 172.099 87.1187 172.208 86.564 172.208ZM86.564 170.864C87.0653 170.864 87.516 170.733 87.916 170.472C88.3213 170.205 88.6387 169.856 88.868 169.424C89.1027 168.987 89.22 168.512 89.22 168C89.22 167.477 89.1 166.997 88.86 166.56C88.6253 166.123 88.308 165.773 87.908 165.512C87.508 165.251 87.06 165.12 86.564 165.12C86.0627 165.12 85.612 165.253 85.212 165.52C84.812 165.781 84.4947 166.131 84.26 166.568C84.0253 167.005 83.908 167.483 83.908 168C83.908 168.533 84.028 169.019 84.268 169.456C84.508 169.888 84.8307 170.232 85.236 170.488C85.6413 170.739 86.084 170.864 86.564 170.864ZM98.9597 167.024V172H97.6157V167.32C97.6157 166.915 97.5171 166.547 97.3197 166.216C97.1224 165.885 96.8584 165.624 96.5277 165.432C96.1971 165.235 95.8291 165.136 95.4237 165.136C95.0237 165.136 94.6557 165.235 94.3197 165.432C93.9891 165.624 93.7251 165.885 93.5277 166.216C93.3304 166.547 93.2317 166.915 93.2317 167.32V172H91.8877V164H93.2317V165C93.5144 164.627 93.8717 164.331 94.3037 164.112C94.7357 163.888 95.2051 163.776 95.7117 163.776C96.3091 163.776 96.8531 163.923 97.3437 164.216C97.8397 164.504 98.2317 164.893 98.5197 165.384C98.8131 165.875 98.9597 166.421 98.9597 167.024ZM106.219 162.024V164H108.563V165.344H106.219V172H104.875V165.344H103.843V164H104.875V162.024C104.875 161.613 104.974 161.243 105.171 160.912C105.374 160.576 105.643 160.309 105.979 160.112C106.321 159.909 106.694 159.808 107.099 159.808C107.398 159.808 107.689 159.869 107.971 159.992C108.254 160.109 108.505 160.285 108.723 160.52L107.763 161.472C107.689 161.371 107.59 161.293 107.467 161.24C107.35 161.181 107.227 161.152 107.099 161.152C106.859 161.152 106.651 161.237 106.475 161.408C106.305 161.579 106.219 161.784 106.219 162.024ZM113.205 172.208C112.469 172.208 111.797 172.019 111.189 171.64C110.586 171.261 110.103 170.755 109.741 170.12C109.383 169.48 109.205 168.773 109.205 168C109.205 167.413 109.309 166.867 109.517 166.36C109.725 165.848 110.01 165.4 110.373 165.016C110.741 164.627 111.167 164.323 111.653 164.104C112.138 163.885 112.655 163.776 113.205 163.776C113.941 163.776 114.61 163.965 115.213 164.344C115.821 164.723 116.303 165.232 116.661 165.872C117.023 166.512 117.205 167.221 117.205 168C117.205 168.581 117.101 169.125 116.893 169.632C116.685 170.139 116.397 170.587 116.029 170.976C115.666 171.36 115.242 171.661 114.757 171.88C114.277 172.099 113.759 172.208 113.205 172.208ZM113.205 170.864C113.706 170.864 114.157 170.733 114.557 170.472C114.962 170.205 115.279 169.856 115.509 169.424C115.743 168.987 115.861 168.512 115.861 168C115.861 167.477 115.741 166.997 115.501 166.56C115.266 166.123 114.949 165.773 114.549 165.512C114.149 165.251 113.701 165.12 113.205 165.12C112.703 165.12 112.253 165.253 111.853 165.52C111.453 165.781 111.135 166.131 110.901 166.568C110.666 167.005 110.549 167.483 110.549 168C110.549 168.533 110.669 169.019 110.909 169.456C111.149 169.888 111.471 170.232 111.877 170.488C112.282 170.739 112.725 170.864 113.205 170.864ZM118.528 172V164H119.872V165C120.155 164.627 120.512 164.331 120.944 164.112C121.376 163.888 121.846 163.776 122.352 163.776C122.662 163.776 122.96 163.816 123.248 163.896L122.704 165.24C122.486 165.171 122.272 165.136 122.064 165.136C121.664 165.136 121.296 165.235 120.96 165.432C120.63 165.624 120.366 165.885 120.168 166.216C119.971 166.547 119.872 166.915 119.872 167.32V172H118.528ZM131.776 172H130.416L127.736 164H129.048L131.112 170.104L133.152 164H134.536L136.584 170.104L138.624 164H139.952L137.272 172H135.904L133.832 165.84L131.776 172ZM148.46 167.024V172H147.116V167.32C147.116 166.915 147.017 166.547 146.82 166.216C146.622 165.885 146.358 165.624 146.028 165.432C145.697 165.235 145.329 165.136 144.924 165.136C144.524 165.136 144.156 165.235 143.82 165.432C143.489 165.624 143.225 165.885 143.028 166.216C142.83 166.547 142.732 166.915 142.732 167.32V172H141.388V160H142.732V165C143.014 164.627 143.372 164.331 143.804 164.112C144.236 163.888 144.705 163.776 145.212 163.776C145.809 163.776 146.353 163.923 146.844 164.216C147.34 164.504 147.732 164.893 148.02 165.384C148.313 165.875 148.46 166.421 148.46 167.024ZM156.335 164H157.679V172H156.335L156.279 170.648C156.029 171.112 155.682 171.488 155.239 171.776C154.802 172.064 154.279 172.208 153.671 172.208C153.085 172.208 152.535 172.099 152.023 171.88C151.511 171.656 151.058 171.349 150.663 170.96C150.274 170.565 149.97 170.112 149.751 169.6C149.533 169.088 149.423 168.536 149.423 167.944C149.423 167.373 149.53 166.835 149.743 166.328C149.957 165.821 150.253 165.379 150.631 165C151.015 164.616 151.458 164.317 151.959 164.104C152.461 163.885 152.999 163.776 153.575 163.776C154.205 163.776 154.757 163.925 155.231 164.224C155.706 164.517 156.09 164.899 156.383 165.368L156.335 164ZM153.647 170.904C154.175 170.904 154.631 170.776 155.015 170.52C155.405 170.259 155.703 169.907 155.911 169.464C156.125 169.021 156.231 168.533 156.231 168C156.231 167.456 156.125 166.965 155.911 166.528C155.698 166.085 155.397 165.736 155.007 165.48C154.623 165.219 154.17 165.088 153.647 165.088C153.119 165.088 152.639 165.219 152.207 165.48C151.775 165.741 151.431 166.093 151.175 166.536C150.925 166.973 150.799 167.461 150.799 168C150.799 168.539 150.93 169.029 151.191 169.472C151.453 169.909 151.799 170.259 152.231 170.52C152.663 170.776 153.135 170.904 153.647 170.904ZM163.422 165.344H161.606L161.598 172H160.254L160.262 165.344H158.886V164H160.262L160.254 161.488H161.598L161.606 164H163.422V165.344ZM172.26 172H170.9L168.22 164H169.532L171.596 170.104L173.636 164H175.02L177.068 170.104L179.108 164H180.436L177.756 172H176.388L174.316 165.84L172.26 172ZM184.923 172.208C184.187 172.208 183.515 172.019 182.907 171.64C182.305 171.261 181.822 170.755 181.459 170.12C181.102 169.48 180.923 168.773 180.923 168C180.923 167.413 181.027 166.867 181.235 166.36C181.443 165.848 181.729 165.4 182.091 165.016C182.459 164.627 182.886 164.323 183.371 164.104C183.857 163.885 184.374 163.776 184.923 163.776C185.526 163.776 186.078 163.899 186.579 164.144C187.086 164.384 187.518 164.72 187.875 165.152C188.238 165.584 188.507 166.085 188.683 166.656C188.865 167.227 188.931 167.837 188.883 168.488H182.355C182.419 168.941 182.569 169.347 182.803 169.704C183.038 170.056 183.337 170.336 183.699 170.544C184.067 170.752 184.475 170.859 184.923 170.864C185.403 170.864 185.838 170.741 186.227 170.496C186.617 170.245 186.931 169.904 187.171 169.472L188.539 169.792C188.219 170.501 187.737 171.083 187.091 171.536C186.446 171.984 185.723 172.208 184.923 172.208ZM182.315 167.432H187.531C187.489 166.984 187.345 166.576 187.099 166.208C186.854 165.835 186.542 165.536 186.163 165.312C185.785 165.088 185.371 164.976 184.923 164.976C184.475 164.976 184.065 165.085 183.691 165.304C183.318 165.523 183.009 165.819 182.763 166.192C182.523 166.56 182.374 166.973 182.315 167.432ZM200.625 160H201.969V172H200.625V170.64C200.353 171.109 199.987 171.488 199.529 171.776C199.07 172.064 198.531 172.208 197.913 172.208C197.331 172.208 196.787 172.099 196.281 171.88C195.774 171.661 195.326 171.36 194.937 170.976C194.553 170.587 194.251 170.139 194.033 169.632C193.814 169.125 193.705 168.581 193.705 168C193.705 167.419 193.814 166.875 194.033 166.368C194.251 165.856 194.553 165.408 194.937 165.024C195.326 164.635 195.774 164.331 196.281 164.112C196.787 163.893 197.331 163.784 197.913 163.784C198.531 163.784 199.07 163.928 199.529 164.216C199.987 164.504 200.353 164.883 200.625 165.352V160ZM197.929 170.904C198.457 170.904 198.913 170.776 199.297 170.52C199.686 170.259 199.985 169.907 200.193 169.464C200.406 169.021 200.513 168.533 200.513 168C200.513 167.456 200.406 166.965 200.193 166.528C199.979 166.085 199.678 165.736 199.289 165.48C198.905 165.219 198.451 165.088 197.929 165.088C197.401 165.088 196.921 165.219 196.489 165.48C196.062 165.741 195.721 166.093 195.465 166.536C195.209 166.973 195.081 167.461 195.081 168C195.081 168.539 195.211 169.029 195.473 169.472C195.734 169.909 196.081 170.259 196.513 170.52C196.945 170.776 197.417 170.904 197.929 170.904ZM207.33 172.208C206.594 172.208 205.922 172.019 205.314 171.64C204.711 171.261 204.228 170.755 203.866 170.12C203.508 169.48 203.33 168.773 203.33 168C203.33 167.413 203.434 166.867 203.642 166.36C203.85 165.848 204.135 165.4 204.498 165.016C204.866 164.627 205.292 164.323 205.778 164.104C206.263 163.885 206.78 163.776 207.33 163.776C208.066 163.776 208.735 163.965 209.338 164.344C209.946 164.723 210.428 165.232 210.786 165.872C211.148 166.512 211.33 167.221 211.33 168C211.33 168.581 211.226 169.125 211.018 169.632C210.81 170.139 210.522 170.587 210.154 170.976C209.791 171.36 209.367 171.661 208.882 171.88C208.402 172.099 207.884 172.208 207.33 172.208ZM207.33 170.864C207.831 170.864 208.282 170.733 208.682 170.472C209.087 170.205 209.404 169.856 209.634 169.424C209.868 168.987 209.986 168.512 209.986 168C209.986 167.477 209.866 166.997 209.626 166.56C209.391 166.123 209.074 165.773 208.674 165.512C208.274 165.251 207.826 165.12 207.33 165.12C206.828 165.12 206.378 165.253 205.978 165.52C205.578 165.781 205.26 166.131 205.026 166.568C204.791 167.005 204.674 167.483 204.674 168C204.674 168.533 204.794 169.019 205.034 169.456C205.274 169.888 205.596 170.232 206.002 170.488C206.407 170.739 206.85 170.864 207.33 170.864ZM213.014 172.208C212.812 172.208 212.638 172.136 212.494 171.992C212.356 171.848 212.286 171.672 212.286 171.464C212.286 171.267 212.356 171.096 212.494 170.952C212.638 170.808 212.812 170.736 213.014 170.736C213.222 170.736 213.398 170.808 213.542 170.952C213.686 171.096 213.758 171.267 213.758 171.464C213.758 171.672 213.686 171.848 213.542 171.992C213.398 172.136 213.222 172.208 213.014 172.208Z" fill="#999999"></path></g><defs><filter id="filter0_d_144_10243" x="0.333984" y="0" width="418.334" height="224" filterUnits="userSpaceOnUse" color-interpolation-filters="sRGB"></filter></defs></svg>