<svg xmlns="http://www.w3.org/2000/svg" width="512" height="266" viewBox="0 0 512 266" fill="none"><rect x="0.5" y="0.5" width="511" height="265" rx="11.5" stroke="#262626"></rect><rect x="50.5" y="50.5" width="81" height="81" rx="40.5" stroke="url(#paint0_linear_104_11615)"></rect><rect x="50.5" y="50.5" width="81" height="81" rx="40.5" stroke="url(#paint1_linear_104_11615)"></rect><rect x="60.5" y="60.5" width="61" height="61" rx="30.5" stroke="url(#paint2_linear_104_11615)"></rect><rect x="60.5" y="60.5" width="61" height="61" rx="30.5" stroke="url(#paint3_linear_104_11615)"></rect><path fill-rule="evenodd" clip-rule="evenodd" d="M86.75 80.375C87.2244 80.375 87.6413 80.6895 87.7716 81.1456L88.9236 85.1777C89.4279 86.9426 90.8074 88.3221 92.5723 88.8264L96.6044 89.9784C97.0605 90.1087 97.375 90.5256 97.375 91C97.375 91.4744 97.0605 91.8913 96.6044 92.0216L92.5723 93.1736C90.8074 93.6779 89.4279 95.0574 88.9236 96.8223L87.7716 100.854C87.6413 101.311 87.2244 101.625 86.75 101.625C86.2756 101.625 85.8587 101.311 85.7284 100.854L84.5764 96.8223C84.0721 95.0574 82.6926 93.6779 80.9277 93.1736L76.8956 92.0216C76.4395 91.8913 76.125 91.4744 76.125 91C76.125 90.5256 76.4395 90.1087 76.8956 89.9784L80.9277 88.8264C82.6926 88.3221 84.0721 86.9426 84.5764 85.1777L85.7284 81.1456C85.8587 80.6895 86.2756 80.375 86.75 80.375Z" fill="#A685FA"></path><path fill-rule="evenodd" clip-rule="evenodd" d="M99.5 76.125C99.9875 76.125 100.413 76.4568 100.531 76.9298L100.898 78.3967C101.231 79.7291 102.271 80.7694 103.603 81.1025L105.07 81.4692C105.543 81.5875 105.875 82.0125 105.875 82.5C105.875 82.9875 105.543 83.4125 105.07 83.5308L103.603 83.8975C102.271 84.2306 101.231 85.2709 100.898 86.6033L100.531 88.0702C100.413 88.5432 99.9875 88.875 99.5 88.875C99.0125 88.875 98.5875 88.5432 98.4692 88.0702L98.1025 86.6033C97.7694 85.2709 96.7291 84.2306 95.3967 83.8975L93.9298 83.5308C93.4568 83.4125 93.125 82.9875 93.125 82.5C93.125 82.0125 93.4568 81.5875 93.9298 81.4692L95.3967 81.1025C96.7291 80.7694 97.7694 79.7291 98.1025 78.3967L98.4692 76.9298C98.5875 76.4568 99.0125 76.125 99.5 76.125Z" fill="#A685FA"></path><path fill-rule="evenodd" clip-rule="evenodd" d="M97.375 95.25C97.8323 95.25 98.2384 95.5426 98.383 95.9765L98.9415 97.652C99.153 98.2866 99.6509 98.7845 100.285 98.996L101.961 99.5545C102.395 99.6991 102.688 100.105 102.688 100.562C102.688 101.02 102.395 101.426 101.961 101.57L100.285 102.129C99.6509 102.34 99.153 102.838 98.9415 103.473L98.383 105.148C98.2384 105.582 97.8323 105.875 97.375 105.875C96.9177 105.875 96.5116 105.582 96.367 105.148L95.8085 103.473C95.597 102.838 95.0991 102.34 94.4645 102.129L92.789 101.57C92.3551 101.426 92.0625 101.02 92.0625 100.562C92.0625 100.105 92.3551 99.6991 92.789 99.5545L94.4645 98.996C95.0991 98.7845 95.597 98.2866 95.8085 97.652L96.367 95.9765C96.5116 95.5426 96.9177 95.25 97.375 95.25Z" fill="#A685FA"></path><path d="M153.44 99V82.2H163.34V84.696H155.936V88.752H162.188V91.248H155.936V99H153.44ZM164.362 87H166.858V99H164.362V87ZM165.634 85.26C165.25 85.26 164.93 85.136 164.674 84.888C164.418 84.64 164.29 84.328 164.29 83.952C164.29 83.584 164.418 83.276 164.674 83.028C164.93 82.772 165.246 82.644 165.622 82.644C165.99 82.644 166.302 82.772 166.558 83.028C166.814 83.276 166.942 83.584 166.942 83.952C166.942 84.328 166.814 84.64 166.558 84.888C166.31 85.136 166.002 85.26 165.634 85.26ZM180.459 91.476V99H177.963V92.088C177.963 91.552 177.831 91.064 177.567 90.624C177.311 90.184 176.963 89.836 176.523 89.58C176.091 89.316 175.603 89.184 175.059 89.184C174.531 89.184 174.047 89.316 173.607 89.58C173.167 89.836 172.815 90.184 172.551 90.624C172.287 91.064 172.155 91.552 172.155 92.088V99H169.659V87H172.155V88.272C172.571 87.776 173.083 87.384 173.691 87.096C174.299 86.808 174.955 86.664 175.659 86.664C176.547 86.664 177.355 86.88 178.083 87.312C178.811 87.744 179.387 88.324 179.811 89.052C180.243 89.78 180.459 90.588 180.459 91.476ZM191.956 87H194.452V99H191.944L191.848 97.26C191.496 97.876 191.02 98.372 190.42 98.748C189.82 99.124 189.112 99.312 188.296 99.312C187.416 99.312 186.588 99.148 185.812 98.82C185.036 98.484 184.352 98.02 183.76 97.428C183.176 96.836 182.72 96.156 182.392 95.388C182.064 94.612 181.9 93.78 181.9 92.892C181.9 92.036 182.06 91.232 182.38 90.48C182.7 89.72 183.144 89.056 183.712 88.488C184.28 87.92 184.936 87.476 185.68 87.156C186.432 86.828 187.236 86.664 188.092 86.664C188.964 86.664 189.732 86.864 190.396 87.264C191.068 87.656 191.624 88.16 192.064 88.776L191.956 87ZM188.236 96.9C188.94 96.9 189.556 96.728 190.084 96.384C190.612 96.032 191.02 95.56 191.308 94.968C191.604 94.376 191.752 93.72 191.752 93C191.752 92.272 191.604 91.612 191.308 91.02C191.012 90.428 190.6 89.96 190.072 89.616C189.552 89.264 188.94 89.088 188.236 89.088C187.54 89.088 186.904 89.264 186.328 89.616C185.752 89.968 185.296 90.44 184.96 91.032C184.624 91.624 184.456 92.28 184.456 93C184.456 93.728 184.628 94.388 184.972 94.98C185.324 95.564 185.784 96.032 186.352 96.384C186.928 96.728 187.556 96.9 188.236 96.9ZM207.646 91.476V99H205.15V92.088C205.15 91.552 205.018 91.064 204.754 90.624C204.498 90.184 204.15 89.836 203.71 89.58C203.278 89.316 202.79 89.184 202.246 89.184C201.718 89.184 201.234 89.316 200.794 89.58C200.354 89.836 200.002 90.184 199.738 90.624C199.474 91.064 199.342 91.552 199.342 92.088V99H196.846V87H199.342V88.272C199.758 87.776 200.27 87.384 200.878 87.096C201.486 86.808 202.142 86.664 202.846 86.664C203.734 86.664 204.542 86.88 205.27 87.312C205.998 87.744 206.574 88.324 206.998 89.052C207.43 89.78 207.646 90.588 207.646 91.476ZM217.643 95.592L219.875 96.804C219.331 97.564 218.639 98.172 217.799 98.628C216.967 99.084 216.063 99.312 215.087 99.312C213.983 99.312 212.975 99.028 212.063 98.46C211.159 97.892 210.435 97.132 209.891 96.18C209.355 95.22 209.087 94.16 209.087 93C209.087 92.12 209.243 91.3 209.555 90.54C209.867 89.772 210.295 89.1 210.839 88.524C211.391 87.94 212.031 87.484 212.759 87.156C213.487 86.828 214.263 86.664 215.087 86.664C216.063 86.664 216.967 86.892 217.799 87.348C218.639 87.804 219.331 88.416 219.875 89.184L217.643 90.396C217.307 89.996 216.915 89.692 216.467 89.484C216.019 89.268 215.559 89.16 215.087 89.16C214.431 89.16 213.835 89.34 213.299 89.7C212.771 90.052 212.351 90.52 212.039 91.104C211.735 91.68 211.583 92.312 211.583 93C211.583 93.68 211.739 94.312 212.051 94.896C212.363 95.472 212.783 95.936 213.311 96.288C213.847 96.64 214.439 96.816 215.087 96.816C215.583 96.816 216.055 96.704 216.503 96.48C216.951 96.256 217.331 95.96 217.643 95.592ZM221.667 87H224.163V99H221.667V87ZM222.939 85.26C222.555 85.26 222.235 85.136 221.979 84.888C221.723 84.64 221.595 84.328 221.595 83.952C221.595 83.584 221.723 83.276 221.979 83.028C222.235 82.772 222.551 82.644 222.927 82.644C223.295 82.644 223.607 82.772 223.863 83.028C224.119 83.276 224.247 83.584 224.247 83.952C224.247 84.328 224.119 84.64 223.863 84.888C223.615 85.136 223.307 85.26 222.939 85.26ZM236.159 87H238.655V99H236.147L236.051 97.26C235.699 97.876 235.223 98.372 234.623 98.748C234.023 99.124 233.315 99.312 232.499 99.312C231.619 99.312 230.791 99.148 230.015 98.82C229.239 98.484 228.555 98.02 227.963 97.428C227.379 96.836 226.923 96.156 226.595 95.388C226.267 94.612 226.103 93.78 226.103 92.892C226.103 92.036 226.263 91.232 226.583 90.48C226.903 89.72 227.347 89.056 227.915 88.488C228.483 87.92 229.139 87.476 229.883 87.156C230.635 86.828 231.439 86.664 232.295 86.664C233.167 86.664 233.935 86.864 234.599 87.264C235.271 87.656 235.827 88.16 236.267 88.776L236.159 87ZM232.439 96.9C233.143 96.9 233.759 96.728 234.287 96.384C234.815 96.032 235.223 95.56 235.511 94.968C235.807 94.376 235.955 93.72 235.955 93C235.955 92.272 235.807 91.612 235.511 91.02C235.215 90.428 234.803 89.96 234.275 89.616C233.755 89.264 233.143 89.088 232.439 89.088C231.743 89.088 231.107 89.264 230.531 89.616C229.955 89.968 229.499 90.44 229.163 91.032C228.827 91.624 228.659 92.28 228.659 93C228.659 93.728 228.831 94.388 229.175 94.98C229.527 95.564 229.987 96.032 230.555 96.384C231.131 96.728 231.759 96.9 232.439 96.9ZM241.143 99V81H243.639V99H241.143ZM252.276 99V82.2H258.06C258.964 82.2 259.78 82.424 260.508 82.872C261.244 83.32 261.828 83.924 262.26 84.684C262.7 85.444 262.92 86.284 262.92 87.204C262.92 88.14 262.696 88.988 262.248 89.748C261.808 90.5 261.22 91.1 260.484 91.548C259.748 91.996 258.94 92.22 258.06 92.22H254.772V99H252.276ZM254.772 89.724H257.808C258.288 89.724 258.724 89.604 259.116 89.364C259.516 89.124 259.832 88.804 260.064 88.404C260.304 88.004 260.424 87.552 260.424 87.048C260.424 86.544 260.304 86.092 260.064 85.692C259.832 85.284 259.516 84.964 259.116 84.732C258.724 84.492 258.288 84.372 257.808 84.372H254.772V89.724ZM269.579 99.312C268.475 99.312 267.467 99.028 266.555 98.46C265.651 97.892 264.927 97.132 264.383 96.18C263.847 95.22 263.579 94.16 263.579 93C263.579 92.12 263.735 91.3 264.047 90.54C264.359 89.772 264.787 89.1 265.331 88.524C265.883 87.94 266.523 87.484 267.251 87.156C267.979 86.828 268.755 86.664 269.579 86.664C270.499 86.664 271.343 86.856 272.111 87.24C272.879 87.616 273.535 88.14 274.079 88.812C274.623 89.476 275.023 90.244 275.279 91.116C275.535 91.98 275.611 92.9 275.507 93.876H266.255C266.359 94.428 266.559 94.928 266.855 95.376C267.159 95.816 267.543 96.164 268.007 96.42C268.479 96.676 269.003 96.808 269.579 96.816C270.187 96.816 270.739 96.664 271.235 96.36C271.739 96.056 272.151 95.636 272.471 95.1L275.003 95.688C274.523 96.752 273.799 97.624 272.831 98.304C271.863 98.976 270.779 99.312 269.579 99.312ZM266.171 91.968H272.987C272.907 91.392 272.703 90.872 272.375 90.408C272.055 89.936 271.651 89.564 271.163 89.292C270.683 89.012 270.155 88.872 269.579 88.872C269.011 88.872 268.483 89.008 267.995 89.28C267.515 89.552 267.115 89.924 266.795 90.396C266.483 90.86 266.275 91.384 266.171 91.968ZM286.807 87H289.303V99H286.795L286.699 97.26C286.347 97.876 285.871 98.372 285.271 98.748C284.671 99.124 283.963 99.312 283.147 99.312C282.267 99.312 281.439 99.148 280.663 98.82C279.887 98.484 279.203 98.02 278.611 97.428C278.027 96.836 277.571 96.156 277.243 95.388C276.915 94.612 276.751 93.78 276.751 92.892C276.751 92.036 276.911 91.232 277.231 90.48C277.551 89.72 277.995 89.056 278.563 88.488C279.131 87.92 279.787 87.476 280.531 87.156C281.283 86.828 282.087 86.664 282.943 86.664C283.815 86.664 284.583 86.864 285.247 87.264C285.919 87.656 286.475 88.16 286.915 88.776L286.807 87ZM283.087 96.9C283.791 96.9 284.407 96.728 284.935 96.384C285.463 96.032 285.871 95.56 286.159 94.968C286.455 94.376 286.603 93.72 286.603 93C286.603 92.272 286.455 91.612 286.159 91.02C285.863 90.428 285.451 89.96 284.923 89.616C284.403 89.264 283.791 89.088 283.087 89.088C282.391 89.088 281.755 89.264 281.179 89.616C280.603 89.968 280.147 90.44 279.811 91.032C279.475 91.624 279.307 92.28 279.307 93C279.307 93.728 279.479 94.388 279.823 94.98C280.175 95.564 280.635 96.032 281.203 96.384C281.779 96.728 282.407 96.9 283.087 96.9ZM299.299 95.592L301.531 96.804C300.987 97.564 300.295 98.172 299.455 98.628C298.623 99.084 297.719 99.312 296.743 99.312C295.639 99.312 294.631 99.028 293.719 98.46C292.815 97.892 292.091 97.132 291.547 96.18C291.011 95.22 290.743 94.16 290.743 93C290.743 92.12 290.899 91.3 291.211 90.54C291.523 89.772 291.951 89.1 292.495 88.524C293.047 87.94 293.687 87.484 294.415 87.156C295.143 86.828 295.919 86.664 296.743 86.664C297.719 86.664 298.623 86.892 299.455 87.348C300.295 87.804 300.987 88.416 301.531 89.184L299.299 90.396C298.963 89.996 298.571 89.692 298.123 89.484C297.675 89.268 297.215 89.16 296.743 89.16C296.087 89.16 295.491 89.34 294.955 89.7C294.427 90.052 294.007 90.52 293.695 91.104C293.391 91.68 293.239 92.312 293.239 93C293.239 93.68 293.395 94.312 293.707 94.896C294.019 95.472 294.439 95.936 294.967 96.288C295.503 96.64 296.095 96.816 296.743 96.816C297.239 96.816 297.711 96.704 298.159 96.48C298.607 96.256 298.987 95.96 299.299 95.592ZM308.697 99.312C307.593 99.312 306.585 99.028 305.673 98.46C304.769 97.892 304.045 97.132 303.501 96.18C302.965 95.22 302.697 94.16 302.697 93C302.697 92.12 302.853 91.3 303.165 90.54C303.477 89.772 303.905 89.1 304.449 88.524C305.001 87.94 305.641 87.484 306.369 87.156C307.097 86.828 307.873 86.664 308.697 86.664C309.617 86.664 310.461 86.856 311.229 87.24C311.997 87.616 312.653 88.14 313.197 88.812C313.741 89.476 314.141 90.244 314.397 91.116C314.653 91.98 314.729 92.9 314.625 93.876H305.373C305.477 94.428 305.677 94.928 305.973 95.376C306.277 95.816 306.661 96.164 307.125 96.42C307.597 96.676 308.121 96.808 308.697 96.816C309.305 96.816 309.857 96.664 310.353 96.36C310.857 96.056 311.269 95.636 311.589 95.1L314.121 95.688C313.641 96.752 312.917 97.624 311.949 98.304C310.981 98.976 309.897 99.312 308.697 99.312ZM305.289 91.968H312.105C312.025 91.392 311.821 90.872 311.493 90.408C311.173 89.936 310.769 89.564 310.281 89.292C309.801 89.012 309.273 88.872 308.697 88.872C308.129 88.872 307.601 89.008 307.113 89.28C306.633 89.552 306.233 89.924 305.913 90.396C305.601 90.86 305.393 91.384 305.289 91.968ZM327.868 99.312C326.764 99.312 325.756 99.028 324.844 98.46C323.94 97.892 323.216 97.132 322.672 96.18C322.136 95.22 321.868 94.16 321.868 93C321.868 92.12 322.024 91.3 322.336 90.54C322.648 89.772 323.076 89.1 323.62 88.524C324.172 87.94 324.812 87.484 325.54 87.156C326.268 86.828 327.044 86.664 327.868 86.664C328.972 86.664 329.976 86.948 330.88 87.516C331.792 88.084 332.516 88.848 333.052 89.808C333.596 90.768 333.868 91.832 333.868 93C333.868 93.872 333.712 94.688 333.4 95.448C333.088 96.208 332.656 96.88 332.104 97.464C331.56 98.04 330.924 98.492 330.196 98.82C329.476 99.148 328.7 99.312 327.868 99.312ZM327.868 96.816C328.532 96.816 329.128 96.64 329.656 96.288C330.184 95.936 330.6 95.472 330.904 94.896C331.216 94.312 331.372 93.68 331.372 93C331.372 92.304 331.212 91.664 330.892 91.08C330.58 90.496 330.16 90.032 329.632 89.688C329.104 89.336 328.516 89.16 327.868 89.16C327.212 89.16 326.616 89.336 326.08 89.688C325.552 90.04 325.132 90.508 324.82 91.092C324.516 91.676 324.364 92.312 324.364 93C324.364 93.712 324.524 94.356 324.844 94.932C325.164 95.508 325.588 95.968 326.116 96.312C326.652 96.648 327.236 96.816 327.868 96.816ZM339.102 84.276V87H342.486V89.496H339.102V99H336.606V89.496H335.178V87H336.606V84.276C336.606 83.62 336.766 83.024 337.086 82.488C337.406 81.944 337.834 81.512 338.37 81.192C338.914 80.872 339.518 80.712 340.182 80.712C340.662 80.712 341.13 80.808 341.586 81C342.042 81.192 342.45 81.488 342.81 81.888L341.022 83.652C340.934 83.508 340.81 83.4 340.65 83.328C340.498 83.248 340.342 83.208 340.182 83.208C339.886 83.208 339.63 83.312 339.414 83.52C339.206 83.728 339.102 83.98 339.102 84.276ZM350.268 99L353.52 82.2H355.536L359.844 93.516L364.128 82.2H366.144L369.408 99H366.864L364.692 87.756L360.672 98.364H358.992L354.984 87.756L352.812 99H350.268ZM371.924 87H374.42V99H371.924V87ZM373.196 85.26C372.812 85.26 372.492 85.136 372.236 84.888C371.98 84.64 371.852 84.328 371.852 83.952C371.852 83.584 371.98 83.276 372.236 83.028C372.492 82.772 372.808 82.644 373.184 82.644C373.552 82.644 373.864 82.772 374.12 83.028C374.376 83.276 374.504 83.584 374.504 83.952C374.504 84.328 374.376 84.64 374.12 84.888C373.872 85.136 373.564 85.26 373.196 85.26ZM388.021 91.476V99H385.525V92.088C385.525 91.552 385.393 91.064 385.129 90.624C384.873 90.184 384.525 89.836 384.085 89.58C383.653 89.316 383.165 89.184 382.621 89.184C382.093 89.184 381.609 89.316 381.169 89.58C380.729 89.836 380.377 90.184 380.113 90.624C379.849 91.064 379.717 91.552 379.717 92.088V99H377.221V87H379.717V88.272C380.133 87.776 380.645 87.384 381.253 87.096C381.861 86.808 382.517 86.664 383.221 86.664C384.109 86.664 384.917 86.88 385.645 87.312C386.373 87.744 386.949 88.324 387.373 89.052C387.805 89.78 388.021 90.588 388.021 91.476ZM399.53 81H402.026V99H399.53V97.236C399.138 97.86 398.626 98.364 397.994 98.748C397.362 99.124 396.622 99.312 395.774 99.312C394.902 99.312 394.086 99.148 393.326 98.82C392.566 98.492 391.894 98.04 391.31 97.464C390.734 96.88 390.282 96.208 389.954 95.448C389.626 94.688 389.462 93.872 389.462 93C389.462 92.128 389.626 91.312 389.954 90.552C390.282 89.784 390.734 89.112 391.31 88.536C391.894 87.952 392.566 87.496 393.326 87.168C394.086 86.84 394.902 86.676 395.774 86.676C396.622 86.676 397.362 86.868 397.994 87.252C398.626 87.628 399.138 88.124 399.53 88.74V81ZM395.798 96.9C396.502 96.9 397.118 96.728 397.646 96.384C398.174 96.032 398.582 95.56 398.87 94.968C399.166 94.376 399.314 93.72 399.314 93C399.314 92.272 399.166 91.612 398.87 91.02C398.574 90.428 398.162 89.96 397.634 89.616C397.114 89.264 396.502 89.088 395.798 89.088C395.102 89.088 394.466 89.264 393.89 89.616C393.322 89.968 392.866 90.44 392.522 91.032C392.186 91.624 392.018 92.28 392.018 93C392.018 93.728 392.19 94.388 392.534 94.98C392.886 95.564 393.346 96.032 393.914 96.384C394.49 96.728 395.118 96.9 395.798 96.9Z" fill="white"></path><path d="M51.08 182L53.519 169.4H54.68L58.082 178.346L61.475 169.4H62.636L65.084 182H63.545L61.772 172.856L58.577 181.316H57.578L54.383 172.856L52.619 182H51.08ZM73.6969 173H75.2089V182H73.6969L73.6339 180.479C73.3519 181.001 72.9619 181.424 72.4639 181.748C71.9719 182.072 71.3839 182.234 70.6999 182.234C70.0399 182.234 69.4219 182.111 68.8459 181.865C68.2699 181.613 67.7599 181.268 67.3159 180.83C66.8779 180.386 66.5359 179.876 66.2899 179.3C66.0439 178.724 65.9209 178.103 65.9209 177.437C65.9209 176.795 66.0409 176.189 66.2809 175.619C66.5209 175.049 66.8539 174.551 67.2799 174.125C67.7119 173.693 68.2099 173.357 68.7739 173.117C69.3379 172.871 69.9439 172.748 70.5919 172.748C71.2999 172.748 71.9209 172.916 72.4549 173.252C72.9889 173.582 73.4209 174.011 73.7509 174.539L73.6969 173ZM70.6729 180.767C71.2669 180.767 71.7799 180.623 72.2119 180.335C72.6499 180.041 72.9859 179.645 73.2199 179.147C73.4599 178.649 73.5799 178.1 73.5799 177.5C73.5799 176.888 73.4599 176.336 73.2199 175.844C72.9799 175.346 72.6409 174.953 72.2029 174.665C71.7709 174.371 71.2609 174.224 70.6729 174.224C70.0789 174.224 69.5389 174.371 69.0529 174.665C68.5669 174.959 68.1799 175.355 67.8919 175.853C67.6099 176.345 67.4689 176.894 67.4689 177.5C67.4689 178.106 67.6159 178.658 67.9099 179.156C68.2039 179.648 68.5939 180.041 69.0799 180.335C69.5659 180.623 70.0969 180.767 70.6729 180.767ZM84.9637 176.402V182H83.4517V176.735C83.4517 176.279 83.3407 175.865 83.1187 175.493C82.8967 175.121 82.5997 174.827 82.2277 174.611C81.8557 174.389 81.4417 174.278 80.9857 174.278C80.5357 174.278 80.1217 174.389 79.7437 174.611C79.3717 174.827 79.0747 175.121 78.8527 175.493C78.6307 175.865 78.5197 176.279 78.5197 176.735V182H77.0077V173H78.5197V174.125C78.8377 173.705 79.2397 173.372 79.7257 173.126C80.2117 172.874 80.7397 172.748 81.3097 172.748C81.9817 172.748 82.5937 172.913 83.1457 173.243C83.7037 173.567 84.1447 174.005 84.4687 174.557C84.7987 175.109 84.9637 175.724 84.9637 176.402ZM93.8238 173H95.3358V182H93.8238L93.7608 180.479C93.4788 181.001 93.0888 181.424 92.5908 181.748C92.0988 182.072 91.5108 182.234 90.8268 182.234C90.1668 182.234 89.5488 182.111 88.9728 181.865C88.3968 181.613 87.8868 181.268 87.4428 180.83C87.0048 180.386 86.6628 179.876 86.4168 179.3C86.1708 178.724 86.0478 178.103 86.0478 177.437C86.0478 176.795 86.1678 176.189 86.4078 175.619C86.6478 175.049 86.9808 174.551 87.4068 174.125C87.8388 173.693 88.3368 173.357 88.9008 173.117C89.4648 172.871 90.0708 172.748 90.7188 172.748C91.4268 172.748 92.0478 172.916 92.5818 173.252C93.1158 173.582 93.5478 174.011 93.8778 174.539L93.8238 173ZM90.7998 180.767C91.3938 180.767 91.9068 180.623 92.3388 180.335C92.7768 180.041 93.1128 179.645 93.3468 179.147C93.5868 178.649 93.7068 178.1 93.7068 177.5C93.7068 176.888 93.5868 176.336 93.3468 175.844C93.1068 175.346 92.7678 174.953 92.3298 174.665C91.8978 174.371 91.3878 174.224 90.7998 174.224C90.2058 174.224 89.6658 174.371 89.1798 174.665C88.6938 174.959 88.3068 175.355 88.0188 175.853C87.7368 176.345 87.5958 176.894 87.5958 177.5C87.5958 178.106 87.7428 178.658 88.0368 179.156C88.3308 179.648 88.7208 180.041 89.2068 180.335C89.6928 180.623 90.2238 180.767 90.7998 180.767ZM103.988 173H105.5V182.288C105.5 182.882 105.371 183.434 105.113 183.944C104.861 184.46 104.519 184.907 104.087 185.285C103.655 185.669 103.163 185.966 102.611 186.176C102.059 186.392 101.483 186.5 100.883 186.5C100.259 186.5 99.6559 186.359 99.0739 186.077C98.4919 185.801 97.9819 185.429 97.5439 184.961C97.1119 184.499 96.7999 183.98 96.6079 183.404L97.9939 182.774C98.1079 183.188 98.3119 183.56 98.6059 183.89C98.9059 184.226 99.2539 184.49 99.6499 184.682C100.052 184.88 100.463 184.979 100.883 184.979C101.279 184.979 101.66 184.91 102.026 184.772C102.398 184.634 102.731 184.442 103.025 184.196C103.325 183.956 103.559 183.671 103.727 183.341C103.901 183.017 103.988 182.666 103.988 182.288V180.497C103.682 181.013 103.277 181.433 102.773 181.757C102.275 182.075 101.693 182.234 101.027 182.234C100.391 182.234 99.7939 182.111 99.2359 181.865C98.6779 181.619 98.1889 181.28 97.7689 180.848C97.3489 180.41 97.0189 179.906 96.7789 179.336C96.5389 178.766 96.4189 178.154 96.4189 177.5C96.4189 176.846 96.5389 176.234 96.7789 175.664C97.0189 175.088 97.3489 174.584 97.7689 174.152C98.1889 173.714 98.6779 173.372 99.2359 173.126C99.7939 172.88 100.391 172.757 101.027 172.757C101.693 172.757 102.275 172.916 102.773 173.234C103.277 173.552 103.682 173.972 103.988 174.494V173ZM101.036 180.767C101.618 180.767 102.122 180.617 102.548 180.317C102.98 180.017 103.313 179.618 103.547 179.12C103.781 178.622 103.898 178.082 103.898 177.5C103.898 176.9 103.778 176.354 103.538 175.862C103.304 175.364 102.971 174.968 102.539 174.674C102.113 174.374 101.612 174.224 101.036 174.224C100.472 174.224 99.9559 174.371 99.4879 174.665C99.0199 174.959 98.6479 175.355 98.3719 175.853C98.1019 176.345 97.9669 176.894 97.9669 177.5C97.9669 178.106 98.1049 178.658 98.3809 179.156C98.6629 179.648 99.0349 180.041 99.4969 180.335C99.9649 180.623 100.478 180.767 101.036 180.767ZM107.541 173H109.053V182H107.541V173ZM108.315 171.533C108.075 171.533 107.874 171.455 107.712 171.299C107.55 171.143 107.469 170.948 107.469 170.714C107.469 170.48 107.55 170.285 107.712 170.129C107.874 169.973 108.072 169.895 108.306 169.895C108.54 169.895 108.738 169.973 108.9 170.129C109.062 170.285 109.143 170.48 109.143 170.714C109.143 170.948 109.062 171.143 108.9 171.299C108.744 171.455 108.549 171.533 108.315 171.533ZM119.136 176.402V182H117.624V176.735C117.624 176.279 117.513 175.865 117.291 175.493C117.069 175.121 116.772 174.827 116.4 174.611C116.028 174.389 115.614 174.278 115.158 174.278C114.708 174.278 114.294 174.389 113.916 174.611C113.544 174.827 113.247 175.121 113.025 175.493C112.803 175.865 112.692 176.279 112.692 176.735V182H111.18V173H112.692V174.125C113.01 173.705 113.412 173.372 113.898 173.126C114.384 172.874 114.912 172.748 115.482 172.748C116.154 172.748 116.766 172.913 117.318 173.243C117.876 173.567 118.317 174.005 118.641 174.557C118.971 175.109 119.136 175.724 119.136 176.402ZM127.789 173H129.301V182.288C129.301 182.882 129.172 183.434 128.914 183.944C128.662 184.46 128.32 184.907 127.888 185.285C127.456 185.669 126.964 185.966 126.412 186.176C125.86 186.392 125.284 186.5 124.684 186.5C124.06 186.5 123.457 186.359 122.875 186.077C122.293 185.801 121.783 185.429 121.345 184.961C120.913 184.499 120.601 183.98 120.409 183.404L121.795 182.774C121.909 183.188 122.113 183.56 122.407 183.89C122.707 184.226 123.055 184.49 123.451 184.682C123.853 184.88 124.264 184.979 124.684 184.979C125.08 184.979 125.461 184.91 125.827 184.772C126.199 184.634 126.532 184.442 126.826 184.196C127.126 183.956 127.36 183.671 127.528 183.341C127.702 183.017 127.789 182.666 127.789 182.288V180.497C127.483 181.013 127.078 181.433 126.574 181.757C126.076 182.075 125.494 182.234 124.828 182.234C124.192 182.234 123.595 182.111 123.037 181.865C122.479 181.619 121.99 181.28 121.57 180.848C121.15 180.41 120.82 179.906 120.58 179.336C120.34 178.766 120.22 178.154 120.22 177.5C120.22 176.846 120.34 176.234 120.58 175.664C120.82 175.088 121.15 174.584 121.57 174.152C121.99 173.714 122.479 173.372 123.037 173.126C123.595 172.88 124.192 172.757 124.828 172.757C125.494 172.757 126.076 172.916 126.574 173.234C127.078 173.552 127.483 173.972 127.789 174.494V173ZM124.837 180.767C125.419 180.767 125.923 180.617 126.349 180.317C126.781 180.017 127.114 179.618 127.348 179.12C127.582 178.622 127.699 178.082 127.699 177.5C127.699 176.9 127.579 176.354 127.339 175.862C127.105 175.364 126.772 174.968 126.34 174.674C125.914 174.374 125.413 174.224 124.837 174.224C124.273 174.224 123.757 174.371 123.289 174.665C122.821 174.959 122.449 175.355 122.173 175.853C121.903 176.345 121.768 176.894 121.768 177.5C121.768 178.106 121.906 178.658 122.182 179.156C122.464 179.648 122.836 180.041 123.298 180.335C123.766 180.623 124.279 180.767 124.837 180.767ZM137.301 186.5H135.789V173H137.301V174.539C137.607 174.011 138.015 173.585 138.525 173.261C139.035 172.931 139.641 172.766 140.343 172.766C140.997 172.766 141.609 172.889 142.179 173.135C142.755 173.381 143.259 173.723 143.691 174.161C144.123 174.593 144.462 175.094 144.708 175.664C144.954 176.234 145.077 176.846 145.077 177.5C145.077 178.154 144.954 178.769 144.708 179.345C144.462 179.921 144.123 180.428 143.691 180.866C143.259 181.298 142.755 181.637 142.179 181.883C141.609 182.129 140.997 182.252 140.343 182.252C139.641 182.252 139.035 182.09 138.525 181.766C138.015 181.436 137.607 181.007 137.301 180.479V186.5ZM140.325 174.233C139.743 174.233 139.233 174.38 138.795 174.674C138.357 174.968 138.018 175.361 137.778 175.853C137.544 176.345 137.427 176.894 137.427 177.5C137.427 178.1 137.544 178.649 137.778 179.147C138.018 179.645 138.354 180.041 138.786 180.335C139.224 180.629 139.737 180.776 140.325 180.776C140.907 180.776 141.441 180.632 141.927 180.344C142.413 180.05 142.803 179.657 143.097 179.165C143.391 178.667 143.538 178.112 143.538 177.5C143.538 176.9 143.394 176.354 143.106 175.862C142.818 175.364 142.431 174.968 141.945 174.674C141.459 174.38 140.919 174.233 140.325 174.233ZM146.582 182V173H148.094V174.125C148.412 173.705 148.814 173.372 149.3 173.126C149.786 172.874 150.314 172.748 150.884 172.748C151.232 172.748 151.568 172.793 151.892 172.883L151.28 174.395C151.034 174.317 150.794 174.278 150.56 174.278C150.11 174.278 149.696 174.389 149.318 174.611C148.946 174.827 148.649 175.121 148.427 175.493C148.205 175.865 148.094 176.279 148.094 176.735V182H146.582ZM156.501 182.234C155.673 182.234 154.917 182.021 154.233 181.595C153.555 181.169 153.012 180.599 152.604 179.885C152.202 179.165 152.001 178.37 152.001 177.5C152.001 176.84 152.118 176.225 152.352 175.655C152.586 175.079 152.907 174.575 153.315 174.143C153.729 173.705 154.209 173.363 154.755 173.117C155.301 172.871 155.883 172.748 156.501 172.748C157.329 172.748 158.082 172.961 158.76 173.387C159.444 173.813 159.987 174.386 160.389 175.106C160.797 175.826 161.001 176.624 161.001 177.5C161.001 178.154 160.884 178.766 160.65 179.336C160.416 179.906 160.092 180.41 159.678 180.848C159.27 181.28 158.793 181.619 158.247 181.865C157.707 182.111 157.125 182.234 156.501 182.234ZM156.501 180.722C157.065 180.722 157.572 180.575 158.022 180.281C158.478 179.981 158.835 179.588 159.093 179.102C159.357 178.61 159.489 178.076 159.489 177.5C159.489 176.912 159.354 176.372 159.084 175.88C158.82 175.388 158.463 174.995 158.013 174.701C157.563 174.407 157.059 174.26 156.501 174.26C155.937 174.26 155.43 174.41 154.98 174.71C154.53 175.004 154.173 175.397 153.909 175.889C153.645 176.381 153.513 176.918 153.513 177.5C153.513 178.1 153.648 178.646 153.918 179.138C154.188 179.624 154.551 180.011 155.007 180.299C155.463 180.581 155.961 180.722 156.501 180.722ZM164.002 186.5H162.49V173H164.002V174.539C164.308 174.011 164.716 173.585 165.226 173.261C165.736 172.931 166.342 172.766 167.044 172.766C167.698 172.766 168.31 172.889 168.88 173.135C169.456 173.381 169.96 173.723 170.392 174.161C170.824 174.593 171.163 175.094 171.409 175.664C171.655 176.234 171.778 176.846 171.778 177.5C171.778 178.154 171.655 178.769 171.409 179.345C171.163 179.921 170.824 180.428 170.392 180.866C169.96 181.298 169.456 181.637 168.88 181.883C168.31 182.129 167.698 182.252 167.044 182.252C166.342 182.252 165.736 182.09 165.226 181.766C164.716 181.436 164.308 181.007 164.002 180.479V186.5ZM167.026 174.233C166.444 174.233 165.934 174.38 165.496 174.674C165.058 174.968 164.719 175.361 164.479 175.853C164.245 176.345 164.128 176.894 164.128 177.5C164.128 178.1 164.245 178.649 164.479 179.147C164.719 179.645 165.055 180.041 165.487 180.335C165.925 180.629 166.438 180.776 167.026 180.776C167.608 180.776 168.142 180.632 168.628 180.344C169.114 180.05 169.504 179.657 169.798 179.165C170.092 178.667 170.239 178.112 170.239 177.5C170.239 176.9 170.095 176.354 169.807 175.862C169.519 175.364 169.132 174.968 168.646 174.674C168.16 174.38 167.62 174.233 167.026 174.233ZM177.19 182.234C176.362 182.234 175.606 182.021 174.922 181.595C174.244 181.169 173.701 180.599 173.293 179.885C172.891 179.165 172.69 178.37 172.69 177.5C172.69 176.84 172.807 176.225 173.041 175.655C173.275 175.079 173.596 174.575 174.004 174.143C174.418 173.705 174.898 173.363 175.444 173.117C175.99 172.871 176.572 172.748 177.19 172.748C177.868 172.748 178.489 172.886 179.053 173.162C179.623 173.432 180.109 173.81 180.511 174.296C180.919 174.782 181.222 175.346 181.42 175.988C181.624 176.63 181.699 177.317 181.645 178.049H174.301C174.373 178.559 174.541 179.015 174.805 179.417C175.069 179.813 175.405 180.128 175.813 180.362C176.227 180.596 176.686 180.716 177.19 180.722C177.73 180.722 178.219 180.584 178.657 180.308C179.095 180.026 179.449 179.642 179.719 179.156L181.258 179.516C180.898 180.314 180.355 180.968 179.629 181.478C178.903 181.982 178.09 182.234 177.19 182.234ZM174.256 176.861H180.124C180.076 176.357 179.914 175.898 179.638 175.484C179.362 175.064 179.011 174.728 178.585 174.476C178.159 174.224 177.694 174.098 177.19 174.098C176.686 174.098 176.224 174.221 175.804 174.467C175.384 174.713 175.036 175.046 174.76 175.466C174.49 175.88 174.322 176.345 174.256 176.861ZM183.162 182V173H184.674V174.125C184.992 173.705 185.394 173.372 185.88 173.126C186.366 172.874 186.894 172.748 187.464 172.748C187.812 172.748 188.148 172.793 188.472 172.883L187.86 174.395C187.614 174.317 187.374 174.278 187.14 174.278C186.69 174.278 186.276 174.389 185.898 174.611C185.526 174.827 185.229 175.121 185.007 175.493C184.785 175.865 184.674 176.279 184.674 176.735V182H183.162ZM194.398 174.512H192.355L192.346 182H190.834L190.843 174.512H189.295V173H190.843L190.834 170.174H192.346L192.355 173H194.398V174.512ZM201.966 173H203.568L198.645 186.5H197.043L198.672 182L195.441 173H197.097L199.428 179.921L201.966 173ZM211.73 170.777V173H214.367V174.512H211.73V182H210.218V174.512H209.057V173H210.218V170.777C210.218 170.315 210.329 169.898 210.551 169.526C210.779 169.148 211.082 168.848 211.46 168.626C211.844 168.398 212.264 168.284 212.72 168.284C213.056 168.284 213.383 168.353 213.701 168.491C214.019 168.623 214.301 168.821 214.547 169.085L213.467 170.156C213.383 170.042 213.272 169.955 213.134 169.895C213.002 169.829 212.864 169.796 212.72 169.796C212.45 169.796 212.216 169.892 212.018 170.084C211.826 170.276 211.73 170.507 211.73 170.777ZM215.752 173H217.264V182H215.752V173ZM216.526 171.533C216.286 171.533 216.085 171.455 215.923 171.299C215.761 171.143 215.68 170.948 215.68 170.714C215.68 170.48 215.761 170.285 215.923 170.129C216.085 169.973 216.283 169.895 216.517 169.895C216.751 169.895 216.949 169.973 217.111 170.129C217.273 170.285 217.354 170.48 217.354 170.714C217.354 170.948 217.273 171.143 217.111 171.299C216.955 171.455 216.76 171.533 216.526 171.533ZM227.347 176.402V182H225.835V176.735C225.835 176.279 225.724 175.865 225.502 175.493C225.28 175.121 224.983 174.827 224.611 174.611C224.239 174.389 223.825 174.278 223.369 174.278C222.919 174.278 222.505 174.389 222.127 174.611C221.755 174.827 221.458 175.121 221.236 175.493C221.014 175.865 220.903 176.279 220.903 176.735V182H219.391V173H220.903V174.125C221.221 173.705 221.623 173.372 222.109 173.126C222.595 172.874 223.123 172.748 223.693 172.748C224.365 172.748 224.977 172.913 225.529 173.243C226.087 173.567 226.528 174.005 226.852 174.557C227.182 175.109 227.347 175.724 227.347 176.402ZM236.207 173H237.719V182H236.207L236.144 180.479C235.862 181.001 235.472 181.424 234.974 181.748C234.482 182.072 233.894 182.234 233.21 182.234C232.55 182.234 231.932 182.111 231.356 181.865C230.78 181.613 230.27 181.268 229.826 180.83C229.388 180.386 229.046 179.876 228.8 179.3C228.554 178.724 228.431 178.103 228.431 177.437C228.431 176.795 228.551 176.189 228.791 175.619C229.031 175.049 229.364 174.551 229.79 174.125C230.222 173.693 230.72 173.357 231.284 173.117C231.848 172.871 232.454 172.748 233.102 172.748C233.81 172.748 234.431 172.916 234.965 173.252C235.499 173.582 235.931 174.011 236.261 174.539L236.207 173ZM233.183 180.767C233.777 180.767 234.29 180.623 234.722 180.335C235.16 180.041 235.496 179.645 235.73 179.147C235.97 178.649 236.09 178.1 236.09 177.5C236.09 176.888 235.97 176.336 235.73 175.844C235.49 175.346 235.151 174.953 234.713 174.665C234.281 174.371 233.771 174.224 233.183 174.224C232.589 174.224 232.049 174.371 231.563 174.665C231.077 174.959 230.69 175.355 230.402 175.853C230.12 176.345 229.979 176.894 229.979 177.5C229.979 178.106 230.126 178.658 230.42 179.156C230.714 179.648 231.104 180.041 231.59 180.335C232.076 180.623 232.607 180.767 233.183 180.767ZM247.474 176.402V182H245.962V176.735C245.962 176.279 245.851 175.865 245.629 175.493C245.407 175.121 245.11 174.827 244.738 174.611C244.366 174.389 243.952 174.278 243.496 174.278C243.046 174.278 242.632 174.389 242.254 174.611C241.882 174.827 241.585 175.121 241.363 175.493C241.141 175.865 241.03 176.279 241.03 176.735V182H239.518V173H241.03V174.125C241.348 173.705 241.75 173.372 242.236 173.126C242.722 172.874 243.25 172.748 243.82 172.748C244.492 172.748 245.104 172.913 245.656 173.243C246.214 173.567 246.655 174.005 246.979 174.557C247.309 175.109 247.474 175.724 247.474 176.402ZM255.299 179.624L256.649 180.353C256.241 180.923 255.722 181.379 255.092 181.721C254.468 182.063 253.79 182.234 253.058 182.234C252.23 182.234 251.474 182.021 250.79 181.595C250.112 181.169 249.569 180.599 249.161 179.885C248.759 179.165 248.558 178.37 248.558 177.5C248.558 176.84 248.675 176.225 248.909 175.655C249.143 175.079 249.464 174.575 249.872 174.143C250.286 173.705 250.766 173.363 251.312 173.117C251.858 172.871 252.44 172.748 253.058 172.748C253.79 172.748 254.468 172.919 255.092 173.261C255.722 173.603 256.241 174.062 256.649 174.638L255.299 175.367C255.011 175.013 254.669 174.74 254.273 174.548C253.877 174.356 253.472 174.26 253.058 174.26C252.5 174.26 251.993 174.41 251.537 174.71C251.087 175.004 250.73 175.397 250.466 175.889C250.202 176.381 250.07 176.918 250.07 177.5C250.07 178.082 250.202 178.619 250.466 179.111C250.736 179.597 251.096 179.987 251.546 180.281C252.002 180.575 252.506 180.722 253.058 180.722C253.502 180.722 253.919 180.62 254.309 180.416C254.699 180.212 255.029 179.948 255.299 179.624ZM262.075 182.234C261.247 182.234 260.491 182.021 259.807 181.595C259.129 181.169 258.586 180.599 258.178 179.885C257.776 179.165 257.575 178.37 257.575 177.5C257.575 176.84 257.692 176.225 257.926 175.655C258.16 175.079 258.481 174.575 258.889 174.143C259.303 173.705 259.783 173.363 260.329 173.117C260.875 172.871 261.457 172.748 262.075 172.748C262.753 172.748 263.374 172.886 263.938 173.162C264.508 173.432 264.994 173.81 265.396 174.296C265.804 174.782 266.107 175.346 266.305 175.988C266.509 176.63 266.584 177.317 266.53 178.049H259.186C259.258 178.559 259.426 179.015 259.69 179.417C259.954 179.813 260.29 180.128 260.698 180.362C261.112 180.596 261.571 180.716 262.075 180.722C262.615 180.722 263.104 180.584 263.542 180.308C263.98 180.026 264.334 179.642 264.604 179.156L266.143 179.516C265.783 180.314 265.24 180.968 264.514 181.478C263.788 181.982 262.975 182.234 262.075 182.234ZM259.141 176.861H265.009C264.961 176.357 264.799 175.898 264.523 175.484C264.247 175.064 263.896 174.728 263.47 174.476C263.044 174.224 262.579 174.098 262.075 174.098C261.571 174.098 261.109 174.221 260.689 174.467C260.269 174.713 259.921 175.046 259.645 175.466C259.375 175.88 259.207 176.345 259.141 176.861ZM270.827 182.171C270.341 182.153 269.867 182.063 269.405 181.901C268.949 181.733 268.547 181.508 268.199 181.226C267.857 180.938 267.608 180.608 267.452 180.236L268.748 179.678C268.838 179.882 269 180.074 269.234 180.254C269.468 180.434 269.738 180.578 270.044 180.686C270.35 180.794 270.659 180.848 270.971 180.848C271.301 180.848 271.61 180.797 271.898 180.695C272.186 180.593 272.42 180.443 272.6 180.245C272.786 180.041 272.879 179.798 272.879 179.516C272.879 179.216 272.777 178.982 272.573 178.814C272.375 178.64 272.123 178.505 271.817 178.409C271.517 178.307 271.211 178.211 270.899 178.121C270.281 177.965 269.729 177.779 269.243 177.563C268.757 177.341 268.373 177.062 268.091 176.726C267.815 176.384 267.677 175.949 267.677 175.421C267.677 174.863 267.83 174.38 268.136 173.972C268.448 173.564 268.856 173.249 269.36 173.027C269.864 172.805 270.404 172.694 270.98 172.694C271.706 172.694 272.369 172.85 272.969 173.162C273.569 173.474 274.016 173.897 274.31 174.431L273.095 175.142C272.993 174.926 272.837 174.737 272.627 174.575C272.417 174.407 272.177 174.275 271.907 174.179C271.637 174.083 271.361 174.032 271.079 174.026C270.731 174.014 270.404 174.059 270.098 174.161C269.798 174.263 269.555 174.419 269.369 174.629C269.189 174.833 269.099 175.088 269.099 175.394C269.099 175.694 269.195 175.922 269.387 176.078C269.585 176.234 269.84 176.36 270.152 176.456C270.47 176.546 270.815 176.651 271.187 176.771C271.733 176.945 272.243 177.146 272.717 177.374C273.191 177.602 273.572 177.887 273.86 178.229C274.154 178.571 274.298 178.994 274.292 179.498C274.292 180.05 274.127 180.533 273.797 180.947C273.467 181.355 273.038 181.667 272.51 181.883C271.988 182.099 271.427 182.195 270.827 182.171ZM286.359 179.624L287.709 180.353C287.301 180.923 286.782 181.379 286.152 181.721C285.528 182.063 284.85 182.234 284.118 182.234C283.29 182.234 282.534 182.021 281.85 181.595C281.172 181.169 280.629 180.599 280.221 179.885C279.819 179.165 279.618 178.37 279.618 177.5C279.618 176.84 279.735 176.225 279.969 175.655C280.203 175.079 280.524 174.575 280.932 174.143C281.346 173.705 281.826 173.363 282.372 173.117C282.918 172.871 283.5 172.748 284.118 172.748C284.85 172.748 285.528 172.919 286.152 173.261C286.782 173.603 287.301 174.062 287.709 174.638L286.359 175.367C286.071 175.013 285.729 174.74 285.333 174.548C284.937 174.356 284.532 174.26 284.118 174.26C283.56 174.26 283.053 174.41 282.597 174.71C282.147 175.004 281.79 175.397 281.526 175.889C281.262 176.381 281.13 176.918 281.13 177.5C281.13 178.082 281.262 178.619 281.526 179.111C281.796 179.597 282.156 179.987 282.606 180.281C283.062 180.575 283.566 180.722 284.118 180.722C284.562 180.722 284.979 180.62 285.369 180.416C285.759 180.212 286.089 179.948 286.359 179.624ZM296.412 173H297.924V182H296.412L296.349 180.479C296.067 181.001 295.677 181.424 295.179 181.748C294.687 182.072 294.099 182.234 293.415 182.234C292.755 182.234 292.137 182.111 291.561 181.865C290.985 181.613 290.475 181.268 290.031 180.83C289.593 180.386 289.251 179.876 289.005 179.3C288.759 178.724 288.636 178.103 288.636 177.437C288.636 176.795 288.756 176.189 288.996 175.619C289.236 175.049 289.569 174.551 289.995 174.125C290.427 173.693 290.925 173.357 291.489 173.117C292.053 172.871 292.659 172.748 293.307 172.748C294.015 172.748 294.636 172.916 295.17 173.252C295.704 173.582 296.136 174.011 296.466 174.539L296.412 173ZM293.388 180.767C293.982 180.767 294.495 180.623 294.927 180.335C295.365 180.041 295.701 179.645 295.935 179.147C296.175 178.649 296.295 178.1 296.295 177.5C296.295 176.888 296.175 176.336 295.935 175.844C295.695 175.346 295.356 174.953 294.918 174.665C294.486 174.371 293.976 174.224 293.388 174.224C292.794 174.224 292.254 174.371 291.768 174.665C291.282 174.959 290.895 175.355 290.607 175.853C290.325 176.345 290.184 176.894 290.184 177.5C290.184 178.106 290.331 178.658 290.625 179.156C290.919 179.648 291.309 180.041 291.795 180.335C292.281 180.623 292.812 180.767 293.388 180.767ZM307.679 176.402V182H306.167V176.735C306.167 176.279 306.056 175.865 305.834 175.493C305.612 175.121 305.315 174.827 304.943 174.611C304.571 174.389 304.157 174.278 303.701 174.278C303.251 174.278 302.837 174.389 302.459 174.611C302.087 174.827 301.79 175.121 301.568 175.493C301.346 175.865 301.235 176.279 301.235 176.735V182H299.723V173H301.235V174.125C301.553 173.705 301.955 173.372 302.441 173.126C302.927 172.874 303.455 172.748 304.025 172.748C304.697 172.748 305.309 172.913 305.861 173.243C306.419 173.567 306.86 174.005 307.184 174.557C307.514 175.109 307.679 175.724 307.679 176.402ZM318.357 172.748C319.233 172.748 320.028 172.961 320.742 173.387C321.462 173.813 322.035 174.386 322.461 175.106C322.887 175.82 323.1 176.615 323.1 177.491C323.1 178.145 322.977 178.76 322.731 179.336C322.485 179.906 322.143 180.41 321.705 180.848C321.273 181.28 320.769 181.619 320.193 181.865C319.623 182.111 319.011 182.234 318.357 182.234C317.661 182.234 317.055 182.072 316.539 181.748C316.029 181.418 315.621 180.989 315.315 180.461V182H313.803V168.5H315.315V174.521C315.621 173.993 316.029 173.567 316.539 173.243C317.055 172.913 317.661 172.748 318.357 172.748ZM318.339 180.758C318.933 180.758 319.473 180.611 319.959 180.317C320.445 180.023 320.832 179.63 321.12 179.138C321.408 178.64 321.552 178.091 321.552 177.491C321.552 176.879 321.405 176.327 321.111 175.835C320.817 175.337 320.427 174.944 319.941 174.656C319.455 174.362 318.921 174.215 318.339 174.215C317.751 174.215 317.238 174.362 316.8 174.656C316.368 174.95 316.032 175.346 315.792 175.844C315.558 176.342 315.441 176.891 315.441 177.491C315.441 178.097 315.558 178.649 315.792 179.147C316.032 179.639 316.371 180.032 316.809 180.326C317.247 180.614 317.757 180.758 318.339 180.758ZM328.503 182.234C327.675 182.234 326.919 182.021 326.235 181.595C325.557 181.169 325.014 180.599 324.606 179.885C324.204 179.165 324.003 178.37 324.003 177.5C324.003 176.84 324.12 176.225 324.354 175.655C324.588 175.079 324.909 174.575 325.317 174.143C325.731 173.705 326.211 173.363 326.757 173.117C327.303 172.871 327.885 172.748 328.503 172.748C329.181 172.748 329.802 172.886 330.366 173.162C330.936 173.432 331.422 173.81 331.824 174.296C332.232 174.782 332.535 175.346 332.733 175.988C332.937 176.63 333.012 177.317 332.958 178.049H325.614C325.686 178.559 325.854 179.015 326.118 179.417C326.382 179.813 326.718 180.128 327.126 180.362C327.54 180.596 327.999 180.716 328.503 180.722C329.043 180.722 329.532 180.584 329.97 180.308C330.408 180.026 330.762 179.642 331.032 179.156L332.571 179.516C332.211 180.314 331.668 180.968 330.942 181.478C330.216 181.982 329.403 182.234 328.503 182.234ZM325.569 176.861H331.437C331.389 176.357 331.227 175.898 330.951 175.484C330.675 175.064 330.324 174.728 329.898 174.476C329.472 174.224 329.007 174.098 328.503 174.098C327.999 174.098 327.537 174.221 327.117 174.467C326.697 174.713 326.349 175.046 326.073 175.466C325.803 175.88 325.635 176.345 325.569 176.861ZM345.123 179.624L346.473 180.353C346.065 180.923 345.546 181.379 344.916 181.721C344.292 182.063 343.614 182.234 342.882 182.234C342.054 182.234 341.298 182.021 340.614 181.595C339.936 181.169 339.393 180.599 338.985 179.885C338.583 179.165 338.382 178.37 338.382 177.5C338.382 176.84 338.499 176.225 338.733 175.655C338.967 175.079 339.288 174.575 339.696 174.143C340.11 173.705 340.59 173.363 341.136 173.117C341.682 172.871 342.264 172.748 342.882 172.748C343.614 172.748 344.292 172.919 344.916 173.261C345.546 173.603 346.065 174.062 346.473 174.638L345.123 175.367C344.835 175.013 344.493 174.74 344.097 174.548C343.701 174.356 343.296 174.26 342.882 174.26C342.324 174.26 341.817 174.41 341.361 174.71C340.911 175.004 340.554 175.397 340.29 175.889C340.026 176.381 339.894 176.918 339.894 177.5C339.894 178.082 340.026 178.619 340.29 179.111C340.56 179.597 340.92 179.987 341.37 180.281C341.826 180.575 342.33 180.722 342.882 180.722C343.326 180.722 343.743 180.62 344.133 180.416C344.523 180.212 344.853 179.948 345.123 179.624ZM351.899 182.234C351.071 182.234 350.315 182.021 349.631 181.595C348.953 181.169 348.41 180.599 348.002 179.885C347.6 179.165 347.399 178.37 347.399 177.5C347.399 176.84 347.516 176.225 347.75 175.655C347.984 175.079 348.305 174.575 348.713 174.143C349.127 173.705 349.607 173.363 350.153 173.117C350.699 172.871 351.281 172.748 351.899 172.748C352.727 172.748 353.48 172.961 354.158 173.387C354.842 173.813 355.385 174.386 355.787 175.106C356.195 175.826 356.399 176.624 356.399 177.5C356.399 178.154 356.282 178.766 356.048 179.336C355.814 179.906 355.49 180.41 355.076 180.848C354.668 181.28 354.191 181.619 353.645 181.865C353.105 182.111 352.523 182.234 351.899 182.234ZM351.899 180.722C352.463 180.722 352.97 180.575 353.42 180.281C353.876 179.981 354.233 179.588 354.491 179.102C354.755 178.61 354.887 178.076 354.887 177.5C354.887 176.912 354.752 176.372 354.482 175.88C354.218 175.388 353.861 174.995 353.411 174.701C352.961 174.407 352.457 174.26 351.899 174.26C351.335 174.26 350.828 174.41 350.378 174.71C349.928 175.004 349.571 175.397 349.307 175.889C349.043 176.381 348.911 176.918 348.911 177.5C348.911 178.1 349.046 178.646 349.316 179.138C349.586 179.624 349.949 180.011 350.405 180.299C350.861 180.581 351.359 180.722 351.899 180.722ZM357.889 182V173H359.401V174.125C359.719 173.705 360.118 173.372 360.598 173.126C361.084 172.874 361.612 172.748 362.182 172.748C362.848 172.748 363.457 172.91 364.009 173.234C364.561 173.558 364.996 173.987 365.314 174.521C365.632 173.987 366.064 173.558 366.61 173.234C367.162 172.91 367.768 172.748 368.428 172.748C369.106 172.748 369.721 172.913 370.273 173.243C370.825 173.567 371.263 174.005 371.587 174.557C371.917 175.109 372.082 175.724 372.082 176.402V182H370.57V176.762C370.57 176.318 370.462 175.907 370.246 175.529C370.03 175.151 369.739 174.848 369.373 174.62C369.007 174.392 368.602 174.278 368.158 174.278C367.714 174.278 367.309 174.386 366.943 174.602C366.577 174.812 366.286 175.106 366.07 175.484C365.854 175.856 365.746 176.282 365.746 176.762V182H364.234V176.762C364.234 176.282 364.126 175.856 363.91 175.484C363.694 175.106 363.4 174.812 363.028 174.602C362.662 174.386 362.257 174.278 361.813 174.278C361.375 174.278 360.97 174.392 360.598 174.62C360.232 174.848 359.941 175.151 359.725 175.529C359.509 175.907 359.401 176.318 359.401 176.762V182H357.889ZM375.397 186.5H373.885V173H375.397V174.539C375.703 174.011 376.111 173.585 376.621 173.261C377.131 172.931 377.737 172.766 378.439 172.766C379.093 172.766 379.705 172.889 380.275 173.135C380.851 173.381 381.355 173.723 381.787 174.161C382.219 174.593 382.558 175.094 382.804 175.664C383.05 176.234 383.173 176.846 383.173 177.5C383.173 178.154 383.05 178.769 382.804 179.345C382.558 179.921 382.219 180.428 381.787 180.866C381.355 181.298 380.851 181.637 380.275 181.883C379.705 182.129 379.093 182.252 378.439 182.252C377.737 182.252 377.131 182.09 376.621 181.766C376.111 181.436 375.703 181.007 375.397 180.479V186.5ZM378.421 174.233C377.839 174.233 377.329 174.38 376.891 174.674C376.453 174.968 376.114 175.361 375.874 175.853C375.64 176.345 375.523 176.894 375.523 177.5C375.523 178.1 375.64 178.649 375.874 179.147C376.114 179.645 376.45 180.041 376.882 180.335C377.32 180.629 377.833 180.776 378.421 180.776C379.003 180.776 379.537 180.632 380.023 180.344C380.509 180.05 380.899 179.657 381.193 179.165C381.487 178.667 381.634 178.112 381.634 177.5C381.634 176.9 381.49 176.354 381.202 175.862C380.914 175.364 380.527 174.968 380.041 174.674C379.555 174.38 379.015 174.233 378.421 174.233ZM384.59 182V168.5H386.102V182H384.59ZM392.136 182.234C391.308 182.234 390.552 182.021 389.868 181.595C389.19 181.169 388.647 180.599 388.239 179.885C387.837 179.165 387.636 178.37 387.636 177.5C387.636 176.84 387.753 176.225 387.987 175.655C388.221 175.079 388.542 174.575 388.95 174.143C389.364 173.705 389.844 173.363 390.39 173.117C390.936 172.871 391.518 172.748 392.136 172.748C392.814 172.748 393.435 172.886 393.999 173.162C394.569 173.432 395.055 173.81 395.457 174.296C395.865 174.782 396.168 175.346 396.366 175.988C396.57 176.63 396.645 177.317 396.591 178.049H389.247C389.319 178.559 389.487 179.015 389.751 179.417C390.015 179.813 390.351 180.128 390.759 180.362C391.173 180.596 391.632 180.716 392.136 180.722C392.676 180.722 393.165 180.584 393.603 180.308C394.041 180.026 394.395 179.642 394.665 179.156L396.204 179.516C395.844 180.314 395.301 180.968 394.575 181.478C393.849 181.982 393.036 182.234 392.136 182.234ZM389.202 176.861H395.07C395.022 176.357 394.86 175.898 394.584 175.484C394.308 175.064 393.957 174.728 393.531 174.476C393.105 174.224 392.64 174.098 392.136 174.098C391.632 174.098 391.17 174.221 390.75 174.467C390.33 174.713 389.982 175.046 389.706 175.466C389.436 175.88 389.268 176.345 389.202 176.861ZM397.079 182L400.373 177.482L397.097 172.982H398.96L401.309 176.186L403.649 172.982H405.512L402.236 177.482L405.53 182H403.667L401.309 178.76L398.942 182H397.079ZM407.795 182.234C407.567 182.234 407.372 182.153 407.21 181.991C407.054 181.829 406.976 181.631 406.976 181.397C406.976 181.175 407.054 180.983 407.21 180.821C407.372 180.659 407.567 180.578 407.795 180.578C408.029 180.578 408.227 180.659 408.389 180.821C408.551 180.983 408.632 181.175 408.632 181.397C408.632 181.631 408.551 181.829 408.389 181.991C408.227 182.153 408.029 182.234 407.795 182.234ZM420.973 182.234C420.121 182.234 419.32 182.066 418.57 181.73C417.82 181.388 417.16 180.917 416.59 180.317C416.02 179.717 415.573 179.024 415.249 178.238C414.925 177.446 414.763 176.6 414.763 175.7C414.763 174.8 414.925 173.957 415.249 173.171C415.573 172.379 416.02 171.683 416.59 171.083C417.16 170.483 417.82 170.015 418.57 169.679C419.32 169.337 420.121 169.166 420.973 169.166C421.831 169.166 422.635 169.337 423.385 169.679C424.135 170.015 424.795 170.483 425.365 171.083C425.935 171.683 426.379 172.379 426.697 173.171C427.021 173.957 427.183 174.8 427.183 175.7C427.183 176.6 427.021 177.446 426.697 178.238C426.379 179.024 425.935 179.717 425.365 180.317C424.795 180.917 424.135 181.388 423.385 181.73C422.635 182.066 421.831 182.234 420.973 182.234ZM420.973 180.722C421.627 180.722 422.236 180.59 422.8 180.326C423.37 180.062 423.868 179.699 424.294 179.237C424.726 178.769 425.062 178.235 425.302 177.635C425.548 177.029 425.671 176.384 425.671 175.7C425.671 175.016 425.548 174.371 425.302 173.765C425.056 173.153 424.717 172.619 424.285 172.163C423.859 171.701 423.361 171.338 422.791 171.074C422.227 170.81 421.621 170.678 420.973 170.678C420.319 170.678 419.707 170.81 419.137 171.074C418.573 171.338 418.075 171.704 417.643 172.172C417.217 172.634 416.881 173.168 416.635 173.774C416.395 174.374 416.275 175.016 416.275 175.7C416.275 176.39 416.398 177.038 416.644 177.644C416.89 178.25 417.226 178.784 417.652 179.246C418.084 179.708 418.582 180.071 419.146 180.335C419.716 180.593 420.325 180.722 420.973 180.722ZM428.456 178.58V173H429.968V178.247C429.968 178.703 430.079 179.117 430.301 179.489C430.523 179.861 430.82 180.158 431.192 180.38C431.57 180.596 431.984 180.704 432.434 180.704C432.89 180.704 433.301 180.596 433.667 180.38C434.039 180.158 434.336 179.861 434.558 179.489C434.78 179.117 434.891 178.703 434.891 178.247V173H436.403L436.412 182H434.9L434.891 180.857C434.573 181.277 434.171 181.613 433.685 181.865C433.199 182.111 432.674 182.234 432.11 182.234C431.438 182.234 430.823 182.072 430.265 181.748C429.713 181.418 429.272 180.977 428.942 180.425C428.618 179.873 428.456 179.258 428.456 178.58ZM438.221 182V173H439.733V174.125C440.051 173.705 440.453 173.372 440.939 173.126C441.425 172.874 441.953 172.748 442.523 172.748C442.871 172.748 443.207 172.793 443.531 172.883L442.919 174.395C442.673 174.317 442.433 174.278 442.199 174.278C441.749 174.278 441.335 174.389 440.957 174.611C440.585 174.827 440.288 175.121 440.066 175.493C439.844 175.865 439.733 176.279 439.733 176.735V182H438.221ZM53.123 197.777V200H55.76V201.512H53.123V209H51.611V201.512H50.45V200H51.611V197.777C51.611 197.315 51.722 196.898 51.944 196.526C52.172 196.148 52.475 195.848 52.853 195.626C53.237 195.398 53.657 195.284 54.113 195.284C54.449 195.284 54.776 195.353 55.094 195.491C55.412 195.623 55.694 195.821 55.94 196.085L54.86 197.156C54.776 197.042 54.665 196.955 54.527 196.895C54.395 196.829 54.257 196.796 54.113 196.796C53.843 196.796 53.609 196.892 53.411 197.084C53.219 197.276 53.123 197.507 53.123 197.777ZM57.1445 200H58.6565V209H57.1445V200ZM57.9185 198.533C57.6785 198.533 57.4775 198.455 57.3155 198.299C57.1535 198.143 57.0725 197.948 57.0725 197.714C57.0725 197.48 57.1535 197.285 57.3155 197.129C57.4775 196.973 57.6755 196.895 57.9095 196.895C58.1435 196.895 58.3415 196.973 58.5035 197.129C58.6655 197.285 58.7465 197.48 58.7465 197.714C58.7465 197.948 58.6655 198.143 58.5035 198.299C58.3475 198.455 58.1525 198.533 57.9185 198.533ZM68.7391 203.402V209H67.2271V203.735C67.2271 203.279 67.1161 202.865 66.8941 202.493C66.6721 202.121 66.3751 201.827 66.0031 201.611C65.6311 201.389 65.2171 201.278 64.7611 201.278C64.3111 201.278 63.8971 201.389 63.5191 201.611C63.1471 201.827 62.8501 202.121 62.6281 202.493C62.4061 202.865 62.2951 203.279 62.2951 203.735V209H60.7831V200H62.2951V201.125C62.6131 200.705 63.0151 200.372 63.5011 200.126C63.9871 199.874 64.5151 199.748 65.0851 199.748C65.7571 199.748 66.3691 199.913 66.9211 200.243C67.4791 200.567 67.9201 201.005 68.2441 201.557C68.5741 202.109 68.7391 202.724 68.7391 203.402ZM77.5992 200H79.1112V209H77.5992L77.5362 207.479C77.2542 208.001 76.8642 208.424 76.3662 208.748C75.8742 209.072 75.2862 209.234 74.6022 209.234C73.9422 209.234 73.3242 209.111 72.7482 208.865C72.1722 208.613 71.6622 208.268 71.2182 207.83C70.7802 207.386 70.4382 206.876 70.1922 206.3C69.9462 205.724 69.8232 205.103 69.8232 204.437C69.8232 203.795 69.9432 203.189 70.1832 202.619C70.4232 202.049 70.7562 201.551 71.1822 201.125C71.6142 200.693 72.1122 200.357 72.6762 200.117C73.2402 199.871 73.8462 199.748 74.4942 199.748C75.2022 199.748 75.8232 199.916 76.3572 200.252C76.8912 200.582 77.3232 201.011 77.6532 201.539L77.5992 200ZM74.5752 207.767C75.1692 207.767 75.6822 207.623 76.1142 207.335C76.5522 207.041 76.8882 206.645 77.1222 206.147C77.3622 205.649 77.4822 205.1 77.4822 204.5C77.4822 203.888 77.3622 203.336 77.1222 202.844C76.8822 202.346 76.5432 201.953 76.1052 201.665C75.6732 201.371 75.1632 201.224 74.5752 201.224C73.9812 201.224 73.4412 201.371 72.9552 201.665C72.4692 201.959 72.0822 202.355 71.7942 202.853C71.5122 203.345 71.3712 203.894 71.3712 204.5C71.3712 205.106 71.5182 205.658 71.8122 206.156C72.1062 206.648 72.4962 207.041 72.9822 207.335C73.4682 207.623 73.9992 207.767 74.5752 207.767ZM88.8661 203.402V209H87.3541V203.735C87.3541 203.279 87.2431 202.865 87.0211 202.493C86.7991 202.121 86.5021 201.827 86.1301 201.611C85.7581 201.389 85.3441 201.278 84.8881 201.278C84.4381 201.278 84.0241 201.389 83.6461 201.611C83.2741 201.827 82.9771 202.121 82.7551 202.493C82.5331 202.865 82.4221 203.279 82.4221 203.735V209H80.9101V200H82.4221V201.125C82.7401 200.705 83.1421 200.372 83.6281 200.126C84.1141 199.874 84.6421 199.748 85.2121 199.748C85.8841 199.748 86.4961 199.913 87.0481 200.243C87.6061 200.567 88.0471 201.005 88.3711 201.557C88.7011 202.109 88.8661 202.724 88.8661 203.402ZM96.6912 206.624L98.0412 207.353C97.6332 207.923 97.1142 208.379 96.4842 208.721C95.8602 209.063 95.1822 209.234 94.4502 209.234C93.6222 209.234 92.8662 209.021 92.1822 208.595C91.5042 208.169 90.9612 207.599 90.5532 206.885C90.1512 206.165 89.9502 205.37 89.9502 204.5C89.9502 203.84 90.0672 203.225 90.3012 202.655C90.5352 202.079 90.8562 201.575 91.2642 201.143C91.6782 200.705 92.1582 200.363 92.7042 200.117C93.2502 199.871 93.8322 199.748 94.4502 199.748C95.1822 199.748 95.8602 199.919 96.4842 200.261C97.1142 200.603 97.6332 201.062 98.0412 201.638L96.6912 202.367C96.4032 202.013 96.0612 201.74 95.6652 201.548C95.2692 201.356 94.8642 201.26 94.4502 201.26C93.8922 201.26 93.3852 201.41 92.9292 201.71C92.4792 202.004 92.1222 202.397 91.8582 202.889C91.5942 203.381 91.4622 203.918 91.4622 204.5C91.4622 205.082 91.5942 205.619 91.8582 206.111C92.1282 206.597 92.4882 206.987 92.9382 207.281C93.3942 207.575 93.8982 207.722 94.4502 207.722C94.8942 207.722 95.3112 207.62 95.7012 207.416C96.0912 207.212 96.4212 206.948 96.6912 206.624ZM99.455 200H100.967V209H99.455V200ZM100.229 198.533C99.989 198.533 99.788 198.455 99.626 198.299C99.464 198.143 99.383 197.948 99.383 197.714C99.383 197.48 99.464 197.285 99.626 197.129C99.788 196.973 99.986 196.895 100.22 196.895C100.454 196.895 100.652 196.973 100.814 197.129C100.976 197.285 101.057 197.48 101.057 197.714C101.057 197.948 100.976 198.143 100.814 198.299C100.658 198.455 100.463 198.533 100.229 198.533ZM110.242 200H111.754V209H110.242L110.179 207.479C109.897 208.001 109.507 208.424 109.009 208.748C108.517 209.072 107.929 209.234 107.245 209.234C106.585 209.234 105.967 209.111 105.391 208.865C104.815 208.613 104.305 208.268 103.861 207.83C103.423 207.386 103.081 206.876 102.835 206.3C102.589 205.724 102.466 205.103 102.466 204.437C102.466 203.795 102.586 203.189 102.826 202.619C103.066 202.049 103.399 201.551 103.825 201.125C104.257 200.693 104.755 200.357 105.319 200.117C105.883 199.871 106.489 199.748 107.137 199.748C107.845 199.748 108.466 199.916 109 200.252C109.534 200.582 109.966 201.011 110.296 201.539L110.242 200ZM107.218 207.767C107.812 207.767 108.325 207.623 108.757 207.335C109.195 207.041 109.531 206.645 109.765 206.147C110.005 205.649 110.125 205.1 110.125 204.5C110.125 203.888 110.005 203.336 109.765 202.844C109.525 202.346 109.186 201.953 108.748 201.665C108.316 201.371 107.806 201.224 107.218 201.224C106.624 201.224 106.084 201.371 105.598 201.665C105.112 201.959 104.725 202.355 104.437 202.853C104.155 203.345 104.014 203.894 104.014 204.5C104.014 205.106 104.161 205.658 104.455 206.156C104.749 206.648 105.139 207.041 105.625 207.335C106.111 207.623 106.642 207.767 107.218 207.767ZM113.658 209V195.5H115.17V209H113.658ZM125.616 209.234C124.788 209.234 124.032 209.021 123.348 208.595C122.67 208.169 122.127 207.599 121.719 206.885C121.317 206.165 121.116 205.37 121.116 204.5C121.116 203.84 121.233 203.225 121.467 202.655C121.701 202.079 122.022 201.575 122.43 201.143C122.844 200.705 123.324 200.363 123.87 200.117C124.416 199.871 124.998 199.748 125.616 199.748C126.294 199.748 126.915 199.886 127.479 200.162C128.049 200.432 128.535 200.81 128.937 201.296C129.345 201.782 129.648 202.346 129.846 202.988C130.05 203.63 130.125 204.317 130.071 205.049H122.727C122.799 205.559 122.967 206.015 123.231 206.417C123.495 206.813 123.831 207.128 124.239 207.362C124.653 207.596 125.112 207.716 125.616 207.722C126.156 207.722 126.645 207.584 127.083 207.308C127.521 207.026 127.875 206.642 128.145 206.156L129.684 206.516C129.324 207.314 128.781 207.968 128.055 208.478C127.329 208.982 126.516 209.234 125.616 209.234ZM122.682 203.861H128.55C128.502 203.357 128.34 202.898 128.064 202.484C127.788 202.064 127.437 201.728 127.011 201.476C126.585 201.224 126.12 201.098 125.616 201.098C125.112 201.098 124.65 201.221 124.23 201.467C123.81 201.713 123.462 202.046 123.186 202.466C122.916 202.88 122.748 203.345 122.682 203.861ZM130.56 209L133.854 204.482L130.578 199.982H132.441L134.79 203.186L137.13 199.982H138.993L135.717 204.482L139.011 209H137.148L134.79 205.76L132.423 209H130.56ZM142.082 213.5H140.57V200H142.082V201.539C142.388 201.011 142.796 200.585 143.306 200.261C143.816 199.931 144.422 199.766 145.124 199.766C145.778 199.766 146.39 199.889 146.96 200.135C147.536 200.381 148.04 200.723 148.472 201.161C148.904 201.593 149.243 202.094 149.489 202.664C149.735 203.234 149.858 203.846 149.858 204.5C149.858 205.154 149.735 205.769 149.489 206.345C149.243 206.921 148.904 207.428 148.472 207.866C148.04 208.298 147.536 208.637 146.96 208.883C146.39 209.129 145.778 209.252 145.124 209.252C144.422 209.252 143.816 209.09 143.306 208.766C142.796 208.436 142.388 208.007 142.082 207.479V213.5ZM145.106 201.233C144.524 201.233 144.014 201.38 143.576 201.674C143.138 201.968 142.799 202.361 142.559 202.853C142.325 203.345 142.208 203.894 142.208 204.5C142.208 205.1 142.325 205.649 142.559 206.147C142.799 206.645 143.135 207.041 143.567 207.335C144.005 207.629 144.518 207.776 145.106 207.776C145.688 207.776 146.222 207.632 146.708 207.344C147.194 207.05 147.584 206.657 147.878 206.165C148.172 205.667 148.319 205.112 148.319 204.5C148.319 203.9 148.175 203.354 147.887 202.862C147.599 202.364 147.212 201.968 146.726 201.674C146.24 201.38 145.7 201.233 145.106 201.233ZM155.27 209.234C154.442 209.234 153.686 209.021 153.002 208.595C152.324 208.169 151.781 207.599 151.373 206.885C150.971 206.165 150.77 205.37 150.77 204.5C150.77 203.84 150.887 203.225 151.121 202.655C151.355 202.079 151.676 201.575 152.084 201.143C152.498 200.705 152.978 200.363 153.524 200.117C154.07 199.871 154.652 199.748 155.27 199.748C155.948 199.748 156.569 199.886 157.133 200.162C157.703 200.432 158.189 200.81 158.591 201.296C158.999 201.782 159.302 202.346 159.5 202.988C159.704 203.63 159.779 204.317 159.725 205.049H152.381C152.453 205.559 152.621 206.015 152.885 206.417C153.149 206.813 153.485 207.128 153.893 207.362C154.307 207.596 154.766 207.716 155.27 207.722C155.81 207.722 156.299 207.584 156.737 207.308C157.175 207.026 157.529 206.642 157.799 206.156L159.338 206.516C158.978 207.314 158.435 207.968 157.709 208.478C156.983 208.982 156.17 209.234 155.27 209.234ZM152.336 203.861H158.204C158.156 203.357 157.994 202.898 157.718 202.484C157.442 202.064 157.091 201.728 156.665 201.476C156.239 201.224 155.774 201.098 155.27 201.098C154.766 201.098 154.304 201.221 153.884 201.467C153.464 201.713 153.116 202.046 152.84 202.466C152.57 202.88 152.402 203.345 152.336 203.861ZM161.242 209V200H162.754V201.125C163.072 200.705 163.474 200.372 163.96 200.126C164.446 199.874 164.974 199.748 165.544 199.748C165.892 199.748 166.228 199.793 166.552 199.883L165.94 201.395C165.694 201.317 165.454 201.278 165.22 201.278C164.77 201.278 164.356 201.389 163.978 201.611C163.606 201.827 163.309 202.121 163.087 202.493C162.865 202.865 162.754 203.279 162.754 203.735V209H161.242ZM172.478 201.512H170.435L170.426 209H168.914L168.923 201.512H167.375V200H168.923L168.914 197.174H170.426L170.435 200H172.478V201.512ZM176.749 209.171C176.263 209.153 175.789 209.063 175.327 208.901C174.871 208.733 174.469 208.508 174.121 208.226C173.779 207.938 173.53 207.608 173.374 207.236L174.67 206.678C174.76 206.882 174.922 207.074 175.156 207.254C175.39 207.434 175.66 207.578 175.966 207.686C176.272 207.794 176.581 207.848 176.893 207.848C177.223 207.848 177.532 207.797 177.82 207.695C178.108 207.593 178.342 207.443 178.522 207.245C178.708 207.041 178.801 206.798 178.801 206.516C178.801 206.216 178.699 205.982 178.495 205.814C178.297 205.64 178.045 205.505 177.739 205.409C177.439 205.307 177.133 205.211 176.821 205.121C176.203 204.965 175.651 204.779 175.165 204.563C174.679 204.341 174.295 204.062 174.013 203.726C173.737 203.384 173.599 202.949 173.599 202.421C173.599 201.863 173.752 201.38 174.058 200.972C174.37 200.564 174.778 200.249 175.282 200.027C175.786 199.805 176.326 199.694 176.902 199.694C177.628 199.694 178.291 199.85 178.891 200.162C179.491 200.474 179.938 200.897 180.232 201.431L179.017 202.142C178.915 201.926 178.759 201.737 178.549 201.575C178.339 201.407 178.099 201.275 177.829 201.179C177.559 201.083 177.283 201.032 177.001 201.026C176.653 201.014 176.326 201.059 176.02 201.161C175.72 201.263 175.477 201.419 175.291 201.629C175.111 201.833 175.021 202.088 175.021 202.394C175.021 202.694 175.117 202.922 175.309 203.078C175.507 203.234 175.762 203.36 176.074 203.456C176.392 203.546 176.737 203.651 177.109 203.771C177.655 203.945 178.165 204.146 178.639 204.374C179.113 204.602 179.494 204.887 179.782 205.229C180.076 205.571 180.22 205.994 180.214 206.498C180.214 207.05 180.049 207.533 179.719 207.947C179.389 208.355 178.96 208.667 178.432 208.883C177.91 209.099 177.349 209.195 176.749 209.171ZM190.742 201.512H188.699L188.69 209H187.178L187.187 201.512H185.639V200H187.187L187.178 197.174H188.69L188.699 200H190.742V201.512ZM199.363 200H200.875V209H199.363L199.3 207.479C199.018 208.001 198.628 208.424 198.13 208.748C197.638 209.072 197.05 209.234 196.366 209.234C195.706 209.234 195.088 209.111 194.512 208.865C193.936 208.613 193.426 208.268 192.982 207.83C192.544 207.386 192.202 206.876 191.956 206.3C191.71 205.724 191.587 205.103 191.587 204.437C191.587 203.795 191.707 203.189 191.947 202.619C192.187 202.049 192.52 201.551 192.946 201.125C193.378 200.693 193.876 200.357 194.44 200.117C195.004 199.871 195.61 199.748 196.258 199.748C196.966 199.748 197.587 199.916 198.121 200.252C198.655 200.582 199.087 201.011 199.417 201.539L199.363 200ZM196.339 207.767C196.933 207.767 197.446 207.623 197.878 207.335C198.316 207.041 198.652 206.645 198.886 206.147C199.126 205.649 199.246 205.1 199.246 204.5C199.246 203.888 199.126 203.336 198.886 202.844C198.646 202.346 198.307 201.953 197.869 201.665C197.437 201.371 196.927 201.224 196.339 201.224C195.745 201.224 195.205 201.371 194.719 201.665C194.233 201.959 193.846 202.355 193.558 202.853C193.276 203.345 193.135 203.894 193.135 204.5C193.135 205.106 193.282 205.658 193.576 206.156C193.87 206.648 194.26 207.041 194.746 207.335C195.232 207.623 195.763 207.767 196.339 207.767ZM210.078 209H208.341L205.947 204.869L204.291 206.849V209H202.779V195.5H204.291V204.5L208.062 200H210.033L206.973 203.645L210.078 209ZM215.089 209.234C214.261 209.234 213.505 209.021 212.821 208.595C212.143 208.169 211.6 207.599 211.192 206.885C210.79 206.165 210.589 205.37 210.589 204.5C210.589 203.84 210.706 203.225 210.94 202.655C211.174 202.079 211.495 201.575 211.903 201.143C212.317 200.705 212.797 200.363 213.343 200.117C213.889 199.871 214.471 199.748 215.089 199.748C215.767 199.748 216.388 199.886 216.952 200.162C217.522 200.432 218.008 200.81 218.41 201.296C218.818 201.782 219.121 202.346 219.319 202.988C219.523 203.63 219.598 204.317 219.544 205.049H212.2C212.272 205.559 212.44 206.015 212.704 206.417C212.968 206.813 213.304 207.128 213.712 207.362C214.126 207.596 214.585 207.716 215.089 207.722C215.629 207.722 216.118 207.584 216.556 207.308C216.994 207.026 217.348 206.642 217.618 206.156L219.157 206.516C218.797 207.314 218.254 207.968 217.528 208.478C216.802 208.982 215.989 209.234 215.089 209.234ZM212.155 203.861H218.023C217.975 203.357 217.813 202.898 217.537 202.484C217.261 202.064 216.91 201.728 216.484 201.476C216.058 201.224 215.593 201.098 215.089 201.098C214.585 201.098 214.123 201.221 213.703 201.467C213.283 201.713 212.935 202.046 212.659 202.466C212.389 202.88 212.221 203.345 212.155 203.861ZM231.709 206.624L233.059 207.353C232.651 207.923 232.132 208.379 231.502 208.721C230.878 209.063 230.2 209.234 229.468 209.234C228.64 209.234 227.884 209.021 227.2 208.595C226.522 208.169 225.979 207.599 225.571 206.885C225.169 206.165 224.968 205.37 224.968 204.5C224.968 203.84 225.085 203.225 225.319 202.655C225.553 202.079 225.874 201.575 226.282 201.143C226.696 200.705 227.176 200.363 227.722 200.117C228.268 199.871 228.85 199.748 229.468 199.748C230.2 199.748 230.878 199.919 231.502 200.261C232.132 200.603 232.651 201.062 233.059 201.638L231.709 202.367C231.421 202.013 231.079 201.74 230.683 201.548C230.287 201.356 229.882 201.26 229.468 201.26C228.91 201.26 228.403 201.41 227.947 201.71C227.497 202.004 227.14 202.397 226.876 202.889C226.612 203.381 226.48 203.918 226.48 204.5C226.48 205.082 226.612 205.619 226.876 206.111C227.146 206.597 227.506 206.987 227.956 207.281C228.412 207.575 228.916 207.722 229.468 207.722C229.912 207.722 230.329 207.62 230.719 207.416C231.109 207.212 231.439 206.948 231.709 206.624ZM241.761 200H243.273V209H241.761L241.698 207.479C241.416 208.001 241.026 208.424 240.528 208.748C240.036 209.072 239.448 209.234 238.764 209.234C238.104 209.234 237.486 209.111 236.91 208.865C236.334 208.613 235.824 208.268 235.38 207.83C234.942 207.386 234.6 206.876 234.354 206.3C234.108 205.724 233.985 205.103 233.985 204.437C233.985 203.795 234.105 203.189 234.345 202.619C234.585 202.049 234.918 201.551 235.344 201.125C235.776 200.693 236.274 200.357 236.838 200.117C237.402 199.871 238.008 199.748 238.656 199.748C239.364 199.748 239.985 199.916 240.519 200.252C241.053 200.582 241.485 201.011 241.815 201.539L241.761 200ZM238.737 207.767C239.331 207.767 239.844 207.623 240.276 207.335C240.714 207.041 241.05 206.645 241.284 206.147C241.524 205.649 241.644 205.1 241.644 204.5C241.644 203.888 241.524 203.336 241.284 202.844C241.044 202.346 240.705 201.953 240.267 201.665C239.835 201.371 239.325 201.224 238.737 201.224C238.143 201.224 237.603 201.371 237.117 201.665C236.631 201.959 236.244 202.355 235.956 202.853C235.674 203.345 235.533 203.894 235.533 204.5C235.533 205.106 235.68 205.658 235.974 206.156C236.268 206.648 236.658 207.041 237.144 207.335C237.63 207.623 238.161 207.767 238.737 207.767ZM245.072 209V200H246.584V201.125C246.902 200.705 247.304 200.372 247.79 200.126C248.276 199.874 248.804 199.748 249.374 199.748C249.722 199.748 250.058 199.793 250.382 199.883L249.77 201.395C249.524 201.317 249.284 201.278 249.05 201.278C248.6 201.278 248.186 201.389 247.808 201.611C247.436 201.827 247.139 202.121 246.917 202.493C246.695 202.865 246.584 203.279 246.584 203.735V209H245.072ZM254.991 209.234C254.163 209.234 253.407 209.021 252.723 208.595C252.045 208.169 251.502 207.599 251.094 206.885C250.692 206.165 250.491 205.37 250.491 204.5C250.491 203.84 250.608 203.225 250.842 202.655C251.076 202.079 251.397 201.575 251.805 201.143C252.219 200.705 252.699 200.363 253.245 200.117C253.791 199.871 254.373 199.748 254.991 199.748C255.669 199.748 256.29 199.886 256.854 200.162C257.424 200.432 257.91 200.81 258.312 201.296C258.72 201.782 259.023 202.346 259.221 202.988C259.425 203.63 259.5 204.317 259.446 205.049H252.102C252.174 205.559 252.342 206.015 252.606 206.417C252.87 206.813 253.206 207.128 253.614 207.362C254.028 207.596 254.487 207.716 254.991 207.722C255.531 207.722 256.02 207.584 256.458 207.308C256.896 207.026 257.25 206.642 257.52 206.156L259.059 206.516C258.699 207.314 258.156 207.968 257.43 208.478C256.704 208.982 255.891 209.234 254.991 209.234ZM252.057 203.861H257.925C257.877 203.357 257.715 202.898 257.439 202.484C257.163 202.064 256.812 201.728 256.386 201.476C255.96 201.224 255.495 201.098 254.991 201.098C254.487 201.098 254.025 201.221 253.605 201.467C253.185 201.713 252.837 202.046 252.561 202.466C252.291 202.88 252.123 203.345 252.057 203.861ZM269.37 209.234C268.542 209.234 267.786 209.021 267.102 208.595C266.424 208.169 265.881 207.599 265.473 206.885C265.071 206.165 264.87 205.37 264.87 204.5C264.87 203.84 264.987 203.225 265.221 202.655C265.455 202.079 265.776 201.575 266.184 201.143C266.598 200.705 267.078 200.363 267.624 200.117C268.17 199.871 268.752 199.748 269.37 199.748C270.198 199.748 270.951 199.961 271.629 200.387C272.313 200.813 272.856 201.386 273.258 202.106C273.666 202.826 273.87 203.624 273.87 204.5C273.87 205.154 273.753 205.766 273.519 206.336C273.285 206.906 272.961 207.41 272.547 207.848C272.139 208.28 271.662 208.619 271.116 208.865C270.576 209.111 269.994 209.234 269.37 209.234ZM269.37 207.722C269.934 207.722 270.441 207.575 270.891 207.281C271.347 206.981 271.704 206.588 271.962 206.102C272.226 205.61 272.358 205.076 272.358 204.5C272.358 203.912 272.223 203.372 271.953 202.88C271.689 202.388 271.332 201.995 270.882 201.701C270.432 201.407 269.928 201.26 269.37 201.26C268.806 201.26 268.299 201.41 267.849 201.71C267.399 202.004 267.042 202.397 266.778 202.889C266.514 203.381 266.382 203.918 266.382 204.5C266.382 205.1 266.517 205.646 266.787 206.138C267.057 206.624 267.42 207.011 267.876 207.299C268.332 207.581 268.83 207.722 269.37 207.722ZM277.525 197.777V200H280.162V201.512H277.525V209H276.013V201.512H274.852V200H276.013V197.777C276.013 197.315 276.124 196.898 276.346 196.526C276.574 196.148 276.877 195.848 277.255 195.626C277.639 195.398 278.059 195.284 278.515 195.284C278.851 195.284 279.178 195.353 279.496 195.491C279.814 195.623 280.096 195.821 280.342 196.085L279.262 197.156C279.178 197.042 279.067 196.955 278.929 196.895C278.797 196.829 278.659 196.796 278.515 196.796C278.245 196.796 278.011 196.892 277.813 197.084C277.621 197.276 277.525 197.507 277.525 197.777ZM285.959 209V200H287.471V201.125C287.789 200.705 288.191 200.372 288.677 200.126C289.163 199.874 289.691 199.748 290.261 199.748C290.609 199.748 290.945 199.793 291.269 199.883L290.657 201.395C290.411 201.317 290.171 201.278 289.937 201.278C289.487 201.278 289.073 201.389 288.695 201.611C288.323 201.827 288.026 202.121 287.804 202.493C287.582 202.865 287.471 203.279 287.471 203.735V209H285.959ZM295.878 209.234C295.05 209.234 294.294 209.021 293.61 208.595C292.932 208.169 292.389 207.599 291.981 206.885C291.579 206.165 291.378 205.37 291.378 204.5C291.378 203.84 291.495 203.225 291.729 202.655C291.963 202.079 292.284 201.575 292.692 201.143C293.106 200.705 293.586 200.363 294.132 200.117C294.678 199.871 295.26 199.748 295.878 199.748C296.556 199.748 297.177 199.886 297.741 200.162C298.311 200.432 298.797 200.81 299.199 201.296C299.607 201.782 299.91 202.346 300.108 202.988C300.312 203.63 300.387 204.317 300.333 205.049H292.989C293.061 205.559 293.229 206.015 293.493 206.417C293.757 206.813 294.093 207.128 294.501 207.362C294.915 207.596 295.374 207.716 295.878 207.722C296.418 207.722 296.907 207.584 297.345 207.308C297.783 207.026 298.137 206.642 298.407 206.156L299.946 206.516C299.586 207.314 299.043 207.968 298.317 208.478C297.591 208.982 296.778 209.234 295.878 209.234ZM292.944 203.861H298.812C298.764 203.357 298.602 202.898 298.326 202.484C298.05 202.064 297.699 201.728 297.273 201.476C296.847 201.224 296.382 201.098 295.878 201.098C295.374 201.098 294.912 201.221 294.492 201.467C294.072 201.713 293.724 202.046 293.448 202.466C293.178 202.88 293.01 203.345 292.944 203.861ZM309.806 203.402V209H308.294V203.735C308.294 203.279 308.183 202.865 307.961 202.493C307.739 202.121 307.442 201.827 307.07 201.611C306.698 201.389 306.284 201.278 305.828 201.278C305.378 201.278 304.964 201.389 304.586 201.611C304.214 201.827 303.917 202.121 303.695 202.493C303.473 202.865 303.362 203.279 303.362 203.735V209H301.85V200H303.362V201.125C303.68 200.705 304.082 200.372 304.568 200.126C305.054 199.874 305.582 199.748 306.152 199.748C306.824 199.748 307.436 199.913 307.988 200.243C308.546 200.567 308.987 201.005 309.311 201.557C309.641 202.109 309.806 202.724 309.806 203.402ZM316.267 201.512H314.224L314.215 209H312.703L312.712 201.512H311.164V200H312.712L312.703 197.174H314.215L314.224 200H316.267V201.512ZM328.406 206.624L329.756 207.353C329.348 207.923 328.829 208.379 328.199 208.721C327.575 209.063 326.897 209.234 326.165 209.234C325.337 209.234 324.581 209.021 323.897 208.595C323.219 208.169 322.676 207.599 322.268 206.885C321.866 206.165 321.665 205.37 321.665 204.5C321.665 203.84 321.782 203.225 322.016 202.655C322.25 202.079 322.571 201.575 322.979 201.143C323.393 200.705 323.873 200.363 324.419 200.117C324.965 199.871 325.547 199.748 326.165 199.748C326.897 199.748 327.575 199.919 328.199 200.261C328.829 200.603 329.348 201.062 329.756 201.638L328.406 202.367C328.118 202.013 327.776 201.74 327.38 201.548C326.984 201.356 326.579 201.26 326.165 201.26C325.607 201.26 325.1 201.41 324.644 201.71C324.194 202.004 323.837 202.397 323.573 202.889C323.309 203.381 323.177 203.918 323.177 204.5C323.177 205.082 323.309 205.619 323.573 206.111C323.843 206.597 324.203 206.987 324.653 207.281C325.109 207.575 325.613 207.722 326.165 207.722C326.609 207.722 327.026 207.62 327.416 207.416C327.806 207.212 328.136 206.948 328.406 206.624ZM335.183 209.234C334.355 209.234 333.599 209.021 332.915 208.595C332.237 208.169 331.694 207.599 331.286 206.885C330.884 206.165 330.683 205.37 330.683 204.5C330.683 203.84 330.8 203.225 331.034 202.655C331.268 202.079 331.589 201.575 331.997 201.143C332.411 200.705 332.891 200.363 333.437 200.117C333.983 199.871 334.565 199.748 335.183 199.748C336.011 199.748 336.764 199.961 337.442 200.387C338.126 200.813 338.669 201.386 339.071 202.106C339.479 202.826 339.683 203.624 339.683 204.5C339.683 205.154 339.566 205.766 339.332 206.336C339.098 206.906 338.774 207.41 338.36 207.848C337.952 208.28 337.475 208.619 336.929 208.865C336.389 209.111 335.807 209.234 335.183 209.234ZM335.183 207.722C335.747 207.722 336.254 207.575 336.704 207.281C337.16 206.981 337.517 206.588 337.775 206.102C338.039 205.61 338.171 205.076 338.171 204.5C338.171 203.912 338.036 203.372 337.766 202.88C337.502 202.388 337.145 201.995 336.695 201.701C336.245 201.407 335.741 201.26 335.183 201.26C334.619 201.26 334.112 201.41 333.662 201.71C333.212 202.004 332.855 202.397 332.591 202.889C332.327 203.381 332.195 203.918 332.195 204.5C332.195 205.1 332.33 205.646 332.6 206.138C332.87 206.624 333.233 207.011 333.689 207.299C334.145 207.581 334.643 207.722 335.183 207.722ZM341.084 209V195.5H342.596V209H341.084ZM344.758 209V195.5H346.27V209H344.758ZM352.304 209.234C351.476 209.234 350.72 209.021 350.036 208.595C349.358 208.169 348.815 207.599 348.407 206.885C348.005 206.165 347.804 205.37 347.804 204.5C347.804 203.84 347.921 203.225 348.155 202.655C348.389 202.079 348.71 201.575 349.118 201.143C349.532 200.705 350.012 200.363 350.558 200.117C351.104 199.871 351.686 199.748 352.304 199.748C352.982 199.748 353.603 199.886 354.167 200.162C354.737 200.432 355.223 200.81 355.625 201.296C356.033 201.782 356.336 202.346 356.534 202.988C356.738 203.63 356.813 204.317 356.759 205.049H349.415C349.487 205.559 349.655 206.015 349.919 206.417C350.183 206.813 350.519 207.128 350.927 207.362C351.341 207.596 351.8 207.716 352.304 207.722C352.844 207.722 353.333 207.584 353.771 207.308C354.209 207.026 354.563 206.642 354.833 206.156L356.372 206.516C356.012 207.314 355.469 207.968 354.743 208.478C354.017 208.982 353.204 209.234 352.304 209.234ZM349.37 203.861H355.238C355.19 203.357 355.028 202.898 354.752 202.484C354.476 202.064 354.125 201.728 353.699 201.476C353.273 201.224 352.808 201.098 352.304 201.098C351.8 201.098 351.338 201.221 350.918 201.467C350.498 201.713 350.15 202.046 349.874 202.466C349.604 202.88 349.436 203.345 349.37 203.861ZM364.424 206.624L365.774 207.353C365.366 207.923 364.847 208.379 364.217 208.721C363.593 209.063 362.915 209.234 362.183 209.234C361.355 209.234 360.599 209.021 359.915 208.595C359.237 208.169 358.694 207.599 358.286 206.885C357.884 206.165 357.683 205.37 357.683 204.5C357.683 203.84 357.8 203.225 358.034 202.655C358.268 202.079 358.589 201.575 358.997 201.143C359.411 200.705 359.891 200.363 360.437 200.117C360.983 199.871 361.565 199.748 362.183 199.748C362.915 199.748 363.593 199.919 364.217 200.261C364.847 200.603 365.366 201.062 365.774 201.638L364.424 202.367C364.136 202.013 363.794 201.74 363.398 201.548C363.002 201.356 362.597 201.26 362.183 201.26C361.625 201.26 361.118 201.41 360.662 201.71C360.212 202.004 359.855 202.397 359.591 202.889C359.327 203.381 359.195 203.918 359.195 204.5C359.195 205.082 359.327 205.619 359.591 206.111C359.861 206.597 360.221 206.987 360.671 207.281C361.127 207.575 361.631 207.722 362.183 207.722C362.627 207.722 363.044 207.62 363.434 207.416C363.824 207.212 364.154 206.948 364.424 206.624ZM372.06 201.512H370.017L370.008 209H368.496L368.505 201.512H366.957V200H368.505L368.496 197.174H370.008L370.017 200H372.06V201.512ZM373.586 200H375.098V209H373.586V200ZM374.36 198.533C374.12 198.533 373.919 198.455 373.757 198.299C373.595 198.143 373.514 197.948 373.514 197.714C373.514 197.48 373.595 197.285 373.757 197.129C373.919 196.973 374.117 196.895 374.351 196.895C374.585 196.895 374.783 196.973 374.945 197.129C375.107 197.285 375.188 197.48 375.188 197.714C375.188 197.948 375.107 198.143 374.945 198.299C374.789 198.455 374.594 198.533 374.36 198.533ZM381.097 209.234C380.269 209.234 379.513 209.021 378.829 208.595C378.151 208.169 377.608 207.599 377.2 206.885C376.798 206.165 376.597 205.37 376.597 204.5C376.597 203.84 376.714 203.225 376.948 202.655C377.182 202.079 377.503 201.575 377.911 201.143C378.325 200.705 378.805 200.363 379.351 200.117C379.897 199.871 380.479 199.748 381.097 199.748C381.925 199.748 382.678 199.961 383.356 200.387C384.04 200.813 384.583 201.386 384.985 202.106C385.393 202.826 385.597 203.624 385.597 204.5C385.597 205.154 385.48 205.766 385.246 206.336C385.012 206.906 384.688 207.41 384.274 207.848C383.866 208.28 383.389 208.619 382.843 208.865C382.303 209.111 381.721 209.234 381.097 209.234ZM381.097 207.722C381.661 207.722 382.168 207.575 382.618 207.281C383.074 206.981 383.431 206.588 383.689 206.102C383.953 205.61 384.085 205.076 384.085 204.5C384.085 203.912 383.95 203.372 383.68 202.88C383.416 202.388 383.059 201.995 382.609 201.701C382.159 201.407 381.655 201.26 381.097 201.26C380.533 201.26 380.026 201.41 379.576 201.71C379.126 202.004 378.769 202.397 378.505 202.889C378.241 203.381 378.109 203.918 378.109 204.5C378.109 205.1 378.244 205.646 378.514 206.138C378.784 206.624 379.147 207.011 379.603 207.299C380.059 207.581 380.557 207.722 381.097 207.722ZM395.042 203.402V209H393.53V203.735C393.53 203.279 393.419 202.865 393.197 202.493C392.975 202.121 392.678 201.827 392.306 201.611C391.934 201.389 391.52 201.278 391.064 201.278C390.614 201.278 390.2 201.389 389.822 201.611C389.45 201.827 389.153 202.121 388.931 202.493C388.709 202.865 388.598 203.279 388.598 203.735V209H387.086V200H388.598V201.125C388.916 200.705 389.318 200.372 389.804 200.126C390.29 199.874 390.818 199.748 391.388 199.748C392.06 199.748 392.672 199.913 393.224 200.243C393.782 200.567 394.223 201.005 394.547 201.557C394.877 202.109 395.042 202.724 395.042 203.402Z" fill="#999999"></path><defs><linearGradient id="paint0_linear_104_11615" x1="56.75" y1="136.5" x2="135.75" y2="44.5" gradientUnits="userSpaceOnUse"><stop stop-color="#A685FA"></stop><stop offset="0.323723" stop-color="#A685FA" stop-opacity="0"></stop></linearGradient><linearGradient id="paint1_linear_104_11615" x1="131.75" y1="39.5" x2="56.75" y2="132" gradientUnits="userSpaceOnUse"><stop stop-color="#A685FA"></stop><stop offset="0.576615" stop-color="#A685FA" stop-opacity="0"></stop></linearGradient><linearGradient id="paint2_linear_104_11615" x1="53.25" y1="63.5" x2="121.75" y2="122" gradientUnits="userSpaceOnUse"><stop stop-color="#A685FA"></stop><stop offset="0.323723" stop-color="#A685FA" stop-opacity="0"></stop></linearGradient><linearGradient id="paint3_linear_104_11615" x1="134.25" y1="136" x2="62.25" y2="85" gradientUnits="userSpaceOnUse"><stop stop-color="#A685FA"></stop><stop offset="0.576615" stop-color="#A685FA" stop-opacity="0"></stop></linearGradient></defs></svg>