<svg xmlns="http://www.w3.org/2000/svg" width="514" height="266" viewBox="0 0 514 266" fill="none"><rect x="0.5" y="0.5" width="512.667" height="265" rx="11.5" stroke="#262626"></rect><rect x="50.5" y="50.5" width="81" height="81" rx="40.5" stroke="url(#paint0_linear_104_11624)"></rect><rect x="50.5" y="50.5" width="81" height="81" rx="40.5" stroke="url(#paint1_linear_104_11624)"></rect><rect x="60.5" y="60.5" width="61" height="61" rx="30.5" stroke="url(#paint2_linear_104_11624)"></rect><rect x="60.5" y="60.5" width="61" height="61" rx="30.5" stroke="url(#paint3_linear_104_11624)"></rect><path d="M91 77.1875C91.5868 77.1875 92.0625 77.6632 92.0625 78.25V81.4375C92.0625 82.0243 91.5868 82.5 91 82.5C90.4132 82.5 89.9375 82.0243 89.9375 81.4375V78.25C89.9375 77.6632 90.4132 77.1875 91 77.1875Z" fill="#A685FA"></path><path d="M84.625 91C84.625 87.4792 87.4792 84.625 91 84.625C94.5208 84.625 97.375 87.4792 97.375 91C97.375 94.5208 94.5208 97.375 91 97.375C87.4792 97.375 84.625 94.5208 84.625 91Z" fill="#A685FA"></path><path d="M100.767 82.7356C101.182 82.3207 101.182 81.648 100.767 81.233C100.352 80.8181 99.6793 80.8181 99.2644 81.233L97.0105 83.4869C96.5955 83.9019 96.5955 84.5746 97.0105 84.9895C97.4254 85.4045 98.0982 85.4045 98.5131 84.9895L100.767 82.7356Z" fill="#A685FA"></path><path d="M104.812 91C104.812 91.5868 104.337 92.0625 103.75 92.0625H100.562C99.9757 92.0625 99.5 91.5868 99.5 91C99.5 90.4132 99.9757 89.9375 100.562 89.9375H103.75C104.337 89.9375 104.812 90.4132 104.812 91Z" fill="#A685FA"></path><path d="M99.2642 100.767C99.6792 101.182 100.352 101.182 100.767 100.767C101.182 100.352 101.182 99.6792 100.767 99.2643L98.5129 97.0104C98.098 96.5954 97.4253 96.5954 97.0103 97.0104C96.5954 97.4253 96.5954 98.098 97.0103 98.513L99.2642 100.767Z" fill="#A685FA"></path><path d="M91 99.5C91.5868 99.5 92.0625 99.9757 92.0625 100.562V103.75C92.0625 104.337 91.5868 104.812 91 104.812C90.4132 104.812 89.9375 104.337 89.9375 103.75V100.562C89.9375 99.9757 90.4132 99.5 91 99.5Z" fill="#A685FA"></path><path d="M84.9898 98.513C85.4047 98.098 85.4047 97.4253 84.9898 97.0104C84.5749 96.5954 83.9021 96.5954 83.4872 97.0104L81.2333 99.2643C80.8184 99.6792 80.8184 100.352 81.2333 100.767C81.6482 101.182 82.321 101.182 82.7359 100.767L84.9898 98.513Z" fill="#A685FA"></path><path d="M82.5 91C82.5 91.5868 82.0243 92.0625 81.4375 92.0625H78.25C77.6632 92.0625 77.1875 91.5868 77.1875 91C77.1875 90.4132 77.6632 89.9375 78.25 89.9375H81.4375C82.0243 89.9375 82.5 90.4132 82.5 91Z" fill="#A685FA"></path><path d="M83.487 84.9895C83.902 85.4045 84.5747 85.4045 84.9896 84.9895C85.4046 84.5746 85.4046 83.9019 84.9896 83.4869L82.7357 81.233C82.3208 80.8181 81.6481 80.8181 81.2331 81.233C80.8182 81.648 80.8182 82.3207 81.2331 82.7356L83.487 84.9895Z" fill="#A685FA"></path><path d="M153.44 99V82.2H155.936V96.504H163.172V99H153.44ZM170.017 99.312C168.913 99.312 167.905 99.028 166.993 98.46C166.089 97.892 165.365 97.132 164.821 96.18C164.285 95.22 164.017 94.16 164.017 93C164.017 92.12 164.173 91.3 164.485 90.54C164.797 89.772 165.225 89.1 165.769 88.524C166.321 87.94 166.961 87.484 167.689 87.156C168.417 86.828 169.193 86.664 170.017 86.664C170.937 86.664 171.781 86.856 172.549 87.24C173.317 87.616 173.973 88.14 174.517 88.812C175.061 89.476 175.461 90.244 175.717 91.116C175.973 91.98 176.049 92.9 175.945 93.876H166.693C166.797 94.428 166.997 94.928 167.293 95.376C167.597 95.816 167.981 96.164 168.445 96.42C168.917 96.676 169.441 96.808 170.017 96.816C170.625 96.816 171.177 96.664 171.673 96.36C172.177 96.056 172.589 95.636 172.909 95.1L175.441 95.688C174.961 96.752 174.237 97.624 173.269 98.304C172.301 98.976 171.217 99.312 170.017 99.312ZM166.609 91.968H173.425C173.345 91.392 173.141 90.872 172.813 90.408C172.493 89.936 172.089 89.564 171.601 89.292C171.121 89.012 170.593 88.872 170.017 88.872C169.449 88.872 168.921 89.008 168.433 89.28C167.953 89.552 167.553 89.924 167.233 90.396C166.921 90.86 166.713 91.384 166.609 91.968ZM187.041 87H189.537V99.312C189.537 100.136 189.361 100.896 189.009 101.592C188.665 102.288 188.197 102.888 187.605 103.392C187.013 103.904 186.333 104.3 185.565 104.58C184.805 104.86 184.009 105 183.177 105C182.337 105 181.529 104.82 180.753 104.46C179.977 104.108 179.293 103.628 178.701 103.02C178.117 102.412 177.681 101.724 177.393 100.956L179.685 99.924C179.845 100.42 180.101 100.86 180.453 101.244C180.813 101.628 181.229 101.932 181.701 102.156C182.181 102.38 182.673 102.492 183.177 102.492C183.673 102.492 184.149 102.412 184.605 102.252C185.069 102.1 185.481 101.884 185.841 101.604C186.209 101.324 186.501 100.988 186.717 100.596C186.933 100.204 187.041 99.776 187.041 99.312V97.284C186.649 97.892 186.145 98.384 185.529 98.76C184.913 99.128 184.197 99.312 183.381 99.312C182.533 99.312 181.733 99.148 180.981 98.82C180.229 98.492 179.569 98.04 179.001 97.464C178.433 96.88 177.989 96.208 177.669 95.448C177.349 94.688 177.189 93.872 177.189 93C177.189 92.128 177.349 91.312 177.669 90.552C177.989 89.784 178.433 89.112 179.001 88.536C179.569 87.952 180.229 87.496 180.981 87.168C181.733 86.84 182.533 86.676 183.381 86.676C184.197 86.676 184.913 86.864 185.529 87.24C186.145 87.608 186.649 88.1 187.041 88.716V87ZM183.405 96.9C184.101 96.9 184.709 96.724 185.229 96.372C185.749 96.012 186.153 95.536 186.441 94.944C186.729 94.352 186.873 93.704 186.873 93C186.873 92.28 186.725 91.628 186.429 91.044C186.141 90.452 185.737 89.98 185.217 89.628C184.697 89.268 184.093 89.088 183.405 89.088C182.733 89.088 182.117 89.264 181.557 89.616C181.005 89.968 180.565 90.44 180.237 91.032C179.909 91.624 179.745 92.28 179.745 93C179.745 93.72 179.909 94.376 180.237 94.968C180.573 95.56 181.017 96.032 181.569 96.384C182.129 96.728 182.741 96.9 183.405 96.9ZM201.542 87H204.038V99H201.53L201.434 97.26C201.082 97.876 200.606 98.372 200.006 98.748C199.406 99.124 198.698 99.312 197.882 99.312C197.002 99.312 196.174 99.148 195.398 98.82C194.622 98.484 193.938 98.02 193.346 97.428C192.762 96.836 192.306 96.156 191.978 95.388C191.65 94.612 191.486 93.78 191.486 92.892C191.486 92.036 191.646 91.232 191.966 90.48C192.286 89.72 192.73 89.056 193.298 88.488C193.866 87.92 194.522 87.476 195.266 87.156C196.018 86.828 196.822 86.664 197.678 86.664C198.55 86.664 199.318 86.864 199.982 87.264C200.654 87.656 201.21 88.16 201.65 88.776L201.542 87ZM197.822 96.9C198.526 96.9 199.142 96.728 199.67 96.384C200.198 96.032 200.606 95.56 200.894 94.968C201.19 94.376 201.338 93.72 201.338 93C201.338 92.272 201.19 91.612 200.894 91.02C200.598 90.428 200.186 89.96 199.658 89.616C199.138 89.264 198.526 89.088 197.822 89.088C197.126 89.088 196.49 89.264 195.914 89.616C195.338 89.968 194.882 90.44 194.546 91.032C194.21 91.624 194.042 92.28 194.042 93C194.042 93.728 194.214 94.388 194.558 94.98C194.91 95.564 195.37 96.032 195.938 96.384C196.514 96.728 197.142 96.9 197.822 96.9ZM206.526 99V81H209.022V99H206.526ZM225.447 99.312C224.279 99.312 223.191 99.088 222.183 98.64C221.183 98.184 220.307 97.556 219.555 96.756C218.811 95.948 218.227 95.016 217.803 93.96C217.387 92.904 217.179 91.78 217.179 90.588C217.179 89.332 217.403 88.176 217.851 87.12C218.299 86.064 218.911 85.148 219.687 84.372C220.463 83.588 221.347 82.98 222.339 82.548C223.339 82.116 224.387 81.9 225.483 81.9C226.723 81.9 227.915 82.188 229.059 82.764C230.203 83.34 231.199 84.204 232.047 85.356L229.815 86.568C229.239 85.848 228.567 85.304 227.799 84.936C227.039 84.568 226.259 84.384 225.459 84.384C224.683 84.384 223.947 84.544 223.251 84.864C222.555 85.176 221.939 85.616 221.403 86.184C220.867 86.744 220.443 87.404 220.131 88.164C219.827 88.916 219.675 89.736 219.675 90.624C219.675 91.48 219.823 92.284 220.119 93.036C220.423 93.788 220.839 94.448 221.367 95.016C221.903 95.576 222.519 96.016 223.215 96.336C223.919 96.656 224.671 96.816 225.471 96.816C226.063 96.816 226.631 96.72 227.175 96.528C227.719 96.336 228.223 96.064 228.687 95.712C229.159 95.352 229.571 94.924 229.923 94.428C230.275 93.932 230.555 93.38 230.763 92.772H227.199V90.564H233.691C233.707 91.764 233.499 92.892 233.067 93.948C232.643 95.004 232.051 95.936 231.291 96.744C230.539 97.544 229.663 98.172 228.663 98.628C227.663 99.084 226.591 99.312 225.447 99.312ZM235.319 94.5V87H237.815V93.888C237.815 94.424 237.947 94.912 238.211 95.352C238.475 95.792 238.827 96.144 239.267 96.408C239.707 96.664 240.191 96.792 240.719 96.792C241.255 96.792 241.739 96.664 242.171 96.408C242.611 96.144 242.959 95.792 243.215 95.352C243.479 94.912 243.611 94.424 243.611 93.888V87H246.107L246.119 99H243.623L243.611 97.704C243.203 98.2 242.695 98.592 242.087 98.88C241.479 99.168 240.827 99.312 240.131 99.312C239.243 99.312 238.435 99.096 237.707 98.664C236.979 98.232 236.399 97.652 235.967 96.924C235.535 96.196 235.319 95.388 235.319 94.5ZM257.698 87H260.194V99H257.686L257.59 97.26C257.238 97.876 256.762 98.372 256.162 98.748C255.562 99.124 254.854 99.312 254.038 99.312C253.158 99.312 252.33 99.148 251.554 98.82C250.778 98.484 250.094 98.02 249.502 97.428C248.918 96.836 248.462 96.156 248.134 95.388C247.806 94.612 247.642 93.78 247.642 92.892C247.642 92.036 247.802 91.232 248.122 90.48C248.442 89.72 248.886 89.056 249.454 88.488C250.022 87.92 250.678 87.476 251.422 87.156C252.174 86.828 252.978 86.664 253.834 86.664C254.706 86.664 255.474 86.864 256.138 87.264C256.81 87.656 257.366 88.16 257.806 88.776L257.698 87ZM253.978 96.9C254.682 96.9 255.298 96.728 255.826 96.384C256.354 96.032 256.762 95.56 257.05 94.968C257.346 94.376 257.494 93.72 257.494 93C257.494 92.272 257.346 91.612 257.05 91.02C256.754 90.428 256.342 89.96 255.814 89.616C255.294 89.264 254.682 89.088 253.978 89.088C253.282 89.088 252.646 89.264 252.07 89.616C251.494 89.968 251.038 90.44 250.702 91.032C250.366 91.624 250.198 92.28 250.198 93C250.198 93.728 250.37 94.388 250.714 94.98C251.066 95.564 251.526 96.032 252.094 96.384C252.67 96.728 253.298 96.9 253.978 96.9ZM262.588 99V87H265.084V88.272C265.5 87.776 266.012 87.384 266.62 87.096C267.228 86.808 267.884 86.664 268.588 86.664C269.036 86.664 269.48 86.724 269.92 86.844L268.924 89.364C268.612 89.244 268.3 89.184 267.988 89.184C267.46 89.184 266.976 89.316 266.536 89.58C266.096 89.836 265.744 90.184 265.48 90.624C265.216 91.064 265.084 91.552 265.084 92.088V99H262.588ZM280.093 81H282.589V99H280.093V97.236C279.701 97.86 279.189 98.364 278.557 98.748C277.925 99.124 277.185 99.312 276.337 99.312C275.465 99.312 274.649 99.148 273.889 98.82C273.129 98.492 272.457 98.04 271.873 97.464C271.297 96.88 270.845 96.208 270.517 95.448C270.189 94.688 270.025 93.872 270.025 93C270.025 92.128 270.189 91.312 270.517 90.552C270.845 89.784 271.297 89.112 271.873 88.536C272.457 87.952 273.129 87.496 273.889 87.168C274.649 86.84 275.465 86.676 276.337 86.676C277.185 86.676 277.925 86.868 278.557 87.252C279.189 87.628 279.701 88.124 280.093 88.74V81ZM276.361 96.9C277.065 96.9 277.681 96.728 278.209 96.384C278.737 96.032 279.145 95.56 279.433 94.968C279.729 94.376 279.877 93.72 279.877 93C279.877 92.272 279.729 91.612 279.433 91.02C279.137 90.428 278.725 89.96 278.197 89.616C277.677 89.264 277.065 89.088 276.361 89.088C275.665 89.088 275.029 89.264 274.453 89.616C273.885 89.968 273.429 90.44 273.085 91.032C272.749 91.624 272.581 92.28 272.581 93C272.581 93.728 272.753 94.388 273.097 94.98C273.449 95.564 273.909 96.032 274.477 96.384C275.053 96.728 275.681 96.9 276.361 96.9ZM285.463 87H287.959V99H285.463V87ZM286.735 85.26C286.351 85.26 286.031 85.136 285.775 84.888C285.519 84.64 285.391 84.328 285.391 83.952C285.391 83.584 285.519 83.276 285.775 83.028C286.031 82.772 286.347 82.644 286.723 82.644C287.091 82.644 287.403 82.772 287.659 83.028C287.915 83.276 288.043 83.584 288.043 83.952C288.043 84.328 287.915 84.64 287.659 84.888C287.411 85.136 287.103 85.26 286.735 85.26ZM299.956 87H302.452V99H299.944L299.848 97.26C299.496 97.876 299.02 98.372 298.42 98.748C297.82 99.124 297.112 99.312 296.296 99.312C295.416 99.312 294.588 99.148 293.812 98.82C293.036 98.484 292.352 98.02 291.76 97.428C291.176 96.836 290.72 96.156 290.392 95.388C290.064 94.612 289.9 93.78 289.9 92.892C289.9 92.036 290.06 91.232 290.38 90.48C290.7 89.72 291.144 89.056 291.712 88.488C292.28 87.92 292.936 87.476 293.68 87.156C294.432 86.828 295.236 86.664 296.092 86.664C296.964 86.664 297.732 86.864 298.396 87.264C299.068 87.656 299.624 88.16 300.064 88.776L299.956 87ZM296.236 96.9C296.94 96.9 297.556 96.728 298.084 96.384C298.612 96.032 299.02 95.56 299.308 94.968C299.604 94.376 299.752 93.72 299.752 93C299.752 92.272 299.604 91.612 299.308 91.02C299.012 90.428 298.6 89.96 298.072 89.616C297.552 89.264 296.94 89.088 296.236 89.088C295.54 89.088 294.904 89.264 294.328 89.616C293.752 89.968 293.296 90.44 292.96 91.032C292.624 91.624 292.456 92.28 292.456 93C292.456 93.728 292.628 94.388 292.972 94.98C293.324 95.564 293.784 96.032 294.352 96.384C294.928 96.728 295.556 96.9 296.236 96.9ZM315.646 91.476V99H313.15V92.088C313.15 91.552 313.018 91.064 312.754 90.624C312.498 90.184 312.15 89.836 311.71 89.58C311.278 89.316 310.79 89.184 310.246 89.184C309.718 89.184 309.234 89.316 308.794 89.58C308.354 89.836 308.002 90.184 307.738 90.624C307.474 91.064 307.342 91.552 307.342 92.088V99H304.846V87H307.342V88.272C307.758 87.776 308.27 87.384 308.878 87.096C309.486 86.808 310.142 86.664 310.846 86.664C311.734 86.664 312.542 86.88 313.27 87.312C313.998 87.744 314.574 88.324 314.998 89.052C315.43 89.78 315.646 90.588 315.646 91.476Z" fill="white"></path><path d="M55.517 182.234C54.839 182.234 54.185 182.129 53.555 181.919C52.925 181.703 52.373 181.397 51.899 181.001C51.431 180.605 51.098 180.134 50.9 179.588L52.313 179.057C52.433 179.393 52.655 179.687 52.979 179.939C53.309 180.185 53.696 180.377 54.14 180.515C54.584 180.653 55.043 180.722 55.517 180.722C56.057 180.722 56.558 180.635 57.02 180.461C57.488 180.281 57.866 180.032 58.154 179.714C58.442 179.396 58.586 179.024 58.586 178.598C58.586 178.16 58.436 177.803 58.136 177.527C57.836 177.245 57.452 177.023 56.984 176.861C56.516 176.693 56.027 176.564 55.517 176.474C54.647 176.33 53.867 176.126 53.177 175.862C52.493 175.592 51.95 175.217 51.548 174.737C51.152 174.257 50.954 173.624 50.954 172.838C50.954 172.106 51.164 171.467 51.584 170.921C52.01 170.375 52.571 169.952 53.267 169.652C53.963 169.352 54.713 169.202 55.517 169.202C56.183 169.202 56.828 169.307 57.452 169.517C58.082 169.721 58.637 170.021 59.117 170.417C59.597 170.813 59.942 171.296 60.152 171.866L58.721 172.388C58.601 172.046 58.376 171.752 58.046 171.506C57.722 171.254 57.338 171.062 56.894 170.93C56.456 170.792 55.997 170.723 55.517 170.723C54.983 170.717 54.485 170.804 54.023 170.984C53.561 171.164 53.186 171.413 52.898 171.731C52.61 172.049 52.466 172.418 52.466 172.838C52.466 173.342 52.598 173.729 52.862 173.999C53.132 174.263 53.498 174.461 53.96 174.593C54.422 174.725 54.941 174.842 55.517 174.944C56.333 175.082 57.089 175.301 57.785 175.601C58.481 175.895 59.039 176.288 59.459 176.78C59.885 177.272 60.098 177.878 60.098 178.598C60.098 179.33 59.885 179.969 59.459 180.515C59.039 181.061 58.481 181.484 57.785 181.784C57.089 182.084 56.333 182.234 55.517 182.234ZM66.6756 174.512H64.6326L64.6236 182H63.1116L63.1206 174.512H61.5726V173H63.1206L63.1116 170.174H64.6236L64.6326 173H66.6756V174.512ZM75.2965 173H76.8085V182H75.2965L75.2335 180.479C74.9515 181.001 74.5615 181.424 74.0635 181.748C73.5715 182.072 72.9835 182.234 72.2995 182.234C71.6395 182.234 71.0215 182.111 70.4455 181.865C69.8695 181.613 69.3595 181.268 68.9155 180.83C68.4775 180.386 68.1355 179.876 67.8895 179.3C67.6435 178.724 67.5205 178.103 67.5205 177.437C67.5205 176.795 67.6405 176.189 67.8805 175.619C68.1205 175.049 68.4535 174.551 68.8795 174.125C69.3115 173.693 69.8095 173.357 70.3735 173.117C70.9375 172.871 71.5435 172.748 72.1915 172.748C72.8995 172.748 73.5205 172.916 74.0545 173.252C74.5885 173.582 75.0205 174.011 75.3505 174.539L75.2965 173ZM72.2725 180.767C72.8665 180.767 73.3795 180.623 73.8115 180.335C74.2495 180.041 74.5855 179.645 74.8195 179.147C75.0595 178.649 75.1795 178.1 75.1795 177.5C75.1795 176.888 75.0595 176.336 74.8195 175.844C74.5795 175.346 74.2405 174.953 73.8025 174.665C73.3705 174.371 72.8605 174.224 72.2725 174.224C71.6785 174.224 71.1385 174.371 70.6525 174.665C70.1665 174.959 69.7795 175.355 69.4915 175.853C69.2095 176.345 69.0685 176.894 69.0685 177.5C69.0685 178.106 69.2155 178.658 69.5095 179.156C69.8035 179.648 70.1935 180.041 70.6795 180.335C71.1655 180.623 71.6965 180.767 72.2725 180.767ZM84.4911 173H86.0931L81.1701 186.5H79.5681L81.1971 182L77.9661 173H79.6221L81.9531 179.921L84.4911 173ZM98.4138 179.624L99.7638 180.353C99.3558 180.923 98.8368 181.379 98.2068 181.721C97.5828 182.063 96.9048 182.234 96.1728 182.234C95.3448 182.234 94.5888 182.021 93.9048 181.595C93.2268 181.169 92.6838 180.599 92.2758 179.885C91.8738 179.165 91.6728 178.37 91.6728 177.5C91.6728 176.84 91.7898 176.225 92.0238 175.655C92.2578 175.079 92.5788 174.575 92.9868 174.143C93.4008 173.705 93.8808 173.363 94.4268 173.117C94.9728 172.871 95.5548 172.748 96.1728 172.748C96.9048 172.748 97.5828 172.919 98.2068 173.261C98.8368 173.603 99.3558 174.062 99.7638 174.638L98.4138 175.367C98.1258 175.013 97.7838 174.74 97.3878 174.548C96.9918 174.356 96.5868 174.26 96.1728 174.26C95.6148 174.26 95.1078 174.41 94.6518 174.71C94.2018 175.004 93.8448 175.397 93.5808 175.889C93.3168 176.381 93.1848 176.918 93.1848 177.5C93.1848 178.082 93.3168 178.619 93.5808 179.111C93.8508 179.597 94.2108 179.987 94.6608 180.281C95.1168 180.575 95.6208 180.722 96.1728 180.722C96.6168 180.722 97.0338 180.62 97.4238 180.416C97.8138 180.212 98.1438 179.948 98.4138 179.624ZM105.19 182.234C104.362 182.234 103.606 182.021 102.922 181.595C102.244 181.169 101.701 180.599 101.293 179.885C100.891 179.165 100.69 178.37 100.69 177.5C100.69 176.84 100.807 176.225 101.041 175.655C101.275 175.079 101.596 174.575 102.004 174.143C102.418 173.705 102.898 173.363 103.444 173.117C103.99 172.871 104.572 172.748 105.19 172.748C106.018 172.748 106.771 172.961 107.449 173.387C108.133 173.813 108.676 174.386 109.078 175.106C109.486 175.826 109.69 176.624 109.69 177.5C109.69 178.154 109.573 178.766 109.339 179.336C109.105 179.906 108.781 180.41 108.367 180.848C107.959 181.28 107.482 181.619 106.936 181.865C106.396 182.111 105.814 182.234 105.19 182.234ZM105.19 180.722C105.754 180.722 106.261 180.575 106.711 180.281C107.167 179.981 107.524 179.588 107.782 179.102C108.046 178.61 108.178 178.076 108.178 177.5C108.178 176.912 108.043 176.372 107.773 175.88C107.509 175.388 107.152 174.995 106.702 174.701C106.252 174.407 105.748 174.26 105.19 174.26C104.626 174.26 104.119 174.41 103.669 174.71C103.219 175.004 102.862 175.397 102.598 175.889C102.334 176.381 102.202 176.918 102.202 177.5C102.202 178.1 102.337 178.646 102.607 179.138C102.877 179.624 103.24 180.011 103.696 180.299C104.152 180.581 104.65 180.722 105.19 180.722ZM111.18 182V173H112.692V174.125C113.01 173.705 113.409 173.372 113.889 173.126C114.375 172.874 114.903 172.748 115.473 172.748C116.139 172.748 116.748 172.91 117.3 173.234C117.852 173.558 118.287 173.987 118.605 174.521C118.923 173.987 119.355 173.558 119.901 173.234C120.453 172.91 121.059 172.748 121.719 172.748C122.397 172.748 123.012 172.913 123.564 173.243C124.116 173.567 124.554 174.005 124.878 174.557C125.208 175.109 125.373 175.724 125.373 176.402V182H123.861V176.762C123.861 176.318 123.753 175.907 123.537 175.529C123.321 175.151 123.03 174.848 122.664 174.62C122.298 174.392 121.893 174.278 121.449 174.278C121.005 174.278 120.6 174.386 120.234 174.602C119.868 174.812 119.577 175.106 119.361 175.484C119.145 175.856 119.037 176.282 119.037 176.762V182H117.525V176.762C117.525 176.282 117.417 175.856 117.201 175.484C116.985 175.106 116.691 174.812 116.319 174.602C115.953 174.386 115.548 174.278 115.104 174.278C114.666 174.278 114.261 174.392 113.889 174.62C113.523 174.848 113.232 175.151 113.016 175.529C112.8 175.907 112.692 176.318 112.692 176.762V182H111.18ZM128.688 186.5H127.176V173H128.688V174.539C128.994 174.011 129.402 173.585 129.912 173.261C130.422 172.931 131.028 172.766 131.73 172.766C132.384 172.766 132.996 172.889 133.566 173.135C134.142 173.381 134.646 173.723 135.078 174.161C135.51 174.593 135.849 175.094 136.095 175.664C136.341 176.234 136.464 176.846 136.464 177.5C136.464 178.154 136.341 178.769 136.095 179.345C135.849 179.921 135.51 180.428 135.078 180.866C134.646 181.298 134.142 181.637 133.566 181.883C132.996 182.129 132.384 182.252 131.73 182.252C131.028 182.252 130.422 182.09 129.912 181.766C129.402 181.436 128.994 181.007 128.688 180.479V186.5ZM131.712 174.233C131.13 174.233 130.62 174.38 130.182 174.674C129.744 174.968 129.405 175.361 129.165 175.853C128.931 176.345 128.814 176.894 128.814 177.5C128.814 178.1 128.931 178.649 129.165 179.147C129.405 179.645 129.741 180.041 130.173 180.335C130.611 180.629 131.124 180.776 131.712 180.776C132.294 180.776 132.828 180.632 133.314 180.344C133.8 180.05 134.19 179.657 134.484 179.165C134.778 178.667 134.925 178.112 134.925 177.5C134.925 176.9 134.781 176.354 134.493 175.862C134.205 175.364 133.818 174.968 133.332 174.674C132.846 174.38 132.306 174.233 131.712 174.233ZM137.881 182V168.5H139.393V182H137.881ZM141.555 173H143.067V182H141.555V173ZM142.329 171.533C142.089 171.533 141.888 171.455 141.726 171.299C141.564 171.143 141.483 170.948 141.483 170.714C141.483 170.48 141.564 170.285 141.726 170.129C141.888 169.973 142.086 169.895 142.32 169.895C142.554 169.895 142.752 169.973 142.914 170.129C143.076 170.285 143.157 170.48 143.157 170.714C143.157 170.948 143.076 171.143 142.914 171.299C142.758 171.455 142.563 171.533 142.329 171.533ZM152.341 173H153.853V182H152.341L152.278 180.479C151.996 181.001 151.606 181.424 151.108 181.748C150.616 182.072 150.028 182.234 149.344 182.234C148.684 182.234 148.066 182.111 147.49 181.865C146.914 181.613 146.404 181.268 145.96 180.83C145.522 180.386 145.18 179.876 144.934 179.3C144.688 178.724 144.565 178.103 144.565 177.437C144.565 176.795 144.685 176.189 144.925 175.619C145.165 175.049 145.498 174.551 145.924 174.125C146.356 173.693 146.854 173.357 147.418 173.117C147.982 172.871 148.588 172.748 149.236 172.748C149.944 172.748 150.565 172.916 151.099 173.252C151.633 173.582 152.065 174.011 152.395 174.539L152.341 173ZM149.317 180.767C149.911 180.767 150.424 180.623 150.856 180.335C151.294 180.041 151.63 179.645 151.864 179.147C152.104 178.649 152.224 178.1 152.224 177.5C152.224 176.888 152.104 176.336 151.864 175.844C151.624 175.346 151.285 174.953 150.847 174.665C150.415 174.371 149.905 174.224 149.317 174.224C148.723 174.224 148.183 174.371 147.697 174.665C147.211 174.959 146.824 175.355 146.536 175.853C146.254 176.345 146.113 176.894 146.113 177.5C146.113 178.106 146.26 178.658 146.554 179.156C146.848 179.648 147.238 180.041 147.724 180.335C148.21 180.623 148.741 180.767 149.317 180.767ZM163.608 176.402V182H162.096V176.735C162.096 176.279 161.985 175.865 161.763 175.493C161.541 175.121 161.244 174.827 160.872 174.611C160.5 174.389 160.086 174.278 159.63 174.278C159.18 174.278 158.766 174.389 158.388 174.611C158.016 174.827 157.719 175.121 157.497 175.493C157.275 175.865 157.164 176.279 157.164 176.735V182H155.652V173H157.164V174.125C157.482 173.705 157.884 173.372 158.37 173.126C158.856 172.874 159.384 172.748 159.954 172.748C160.626 172.748 161.238 172.913 161.79 173.243C162.348 173.567 162.789 174.005 163.113 174.557C163.443 175.109 163.608 175.724 163.608 176.402ZM170.07 174.512H168.027L168.018 182H166.506L166.515 174.512H164.967V173H166.515L166.506 170.174H168.018L168.027 173H170.07V174.512ZM180.013 182H178.483L175.468 173H176.944L179.266 179.867L181.561 173H183.118L185.422 179.867L187.717 173H189.211L186.196 182H184.657L182.326 175.07L180.013 182ZM190.668 173H192.18V182H190.668V173ZM191.442 171.533C191.202 171.533 191.001 171.455 190.839 171.299C190.677 171.143 190.596 170.948 190.596 170.714C190.596 170.48 190.677 170.285 190.839 170.129C191.001 169.973 191.199 169.895 191.433 169.895C191.667 169.895 191.865 169.973 192.027 170.129C192.189 170.285 192.27 170.48 192.27 170.714C192.27 170.948 192.189 171.143 192.027 171.299C191.871 171.455 191.676 171.533 191.442 171.533ZM199.004 174.512H196.961L196.952 182H195.44L195.449 174.512H193.901V173H195.449L195.44 170.174H196.952L196.961 173H199.004V174.512ZM208.573 176.402V182H207.061V176.735C207.061 176.279 206.95 175.865 206.728 175.493C206.506 175.121 206.209 174.827 205.837 174.611C205.465 174.389 205.051 174.278 204.595 174.278C204.145 174.278 203.731 174.389 203.353 174.611C202.981 174.827 202.684 175.121 202.462 175.493C202.24 175.865 202.129 176.279 202.129 176.735V182H200.617V168.5H202.129V174.125C202.447 173.705 202.849 173.372 203.335 173.126C203.821 172.874 204.349 172.748 204.919 172.748C205.591 172.748 206.203 172.913 206.755 173.243C207.313 173.567 207.754 174.005 208.078 174.557C208.408 175.109 208.573 175.724 208.573 176.402ZM216.209 186.5H214.697V173H216.209V174.539C216.515 174.011 216.923 173.585 217.433 173.261C217.943 172.931 218.549 172.766 219.251 172.766C219.905 172.766 220.517 172.889 221.087 173.135C221.663 173.381 222.167 173.723 222.599 174.161C223.031 174.593 223.37 175.094 223.616 175.664C223.862 176.234 223.985 176.846 223.985 177.5C223.985 178.154 223.862 178.769 223.616 179.345C223.37 179.921 223.031 180.428 222.599 180.866C222.167 181.298 221.663 181.637 221.087 181.883C220.517 182.129 219.905 182.252 219.251 182.252C218.549 182.252 217.943 182.09 217.433 181.766C216.923 181.436 216.515 181.007 216.209 180.479V186.5ZM219.233 174.233C218.651 174.233 218.141 174.38 217.703 174.674C217.265 174.968 216.926 175.361 216.686 175.853C216.452 176.345 216.335 176.894 216.335 177.5C216.335 178.1 216.452 178.649 216.686 179.147C216.926 179.645 217.262 180.041 217.694 180.335C218.132 180.629 218.645 180.776 219.233 180.776C219.815 180.776 220.349 180.632 220.835 180.344C221.321 180.05 221.711 179.657 222.005 179.165C222.299 178.667 222.446 178.112 222.446 177.5C222.446 176.9 222.302 176.354 222.014 175.862C221.726 175.364 221.339 174.968 220.853 174.674C220.367 174.38 219.827 174.233 219.233 174.233ZM225.49 182V173H227.002V174.125C227.32 173.705 227.722 173.372 228.208 173.126C228.694 172.874 229.222 172.748 229.792 172.748C230.14 172.748 230.476 172.793 230.8 172.883L230.188 174.395C229.942 174.317 229.702 174.278 229.468 174.278C229.018 174.278 228.604 174.389 228.226 174.611C227.854 174.827 227.557 175.121 227.335 175.493C227.113 175.865 227.002 176.279 227.002 176.735V182H225.49ZM235.409 182.234C234.581 182.234 233.825 182.021 233.141 181.595C232.463 181.169 231.92 180.599 231.512 179.885C231.11 179.165 230.909 178.37 230.909 177.5C230.909 176.84 231.026 176.225 231.26 175.655C231.494 175.079 231.815 174.575 232.223 174.143C232.637 173.705 233.117 173.363 233.663 173.117C234.209 172.871 234.791 172.748 235.409 172.748C236.237 172.748 236.99 172.961 237.668 173.387C238.352 173.813 238.895 174.386 239.297 175.106C239.705 175.826 239.909 176.624 239.909 177.5C239.909 178.154 239.792 178.766 239.558 179.336C239.324 179.906 239 180.41 238.586 180.848C238.178 181.28 237.701 181.619 237.155 181.865C236.615 182.111 236.033 182.234 235.409 182.234ZM235.409 180.722C235.973 180.722 236.48 180.575 236.93 180.281C237.386 179.981 237.743 179.588 238.001 179.102C238.265 178.61 238.397 178.076 238.397 177.5C238.397 176.912 238.262 176.372 237.992 175.88C237.728 175.388 237.371 174.995 236.921 174.701C236.471 174.407 235.967 174.26 235.409 174.26C234.845 174.26 234.338 174.41 233.888 174.71C233.438 175.004 233.081 175.397 232.817 175.889C232.553 176.381 232.421 176.918 232.421 177.5C232.421 178.1 232.556 178.646 232.826 179.138C233.096 179.624 233.459 180.011 233.915 180.299C234.371 180.581 234.869 180.722 235.409 180.722ZM242.91 186.5H241.398V173H242.91V174.539C243.216 174.011 243.624 173.585 244.134 173.261C244.644 172.931 245.25 172.766 245.952 172.766C246.606 172.766 247.218 172.889 247.788 173.135C248.364 173.381 248.868 173.723 249.3 174.161C249.732 174.593 250.071 175.094 250.317 175.664C250.563 176.234 250.686 176.846 250.686 177.5C250.686 178.154 250.563 178.769 250.317 179.345C250.071 179.921 249.732 180.428 249.3 180.866C248.868 181.298 248.364 181.637 247.788 181.883C247.218 182.129 246.606 182.252 245.952 182.252C245.25 182.252 244.644 182.09 244.134 181.766C243.624 181.436 243.216 181.007 242.91 180.479V186.5ZM245.934 174.233C245.352 174.233 244.842 174.38 244.404 174.674C243.966 174.968 243.627 175.361 243.387 175.853C243.153 176.345 243.036 176.894 243.036 177.5C243.036 178.1 243.153 178.649 243.387 179.147C243.627 179.645 243.963 180.041 244.395 180.335C244.833 180.629 245.346 180.776 245.934 180.776C246.516 180.776 247.05 180.632 247.536 180.344C248.022 180.05 248.412 179.657 248.706 179.165C249 178.667 249.147 178.112 249.147 177.5C249.147 176.9 249.003 176.354 248.715 175.862C248.427 175.364 248.04 174.968 247.554 174.674C247.068 174.38 246.528 174.233 245.934 174.233ZM256.099 182.234C255.271 182.234 254.515 182.021 253.831 181.595C253.153 181.169 252.61 180.599 252.202 179.885C251.8 179.165 251.599 178.37 251.599 177.5C251.599 176.84 251.716 176.225 251.95 175.655C252.184 175.079 252.505 174.575 252.913 174.143C253.327 173.705 253.807 173.363 254.353 173.117C254.899 172.871 255.481 172.748 256.099 172.748C256.777 172.748 257.398 172.886 257.962 173.162C258.532 173.432 259.018 173.81 259.42 174.296C259.828 174.782 260.131 175.346 260.329 175.988C260.533 176.63 260.608 177.317 260.554 178.049H253.21C253.282 178.559 253.45 179.015 253.714 179.417C253.978 179.813 254.314 180.128 254.722 180.362C255.136 180.596 255.595 180.716 256.099 180.722C256.639 180.722 257.128 180.584 257.566 180.308C258.004 180.026 258.358 179.642 258.628 179.156L260.167 179.516C259.807 180.314 259.264 180.968 258.538 181.478C257.812 181.982 256.999 182.234 256.099 182.234ZM253.165 176.861H259.033C258.985 176.357 258.823 175.898 258.547 175.484C258.271 175.064 257.92 174.728 257.494 174.476C257.068 174.224 256.603 174.098 256.099 174.098C255.595 174.098 255.133 174.221 254.713 174.467C254.293 174.713 253.945 175.046 253.669 175.466C253.399 175.88 253.231 176.345 253.165 176.861ZM262.07 182V173H263.582V174.125C263.9 173.705 264.302 173.372 264.788 173.126C265.274 172.874 265.802 172.748 266.372 172.748C266.72 172.748 267.056 172.793 267.38 172.883L266.768 174.395C266.522 174.317 266.282 174.278 266.048 174.278C265.598 174.278 265.184 174.389 264.806 174.611C264.434 174.827 264.137 175.121 263.915 175.493C263.693 175.865 263.582 176.279 263.582 176.735V182H262.07ZM273.306 174.512H271.263L271.254 182H269.742L269.751 174.512H268.203V173H269.751L269.742 170.174H271.254L271.263 173H273.306V174.512ZM280.874 173H282.476L277.553 186.5H275.951L277.58 182L274.349 173H276.005L278.336 179.921L280.874 173ZM288.596 182V168.5H290.108V182H288.596ZM299.418 173H300.93V182H299.418L299.355 180.479C299.073 181.001 298.683 181.424 298.185 181.748C297.693 182.072 297.105 182.234 296.421 182.234C295.761 182.234 295.143 182.111 294.567 181.865C293.991 181.613 293.481 181.268 293.037 180.83C292.599 180.386 292.257 179.876 292.011 179.3C291.765 178.724 291.642 178.103 291.642 177.437C291.642 176.795 291.762 176.189 292.002 175.619C292.242 175.049 292.575 174.551 293.001 174.125C293.433 173.693 293.931 173.357 294.495 173.117C295.059 172.871 295.665 172.748 296.313 172.748C297.021 172.748 297.642 172.916 298.176 173.252C298.71 173.582 299.142 174.011 299.472 174.539L299.418 173ZM296.394 180.767C296.988 180.767 297.501 180.623 297.933 180.335C298.371 180.041 298.707 179.645 298.941 179.147C299.181 178.649 299.301 178.1 299.301 177.5C299.301 176.888 299.181 176.336 298.941 175.844C298.701 175.346 298.362 174.953 297.924 174.665C297.492 174.371 296.982 174.224 296.394 174.224C295.8 174.224 295.26 174.371 294.774 174.665C294.288 174.959 293.901 175.355 293.613 175.853C293.331 176.345 293.19 176.894 293.19 177.5C293.19 178.106 293.337 178.658 293.631 179.156C293.925 179.648 294.315 180.041 294.801 180.335C295.287 180.623 295.818 180.767 296.394 180.767ZM306.487 182H304.957L301.942 173H303.418L305.74 179.867L308.035 173H309.592L311.896 179.867L314.191 173H315.685L312.67 182H311.131L308.8 175.07L306.487 182ZM319.835 182.171C319.349 182.153 318.875 182.063 318.413 181.901C317.957 181.733 317.555 181.508 317.207 181.226C316.865 180.938 316.616 180.608 316.46 180.236L317.756 179.678C317.846 179.882 318.008 180.074 318.242 180.254C318.476 180.434 318.746 180.578 319.052 180.686C319.358 180.794 319.667 180.848 319.979 180.848C320.309 180.848 320.618 180.797 320.906 180.695C321.194 180.593 321.428 180.443 321.608 180.245C321.794 180.041 321.887 179.798 321.887 179.516C321.887 179.216 321.785 178.982 321.581 178.814C321.383 178.64 321.131 178.505 320.825 178.409C320.525 178.307 320.219 178.211 319.907 178.121C319.289 177.965 318.737 177.779 318.251 177.563C317.765 177.341 317.381 177.062 317.099 176.726C316.823 176.384 316.685 175.949 316.685 175.421C316.685 174.863 316.838 174.38 317.144 173.972C317.456 173.564 317.864 173.249 318.368 173.027C318.872 172.805 319.412 172.694 319.988 172.694C320.714 172.694 321.377 172.85 321.977 173.162C322.577 173.474 323.024 173.897 323.318 174.431L322.103 175.142C322.001 174.926 321.845 174.737 321.635 174.575C321.425 174.407 321.185 174.275 320.915 174.179C320.645 174.083 320.369 174.032 320.087 174.026C319.739 174.014 319.412 174.059 319.106 174.161C318.806 174.263 318.563 174.419 318.377 174.629C318.197 174.833 318.107 175.088 318.107 175.394C318.107 175.694 318.203 175.922 318.395 176.078C318.593 176.234 318.848 176.36 319.16 176.456C319.478 176.546 319.823 176.651 320.195 176.771C320.741 176.945 321.251 177.146 321.725 177.374C322.199 177.602 322.58 177.887 322.868 178.229C323.162 178.571 323.306 178.994 323.3 179.498C323.3 180.05 323.135 180.533 322.805 180.947C322.475 181.355 322.046 181.667 321.518 181.883C320.996 182.099 320.435 182.195 319.835 182.171ZM336.402 173H337.914V182H336.402L336.339 180.479C336.057 181.001 335.667 181.424 335.169 181.748C334.677 182.072 334.089 182.234 333.405 182.234C332.745 182.234 332.127 182.111 331.551 181.865C330.975 181.613 330.465 181.268 330.021 180.83C329.583 180.386 329.241 179.876 328.995 179.3C328.749 178.724 328.626 178.103 328.626 177.437C328.626 176.795 328.746 176.189 328.986 175.619C329.226 175.049 329.559 174.551 329.985 174.125C330.417 173.693 330.915 173.357 331.479 173.117C332.043 172.871 332.649 172.748 333.297 172.748C334.005 172.748 334.626 172.916 335.16 173.252C335.694 173.582 336.126 174.011 336.456 174.539L336.402 173ZM333.378 180.767C333.972 180.767 334.485 180.623 334.917 180.335C335.355 180.041 335.691 179.645 335.925 179.147C336.165 178.649 336.285 178.1 336.285 177.5C336.285 176.888 336.165 176.336 335.925 175.844C335.685 175.346 335.346 174.953 334.908 174.665C334.476 174.371 333.966 174.224 333.378 174.224C332.784 174.224 332.244 174.371 331.758 174.665C331.272 174.959 330.885 175.355 330.597 175.853C330.315 176.345 330.174 176.894 330.174 177.5C330.174 178.106 330.321 178.658 330.615 179.156C330.909 179.648 331.299 180.041 331.785 180.335C332.271 180.623 332.802 180.767 333.378 180.767ZM347.669 176.402V182H346.157V176.735C346.157 176.279 346.046 175.865 345.824 175.493C345.602 175.121 345.305 174.827 344.933 174.611C344.561 174.389 344.147 174.278 343.691 174.278C343.241 174.278 342.827 174.389 342.449 174.611C342.077 174.827 341.78 175.121 341.558 175.493C341.336 175.865 341.225 176.279 341.225 176.735V182H339.713V173H341.225V174.125C341.543 173.705 341.945 173.372 342.431 173.126C342.917 172.874 343.445 172.748 344.015 172.748C344.687 172.748 345.299 172.913 345.851 173.243C346.409 173.567 346.85 174.005 347.174 174.557C347.504 175.109 347.669 175.724 347.669 176.402ZM356.538 168.5H358.05V182H356.538V180.47C356.232 180.998 355.821 181.424 355.305 181.748C354.789 182.072 354.183 182.234 353.487 182.234C352.833 182.234 352.221 182.111 351.651 181.865C351.081 181.619 350.577 181.28 350.139 180.848C349.707 180.41 349.368 179.906 349.122 179.336C348.876 178.766 348.753 178.154 348.753 177.5C348.753 176.846 348.876 176.234 349.122 175.664C349.368 175.088 349.707 174.584 350.139 174.152C350.577 173.714 351.081 173.372 351.651 173.126C352.221 172.88 352.833 172.757 353.487 172.757C354.183 172.757 354.789 172.919 355.305 173.243C355.821 173.567 356.232 173.993 356.538 174.521V168.5ZM353.505 180.767C354.099 180.767 354.612 180.623 355.044 180.335C355.482 180.041 355.818 179.645 356.052 179.147C356.292 178.649 356.412 178.1 356.412 177.5C356.412 176.888 356.292 176.336 356.052 175.844C355.812 175.346 355.473 174.953 355.035 174.665C354.603 174.371 354.093 174.224 353.505 174.224C352.911 174.224 352.371 174.371 351.885 174.665C351.405 174.959 351.021 175.355 350.733 175.853C350.445 176.345 350.301 176.894 350.301 177.5C350.301 178.106 350.448 178.658 350.742 179.156C351.036 179.648 351.426 180.041 351.912 180.335C352.398 180.623 352.929 180.767 353.505 180.767ZM364.533 182V173H366.045V174.125C366.363 173.705 366.765 173.372 367.251 173.126C367.737 172.874 368.265 172.748 368.835 172.748C369.183 172.748 369.519 172.793 369.843 172.883L369.231 174.395C368.985 174.317 368.745 174.278 368.511 174.278C368.061 174.278 367.647 174.389 367.269 174.611C366.897 174.827 366.6 175.121 366.378 175.493C366.156 175.865 366.045 176.279 366.045 176.735V182H364.533ZM374.452 182.234C373.624 182.234 372.868 182.021 372.184 181.595C371.506 181.169 370.963 180.599 370.555 179.885C370.153 179.165 369.952 178.37 369.952 177.5C369.952 176.84 370.069 176.225 370.303 175.655C370.537 175.079 370.858 174.575 371.266 174.143C371.68 173.705 372.16 173.363 372.706 173.117C373.252 172.871 373.834 172.748 374.452 172.748C375.13 172.748 375.751 172.886 376.315 173.162C376.885 173.432 377.371 173.81 377.773 174.296C378.181 174.782 378.484 175.346 378.682 175.988C378.886 176.63 378.961 177.317 378.907 178.049H371.563C371.635 178.559 371.803 179.015 372.067 179.417C372.331 179.813 372.667 180.128 373.075 180.362C373.489 180.596 373.948 180.716 374.452 180.722C374.992 180.722 375.481 180.584 375.919 180.308C376.357 180.026 376.711 179.642 376.981 179.156L378.52 179.516C378.16 180.314 377.617 180.968 376.891 181.478C376.165 181.982 375.352 182.234 374.452 182.234ZM371.518 176.861H377.386C377.338 176.357 377.176 175.898 376.9 175.484C376.624 175.064 376.273 174.728 375.847 174.476C375.421 174.224 374.956 174.098 374.452 174.098C373.948 174.098 373.486 174.221 373.066 174.467C372.646 174.713 372.298 175.046 372.022 175.466C371.752 175.88 371.584 176.345 371.518 176.861ZM387.4 173H388.912V182.288C388.912 182.882 388.783 183.434 388.525 183.944C388.273 184.46 387.931 184.907 387.499 185.285C387.067 185.669 386.575 185.966 386.023 186.176C385.471 186.392 384.895 186.5 384.295 186.5C383.671 186.5 383.068 186.359 382.486 186.077C381.904 185.801 381.394 185.429 380.956 184.961C380.524 184.499 380.212 183.98 380.02 183.404L381.406 182.774C381.52 183.188 381.724 183.56 382.018 183.89C382.318 184.226 382.666 184.49 383.062 184.682C383.464 184.88 383.875 184.979 384.295 184.979C384.691 184.979 385.072 184.91 385.438 184.772C385.81 184.634 386.143 184.442 386.437 184.196C386.737 183.956 386.971 183.671 387.139 183.341C387.313 183.017 387.4 182.666 387.4 182.288V180.497C387.094 181.013 386.689 181.433 386.185 181.757C385.687 182.075 385.105 182.234 384.439 182.234C383.803 182.234 383.206 182.111 382.648 181.865C382.09 181.619 381.601 181.28 381.181 180.848C380.761 180.41 380.431 179.906 380.191 179.336C379.951 178.766 379.831 178.154 379.831 177.5C379.831 176.846 379.951 176.234 380.191 175.664C380.431 175.088 380.761 174.584 381.181 174.152C381.601 173.714 382.09 173.372 382.648 173.126C383.206 172.88 383.803 172.757 384.439 172.757C385.105 172.757 385.687 172.916 386.185 173.234C386.689 173.552 387.094 173.972 387.4 174.494V173ZM384.448 180.767C385.03 180.767 385.534 180.617 385.96 180.317C386.392 180.017 386.725 179.618 386.959 179.12C387.193 178.622 387.31 178.082 387.31 177.5C387.31 176.9 387.19 176.354 386.95 175.862C386.716 175.364 386.383 174.968 385.951 174.674C385.525 174.374 385.024 174.224 384.448 174.224C383.884 174.224 383.368 174.371 382.9 174.665C382.432 174.959 382.06 175.355 381.784 175.853C381.514 176.345 381.379 176.894 381.379 177.5C381.379 178.106 381.517 178.658 381.793 179.156C382.075 179.648 382.447 180.041 382.909 180.335C383.377 180.623 383.89 180.767 384.448 180.767ZM390.558 178.58V173H392.07V178.247C392.07 178.703 392.181 179.117 392.403 179.489C392.625 179.861 392.922 180.158 393.294 180.38C393.672 180.596 394.086 180.704 394.536 180.704C394.992 180.704 395.403 180.596 395.769 180.38C396.141 180.158 396.438 179.861 396.66 179.489C396.882 179.117 396.993 178.703 396.993 178.247V173H398.505L398.514 182H397.002L396.993 180.857C396.675 181.277 396.273 181.613 395.787 181.865C395.301 182.111 394.776 182.234 394.212 182.234C393.54 182.234 392.925 182.072 392.367 181.748C391.815 181.418 391.374 180.977 391.044 180.425C390.72 179.873 390.558 179.258 390.558 178.58ZM400.428 182V168.5H401.94V182H400.428ZM411.25 173H412.762V182H411.25L411.187 180.479C410.905 181.001 410.515 181.424 410.017 181.748C409.525 182.072 408.937 182.234 408.253 182.234C407.593 182.234 406.975 182.111 406.399 181.865C405.823 181.613 405.313 181.268 404.869 180.83C404.431 180.386 404.089 179.876 403.843 179.3C403.597 178.724 403.474 178.103 403.474 177.437C403.474 176.795 403.594 176.189 403.834 175.619C404.074 175.049 404.407 174.551 404.833 174.125C405.265 173.693 405.763 173.357 406.327 173.117C406.891 172.871 407.497 172.748 408.145 172.748C408.853 172.748 409.474 172.916 410.008 173.252C410.542 173.582 410.974 174.011 411.304 174.539L411.25 173ZM408.226 180.767C408.82 180.767 409.333 180.623 409.765 180.335C410.203 180.041 410.539 179.645 410.773 179.147C411.013 178.649 411.133 178.1 411.133 177.5C411.133 176.888 411.013 176.336 410.773 175.844C410.533 175.346 410.194 174.953 409.756 174.665C409.324 174.371 408.814 174.224 408.226 174.224C407.632 174.224 407.092 174.371 406.606 174.665C406.12 174.959 405.733 175.355 405.445 175.853C405.163 176.345 405.022 176.894 405.022 177.5C405.022 178.106 405.169 178.658 405.463 179.156C405.757 179.648 406.147 180.041 406.633 180.335C407.119 180.623 407.65 180.767 408.226 180.767ZM419.222 174.512H417.179L417.17 182H415.658L415.667 174.512H414.119V173H415.667L415.658 170.174H417.17L417.179 173H419.222V174.512ZM420.748 173H422.26V182H420.748V173ZM421.522 171.533C421.282 171.533 421.081 171.455 420.919 171.299C420.757 171.143 420.676 170.948 420.676 170.714C420.676 170.48 420.757 170.285 420.919 170.129C421.081 169.973 421.279 169.895 421.513 169.895C421.747 169.895 421.945 169.973 422.107 170.129C422.269 170.285 422.35 170.48 422.35 170.714C422.35 170.948 422.269 171.143 422.107 171.299C421.951 171.455 421.756 171.533 421.522 171.533ZM428.259 182.234C427.431 182.234 426.675 182.021 425.991 181.595C425.313 181.169 424.77 180.599 424.362 179.885C423.96 179.165 423.759 178.37 423.759 177.5C423.759 176.84 423.876 176.225 424.11 175.655C424.344 175.079 424.665 174.575 425.073 174.143C425.487 173.705 425.967 173.363 426.513 173.117C427.059 172.871 427.641 172.748 428.259 172.748C429.087 172.748 429.84 172.961 430.518 173.387C431.202 173.813 431.745 174.386 432.147 175.106C432.555 175.826 432.759 176.624 432.759 177.5C432.759 178.154 432.642 178.766 432.408 179.336C432.174 179.906 431.85 180.41 431.436 180.848C431.028 181.28 430.551 181.619 430.005 181.865C429.465 182.111 428.883 182.234 428.259 182.234ZM428.259 180.722C428.823 180.722 429.33 180.575 429.78 180.281C430.236 179.981 430.593 179.588 430.851 179.102C431.115 178.61 431.247 178.076 431.247 177.5C431.247 176.912 431.112 176.372 430.842 175.88C430.578 175.388 430.221 174.995 429.771 174.701C429.321 174.407 428.817 174.26 428.259 174.26C427.695 174.26 427.188 174.41 426.738 174.71C426.288 175.004 425.931 175.397 425.667 175.889C425.403 176.381 425.271 176.918 425.271 177.5C425.271 178.1 425.406 178.646 425.676 179.138C425.946 179.624 426.309 180.011 426.765 180.299C427.221 180.581 427.719 180.722 428.259 180.722ZM442.204 176.402V182H440.692V176.735C440.692 176.279 440.581 175.865 440.359 175.493C440.137 175.121 439.84 174.827 439.468 174.611C439.096 174.389 438.682 174.278 438.226 174.278C437.776 174.278 437.362 174.389 436.984 174.611C436.612 174.827 436.315 175.121 436.093 175.493C435.871 175.865 435.76 176.279 435.76 176.735V182H434.248V173H435.76V174.125C436.078 173.705 436.48 173.372 436.966 173.126C437.452 172.874 437.98 172.748 438.55 172.748C439.222 172.748 439.834 172.913 440.386 173.243C440.944 173.567 441.385 174.005 441.709 174.557C442.039 175.109 442.204 175.724 442.204 176.402ZM446.749 182.171C446.263 182.153 445.789 182.063 445.327 181.901C444.871 181.733 444.469 181.508 444.121 181.226C443.779 180.938 443.53 180.608 443.374 180.236L444.67 179.678C444.76 179.882 444.922 180.074 445.156 180.254C445.39 180.434 445.66 180.578 445.966 180.686C446.272 180.794 446.581 180.848 446.893 180.848C447.223 180.848 447.532 180.797 447.82 180.695C448.108 180.593 448.342 180.443 448.522 180.245C448.708 180.041 448.801 179.798 448.801 179.516C448.801 179.216 448.699 178.982 448.495 178.814C448.297 178.64 448.045 178.505 447.739 178.409C447.439 178.307 447.133 178.211 446.821 178.121C446.203 177.965 445.651 177.779 445.165 177.563C444.679 177.341 444.295 177.062 444.013 176.726C443.737 176.384 443.599 175.949 443.599 175.421C443.599 174.863 443.752 174.38 444.058 173.972C444.37 173.564 444.778 173.249 445.282 173.027C445.786 172.805 446.326 172.694 446.902 172.694C447.628 172.694 448.291 172.85 448.891 173.162C449.491 173.474 449.938 173.897 450.232 174.431L449.017 175.142C448.915 174.926 448.759 174.737 448.549 174.575C448.339 174.407 448.099 174.275 447.829 174.179C447.559 174.083 447.283 174.032 447.001 174.026C446.653 174.014 446.326 174.059 446.02 174.161C445.72 174.263 445.477 174.419 445.291 174.629C445.111 174.833 445.021 175.088 445.021 175.394C445.021 175.694 445.117 175.922 445.309 176.078C445.507 176.234 445.762 176.36 446.074 176.456C446.392 176.546 446.737 176.651 447.109 176.771C447.655 176.945 448.165 177.146 448.639 177.374C449.113 177.602 449.494 177.887 449.782 178.229C450.076 178.571 450.22 178.994 450.214 179.498C450.214 180.05 450.049 180.533 449.719 180.947C449.389 181.355 448.96 181.667 448.432 181.883C447.91 182.099 447.349 182.195 446.749 182.171ZM55.04 209.234C54.212 209.234 53.456 209.021 52.772 208.595C52.094 208.169 51.551 207.599 51.143 206.885C50.741 206.165 50.54 205.37 50.54 204.5C50.54 203.84 50.657 203.225 50.891 202.655C51.125 202.079 51.446 201.575 51.854 201.143C52.268 200.705 52.748 200.363 53.294 200.117C53.84 199.871 54.422 199.748 55.04 199.748C55.718 199.748 56.339 199.886 56.903 200.162C57.473 200.432 57.959 200.81 58.361 201.296C58.769 201.782 59.072 202.346 59.27 202.988C59.474 203.63 59.549 204.317 59.495 205.049H52.151C52.223 205.559 52.391 206.015 52.655 206.417C52.919 206.813 53.255 207.128 53.663 207.362C54.077 207.596 54.536 207.716 55.04 207.722C55.58 207.722 56.069 207.584 56.507 207.308C56.945 207.026 57.299 206.642 57.569 206.156L59.108 206.516C58.748 207.314 58.205 207.968 57.479 208.478C56.753 208.982 55.94 209.234 55.04 209.234ZM52.106 203.861H57.974C57.926 203.357 57.764 202.898 57.488 202.484C57.212 202.064 56.861 201.728 56.435 201.476C56.009 201.224 55.544 201.098 55.04 201.098C54.536 201.098 54.074 201.221 53.654 201.467C53.234 201.713 52.886 202.046 52.61 202.466C52.34 202.88 52.172 203.345 52.106 203.861ZM63.1777 197.777V200H65.8147V201.512H63.1777V209H61.6657V201.512H60.5047V200H61.6657V197.777C61.6657 197.315 61.7767 196.898 61.9987 196.526C62.2267 196.148 62.5297 195.848 62.9077 195.626C63.2917 195.398 63.7117 195.284 64.1677 195.284C64.5037 195.284 64.8307 195.353 65.1487 195.491C65.4667 195.623 65.7487 195.821 65.9947 196.085L64.9147 197.156C64.8307 197.042 64.7197 196.955 64.5817 196.895C64.4497 196.829 64.3117 196.796 64.1677 196.796C63.8977 196.796 63.6637 196.892 63.4657 197.084C63.2737 197.276 63.1777 197.507 63.1777 197.777ZM69.5234 197.777V200H72.1604V201.512H69.5234V209H68.0114V201.512H66.8504V200H68.0114V197.777C68.0114 197.315 68.1224 196.898 68.3444 196.526C68.5724 196.148 68.8754 195.848 69.2534 195.626C69.6374 195.398 70.0574 195.284 70.5134 195.284C70.8494 195.284 71.1764 195.353 71.4944 195.491C71.8124 195.623 72.0944 195.821 72.3404 196.085L71.2604 197.156C71.1764 197.042 71.0654 196.955 70.9274 196.895C70.7954 196.829 70.6574 196.796 70.5134 196.796C70.2434 196.796 70.0094 196.892 69.8114 197.084C69.6194 197.276 69.5234 197.507 69.5234 197.777ZM77.3818 209.234C76.5538 209.234 75.7978 209.021 75.1138 208.595C74.4358 208.169 73.8928 207.599 73.4848 206.885C73.0828 206.165 72.8818 205.37 72.8818 204.5C72.8818 203.84 72.9988 203.225 73.2328 202.655C73.4668 202.079 73.7878 201.575 74.1958 201.143C74.6098 200.705 75.0898 200.363 75.6358 200.117C76.1818 199.871 76.7638 199.748 77.3818 199.748C78.2098 199.748 78.9628 199.961 79.6408 200.387C80.3248 200.813 80.8678 201.386 81.2698 202.106C81.6778 202.826 81.8818 203.624 81.8818 204.5C81.8818 205.154 81.7648 205.766 81.5308 206.336C81.2968 206.906 80.9728 207.41 80.5588 207.848C80.1508 208.28 79.6738 208.619 79.1278 208.865C78.5878 209.111 78.0058 209.234 77.3818 209.234ZM77.3818 207.722C77.9458 207.722 78.4528 207.575 78.9028 207.281C79.3588 206.981 79.7158 206.588 79.9738 206.102C80.2378 205.61 80.3698 205.076 80.3698 204.5C80.3698 203.912 80.2348 203.372 79.9648 202.88C79.7008 202.388 79.3438 201.995 78.8938 201.701C78.4438 201.407 77.9398 201.26 77.3818 201.26C76.8178 201.26 76.3108 201.41 75.8608 201.71C75.4108 202.004 75.0538 202.397 74.7898 202.889C74.5258 203.381 74.3938 203.918 74.3938 204.5C74.3938 205.1 74.5288 205.646 74.7988 206.138C75.0688 206.624 75.4318 207.011 75.8878 207.299C76.3438 207.581 76.8418 207.722 77.3818 207.722ZM83.371 209V200H84.883V201.125C85.201 200.705 85.603 200.372 86.089 200.126C86.575 199.874 87.103 199.748 87.673 199.748C88.021 199.748 88.357 199.793 88.681 199.883L88.069 201.395C87.823 201.317 87.583 201.278 87.349 201.278C86.899 201.278 86.485 201.389 86.107 201.611C85.735 201.827 85.438 202.121 85.216 202.493C84.994 202.865 84.883 203.279 84.883 203.735V209H83.371ZM94.6072 201.512H92.5642L92.5552 209H91.0432L91.0522 201.512H89.5042V200H91.0522L91.0432 197.174H92.5552L92.5642 200H94.6072V201.512ZM96.2206 209V195.5H97.7326V209H96.2206ZM103.767 209.234C102.939 209.234 102.183 209.021 101.499 208.595C100.821 208.169 100.278 207.599 99.8696 206.885C99.4676 206.165 99.2666 205.37 99.2666 204.5C99.2666 203.84 99.3836 203.225 99.6176 202.655C99.8516 202.079 100.173 201.575 100.581 201.143C100.995 200.705 101.475 200.363 102.021 200.117C102.567 199.871 103.149 199.748 103.767 199.748C104.445 199.748 105.066 199.886 105.63 200.162C106.2 200.432 106.686 200.81 107.088 201.296C107.496 201.782 107.799 202.346 107.997 202.988C108.201 203.63 108.276 204.317 108.222 205.049H100.878C100.95 205.559 101.118 206.015 101.382 206.417C101.646 206.813 101.982 207.128 102.39 207.362C102.804 207.596 103.263 207.716 103.767 207.722C104.307 207.722 104.796 207.584 105.234 207.308C105.672 207.026 106.026 206.642 106.296 206.156L107.835 206.516C107.475 207.314 106.932 207.968 106.206 208.478C105.48 208.982 104.667 209.234 103.767 209.234ZM100.833 203.861H106.701C106.653 203.357 106.491 202.898 106.215 202.484C105.939 202.064 105.588 201.728 105.162 201.476C104.736 201.224 104.271 201.098 103.767 201.098C103.263 201.098 102.801 201.221 102.381 201.467C101.961 201.713 101.613 202.046 101.337 202.466C101.067 202.88 100.899 203.345 100.833 203.861ZM112.518 209.171C112.032 209.153 111.558 209.063 111.096 208.901C110.64 208.733 110.238 208.508 109.89 208.226C109.548 207.938 109.299 207.608 109.143 207.236L110.439 206.678C110.529 206.882 110.691 207.074 110.925 207.254C111.159 207.434 111.429 207.578 111.735 207.686C112.041 207.794 112.35 207.848 112.662 207.848C112.992 207.848 113.301 207.797 113.589 207.695C113.877 207.593 114.111 207.443 114.291 207.245C114.477 207.041 114.57 206.798 114.57 206.516C114.57 206.216 114.468 205.982 114.264 205.814C114.066 205.64 113.814 205.505 113.508 205.409C113.208 205.307 112.902 205.211 112.59 205.121C111.972 204.965 111.42 204.779 110.934 204.563C110.448 204.341 110.064 204.062 109.782 203.726C109.506 203.384 109.368 202.949 109.368 202.421C109.368 201.863 109.521 201.38 109.827 200.972C110.139 200.564 110.547 200.249 111.051 200.027C111.555 199.805 112.095 199.694 112.671 199.694C113.397 199.694 114.06 199.85 114.66 200.162C115.26 200.474 115.707 200.897 116.001 201.431L114.786 202.142C114.684 201.926 114.528 201.737 114.318 201.575C114.108 201.407 113.868 201.275 113.598 201.179C113.328 201.083 113.052 201.032 112.77 201.026C112.422 201.014 112.095 201.059 111.789 201.161C111.489 201.263 111.246 201.419 111.06 201.629C110.88 201.833 110.79 202.088 110.79 202.394C110.79 202.694 110.886 202.922 111.078 203.078C111.276 203.234 111.531 203.36 111.843 203.456C112.161 203.546 112.506 203.651 112.878 203.771C113.424 203.945 113.934 204.146 114.408 204.374C114.882 204.602 115.263 204.887 115.551 205.229C115.845 205.571 115.989 205.994 115.983 206.498C115.983 207.05 115.818 207.533 115.488 207.947C115.158 208.355 114.729 208.667 114.201 208.883C113.679 209.099 113.118 209.195 112.518 209.171ZM120.27 209.171C119.784 209.153 119.31 209.063 118.848 208.901C118.392 208.733 117.99 208.508 117.642 208.226C117.3 207.938 117.051 207.608 116.895 207.236L118.191 206.678C118.281 206.882 118.443 207.074 118.677 207.254C118.911 207.434 119.181 207.578 119.487 207.686C119.793 207.794 120.102 207.848 120.414 207.848C120.744 207.848 121.053 207.797 121.341 207.695C121.629 207.593 121.863 207.443 122.043 207.245C122.229 207.041 122.322 206.798 122.322 206.516C122.322 206.216 122.22 205.982 122.016 205.814C121.818 205.64 121.566 205.505 121.26 205.409C120.96 205.307 120.654 205.211 120.342 205.121C119.724 204.965 119.172 204.779 118.686 204.563C118.2 204.341 117.816 204.062 117.534 203.726C117.258 203.384 117.12 202.949 117.12 202.421C117.12 201.863 117.273 201.38 117.579 200.972C117.891 200.564 118.299 200.249 118.803 200.027C119.307 199.805 119.847 199.694 120.423 199.694C121.149 199.694 121.812 199.85 122.412 200.162C123.012 200.474 123.459 200.897 123.753 201.431L122.538 202.142C122.436 201.926 122.28 201.737 122.07 201.575C121.86 201.407 121.62 201.275 121.35 201.179C121.08 201.083 120.804 201.032 120.522 201.026C120.174 201.014 119.847 201.059 119.541 201.161C119.241 201.263 118.998 201.419 118.812 201.629C118.632 201.833 118.542 202.088 118.542 202.394C118.542 202.694 118.638 202.922 118.83 203.078C119.028 203.234 119.283 203.36 119.595 203.456C119.913 203.546 120.258 203.651 120.63 203.771C121.176 203.945 121.686 204.146 122.16 204.374C122.634 204.602 123.015 204.887 123.303 205.229C123.597 205.571 123.741 205.994 123.735 206.498C123.735 207.05 123.57 207.533 123.24 207.947C122.91 208.355 122.481 208.667 121.953 208.883C121.431 209.099 120.87 209.195 120.27 209.171ZM125.277 209V195.5H126.789V209H125.277ZM134.765 200H136.367L131.444 213.5H129.842L131.471 209L128.24 200H129.896L132.227 206.921L134.765 200ZM137.971 209.234C137.743 209.234 137.548 209.153 137.386 208.991C137.23 208.829 137.152 208.631 137.152 208.397C137.152 208.175 137.23 207.983 137.386 207.821C137.548 207.659 137.743 207.578 137.971 207.578C138.205 207.578 138.403 207.659 138.565 207.821C138.727 207.983 138.808 208.175 138.808 208.397C138.808 208.631 138.727 208.829 138.565 208.991C138.403 209.153 138.205 209.234 137.971 209.234Z" fill="#999999"></path><defs><linearGradient id="paint0_linear_104_11624" x1="56.75" y1="136.5" x2="135.75" y2="44.5" gradientUnits="userSpaceOnUse"><stop stop-color="#A685FA"></stop><stop offset="0.323723" stop-color="#A685FA" stop-opacity="0"></stop></linearGradient><linearGradient id="paint1_linear_104_11624" x1="131.75" y1="39.5" x2="56.75" y2="132" gradientUnits="userSpaceOnUse"><stop stop-color="#A685FA"></stop><stop offset="0.576615" stop-color="#A685FA" stop-opacity="0"></stop></linearGradient><linearGradient id="paint2_linear_104_11624" x1="53.25" y1="63.5" x2="121.75" y2="122" gradientUnits="userSpaceOnUse"><stop stop-color="#A685FA"></stop><stop offset="0.323723" stop-color="#A685FA" stop-opacity="0"></stop></linearGradient><linearGradient id="paint3_linear_104_11624" x1="134.25" y1="136" x2="62.25" y2="85" gradientUnits="userSpaceOnUse"><stop stop-color="#A685FA"></stop><stop offset="0.576615" stop-color="#A685FA" stop-opacity="0"></stop></linearGradient></defs></svg>