<svg xmlns="http://www.w3.org/2000/svg" width="512" height="266" viewBox="0 0 512 266" fill="none"><rect x="0.5" y="0.5" width="511" height="265" rx="11.5" stroke="#262626"></rect><rect x="50.5" y="50.5" width="81" height="81" rx="40.5" stroke="url(#paint0_linear_104_11471)"></rect><rect x="50.5" y="50.5" width="81" height="81" rx="40.5" stroke="url(#paint1_linear_104_11471)"></rect><rect x="60.5" y="60.5" width="61" height="61" rx="30.5" stroke="url(#paint2_linear_104_11471)"></rect><rect x="60.5" y="60.5" width="61" height="61" rx="30.5" stroke="url(#paint3_linear_104_11471)"></rect><path d="M103.75 83.0313C103.75 86.8455 98.0416 89.9375 91 89.9375C83.9584 89.9375 78.25 86.8455 78.25 83.0313C78.25 79.217 83.9584 76.125 91 76.125C98.0416 76.125 103.75 79.217 103.75 83.0313Z" fill="#A685FA"></path><path d="M91 92.0625C94.804 92.0625 98.3532 91.2319 101.028 89.7832C102.005 89.2537 102.935 88.5978 103.714 87.822C103.738 87.9943 103.75 88.1682 103.75 88.3438C103.75 92.158 98.0416 95.25 91 95.25C83.9584 95.25 78.25 92.158 78.25 88.3438C78.25 88.1682 78.2621 87.9943 78.2858 87.822C79.0649 88.5978 79.9948 89.2537 80.9723 89.7832C83.6468 91.2319 87.196 92.0625 91 92.0625Z" fill="#A685FA"></path><path d="M91 97.375C94.804 97.375 98.3532 96.5444 101.028 95.0957C102.005 94.5662 102.935 93.9103 103.714 93.1345C103.738 93.3068 103.75 93.4807 103.75 93.6562C103.75 97.4705 98.0416 100.562 91 100.562C83.9584 100.562 78.25 97.4705 78.25 93.6562C78.25 93.4807 78.2621 93.3068 78.2858 93.1345C79.0649 93.9103 79.9948 94.5662 80.9723 95.0957C83.6468 96.5444 87.196 97.375 91 97.375Z" fill="#A685FA"></path><path d="M91 102.687C94.804 102.687 98.3532 101.857 101.028 100.408C102.005 99.8787 102.935 99.2228 103.714 98.447C103.738 98.6193 103.75 98.7932 103.75 98.9687C103.75 102.783 98.0416 105.875 91 105.875C83.9584 105.875 78.25 102.783 78.25 98.9687C78.25 98.7932 78.2621 98.6193 78.2858 98.447C79.0649 99.2228 79.9948 99.8787 80.9723 100.408C83.6468 101.857 87.196 102.687 91 102.687Z" fill="#A685FA"></path><path d="M153.44 99V82.2H156.14L163.856 94.488V82.2H166.352V99H163.652L155.936 86.712V99H153.44ZM174.353 99.312C173.249 99.312 172.241 99.028 171.329 98.46C170.425 97.892 169.701 97.132 169.157 96.18C168.621 95.22 168.353 94.16 168.353 93C168.353 92.12 168.509 91.3 168.821 90.54C169.133 89.772 169.561 89.1 170.105 88.524C170.657 87.94 171.297 87.484 172.025 87.156C172.753 86.828 173.529 86.664 174.353 86.664C175.273 86.664 176.117 86.856 176.885 87.24C177.653 87.616 178.309 88.14 178.853 88.812C179.397 89.476 179.797 90.244 180.053 91.116C180.309 91.98 180.385 92.9 180.281 93.876H171.029C171.133 94.428 171.333 94.928 171.629 95.376C171.933 95.816 172.317 96.164 172.781 96.42C173.253 96.676 173.777 96.808 174.353 96.816C174.961 96.816 175.513 96.664 176.009 96.36C176.513 96.056 176.925 95.636 177.245 95.1L179.777 95.688C179.297 96.752 178.573 97.624 177.605 98.304C176.637 98.976 175.553 99.312 174.353 99.312ZM170.945 91.968H177.761C177.681 91.392 177.477 90.872 177.149 90.408C176.829 89.936 176.425 89.564 175.937 89.292C175.457 89.012 174.929 88.872 174.353 88.872C173.785 88.872 173.257 89.008 172.769 89.28C172.289 89.552 171.889 89.924 171.569 90.396C171.257 90.86 171.049 91.384 170.945 91.968ZM191.377 87H193.873V99.312C193.873 100.136 193.697 100.896 193.345 101.592C193.001 102.288 192.533 102.888 191.941 103.392C191.349 103.904 190.669 104.3 189.901 104.58C189.141 104.86 188.345 105 187.513 105C186.673 105 185.865 104.82 185.089 104.46C184.313 104.108 183.629 103.628 183.037 103.02C182.453 102.412 182.017 101.724 181.729 100.956L184.021 99.924C184.181 100.42 184.437 100.86 184.789 101.244C185.149 101.628 185.565 101.932 186.037 102.156C186.517 102.38 187.009 102.492 187.513 102.492C188.009 102.492 188.485 102.412 188.941 102.252C189.405 102.1 189.817 101.884 190.177 101.604C190.545 101.324 190.837 100.988 191.053 100.596C191.269 100.204 191.377 99.776 191.377 99.312V97.284C190.985 97.892 190.481 98.384 189.865 98.76C189.249 99.128 188.533 99.312 187.717 99.312C186.869 99.312 186.069 99.148 185.317 98.82C184.565 98.492 183.905 98.04 183.337 97.464C182.769 96.88 182.325 96.208 182.005 95.448C181.685 94.688 181.525 93.872 181.525 93C181.525 92.128 181.685 91.312 182.005 90.552C182.325 89.784 182.769 89.112 183.337 88.536C183.905 87.952 184.565 87.496 185.317 87.168C186.069 86.84 186.869 86.676 187.717 86.676C188.533 86.676 189.249 86.864 189.865 87.24C190.481 87.608 190.985 88.1 191.377 88.716V87ZM187.741 96.9C188.437 96.9 189.045 96.724 189.565 96.372C190.085 96.012 190.489 95.536 190.777 94.944C191.065 94.352 191.209 93.704 191.209 93C191.209 92.28 191.061 91.628 190.765 91.044C190.477 90.452 190.073 89.98 189.553 89.628C189.033 89.268 188.429 89.088 187.741 89.088C187.069 89.088 186.453 89.264 185.893 89.616C185.341 89.968 184.901 90.44 184.573 91.032C184.245 91.624 184.081 92.28 184.081 93C184.081 93.72 184.245 94.376 184.573 94.968C184.909 95.56 185.353 96.032 185.905 96.384C186.465 96.728 187.077 96.9 187.741 96.9ZM201.822 99.312C200.718 99.312 199.71 99.028 198.798 98.46C197.894 97.892 197.17 97.132 196.626 96.18C196.09 95.22 195.822 94.16 195.822 93C195.822 92.12 195.978 91.3 196.29 90.54C196.602 89.772 197.03 89.1 197.574 88.524C198.126 87.94 198.766 87.484 199.494 87.156C200.222 86.828 200.998 86.664 201.822 86.664C202.926 86.664 203.93 86.948 204.834 87.516C205.746 88.084 206.47 88.848 207.006 89.808C207.55 90.768 207.822 91.832 207.822 93C207.822 93.872 207.666 94.688 207.354 95.448C207.042 96.208 206.61 96.88 206.058 97.464C205.514 98.04 204.878 98.492 204.15 98.82C203.43 99.148 202.654 99.312 201.822 99.312ZM201.822 96.816C202.486 96.816 203.082 96.64 203.61 96.288C204.138 95.936 204.554 95.472 204.858 94.896C205.17 94.312 205.326 93.68 205.326 93C205.326 92.304 205.166 91.664 204.846 91.08C204.534 90.496 204.114 90.032 203.586 89.688C203.058 89.336 202.47 89.16 201.822 89.16C201.166 89.16 200.57 89.336 200.034 89.688C199.506 90.04 199.086 90.508 198.774 91.092C198.47 91.676 198.318 92.312 198.318 93C198.318 93.712 198.478 94.356 198.798 94.932C199.118 95.508 199.542 95.968 200.07 96.312C200.606 96.648 201.19 96.816 201.822 96.816ZM216.026 89.496H213.506L213.494 99H210.998L211.01 89.496H209.102V87H211.01L210.998 83.232H213.494L213.506 87H216.026V89.496ZM218.01 87H220.506V99H218.01V87ZM219.282 85.26C218.898 85.26 218.578 85.136 218.322 84.888C218.066 84.64 217.938 84.328 217.938 83.952C217.938 83.584 218.066 83.276 218.322 83.028C218.578 82.772 218.894 82.644 219.27 82.644C219.638 82.644 219.95 82.772 220.206 83.028C220.462 83.276 220.59 83.584 220.59 83.952C220.59 84.328 220.462 84.64 220.206 84.888C219.958 85.136 219.65 85.26 219.282 85.26ZM232.503 87H234.999V99H232.491L232.395 97.26C232.043 97.876 231.567 98.372 230.967 98.748C230.367 99.124 229.659 99.312 228.843 99.312C227.963 99.312 227.135 99.148 226.359 98.82C225.583 98.484 224.899 98.02 224.307 97.428C223.723 96.836 223.267 96.156 222.939 95.388C222.611 94.612 222.447 93.78 222.447 92.892C222.447 92.036 222.607 91.232 222.927 90.48C223.247 89.72 223.691 89.056 224.259 88.488C224.827 87.92 225.483 87.476 226.227 87.156C226.979 86.828 227.783 86.664 228.639 86.664C229.511 86.664 230.279 86.864 230.943 87.264C231.615 87.656 232.171 88.16 232.611 88.776L232.503 87ZM228.783 96.9C229.487 96.9 230.103 96.728 230.631 96.384C231.159 96.032 231.567 95.56 231.855 94.968C232.151 94.376 232.299 93.72 232.299 93C232.299 92.272 232.151 91.612 231.855 91.02C231.559 90.428 231.147 89.96 230.619 89.616C230.099 89.264 229.487 89.088 228.783 89.088C228.087 89.088 227.451 89.264 226.875 89.616C226.299 89.968 225.843 90.44 225.507 91.032C225.171 91.624 225.003 92.28 225.003 93C225.003 93.728 225.175 94.388 225.519 94.98C225.871 95.564 226.331 96.032 226.899 96.384C227.475 96.728 228.103 96.9 228.783 96.9ZM243.729 89.496H241.209L241.197 99H238.701L238.713 89.496H236.805V87H238.713L238.701 83.232H241.197L241.209 87H243.729V89.496ZM245.713 87H248.209V99H245.713V87ZM246.985 85.26C246.601 85.26 246.281 85.136 246.025 84.888C245.769 84.64 245.641 84.328 245.641 83.952C245.641 83.584 245.769 83.276 246.025 83.028C246.281 82.772 246.597 82.644 246.973 82.644C247.341 82.644 247.653 82.772 247.909 83.028C248.165 83.276 248.293 83.584 248.293 83.952C248.293 84.328 248.165 84.64 247.909 84.888C247.661 85.136 247.353 85.26 246.985 85.26ZM256.15 99.312C255.046 99.312 254.038 99.028 253.126 98.46C252.222 97.892 251.498 97.132 250.954 96.18C250.418 95.22 250.15 94.16 250.15 93C250.15 92.12 250.306 91.3 250.618 90.54C250.93 89.772 251.358 89.1 251.902 88.524C252.454 87.94 253.094 87.484 253.822 87.156C254.55 86.828 255.326 86.664 256.15 86.664C257.254 86.664 258.258 86.948 259.162 87.516C260.074 88.084 260.798 88.848 261.334 89.808C261.878 90.768 262.15 91.832 262.15 93C262.15 93.872 261.994 94.688 261.682 95.448C261.37 96.208 260.938 96.88 260.386 97.464C259.842 98.04 259.206 98.492 258.478 98.82C257.758 99.148 256.982 99.312 256.15 99.312ZM256.15 96.816C256.814 96.816 257.41 96.64 257.938 96.288C258.466 95.936 258.882 95.472 259.186 94.896C259.498 94.312 259.654 93.68 259.654 93C259.654 92.304 259.494 91.664 259.174 91.08C258.862 90.496 258.442 90.032 257.914 89.688C257.386 89.336 256.798 89.16 256.15 89.16C255.494 89.16 254.898 89.336 254.362 89.688C253.834 90.04 253.414 90.508 253.102 91.092C252.798 91.676 252.646 92.312 252.646 93C252.646 93.712 252.806 94.356 253.126 94.932C253.446 95.508 253.87 95.968 254.398 96.312C254.934 96.648 255.518 96.816 256.15 96.816ZM274.888 91.476V99H272.392V92.088C272.392 91.552 272.26 91.064 271.996 90.624C271.74 90.184 271.392 89.836 270.952 89.58C270.52 89.316 270.032 89.184 269.488 89.184C268.96 89.184 268.476 89.316 268.036 89.58C267.596 89.836 267.244 90.184 266.98 90.624C266.716 91.064 266.584 91.552 266.584 92.088V99H264.088V87H266.584V88.272C267 87.776 267.512 87.384 268.12 87.096C268.728 86.808 269.384 86.664 270.088 86.664C270.976 86.664 271.784 86.88 272.512 87.312C273.24 87.744 273.816 88.324 274.24 89.052C274.672 89.78 274.888 90.588 274.888 91.476ZM286.745 99L282.449 82.2H285.017L288.161 94.524L291.293 82.2H293.561L296.705 94.524L299.849 82.2H302.417L298.145 99H295.277L292.433 87.876L289.589 99H286.745ZM303.768 87H306.264V99H303.768V87ZM305.04 85.26C304.656 85.26 304.336 85.136 304.08 84.888C303.824 84.64 303.696 84.328 303.696 83.952C303.696 83.584 303.824 83.276 304.08 83.028C304.336 82.772 304.652 82.644 305.028 82.644C305.396 82.644 305.708 82.772 305.964 83.028C306.22 83.276 306.348 83.584 306.348 83.952C306.348 84.328 306.22 84.64 305.964 84.888C305.716 85.136 305.408 85.26 305.04 85.26ZM318.903 89.496L312.231 96.504H318.903V99H308.655V96.504L315.327 89.496H308.655V87H318.903V89.496ZM330.424 87H332.92V99H330.412L330.316 97.26C329.964 97.876 329.488 98.372 328.888 98.748C328.288 99.124 327.58 99.312 326.764 99.312C325.884 99.312 325.056 99.148 324.28 98.82C323.504 98.484 322.82 98.02 322.228 97.428C321.644 96.836 321.188 96.156 320.86 95.388C320.532 94.612 320.368 93.78 320.368 92.892C320.368 92.036 320.528 91.232 320.848 90.48C321.168 89.72 321.612 89.056 322.18 88.488C322.748 87.92 323.404 87.476 324.148 87.156C324.9 86.828 325.704 86.664 326.56 86.664C327.432 86.664 328.2 86.864 328.864 87.264C329.536 87.656 330.092 88.16 330.532 88.776L330.424 87ZM326.704 96.9C327.408 96.9 328.024 96.728 328.552 96.384C329.08 96.032 329.488 95.56 329.776 94.968C330.072 94.376 330.22 93.72 330.22 93C330.22 92.272 330.072 91.612 329.776 91.02C329.48 90.428 329.068 89.96 328.54 89.616C328.02 89.264 327.408 89.088 326.704 89.088C326.008 89.088 325.372 89.264 324.796 89.616C324.22 89.968 323.764 90.44 323.428 91.032C323.092 91.624 322.924 92.28 322.924 93C322.924 93.728 323.096 94.388 323.44 94.98C323.792 95.564 324.252 96.032 324.82 96.384C325.396 96.728 326.024 96.9 326.704 96.9ZM335.315 99V87H337.811V88.272C338.227 87.776 338.739 87.384 339.347 87.096C339.955 86.808 340.611 86.664 341.315 86.664C341.763 86.664 342.207 86.724 342.647 86.844L341.651 89.364C341.339 89.244 341.027 89.184 340.715 89.184C340.187 89.184 339.703 89.316 339.263 89.58C338.823 89.836 338.471 90.184 338.207 90.624C337.943 91.064 337.811 91.552 337.811 92.088V99H335.315ZM352.819 81H355.315V99H352.819V97.236C352.427 97.86 351.915 98.364 351.283 98.748C350.651 99.124 349.911 99.312 349.063 99.312C348.191 99.312 347.375 99.148 346.615 98.82C345.855 98.492 345.183 98.04 344.599 97.464C344.023 96.88 343.571 96.208 343.243 95.448C342.915 94.688 342.751 93.872 342.751 93C342.751 92.128 342.915 91.312 343.243 90.552C343.571 89.784 344.023 89.112 344.599 88.536C345.183 87.952 345.855 87.496 346.615 87.168C347.375 86.84 348.191 86.676 349.063 86.676C349.911 86.676 350.651 86.868 351.283 87.252C351.915 87.628 352.427 88.124 352.819 88.74V81ZM349.087 96.9C349.791 96.9 350.407 96.728 350.935 96.384C351.463 96.032 351.871 95.56 352.159 94.968C352.455 94.376 352.603 93.72 352.603 93C352.603 92.272 352.455 91.612 352.159 91.02C351.863 90.428 351.451 89.96 350.923 89.616C350.403 89.264 349.791 89.088 349.087 89.088C348.391 89.088 347.755 89.264 347.179 89.616C346.611 89.968 346.155 90.44 345.811 91.032C345.475 91.624 345.307 92.28 345.307 93C345.307 93.728 345.479 94.388 345.823 94.98C346.175 95.564 346.635 96.032 347.203 96.384C347.779 96.728 348.407 96.9 349.087 96.9ZM358.19 99V87H360.686V88.272C361.102 87.776 361.614 87.384 362.222 87.096C362.83 86.808 363.486 86.664 364.19 86.664C364.638 86.664 365.082 86.724 365.522 86.844L364.526 89.364C364.214 89.244 363.902 89.184 363.59 89.184C363.062 89.184 362.578 89.316 362.138 89.58C361.698 89.836 361.346 90.184 361.082 90.624C360.818 91.064 360.686 91.552 360.686 92.088V99H358.19ZM375.152 87H377.816L371.24 105H368.588L370.76 99L366.452 87H369.176L372.008 95.58L375.152 87Z" fill="white"></path><path d="M51.08 182V169.4H52.718L59.009 179.264V169.4H60.521V182H58.892L52.592 172.136V182H51.08ZM66.5537 182.234C65.7257 182.234 64.9697 182.021 64.2857 181.595C63.6077 181.169 63.0647 180.599 62.6567 179.885C62.2547 179.165 62.0537 178.37 62.0537 177.5C62.0537 176.84 62.1707 176.225 62.4047 175.655C62.6387 175.079 62.9597 174.575 63.3677 174.143C63.7817 173.705 64.2617 173.363 64.8077 173.117C65.3537 172.871 65.9357 172.748 66.5537 172.748C67.2317 172.748 67.8527 172.886 68.4167 173.162C68.9867 173.432 69.4727 173.81 69.8747 174.296C70.2827 174.782 70.5857 175.346 70.7837 175.988C70.9877 176.63 71.0627 177.317 71.0087 178.049H63.6647C63.7367 178.559 63.9047 179.015 64.1687 179.417C64.4327 179.813 64.7687 180.128 65.1767 180.362C65.5907 180.596 66.0497 180.716 66.5537 180.722C67.0937 180.722 67.5827 180.584 68.0207 180.308C68.4587 180.026 68.8127 179.642 69.0827 179.156L70.6217 179.516C70.2617 180.314 69.7187 180.968 68.9927 181.478C68.2667 181.982 67.4537 182.234 66.5537 182.234ZM63.6197 176.861H69.4877C69.4397 176.357 69.2777 175.898 69.0017 175.484C68.7257 175.064 68.3747 174.728 67.9487 174.476C67.5227 174.224 67.0577 174.098 66.5537 174.098C66.0497 174.098 65.5877 174.221 65.1677 174.467C64.7477 174.713 64.3997 175.046 64.1237 175.466C63.8537 175.88 63.6857 176.345 63.6197 176.861ZM79.5016 173H81.0136V182.288C81.0136 182.882 80.8846 183.434 80.6266 183.944C80.3746 184.46 80.0326 184.907 79.6006 185.285C79.1686 185.669 78.6766 185.966 78.1246 186.176C77.5726 186.392 76.9966 186.5 76.3966 186.5C75.7726 186.5 75.1696 186.359 74.5876 186.077C74.0056 185.801 73.4956 185.429 73.0576 184.961C72.6256 184.499 72.3136 183.98 72.1216 183.404L73.5076 182.774C73.6216 183.188 73.8256 183.56 74.1196 183.89C74.4196 184.226 74.7676 184.49 75.1636 184.682C75.5656 184.88 75.9766 184.979 76.3966 184.979C76.7926 184.979 77.1736 184.91 77.5396 184.772C77.9116 184.634 78.2446 184.442 78.5386 184.196C78.8386 183.956 79.0726 183.671 79.2406 183.341C79.4146 183.017 79.5016 182.666 79.5016 182.288V180.497C79.1956 181.013 78.7906 181.433 78.2866 181.757C77.7886 182.075 77.2066 182.234 76.5406 182.234C75.9046 182.234 75.3076 182.111 74.7496 181.865C74.1916 181.619 73.7026 181.28 73.2826 180.848C72.8626 180.41 72.5326 179.906 72.2926 179.336C72.0526 178.766 71.9326 178.154 71.9326 177.5C71.9326 176.846 72.0526 176.234 72.2926 175.664C72.5326 175.088 72.8626 174.584 73.2826 174.152C73.7026 173.714 74.1916 173.372 74.7496 173.126C75.3076 172.88 75.9046 172.757 76.5406 172.757C77.2066 172.757 77.7886 172.916 78.2866 173.234C78.7906 173.552 79.1956 173.972 79.5016 174.494V173ZM76.5496 180.767C77.1316 180.767 77.6356 180.617 78.0616 180.317C78.4936 180.017 78.8266 179.618 79.0606 179.12C79.2946 178.622 79.4116 178.082 79.4116 177.5C79.4116 176.9 79.2916 176.354 79.0516 175.862C78.8176 175.364 78.4846 174.968 78.0526 174.674C77.6266 174.374 77.1256 174.224 76.5496 174.224C75.9856 174.224 75.4696 174.371 75.0016 174.665C74.5336 174.959 74.1616 175.355 73.8856 175.853C73.6156 176.345 73.4806 176.894 73.4806 177.5C73.4806 178.106 73.6186 178.658 73.8946 179.156C74.1766 179.648 74.5486 180.041 75.0106 180.335C75.4786 180.623 75.9916 180.767 76.5496 180.767ZM87.0146 182.234C86.1866 182.234 85.4306 182.021 84.7466 181.595C84.0686 181.169 83.5256 180.599 83.1176 179.885C82.7156 179.165 82.5146 178.37 82.5146 177.5C82.5146 176.84 82.6316 176.225 82.8656 175.655C83.0996 175.079 83.4206 174.575 83.8286 174.143C84.2426 173.705 84.7226 173.363 85.2686 173.117C85.8146 172.871 86.3966 172.748 87.0146 172.748C87.8426 172.748 88.5956 172.961 89.2736 173.387C89.9576 173.813 90.5006 174.386 90.9026 175.106C91.3106 175.826 91.5146 176.624 91.5146 177.5C91.5146 178.154 91.3976 178.766 91.1636 179.336C90.9296 179.906 90.6056 180.41 90.1916 180.848C89.7836 181.28 89.3066 181.619 88.7606 181.865C88.2206 182.111 87.6386 182.234 87.0146 182.234ZM87.0146 180.722C87.5786 180.722 88.0856 180.575 88.5356 180.281C88.9916 179.981 89.3486 179.588 89.6066 179.102C89.8706 178.61 90.0026 178.076 90.0026 177.5C90.0026 176.912 89.8676 176.372 89.5976 175.88C89.3336 175.388 88.9766 174.995 88.5266 174.701C88.0766 174.407 87.5726 174.26 87.0146 174.26C86.4506 174.26 85.9436 174.41 85.4936 174.71C85.0436 175.004 84.6866 175.397 84.4226 175.889C84.1586 176.381 84.0266 176.918 84.0266 177.5C84.0266 178.1 84.1616 178.646 84.4316 179.138C84.7016 179.624 85.0646 180.011 85.5206 180.299C85.9766 180.581 86.4746 180.722 87.0146 180.722ZM97.5604 174.512H95.5174L95.5084 182H93.9964L94.0054 174.512H92.4574V173H94.0054L93.9964 170.174H95.5084L95.5174 173H97.5604V174.512ZM99.0859 173H100.598V182H99.0859V173ZM99.8599 171.533C99.6199 171.533 99.4189 171.455 99.2569 171.299C99.0949 171.143 99.0139 170.948 99.0139 170.714C99.0139 170.48 99.0949 170.285 99.2569 170.129C99.4189 169.973 99.6169 169.895 99.8509 169.895C100.085 169.895 100.283 169.973 100.445 170.129C100.607 170.285 100.688 170.48 100.688 170.714C100.688 170.948 100.607 171.143 100.445 171.299C100.289 171.455 100.094 171.533 99.8599 171.533ZM109.873 173H111.385V182H109.873L109.81 180.479C109.528 181.001 109.138 181.424 108.64 181.748C108.148 182.072 107.56 182.234 106.876 182.234C106.216 182.234 105.598 182.111 105.022 181.865C104.446 181.613 103.936 181.268 103.492 180.83C103.054 180.386 102.712 179.876 102.466 179.3C102.22 178.724 102.097 178.103 102.097 177.437C102.097 176.795 102.217 176.189 102.457 175.619C102.697 175.049 103.03 174.551 103.456 174.125C103.888 173.693 104.386 173.357 104.95 173.117C105.514 172.871 106.12 172.748 106.768 172.748C107.476 172.748 108.097 172.916 108.631 173.252C109.165 173.582 109.597 174.011 109.927 174.539L109.873 173ZM106.849 180.767C107.443 180.767 107.956 180.623 108.388 180.335C108.826 180.041 109.162 179.645 109.396 179.147C109.636 178.649 109.756 178.1 109.756 177.5C109.756 176.888 109.636 176.336 109.396 175.844C109.156 175.346 108.817 174.953 108.379 174.665C107.947 174.371 107.437 174.224 106.849 174.224C106.255 174.224 105.715 174.371 105.229 174.665C104.743 174.959 104.356 175.355 104.068 175.853C103.786 176.345 103.645 176.894 103.645 177.5C103.645 178.106 103.792 178.658 104.086 179.156C104.38 179.648 104.77 180.041 105.256 180.335C105.742 180.623 106.273 180.767 106.849 180.767ZM117.846 174.512H115.803L115.794 182H114.282L114.291 174.512H112.743V173H114.291L114.282 170.174H115.794L115.803 173H117.846V174.512ZM119.371 173H120.883V182H119.371V173ZM120.145 171.533C119.905 171.533 119.704 171.455 119.542 171.299C119.38 171.143 119.299 170.948 119.299 170.714C119.299 170.48 119.38 170.285 119.542 170.129C119.704 169.973 119.902 169.895 120.136 169.895C120.37 169.895 120.568 169.973 120.73 170.129C120.892 170.285 120.973 170.48 120.973 170.714C120.973 170.948 120.892 171.143 120.73 171.299C120.574 171.455 120.379 171.533 120.145 171.533ZM130.966 176.402V182H129.454V176.735C129.454 176.279 129.343 175.865 129.121 175.493C128.899 175.121 128.602 174.827 128.23 174.611C127.858 174.389 127.444 174.278 126.988 174.278C126.538 174.278 126.124 174.389 125.746 174.611C125.374 174.827 125.077 175.121 124.855 175.493C124.633 175.865 124.522 176.279 124.522 176.735V182H123.01V173H124.522V174.125C124.84 173.705 125.242 173.372 125.728 173.126C126.214 172.874 126.742 172.748 127.312 172.748C127.984 172.748 128.596 172.913 129.148 173.243C129.706 173.567 130.147 174.005 130.471 174.557C130.801 175.109 130.966 175.724 130.966 176.402ZM139.619 173H141.131V182.288C141.131 182.882 141.002 183.434 140.744 183.944C140.492 184.46 140.15 184.907 139.718 185.285C139.286 185.669 138.794 185.966 138.242 186.176C137.69 186.392 137.114 186.5 136.514 186.5C135.89 186.5 135.287 186.359 134.705 186.077C134.123 185.801 133.613 185.429 133.175 184.961C132.743 184.499 132.431 183.98 132.239 183.404L133.625 182.774C133.739 183.188 133.943 183.56 134.237 183.89C134.537 184.226 134.885 184.49 135.281 184.682C135.683 184.88 136.094 184.979 136.514 184.979C136.91 184.979 137.291 184.91 137.657 184.772C138.029 184.634 138.362 184.442 138.656 184.196C138.956 183.956 139.19 183.671 139.358 183.341C139.532 183.017 139.619 182.666 139.619 182.288V180.497C139.313 181.013 138.908 181.433 138.404 181.757C137.906 182.075 137.324 182.234 136.658 182.234C136.022 182.234 135.425 182.111 134.867 181.865C134.309 181.619 133.82 181.28 133.4 180.848C132.98 180.41 132.65 179.906 132.41 179.336C132.17 178.766 132.05 178.154 132.05 177.5C132.05 176.846 132.17 176.234 132.41 175.664C132.65 175.088 132.98 174.584 133.4 174.152C133.82 173.714 134.309 173.372 134.867 173.126C135.425 172.88 136.022 172.757 136.658 172.757C137.324 172.757 137.906 172.916 138.404 173.234C138.908 173.552 139.313 173.972 139.619 174.494V173ZM136.667 180.767C137.249 180.767 137.753 180.617 138.179 180.317C138.611 180.017 138.944 179.618 139.178 179.12C139.412 178.622 139.529 178.082 139.529 177.5C139.529 176.9 139.409 176.354 139.169 175.862C138.935 175.364 138.602 174.968 138.17 174.674C137.744 174.374 137.243 174.224 136.667 174.224C136.103 174.224 135.587 174.371 135.119 174.665C134.651 174.959 134.279 175.355 134.003 175.853C133.733 176.345 133.598 176.894 133.598 177.5C133.598 178.106 133.736 178.658 134.012 179.156C134.294 179.648 134.666 180.041 135.128 180.335C135.596 180.623 136.109 180.767 136.667 180.767ZM152.281 174.512H150.238L150.229 182H148.717L148.726 174.512H147.178V173H148.726L148.717 170.174H150.229L150.238 173H152.281V174.512ZM161.85 176.402V182H160.338V176.735C160.338 176.279 160.227 175.865 160.005 175.493C159.783 175.121 159.486 174.827 159.114 174.611C158.742 174.389 158.328 174.278 157.872 174.278C157.422 174.278 157.008 174.389 156.63 174.611C156.258 174.827 155.961 175.121 155.739 175.493C155.517 175.865 155.406 176.279 155.406 176.735V182H153.894V168.5H155.406V174.125C155.724 173.705 156.126 173.372 156.612 173.126C157.098 172.874 157.626 172.748 158.196 172.748C158.868 172.748 159.48 172.913 160.032 173.243C160.59 173.567 161.031 174.005 161.355 174.557C161.685 175.109 161.85 175.724 161.85 176.402ZM167.435 182.234C166.607 182.234 165.851 182.021 165.167 181.595C164.489 181.169 163.946 180.599 163.538 179.885C163.136 179.165 162.935 178.37 162.935 177.5C162.935 176.84 163.052 176.225 163.286 175.655C163.52 175.079 163.841 174.575 164.249 174.143C164.663 173.705 165.143 173.363 165.689 173.117C166.235 172.871 166.817 172.748 167.435 172.748C168.113 172.748 168.734 172.886 169.298 173.162C169.868 173.432 170.354 173.81 170.756 174.296C171.164 174.782 171.467 175.346 171.665 175.988C171.869 176.63 171.944 177.317 171.89 178.049H164.546C164.618 178.559 164.786 179.015 165.05 179.417C165.314 179.813 165.65 180.128 166.058 180.362C166.472 180.596 166.931 180.716 167.435 180.722C167.975 180.722 168.464 180.584 168.902 180.308C169.34 180.026 169.694 179.642 169.964 179.156L171.503 179.516C171.143 180.314 170.6 180.968 169.874 181.478C169.148 181.982 168.335 182.234 167.435 182.234ZM164.501 176.861H170.369C170.321 176.357 170.159 175.898 169.883 175.484C169.607 175.064 169.256 174.728 168.83 174.476C168.404 174.224 167.939 174.098 167.435 174.098C166.931 174.098 166.469 174.221 166.049 174.467C165.629 174.713 165.281 175.046 165.005 175.466C164.735 175.88 164.567 176.345 164.501 176.861ZM182.407 172.748C183.283 172.748 184.078 172.961 184.792 173.387C185.512 173.813 186.085 174.386 186.511 175.106C186.937 175.82 187.15 176.615 187.15 177.491C187.15 178.145 187.027 178.76 186.781 179.336C186.535 179.906 186.193 180.41 185.755 180.848C185.323 181.28 184.819 181.619 184.243 181.865C183.673 182.111 183.061 182.234 182.407 182.234C181.711 182.234 181.105 182.072 180.589 181.748C180.079 181.418 179.671 180.989 179.365 180.461V182H177.853V168.5H179.365V174.521C179.671 173.993 180.079 173.567 180.589 173.243C181.105 172.913 181.711 172.748 182.407 172.748ZM182.389 180.758C182.983 180.758 183.523 180.611 184.009 180.317C184.495 180.023 184.882 179.63 185.17 179.138C185.458 178.64 185.602 178.091 185.602 177.491C185.602 176.879 185.455 176.327 185.161 175.835C184.867 175.337 184.477 174.944 183.991 174.656C183.505 174.362 182.971 174.215 182.389 174.215C181.801 174.215 181.288 174.362 180.85 174.656C180.418 174.95 180.082 175.346 179.842 175.844C179.608 176.342 179.491 176.891 179.491 177.491C179.491 178.097 179.608 178.649 179.842 179.147C180.082 179.639 180.421 180.032 180.859 180.326C181.297 180.614 181.807 180.758 182.389 180.758ZM192.554 182.234C191.726 182.234 190.97 182.021 190.286 181.595C189.608 181.169 189.065 180.599 188.657 179.885C188.255 179.165 188.054 178.37 188.054 177.5C188.054 176.84 188.171 176.225 188.405 175.655C188.639 175.079 188.96 174.575 189.368 174.143C189.782 173.705 190.262 173.363 190.808 173.117C191.354 172.871 191.936 172.748 192.554 172.748C193.232 172.748 193.853 172.886 194.417 173.162C194.987 173.432 195.473 173.81 195.875 174.296C196.283 174.782 196.586 175.346 196.784 175.988C196.988 176.63 197.063 177.317 197.009 178.049H189.665C189.737 178.559 189.905 179.015 190.169 179.417C190.433 179.813 190.769 180.128 191.177 180.362C191.591 180.596 192.05 180.716 192.554 180.722C193.094 180.722 193.583 180.584 194.021 180.308C194.459 180.026 194.813 179.642 195.083 179.156L196.622 179.516C196.262 180.314 195.719 180.968 194.993 181.478C194.267 181.982 193.454 182.234 192.554 182.234ZM189.62 176.861H195.488C195.44 176.357 195.278 175.898 195.002 175.484C194.726 175.064 194.375 174.728 193.949 174.476C193.523 174.224 193.058 174.098 192.554 174.098C192.05 174.098 191.588 174.221 191.168 174.467C190.748 174.713 190.4 175.046 190.124 175.466C189.854 175.88 189.686 176.345 189.62 176.861ZM201.305 182.171C200.819 182.153 200.345 182.063 199.883 181.901C199.427 181.733 199.025 181.508 198.677 181.226C198.335 180.938 198.086 180.608 197.93 180.236L199.226 179.678C199.316 179.882 199.478 180.074 199.712 180.254C199.946 180.434 200.216 180.578 200.522 180.686C200.828 180.794 201.137 180.848 201.449 180.848C201.779 180.848 202.088 180.797 202.376 180.695C202.664 180.593 202.898 180.443 203.078 180.245C203.264 180.041 203.357 179.798 203.357 179.516C203.357 179.216 203.255 178.982 203.051 178.814C202.853 178.64 202.601 178.505 202.295 178.409C201.995 178.307 201.689 178.211 201.377 178.121C200.759 177.965 200.207 177.779 199.721 177.563C199.235 177.341 198.851 177.062 198.569 176.726C198.293 176.384 198.155 175.949 198.155 175.421C198.155 174.863 198.308 174.38 198.614 173.972C198.926 173.564 199.334 173.249 199.838 173.027C200.342 172.805 200.882 172.694 201.458 172.694C202.184 172.694 202.847 172.85 203.447 173.162C204.047 173.474 204.494 173.897 204.788 174.431L203.573 175.142C203.471 174.926 203.315 174.737 203.105 174.575C202.895 174.407 202.655 174.275 202.385 174.179C202.115 174.083 201.839 174.032 201.557 174.026C201.209 174.014 200.882 174.059 200.576 174.161C200.276 174.263 200.033 174.419 199.847 174.629C199.667 174.833 199.577 175.088 199.577 175.394C199.577 175.694 199.673 175.922 199.865 176.078C200.063 176.234 200.318 176.36 200.63 176.456C200.948 176.546 201.293 176.651 201.665 176.771C202.211 176.945 202.721 177.146 203.195 177.374C203.669 177.602 204.05 177.887 204.338 178.229C204.632 178.571 204.776 178.994 204.77 179.498C204.77 180.05 204.605 180.533 204.275 180.947C203.945 181.355 203.516 181.667 202.988 181.883C202.466 182.099 201.905 182.195 201.305 182.171ZM210.974 174.512H208.931L208.922 182H207.41L207.419 174.512H205.871V173H207.419L207.41 170.174H208.922L208.931 173H210.974V174.512ZM224.157 168.5H225.669V182H224.157V180.47C223.851 180.998 223.44 181.424 222.924 181.748C222.408 182.072 221.802 182.234 221.106 182.234C220.452 182.234 219.84 182.111 219.27 181.865C218.7 181.619 218.196 181.28 217.758 180.848C217.326 180.41 216.987 179.906 216.741 179.336C216.495 178.766 216.372 178.154 216.372 177.5C216.372 176.846 216.495 176.234 216.741 175.664C216.987 175.088 217.326 174.584 217.758 174.152C218.196 173.714 218.7 173.372 219.27 173.126C219.84 172.88 220.452 172.757 221.106 172.757C221.802 172.757 222.408 172.919 222.924 173.243C223.44 173.567 223.851 173.993 224.157 174.521V168.5ZM221.124 180.767C221.718 180.767 222.231 180.623 222.663 180.335C223.101 180.041 223.437 179.645 223.671 179.147C223.911 178.649 224.031 178.1 224.031 177.5C224.031 176.888 223.911 176.336 223.671 175.844C223.431 175.346 223.092 174.953 222.654 174.665C222.222 174.371 221.712 174.224 221.124 174.224C220.53 174.224 219.99 174.371 219.504 174.665C219.024 174.959 218.64 175.355 218.352 175.853C218.064 176.345 217.92 176.894 217.92 177.5C217.92 178.106 218.067 178.658 218.361 179.156C218.655 179.648 219.045 180.041 219.531 180.335C220.017 180.623 220.548 180.767 221.124 180.767ZM231.7 182.234C230.872 182.234 230.116 182.021 229.432 181.595C228.754 181.169 228.211 180.599 227.803 179.885C227.401 179.165 227.2 178.37 227.2 177.5C227.2 176.84 227.317 176.225 227.551 175.655C227.785 175.079 228.106 174.575 228.514 174.143C228.928 173.705 229.408 173.363 229.954 173.117C230.5 172.871 231.082 172.748 231.7 172.748C232.378 172.748 232.999 172.886 233.563 173.162C234.133 173.432 234.619 173.81 235.021 174.296C235.429 174.782 235.732 175.346 235.93 175.988C236.134 176.63 236.209 177.317 236.155 178.049H228.811C228.883 178.559 229.051 179.015 229.315 179.417C229.579 179.813 229.915 180.128 230.323 180.362C230.737 180.596 231.196 180.716 231.7 180.722C232.24 180.722 232.729 180.584 233.167 180.308C233.605 180.026 233.959 179.642 234.229 179.156L235.768 179.516C235.408 180.314 234.865 180.968 234.139 181.478C233.413 181.982 232.6 182.234 231.7 182.234ZM228.766 176.861H234.634C234.586 176.357 234.424 175.898 234.148 175.484C233.872 175.064 233.521 174.728 233.095 174.476C232.669 174.224 232.204 174.098 231.7 174.098C231.196 174.098 230.734 174.221 230.314 174.467C229.894 174.713 229.546 175.046 229.27 175.466C229 175.88 228.832 176.345 228.766 176.861ZM244.855 173H246.367V182H244.855L244.792 180.479C244.51 181.001 244.12 181.424 243.622 181.748C243.13 182.072 242.542 182.234 241.858 182.234C241.198 182.234 240.58 182.111 240.004 181.865C239.428 181.613 238.918 181.268 238.474 180.83C238.036 180.386 237.694 179.876 237.448 179.3C237.202 178.724 237.079 178.103 237.079 177.437C237.079 176.795 237.199 176.189 237.439 175.619C237.679 175.049 238.012 174.551 238.438 174.125C238.87 173.693 239.368 173.357 239.932 173.117C240.496 172.871 241.102 172.748 241.75 172.748C242.458 172.748 243.079 172.916 243.613 173.252C244.147 173.582 244.579 174.011 244.909 174.539L244.855 173ZM241.831 180.767C242.425 180.767 242.938 180.623 243.37 180.335C243.808 180.041 244.144 179.645 244.378 179.147C244.618 178.649 244.738 178.1 244.738 177.5C244.738 176.888 244.618 176.336 244.378 175.844C244.138 175.346 243.799 174.953 243.361 174.665C242.929 174.371 242.419 174.224 241.831 174.224C241.237 174.224 240.697 174.371 240.211 174.665C239.725 174.959 239.338 175.355 239.05 175.853C238.768 176.345 238.627 176.894 238.627 177.5C238.627 178.106 238.774 178.658 239.068 179.156C239.362 179.648 239.752 180.041 240.238 180.335C240.724 180.623 241.255 180.767 241.831 180.767ZM248.271 182V168.5H249.783V182H248.271ZM256.269 173H257.781V182H256.269V173ZM257.043 171.533C256.803 171.533 256.602 171.455 256.44 171.299C256.278 171.143 256.197 170.948 256.197 170.714C256.197 170.48 256.278 170.285 256.44 170.129C256.602 169.973 256.8 169.895 257.034 169.895C257.268 169.895 257.466 169.973 257.628 170.129C257.79 170.285 257.871 170.48 257.871 170.714C257.871 170.948 257.79 171.143 257.628 171.299C257.472 171.455 257.277 171.533 257.043 171.533ZM262.6 182.171C262.114 182.153 261.64 182.063 261.178 181.901C260.722 181.733 260.32 181.508 259.972 181.226C259.63 180.938 259.381 180.608 259.225 180.236L260.521 179.678C260.611 179.882 260.773 180.074 261.007 180.254C261.241 180.434 261.511 180.578 261.817 180.686C262.123 180.794 262.432 180.848 262.744 180.848C263.074 180.848 263.383 180.797 263.671 180.695C263.959 180.593 264.193 180.443 264.373 180.245C264.559 180.041 264.652 179.798 264.652 179.516C264.652 179.216 264.55 178.982 264.346 178.814C264.148 178.64 263.896 178.505 263.59 178.409C263.29 178.307 262.984 178.211 262.672 178.121C262.054 177.965 261.502 177.779 261.016 177.563C260.53 177.341 260.146 177.062 259.864 176.726C259.588 176.384 259.45 175.949 259.45 175.421C259.45 174.863 259.603 174.38 259.909 173.972C260.221 173.564 260.629 173.249 261.133 173.027C261.637 172.805 262.177 172.694 262.753 172.694C263.479 172.694 264.142 172.85 264.742 173.162C265.342 173.474 265.789 173.897 266.083 174.431L264.868 175.142C264.766 174.926 264.61 174.737 264.4 174.575C264.19 174.407 263.95 174.275 263.68 174.179C263.41 174.083 263.134 174.032 262.852 174.026C262.504 174.014 262.177 174.059 261.871 174.161C261.571 174.263 261.328 174.419 261.142 174.629C260.962 174.833 260.872 175.088 260.872 175.394C260.872 175.694 260.968 175.922 261.16 176.078C261.358 176.234 261.613 176.36 261.925 176.456C262.243 176.546 262.588 176.651 262.96 176.771C263.506 176.945 264.016 177.146 264.49 177.374C264.964 177.602 265.345 177.887 265.633 178.229C265.927 178.571 266.071 178.994 266.065 179.498C266.065 180.05 265.9 180.533 265.57 180.947C265.24 181.355 264.811 181.667 264.283 181.883C263.761 182.099 263.2 182.195 262.6 182.171ZM279.168 173H280.68V182H279.168L279.105 180.479C278.823 181.001 278.433 181.424 277.935 181.748C277.443 182.072 276.855 182.234 276.171 182.234C275.511 182.234 274.893 182.111 274.317 181.865C273.741 181.613 273.231 181.268 272.787 180.83C272.349 180.386 272.007 179.876 271.761 179.3C271.515 178.724 271.392 178.103 271.392 177.437C271.392 176.795 271.512 176.189 271.752 175.619C271.992 175.049 272.325 174.551 272.751 174.125C273.183 173.693 273.681 173.357 274.245 173.117C274.809 172.871 275.415 172.748 276.063 172.748C276.771 172.748 277.392 172.916 277.926 173.252C278.46 173.582 278.892 174.011 279.222 174.539L279.168 173ZM276.144 180.767C276.738 180.767 277.251 180.623 277.683 180.335C278.121 180.041 278.457 179.645 278.691 179.147C278.931 178.649 279.051 178.1 279.051 177.5C279.051 176.888 278.931 176.336 278.691 175.844C278.451 175.346 278.112 174.953 277.674 174.665C277.242 174.371 276.732 174.224 276.144 174.224C275.55 174.224 275.01 174.371 274.524 174.665C274.038 174.959 273.651 175.355 273.363 175.853C273.081 176.345 272.94 176.894 272.94 177.5C272.94 178.106 273.087 178.658 273.381 179.156C273.675 179.648 274.065 180.041 274.551 180.335C275.037 180.623 275.568 180.767 276.144 180.767ZM290.434 176.402V182H288.922V176.735C288.922 176.279 288.811 175.865 288.589 175.493C288.367 175.121 288.07 174.827 287.698 174.611C287.326 174.389 286.912 174.278 286.456 174.278C286.006 174.278 285.592 174.389 285.214 174.611C284.842 174.827 284.545 175.121 284.323 175.493C284.101 175.865 283.99 176.279 283.99 176.735V182H282.478V173H283.99V174.125C284.308 173.705 284.71 173.372 285.196 173.126C285.682 172.874 286.21 172.748 286.78 172.748C287.452 172.748 288.064 172.913 288.616 173.243C289.174 173.567 289.615 174.005 289.939 174.557C290.269 175.109 290.434 175.724 290.434 176.402ZM303.795 173H305.307V182H303.795L303.732 180.479C303.45 181.001 303.06 181.424 302.562 181.748C302.07 182.072 301.482 182.234 300.798 182.234C300.138 182.234 299.52 182.111 298.944 181.865C298.368 181.613 297.858 181.268 297.414 180.83C296.976 180.386 296.634 179.876 296.388 179.3C296.142 178.724 296.019 178.103 296.019 177.437C296.019 176.795 296.139 176.189 296.379 175.619C296.619 175.049 296.952 174.551 297.378 174.125C297.81 173.693 298.308 173.357 298.872 173.117C299.436 172.871 300.042 172.748 300.69 172.748C301.398 172.748 302.019 172.916 302.553 173.252C303.087 173.582 303.519 174.011 303.849 174.539L303.795 173ZM300.771 180.767C301.365 180.767 301.878 180.623 302.31 180.335C302.748 180.041 303.084 179.645 303.318 179.147C303.558 178.649 303.678 178.1 303.678 177.5C303.678 176.888 303.558 176.336 303.318 175.844C303.078 175.346 302.739 174.953 302.301 174.665C301.869 174.371 301.359 174.224 300.771 174.224C300.177 174.224 299.637 174.371 299.151 174.665C298.665 174.959 298.278 175.355 297.99 175.853C297.708 176.345 297.567 176.894 297.567 177.5C297.567 178.106 297.714 178.658 298.008 179.156C298.302 179.648 298.692 180.041 299.178 180.335C299.664 180.623 300.195 180.767 300.771 180.767ZM307.105 182V173H308.617V174.125C308.935 173.705 309.337 173.372 309.823 173.126C310.309 172.874 310.837 172.748 311.407 172.748C311.755 172.748 312.091 172.793 312.415 172.883L311.803 174.395C311.557 174.317 311.317 174.278 311.083 174.278C310.633 174.278 310.219 174.389 309.841 174.611C309.469 174.827 309.172 175.121 308.95 175.493C308.728 175.865 308.617 176.279 308.617 176.735V182H307.105ZM318.342 174.512H316.299L316.29 182H314.778L314.787 174.512H313.239V173H314.787L314.778 170.174H316.29L316.299 173H318.342V174.512ZM319.419 183.008L319.977 179.966H321.489L320.427 183.008H319.419ZM335.207 173H336.719V182H335.207L335.144 180.479C334.862 181.001 334.472 181.424 333.974 181.748C333.482 182.072 332.894 182.234 332.21 182.234C331.55 182.234 330.932 182.111 330.356 181.865C329.78 181.613 329.27 181.268 328.826 180.83C328.388 180.386 328.046 179.876 327.8 179.3C327.554 178.724 327.431 178.103 327.431 177.437C327.431 176.795 327.551 176.189 327.791 175.619C328.031 175.049 328.364 174.551 328.79 174.125C329.222 173.693 329.72 173.357 330.284 173.117C330.848 172.871 331.454 172.748 332.102 172.748C332.81 172.748 333.431 172.916 333.965 173.252C334.499 173.582 334.931 174.011 335.261 174.539L335.207 173ZM332.183 180.767C332.777 180.767 333.29 180.623 333.722 180.335C334.16 180.041 334.496 179.645 334.73 179.147C334.97 178.649 335.09 178.1 335.09 177.5C335.09 176.888 334.97 176.336 334.73 175.844C334.49 175.346 334.151 174.953 333.713 174.665C333.281 174.371 332.771 174.224 332.183 174.224C331.589 174.224 331.049 174.371 330.563 174.665C330.077 174.959 329.69 175.355 329.402 175.853C329.12 176.345 328.979 176.894 328.979 177.5C328.979 178.106 329.126 178.658 329.42 179.156C329.714 179.648 330.104 180.041 330.59 180.335C331.076 180.623 331.607 180.767 332.183 180.767ZM346.474 176.402V182H344.962V176.735C344.962 176.279 344.851 175.865 344.629 175.493C344.407 175.121 344.11 174.827 343.738 174.611C343.366 174.389 342.952 174.278 342.496 174.278C342.046 174.278 341.632 174.389 341.254 174.611C340.882 174.827 340.585 175.121 340.363 175.493C340.141 175.865 340.03 176.279 340.03 176.735V182H338.518V173H340.03V174.125C340.348 173.705 340.75 173.372 341.236 173.126C341.722 172.874 342.25 172.748 342.82 172.748C343.492 172.748 344.104 172.913 344.656 173.243C345.214 173.567 345.655 174.005 345.979 174.557C346.309 175.109 346.474 175.724 346.474 176.402ZM355.343 168.5H356.855V182H355.343V180.47C355.037 180.998 354.626 181.424 354.11 181.748C353.594 182.072 352.988 182.234 352.292 182.234C351.638 182.234 351.026 182.111 350.456 181.865C349.886 181.619 349.382 181.28 348.944 180.848C348.512 180.41 348.173 179.906 347.927 179.336C347.681 178.766 347.558 178.154 347.558 177.5C347.558 176.846 347.681 176.234 347.927 175.664C348.173 175.088 348.512 174.584 348.944 174.152C349.382 173.714 349.886 173.372 350.456 173.126C351.026 172.88 351.638 172.757 352.292 172.757C352.988 172.757 353.594 172.919 354.11 173.243C354.626 173.567 355.037 173.993 355.343 174.521V168.5ZM352.31 180.767C352.904 180.767 353.417 180.623 353.849 180.335C354.287 180.041 354.623 179.645 354.857 179.147C355.097 178.649 355.217 178.1 355.217 177.5C355.217 176.888 355.097 176.336 354.857 175.844C354.617 175.346 354.278 174.953 353.84 174.665C353.408 174.371 352.898 174.224 352.31 174.224C351.716 174.224 351.176 174.371 350.69 174.665C350.21 174.959 349.826 175.355 349.538 175.853C349.25 176.345 349.106 176.894 349.106 177.5C349.106 178.106 349.253 178.658 349.547 179.156C349.841 179.648 350.231 180.041 350.717 180.335C351.203 180.623 351.734 180.767 352.31 180.767ZM367.298 182.234C366.47 182.234 365.714 182.021 365.03 181.595C364.352 181.169 363.809 180.599 363.401 179.885C362.999 179.165 362.798 178.37 362.798 177.5C362.798 176.84 362.915 176.225 363.149 175.655C363.383 175.079 363.704 174.575 364.112 174.143C364.526 173.705 365.006 173.363 365.552 173.117C366.098 172.871 366.68 172.748 367.298 172.748C368.126 172.748 368.879 172.961 369.557 173.387C370.241 173.813 370.784 174.386 371.186 175.106C371.594 175.826 371.798 176.624 371.798 177.5C371.798 178.154 371.681 178.766 371.447 179.336C371.213 179.906 370.889 180.41 370.475 180.848C370.067 181.28 369.59 181.619 369.044 181.865C368.504 182.111 367.922 182.234 367.298 182.234ZM367.298 180.722C367.862 180.722 368.369 180.575 368.819 180.281C369.275 179.981 369.632 179.588 369.89 179.102C370.154 178.61 370.286 178.076 370.286 177.5C370.286 176.912 370.151 176.372 369.881 175.88C369.617 175.388 369.26 174.995 368.81 174.701C368.36 174.407 367.856 174.26 367.298 174.26C366.734 174.26 366.227 174.41 365.777 174.71C365.327 175.004 364.97 175.397 364.706 175.889C364.442 176.381 364.31 176.918 364.31 177.5C364.31 178.1 364.445 178.646 364.715 179.138C364.985 179.624 365.348 180.011 365.804 180.299C366.26 180.581 366.758 180.722 367.298 180.722ZM372.804 178.58V173H374.316V178.247C374.316 178.703 374.427 179.117 374.649 179.489C374.871 179.861 375.168 180.158 375.54 180.38C375.918 180.596 376.332 180.704 376.782 180.704C377.238 180.704 377.649 180.596 378.015 180.38C378.387 180.158 378.684 179.861 378.906 179.489C379.128 179.117 379.239 178.703 379.239 178.247V173H380.751L380.76 182H379.248L379.239 180.857C378.921 181.277 378.519 181.613 378.033 181.865C377.547 182.111 377.022 182.234 376.458 182.234C375.786 182.234 375.171 182.072 374.613 181.748C374.061 181.418 373.62 180.977 373.29 180.425C372.966 179.873 372.804 179.258 372.804 178.58ZM382.568 182V173H384.08V174.125C384.398 173.705 384.8 173.372 385.286 173.126C385.772 172.874 386.3 172.748 386.87 172.748C387.218 172.748 387.554 172.793 387.878 172.883L387.266 174.395C387.02 174.317 386.78 174.278 386.546 174.278C386.096 174.278 385.682 174.389 385.304 174.611C384.932 174.827 384.635 175.121 384.413 175.493C384.191 175.865 384.08 176.279 384.08 176.735V182H382.568ZM59.036 203.402V209H57.524V203.735C57.524 203.279 57.413 202.865 57.191 202.493C56.969 202.121 56.672 201.827 56.3 201.611C55.928 201.389 55.514 201.278 55.058 201.278C54.608 201.278 54.194 201.389 53.816 201.611C53.444 201.827 53.147 202.121 52.925 202.493C52.703 202.865 52.592 203.279 52.592 203.735V209H51.08V200H52.592V201.125C52.91 200.705 53.312 200.372 53.798 200.126C54.284 199.874 54.812 199.748 55.382 199.748C56.054 199.748 56.666 199.913 57.218 200.243C57.776 200.567 58.217 201.005 58.541 201.557C58.871 202.109 59.036 202.724 59.036 203.402ZM64.6201 209.234C63.7921 209.234 63.0361 209.021 62.3521 208.595C61.6741 208.169 61.1311 207.599 60.7231 206.885C60.3211 206.165 60.1201 205.37 60.1201 204.5C60.1201 203.84 60.2371 203.225 60.4711 202.655C60.7051 202.079 61.0261 201.575 61.4341 201.143C61.8481 200.705 62.3281 200.363 62.8741 200.117C63.4201 199.871 64.0021 199.748 64.6201 199.748C65.2981 199.748 65.9191 199.886 66.4831 200.162C67.0531 200.432 67.5391 200.81 67.9411 201.296C68.3491 201.782 68.6521 202.346 68.8501 202.988C69.0541 203.63 69.1291 204.317 69.0751 205.049H61.7311C61.8031 205.559 61.9711 206.015 62.2351 206.417C62.4991 206.813 62.8351 207.128 63.2431 207.362C63.6571 207.596 64.1161 207.716 64.6201 207.722C65.1601 207.722 65.6491 207.584 66.0871 207.308C66.5251 207.026 66.8791 206.642 67.1491 206.156L68.6881 206.516C68.3281 207.314 67.7851 207.968 67.0591 208.478C66.3331 208.982 65.5201 209.234 64.6201 209.234ZM61.6861 203.861H67.5541C67.5061 203.357 67.3441 202.898 67.0681 202.484C66.7921 202.064 66.4411 201.728 66.0151 201.476C65.5891 201.224 65.1241 201.098 64.6201 201.098C64.1161 201.098 63.6541 201.221 63.2341 201.467C62.8141 201.713 62.4661 202.046 62.1901 202.466C61.9201 202.88 61.7521 203.345 61.6861 203.861ZM77.568 200H79.08V209.288C79.08 209.882 78.951 210.434 78.693 210.944C78.441 211.46 78.099 211.907 77.667 212.285C77.235 212.669 76.743 212.966 76.191 213.176C75.639 213.392 75.063 213.5 74.463 213.5C73.839 213.5 73.236 213.359 72.654 213.077C72.072 212.801 71.562 212.429 71.124 211.961C70.692 211.499 70.38 210.98 70.188 210.404L71.574 209.774C71.688 210.188 71.892 210.56 72.186 210.89C72.486 211.226 72.834 211.49 73.23 211.682C73.632 211.88 74.043 211.979 74.463 211.979C74.859 211.979 75.24 211.91 75.606 211.772C75.978 211.634 76.311 211.442 76.605 211.196C76.905 210.956 77.139 210.671 77.307 210.341C77.481 210.017 77.568 209.666 77.568 209.288V207.497C77.262 208.013 76.857 208.433 76.353 208.757C75.855 209.075 75.273 209.234 74.607 209.234C73.971 209.234 73.374 209.111 72.816 208.865C72.258 208.619 71.769 208.28 71.349 207.848C70.929 207.41 70.599 206.906 70.359 206.336C70.119 205.766 69.999 205.154 69.999 204.5C69.999 203.846 70.119 203.234 70.359 202.664C70.599 202.088 70.929 201.584 71.349 201.152C71.769 200.714 72.258 200.372 72.816 200.126C73.374 199.88 73.971 199.757 74.607 199.757C75.273 199.757 75.855 199.916 76.353 200.234C76.857 200.552 77.262 200.972 77.568 201.494V200ZM74.616 207.767C75.198 207.767 75.702 207.617 76.128 207.317C76.56 207.017 76.893 206.618 77.127 206.12C77.361 205.622 77.478 205.082 77.478 204.5C77.478 203.9 77.358 203.354 77.118 202.862C76.884 202.364 76.551 201.968 76.119 201.674C75.693 201.374 75.192 201.224 74.616 201.224C74.052 201.224 73.536 201.371 73.068 201.665C72.6 201.959 72.228 202.355 71.952 202.853C71.682 203.345 71.547 203.894 71.547 204.5C71.547 205.106 71.685 205.658 71.961 206.156C72.243 206.648 72.615 207.041 73.077 207.335C73.545 207.623 74.058 207.767 74.616 207.767ZM85.081 209.234C84.253 209.234 83.497 209.021 82.813 208.595C82.135 208.169 81.592 207.599 81.184 206.885C80.782 206.165 80.581 205.37 80.581 204.5C80.581 203.84 80.698 203.225 80.932 202.655C81.166 202.079 81.487 201.575 81.895 201.143C82.309 200.705 82.789 200.363 83.335 200.117C83.881 199.871 84.463 199.748 85.081 199.748C85.909 199.748 86.662 199.961 87.34 200.387C88.024 200.813 88.567 201.386 88.969 202.106C89.377 202.826 89.581 203.624 89.581 204.5C89.581 205.154 89.464 205.766 89.23 206.336C88.996 206.906 88.672 207.41 88.258 207.848C87.85 208.28 87.373 208.619 86.827 208.865C86.287 209.111 85.705 209.234 85.081 209.234ZM85.081 207.722C85.645 207.722 86.152 207.575 86.602 207.281C87.058 206.981 87.415 206.588 87.673 206.102C87.937 205.61 88.069 205.076 88.069 204.5C88.069 203.912 87.934 203.372 87.664 202.88C87.4 202.388 87.043 201.995 86.593 201.701C86.143 201.407 85.639 201.26 85.081 201.26C84.517 201.26 84.01 201.41 83.56 201.71C83.11 202.004 82.753 202.397 82.489 202.889C82.225 203.381 82.093 203.918 82.093 204.5C82.093 205.1 82.228 205.646 82.498 206.138C82.768 206.624 83.131 207.011 83.587 207.299C84.043 207.581 84.541 207.722 85.081 207.722ZM95.6268 201.512H93.5838L93.5748 209H92.0628L92.0718 201.512H90.5238V200H92.0718L92.0628 197.174H93.5748L93.5838 200H95.6268V201.512ZM97.1523 200H98.6643V209H97.1523V200ZM97.9263 198.533C97.6863 198.533 97.4853 198.455 97.3233 198.299C97.1613 198.143 97.0803 197.948 97.0803 197.714C97.0803 197.48 97.1613 197.285 97.3233 197.129C97.4853 196.973 97.6833 196.895 97.9173 196.895C98.1513 196.895 98.3493 196.973 98.5113 197.129C98.6733 197.285 98.7543 197.48 98.7543 197.714C98.7543 197.948 98.6733 198.143 98.5113 198.299C98.3553 198.455 98.1603 198.533 97.9263 198.533ZM107.939 200H109.451V209H107.939L107.876 207.479C107.594 208.001 107.204 208.424 106.706 208.748C106.214 209.072 105.626 209.234 104.942 209.234C104.282 209.234 103.664 209.111 103.088 208.865C102.512 208.613 102.002 208.268 101.558 207.83C101.12 207.386 100.778 206.876 100.532 206.3C100.286 205.724 100.163 205.103 100.163 204.437C100.163 203.795 100.283 203.189 100.523 202.619C100.763 202.049 101.096 201.551 101.522 201.125C101.954 200.693 102.452 200.357 103.016 200.117C103.58 199.871 104.186 199.748 104.834 199.748C105.542 199.748 106.163 199.916 106.697 200.252C107.231 200.582 107.663 201.011 107.993 201.539L107.939 200ZM104.915 207.767C105.509 207.767 106.022 207.623 106.454 207.335C106.892 207.041 107.228 206.645 107.462 206.147C107.702 205.649 107.822 205.1 107.822 204.5C107.822 203.888 107.702 203.336 107.462 202.844C107.222 202.346 106.883 201.953 106.445 201.665C106.013 201.371 105.503 201.224 104.915 201.224C104.321 201.224 103.781 201.371 103.295 201.665C102.809 201.959 102.422 202.355 102.134 202.853C101.852 203.345 101.711 203.894 101.711 204.5C101.711 205.106 101.858 205.658 102.152 206.156C102.446 206.648 102.836 207.041 103.322 207.335C103.808 207.623 104.339 207.767 104.915 207.767ZM115.912 201.512H113.869L113.86 209H112.348L112.357 201.512H110.809V200H112.357L112.348 197.174H113.86L113.869 200H115.912V201.512ZM117.437 200H118.949V209H117.437V200ZM118.211 198.533C117.971 198.533 117.77 198.455 117.608 198.299C117.446 198.143 117.365 197.948 117.365 197.714C117.365 197.48 117.446 197.285 117.608 197.129C117.77 196.973 117.968 196.895 118.202 196.895C118.436 196.895 118.634 196.973 118.796 197.129C118.958 197.285 119.039 197.48 119.039 197.714C119.039 197.948 118.958 198.143 118.796 198.299C118.64 198.455 118.445 198.533 118.211 198.533ZM124.948 209.234C124.12 209.234 123.364 209.021 122.68 208.595C122.002 208.169 121.459 207.599 121.051 206.885C120.649 206.165 120.448 205.37 120.448 204.5C120.448 203.84 120.565 203.225 120.799 202.655C121.033 202.079 121.354 201.575 121.762 201.143C122.176 200.705 122.656 200.363 123.202 200.117C123.748 199.871 124.33 199.748 124.948 199.748C125.776 199.748 126.529 199.961 127.207 200.387C127.891 200.813 128.434 201.386 128.836 202.106C129.244 202.826 129.448 203.624 129.448 204.5C129.448 205.154 129.331 205.766 129.097 206.336C128.863 206.906 128.539 207.41 128.125 207.848C127.717 208.28 127.24 208.619 126.694 208.865C126.154 209.111 125.572 209.234 124.948 209.234ZM124.948 207.722C125.512 207.722 126.019 207.575 126.469 207.281C126.925 206.981 127.282 206.588 127.54 206.102C127.804 205.61 127.936 205.076 127.936 204.5C127.936 203.912 127.801 203.372 127.531 202.88C127.267 202.388 126.91 201.995 126.46 201.701C126.01 201.407 125.506 201.26 124.948 201.26C124.384 201.26 123.877 201.41 123.427 201.71C122.977 202.004 122.62 202.397 122.356 202.889C122.092 203.381 121.96 203.918 121.96 204.5C121.96 205.1 122.095 205.646 122.365 206.138C122.635 206.624 122.998 207.011 123.454 207.299C123.91 207.581 124.408 207.722 124.948 207.722ZM138.893 203.402V209H137.381V203.735C137.381 203.279 137.27 202.865 137.048 202.493C136.826 202.121 136.529 201.827 136.157 201.611C135.785 201.389 135.371 201.278 134.915 201.278C134.465 201.278 134.051 201.389 133.673 201.611C133.301 201.827 133.004 202.121 132.782 202.493C132.56 202.865 132.449 203.279 132.449 203.735V209H130.937V200H132.449V201.125C132.767 200.705 133.169 200.372 133.655 200.126C134.141 199.874 134.669 199.748 135.239 199.748C135.911 199.748 136.523 199.913 137.075 200.243C137.633 200.567 138.074 201.005 138.398 201.557C138.728 202.109 138.893 202.724 138.893 203.402ZM148.978 209.234C148.15 209.234 147.394 209.021 146.71 208.595C146.032 208.169 145.489 207.599 145.081 206.885C144.679 206.165 144.478 205.37 144.478 204.5C144.478 203.84 144.595 203.225 144.829 202.655C145.063 202.079 145.384 201.575 145.792 201.143C146.206 200.705 146.686 200.363 147.232 200.117C147.778 199.871 148.36 199.748 148.978 199.748C149.656 199.748 150.277 199.886 150.841 200.162C151.411 200.432 151.897 200.81 152.299 201.296C152.707 201.782 153.01 202.346 153.208 202.988C153.412 203.63 153.487 204.317 153.433 205.049H146.089C146.161 205.559 146.329 206.015 146.593 206.417C146.857 206.813 147.193 207.128 147.601 207.362C148.015 207.596 148.474 207.716 148.978 207.722C149.518 207.722 150.007 207.584 150.445 207.308C150.883 207.026 151.237 206.642 151.507 206.156L153.046 206.516C152.686 207.314 152.143 207.968 151.417 208.478C150.691 208.982 149.878 209.234 148.978 209.234ZM146.044 203.861H151.912C151.864 203.357 151.702 202.898 151.426 202.484C151.15 202.064 150.799 201.728 150.373 201.476C149.947 201.224 149.482 201.098 148.978 201.098C148.474 201.098 148.012 201.221 147.592 201.467C147.172 201.713 146.824 202.046 146.548 202.466C146.278 202.88 146.11 203.345 146.044 203.861ZM153.921 209L157.215 204.482L153.939 199.982H155.802L158.151 203.186L160.491 199.982H162.354L159.078 204.482L162.372 209H160.509L158.151 205.76L155.784 209H153.921ZM165.444 213.5H163.932V200H165.444V201.539C165.75 201.011 166.158 200.585 166.668 200.261C167.178 199.931 167.784 199.766 168.486 199.766C169.14 199.766 169.752 199.889 170.322 200.135C170.898 200.381 171.402 200.723 171.834 201.161C172.266 201.593 172.605 202.094 172.851 202.664C173.097 203.234 173.22 203.846 173.22 204.5C173.22 205.154 173.097 205.769 172.851 206.345C172.605 206.921 172.266 207.428 171.834 207.866C171.402 208.298 170.898 208.637 170.322 208.883C169.752 209.129 169.14 209.252 168.486 209.252C167.784 209.252 167.178 209.09 166.668 208.766C166.158 208.436 165.75 208.007 165.444 207.479V213.5ZM168.468 201.233C167.886 201.233 167.376 201.38 166.938 201.674C166.5 201.968 166.161 202.361 165.921 202.853C165.687 203.345 165.57 203.894 165.57 204.5C165.57 205.1 165.687 205.649 165.921 206.147C166.161 206.645 166.497 207.041 166.929 207.335C167.367 207.629 167.88 207.776 168.468 207.776C169.05 207.776 169.584 207.632 170.07 207.344C170.556 207.05 170.946 206.657 171.24 206.165C171.534 205.667 171.681 205.112 171.681 204.5C171.681 203.9 171.537 203.354 171.249 202.862C170.961 202.364 170.574 201.968 170.088 201.674C169.602 201.38 169.062 201.233 168.468 201.233ZM178.632 209.234C177.804 209.234 177.048 209.021 176.364 208.595C175.686 208.169 175.143 207.599 174.735 206.885C174.333 206.165 174.132 205.37 174.132 204.5C174.132 203.84 174.249 203.225 174.483 202.655C174.717 202.079 175.038 201.575 175.446 201.143C175.86 200.705 176.34 200.363 176.886 200.117C177.432 199.871 178.014 199.748 178.632 199.748C179.31 199.748 179.931 199.886 180.495 200.162C181.065 200.432 181.551 200.81 181.953 201.296C182.361 201.782 182.664 202.346 182.862 202.988C183.066 203.63 183.141 204.317 183.087 205.049H175.743C175.815 205.559 175.983 206.015 176.247 206.417C176.511 206.813 176.847 207.128 177.255 207.362C177.669 207.596 178.128 207.716 178.632 207.722C179.172 207.722 179.661 207.584 180.099 207.308C180.537 207.026 180.891 206.642 181.161 206.156L182.7 206.516C182.34 207.314 181.797 207.968 181.071 208.478C180.345 208.982 179.532 209.234 178.632 209.234ZM175.698 203.861H181.566C181.518 203.357 181.356 202.898 181.08 202.484C180.804 202.064 180.453 201.728 180.027 201.476C179.601 201.224 179.136 201.098 178.632 201.098C178.128 201.098 177.666 201.221 177.246 201.467C176.826 201.713 176.478 202.046 176.202 202.466C175.932 202.88 175.764 203.345 175.698 203.861ZM184.603 209V200H186.115V201.125C186.433 200.705 186.835 200.372 187.321 200.126C187.807 199.874 188.335 199.748 188.905 199.748C189.253 199.748 189.589 199.793 189.913 199.883L189.301 201.395C189.055 201.317 188.815 201.278 188.581 201.278C188.131 201.278 187.717 201.389 187.339 201.611C186.967 201.827 186.67 202.121 186.448 202.493C186.226 202.865 186.115 203.279 186.115 203.735V209H184.603ZM195.84 201.512H193.797L193.788 209H192.276L192.285 201.512H190.737V200H192.285L192.276 197.174H193.788L193.797 200H195.84V201.512ZM200.11 209.171C199.624 209.153 199.15 209.063 198.688 208.901C198.232 208.733 197.83 208.508 197.482 208.226C197.14 207.938 196.891 207.608 196.735 207.236L198.031 206.678C198.121 206.882 198.283 207.074 198.517 207.254C198.751 207.434 199.021 207.578 199.327 207.686C199.633 207.794 199.942 207.848 200.254 207.848C200.584 207.848 200.893 207.797 201.181 207.695C201.469 207.593 201.703 207.443 201.883 207.245C202.069 207.041 202.162 206.798 202.162 206.516C202.162 206.216 202.06 205.982 201.856 205.814C201.658 205.64 201.406 205.505 201.1 205.409C200.8 205.307 200.494 205.211 200.182 205.121C199.564 204.965 199.012 204.779 198.526 204.563C198.04 204.341 197.656 204.062 197.374 203.726C197.098 203.384 196.96 202.949 196.96 202.421C196.96 201.863 197.113 201.38 197.419 200.972C197.731 200.564 198.139 200.249 198.643 200.027C199.147 199.805 199.687 199.694 200.263 199.694C200.989 199.694 201.652 199.85 202.252 200.162C202.852 200.474 203.299 200.897 203.593 201.431L202.378 202.142C202.276 201.926 202.12 201.737 201.91 201.575C201.7 201.407 201.46 201.275 201.19 201.179C200.92 201.083 200.644 201.032 200.362 201.026C200.014 201.014 199.687 201.059 199.381 201.161C199.081 201.263 198.838 201.419 198.652 201.629C198.472 201.833 198.382 202.088 198.382 202.394C198.382 202.694 198.478 202.922 198.67 203.078C198.868 203.234 199.123 203.36 199.435 203.456C199.753 203.546 200.098 203.651 200.47 203.771C201.016 203.945 201.526 204.146 202 204.374C202.474 204.602 202.855 204.887 203.143 205.229C203.437 205.571 203.581 205.994 203.575 206.498C203.575 207.05 203.41 207.533 203.08 207.947C202.75 208.355 202.321 208.667 201.793 208.883C201.271 209.099 200.71 209.195 200.11 209.171ZM216.677 200H218.189V209H216.677L216.614 207.479C216.332 208.001 215.942 208.424 215.444 208.748C214.952 209.072 214.364 209.234 213.68 209.234C213.02 209.234 212.402 209.111 211.826 208.865C211.25 208.613 210.74 208.268 210.296 207.83C209.858 207.386 209.516 206.876 209.27 206.3C209.024 205.724 208.901 205.103 208.901 204.437C208.901 203.795 209.021 203.189 209.261 202.619C209.501 202.049 209.834 201.551 210.26 201.125C210.692 200.693 211.19 200.357 211.754 200.117C212.318 199.871 212.924 199.748 213.572 199.748C214.28 199.748 214.901 199.916 215.435 200.252C215.969 200.582 216.401 201.011 216.731 201.539L216.677 200ZM213.653 207.767C214.247 207.767 214.76 207.623 215.192 207.335C215.63 207.041 215.966 206.645 216.2 206.147C216.44 205.649 216.56 205.1 216.56 204.5C216.56 203.888 216.44 203.336 216.2 202.844C215.96 202.346 215.621 201.953 215.183 201.665C214.751 201.371 214.241 201.224 213.653 201.224C213.059 201.224 212.519 201.371 212.033 201.665C211.547 201.959 211.16 202.355 210.872 202.853C210.59 203.345 210.449 203.894 210.449 204.5C210.449 205.106 210.596 205.658 210.89 206.156C211.184 206.648 211.574 207.041 212.06 207.335C212.546 207.623 213.077 207.767 213.653 207.767ZM219.988 209V200H221.5V201.125C221.818 200.705 222.22 200.372 222.706 200.126C223.192 199.874 223.72 199.748 224.29 199.748C224.638 199.748 224.974 199.793 225.298 199.883L224.686 201.395C224.44 201.317 224.2 201.278 223.966 201.278C223.516 201.278 223.102 201.389 222.724 201.611C222.352 201.827 222.055 202.121 221.833 202.493C221.611 202.865 221.5 203.279 221.5 203.735V209H219.988ZM229.907 209.234C229.079 209.234 228.323 209.021 227.639 208.595C226.961 208.169 226.418 207.599 226.01 206.885C225.608 206.165 225.407 205.37 225.407 204.5C225.407 203.84 225.524 203.225 225.758 202.655C225.992 202.079 226.313 201.575 226.721 201.143C227.135 200.705 227.615 200.363 228.161 200.117C228.707 199.871 229.289 199.748 229.907 199.748C230.585 199.748 231.206 199.886 231.77 200.162C232.34 200.432 232.826 200.81 233.228 201.296C233.636 201.782 233.939 202.346 234.137 202.988C234.341 203.63 234.416 204.317 234.362 205.049H227.018C227.09 205.559 227.258 206.015 227.522 206.417C227.786 206.813 228.122 207.128 228.53 207.362C228.944 207.596 229.403 207.716 229.907 207.722C230.447 207.722 230.936 207.584 231.374 207.308C231.812 207.026 232.166 206.642 232.436 206.156L233.975 206.516C233.615 207.314 233.072 207.968 232.346 208.478C231.62 208.982 230.807 209.234 229.907 209.234ZM226.973 203.861H232.841C232.793 203.357 232.631 202.898 232.355 202.484C232.079 202.064 231.728 201.728 231.302 201.476C230.876 201.224 230.411 201.098 229.907 201.098C229.403 201.098 228.941 201.221 228.521 201.467C228.101 201.713 227.753 202.046 227.477 202.466C227.207 202.88 227.039 203.345 226.973 203.861ZM240.326 209V200H241.838V201.125C242.156 200.705 242.555 200.372 243.035 200.126C243.521 199.874 244.049 199.748 244.619 199.748C245.285 199.748 245.894 199.91 246.446 200.234C246.998 200.558 247.433 200.987 247.751 201.521C248.069 200.987 248.501 200.558 249.047 200.234C249.599 199.91 250.205 199.748 250.865 199.748C251.543 199.748 252.158 199.913 252.71 200.243C253.262 200.567 253.7 201.005 254.024 201.557C254.354 202.109 254.519 202.724 254.519 203.402V209H253.007V203.762C253.007 203.318 252.899 202.907 252.683 202.529C252.467 202.151 252.176 201.848 251.81 201.62C251.444 201.392 251.039 201.278 250.595 201.278C250.151 201.278 249.746 201.386 249.38 201.602C249.014 201.812 248.723 202.106 248.507 202.484C248.291 202.856 248.183 203.282 248.183 203.762V209H246.671V203.762C246.671 203.282 246.563 202.856 246.347 202.484C246.131 202.106 245.837 201.812 245.465 201.602C245.099 201.386 244.694 201.278 244.25 201.278C243.812 201.278 243.407 201.392 243.035 201.62C242.669 201.848 242.378 202.151 242.162 202.529C241.946 202.907 241.838 203.318 241.838 203.762V209H240.326ZM263.382 200H264.894V209H263.382L263.319 207.479C263.037 208.001 262.647 208.424 262.149 208.748C261.657 209.072 261.069 209.234 260.385 209.234C259.725 209.234 259.107 209.111 258.531 208.865C257.955 208.613 257.445 208.268 257.001 207.83C256.563 207.386 256.221 206.876 255.975 206.3C255.729 205.724 255.606 205.103 255.606 204.437C255.606 203.795 255.726 203.189 255.966 202.619C256.206 202.049 256.539 201.551 256.965 201.125C257.397 200.693 257.895 200.357 258.459 200.117C259.023 199.871 259.629 199.748 260.277 199.748C260.985 199.748 261.606 199.916 262.14 200.252C262.674 200.582 263.106 201.011 263.436 201.539L263.382 200ZM260.358 207.767C260.952 207.767 261.465 207.623 261.897 207.335C262.335 207.041 262.671 206.645 262.905 206.147C263.145 205.649 263.265 205.1 263.265 204.5C263.265 203.888 263.145 203.336 262.905 202.844C262.665 202.346 262.326 201.953 261.888 201.665C261.456 201.371 260.946 201.224 260.358 201.224C259.764 201.224 259.224 201.371 258.738 201.665C258.252 201.959 257.865 202.355 257.577 202.853C257.295 203.345 257.154 203.894 257.154 204.5C257.154 205.106 257.301 205.658 257.595 206.156C257.889 206.648 258.279 207.041 258.765 207.335C259.251 207.623 259.782 207.767 260.358 207.767ZM269.438 209.171C268.952 209.153 268.478 209.063 268.016 208.901C267.56 208.733 267.158 208.508 266.81 208.226C266.468 207.938 266.219 207.608 266.063 207.236L267.359 206.678C267.449 206.882 267.611 207.074 267.845 207.254C268.079 207.434 268.349 207.578 268.655 207.686C268.961 207.794 269.27 207.848 269.582 207.848C269.912 207.848 270.221 207.797 270.509 207.695C270.797 207.593 271.031 207.443 271.211 207.245C271.397 207.041 271.49 206.798 271.49 206.516C271.49 206.216 271.388 205.982 271.184 205.814C270.986 205.64 270.734 205.505 270.428 205.409C270.128 205.307 269.822 205.211 269.51 205.121C268.892 204.965 268.34 204.779 267.854 204.563C267.368 204.341 266.984 204.062 266.702 203.726C266.426 203.384 266.288 202.949 266.288 202.421C266.288 201.863 266.441 201.38 266.747 200.972C267.059 200.564 267.467 200.249 267.971 200.027C268.475 199.805 269.015 199.694 269.591 199.694C270.317 199.694 270.98 199.85 271.58 200.162C272.18 200.474 272.627 200.897 272.921 201.431L271.706 202.142C271.604 201.926 271.448 201.737 271.238 201.575C271.028 201.407 270.788 201.275 270.518 201.179C270.248 201.083 269.972 201.032 269.69 201.026C269.342 201.014 269.015 201.059 268.709 201.161C268.409 201.263 268.166 201.419 267.98 201.629C267.8 201.833 267.71 202.088 267.71 202.394C267.71 202.694 267.806 202.922 267.998 203.078C268.196 203.234 268.451 203.36 268.763 203.456C269.081 203.546 269.426 203.651 269.798 203.771C270.344 203.945 270.854 204.146 271.328 204.374C271.802 204.602 272.183 204.887 272.471 205.229C272.765 205.571 272.909 205.994 272.903 206.498C272.903 207.05 272.738 207.533 272.408 207.947C272.078 208.355 271.649 208.667 271.121 208.883C270.599 209.099 270.038 209.195 269.438 209.171ZM279.107 201.512H277.064L277.055 209H275.543L275.552 201.512H274.004V200H275.552L275.543 197.174H277.055L277.064 200H279.107V201.512ZM284.452 209.234C283.624 209.234 282.868 209.021 282.184 208.595C281.506 208.169 280.963 207.599 280.555 206.885C280.153 206.165 279.952 205.37 279.952 204.5C279.952 203.84 280.069 203.225 280.303 202.655C280.537 202.079 280.858 201.575 281.266 201.143C281.68 200.705 282.16 200.363 282.706 200.117C283.252 199.871 283.834 199.748 284.452 199.748C285.13 199.748 285.751 199.886 286.315 200.162C286.885 200.432 287.371 200.81 287.773 201.296C288.181 201.782 288.484 202.346 288.682 202.988C288.886 203.63 288.961 204.317 288.907 205.049H281.563C281.635 205.559 281.803 206.015 282.067 206.417C282.331 206.813 282.667 207.128 283.075 207.362C283.489 207.596 283.948 207.716 284.452 207.722C284.992 207.722 285.481 207.584 285.919 207.308C286.357 207.026 286.711 206.642 286.981 206.156L288.52 206.516C288.16 207.314 287.617 207.968 286.891 208.478C286.165 208.982 285.352 209.234 284.452 209.234ZM281.518 203.861H287.386C287.338 203.357 287.176 202.898 286.9 202.484C286.624 202.064 286.273 201.728 285.847 201.476C285.421 201.224 284.956 201.098 284.452 201.098C283.948 201.098 283.486 201.221 283.066 201.467C282.646 201.713 282.298 202.046 282.022 202.466C281.752 202.88 281.584 203.345 281.518 203.861ZM290.424 209V200H291.936V201.125C292.254 200.705 292.656 200.372 293.142 200.126C293.628 199.874 294.156 199.748 294.726 199.748C295.074 199.748 295.41 199.793 295.734 199.883L295.122 201.395C294.876 201.317 294.636 201.278 294.402 201.278C293.952 201.278 293.538 201.389 293.16 201.611C292.788 201.827 292.491 202.121 292.269 202.493C292.047 202.865 291.936 203.279 291.936 203.735V209H290.424ZM299.585 209.171C299.099 209.153 298.625 209.063 298.163 208.901C297.707 208.733 297.305 208.508 296.957 208.226C296.615 207.938 296.366 207.608 296.21 207.236L297.506 206.678C297.596 206.882 297.758 207.074 297.992 207.254C298.226 207.434 298.496 207.578 298.802 207.686C299.108 207.794 299.417 207.848 299.729 207.848C300.059 207.848 300.368 207.797 300.656 207.695C300.944 207.593 301.178 207.443 301.358 207.245C301.544 207.041 301.637 206.798 301.637 206.516C301.637 206.216 301.535 205.982 301.331 205.814C301.133 205.64 300.881 205.505 300.575 205.409C300.275 205.307 299.969 205.211 299.657 205.121C299.039 204.965 298.487 204.779 298.001 204.563C297.515 204.341 297.131 204.062 296.849 203.726C296.573 203.384 296.435 202.949 296.435 202.421C296.435 201.863 296.588 201.38 296.894 200.972C297.206 200.564 297.614 200.249 298.118 200.027C298.622 199.805 299.162 199.694 299.738 199.694C300.464 199.694 301.127 199.85 301.727 200.162C302.327 200.474 302.774 200.897 303.068 201.431L301.853 202.142C301.751 201.926 301.595 201.737 301.385 201.575C301.175 201.407 300.935 201.275 300.665 201.179C300.395 201.083 300.119 201.032 299.837 201.026C299.489 201.014 299.162 201.059 298.856 201.161C298.556 201.263 298.313 201.419 298.127 201.629C297.947 201.833 297.857 202.088 297.857 202.394C297.857 202.694 297.953 202.922 298.145 203.078C298.343 203.234 298.598 203.36 298.91 203.456C299.228 203.546 299.573 203.651 299.945 203.771C300.491 203.945 301.001 204.146 301.475 204.374C301.949 204.602 302.33 204.887 302.618 205.229C302.912 205.571 303.056 205.994 303.05 206.498C303.05 207.05 302.885 207.533 302.555 207.947C302.225 208.355 301.796 208.667 301.268 208.883C300.746 209.099 300.185 209.195 299.585 209.171ZM312.876 209.234C312.048 209.234 311.292 209.021 310.608 208.595C309.93 208.169 309.387 207.599 308.979 206.885C308.577 206.165 308.376 205.37 308.376 204.5C308.376 203.84 308.493 203.225 308.727 202.655C308.961 202.079 309.282 201.575 309.69 201.143C310.104 200.705 310.584 200.363 311.13 200.117C311.676 199.871 312.258 199.748 312.876 199.748C313.704 199.748 314.457 199.961 315.135 200.387C315.819 200.813 316.362 201.386 316.764 202.106C317.172 202.826 317.376 203.624 317.376 204.5C317.376 205.154 317.259 205.766 317.025 206.336C316.791 206.906 316.467 207.41 316.053 207.848C315.645 208.28 315.168 208.619 314.622 208.865C314.082 209.111 313.5 209.234 312.876 209.234ZM312.876 207.722C313.44 207.722 313.947 207.575 314.397 207.281C314.853 206.981 315.21 206.588 315.468 206.102C315.732 205.61 315.864 205.076 315.864 204.5C315.864 203.912 315.729 203.372 315.459 202.88C315.195 202.388 314.838 201.995 314.388 201.701C313.938 201.407 313.434 201.26 312.876 201.26C312.312 201.26 311.805 201.41 311.355 201.71C310.905 202.004 310.548 202.397 310.284 202.889C310.02 203.381 309.888 203.918 309.888 204.5C309.888 205.1 310.023 205.646 310.293 206.138C310.563 206.624 310.926 207.011 311.382 207.299C311.838 207.581 312.336 207.722 312.876 207.722ZM321.031 197.777V200H323.668V201.512H321.031V209H319.519V201.512H318.358V200H319.519V197.777C319.519 197.315 319.63 196.898 319.852 196.526C320.08 196.148 320.383 195.848 320.761 195.626C321.145 195.398 321.565 195.284 322.021 195.284C322.357 195.284 322.684 195.353 323.002 195.491C323.32 195.623 323.602 195.821 323.848 196.085L322.768 197.156C322.684 197.042 322.573 196.955 322.435 196.895C322.303 196.829 322.165 196.796 322.021 196.796C321.751 196.796 321.517 196.892 321.319 197.084C321.127 197.276 321.031 197.507 321.031 197.777ZM329.465 200H330.977V209H329.465V200ZM330.239 198.533C329.999 198.533 329.798 198.455 329.636 198.299C329.474 198.143 329.393 197.948 329.393 197.714C329.393 197.48 329.474 197.285 329.636 197.129C329.798 196.973 329.996 196.895 330.23 196.895C330.464 196.895 330.662 196.973 330.824 197.129C330.986 197.285 331.067 197.48 331.067 197.714C331.067 197.948 330.986 198.143 330.824 198.299C330.668 198.455 330.473 198.533 330.239 198.533ZM337.801 201.512H335.758L335.749 209H334.237L334.246 201.512H332.698V200H334.246L334.237 197.174H335.749L335.758 200H337.801V201.512ZM339.697 209.234C339.469 209.234 339.274 209.153 339.112 208.991C338.956 208.829 338.878 208.631 338.878 208.397C338.878 208.175 338.956 207.983 339.112 207.821C339.274 207.659 339.469 207.578 339.697 207.578C339.931 207.578 340.129 207.659 340.291 207.821C340.453 207.983 340.534 208.175 340.534 208.397C340.534 208.631 340.453 208.829 340.291 208.991C340.129 209.153 339.931 209.234 339.697 209.234Z" fill="#999999"></path><defs><linearGradient id="paint0_linear_104_11471" x1="56.75" y1="136.5" x2="135.75" y2="44.5" gradientUnits="userSpaceOnUse"><stop stop-color="#A685FA"></stop><stop offset="0.323723" stop-color="#A685FA" stop-opacity="0"></stop></linearGradient><linearGradient id="paint1_linear_104_11471" x1="131.75" y1="39.5" x2="56.75" y2="132" gradientUnits="userSpaceOnUse"><stop stop-color="#A685FA"></stop><stop offset="0.576615" stop-color="#A685FA" stop-opacity="0"></stop></linearGradient><linearGradient id="paint2_linear_104_11471" x1="53.25" y1="63.5" x2="121.75" y2="122" gradientUnits="userSpaceOnUse"><stop stop-color="#A685FA"></stop><stop offset="0.323723" stop-color="#A685FA" stop-opacity="0"></stop></linearGradient><linearGradient id="paint3_linear_104_11471" x1="134.25" y1="136" x2="62.25" y2="85" gradientUnits="userSpaceOnUse"><stop stop-color="#A685FA"></stop><stop offset="0.576615" stop-color="#A685FA" stop-opacity="0"></stop></linearGradient></defs></svg>