<svg xmlns="http://www.w3.org/2000/svg" width="512" height="266" viewBox="0 0 512 266" fill="none"><rect x="0.5" y="0.5" width="511" height="265" rx="11.5" stroke="#262626"></rect><rect x="50.5" y="50.5" width="81" height="81" rx="40.5" stroke="url(#paint0_linear_104_11424)"></rect><rect x="50.5" y="50.5" width="81" height="81" rx="40.5" stroke="url(#paint1_linear_104_11424)"></rect><rect x="60.5" y="60.5" width="61" height="61" rx="30.5" stroke="url(#paint2_linear_104_11424)"></rect><rect x="60.5" y="60.5" width="61" height="61" rx="30.5" stroke="url(#paint3_linear_104_11424)"></rect><path fill-rule="evenodd" clip-rule="evenodd" d="M77.1875 93.125C77.1875 86.6702 82.4202 81.4375 88.875 81.4375C89.4618 81.4375 89.9375 81.9132 89.9375 82.5V92.0625H99.5C100.087 92.0625 100.562 92.5382 100.562 93.125C100.562 99.5798 95.3298 104.812 88.875 104.812C82.4202 104.812 77.1875 99.5798 77.1875 93.125Z" fill="#A685FA"></path><path fill-rule="evenodd" clip-rule="evenodd" d="M92.0625 78.25C92.0625 77.6632 92.5382 77.1875 93.125 77.1875C99.5798 77.1875 104.812 82.4202 104.812 88.875C104.812 89.4618 104.337 89.9375 103.75 89.9375H93.125C92.5382 89.9375 92.0625 89.4618 92.0625 88.875V78.25Z" fill="#A685FA"></path><path d="M159.428 99.312C158.508 99.312 157.624 99.168 156.776 98.88C155.928 98.592 155.188 98.18 154.556 97.644C153.924 97.1 153.472 96.456 153.2 95.712L155.54 94.836C155.676 95.22 155.936 95.564 156.32 95.868C156.712 96.164 157.176 96.396 157.712 96.564C158.256 96.732 158.828 96.816 159.428 96.816C160.068 96.816 160.668 96.712 161.228 96.504C161.796 96.296 162.252 96.008 162.596 95.64C162.948 95.272 163.124 94.84 163.124 94.344C163.124 93.832 162.94 93.412 162.572 93.084C162.212 92.756 161.748 92.496 161.18 92.304C160.62 92.112 160.036 91.968 159.428 91.872C158.252 91.68 157.196 91.4 156.26 91.032C155.332 90.664 154.596 90.148 154.052 89.484C153.516 88.82 153.248 87.956 153.248 86.892C153.248 85.892 153.532 85.02 154.1 84.276C154.676 83.532 155.432 82.956 156.368 82.548C157.312 82.132 158.332 81.924 159.428 81.924C160.332 81.924 161.204 82.068 162.044 82.356C162.892 82.636 163.636 83.048 164.276 83.592C164.924 84.128 165.388 84.78 165.668 85.548L163.304 86.4C163.168 86.008 162.908 85.668 162.524 85.38C162.14 85.084 161.676 84.852 161.132 84.684C160.596 84.516 160.028 84.432 159.428 84.432C158.788 84.424 158.188 84.528 157.628 84.744C157.076 84.952 156.624 85.24 156.272 85.608C155.92 85.976 155.744 86.404 155.744 86.892C155.744 87.492 155.908 87.948 156.236 88.26C156.564 88.572 157.004 88.804 157.556 88.956C158.116 89.1 158.74 89.232 159.428 89.352C160.532 89.528 161.552 89.82 162.488 90.228C163.432 90.636 164.188 91.18 164.756 91.86C165.332 92.532 165.62 93.36 165.62 94.344C165.62 95.336 165.332 96.208 164.756 96.96C164.188 97.704 163.432 98.284 162.488 98.7C161.552 99.108 160.532 99.312 159.428 99.312ZM174.424 89.496H171.904L171.892 99H169.396L169.408 89.496H167.5V87H169.408L169.396 83.232H171.892L171.904 87H174.424V89.496ZM176.573 99V87H179.069V88.272C179.485 87.776 179.997 87.384 180.605 87.096C181.213 86.808 181.869 86.664 182.573 86.664C183.021 86.664 183.465 86.724 183.905 86.844L182.909 89.364C182.597 89.244 182.285 89.184 181.973 89.184C181.445 89.184 180.961 89.316 180.521 89.58C180.081 89.836 179.729 90.184 179.465 90.624C179.201 91.064 179.069 91.552 179.069 92.088V99H176.573ZM194.065 87H196.561V99H194.053L193.957 97.26C193.605 97.876 193.129 98.372 192.529 98.748C191.929 99.124 191.221 99.312 190.405 99.312C189.525 99.312 188.697 99.148 187.921 98.82C187.145 98.484 186.461 98.02 185.869 97.428C185.285 96.836 184.829 96.156 184.501 95.388C184.173 94.612 184.009 93.78 184.009 92.892C184.009 92.036 184.169 91.232 184.489 90.48C184.809 89.72 185.253 89.056 185.821 88.488C186.389 87.92 187.045 87.476 187.789 87.156C188.541 86.828 189.345 86.664 190.201 86.664C191.073 86.664 191.841 86.864 192.505 87.264C193.177 87.656 193.733 88.16 194.173 88.776L194.065 87ZM190.345 96.9C191.049 96.9 191.665 96.728 192.193 96.384C192.721 96.032 193.129 95.56 193.417 94.968C193.713 94.376 193.861 93.72 193.861 93C193.861 92.272 193.713 91.612 193.417 91.02C193.121 90.428 192.709 89.96 192.181 89.616C191.661 89.264 191.049 89.088 190.345 89.088C189.649 89.088 189.013 89.264 188.437 89.616C187.861 89.968 187.405 90.44 187.069 91.032C186.733 91.624 186.565 92.28 186.565 93C186.565 93.728 186.737 94.388 187.081 94.98C187.433 95.564 187.893 96.032 188.461 96.384C189.037 96.728 189.665 96.9 190.345 96.9ZM205.292 89.496H202.772L202.76 99H200.264L200.276 89.496H198.368V87H200.276L200.264 83.232H202.76L202.772 87H205.292V89.496ZM212.439 99.312C211.335 99.312 210.327 99.028 209.415 98.46C208.511 97.892 207.787 97.132 207.243 96.18C206.707 95.22 206.439 94.16 206.439 93C206.439 92.12 206.595 91.3 206.907 90.54C207.219 89.772 207.647 89.1 208.191 88.524C208.743 87.94 209.383 87.484 210.111 87.156C210.839 86.828 211.615 86.664 212.439 86.664C213.359 86.664 214.203 86.856 214.971 87.24C215.739 87.616 216.395 88.14 216.939 88.812C217.483 89.476 217.883 90.244 218.139 91.116C218.395 91.98 218.471 92.9 218.367 93.876H209.115C209.219 94.428 209.419 94.928 209.715 95.376C210.019 95.816 210.403 96.164 210.867 96.42C211.339 96.676 211.863 96.808 212.439 96.816C213.047 96.816 213.599 96.664 214.095 96.36C214.599 96.056 215.011 95.636 215.331 95.1L217.863 95.688C217.383 96.752 216.659 97.624 215.691 98.304C214.723 98.976 213.639 99.312 212.439 99.312ZM209.031 91.968H215.847C215.767 91.392 215.563 90.872 215.235 90.408C214.915 89.936 214.511 89.564 214.023 89.292C213.543 89.012 213.015 88.872 212.439 88.872C211.871 88.872 211.343 89.008 210.855 89.28C210.375 89.552 209.975 89.924 209.655 90.396C209.343 90.86 209.135 91.384 209.031 91.968ZM229.463 87H231.959V99.312C231.959 100.136 231.783 100.896 231.431 101.592C231.087 102.288 230.619 102.888 230.027 103.392C229.435 103.904 228.755 104.3 227.987 104.58C227.227 104.86 226.431 105 225.599 105C224.759 105 223.951 104.82 223.175 104.46C222.399 104.108 221.715 103.628 221.123 103.02C220.539 102.412 220.103 101.724 219.815 100.956L222.107 99.924C222.267 100.42 222.523 100.86 222.875 101.244C223.235 101.628 223.651 101.932 224.123 102.156C224.603 102.38 225.095 102.492 225.599 102.492C226.095 102.492 226.571 102.412 227.027 102.252C227.491 102.1 227.903 101.884 228.263 101.604C228.631 101.324 228.923 100.988 229.139 100.596C229.355 100.204 229.463 99.776 229.463 99.312V97.284C229.071 97.892 228.567 98.384 227.951 98.76C227.335 99.128 226.619 99.312 225.803 99.312C224.955 99.312 224.155 99.148 223.403 98.82C222.651 98.492 221.991 98.04 221.423 97.464C220.855 96.88 220.411 96.208 220.091 95.448C219.771 94.688 219.611 93.872 219.611 93C219.611 92.128 219.771 91.312 220.091 90.552C220.411 89.784 220.855 89.112 221.423 88.536C221.991 87.952 222.651 87.496 223.403 87.168C224.155 86.84 224.955 86.676 225.803 86.676C226.619 86.676 227.335 86.864 227.951 87.24C228.567 87.608 229.071 88.1 229.463 88.716V87ZM225.827 96.9C226.523 96.9 227.131 96.724 227.651 96.372C228.171 96.012 228.575 95.536 228.863 94.944C229.151 94.352 229.295 93.704 229.295 93C229.295 92.28 229.147 91.628 228.851 91.044C228.563 90.452 228.159 89.98 227.639 89.628C227.119 89.268 226.515 89.088 225.827 89.088C225.155 89.088 224.539 89.264 223.979 89.616C223.427 89.968 222.987 90.44 222.659 91.032C222.331 91.624 222.167 92.28 222.167 93C222.167 93.72 222.331 94.376 222.659 94.968C222.995 95.56 223.439 96.032 223.991 96.384C224.551 96.728 225.163 96.9 225.827 96.9ZM234.628 87H237.124V99H234.628V87ZM235.9 85.26C235.516 85.26 235.196 85.136 234.94 84.888C234.684 84.64 234.556 84.328 234.556 83.952C234.556 83.584 234.684 83.276 234.94 83.028C235.196 82.772 235.512 82.644 235.888 82.644C236.256 82.644 236.568 82.772 236.824 83.028C237.08 83.276 237.208 83.584 237.208 83.952C237.208 84.328 237.08 84.64 236.824 84.888C236.576 85.136 236.268 85.26 235.9 85.26ZM247.62 95.592L249.852 96.804C249.308 97.564 248.616 98.172 247.776 98.628C246.944 99.084 246.04 99.312 245.064 99.312C243.96 99.312 242.952 99.028 242.04 98.46C241.136 97.892 240.412 97.132 239.868 96.18C239.332 95.22 239.064 94.16 239.064 93C239.064 92.12 239.22 91.3 239.532 90.54C239.844 89.772 240.272 89.1 240.816 88.524C241.368 87.94 242.008 87.484 242.736 87.156C243.464 86.828 244.24 86.664 245.064 86.664C246.04 86.664 246.944 86.892 247.776 87.348C248.616 87.804 249.308 88.416 249.852 89.184L247.62 90.396C247.284 89.996 246.892 89.692 246.444 89.484C245.996 89.268 245.536 89.16 245.064 89.16C244.408 89.16 243.812 89.34 243.276 89.7C242.748 90.052 242.328 90.52 242.016 91.104C241.712 91.68 241.56 92.312 241.56 93C241.56 93.68 241.716 94.312 242.028 94.896C242.34 95.472 242.76 95.936 243.288 96.288C243.824 96.64 244.416 96.816 245.064 96.816C245.56 96.816 246.032 96.704 246.48 96.48C246.928 96.256 247.308 95.96 247.62 95.592ZM257.784 99L261.036 82.2H263.052L267.36 93.516L271.644 82.2H273.66L276.924 99H274.38L272.208 87.756L268.188 98.364H266.508L262.5 87.756L260.328 99H257.784ZM287.979 87H290.475V99H287.967L287.871 97.26C287.519 97.876 287.043 98.372 286.443 98.748C285.843 99.124 285.135 99.312 284.319 99.312C283.439 99.312 282.611 99.148 281.835 98.82C281.059 98.484 280.375 98.02 279.783 97.428C279.199 96.836 278.743 96.156 278.415 95.388C278.087 94.612 277.923 93.78 277.923 92.892C277.923 92.036 278.083 91.232 278.403 90.48C278.723 89.72 279.167 89.056 279.735 88.488C280.303 87.92 280.959 87.476 281.703 87.156C282.455 86.828 283.259 86.664 284.115 86.664C284.987 86.664 285.755 86.864 286.419 87.264C287.091 87.656 287.647 88.16 288.087 88.776L287.979 87ZM284.259 96.9C284.963 96.9 285.579 96.728 286.107 96.384C286.635 96.032 287.043 95.56 287.331 94.968C287.627 94.376 287.775 93.72 287.775 93C287.775 92.272 287.627 91.612 287.331 91.02C287.035 90.428 286.623 89.96 286.095 89.616C285.575 89.264 284.963 89.088 284.259 89.088C283.563 89.088 282.927 89.264 282.351 89.616C281.775 89.968 281.319 90.44 280.983 91.032C280.647 91.624 280.479 92.28 280.479 93C280.479 93.728 280.651 94.388 280.995 94.98C281.347 95.564 281.807 96.032 282.375 96.384C282.951 96.728 283.579 96.9 284.259 96.9ZM292.87 99V87H295.366V88.272C295.782 87.776 296.294 87.384 296.902 87.096C297.51 86.808 298.166 86.664 298.87 86.664C299.318 86.664 299.762 86.724 300.202 86.844L299.206 89.364C298.894 89.244 298.582 89.184 298.27 89.184C297.742 89.184 297.258 89.316 296.818 89.58C296.378 89.836 296.026 90.184 295.762 90.624C295.498 91.064 295.366 91.552 295.366 92.088V99H292.87ZM311.848 99H308.968L306.016 93.912L304.084 96.216V99H301.588V81H304.084V92.34L308.548 87H311.812L307.72 91.884L311.848 99ZM318.353 99.312C317.249 99.312 316.241 99.028 315.329 98.46C314.425 97.892 313.701 97.132 313.157 96.18C312.621 95.22 312.353 94.16 312.353 93C312.353 92.12 312.509 91.3 312.821 90.54C313.133 89.772 313.561 89.1 314.105 88.524C314.657 87.94 315.297 87.484 316.025 87.156C316.753 86.828 317.529 86.664 318.353 86.664C319.273 86.664 320.117 86.856 320.885 87.24C321.653 87.616 322.309 88.14 322.853 88.812C323.397 89.476 323.797 90.244 324.053 91.116C324.309 91.98 324.385 92.9 324.281 93.876H315.029C315.133 94.428 315.333 94.928 315.629 95.376C315.933 95.816 316.317 96.164 316.781 96.42C317.253 96.676 317.777 96.808 318.353 96.816C318.961 96.816 319.513 96.664 320.009 96.36C320.513 96.056 320.925 95.636 321.245 95.1L323.777 95.688C323.297 96.752 322.573 97.624 321.605 98.304C320.637 98.976 319.553 99.312 318.353 99.312ZM314.945 91.968H321.761C321.681 91.392 321.477 90.872 321.149 90.408C320.829 89.936 320.425 89.564 319.937 89.292C319.457 89.012 318.929 88.872 318.353 88.872C317.785 88.872 317.257 89.008 316.769 89.28C316.289 89.552 315.889 89.924 315.569 90.396C315.257 90.86 315.049 91.384 314.945 91.968ZM332.534 89.496H330.014L330.002 99H327.506L327.518 89.496H325.61V87H327.518L327.506 83.232H330.002L330.014 87H332.534V89.496ZM334.518 87H337.014V99H334.518V87ZM335.79 85.26C335.406 85.26 335.086 85.136 334.83 84.888C334.574 84.64 334.446 84.328 334.446 83.952C334.446 83.584 334.574 83.276 334.83 83.028C335.086 82.772 335.402 82.644 335.778 82.644C336.146 82.644 336.458 82.772 336.714 83.028C336.97 83.276 337.098 83.584 337.098 83.952C337.098 84.328 336.97 84.64 336.714 84.888C336.466 85.136 336.158 85.26 335.79 85.26ZM350.615 91.476V99H348.119V92.088C348.119 91.552 347.987 91.064 347.723 90.624C347.467 90.184 347.119 89.836 346.679 89.58C346.247 89.316 345.759 89.184 345.215 89.184C344.687 89.184 344.203 89.316 343.763 89.58C343.323 89.836 342.971 90.184 342.707 90.624C342.443 91.064 342.311 91.552 342.311 92.088V99H339.815V87H342.311V88.272C342.727 87.776 343.239 87.384 343.847 87.096C344.455 86.808 345.111 86.664 345.815 86.664C346.703 86.664 347.511 86.88 348.239 87.312C348.967 87.744 349.543 88.324 349.967 89.052C350.399 89.78 350.615 90.588 350.615 91.476ZM361.908 87H364.404V99.312C364.404 100.136 364.228 100.896 363.876 101.592C363.532 102.288 363.064 102.888 362.472 103.392C361.88 103.904 361.2 104.3 360.432 104.58C359.672 104.86 358.876 105 358.044 105C357.204 105 356.396 104.82 355.62 104.46C354.844 104.108 354.16 103.628 353.568 103.02C352.984 102.412 352.548 101.724 352.26 100.956L354.552 99.924C354.712 100.42 354.968 100.86 355.32 101.244C355.68 101.628 356.096 101.932 356.568 102.156C357.048 102.38 357.54 102.492 358.044 102.492C358.54 102.492 359.016 102.412 359.472 102.252C359.936 102.1 360.348 101.884 360.708 101.604C361.076 101.324 361.368 100.988 361.584 100.596C361.8 100.204 361.908 99.776 361.908 99.312V97.284C361.516 97.892 361.012 98.384 360.396 98.76C359.78 99.128 359.064 99.312 358.248 99.312C357.4 99.312 356.6 99.148 355.848 98.82C355.096 98.492 354.436 98.04 353.868 97.464C353.3 96.88 352.856 96.208 352.536 95.448C352.216 94.688 352.056 93.872 352.056 93C352.056 92.128 352.216 91.312 352.536 90.552C352.856 89.784 353.3 89.112 353.868 88.536C354.436 87.952 355.096 87.496 355.848 87.168C356.6 86.84 357.4 86.676 358.248 86.676C359.064 86.676 359.78 86.864 360.396 87.24C361.012 87.608 361.516 88.1 361.908 88.716V87ZM358.272 96.9C358.968 96.9 359.576 96.724 360.096 96.372C360.616 96.012 361.02 95.536 361.308 94.944C361.596 94.352 361.74 93.704 361.74 93C361.74 92.28 361.592 91.628 361.296 91.044C361.008 90.452 360.604 89.98 360.084 89.628C359.564 89.268 358.96 89.088 358.272 89.088C357.6 89.088 356.984 89.264 356.424 89.616C355.872 89.968 355.432 90.44 355.104 91.032C354.776 91.624 354.612 92.28 354.612 93C354.612 93.72 354.776 94.376 355.104 94.968C355.44 95.56 355.884 96.032 356.436 96.384C356.996 96.728 357.608 96.9 358.272 96.9Z" fill="white"></path><path d="M55.517 182.234C54.839 182.234 54.185 182.129 53.555 181.919C52.925 181.703 52.373 181.397 51.899 181.001C51.431 180.605 51.098 180.134 50.9 179.588L52.313 179.057C52.433 179.393 52.655 179.687 52.979 179.939C53.309 180.185 53.696 180.377 54.14 180.515C54.584 180.653 55.043 180.722 55.517 180.722C56.057 180.722 56.558 180.635 57.02 180.461C57.488 180.281 57.866 180.032 58.154 179.714C58.442 179.396 58.586 179.024 58.586 178.598C58.586 178.16 58.436 177.803 58.136 177.527C57.836 177.245 57.452 177.023 56.984 176.861C56.516 176.693 56.027 176.564 55.517 176.474C54.647 176.33 53.867 176.126 53.177 175.862C52.493 175.592 51.95 175.217 51.548 174.737C51.152 174.257 50.954 173.624 50.954 172.838C50.954 172.106 51.164 171.467 51.584 170.921C52.01 170.375 52.571 169.952 53.267 169.652C53.963 169.352 54.713 169.202 55.517 169.202C56.183 169.202 56.828 169.307 57.452 169.517C58.082 169.721 58.637 170.021 59.117 170.417C59.597 170.813 59.942 171.296 60.152 171.866L58.721 172.388C58.601 172.046 58.376 171.752 58.046 171.506C57.722 171.254 57.338 171.062 56.894 170.93C56.456 170.792 55.997 170.723 55.517 170.723C54.983 170.717 54.485 170.804 54.023 170.984C53.561 171.164 53.186 171.413 52.898 171.731C52.61 172.049 52.466 172.418 52.466 172.838C52.466 173.342 52.598 173.729 52.862 173.999C53.132 174.263 53.498 174.461 53.96 174.593C54.422 174.725 54.941 174.842 55.517 174.944C56.333 175.082 57.089 175.301 57.785 175.601C58.481 175.895 59.039 176.288 59.459 176.78C59.885 177.272 60.098 177.878 60.098 178.598C60.098 179.33 59.885 179.969 59.459 180.515C59.039 181.061 58.481 181.484 57.785 181.784C57.089 182.084 56.333 182.234 55.517 182.234ZM65.9384 182.234C65.1104 182.234 64.3544 182.021 63.6704 181.595C62.9924 181.169 62.4494 180.599 62.0414 179.885C61.6394 179.165 61.4384 178.37 61.4384 177.5C61.4384 176.84 61.5554 176.225 61.7894 175.655C62.0234 175.079 62.3444 174.575 62.7524 174.143C63.1664 173.705 63.6464 173.363 64.1924 173.117C64.7384 172.871 65.3204 172.748 65.9384 172.748C66.6164 172.748 67.2374 172.886 67.8014 173.162C68.3714 173.432 68.8574 173.81 69.2594 174.296C69.6674 174.782 69.9704 175.346 70.1684 175.988C70.3724 176.63 70.4474 177.317 70.3934 178.049H63.0494C63.1214 178.559 63.2894 179.015 63.5534 179.417C63.8174 179.813 64.1534 180.128 64.5614 180.362C64.9754 180.596 65.4344 180.716 65.9384 180.722C66.4784 180.722 66.9674 180.584 67.4054 180.308C67.8434 180.026 68.1974 179.642 68.4674 179.156L70.0064 179.516C69.6464 180.314 69.1034 180.968 68.3774 181.478C67.6514 181.982 66.8384 182.234 65.9384 182.234ZM63.0044 176.861H68.8724C68.8244 176.357 68.6624 175.898 68.3864 175.484C68.1104 175.064 67.7594 174.728 67.3334 174.476C66.9074 174.224 66.4424 174.098 65.9384 174.098C65.4344 174.098 64.9724 174.221 64.5524 174.467C64.1324 174.713 63.7844 175.046 63.5084 175.466C63.2384 175.88 63.0704 176.345 63.0044 176.861ZM71.8222 182V168.5H73.3342V182H71.8222ZM75.496 182V168.5H77.008V182H75.496ZM79.1698 173H80.6818V182H79.1698V173ZM79.9438 171.533C79.7038 171.533 79.5028 171.455 79.3408 171.299C79.1788 171.143 79.0978 170.948 79.0978 170.714C79.0978 170.48 79.1788 170.285 79.3408 170.129C79.5028 169.973 79.7008 169.895 79.9348 169.895C80.1688 169.895 80.3668 169.973 80.5288 170.129C80.6908 170.285 80.7718 170.48 80.7718 170.714C80.7718 170.948 80.6908 171.143 80.5288 171.299C80.3728 171.455 80.1778 171.533 79.9438 171.533ZM90.7645 176.402V182H89.2525V176.735C89.2525 176.279 89.1415 175.865 88.9195 175.493C88.6975 175.121 88.4005 174.827 88.0285 174.611C87.6565 174.389 87.2425 174.278 86.7865 174.278C86.3365 174.278 85.9225 174.389 85.5445 174.611C85.1725 174.827 84.8755 175.121 84.6535 175.493C84.4315 175.865 84.3205 176.279 84.3205 176.735V182H82.8085V173H84.3205V174.125C84.6385 173.705 85.0405 173.372 85.5265 173.126C86.0125 172.874 86.5405 172.748 87.1105 172.748C87.7825 172.748 88.3945 172.913 88.9465 173.243C89.5045 173.567 89.9455 174.005 90.2695 174.557C90.5995 175.109 90.7645 175.724 90.7645 176.402ZM99.4176 173H100.93V182.288C100.93 182.882 100.801 183.434 100.543 183.944C100.291 184.46 99.9486 184.907 99.5166 185.285C99.0846 185.669 98.5926 185.966 98.0406 186.176C97.4886 186.392 96.9126 186.5 96.3126 186.5C95.6886 186.5 95.0856 186.359 94.5036 186.077C93.9216 185.801 93.4116 185.429 92.9736 184.961C92.5416 184.499 92.2296 183.98 92.0376 183.404L93.4236 182.774C93.5376 183.188 93.7416 183.56 94.0356 183.89C94.3356 184.226 94.6836 184.49 95.0796 184.682C95.4816 184.88 95.8926 184.979 96.3126 184.979C96.7086 184.979 97.0896 184.91 97.4556 184.772C97.8276 184.634 98.1606 184.442 98.4546 184.196C98.7546 183.956 98.9886 183.671 99.1566 183.341C99.3306 183.017 99.4176 182.666 99.4176 182.288V180.497C99.1116 181.013 98.7066 181.433 98.2026 181.757C97.7046 182.075 97.1226 182.234 96.4566 182.234C95.8206 182.234 95.2236 182.111 94.6656 181.865C94.1076 181.619 93.6186 181.28 93.1986 180.848C92.7786 180.41 92.4486 179.906 92.2086 179.336C91.9686 178.766 91.8486 178.154 91.8486 177.5C91.8486 176.846 91.9686 176.234 92.2086 175.664C92.4486 175.088 92.7786 174.584 93.1986 174.152C93.6186 173.714 94.1076 173.372 94.6656 173.126C95.2236 172.88 95.8206 172.757 96.4566 172.757C97.1226 172.757 97.7046 172.916 98.2026 173.234C98.7066 173.552 99.1116 173.972 99.4176 174.494V173ZM96.4656 180.767C97.0476 180.767 97.5516 180.617 97.9776 180.317C98.4096 180.017 98.7426 179.618 98.9766 179.12C99.2106 178.622 99.3276 178.082 99.3276 177.5C99.3276 176.9 99.2076 176.354 98.9676 175.862C98.7336 175.364 98.4006 174.968 97.9686 174.674C97.5426 174.374 97.0416 174.224 96.4656 174.224C95.9016 174.224 95.3856 174.371 94.9176 174.665C94.4496 174.959 94.0776 175.355 93.8016 175.853C93.5316 176.345 93.3966 176.894 93.3966 177.5C93.3966 178.106 93.5346 178.658 93.8106 179.156C94.0926 179.648 94.4646 180.041 94.9266 180.335C95.3946 180.623 95.9076 180.767 96.4656 180.767ZM114.654 173H116.166V182H114.654L114.591 180.479C114.309 181.001 113.919 181.424 113.421 181.748C112.929 182.072 112.341 182.234 111.657 182.234C110.997 182.234 110.379 182.111 109.803 181.865C109.227 181.613 108.717 181.268 108.273 180.83C107.835 180.386 107.493 179.876 107.247 179.3C107.001 178.724 106.878 178.103 106.878 177.437C106.878 176.795 106.998 176.189 107.238 175.619C107.478 175.049 107.811 174.551 108.237 174.125C108.669 173.693 109.167 173.357 109.731 173.117C110.295 172.871 110.901 172.748 111.549 172.748C112.257 172.748 112.878 172.916 113.412 173.252C113.946 173.582 114.378 174.011 114.708 174.539L114.654 173ZM111.63 180.767C112.224 180.767 112.737 180.623 113.169 180.335C113.607 180.041 113.943 179.645 114.177 179.147C114.417 178.649 114.537 178.1 114.537 177.5C114.537 176.888 114.417 176.336 114.177 175.844C113.937 175.346 113.598 174.953 113.16 174.665C112.728 174.371 112.218 174.224 111.63 174.224C111.036 174.224 110.496 174.371 110.01 174.665C109.524 174.959 109.137 175.355 108.849 175.853C108.567 176.345 108.426 176.894 108.426 177.5C108.426 178.106 108.573 178.658 108.867 179.156C109.161 179.648 109.551 180.041 110.037 180.335C110.523 180.623 111.054 180.767 111.63 180.767ZM123.801 186.5H122.289V173H123.801V174.539C124.107 174.011 124.515 173.585 125.025 173.261C125.535 172.931 126.141 172.766 126.843 172.766C127.497 172.766 128.109 172.889 128.679 173.135C129.255 173.381 129.759 173.723 130.191 174.161C130.623 174.593 130.962 175.094 131.208 175.664C131.454 176.234 131.577 176.846 131.577 177.5C131.577 178.154 131.454 178.769 131.208 179.345C130.962 179.921 130.623 180.428 130.191 180.866C129.759 181.298 129.255 181.637 128.679 181.883C128.109 182.129 127.497 182.252 126.843 182.252C126.141 182.252 125.535 182.09 125.025 181.766C124.515 181.436 124.107 181.007 123.801 180.479V186.5ZM126.825 174.233C126.243 174.233 125.733 174.38 125.295 174.674C124.857 174.968 124.518 175.361 124.278 175.853C124.044 176.345 123.927 176.894 123.927 177.5C123.927 178.1 124.044 178.649 124.278 179.147C124.518 179.645 124.854 180.041 125.286 180.335C125.724 180.629 126.237 180.776 126.825 180.776C127.407 180.776 127.941 180.632 128.427 180.344C128.913 180.05 129.303 179.657 129.597 179.165C129.891 178.667 130.038 178.112 130.038 177.5C130.038 176.9 129.894 176.354 129.606 175.862C129.318 175.364 128.931 174.968 128.445 174.674C127.959 174.38 127.419 174.233 126.825 174.233ZM133.082 182V173H134.594V174.125C134.912 173.705 135.314 173.372 135.8 173.126C136.286 172.874 136.814 172.748 137.384 172.748C137.732 172.748 138.068 172.793 138.392 172.883L137.78 174.395C137.534 174.317 137.294 174.278 137.06 174.278C136.61 174.278 136.196 174.389 135.818 174.611C135.446 174.827 135.149 175.121 134.927 175.493C134.705 175.865 134.594 176.279 134.594 176.735V182H133.082ZM143.001 182.234C142.173 182.234 141.417 182.021 140.733 181.595C140.055 181.169 139.512 180.599 139.104 179.885C138.702 179.165 138.501 178.37 138.501 177.5C138.501 176.84 138.618 176.225 138.852 175.655C139.086 175.079 139.407 174.575 139.815 174.143C140.229 173.705 140.709 173.363 141.255 173.117C141.801 172.871 142.383 172.748 143.001 172.748C143.829 172.748 144.582 172.961 145.26 173.387C145.944 173.813 146.487 174.386 146.889 175.106C147.297 175.826 147.501 176.624 147.501 177.5C147.501 178.154 147.384 178.766 147.15 179.336C146.916 179.906 146.592 180.41 146.178 180.848C145.77 181.28 145.293 181.619 144.747 181.865C144.207 182.111 143.625 182.234 143.001 182.234ZM143.001 180.722C143.565 180.722 144.072 180.575 144.522 180.281C144.978 179.981 145.335 179.588 145.593 179.102C145.857 178.61 145.989 178.076 145.989 177.5C145.989 176.912 145.854 176.372 145.584 175.88C145.32 175.388 144.963 174.995 144.513 174.701C144.063 174.407 143.559 174.26 143.001 174.26C142.437 174.26 141.93 174.41 141.48 174.71C141.03 175.004 140.673 175.397 140.409 175.889C140.145 176.381 140.013 176.918 140.013 177.5C140.013 178.1 140.148 178.646 140.418 179.138C140.688 179.624 141.051 180.011 141.507 180.299C141.963 180.581 142.461 180.722 143.001 180.722ZM150.502 186.5H148.99V173H150.502V174.539C150.808 174.011 151.216 173.585 151.726 173.261C152.236 172.931 152.842 172.766 153.544 172.766C154.198 172.766 154.81 172.889 155.38 173.135C155.956 173.381 156.46 173.723 156.892 174.161C157.324 174.593 157.663 175.094 157.909 175.664C158.155 176.234 158.278 176.846 158.278 177.5C158.278 178.154 158.155 178.769 157.909 179.345C157.663 179.921 157.324 180.428 156.892 180.866C156.46 181.298 155.956 181.637 155.38 181.883C154.81 182.129 154.198 182.252 153.544 182.252C152.842 182.252 152.236 182.09 151.726 181.766C151.216 181.436 150.808 181.007 150.502 180.479V186.5ZM153.526 174.233C152.944 174.233 152.434 174.38 151.996 174.674C151.558 174.968 151.219 175.361 150.979 175.853C150.745 176.345 150.628 176.894 150.628 177.5C150.628 178.1 150.745 178.649 150.979 179.147C151.219 179.645 151.555 180.041 151.987 180.335C152.425 180.629 152.938 180.776 153.526 180.776C154.108 180.776 154.642 180.632 155.128 180.344C155.614 180.05 156.004 179.657 156.298 179.165C156.592 178.667 156.739 178.112 156.739 177.5C156.739 176.9 156.595 176.354 156.307 175.862C156.019 175.364 155.632 174.968 155.146 174.674C154.66 174.38 154.12 174.233 153.526 174.233ZM163.69 182.234C162.862 182.234 162.106 182.021 161.422 181.595C160.744 181.169 160.201 180.599 159.793 179.885C159.391 179.165 159.19 178.37 159.19 177.5C159.19 176.84 159.307 176.225 159.541 175.655C159.775 175.079 160.096 174.575 160.504 174.143C160.918 173.705 161.398 173.363 161.944 173.117C162.49 172.871 163.072 172.748 163.69 172.748C164.368 172.748 164.989 172.886 165.553 173.162C166.123 173.432 166.609 173.81 167.011 174.296C167.419 174.782 167.722 175.346 167.92 175.988C168.124 176.63 168.199 177.317 168.145 178.049H160.801C160.873 178.559 161.041 179.015 161.305 179.417C161.569 179.813 161.905 180.128 162.313 180.362C162.727 180.596 163.186 180.716 163.69 180.722C164.23 180.722 164.719 180.584 165.157 180.308C165.595 180.026 165.949 179.642 166.219 179.156L167.758 179.516C167.398 180.314 166.855 180.968 166.129 181.478C165.403 181.982 164.59 182.234 163.69 182.234ZM160.756 176.861H166.624C166.576 176.357 166.414 175.898 166.138 175.484C165.862 175.064 165.511 174.728 165.085 174.476C164.659 174.224 164.194 174.098 163.69 174.098C163.186 174.098 162.724 174.221 162.304 174.467C161.884 174.713 161.536 175.046 161.26 175.466C160.99 175.88 160.822 176.345 160.756 176.861ZM169.662 182V173H171.174V174.125C171.492 173.705 171.894 173.372 172.38 173.126C172.866 172.874 173.394 172.748 173.964 172.748C174.312 172.748 174.648 172.793 174.972 172.883L174.36 174.395C174.114 174.317 173.874 174.278 173.64 174.278C173.19 174.278 172.776 174.389 172.398 174.611C172.026 174.827 171.729 175.121 171.507 175.493C171.285 175.865 171.174 176.279 171.174 176.735V182H169.662ZM180.898 174.512H178.855L178.846 182H177.334L177.343 174.512H175.795V173H177.343L177.334 170.174H178.846L178.855 173H180.898V174.512ZM188.466 173H190.068L185.145 186.5H183.543L185.172 182L181.941 173H183.597L185.928 179.921L188.466 173ZM196.187 182V173H197.699V174.125C198.017 173.705 198.419 173.372 198.905 173.126C199.391 172.874 199.919 172.748 200.489 172.748C200.837 172.748 201.173 172.793 201.497 172.883L200.885 174.395C200.639 174.317 200.399 174.278 200.165 174.278C199.715 174.278 199.301 174.389 198.923 174.611C198.551 174.827 198.254 175.121 198.032 175.493C197.81 175.865 197.699 176.279 197.699 176.735V182H196.187ZM206.106 182.234C205.278 182.234 204.522 182.021 203.838 181.595C203.16 181.169 202.617 180.599 202.209 179.885C201.807 179.165 201.606 178.37 201.606 177.5C201.606 176.84 201.723 176.225 201.957 175.655C202.191 175.079 202.512 174.575 202.92 174.143C203.334 173.705 203.814 173.363 204.36 173.117C204.906 172.871 205.488 172.748 206.106 172.748C206.784 172.748 207.405 172.886 207.969 173.162C208.539 173.432 209.025 173.81 209.427 174.296C209.835 174.782 210.138 175.346 210.336 175.988C210.54 176.63 210.615 177.317 210.561 178.049H203.217C203.289 178.559 203.457 179.015 203.721 179.417C203.985 179.813 204.321 180.128 204.729 180.362C205.143 180.596 205.602 180.716 206.106 180.722C206.646 180.722 207.135 180.584 207.573 180.308C208.011 180.026 208.365 179.642 208.635 179.156L210.174 179.516C209.814 180.314 209.271 180.968 208.545 181.478C207.819 181.982 207.006 182.234 206.106 182.234ZM203.172 176.861H209.04C208.992 176.357 208.83 175.898 208.554 175.484C208.278 175.064 207.927 174.728 207.501 174.476C207.075 174.224 206.61 174.098 206.106 174.098C205.602 174.098 205.14 174.221 204.72 174.467C204.3 174.713 203.952 175.046 203.676 175.466C203.406 175.88 203.238 176.345 203.172 176.861ZM216.219 182.252C215.349 182.252 214.554 182.039 213.834 181.613C213.12 181.187 212.55 180.614 212.124 179.894C211.698 179.174 211.485 178.376 211.485 177.5C211.485 176.846 211.608 176.234 211.854 175.664C212.1 175.094 212.439 174.593 212.871 174.161C213.309 173.723 213.813 173.381 214.383 173.135C214.953 172.889 215.565 172.766 216.219 172.766C216.915 172.766 217.518 172.931 218.028 173.261C218.544 173.585 218.955 174.011 219.261 174.539V173H220.773V186.5H219.261V180.479C218.955 181.007 218.544 181.436 218.028 181.766C217.518 182.09 216.915 182.252 216.219 182.252ZM216.237 174.233C215.643 174.233 215.103 174.38 214.617 174.674C214.131 174.968 213.744 175.364 213.456 175.862C213.174 176.354 213.033 176.9 213.033 177.5C213.033 178.112 213.177 178.667 213.465 179.165C213.759 179.657 214.149 180.05 214.635 180.344C215.121 180.632 215.655 180.776 216.237 180.776C216.831 180.776 217.344 180.629 217.776 180.335C218.208 180.041 218.541 179.645 218.775 179.147C219.015 178.649 219.135 178.1 219.135 177.5C219.135 176.894 219.015 176.345 218.775 175.853C218.541 175.361 218.205 174.968 217.767 174.674C217.335 174.38 216.825 174.233 216.237 174.233ZM222.423 178.58V173H223.935V178.247C223.935 178.703 224.046 179.117 224.268 179.489C224.49 179.861 224.787 180.158 225.159 180.38C225.537 180.596 225.951 180.704 226.401 180.704C226.857 180.704 227.268 180.596 227.634 180.38C228.006 180.158 228.303 179.861 228.525 179.489C228.747 179.117 228.858 178.703 228.858 178.247V173H230.37L230.379 182H228.867L228.858 180.857C228.54 181.277 228.138 181.613 227.652 181.865C227.166 182.111 226.641 182.234 226.077 182.234C225.405 182.234 224.79 182.072 224.232 181.748C223.68 181.418 223.239 180.977 222.909 180.425C222.585 179.873 222.423 179.258 222.423 178.58ZM232.187 173H233.699V182H232.187V173ZM232.961 171.533C232.721 171.533 232.52 171.455 232.358 171.299C232.196 171.143 232.115 170.948 232.115 170.714C232.115 170.48 232.196 170.285 232.358 170.129C232.52 169.973 232.718 169.895 232.952 169.895C233.186 169.895 233.384 169.973 233.546 170.129C233.708 170.285 233.789 170.48 233.789 170.714C233.789 170.948 233.708 171.143 233.546 171.299C233.39 171.455 233.195 171.533 232.961 171.533ZM235.826 182V173H237.338V174.125C237.656 173.705 238.058 173.372 238.544 173.126C239.03 172.874 239.558 172.748 240.128 172.748C240.476 172.748 240.812 172.793 241.136 172.883L240.524 174.395C240.278 174.317 240.038 174.278 239.804 174.278C239.354 174.278 238.94 174.389 238.562 174.611C238.19 174.827 237.893 175.121 237.671 175.493C237.449 175.865 237.338 176.279 237.338 176.735V182H235.826ZM245.745 182.234C244.917 182.234 244.161 182.021 243.477 181.595C242.799 181.169 242.256 180.599 241.848 179.885C241.446 179.165 241.245 178.37 241.245 177.5C241.245 176.84 241.362 176.225 241.596 175.655C241.83 175.079 242.151 174.575 242.559 174.143C242.973 173.705 243.453 173.363 243.999 173.117C244.545 172.871 245.127 172.748 245.745 172.748C246.423 172.748 247.044 172.886 247.608 173.162C248.178 173.432 248.664 173.81 249.066 174.296C249.474 174.782 249.777 175.346 249.975 175.988C250.179 176.63 250.254 177.317 250.2 178.049H242.856C242.928 178.559 243.096 179.015 243.36 179.417C243.624 179.813 243.96 180.128 244.368 180.362C244.782 180.596 245.241 180.716 245.745 180.722C246.285 180.722 246.774 180.584 247.212 180.308C247.65 180.026 248.004 179.642 248.274 179.156L249.813 179.516C249.453 180.314 248.91 180.968 248.184 181.478C247.458 181.982 246.645 182.234 245.745 182.234ZM242.811 176.861H248.679C248.631 176.357 248.469 175.898 248.193 175.484C247.917 175.064 247.566 174.728 247.14 174.476C246.714 174.224 246.249 174.098 245.745 174.098C245.241 174.098 244.779 174.221 244.359 174.467C243.939 174.713 243.591 175.046 243.315 175.466C243.045 175.88 242.877 176.345 242.811 176.861ZM254.497 182.171C254.011 182.153 253.537 182.063 253.075 181.901C252.619 181.733 252.217 181.508 251.869 181.226C251.527 180.938 251.278 180.608 251.122 180.236L252.418 179.678C252.508 179.882 252.67 180.074 252.904 180.254C253.138 180.434 253.408 180.578 253.714 180.686C254.02 180.794 254.329 180.848 254.641 180.848C254.971 180.848 255.28 180.797 255.568 180.695C255.856 180.593 256.09 180.443 256.27 180.245C256.456 180.041 256.549 179.798 256.549 179.516C256.549 179.216 256.447 178.982 256.243 178.814C256.045 178.64 255.793 178.505 255.487 178.409C255.187 178.307 254.881 178.211 254.569 178.121C253.951 177.965 253.399 177.779 252.913 177.563C252.427 177.341 252.043 177.062 251.761 176.726C251.485 176.384 251.347 175.949 251.347 175.421C251.347 174.863 251.5 174.38 251.806 173.972C252.118 173.564 252.526 173.249 253.03 173.027C253.534 172.805 254.074 172.694 254.65 172.694C255.376 172.694 256.039 172.85 256.639 173.162C257.239 173.474 257.686 173.897 257.98 174.431L256.765 175.142C256.663 174.926 256.507 174.737 256.297 174.575C256.087 174.407 255.847 174.275 255.577 174.179C255.307 174.083 255.031 174.032 254.749 174.026C254.401 174.014 254.074 174.059 253.768 174.161C253.468 174.263 253.225 174.419 253.039 174.629C252.859 174.833 252.769 175.088 252.769 175.394C252.769 175.694 252.865 175.922 253.057 176.078C253.255 176.234 253.51 176.36 253.822 176.456C254.14 176.546 254.485 176.651 254.857 176.771C255.403 176.945 255.913 177.146 256.387 177.374C256.861 177.602 257.242 177.887 257.53 178.229C257.824 178.571 257.968 178.994 257.962 179.498C257.962 180.05 257.797 180.533 257.467 180.947C257.137 181.355 256.708 181.667 256.18 181.883C255.658 182.099 255.097 182.195 254.497 182.171ZM263.828 182V173H265.34V174.125C265.658 173.705 266.057 173.372 266.537 173.126C267.023 172.874 267.551 172.748 268.121 172.748C268.787 172.748 269.396 172.91 269.948 173.234C270.5 173.558 270.935 173.987 271.253 174.521C271.571 173.987 272.003 173.558 272.549 173.234C273.101 172.91 273.707 172.748 274.367 172.748C275.045 172.748 275.66 172.913 276.212 173.243C276.764 173.567 277.202 174.005 277.526 174.557C277.856 175.109 278.021 175.724 278.021 176.402V182H276.509V176.762C276.509 176.318 276.401 175.907 276.185 175.529C275.969 175.151 275.678 174.848 275.312 174.62C274.946 174.392 274.541 174.278 274.097 174.278C273.653 174.278 273.248 174.386 272.882 174.602C272.516 174.812 272.225 175.106 272.009 175.484C271.793 175.856 271.685 176.282 271.685 176.762V182H270.173V176.762C270.173 176.282 270.065 175.856 269.849 175.484C269.633 175.106 269.339 174.812 268.967 174.602C268.601 174.386 268.196 174.278 267.752 174.278C267.314 174.278 266.909 174.392 266.537 174.62C266.171 174.848 265.88 175.151 265.664 175.529C265.448 175.907 265.34 176.318 265.34 176.762V182H263.828ZM283.608 182.234C282.78 182.234 282.024 182.021 281.34 181.595C280.662 181.169 280.119 180.599 279.711 179.885C279.309 179.165 279.108 178.37 279.108 177.5C279.108 176.84 279.225 176.225 279.459 175.655C279.693 175.079 280.014 174.575 280.422 174.143C280.836 173.705 281.316 173.363 281.862 173.117C282.408 172.871 282.99 172.748 283.608 172.748C284.436 172.748 285.189 172.961 285.867 173.387C286.551 173.813 287.094 174.386 287.496 175.106C287.904 175.826 288.108 176.624 288.108 177.5C288.108 178.154 287.991 178.766 287.757 179.336C287.523 179.906 287.199 180.41 286.785 180.848C286.377 181.28 285.9 181.619 285.354 181.865C284.814 182.111 284.232 182.234 283.608 182.234ZM283.608 180.722C284.172 180.722 284.679 180.575 285.129 180.281C285.585 179.981 285.942 179.588 286.2 179.102C286.464 178.61 286.596 178.076 286.596 177.5C286.596 176.912 286.461 176.372 286.191 175.88C285.927 175.388 285.57 174.995 285.12 174.701C284.67 174.407 284.166 174.26 283.608 174.26C283.044 174.26 282.537 174.41 282.087 174.71C281.637 175.004 281.28 175.397 281.016 175.889C280.752 176.381 280.62 176.918 280.62 177.5C280.62 178.1 280.755 178.646 281.025 179.138C281.295 179.624 281.658 180.011 282.114 180.299C282.57 180.581 283.068 180.722 283.608 180.722ZM289.598 182V173H291.11V174.125C291.428 173.705 291.83 173.372 292.316 173.126C292.802 172.874 293.33 172.748 293.9 172.748C294.248 172.748 294.584 172.793 294.908 172.883L294.296 174.395C294.05 174.317 293.81 174.278 293.576 174.278C293.126 174.278 292.712 174.389 292.334 174.611C291.962 174.827 291.665 175.121 291.443 175.493C291.221 175.865 291.11 176.279 291.11 176.735V182H289.598ZM299.517 182.234C298.689 182.234 297.933 182.021 297.249 181.595C296.571 181.169 296.028 180.599 295.62 179.885C295.218 179.165 295.017 178.37 295.017 177.5C295.017 176.84 295.134 176.225 295.368 175.655C295.602 175.079 295.923 174.575 296.331 174.143C296.745 173.705 297.225 173.363 297.771 173.117C298.317 172.871 298.899 172.748 299.517 172.748C300.195 172.748 300.816 172.886 301.38 173.162C301.95 173.432 302.436 173.81 302.838 174.296C303.246 174.782 303.549 175.346 303.747 175.988C303.951 176.63 304.026 177.317 303.972 178.049H296.628C296.7 178.559 296.868 179.015 297.132 179.417C297.396 179.813 297.732 180.128 298.14 180.362C298.554 180.596 299.013 180.716 299.517 180.722C300.057 180.722 300.546 180.584 300.984 180.308C301.422 180.026 301.776 179.642 302.046 179.156L303.585 179.516C303.225 180.314 302.682 180.968 301.956 181.478C301.23 181.982 300.417 182.234 299.517 182.234ZM296.583 176.861H302.451C302.403 176.357 302.241 175.898 301.965 175.484C301.689 175.064 301.338 174.728 300.912 174.476C300.486 174.224 300.021 174.098 299.517 174.098C299.013 174.098 298.551 174.221 298.131 174.467C297.711 174.713 297.363 175.046 297.087 175.466C296.817 175.88 296.649 176.345 296.583 176.861ZM314.597 174.512H312.554L312.545 182H311.033L311.042 174.512H309.494V173H311.042L311.033 170.174H312.545L312.554 173H314.597V174.512ZM324.167 176.402V182H322.655V176.735C322.655 176.279 322.544 175.865 322.322 175.493C322.1 175.121 321.803 174.827 321.431 174.611C321.059 174.389 320.645 174.278 320.189 174.278C319.739 174.278 319.325 174.389 318.947 174.611C318.575 174.827 318.278 175.121 318.056 175.493C317.834 175.865 317.723 176.279 317.723 176.735V182H316.211V168.5H317.723V174.125C318.041 173.705 318.443 173.372 318.929 173.126C319.415 172.874 319.943 172.748 320.513 172.748C321.185 172.748 321.797 172.913 322.349 173.243C322.907 173.567 323.348 174.005 323.672 174.557C324.002 175.109 324.167 175.724 324.167 176.402ZM333.027 173H334.539V182H333.027L332.964 180.479C332.682 181.001 332.292 181.424 331.794 181.748C331.302 182.072 330.714 182.234 330.03 182.234C329.37 182.234 328.752 182.111 328.176 181.865C327.6 181.613 327.09 181.268 326.646 180.83C326.208 180.386 325.866 179.876 325.62 179.3C325.374 178.724 325.251 178.103 325.251 177.437C325.251 176.795 325.371 176.189 325.611 175.619C325.851 175.049 326.184 174.551 326.61 174.125C327.042 173.693 327.54 173.357 328.104 173.117C328.668 172.871 329.274 172.748 329.922 172.748C330.63 172.748 331.251 172.916 331.785 173.252C332.319 173.582 332.751 174.011 333.081 174.539L333.027 173ZM330.003 180.767C330.597 180.767 331.11 180.623 331.542 180.335C331.98 180.041 332.316 179.645 332.55 179.147C332.79 178.649 332.91 178.1 332.91 177.5C332.91 176.888 332.79 176.336 332.55 175.844C332.31 175.346 331.971 174.953 331.533 174.665C331.101 174.371 330.591 174.224 330.003 174.224C329.409 174.224 328.869 174.371 328.383 174.665C327.897 174.959 327.51 175.355 327.222 175.853C326.94 176.345 326.799 176.894 326.799 177.5C326.799 178.106 326.946 178.658 327.24 179.156C327.534 179.648 327.924 180.041 328.41 180.335C328.896 180.623 329.427 180.767 330.003 180.767ZM344.294 176.402V182H342.782V176.735C342.782 176.279 342.671 175.865 342.449 175.493C342.227 175.121 341.93 174.827 341.558 174.611C341.186 174.389 340.772 174.278 340.316 174.278C339.866 174.278 339.452 174.389 339.074 174.611C338.702 174.827 338.405 175.121 338.183 175.493C337.961 175.865 337.85 176.279 337.85 176.735V182H336.338V173H337.85V174.125C338.168 173.705 338.57 173.372 339.056 173.126C339.542 172.874 340.07 172.748 340.64 172.748C341.312 172.748 341.924 172.913 342.476 173.243C343.034 173.567 343.475 174.005 343.799 174.557C344.129 175.109 344.294 175.724 344.294 176.402ZM348.618 186.5V184.988C349.038 184.988 349.413 184.895 349.743 184.709C350.079 184.523 350.343 184.265 350.535 183.935C350.727 183.611 350.823 183.248 350.823 182.846V173H352.335V182.846C352.335 183.518 352.173 184.13 351.849 184.682C351.525 185.234 351.081 185.675 350.517 186.005C349.959 186.335 349.326 186.5 348.618 186.5ZM351.597 171.533C351.357 171.533 351.156 171.455 350.994 171.299C350.832 171.143 350.751 170.948 350.751 170.714C350.751 170.48 350.832 170.285 350.994 170.129C351.156 169.973 351.354 169.895 351.588 169.895C351.822 169.895 352.02 169.973 352.182 170.129C352.344 170.285 352.425 170.48 352.425 170.714C352.425 170.948 352.344 171.143 352.182 171.299C352.026 171.455 351.831 171.533 351.597 171.533ZM353.978 178.58V173H355.49V178.247C355.49 178.703 355.601 179.117 355.823 179.489C356.045 179.861 356.342 180.158 356.714 180.38C357.092 180.596 357.506 180.704 357.956 180.704C358.412 180.704 358.823 180.596 359.189 180.38C359.561 180.158 359.858 179.861 360.08 179.489C360.302 179.117 360.413 178.703 360.413 178.247V173H361.925L361.934 182H360.422L360.413 180.857C360.095 181.277 359.693 181.613 359.207 181.865C358.721 182.111 358.196 182.234 357.632 182.234C356.96 182.234 356.345 182.072 355.787 181.748C355.235 181.418 354.794 180.977 354.464 180.425C354.14 179.873 353.978 179.258 353.978 178.58ZM366.487 182.171C366.001 182.153 365.527 182.063 365.065 181.901C364.609 181.733 364.207 181.508 363.859 181.226C363.517 180.938 363.268 180.608 363.112 180.236L364.408 179.678C364.498 179.882 364.66 180.074 364.894 180.254C365.128 180.434 365.398 180.578 365.704 180.686C366.01 180.794 366.319 180.848 366.631 180.848C366.961 180.848 367.27 180.797 367.558 180.695C367.846 180.593 368.08 180.443 368.26 180.245C368.446 180.041 368.539 179.798 368.539 179.516C368.539 179.216 368.437 178.982 368.233 178.814C368.035 178.64 367.783 178.505 367.477 178.409C367.177 178.307 366.871 178.211 366.559 178.121C365.941 177.965 365.389 177.779 364.903 177.563C364.417 177.341 364.033 177.062 363.751 176.726C363.475 176.384 363.337 175.949 363.337 175.421C363.337 174.863 363.49 174.38 363.796 173.972C364.108 173.564 364.516 173.249 365.02 173.027C365.524 172.805 366.064 172.694 366.64 172.694C367.366 172.694 368.029 172.85 368.629 173.162C369.229 173.474 369.676 173.897 369.97 174.431L368.755 175.142C368.653 174.926 368.497 174.737 368.287 174.575C368.077 174.407 367.837 174.275 367.567 174.179C367.297 174.083 367.021 174.032 366.739 174.026C366.391 174.014 366.064 174.059 365.758 174.161C365.458 174.263 365.215 174.419 365.029 174.629C364.849 174.833 364.759 175.088 364.759 175.394C364.759 175.694 364.855 175.922 365.047 176.078C365.245 176.234 365.5 176.36 365.812 176.456C366.13 176.546 366.475 176.651 366.847 176.771C367.393 176.945 367.903 177.146 368.377 177.374C368.851 177.602 369.232 177.887 369.52 178.229C369.814 178.571 369.958 178.994 369.952 179.498C369.952 180.05 369.787 180.533 369.457 180.947C369.127 181.355 368.698 181.667 368.17 181.883C367.648 182.099 367.087 182.195 366.487 182.171ZM376.156 174.512H374.113L374.104 182H372.592L372.601 174.512H371.053V173H372.601L372.592 170.174H374.104L374.113 173H376.156V174.512ZM389.33 173H390.842V182H389.33L389.267 180.479C388.985 181.001 388.595 181.424 388.097 181.748C387.605 182.072 387.017 182.234 386.333 182.234C385.673 182.234 385.055 182.111 384.479 181.865C383.903 181.613 383.393 181.268 382.949 180.83C382.511 180.386 382.169 179.876 381.923 179.3C381.677 178.724 381.554 178.103 381.554 177.437C381.554 176.795 381.674 176.189 381.914 175.619C382.154 175.049 382.487 174.551 382.913 174.125C383.345 173.693 383.843 173.357 384.407 173.117C384.971 172.871 385.577 172.748 386.225 172.748C386.933 172.748 387.554 172.916 388.088 173.252C388.622 173.582 389.054 174.011 389.384 174.539L389.33 173ZM386.306 180.767C386.9 180.767 387.413 180.623 387.845 180.335C388.283 180.041 388.619 179.645 388.853 179.147C389.093 178.649 389.213 178.1 389.213 177.5C389.213 176.888 389.093 176.336 388.853 175.844C388.613 175.346 388.274 174.953 387.836 174.665C387.404 174.371 386.894 174.224 386.306 174.224C385.712 174.224 385.172 174.371 384.686 174.665C384.2 174.959 383.813 175.355 383.525 175.853C383.243 176.345 383.102 176.894 383.102 177.5C383.102 178.106 383.249 178.658 383.543 179.156C383.837 179.648 384.227 180.041 384.713 180.335C385.199 180.623 385.73 180.767 386.306 180.767ZM396.965 182V168.5H398.477V182H396.965ZM400.639 173H402.151V182H400.639V173ZM401.413 171.533C401.173 171.533 400.972 171.455 400.81 171.299C400.648 171.143 400.567 170.948 400.567 170.714C400.567 170.48 400.648 170.285 400.81 170.129C400.972 169.973 401.17 169.895 401.404 169.895C401.638 169.895 401.836 169.973 401.998 170.129C402.16 170.285 402.241 170.48 402.241 170.714C402.241 170.948 402.16 171.143 401.998 171.299C401.842 171.455 401.647 171.533 401.413 171.533ZM406.97 182.171C406.484 182.153 406.01 182.063 405.548 181.901C405.092 181.733 404.69 181.508 404.342 181.226C404 180.938 403.751 180.608 403.595 180.236L404.891 179.678C404.981 179.882 405.143 180.074 405.377 180.254C405.611 180.434 405.881 180.578 406.187 180.686C406.493 180.794 406.802 180.848 407.114 180.848C407.444 180.848 407.753 180.797 408.041 180.695C408.329 180.593 408.563 180.443 408.743 180.245C408.929 180.041 409.022 179.798 409.022 179.516C409.022 179.216 408.92 178.982 408.716 178.814C408.518 178.64 408.266 178.505 407.96 178.409C407.66 178.307 407.354 178.211 407.042 178.121C406.424 177.965 405.872 177.779 405.386 177.563C404.9 177.341 404.516 177.062 404.234 176.726C403.958 176.384 403.82 175.949 403.82 175.421C403.82 174.863 403.973 174.38 404.279 173.972C404.591 173.564 404.999 173.249 405.503 173.027C406.007 172.805 406.547 172.694 407.123 172.694C407.849 172.694 408.512 172.85 409.112 173.162C409.712 173.474 410.159 173.897 410.453 174.431L409.238 175.142C409.136 174.926 408.98 174.737 408.77 174.575C408.56 174.407 408.32 174.275 408.05 174.179C407.78 174.083 407.504 174.032 407.222 174.026C406.874 174.014 406.547 174.059 406.241 174.161C405.941 174.263 405.698 174.419 405.512 174.629C405.332 174.833 405.242 175.088 405.242 175.394C405.242 175.694 405.338 175.922 405.53 176.078C405.728 176.234 405.983 176.36 406.295 176.456C406.613 176.546 406.958 176.651 407.33 176.771C407.876 176.945 408.386 177.146 408.86 177.374C409.334 177.602 409.715 177.887 410.003 178.229C410.297 178.571 410.441 178.994 410.435 179.498C410.435 180.05 410.27 180.533 409.94 180.947C409.61 181.355 409.181 181.667 408.653 181.883C408.131 182.099 407.57 182.195 406.97 182.171ZM416.638 174.512H414.595L414.586 182H413.074L413.083 174.512H411.535V173H413.083L413.074 170.174H414.586L414.595 173H416.638V174.512ZM418.164 173H419.676V182H418.164V173ZM418.938 171.533C418.698 171.533 418.497 171.455 418.335 171.299C418.173 171.143 418.092 170.948 418.092 170.714C418.092 170.48 418.173 170.285 418.335 170.129C418.497 169.973 418.695 169.895 418.929 169.895C419.163 169.895 419.361 169.973 419.523 170.129C419.685 170.285 419.766 170.48 419.766 170.714C419.766 170.948 419.685 171.143 419.523 171.299C419.367 171.455 419.172 171.533 418.938 171.533ZM429.759 176.402V182H428.247V176.735C428.247 176.279 428.136 175.865 427.914 175.493C427.692 175.121 427.395 174.827 427.023 174.611C426.651 174.389 426.237 174.278 425.781 174.278C425.331 174.278 424.917 174.389 424.539 174.611C424.167 174.827 423.87 175.121 423.648 175.493C423.426 175.865 423.315 176.279 423.315 176.735V182H421.803V173H423.315V174.125C423.633 173.705 424.035 173.372 424.521 173.126C425.007 172.874 425.535 172.748 426.105 172.748C426.777 172.748 427.389 172.913 427.941 173.243C428.499 173.567 428.94 174.005 429.264 174.557C429.594 175.109 429.759 175.724 429.759 176.402ZM438.412 173H439.924V182.288C439.924 182.882 439.795 183.434 439.537 183.944C439.285 184.46 438.943 184.907 438.511 185.285C438.079 185.669 437.587 185.966 437.035 186.176C436.483 186.392 435.907 186.5 435.307 186.5C434.683 186.5 434.08 186.359 433.498 186.077C432.916 185.801 432.406 185.429 431.968 184.961C431.536 184.499 431.224 183.98 431.032 183.404L432.418 182.774C432.532 183.188 432.736 183.56 433.03 183.89C433.33 184.226 433.678 184.49 434.074 184.682C434.476 184.88 434.887 184.979 435.307 184.979C435.703 184.979 436.084 184.91 436.45 184.772C436.822 184.634 437.155 184.442 437.449 184.196C437.749 183.956 437.983 183.671 438.151 183.341C438.325 183.017 438.412 182.666 438.412 182.288V180.497C438.106 181.013 437.701 181.433 437.197 181.757C436.699 182.075 436.117 182.234 435.451 182.234C434.815 182.234 434.218 182.111 433.66 181.865C433.102 181.619 432.613 181.28 432.193 180.848C431.773 180.41 431.443 179.906 431.203 179.336C430.963 178.766 430.843 178.154 430.843 177.5C430.843 176.846 430.963 176.234 431.203 175.664C431.443 175.088 431.773 174.584 432.193 174.152C432.613 173.714 433.102 173.372 433.66 173.126C434.218 172.88 434.815 172.757 435.451 172.757C436.117 172.757 436.699 172.916 437.197 173.234C437.701 173.552 438.106 173.972 438.412 174.494V173ZM435.46 180.767C436.042 180.767 436.546 180.617 436.972 180.317C437.404 180.017 437.737 179.618 437.971 179.12C438.205 178.622 438.322 178.082 438.322 177.5C438.322 176.9 438.202 176.354 437.962 175.862C437.728 175.364 437.395 174.968 436.963 174.674C436.537 174.374 436.036 174.224 435.46 174.224C434.896 174.224 434.38 174.371 433.912 174.665C433.444 174.959 433.072 175.355 432.796 175.853C432.526 176.345 432.391 176.894 432.391 177.5C432.391 178.106 432.529 178.658 432.805 179.156C433.087 179.648 433.459 180.041 433.921 180.335C434.389 180.623 434.902 180.767 435.46 180.767ZM441.728 183.008L442.286 179.966H443.798L442.736 183.008H441.728ZM443.033 174.656C442.799 174.656 442.601 174.578 442.439 174.422C442.277 174.26 442.196 174.065 442.196 173.837C442.196 173.603 442.277 173.405 442.439 173.243C442.601 173.081 442.799 173 443.033 173C443.255 173 443.447 173.081 443.609 173.243C443.777 173.405 443.861 173.603 443.861 173.837C443.861 174.065 443.777 174.26 443.609 174.422C443.447 174.578 443.255 174.656 443.033 174.656ZM450.35 173H451.862V182H450.35V173ZM451.124 171.533C450.884 171.533 450.683 171.455 450.521 171.299C450.359 171.143 450.278 170.948 450.278 170.714C450.278 170.48 450.359 170.285 450.521 170.129C450.683 169.973 450.881 169.895 451.115 169.895C451.349 169.895 451.547 169.973 451.709 170.129C451.871 170.285 451.952 170.48 451.952 170.714C451.952 170.948 451.871 171.143 451.709 171.299C451.553 171.455 451.358 171.533 451.124 171.533ZM458.685 174.512H456.642L456.633 182H455.121L455.13 174.512H453.582V173H455.13L455.121 170.174H456.633L456.642 173H458.685V174.512ZM58.325 195.5H59.837V209H58.325V207.47C58.019 207.998 57.608 208.424 57.092 208.748C56.576 209.072 55.97 209.234 55.274 209.234C54.62 209.234 54.008 209.111 53.438 208.865C52.868 208.619 52.364 208.28 51.926 207.848C51.494 207.41 51.155 206.906 50.909 206.336C50.663 205.766 50.54 205.154 50.54 204.5C50.54 203.846 50.663 203.234 50.909 202.664C51.155 202.088 51.494 201.584 51.926 201.152C52.364 200.714 52.868 200.372 53.438 200.126C54.008 199.88 54.62 199.757 55.274 199.757C55.97 199.757 56.576 199.919 57.092 200.243C57.608 200.567 58.019 200.993 58.325 201.521V195.5ZM55.292 207.767C55.886 207.767 56.399 207.623 56.831 207.335C57.269 207.041 57.605 206.645 57.839 206.147C58.079 205.649 58.199 205.1 58.199 204.5C58.199 203.888 58.079 203.336 57.839 202.844C57.599 202.346 57.26 201.953 56.822 201.665C56.39 201.371 55.88 201.224 55.292 201.224C54.698 201.224 54.158 201.371 53.672 201.665C53.192 201.959 52.808 202.355 52.52 202.853C52.232 203.345 52.088 203.894 52.088 204.5C52.088 205.106 52.235 205.658 52.529 206.156C52.823 206.648 53.213 207.041 53.699 207.335C54.185 207.623 54.716 207.767 55.292 207.767ZM65.8681 209.234C65.0401 209.234 64.2841 209.021 63.6001 208.595C62.9221 208.169 62.3791 207.599 61.9711 206.885C61.5691 206.165 61.3681 205.37 61.3681 204.5C61.3681 203.84 61.4851 203.225 61.7191 202.655C61.9531 202.079 62.2741 201.575 62.6821 201.143C63.0961 200.705 63.5761 200.363 64.1221 200.117C64.6681 199.871 65.2501 199.748 65.8681 199.748C66.5461 199.748 67.1671 199.886 67.7311 200.162C68.3011 200.432 68.7871 200.81 69.1891 201.296C69.5971 201.782 69.9001 202.346 70.0981 202.988C70.3021 203.63 70.3771 204.317 70.3231 205.049H62.9791C63.0511 205.559 63.2191 206.015 63.4831 206.417C63.7471 206.813 64.0831 207.128 64.4911 207.362C64.9051 207.596 65.3641 207.716 65.8681 207.722C66.4081 207.722 66.8971 207.584 67.3351 207.308C67.7731 207.026 68.1271 206.642 68.3971 206.156L69.9361 206.516C69.5761 207.314 69.0331 207.968 68.3071 208.478C67.5811 208.982 66.7681 209.234 65.8681 209.234ZM62.9341 203.861H68.8021C68.7541 203.357 68.5921 202.898 68.3161 202.484C68.0401 202.064 67.6891 201.728 67.2631 201.476C66.8371 201.224 66.3721 201.098 65.8681 201.098C65.3641 201.098 64.9021 201.221 64.4821 201.467C64.0621 201.713 63.7141 202.046 63.4381 202.466C63.1681 202.88 63.0001 203.345 62.9341 203.861ZM71.8398 209V200H73.3518V201.125C73.6698 200.705 74.0688 200.372 74.5488 200.126C75.0348 199.874 75.5628 199.748 76.1328 199.748C76.7988 199.748 77.4078 199.91 77.9598 200.234C78.5118 200.558 78.9468 200.987 79.2648 201.521C79.5828 200.987 80.0148 200.558 80.5608 200.234C81.1128 199.91 81.7188 199.748 82.3788 199.748C83.0568 199.748 83.6718 199.913 84.2238 200.243C84.7758 200.567 85.2138 201.005 85.5378 201.557C85.8678 202.109 86.0328 202.724 86.0328 203.402V209H84.5208V203.762C84.5208 203.318 84.4128 202.907 84.1968 202.529C83.9808 202.151 83.6898 201.848 83.3238 201.62C82.9578 201.392 82.5528 201.278 82.1088 201.278C81.6648 201.278 81.2598 201.386 80.8938 201.602C80.5278 201.812 80.2368 202.106 80.0208 202.484C79.8048 202.856 79.6968 203.282 79.6968 203.762V209H78.1848V203.762C78.1848 203.282 78.0768 202.856 77.8608 202.484C77.6448 202.106 77.3508 201.812 76.9788 201.602C76.6128 201.386 76.2078 201.278 75.7638 201.278C75.3258 201.278 74.9208 201.392 74.5488 201.62C74.1828 201.848 73.8918 202.151 73.6758 202.529C73.4598 202.907 73.3518 203.318 73.3518 203.762V209H71.8398ZM94.8961 200H96.4081V209H94.8961L94.8331 207.479C94.5511 208.001 94.1611 208.424 93.6631 208.748C93.1711 209.072 92.5831 209.234 91.8991 209.234C91.2391 209.234 90.6211 209.111 90.0451 208.865C89.4691 208.613 88.9591 208.268 88.5151 207.83C88.0771 207.386 87.7351 206.876 87.4891 206.3C87.2431 205.724 87.1201 205.103 87.1201 204.437C87.1201 203.795 87.2401 203.189 87.4801 202.619C87.7201 202.049 88.0531 201.551 88.4791 201.125C88.9111 200.693 89.4091 200.357 89.9731 200.117C90.5371 199.871 91.1431 199.748 91.7911 199.748C92.4991 199.748 93.1201 199.916 93.6541 200.252C94.1881 200.582 94.6201 201.011 94.9501 201.539L94.8961 200ZM91.8721 207.767C92.4661 207.767 92.9791 207.623 93.4111 207.335C93.8491 207.041 94.1851 206.645 94.4191 206.147C94.6591 205.649 94.7791 205.1 94.7791 204.5C94.7791 203.888 94.6591 203.336 94.4191 202.844C94.1791 202.346 93.8401 201.953 93.4021 201.665C92.9701 201.371 92.4601 201.224 91.8721 201.224C91.2781 201.224 90.7381 201.371 90.2521 201.665C89.7661 201.959 89.3791 202.355 89.0911 202.853C88.8091 203.345 88.6681 203.894 88.6681 204.5C88.6681 205.106 88.8151 205.658 89.1091 206.156C89.4031 206.648 89.7931 207.041 90.2791 207.335C90.7651 207.623 91.2961 207.767 91.8721 207.767ZM106.163 203.402V209H104.651V203.735C104.651 203.279 104.54 202.865 104.318 202.493C104.096 202.121 103.799 201.827 103.427 201.611C103.055 201.389 102.641 201.278 102.185 201.278C101.735 201.278 101.321 201.389 100.943 201.611C100.571 201.827 100.274 202.121 100.052 202.493C99.83 202.865 99.719 203.279 99.719 203.735V209H98.207V200H99.719V201.125C100.037 200.705 100.439 200.372 100.925 200.126C101.411 199.874 101.939 199.748 102.509 199.748C103.181 199.748 103.793 199.913 104.345 200.243C104.903 200.567 105.344 201.005 105.668 201.557C105.998 202.109 106.163 202.724 106.163 203.402ZM115.032 195.5H116.544V209H115.032V207.47C114.726 207.998 114.315 208.424 113.799 208.748C113.283 209.072 112.677 209.234 111.981 209.234C111.327 209.234 110.715 209.111 110.145 208.865C109.575 208.619 109.071 208.28 108.633 207.848C108.201 207.41 107.862 206.906 107.616 206.336C107.37 205.766 107.247 205.154 107.247 204.5C107.247 203.846 107.37 203.234 107.616 202.664C107.862 202.088 108.201 201.584 108.633 201.152C109.071 200.714 109.575 200.372 110.145 200.126C110.715 199.88 111.327 199.757 111.981 199.757C112.677 199.757 113.283 199.919 113.799 200.243C114.315 200.567 114.726 200.993 115.032 201.521V195.5ZM111.999 207.767C112.593 207.767 113.106 207.623 113.538 207.335C113.976 207.041 114.312 206.645 114.546 206.147C114.786 205.649 114.906 205.1 114.906 204.5C114.906 203.888 114.786 203.336 114.546 202.844C114.306 202.346 113.967 201.953 113.529 201.665C113.097 201.371 112.587 201.224 111.999 201.224C111.405 201.224 110.865 201.371 110.379 201.665C109.899 201.959 109.515 202.355 109.227 202.853C108.939 203.345 108.795 203.894 108.795 204.5C108.795 205.106 108.942 205.658 109.236 206.156C109.53 206.648 109.92 207.041 110.406 207.335C110.892 207.623 111.423 207.767 111.999 207.767ZM121.448 209.171C120.962 209.153 120.488 209.063 120.026 208.901C119.57 208.733 119.168 208.508 118.82 208.226C118.478 207.938 118.229 207.608 118.073 207.236L119.369 206.678C119.459 206.882 119.621 207.074 119.855 207.254C120.089 207.434 120.359 207.578 120.665 207.686C120.971 207.794 121.28 207.848 121.592 207.848C121.922 207.848 122.231 207.797 122.519 207.695C122.807 207.593 123.041 207.443 123.221 207.245C123.407 207.041 123.5 206.798 123.5 206.516C123.5 206.216 123.398 205.982 123.194 205.814C122.996 205.64 122.744 205.505 122.438 205.409C122.138 205.307 121.832 205.211 121.52 205.121C120.902 204.965 120.35 204.779 119.864 204.563C119.378 204.341 118.994 204.062 118.712 203.726C118.436 203.384 118.298 202.949 118.298 202.421C118.298 201.863 118.451 201.38 118.757 200.972C119.069 200.564 119.477 200.249 119.981 200.027C120.485 199.805 121.025 199.694 121.601 199.694C122.327 199.694 122.99 199.85 123.59 200.162C124.19 200.474 124.637 200.897 124.931 201.431L123.716 202.142C123.614 201.926 123.458 201.737 123.248 201.575C123.038 201.407 122.798 201.275 122.528 201.179C122.258 201.083 121.982 201.032 121.7 201.026C121.352 201.014 121.025 201.059 120.719 201.161C120.419 201.263 120.176 201.419 119.99 201.629C119.81 201.833 119.72 202.088 119.72 202.394C119.72 202.694 119.816 202.922 120.008 203.078C120.206 203.234 120.461 203.36 120.773 203.456C121.091 203.546 121.436 203.651 121.808 203.771C122.354 203.945 122.864 204.146 123.338 204.374C123.812 204.602 124.193 204.887 124.481 205.229C124.775 205.571 124.919 205.994 124.913 206.498C124.913 207.05 124.748 207.533 124.418 207.947C124.088 208.355 123.659 208.667 123.131 208.883C122.609 209.099 122.048 209.195 121.448 209.171ZM138.015 200H139.527V209H138.015L137.952 207.479C137.67 208.001 137.28 208.424 136.782 208.748C136.29 209.072 135.702 209.234 135.018 209.234C134.358 209.234 133.74 209.111 133.164 208.865C132.588 208.613 132.078 208.268 131.634 207.83C131.196 207.386 130.854 206.876 130.608 206.3C130.362 205.724 130.239 205.103 130.239 204.437C130.239 203.795 130.359 203.189 130.599 202.619C130.839 202.049 131.172 201.551 131.598 201.125C132.03 200.693 132.528 200.357 133.092 200.117C133.656 199.871 134.262 199.748 134.91 199.748C135.618 199.748 136.239 199.916 136.773 200.252C137.307 200.582 137.739 201.011 138.069 201.539L138.015 200ZM134.991 207.767C135.585 207.767 136.098 207.623 136.53 207.335C136.968 207.041 137.304 206.645 137.538 206.147C137.778 205.649 137.898 205.1 137.898 204.5C137.898 203.888 137.778 203.336 137.538 202.844C137.298 202.346 136.959 201.953 136.521 201.665C136.089 201.371 135.579 201.224 134.991 201.224C134.397 201.224 133.857 201.371 133.371 201.665C132.885 201.959 132.498 202.355 132.21 202.853C131.928 203.345 131.787 203.894 131.787 204.5C131.787 205.106 131.934 205.658 132.228 206.156C132.522 206.648 132.912 207.041 133.398 207.335C133.884 207.623 134.415 207.767 134.991 207.767ZM148.395 209.171C147.909 209.153 147.435 209.063 146.973 208.901C146.517 208.733 146.115 208.508 145.767 208.226C145.425 207.938 145.176 207.608 145.02 207.236L146.316 206.678C146.406 206.882 146.568 207.074 146.802 207.254C147.036 207.434 147.306 207.578 147.612 207.686C147.918 207.794 148.227 207.848 148.539 207.848C148.869 207.848 149.178 207.797 149.466 207.695C149.754 207.593 149.988 207.443 150.168 207.245C150.354 207.041 150.447 206.798 150.447 206.516C150.447 206.216 150.345 205.982 150.141 205.814C149.943 205.64 149.691 205.505 149.385 205.409C149.085 205.307 148.779 205.211 148.467 205.121C147.849 204.965 147.297 204.779 146.811 204.563C146.325 204.341 145.941 204.062 145.659 203.726C145.383 203.384 145.245 202.949 145.245 202.421C145.245 201.863 145.398 201.38 145.704 200.972C146.016 200.564 146.424 200.249 146.928 200.027C147.432 199.805 147.972 199.694 148.548 199.694C149.274 199.694 149.937 199.85 150.537 200.162C151.137 200.474 151.584 200.897 151.878 201.431L150.663 202.142C150.561 201.926 150.405 201.737 150.195 201.575C149.985 201.407 149.745 201.275 149.475 201.179C149.205 201.083 148.929 201.032 148.647 201.026C148.299 201.014 147.972 201.059 147.666 201.161C147.366 201.263 147.123 201.419 146.937 201.629C146.757 201.833 146.667 202.088 146.667 202.394C146.667 202.694 146.763 202.922 146.955 203.078C147.153 203.234 147.408 203.36 147.72 203.456C148.038 203.546 148.383 203.651 148.755 203.771C149.301 203.945 149.811 204.146 150.285 204.374C150.759 204.602 151.14 204.887 151.428 205.229C151.722 205.571 151.866 205.994 151.86 206.498C151.86 207.05 151.695 207.533 151.365 207.947C151.035 208.355 150.606 208.667 150.078 208.883C149.556 209.099 148.995 209.195 148.395 209.171ZM158.064 201.512H156.021L156.012 209H154.5L154.509 201.512H152.961V200H154.509L154.5 197.174H156.012L156.021 200H158.064V201.512ZM159.678 209V200H161.19V201.125C161.508 200.705 161.91 200.372 162.396 200.126C162.882 199.874 163.41 199.748 163.98 199.748C164.328 199.748 164.664 199.793 164.988 199.883L164.376 201.395C164.13 201.317 163.89 201.278 163.656 201.278C163.206 201.278 162.792 201.389 162.414 201.611C162.042 201.827 161.745 202.121 161.523 202.493C161.301 202.865 161.19 203.279 161.19 203.735V209H159.678ZM172.873 200H174.385V209H172.873L172.81 207.479C172.528 208.001 172.138 208.424 171.64 208.748C171.148 209.072 170.56 209.234 169.876 209.234C169.216 209.234 168.598 209.111 168.022 208.865C167.446 208.613 166.936 208.268 166.492 207.83C166.054 207.386 165.712 206.876 165.466 206.3C165.22 205.724 165.097 205.103 165.097 204.437C165.097 203.795 165.217 203.189 165.457 202.619C165.697 202.049 166.03 201.551 166.456 201.125C166.888 200.693 167.386 200.357 167.95 200.117C168.514 199.871 169.12 199.748 169.768 199.748C170.476 199.748 171.097 199.916 171.631 200.252C172.165 200.582 172.597 201.011 172.927 201.539L172.873 200ZM169.849 207.767C170.443 207.767 170.956 207.623 171.388 207.335C171.826 207.041 172.162 206.645 172.396 206.147C172.636 205.649 172.756 205.1 172.756 204.5C172.756 203.888 172.636 203.336 172.396 202.844C172.156 202.346 171.817 201.953 171.379 201.665C170.947 201.371 170.437 201.224 169.849 201.224C169.255 201.224 168.715 201.371 168.229 201.665C167.743 201.959 167.356 202.355 167.068 202.853C166.786 203.345 166.645 203.894 166.645 204.5C166.645 205.106 166.792 205.658 167.086 206.156C167.38 206.648 167.77 207.041 168.256 207.335C168.742 207.623 169.273 207.767 169.849 207.767ZM180.846 201.512H178.803L178.794 209H177.282L177.291 201.512H175.743V200H177.291L177.282 197.174H178.794L178.803 200H180.846V201.512ZM186.19 209.234C185.362 209.234 184.606 209.021 183.922 208.595C183.244 208.169 182.701 207.599 182.293 206.885C181.891 206.165 181.69 205.37 181.69 204.5C181.69 203.84 181.807 203.225 182.041 202.655C182.275 202.079 182.596 201.575 183.004 201.143C183.418 200.705 183.898 200.363 184.444 200.117C184.99 199.871 185.572 199.748 186.19 199.748C186.868 199.748 187.489 199.886 188.053 200.162C188.623 200.432 189.109 200.81 189.511 201.296C189.919 201.782 190.222 202.346 190.42 202.988C190.624 203.63 190.699 204.317 190.645 205.049H183.301C183.373 205.559 183.541 206.015 183.805 206.417C184.069 206.813 184.405 207.128 184.813 207.362C185.227 207.596 185.686 207.716 186.19 207.722C186.73 207.722 187.219 207.584 187.657 207.308C188.095 207.026 188.449 206.642 188.719 206.156L190.258 206.516C189.898 207.314 189.355 207.968 188.629 208.478C187.903 208.982 187.09 209.234 186.19 209.234ZM183.256 203.861H189.124C189.076 203.357 188.914 202.898 188.638 202.484C188.362 202.064 188.011 201.728 187.585 201.476C187.159 201.224 186.694 201.098 186.19 201.098C185.686 201.098 185.224 201.221 184.804 201.467C184.384 201.713 184.036 202.046 183.76 202.466C183.49 202.88 183.322 203.345 183.256 203.861ZM199.138 200H200.65V209.288C200.65 209.882 200.521 210.434 200.263 210.944C200.011 211.46 199.669 211.907 199.237 212.285C198.805 212.669 198.313 212.966 197.761 213.176C197.209 213.392 196.633 213.5 196.033 213.5C195.409 213.5 194.806 213.359 194.224 213.077C193.642 212.801 193.132 212.429 192.694 211.961C192.262 211.499 191.95 210.98 191.758 210.404L193.144 209.774C193.258 210.188 193.462 210.56 193.756 210.89C194.056 211.226 194.404 211.49 194.8 211.682C195.202 211.88 195.613 211.979 196.033 211.979C196.429 211.979 196.81 211.91 197.176 211.772C197.548 211.634 197.881 211.442 198.175 211.196C198.475 210.956 198.709 210.671 198.877 210.341C199.051 210.017 199.138 209.666 199.138 209.288V207.497C198.832 208.013 198.427 208.433 197.923 208.757C197.425 209.075 196.843 209.234 196.177 209.234C195.541 209.234 194.944 209.111 194.386 208.865C193.828 208.619 193.339 208.28 192.919 207.848C192.499 207.41 192.169 206.906 191.929 206.336C191.689 205.766 191.569 205.154 191.569 204.5C191.569 203.846 191.689 203.234 191.929 202.664C192.169 202.088 192.499 201.584 192.919 201.152C193.339 200.714 193.828 200.372 194.386 200.126C194.944 199.88 195.541 199.757 196.177 199.757C196.843 199.757 197.425 199.916 197.923 200.234C198.427 200.552 198.832 200.972 199.138 201.494V200ZM196.186 207.767C196.768 207.767 197.272 207.617 197.698 207.317C198.13 207.017 198.463 206.618 198.697 206.12C198.931 205.622 199.048 205.082 199.048 204.5C199.048 203.9 198.928 203.354 198.688 202.862C198.454 202.364 198.121 201.968 197.689 201.674C197.263 201.374 196.762 201.224 196.186 201.224C195.622 201.224 195.106 201.371 194.638 201.665C194.17 201.959 193.798 202.355 193.522 202.853C193.252 203.345 193.117 203.894 193.117 204.5C193.117 205.106 193.255 205.658 193.531 206.156C193.813 206.648 194.185 207.041 194.647 207.335C195.115 207.623 195.628 207.767 196.186 207.767ZM202.691 200H204.203V209H202.691V200ZM203.465 198.533C203.225 198.533 203.024 198.455 202.862 198.299C202.7 198.143 202.619 197.948 202.619 197.714C202.619 197.48 202.7 197.285 202.862 197.129C203.024 196.973 203.222 196.895 203.456 196.895C203.69 196.895 203.888 196.973 204.05 197.129C204.212 197.285 204.293 197.48 204.293 197.714C204.293 197.948 204.212 198.143 204.05 198.299C203.894 198.455 203.699 198.533 203.465 198.533ZM212.443 206.624L213.793 207.353C213.385 207.923 212.866 208.379 212.236 208.721C211.612 209.063 210.934 209.234 210.202 209.234C209.374 209.234 208.618 209.021 207.934 208.595C207.256 208.169 206.713 207.599 206.305 206.885C205.903 206.165 205.702 205.37 205.702 204.5C205.702 203.84 205.819 203.225 206.053 202.655C206.287 202.079 206.608 201.575 207.016 201.143C207.43 200.705 207.91 200.363 208.456 200.117C209.002 199.871 209.584 199.748 210.202 199.748C210.934 199.748 211.612 199.919 212.236 200.261C212.866 200.603 213.385 201.062 213.793 201.638L212.443 202.367C212.155 202.013 211.813 201.74 211.417 201.548C211.021 201.356 210.616 201.26 210.202 201.26C209.644 201.26 209.137 201.41 208.681 201.71C208.231 202.004 207.874 202.397 207.61 202.889C207.346 203.381 207.214 203.918 207.214 204.5C207.214 205.082 207.346 205.619 207.61 206.111C207.88 206.597 208.24 206.987 208.69 207.281C209.146 207.575 209.65 207.722 210.202 207.722C210.646 207.722 211.063 207.62 211.453 207.416C211.843 207.212 212.173 206.948 212.443 206.624ZM219.742 209V200H221.254V201.125C221.572 200.705 221.971 200.372 222.451 200.126C222.937 199.874 223.465 199.748 224.035 199.748C224.701 199.748 225.31 199.91 225.862 200.234C226.414 200.558 226.849 200.987 227.167 201.521C227.485 200.987 227.917 200.558 228.463 200.234C229.015 199.91 229.621 199.748 230.281 199.748C230.959 199.748 231.574 199.913 232.126 200.243C232.678 200.567 233.116 201.005 233.44 201.557C233.77 202.109 233.935 202.724 233.935 203.402V209H232.423V203.762C232.423 203.318 232.315 202.907 232.099 202.529C231.883 202.151 231.592 201.848 231.226 201.62C230.86 201.392 230.455 201.278 230.011 201.278C229.567 201.278 229.162 201.386 228.796 201.602C228.43 201.812 228.139 202.106 227.923 202.484C227.707 202.856 227.599 203.282 227.599 203.762V209H226.087V203.762C226.087 203.282 225.979 202.856 225.763 202.484C225.547 202.106 225.253 201.812 224.881 201.602C224.515 201.386 224.11 201.278 223.666 201.278C223.228 201.278 222.823 201.392 222.451 201.62C222.085 201.848 221.794 202.151 221.578 202.529C221.362 202.907 221.254 203.318 221.254 203.762V209H219.742ZM242.798 200H244.31V209H242.798L242.735 207.479C242.453 208.001 242.063 208.424 241.565 208.748C241.073 209.072 240.485 209.234 239.801 209.234C239.141 209.234 238.523 209.111 237.947 208.865C237.371 208.613 236.861 208.268 236.417 207.83C235.979 207.386 235.637 206.876 235.391 206.3C235.145 205.724 235.022 205.103 235.022 204.437C235.022 203.795 235.142 203.189 235.382 202.619C235.622 202.049 235.955 201.551 236.381 201.125C236.813 200.693 237.311 200.357 237.875 200.117C238.439 199.871 239.045 199.748 239.693 199.748C240.401 199.748 241.022 199.916 241.556 200.252C242.09 200.582 242.522 201.011 242.852 201.539L242.798 200ZM239.774 207.767C240.368 207.767 240.881 207.623 241.313 207.335C241.751 207.041 242.087 206.645 242.321 206.147C242.561 205.649 242.681 205.1 242.681 204.5C242.681 203.888 242.561 203.336 242.321 202.844C242.081 202.346 241.742 201.953 241.304 201.665C240.872 201.371 240.362 201.224 239.774 201.224C239.18 201.224 238.64 201.371 238.154 201.665C237.668 201.959 237.281 202.355 236.993 202.853C236.711 203.345 236.57 203.894 236.57 204.5C236.57 205.106 236.717 205.658 237.011 206.156C237.305 206.648 237.695 207.041 238.181 207.335C238.667 207.623 239.198 207.767 239.774 207.767ZM246.109 209V200H247.621V201.125C247.939 200.705 248.341 200.372 248.827 200.126C249.313 199.874 249.841 199.748 250.411 199.748C250.759 199.748 251.095 199.793 251.419 199.883L250.807 201.395C250.561 201.317 250.321 201.278 250.087 201.278C249.637 201.278 249.223 201.389 248.845 201.611C248.473 201.827 248.176 202.121 247.954 202.493C247.732 202.865 247.621 203.279 247.621 203.735V209H246.109ZM259.772 209H258.035L255.641 204.869L253.985 206.849V209H252.473V195.5H253.985V204.5L257.756 200H259.727L256.667 203.645L259.772 209ZM264.782 209.234C263.954 209.234 263.198 209.021 262.514 208.595C261.836 208.169 261.293 207.599 260.885 206.885C260.483 206.165 260.282 205.37 260.282 204.5C260.282 203.84 260.399 203.225 260.633 202.655C260.867 202.079 261.188 201.575 261.596 201.143C262.01 200.705 262.49 200.363 263.036 200.117C263.582 199.871 264.164 199.748 264.782 199.748C265.46 199.748 266.081 199.886 266.645 200.162C267.215 200.432 267.701 200.81 268.103 201.296C268.511 201.782 268.814 202.346 269.012 202.988C269.216 203.63 269.291 204.317 269.237 205.049H261.893C261.965 205.559 262.133 206.015 262.397 206.417C262.661 206.813 262.997 207.128 263.405 207.362C263.819 207.596 264.278 207.716 264.782 207.722C265.322 207.722 265.811 207.584 266.249 207.308C266.687 207.026 267.041 206.642 267.311 206.156L268.85 206.516C268.49 207.314 267.947 207.968 267.221 208.478C266.495 208.982 265.682 209.234 264.782 209.234ZM261.848 203.861H267.716C267.668 203.357 267.506 202.898 267.23 202.484C266.954 202.064 266.603 201.728 266.177 201.476C265.751 201.224 265.286 201.098 264.782 201.098C264.278 201.098 263.816 201.221 263.396 201.467C262.976 201.713 262.628 202.046 262.352 202.466C262.082 202.88 261.914 203.345 261.848 203.861ZM275.31 201.512H273.267L273.258 209H271.746L271.755 201.512H270.207V200H271.755L271.746 197.174H273.258L273.267 200H275.31V201.512ZM276.836 200H278.348V209H276.836V200ZM277.61 198.533C277.37 198.533 277.169 198.455 277.007 198.299C276.845 198.143 276.764 197.948 276.764 197.714C276.764 197.48 276.845 197.285 277.007 197.129C277.169 196.973 277.367 196.895 277.601 196.895C277.835 196.895 278.033 196.973 278.195 197.129C278.357 197.285 278.438 197.48 278.438 197.714C278.438 197.948 278.357 198.143 278.195 198.299C278.039 198.455 277.844 198.533 277.61 198.533ZM288.431 203.402V209H286.919V203.735C286.919 203.279 286.808 202.865 286.586 202.493C286.364 202.121 286.067 201.827 285.695 201.611C285.323 201.389 284.909 201.278 284.453 201.278C284.003 201.278 283.589 201.389 283.211 201.611C282.839 201.827 282.542 202.121 282.32 202.493C282.098 202.865 281.987 203.279 281.987 203.735V209H280.475V200H281.987V201.125C282.305 200.705 282.707 200.372 283.193 200.126C283.679 199.874 284.207 199.748 284.777 199.748C285.449 199.748 286.061 199.913 286.613 200.243C287.171 200.567 287.612 201.005 287.936 201.557C288.266 202.109 288.431 202.724 288.431 203.402ZM297.084 200H298.596V209.288C298.596 209.882 298.467 210.434 298.209 210.944C297.957 211.46 297.615 211.907 297.183 212.285C296.751 212.669 296.259 212.966 295.707 213.176C295.155 213.392 294.579 213.5 293.979 213.5C293.355 213.5 292.752 213.359 292.17 213.077C291.588 212.801 291.078 212.429 290.64 211.961C290.208 211.499 289.896 210.98 289.704 210.404L291.09 209.774C291.204 210.188 291.408 210.56 291.702 210.89C292.002 211.226 292.35 211.49 292.746 211.682C293.148 211.88 293.559 211.979 293.979 211.979C294.375 211.979 294.756 211.91 295.122 211.772C295.494 211.634 295.827 211.442 296.121 211.196C296.421 210.956 296.655 210.671 296.823 210.341C296.997 210.017 297.084 209.666 297.084 209.288V207.497C296.778 208.013 296.373 208.433 295.869 208.757C295.371 209.075 294.789 209.234 294.123 209.234C293.487 209.234 292.89 209.111 292.332 208.865C291.774 208.619 291.285 208.28 290.865 207.848C290.445 207.41 290.115 206.906 289.875 206.336C289.635 205.766 289.515 205.154 289.515 204.5C289.515 203.846 289.635 203.234 289.875 202.664C290.115 202.088 290.445 201.584 290.865 201.152C291.285 200.714 291.774 200.372 292.332 200.126C292.89 199.88 293.487 199.757 294.123 199.757C294.789 199.757 295.371 199.916 295.869 200.234C296.373 200.552 296.778 200.972 297.084 201.494V200ZM294.132 207.767C294.714 207.767 295.218 207.617 295.644 207.317C296.076 207.017 296.409 206.618 296.643 206.12C296.877 205.622 296.994 205.082 296.994 204.5C296.994 203.9 296.874 203.354 296.634 202.862C296.4 202.364 296.067 201.968 295.635 201.674C295.209 201.374 294.708 201.224 294.132 201.224C293.568 201.224 293.052 201.371 292.584 201.665C292.116 201.959 291.744 202.355 291.468 202.853C291.198 203.345 291.063 203.894 291.063 204.5C291.063 205.106 291.201 205.658 291.477 206.156C291.759 206.648 292.131 207.041 292.593 207.335C293.061 207.623 293.574 207.767 294.132 207.767ZM312.32 200H313.832V209H312.32L312.257 207.479C311.975 208.001 311.585 208.424 311.087 208.748C310.595 209.072 310.007 209.234 309.323 209.234C308.663 209.234 308.045 209.111 307.469 208.865C306.893 208.613 306.383 208.268 305.939 207.83C305.501 207.386 305.159 206.876 304.913 206.3C304.667 205.724 304.544 205.103 304.544 204.437C304.544 203.795 304.664 203.189 304.904 202.619C305.144 202.049 305.477 201.551 305.903 201.125C306.335 200.693 306.833 200.357 307.397 200.117C307.961 199.871 308.567 199.748 309.215 199.748C309.923 199.748 310.544 199.916 311.078 200.252C311.612 200.582 312.044 201.011 312.374 201.539L312.32 200ZM309.296 207.767C309.89 207.767 310.403 207.623 310.835 207.335C311.273 207.041 311.609 206.645 311.843 206.147C312.083 205.649 312.203 205.1 312.203 204.5C312.203 203.888 312.083 203.336 311.843 202.844C311.603 202.346 311.264 201.953 310.826 201.665C310.394 201.371 309.884 201.224 309.296 201.224C308.702 201.224 308.162 201.371 307.676 201.665C307.19 201.959 306.803 202.355 306.515 202.853C306.233 203.345 306.092 203.894 306.092 204.5C306.092 205.106 306.239 205.658 306.533 206.156C306.827 206.648 307.217 207.041 307.703 207.335C308.189 207.623 308.72 207.767 309.296 207.767ZM317.143 213.5H315.631V200H317.143V201.539C317.449 201.011 317.857 200.585 318.367 200.261C318.877 199.931 319.483 199.766 320.185 199.766C320.839 199.766 321.451 199.889 322.021 200.135C322.597 200.381 323.101 200.723 323.533 201.161C323.965 201.593 324.304 202.094 324.55 202.664C324.796 203.234 324.919 203.846 324.919 204.5C324.919 205.154 324.796 205.769 324.55 206.345C324.304 206.921 323.965 207.428 323.533 207.866C323.101 208.298 322.597 208.637 322.021 208.883C321.451 209.129 320.839 209.252 320.185 209.252C319.483 209.252 318.877 209.09 318.367 208.766C317.857 208.436 317.449 208.007 317.143 207.479V213.5ZM320.167 201.233C319.585 201.233 319.075 201.38 318.637 201.674C318.199 201.968 317.86 202.361 317.62 202.853C317.386 203.345 317.269 203.894 317.269 204.5C317.269 205.1 317.386 205.649 317.62 206.147C317.86 206.645 318.196 207.041 318.628 207.335C319.066 207.629 319.579 207.776 320.167 207.776C320.749 207.776 321.283 207.632 321.769 207.344C322.255 207.05 322.645 206.657 322.939 206.165C323.233 205.667 323.38 205.112 323.38 204.5C323.38 203.9 323.236 203.354 322.948 202.862C322.66 202.364 322.273 201.968 321.787 201.674C321.301 201.38 320.761 201.233 320.167 201.233ZM327.936 213.5H326.424V200H327.936V201.539C328.242 201.011 328.65 200.585 329.16 200.261C329.67 199.931 330.276 199.766 330.978 199.766C331.632 199.766 332.244 199.889 332.814 200.135C333.39 200.381 333.894 200.723 334.326 201.161C334.758 201.593 335.097 202.094 335.343 202.664C335.589 203.234 335.712 203.846 335.712 204.5C335.712 205.154 335.589 205.769 335.343 206.345C335.097 206.921 334.758 207.428 334.326 207.866C333.894 208.298 333.39 208.637 332.814 208.883C332.244 209.129 331.632 209.252 330.978 209.252C330.276 209.252 329.67 209.09 329.16 208.766C328.65 208.436 328.242 208.007 327.936 207.479V213.5ZM330.96 201.233C330.378 201.233 329.868 201.38 329.43 201.674C328.992 201.968 328.653 202.361 328.413 202.853C328.179 203.345 328.062 203.894 328.062 204.5C328.062 205.1 328.179 205.649 328.413 206.147C328.653 206.645 328.989 207.041 329.421 207.335C329.859 207.629 330.372 207.776 330.96 207.776C331.542 207.776 332.076 207.632 332.562 207.344C333.048 207.05 333.438 206.657 333.732 206.165C334.026 205.667 334.173 205.112 334.173 204.5C334.173 203.9 334.029 203.354 333.741 202.862C333.453 202.364 333.066 201.968 332.58 201.674C332.094 201.38 331.554 201.233 330.96 201.233ZM337.217 209V200H338.729V201.125C339.047 200.705 339.449 200.372 339.935 200.126C340.421 199.874 340.949 199.748 341.519 199.748C341.867 199.748 342.203 199.793 342.527 199.883L341.915 201.395C341.669 201.317 341.429 201.278 341.195 201.278C340.745 201.278 340.331 201.389 339.953 201.611C339.581 201.827 339.284 202.121 339.062 202.493C338.84 202.865 338.729 203.279 338.729 203.735V209H337.217ZM347.136 209.234C346.308 209.234 345.552 209.021 344.868 208.595C344.19 208.169 343.647 207.599 343.239 206.885C342.837 206.165 342.636 205.37 342.636 204.5C342.636 203.84 342.753 203.225 342.987 202.655C343.221 202.079 343.542 201.575 343.95 201.143C344.364 200.705 344.844 200.363 345.39 200.117C345.936 199.871 346.518 199.748 347.136 199.748C347.964 199.748 348.717 199.961 349.395 200.387C350.079 200.813 350.622 201.386 351.024 202.106C351.432 202.826 351.636 203.624 351.636 204.5C351.636 205.154 351.519 205.766 351.285 206.336C351.051 206.906 350.727 207.41 350.313 207.848C349.905 208.28 349.428 208.619 348.882 208.865C348.342 209.111 347.76 209.234 347.136 209.234ZM347.136 207.722C347.7 207.722 348.207 207.575 348.657 207.281C349.113 206.981 349.47 206.588 349.728 206.102C349.992 205.61 350.124 205.076 350.124 204.5C350.124 203.912 349.989 203.372 349.719 202.88C349.455 202.388 349.098 201.995 348.648 201.701C348.198 201.407 347.694 201.26 347.136 201.26C346.572 201.26 346.065 201.41 345.615 201.71C345.165 202.004 344.808 202.397 344.544 202.889C344.28 203.381 344.148 203.918 344.148 204.5C344.148 205.1 344.283 205.646 344.553 206.138C344.823 206.624 345.186 207.011 345.642 207.299C346.098 207.581 346.596 207.722 347.136 207.722ZM360.308 200H361.82V209H360.308L360.245 207.479C359.963 208.001 359.573 208.424 359.075 208.748C358.583 209.072 357.995 209.234 357.311 209.234C356.651 209.234 356.033 209.111 355.457 208.865C354.881 208.613 354.371 208.268 353.927 207.83C353.489 207.386 353.147 206.876 352.901 206.3C352.655 205.724 352.532 205.103 352.532 204.437C352.532 203.795 352.652 203.189 352.892 202.619C353.132 202.049 353.465 201.551 353.891 201.125C354.323 200.693 354.821 200.357 355.385 200.117C355.949 199.871 356.555 199.748 357.203 199.748C357.911 199.748 358.532 199.916 359.066 200.252C359.6 200.582 360.032 201.011 360.362 201.539L360.308 200ZM357.284 207.767C357.878 207.767 358.391 207.623 358.823 207.335C359.261 207.041 359.597 206.645 359.831 206.147C360.071 205.649 360.191 205.1 360.191 204.5C360.191 203.888 360.071 203.336 359.831 202.844C359.591 202.346 359.252 201.953 358.814 201.665C358.382 201.371 357.872 201.224 357.284 201.224C356.69 201.224 356.15 201.371 355.664 201.665C355.178 201.959 354.791 202.355 354.503 202.853C354.221 203.345 354.08 203.894 354.08 204.5C354.08 205.106 354.227 205.658 354.521 206.156C354.815 206.648 355.205 207.041 355.691 207.335C356.177 207.623 356.708 207.767 357.284 207.767ZM369.644 206.624L370.994 207.353C370.586 207.923 370.067 208.379 369.437 208.721C368.813 209.063 368.135 209.234 367.403 209.234C366.575 209.234 365.819 209.021 365.135 208.595C364.457 208.169 363.914 207.599 363.506 206.885C363.104 206.165 362.903 205.37 362.903 204.5C362.903 203.84 363.02 203.225 363.254 202.655C363.488 202.079 363.809 201.575 364.217 201.143C364.631 200.705 365.111 200.363 365.657 200.117C366.203 199.871 366.785 199.748 367.403 199.748C368.135 199.748 368.813 199.919 369.437 200.261C370.067 200.603 370.586 201.062 370.994 201.638L369.644 202.367C369.356 202.013 369.014 201.74 368.618 201.548C368.222 201.356 367.817 201.26 367.403 201.26C366.845 201.26 366.338 201.41 365.882 201.71C365.432 202.004 365.075 202.397 364.811 202.889C364.547 203.381 364.415 203.918 364.415 204.5C364.415 205.082 364.547 205.619 364.811 206.111C365.081 206.597 365.441 206.987 365.891 207.281C366.347 207.575 366.851 207.722 367.403 207.722C367.847 207.722 368.264 207.62 368.654 207.416C369.044 207.212 369.374 206.948 369.644 206.624ZM380.417 203.402V209H378.905V203.735C378.905 203.279 378.794 202.865 378.572 202.493C378.35 202.121 378.053 201.827 377.681 201.611C377.309 201.389 376.895 201.278 376.439 201.278C375.989 201.278 375.575 201.389 375.197 201.611C374.825 201.827 374.528 202.121 374.306 202.493C374.084 202.865 373.973 203.279 373.973 203.735V209H372.461V195.5H373.973V201.125C374.291 200.705 374.693 200.372 375.179 200.126C375.665 199.874 376.193 199.748 376.763 199.748C377.435 199.748 378.047 199.913 378.599 200.243C379.157 200.567 379.598 201.005 379.922 201.557C380.252 202.109 380.417 202.724 380.417 203.402ZM382.676 209.234C382.448 209.234 382.253 209.153 382.091 208.991C381.935 208.829 381.857 208.631 381.857 208.397C381.857 208.175 381.935 207.983 382.091 207.821C382.253 207.659 382.448 207.578 382.676 207.578C382.91 207.578 383.108 207.659 383.27 207.821C383.432 207.983 383.513 208.175 383.513 208.397C383.513 208.631 383.432 208.829 383.27 208.991C383.108 209.153 382.91 209.234 382.676 209.234Z" fill="#999999"></path><defs><linearGradient id="paint0_linear_104_11424" x1="56.75" y1="136.5" x2="135.75" y2="44.5" gradientUnits="userSpaceOnUse"><stop stop-color="#A685FA"></stop><stop offset="0.323723" stop-color="#A685FA" stop-opacity="0"></stop></linearGradient><linearGradient id="paint1_linear_104_11424" x1="131.75" y1="39.5" x2="56.75" y2="132" gradientUnits="userSpaceOnUse"><stop stop-color="#A685FA"></stop><stop offset="0.576615" stop-color="#A685FA" stop-opacity="0"></stop></linearGradient><linearGradient id="paint2_linear_104_11424" x1="53.25" y1="63.5" x2="121.75" y2="122" gradientUnits="userSpaceOnUse"><stop stop-color="#A685FA"></stop><stop offset="0.323723" stop-color="#A685FA" stop-opacity="0"></stop></linearGradient><linearGradient id="paint3_linear_104_11424" x1="134.25" y1="136" x2="62.25" y2="85" gradientUnits="userSpaceOnUse"><stop stop-color="#A685FA"></stop><stop offset="0.576615" stop-color="#A685FA" stop-opacity="0"></stop></linearGradient></defs></svg>