<svg xmlns="http://www.w3.org/2000/svg" width="512" height="266" viewBox="0 0 512 266" fill="none"><rect x="0.5" y="0.5" width="511" height="265" rx="11.5" stroke="#262626"></rect><rect x="50.5" y="50.5" width="81" height="81" rx="40.5" stroke="url(#paint0_linear_104_11599)"></rect><rect x="50.5" y="50.5" width="81" height="81" rx="40.5" stroke="url(#paint1_linear_104_11599)"></rect><rect x="60.5" y="60.5" width="61" height="61" rx="30.5" stroke="url(#paint2_linear_104_11599)"></rect><rect x="60.5" y="60.5" width="61" height="61" rx="30.5" stroke="url(#paint3_linear_104_11599)"></rect><path d="M82.5 78.25C80.1528 78.25 78.25 80.1528 78.25 82.5V85.6875C78.25 88.0347 80.1528 89.9375 82.5 89.9375H85.6875C88.0347 89.9375 89.9375 88.0347 89.9375 85.6875V82.5C89.9375 80.1528 88.0347 78.25 85.6875 78.25H82.5Z" fill="#A685FA"></path><path d="M96.3125 78.25C93.9653 78.25 92.0625 80.1528 92.0625 82.5V85.6875C92.0625 88.0347 93.9653 89.9375 96.3125 89.9375H99.5C101.847 89.9375 103.75 88.0347 103.75 85.6875V82.5C103.75 80.1528 101.847 78.25 99.5 78.25H96.3125Z" fill="#A685FA"></path><path d="M82.5 92.0625C80.1528 92.0625 78.25 93.9653 78.25 96.3125V99.5C78.25 101.847 80.1528 103.75 82.5 103.75H85.6875C88.0347 103.75 89.9375 101.847 89.9375 99.5V96.3125C89.9375 93.9653 88.0347 92.0625 85.6875 92.0625H82.5Z" fill="#A685FA"></path><path d="M98.9688 93.125C98.9688 92.5382 98.4931 92.0625 97.9062 92.0625C97.3194 92.0625 96.8438 92.5382 96.8438 93.125V96.8438H93.125C92.5382 96.8438 92.0625 97.3194 92.0625 97.9062C92.0625 98.4931 92.5382 98.9688 93.125 98.9688H96.8438V102.688C96.8438 103.274 97.3194 103.75 97.9062 103.75C98.4931 103.75 98.9688 103.274 98.9688 102.688V98.9688H102.688C103.274 98.9688 103.75 98.4931 103.75 97.9062C103.75 97.3194 103.274 96.8438 102.688 96.8438H98.9688V93.125Z" fill="#A685FA"></path><path d="M166.148 82.2V84.696H160.796V99H158.3V84.696H152.96V82.2H166.148ZM171.986 99.312C170.882 99.312 169.874 99.028 168.962 98.46C168.058 97.892 167.334 97.132 166.79 96.18C166.254 95.22 165.986 94.16 165.986 93C165.986 92.12 166.142 91.3 166.454 90.54C166.766 89.772 167.194 89.1 167.738 88.524C168.29 87.94 168.93 87.484 169.658 87.156C170.386 86.828 171.162 86.664 171.986 86.664C172.906 86.664 173.75 86.856 174.518 87.24C175.286 87.616 175.942 88.14 176.486 88.812C177.03 89.476 177.43 90.244 177.686 91.116C177.942 91.98 178.018 92.9 177.914 93.876H168.662C168.766 94.428 168.966 94.928 169.262 95.376C169.566 95.816 169.95 96.164 170.414 96.42C170.886 96.676 171.41 96.808 171.986 96.816C172.594 96.816 173.146 96.664 173.642 96.36C174.146 96.056 174.558 95.636 174.878 95.1L177.41 95.688C176.93 96.752 176.206 97.624 175.238 98.304C174.27 98.976 173.186 99.312 171.986 99.312ZM168.578 91.968H175.394C175.314 91.392 175.11 90.872 174.782 90.408C174.462 89.936 174.058 89.564 173.57 89.292C173.09 89.012 172.562 88.872 171.986 88.872C171.418 88.872 170.89 89.008 170.402 89.28C169.922 89.552 169.522 89.924 169.202 90.396C168.89 90.86 168.682 91.384 168.578 91.968ZM190.701 91.476V99H188.205V92.088C188.205 91.552 188.073 91.064 187.809 90.624C187.553 90.184 187.205 89.836 186.765 89.58C186.333 89.316 185.845 89.184 185.301 89.184C184.773 89.184 184.289 89.316 183.849 89.58C183.409 89.836 183.057 90.184 182.793 90.624C182.529 91.064 182.397 91.552 182.397 92.088V99H179.901V87H182.397V88.272C182.813 87.776 183.325 87.384 183.933 87.096C184.541 86.808 185.197 86.664 185.901 86.664C186.789 86.664 187.597 86.88 188.325 87.312C189.053 87.744 189.629 88.324 190.053 89.052C190.485 89.78 190.701 90.588 190.701 91.476ZM202.198 87H204.694V99H202.186L202.09 97.26C201.738 97.876 201.262 98.372 200.662 98.748C200.062 99.124 199.354 99.312 198.538 99.312C197.658 99.312 196.83 99.148 196.054 98.82C195.278 98.484 194.594 98.02 194.002 97.428C193.418 96.836 192.962 96.156 192.634 95.388C192.306 94.612 192.142 93.78 192.142 92.892C192.142 92.036 192.302 91.232 192.622 90.48C192.942 89.72 193.386 89.056 193.954 88.488C194.522 87.92 195.178 87.476 195.922 87.156C196.674 86.828 197.478 86.664 198.334 86.664C199.206 86.664 199.974 86.864 200.638 87.264C201.31 87.656 201.866 88.16 202.306 88.776L202.198 87ZM198.478 96.9C199.182 96.9 199.798 96.728 200.326 96.384C200.854 96.032 201.262 95.56 201.55 94.968C201.846 94.376 201.994 93.72 201.994 93C201.994 92.272 201.846 91.612 201.55 91.02C201.254 90.428 200.842 89.96 200.314 89.616C199.794 89.264 199.182 89.088 198.478 89.088C197.782 89.088 197.146 89.264 196.57 89.616C195.994 89.968 195.538 90.44 195.202 91.032C194.866 91.624 194.698 92.28 194.698 93C194.698 93.728 194.87 94.388 195.214 94.98C195.566 95.564 196.026 96.032 196.594 96.384C197.17 96.728 197.798 96.9 198.478 96.9ZM217.888 91.476V99H215.392V92.088C215.392 91.552 215.26 91.064 214.996 90.624C214.74 90.184 214.392 89.836 213.952 89.58C213.52 89.316 213.032 89.184 212.488 89.184C211.96 89.184 211.476 89.316 211.036 89.58C210.596 89.836 210.244 90.184 209.98 90.624C209.716 91.064 209.584 91.552 209.584 92.088V99H207.088V87H209.584V88.272C210 87.776 210.512 87.384 211.12 87.096C211.728 86.808 212.384 86.664 213.088 86.664C213.976 86.664 214.784 86.88 215.512 87.312C216.24 87.744 216.816 88.324 217.24 89.052C217.672 89.78 217.888 90.588 217.888 91.476ZM226.62 89.496H224.1L224.088 99H221.592L221.604 89.496H219.696V87H221.604L221.592 83.232H224.088L224.1 87H226.62V89.496ZM244.626 82.2H247.122V99H244.626V91.248H237.03V99H234.534V82.2H237.03V88.752H244.626V82.2ZM259.174 87H261.67V99H259.162L259.066 97.26C258.714 97.876 258.238 98.372 257.638 98.748C257.038 99.124 256.33 99.312 255.514 99.312C254.634 99.312 253.806 99.148 253.03 98.82C252.254 98.484 251.57 98.02 250.978 97.428C250.394 96.836 249.938 96.156 249.61 95.388C249.282 94.612 249.118 93.78 249.118 92.892C249.118 92.036 249.278 91.232 249.598 90.48C249.918 89.72 250.362 89.056 250.93 88.488C251.498 87.92 252.154 87.476 252.898 87.156C253.65 86.828 254.454 86.664 255.31 86.664C256.182 86.664 256.95 86.864 257.614 87.264C258.286 87.656 258.842 88.16 259.282 88.776L259.174 87ZM255.454 96.9C256.158 96.9 256.774 96.728 257.302 96.384C257.83 96.032 258.238 95.56 258.526 94.968C258.822 94.376 258.97 93.72 258.97 93C258.97 92.272 258.822 91.612 258.526 91.02C258.23 90.428 257.818 89.96 257.29 89.616C256.77 89.264 256.158 89.088 255.454 89.088C254.758 89.088 254.122 89.264 253.546 89.616C252.97 89.968 252.514 90.44 252.178 91.032C251.842 91.624 251.674 92.28 251.674 93C251.674 93.728 251.846 94.388 252.19 94.98C252.542 95.564 253.002 96.032 253.57 96.384C254.146 96.728 254.774 96.9 255.454 96.9ZM264.065 99V87H266.561V88.272C266.977 87.776 267.489 87.384 268.097 87.096C268.705 86.808 269.361 86.664 270.065 86.664C270.513 86.664 270.957 86.724 271.397 86.844L270.401 89.364C270.089 89.244 269.777 89.184 269.465 89.184C268.937 89.184 268.453 89.316 268.013 89.58C267.573 89.836 267.221 90.184 266.957 90.624C266.693 91.064 266.561 91.552 266.561 92.088V99H264.065ZM272.878 99V87H275.374V88.272C275.79 87.776 276.298 87.384 276.898 87.096C277.506 86.808 278.162 86.664 278.866 86.664C279.722 86.664 280.51 86.872 281.23 87.288C281.95 87.696 282.522 88.24 282.946 88.92C283.37 88.24 283.934 87.696 284.638 87.288C285.35 86.872 286.134 86.664 286.99 86.664C287.878 86.664 288.686 86.88 289.414 87.312C290.142 87.744 290.722 88.324 291.154 89.052C291.586 89.78 291.802 90.588 291.802 91.476V99H289.306V92.112C289.306 91.584 289.178 91.1 288.922 90.66C288.666 90.22 288.322 89.864 287.89 89.592C287.458 89.32 286.978 89.184 286.45 89.184C285.922 89.184 285.442 89.312 285.01 89.568C284.578 89.824 284.234 90.172 283.978 90.612C283.722 91.052 283.594 91.552 283.594 92.112V99H281.098V92.112C281.098 91.552 280.97 91.052 280.714 90.612C280.458 90.172 280.11 89.824 279.67 89.568C279.238 89.312 278.758 89.184 278.23 89.184C277.71 89.184 277.23 89.32 276.79 89.592C276.358 89.864 276.014 90.22 275.758 90.66C275.502 91.1 275.374 91.584 275.374 92.112V99H272.878ZM299.251 99.312C298.147 99.312 297.139 99.028 296.227 98.46C295.323 97.892 294.599 97.132 294.055 96.18C293.519 95.22 293.251 94.16 293.251 93C293.251 92.12 293.407 91.3 293.719 90.54C294.031 89.772 294.459 89.1 295.003 88.524C295.555 87.94 296.195 87.484 296.923 87.156C297.651 86.828 298.427 86.664 299.251 86.664C300.355 86.664 301.359 86.948 302.263 87.516C303.175 88.084 303.899 88.848 304.435 89.808C304.979 90.768 305.251 91.832 305.251 93C305.251 93.872 305.095 94.688 304.783 95.448C304.471 96.208 304.039 96.88 303.487 97.464C302.943 98.04 302.307 98.492 301.579 98.82C300.859 99.148 300.083 99.312 299.251 99.312ZM299.251 96.816C299.915 96.816 300.511 96.64 301.039 96.288C301.567 95.936 301.983 95.472 302.287 94.896C302.599 94.312 302.755 93.68 302.755 93C302.755 92.304 302.595 91.664 302.275 91.08C301.963 90.496 301.543 90.032 301.015 89.688C300.487 89.336 299.899 89.16 299.251 89.16C298.595 89.16 297.999 89.336 297.463 89.688C296.935 90.04 296.515 90.508 296.203 91.092C295.899 91.676 295.747 92.312 295.747 93C295.747 93.712 295.907 94.356 296.227 94.932C296.547 95.508 296.971 95.968 297.499 96.312C298.035 96.648 298.619 96.816 299.251 96.816ZM317.99 91.476V99H315.494V92.088C315.494 91.552 315.362 91.064 315.098 90.624C314.842 90.184 314.494 89.836 314.054 89.58C313.622 89.316 313.134 89.184 312.59 89.184C312.062 89.184 311.578 89.316 311.138 89.58C310.698 89.836 310.346 90.184 310.082 90.624C309.818 91.064 309.686 91.552 309.686 92.088V99H307.19V87H309.686V88.272C310.102 87.776 310.614 87.384 311.222 87.096C311.83 86.808 312.486 86.664 313.19 86.664C314.078 86.664 314.886 86.88 315.614 87.312C316.342 87.744 316.918 88.324 317.342 89.052C317.774 89.78 317.99 90.588 317.99 91.476ZM328.09 87H330.754L324.178 105H321.526L323.698 99L319.39 87H322.114L324.946 95.58L328.09 87Z" fill="white"></path><path d="M56.93 182.234C56.078 182.234 55.277 182.066 54.527 181.73C53.777 181.388 53.117 180.917 52.547 180.317C51.977 179.717 51.53 179.024 51.206 178.238C50.882 177.446 50.72 176.6 50.72 175.7C50.72 174.8 50.882 173.957 51.206 173.171C51.53 172.379 51.977 171.683 52.547 171.083C53.117 170.483 53.777 170.015 54.527 169.679C55.277 169.337 56.078 169.166 56.93 169.166C57.788 169.166 58.592 169.337 59.342 169.679C60.092 170.015 60.752 170.483 61.322 171.083C61.892 171.683 62.336 172.379 62.654 173.171C62.978 173.957 63.14 174.8 63.14 175.7C63.14 176.6 62.978 177.446 62.654 178.238C62.336 179.024 61.892 179.717 61.322 180.317C60.752 180.917 60.092 181.388 59.342 181.73C58.592 182.066 57.788 182.234 56.93 182.234ZM56.93 180.722C57.584 180.722 58.193 180.59 58.757 180.326C59.327 180.062 59.825 179.699 60.251 179.237C60.683 178.769 61.019 178.235 61.259 177.635C61.505 177.029 61.628 176.384 61.628 175.7C61.628 175.016 61.505 174.371 61.259 173.765C61.013 173.153 60.674 172.619 60.242 172.163C59.816 171.701 59.318 171.338 58.748 171.074C58.184 170.81 57.578 170.678 56.93 170.678C56.276 170.678 55.664 170.81 55.094 171.074C54.53 171.338 54.032 171.704 53.6 172.172C53.174 172.634 52.838 173.168 52.592 173.774C52.352 174.374 52.232 175.016 52.232 175.7C52.232 176.39 52.355 177.038 52.601 177.644C52.847 178.25 53.183 178.784 53.609 179.246C54.041 179.708 54.539 180.071 55.103 180.335C55.673 180.593 56.282 180.722 56.93 180.722ZM64.4134 178.58V173H65.9254V178.247C65.9254 178.703 66.0364 179.117 66.2584 179.489C66.4804 179.861 66.7774 180.158 67.1494 180.38C67.5274 180.596 67.9414 180.704 68.3914 180.704C68.8474 180.704 69.2584 180.596 69.6244 180.38C69.9964 180.158 70.2934 179.861 70.5154 179.489C70.7374 179.117 70.8484 178.703 70.8484 178.247V173H72.3604L72.3694 182H70.8574L70.8484 180.857C70.5304 181.277 70.1284 181.613 69.6424 181.865C69.1564 182.111 68.6314 182.234 68.0674 182.234C67.3954 182.234 66.7804 182.072 66.2224 181.748C65.6704 181.418 65.2294 180.977 64.8994 180.425C64.5754 179.873 64.4134 179.258 64.4134 178.58ZM74.1777 182V173H75.6897V174.125C76.0077 173.705 76.4097 173.372 76.8957 173.126C77.3817 172.874 77.9097 172.748 78.4797 172.748C78.8277 172.748 79.1637 172.793 79.4877 172.883L78.8757 174.395C78.6297 174.317 78.3897 174.278 78.1557 174.278C77.7057 174.278 77.2917 174.389 76.9137 174.611C76.5417 174.827 76.2447 175.121 76.0227 175.493C75.8007 175.865 75.6897 176.279 75.6897 176.735V182H74.1777ZM94.6071 169.4V170.912H90.4131V182H88.9011V170.912H84.7161V169.4H94.6071ZM98.9677 182.234C98.1397 182.234 97.3837 182.021 96.6997 181.595C96.0217 181.169 95.4787 180.599 95.0707 179.885C94.6687 179.165 94.4677 178.37 94.4677 177.5C94.4677 176.84 94.5847 176.225 94.8187 175.655C95.0527 175.079 95.3737 174.575 95.7817 174.143C96.1957 173.705 96.6757 173.363 97.2217 173.117C97.7677 172.871 98.3497 172.748 98.9677 172.748C99.6457 172.748 100.267 172.886 100.831 173.162C101.401 173.432 101.887 173.81 102.289 174.296C102.697 174.782 103 175.346 103.198 175.988C103.402 176.63 103.477 177.317 103.423 178.049H96.0787C96.1507 178.559 96.3187 179.015 96.5827 179.417C96.8467 179.813 97.1827 180.128 97.5907 180.362C98.0047 180.596 98.4637 180.716 98.9677 180.722C99.5077 180.722 99.9967 180.584 100.435 180.308C100.873 180.026 101.227 179.642 101.497 179.156L103.036 179.516C102.676 180.314 102.133 180.968 101.407 181.478C100.681 181.982 99.8677 182.234 98.9677 182.234ZM96.0337 176.861H101.902C101.854 176.357 101.692 175.898 101.416 175.484C101.14 175.064 100.789 174.728 100.363 174.476C99.9367 174.224 99.4717 174.098 98.9677 174.098C98.4637 174.098 98.0017 174.221 97.5817 174.467C97.1617 174.713 96.8137 175.046 96.5377 175.466C96.2677 175.88 96.0997 176.345 96.0337 176.861ZM112.895 176.402V182H111.383V176.735C111.383 176.279 111.272 175.865 111.05 175.493C110.828 175.121 110.531 174.827 110.159 174.611C109.787 174.389 109.373 174.278 108.917 174.278C108.467 174.278 108.053 174.389 107.675 174.611C107.303 174.827 107.006 175.121 106.784 175.493C106.562 175.865 106.451 176.279 106.451 176.735V182H104.939V173H106.451V174.125C106.769 173.705 107.171 173.372 107.657 173.126C108.143 172.874 108.671 172.748 109.241 172.748C109.913 172.748 110.525 172.913 111.077 173.243C111.635 173.567 112.076 174.005 112.4 174.557C112.73 175.109 112.895 175.724 112.895 176.402ZM121.755 173H123.267V182H121.755L121.692 180.479C121.41 181.001 121.02 181.424 120.522 181.748C120.03 182.072 119.442 182.234 118.758 182.234C118.098 182.234 117.48 182.111 116.904 181.865C116.328 181.613 115.818 181.268 115.374 180.83C114.936 180.386 114.594 179.876 114.348 179.3C114.102 178.724 113.979 178.103 113.979 177.437C113.979 176.795 114.099 176.189 114.339 175.619C114.579 175.049 114.912 174.551 115.338 174.125C115.77 173.693 116.268 173.357 116.832 173.117C117.396 172.871 118.002 172.748 118.65 172.748C119.358 172.748 119.979 172.916 120.513 173.252C121.047 173.582 121.479 174.011 121.809 174.539L121.755 173ZM118.731 180.767C119.325 180.767 119.838 180.623 120.27 180.335C120.708 180.041 121.044 179.645 121.278 179.147C121.518 178.649 121.638 178.1 121.638 177.5C121.638 176.888 121.518 176.336 121.278 175.844C121.038 175.346 120.699 174.953 120.261 174.665C119.829 174.371 119.319 174.224 118.731 174.224C118.137 174.224 117.597 174.371 117.111 174.665C116.625 174.959 116.238 175.355 115.95 175.853C115.668 176.345 115.527 176.894 115.527 177.5C115.527 178.106 115.674 178.658 115.968 179.156C116.262 179.648 116.652 180.041 117.138 180.335C117.624 180.623 118.155 180.767 118.731 180.767ZM133.022 176.402V182H131.51V176.735C131.51 176.279 131.399 175.865 131.177 175.493C130.955 175.121 130.658 174.827 130.286 174.611C129.914 174.389 129.5 174.278 129.044 174.278C128.594 174.278 128.18 174.389 127.802 174.611C127.43 174.827 127.133 175.121 126.911 175.493C126.689 175.865 126.578 176.279 126.578 176.735V182H125.066V173H126.578V174.125C126.896 173.705 127.298 173.372 127.784 173.126C128.27 172.874 128.798 172.748 129.368 172.748C130.04 172.748 130.652 172.913 131.204 173.243C131.762 173.567 132.203 174.005 132.527 174.557C132.857 175.109 133.022 175.724 133.022 176.402ZM139.484 174.512H137.441L137.432 182H135.92L135.929 174.512H134.381V173H135.929L135.92 170.174H137.432L137.441 173H139.484V174.512ZM145.422 182L147.861 169.4H149.022L152.424 178.346L155.817 169.4H156.978L159.426 182H157.887L156.114 172.856L152.919 181.316H151.92L148.725 172.856L146.961 182H145.422ZM168.039 173H169.551V182H168.039L167.976 180.479C167.694 181.001 167.304 181.424 166.806 181.748C166.314 182.072 165.726 182.234 165.042 182.234C164.382 182.234 163.764 182.111 163.188 181.865C162.612 181.613 162.102 181.268 161.658 180.83C161.22 180.386 160.878 179.876 160.632 179.3C160.386 178.724 160.263 178.103 160.263 177.437C160.263 176.795 160.383 176.189 160.623 175.619C160.863 175.049 161.196 174.551 161.622 174.125C162.054 173.693 162.552 173.357 163.116 173.117C163.68 172.871 164.286 172.748 164.934 172.748C165.642 172.748 166.263 172.916 166.797 173.252C167.331 173.582 167.763 174.011 168.093 174.539L168.039 173ZM165.015 180.767C165.609 180.767 166.122 180.623 166.554 180.335C166.992 180.041 167.328 179.645 167.562 179.147C167.802 178.649 167.922 178.1 167.922 177.5C167.922 176.888 167.802 176.336 167.562 175.844C167.322 175.346 166.983 174.953 166.545 174.665C166.113 174.371 165.603 174.224 165.015 174.224C164.421 174.224 163.881 174.371 163.395 174.665C162.909 174.959 162.522 175.355 162.234 175.853C161.952 176.345 161.811 176.894 161.811 177.5C161.811 178.106 161.958 178.658 162.252 179.156C162.546 179.648 162.936 180.041 163.422 180.335C163.908 180.623 164.439 180.767 165.015 180.767ZM179.306 176.402V182H177.794V176.735C177.794 176.279 177.683 175.865 177.461 175.493C177.239 175.121 176.942 174.827 176.57 174.611C176.198 174.389 175.784 174.278 175.328 174.278C174.878 174.278 174.464 174.389 174.086 174.611C173.714 174.827 173.417 175.121 173.195 175.493C172.973 175.865 172.862 176.279 172.862 176.735V182H171.35V173H172.862V174.125C173.18 173.705 173.582 173.372 174.068 173.126C174.554 172.874 175.082 172.748 175.652 172.748C176.324 172.748 176.936 172.913 177.488 173.243C178.046 173.567 178.487 174.005 178.811 174.557C179.141 175.109 179.306 175.724 179.306 176.402ZM188.166 173H189.678V182H188.166L188.103 180.479C187.821 181.001 187.431 181.424 186.933 181.748C186.441 182.072 185.853 182.234 185.169 182.234C184.509 182.234 183.891 182.111 183.315 181.865C182.739 181.613 182.229 181.268 181.785 180.83C181.347 180.386 181.005 179.876 180.759 179.3C180.513 178.724 180.39 178.103 180.39 177.437C180.39 176.795 180.51 176.189 180.75 175.619C180.99 175.049 181.323 174.551 181.749 174.125C182.181 173.693 182.679 173.357 183.243 173.117C183.807 172.871 184.413 172.748 185.061 172.748C185.769 172.748 186.39 172.916 186.924 173.252C187.458 173.582 187.89 174.011 188.22 174.539L188.166 173ZM185.142 180.767C185.736 180.767 186.249 180.623 186.681 180.335C187.119 180.041 187.455 179.645 187.689 179.147C187.929 178.649 188.049 178.1 188.049 177.5C188.049 176.888 187.929 176.336 187.689 175.844C187.449 175.346 187.11 174.953 186.672 174.665C186.24 174.371 185.73 174.224 185.142 174.224C184.548 174.224 184.008 174.371 183.522 174.665C183.036 174.959 182.649 175.355 182.361 175.853C182.079 176.345 181.938 176.894 181.938 177.5C181.938 178.106 182.085 178.658 182.379 179.156C182.673 179.648 183.063 180.041 183.549 180.335C184.035 180.623 184.566 180.767 185.142 180.767ZM198.33 173H199.842V182.288C199.842 182.882 199.713 183.434 199.455 183.944C199.203 184.46 198.861 184.907 198.429 185.285C197.997 185.669 197.505 185.966 196.953 186.176C196.401 186.392 195.825 186.5 195.225 186.5C194.601 186.5 193.998 186.359 193.416 186.077C192.834 185.801 192.324 185.429 191.886 184.961C191.454 184.499 191.142 183.98 190.95 183.404L192.336 182.774C192.45 183.188 192.654 183.56 192.948 183.89C193.248 184.226 193.596 184.49 193.992 184.682C194.394 184.88 194.805 184.979 195.225 184.979C195.621 184.979 196.002 184.91 196.368 184.772C196.74 184.634 197.073 184.442 197.367 184.196C197.667 183.956 197.901 183.671 198.069 183.341C198.243 183.017 198.33 182.666 198.33 182.288V180.497C198.024 181.013 197.619 181.433 197.115 181.757C196.617 182.075 196.035 182.234 195.369 182.234C194.733 182.234 194.136 182.111 193.578 181.865C193.02 181.619 192.531 181.28 192.111 180.848C191.691 180.41 191.361 179.906 191.121 179.336C190.881 178.766 190.761 178.154 190.761 177.5C190.761 176.846 190.881 176.234 191.121 175.664C191.361 175.088 191.691 174.584 192.111 174.152C192.531 173.714 193.02 173.372 193.578 173.126C194.136 172.88 194.733 172.757 195.369 172.757C196.035 172.757 196.617 172.916 197.115 173.234C197.619 173.552 198.024 173.972 198.33 174.494V173ZM195.378 180.767C195.96 180.767 196.464 180.617 196.89 180.317C197.322 180.017 197.655 179.618 197.889 179.12C198.123 178.622 198.24 178.082 198.24 177.5C198.24 176.9 198.12 176.354 197.88 175.862C197.646 175.364 197.313 174.968 196.881 174.674C196.455 174.374 195.954 174.224 195.378 174.224C194.814 174.224 194.298 174.371 193.83 174.665C193.362 174.959 192.99 175.355 192.714 175.853C192.444 176.345 192.309 176.894 192.309 177.5C192.309 178.106 192.447 178.658 192.723 179.156C193.005 179.648 193.377 180.041 193.839 180.335C194.307 180.623 194.82 180.767 195.378 180.767ZM205.843 182.234C205.015 182.234 204.259 182.021 203.575 181.595C202.897 181.169 202.354 180.599 201.946 179.885C201.544 179.165 201.343 178.37 201.343 177.5C201.343 176.84 201.46 176.225 201.694 175.655C201.928 175.079 202.249 174.575 202.657 174.143C203.071 173.705 203.551 173.363 204.097 173.117C204.643 172.871 205.225 172.748 205.843 172.748C206.521 172.748 207.142 172.886 207.706 173.162C208.276 173.432 208.762 173.81 209.164 174.296C209.572 174.782 209.875 175.346 210.073 175.988C210.277 176.63 210.352 177.317 210.298 178.049H202.954C203.026 178.559 203.194 179.015 203.458 179.417C203.722 179.813 204.058 180.128 204.466 180.362C204.88 180.596 205.339 180.716 205.843 180.722C206.383 180.722 206.872 180.584 207.31 180.308C207.748 180.026 208.102 179.642 208.372 179.156L209.911 179.516C209.551 180.314 209.008 180.968 208.282 181.478C207.556 181.982 206.743 182.234 205.843 182.234ZM202.909 176.861H208.777C208.729 176.357 208.567 175.898 208.291 175.484C208.015 175.064 207.664 174.728 207.238 174.476C206.812 174.224 206.347 174.098 205.843 174.098C205.339 174.098 204.877 174.221 204.457 174.467C204.037 174.713 203.689 175.046 203.413 175.466C203.143 175.88 202.975 176.345 202.909 176.861ZM211.814 182V173H213.326V174.125C213.644 173.705 214.043 173.372 214.523 173.126C215.009 172.874 215.537 172.748 216.107 172.748C216.773 172.748 217.382 172.91 217.934 173.234C218.486 173.558 218.921 173.987 219.239 174.521C219.557 173.987 219.989 173.558 220.535 173.234C221.087 172.91 221.693 172.748 222.353 172.748C223.031 172.748 223.646 172.913 224.198 173.243C224.75 173.567 225.188 174.005 225.512 174.557C225.842 175.109 226.007 175.724 226.007 176.402V182H224.495V176.762C224.495 176.318 224.387 175.907 224.171 175.529C223.955 175.151 223.664 174.848 223.298 174.62C222.932 174.392 222.527 174.278 222.083 174.278C221.639 174.278 221.234 174.386 220.868 174.602C220.502 174.812 220.211 175.106 219.995 175.484C219.779 175.856 219.671 176.282 219.671 176.762V182H218.159V176.762C218.159 176.282 218.051 175.856 217.835 175.484C217.619 175.106 217.325 174.812 216.953 174.602C216.587 174.386 216.182 174.278 215.738 174.278C215.3 174.278 214.895 174.392 214.523 174.62C214.157 174.848 213.866 175.151 213.65 175.529C213.434 175.907 213.326 176.318 213.326 176.762V182H211.814ZM231.595 182.234C230.767 182.234 230.011 182.021 229.327 181.595C228.649 181.169 228.106 180.599 227.698 179.885C227.296 179.165 227.095 178.37 227.095 177.5C227.095 176.84 227.212 176.225 227.446 175.655C227.68 175.079 228.001 174.575 228.409 174.143C228.823 173.705 229.303 173.363 229.849 173.117C230.395 172.871 230.977 172.748 231.595 172.748C232.273 172.748 232.894 172.886 233.458 173.162C234.028 173.432 234.514 173.81 234.916 174.296C235.324 174.782 235.627 175.346 235.825 175.988C236.029 176.63 236.104 177.317 236.05 178.049H228.706C228.778 178.559 228.946 179.015 229.21 179.417C229.474 179.813 229.81 180.128 230.218 180.362C230.632 180.596 231.091 180.716 231.595 180.722C232.135 180.722 232.624 180.584 233.062 180.308C233.5 180.026 233.854 179.642 234.124 179.156L235.663 179.516C235.303 180.314 234.76 180.968 234.034 181.478C233.308 181.982 232.495 182.234 231.595 182.234ZM228.661 176.861H234.529C234.481 176.357 234.319 175.898 234.043 175.484C233.767 175.064 233.416 174.728 232.99 174.476C232.564 174.224 232.099 174.098 231.595 174.098C231.091 174.098 230.629 174.221 230.209 174.467C229.789 174.713 229.441 175.046 229.165 175.466C228.895 175.88 228.727 176.345 228.661 176.861ZM245.522 176.402V182H244.01V176.735C244.01 176.279 243.899 175.865 243.677 175.493C243.455 175.121 243.158 174.827 242.786 174.611C242.414 174.389 242 174.278 241.544 174.278C241.094 174.278 240.68 174.389 240.302 174.611C239.93 174.827 239.633 175.121 239.411 175.493C239.189 175.865 239.078 176.279 239.078 176.735V182H237.566V173H239.078V174.125C239.396 173.705 239.798 173.372 240.284 173.126C240.77 172.874 241.298 172.748 241.868 172.748C242.54 172.748 243.152 172.913 243.704 173.243C244.262 173.567 244.703 174.005 245.027 174.557C245.357 175.109 245.522 175.724 245.522 176.402ZM251.984 174.512H249.941L249.932 182H248.42L248.429 174.512H246.881V173H248.429L248.42 170.174H249.932L249.941 173H251.984V174.512ZM260.667 182.171C260.181 182.153 259.707 182.063 259.245 181.901C258.789 181.733 258.387 181.508 258.039 181.226C257.697 180.938 257.448 180.608 257.292 180.236L258.588 179.678C258.678 179.882 258.84 180.074 259.074 180.254C259.308 180.434 259.578 180.578 259.884 180.686C260.19 180.794 260.499 180.848 260.811 180.848C261.141 180.848 261.45 180.797 261.738 180.695C262.026 180.593 262.26 180.443 262.44 180.245C262.626 180.041 262.719 179.798 262.719 179.516C262.719 179.216 262.617 178.982 262.413 178.814C262.215 178.64 261.963 178.505 261.657 178.409C261.357 178.307 261.051 178.211 260.739 178.121C260.121 177.965 259.569 177.779 259.083 177.563C258.597 177.341 258.213 177.062 257.931 176.726C257.655 176.384 257.517 175.949 257.517 175.421C257.517 174.863 257.67 174.38 257.976 173.972C258.288 173.564 258.696 173.249 259.2 173.027C259.704 172.805 260.244 172.694 260.82 172.694C261.546 172.694 262.209 172.85 262.809 173.162C263.409 173.474 263.856 173.897 264.15 174.431L262.935 175.142C262.833 174.926 262.677 174.737 262.467 174.575C262.257 174.407 262.017 174.275 261.747 174.179C261.477 174.083 261.201 174.032 260.919 174.026C260.571 174.014 260.244 174.059 259.938 174.161C259.638 174.263 259.395 174.419 259.209 174.629C259.029 174.833 258.939 175.088 258.939 175.394C258.939 175.694 259.035 175.922 259.227 176.078C259.425 176.234 259.68 176.36 259.992 176.456C260.31 176.546 260.655 176.651 261.027 176.771C261.573 176.945 262.083 177.146 262.557 177.374C263.031 177.602 263.412 177.887 263.7 178.229C263.994 178.571 264.138 178.994 264.132 179.498C264.132 180.05 263.967 180.533 263.637 180.947C263.307 181.355 262.878 181.667 262.35 181.883C261.828 182.099 261.267 182.195 260.667 182.171ZM269.546 182.234C268.718 182.234 267.962 182.021 267.278 181.595C266.6 181.169 266.057 180.599 265.649 179.885C265.247 179.165 265.046 178.37 265.046 177.5C265.046 176.84 265.163 176.225 265.397 175.655C265.631 175.079 265.952 174.575 266.36 174.143C266.774 173.705 267.254 173.363 267.8 173.117C268.346 172.871 268.928 172.748 269.546 172.748C270.224 172.748 270.845 172.886 271.409 173.162C271.979 173.432 272.465 173.81 272.867 174.296C273.275 174.782 273.578 175.346 273.776 175.988C273.98 176.63 274.055 177.317 274.001 178.049H266.657C266.729 178.559 266.897 179.015 267.161 179.417C267.425 179.813 267.761 180.128 268.169 180.362C268.583 180.596 269.042 180.716 269.546 180.722C270.086 180.722 270.575 180.584 271.013 180.308C271.451 180.026 271.805 179.642 272.075 179.156L273.614 179.516C273.254 180.314 272.711 180.968 271.985 181.478C271.259 181.982 270.446 182.234 269.546 182.234ZM266.612 176.861H272.48C272.432 176.357 272.27 175.898 271.994 175.484C271.718 175.064 271.367 174.728 270.941 174.476C270.515 174.224 270.05 174.098 269.546 174.098C269.042 174.098 268.58 174.221 268.16 174.467C267.74 174.713 267.392 175.046 267.116 175.466C266.846 175.88 266.678 176.345 266.612 176.861ZM275.518 182V173H277.03V174.125C277.348 173.705 277.75 173.372 278.236 173.126C278.722 172.874 279.25 172.748 279.82 172.748C280.168 172.748 280.504 172.793 280.828 172.883L280.216 174.395C279.97 174.317 279.73 174.278 279.496 174.278C279.046 174.278 278.632 174.389 278.254 174.611C277.882 174.827 277.585 175.121 277.363 175.493C277.141 175.865 277.03 176.279 277.03 176.735V182H275.518ZM286.772 182H284.837L281.552 172.982H283.163L285.8 180.245L288.437 172.982H290.048L286.772 182ZM291.514 173H293.026V182H291.514V173ZM292.288 171.533C292.048 171.533 291.847 171.455 291.685 171.299C291.523 171.143 291.442 170.948 291.442 170.714C291.442 170.48 291.523 170.285 291.685 170.129C291.847 169.973 292.045 169.895 292.279 169.895C292.513 169.895 292.711 169.973 292.873 170.129C293.035 170.285 293.116 170.48 293.116 170.714C293.116 170.948 293.035 171.143 292.873 171.299C292.717 171.455 292.522 171.533 292.288 171.533ZM301.265 179.624L302.615 180.353C302.207 180.923 301.688 181.379 301.058 181.721C300.434 182.063 299.756 182.234 299.024 182.234C298.196 182.234 297.44 182.021 296.756 181.595C296.078 181.169 295.535 180.599 295.127 179.885C294.725 179.165 294.524 178.37 294.524 177.5C294.524 176.84 294.641 176.225 294.875 175.655C295.109 175.079 295.43 174.575 295.838 174.143C296.252 173.705 296.732 173.363 297.278 173.117C297.824 172.871 298.406 172.748 299.024 172.748C299.756 172.748 300.434 172.919 301.058 173.261C301.688 173.603 302.207 174.062 302.615 174.638L301.265 175.367C300.977 175.013 300.635 174.74 300.239 174.548C299.843 174.356 299.438 174.26 299.024 174.26C298.466 174.26 297.959 174.41 297.503 174.71C297.053 175.004 296.696 175.397 296.432 175.889C296.168 176.381 296.036 176.918 296.036 177.5C296.036 178.082 296.168 178.619 296.432 179.111C296.702 179.597 297.062 179.987 297.512 180.281C297.968 180.575 298.472 180.722 299.024 180.722C299.468 180.722 299.885 180.62 300.275 180.416C300.665 180.212 300.995 179.948 301.265 179.624ZM308.042 182.234C307.214 182.234 306.458 182.021 305.774 181.595C305.096 181.169 304.553 180.599 304.145 179.885C303.743 179.165 303.542 178.37 303.542 177.5C303.542 176.84 303.659 176.225 303.893 175.655C304.127 175.079 304.448 174.575 304.856 174.143C305.27 173.705 305.75 173.363 306.296 173.117C306.842 172.871 307.424 172.748 308.042 172.748C308.72 172.748 309.341 172.886 309.905 173.162C310.475 173.432 310.961 173.81 311.363 174.296C311.771 174.782 312.074 175.346 312.272 175.988C312.476 176.63 312.551 177.317 312.497 178.049H305.153C305.225 178.559 305.393 179.015 305.657 179.417C305.921 179.813 306.257 180.128 306.665 180.362C307.079 180.596 307.538 180.716 308.042 180.722C308.582 180.722 309.071 180.584 309.509 180.308C309.947 180.026 310.301 179.642 310.571 179.156L312.11 179.516C311.75 180.314 311.207 180.968 310.481 181.478C309.755 181.982 308.942 182.234 308.042 182.234ZM305.108 176.861H310.976C310.928 176.357 310.766 175.898 310.49 175.484C310.214 175.064 309.863 174.728 309.437 174.476C309.011 174.224 308.546 174.098 308.042 174.098C307.538 174.098 307.076 174.221 306.656 174.467C306.236 174.713 305.888 175.046 305.612 175.466C305.342 175.88 305.174 176.345 305.108 176.861ZM316.794 182.171C316.308 182.153 315.834 182.063 315.372 181.901C314.916 181.733 314.514 181.508 314.166 181.226C313.824 180.938 313.575 180.608 313.419 180.236L314.715 179.678C314.805 179.882 314.967 180.074 315.201 180.254C315.435 180.434 315.705 180.578 316.011 180.686C316.317 180.794 316.626 180.848 316.938 180.848C317.268 180.848 317.577 180.797 317.865 180.695C318.153 180.593 318.387 180.443 318.567 180.245C318.753 180.041 318.846 179.798 318.846 179.516C318.846 179.216 318.744 178.982 318.54 178.814C318.342 178.64 318.09 178.505 317.784 178.409C317.484 178.307 317.178 178.211 316.866 178.121C316.248 177.965 315.696 177.779 315.21 177.563C314.724 177.341 314.34 177.062 314.058 176.726C313.782 176.384 313.644 175.949 313.644 175.421C313.644 174.863 313.797 174.38 314.103 173.972C314.415 173.564 314.823 173.249 315.327 173.027C315.831 172.805 316.371 172.694 316.947 172.694C317.673 172.694 318.336 172.85 318.936 173.162C319.536 173.474 319.983 173.897 320.277 174.431L319.062 175.142C318.96 174.926 318.804 174.737 318.594 174.575C318.384 174.407 318.144 174.275 317.874 174.179C317.604 174.083 317.328 174.032 317.046 174.026C316.698 174.014 316.371 174.059 316.065 174.161C315.765 174.263 315.522 174.419 315.336 174.629C315.156 174.833 315.066 175.088 315.066 175.394C315.066 175.694 315.162 175.922 315.354 176.078C315.552 176.234 315.807 176.36 316.119 176.456C316.437 176.546 316.782 176.651 317.154 176.771C317.7 176.945 318.21 177.146 318.684 177.374C319.158 177.602 319.539 177.887 319.827 178.229C320.121 178.571 320.265 178.994 320.259 179.498C320.259 180.05 320.094 180.533 319.764 180.947C319.434 181.355 319.005 181.667 318.477 181.883C317.955 182.099 317.394 182.195 316.794 182.171ZM330.085 182.234C329.257 182.234 328.501 182.021 327.817 181.595C327.139 181.169 326.596 180.599 326.188 179.885C325.786 179.165 325.585 178.37 325.585 177.5C325.585 176.84 325.702 176.225 325.936 175.655C326.17 175.079 326.491 174.575 326.899 174.143C327.313 173.705 327.793 173.363 328.339 173.117C328.885 172.871 329.467 172.748 330.085 172.748C330.763 172.748 331.384 172.886 331.948 173.162C332.518 173.432 333.004 173.81 333.406 174.296C333.814 174.782 334.117 175.346 334.315 175.988C334.519 176.63 334.594 177.317 334.54 178.049H327.196C327.268 178.559 327.436 179.015 327.7 179.417C327.964 179.813 328.3 180.128 328.708 180.362C329.122 180.596 329.581 180.716 330.085 180.722C330.625 180.722 331.114 180.584 331.552 180.308C331.99 180.026 332.344 179.642 332.614 179.156L334.153 179.516C333.793 180.314 333.25 180.968 332.524 181.478C331.798 181.982 330.985 182.234 330.085 182.234ZM327.151 176.861H333.019C332.971 176.357 332.809 175.898 332.533 175.484C332.257 175.064 331.906 174.728 331.48 174.476C331.054 174.224 330.589 174.098 330.085 174.098C329.581 174.098 329.119 174.221 328.699 174.467C328.279 174.713 327.931 175.046 327.655 175.466C327.385 175.88 327.217 176.345 327.151 176.861ZM344.013 176.402V182H342.501V176.735C342.501 176.279 342.39 175.865 342.168 175.493C341.946 175.121 341.649 174.827 341.277 174.611C340.905 174.389 340.491 174.278 340.035 174.278C339.585 174.278 339.171 174.389 338.793 174.611C338.421 174.827 338.124 175.121 337.902 175.493C337.68 175.865 337.569 176.279 337.569 176.735V182H336.057V173H337.569V174.125C337.887 173.705 338.289 173.372 338.775 173.126C339.261 172.874 339.789 172.748 340.359 172.748C341.031 172.748 341.643 172.913 342.195 173.243C342.753 173.567 343.194 174.005 343.518 174.557C343.848 175.109 344.013 175.724 344.013 176.402ZM348.557 182.171C348.071 182.153 347.597 182.063 347.135 181.901C346.679 181.733 346.277 181.508 345.929 181.226C345.587 180.938 345.338 180.608 345.182 180.236L346.478 179.678C346.568 179.882 346.73 180.074 346.964 180.254C347.198 180.434 347.468 180.578 347.774 180.686C348.08 180.794 348.389 180.848 348.701 180.848C349.031 180.848 349.34 180.797 349.628 180.695C349.916 180.593 350.15 180.443 350.33 180.245C350.516 180.041 350.609 179.798 350.609 179.516C350.609 179.216 350.507 178.982 350.303 178.814C350.105 178.64 349.853 178.505 349.547 178.409C349.247 178.307 348.941 178.211 348.629 178.121C348.011 177.965 347.459 177.779 346.973 177.563C346.487 177.341 346.103 177.062 345.821 176.726C345.545 176.384 345.407 175.949 345.407 175.421C345.407 174.863 345.56 174.38 345.866 173.972C346.178 173.564 346.586 173.249 347.09 173.027C347.594 172.805 348.134 172.694 348.71 172.694C349.436 172.694 350.099 172.85 350.699 173.162C351.299 173.474 351.746 173.897 352.04 174.431L350.825 175.142C350.723 174.926 350.567 174.737 350.357 174.575C350.147 174.407 349.907 174.275 349.637 174.179C349.367 174.083 349.091 174.032 348.809 174.026C348.461 174.014 348.134 174.059 347.828 174.161C347.528 174.263 347.285 174.419 347.099 174.629C346.919 174.833 346.829 175.088 346.829 175.394C346.829 175.694 346.925 175.922 347.117 176.078C347.315 176.234 347.57 176.36 347.882 176.456C348.2 176.546 348.545 176.651 348.917 176.771C349.463 176.945 349.973 177.146 350.447 177.374C350.921 177.602 351.302 177.887 351.59 178.229C351.884 178.571 352.028 178.994 352.022 179.498C352.022 180.05 351.857 180.533 351.527 180.947C351.197 181.355 350.768 181.667 350.24 181.883C349.718 182.099 349.157 182.195 348.557 182.171ZM353.204 178.58V173H354.716V178.247C354.716 178.703 354.827 179.117 355.049 179.489C355.271 179.861 355.568 180.158 355.94 180.38C356.318 180.596 356.732 180.704 357.182 180.704C357.638 180.704 358.049 180.596 358.415 180.38C358.787 180.158 359.084 179.861 359.306 179.489C359.528 179.117 359.639 178.703 359.639 178.247V173H361.151L361.16 182H359.648L359.639 180.857C359.321 181.277 358.919 181.613 358.433 181.865C357.947 182.111 357.422 182.234 356.858 182.234C356.186 182.234 355.571 182.072 355.013 181.748C354.461 181.418 354.02 180.977 353.69 180.425C353.366 179.873 353.204 179.258 353.204 178.58ZM362.969 182V173H364.481V174.125C364.799 173.705 365.201 173.372 365.687 173.126C366.173 172.874 366.701 172.748 367.271 172.748C367.619 172.748 367.955 172.793 368.279 172.883L367.667 174.395C367.421 174.317 367.181 174.278 366.947 174.278C366.497 174.278 366.083 174.389 365.705 174.611C365.333 174.827 365.036 175.121 364.814 175.493C364.592 175.865 364.481 176.279 364.481 176.735V182H362.969ZM372.888 182.234C372.06 182.234 371.304 182.021 370.62 181.595C369.942 181.169 369.399 180.599 368.991 179.885C368.589 179.165 368.388 178.37 368.388 177.5C368.388 176.84 368.505 176.225 368.739 175.655C368.973 175.079 369.294 174.575 369.702 174.143C370.116 173.705 370.596 173.363 371.142 173.117C371.688 172.871 372.27 172.748 372.888 172.748C373.566 172.748 374.187 172.886 374.751 173.162C375.321 173.432 375.807 173.81 376.209 174.296C376.617 174.782 376.92 175.346 377.118 175.988C377.322 176.63 377.397 177.317 377.343 178.049H369.999C370.071 178.559 370.239 179.015 370.503 179.417C370.767 179.813 371.103 180.128 371.511 180.362C371.925 180.596 372.384 180.716 372.888 180.722C373.428 180.722 373.917 180.584 374.355 180.308C374.793 180.026 375.147 179.642 375.417 179.156L376.956 179.516C376.596 180.314 376.053 180.968 375.327 181.478C374.601 181.982 373.788 182.234 372.888 182.234ZM369.954 176.861H375.822C375.774 176.357 375.612 175.898 375.336 175.484C375.06 175.064 374.709 174.728 374.283 174.476C373.857 174.224 373.392 174.098 372.888 174.098C372.384 174.098 371.922 174.221 371.502 174.467C371.082 174.713 370.734 175.046 370.458 175.466C370.188 175.88 370.02 176.345 369.954 176.861ZM387.969 174.512H385.926L385.917 182H384.405L384.414 174.512H382.866V173H384.414L384.405 170.174H385.917L385.926 173H387.969V174.512ZM397.538 176.402V182H396.026V176.735C396.026 176.279 395.915 175.865 395.693 175.493C395.471 175.121 395.174 174.827 394.802 174.611C394.43 174.389 394.016 174.278 393.56 174.278C393.11 174.278 392.696 174.389 392.318 174.611C391.946 174.827 391.649 175.121 391.427 175.493C391.205 175.865 391.094 176.279 391.094 176.735V182H389.582V168.5H391.094V174.125C391.412 173.705 391.814 173.372 392.3 173.126C392.786 172.874 393.314 172.748 393.884 172.748C394.556 172.748 395.168 172.913 395.72 173.243C396.278 173.567 396.719 174.005 397.043 174.557C397.373 175.109 397.538 175.724 397.538 176.402ZM406.398 173H407.91V182H406.398L406.335 180.479C406.053 181.001 405.663 181.424 405.165 181.748C404.673 182.072 404.085 182.234 403.401 182.234C402.741 182.234 402.123 182.111 401.547 181.865C400.971 181.613 400.461 181.268 400.017 180.83C399.579 180.386 399.237 179.876 398.991 179.3C398.745 178.724 398.622 178.103 398.622 177.437C398.622 176.795 398.742 176.189 398.982 175.619C399.222 175.049 399.555 174.551 399.981 174.125C400.413 173.693 400.911 173.357 401.475 173.117C402.039 172.871 402.645 172.748 403.293 172.748C404.001 172.748 404.622 172.916 405.156 173.252C405.69 173.582 406.122 174.011 406.452 174.539L406.398 173ZM403.374 180.767C403.968 180.767 404.481 180.623 404.913 180.335C405.351 180.041 405.687 179.645 405.921 179.147C406.161 178.649 406.281 178.1 406.281 177.5C406.281 176.888 406.161 176.336 405.921 175.844C405.681 175.346 405.342 174.953 404.904 174.665C404.472 174.371 403.962 174.224 403.374 174.224C402.78 174.224 402.24 174.371 401.754 174.665C401.268 174.959 400.881 175.355 400.593 175.853C400.311 176.345 400.17 176.894 400.17 177.5C400.17 178.106 400.317 178.658 400.611 179.156C400.905 179.648 401.295 180.041 401.781 180.335C402.267 180.623 402.798 180.767 403.374 180.767ZM414.371 174.512H412.328L412.319 182H410.807L410.816 174.512H409.268V173H410.816L410.807 170.174H412.319L412.328 173H414.371V174.512ZM426.474 173H428.076L423.153 186.5H421.551L423.18 182L419.949 173H421.605L423.936 179.921L426.474 173ZM433.198 182.234C432.37 182.234 431.614 182.021 430.93 181.595C430.252 181.169 429.709 180.599 429.301 179.885C428.899 179.165 428.698 178.37 428.698 177.5C428.698 176.84 428.815 176.225 429.049 175.655C429.283 175.079 429.604 174.575 430.012 174.143C430.426 173.705 430.906 173.363 431.452 173.117C431.998 172.871 432.58 172.748 433.198 172.748C434.026 172.748 434.779 172.961 435.457 173.387C436.141 173.813 436.684 174.386 437.086 175.106C437.494 175.826 437.698 176.624 437.698 177.5C437.698 178.154 437.581 178.766 437.347 179.336C437.113 179.906 436.789 180.41 436.375 180.848C435.967 181.28 435.49 181.619 434.944 181.865C434.404 182.111 433.822 182.234 433.198 182.234ZM433.198 180.722C433.762 180.722 434.269 180.575 434.719 180.281C435.175 179.981 435.532 179.588 435.79 179.102C436.054 178.61 436.186 178.076 436.186 177.5C436.186 176.912 436.051 176.372 435.781 175.88C435.517 175.388 435.16 174.995 434.71 174.701C434.26 174.407 433.756 174.26 433.198 174.26C432.634 174.26 432.127 174.41 431.677 174.71C431.227 175.004 430.87 175.397 430.606 175.889C430.342 176.381 430.21 176.918 430.21 177.5C430.21 178.1 430.345 178.646 430.615 179.138C430.885 179.624 431.248 180.011 431.704 180.299C432.16 180.581 432.658 180.722 433.198 180.722ZM438.704 178.58V173H440.216V178.247C440.216 178.703 440.327 179.117 440.549 179.489C440.771 179.861 441.068 180.158 441.44 180.38C441.818 180.596 442.232 180.704 442.682 180.704C443.138 180.704 443.549 180.596 443.915 180.38C444.287 180.158 444.584 179.861 444.806 179.489C445.028 179.117 445.139 178.703 445.139 178.247V173H446.651L446.66 182H445.148L445.139 180.857C444.821 181.277 444.419 181.613 443.933 181.865C443.447 182.111 442.922 182.234 442.358 182.234C441.686 182.234 441.071 182.072 440.513 181.748C439.961 181.418 439.52 180.977 439.19 180.425C438.866 179.873 438.704 179.258 438.704 178.58ZM448.469 182V173H449.981V174.125C450.299 173.705 450.701 173.372 451.187 173.126C451.673 172.874 452.201 172.748 452.771 172.748C453.119 172.748 453.455 172.793 453.779 172.883L453.167 174.395C452.921 174.317 452.681 174.278 452.447 174.278C451.997 174.278 451.583 174.389 451.205 174.611C450.833 174.827 450.536 175.121 450.314 175.493C450.092 175.865 449.981 176.279 449.981 176.735V182H448.469ZM55.742 201.512H53.699L53.69 209H52.178L52.187 201.512H50.639V200H52.187L52.178 197.174H53.69L53.699 200H55.742V201.512ZM61.0869 209.234C60.2589 209.234 59.5029 209.021 58.8189 208.595C58.1409 208.169 57.5979 207.599 57.1899 206.885C56.7879 206.165 56.5869 205.37 56.5869 204.5C56.5869 203.84 56.7039 203.225 56.9379 202.655C57.1719 202.079 57.4929 201.575 57.9009 201.143C58.3149 200.705 58.7949 200.363 59.3409 200.117C59.8869 199.871 60.4689 199.748 61.0869 199.748C61.7649 199.748 62.3859 199.886 62.9499 200.162C63.5199 200.432 64.0059 200.81 64.4079 201.296C64.8159 201.782 65.1189 202.346 65.3169 202.988C65.5209 203.63 65.5959 204.317 65.5419 205.049H58.1979C58.2699 205.559 58.4379 206.015 58.7019 206.417C58.9659 206.813 59.3019 207.128 59.7099 207.362C60.1239 207.596 60.5829 207.716 61.0869 207.722C61.6269 207.722 62.1159 207.584 62.5539 207.308C62.9919 207.026 63.3459 206.642 63.6159 206.156L65.1549 206.516C64.7949 207.314 64.2519 207.968 63.5259 208.478C62.7999 208.982 61.9869 209.234 61.0869 209.234ZM58.1529 203.861H64.0209C63.9729 203.357 63.8109 202.898 63.5349 202.484C63.2589 202.064 62.9079 201.728 62.4819 201.476C62.0559 201.224 61.5909 201.098 61.0869 201.098C60.5829 201.098 60.1209 201.221 59.7009 201.467C59.2809 201.713 58.9329 202.046 58.6569 202.466C58.3869 202.88 58.2189 203.345 58.1529 203.861ZM75.0145 203.402V209H73.5025V203.735C73.5025 203.279 73.3915 202.865 73.1695 202.493C72.9475 202.121 72.6505 201.827 72.2785 201.611C71.9065 201.389 71.4925 201.278 71.0365 201.278C70.5865 201.278 70.1725 201.389 69.7945 201.611C69.4225 201.827 69.1255 202.121 68.9035 202.493C68.6815 202.865 68.5705 203.279 68.5705 203.735V209H67.0585V200H68.5705V201.125C68.8885 200.705 69.2905 200.372 69.7765 200.126C70.2625 199.874 70.7905 199.748 71.3605 199.748C72.0325 199.748 72.6445 199.913 73.1965 200.243C73.7545 200.567 74.1955 201.005 74.5195 201.557C74.8495 202.109 75.0145 202.724 75.0145 203.402ZM83.8746 200H85.3866V209H83.8746L83.8116 207.479C83.5296 208.001 83.1396 208.424 82.6416 208.748C82.1496 209.072 81.5616 209.234 80.8776 209.234C80.2176 209.234 79.5996 209.111 79.0236 208.865C78.4476 208.613 77.9376 208.268 77.4936 207.83C77.0556 207.386 76.7136 206.876 76.4676 206.3C76.2216 205.724 76.0986 205.103 76.0986 204.437C76.0986 203.795 76.2186 203.189 76.4586 202.619C76.6986 202.049 77.0316 201.551 77.4576 201.125C77.8896 200.693 78.3876 200.357 78.9516 200.117C79.5156 199.871 80.1216 199.748 80.7696 199.748C81.4776 199.748 82.0986 199.916 82.6326 200.252C83.1666 200.582 83.5986 201.011 83.9286 201.539L83.8746 200ZM80.8506 207.767C81.4446 207.767 81.9576 207.623 82.3896 207.335C82.8276 207.041 83.1636 206.645 83.3976 206.147C83.6376 205.649 83.7576 205.1 83.7576 204.5C83.7576 203.888 83.6376 203.336 83.3976 202.844C83.1576 202.346 82.8186 201.953 82.3806 201.665C81.9486 201.371 81.4386 201.224 80.8506 201.224C80.2566 201.224 79.7166 201.371 79.2306 201.665C78.7446 201.959 78.3576 202.355 78.0696 202.853C77.7876 203.345 77.6466 203.894 77.6466 204.5C77.6466 205.106 77.7936 205.658 78.0876 206.156C78.3816 206.648 78.7716 207.041 79.2576 207.335C79.7436 207.623 80.2746 207.767 80.8506 207.767ZM95.1415 203.402V209H93.6295V203.735C93.6295 203.279 93.5185 202.865 93.2965 202.493C93.0745 202.121 92.7775 201.827 92.4055 201.611C92.0335 201.389 91.6195 201.278 91.1635 201.278C90.7135 201.278 90.2995 201.389 89.9215 201.611C89.5495 201.827 89.2525 202.121 89.0305 202.493C88.8085 202.865 88.6975 203.279 88.6975 203.735V209H87.1855V200H88.6975V201.125C89.0155 200.705 89.4175 200.372 89.9035 200.126C90.3895 199.874 90.9175 199.748 91.4875 199.748C92.1595 199.748 92.7715 199.913 93.3235 200.243C93.8815 200.567 94.3225 201.005 94.6465 201.557C94.9765 202.109 95.1415 202.724 95.1415 203.402ZM101.603 201.512H99.5603L99.5513 209H98.0393L98.0483 201.512H96.5003V200H98.0483L98.0393 197.174H99.5513L99.5603 200H101.603V201.512ZM105.874 209.171C105.388 209.153 104.914 209.063 104.452 208.901C103.996 208.733 103.594 208.508 103.246 208.226C102.904 207.938 102.655 207.608 102.499 207.236L103.795 206.678C103.885 206.882 104.047 207.074 104.281 207.254C104.515 207.434 104.785 207.578 105.091 207.686C105.397 207.794 105.706 207.848 106.018 207.848C106.348 207.848 106.657 207.797 106.945 207.695C107.233 207.593 107.467 207.443 107.647 207.245C107.833 207.041 107.926 206.798 107.926 206.516C107.926 206.216 107.824 205.982 107.62 205.814C107.422 205.64 107.17 205.505 106.864 205.409C106.564 205.307 106.258 205.211 105.946 205.121C105.328 204.965 104.776 204.779 104.29 204.563C103.804 204.341 103.42 204.062 103.138 203.726C102.862 203.384 102.724 202.949 102.724 202.421C102.724 201.863 102.877 201.38 103.183 200.972C103.495 200.564 103.903 200.249 104.407 200.027C104.911 199.805 105.451 199.694 106.027 199.694C106.753 199.694 107.416 199.85 108.016 200.162C108.616 200.474 109.063 200.897 109.357 201.431L108.142 202.142C108.04 201.926 107.884 201.737 107.674 201.575C107.464 201.407 107.224 201.275 106.954 201.179C106.684 201.083 106.408 201.032 106.126 201.026C105.778 201.014 105.451 201.059 105.145 201.161C104.845 201.263 104.602 201.419 104.416 201.629C104.236 201.833 104.146 202.088 104.146 202.394C104.146 202.694 104.242 202.922 104.434 203.078C104.632 203.234 104.887 203.36 105.199 203.456C105.517 203.546 105.862 203.651 106.234 203.771C106.78 203.945 107.29 204.146 107.764 204.374C108.238 204.602 108.619 204.887 108.907 205.229C109.201 205.571 109.345 205.994 109.339 206.498C109.339 207.05 109.174 207.533 108.844 207.947C108.514 208.355 108.085 208.667 107.557 208.883C107.035 209.099 106.474 209.195 105.874 209.171ZM123.161 203.402V209H121.649V203.735C121.649 203.279 121.538 202.865 121.316 202.493C121.094 202.121 120.797 201.827 120.425 201.611C120.053 201.389 119.639 201.278 119.183 201.278C118.733 201.278 118.319 201.389 117.941 201.611C117.569 201.827 117.272 202.121 117.05 202.493C116.828 202.865 116.717 203.279 116.717 203.735V209H115.205V195.5H116.717V201.125C117.035 200.705 117.437 200.372 117.923 200.126C118.409 199.874 118.937 199.748 119.507 199.748C120.179 199.748 120.791 199.913 121.343 200.243C121.901 200.567 122.342 201.005 122.666 201.557C122.996 202.109 123.161 202.724 123.161 203.402ZM132.021 200H133.533V209H132.021L131.958 207.479C131.676 208.001 131.286 208.424 130.788 208.748C130.296 209.072 129.708 209.234 129.024 209.234C128.364 209.234 127.746 209.111 127.17 208.865C126.594 208.613 126.084 208.268 125.64 207.83C125.202 207.386 124.86 206.876 124.614 206.3C124.368 205.724 124.245 205.103 124.245 204.437C124.245 203.795 124.365 203.189 124.605 202.619C124.845 202.049 125.178 201.551 125.604 201.125C126.036 200.693 126.534 200.357 127.098 200.117C127.662 199.871 128.268 199.748 128.916 199.748C129.624 199.748 130.245 199.916 130.779 200.252C131.313 200.582 131.745 201.011 132.075 201.539L132.021 200ZM128.997 207.767C129.591 207.767 130.104 207.623 130.536 207.335C130.974 207.041 131.31 206.645 131.544 206.147C131.784 205.649 131.904 205.1 131.904 204.5C131.904 203.888 131.784 203.336 131.544 202.844C131.304 202.346 130.965 201.953 130.527 201.665C130.095 201.371 129.585 201.224 128.997 201.224C128.403 201.224 127.863 201.371 127.377 201.665C126.891 201.959 126.504 202.355 126.216 202.853C125.934 203.345 125.793 203.894 125.793 204.5C125.793 205.106 125.94 205.658 126.234 206.156C126.528 206.648 126.918 207.041 127.404 207.335C127.89 207.623 128.421 207.767 128.997 207.767ZM139.766 209H137.831L134.546 199.982H136.157L138.794 207.245L141.431 199.982H143.042L139.766 209ZM148.099 209.234C147.271 209.234 146.515 209.021 145.831 208.595C145.153 208.169 144.61 207.599 144.202 206.885C143.8 206.165 143.599 205.37 143.599 204.5C143.599 203.84 143.716 203.225 143.95 202.655C144.184 202.079 144.505 201.575 144.913 201.143C145.327 200.705 145.807 200.363 146.353 200.117C146.899 199.871 147.481 199.748 148.099 199.748C148.777 199.748 149.398 199.886 149.962 200.162C150.532 200.432 151.018 200.81 151.42 201.296C151.828 201.782 152.131 202.346 152.329 202.988C152.533 203.63 152.608 204.317 152.554 205.049H145.21C145.282 205.559 145.45 206.015 145.714 206.417C145.978 206.813 146.314 207.128 146.722 207.362C147.136 207.596 147.595 207.716 148.099 207.722C148.639 207.722 149.128 207.584 149.566 207.308C150.004 207.026 150.358 206.642 150.628 206.156L152.167 206.516C151.807 207.314 151.264 207.968 150.538 208.478C149.812 208.982 148.999 209.234 148.099 209.234ZM145.165 203.861H151.033C150.985 203.357 150.823 202.898 150.547 202.484C150.271 202.064 149.92 201.728 149.494 201.476C149.068 201.224 148.603 201.098 148.099 201.098C147.595 201.098 147.133 201.221 146.713 201.467C146.293 201.713 145.945 202.046 145.669 202.466C145.399 202.88 145.231 203.345 145.165 203.861ZM165.754 200H167.266V209H165.754L165.691 207.479C165.409 208.001 165.019 208.424 164.521 208.748C164.029 209.072 163.441 209.234 162.757 209.234C162.097 209.234 161.479 209.111 160.903 208.865C160.327 208.613 159.817 208.268 159.373 207.83C158.935 207.386 158.593 206.876 158.347 206.3C158.101 205.724 157.978 205.103 157.978 204.437C157.978 203.795 158.098 203.189 158.338 202.619C158.578 202.049 158.911 201.551 159.337 201.125C159.769 200.693 160.267 200.357 160.831 200.117C161.395 199.871 162.001 199.748 162.649 199.748C163.357 199.748 163.978 199.916 164.512 200.252C165.046 200.582 165.478 201.011 165.808 201.539L165.754 200ZM162.729 207.767C163.324 207.767 163.837 207.623 164.269 207.335C164.707 207.041 165.043 206.645 165.277 206.147C165.517 205.649 165.637 205.1 165.637 204.5C165.637 203.888 165.517 203.336 165.277 202.844C165.037 202.346 164.698 201.953 164.26 201.665C163.828 201.371 163.318 201.224 162.729 201.224C162.136 201.224 161.596 201.371 161.11 201.665C160.624 201.959 160.237 202.355 159.949 202.853C159.667 203.345 159.526 203.894 159.526 204.5C159.526 205.106 159.673 205.658 159.967 206.156C160.261 206.648 160.651 207.041 161.137 207.335C161.623 207.623 162.154 207.767 162.729 207.767ZM176.134 209.171C175.648 209.153 175.174 209.063 174.712 208.901C174.256 208.733 173.854 208.508 173.506 208.226C173.164 207.938 172.915 207.608 172.759 207.236L174.055 206.678C174.145 206.882 174.307 207.074 174.541 207.254C174.775 207.434 175.045 207.578 175.351 207.686C175.657 207.794 175.966 207.848 176.278 207.848C176.608 207.848 176.917 207.797 177.205 207.695C177.493 207.593 177.727 207.443 177.907 207.245C178.093 207.041 178.186 206.798 178.186 206.516C178.186 206.216 178.084 205.982 177.88 205.814C177.682 205.64 177.43 205.505 177.124 205.409C176.824 205.307 176.518 205.211 176.206 205.121C175.588 204.965 175.036 204.779 174.55 204.563C174.064 204.341 173.68 204.062 173.398 203.726C173.122 203.384 172.984 202.949 172.984 202.421C172.984 201.863 173.137 201.38 173.443 200.972C173.755 200.564 174.163 200.249 174.667 200.027C175.171 199.805 175.711 199.694 176.287 199.694C177.013 199.694 177.676 199.85 178.276 200.162C178.876 200.474 179.323 200.897 179.617 201.431L178.402 202.142C178.3 201.926 178.144 201.737 177.934 201.575C177.724 201.407 177.484 201.275 177.214 201.179C176.944 201.083 176.668 201.032 176.386 201.026C176.038 201.014 175.711 201.059 175.405 201.161C175.105 201.263 174.862 201.419 174.676 201.629C174.496 201.833 174.406 202.088 174.406 202.394C174.406 202.694 174.502 202.922 174.694 203.078C174.892 203.234 175.147 203.36 175.459 203.456C175.777 203.546 176.122 203.651 176.494 203.771C177.04 203.945 177.55 204.146 178.024 204.374C178.498 204.602 178.879 204.887 179.167 205.229C179.461 205.571 179.605 205.994 179.599 206.498C179.599 207.05 179.434 207.533 179.104 207.947C178.774 208.355 178.345 208.667 177.817 208.883C177.295 209.099 176.734 209.195 176.134 209.171ZM181.141 209V200H182.653V201.125C182.971 200.705 183.37 200.372 183.85 200.126C184.336 199.874 184.864 199.748 185.434 199.748C186.1 199.748 186.709 199.91 187.261 200.234C187.813 200.558 188.248 200.987 188.566 201.521C188.884 200.987 189.316 200.558 189.862 200.234C190.414 199.91 191.02 199.748 191.68 199.748C192.358 199.748 192.973 199.913 193.525 200.243C194.077 200.567 194.515 201.005 194.839 201.557C195.169 202.109 195.334 202.724 195.334 203.402V209H193.822V203.762C193.822 203.318 193.714 202.907 193.498 202.529C193.282 202.151 192.991 201.848 192.625 201.62C192.259 201.392 191.854 201.278 191.41 201.278C190.966 201.278 190.561 201.386 190.195 201.602C189.829 201.812 189.538 202.106 189.322 202.484C189.106 202.856 188.998 203.282 188.998 203.762V209H187.486V203.762C187.486 203.282 187.378 202.856 187.162 202.484C186.946 202.106 186.652 201.812 186.28 201.602C185.914 201.386 185.509 201.278 185.065 201.278C184.627 201.278 184.222 201.392 183.85 201.62C183.484 201.848 183.193 202.151 182.977 202.529C182.761 202.907 182.653 203.318 182.653 203.762V209H181.141ZM200.921 209.234C200.093 209.234 199.337 209.021 198.653 208.595C197.975 208.169 197.432 207.599 197.024 206.885C196.622 206.165 196.421 205.37 196.421 204.5C196.421 203.84 196.538 203.225 196.772 202.655C197.006 202.079 197.327 201.575 197.735 201.143C198.149 200.705 198.629 200.363 199.175 200.117C199.721 199.871 200.303 199.748 200.921 199.748C201.749 199.748 202.502 199.961 203.18 200.387C203.864 200.813 204.407 201.386 204.809 202.106C205.217 202.826 205.421 203.624 205.421 204.5C205.421 205.154 205.304 205.766 205.07 206.336C204.836 206.906 204.512 207.41 204.098 207.848C203.69 208.28 203.213 208.619 202.667 208.865C202.127 209.111 201.545 209.234 200.921 209.234ZM200.921 207.722C201.485 207.722 201.992 207.575 202.442 207.281C202.898 206.981 203.255 206.588 203.513 206.102C203.777 205.61 203.909 205.076 203.909 204.5C203.909 203.912 203.774 203.372 203.504 202.88C203.24 202.388 202.883 201.995 202.433 201.701C201.983 201.407 201.479 201.26 200.921 201.26C200.357 201.26 199.85 201.41 199.4 201.71C198.95 202.004 198.593 202.397 198.329 202.889C198.065 203.381 197.933 203.918 197.933 204.5C197.933 205.1 198.068 205.646 198.338 206.138C198.608 206.624 198.971 207.011 199.427 207.299C199.883 207.581 200.381 207.722 200.921 207.722ZM210.817 209.234C209.989 209.234 209.233 209.021 208.549 208.595C207.871 208.169 207.328 207.599 206.92 206.885C206.518 206.165 206.317 205.37 206.317 204.5C206.317 203.84 206.434 203.225 206.668 202.655C206.902 202.079 207.223 201.575 207.631 201.143C208.045 200.705 208.525 200.363 209.071 200.117C209.617 199.871 210.199 199.748 210.817 199.748C211.645 199.748 212.398 199.961 213.076 200.387C213.76 200.813 214.303 201.386 214.705 202.106C215.113 202.826 215.317 203.624 215.317 204.5C215.317 205.154 215.2 205.766 214.966 206.336C214.732 206.906 214.408 207.41 213.994 207.848C213.586 208.28 213.109 208.619 212.563 208.865C212.023 209.111 211.441 209.234 210.817 209.234ZM210.817 207.722C211.381 207.722 211.888 207.575 212.338 207.281C212.794 206.981 213.151 206.588 213.409 206.102C213.673 205.61 213.805 205.076 213.805 204.5C213.805 203.912 213.67 203.372 213.4 202.88C213.136 202.388 212.779 201.995 212.329 201.701C211.879 201.407 211.375 201.26 210.817 201.26C210.253 201.26 209.746 201.41 209.296 201.71C208.846 202.004 208.489 202.397 208.225 202.889C207.961 203.381 207.829 203.918 207.829 204.5C207.829 205.1 207.964 205.646 208.234 206.138C208.504 206.624 208.867 207.011 209.323 207.299C209.779 207.581 210.277 207.722 210.817 207.722ZM221.363 201.512H219.32L219.311 209H217.799L217.808 201.512H216.26V200H217.808L217.799 197.174H219.311L219.32 200H221.363V201.512ZM230.932 203.402V209H229.42V203.735C229.42 203.279 229.309 202.865 229.087 202.493C228.865 202.121 228.568 201.827 228.196 201.611C227.824 201.389 227.41 201.278 226.954 201.278C226.504 201.278 226.09 201.389 225.712 201.611C225.34 201.827 225.043 202.121 224.821 202.493C224.599 202.865 224.488 203.279 224.488 203.735V209H222.976V195.5H224.488V201.125C224.806 200.705 225.208 200.372 225.694 200.126C226.18 199.874 226.708 199.748 227.278 199.748C227.95 199.748 228.562 199.913 229.114 200.243C229.672 200.567 230.113 201.005 230.437 201.557C230.767 202.109 230.932 202.724 230.932 203.402ZM244.293 200H245.805V209H244.293L244.23 207.479C243.948 208.001 243.558 208.424 243.06 208.748C242.568 209.072 241.98 209.234 241.296 209.234C240.636 209.234 240.018 209.111 239.442 208.865C238.866 208.613 238.356 208.268 237.912 207.83C237.474 207.386 237.132 206.876 236.886 206.3C236.64 205.724 236.517 205.103 236.517 204.437C236.517 203.795 236.637 203.189 236.877 202.619C237.117 202.049 237.45 201.551 237.876 201.125C238.308 200.693 238.806 200.357 239.37 200.117C239.934 199.871 240.54 199.748 241.188 199.748C241.896 199.748 242.517 199.916 243.051 200.252C243.585 200.582 244.017 201.011 244.347 201.539L244.293 200ZM241.269 207.767C241.863 207.767 242.376 207.623 242.808 207.335C243.246 207.041 243.582 206.645 243.816 206.147C244.056 205.649 244.176 205.1 244.176 204.5C244.176 203.888 244.056 203.336 243.816 202.844C243.576 202.346 243.237 201.953 242.799 201.665C242.367 201.371 241.857 201.224 241.269 201.224C240.675 201.224 240.135 201.371 239.649 201.665C239.163 201.959 238.776 202.355 238.488 202.853C238.206 203.345 238.065 203.894 238.065 204.5C238.065 205.106 238.212 205.658 238.506 206.156C238.8 206.648 239.19 207.041 239.676 207.335C240.162 207.623 240.693 207.767 241.269 207.767ZM255.559 203.402V209H254.047V203.735C254.047 203.279 253.936 202.865 253.714 202.493C253.492 202.121 253.195 201.827 252.823 201.611C252.451 201.389 252.037 201.278 251.581 201.278C251.131 201.278 250.717 201.389 250.339 201.611C249.967 201.827 249.67 202.121 249.448 202.493C249.226 202.865 249.115 203.279 249.115 203.735V209H247.603V200H249.115V201.125C249.433 200.705 249.835 200.372 250.321 200.126C250.807 199.874 251.335 199.748 251.905 199.748C252.577 199.748 253.189 199.913 253.741 200.243C254.299 200.567 254.74 201.005 255.064 201.557C255.394 202.109 255.559 202.724 255.559 203.402ZM264.429 195.5H265.941V209H264.429V207.47C264.123 207.998 263.712 208.424 263.196 208.748C262.68 209.072 262.074 209.234 261.378 209.234C260.724 209.234 260.112 209.111 259.542 208.865C258.972 208.619 258.468 208.28 258.03 207.848C257.598 207.41 257.259 206.906 257.013 206.336C256.767 205.766 256.644 205.154 256.644 204.5C256.644 203.846 256.767 203.234 257.013 202.664C257.259 202.088 257.598 201.584 258.03 201.152C258.468 200.714 258.972 200.372 259.542 200.126C260.112 199.88 260.724 199.757 261.378 199.757C262.074 199.757 262.68 199.919 263.196 200.243C263.712 200.567 264.123 200.993 264.429 201.521V195.5ZM261.396 207.767C261.99 207.767 262.503 207.623 262.935 207.335C263.373 207.041 263.709 206.645 263.943 206.147C264.183 205.649 264.303 205.1 264.303 204.5C264.303 203.888 264.183 203.336 263.943 202.844C263.703 202.346 263.364 201.953 262.926 201.665C262.494 201.371 261.984 201.224 261.396 201.224C260.802 201.224 260.262 201.371 259.776 201.665C259.296 201.959 258.912 202.355 258.624 202.853C258.336 203.345 258.192 203.894 258.192 204.5C258.192 205.106 258.339 205.658 258.633 206.156C258.927 206.648 259.317 207.041 259.803 207.335C260.289 207.623 260.82 207.767 261.396 207.767ZM272.424 209V200H273.936V201.125C274.254 200.705 274.656 200.372 275.142 200.126C275.628 199.874 276.156 199.748 276.726 199.748C277.074 199.748 277.41 199.793 277.734 199.883L277.122 201.395C276.876 201.317 276.636 201.278 276.402 201.278C275.952 201.278 275.538 201.389 275.16 201.611C274.788 201.827 274.491 202.121 274.269 202.493C274.047 202.865 273.936 203.279 273.936 203.735V209H272.424ZM282.343 209.234C281.515 209.234 280.759 209.021 280.075 208.595C279.397 208.169 278.854 207.599 278.446 206.885C278.044 206.165 277.843 205.37 277.843 204.5C277.843 203.84 277.96 203.225 278.194 202.655C278.428 202.079 278.749 201.575 279.157 201.143C279.571 200.705 280.051 200.363 280.597 200.117C281.143 199.871 281.725 199.748 282.343 199.748C283.021 199.748 283.642 199.886 284.206 200.162C284.776 200.432 285.262 200.81 285.664 201.296C286.072 201.782 286.375 202.346 286.573 202.988C286.777 203.63 286.852 204.317 286.798 205.049H279.454C279.526 205.559 279.694 206.015 279.958 206.417C280.222 206.813 280.558 207.128 280.966 207.362C281.38 207.596 281.839 207.716 282.343 207.722C282.883 207.722 283.372 207.584 283.81 207.308C284.248 207.026 284.602 206.642 284.872 206.156L286.411 206.516C286.051 207.314 285.508 207.968 284.782 208.478C284.056 208.982 283.243 209.234 282.343 209.234ZM279.409 203.861H285.277C285.229 203.357 285.067 202.898 284.791 202.484C284.515 202.064 284.164 201.728 283.738 201.476C283.312 201.224 282.847 201.098 282.343 201.098C281.839 201.098 281.377 201.221 280.957 201.467C280.537 201.713 280.189 202.046 279.913 202.466C279.643 202.88 279.475 203.345 279.409 203.861ZM295.507 195.5H297.019V209H295.507V207.47C295.201 207.998 294.79 208.424 294.274 208.748C293.758 209.072 293.152 209.234 292.456 209.234C291.802 209.234 291.19 209.111 290.62 208.865C290.05 208.619 289.546 208.28 289.108 207.848C288.676 207.41 288.337 206.906 288.091 206.336C287.845 205.766 287.722 205.154 287.722 204.5C287.722 203.846 287.845 203.234 288.091 202.664C288.337 202.088 288.676 201.584 289.108 201.152C289.546 200.714 290.05 200.372 290.62 200.126C291.19 199.88 291.802 199.757 292.456 199.757C293.152 199.757 293.758 199.919 294.274 200.243C294.79 200.567 295.201 200.993 295.507 201.521V195.5ZM292.474 207.767C293.068 207.767 293.581 207.623 294.013 207.335C294.451 207.041 294.787 206.645 295.021 206.147C295.261 205.649 295.381 205.1 295.381 204.5C295.381 203.888 295.261 203.336 295.021 202.844C294.781 202.346 294.442 201.953 294.004 201.665C293.572 201.371 293.062 201.224 292.474 201.224C291.88 201.224 291.34 201.371 290.854 201.665C290.374 201.959 289.99 202.355 289.702 202.853C289.414 203.345 289.27 203.894 289.27 204.5C289.27 205.106 289.417 205.658 289.711 206.156C290.005 206.648 290.395 207.041 290.881 207.335C291.367 207.623 291.898 207.767 292.474 207.767ZM298.818 205.58V200H300.33V205.247C300.33 205.703 300.441 206.117 300.663 206.489C300.885 206.861 301.182 207.158 301.554 207.38C301.932 207.596 302.346 207.704 302.796 207.704C303.252 207.704 303.663 207.596 304.029 207.38C304.401 207.158 304.698 206.861 304.92 206.489C305.142 206.117 305.253 205.703 305.253 205.247V200H306.765L306.774 209H305.262L305.253 207.857C304.935 208.277 304.533 208.613 304.047 208.865C303.561 209.111 303.036 209.234 302.472 209.234C301.8 209.234 301.185 209.072 300.627 208.748C300.075 208.418 299.634 207.977 299.304 207.425C298.98 206.873 298.818 206.258 298.818 205.58ZM314.695 206.624L316.045 207.353C315.637 207.923 315.118 208.379 314.488 208.721C313.864 209.063 313.186 209.234 312.454 209.234C311.626 209.234 310.87 209.021 310.186 208.595C309.508 208.169 308.965 207.599 308.557 206.885C308.155 206.165 307.954 205.37 307.954 204.5C307.954 203.84 308.071 203.225 308.305 202.655C308.539 202.079 308.86 201.575 309.268 201.143C309.682 200.705 310.162 200.363 310.708 200.117C311.254 199.871 311.836 199.748 312.454 199.748C313.186 199.748 313.864 199.919 314.488 200.261C315.118 200.603 315.637 201.062 316.045 201.638L314.695 202.367C314.407 202.013 314.065 201.74 313.669 201.548C313.273 201.356 312.868 201.26 312.454 201.26C311.896 201.26 311.389 201.41 310.933 201.71C310.483 202.004 310.126 202.397 309.862 202.889C309.598 203.381 309.466 203.918 309.466 204.5C309.466 205.082 309.598 205.619 309.862 206.111C310.132 206.597 310.492 206.987 310.942 207.281C311.398 207.575 311.902 207.722 312.454 207.722C312.898 207.722 313.315 207.62 313.705 207.416C314.095 207.212 314.425 206.948 314.695 206.624ZM317.459 200H318.971V209H317.459V200ZM318.233 198.533C317.993 198.533 317.792 198.455 317.63 198.299C317.468 198.143 317.387 197.948 317.387 197.714C317.387 197.48 317.468 197.285 317.63 197.129C317.792 196.973 317.99 196.895 318.224 196.895C318.458 196.895 318.656 196.973 318.818 197.129C318.98 197.285 319.061 197.48 319.061 197.714C319.061 197.948 318.98 198.143 318.818 198.299C318.662 198.455 318.467 198.533 318.233 198.533ZM329.054 203.402V209H327.542V203.735C327.542 203.279 327.431 202.865 327.209 202.493C326.987 202.121 326.69 201.827 326.318 201.611C325.946 201.389 325.532 201.278 325.076 201.278C324.626 201.278 324.212 201.389 323.834 201.611C323.462 201.827 323.165 202.121 322.943 202.493C322.721 202.865 322.61 203.279 322.61 203.735V209H321.098V200H322.61V201.125C322.928 200.705 323.33 200.372 323.816 200.126C324.302 199.874 324.83 199.748 325.4 199.748C326.072 199.748 326.684 199.913 327.236 200.243C327.794 200.567 328.235 201.005 328.559 201.557C328.889 202.109 329.054 202.724 329.054 203.402ZM337.707 200H339.219V209.288C339.219 209.882 339.09 210.434 338.832 210.944C338.58 211.46 338.238 211.907 337.806 212.285C337.374 212.669 336.882 212.966 336.33 213.176C335.778 213.392 335.202 213.5 334.602 213.5C333.978 213.5 333.375 213.359 332.793 213.077C332.211 212.801 331.701 212.429 331.263 211.961C330.831 211.499 330.519 210.98 330.327 210.404L331.713 209.774C331.827 210.188 332.031 210.56 332.325 210.89C332.625 211.226 332.973 211.49 333.369 211.682C333.771 211.88 334.182 211.979 334.602 211.979C334.998 211.979 335.379 211.91 335.745 211.772C336.117 211.634 336.45 211.442 336.744 211.196C337.044 210.956 337.278 210.671 337.446 210.341C337.62 210.017 337.707 209.666 337.707 209.288V207.497C337.401 208.013 336.996 208.433 336.492 208.757C335.994 209.075 335.412 209.234 334.746 209.234C334.11 209.234 333.513 209.111 332.955 208.865C332.397 208.619 331.908 208.28 331.488 207.848C331.068 207.41 330.738 206.906 330.498 206.336C330.258 205.766 330.138 205.154 330.138 204.5C330.138 203.846 330.258 203.234 330.498 202.664C330.738 202.088 331.068 201.584 331.488 201.152C331.908 200.714 332.397 200.372 332.955 200.126C333.513 199.88 334.11 199.757 334.746 199.757C335.412 199.757 335.994 199.916 336.492 200.234C336.996 200.552 337.401 200.972 337.707 201.494V200ZM334.755 207.767C335.337 207.767 335.841 207.617 336.267 207.317C336.699 207.017 337.032 206.618 337.266 206.12C337.5 205.622 337.617 205.082 337.617 204.5C337.617 203.9 337.497 203.354 337.257 202.862C337.023 202.364 336.69 201.968 336.258 201.674C335.832 201.374 335.331 201.224 334.755 201.224C334.191 201.224 333.675 201.371 333.207 201.665C332.739 201.959 332.367 202.355 332.091 202.853C331.821 203.345 331.686 203.894 331.686 204.5C331.686 205.106 331.824 205.658 332.1 206.156C332.382 206.648 332.754 207.041 333.216 207.335C333.684 207.623 334.197 207.767 334.755 207.767ZM350.387 209H348.452L345.167 199.982H346.778L349.415 207.245L352.052 199.982H353.663L350.387 209ZM361.996 200H363.508V209H361.996L361.933 207.479C361.651 208.001 361.261 208.424 360.763 208.748C360.271 209.072 359.683 209.234 358.999 209.234C358.339 209.234 357.721 209.111 357.145 208.865C356.569 208.613 356.059 208.268 355.615 207.83C355.177 207.386 354.835 206.876 354.589 206.3C354.343 205.724 354.22 205.103 354.22 204.437C354.22 203.795 354.34 203.189 354.58 202.619C354.82 202.049 355.153 201.551 355.579 201.125C356.011 200.693 356.509 200.357 357.073 200.117C357.637 199.871 358.243 199.748 358.891 199.748C359.599 199.748 360.22 199.916 360.754 200.252C361.288 200.582 361.72 201.011 362.05 201.539L361.996 200ZM358.972 207.767C359.566 207.767 360.079 207.623 360.511 207.335C360.949 207.041 361.285 206.645 361.519 206.147C361.759 205.649 361.879 205.1 361.879 204.5C361.879 203.888 361.759 203.336 361.519 202.844C361.279 202.346 360.94 201.953 360.502 201.665C360.07 201.371 359.56 201.224 358.972 201.224C358.378 201.224 357.838 201.371 357.352 201.665C356.866 201.959 356.479 202.355 356.191 202.853C355.909 203.345 355.768 203.894 355.768 204.5C355.768 205.106 355.915 205.658 356.209 206.156C356.503 206.648 356.893 207.041 357.379 207.335C357.865 207.623 358.396 207.767 358.972 207.767ZM371.332 206.624L372.682 207.353C372.274 207.923 371.755 208.379 371.125 208.721C370.501 209.063 369.823 209.234 369.091 209.234C368.263 209.234 367.507 209.021 366.823 208.595C366.145 208.169 365.602 207.599 365.194 206.885C364.792 206.165 364.591 205.37 364.591 204.5C364.591 203.84 364.708 203.225 364.942 202.655C365.176 202.079 365.497 201.575 365.905 201.143C366.319 200.705 366.799 200.363 367.345 200.117C367.891 199.871 368.473 199.748 369.091 199.748C369.823 199.748 370.501 199.919 371.125 200.261C371.755 200.603 372.274 201.062 372.682 201.638L371.332 202.367C371.044 202.013 370.702 201.74 370.306 201.548C369.91 201.356 369.505 201.26 369.091 201.26C368.533 201.26 368.026 201.41 367.57 201.71C367.12 202.004 366.763 202.397 366.499 202.889C366.235 203.381 366.103 203.918 366.103 204.5C366.103 205.082 366.235 205.619 366.499 206.111C366.769 206.597 367.129 206.987 367.579 207.281C368.035 207.575 368.539 207.722 369.091 207.722C369.535 207.722 369.952 207.62 370.342 207.416C370.732 207.212 371.062 206.948 371.332 206.624ZM381.384 200H382.896V209H381.384L381.321 207.479C381.039 208.001 380.649 208.424 380.151 208.748C379.659 209.072 379.071 209.234 378.387 209.234C377.727 209.234 377.109 209.111 376.533 208.865C375.957 208.613 375.447 208.268 375.003 207.83C374.565 207.386 374.223 206.876 373.977 206.3C373.731 205.724 373.608 205.103 373.608 204.437C373.608 203.795 373.728 203.189 373.968 202.619C374.208 202.049 374.541 201.551 374.967 201.125C375.399 200.693 375.897 200.357 376.461 200.117C377.025 199.871 377.631 199.748 378.279 199.748C378.987 199.748 379.608 199.916 380.142 200.252C380.676 200.582 381.108 201.011 381.438 201.539L381.384 200ZM378.36 207.767C378.954 207.767 379.467 207.623 379.899 207.335C380.337 207.041 380.673 206.645 380.907 206.147C381.147 205.649 381.267 205.1 381.267 204.5C381.267 203.888 381.147 203.336 380.907 202.844C380.667 202.346 380.328 201.953 379.89 201.665C379.458 201.371 378.948 201.224 378.36 201.224C377.766 201.224 377.226 201.371 376.74 201.665C376.254 201.959 375.867 202.355 375.579 202.853C375.297 203.345 375.156 203.894 375.156 204.5C375.156 205.106 375.303 205.658 375.597 206.156C375.891 206.648 376.281 207.041 376.767 207.335C377.253 207.623 377.784 207.767 378.36 207.767ZM392.651 203.402V209H391.139V203.735C391.139 203.279 391.028 202.865 390.806 202.493C390.584 202.121 390.287 201.827 389.915 201.611C389.543 201.389 389.129 201.278 388.673 201.278C388.223 201.278 387.809 201.389 387.431 201.611C387.059 201.827 386.762 202.121 386.54 202.493C386.318 202.865 386.207 203.279 386.207 203.735V209H384.695V200H386.207V201.125C386.525 200.705 386.927 200.372 387.413 200.126C387.899 199.874 388.427 199.748 388.997 199.748C389.669 199.748 390.281 199.913 390.833 200.243C391.391 200.567 391.832 201.005 392.156 201.557C392.486 202.109 392.651 202.724 392.651 203.402ZM400.476 206.624L401.826 207.353C401.418 207.923 400.899 208.379 400.269 208.721C399.645 209.063 398.967 209.234 398.235 209.234C397.407 209.234 396.651 209.021 395.967 208.595C395.289 208.169 394.746 207.599 394.338 206.885C393.936 206.165 393.735 205.37 393.735 204.5C393.735 203.84 393.852 203.225 394.086 202.655C394.32 202.079 394.641 201.575 395.049 201.143C395.463 200.705 395.943 200.363 396.489 200.117C397.035 199.871 397.617 199.748 398.235 199.748C398.967 199.748 399.645 199.919 400.269 200.261C400.899 200.603 401.418 201.062 401.826 201.638L400.476 202.367C400.188 202.013 399.846 201.74 399.45 201.548C399.054 201.356 398.649 201.26 398.235 201.26C397.677 201.26 397.17 201.41 396.714 201.71C396.264 202.004 395.907 202.397 395.643 202.889C395.379 203.381 395.247 203.918 395.247 204.5C395.247 205.082 395.379 205.619 395.643 206.111C395.913 206.597 396.273 206.987 396.723 207.281C397.179 207.575 397.683 207.722 398.235 207.722C398.679 207.722 399.096 207.62 399.486 207.416C399.876 207.212 400.206 206.948 400.476 206.624ZM403.24 200H404.752V209H403.24V200ZM404.014 198.533C403.774 198.533 403.573 198.455 403.411 198.299C403.249 198.143 403.168 197.948 403.168 197.714C403.168 197.48 403.249 197.285 403.411 197.129C403.573 196.973 403.771 196.895 404.005 196.895C404.239 196.895 404.437 196.973 404.599 197.129C404.761 197.285 404.842 197.48 404.842 197.714C404.842 197.948 404.761 198.143 404.599 198.299C404.443 198.455 404.248 198.533 404.014 198.533ZM410.751 209.234C409.923 209.234 409.167 209.021 408.483 208.595C407.805 208.169 407.262 207.599 406.854 206.885C406.452 206.165 406.251 205.37 406.251 204.5C406.251 203.84 406.368 203.225 406.602 202.655C406.836 202.079 407.157 201.575 407.565 201.143C407.979 200.705 408.459 200.363 409.005 200.117C409.551 199.871 410.133 199.748 410.751 199.748C411.429 199.748 412.05 199.886 412.614 200.162C413.184 200.432 413.67 200.81 414.072 201.296C414.48 201.782 414.783 202.346 414.981 202.988C415.185 203.63 415.26 204.317 415.206 205.049H407.862C407.934 205.559 408.102 206.015 408.366 206.417C408.63 206.813 408.966 207.128 409.374 207.362C409.788 207.596 410.247 207.716 410.751 207.722C411.291 207.722 411.78 207.584 412.218 207.308C412.656 207.026 413.01 206.642 413.28 206.156L414.819 206.516C414.459 207.314 413.916 207.968 413.19 208.478C412.464 208.982 411.651 209.234 410.751 209.234ZM407.817 203.861H413.685C413.637 203.357 413.475 202.898 413.199 202.484C412.923 202.064 412.572 201.728 412.146 201.476C411.72 201.224 411.255 201.098 410.751 201.098C410.247 201.098 409.785 201.221 409.365 201.467C408.945 201.713 408.597 202.046 408.321 202.466C408.051 202.88 407.883 203.345 407.817 203.861ZM419.503 209.171C419.017 209.153 418.543 209.063 418.081 208.901C417.625 208.733 417.223 208.508 416.875 208.226C416.533 207.938 416.284 207.608 416.128 207.236L417.424 206.678C417.514 206.882 417.676 207.074 417.91 207.254C418.144 207.434 418.414 207.578 418.72 207.686C419.026 207.794 419.335 207.848 419.647 207.848C419.977 207.848 420.286 207.797 420.574 207.695C420.862 207.593 421.096 207.443 421.276 207.245C421.462 207.041 421.555 206.798 421.555 206.516C421.555 206.216 421.453 205.982 421.249 205.814C421.051 205.64 420.799 205.505 420.493 205.409C420.193 205.307 419.887 205.211 419.575 205.121C418.957 204.965 418.405 204.779 417.919 204.563C417.433 204.341 417.049 204.062 416.767 203.726C416.491 203.384 416.353 202.949 416.353 202.421C416.353 201.863 416.506 201.38 416.812 200.972C417.124 200.564 417.532 200.249 418.036 200.027C418.54 199.805 419.08 199.694 419.656 199.694C420.382 199.694 421.045 199.85 421.645 200.162C422.245 200.474 422.692 200.897 422.986 201.431L421.771 202.142C421.669 201.926 421.513 201.737 421.303 201.575C421.093 201.407 420.853 201.275 420.583 201.179C420.313 201.083 420.037 201.032 419.755 201.026C419.407 201.014 419.08 201.059 418.774 201.161C418.474 201.263 418.231 201.419 418.045 201.629C417.865 201.833 417.775 202.088 417.775 202.394C417.775 202.694 417.871 202.922 418.063 203.078C418.261 203.234 418.516 203.36 418.828 203.456C419.146 203.546 419.491 203.651 419.863 203.771C420.409 203.945 420.919 204.146 421.393 204.374C421.867 204.602 422.248 204.887 422.536 205.229C422.83 205.571 422.974 205.994 422.968 206.498C422.968 207.05 422.803 207.533 422.473 207.947C422.143 208.355 421.714 208.667 421.186 208.883C420.664 209.099 420.103 209.195 419.503 209.171ZM424.934 209.234C424.706 209.234 424.511 209.153 424.349 208.991C424.193 208.829 424.115 208.631 424.115 208.397C424.115 208.175 424.193 207.983 424.349 207.821C424.511 207.659 424.706 207.578 424.934 207.578C425.168 207.578 425.366 207.659 425.528 207.821C425.69 207.983 425.771 208.175 425.771 208.397C425.771 208.631 425.69 208.829 425.528 208.991C425.366 209.153 425.168 209.234 424.934 209.234Z" fill="#999999"></path><defs><linearGradient id="paint0_linear_104_11599" x1="56.75" y1="136.5" x2="135.75" y2="44.5" gradientUnits="userSpaceOnUse"><stop stop-color="#A685FA"></stop><stop offset="0.323723" stop-color="#A685FA" stop-opacity="0"></stop></linearGradient><linearGradient id="paint1_linear_104_11599" x1="131.75" y1="39.5" x2="56.75" y2="132" gradientUnits="userSpaceOnUse"><stop stop-color="#A685FA"></stop><stop offset="0.576615" stop-color="#A685FA" stop-opacity="0"></stop></linearGradient><linearGradient id="paint2_linear_104_11599" x1="53.25" y1="63.5" x2="121.75" y2="122" gradientUnits="userSpaceOnUse"><stop stop-color="#A685FA"></stop><stop offset="0.323723" stop-color="#A685FA" stop-opacity="0"></stop></linearGradient><linearGradient id="paint3_linear_104_11599" x1="134.25" y1="136" x2="62.25" y2="85" gradientUnits="userSpaceOnUse"><stop stop-color="#A685FA"></stop><stop offset="0.576615" stop-color="#A685FA" stop-opacity="0"></stop></linearGradient></defs></svg>