<svg xmlns="http://www.w3.org/2000/svg" width="494" height="294" viewBox="0 0 494 294" fill="none"><rect x="0.5" y="1" width="492.5" height="292" rx="11.5" fill="#141414"></rect><rect x="0.5" y="1" width="492.5" height="292" rx="11.5" stroke="#262626"></rect><rect x="50.5" y="51" width="81" height="81" rx="40.5" stroke="url(#paint0_linear_104_11826)"></rect><rect x="50.5" y="51" width="81" height="81" rx="40.5" stroke="url(#paint1_linear_104_11826)"></rect><rect x="60.5" y="61" width="61" height="61" rx="30.5" stroke="url(#paint2_linear_104_11826)"></rect><rect x="60.5" y="61" width="61" height="61" rx="30.5" stroke="url(#paint3_linear_104_11826)"></rect><path d="M100.031 77.6875C98.5642 77.6875 97.375 78.8767 97.375 80.3438V102.656C97.375 104.123 98.5642 105.312 100.031 105.312H101.094C102.561 105.312 103.75 104.123 103.75 102.656V80.3438C103.75 78.8767 102.561 77.6875 101.094 77.6875H100.031Z" fill="#A685FA"></path><path d="M87.8125 86.7188C87.8125 85.2517 89.0017 84.0625 90.4688 84.0625H91.5312C92.9983 84.0625 94.1875 85.2517 94.1875 86.7188V102.656C94.1875 104.123 92.9983 105.312 91.5312 105.312H90.4688C89.0017 105.312 87.8125 104.123 87.8125 102.656V86.7188Z" fill="#A685FA"></path><path d="M78.25 93.0938C78.25 91.6267 79.4392 90.4375 80.9062 90.4375H81.9688C83.4358 90.4375 84.625 91.6267 84.625 93.0938V102.656C84.625 104.123 83.4358 105.312 81.9688 105.312H80.9062C79.4392 105.312 78.25 104.123 78.25 102.656V93.0938Z" fill="#A685FA"></path><path d="M153.44 99.5L156.692 82.7H158.708L163.016 94.016L167.3 82.7H169.316L172.58 99.5H170.036L167.864 88.256L163.844 98.864H162.164L158.156 88.256L155.984 99.5H153.44ZM183.635 87.5H186.131V99.5H183.623L183.527 97.76C183.175 98.376 182.699 98.872 182.099 99.248C181.499 99.624 180.791 99.812 179.975 99.812C179.095 99.812 178.267 99.648 177.491 99.32C176.715 98.984 176.031 98.52 175.439 97.928C174.855 97.336 174.399 96.656 174.071 95.888C173.743 95.112 173.579 94.28 173.579 93.392C173.579 92.536 173.739 91.732 174.059 90.98C174.379 90.22 174.823 89.556 175.391 88.988C175.959 88.42 176.615 87.976 177.359 87.656C178.111 87.328 178.915 87.164 179.771 87.164C180.643 87.164 181.411 87.364 182.075 87.764C182.747 88.156 183.303 88.66 183.743 89.276L183.635 87.5ZM179.915 97.4C180.619 97.4 181.235 97.228 181.763 96.884C182.291 96.532 182.699 96.06 182.987 95.468C183.283 94.876 183.431 94.22 183.431 93.5C183.431 92.772 183.283 92.112 182.987 91.52C182.691 90.928 182.279 90.46 181.751 90.116C181.231 89.764 180.619 89.588 179.915 89.588C179.219 89.588 178.583 89.764 178.007 90.116C177.431 90.468 176.975 90.94 176.639 91.532C176.303 92.124 176.135 92.78 176.135 93.5C176.135 94.228 176.307 94.888 176.651 95.48C177.003 96.064 177.463 96.532 178.031 96.884C178.607 97.228 179.235 97.4 179.915 97.4ZM188.526 99.5V87.5H191.022V88.772C191.438 88.276 191.95 87.884 192.558 87.596C193.166 87.308 193.822 87.164 194.526 87.164C194.974 87.164 195.418 87.224 195.858 87.344L194.862 89.864C194.55 89.744 194.238 89.684 193.926 89.684C193.398 89.684 192.914 89.816 192.474 90.08C192.034 90.336 191.682 90.684 191.418 91.124C191.154 91.564 191.022 92.052 191.022 92.588V99.5H188.526ZM207.505 99.5H204.625L201.673 94.412L199.741 96.716V99.5H197.245V81.5H199.741V92.84L204.205 87.5H207.469L203.377 92.384L207.505 99.5ZM214.009 99.812C212.905 99.812 211.897 99.528 210.985 98.96C210.081 98.392 209.357 97.632 208.813 96.68C208.277 95.72 208.009 94.66 208.009 93.5C208.009 92.62 208.165 91.8 208.477 91.04C208.789 90.272 209.217 89.6 209.761 89.024C210.313 88.44 210.953 87.984 211.681 87.656C212.409 87.328 213.185 87.164 214.009 87.164C214.929 87.164 215.773 87.356 216.541 87.74C217.309 88.116 217.965 88.64 218.509 89.312C219.053 89.976 219.453 90.744 219.709 91.616C219.965 92.48 220.041 93.4 219.937 94.376H210.685C210.789 94.928 210.989 95.428 211.285 95.876C211.589 96.316 211.973 96.664 212.437 96.92C212.909 97.176 213.433 97.308 214.009 97.316C214.617 97.316 215.169 97.164 215.665 96.86C216.169 96.556 216.581 96.136 216.901 95.6L219.433 96.188C218.953 97.252 218.229 98.124 217.261 98.804C216.293 99.476 215.209 99.812 214.009 99.812ZM210.601 92.468H217.417C217.337 91.892 217.133 91.372 216.805 90.908C216.485 90.436 216.081 90.064 215.593 89.792C215.113 89.512 214.585 89.372 214.009 89.372C213.441 89.372 212.913 89.508 212.425 89.78C211.945 90.052 211.545 90.424 211.225 90.896C210.913 91.36 210.705 91.884 210.601 92.468ZM228.19 89.996H225.67L225.658 99.5H223.162L223.174 89.996H221.266V87.5H223.174L223.162 83.732H225.658L225.67 87.5H228.19V89.996ZM236.464 99.5V82.7H238.96V99.5H236.464ZM252.998 91.976V99.5H250.502V92.588C250.502 92.052 250.37 91.564 250.106 91.124C249.85 90.684 249.502 90.336 249.062 90.08C248.63 89.816 248.142 89.684 247.598 89.684C247.07 89.684 246.586 89.816 246.146 90.08C245.706 90.336 245.354 90.684 245.09 91.124C244.826 91.564 244.694 92.052 244.694 92.588V99.5H242.198V87.5H244.694V88.772C245.11 88.276 245.622 87.884 246.23 87.596C246.838 87.308 247.494 87.164 248.198 87.164C249.086 87.164 249.894 87.38 250.622 87.812C251.35 88.244 251.926 88.824 252.35 89.552C252.782 90.28 252.998 91.088 252.998 91.976ZM258.993 99.728C258.361 99.688 257.745 99.56 257.145 99.344C256.545 99.128 256.017 98.836 255.561 98.468C255.113 98.092 254.777 97.652 254.553 97.148L256.677 96.236C256.781 96.452 256.961 96.664 257.217 96.872C257.481 97.08 257.789 97.252 258.141 97.388C258.493 97.516 258.861 97.58 259.245 97.58C259.621 97.58 259.969 97.528 260.289 97.424C260.617 97.312 260.885 97.144 261.093 96.92C261.301 96.696 261.405 96.428 261.405 96.116C261.405 95.764 261.285 95.492 261.045 95.3C260.813 95.1 260.521 94.948 260.169 94.844C259.817 94.74 259.465 94.64 259.113 94.544C258.329 94.368 257.609 94.128 256.953 93.824C256.305 93.512 255.789 93.116 255.405 92.636C255.021 92.148 254.829 91.552 254.829 90.848C254.829 90.08 255.037 89.416 255.453 88.856C255.869 88.288 256.413 87.852 257.085 87.548C257.765 87.244 258.489 87.092 259.257 87.092C260.217 87.092 261.097 87.296 261.897 87.704C262.697 88.112 263.309 88.672 263.733 89.384L261.753 90.56C261.633 90.32 261.453 90.104 261.213 89.912C260.973 89.72 260.701 89.568 260.397 89.456C260.093 89.336 259.777 89.268 259.449 89.252C259.041 89.236 258.661 89.284 258.309 89.396C257.965 89.5 257.689 89.668 257.481 89.9C257.273 90.132 257.169 90.428 257.169 90.788C257.169 91.14 257.293 91.404 257.541 91.58C257.789 91.748 258.101 91.884 258.477 91.988C258.861 92.092 259.253 92.208 259.653 92.336C260.365 92.56 261.033 92.836 261.657 93.164C262.281 93.484 262.785 93.88 263.169 94.352C263.553 94.824 263.737 95.4 263.721 96.08C263.721 96.832 263.493 97.492 263.037 98.06C262.589 98.628 262.005 99.06 261.285 99.356C260.565 99.652 259.801 99.776 258.993 99.728ZM265.565 87.5H268.061V99.5H265.565V87.5ZM266.837 85.76C266.453 85.76 266.133 85.636 265.877 85.388C265.621 85.14 265.493 84.828 265.493 84.452C265.493 84.084 265.621 83.776 265.877 83.528C266.133 83.272 266.449 83.144 266.825 83.144C267.193 83.144 267.505 83.272 267.761 83.528C268.017 83.776 268.145 84.084 268.145 84.452C268.145 84.828 268.017 85.14 267.761 85.388C267.513 85.636 267.205 85.76 266.837 85.76ZM279.853 87.5H282.349V99.812C282.349 100.636 282.173 101.396 281.821 102.092C281.477 102.788 281.009 103.388 280.417 103.892C279.825 104.404 279.145 104.8 278.377 105.08C277.617 105.36 276.821 105.5 275.989 105.5C275.149 105.5 274.341 105.32 273.565 104.96C272.789 104.608 272.105 104.128 271.513 103.52C270.929 102.912 270.493 102.224 270.205 101.456L272.497 100.424C272.657 100.92 272.913 101.36 273.265 101.744C273.625 102.128 274.041 102.432 274.513 102.656C274.993 102.88 275.485 102.992 275.989 102.992C276.485 102.992 276.961 102.912 277.417 102.752C277.881 102.6 278.293 102.384 278.653 102.104C279.021 101.824 279.313 101.488 279.529 101.096C279.745 100.704 279.853 100.276 279.853 99.812V97.784C279.461 98.392 278.957 98.884 278.341 99.26C277.725 99.628 277.009 99.812 276.193 99.812C275.345 99.812 274.545 99.648 273.793 99.32C273.041 98.992 272.381 98.54 271.813 97.964C271.245 97.38 270.801 96.708 270.481 95.948C270.161 95.188 270.001 94.372 270.001 93.5C270.001 92.628 270.161 91.812 270.481 91.052C270.801 90.284 271.245 89.612 271.813 89.036C272.381 88.452 273.041 87.996 273.793 87.668C274.545 87.34 275.345 87.176 276.193 87.176C277.009 87.176 277.725 87.364 278.341 87.74C278.957 88.108 279.461 88.6 279.853 89.216V87.5ZM276.217 97.4C276.913 97.4 277.521 97.224 278.041 96.872C278.561 96.512 278.965 96.036 279.253 95.444C279.541 94.852 279.685 94.204 279.685 93.5C279.685 92.78 279.537 92.128 279.241 91.544C278.953 90.952 278.549 90.48 278.029 90.128C277.509 89.768 276.905 89.588 276.217 89.588C275.545 89.588 274.929 89.764 274.369 90.116C273.817 90.468 273.377 90.94 273.049 91.532C272.721 92.124 272.557 92.78 272.557 93.5C272.557 94.22 272.721 94.876 273.049 95.468C273.385 96.06 273.829 96.532 274.381 96.884C274.941 97.228 275.553 97.4 276.217 97.4ZM296.029 91.976V99.5H293.533V92.588C293.533 92.052 293.401 91.564 293.137 91.124C292.881 90.684 292.533 90.336 292.093 90.08C291.661 89.816 291.173 89.684 290.629 89.684C290.101 89.684 289.617 89.816 289.177 90.08C288.737 90.336 288.385 90.684 288.121 91.124C287.857 91.564 287.725 92.052 287.725 92.588V99.5H285.229V81.5H287.725V88.772C288.141 88.276 288.653 87.884 289.261 87.596C289.869 87.308 290.525 87.164 291.229 87.164C292.117 87.164 292.925 87.38 293.653 87.812C294.381 88.244 294.957 88.824 295.381 89.552C295.813 90.28 296.029 91.088 296.029 91.976ZM304.76 89.996H302.24L302.228 99.5H299.732L299.744 89.996H297.836V87.5H299.744L299.732 83.732H302.228L302.24 87.5H304.76V89.996Z" fill="white"></path><path d="M55.517 182.734C54.839 182.734 54.185 182.629 53.555 182.419C52.925 182.203 52.373 181.897 51.899 181.501C51.431 181.105 51.098 180.634 50.9 180.088L52.313 179.557C52.433 179.893 52.655 180.187 52.979 180.439C53.309 180.685 53.696 180.877 54.14 181.015C54.584 181.153 55.043 181.222 55.517 181.222C56.057 181.222 56.558 181.135 57.02 180.961C57.488 180.781 57.866 180.532 58.154 180.214C58.442 179.896 58.586 179.524 58.586 179.098C58.586 178.66 58.436 178.303 58.136 178.027C57.836 177.745 57.452 177.523 56.984 177.361C56.516 177.193 56.027 177.064 55.517 176.974C54.647 176.83 53.867 176.626 53.177 176.362C52.493 176.092 51.95 175.717 51.548 175.237C51.152 174.757 50.954 174.124 50.954 173.338C50.954 172.606 51.164 171.967 51.584 171.421C52.01 170.875 52.571 170.452 53.267 170.152C53.963 169.852 54.713 169.702 55.517 169.702C56.183 169.702 56.828 169.807 57.452 170.017C58.082 170.221 58.637 170.521 59.117 170.917C59.597 171.313 59.942 171.796 60.152 172.366L58.721 172.888C58.601 172.546 58.376 172.252 58.046 172.006C57.722 171.754 57.338 171.562 56.894 171.43C56.456 171.292 55.997 171.223 55.517 171.223C54.983 171.217 54.485 171.304 54.023 171.484C53.561 171.664 53.186 171.913 52.898 172.231C52.61 172.549 52.466 172.918 52.466 173.338C52.466 173.842 52.598 174.229 52.862 174.499C53.132 174.763 53.498 174.961 53.96 175.093C54.422 175.225 54.941 175.342 55.517 175.444C56.333 175.582 57.089 175.801 57.785 176.101C58.481 176.395 59.039 176.788 59.459 177.28C59.885 177.772 60.098 178.378 60.098 179.098C60.098 179.83 59.885 180.469 59.459 181.015C59.039 181.561 58.481 181.984 57.785 182.284C57.089 182.584 56.333 182.734 55.517 182.734ZM66.6756 175.012H64.6326L64.6236 182.5H63.1116L63.1206 175.012H61.5726V173.5H63.1206L63.1116 170.674H64.6236L64.6326 173.5H66.6756V175.012ZM75.2965 173.5H76.8085V182.5H75.2965L75.2335 180.979C74.9515 181.501 74.5615 181.924 74.0635 182.248C73.5715 182.572 72.9835 182.734 72.2995 182.734C71.6395 182.734 71.0215 182.611 70.4455 182.365C69.8695 182.113 69.3595 181.768 68.9155 181.33C68.4775 180.886 68.1355 180.376 67.8895 179.8C67.6435 179.224 67.5205 178.603 67.5205 177.937C67.5205 177.295 67.6405 176.689 67.8805 176.119C68.1205 175.549 68.4535 175.051 68.8795 174.625C69.3115 174.193 69.8095 173.857 70.3735 173.617C70.9375 173.371 71.5435 173.248 72.1915 173.248C72.8995 173.248 73.5205 173.416 74.0545 173.752C74.5885 174.082 75.0205 174.511 75.3505 175.039L75.2965 173.5ZM72.2725 181.267C72.8665 181.267 73.3795 181.123 73.8115 180.835C74.2495 180.541 74.5855 180.145 74.8195 179.647C75.0595 179.149 75.1795 178.6 75.1795 178C75.1795 177.388 75.0595 176.836 74.8195 176.344C74.5795 175.846 74.2405 175.453 73.8025 175.165C73.3705 174.871 72.8605 174.724 72.2725 174.724C71.6785 174.724 71.1385 174.871 70.6525 175.165C70.1665 175.459 69.7795 175.855 69.4915 176.353C69.2095 176.845 69.0685 177.394 69.0685 178C69.0685 178.606 69.2155 179.158 69.5095 179.656C69.8035 180.148 70.1935 180.541 70.6795 180.835C71.1655 181.123 71.6965 181.267 72.2725 181.267ZM84.4911 173.5H86.0931L81.1701 187H79.5681L81.1971 182.5L77.9661 173.5H79.6221L81.9531 180.421L84.4911 173.5ZM99.4488 173.5H100.961V182.5H99.4488L99.3858 180.979C99.1038 181.501 98.7138 181.924 98.2158 182.248C97.7238 182.572 97.1358 182.734 96.4518 182.734C95.7918 182.734 95.1738 182.611 94.5978 182.365C94.0218 182.113 93.5118 181.768 93.0678 181.33C92.6298 180.886 92.2878 180.376 92.0418 179.8C91.7958 179.224 91.6728 178.603 91.6728 177.937C91.6728 177.295 91.7928 176.689 92.0328 176.119C92.2728 175.549 92.6058 175.051 93.0318 174.625C93.4638 174.193 93.9618 173.857 94.5258 173.617C95.0898 173.371 95.6958 173.248 96.3438 173.248C97.0518 173.248 97.6728 173.416 98.2068 173.752C98.7408 174.082 99.1728 174.511 99.5028 175.039L99.4488 173.5ZM96.4248 181.267C97.0188 181.267 97.5318 181.123 97.9638 180.835C98.4018 180.541 98.7378 180.145 98.9718 179.647C99.2118 179.149 99.3318 178.6 99.3318 178C99.3318 177.388 99.2118 176.836 98.9718 176.344C98.7318 175.846 98.3928 175.453 97.9548 175.165C97.5228 174.871 97.0128 174.724 96.4248 174.724C95.8308 174.724 95.2908 174.871 94.8048 175.165C94.3188 175.459 93.9318 175.855 93.6438 176.353C93.3618 176.845 93.2208 177.394 93.2208 178C93.2208 178.606 93.3678 179.158 93.6618 179.656C93.9558 180.148 94.3458 180.541 94.8318 180.835C95.3178 181.123 95.8488 181.267 96.4248 181.267ZM110.821 176.902V182.5H109.309V177.235C109.309 176.779 109.198 176.365 108.976 175.993C108.754 175.621 108.457 175.327 108.085 175.111C107.713 174.889 107.299 174.778 106.843 174.778C106.393 174.778 105.979 174.889 105.601 175.111C105.229 175.327 104.932 175.621 104.71 175.993C104.488 176.365 104.377 176.779 104.377 177.235V182.5H102.865V169H104.377V174.625C104.695 174.205 105.097 173.872 105.583 173.626C106.069 173.374 106.597 173.248 107.167 173.248C107.839 173.248 108.451 173.413 109.003 173.743C109.561 174.067 110.002 174.505 110.326 175.057C110.656 175.609 110.821 176.224 110.821 176.902ZM116.405 182.734C115.577 182.734 114.821 182.521 114.137 182.095C113.459 181.669 112.916 181.099 112.508 180.385C112.106 179.665 111.905 178.87 111.905 178C111.905 177.34 112.022 176.725 112.256 176.155C112.49 175.579 112.811 175.075 113.219 174.643C113.633 174.205 114.113 173.863 114.659 173.617C115.205 173.371 115.787 173.248 116.405 173.248C117.083 173.248 117.704 173.386 118.268 173.662C118.838 173.932 119.324 174.31 119.726 174.796C120.134 175.282 120.437 175.846 120.635 176.488C120.839 177.13 120.914 177.817 120.86 178.549H113.516C113.588 179.059 113.756 179.515 114.02 179.917C114.284 180.313 114.62 180.628 115.028 180.862C115.442 181.096 115.901 181.216 116.405 181.222C116.945 181.222 117.434 181.084 117.872 180.808C118.31 180.526 118.664 180.142 118.934 179.656L120.473 180.016C120.113 180.814 119.57 181.468 118.844 181.978C118.118 182.482 117.305 182.734 116.405 182.734ZM113.471 177.361H119.339C119.291 176.857 119.129 176.398 118.853 175.984C118.577 175.564 118.226 175.228 117.8 174.976C117.374 174.724 116.909 174.598 116.405 174.598C115.901 174.598 115.439 174.721 115.019 174.967C114.599 175.213 114.251 175.546 113.975 175.966C113.705 176.38 113.537 176.845 113.471 177.361ZM129.56 173.5H131.072V182.5H129.56L129.497 180.979C129.215 181.501 128.825 181.924 128.327 182.248C127.835 182.572 127.247 182.734 126.563 182.734C125.903 182.734 125.285 182.611 124.709 182.365C124.133 182.113 123.623 181.768 123.179 181.33C122.741 180.886 122.399 180.376 122.153 179.8C121.907 179.224 121.784 178.603 121.784 177.937C121.784 177.295 121.904 176.689 122.144 176.119C122.384 175.549 122.717 175.051 123.143 174.625C123.575 174.193 124.073 173.857 124.637 173.617C125.201 173.371 125.807 173.248 126.455 173.248C127.163 173.248 127.784 173.416 128.318 173.752C128.852 174.082 129.284 174.511 129.614 175.039L129.56 173.5ZM126.536 181.267C127.13 181.267 127.643 181.123 128.075 180.835C128.513 180.541 128.849 180.145 129.083 179.647C129.323 179.149 129.443 178.6 129.443 178C129.443 177.388 129.323 176.836 129.083 176.344C128.843 175.846 128.504 175.453 128.066 175.165C127.634 174.871 127.124 174.724 126.536 174.724C125.942 174.724 125.402 174.871 124.916 175.165C124.43 175.459 124.043 175.855 123.755 176.353C123.473 176.845 123.332 177.394 123.332 178C123.332 178.606 123.479 179.158 123.773 179.656C124.067 180.148 124.457 180.541 124.943 180.835C125.429 181.123 125.96 181.267 126.536 181.267ZM139.94 169H141.452V182.5H139.94V180.97C139.634 181.498 139.223 181.924 138.707 182.248C138.191 182.572 137.585 182.734 136.889 182.734C136.235 182.734 135.623 182.611 135.053 182.365C134.483 182.119 133.979 181.78 133.541 181.348C133.109 180.91 132.77 180.406 132.524 179.836C132.278 179.266 132.155 178.654 132.155 178C132.155 177.346 132.278 176.734 132.524 176.164C132.77 175.588 133.109 175.084 133.541 174.652C133.979 174.214 134.483 173.872 135.053 173.626C135.623 173.38 136.235 173.257 136.889 173.257C137.585 173.257 138.191 173.419 138.707 173.743C139.223 174.067 139.634 174.493 139.94 175.021V169ZM136.907 181.267C137.501 181.267 138.014 181.123 138.446 180.835C138.884 180.541 139.22 180.145 139.454 179.647C139.694 179.149 139.814 178.6 139.814 178C139.814 177.388 139.694 176.836 139.454 176.344C139.214 175.846 138.875 175.453 138.437 175.165C138.005 174.871 137.495 174.724 136.907 174.724C136.313 174.724 135.773 174.871 135.287 175.165C134.807 175.459 134.423 175.855 134.135 176.353C133.847 176.845 133.703 177.394 133.703 178C133.703 178.606 133.85 179.158 134.144 179.656C134.438 180.148 134.828 180.541 135.314 180.835C135.8 181.123 136.331 181.267 136.907 181.267ZM151.895 182.734C151.067 182.734 150.311 182.521 149.627 182.095C148.949 181.669 148.406 181.099 147.998 180.385C147.596 179.665 147.395 178.87 147.395 178C147.395 177.34 147.512 176.725 147.746 176.155C147.98 175.579 148.301 175.075 148.709 174.643C149.123 174.205 149.603 173.863 150.149 173.617C150.695 173.371 151.277 173.248 151.895 173.248C152.723 173.248 153.476 173.461 154.154 173.887C154.838 174.313 155.381 174.886 155.783 175.606C156.191 176.326 156.395 177.124 156.395 178C156.395 178.654 156.278 179.266 156.044 179.836C155.81 180.406 155.486 180.91 155.072 181.348C154.664 181.78 154.187 182.119 153.641 182.365C153.101 182.611 152.519 182.734 151.895 182.734ZM151.895 181.222C152.459 181.222 152.966 181.075 153.416 180.781C153.872 180.481 154.229 180.088 154.487 179.602C154.751 179.11 154.883 178.576 154.883 178C154.883 177.412 154.748 176.872 154.478 176.38C154.214 175.888 153.857 175.495 153.407 175.201C152.957 174.907 152.453 174.76 151.895 174.76C151.331 174.76 150.824 174.91 150.374 175.21C149.924 175.504 149.567 175.897 149.303 176.389C149.039 176.881 148.907 177.418 148.907 178C148.907 178.6 149.042 179.146 149.312 179.638C149.582 180.124 149.945 180.511 150.401 180.799C150.857 181.081 151.355 181.222 151.895 181.222ZM160.051 171.277V173.5H162.688V175.012H160.051V182.5H158.539V175.012H157.378V173.5H158.539V171.277C158.539 170.815 158.65 170.398 158.872 170.026C159.1 169.648 159.403 169.348 159.781 169.126C160.165 168.898 160.585 168.784 161.041 168.784C161.377 168.784 161.704 168.853 162.022 168.991C162.34 169.123 162.622 169.321 162.868 169.585L161.788 170.656C161.704 170.542 161.593 170.455 161.455 170.395C161.323 170.329 161.185 170.296 161.041 170.296C160.771 170.296 160.537 170.392 160.339 170.584C160.147 170.776 160.051 171.007 160.051 171.277ZM168.484 182.5V173.5H169.996V174.625C170.314 174.205 170.713 173.872 171.193 173.626C171.679 173.374 172.207 173.248 172.777 173.248C173.443 173.248 174.052 173.41 174.604 173.734C175.156 174.058 175.591 174.487 175.909 175.021C176.227 174.487 176.659 174.058 177.205 173.734C177.757 173.41 178.363 173.248 179.023 173.248C179.701 173.248 180.316 173.413 180.868 173.743C181.42 174.067 181.858 174.505 182.182 175.057C182.512 175.609 182.677 176.224 182.677 176.902V182.5H181.165V177.262C181.165 176.818 181.057 176.407 180.841 176.029C180.625 175.651 180.334 175.348 179.968 175.12C179.602 174.892 179.197 174.778 178.753 174.778C178.309 174.778 177.904 174.886 177.538 175.102C177.172 175.312 176.881 175.606 176.665 175.984C176.449 176.356 176.341 176.782 176.341 177.262V182.5H174.829V177.262C174.829 176.782 174.721 176.356 174.505 175.984C174.289 175.606 173.995 175.312 173.623 175.102C173.257 174.886 172.852 174.778 172.408 174.778C171.97 174.778 171.565 174.892 171.193 175.12C170.827 175.348 170.536 175.651 170.32 176.029C170.104 176.407 169.996 176.818 169.996 177.262V182.5H168.484ZM191.541 173.5H193.053V182.5H191.541L191.478 180.979C191.196 181.501 190.806 181.924 190.308 182.248C189.816 182.572 189.228 182.734 188.544 182.734C187.884 182.734 187.266 182.611 186.69 182.365C186.114 182.113 185.604 181.768 185.16 181.33C184.722 180.886 184.38 180.376 184.134 179.8C183.888 179.224 183.765 178.603 183.765 177.937C183.765 177.295 183.885 176.689 184.125 176.119C184.365 175.549 184.698 175.051 185.124 174.625C185.556 174.193 186.054 173.857 186.618 173.617C187.182 173.371 187.788 173.248 188.436 173.248C189.144 173.248 189.765 173.416 190.299 173.752C190.833 174.082 191.265 174.511 191.595 175.039L191.541 173.5ZM188.517 181.267C189.111 181.267 189.624 181.123 190.056 180.835C190.494 180.541 190.83 180.145 191.064 179.647C191.304 179.149 191.424 178.6 191.424 178C191.424 177.388 191.304 176.836 191.064 176.344C190.824 175.846 190.485 175.453 190.047 175.165C189.615 174.871 189.105 174.724 188.517 174.724C187.923 174.724 187.383 174.871 186.897 175.165C186.411 175.459 186.024 175.855 185.736 176.353C185.454 176.845 185.313 177.394 185.313 178C185.313 178.606 185.46 179.158 185.754 179.656C186.048 180.148 186.438 180.541 186.924 180.835C187.41 181.123 187.941 181.267 188.517 181.267ZM194.851 182.5V173.5H196.363V174.625C196.681 174.205 197.083 173.872 197.569 173.626C198.055 173.374 198.583 173.248 199.153 173.248C199.501 173.248 199.837 173.293 200.161 173.383L199.549 174.895C199.303 174.817 199.063 174.778 198.829 174.778C198.379 174.778 197.965 174.889 197.587 175.111C197.215 175.327 196.918 175.621 196.696 175.993C196.474 176.365 196.363 176.779 196.363 177.235V182.5H194.851ZM208.514 182.5H206.777L204.383 178.369L202.727 180.349V182.5H201.215V169H202.727V178L206.498 173.5H208.469L205.409 177.145L208.514 182.5ZM213.524 182.734C212.696 182.734 211.94 182.521 211.256 182.095C210.578 181.669 210.035 181.099 209.627 180.385C209.225 179.665 209.024 178.87 209.024 178C209.024 177.34 209.141 176.725 209.375 176.155C209.609 175.579 209.93 175.075 210.338 174.643C210.752 174.205 211.232 173.863 211.778 173.617C212.324 173.371 212.906 173.248 213.524 173.248C214.202 173.248 214.823 173.386 215.387 173.662C215.957 173.932 216.443 174.31 216.845 174.796C217.253 175.282 217.556 175.846 217.754 176.488C217.958 177.13 218.033 177.817 217.979 178.549H210.635C210.707 179.059 210.875 179.515 211.139 179.917C211.403 180.313 211.739 180.628 212.147 180.862C212.561 181.096 213.02 181.216 213.524 181.222C214.064 181.222 214.553 181.084 214.991 180.808C215.429 180.526 215.783 180.142 216.053 179.656L217.592 180.016C217.232 180.814 216.689 181.468 215.963 181.978C215.237 182.482 214.424 182.734 213.524 182.734ZM210.59 177.361H216.458C216.41 176.857 216.248 176.398 215.972 175.984C215.696 175.564 215.345 175.228 214.919 174.976C214.493 174.724 214.028 174.598 213.524 174.598C213.02 174.598 212.558 174.721 212.138 174.967C211.718 175.213 211.37 175.546 211.094 175.966C210.824 176.38 210.656 176.845 210.59 177.361ZM224.053 175.012H222.01L222.001 182.5H220.489L220.498 175.012H218.95V173.5H220.498L220.489 170.674H222.001L222.01 173.5H224.053V175.012ZM234.652 175.012H232.609L232.6 182.5H231.088L231.097 175.012H229.549V173.5H231.097L231.088 170.674H232.6L232.609 173.5H234.652V175.012ZM236.266 182.5V173.5H237.778V174.625C238.096 174.205 238.498 173.872 238.984 173.626C239.47 173.374 239.998 173.248 240.568 173.248C240.916 173.248 241.252 173.293 241.576 173.383L240.964 174.895C240.718 174.817 240.478 174.778 240.244 174.778C239.794 174.778 239.38 174.889 239.002 175.111C238.63 175.327 238.333 175.621 238.111 175.993C237.889 176.365 237.778 176.779 237.778 177.235V182.5H236.266ZM246.185 182.734C245.357 182.734 244.601 182.521 243.917 182.095C243.239 181.669 242.696 181.099 242.288 180.385C241.886 179.665 241.685 178.87 241.685 178C241.685 177.34 241.802 176.725 242.036 176.155C242.27 175.579 242.591 175.075 242.999 174.643C243.413 174.205 243.893 173.863 244.439 173.617C244.985 173.371 245.567 173.248 246.185 173.248C246.863 173.248 247.484 173.386 248.048 173.662C248.618 173.932 249.104 174.31 249.506 174.796C249.914 175.282 250.217 175.846 250.415 176.488C250.619 177.13 250.694 177.817 250.64 178.549H243.296C243.368 179.059 243.536 179.515 243.8 179.917C244.064 180.313 244.4 180.628 244.808 180.862C245.222 181.096 245.681 181.216 246.185 181.222C246.725 181.222 247.214 181.084 247.652 180.808C248.09 180.526 248.444 180.142 248.714 179.656L250.253 180.016C249.893 180.814 249.35 181.468 248.624 181.978C247.898 182.482 247.085 182.734 246.185 182.734ZM243.251 177.361H249.119C249.071 176.857 248.909 176.398 248.633 175.984C248.357 175.564 248.006 175.228 247.58 174.976C247.154 174.724 246.689 174.598 246.185 174.598C245.681 174.598 245.219 174.721 244.799 174.967C244.379 175.213 244.031 175.546 243.755 175.966C243.485 176.38 243.317 176.845 243.251 177.361ZM260.112 176.902V182.5H258.6V177.235C258.6 176.779 258.489 176.365 258.267 175.993C258.045 175.621 257.748 175.327 257.376 175.111C257.004 174.889 256.59 174.778 256.134 174.778C255.684 174.778 255.27 174.889 254.892 175.111C254.52 175.327 254.223 175.621 254.001 175.993C253.779 176.365 253.668 176.779 253.668 177.235V182.5H252.156V173.5H253.668V174.625C253.986 174.205 254.388 173.872 254.874 173.626C255.36 173.374 255.888 173.248 256.458 173.248C257.13 173.248 257.742 173.413 258.294 173.743C258.852 174.067 259.293 174.505 259.617 175.057C259.947 175.609 260.112 176.224 260.112 176.902ZM268.981 169H270.493V182.5H268.981V180.97C268.675 181.498 268.264 181.924 267.748 182.248C267.232 182.572 266.626 182.734 265.93 182.734C265.276 182.734 264.664 182.611 264.094 182.365C263.524 182.119 263.02 181.78 262.582 181.348C262.15 180.91 261.811 180.406 261.565 179.836C261.319 179.266 261.196 178.654 261.196 178C261.196 177.346 261.319 176.734 261.565 176.164C261.811 175.588 262.15 175.084 262.582 174.652C263.02 174.214 263.524 173.872 264.094 173.626C264.664 173.38 265.276 173.257 265.93 173.257C266.626 173.257 267.232 173.419 267.748 173.743C268.264 174.067 268.675 174.493 268.981 175.021V169ZM265.948 181.267C266.542 181.267 267.055 181.123 267.487 180.835C267.925 180.541 268.261 180.145 268.495 179.647C268.735 179.149 268.855 178.6 268.855 178C268.855 177.388 268.735 176.836 268.495 176.344C268.255 175.846 267.916 175.453 267.478 175.165C267.046 174.871 266.536 174.724 265.948 174.724C265.354 174.724 264.814 174.871 264.328 175.165C263.848 175.459 263.464 175.855 263.176 176.353C262.888 176.845 262.744 177.394 262.744 178C262.744 178.606 262.891 179.158 263.185 179.656C263.479 180.148 263.869 180.541 264.355 180.835C264.841 181.123 265.372 181.267 265.948 181.267ZM275.397 182.671C274.911 182.653 274.437 182.563 273.975 182.401C273.519 182.233 273.117 182.008 272.769 181.726C272.427 181.438 272.178 181.108 272.022 180.736L273.318 180.178C273.408 180.382 273.57 180.574 273.804 180.754C274.038 180.934 274.308 181.078 274.614 181.186C274.92 181.294 275.229 181.348 275.541 181.348C275.871 181.348 276.18 181.297 276.468 181.195C276.756 181.093 276.99 180.943 277.17 180.745C277.356 180.541 277.449 180.298 277.449 180.016C277.449 179.716 277.347 179.482 277.143 179.314C276.945 179.14 276.693 179.005 276.387 178.909C276.087 178.807 275.781 178.711 275.469 178.621C274.851 178.465 274.299 178.279 273.813 178.063C273.327 177.841 272.943 177.562 272.661 177.226C272.385 176.884 272.247 176.449 272.247 175.921C272.247 175.363 272.4 174.88 272.706 174.472C273.018 174.064 273.426 173.749 273.93 173.527C274.434 173.305 274.974 173.194 275.55 173.194C276.276 173.194 276.939 173.35 277.539 173.662C278.139 173.974 278.586 174.397 278.88 174.931L277.665 175.642C277.563 175.426 277.407 175.237 277.197 175.075C276.987 174.907 276.747 174.775 276.477 174.679C276.207 174.583 275.931 174.532 275.649 174.526C275.301 174.514 274.974 174.559 274.668 174.661C274.368 174.763 274.125 174.919 273.939 175.129C273.759 175.333 273.669 175.588 273.669 175.894C273.669 176.194 273.765 176.422 273.957 176.578C274.155 176.734 274.41 176.86 274.722 176.956C275.04 177.046 275.385 177.151 275.757 177.271C276.303 177.445 276.813 177.646 277.287 177.874C277.761 178.102 278.142 178.387 278.43 178.729C278.724 179.071 278.868 179.494 278.862 179.998C278.862 180.55 278.697 181.033 278.367 181.447C278.037 181.855 277.608 182.167 277.08 182.383C276.558 182.599 275.997 182.695 275.397 182.671ZM288.733 182.5H287.203L284.188 173.5H285.664L287.986 180.367L290.281 173.5H291.838L294.142 180.367L296.437 173.5H297.931L294.916 182.5H293.377L291.046 175.57L288.733 182.5ZM299.389 173.5H300.901V182.5H299.389V173.5ZM300.163 172.033C299.923 172.033 299.722 171.955 299.56 171.799C299.398 171.643 299.317 171.448 299.317 171.214C299.317 170.98 299.398 170.785 299.56 170.629C299.722 170.473 299.92 170.395 300.154 170.395C300.388 170.395 300.586 170.473 300.748 170.629C300.91 170.785 300.991 170.98 300.991 171.214C300.991 171.448 300.91 171.643 300.748 171.799C300.592 171.955 300.397 172.033 300.163 172.033ZM307.724 175.012H305.681L305.672 182.5H304.16L304.169 175.012H302.621V173.5H304.169L304.16 170.674H305.672L305.681 173.5H307.724V175.012ZM317.294 176.902V182.5H315.782V177.235C315.782 176.779 315.671 176.365 315.449 175.993C315.227 175.621 314.93 175.327 314.558 175.111C314.186 174.889 313.772 174.778 313.316 174.778C312.866 174.778 312.452 174.889 312.074 175.111C311.702 175.327 311.405 175.621 311.183 175.993C310.961 176.365 310.85 176.779 310.85 177.235V182.5H309.338V169H310.85V174.625C311.168 174.205 311.57 173.872 312.056 173.626C312.542 173.374 313.07 173.248 313.64 173.248C314.312 173.248 314.924 173.413 315.476 173.743C316.034 174.067 316.475 174.505 316.799 175.057C317.129 175.609 317.294 176.224 317.294 176.902ZM327.378 182.734C326.55 182.734 325.794 182.521 325.11 182.095C324.432 181.669 323.889 181.099 323.481 180.385C323.079 179.665 322.878 178.87 322.878 178C322.878 177.34 322.995 176.725 323.229 176.155C323.463 175.579 323.784 175.075 324.192 174.643C324.606 174.205 325.086 173.863 325.632 173.617C326.178 173.371 326.76 173.248 327.378 173.248C328.206 173.248 328.959 173.461 329.637 173.887C330.321 174.313 330.864 174.886 331.266 175.606C331.674 176.326 331.878 177.124 331.878 178C331.878 178.654 331.761 179.266 331.527 179.836C331.293 180.406 330.969 180.91 330.555 181.348C330.147 181.78 329.67 182.119 329.124 182.365C328.584 182.611 328.002 182.734 327.378 182.734ZM327.378 181.222C327.942 181.222 328.449 181.075 328.899 180.781C329.355 180.481 329.712 180.088 329.97 179.602C330.234 179.11 330.366 178.576 330.366 178C330.366 177.412 330.231 176.872 329.961 176.38C329.697 175.888 329.34 175.495 328.89 175.201C328.44 174.907 327.936 174.76 327.378 174.76C326.814 174.76 326.307 174.91 325.857 175.21C325.407 175.504 325.05 175.897 324.786 176.389C324.522 176.881 324.39 177.418 324.39 178C324.39 178.6 324.525 179.146 324.795 179.638C325.065 180.124 325.428 180.511 325.884 180.799C326.34 181.081 326.838 181.222 327.378 181.222ZM332.884 179.08V173.5H334.396V178.747C334.396 179.203 334.507 179.617 334.729 179.989C334.951 180.361 335.248 180.658 335.62 180.88C335.998 181.096 336.412 181.204 336.862 181.204C337.318 181.204 337.729 181.096 338.095 180.88C338.467 180.658 338.764 180.361 338.986 179.989C339.208 179.617 339.319 179.203 339.319 178.747V173.5H340.831L340.84 182.5H339.328L339.319 181.357C339.001 181.777 338.599 182.113 338.113 182.365C337.627 182.611 337.102 182.734 336.538 182.734C335.866 182.734 335.251 182.572 334.693 182.248C334.141 181.918 333.7 181.477 333.37 180.925C333.046 180.373 332.884 179.758 332.884 179.08ZM342.648 182.5V173.5H344.16V174.625C344.478 174.205 344.88 173.872 345.366 173.626C345.852 173.374 346.38 173.248 346.95 173.248C347.298 173.248 347.634 173.293 347.958 173.383L347.346 174.895C347.1 174.817 346.86 174.778 346.626 174.778C346.176 174.778 345.762 174.889 345.384 175.111C345.012 175.327 344.715 175.621 344.493 175.993C344.271 176.365 344.16 176.779 344.16 177.235V182.5H342.648ZM357.507 182.734C356.679 182.734 355.923 182.521 355.239 182.095C354.561 181.669 354.018 181.099 353.61 180.385C353.208 179.665 353.007 178.87 353.007 178C353.007 177.34 353.124 176.725 353.358 176.155C353.592 175.579 353.913 175.075 354.321 174.643C354.735 174.205 355.215 173.863 355.761 173.617C356.307 173.371 356.889 173.248 357.507 173.248C358.185 173.248 358.806 173.386 359.37 173.662C359.94 173.932 360.426 174.31 360.828 174.796C361.236 175.282 361.539 175.846 361.737 176.488C361.941 177.13 362.016 177.817 361.962 178.549H354.618C354.69 179.059 354.858 179.515 355.122 179.917C355.386 180.313 355.722 180.628 356.13 180.862C356.544 181.096 357.003 181.216 357.507 181.222C358.047 181.222 358.536 181.084 358.974 180.808C359.412 180.526 359.766 180.142 360.036 179.656L361.575 180.016C361.215 180.814 360.672 181.468 359.946 181.978C359.22 182.482 358.407 182.734 357.507 182.734ZM354.573 177.361H360.441C360.393 176.857 360.231 176.398 359.955 175.984C359.679 175.564 359.328 175.228 358.902 174.976C358.476 174.724 358.011 174.598 357.507 174.598C357.003 174.598 356.541 174.721 356.121 174.967C355.701 175.213 355.353 175.546 355.077 175.966C354.807 176.38 354.639 176.845 354.573 177.361ZM362.45 182.5L365.744 177.982L362.468 173.482H364.331L366.68 176.686L369.02 173.482H370.883L367.607 177.982L370.901 182.5H369.038L366.68 179.26L364.313 182.5H362.45ZM373.973 187H372.461V173.5H373.973V175.039C374.279 174.511 374.687 174.085 375.197 173.761C375.707 173.431 376.313 173.266 377.015 173.266C377.669 173.266 378.281 173.389 378.851 173.635C379.427 173.881 379.931 174.223 380.363 174.661C380.795 175.093 381.134 175.594 381.38 176.164C381.626 176.734 381.749 177.346 381.749 178C381.749 178.654 381.626 179.269 381.38 179.845C381.134 180.421 380.795 180.928 380.363 181.366C379.931 181.798 379.427 182.137 378.851 182.383C378.281 182.629 377.669 182.752 377.015 182.752C376.313 182.752 375.707 182.59 375.197 182.266C374.687 181.936 374.279 181.507 373.973 180.979V187ZM376.997 174.733C376.415 174.733 375.905 174.88 375.467 175.174C375.029 175.468 374.69 175.861 374.45 176.353C374.216 176.845 374.099 177.394 374.099 178C374.099 178.6 374.216 179.149 374.45 179.647C374.69 180.145 375.026 180.541 375.458 180.835C375.896 181.129 376.409 181.276 376.997 181.276C377.579 181.276 378.113 181.132 378.599 180.844C379.085 180.55 379.475 180.157 379.769 179.665C380.063 179.167 380.21 178.612 380.21 178C380.21 177.4 380.066 176.854 379.778 176.362C379.49 175.864 379.103 175.468 378.617 175.174C378.131 174.88 377.591 174.733 376.997 174.733ZM387.161 182.734C386.333 182.734 385.577 182.521 384.893 182.095C384.215 181.669 383.672 181.099 383.264 180.385C382.862 179.665 382.661 178.87 382.661 178C382.661 177.34 382.778 176.725 383.012 176.155C383.246 175.579 383.567 175.075 383.975 174.643C384.389 174.205 384.869 173.863 385.415 173.617C385.961 173.371 386.543 173.248 387.161 173.248C387.839 173.248 388.46 173.386 389.024 173.662C389.594 173.932 390.08 174.31 390.482 174.796C390.89 175.282 391.193 175.846 391.391 176.488C391.595 177.13 391.67 177.817 391.616 178.549H384.272C384.344 179.059 384.512 179.515 384.776 179.917C385.04 180.313 385.376 180.628 385.784 180.862C386.198 181.096 386.657 181.216 387.161 181.222C387.701 181.222 388.19 181.084 388.628 180.808C389.066 180.526 389.42 180.142 389.69 179.656L391.229 180.016C390.869 180.814 390.326 181.468 389.6 181.978C388.874 182.482 388.061 182.734 387.161 182.734ZM384.227 177.361H390.095C390.047 176.857 389.885 176.398 389.609 175.984C389.333 175.564 388.982 175.228 388.556 174.976C388.13 174.724 387.665 174.598 387.161 174.598C386.657 174.598 386.195 174.721 385.775 174.967C385.355 175.213 385.007 175.546 384.731 175.966C384.461 176.38 384.293 176.845 384.227 177.361ZM393.133 182.5V173.5H394.645V174.625C394.963 174.205 395.365 173.872 395.851 173.626C396.337 173.374 396.865 173.248 397.435 173.248C397.783 173.248 398.119 173.293 398.443 173.383L397.831 174.895C397.585 174.817 397.345 174.778 397.111 174.778C396.661 174.778 396.247 174.889 395.869 175.111C395.497 175.327 395.2 175.621 394.978 175.993C394.756 176.365 394.645 176.779 394.645 177.235V182.5H393.133ZM404.369 175.012H402.326L402.317 182.5H400.805L400.814 175.012H399.266V173.5H400.814L400.805 170.674H402.317L402.326 173.5H404.369V175.012ZM51.08 209.5L53.519 196.9H54.68L58.082 205.846L61.475 196.9H62.636L65.084 209.5H63.545L61.772 200.356L58.577 208.816H57.578L54.383 200.356L52.619 209.5H51.08ZM73.6969 200.5H75.2089V209.5H73.6969L73.6339 207.979C73.3519 208.501 72.9619 208.924 72.4639 209.248C71.9719 209.572 71.3839 209.734 70.6999 209.734C70.0399 209.734 69.4219 209.611 68.8459 209.365C68.2699 209.113 67.7599 208.768 67.3159 208.33C66.8779 207.886 66.5359 207.376 66.2899 206.8C66.0439 206.224 65.9209 205.603 65.9209 204.937C65.9209 204.295 66.0409 203.689 66.2809 203.119C66.5209 202.549 66.8539 202.051 67.2799 201.625C67.7119 201.193 68.2099 200.857 68.7739 200.617C69.3379 200.371 69.9439 200.248 70.5919 200.248C71.2999 200.248 71.9209 200.416 72.4549 200.752C72.9889 201.082 73.4209 201.511 73.7509 202.039L73.6969 200.5ZM70.6729 208.267C71.2669 208.267 71.7799 208.123 72.2119 207.835C72.6499 207.541 72.9859 207.145 73.2199 206.647C73.4599 206.149 73.5799 205.6 73.5799 205C73.5799 204.388 73.4599 203.836 73.2199 203.344C72.9799 202.846 72.6409 202.453 72.2029 202.165C71.7709 201.871 71.2609 201.724 70.6729 201.724C70.0789 201.724 69.5389 201.871 69.0529 202.165C68.5669 202.459 68.1799 202.855 67.8919 203.353C67.6099 203.845 67.4689 204.394 67.4689 205C67.4689 205.606 67.6159 206.158 67.9099 206.656C68.2039 207.148 68.5939 207.541 69.0799 207.835C69.5659 208.123 70.0969 208.267 70.6729 208.267ZM77.0077 209.5V200.5H78.5197V201.625C78.8377 201.205 79.2397 200.872 79.7257 200.626C80.2117 200.374 80.7397 200.248 81.3097 200.248C81.6577 200.248 81.9937 200.293 82.3177 200.383L81.7057 201.895C81.4597 201.817 81.2197 201.778 80.9857 201.778C80.5357 201.778 80.1217 201.889 79.7437 202.111C79.3717 202.327 79.0747 202.621 78.8527 202.993C78.6307 203.365 78.5197 203.779 78.5197 204.235V209.5H77.0077ZM90.67 209.5H88.933L86.539 205.369L84.883 207.349V209.5H83.371V196H84.883V205L88.654 200.5H90.625L87.565 204.145L90.67 209.5ZM95.6806 209.734C94.8526 209.734 94.0966 209.521 93.4126 209.095C92.7346 208.669 92.1916 208.099 91.7836 207.385C91.3816 206.665 91.1806 205.87 91.1806 205C91.1806 204.34 91.2976 203.725 91.5316 203.155C91.7656 202.579 92.0866 202.075 92.4946 201.643C92.9086 201.205 93.3886 200.863 93.9346 200.617C94.4806 200.371 95.0626 200.248 95.6806 200.248C96.3586 200.248 96.9796 200.386 97.5436 200.662C98.1136 200.932 98.5996 201.31 99.0016 201.796C99.4096 202.282 99.7126 202.846 99.9106 203.488C100.115 204.13 100.19 204.817 100.136 205.549H92.7916C92.8636 206.059 93.0316 206.515 93.2956 206.917C93.5596 207.313 93.8956 207.628 94.3036 207.862C94.7176 208.096 95.1766 208.216 95.6806 208.222C96.2206 208.222 96.7096 208.084 97.1476 207.808C97.5856 207.526 97.9396 207.142 98.2096 206.656L99.7486 207.016C99.3886 207.814 98.8456 208.468 98.1196 208.978C97.3936 209.482 96.5806 209.734 95.6806 209.734ZM92.7466 204.361H98.6146C98.5666 203.857 98.4046 203.398 98.1286 202.984C97.8526 202.564 97.5016 202.228 97.0756 201.976C96.6496 201.724 96.1846 201.598 95.6806 201.598C95.1766 201.598 94.7146 201.721 94.2946 201.967C93.8746 202.213 93.5266 202.546 93.2506 202.966C92.9806 203.38 92.8126 203.845 92.7466 204.361ZM106.209 202.012H104.166L104.157 209.5H102.645L102.654 202.012H101.106V200.5H102.654L102.645 197.674H104.157L104.166 200.5H106.209V202.012ZM116.367 196.9H118.194L122.775 209.5H121.173L120.237 206.926H114.324L113.397 209.5H111.786L116.367 196.9ZM114.882 205.414H119.679L117.276 198.835L114.882 205.414ZM132.284 203.902V209.5H130.772V204.235C130.772 203.779 130.661 203.365 130.439 202.993C130.217 202.621 129.92 202.327 129.548 202.111C129.176 201.889 128.762 201.778 128.306 201.778C127.856 201.778 127.442 201.889 127.064 202.111C126.692 202.327 126.395 202.621 126.173 202.993C125.951 203.365 125.84 203.779 125.84 204.235V209.5H124.328V200.5H125.84V201.625C126.158 201.205 126.56 200.872 127.046 200.626C127.532 200.374 128.06 200.248 128.63 200.248C129.302 200.248 129.914 200.413 130.466 200.743C131.024 201.067 131.465 201.505 131.789 202.057C132.119 202.609 132.284 203.224 132.284 203.902ZM141.144 200.5H142.656V209.5H141.144L141.081 207.979C140.799 208.501 140.409 208.924 139.911 209.248C139.419 209.572 138.831 209.734 138.147 209.734C137.487 209.734 136.869 209.611 136.293 209.365C135.717 209.113 135.207 208.768 134.763 208.33C134.325 207.886 133.983 207.376 133.737 206.8C133.491 206.224 133.368 205.603 133.368 204.937C133.368 204.295 133.488 203.689 133.728 203.119C133.968 202.549 134.301 202.051 134.727 201.625C135.159 201.193 135.657 200.857 136.221 200.617C136.785 200.371 137.391 200.248 138.039 200.248C138.747 200.248 139.368 200.416 139.902 200.752C140.436 201.082 140.868 201.511 141.198 202.039L141.144 200.5ZM138.12 208.267C138.714 208.267 139.227 208.123 139.659 207.835C140.097 207.541 140.433 207.145 140.667 206.647C140.907 206.149 141.027 205.6 141.027 205C141.027 204.388 140.907 203.836 140.667 203.344C140.427 202.846 140.088 202.453 139.65 202.165C139.218 201.871 138.708 201.724 138.12 201.724C137.526 201.724 136.986 201.871 136.5 202.165C136.014 202.459 135.627 202.855 135.339 203.353C135.057 203.845 134.916 204.394 134.916 205C134.916 205.606 135.063 206.158 135.357 206.656C135.651 207.148 136.041 207.541 136.527 207.835C137.013 208.123 137.544 208.267 138.12 208.267ZM144.56 209.5V196H146.072V209.5H144.56ZM154.048 200.5H155.65L150.727 214H149.125L150.754 209.5L147.523 200.5H149.179L151.51 207.421L154.048 200.5ZM159.874 209.671C159.388 209.653 158.914 209.563 158.452 209.401C157.996 209.233 157.594 209.008 157.246 208.726C156.904 208.438 156.655 208.108 156.499 207.736L157.795 207.178C157.885 207.382 158.047 207.574 158.281 207.754C158.515 207.934 158.785 208.078 159.091 208.186C159.397 208.294 159.706 208.348 160.018 208.348C160.348 208.348 160.657 208.297 160.945 208.195C161.233 208.093 161.467 207.943 161.647 207.745C161.833 207.541 161.926 207.298 161.926 207.016C161.926 206.716 161.824 206.482 161.62 206.314C161.422 206.14 161.17 206.005 160.864 205.909C160.564 205.807 160.258 205.711 159.946 205.621C159.328 205.465 158.776 205.279 158.29 205.063C157.804 204.841 157.42 204.562 157.138 204.226C156.862 203.884 156.724 203.449 156.724 202.921C156.724 202.363 156.877 201.88 157.183 201.472C157.495 201.064 157.903 200.749 158.407 200.527C158.911 200.305 159.451 200.194 160.027 200.194C160.753 200.194 161.416 200.35 162.016 200.662C162.616 200.974 163.063 201.397 163.357 201.931L162.142 202.642C162.04 202.426 161.884 202.237 161.674 202.075C161.464 201.907 161.224 201.775 160.954 201.679C160.684 201.583 160.408 201.532 160.126 201.526C159.778 201.514 159.451 201.559 159.145 201.661C158.845 201.763 158.602 201.919 158.416 202.129C158.236 202.333 158.146 202.588 158.146 202.894C158.146 203.194 158.242 203.422 158.434 203.578C158.632 203.734 158.887 203.86 159.199 203.956C159.517 204.046 159.862 204.151 160.234 204.271C160.78 204.445 161.29 204.646 161.764 204.874C162.238 205.102 162.619 205.387 162.907 205.729C163.201 206.071 163.345 206.494 163.339 206.998C163.339 207.55 163.174 208.033 162.844 208.447C162.514 208.855 162.085 209.167 161.557 209.383C161.035 209.599 160.474 209.695 159.874 209.671ZM164.758 200.5H166.27V209.5H164.758V200.5ZM165.532 199.033C165.292 199.033 165.091 198.955 164.929 198.799C164.767 198.643 164.686 198.448 164.686 198.214C164.686 197.98 164.767 197.785 164.929 197.629C165.091 197.473 165.289 197.395 165.523 197.395C165.757 197.395 165.955 197.473 166.117 197.629C166.279 197.785 166.36 197.98 166.36 198.214C166.36 198.448 166.279 198.643 166.117 198.799C165.961 198.955 165.766 199.033 165.532 199.033ZM171.089 209.671C170.603 209.653 170.129 209.563 169.667 209.401C169.211 209.233 168.809 209.008 168.461 208.726C168.119 208.438 167.87 208.108 167.714 207.736L169.01 207.178C169.1 207.382 169.262 207.574 169.496 207.754C169.73 207.934 170 208.078 170.306 208.186C170.612 208.294 170.921 208.348 171.233 208.348C171.563 208.348 171.872 208.297 172.16 208.195C172.448 208.093 172.682 207.943 172.862 207.745C173.048 207.541 173.141 207.298 173.141 207.016C173.141 206.716 173.039 206.482 172.835 206.314C172.637 206.14 172.385 206.005 172.079 205.909C171.779 205.807 171.473 205.711 171.161 205.621C170.543 205.465 169.991 205.279 169.505 205.063C169.019 204.841 168.635 204.562 168.353 204.226C168.077 203.884 167.939 203.449 167.939 202.921C167.939 202.363 168.092 201.88 168.398 201.472C168.71 201.064 169.118 200.749 169.622 200.527C170.126 200.305 170.666 200.194 171.242 200.194C171.968 200.194 172.631 200.35 173.231 200.662C173.831 200.974 174.278 201.397 174.572 201.931L173.357 202.642C173.255 202.426 173.099 202.237 172.889 202.075C172.679 201.907 172.439 201.775 172.169 201.679C171.899 201.583 171.623 201.532 171.341 201.526C170.993 201.514 170.666 201.559 170.36 201.661C170.06 201.763 169.817 201.919 169.631 202.129C169.451 202.333 169.361 202.588 169.361 202.894C169.361 203.194 169.457 203.422 169.649 203.578C169.847 203.734 170.102 203.86 170.414 203.956C170.732 204.046 171.077 204.151 171.449 204.271C171.995 204.445 172.505 204.646 172.979 204.874C173.453 205.102 173.834 205.387 174.122 205.729C174.416 206.071 174.56 206.494 174.554 206.998C174.554 207.55 174.389 208.033 174.059 208.447C173.729 208.855 173.3 209.167 172.772 209.383C172.25 209.599 171.689 209.695 171.089 209.671ZM176.519 209.734C176.291 209.734 176.096 209.653 175.934 209.491C175.778 209.329 175.7 209.131 175.7 208.897C175.7 208.675 175.778 208.483 175.934 208.321C176.096 208.159 176.291 208.078 176.519 208.078C176.753 208.078 176.951 208.159 177.113 208.321C177.275 208.483 177.356 208.675 177.356 208.897C177.356 209.131 177.275 209.329 177.113 209.491C176.951 209.653 176.753 209.734 176.519 209.734ZM186.494 209.5L183.272 196.9H184.829L187.367 206.845L189.896 196.9H191.255L193.793 206.845L196.322 196.9H197.879L194.675 209.5H192.911L190.58 200.374L188.249 209.5H186.494ZM202.38 209.734C201.552 209.734 200.796 209.521 200.112 209.095C199.434 208.669 198.891 208.099 198.483 207.385C198.081 206.665 197.88 205.87 197.88 205C197.88 204.34 197.997 203.725 198.231 203.155C198.465 202.579 198.786 202.075 199.194 201.643C199.608 201.205 200.088 200.863 200.634 200.617C201.18 200.371 201.762 200.248 202.38 200.248C203.058 200.248 203.679 200.386 204.243 200.662C204.813 200.932 205.299 201.31 205.701 201.796C206.109 202.282 206.412 202.846 206.61 203.488C206.814 204.13 206.889 204.817 206.835 205.549H199.491C199.563 206.059 199.731 206.515 199.995 206.917C200.259 207.313 200.595 207.628 201.003 207.862C201.417 208.096 201.876 208.216 202.38 208.222C202.92 208.222 203.409 208.084 203.847 207.808C204.285 207.526 204.639 207.142 204.909 206.656L206.448 207.016C206.088 207.814 205.545 208.468 204.819 208.978C204.093 209.482 203.28 209.734 202.38 209.734ZM199.446 204.361H205.314C205.266 203.857 205.104 203.398 204.828 202.984C204.552 202.564 204.201 202.228 203.775 201.976C203.349 201.724 202.884 201.598 202.38 201.598C201.876 201.598 201.414 201.721 200.994 201.967C200.574 202.213 200.226 202.546 199.95 202.966C199.68 203.38 199.512 203.845 199.446 204.361ZM214.311 214H212.799V200.5H214.311V202.039C214.617 201.511 215.025 201.085 215.535 200.761C216.045 200.431 216.651 200.266 217.353 200.266C218.007 200.266 218.619 200.389 219.189 200.635C219.765 200.881 220.269 201.223 220.701 201.661C221.133 202.093 221.472 202.594 221.718 203.164C221.964 203.734 222.087 204.346 222.087 205C222.087 205.654 221.964 206.269 221.718 206.845C221.472 207.421 221.133 207.928 220.701 208.366C220.269 208.798 219.765 209.137 219.189 209.383C218.619 209.629 218.007 209.752 217.353 209.752C216.651 209.752 216.045 209.59 215.535 209.266C215.025 208.936 214.617 208.507 214.311 207.979V214ZM217.335 201.733C216.753 201.733 216.243 201.88 215.805 202.174C215.367 202.468 215.028 202.861 214.788 203.353C214.554 203.845 214.437 204.394 214.437 205C214.437 205.6 214.554 206.149 214.788 206.647C215.028 207.145 215.364 207.541 215.796 207.835C216.234 208.129 216.747 208.276 217.335 208.276C217.917 208.276 218.451 208.132 218.937 207.844C219.423 207.55 219.813 207.157 220.107 206.665C220.401 206.167 220.548 205.612 220.548 205C220.548 204.4 220.404 203.854 220.116 203.362C219.828 202.864 219.441 202.468 218.955 202.174C218.469 201.88 217.929 201.733 217.335 201.733ZM223.592 209.5V200.5H225.104V201.625C225.422 201.205 225.824 200.872 226.31 200.626C226.796 200.374 227.324 200.248 227.894 200.248C228.242 200.248 228.578 200.293 228.902 200.383L228.29 201.895C228.044 201.817 227.804 201.778 227.57 201.778C227.12 201.778 226.706 201.889 226.328 202.111C225.956 202.327 225.659 202.621 225.437 202.993C225.215 203.365 225.104 203.779 225.104 204.235V209.5H223.592ZM233.511 209.734C232.683 209.734 231.927 209.521 231.243 209.095C230.565 208.669 230.022 208.099 229.614 207.385C229.212 206.665 229.011 205.87 229.011 205C229.011 204.34 229.128 203.725 229.362 203.155C229.596 202.579 229.917 202.075 230.325 201.643C230.739 201.205 231.219 200.863 231.765 200.617C232.311 200.371 232.893 200.248 233.511 200.248C234.339 200.248 235.092 200.461 235.77 200.887C236.454 201.313 236.997 201.886 237.399 202.606C237.807 203.326 238.011 204.124 238.011 205C238.011 205.654 237.894 206.266 237.66 206.836C237.426 207.406 237.102 207.91 236.688 208.348C236.28 208.78 235.803 209.119 235.257 209.365C234.717 209.611 234.135 209.734 233.511 209.734ZM233.511 208.222C234.075 208.222 234.582 208.075 235.032 207.781C235.488 207.481 235.845 207.088 236.103 206.602C236.367 206.11 236.499 205.576 236.499 205C236.499 204.412 236.364 203.872 236.094 203.38C235.83 202.888 235.473 202.495 235.023 202.201C234.573 201.907 234.069 201.76 233.511 201.76C232.947 201.76 232.44 201.91 231.99 202.21C231.54 202.504 231.183 202.897 230.919 203.389C230.655 203.881 230.523 204.418 230.523 205C230.523 205.6 230.658 206.146 230.928 206.638C231.198 207.124 231.561 207.511 232.017 207.799C232.473 208.081 232.971 208.222 233.511 208.222ZM243.776 209.5H241.841L238.556 200.482H240.167L242.804 207.745L245.441 200.482H247.052L243.776 209.5ZM248.518 200.5H250.03V209.5H248.518V200.5ZM249.292 199.033C249.052 199.033 248.851 198.955 248.689 198.799C248.527 198.643 248.446 198.448 248.446 198.214C248.446 197.98 248.527 197.785 248.689 197.629C248.851 197.473 249.049 197.395 249.283 197.395C249.517 197.395 249.715 197.473 249.877 197.629C250.039 197.785 250.12 197.98 250.12 198.214C250.12 198.448 250.039 198.643 249.877 198.799C249.721 198.955 249.526 199.033 249.292 199.033ZM259.313 196H260.825V209.5H259.313V207.97C259.007 208.498 258.596 208.924 258.08 209.248C257.564 209.572 256.958 209.734 256.262 209.734C255.608 209.734 254.996 209.611 254.426 209.365C253.856 209.119 253.352 208.78 252.914 208.348C252.482 207.91 252.143 207.406 251.897 206.836C251.651 206.266 251.528 205.654 251.528 205C251.528 204.346 251.651 203.734 251.897 203.164C252.143 202.588 252.482 202.084 252.914 201.652C253.352 201.214 253.856 200.872 254.426 200.626C254.996 200.38 255.608 200.257 256.262 200.257C256.958 200.257 257.564 200.419 258.08 200.743C258.596 201.067 259.007 201.493 259.313 202.021V196ZM256.28 208.267C256.874 208.267 257.387 208.123 257.819 207.835C258.257 207.541 258.593 207.145 258.827 206.647C259.067 206.149 259.187 205.6 259.187 205C259.187 204.388 259.067 203.836 258.827 203.344C258.587 202.846 258.248 202.453 257.81 202.165C257.378 201.871 256.868 201.724 256.28 201.724C255.686 201.724 255.146 201.871 254.66 202.165C254.18 202.459 253.796 202.855 253.508 203.353C253.22 203.845 253.076 204.394 253.076 205C253.076 205.606 253.223 206.158 253.517 206.656C253.811 207.148 254.201 207.541 254.687 207.835C255.173 208.123 255.704 208.267 256.28 208.267ZM266.856 209.734C266.028 209.734 265.272 209.521 264.588 209.095C263.91 208.669 263.367 208.099 262.959 207.385C262.557 206.665 262.356 205.87 262.356 205C262.356 204.34 262.473 203.725 262.707 203.155C262.941 202.579 263.262 202.075 263.67 201.643C264.084 201.205 264.564 200.863 265.11 200.617C265.656 200.371 266.238 200.248 266.856 200.248C267.534 200.248 268.155 200.386 268.719 200.662C269.289 200.932 269.775 201.31 270.177 201.796C270.585 202.282 270.888 202.846 271.086 203.488C271.29 204.13 271.365 204.817 271.311 205.549H263.967C264.039 206.059 264.207 206.515 264.471 206.917C264.735 207.313 265.071 207.628 265.479 207.862C265.893 208.096 266.352 208.216 266.856 208.222C267.396 208.222 267.885 208.084 268.323 207.808C268.761 207.526 269.115 207.142 269.385 206.656L270.924 207.016C270.564 207.814 270.021 208.468 269.295 208.978C268.569 209.482 267.756 209.734 266.856 209.734ZM263.922 204.361H269.79C269.742 203.857 269.58 203.398 269.304 202.984C269.028 202.564 268.677 202.228 268.251 201.976C267.825 201.724 267.36 201.598 266.856 201.598C266.352 201.598 265.89 201.721 265.47 201.967C265.05 202.213 264.702 202.546 264.426 202.966C264.156 203.38 263.988 203.845 263.922 204.361ZM277.275 200.5H278.787V209.5H277.275V200.5ZM278.049 199.033C277.809 199.033 277.608 198.955 277.446 198.799C277.284 198.643 277.203 198.448 277.203 198.214C277.203 197.98 277.284 197.785 277.446 197.629C277.608 197.473 277.806 197.395 278.04 197.395C278.274 197.395 278.472 197.473 278.634 197.629C278.796 197.785 278.877 197.98 278.877 198.214C278.877 198.448 278.796 198.643 278.634 198.799C278.478 198.955 278.283 199.033 278.049 199.033ZM288.87 203.902V209.5H287.358V204.235C287.358 203.779 287.247 203.365 287.025 202.993C286.803 202.621 286.506 202.327 286.134 202.111C285.762 201.889 285.348 201.778 284.892 201.778C284.442 201.778 284.028 201.889 283.65 202.111C283.278 202.327 282.981 202.621 282.759 202.993C282.537 203.365 282.426 203.779 282.426 204.235V209.5H280.914V200.5H282.426V201.625C282.744 201.205 283.146 200.872 283.632 200.626C284.118 200.374 284.646 200.248 285.216 200.248C285.888 200.248 286.5 200.413 287.052 200.743C287.61 201.067 288.051 201.505 288.375 202.057C288.705 202.609 288.87 203.224 288.87 203.902ZM290.67 203.344H296.43V204.856H290.67V203.344ZM305.843 196H307.355V209.5H305.843V207.97C305.537 208.498 305.126 208.924 304.61 209.248C304.094 209.572 303.488 209.734 302.792 209.734C302.138 209.734 301.526 209.611 300.956 209.365C300.386 209.119 299.882 208.78 299.444 208.348C299.012 207.91 298.673 207.406 298.427 206.836C298.181 206.266 298.058 205.654 298.058 205C298.058 204.346 298.181 203.734 298.427 203.164C298.673 202.588 299.012 202.084 299.444 201.652C299.882 201.214 300.386 200.872 300.956 200.626C301.526 200.38 302.138 200.257 302.792 200.257C303.488 200.257 304.094 200.419 304.61 200.743C305.126 201.067 305.537 201.493 305.843 202.021V196ZM302.81 208.267C303.404 208.267 303.917 208.123 304.349 207.835C304.787 207.541 305.123 207.145 305.357 206.647C305.597 206.149 305.717 205.6 305.717 205C305.717 204.388 305.597 203.836 305.357 203.344C305.117 202.846 304.778 202.453 304.34 202.165C303.908 201.871 303.398 201.724 302.81 201.724C302.216 201.724 301.676 201.871 301.19 202.165C300.71 202.459 300.326 202.855 300.038 203.353C299.75 203.845 299.606 204.394 299.606 205C299.606 205.606 299.753 206.158 300.047 206.656C300.341 207.148 300.731 207.541 301.217 207.835C301.703 208.123 302.234 208.267 302.81 208.267ZM313.386 209.734C312.558 209.734 311.802 209.521 311.118 209.095C310.44 208.669 309.897 208.099 309.489 207.385C309.087 206.665 308.886 205.87 308.886 205C308.886 204.34 309.003 203.725 309.237 203.155C309.471 202.579 309.792 202.075 310.2 201.643C310.614 201.205 311.094 200.863 311.64 200.617C312.186 200.371 312.768 200.248 313.386 200.248C314.064 200.248 314.685 200.386 315.249 200.662C315.819 200.932 316.305 201.31 316.707 201.796C317.115 202.282 317.418 202.846 317.616 203.488C317.82 204.13 317.895 204.817 317.841 205.549H310.497C310.569 206.059 310.737 206.515 311.001 206.917C311.265 207.313 311.601 207.628 312.009 207.862C312.423 208.096 312.882 208.216 313.386 208.222C313.926 208.222 314.415 208.084 314.853 207.808C315.291 207.526 315.645 207.142 315.915 206.656L317.454 207.016C317.094 207.814 316.551 208.468 315.825 208.978C315.099 209.482 314.286 209.734 313.386 209.734ZM310.452 204.361H316.32C316.272 203.857 316.11 203.398 315.834 202.984C315.558 202.564 315.207 202.228 314.781 201.976C314.355 201.724 313.89 201.598 313.386 201.598C312.882 201.598 312.42 201.721 312 201.967C311.58 202.213 311.232 202.546 310.956 202.966C310.686 203.38 310.518 203.845 310.452 204.361ZM320.869 214H319.357V200.5H320.869V202.039C321.175 201.511 321.583 201.085 322.093 200.761C322.603 200.431 323.209 200.266 323.911 200.266C324.565 200.266 325.177 200.389 325.747 200.635C326.323 200.881 326.827 201.223 327.259 201.661C327.691 202.093 328.03 202.594 328.276 203.164C328.522 203.734 328.645 204.346 328.645 205C328.645 205.654 328.522 206.269 328.276 206.845C328.03 207.421 327.691 207.928 327.259 208.366C326.827 208.798 326.323 209.137 325.747 209.383C325.177 209.629 324.565 209.752 323.911 209.752C323.209 209.752 322.603 209.59 322.093 209.266C321.583 208.936 321.175 208.507 320.869 207.979V214ZM323.893 201.733C323.311 201.733 322.801 201.88 322.363 202.174C321.925 202.468 321.586 202.861 321.346 203.353C321.112 203.845 320.995 204.394 320.995 205C320.995 205.6 321.112 206.149 321.346 206.647C321.586 207.145 321.922 207.541 322.354 207.835C322.792 208.129 323.305 208.276 323.893 208.276C324.475 208.276 325.009 208.132 325.495 207.844C325.981 207.55 326.371 207.157 326.665 206.665C326.959 206.167 327.106 205.612 327.106 205C327.106 204.4 326.962 203.854 326.674 203.362C326.386 202.864 325.999 202.468 325.513 202.174C325.027 201.88 324.487 201.733 323.893 201.733ZM334.707 202.012H332.664L332.655 209.5H331.143L331.152 202.012H329.604V200.5H331.152L331.143 197.674H332.655L332.664 200.5H334.707V202.012ZM344.276 203.902V209.5H342.764V204.235C342.764 203.779 342.653 203.365 342.431 202.993C342.209 202.621 341.912 202.327 341.54 202.111C341.168 201.889 340.754 201.778 340.298 201.778C339.848 201.778 339.434 201.889 339.056 202.111C338.684 202.327 338.387 202.621 338.165 202.993C337.943 203.365 337.832 203.779 337.832 204.235V209.5H336.32V196H337.832V201.625C338.15 201.205 338.552 200.872 339.038 200.626C339.524 200.374 340.052 200.248 340.622 200.248C341.294 200.248 341.906 200.413 342.458 200.743C343.016 201.067 343.457 201.505 343.781 202.057C344.111 202.609 344.276 203.224 344.276 203.902ZM350.4 200.5H351.912V209.5H350.4V200.5ZM351.174 199.033C350.934 199.033 350.733 198.955 350.571 198.799C350.409 198.643 350.328 198.448 350.328 198.214C350.328 197.98 350.409 197.785 350.571 197.629C350.733 197.473 350.931 197.395 351.165 197.395C351.399 197.395 351.597 197.473 351.759 197.629C351.921 197.785 352.002 197.98 352.002 198.214C352.002 198.448 351.921 198.643 351.759 198.799C351.603 198.955 351.408 199.033 351.174 199.033ZM361.995 203.902V209.5H360.483V204.235C360.483 203.779 360.372 203.365 360.15 202.993C359.928 202.621 359.631 202.327 359.259 202.111C358.887 201.889 358.473 201.778 358.017 201.778C357.567 201.778 357.153 201.889 356.775 202.111C356.403 202.327 356.106 202.621 355.884 202.993C355.662 203.365 355.551 203.779 355.551 204.235V209.5H354.039V200.5H355.551V201.625C355.869 201.205 356.271 200.872 356.757 200.626C357.243 200.374 357.771 200.248 358.341 200.248C359.013 200.248 359.625 200.413 360.177 200.743C360.735 201.067 361.176 201.505 361.5 202.057C361.83 202.609 361.995 203.224 361.995 203.902ZM366.54 209.671C366.054 209.653 365.58 209.563 365.118 209.401C364.662 209.233 364.26 209.008 363.912 208.726C363.57 208.438 363.321 208.108 363.165 207.736L364.461 207.178C364.551 207.382 364.713 207.574 364.947 207.754C365.181 207.934 365.451 208.078 365.757 208.186C366.063 208.294 366.372 208.348 366.684 208.348C367.014 208.348 367.323 208.297 367.611 208.195C367.899 208.093 368.133 207.943 368.313 207.745C368.499 207.541 368.592 207.298 368.592 207.016C368.592 206.716 368.49 206.482 368.286 206.314C368.088 206.14 367.836 206.005 367.53 205.909C367.23 205.807 366.924 205.711 366.612 205.621C365.994 205.465 365.442 205.279 364.956 205.063C364.47 204.841 364.086 204.562 363.804 204.226C363.528 203.884 363.39 203.449 363.39 202.921C363.39 202.363 363.543 201.88 363.849 201.472C364.161 201.064 364.569 200.749 365.073 200.527C365.577 200.305 366.117 200.194 366.693 200.194C367.419 200.194 368.082 200.35 368.682 200.662C369.282 200.974 369.729 201.397 370.023 201.931L368.808 202.642C368.706 202.426 368.55 202.237 368.34 202.075C368.13 201.907 367.89 201.775 367.62 201.679C367.35 201.583 367.074 201.532 366.792 201.526C366.444 201.514 366.117 201.559 365.811 201.661C365.511 201.763 365.268 201.919 365.082 202.129C364.902 202.333 364.812 202.588 364.812 202.894C364.812 203.194 364.908 203.422 365.1 203.578C365.298 203.734 365.553 203.86 365.865 203.956C366.183 204.046 366.528 204.151 366.9 204.271C367.446 204.445 367.956 204.646 368.43 204.874C368.904 205.102 369.285 205.387 369.573 205.729C369.867 206.071 370.011 206.494 370.005 206.998C370.005 207.55 369.84 208.033 369.51 208.447C369.18 208.855 368.751 209.167 368.223 209.383C367.701 209.599 367.14 209.695 366.54 209.671ZM371.424 200.5H372.936V209.5H371.424V200.5ZM372.198 199.033C371.958 199.033 371.757 198.955 371.595 198.799C371.433 198.643 371.352 198.448 371.352 198.214C371.352 197.98 371.433 197.785 371.595 197.629C371.757 197.473 371.955 197.395 372.189 197.395C372.423 197.395 372.621 197.473 372.783 197.629C372.945 197.785 373.026 197.98 373.026 198.214C373.026 198.448 372.945 198.643 372.783 198.799C372.627 198.955 372.432 199.033 372.198 199.033ZM382.004 200.5H383.516V209.788C383.516 210.382 383.387 210.934 383.129 211.444C382.877 211.96 382.535 212.407 382.103 212.785C381.671 213.169 381.179 213.466 380.627 213.676C380.075 213.892 379.499 214 378.899 214C378.275 214 377.672 213.859 377.09 213.577C376.508 213.301 375.998 212.929 375.56 212.461C375.128 211.999 374.816 211.48 374.624 210.904L376.01 210.274C376.124 210.688 376.328 211.06 376.622 211.39C376.922 211.726 377.27 211.99 377.666 212.182C378.068 212.38 378.479 212.479 378.899 212.479C379.295 212.479 379.676 212.41 380.042 212.272C380.414 212.134 380.747 211.942 381.041 211.696C381.341 211.456 381.575 211.171 381.743 210.841C381.917 210.517 382.004 210.166 382.004 209.788V207.997C381.698 208.513 381.293 208.933 380.789 209.257C380.291 209.575 379.709 209.734 379.043 209.734C378.407 209.734 377.81 209.611 377.252 209.365C376.694 209.119 376.205 208.78 375.785 208.348C375.365 207.91 375.035 207.406 374.795 206.836C374.555 206.266 374.435 205.654 374.435 205C374.435 204.346 374.555 203.734 374.795 203.164C375.035 202.588 375.365 202.084 375.785 201.652C376.205 201.214 376.694 200.872 377.252 200.626C377.81 200.38 378.407 200.257 379.043 200.257C379.709 200.257 380.291 200.416 380.789 200.734C381.293 201.052 381.698 201.472 382.004 201.994V200.5ZM379.052 208.267C379.634 208.267 380.138 208.117 380.564 207.817C380.996 207.517 381.329 207.118 381.563 206.62C381.797 206.122 381.914 205.582 381.914 205C381.914 204.4 381.794 203.854 381.554 203.362C381.32 202.864 380.987 202.468 380.555 202.174C380.129 201.874 379.628 201.724 379.052 201.724C378.488 201.724 377.972 201.871 377.504 202.165C377.036 202.459 376.664 202.855 376.388 203.353C376.118 203.845 375.983 204.394 375.983 205C375.983 205.606 376.121 206.158 376.397 206.656C376.679 207.148 377.051 207.541 377.513 207.835C377.981 208.123 378.494 208.267 379.052 208.267ZM393.636 203.902V209.5H392.124V204.235C392.124 203.779 392.013 203.365 391.791 202.993C391.569 202.621 391.272 202.327 390.9 202.111C390.528 201.889 390.114 201.778 389.658 201.778C389.208 201.778 388.794 201.889 388.416 202.111C388.044 202.327 387.747 202.621 387.525 202.993C387.303 203.365 387.192 203.779 387.192 204.235V209.5H385.68V196H387.192V201.625C387.51 201.205 387.912 200.872 388.398 200.626C388.884 200.374 389.412 200.248 389.982 200.248C390.654 200.248 391.266 200.413 391.818 200.743C392.376 201.067 392.817 201.505 393.141 202.057C393.471 202.609 393.636 203.224 393.636 203.902ZM400.097 202.012H398.054L398.045 209.5H396.533L396.542 202.012H394.994V200.5H396.542L396.533 197.674H398.045L398.054 200.5H400.097V202.012ZM404.368 209.671C403.882 209.653 403.408 209.563 402.946 209.401C402.49 209.233 402.088 209.008 401.74 208.726C401.398 208.438 401.149 208.108 400.993 207.736L402.289 207.178C402.379 207.382 402.541 207.574 402.775 207.754C403.009 207.934 403.279 208.078 403.585 208.186C403.891 208.294 404.2 208.348 404.512 208.348C404.842 208.348 405.151 208.297 405.439 208.195C405.727 208.093 405.961 207.943 406.141 207.745C406.327 207.541 406.42 207.298 406.42 207.016C406.42 206.716 406.318 206.482 406.114 206.314C405.916 206.14 405.664 206.005 405.358 205.909C405.058 205.807 404.752 205.711 404.44 205.621C403.822 205.465 403.27 205.279 402.784 205.063C402.298 204.841 401.914 204.562 401.632 204.226C401.356 203.884 401.218 203.449 401.218 202.921C401.218 202.363 401.371 201.88 401.677 201.472C401.989 201.064 402.397 200.749 402.901 200.527C403.405 200.305 403.945 200.194 404.521 200.194C405.247 200.194 405.91 200.35 406.51 200.662C407.11 200.974 407.557 201.397 407.851 201.931L406.636 202.642C406.534 202.426 406.378 202.237 406.168 202.075C405.958 201.907 405.718 201.775 405.448 201.679C405.178 201.583 404.902 201.532 404.62 201.526C404.272 201.514 403.945 201.559 403.639 201.661C403.339 201.763 403.096 201.919 402.91 202.129C402.73 202.333 402.64 202.588 402.64 202.894C402.64 203.194 402.736 203.422 402.928 203.578C403.126 203.734 403.381 203.86 403.693 203.956C404.011 204.046 404.356 204.151 404.728 204.271C405.274 204.445 405.784 204.646 406.258 204.874C406.732 205.102 407.113 205.387 407.401 205.729C407.695 206.071 407.839 206.494 407.833 206.998C407.833 207.55 407.668 208.033 407.338 208.447C407.008 208.855 406.579 209.167 406.051 209.383C405.529 209.599 404.968 209.695 404.368 209.671ZM413.699 200.5H415.211V209.5H413.699V200.5ZM414.473 199.033C414.233 199.033 414.032 198.955 413.87 198.799C413.708 198.643 413.627 198.448 413.627 198.214C413.627 197.98 413.708 197.785 413.87 197.629C414.032 197.473 414.23 197.395 414.464 197.395C414.698 197.395 414.896 197.473 415.058 197.629C415.22 197.785 415.301 197.98 415.301 198.214C415.301 198.448 415.22 198.643 415.058 198.799C414.902 198.955 414.707 199.033 414.473 199.033ZM425.294 203.902V209.5H423.782V204.235C423.782 203.779 423.671 203.365 423.449 202.993C423.227 202.621 422.93 202.327 422.558 202.111C422.186 201.889 421.772 201.778 421.316 201.778C420.866 201.778 420.452 201.889 420.074 202.111C419.702 202.327 419.405 202.621 419.183 202.993C418.961 203.365 418.85 203.779 418.85 204.235V209.5H417.338V200.5H418.85V201.625C419.168 201.205 419.57 200.872 420.056 200.626C420.542 200.374 421.07 200.248 421.64 200.248C422.312 200.248 422.924 200.413 423.476 200.743C424.034 201.067 424.475 201.505 424.799 202.057C425.129 202.609 425.294 203.224 425.294 203.902ZM431.756 202.012H429.713L429.704 209.5H428.192L428.201 202.012H426.653V200.5H428.201L428.192 197.674H429.704L429.713 200.5H431.756V202.012ZM437.101 209.734C436.273 209.734 435.517 209.521 434.833 209.095C434.155 208.669 433.612 208.099 433.204 207.385C432.802 206.665 432.601 205.87 432.601 205C432.601 204.34 432.718 203.725 432.952 203.155C433.186 202.579 433.507 202.075 433.915 201.643C434.329 201.205 434.809 200.863 435.355 200.617C435.901 200.371 436.483 200.248 437.101 200.248C437.929 200.248 438.682 200.461 439.36 200.887C440.044 201.313 440.587 201.886 440.989 202.606C441.397 203.326 441.601 204.124 441.601 205C441.601 205.654 441.484 206.266 441.25 206.836C441.016 207.406 440.692 207.91 440.278 208.348C439.87 208.78 439.393 209.119 438.847 209.365C438.307 209.611 437.725 209.734 437.101 209.734ZM437.101 208.222C437.665 208.222 438.172 208.075 438.622 207.781C439.078 207.481 439.435 207.088 439.693 206.602C439.957 206.11 440.089 205.576 440.089 205C440.089 204.412 439.954 203.872 439.684 203.38C439.42 202.888 439.063 202.495 438.613 202.201C438.163 201.907 437.659 201.76 437.101 201.76C436.537 201.76 436.03 201.91 435.58 202.21C435.13 202.504 434.773 202.897 434.509 203.389C434.245 203.881 434.113 204.418 434.113 205C434.113 205.6 434.248 206.146 434.518 206.638C434.788 207.124 435.151 207.511 435.607 207.799C436.063 208.081 436.561 208.222 437.101 208.222ZM51.08 236.5V227.5H52.592V228.625C52.91 228.205 53.312 227.872 53.798 227.626C54.284 227.374 54.812 227.248 55.382 227.248C55.73 227.248 56.066 227.293 56.39 227.383L55.778 228.895C55.532 228.817 55.292 228.778 55.058 228.778C54.608 228.778 54.194 228.889 53.816 229.111C53.444 229.327 53.147 229.621 52.925 229.993C52.703 230.365 52.592 230.779 52.592 231.235V236.5H51.08ZM60.999 236.734C60.171 236.734 59.415 236.521 58.731 236.095C58.053 235.669 57.51 235.099 57.102 234.385C56.7 233.665 56.499 232.87 56.499 232C56.499 231.34 56.616 230.725 56.85 230.155C57.084 229.579 57.405 229.075 57.813 228.643C58.227 228.205 58.707 227.863 59.253 227.617C59.799 227.371 60.381 227.248 60.999 227.248C61.677 227.248 62.298 227.386 62.862 227.662C63.432 227.932 63.918 228.31 64.32 228.796C64.728 229.282 65.031 229.846 65.229 230.488C65.433 231.13 65.508 231.817 65.454 232.549H58.11C58.182 233.059 58.35 233.515 58.614 233.917C58.878 234.313 59.214 234.628 59.622 234.862C60.036 235.096 60.495 235.216 60.999 235.222C61.539 235.222 62.028 235.084 62.466 234.808C62.904 234.526 63.258 234.142 63.528 233.656L65.067 234.016C64.707 234.814 64.164 235.468 63.438 235.978C62.712 236.482 61.899 236.734 60.999 236.734ZM58.065 231.361H63.933C63.885 230.857 63.723 230.398 63.447 229.984C63.171 229.564 62.82 229.228 62.394 228.976C61.968 228.724 61.503 228.598 60.999 228.598C60.495 228.598 60.033 228.721 59.613 228.967C59.193 229.213 58.845 229.546 58.569 229.966C58.299 230.38 58.131 230.845 58.065 231.361ZM74.1539 227.5H75.6659V236.5H74.1539L74.0909 234.979C73.8089 235.501 73.4189 235.924 72.9209 236.248C72.4289 236.572 71.8409 236.734 71.1569 236.734C70.4969 236.734 69.8789 236.611 69.3029 236.365C68.7269 236.113 68.2169 235.768 67.7729 235.33C67.3349 234.886 66.9929 234.376 66.7469 233.8C66.5009 233.224 66.3779 232.603 66.3779 231.937C66.3779 231.295 66.4979 230.689 66.7379 230.119C66.9779 229.549 67.3109 229.051 67.7369 228.625C68.1689 228.193 68.6669 227.857 69.2309 227.617C69.7949 227.371 70.4009 227.248 71.0489 227.248C71.7569 227.248 72.3779 227.416 72.9119 227.752C73.4459 228.082 73.8779 228.511 74.2079 229.039L74.1539 227.5ZM71.1299 235.267C71.7239 235.267 72.2369 235.123 72.6689 234.835C73.1069 234.541 73.4429 234.145 73.6769 233.647C73.9169 233.149 74.0369 232.6 74.0369 232C74.0369 231.388 73.9169 230.836 73.6769 230.344C73.4369 229.846 73.0979 229.453 72.6599 229.165C72.2279 228.871 71.7179 228.724 71.1299 228.724C70.5359 228.724 69.9959 228.871 69.5099 229.165C69.0239 229.459 68.6369 229.855 68.3489 230.353C68.0669 230.845 67.9259 231.394 67.9259 232C67.9259 232.606 68.0729 233.158 68.3669 233.656C68.6609 234.148 69.0509 234.541 69.5369 234.835C70.0229 235.123 70.5539 235.267 71.1299 235.267ZM77.5702 236.5V223H79.0822V236.5H77.5702ZM89.5283 236.734C88.7003 236.734 87.9443 236.521 87.2603 236.095C86.5823 235.669 86.0393 235.099 85.6313 234.385C85.2293 233.665 85.0283 232.87 85.0283 232C85.0283 231.34 85.1453 230.725 85.3793 230.155C85.6133 229.579 85.9343 229.075 86.3423 228.643C86.7563 228.205 87.2363 227.863 87.7823 227.617C88.3283 227.371 88.9103 227.248 89.5283 227.248C90.2063 227.248 90.8273 227.386 91.3913 227.662C91.9613 227.932 92.4473 228.31 92.8493 228.796C93.2573 229.282 93.5603 229.846 93.7583 230.488C93.9623 231.13 94.0373 231.817 93.9833 232.549H86.6393C86.7113 233.059 86.8793 233.515 87.1433 233.917C87.4073 234.313 87.7433 234.628 88.1513 234.862C88.5653 235.096 89.0243 235.216 89.5283 235.222C90.0683 235.222 90.5573 235.084 90.9953 234.808C91.4333 234.526 91.7873 234.142 92.0573 233.656L93.5963 234.016C93.2363 234.814 92.6933 235.468 91.9673 235.978C91.2413 236.482 90.4283 236.734 89.5283 236.734ZM86.5943 231.361H92.4623C92.4143 230.857 92.2523 230.398 91.9763 229.984C91.7003 229.564 91.3493 229.228 90.9233 228.976C90.4973 228.724 90.0323 228.598 89.5283 228.598C89.0243 228.598 88.5623 228.721 88.1423 228.967C87.7223 229.213 87.3743 229.546 87.0983 229.966C86.8283 230.38 86.6603 230.845 86.5943 231.361ZM98.2801 236.671C97.7941 236.653 97.3201 236.563 96.8581 236.401C96.4021 236.233 96.0001 236.008 95.6521 235.726C95.3101 235.438 95.0611 235.108 94.9051 234.736L96.2011 234.178C96.2911 234.382 96.4531 234.574 96.6871 234.754C96.9211 234.934 97.1911 235.078 97.4971 235.186C97.8031 235.294 98.1121 235.348 98.4241 235.348C98.7541 235.348 99.0631 235.297 99.3511 235.195C99.6391 235.093 99.8731 234.943 100.053 234.745C100.239 234.541 100.332 234.298 100.332 234.016C100.332 233.716 100.23 233.482 100.026 233.314C99.8281 233.14 99.5761 233.005 99.2701 232.909C98.9701 232.807 98.6641 232.711 98.3521 232.621C97.7341 232.465 97.1821 232.279 96.6961 232.063C96.2101 231.841 95.8261 231.562 95.5441 231.226C95.2681 230.884 95.1301 230.449 95.1301 229.921C95.1301 229.363 95.2831 228.88 95.5891 228.472C95.9011 228.064 96.3091 227.749 96.8131 227.527C97.3171 227.305 97.8571 227.194 98.4331 227.194C99.1591 227.194 99.8221 227.35 100.422 227.662C101.022 227.974 101.469 228.397 101.763 228.931L100.548 229.642C100.446 229.426 100.29 229.237 100.08 229.075C99.8701 228.907 99.6301 228.775 99.3601 228.679C99.0901 228.583 98.8141 228.532 98.5321 228.526C98.1841 228.514 97.8571 228.559 97.5511 228.661C97.2511 228.763 97.0081 228.919 96.8221 229.129C96.6421 229.333 96.5521 229.588 96.5521 229.894C96.5521 230.194 96.6481 230.422 96.8401 230.578C97.0381 230.734 97.2931 230.86 97.6051 230.956C97.9231 231.046 98.2681 231.151 98.6401 231.271C99.1861 231.445 99.6961 231.646 100.17 231.874C100.644 232.102 101.025 232.387 101.313 232.729C101.607 233.071 101.751 233.494 101.745 233.998C101.745 234.55 101.58 235.033 101.25 235.447C100.92 235.855 100.491 236.167 99.9631 236.383C99.4411 236.599 98.8801 236.695 98.2801 236.671ZM107.949 229.012H105.906L105.897 236.5H104.385L104.394 229.012H102.846V227.5H104.394L104.385 224.674H105.897L105.906 227.5H107.949V229.012ZM116.57 227.5H118.082V236.5H116.57L116.507 234.979C116.225 235.501 115.835 235.924 115.337 236.248C114.845 236.572 114.257 236.734 113.573 236.734C112.913 236.734 112.295 236.611 111.719 236.365C111.143 236.113 110.633 235.768 110.189 235.33C109.751 234.886 109.409 234.376 109.163 233.8C108.917 233.224 108.794 232.603 108.794 231.937C108.794 231.295 108.914 230.689 109.154 230.119C109.394 229.549 109.727 229.051 110.153 228.625C110.585 228.193 111.083 227.857 111.647 227.617C112.211 227.371 112.817 227.248 113.465 227.248C114.173 227.248 114.794 227.416 115.328 227.752C115.862 228.082 116.294 228.511 116.624 229.039L116.57 227.5ZM113.546 235.267C114.14 235.267 114.653 235.123 115.085 234.835C115.523 234.541 115.859 234.145 116.093 233.647C116.333 233.149 116.453 232.6 116.453 232C116.453 231.388 116.333 230.836 116.093 230.344C115.853 229.846 115.514 229.453 115.076 229.165C114.644 228.871 114.134 228.724 113.546 228.724C112.952 228.724 112.412 228.871 111.926 229.165C111.44 229.459 111.053 229.855 110.765 230.353C110.483 230.845 110.342 231.394 110.342 232C110.342 232.606 110.489 233.158 110.783 233.656C111.077 234.148 111.467 234.541 111.953 234.835C112.439 235.123 112.97 235.267 113.546 235.267ZM124.543 229.012H122.5L122.491 236.5H120.979L120.988 229.012H119.44V227.5H120.988L120.979 224.674H122.491L122.5 227.5H124.543V229.012ZM129.888 236.734C129.06 236.734 128.304 236.521 127.62 236.095C126.942 235.669 126.399 235.099 125.991 234.385C125.589 233.665 125.388 232.87 125.388 232C125.388 231.34 125.505 230.725 125.739 230.155C125.973 229.579 126.294 229.075 126.702 228.643C127.116 228.205 127.596 227.863 128.142 227.617C128.688 227.371 129.27 227.248 129.888 227.248C130.566 227.248 131.187 227.386 131.751 227.662C132.321 227.932 132.807 228.31 133.209 228.796C133.617 229.282 133.92 229.846 134.118 230.488C134.322 231.13 134.397 231.817 134.343 232.549H126.999C127.071 233.059 127.239 233.515 127.503 233.917C127.767 234.313 128.103 234.628 128.511 234.862C128.925 235.096 129.384 235.216 129.888 235.222C130.428 235.222 130.917 235.084 131.355 234.808C131.793 234.526 132.147 234.142 132.417 233.656L133.956 234.016C133.596 234.814 133.053 235.468 132.327 235.978C131.601 236.482 130.788 236.734 129.888 236.734ZM126.954 231.361H132.822C132.774 230.857 132.612 230.398 132.336 229.984C132.06 229.564 131.709 229.228 131.283 228.976C130.857 228.724 130.392 228.598 129.888 228.598C129.384 228.598 128.922 228.721 128.502 228.967C128.082 229.213 127.734 229.546 127.458 229.966C127.188 230.38 127.02 230.845 126.954 231.361ZM140.307 236.5V227.5H141.819V228.625C142.137 228.205 142.536 227.872 143.016 227.626C143.502 227.374 144.03 227.248 144.6 227.248C145.266 227.248 145.875 227.41 146.427 227.734C146.979 228.058 147.414 228.487 147.732 229.021C148.05 228.487 148.482 228.058 149.028 227.734C149.58 227.41 150.186 227.248 150.846 227.248C151.524 227.248 152.139 227.413 152.691 227.743C153.243 228.067 153.681 228.505 154.005 229.057C154.335 229.609 154.5 230.224 154.5 230.902V236.5H152.988V231.262C152.988 230.818 152.88 230.407 152.664 230.029C152.448 229.651 152.157 229.348 151.791 229.12C151.425 228.892 151.02 228.778 150.576 228.778C150.132 228.778 149.727 228.886 149.361 229.102C148.995 229.312 148.704 229.606 148.488 229.984C148.272 230.356 148.164 230.782 148.164 231.262V236.5H146.652V231.262C146.652 230.782 146.544 230.356 146.328 229.984C146.112 229.606 145.818 229.312 145.446 229.102C145.08 228.886 144.675 228.778 144.231 228.778C143.793 228.778 143.388 228.892 143.016 229.12C142.65 229.348 142.359 229.651 142.143 230.029C141.927 230.407 141.819 230.818 141.819 231.262V236.5H140.307ZM163.363 227.5H164.875V236.5H163.363L163.3 234.979C163.018 235.501 162.628 235.924 162.13 236.248C161.638 236.572 161.05 236.734 160.366 236.734C159.706 236.734 159.088 236.611 158.512 236.365C157.936 236.113 157.426 235.768 156.982 235.33C156.544 234.886 156.202 234.376 155.956 233.8C155.71 233.224 155.587 232.603 155.587 231.937C155.587 231.295 155.707 230.689 155.947 230.119C156.187 229.549 156.52 229.051 156.946 228.625C157.378 228.193 157.876 227.857 158.44 227.617C159.004 227.371 159.61 227.248 160.258 227.248C160.966 227.248 161.587 227.416 162.121 227.752C162.655 228.082 163.087 228.511 163.417 229.039L163.363 227.5ZM160.339 235.267C160.933 235.267 161.446 235.123 161.878 234.835C162.316 234.541 162.652 234.145 162.886 233.647C163.126 233.149 163.246 232.6 163.246 232C163.246 231.388 163.126 230.836 162.886 230.344C162.646 229.846 162.307 229.453 161.869 229.165C161.437 228.871 160.927 228.724 160.339 228.724C159.745 228.724 159.205 228.871 158.719 229.165C158.233 229.459 157.846 229.855 157.558 230.353C157.276 230.845 157.135 231.394 157.135 232C157.135 232.606 157.282 233.158 157.576 233.656C157.87 234.148 158.26 234.541 158.746 234.835C159.232 235.123 159.763 235.267 160.339 235.267ZM166.674 236.5V227.5H168.186V228.625C168.504 228.205 168.906 227.872 169.392 227.626C169.878 227.374 170.406 227.248 170.976 227.248C171.324 227.248 171.66 227.293 171.984 227.383L171.372 228.895C171.126 228.817 170.886 228.778 170.652 228.778C170.202 228.778 169.788 228.889 169.41 229.111C169.038 229.327 168.741 229.621 168.519 229.993C168.297 230.365 168.186 230.779 168.186 231.235V236.5H166.674ZM180.336 236.5H178.599L176.205 232.369L174.549 234.349V236.5H173.037V223H174.549V232L178.32 227.5H180.291L177.231 231.145L180.336 236.5ZM185.347 236.734C184.519 236.734 183.763 236.521 183.079 236.095C182.401 235.669 181.858 235.099 181.45 234.385C181.048 233.665 180.847 232.87 180.847 232C180.847 231.34 180.964 230.725 181.198 230.155C181.432 229.579 181.753 229.075 182.161 228.643C182.575 228.205 183.055 227.863 183.601 227.617C184.147 227.371 184.729 227.248 185.347 227.248C186.025 227.248 186.646 227.386 187.21 227.662C187.78 227.932 188.266 228.31 188.668 228.796C189.076 229.282 189.379 229.846 189.577 230.488C189.781 231.13 189.856 231.817 189.802 232.549H182.458C182.53 233.059 182.698 233.515 182.962 233.917C183.226 234.313 183.562 234.628 183.97 234.862C184.384 235.096 184.843 235.216 185.347 235.222C185.887 235.222 186.376 235.084 186.814 234.808C187.252 234.526 187.606 234.142 187.876 233.656L189.415 234.016C189.055 234.814 188.512 235.468 187.786 235.978C187.06 236.482 186.247 236.734 185.347 236.734ZM182.413 231.361H188.281C188.233 230.857 188.071 230.398 187.795 229.984C187.519 229.564 187.168 229.228 186.742 228.976C186.316 228.724 185.851 228.598 185.347 228.598C184.843 228.598 184.381 228.721 183.961 228.967C183.541 229.213 183.193 229.546 182.917 229.966C182.647 230.38 182.479 230.845 182.413 231.361ZM195.875 229.012H193.832L193.823 236.5H192.311L192.32 229.012H190.772V227.5H192.32L192.311 224.674H193.823L193.832 227.5H195.875V229.012ZM208.013 234.124L209.363 234.853C208.955 235.423 208.436 235.879 207.806 236.221C207.182 236.563 206.504 236.734 205.772 236.734C204.944 236.734 204.188 236.521 203.504 236.095C202.826 235.669 202.283 235.099 201.875 234.385C201.473 233.665 201.272 232.87 201.272 232C201.272 231.34 201.389 230.725 201.623 230.155C201.857 229.579 202.178 229.075 202.586 228.643C203 228.205 203.48 227.863 204.026 227.617C204.572 227.371 205.154 227.248 205.772 227.248C206.504 227.248 207.182 227.419 207.806 227.761C208.436 228.103 208.955 228.562 209.363 229.138L208.013 229.867C207.725 229.513 207.383 229.24 206.987 229.048C206.591 228.856 206.186 228.76 205.772 228.76C205.214 228.76 204.707 228.91 204.251 229.21C203.801 229.504 203.444 229.897 203.18 230.389C202.916 230.881 202.784 231.418 202.784 232C202.784 232.582 202.916 233.119 203.18 233.611C203.45 234.097 203.81 234.487 204.26 234.781C204.716 235.075 205.22 235.222 205.772 235.222C206.216 235.222 206.633 235.12 207.023 234.916C207.413 234.712 207.743 234.448 208.013 234.124ZM214.79 236.734C213.962 236.734 213.206 236.521 212.522 236.095C211.844 235.669 211.301 235.099 210.893 234.385C210.491 233.665 210.29 232.87 210.29 232C210.29 231.34 210.407 230.725 210.641 230.155C210.875 229.579 211.196 229.075 211.604 228.643C212.018 228.205 212.498 227.863 213.044 227.617C213.59 227.371 214.172 227.248 214.79 227.248C215.618 227.248 216.371 227.461 217.049 227.887C217.733 228.313 218.276 228.886 218.678 229.606C219.086 230.326 219.29 231.124 219.29 232C219.29 232.654 219.173 233.266 218.939 233.836C218.705 234.406 218.381 234.91 217.967 235.348C217.559 235.78 217.082 236.119 216.536 236.365C215.996 236.611 215.414 236.734 214.79 236.734ZM214.79 235.222C215.354 235.222 215.861 235.075 216.311 234.781C216.767 234.481 217.124 234.088 217.382 233.602C217.646 233.11 217.778 232.576 217.778 232C217.778 231.412 217.643 230.872 217.373 230.38C217.109 229.888 216.752 229.495 216.302 229.201C215.852 228.907 215.348 228.76 214.79 228.76C214.226 228.76 213.719 228.91 213.269 229.21C212.819 229.504 212.462 229.897 212.198 230.389C211.934 230.881 211.802 231.418 211.802 232C211.802 232.6 211.937 233.146 212.207 233.638C212.477 234.124 212.84 234.511 213.296 234.799C213.752 235.081 214.25 235.222 214.79 235.222ZM228.735 230.902V236.5H227.223V231.235C227.223 230.779 227.112 230.365 226.89 229.993C226.668 229.621 226.371 229.327 225.999 229.111C225.627 228.889 225.213 228.778 224.757 228.778C224.307 228.778 223.893 228.889 223.515 229.111C223.143 229.327 222.846 229.621 222.624 229.993C222.402 230.365 222.291 230.779 222.291 231.235V236.5H220.779V227.5H222.291V228.625C222.609 228.205 223.011 227.872 223.497 227.626C223.983 227.374 224.511 227.248 225.081 227.248C225.753 227.248 226.365 227.413 226.917 227.743C227.475 228.067 227.916 228.505 228.24 229.057C228.57 229.609 228.735 230.224 228.735 230.902ZM237.604 223H239.116V236.5H237.604V234.97C237.298 235.498 236.887 235.924 236.371 236.248C235.855 236.572 235.249 236.734 234.553 236.734C233.899 236.734 233.287 236.611 232.717 236.365C232.147 236.119 231.643 235.78 231.205 235.348C230.773 234.91 230.434 234.406 230.188 233.836C229.942 233.266 229.819 232.654 229.819 232C229.819 231.346 229.942 230.734 230.188 230.164C230.434 229.588 230.773 229.084 231.205 228.652C231.643 228.214 232.147 227.872 232.717 227.626C233.287 227.38 233.899 227.257 234.553 227.257C235.249 227.257 235.855 227.419 236.371 227.743C236.887 228.067 237.298 228.493 237.604 229.021V223ZM234.571 235.267C235.165 235.267 235.678 235.123 236.11 234.835C236.548 234.541 236.884 234.145 237.118 233.647C237.358 233.149 237.478 232.6 237.478 232C237.478 231.388 237.358 230.836 237.118 230.344C236.878 229.846 236.539 229.453 236.101 229.165C235.669 228.871 235.159 228.724 234.571 228.724C233.977 228.724 233.437 228.871 232.951 229.165C232.471 229.459 232.087 229.855 231.799 230.353C231.511 230.845 231.367 231.394 231.367 232C231.367 232.606 231.514 233.158 231.808 233.656C232.102 234.148 232.492 234.541 232.978 234.835C233.464 235.123 233.995 235.267 234.571 235.267ZM241.275 227.5H242.787V236.5H241.275V227.5ZM242.049 226.033C241.809 226.033 241.608 225.955 241.446 225.799C241.284 225.643 241.203 225.448 241.203 225.214C241.203 224.98 241.284 224.785 241.446 224.629C241.608 224.473 241.806 224.395 242.04 224.395C242.274 224.395 242.472 224.473 242.634 224.629C242.796 224.785 242.877 224.98 242.877 225.214C242.877 225.448 242.796 225.643 242.634 225.799C242.478 225.955 242.283 226.033 242.049 226.033ZM249.611 229.012H247.568L247.559 236.5H246.047L246.056 229.012H244.508V227.5H246.056L246.047 224.674H247.559L247.568 227.5H249.611V229.012ZM251.137 227.5H252.649V236.5H251.137V227.5ZM251.911 226.033C251.671 226.033 251.47 225.955 251.308 225.799C251.146 225.643 251.065 225.448 251.065 225.214C251.065 224.98 251.146 224.785 251.308 224.629C251.47 224.473 251.668 224.395 251.902 224.395C252.136 224.395 252.334 224.473 252.496 224.629C252.658 224.785 252.739 224.98 252.739 225.214C252.739 225.448 252.658 225.643 252.496 225.799C252.34 225.955 252.145 226.033 251.911 226.033ZM258.647 236.734C257.819 236.734 257.063 236.521 256.379 236.095C255.701 235.669 255.158 235.099 254.75 234.385C254.348 233.665 254.147 232.87 254.147 232C254.147 231.34 254.264 230.725 254.498 230.155C254.732 229.579 255.053 229.075 255.461 228.643C255.875 228.205 256.355 227.863 256.901 227.617C257.447 227.371 258.029 227.248 258.647 227.248C259.475 227.248 260.228 227.461 260.906 227.887C261.59 228.313 262.133 228.886 262.535 229.606C262.943 230.326 263.147 231.124 263.147 232C263.147 232.654 263.03 233.266 262.796 233.836C262.562 234.406 262.238 234.91 261.824 235.348C261.416 235.78 260.939 236.119 260.393 236.365C259.853 236.611 259.271 236.734 258.647 236.734ZM258.647 235.222C259.211 235.222 259.718 235.075 260.168 234.781C260.624 234.481 260.981 234.088 261.239 233.602C261.503 233.11 261.635 232.576 261.635 232C261.635 231.412 261.5 230.872 261.23 230.38C260.966 229.888 260.609 229.495 260.159 229.201C259.709 228.907 259.205 228.76 258.647 228.76C258.083 228.76 257.576 228.91 257.126 229.21C256.676 229.504 256.319 229.897 256.055 230.389C255.791 230.881 255.659 231.418 255.659 232C255.659 232.6 255.794 233.146 256.064 233.638C256.334 234.124 256.697 234.511 257.153 234.799C257.609 235.081 258.107 235.222 258.647 235.222ZM272.593 230.902V236.5H271.081V231.235C271.081 230.779 270.97 230.365 270.748 229.993C270.526 229.621 270.229 229.327 269.857 229.111C269.485 228.889 269.071 228.778 268.615 228.778C268.165 228.778 267.751 228.889 267.373 229.111C267.001 229.327 266.704 229.621 266.482 229.993C266.26 230.365 266.149 230.779 266.149 231.235V236.5H264.637V227.5H266.149V228.625C266.467 228.205 266.869 227.872 267.355 227.626C267.841 227.374 268.369 227.248 268.939 227.248C269.611 227.248 270.223 227.413 270.775 227.743C271.333 228.067 271.774 228.505 272.098 229.057C272.428 229.609 272.593 230.224 272.593 230.902ZM277.138 236.671C276.652 236.653 276.178 236.563 275.716 236.401C275.26 236.233 274.858 236.008 274.51 235.726C274.168 235.438 273.919 235.108 273.763 234.736L275.059 234.178C275.149 234.382 275.311 234.574 275.545 234.754C275.779 234.934 276.049 235.078 276.355 235.186C276.661 235.294 276.97 235.348 277.282 235.348C277.612 235.348 277.921 235.297 278.209 235.195C278.497 235.093 278.731 234.943 278.911 234.745C279.097 234.541 279.19 234.298 279.19 234.016C279.19 233.716 279.088 233.482 278.884 233.314C278.686 233.14 278.434 233.005 278.128 232.909C277.828 232.807 277.522 232.711 277.21 232.621C276.592 232.465 276.04 232.279 275.554 232.063C275.068 231.841 274.684 231.562 274.402 231.226C274.126 230.884 273.988 230.449 273.988 229.921C273.988 229.363 274.141 228.88 274.447 228.472C274.759 228.064 275.167 227.749 275.671 227.527C276.175 227.305 276.715 227.194 277.291 227.194C278.017 227.194 278.68 227.35 279.28 227.662C279.88 227.974 280.327 228.397 280.621 228.931L279.406 229.642C279.304 229.426 279.148 229.237 278.938 229.075C278.728 228.907 278.488 228.775 278.218 228.679C277.948 228.583 277.672 228.532 277.39 228.526C277.042 228.514 276.715 228.559 276.409 228.661C276.109 228.763 275.866 228.919 275.68 229.129C275.5 229.333 275.41 229.588 275.41 229.894C275.41 230.194 275.506 230.422 275.698 230.578C275.896 230.734 276.151 230.86 276.463 230.956C276.781 231.046 277.126 231.151 277.498 231.271C278.044 231.445 278.554 231.646 279.028 231.874C279.502 232.102 279.883 232.387 280.171 232.729C280.465 233.071 280.609 233.494 280.603 233.998C280.603 234.55 280.438 235.033 280.108 235.447C279.778 235.855 279.349 236.167 278.821 236.383C278.299 236.599 277.738 236.695 277.138 236.671Z" fill="#999999"></path><defs><linearGradient id="paint0_linear_104_11826" x1="56.75" y1="137" x2="135.75" y2="45" gradientUnits="userSpaceOnUse"><stop stop-color="#A685FA"></stop><stop offset="0.323723" stop-color="#A685FA" stop-opacity="0"></stop></linearGradient><linearGradient id="paint1_linear_104_11826" x1="131.75" y1="40" x2="56.75" y2="132.5" gradientUnits="userSpaceOnUse"><stop stop-color="#A685FA"></stop><stop offset="0.576615" stop-color="#A685FA" stop-opacity="0"></stop></linearGradient><linearGradient id="paint2_linear_104_11826" x1="53.25" y1="64" x2="121.75" y2="122.5" gradientUnits="userSpaceOnUse"><stop stop-color="#A685FA"></stop><stop offset="0.323723" stop-color="#A685FA" stop-opacity="0"></stop></linearGradient><linearGradient id="paint3_linear_104_11826" x1="134.25" y1="136.5" x2="62.25" y2="85.5" gradientUnits="userSpaceOnUse"><stop stop-color="#A685FA"></stop><stop offset="0.576615" stop-color="#A685FA" stop-opacity="0"></stop></linearGradient></defs></svg>