<svg xmlns="http://www.w3.org/2000/svg" width="514" height="266" viewBox="0 0 514 266" fill="none"><rect x="0.5" y="0.5" width="512.667" height="265" rx="11.5" stroke="#262626"></rect><rect x="50.5" y="50.5" width="81" height="81" rx="40.5" stroke="url(#paint0_linear_104_11493)"></rect><rect x="50.5" y="50.5" width="81" height="81" rx="40.5" stroke="url(#paint1_linear_104_11493)"></rect><rect x="60.5" y="60.5" width="61" height="61" rx="30.5" stroke="url(#paint2_linear_104_11493)"></rect><rect x="60.5" y="60.5" width="61" height="61" rx="30.5" stroke="url(#paint3_linear_104_11493)"></rect><path d="M97.915 80.156C94.9808 81.3298 91.8383 82.0937 88.5576 82.3768C87.612 82.4584 86.6547 82.5 85.6875 82.5H84.625C80.5174 82.5 77.1875 85.8299 77.1875 89.9375C77.1875 93.6203 79.8642 96.6779 83.3783 97.271C83.8518 99.2104 84.5089 101.078 85.33 102.854C85.9874 104.276 87.7017 104.724 88.9887 103.981L89.9185 103.444C91.1653 102.724 91.5699 101.188 91.0123 99.9475C90.6796 99.2075 90.3826 98.448 90.1237 97.6711C92.84 98.0367 95.451 98.7333 97.915 99.719C98.9431 96.6458 99.5 93.3567 99.5 89.9375C99.5 86.5183 98.9431 83.2293 97.915 80.156Z" fill="#A685FA"></path><path d="M99.8692 79.2994C101.007 82.6366 101.625 86.2149 101.625 89.9375C101.625 93.6601 101.007 97.2384 99.8692 100.576C99.791 100.805 99.7107 101.033 99.6277 101.26C99.426 101.811 99.7092 102.421 100.26 102.623C100.811 102.824 101.421 102.541 101.623 101.99C101.822 101.448 102.007 100.9 102.179 100.346C102.921 97.9566 103.414 95.458 103.628 92.881C104.361 92.1182 104.812 91.0803 104.812 89.9375C104.812 88.7948 104.361 87.7569 103.628 86.9941C103.414 84.417 102.921 81.9184 102.179 79.5289C102.007 78.9748 101.822 78.4267 101.623 77.8848C101.421 77.3338 100.811 77.0506 100.26 77.2523C99.7092 77.454 99.426 78.0642 99.6277 78.6153C99.7107 78.8421 99.7911 79.0702 99.8692 79.2994Z" fill="#A685FA"></path><path d="M161.216 99.312C160.08 99.312 159.012 99.088 158.012 98.64C157.012 98.184 156.132 97.56 155.372 96.768C154.62 95.968 154.028 95.04 153.596 93.984C153.172 92.928 152.96 91.8 152.96 90.6C152.96 89.4 153.172 88.272 153.596 87.216C154.028 86.16 154.62 85.236 155.372 84.444C156.132 83.644 157.012 83.02 158.012 82.572C159.012 82.116 160.08 81.888 161.216 81.888C162.576 81.888 163.828 82.204 164.972 82.836C166.116 83.468 167.064 84.308 167.816 85.356L165.596 86.544C165.076 85.888 164.432 85.364 163.664 84.972C162.896 84.58 162.08 84.384 161.216 84.384C160.416 84.384 159.668 84.548 158.972 84.876C158.276 85.204 157.664 85.652 157.136 86.22C156.608 86.788 156.196 87.448 155.9 88.2C155.604 88.952 155.456 89.752 155.456 90.6C155.456 91.456 155.604 92.26 155.9 93.012C156.196 93.756 156.608 94.416 157.136 94.992C157.672 95.56 158.288 96.008 158.984 96.336C159.68 96.656 160.424 96.816 161.216 96.816C162.096 96.816 162.916 96.62 163.676 96.228C164.444 95.828 165.084 95.3 165.596 94.644L167.816 95.856C167.064 96.904 166.116 97.744 164.972 98.376C163.828 99 162.576 99.312 161.216 99.312ZM170.174 99V81H172.67V99H170.174ZM180.658 99.312C179.554 99.312 178.546 99.028 177.634 98.46C176.73 97.892 176.006 97.132 175.462 96.18C174.926 95.22 174.658 94.16 174.658 93C174.658 92.12 174.814 91.3 175.126 90.54C175.438 89.772 175.866 89.1 176.41 88.524C176.962 87.94 177.602 87.484 178.33 87.156C179.058 86.828 179.834 86.664 180.658 86.664C181.762 86.664 182.766 86.948 183.67 87.516C184.582 88.084 185.306 88.848 185.842 89.808C186.386 90.768 186.658 91.832 186.658 93C186.658 93.872 186.502 94.688 186.19 95.448C185.878 96.208 185.446 96.88 184.894 97.464C184.35 98.04 183.714 98.492 182.986 98.82C182.266 99.148 181.49 99.312 180.658 99.312ZM180.658 96.816C181.322 96.816 181.918 96.64 182.446 96.288C182.974 95.936 183.39 95.472 183.694 94.896C184.006 94.312 184.162 93.68 184.162 93C184.162 92.304 184.002 91.664 183.682 91.08C183.37 90.496 182.95 90.032 182.422 89.688C181.894 89.336 181.306 89.16 180.658 89.16C180.002 89.16 179.406 89.336 178.87 89.688C178.342 90.04 177.922 90.508 177.61 91.092C177.306 91.676 177.154 92.312 177.154 93C177.154 93.712 177.314 94.356 177.634 94.932C177.954 95.508 178.378 95.968 178.906 96.312C179.442 96.648 180.026 96.816 180.658 96.816ZM192.243 99.228C191.611 99.188 190.995 99.06 190.395 98.844C189.795 98.628 189.267 98.336 188.811 97.968C188.363 97.592 188.027 97.152 187.803 96.648L189.927 95.736C190.031 95.952 190.211 96.164 190.467 96.372C190.731 96.58 191.039 96.752 191.391 96.888C191.743 97.016 192.111 97.08 192.495 97.08C192.871 97.08 193.219 97.028 193.539 96.924C193.867 96.812 194.135 96.644 194.343 96.42C194.551 96.196 194.655 95.928 194.655 95.616C194.655 95.264 194.535 94.992 194.295 94.8C194.063 94.6 193.771 94.448 193.419 94.344C193.067 94.24 192.715 94.14 192.363 94.044C191.579 93.868 190.859 93.628 190.203 93.324C189.555 93.012 189.039 92.616 188.655 92.136C188.271 91.648 188.079 91.052 188.079 90.348C188.079 89.58 188.287 88.916 188.703 88.356C189.119 87.788 189.663 87.352 190.335 87.048C191.015 86.744 191.739 86.592 192.507 86.592C193.467 86.592 194.347 86.796 195.147 87.204C195.947 87.612 196.559 88.172 196.983 88.884L195.003 90.06C194.883 89.82 194.703 89.604 194.463 89.412C194.223 89.22 193.951 89.068 193.647 88.956C193.343 88.836 193.027 88.768 192.699 88.752C192.291 88.736 191.911 88.784 191.559 88.896C191.215 89 190.939 89.168 190.731 89.4C190.523 89.632 190.419 89.928 190.419 90.288C190.419 90.64 190.543 90.904 190.791 91.08C191.039 91.248 191.351 91.384 191.727 91.488C192.111 91.592 192.503 91.708 192.903 91.836C193.615 92.06 194.283 92.336 194.907 92.664C195.531 92.984 196.035 93.38 196.419 93.852C196.803 94.324 196.987 94.9 196.971 95.58C196.971 96.332 196.743 96.992 196.287 97.56C195.839 98.128 195.255 98.56 194.535 98.856C193.815 99.152 193.051 99.276 192.243 99.228ZM198.815 87H201.311V99H198.815V87ZM200.087 85.26C199.703 85.26 199.383 85.136 199.127 84.888C198.871 84.64 198.743 84.328 198.743 83.952C198.743 83.584 198.871 83.276 199.127 83.028C199.383 82.772 199.699 82.644 200.075 82.644C200.443 82.644 200.755 82.772 201.011 83.028C201.267 83.276 201.395 83.584 201.395 83.952C201.395 84.328 201.267 84.64 201.011 84.888C200.763 85.136 200.455 85.26 200.087 85.26ZM214.912 91.476V99H212.416V92.088C212.416 91.552 212.284 91.064 212.02 90.624C211.764 90.184 211.416 89.836 210.976 89.58C210.544 89.316 210.056 89.184 209.512 89.184C208.984 89.184 208.5 89.316 208.06 89.58C207.62 89.836 207.268 90.184 207.004 90.624C206.74 91.064 206.608 91.552 206.608 92.088V99H204.112V87H206.608V88.272C207.024 87.776 207.536 87.384 208.144 87.096C208.752 86.808 209.408 86.664 210.112 86.664C211 86.664 211.808 86.88 212.536 87.312C213.264 87.744 213.84 88.324 214.264 89.052C214.696 89.78 214.912 90.588 214.912 91.476ZM226.205 87H228.701V99.312C228.701 100.136 228.525 100.896 228.173 101.592C227.829 102.288 227.361 102.888 226.769 103.392C226.177 103.904 225.497 104.3 224.729 104.58C223.969 104.86 223.173 105 222.341 105C221.501 105 220.693 104.82 219.917 104.46C219.141 104.108 218.457 103.628 217.865 103.02C217.281 102.412 216.845 101.724 216.557 100.956L218.849 99.924C219.009 100.42 219.265 100.86 219.617 101.244C219.977 101.628 220.393 101.932 220.865 102.156C221.345 102.38 221.837 102.492 222.341 102.492C222.837 102.492 223.313 102.412 223.769 102.252C224.233 102.1 224.645 101.884 225.005 101.604C225.373 101.324 225.665 100.988 225.881 100.596C226.097 100.204 226.205 99.776 226.205 99.312V97.284C225.813 97.892 225.309 98.384 224.693 98.76C224.077 99.128 223.361 99.312 222.545 99.312C221.697 99.312 220.897 99.148 220.145 98.82C219.393 98.492 218.733 98.04 218.165 97.464C217.597 96.88 217.153 96.208 216.833 95.448C216.513 94.688 216.353 93.872 216.353 93C216.353 92.128 216.513 91.312 216.833 90.552C217.153 89.784 217.597 89.112 218.165 88.536C218.733 87.952 219.393 87.496 220.145 87.168C220.897 86.84 221.697 86.676 222.545 86.676C223.361 86.676 224.077 86.864 224.693 87.24C225.309 87.608 225.813 88.1 226.205 88.716V87ZM222.569 96.9C223.265 96.9 223.873 96.724 224.393 96.372C224.913 96.012 225.317 95.536 225.605 94.944C225.893 94.352 226.037 93.704 226.037 93C226.037 92.28 225.889 91.628 225.593 91.044C225.305 90.452 224.901 89.98 224.381 89.628C223.861 89.268 223.257 89.088 222.569 89.088C221.897 89.088 221.281 89.264 220.721 89.616C220.169 89.968 219.729 90.44 219.401 91.032C219.073 91.624 218.909 92.28 218.909 93C218.909 93.72 219.073 94.376 219.401 94.968C219.737 95.56 220.181 96.032 220.733 96.384C221.293 96.728 221.905 96.9 222.569 96.9ZM243.334 99.312C242.414 99.312 241.53 99.168 240.682 98.88C239.834 98.592 239.094 98.18 238.462 97.644C237.83 97.1 237.378 96.456 237.106 95.712L239.446 94.836C239.582 95.22 239.842 95.564 240.226 95.868C240.618 96.164 241.082 96.396 241.618 96.564C242.162 96.732 242.734 96.816 243.334 96.816C243.974 96.816 244.574 96.712 245.134 96.504C245.702 96.296 246.158 96.008 246.502 95.64C246.854 95.272 247.03 94.84 247.03 94.344C247.03 93.832 246.846 93.412 246.478 93.084C246.118 92.756 245.654 92.496 245.086 92.304C244.526 92.112 243.942 91.968 243.334 91.872C242.158 91.68 241.102 91.4 240.166 91.032C239.238 90.664 238.502 90.148 237.958 89.484C237.422 88.82 237.154 87.956 237.154 86.892C237.154 85.892 237.438 85.02 238.006 84.276C238.582 83.532 239.338 82.956 240.274 82.548C241.218 82.132 242.238 81.924 243.334 81.924C244.238 81.924 245.11 82.068 245.95 82.356C246.798 82.636 247.542 83.048 248.182 83.592C248.83 84.128 249.294 84.78 249.574 85.548L247.21 86.4C247.074 86.008 246.814 85.668 246.43 85.38C246.046 85.084 245.582 84.852 245.038 84.684C244.502 84.516 243.934 84.432 243.334 84.432C242.694 84.424 242.094 84.528 241.534 84.744C240.982 84.952 240.53 85.24 240.178 85.608C239.826 85.976 239.65 86.404 239.65 86.892C239.65 87.492 239.814 87.948 240.142 88.26C240.47 88.572 240.91 88.804 241.462 88.956C242.022 89.1 242.646 89.232 243.334 89.352C244.438 89.528 245.458 89.82 246.394 90.228C247.338 90.636 248.094 91.18 248.662 91.86C249.238 92.532 249.526 93.36 249.526 94.344C249.526 95.336 249.238 96.208 248.662 96.96C248.094 97.704 247.338 98.284 246.394 98.7C245.458 99.108 244.438 99.312 243.334 99.312ZM251.515 94.5V87H254.011V93.888C254.011 94.424 254.143 94.912 254.407 95.352C254.671 95.792 255.023 96.144 255.463 96.408C255.903 96.664 256.387 96.792 256.915 96.792C257.451 96.792 257.935 96.664 258.367 96.408C258.807 96.144 259.155 95.792 259.411 95.352C259.675 94.912 259.807 94.424 259.807 93.888V87H262.303L262.315 99H259.819L259.807 97.704C259.399 98.2 258.891 98.592 258.283 98.88C257.675 99.168 257.023 99.312 256.327 99.312C255.439 99.312 254.631 99.096 253.903 98.664C253.175 98.232 252.595 97.652 252.163 96.924C251.731 96.196 251.515 95.388 251.515 94.5ZM272.393 95.592L274.625 96.804C274.081 97.564 273.389 98.172 272.549 98.628C271.717 99.084 270.813 99.312 269.837 99.312C268.733 99.312 267.725 99.028 266.813 98.46C265.909 97.892 265.185 97.132 264.641 96.18C264.105 95.22 263.837 94.16 263.837 93C263.837 92.12 263.993 91.3 264.305 90.54C264.617 89.772 265.045 89.1 265.589 88.524C266.141 87.94 266.781 87.484 267.509 87.156C268.237 86.828 269.013 86.664 269.837 86.664C270.813 86.664 271.717 86.892 272.549 87.348C273.389 87.804 274.081 88.416 274.625 89.184L272.393 90.396C272.057 89.996 271.665 89.692 271.217 89.484C270.769 89.268 270.309 89.16 269.837 89.16C269.181 89.16 268.585 89.34 268.049 89.7C267.521 90.052 267.101 90.52 266.789 91.104C266.485 91.68 266.333 92.312 266.333 93C266.333 93.68 266.489 94.312 266.801 94.896C267.113 95.472 267.533 95.936 268.061 96.288C268.597 96.64 269.189 96.816 269.837 96.816C270.333 96.816 270.805 96.704 271.253 96.48C271.701 96.256 272.081 95.96 272.393 95.592ZM284.346 95.592L286.578 96.804C286.034 97.564 285.342 98.172 284.502 98.628C283.67 99.084 282.766 99.312 281.79 99.312C280.686 99.312 279.678 99.028 278.766 98.46C277.862 97.892 277.138 97.132 276.594 96.18C276.058 95.22 275.79 94.16 275.79 93C275.79 92.12 275.946 91.3 276.258 90.54C276.57 89.772 276.998 89.1 277.542 88.524C278.094 87.94 278.734 87.484 279.462 87.156C280.19 86.828 280.966 86.664 281.79 86.664C282.766 86.664 283.67 86.892 284.502 87.348C285.342 87.804 286.034 88.416 286.578 89.184L284.346 90.396C284.01 89.996 283.618 89.692 283.17 89.484C282.722 89.268 282.262 89.16 281.79 89.16C281.134 89.16 280.538 89.34 280.002 89.7C279.474 90.052 279.054 90.52 278.742 91.104C278.438 91.68 278.286 92.312 278.286 93C278.286 93.68 278.442 94.312 278.754 94.896C279.066 95.472 279.486 95.936 280.014 96.288C280.55 96.64 281.142 96.816 281.79 96.816C282.286 96.816 282.758 96.704 283.206 96.48C283.654 96.256 284.034 95.96 284.346 95.592ZM293.743 99.312C292.639 99.312 291.631 99.028 290.719 98.46C289.815 97.892 289.091 97.132 288.547 96.18C288.011 95.22 287.743 94.16 287.743 93C287.743 92.12 287.899 91.3 288.211 90.54C288.523 89.772 288.951 89.1 289.495 88.524C290.047 87.94 290.687 87.484 291.415 87.156C292.143 86.828 292.919 86.664 293.743 86.664C294.663 86.664 295.507 86.856 296.275 87.24C297.043 87.616 297.699 88.14 298.243 88.812C298.787 89.476 299.187 90.244 299.443 91.116C299.699 91.98 299.775 92.9 299.671 93.876H290.419C290.523 94.428 290.723 94.928 291.019 95.376C291.323 95.816 291.707 96.164 292.171 96.42C292.643 96.676 293.167 96.808 293.743 96.816C294.351 96.816 294.903 96.664 295.399 96.36C295.903 96.056 296.315 95.636 296.635 95.1L299.167 95.688C298.687 96.752 297.963 97.624 296.995 98.304C296.027 98.976 294.943 99.312 293.743 99.312ZM290.335 91.968H297.151C297.071 91.392 296.867 90.872 296.539 90.408C296.219 89.936 295.815 89.564 295.327 89.292C294.847 89.012 294.319 88.872 293.743 88.872C293.175 88.872 292.647 89.008 292.159 89.28C291.679 89.552 291.279 89.924 290.959 90.396C290.647 90.86 290.439 91.384 290.335 91.968ZM305.306 99.228C304.674 99.188 304.058 99.06 303.458 98.844C302.858 98.628 302.33 98.336 301.874 97.968C301.426 97.592 301.09 97.152 300.866 96.648L302.99 95.736C303.094 95.952 303.274 96.164 303.53 96.372C303.794 96.58 304.102 96.752 304.454 96.888C304.806 97.016 305.174 97.08 305.558 97.08C305.934 97.08 306.282 97.028 306.602 96.924C306.93 96.812 307.198 96.644 307.406 96.42C307.614 96.196 307.718 95.928 307.718 95.616C307.718 95.264 307.598 94.992 307.358 94.8C307.126 94.6 306.834 94.448 306.482 94.344C306.13 94.24 305.778 94.14 305.426 94.044C304.642 93.868 303.922 93.628 303.266 93.324C302.618 93.012 302.102 92.616 301.718 92.136C301.334 91.648 301.142 91.052 301.142 90.348C301.142 89.58 301.35 88.916 301.766 88.356C302.182 87.788 302.726 87.352 303.398 87.048C304.078 86.744 304.802 86.592 305.57 86.592C306.53 86.592 307.41 86.796 308.21 87.204C309.01 87.612 309.622 88.172 310.046 88.884L308.066 90.06C307.946 89.82 307.766 89.604 307.526 89.412C307.286 89.22 307.014 89.068 306.71 88.956C306.406 88.836 306.09 88.768 305.762 88.752C305.354 88.736 304.974 88.784 304.622 88.896C304.278 89 304.002 89.168 303.794 89.4C303.586 89.632 303.482 89.928 303.482 90.288C303.482 90.64 303.606 90.904 303.854 91.08C304.102 91.248 304.414 91.384 304.79 91.488C305.174 91.592 305.566 91.708 305.966 91.836C306.678 92.06 307.346 92.336 307.97 92.664C308.594 92.984 309.098 93.38 309.482 93.852C309.866 94.324 310.05 94.9 310.034 95.58C310.034 96.332 309.806 96.992 309.35 97.56C308.902 98.128 308.318 98.56 307.598 98.856C306.878 99.152 306.114 99.276 305.306 99.228ZM315.688 99.228C315.056 99.188 314.44 99.06 313.84 98.844C313.24 98.628 312.712 98.336 312.256 97.968C311.808 97.592 311.472 97.152 311.248 96.648L313.372 95.736C313.476 95.952 313.656 96.164 313.912 96.372C314.176 96.58 314.484 96.752 314.836 96.888C315.188 97.016 315.556 97.08 315.94 97.08C316.316 97.08 316.664 97.028 316.984 96.924C317.312 96.812 317.58 96.644 317.788 96.42C317.996 96.196 318.1 95.928 318.1 95.616C318.1 95.264 317.98 94.992 317.74 94.8C317.508 94.6 317.216 94.448 316.864 94.344C316.512 94.24 316.16 94.14 315.808 94.044C315.024 93.868 314.304 93.628 313.648 93.324C313 93.012 312.484 92.616 312.1 92.136C311.716 91.648 311.524 91.052 311.524 90.348C311.524 89.58 311.732 88.916 312.148 88.356C312.564 87.788 313.108 87.352 313.78 87.048C314.46 86.744 315.184 86.592 315.952 86.592C316.912 86.592 317.792 86.796 318.592 87.204C319.392 87.612 320.004 88.172 320.428 88.884L318.448 90.06C318.328 89.82 318.148 89.604 317.908 89.412C317.668 89.22 317.396 89.068 317.092 88.956C316.788 88.836 316.472 88.768 316.144 88.752C315.736 88.736 315.356 88.784 315.004 88.896C314.66 89 314.384 89.168 314.176 89.4C313.968 89.632 313.864 89.928 313.864 90.288C313.864 90.64 313.988 90.904 314.236 91.08C314.484 91.248 314.796 91.384 315.172 91.488C315.556 91.592 315.948 91.708 316.348 91.836C317.06 92.06 317.728 92.336 318.352 92.664C318.976 92.984 319.48 93.38 319.864 93.852C320.248 94.324 320.432 94.9 320.416 95.58C320.416 96.332 320.188 96.992 319.732 97.56C319.284 98.128 318.7 98.56 317.98 98.856C317.26 99.152 316.496 99.276 315.688 99.228Z" fill="white"></path><path d="M55.301 169.4H57.128L61.709 182H60.107L59.171 179.426H53.258L52.331 182H50.72L55.301 169.4ZM53.816 177.914H58.613L56.21 171.335L53.816 177.914ZM70.577 182.171C70.091 182.153 69.617 182.063 69.155 181.901C68.699 181.733 68.297 181.508 67.949 181.226C67.607 180.938 67.358 180.608 67.202 180.236L68.498 179.678C68.588 179.882 68.75 180.074 68.984 180.254C69.218 180.434 69.488 180.578 69.794 180.686C70.1 180.794 70.409 180.848 70.721 180.848C71.051 180.848 71.36 180.797 71.648 180.695C71.936 180.593 72.17 180.443 72.35 180.245C72.536 180.041 72.629 179.798 72.629 179.516C72.629 179.216 72.527 178.982 72.323 178.814C72.125 178.64 71.873 178.505 71.567 178.409C71.267 178.307 70.961 178.211 70.649 178.121C70.031 177.965 69.479 177.779 68.993 177.563C68.507 177.341 68.123 177.062 67.841 176.726C67.565 176.384 67.427 175.949 67.427 175.421C67.427 174.863 67.58 174.38 67.886 173.972C68.198 173.564 68.606 173.249 69.11 173.027C69.614 172.805 70.154 172.694 70.73 172.694C71.456 172.694 72.119 172.85 72.719 173.162C73.319 173.474 73.766 173.897 74.06 174.431L72.845 175.142C72.743 174.926 72.587 174.737 72.377 174.575C72.167 174.407 71.927 174.275 71.657 174.179C71.387 174.083 71.111 174.032 70.829 174.026C70.481 174.014 70.154 174.059 69.848 174.161C69.548 174.263 69.305 174.419 69.119 174.629C68.939 174.833 68.849 175.088 68.849 175.394C68.849 175.694 68.945 175.922 69.137 176.078C69.335 176.234 69.59 176.36 69.902 176.456C70.22 176.546 70.565 176.651 70.937 176.771C71.483 176.945 71.993 177.146 72.467 177.374C72.941 177.602 73.322 177.887 73.61 178.229C73.904 178.571 74.048 178.994 74.042 179.498C74.042 180.05 73.877 180.533 73.547 180.947C73.217 181.355 72.788 181.667 72.26 181.883C71.738 182.099 71.177 182.195 70.577 182.171ZM75.2239 178.58V173H76.7359V178.247C76.7359 178.703 76.8469 179.117 77.0689 179.489C77.2909 179.861 77.5879 180.158 77.9599 180.38C78.3379 180.596 78.7519 180.704 79.2019 180.704C79.6579 180.704 80.0689 180.596 80.4349 180.38C80.8069 180.158 81.1039 179.861 81.3259 179.489C81.5479 179.117 81.6589 178.703 81.6589 178.247V173H83.1709L83.1799 182H81.6679L81.6589 180.857C81.3409 181.277 80.9389 181.613 80.4529 181.865C79.9669 182.111 79.4419 182.234 78.8779 182.234C78.2059 182.234 77.5909 182.072 77.0329 181.748C76.4809 181.418 76.0399 180.977 75.7099 180.425C75.3859 179.873 75.2239 179.258 75.2239 178.58ZM91.1013 179.624L92.4513 180.353C92.0433 180.923 91.5243 181.379 90.8943 181.721C90.2703 182.063 89.5923 182.234 88.8603 182.234C88.0323 182.234 87.2763 182.021 86.5923 181.595C85.9143 181.169 85.3713 180.599 84.9633 179.885C84.5613 179.165 84.3603 178.37 84.3603 177.5C84.3603 176.84 84.4773 176.225 84.7113 175.655C84.9453 175.079 85.2663 174.575 85.6743 174.143C86.0883 173.705 86.5683 173.363 87.1143 173.117C87.6603 172.871 88.2423 172.748 88.8603 172.748C89.5923 172.748 90.2703 172.919 90.8943 173.261C91.5243 173.603 92.0433 174.062 92.4513 174.638L91.1013 175.367C90.8133 175.013 90.4713 174.74 90.0753 174.548C89.6793 174.356 89.2743 174.26 88.8603 174.26C88.3023 174.26 87.7953 174.41 87.3393 174.71C86.8893 175.004 86.5323 175.397 86.2683 175.889C86.0043 176.381 85.8723 176.918 85.8723 177.5C85.8723 178.082 86.0043 178.619 86.2683 179.111C86.5383 179.597 86.8983 179.987 87.3483 180.281C87.8043 180.575 88.3083 180.722 88.8603 180.722C89.3043 180.722 89.7213 180.62 90.1113 180.416C90.5013 180.212 90.8313 179.948 91.1013 179.624ZM100.119 179.624L101.469 180.353C101.061 180.923 100.542 181.379 99.9119 181.721C99.2879 182.063 98.6099 182.234 97.8779 182.234C97.0499 182.234 96.2939 182.021 95.6099 181.595C94.9319 181.169 94.3889 180.599 93.9809 179.885C93.5789 179.165 93.3779 178.37 93.3779 177.5C93.3779 176.84 93.4949 176.225 93.7289 175.655C93.9629 175.079 94.2839 174.575 94.6919 174.143C95.1059 173.705 95.5859 173.363 96.1319 173.117C96.6779 172.871 97.2599 172.748 97.8779 172.748C98.6099 172.748 99.2879 172.919 99.9119 173.261C100.542 173.603 101.061 174.062 101.469 174.638L100.119 175.367C99.8309 175.013 99.4889 174.74 99.0929 174.548C98.6969 174.356 98.2919 174.26 97.8779 174.26C97.3199 174.26 96.8129 174.41 96.3569 174.71C95.9069 175.004 95.5499 175.397 95.2859 175.889C95.0219 176.381 94.8899 176.918 94.8899 177.5C94.8899 178.082 95.0219 178.619 95.2859 179.111C95.5559 179.597 95.9159 179.987 96.3659 180.281C96.8219 180.575 97.3259 180.722 97.8779 180.722C98.3219 180.722 98.7389 180.62 99.1289 180.416C99.5189 180.212 99.8489 179.948 100.119 179.624ZM106.895 182.234C106.067 182.234 105.311 182.021 104.627 181.595C103.949 181.169 103.406 180.599 102.998 179.885C102.596 179.165 102.395 178.37 102.395 177.5C102.395 176.84 102.512 176.225 102.746 175.655C102.98 175.079 103.301 174.575 103.709 174.143C104.123 173.705 104.603 173.363 105.149 173.117C105.695 172.871 106.277 172.748 106.895 172.748C107.573 172.748 108.194 172.886 108.758 173.162C109.328 173.432 109.814 173.81 110.216 174.296C110.624 174.782 110.927 175.346 111.125 175.988C111.329 176.63 111.404 177.317 111.35 178.049H104.006C104.078 178.559 104.246 179.015 104.51 179.417C104.774 179.813 105.11 180.128 105.518 180.362C105.932 180.596 106.391 180.716 106.895 180.722C107.435 180.722 107.924 180.584 108.362 180.308C108.8 180.026 109.154 179.642 109.424 179.156L110.963 179.516C110.603 180.314 110.06 180.968 109.334 181.478C108.608 181.982 107.795 182.234 106.895 182.234ZM103.961 176.861H109.829C109.781 176.357 109.619 175.898 109.343 175.484C109.067 175.064 108.716 174.728 108.29 174.476C107.864 174.224 107.399 174.098 106.895 174.098C106.391 174.098 105.929 174.221 105.509 174.467C105.089 174.713 104.741 175.046 104.465 175.466C104.195 175.88 104.027 176.345 103.961 176.861ZM115.647 182.171C115.161 182.153 114.687 182.063 114.225 181.901C113.769 181.733 113.367 181.508 113.019 181.226C112.677 180.938 112.428 180.608 112.272 180.236L113.568 179.678C113.658 179.882 113.82 180.074 114.054 180.254C114.288 180.434 114.558 180.578 114.864 180.686C115.17 180.794 115.479 180.848 115.791 180.848C116.121 180.848 116.43 180.797 116.718 180.695C117.006 180.593 117.24 180.443 117.42 180.245C117.606 180.041 117.699 179.798 117.699 179.516C117.699 179.216 117.597 178.982 117.393 178.814C117.195 178.64 116.943 178.505 116.637 178.409C116.337 178.307 116.031 178.211 115.719 178.121C115.101 177.965 114.549 177.779 114.063 177.563C113.577 177.341 113.193 177.062 112.911 176.726C112.635 176.384 112.497 175.949 112.497 175.421C112.497 174.863 112.65 174.38 112.956 173.972C113.268 173.564 113.676 173.249 114.18 173.027C114.684 172.805 115.224 172.694 115.8 172.694C116.526 172.694 117.189 172.85 117.789 173.162C118.389 173.474 118.836 173.897 119.13 174.431L117.915 175.142C117.813 174.926 117.657 174.737 117.447 174.575C117.237 174.407 116.997 174.275 116.727 174.179C116.457 174.083 116.181 174.032 115.899 174.026C115.551 174.014 115.224 174.059 114.918 174.161C114.618 174.263 114.375 174.419 114.189 174.629C114.009 174.833 113.919 175.088 113.919 175.394C113.919 175.694 114.015 175.922 114.207 176.078C114.405 176.234 114.66 176.36 114.972 176.456C115.29 176.546 115.635 176.651 116.007 176.771C116.553 176.945 117.063 177.146 117.537 177.374C118.011 177.602 118.392 177.887 118.68 178.229C118.974 178.571 119.118 178.994 119.112 179.498C119.112 180.05 118.947 180.533 118.617 180.947C118.287 181.355 117.858 181.667 117.33 181.883C116.808 182.099 116.247 182.195 115.647 182.171ZM123.399 182.171C122.913 182.153 122.439 182.063 121.977 181.901C121.521 181.733 121.119 181.508 120.771 181.226C120.429 180.938 120.18 180.608 120.024 180.236L121.32 179.678C121.41 179.882 121.572 180.074 121.806 180.254C122.04 180.434 122.31 180.578 122.616 180.686C122.922 180.794 123.231 180.848 123.543 180.848C123.873 180.848 124.182 180.797 124.47 180.695C124.758 180.593 124.992 180.443 125.172 180.245C125.358 180.041 125.451 179.798 125.451 179.516C125.451 179.216 125.349 178.982 125.145 178.814C124.947 178.64 124.695 178.505 124.389 178.409C124.089 178.307 123.783 178.211 123.471 178.121C122.853 177.965 122.301 177.779 121.815 177.563C121.329 177.341 120.945 177.062 120.663 176.726C120.387 176.384 120.249 175.949 120.249 175.421C120.249 174.863 120.402 174.38 120.708 173.972C121.02 173.564 121.428 173.249 121.932 173.027C122.436 172.805 122.976 172.694 123.552 172.694C124.278 172.694 124.941 172.85 125.541 173.162C126.141 173.474 126.588 173.897 126.882 174.431L125.667 175.142C125.565 174.926 125.409 174.737 125.199 174.575C124.989 174.407 124.749 174.275 124.479 174.179C124.209 174.083 123.933 174.032 123.651 174.026C123.303 174.014 122.976 174.059 122.67 174.161C122.37 174.263 122.127 174.419 121.941 174.629C121.761 174.833 121.671 175.088 121.671 175.394C121.671 175.694 121.767 175.922 121.959 176.078C122.157 176.234 122.412 176.36 122.724 176.456C123.042 176.546 123.387 176.651 123.759 176.771C124.305 176.945 124.815 177.146 125.289 177.374C125.763 177.602 126.144 177.887 126.432 178.229C126.726 178.571 126.87 178.994 126.864 179.498C126.864 180.05 126.699 180.533 126.369 180.947C126.039 181.355 125.61 181.667 125.082 181.883C124.56 182.099 123.999 182.195 123.399 182.171ZM130.449 170.777V173H133.086V174.512H130.449V182H128.937V174.512H127.776V173H128.937V170.777C128.937 170.315 129.048 169.898 129.27 169.526C129.498 169.148 129.801 168.848 130.179 168.626C130.563 168.398 130.983 168.284 131.439 168.284C131.775 168.284 132.102 168.353 132.42 168.491C132.738 168.623 133.02 168.821 133.266 169.085L132.186 170.156C132.102 170.042 131.991 169.955 131.853 169.895C131.721 169.829 131.583 169.796 131.439 169.796C131.169 169.796 130.935 169.892 130.737 170.084C130.545 170.276 130.449 170.507 130.449 170.777ZM134.392 178.58V173H135.904V178.247C135.904 178.703 136.015 179.117 136.237 179.489C136.459 179.861 136.756 180.158 137.128 180.38C137.506 180.596 137.92 180.704 138.37 180.704C138.826 180.704 139.237 180.596 139.603 180.38C139.975 180.158 140.272 179.861 140.494 179.489C140.716 179.117 140.827 178.703 140.827 178.247V173H142.339L142.348 182H140.836L140.827 180.857C140.509 181.277 140.107 181.613 139.621 181.865C139.135 182.111 138.61 182.234 138.046 182.234C137.374 182.234 136.759 182.072 136.201 181.748C135.649 181.418 135.208 180.977 134.878 180.425C134.554 179.873 134.392 179.258 134.392 178.58ZM144.262 182V168.5H145.774V182H144.262ZM155.005 182.171C154.519 182.153 154.045 182.063 153.583 181.901C153.127 181.733 152.725 181.508 152.377 181.226C152.035 180.938 151.786 180.608 151.63 180.236L152.926 179.678C153.016 179.882 153.178 180.074 153.412 180.254C153.646 180.434 153.916 180.578 154.222 180.686C154.528 180.794 154.837 180.848 155.149 180.848C155.479 180.848 155.788 180.797 156.076 180.695C156.364 180.593 156.598 180.443 156.778 180.245C156.964 180.041 157.057 179.798 157.057 179.516C157.057 179.216 156.955 178.982 156.751 178.814C156.553 178.64 156.301 178.505 155.995 178.409C155.695 178.307 155.389 178.211 155.077 178.121C154.459 177.965 153.907 177.779 153.421 177.563C152.935 177.341 152.551 177.062 152.269 176.726C151.993 176.384 151.855 175.949 151.855 175.421C151.855 174.863 152.008 174.38 152.314 173.972C152.626 173.564 153.034 173.249 153.538 173.027C154.042 172.805 154.582 172.694 155.158 172.694C155.884 172.694 156.547 172.85 157.147 173.162C157.747 173.474 158.194 173.897 158.488 174.431L157.273 175.142C157.171 174.926 157.015 174.737 156.805 174.575C156.595 174.407 156.355 174.275 156.085 174.179C155.815 174.083 155.539 174.032 155.257 174.026C154.909 174.014 154.582 174.059 154.276 174.161C153.976 174.263 153.733 174.419 153.547 174.629C153.367 174.833 153.277 175.088 153.277 175.394C153.277 175.694 153.373 175.922 153.565 176.078C153.763 176.234 154.018 176.36 154.33 176.456C154.648 176.546 154.993 176.651 155.365 176.771C155.911 176.945 156.421 177.146 156.895 177.374C157.369 177.602 157.75 177.887 158.038 178.229C158.332 178.571 158.476 178.994 158.47 179.498C158.47 180.05 158.305 180.533 157.975 180.947C157.645 181.355 157.216 181.667 156.688 181.883C156.166 182.099 155.605 182.195 155.005 182.171ZM167.16 173H168.672V182H167.16L167.097 180.479C166.815 181.001 166.425 181.424 165.927 181.748C165.435 182.072 164.847 182.234 164.163 182.234C163.503 182.234 162.885 182.111 162.309 181.865C161.733 181.613 161.223 181.268 160.779 180.83C160.341 180.386 159.999 179.876 159.753 179.3C159.507 178.724 159.384 178.103 159.384 177.437C159.384 176.795 159.504 176.189 159.744 175.619C159.984 175.049 160.317 174.551 160.743 174.125C161.175 173.693 161.673 173.357 162.237 173.117C162.801 172.871 163.407 172.748 164.055 172.748C164.763 172.748 165.384 172.916 165.918 173.252C166.452 173.582 166.884 174.011 167.214 174.539L167.16 173ZM164.136 180.767C164.73 180.767 165.243 180.623 165.675 180.335C166.113 180.041 166.449 179.645 166.683 179.147C166.923 178.649 167.043 178.1 167.043 177.5C167.043 176.888 166.923 176.336 166.683 175.844C166.443 175.346 166.104 174.953 165.666 174.665C165.234 174.371 164.724 174.224 164.136 174.224C163.542 174.224 163.002 174.371 162.516 174.665C162.03 174.959 161.643 175.355 161.355 175.853C161.073 176.345 160.932 176.894 160.932 177.5C160.932 178.106 161.079 178.658 161.373 179.156C161.667 179.648 162.057 180.041 162.543 180.335C163.029 180.623 163.56 180.767 164.136 180.767ZM170.576 182V168.5H172.088V182H170.576ZM178.122 182.234C177.294 182.234 176.538 182.021 175.854 181.595C175.176 181.169 174.633 180.599 174.225 179.885C173.823 179.165 173.622 178.37 173.622 177.5C173.622 176.84 173.739 176.225 173.973 175.655C174.207 175.079 174.528 174.575 174.936 174.143C175.35 173.705 175.83 173.363 176.376 173.117C176.922 172.871 177.504 172.748 178.122 172.748C178.8 172.748 179.421 172.886 179.985 173.162C180.555 173.432 181.041 173.81 181.443 174.296C181.851 174.782 182.154 175.346 182.352 175.988C182.556 176.63 182.631 177.317 182.577 178.049H175.233C175.305 178.559 175.473 179.015 175.737 179.417C176.001 179.813 176.337 180.128 176.745 180.362C177.159 180.596 177.618 180.716 178.122 180.722C178.662 180.722 179.151 180.584 179.589 180.308C180.027 180.026 180.381 179.642 180.651 179.156L182.19 179.516C181.83 180.314 181.287 180.968 180.561 181.478C179.835 181.982 179.022 182.234 178.122 182.234ZM175.188 176.861H181.056C181.008 176.357 180.846 175.898 180.57 175.484C180.294 175.064 179.943 174.728 179.517 174.476C179.091 174.224 178.626 174.098 178.122 174.098C177.618 174.098 177.156 174.221 176.736 174.467C176.316 174.713 175.968 175.046 175.692 175.466C175.422 175.88 175.254 176.345 175.188 176.861ZM188.541 173H190.053V182H188.541V173ZM189.315 171.533C189.075 171.533 188.874 171.455 188.712 171.299C188.55 171.143 188.469 170.948 188.469 170.714C188.469 170.48 188.55 170.285 188.712 170.129C188.874 169.973 189.072 169.895 189.306 169.895C189.54 169.895 189.738 169.973 189.9 170.129C190.062 170.285 190.143 170.48 190.143 170.714C190.143 170.948 190.062 171.143 189.9 171.299C189.744 171.455 189.549 171.533 189.315 171.533ZM194.872 182.171C194.386 182.153 193.912 182.063 193.45 181.901C192.994 181.733 192.592 181.508 192.244 181.226C191.902 180.938 191.653 180.608 191.497 180.236L192.793 179.678C192.883 179.882 193.045 180.074 193.279 180.254C193.513 180.434 193.783 180.578 194.089 180.686C194.395 180.794 194.704 180.848 195.016 180.848C195.346 180.848 195.655 180.797 195.943 180.695C196.231 180.593 196.465 180.443 196.645 180.245C196.831 180.041 196.924 179.798 196.924 179.516C196.924 179.216 196.822 178.982 196.618 178.814C196.42 178.64 196.168 178.505 195.862 178.409C195.562 178.307 195.256 178.211 194.944 178.121C194.326 177.965 193.774 177.779 193.288 177.563C192.802 177.341 192.418 177.062 192.136 176.726C191.86 176.384 191.722 175.949 191.722 175.421C191.722 174.863 191.875 174.38 192.181 173.972C192.493 173.564 192.901 173.249 193.405 173.027C193.909 172.805 194.449 172.694 195.025 172.694C195.751 172.694 196.414 172.85 197.014 173.162C197.614 173.474 198.061 173.897 198.355 174.431L197.14 175.142C197.038 174.926 196.882 174.737 196.672 174.575C196.462 174.407 196.222 174.275 195.952 174.179C195.682 174.083 195.406 174.032 195.124 174.026C194.776 174.014 194.449 174.059 194.143 174.161C193.843 174.263 193.6 174.419 193.414 174.629C193.234 174.833 193.144 175.088 193.144 175.394C193.144 175.694 193.24 175.922 193.432 176.078C193.63 176.234 193.885 176.36 194.197 176.456C194.515 176.546 194.86 176.651 195.232 176.771C195.778 176.945 196.288 177.146 196.762 177.374C197.236 177.602 197.617 177.887 197.905 178.229C198.199 178.571 198.343 178.994 198.337 179.498C198.337 180.05 198.172 180.533 197.842 180.947C197.512 181.355 197.083 181.667 196.555 181.883C196.033 182.099 195.472 182.195 194.872 182.171ZM212.159 176.402V182H210.647V176.735C210.647 176.279 210.536 175.865 210.314 175.493C210.092 175.121 209.795 174.827 209.423 174.611C209.051 174.389 208.637 174.278 208.181 174.278C207.731 174.278 207.317 174.389 206.939 174.611C206.567 174.827 206.27 175.121 206.048 175.493C205.826 175.865 205.715 176.279 205.715 176.735V182H204.203V173H205.715V174.125C206.033 173.705 206.435 173.372 206.921 173.126C207.407 172.874 207.935 172.748 208.505 172.748C209.177 172.748 209.789 172.913 210.341 173.243C210.899 173.567 211.34 174.005 211.664 174.557C211.994 175.109 212.159 175.724 212.159 176.402ZM217.743 182.234C216.915 182.234 216.159 182.021 215.475 181.595C214.797 181.169 214.254 180.599 213.846 179.885C213.444 179.165 213.243 178.37 213.243 177.5C213.243 176.84 213.36 176.225 213.594 175.655C213.828 175.079 214.149 174.575 214.557 174.143C214.971 173.705 215.451 173.363 215.997 173.117C216.543 172.871 217.125 172.748 217.743 172.748C218.571 172.748 219.324 172.961 220.002 173.387C220.686 173.813 221.229 174.386 221.631 175.106C222.039 175.826 222.243 176.624 222.243 177.5C222.243 178.154 222.126 178.766 221.892 179.336C221.658 179.906 221.334 180.41 220.92 180.848C220.512 181.28 220.035 181.619 219.489 181.865C218.949 182.111 218.367 182.234 217.743 182.234ZM217.743 180.722C218.307 180.722 218.814 180.575 219.264 180.281C219.72 179.981 220.077 179.588 220.335 179.102C220.599 178.61 220.731 178.076 220.731 177.5C220.731 176.912 220.596 176.372 220.326 175.88C220.062 175.388 219.705 174.995 219.255 174.701C218.805 174.407 218.301 174.26 217.743 174.26C217.179 174.26 216.672 174.41 216.222 174.71C215.772 175.004 215.415 175.397 215.151 175.889C214.887 176.381 214.755 176.918 214.755 177.5C214.755 178.1 214.89 178.646 215.16 179.138C215.43 179.624 215.793 180.011 216.249 180.299C216.705 180.581 217.203 180.722 217.743 180.722ZM228.289 174.512H226.246L226.237 182H224.725L224.734 174.512H223.186V173H224.734L224.725 170.174H226.237L226.246 173H228.289V174.512ZM240.427 179.624L241.777 180.353C241.369 180.923 240.85 181.379 240.22 181.721C239.596 182.063 238.918 182.234 238.186 182.234C237.358 182.234 236.602 182.021 235.918 181.595C235.24 181.169 234.697 180.599 234.289 179.885C233.887 179.165 233.686 178.37 233.686 177.5C233.686 176.84 233.803 176.225 234.037 175.655C234.271 175.079 234.592 174.575 235 174.143C235.414 173.705 235.894 173.363 236.44 173.117C236.986 172.871 237.568 172.748 238.186 172.748C238.918 172.748 239.596 172.919 240.22 173.261C240.85 173.603 241.369 174.062 241.777 174.638L240.427 175.367C240.139 175.013 239.797 174.74 239.401 174.548C239.005 174.356 238.6 174.26 238.186 174.26C237.628 174.26 237.121 174.41 236.665 174.71C236.215 175.004 235.858 175.397 235.594 175.889C235.33 176.381 235.198 176.918 235.198 177.5C235.198 178.082 235.33 178.619 235.594 179.111C235.864 179.597 236.224 179.987 236.674 180.281C237.13 180.575 237.634 180.722 238.186 180.722C238.63 180.722 239.047 180.62 239.437 180.416C239.827 180.212 240.157 179.948 240.427 179.624ZM247.204 182.234C246.376 182.234 245.62 182.021 244.936 181.595C244.258 181.169 243.715 180.599 243.307 179.885C242.905 179.165 242.704 178.37 242.704 177.5C242.704 176.84 242.821 176.225 243.055 175.655C243.289 175.079 243.61 174.575 244.018 174.143C244.432 173.705 244.912 173.363 245.458 173.117C246.004 172.871 246.586 172.748 247.204 172.748C248.032 172.748 248.785 172.961 249.463 173.387C250.147 173.813 250.69 174.386 251.092 175.106C251.5 175.826 251.704 176.624 251.704 177.5C251.704 178.154 251.587 178.766 251.353 179.336C251.119 179.906 250.795 180.41 250.381 180.848C249.973 181.28 249.496 181.619 248.95 181.865C248.41 182.111 247.828 182.234 247.204 182.234ZM247.204 180.722C247.768 180.722 248.275 180.575 248.725 180.281C249.181 179.981 249.538 179.588 249.796 179.102C250.06 178.61 250.192 178.076 250.192 177.5C250.192 176.912 250.057 176.372 249.787 175.88C249.523 175.388 249.166 174.995 248.716 174.701C248.266 174.407 247.762 174.26 247.204 174.26C246.64 174.26 246.133 174.41 245.683 174.71C245.233 175.004 244.876 175.397 244.612 175.889C244.348 176.381 244.216 176.918 244.216 177.5C244.216 178.1 244.351 178.646 244.621 179.138C244.891 179.624 245.254 180.011 245.71 180.299C246.166 180.581 246.664 180.722 247.204 180.722ZM253.193 182V173H254.705V174.125C255.023 173.705 255.422 173.372 255.902 173.126C256.388 172.874 256.916 172.748 257.486 172.748C258.152 172.748 258.761 172.91 259.313 173.234C259.865 173.558 260.3 173.987 260.618 174.521C260.936 173.987 261.368 173.558 261.914 173.234C262.466 172.91 263.072 172.748 263.732 172.748C264.41 172.748 265.025 172.913 265.577 173.243C266.129 173.567 266.567 174.005 266.891 174.557C267.221 175.109 267.386 175.724 267.386 176.402V182H265.874V176.762C265.874 176.318 265.766 175.907 265.55 175.529C265.334 175.151 265.043 174.848 264.677 174.62C264.311 174.392 263.906 174.278 263.462 174.278C263.018 174.278 262.613 174.386 262.247 174.602C261.881 174.812 261.59 175.106 261.374 175.484C261.158 175.856 261.05 176.282 261.05 176.762V182H259.538V176.762C259.538 176.282 259.43 175.856 259.214 175.484C258.998 175.106 258.704 174.812 258.332 174.602C257.966 174.386 257.561 174.278 257.117 174.278C256.679 174.278 256.274 174.392 255.902 174.62C255.536 174.848 255.245 175.151 255.029 175.529C254.813 175.907 254.705 176.318 254.705 176.762V182H253.193ZM270.701 186.5H269.189V173H270.701V174.539C271.007 174.011 271.415 173.585 271.925 173.261C272.435 172.931 273.041 172.766 273.743 172.766C274.397 172.766 275.009 172.889 275.579 173.135C276.155 173.381 276.659 173.723 277.091 174.161C277.523 174.593 277.862 175.094 278.108 175.664C278.354 176.234 278.477 176.846 278.477 177.5C278.477 178.154 278.354 178.769 278.108 179.345C277.862 179.921 277.523 180.428 277.091 180.866C276.659 181.298 276.155 181.637 275.579 181.883C275.009 182.129 274.397 182.252 273.743 182.252C273.041 182.252 272.435 182.09 271.925 181.766C271.415 181.436 271.007 181.007 270.701 180.479V186.5ZM273.725 174.233C273.143 174.233 272.633 174.38 272.195 174.674C271.757 174.968 271.418 175.361 271.178 175.853C270.944 176.345 270.827 176.894 270.827 177.5C270.827 178.1 270.944 178.649 271.178 179.147C271.418 179.645 271.754 180.041 272.186 180.335C272.624 180.629 273.137 180.776 273.725 180.776C274.307 180.776 274.841 180.632 275.327 180.344C275.813 180.05 276.203 179.657 276.497 179.165C276.791 178.667 276.938 178.112 276.938 177.5C276.938 176.9 276.794 176.354 276.506 175.862C276.218 175.364 275.831 174.968 275.345 174.674C274.859 174.38 274.319 174.233 273.725 174.233ZM279.894 182V168.5H281.406V182H279.894ZM287.44 182.234C286.612 182.234 285.856 182.021 285.172 181.595C284.494 181.169 283.951 180.599 283.543 179.885C283.141 179.165 282.94 178.37 282.94 177.5C282.94 176.84 283.057 176.225 283.291 175.655C283.525 175.079 283.846 174.575 284.254 174.143C284.668 173.705 285.148 173.363 285.694 173.117C286.24 172.871 286.822 172.748 287.44 172.748C288.118 172.748 288.739 172.886 289.303 173.162C289.873 173.432 290.359 173.81 290.761 174.296C291.169 174.782 291.472 175.346 291.67 175.988C291.874 176.63 291.949 177.317 291.895 178.049H284.551C284.623 178.559 284.791 179.015 285.055 179.417C285.319 179.813 285.655 180.128 286.063 180.362C286.477 180.596 286.936 180.716 287.44 180.722C287.98 180.722 288.469 180.584 288.907 180.308C289.345 180.026 289.699 179.642 289.969 179.156L291.508 179.516C291.148 180.314 290.605 180.968 289.879 181.478C289.153 181.982 288.34 182.234 287.44 182.234ZM284.506 176.861H290.374C290.326 176.357 290.164 175.898 289.888 175.484C289.612 175.064 289.261 174.728 288.835 174.476C288.409 174.224 287.944 174.098 287.44 174.098C286.936 174.098 286.474 174.221 286.054 174.467C285.634 174.713 285.286 175.046 285.01 175.466C284.74 175.88 284.572 176.345 284.506 176.861ZM297.969 174.512H295.926L295.917 182H294.405L294.414 174.512H292.866V173H294.414L294.405 170.174H295.917L295.926 173H297.969V174.512ZM303.313 182.234C302.485 182.234 301.729 182.021 301.045 181.595C300.367 181.169 299.824 180.599 299.416 179.885C299.014 179.165 298.813 178.37 298.813 177.5C298.813 176.84 298.93 176.225 299.164 175.655C299.398 175.079 299.719 174.575 300.127 174.143C300.541 173.705 301.021 173.363 301.567 173.117C302.113 172.871 302.695 172.748 303.313 172.748C303.991 172.748 304.612 172.886 305.176 173.162C305.746 173.432 306.232 173.81 306.634 174.296C307.042 174.782 307.345 175.346 307.543 175.988C307.747 176.63 307.822 177.317 307.768 178.049H300.424C300.496 178.559 300.664 179.015 300.928 179.417C301.192 179.813 301.528 180.128 301.936 180.362C302.35 180.596 302.809 180.716 303.313 180.722C303.853 180.722 304.342 180.584 304.78 180.308C305.218 180.026 305.572 179.642 305.842 179.156L307.381 179.516C307.021 180.314 306.478 180.968 305.752 181.478C305.026 181.982 304.213 182.234 303.313 182.234ZM300.379 176.861H306.247C306.199 176.357 306.037 175.898 305.761 175.484C305.485 175.064 305.134 174.728 304.708 174.476C304.282 174.224 303.817 174.098 303.313 174.098C302.809 174.098 302.347 174.221 301.927 174.467C301.507 174.713 301.159 175.046 300.883 175.466C300.613 175.88 300.445 176.345 300.379 176.861ZM313.372 178.58V173H314.884V178.247C314.884 178.703 314.995 179.117 315.217 179.489C315.439 179.861 315.736 180.158 316.108 180.38C316.486 180.596 316.9 180.704 317.35 180.704C317.806 180.704 318.217 180.596 318.583 180.38C318.955 180.158 319.252 179.861 319.474 179.489C319.696 179.117 319.807 178.703 319.807 178.247V173H321.319L321.328 182H319.816L319.807 180.857C319.489 181.277 319.087 181.613 318.601 181.865C318.115 182.111 317.59 182.234 317.026 182.234C316.354 182.234 315.739 182.072 315.181 181.748C314.629 181.418 314.188 180.977 313.858 180.425C313.534 179.873 313.372 179.258 313.372 178.58ZM331.093 176.402V182H329.581V176.735C329.581 176.279 329.47 175.865 329.248 175.493C329.026 175.121 328.729 174.827 328.357 174.611C327.985 174.389 327.571 174.278 327.115 174.278C326.665 174.278 326.251 174.389 325.873 174.611C325.501 174.827 325.204 175.121 324.982 175.493C324.76 175.865 324.649 176.279 324.649 176.735V182H323.137V173H324.649V174.125C324.967 173.705 325.369 173.372 325.855 173.126C326.341 172.874 326.869 172.748 327.439 172.748C328.111 172.748 328.723 172.913 329.275 173.243C329.833 173.567 330.274 174.005 330.598 174.557C330.928 175.109 331.093 175.724 331.093 176.402ZM337.555 174.512H335.512L335.503 182H333.991L334 174.512H332.452V173H334L333.991 170.174H335.503L335.512 173H337.555V174.512ZM339.08 173H340.592V182H339.08V173ZM339.854 171.533C339.614 171.533 339.413 171.455 339.251 171.299C339.089 171.143 339.008 170.948 339.008 170.714C339.008 170.48 339.089 170.285 339.251 170.129C339.413 169.973 339.611 169.895 339.845 169.895C340.079 169.895 340.277 169.973 340.439 170.129C340.601 170.285 340.682 170.48 340.682 170.714C340.682 170.948 340.601 171.143 340.439 171.299C340.283 171.455 340.088 171.533 339.854 171.533ZM342.807 182V168.5H344.319V182H342.807ZM355.467 174.512H353.424L353.415 182H351.903L351.912 174.512H350.364V173H351.912L351.903 170.174H353.415L353.424 173H355.467V174.512ZM365.036 176.402V182H363.524V176.735C363.524 176.279 363.413 175.865 363.191 175.493C362.969 175.121 362.672 174.827 362.3 174.611C361.928 174.389 361.514 174.278 361.058 174.278C360.608 174.278 360.194 174.389 359.816 174.611C359.444 174.827 359.147 175.121 358.925 175.493C358.703 175.865 358.592 176.279 358.592 176.735V182H357.08V168.5H358.592V174.125C358.91 173.705 359.312 173.372 359.798 173.126C360.284 172.874 360.812 172.748 361.382 172.748C362.054 172.748 362.666 172.913 363.218 173.243C363.776 173.567 364.217 174.005 364.541 174.557C364.871 175.109 365.036 175.724 365.036 176.402ZM370.62 182.234C369.792 182.234 369.036 182.021 368.352 181.595C367.674 181.169 367.131 180.599 366.723 179.885C366.321 179.165 366.12 178.37 366.12 177.5C366.12 176.84 366.237 176.225 366.471 175.655C366.705 175.079 367.026 174.575 367.434 174.143C367.848 173.705 368.328 173.363 368.874 173.117C369.42 172.871 370.002 172.748 370.62 172.748C371.298 172.748 371.919 172.886 372.483 173.162C373.053 173.432 373.539 173.81 373.941 174.296C374.349 174.782 374.652 175.346 374.85 175.988C375.054 176.63 375.129 177.317 375.075 178.049H367.731C367.803 178.559 367.971 179.015 368.235 179.417C368.499 179.813 368.835 180.128 369.243 180.362C369.657 180.596 370.116 180.716 370.62 180.722C371.16 180.722 371.649 180.584 372.087 180.308C372.525 180.026 372.879 179.642 373.149 179.156L374.688 179.516C374.328 180.314 373.785 180.968 373.059 181.478C372.333 181.982 371.52 182.234 370.62 182.234ZM367.686 176.861H373.554C373.506 176.357 373.344 175.898 373.068 175.484C372.792 175.064 372.441 174.728 372.015 174.476C371.589 174.224 371.124 174.098 370.62 174.098C370.116 174.098 369.654 174.221 369.234 174.467C368.814 174.713 368.466 175.046 368.19 175.466C367.92 175.88 367.752 176.345 367.686 176.861ZM387.24 179.624L388.59 180.353C388.182 180.923 387.663 181.379 387.033 181.721C386.409 182.063 385.731 182.234 384.999 182.234C384.171 182.234 383.415 182.021 382.731 181.595C382.053 181.169 381.51 180.599 381.102 179.885C380.7 179.165 380.499 178.37 380.499 177.5C380.499 176.84 380.616 176.225 380.85 175.655C381.084 175.079 381.405 174.575 381.813 174.143C382.227 173.705 382.707 173.363 383.253 173.117C383.799 172.871 384.381 172.748 384.999 172.748C385.731 172.748 386.409 172.919 387.033 173.261C387.663 173.603 388.182 174.062 388.59 174.638L387.24 175.367C386.952 175.013 386.61 174.74 386.214 174.548C385.818 174.356 385.413 174.26 384.999 174.26C384.441 174.26 383.934 174.41 383.478 174.71C383.028 175.004 382.671 175.397 382.407 175.889C382.143 176.381 382.011 176.918 382.011 177.5C382.011 178.082 382.143 178.619 382.407 179.111C382.677 179.597 383.037 179.987 383.487 180.281C383.943 180.575 384.447 180.722 384.999 180.722C385.443 180.722 385.86 180.62 386.25 180.416C386.64 180.212 386.97 179.948 387.24 179.624ZM390.057 182V168.5H391.569V182H390.057ZM397.603 182.234C396.775 182.234 396.019 182.021 395.335 181.595C394.657 181.169 394.114 180.599 393.706 179.885C393.304 179.165 393.103 178.37 393.103 177.5C393.103 176.84 393.22 176.225 393.454 175.655C393.688 175.079 394.009 174.575 394.417 174.143C394.831 173.705 395.311 173.363 395.857 173.117C396.403 172.871 396.985 172.748 397.603 172.748C398.431 172.748 399.184 172.961 399.862 173.387C400.546 173.813 401.089 174.386 401.491 175.106C401.899 175.826 402.103 176.624 402.103 177.5C402.103 178.154 401.986 178.766 401.752 179.336C401.518 179.906 401.194 180.41 400.78 180.848C400.372 181.28 399.895 181.619 399.349 181.865C398.809 182.111 398.227 182.234 397.603 182.234ZM397.603 180.722C398.167 180.722 398.674 180.575 399.124 180.281C399.58 179.981 399.937 179.588 400.195 179.102C400.459 178.61 400.591 178.076 400.591 177.5C400.591 176.912 400.456 176.372 400.186 175.88C399.922 175.388 399.565 174.995 399.115 174.701C398.665 174.407 398.161 174.26 397.603 174.26C397.039 174.26 396.532 174.41 396.082 174.71C395.632 175.004 395.275 175.397 395.011 175.889C394.747 176.381 394.615 176.918 394.615 177.5C394.615 178.1 394.75 178.646 395.02 179.138C395.29 179.624 395.653 180.011 396.109 180.299C396.565 180.581 397.063 180.722 397.603 180.722ZM406.372 182.171C405.886 182.153 405.412 182.063 404.95 181.901C404.494 181.733 404.092 181.508 403.744 181.226C403.402 180.938 403.153 180.608 402.997 180.236L404.293 179.678C404.383 179.882 404.545 180.074 404.779 180.254C405.013 180.434 405.283 180.578 405.589 180.686C405.895 180.794 406.204 180.848 406.516 180.848C406.846 180.848 407.155 180.797 407.443 180.695C407.731 180.593 407.965 180.443 408.145 180.245C408.331 180.041 408.424 179.798 408.424 179.516C408.424 179.216 408.322 178.982 408.118 178.814C407.92 178.64 407.668 178.505 407.362 178.409C407.062 178.307 406.756 178.211 406.444 178.121C405.826 177.965 405.274 177.779 404.788 177.563C404.302 177.341 403.918 177.062 403.636 176.726C403.36 176.384 403.222 175.949 403.222 175.421C403.222 174.863 403.375 174.38 403.681 173.972C403.993 173.564 404.401 173.249 404.905 173.027C405.409 172.805 405.949 172.694 406.525 172.694C407.251 172.694 407.914 172.85 408.514 173.162C409.114 173.474 409.561 173.897 409.855 174.431L408.64 175.142C408.538 174.926 408.382 174.737 408.172 174.575C407.962 174.407 407.722 174.275 407.452 174.179C407.182 174.083 406.906 174.032 406.624 174.026C406.276 174.014 405.949 174.059 405.643 174.161C405.343 174.263 405.1 174.419 404.914 174.629C404.734 174.833 404.644 175.088 404.644 175.394C404.644 175.694 404.74 175.922 404.932 176.078C405.13 176.234 405.385 176.36 405.697 176.456C406.015 176.546 406.36 176.651 406.732 176.771C407.278 176.945 407.788 177.146 408.262 177.374C408.736 177.602 409.117 177.887 409.405 178.229C409.699 178.571 409.843 178.994 409.837 179.498C409.837 180.05 409.672 180.533 409.342 180.947C409.012 181.355 408.583 181.667 408.055 181.883C407.533 182.099 406.972 182.195 406.372 182.171ZM411.256 173H412.768V182H411.256V173ZM412.03 171.533C411.79 171.533 411.589 171.455 411.427 171.299C411.265 171.143 411.184 170.948 411.184 170.714C411.184 170.48 411.265 170.285 411.427 170.129C411.589 169.973 411.787 169.895 412.021 169.895C412.255 169.895 412.453 169.973 412.615 170.129C412.777 170.285 412.858 170.48 412.858 170.714C412.858 170.948 412.777 171.143 412.615 171.299C412.459 171.455 412.264 171.533 412.03 171.533ZM422.85 176.402V182H421.338V176.735C421.338 176.279 421.227 175.865 421.005 175.493C420.783 175.121 420.486 174.827 420.114 174.611C419.742 174.389 419.328 174.278 418.872 174.278C418.422 174.278 418.008 174.389 417.63 174.611C417.258 174.827 416.961 175.121 416.739 175.493C416.517 175.865 416.406 176.279 416.406 176.735V182H414.894V173H416.406V174.125C416.724 173.705 417.126 173.372 417.612 173.126C418.098 172.874 418.626 172.748 419.196 172.748C419.868 172.748 420.48 172.913 421.032 173.243C421.59 173.567 422.031 174.005 422.355 174.557C422.685 175.109 422.85 175.724 422.85 176.402ZM431.504 173H433.016V182.288C433.016 182.882 432.887 183.434 432.629 183.944C432.377 184.46 432.035 184.907 431.603 185.285C431.171 185.669 430.679 185.966 430.127 186.176C429.575 186.392 428.999 186.5 428.399 186.5C427.775 186.5 427.172 186.359 426.59 186.077C426.008 185.801 425.498 185.429 425.06 184.961C424.628 184.499 424.316 183.98 424.124 183.404L425.51 182.774C425.624 183.188 425.828 183.56 426.122 183.89C426.422 184.226 426.77 184.49 427.166 184.682C427.568 184.88 427.979 184.979 428.399 184.979C428.795 184.979 429.176 184.91 429.542 184.772C429.914 184.634 430.247 184.442 430.541 184.196C430.841 183.956 431.075 183.671 431.243 183.341C431.417 183.017 431.504 182.666 431.504 182.288V180.497C431.198 181.013 430.793 181.433 430.289 181.757C429.791 182.075 429.209 182.234 428.543 182.234C427.907 182.234 427.31 182.111 426.752 181.865C426.194 181.619 425.705 181.28 425.285 180.848C424.865 180.41 424.535 179.906 424.295 179.336C424.055 178.766 423.935 178.154 423.935 177.5C423.935 176.846 424.055 176.234 424.295 175.664C424.535 175.088 424.865 174.584 425.285 174.152C425.705 173.714 426.194 173.372 426.752 173.126C427.31 172.88 427.907 172.757 428.543 172.757C429.209 172.757 429.791 172.916 430.289 173.234C430.793 173.552 431.198 173.972 431.504 174.494V173ZM428.552 180.767C429.134 180.767 429.638 180.617 430.064 180.317C430.496 180.017 430.829 179.618 431.063 179.12C431.297 178.622 431.414 178.082 431.414 177.5C431.414 176.9 431.294 176.354 431.054 175.862C430.82 175.364 430.487 174.968 430.055 174.674C429.629 174.374 429.128 174.224 428.552 174.224C427.988 174.224 427.472 174.371 427.004 174.665C426.536 174.959 426.164 175.355 425.888 175.853C425.618 176.345 425.483 176.894 425.483 177.5C425.483 178.106 425.621 178.658 425.897 179.156C426.179 179.648 426.551 180.041 427.013 180.335C427.481 180.623 427.994 180.767 428.552 180.767ZM435.639 182.234C435.411 182.234 435.216 182.153 435.054 181.991C434.898 181.829 434.82 181.631 434.82 181.397C434.82 181.175 434.898 180.983 435.054 180.821C435.216 180.659 435.411 180.578 435.639 180.578C435.873 180.578 436.071 180.659 436.233 180.821C436.395 180.983 436.476 181.175 436.476 181.397C436.476 181.631 436.395 181.829 436.233 181.991C436.071 182.153 435.873 182.234 435.639 182.234ZM53.726 209L50.504 196.4H52.061L54.599 206.345L57.128 196.4H58.487L61.025 206.345L63.554 196.4H65.111L61.907 209H60.143L57.812 199.874L55.481 209H53.726ZM69.6123 209.234C68.7843 209.234 68.0283 209.021 67.3443 208.595C66.6663 208.169 66.1233 207.599 65.7153 206.885C65.3133 206.165 65.1123 205.37 65.1123 204.5C65.1123 203.84 65.2293 203.225 65.4633 202.655C65.6973 202.079 66.0183 201.575 66.4263 201.143C66.8403 200.705 67.3203 200.363 67.8663 200.117C68.4123 199.871 68.9943 199.748 69.6123 199.748C70.2903 199.748 70.9113 199.886 71.4753 200.162C72.0453 200.432 72.5313 200.81 72.9333 201.296C73.3413 201.782 73.6443 202.346 73.8423 202.988C74.0463 203.63 74.1213 204.317 74.0673 205.049H66.7233C66.7953 205.559 66.9633 206.015 67.2273 206.417C67.4913 206.813 67.8273 207.128 68.2353 207.362C68.6493 207.596 69.1083 207.716 69.6123 207.722C70.1523 207.722 70.6413 207.584 71.0793 207.308C71.5173 207.026 71.8713 206.642 72.1413 206.156L73.6803 206.516C73.3203 207.314 72.7773 207.968 72.0513 208.478C71.3253 208.982 70.5123 209.234 69.6123 209.234ZM66.6783 203.861H72.5463C72.4983 203.357 72.3363 202.898 72.0603 202.484C71.7843 202.064 71.4333 201.728 71.0073 201.476C70.5813 201.224 70.1163 201.098 69.6123 201.098C69.1083 201.098 68.6463 201.221 68.2263 201.467C67.8063 201.713 67.4583 202.046 67.1823 202.466C66.9123 202.88 66.7443 203.345 66.6783 203.861ZM87.0602 200H88.5722V209.288C88.5722 209.882 88.4432 210.434 88.1852 210.944C87.9332 211.46 87.5912 211.907 87.1592 212.285C86.7272 212.669 86.2352 212.966 85.6832 213.176C85.1312 213.392 84.5552 213.5 83.9552 213.5C83.3312 213.5 82.7282 213.359 82.1462 213.077C81.5642 212.801 81.0542 212.429 80.6162 211.961C80.1842 211.499 79.8722 210.98 79.6802 210.404L81.0662 209.774C81.1802 210.188 81.3842 210.56 81.6782 210.89C81.9782 211.226 82.3262 211.49 82.7222 211.682C83.1242 211.88 83.5352 211.979 83.9552 211.979C84.3512 211.979 84.7322 211.91 85.0982 211.772C85.4702 211.634 85.8032 211.442 86.0972 211.196C86.3972 210.956 86.6312 210.671 86.7992 210.341C86.9732 210.017 87.0602 209.666 87.0602 209.288V207.497C86.7542 208.013 86.3492 208.433 85.8452 208.757C85.3472 209.075 84.7652 209.234 84.0992 209.234C83.4632 209.234 82.8662 209.111 82.3082 208.865C81.7502 208.619 81.2612 208.28 80.8412 207.848C80.4212 207.41 80.0912 206.906 79.8512 206.336C79.6112 205.766 79.4912 205.154 79.4912 204.5C79.4912 203.846 79.6112 203.234 79.8512 202.664C80.0912 202.088 80.4212 201.584 80.8412 201.152C81.2612 200.714 81.7502 200.372 82.3082 200.126C82.8662 199.88 83.4632 199.757 84.0992 199.757C84.7652 199.757 85.3472 199.916 85.8452 200.234C86.3492 200.552 86.7542 200.972 87.0602 201.494V200ZM84.1082 207.767C84.6902 207.767 85.1942 207.617 85.6202 207.317C86.0522 207.017 86.3852 206.618 86.6192 206.12C86.8532 205.622 86.9702 205.082 86.9702 204.5C86.9702 203.9 86.8502 203.354 86.6102 202.862C86.3762 202.364 86.0432 201.968 85.6112 201.674C85.1852 201.374 84.6842 201.224 84.1082 201.224C83.5442 201.224 83.0282 201.371 82.5602 201.665C82.0922 201.959 81.7202 202.355 81.4442 202.853C81.1742 203.345 81.0392 203.894 81.0392 204.5C81.0392 205.106 81.1772 205.658 81.4532 206.156C81.7352 206.648 82.1072 207.041 82.5692 207.335C83.0372 207.623 83.5502 207.767 84.1082 207.767ZM90.218 205.58V200H91.73V205.247C91.73 205.703 91.841 206.117 92.063 206.489C92.285 206.861 92.582 207.158 92.954 207.38C93.332 207.596 93.746 207.704 94.196 207.704C94.652 207.704 95.063 207.596 95.429 207.38C95.801 207.158 96.098 206.861 96.32 206.489C96.542 206.117 96.653 205.703 96.653 205.247V200H98.165L98.174 209H96.662L96.653 207.857C96.335 208.277 95.933 208.613 95.447 208.865C94.961 209.111 94.436 209.234 93.872 209.234C93.2 209.234 92.585 209.072 92.027 208.748C91.475 208.418 91.034 207.977 90.704 207.425C90.38 206.873 90.218 206.258 90.218 205.58ZM99.9823 200H101.494V209H99.9823V200ZM100.756 198.533C100.516 198.533 100.315 198.455 100.153 198.299C99.9913 198.143 99.9103 197.948 99.9103 197.714C99.9103 197.48 99.9913 197.285 100.153 197.129C100.315 196.973 100.513 196.895 100.747 196.895C100.981 196.895 101.179 196.973 101.341 197.129C101.503 197.285 101.584 197.48 101.584 197.714C101.584 197.948 101.503 198.143 101.341 198.299C101.185 198.455 100.99 198.533 100.756 198.533ZM110.778 195.5H112.29V209H110.778V207.47C110.472 207.998 110.061 208.424 109.545 208.748C109.029 209.072 108.423 209.234 107.727 209.234C107.073 209.234 106.461 209.111 105.891 208.865C105.321 208.619 104.817 208.28 104.379 207.848C103.947 207.41 103.608 206.906 103.362 206.336C103.116 205.766 102.993 205.154 102.993 204.5C102.993 203.846 103.116 203.234 103.362 202.664C103.608 202.088 103.947 201.584 104.379 201.152C104.817 200.714 105.321 200.372 105.891 200.126C106.461 199.88 107.073 199.757 107.727 199.757C108.423 199.757 109.029 199.919 109.545 200.243C110.061 200.567 110.472 200.993 110.778 201.521V195.5ZM107.745 207.767C108.339 207.767 108.852 207.623 109.284 207.335C109.722 207.041 110.058 206.645 110.292 206.147C110.532 205.649 110.652 205.1 110.652 204.5C110.652 203.888 110.532 203.336 110.292 202.844C110.052 202.346 109.713 201.953 109.275 201.665C108.843 201.371 108.333 201.224 107.745 201.224C107.151 201.224 106.611 201.371 106.125 201.665C105.645 201.959 105.261 202.355 104.973 202.853C104.685 203.345 104.541 203.894 104.541 204.5C104.541 205.106 104.688 205.658 104.982 206.156C105.276 206.648 105.666 207.041 106.152 207.335C106.638 207.623 107.169 207.767 107.745 207.767ZM118.321 209.234C117.493 209.234 116.737 209.021 116.053 208.595C115.375 208.169 114.832 207.599 114.424 206.885C114.022 206.165 113.821 205.37 113.821 204.5C113.821 203.84 113.938 203.225 114.172 202.655C114.406 202.079 114.727 201.575 115.135 201.143C115.549 200.705 116.029 200.363 116.575 200.117C117.121 199.871 117.703 199.748 118.321 199.748C118.999 199.748 119.62 199.886 120.184 200.162C120.754 200.432 121.24 200.81 121.642 201.296C122.05 201.782 122.353 202.346 122.551 202.988C122.755 203.63 122.83 204.317 122.776 205.049H115.432C115.504 205.559 115.672 206.015 115.936 206.417C116.2 206.813 116.536 207.128 116.944 207.362C117.358 207.596 117.817 207.716 118.321 207.722C118.861 207.722 119.35 207.584 119.788 207.308C120.226 207.026 120.58 206.642 120.85 206.156L122.389 206.516C122.029 207.314 121.486 207.968 120.76 208.478C120.034 208.982 119.221 209.234 118.321 209.234ZM115.387 203.861H121.255C121.207 203.357 121.045 202.898 120.769 202.484C120.493 202.064 120.142 201.728 119.716 201.476C119.29 201.224 118.825 201.098 118.321 201.098C117.817 201.098 117.355 201.221 116.935 201.467C116.515 201.713 116.167 202.046 115.891 202.466C115.621 202.88 115.453 203.345 115.387 203.861ZM134.905 200H136.507L131.584 213.5H129.982L131.611 209L128.38 200H130.036L132.367 206.921L134.905 200ZM141.63 209.234C140.802 209.234 140.046 209.021 139.362 208.595C138.684 208.169 138.141 207.599 137.733 206.885C137.331 206.165 137.13 205.37 137.13 204.5C137.13 203.84 137.247 203.225 137.481 202.655C137.715 202.079 138.036 201.575 138.444 201.143C138.858 200.705 139.338 200.363 139.884 200.117C140.43 199.871 141.012 199.748 141.63 199.748C142.458 199.748 143.211 199.961 143.889 200.387C144.573 200.813 145.116 201.386 145.518 202.106C145.926 202.826 146.13 203.624 146.13 204.5C146.13 205.154 146.013 205.766 145.779 206.336C145.545 206.906 145.221 207.41 144.807 207.848C144.399 208.28 143.922 208.619 143.376 208.865C142.836 209.111 142.254 209.234 141.63 209.234ZM141.63 207.722C142.194 207.722 142.701 207.575 143.151 207.281C143.607 206.981 143.964 206.588 144.222 206.102C144.486 205.61 144.618 205.076 144.618 204.5C144.618 203.912 144.483 203.372 144.213 202.88C143.949 202.388 143.592 201.995 143.142 201.701C142.692 201.407 142.188 201.26 141.63 201.26C141.066 201.26 140.559 201.41 140.109 201.71C139.659 202.004 139.302 202.397 139.038 202.889C138.774 203.381 138.642 203.918 138.642 204.5C138.642 205.1 138.777 205.646 139.047 206.138C139.317 206.624 139.68 207.011 140.136 207.299C140.592 207.581 141.09 207.722 141.63 207.722ZM147.136 205.58V200H148.648V205.247C148.648 205.703 148.759 206.117 148.981 206.489C149.203 206.861 149.5 207.158 149.872 207.38C150.25 207.596 150.664 207.704 151.114 207.704C151.57 207.704 151.981 207.596 152.347 207.38C152.719 207.158 153.016 206.861 153.238 206.489C153.46 206.117 153.571 205.703 153.571 205.247V200H155.083L155.092 209H153.58L153.571 207.857C153.253 208.277 152.851 208.613 152.365 208.865C151.879 209.111 151.354 209.234 150.79 209.234C150.118 209.234 149.503 209.072 148.945 208.748C148.393 208.418 147.952 207.977 147.622 207.425C147.298 206.873 147.136 206.258 147.136 205.58ZM165.887 201.512H163.844L163.835 209H162.323L162.332 201.512H160.784V200H162.332L162.323 197.174H163.835L163.844 200H165.887V201.512ZM175.456 203.402V209H173.944V203.735C173.944 203.279 173.833 202.865 173.611 202.493C173.389 202.121 173.092 201.827 172.72 201.611C172.348 201.389 171.934 201.278 171.478 201.278C171.028 201.278 170.614 201.389 170.236 201.611C169.864 201.827 169.567 202.121 169.345 202.493C169.123 202.865 169.012 203.279 169.012 203.735V209H167.5V195.5H169.012V201.125C169.33 200.705 169.732 200.372 170.218 200.126C170.704 199.874 171.232 199.748 171.802 199.748C172.474 199.748 173.086 199.913 173.638 200.243C174.196 200.567 174.637 201.005 174.961 201.557C175.291 202.109 175.456 202.724 175.456 203.402ZM177.256 209V200H178.768V201.125C179.086 200.705 179.488 200.372 179.974 200.126C180.46 199.874 180.988 199.748 181.558 199.748C181.906 199.748 182.242 199.793 182.566 199.883L181.954 201.395C181.708 201.317 181.468 201.278 181.234 201.278C180.784 201.278 180.37 201.389 179.992 201.611C179.62 201.827 179.323 202.121 179.101 202.493C178.879 202.865 178.768 203.279 178.768 203.735V209H177.256ZM187.175 209.234C186.347 209.234 185.591 209.021 184.907 208.595C184.229 208.169 183.686 207.599 183.278 206.885C182.876 206.165 182.675 205.37 182.675 204.5C182.675 203.84 182.792 203.225 183.026 202.655C183.26 202.079 183.581 201.575 183.989 201.143C184.403 200.705 184.883 200.363 185.429 200.117C185.975 199.871 186.557 199.748 187.175 199.748C188.003 199.748 188.756 199.961 189.434 200.387C190.118 200.813 190.661 201.386 191.063 202.106C191.471 202.826 191.675 203.624 191.675 204.5C191.675 205.154 191.558 205.766 191.324 206.336C191.09 206.906 190.766 207.41 190.352 207.848C189.944 208.28 189.467 208.619 188.921 208.865C188.381 209.111 187.799 209.234 187.175 209.234ZM187.175 207.722C187.739 207.722 188.246 207.575 188.696 207.281C189.152 206.981 189.509 206.588 189.767 206.102C190.031 205.61 190.163 205.076 190.163 204.5C190.163 203.912 190.028 203.372 189.758 202.88C189.494 202.388 189.137 201.995 188.687 201.701C188.237 201.407 187.733 201.26 187.175 201.26C186.611 201.26 186.104 201.41 185.654 201.71C185.204 202.004 184.847 202.397 184.583 202.889C184.319 203.381 184.187 203.918 184.187 204.5C184.187 205.1 184.322 205.646 184.592 206.138C184.862 206.624 185.225 207.011 185.681 207.299C186.137 207.581 186.635 207.722 187.175 207.722ZM192.681 205.58V200H194.193V205.247C194.193 205.703 194.304 206.117 194.526 206.489C194.748 206.861 195.045 207.158 195.417 207.38C195.795 207.596 196.209 207.704 196.659 207.704C197.115 207.704 197.526 207.596 197.892 207.38C198.264 207.158 198.561 206.861 198.783 206.489C199.005 206.117 199.116 205.703 199.116 205.247V200H200.628L200.637 209H199.125L199.116 207.857C198.798 208.277 198.396 208.613 197.91 208.865C197.424 209.111 196.899 209.234 196.335 209.234C195.663 209.234 195.048 209.072 194.49 208.748C193.938 208.418 193.497 207.977 193.167 207.425C192.843 206.873 192.681 206.258 192.681 205.58ZM209.386 200H210.898V209.288C210.898 209.882 210.769 210.434 210.511 210.944C210.259 211.46 209.917 211.907 209.485 212.285C209.053 212.669 208.561 212.966 208.009 213.176C207.457 213.392 206.881 213.5 206.281 213.5C205.657 213.5 205.054 213.359 204.472 213.077C203.89 212.801 203.38 212.429 202.942 211.961C202.51 211.499 202.198 210.98 202.006 210.404L203.392 209.774C203.506 210.188 203.71 210.56 204.004 210.89C204.304 211.226 204.652 211.49 205.048 211.682C205.45 211.88 205.861 211.979 206.281 211.979C206.677 211.979 207.058 211.91 207.424 211.772C207.796 211.634 208.129 211.442 208.423 211.196C208.723 210.956 208.957 210.671 209.125 210.341C209.299 210.017 209.386 209.666 209.386 209.288V207.497C209.08 208.013 208.675 208.433 208.171 208.757C207.673 209.075 207.091 209.234 206.425 209.234C205.789 209.234 205.192 209.111 204.634 208.865C204.076 208.619 203.587 208.28 203.167 207.848C202.747 207.41 202.417 206.906 202.177 206.336C201.937 205.766 201.817 205.154 201.817 204.5C201.817 203.846 201.937 203.234 202.177 202.664C202.417 202.088 202.747 201.584 203.167 201.152C203.587 200.714 204.076 200.372 204.634 200.126C205.192 199.88 205.789 199.757 206.425 199.757C207.091 199.757 207.673 199.916 208.171 200.234C208.675 200.552 209.08 200.972 209.386 201.494V200ZM206.434 207.767C207.016 207.767 207.52 207.617 207.946 207.317C208.378 207.017 208.711 206.618 208.945 206.12C209.179 205.622 209.296 205.082 209.296 204.5C209.296 203.9 209.176 203.354 208.936 202.862C208.702 202.364 208.369 201.968 207.937 201.674C207.511 201.374 207.01 201.224 206.434 201.224C205.87 201.224 205.354 201.371 204.886 201.665C204.418 201.959 204.046 202.355 203.77 202.853C203.5 203.345 203.365 203.894 203.365 204.5C203.365 205.106 203.503 205.658 203.779 206.156C204.061 206.648 204.433 207.041 204.895 207.335C205.363 207.623 205.876 207.767 206.434 207.767ZM221.018 203.402V209H219.506V203.735C219.506 203.279 219.395 202.865 219.173 202.493C218.951 202.121 218.654 201.827 218.282 201.611C217.91 201.389 217.496 201.278 217.04 201.278C216.59 201.278 216.176 201.389 215.798 201.611C215.426 201.827 215.129 202.121 214.907 202.493C214.685 202.865 214.574 203.279 214.574 203.735V209H213.062V195.5H214.574V201.125C214.892 200.705 215.294 200.372 215.78 200.126C216.266 199.874 216.794 199.748 217.364 199.748C218.036 199.748 218.648 199.913 219.2 200.243C219.758 200.567 220.199 201.005 220.523 201.557C220.853 202.109 221.018 202.724 221.018 203.402ZM231.805 201.512H229.762L229.753 209H228.241L228.25 201.512H226.702V200H228.25L228.241 197.174H229.753L229.762 200H231.805V201.512ZM241.374 203.402V209H239.862V203.735C239.862 203.279 239.751 202.865 239.529 202.493C239.307 202.121 239.01 201.827 238.638 201.611C238.266 201.389 237.852 201.278 237.396 201.278C236.946 201.278 236.532 201.389 236.154 201.611C235.782 201.827 235.485 202.121 235.263 202.493C235.041 202.865 234.93 203.279 234.93 203.735V209H233.418V195.5H234.93V201.125C235.248 200.705 235.65 200.372 236.136 200.126C236.622 199.874 237.15 199.748 237.72 199.748C238.392 199.748 239.004 199.913 239.556 200.243C240.114 200.567 240.555 201.005 240.879 201.557C241.209 202.109 241.374 202.724 241.374 203.402ZM246.958 209.234C246.13 209.234 245.374 209.021 244.69 208.595C244.012 208.169 243.469 207.599 243.061 206.885C242.659 206.165 242.458 205.37 242.458 204.5C242.458 203.84 242.575 203.225 242.809 202.655C243.043 202.079 243.364 201.575 243.772 201.143C244.186 200.705 244.666 200.363 245.212 200.117C245.758 199.871 246.34 199.748 246.958 199.748C247.636 199.748 248.257 199.886 248.821 200.162C249.391 200.432 249.877 200.81 250.279 201.296C250.687 201.782 250.99 202.346 251.188 202.988C251.392 203.63 251.467 204.317 251.413 205.049H244.069C244.141 205.559 244.309 206.015 244.573 206.417C244.837 206.813 245.173 207.128 245.581 207.362C245.995 207.596 246.454 207.716 246.958 207.722C247.498 207.722 247.987 207.584 248.425 207.308C248.863 207.026 249.217 206.642 249.487 206.156L251.026 206.516C250.666 207.314 250.123 207.968 249.397 208.478C248.671 208.982 247.858 209.234 246.958 209.234ZM244.024 203.861H249.892C249.844 203.357 249.682 202.898 249.406 202.484C249.13 202.064 248.779 201.728 248.353 201.476C247.927 201.224 247.462 201.098 246.958 201.098C246.454 201.098 245.992 201.221 245.572 201.467C245.152 201.713 244.804 202.046 244.528 202.466C244.258 202.88 244.09 203.345 244.024 203.861ZM257.377 200H258.889V209H257.377V200ZM258.151 198.533C257.911 198.533 257.71 198.455 257.548 198.299C257.386 198.143 257.305 197.948 257.305 197.714C257.305 197.48 257.386 197.285 257.548 197.129C257.71 196.973 257.908 196.895 258.142 196.895C258.376 196.895 258.574 196.973 258.736 197.129C258.898 197.285 258.979 197.48 258.979 197.714C258.979 197.948 258.898 198.143 258.736 198.299C258.58 198.455 258.385 198.533 258.151 198.533ZM268.972 203.402V209H267.46V203.735C267.46 203.279 267.349 202.865 267.127 202.493C266.905 202.121 266.608 201.827 266.236 201.611C265.864 201.389 265.45 201.278 264.994 201.278C264.544 201.278 264.13 201.389 263.752 201.611C263.38 201.827 263.083 202.121 262.861 202.493C262.639 202.865 262.528 203.279 262.528 203.735V209H261.016V200H262.528V201.125C262.846 200.705 263.248 200.372 263.734 200.126C264.22 199.874 264.748 199.748 265.318 199.748C265.99 199.748 266.602 199.913 267.154 200.243C267.712 200.567 268.153 201.005 268.477 201.557C268.807 202.109 268.972 202.724 268.972 203.402ZM275.433 201.512H273.39L273.381 209H271.869L271.878 201.512H270.33V200H271.878L271.869 197.174H273.381L273.39 200H275.433V201.512ZM277.047 209V200H278.559V201.125C278.877 200.705 279.279 200.372 279.765 200.126C280.251 199.874 280.779 199.748 281.349 199.748C281.697 199.748 282.033 199.793 282.357 199.883L281.745 201.395C281.499 201.317 281.259 201.278 281.025 201.278C280.575 201.278 280.161 201.389 279.783 201.611C279.411 201.827 279.114 202.121 278.892 202.493C278.67 202.865 278.559 203.279 278.559 203.735V209H277.047ZM283.463 200H284.975V209H283.463V200ZM284.237 198.533C283.997 198.533 283.796 198.455 283.634 198.299C283.472 198.143 283.391 197.948 283.391 197.714C283.391 197.48 283.472 197.285 283.634 197.129C283.796 196.973 283.994 196.895 284.228 196.895C284.462 196.895 284.66 196.973 284.822 197.129C284.984 197.285 285.065 197.48 285.065 197.714C285.065 197.948 284.984 198.143 284.822 198.299C284.666 198.455 284.471 198.533 284.237 198.533ZM293.215 206.624L294.565 207.353C294.157 207.923 293.638 208.379 293.008 208.721C292.384 209.063 291.706 209.234 290.974 209.234C290.146 209.234 289.39 209.021 288.706 208.595C288.028 208.169 287.485 207.599 287.077 206.885C286.675 206.165 286.474 205.37 286.474 204.5C286.474 203.84 286.591 203.225 286.825 202.655C287.059 202.079 287.38 201.575 287.788 201.143C288.202 200.705 288.682 200.363 289.228 200.117C289.774 199.871 290.356 199.748 290.974 199.748C291.706 199.748 292.384 199.919 293.008 200.261C293.638 200.603 294.157 201.062 294.565 201.638L293.215 202.367C292.927 202.013 292.585 201.74 292.189 201.548C291.793 201.356 291.388 201.26 290.974 201.26C290.416 201.26 289.909 201.41 289.453 201.71C289.003 202.004 288.646 202.397 288.382 202.889C288.118 203.381 287.986 203.918 287.986 204.5C287.986 205.082 288.118 205.619 288.382 206.111C288.652 206.597 289.012 206.987 289.462 207.281C289.918 207.575 290.422 207.722 290.974 207.722C291.418 207.722 291.835 207.62 292.225 207.416C292.615 207.212 292.945 206.948 293.215 206.624ZM303.267 200H304.779V209H303.267L303.204 207.479C302.922 208.001 302.532 208.424 302.034 208.748C301.542 209.072 300.954 209.234 300.27 209.234C299.61 209.234 298.992 209.111 298.416 208.865C297.84 208.613 297.33 208.268 296.886 207.83C296.448 207.386 296.106 206.876 295.86 206.3C295.614 205.724 295.491 205.103 295.491 204.437C295.491 203.795 295.611 203.189 295.851 202.619C296.091 202.049 296.424 201.551 296.85 201.125C297.282 200.693 297.78 200.357 298.344 200.117C298.908 199.871 299.514 199.748 300.162 199.748C300.87 199.748 301.491 199.916 302.025 200.252C302.559 200.582 302.991 201.011 303.321 201.539L303.267 200ZM300.243 207.767C300.837 207.767 301.35 207.623 301.782 207.335C302.22 207.041 302.556 206.645 302.79 206.147C303.03 205.649 303.15 205.1 303.15 204.5C303.15 203.888 303.03 203.336 302.79 202.844C302.55 202.346 302.211 201.953 301.773 201.665C301.341 201.371 300.831 201.224 300.243 201.224C299.649 201.224 299.109 201.371 298.623 201.665C298.137 201.959 297.75 202.355 297.462 202.853C297.18 203.345 297.039 203.894 297.039 204.5C297.039 205.106 297.186 205.658 297.48 206.156C297.774 206.648 298.164 207.041 298.65 207.335C299.136 207.623 299.667 207.767 300.243 207.767ZM311.24 201.512H309.197L309.188 209H307.676L307.685 201.512H306.137V200H307.685L307.676 197.174H309.188L309.197 200H311.24V201.512ZM316.585 209.234C315.757 209.234 315.001 209.021 314.317 208.595C313.639 208.169 313.096 207.599 312.688 206.885C312.286 206.165 312.085 205.37 312.085 204.5C312.085 203.84 312.202 203.225 312.436 202.655C312.67 202.079 312.991 201.575 313.399 201.143C313.813 200.705 314.293 200.363 314.839 200.117C315.385 199.871 315.967 199.748 316.585 199.748C317.263 199.748 317.884 199.886 318.448 200.162C319.018 200.432 319.504 200.81 319.906 201.296C320.314 201.782 320.617 202.346 320.815 202.988C321.019 203.63 321.094 204.317 321.04 205.049H313.696C313.768 205.559 313.936 206.015 314.2 206.417C314.464 206.813 314.8 207.128 315.208 207.362C315.622 207.596 316.081 207.716 316.585 207.722C317.125 207.722 317.614 207.584 318.052 207.308C318.49 207.026 318.844 206.642 319.114 206.156L320.653 206.516C320.293 207.314 319.75 207.968 319.024 208.478C318.298 208.982 317.485 209.234 316.585 209.234ZM313.651 203.861H319.519C319.471 203.357 319.309 202.898 319.033 202.484C318.757 202.064 318.406 201.728 317.98 201.476C317.554 201.224 317.089 201.098 316.585 201.098C316.081 201.098 315.619 201.221 315.199 201.467C314.779 201.713 314.431 202.046 314.155 202.466C313.885 202.88 313.717 203.345 313.651 203.861ZM333.205 206.624L334.555 207.353C334.147 207.923 333.628 208.379 332.998 208.721C332.374 209.063 331.696 209.234 330.964 209.234C330.136 209.234 329.38 209.021 328.696 208.595C328.018 208.169 327.475 207.599 327.067 206.885C326.665 206.165 326.464 205.37 326.464 204.5C326.464 203.84 326.581 203.225 326.815 202.655C327.049 202.079 327.37 201.575 327.778 201.143C328.192 200.705 328.672 200.363 329.218 200.117C329.764 199.871 330.346 199.748 330.964 199.748C331.696 199.748 332.374 199.919 332.998 200.261C333.628 200.603 334.147 201.062 334.555 201.638L333.205 202.367C332.917 202.013 332.575 201.74 332.179 201.548C331.783 201.356 331.378 201.26 330.964 201.26C330.406 201.26 329.899 201.41 329.443 201.71C328.993 202.004 328.636 202.397 328.372 202.889C328.108 203.381 327.976 203.918 327.976 204.5C327.976 205.082 328.108 205.619 328.372 206.111C328.642 206.597 329.002 206.987 329.452 207.281C329.908 207.575 330.412 207.722 330.964 207.722C331.408 207.722 331.825 207.62 332.215 207.416C332.605 207.212 332.935 206.948 333.205 206.624ZM336.021 209V195.5H337.533V209H336.021ZM343.567 209.234C342.739 209.234 341.983 209.021 341.299 208.595C340.621 208.169 340.078 207.599 339.67 206.885C339.268 206.165 339.067 205.37 339.067 204.5C339.067 203.84 339.184 203.225 339.418 202.655C339.652 202.079 339.973 201.575 340.381 201.143C340.795 200.705 341.275 200.363 341.821 200.117C342.367 199.871 342.949 199.748 343.567 199.748C344.395 199.748 345.148 199.961 345.826 200.387C346.51 200.813 347.053 201.386 347.455 202.106C347.863 202.826 348.067 203.624 348.067 204.5C348.067 205.154 347.95 205.766 347.716 206.336C347.482 206.906 347.158 207.41 346.744 207.848C346.336 208.28 345.859 208.619 345.313 208.865C344.773 209.111 344.191 209.234 343.567 209.234ZM343.567 207.722C344.131 207.722 344.638 207.575 345.088 207.281C345.544 206.981 345.901 206.588 346.159 206.102C346.423 205.61 346.555 205.076 346.555 204.5C346.555 203.912 346.42 203.372 346.15 202.88C345.886 202.388 345.529 201.995 345.079 201.701C344.629 201.407 344.125 201.26 343.567 201.26C343.003 201.26 342.496 201.41 342.046 201.71C341.596 202.004 341.239 202.397 340.975 202.889C340.711 203.381 340.579 203.918 340.579 204.5C340.579 205.1 340.714 205.646 340.984 206.138C341.254 206.624 341.617 207.011 342.073 207.299C342.529 207.581 343.027 207.722 343.567 207.722ZM352.337 209.171C351.851 209.153 351.377 209.063 350.915 208.901C350.459 208.733 350.057 208.508 349.709 208.226C349.367 207.938 349.118 207.608 348.962 207.236L350.258 206.678C350.348 206.882 350.51 207.074 350.744 207.254C350.978 207.434 351.248 207.578 351.554 207.686C351.86 207.794 352.169 207.848 352.481 207.848C352.811 207.848 353.12 207.797 353.408 207.695C353.696 207.593 353.93 207.443 354.11 207.245C354.296 207.041 354.389 206.798 354.389 206.516C354.389 206.216 354.287 205.982 354.083 205.814C353.885 205.64 353.633 205.505 353.327 205.409C353.027 205.307 352.721 205.211 352.409 205.121C351.791 204.965 351.239 204.779 350.753 204.563C350.267 204.341 349.883 204.062 349.601 203.726C349.325 203.384 349.187 202.949 349.187 202.421C349.187 201.863 349.34 201.38 349.646 200.972C349.958 200.564 350.366 200.249 350.87 200.027C351.374 199.805 351.914 199.694 352.49 199.694C353.216 199.694 353.879 199.85 354.479 200.162C355.079 200.474 355.526 200.897 355.82 201.431L354.605 202.142C354.503 201.926 354.347 201.737 354.137 201.575C353.927 201.407 353.687 201.275 353.417 201.179C353.147 201.083 352.871 201.032 352.589 201.026C352.241 201.014 351.914 201.059 351.608 201.161C351.308 201.263 351.065 201.419 350.879 201.629C350.699 201.833 350.609 202.088 350.609 202.394C350.609 202.694 350.705 202.922 350.897 203.078C351.095 203.234 351.35 203.36 351.662 203.456C351.98 203.546 352.325 203.651 352.697 203.771C353.243 203.945 353.753 204.146 354.227 204.374C354.701 204.602 355.082 204.887 355.37 205.229C355.664 205.571 355.808 205.994 355.802 206.498C355.802 207.05 355.637 207.533 355.307 207.947C354.977 208.355 354.548 208.667 354.02 208.883C353.498 209.099 352.937 209.195 352.337 209.171ZM357.221 200H358.733V209H357.221V200ZM357.995 198.533C357.755 198.533 357.554 198.455 357.392 198.299C357.23 198.143 357.149 197.948 357.149 197.714C357.149 197.48 357.23 197.285 357.392 197.129C357.554 196.973 357.752 196.895 357.986 196.895C358.22 196.895 358.418 196.973 358.58 197.129C358.742 197.285 358.823 197.48 358.823 197.714C358.823 197.948 358.742 198.143 358.58 198.299C358.424 198.455 358.229 198.533 357.995 198.533ZM368.815 203.402V209H367.303V203.735C367.303 203.279 367.192 202.865 366.97 202.493C366.748 202.121 366.451 201.827 366.079 201.611C365.707 201.389 365.293 201.278 364.837 201.278C364.387 201.278 363.973 201.389 363.595 201.611C363.223 201.827 362.926 202.121 362.704 202.493C362.482 202.865 362.371 203.279 362.371 203.735V209H360.859V200H362.371V201.125C362.689 200.705 363.091 200.372 363.577 200.126C364.063 199.874 364.591 199.748 365.161 199.748C365.833 199.748 366.445 199.913 366.997 200.243C367.555 200.567 367.996 201.005 368.32 201.557C368.65 202.109 368.815 202.724 368.815 203.402ZM377.468 200H378.98V209.288C378.98 209.882 378.851 210.434 378.593 210.944C378.341 211.46 377.999 211.907 377.567 212.285C377.135 212.669 376.643 212.966 376.091 213.176C375.539 213.392 374.963 213.5 374.363 213.5C373.739 213.5 373.136 213.359 372.554 213.077C371.972 212.801 371.462 212.429 371.024 211.961C370.592 211.499 370.28 210.98 370.088 210.404L371.474 209.774C371.588 210.188 371.792 210.56 372.086 210.89C372.386 211.226 372.734 211.49 373.13 211.682C373.532 211.88 373.943 211.979 374.363 211.979C374.759 211.979 375.14 211.91 375.506 211.772C375.878 211.634 376.211 211.442 376.505 211.196C376.805 210.956 377.039 210.671 377.207 210.341C377.381 210.017 377.468 209.666 377.468 209.288V207.497C377.162 208.013 376.757 208.433 376.253 208.757C375.755 209.075 375.173 209.234 374.507 209.234C373.871 209.234 373.274 209.111 372.716 208.865C372.158 208.619 371.669 208.28 371.249 207.848C370.829 207.41 370.499 206.906 370.259 206.336C370.019 205.766 369.899 205.154 369.899 204.5C369.899 203.846 370.019 203.234 370.259 202.664C370.499 202.088 370.829 201.584 371.249 201.152C371.669 200.714 372.158 200.372 372.716 200.126C373.274 199.88 373.871 199.757 374.507 199.757C375.173 199.757 375.755 199.916 376.253 200.234C376.757 200.552 377.162 200.972 377.468 201.494V200ZM374.516 207.767C375.098 207.767 375.602 207.617 376.028 207.317C376.46 207.017 376.793 206.618 377.027 206.12C377.261 205.622 377.378 205.082 377.378 204.5C377.378 203.9 377.258 203.354 377.018 202.862C376.784 202.364 376.451 201.968 376.019 201.674C375.593 201.374 375.092 201.224 374.516 201.224C373.952 201.224 373.436 201.371 372.968 201.665C372.5 201.959 372.128 202.355 371.852 202.853C371.582 203.345 371.447 203.894 371.447 204.5C371.447 205.106 371.585 205.658 371.861 206.156C372.143 206.648 372.515 207.041 372.977 207.335C373.445 207.623 373.958 207.767 374.516 207.767ZM386.981 213.5H385.469V200H386.981V201.539C387.287 201.011 387.695 200.585 388.205 200.261C388.715 199.931 389.321 199.766 390.023 199.766C390.677 199.766 391.289 199.889 391.859 200.135C392.435 200.381 392.939 200.723 393.371 201.161C393.803 201.593 394.142 202.094 394.388 202.664C394.634 203.234 394.757 203.846 394.757 204.5C394.757 205.154 394.634 205.769 394.388 206.345C394.142 206.921 393.803 207.428 393.371 207.866C392.939 208.298 392.435 208.637 391.859 208.883C391.289 209.129 390.677 209.252 390.023 209.252C389.321 209.252 388.715 209.09 388.205 208.766C387.695 208.436 387.287 208.007 386.981 207.479V213.5ZM390.005 201.233C389.423 201.233 388.913 201.38 388.475 201.674C388.037 201.968 387.698 202.361 387.458 202.853C387.224 203.345 387.107 203.894 387.107 204.5C387.107 205.1 387.224 205.649 387.458 206.147C387.698 206.645 388.034 207.041 388.466 207.335C388.904 207.629 389.417 207.776 390.005 207.776C390.587 207.776 391.121 207.632 391.607 207.344C392.093 207.05 392.483 206.657 392.777 206.165C393.071 205.667 393.218 205.112 393.218 204.5C393.218 203.9 393.074 203.354 392.786 202.862C392.498 202.364 392.111 201.968 391.625 201.674C391.139 201.38 390.599 201.233 390.005 201.233ZM396.262 209V200H397.774V201.125C398.092 200.705 398.494 200.372 398.98 200.126C399.466 199.874 399.994 199.748 400.564 199.748C400.912 199.748 401.248 199.793 401.572 199.883L400.96 201.395C400.714 201.317 400.474 201.278 400.24 201.278C399.79 201.278 399.376 201.389 398.998 201.611C398.626 201.827 398.329 202.121 398.107 202.493C397.885 202.865 397.774 203.279 397.774 203.735V209H396.262ZM406.181 209.234C405.353 209.234 404.597 209.021 403.913 208.595C403.235 208.169 402.692 207.599 402.284 206.885C401.882 206.165 401.681 205.37 401.681 204.5C401.681 203.84 401.798 203.225 402.032 202.655C402.266 202.079 402.587 201.575 402.995 201.143C403.409 200.705 403.889 200.363 404.435 200.117C404.981 199.871 405.563 199.748 406.181 199.748C407.009 199.748 407.762 199.961 408.44 200.387C409.124 200.813 409.667 201.386 410.069 202.106C410.477 202.826 410.681 203.624 410.681 204.5C410.681 205.154 410.564 205.766 410.33 206.336C410.096 206.906 409.772 207.41 409.358 207.848C408.95 208.28 408.473 208.619 407.927 208.865C407.387 209.111 406.805 209.234 406.181 209.234ZM406.181 207.722C406.745 207.722 407.252 207.575 407.702 207.281C408.158 206.981 408.515 206.588 408.773 206.102C409.037 205.61 409.169 205.076 409.169 204.5C409.169 203.912 409.034 203.372 408.764 202.88C408.5 202.388 408.143 201.995 407.693 201.701C407.243 201.407 406.739 201.26 406.181 201.26C405.617 201.26 405.11 201.41 404.66 201.71C404.21 202.004 403.853 202.397 403.589 202.889C403.325 203.381 403.193 203.918 403.193 204.5C403.193 205.1 403.328 205.646 403.598 206.138C403.868 206.624 404.231 207.011 404.687 207.299C405.143 207.581 405.641 207.722 406.181 207.722ZM418.318 206.624L419.668 207.353C419.26 207.923 418.741 208.379 418.111 208.721C417.487 209.063 416.809 209.234 416.077 209.234C415.249 209.234 414.493 209.021 413.809 208.595C413.131 208.169 412.588 207.599 412.18 206.885C411.778 206.165 411.577 205.37 411.577 204.5C411.577 203.84 411.694 203.225 411.928 202.655C412.162 202.079 412.483 201.575 412.891 201.143C413.305 200.705 413.785 200.363 414.331 200.117C414.877 199.871 415.459 199.748 416.077 199.748C416.809 199.748 417.487 199.919 418.111 200.261C418.741 200.603 419.26 201.062 419.668 201.638L418.318 202.367C418.03 202.013 417.688 201.74 417.292 201.548C416.896 201.356 416.491 201.26 416.077 201.26C415.519 201.26 415.012 201.41 414.556 201.71C414.106 202.004 413.749 202.397 413.485 202.889C413.221 203.381 413.089 203.918 413.089 204.5C413.089 205.082 413.221 205.619 413.485 206.111C413.755 206.597 414.115 206.987 414.565 207.281C415.021 207.575 415.525 207.722 416.077 207.722C416.521 207.722 416.938 207.62 417.328 207.416C417.718 207.212 418.048 206.948 418.318 206.624ZM425.095 209.234C424.267 209.234 423.511 209.021 422.827 208.595C422.149 208.169 421.606 207.599 421.198 206.885C420.796 206.165 420.595 205.37 420.595 204.5C420.595 203.84 420.712 203.225 420.946 202.655C421.18 202.079 421.501 201.575 421.909 201.143C422.323 200.705 422.803 200.363 423.349 200.117C423.895 199.871 424.477 199.748 425.095 199.748C425.773 199.748 426.394 199.886 426.958 200.162C427.528 200.432 428.014 200.81 428.416 201.296C428.824 201.782 429.127 202.346 429.325 202.988C429.529 203.63 429.604 204.317 429.55 205.049H422.206C422.278 205.559 422.446 206.015 422.71 206.417C422.974 206.813 423.31 207.128 423.718 207.362C424.132 207.596 424.591 207.716 425.095 207.722C425.635 207.722 426.124 207.584 426.562 207.308C427 207.026 427.354 206.642 427.624 206.156L429.163 206.516C428.803 207.314 428.26 207.968 427.534 208.478C426.808 208.982 425.995 209.234 425.095 209.234ZM422.161 203.861H428.029C427.981 203.357 427.819 202.898 427.543 202.484C427.267 202.064 426.916 201.728 426.49 201.476C426.064 201.224 425.599 201.098 425.095 201.098C424.591 201.098 424.129 201.221 423.709 201.467C423.289 201.713 422.941 202.046 422.665 202.466C422.395 202.88 422.227 203.345 422.161 203.861ZM433.846 209.171C433.36 209.153 432.886 209.063 432.424 208.901C431.968 208.733 431.566 208.508 431.218 208.226C430.876 207.938 430.627 207.608 430.471 207.236L431.767 206.678C431.857 206.882 432.019 207.074 432.253 207.254C432.487 207.434 432.757 207.578 433.063 207.686C433.369 207.794 433.678 207.848 433.99 207.848C434.32 207.848 434.629 207.797 434.917 207.695C435.205 207.593 435.439 207.443 435.619 207.245C435.805 207.041 435.898 206.798 435.898 206.516C435.898 206.216 435.796 205.982 435.592 205.814C435.394 205.64 435.142 205.505 434.836 205.409C434.536 205.307 434.23 205.211 433.918 205.121C433.3 204.965 432.748 204.779 432.262 204.563C431.776 204.341 431.392 204.062 431.11 203.726C430.834 203.384 430.696 202.949 430.696 202.421C430.696 201.863 430.849 201.38 431.155 200.972C431.467 200.564 431.875 200.249 432.379 200.027C432.883 199.805 433.423 199.694 433.999 199.694C434.725 199.694 435.388 199.85 435.988 200.162C436.588 200.474 437.035 200.897 437.329 201.431L436.114 202.142C436.012 201.926 435.856 201.737 435.646 201.575C435.436 201.407 435.196 201.275 434.926 201.179C434.656 201.083 434.38 201.032 434.098 201.026C433.75 201.014 433.423 201.059 433.117 201.161C432.817 201.263 432.574 201.419 432.388 201.629C432.208 201.833 432.118 202.088 432.118 202.394C432.118 202.694 432.214 202.922 432.406 203.078C432.604 203.234 432.859 203.36 433.171 203.456C433.489 203.546 433.834 203.651 434.206 203.771C434.752 203.945 435.262 204.146 435.736 204.374C436.21 204.602 436.591 204.887 436.879 205.229C437.173 205.571 437.317 205.994 437.311 206.498C437.311 207.05 437.146 207.533 436.816 207.947C436.486 208.355 436.057 208.667 435.529 208.883C435.007 209.099 434.446 209.195 433.846 209.171ZM441.598 209.171C441.112 209.153 440.638 209.063 440.176 208.901C439.72 208.733 439.318 208.508 438.97 208.226C438.628 207.938 438.379 207.608 438.223 207.236L439.519 206.678C439.609 206.882 439.771 207.074 440.005 207.254C440.239 207.434 440.509 207.578 440.815 207.686C441.121 207.794 441.43 207.848 441.742 207.848C442.072 207.848 442.381 207.797 442.669 207.695C442.957 207.593 443.191 207.443 443.371 207.245C443.557 207.041 443.65 206.798 443.65 206.516C443.65 206.216 443.548 205.982 443.344 205.814C443.146 205.64 442.894 205.505 442.588 205.409C442.288 205.307 441.982 205.211 441.67 205.121C441.052 204.965 440.5 204.779 440.014 204.563C439.528 204.341 439.144 204.062 438.862 203.726C438.586 203.384 438.448 202.949 438.448 202.421C438.448 201.863 438.601 201.38 438.907 200.972C439.219 200.564 439.627 200.249 440.131 200.027C440.635 199.805 441.175 199.694 441.751 199.694C442.477 199.694 443.14 199.85 443.74 200.162C444.34 200.474 444.787 200.897 445.081 201.431L443.866 202.142C443.764 201.926 443.608 201.737 443.398 201.575C443.188 201.407 442.948 201.275 442.678 201.179C442.408 201.083 442.132 201.032 441.85 201.026C441.502 201.014 441.175 201.059 440.869 201.161C440.569 201.263 440.326 201.419 440.14 201.629C439.96 201.833 439.87 202.088 439.87 202.394C439.87 202.694 439.966 202.922 440.158 203.078C440.356 203.234 440.611 203.36 440.923 203.456C441.241 203.546 441.586 203.651 441.958 203.771C442.504 203.945 443.014 204.146 443.488 204.374C443.962 204.602 444.343 204.887 444.631 205.229C444.925 205.571 445.069 205.994 445.063 206.498C445.063 207.05 444.898 207.533 444.568 207.947C444.238 208.355 443.809 208.667 443.281 208.883C442.759 209.099 442.198 209.195 441.598 209.171ZM447.029 209.234C446.801 209.234 446.606 209.153 446.444 208.991C446.288 208.829 446.21 208.631 446.21 208.397C446.21 208.175 446.288 207.983 446.444 207.821C446.606 207.659 446.801 207.578 447.029 207.578C447.263 207.578 447.461 207.659 447.623 207.821C447.785 207.983 447.866 208.175 447.866 208.397C447.866 208.631 447.785 208.829 447.623 208.991C447.461 209.153 447.263 209.234 447.029 209.234Z" fill="#999999"></path><defs><linearGradient id="paint0_linear_104_11493" x1="56.75" y1="136.5" x2="135.75" y2="44.5" gradientUnits="userSpaceOnUse"><stop stop-color="#A685FA"></stop><stop offset="0.323723" stop-color="#A685FA" stop-opacity="0"></stop></linearGradient><linearGradient id="paint1_linear_104_11493" x1="131.75" y1="39.5" x2="56.75" y2="132" gradientUnits="userSpaceOnUse"><stop stop-color="#A685FA"></stop><stop offset="0.576615" stop-color="#A685FA" stop-opacity="0"></stop></linearGradient><linearGradient id="paint2_linear_104_11493" x1="53.25" y1="63.5" x2="121.75" y2="122" gradientUnits="userSpaceOnUse"><stop stop-color="#A685FA"></stop><stop offset="0.323723" stop-color="#A685FA" stop-opacity="0"></stop></linearGradient><linearGradient id="paint3_linear_104_11493" x1="134.25" y1="136" x2="62.25" y2="85" gradientUnits="userSpaceOnUse"><stop stop-color="#A685FA"></stop><stop offset="0.576615" stop-color="#A685FA" stop-opacity="0"></stop></linearGradient></defs></svg>