<svg xmlns="http://www.w3.org/2000/svg" width="414" height="282" viewBox="0 0 414 282" fill="none"><rect x="1.16797" y="0.5" width="412.333" height="281" rx="9.5" fill="#141414"></rect><rect x="1.16797" y="0.5" width="412.333" height="281" rx="9.5" stroke="#262626"></rect><path d="M50.278 48H52.358V62H50.278V55.54H43.948V62H41.868V48H43.948V53.46H50.278V48ZM59.0219 62.26C58.1019 62.26 57.2619 62.0233 56.5019 61.55C55.7485 61.0767 55.1452 60.4433 54.6919 59.65C54.2452 58.85 54.0219 57.9667 54.0219 57C54.0219 56.2667 54.1519 55.5833 54.4119 54.95C54.6719 54.31 55.0285 53.75 55.4819 53.27C55.9419 52.7833 56.4752 52.4033 57.0819 52.13C57.6885 51.8567 58.3352 51.72 59.0219 51.72C59.9419 51.72 60.7785 51.9567 61.5319 52.43C62.2919 52.9033 62.8952 53.54 63.3419 54.34C63.7952 55.14 64.0219 56.0267 64.0219 57C64.0219 57.7267 63.8919 58.4067 63.6319 59.04C63.3719 59.6733 63.0119 60.2333 62.5519 60.72C62.0985 61.2 61.5685 61.5767 60.9619 61.85C60.3619 62.1233 59.7152 62.26 59.0219 62.26ZM59.0219 60.18C59.5752 60.18 60.0719 60.0333 60.5119 59.74C60.9519 59.4467 61.2985 59.06 61.5519 58.58C61.8119 58.0933 61.9419 57.5667 61.9419 57C61.9419 56.42 61.8085 55.8867 61.5419 55.4C61.2819 54.9133 60.9319 54.5267 60.4919 54.24C60.0519 53.9467 59.5619 53.8 59.0219 53.8C58.4752 53.8 57.9785 53.9467 57.5319 54.24C57.0919 54.5333 56.7419 54.9233 56.4819 55.41C56.2285 55.8967 56.1019 56.4267 56.1019 57C56.1019 57.5933 56.2352 58.13 56.5019 58.61C56.7685 59.09 57.1219 59.4733 57.5619 59.76C58.0085 60.04 58.4952 60.18 59.0219 60.18ZM69.9888 62H67.9188L64.5688 52H66.6087L68.9688 59.02L71.3088 52H73.4088L75.7488 59.02L78.0988 52H80.1388L76.7988 62H74.7088L72.3488 54.93L69.9888 62ZM93.2808 59.16L95.1408 60.17C94.6874 60.8033 94.1108 61.31 93.4108 61.69C92.7174 62.07 91.9641 62.26 91.1508 62.26C90.2308 62.26 89.3908 62.0233 88.6308 61.55C87.8774 61.0767 87.2741 60.4433 86.8208 59.65C86.3741 58.85 86.1508 57.9667 86.1508 57C86.1508 56.2667 86.2808 55.5833 86.5408 54.95C86.8008 54.31 87.1574 53.75 87.6108 53.27C88.0708 52.7833 88.6041 52.4033 89.2108 52.13C89.8174 51.8567 90.4641 51.72 91.1508 51.72C91.9641 51.72 92.7174 51.91 93.4108 52.29C94.1108 52.67 94.6874 53.18 95.1408 53.82L93.2808 54.83C93.0008 54.4967 92.6741 54.2433 92.3008 54.07C91.9274 53.89 91.5441 53.8 91.1508 53.8C90.6041 53.8 90.1074 53.95 89.6608 54.25C89.2208 54.5433 88.8708 54.9333 88.6108 55.42C88.3574 55.9 88.2308 56.4267 88.2308 57C88.2308 57.5667 88.3608 58.0933 88.6208 58.58C88.8808 59.06 89.2308 59.4467 89.6708 59.74C90.1174 60.0333 90.6108 60.18 91.1508 60.18C91.5641 60.18 91.9574 60.0867 92.3308 59.9C92.7041 59.7133 93.0208 59.4667 93.2808 59.16ZM104.492 52H106.572V62H104.482L104.402 60.55C104.108 61.0633 103.712 61.4767 103.212 61.79C102.712 62.1033 102.122 62.26 101.442 62.26C100.708 62.26 100.018 62.1233 99.3717 61.85C98.7251 61.57 98.1551 61.1833 97.6617 60.69C97.1751 60.1967 96.7951 59.63 96.5217 58.99C96.2484 58.3433 96.1117 57.65 96.1117 56.91C96.1117 56.1967 96.2451 55.5267 96.5117 54.9C96.7784 54.2667 97.1484 53.7133 97.6217 53.24C98.0951 52.7667 98.6417 52.3967 99.2617 52.13C99.8884 51.8567 100.558 51.72 101.272 51.72C101.998 51.72 102.638 51.8867 103.192 52.22C103.752 52.5467 104.215 52.9667 104.582 53.48L104.492 52ZM101.392 60.25C101.978 60.25 102.492 60.1067 102.932 59.82C103.372 59.5267 103.712 59.1333 103.952 58.64C104.198 58.1467 104.322 57.6 104.322 57C104.322 56.3933 104.198 55.8433 103.952 55.35C103.705 54.8567 103.362 54.4667 102.922 54.18C102.488 53.8867 101.978 53.74 101.392 53.74C100.812 53.74 100.282 53.8867 99.8017 54.18C99.3217 54.4733 98.9417 54.8667 98.6617 55.36C98.3817 55.8533 98.2417 56.4 98.2417 57C98.2417 57.6067 98.3851 58.1567 98.6717 58.65C98.9651 59.1367 99.3484 59.5267 99.8217 59.82C100.302 60.1067 100.825 60.25 101.392 60.25ZM117.567 55.73V62H115.487V56.24C115.487 55.7933 115.377 55.3867 115.157 55.02C114.944 54.6533 114.654 54.3633 114.287 54.15C113.927 53.93 113.521 53.82 113.067 53.82C112.627 53.82 112.224 53.93 111.857 54.15C111.491 54.3633 111.197 54.6533 110.977 55.02C110.757 55.3867 110.647 55.7933 110.647 56.24V62H108.567V52H110.647V53.06C110.994 52.6467 111.421 52.32 111.927 52.08C112.434 51.84 112.981 51.72 113.567 51.72C114.307 51.72 114.981 51.9 115.587 52.26C116.194 52.62 116.674 53.1033 117.027 53.71C117.387 54.3167 117.567 54.99 117.567 55.73ZM124.668 62V48H126.748V62H124.668ZM140.781 59.16L142.641 60.17C142.187 60.8033 141.611 61.31 140.911 61.69C140.217 62.07 139.464 62.26 138.651 62.26C137.731 62.26 136.891 62.0233 136.131 61.55C135.377 61.0767 134.774 60.4433 134.321 59.65C133.874 58.85 133.651 57.9667 133.651 57C133.651 56.2667 133.781 55.5833 134.041 54.95C134.301 54.31 134.657 53.75 135.111 53.27C135.571 52.7833 136.104 52.4033 136.711 52.13C137.317 51.8567 137.964 51.72 138.651 51.72C139.464 51.72 140.217 51.91 140.911 52.29C141.611 52.67 142.187 53.18 142.641 53.82L140.781 54.83C140.501 54.4967 140.174 54.2433 139.801 54.07C139.427 53.89 139.044 53.8 138.651 53.8C138.104 53.8 137.607 53.95 137.161 54.25C136.721 54.5433 136.371 54.9333 136.111 55.42C135.857 55.9 135.731 56.4267 135.731 57C135.731 57.5667 135.861 58.0933 136.121 58.58C136.381 59.06 136.731 59.4467 137.171 59.74C137.617 60.0333 138.111 60.18 138.651 60.18C139.064 60.18 139.457 60.0867 139.831 59.9C140.204 59.7133 140.521 59.4667 140.781 59.16ZM148.612 62.26C147.692 62.26 146.852 62.0233 146.092 61.55C145.338 61.0767 144.735 60.4433 144.282 59.65C143.835 58.85 143.612 57.9667 143.612 57C143.612 56.2667 143.742 55.5833 144.002 54.95C144.262 54.31 144.618 53.75 145.072 53.27C145.532 52.7833 146.065 52.4033 146.672 52.13C147.278 51.8567 147.925 51.72 148.612 51.72C149.532 51.72 150.368 51.9567 151.122 52.43C151.882 52.9033 152.485 53.54 152.932 54.34C153.385 55.14 153.612 56.0267 153.612 57C153.612 57.7267 153.482 58.4067 153.222 59.04C152.962 59.6733 152.602 60.2333 152.142 60.72C151.688 61.2 151.158 61.5767 150.552 61.85C149.952 62.1233 149.305 62.26 148.612 62.26ZM148.612 60.18C149.165 60.18 149.662 60.0333 150.102 59.74C150.542 59.4467 150.888 59.06 151.142 58.58C151.402 58.0933 151.532 57.5667 151.532 57C151.532 56.42 151.398 55.8867 151.132 55.4C150.872 54.9133 150.522 54.5267 150.082 54.24C149.642 53.9467 149.152 53.8 148.612 53.8C148.065 53.8 147.568 53.9467 147.122 54.24C146.682 54.5333 146.332 54.9233 146.072 55.41C145.818 55.8967 145.692 56.4267 145.692 57C145.692 57.5933 145.825 58.13 146.092 58.61C146.358 59.09 146.712 59.4733 147.152 59.76C147.598 60.04 148.085 60.18 148.612 60.18ZM164.227 55.73V62H162.147V56.24C162.147 55.7933 162.037 55.3867 161.817 55.02C161.604 54.6533 161.314 54.3633 160.947 54.15C160.587 53.93 160.181 53.82 159.727 53.82C159.287 53.82 158.884 53.93 158.517 54.15C158.151 54.3633 157.857 54.6533 157.637 55.02C157.417 55.3867 157.307 55.7933 157.307 56.24V62H155.227V52H157.307V53.06C157.654 52.6467 158.081 52.32 158.587 52.08C159.094 51.84 159.641 51.72 160.227 51.72C160.967 51.72 161.641 51.9 162.247 52.26C162.854 52.62 163.334 53.1033 163.687 53.71C164.047 54.3167 164.227 54.99 164.227 55.73ZM171.503 54.08H169.403L169.393 62H167.313L167.323 54.08H165.733V52H167.323L167.313 48.86H169.393L169.403 52H171.503V54.08ZM180.839 52H182.919V62H180.829L180.749 60.55C180.456 61.0633 180.059 61.4767 179.559 61.79C179.059 62.1033 178.469 62.26 177.789 62.26C177.056 62.26 176.366 62.1233 175.719 61.85C175.073 61.57 174.503 61.1833 174.009 60.69C173.523 60.1967 173.143 59.63 172.869 58.99C172.596 58.3433 172.459 57.65 172.459 56.91C172.459 56.1967 172.593 55.5267 172.859 54.9C173.126 54.2667 173.496 53.7133 173.969 53.24C174.443 52.7667 174.989 52.3967 175.609 52.13C176.236 51.8567 176.906 51.72 177.619 51.72C178.346 51.72 178.986 51.8867 179.539 52.22C180.099 52.5467 180.563 52.9667 180.929 53.48L180.839 52ZM177.739 60.25C178.326 60.25 178.839 60.1067 179.279 59.82C179.719 59.5267 180.059 59.1333 180.299 58.64C180.546 58.1467 180.669 57.6 180.669 57C180.669 56.3933 180.546 55.8433 180.299 55.35C180.053 54.8567 179.709 54.4667 179.269 54.18C178.836 53.8867 178.326 53.74 177.739 53.74C177.159 53.74 176.629 53.8867 176.149 54.18C175.669 54.4733 175.289 54.8667 175.009 55.36C174.729 55.8533 174.589 56.4 174.589 57C174.589 57.6067 174.733 58.1567 175.019 58.65C175.313 59.1367 175.696 59.5267 176.169 59.82C176.649 60.1067 177.173 60.25 177.739 60.25ZM191.25 59.16L193.11 60.17C192.656 60.8033 192.08 61.31 191.38 61.69C190.686 62.07 189.933 62.26 189.12 62.26C188.2 62.26 187.36 62.0233 186.6 61.55C185.846 61.0767 185.243 60.4433 184.79 59.65C184.343 58.85 184.12 57.9667 184.12 57C184.12 56.2667 184.25 55.5833 184.51 54.95C184.77 54.31 185.126 53.75 185.58 53.27C186.04 52.7833 186.573 52.4033 187.18 52.13C187.786 51.8567 188.433 51.72 189.12 51.72C189.933 51.72 190.686 51.91 191.38 52.29C192.08 52.67 192.656 53.18 193.11 53.82L191.25 54.83C190.97 54.4967 190.643 54.2433 190.27 54.07C189.896 53.89 189.513 53.8 189.12 53.8C188.573 53.8 188.076 53.95 187.63 54.25C187.19 54.5433 186.84 54.9333 186.58 55.42C186.326 55.9 186.2 56.4267 186.2 57C186.2 57.5667 186.33 58.0933 186.59 58.58C186.85 59.06 187.2 59.4467 187.64 59.74C188.086 60.0333 188.58 60.18 189.12 60.18C189.533 60.18 189.926 60.0867 190.3 59.9C190.673 59.7133 190.99 59.4667 191.25 59.16ZM200.195 54.08H198.095L198.085 62H196.005L196.015 54.08H194.425V52H196.015L196.005 48.86H198.085L198.095 52H200.195V54.08ZM214.57 52H216.65V62H214.56L214.48 60.55C214.187 61.0633 213.79 61.4767 213.29 61.79C212.79 62.1033 212.2 62.26 211.52 62.26C210.787 62.26 210.097 62.1233 209.45 61.85C208.803 61.57 208.233 61.1833 207.74 60.69C207.253 60.1967 206.873 59.63 206.6 58.99C206.327 58.3433 206.19 57.65 206.19 56.91C206.19 56.1967 206.323 55.5267 206.59 54.9C206.857 54.2667 207.227 53.7133 207.7 53.24C208.173 52.7667 208.72 52.3967 209.34 52.13C209.967 51.8567 210.637 51.72 211.35 51.72C212.077 51.72 212.717 51.8867 213.27 52.22C213.83 52.5467 214.293 52.9667 214.66 53.48L214.57 52ZM211.47 60.25C212.057 60.25 212.57 60.1067 213.01 59.82C213.45 59.5267 213.79 59.1333 214.03 58.64C214.277 58.1467 214.4 57.6 214.4 57C214.4 56.3933 214.277 55.8433 214.03 55.35C213.783 54.8567 213.44 54.4667 213 54.18C212.567 53.8867 212.057 53.74 211.47 53.74C210.89 53.74 210.36 53.8867 209.88 54.18C209.4 54.4733 209.02 54.8667 208.74 55.36C208.46 55.8533 208.32 56.4 208.32 57C208.32 57.6067 208.463 58.1567 208.75 58.65C209.043 59.1367 209.427 59.5267 209.9 59.82C210.38 60.1067 210.903 60.25 211.47 60.25ZM227.645 55.73V62H225.565V56.24C225.565 55.7933 225.455 55.3867 225.235 55.02C225.022 54.6533 224.732 54.3633 224.365 54.15C224.005 53.93 223.599 53.82 223.145 53.82C222.705 53.82 222.302 53.93 221.935 54.15C221.569 54.3633 221.275 54.6533 221.055 55.02C220.835 55.3867 220.725 55.7933 220.725 56.24V62H218.645V52H220.725V53.06C221.072 52.6467 221.499 52.32 222.005 52.08C222.512 51.84 223.059 51.72 223.645 51.72C224.385 51.72 225.059 51.9 225.665 52.26C226.272 52.62 226.752 53.1033 227.105 53.71C227.465 54.3167 227.645 54.99 227.645 55.73ZM234.446 62V48H243.136V50.08H236.526V53.46H241.846V55.54H236.526V59.92H243.136V62H234.446ZM248.345 62.19C247.818 62.1567 247.305 62.05 246.805 61.87C246.305 61.69 245.865 61.4467 245.485 61.14C245.111 60.8267 244.831 60.46 244.645 60.04L246.415 59.28C246.501 59.46 246.651 59.6367 246.865 59.81C247.085 59.9833 247.341 60.1267 247.635 60.24C247.928 60.3467 248.235 60.4 248.555 60.4C248.868 60.4 249.158 60.3567 249.425 60.27C249.698 60.1767 249.921 60.0367 250.095 59.85C250.268 59.6633 250.355 59.44 250.355 59.18C250.355 58.8867 250.255 58.66 250.055 58.5C249.861 58.3333 249.618 58.2067 249.325 58.12C249.031 58.0333 248.738 57.95 248.445 57.87C247.791 57.7233 247.191 57.5233 246.645 57.27C246.105 57.01 245.675 56.68 245.355 56.28C245.035 55.8733 244.875 55.3767 244.875 54.79C244.875 54.15 245.048 53.5967 245.395 53.13C245.741 52.6567 246.195 52.2933 246.755 52.04C247.321 51.7867 247.925 51.66 248.565 51.66C249.365 51.66 250.098 51.83 250.765 52.17C251.431 52.51 251.941 52.9767 252.295 53.57L250.645 54.55C250.545 54.35 250.395 54.17 250.195 54.01C249.995 53.85 249.768 53.7233 249.515 53.63C249.261 53.53 248.998 53.4733 248.725 53.46C248.385 53.4467 248.068 53.4867 247.775 53.58C247.488 53.6667 247.258 53.8067 247.085 54C246.911 54.1933 246.825 54.44 246.825 54.74C246.825 55.0333 246.928 55.2533 247.135 55.4C247.341 55.54 247.601 55.6533 247.915 55.74C248.235 55.8267 248.561 55.9233 248.895 56.03C249.488 56.2167 250.045 56.4467 250.565 56.72C251.085 56.9867 251.505 57.3167 251.825 57.71C252.145 58.1033 252.298 58.5833 252.285 59.15C252.285 59.7767 252.095 60.3267 251.715 60.8C251.341 61.2733 250.855 61.6333 250.255 61.88C249.655 62.1267 249.018 62.23 248.345 62.19ZM259.277 54.08H257.177L257.167 62H255.087L255.097 54.08H253.507V52H255.097L255.087 48.86H257.167L257.177 52H259.277V54.08ZM268.613 52H270.693V62H268.603L268.523 60.55C268.229 61.0633 267.833 61.4767 267.333 61.79C266.833 62.1033 266.243 62.26 265.563 62.26C264.829 62.26 264.139 62.1233 263.493 61.85C262.846 61.57 262.276 61.1833 261.783 60.69C261.296 60.1967 260.916 59.63 260.643 58.99C260.369 58.3433 260.233 57.65 260.233 56.91C260.233 56.1967 260.366 55.5267 260.633 54.9C260.899 54.2667 261.269 53.7133 261.743 53.24C262.216 52.7667 262.763 52.3967 263.383 52.13C264.009 51.8567 264.679 51.72 265.393 51.72C266.119 51.72 266.759 51.8867 267.313 52.22C267.873 52.5467 268.336 52.9667 268.703 53.48L268.613 52ZM265.513 60.25C266.099 60.25 266.613 60.1067 267.053 59.82C267.493 59.5267 267.833 59.1333 268.073 58.64C268.319 58.1467 268.443 57.6 268.443 57C268.443 56.3933 268.319 55.8433 268.073 55.35C267.826 54.8567 267.483 54.4667 267.043 54.18C266.609 53.8867 266.099 53.74 265.513 53.74C264.933 53.74 264.403 53.8867 263.923 54.18C263.443 54.4733 263.063 54.8667 262.783 55.36C262.503 55.8533 262.363 56.4 262.363 57C262.363 57.6067 262.506 58.1567 262.793 58.65C263.086 59.1367 263.469 59.5267 263.943 59.82C264.423 60.1067 264.946 60.25 265.513 60.25ZM277.968 54.08H275.868L275.858 62H273.778L273.788 54.08H272.198V52H273.788L273.778 48.86H275.858L275.868 52H277.968V54.08ZM283.924 62.26C283.004 62.26 282.164 62.0233 281.404 61.55C280.651 61.0767 280.048 60.4433 279.594 59.65C279.148 58.85 278.924 57.9667 278.924 57C278.924 56.2667 279.054 55.5833 279.314 54.95C279.574 54.31 279.931 53.75 280.384 53.27C280.844 52.7833 281.378 52.4033 281.984 52.13C282.591 51.8567 283.238 51.72 283.924 51.72C284.691 51.72 285.394 51.88 286.034 52.2C286.674 52.5133 287.221 52.95 287.674 53.51C288.128 54.0633 288.461 54.7033 288.674 55.43C288.888 56.15 288.951 56.9167 288.864 57.73H281.154C281.241 58.19 281.408 58.6067 281.654 58.98C281.908 59.3467 282.228 59.6367 282.614 59.85C283.008 60.0633 283.444 60.1733 283.924 60.18C284.431 60.18 284.891 60.0533 285.304 59.8C285.724 59.5467 286.068 59.1967 286.334 58.75L288.444 59.24C288.044 60.1267 287.441 60.8533 286.634 61.42C285.828 61.98 284.924 62.26 283.924 62.26ZM281.084 56.14H286.764C286.698 55.66 286.528 55.2267 286.254 54.84C285.988 54.4467 285.651 54.1367 285.244 53.91C284.844 53.6767 284.404 53.56 283.924 53.56C283.451 53.56 283.011 53.6733 282.604 53.9C282.204 54.1267 281.871 54.4367 281.604 54.83C281.344 55.2167 281.171 55.6533 281.084 56.14ZM290.325 52H292.405V62H290.325V52ZM291.385 50.55C291.065 50.55 290.798 50.4467 290.585 50.24C290.372 50.0333 290.265 49.7733 290.265 49.46C290.265 49.1533 290.372 48.8967 290.585 48.69C290.798 48.4767 291.062 48.37 291.375 48.37C291.682 48.37 291.942 48.4767 292.155 48.69C292.368 48.8967 292.475 49.1533 292.475 49.46C292.475 49.7733 292.368 50.0333 292.155 50.24C291.948 50.4467 291.692 50.55 291.385 50.55ZM303.739 55.73V62H301.659V56.24C301.659 55.7933 301.549 55.3867 301.329 55.02C301.116 54.6533 300.826 54.3633 300.459 54.15C300.099 53.93 299.692 53.82 299.239 53.82C298.799 53.82 298.396 53.93 298.029 54.15C297.662 54.3633 297.369 54.6533 297.149 55.02C296.929 55.3867 296.819 55.7933 296.819 56.24V62H294.739V52H296.819V53.06C297.166 52.6467 297.592 52.32 298.099 52.08C298.606 51.84 299.152 51.72 299.739 51.72C300.479 51.72 301.152 51.9 301.759 52.26C302.366 52.62 302.846 53.1033 303.199 53.71C303.559 54.3167 303.739 54.99 303.739 55.73ZM318.32 52H320.4V62H318.31L318.23 60.55C317.937 61.0633 317.54 61.4767 317.04 61.79C316.54 62.1033 315.95 62.26 315.27 62.26C314.537 62.26 313.847 62.1233 313.2 61.85C312.553 61.57 311.983 61.1833 311.49 60.69C311.003 60.1967 310.623 59.63 310.35 58.99C310.077 58.3433 309.94 57.65 309.94 56.91C309.94 56.1967 310.073 55.5267 310.34 54.9C310.607 54.2667 310.977 53.7133 311.45 53.24C311.923 52.7667 312.47 52.3967 313.09 52.13C313.717 51.8567 314.387 51.72 315.1 51.72C315.827 51.72 316.467 51.8867 317.02 52.22C317.58 52.5467 318.043 52.9667 318.41 53.48L318.32 52ZM315.22 60.25C315.807 60.25 316.32 60.1067 316.76 59.82C317.2 59.5267 317.54 59.1333 317.78 58.64C318.027 58.1467 318.15 57.6 318.15 57C318.15 56.3933 318.027 55.8433 317.78 55.35C317.533 54.8567 317.19 54.4667 316.75 54.18C316.317 53.8867 315.807 53.74 315.22 53.74C314.64 53.74 314.11 53.8867 313.63 54.18C313.15 54.4733 312.77 54.8667 312.49 55.36C312.21 55.8533 312.07 56.4 312.07 57C312.07 57.6067 312.213 58.1567 312.5 58.65C312.793 59.1367 313.177 59.5267 313.65 59.82C314.13 60.1067 314.653 60.25 315.22 60.25ZM329.81 52H331.89V62.26C331.89 62.9467 331.743 63.58 331.45 64.16C331.163 64.74 330.773 65.24 330.28 65.66C329.787 66.0867 329.22 66.4167 328.58 66.65C327.947 66.8833 327.283 67 326.59 67C325.89 67 325.217 66.85 324.57 66.55C323.923 66.2567 323.353 65.8567 322.86 65.35C322.373 64.8433 322.01 64.27 321.77 63.63L323.68 62.77C323.813 63.1833 324.027 63.55 324.32 63.87C324.62 64.19 324.967 64.4433 325.36 64.63C325.76 64.8167 326.17 64.91 326.59 64.91C327.003 64.91 327.4 64.8433 327.78 64.71C328.167 64.5833 328.51 64.4033 328.81 64.17C329.117 63.9367 329.36 63.6567 329.54 63.33C329.72 63.0033 329.81 62.6467 329.81 62.26V60.57C329.483 61.0767 329.063 61.4867 328.55 61.8C328.037 62.1067 327.44 62.26 326.76 62.26C326.053 62.26 325.387 62.1233 324.76 61.85C324.133 61.5767 323.583 61.2 323.11 60.72C322.637 60.2333 322.267 59.6733 322 59.04C321.733 58.4067 321.6 57.7267 321.6 57C321.6 56.2733 321.733 55.5933 322 54.96C322.267 54.32 322.637 53.76 323.11 53.28C323.583 52.7933 324.133 52.4133 324.76 52.14C325.387 51.8667 326.053 51.73 326.76 51.73C327.44 51.73 328.037 51.8867 328.55 52.2C329.063 52.5067 329.483 52.9167 329.81 53.43V52ZM326.78 60.25C327.36 60.25 327.867 60.1033 328.3 59.81C328.733 59.51 329.07 59.1133 329.31 58.62C329.55 58.1267 329.67 57.5867 329.67 57C329.67 56.4 329.547 55.8567 329.3 55.37C329.06 54.8767 328.723 54.4833 328.29 54.19C327.857 53.89 327.353 53.74 326.78 53.74C326.22 53.74 325.707 53.8867 325.24 54.18C324.78 54.4733 324.413 54.8667 324.14 55.36C323.867 55.8533 323.73 56.4 323.73 57C323.73 57.6 323.867 58.1467 324.14 58.64C324.42 59.1333 324.79 59.5267 325.25 59.82C325.717 60.1067 326.227 60.25 326.78 60.25ZM338.514 62.26C337.594 62.26 336.754 62.0233 335.994 61.55C335.241 61.0767 334.637 60.4433 334.184 59.65C333.737 58.85 333.514 57.9667 333.514 57C333.514 56.2667 333.644 55.5833 333.904 54.95C334.164 54.31 334.521 53.75 334.974 53.27C335.434 52.7833 335.967 52.4033 336.574 52.13C337.181 51.8567 337.827 51.72 338.514 51.72C339.281 51.72 339.984 51.88 340.624 52.2C341.264 52.5133 341.811 52.95 342.264 53.51C342.717 54.0633 343.051 54.7033 343.264 55.43C343.477 56.15 343.541 56.9167 343.454 57.73H335.744C335.831 58.19 335.997 58.6067 336.244 58.98C336.497 59.3467 336.817 59.6367 337.204 59.85C337.597 60.0633 338.034 60.1733 338.514 60.18C339.021 60.18 339.481 60.0533 339.894 59.8C340.314 59.5467 340.657 59.1967 340.924 58.75L343.034 59.24C342.634 60.1267 342.031 60.8533 341.224 61.42C340.417 61.98 339.514 62.26 338.514 62.26ZM335.674 56.14H341.354C341.287 55.66 341.117 55.2267 340.844 54.84C340.577 54.4467 340.241 54.1367 339.834 53.91C339.434 53.6767 338.994 53.56 338.514 53.56C338.041 53.56 337.601 53.6733 337.194 53.9C336.794 54.1267 336.461 54.4367 336.194 54.83C335.934 55.2167 335.761 55.6533 335.674 56.14ZM354.11 55.73V62H352.03V56.24C352.03 55.7933 351.92 55.3867 351.7 55.02C351.487 54.6533 351.197 54.3633 350.83 54.15C350.47 53.93 350.063 53.82 349.61 53.82C349.17 53.82 348.767 53.93 348.4 54.15C348.033 54.3633 347.74 54.6533 347.52 55.02C347.3 55.3867 347.19 55.7933 347.19 56.24V62H345.11V52H347.19V53.06C347.537 52.6467 347.963 52.32 348.47 52.08C348.977 51.84 349.523 51.72 350.11 51.72C350.85 51.72 351.523 51.9 352.13 52.26C352.737 52.62 353.217 53.1033 353.57 53.71C353.93 54.3167 354.11 54.99 354.11 55.73ZM361.386 54.08H359.286L359.276 62H357.196L357.206 54.08H355.616V52H357.206L357.196 48.86H359.276L359.286 52H361.386V54.08ZM366.227 57.53C366.227 56.81 366.407 56.1467 366.767 55.54C367.133 54.9333 367.633 54.4567 368.267 54.11C368.627 53.9233 368.907 53.65 369.107 53.29C369.307 52.9233 369.407 52.52 369.407 52.08C369.407 51.66 369.303 51.28 369.097 50.94C368.897 50.5933 368.623 50.32 368.277 50.12C367.93 49.9133 367.547 49.81 367.127 49.81C366.713 49.81 366.333 49.9133 365.987 50.12C365.64 50.32 365.363 50.5933 365.157 50.94C364.957 51.28 364.857 51.66 364.857 52.08H362.777C362.777 51.28 362.97 50.5533 363.357 49.9C363.75 49.24 364.277 48.7133 364.937 48.32C365.603 47.9267 366.333 47.73 367.127 47.73C367.933 47.73 368.667 47.9267 369.327 48.32C369.987 48.7133 370.51 49.24 370.897 49.9C371.29 50.5533 371.487 51.28 371.487 52.08C371.487 52.9 371.287 53.6567 370.887 54.35C370.493 55.0367 369.95 55.57 369.257 55.95C368.963 56.1033 368.73 56.32 368.557 56.6C368.39 56.88 368.307 57.19 368.307 57.53H366.227ZM367.317 62.26C367.01 62.26 366.75 62.1533 366.537 61.94C366.323 61.72 366.217 61.4567 366.217 61.15C366.217 60.85 366.323 60.5967 366.537 60.39C366.75 60.1767 367.01 60.07 367.317 60.07C367.617 60.07 367.873 60.1767 368.087 60.39C368.3 60.5967 368.407 60.85 368.407 61.15C368.407 61.4567 368.3 61.72 368.087 61.94C367.873 62.1533 367.617 62.26 367.317 62.26Z" fill="white"></path><path d="M41.628 142V130.8H45.332C46.1053 130.8 46.8306 130.947 47.508 131.24C48.1853 131.528 48.78 131.931 49.292 132.448C49.804 132.96 50.204 133.555 50.492 134.232C50.7853 134.904 50.932 135.627 50.932 136.4C50.932 137.173 50.7853 137.899 50.492 138.576C50.204 139.248 49.804 139.843 49.292 140.36C48.78 140.872 48.1853 141.275 47.508 141.568C46.8306 141.856 46.1053 142 45.332 142H41.628ZM42.972 140.656H45.332C45.9186 140.656 46.468 140.547 46.98 140.328C47.4973 140.104 47.9506 139.797 48.34 139.408C48.7293 139.019 49.0333 138.568 49.252 138.056C49.476 137.539 49.588 136.987 49.588 136.4C49.588 135.813 49.476 135.264 49.252 134.752C49.0333 134.235 48.7266 133.781 48.332 133.392C47.9426 133.003 47.492 132.699 46.98 132.48C46.468 132.256 45.9186 132.144 45.332 132.144H42.972V140.656ZM52.2038 134H53.5478V142H52.2038V134ZM52.8918 132.696C52.6785 132.696 52.4998 132.627 52.3558 132.488C52.2118 132.349 52.1398 132.176 52.1398 131.968C52.1398 131.76 52.2118 131.587 52.3558 131.448C52.4998 131.309 52.6758 131.24 52.8838 131.24C53.0918 131.24 53.2678 131.309 53.4118 131.448C53.5558 131.587 53.6278 131.76 53.6278 131.968C53.6278 132.176 53.5558 132.349 53.4118 132.488C53.2732 132.627 53.0998 132.696 52.8918 132.696ZM57.7353 142.152C57.3033 142.136 56.882 142.056 56.4713 141.912C56.066 141.763 55.7087 141.563 55.3993 141.312C55.0953 141.056 54.874 140.763 54.7353 140.432L55.8873 139.936C55.9673 140.117 56.1113 140.288 56.3193 140.448C56.5273 140.608 56.7673 140.736 57.0393 140.832C57.3113 140.928 57.586 140.976 57.8633 140.976C58.1567 140.976 58.4313 140.931 58.6873 140.84C58.9433 140.749 59.1513 140.616 59.3113 140.44C59.4767 140.259 59.5593 140.043 59.5593 139.792C59.5593 139.525 59.4687 139.317 59.2873 139.168C59.1113 139.013 58.8873 138.893 58.6153 138.808C58.3487 138.717 58.0767 138.632 57.7993 138.552C57.25 138.413 56.7593 138.248 56.3273 138.056C55.8953 137.859 55.554 137.611 55.3033 137.312C55.058 137.008 54.9353 136.621 54.9353 136.152C54.9353 135.656 55.0713 135.227 55.3433 134.864C55.6207 134.501 55.9833 134.221 56.4313 134.024C56.8793 133.827 57.3593 133.728 57.8713 133.728C58.5167 133.728 59.106 133.867 59.6393 134.144C60.1727 134.421 60.57 134.797 60.8313 135.272L59.7513 135.904C59.6607 135.712 59.522 135.544 59.3353 135.4C59.1487 135.251 58.9353 135.133 58.6953 135.048C58.4553 134.963 58.21 134.917 57.9593 134.912C57.65 134.901 57.3593 134.941 57.0873 135.032C56.8207 135.123 56.6047 135.261 56.4393 135.448C56.2793 135.629 56.1993 135.856 56.1993 136.128C56.1993 136.395 56.2847 136.597 56.4553 136.736C56.6313 136.875 56.858 136.987 57.1353 137.072C57.418 137.152 57.7247 137.245 58.0553 137.352C58.5407 137.507 58.994 137.685 59.4153 137.888C59.8367 138.091 60.1753 138.344 60.4313 138.648C60.6927 138.952 60.8207 139.328 60.8153 139.776C60.8153 140.267 60.6687 140.696 60.3753 141.064C60.082 141.427 59.7007 141.704 59.2313 141.896C58.7673 142.088 58.2687 142.173 57.7353 142.152ZM67.5238 139.888L68.7238 140.536C68.3612 141.043 67.8998 141.448 67.3398 141.752C66.7852 142.056 66.1825 142.208 65.5318 142.208C64.7958 142.208 64.1238 142.019 63.5158 141.64C62.9132 141.261 62.4305 140.755 62.0678 140.12C61.7105 139.48 61.5318 138.773 61.5318 138C61.5318 137.413 61.6358 136.867 61.8438 136.36C62.0518 135.848 62.3372 135.4 62.6998 135.016C63.0678 134.627 63.4945 134.323 63.9798 134.104C64.4652 133.885 64.9825 133.776 65.5318 133.776C66.1825 133.776 66.7852 133.928 67.3398 134.232C67.8998 134.536 68.3612 134.944 68.7238 135.456L67.5238 136.104C67.2678 135.789 66.9638 135.547 66.6118 135.376C66.2598 135.205 65.8998 135.12 65.5318 135.12C65.0358 135.12 64.5852 135.253 64.1798 135.52C63.7798 135.781 63.4625 136.131 63.2278 136.568C62.9932 137.005 62.8758 137.483 62.8758 138C62.8758 138.517 62.9932 138.995 63.2278 139.432C63.4678 139.864 63.7878 140.211 64.1878 140.472C64.5932 140.733 65.0412 140.864 65.5318 140.864C65.9265 140.864 66.2972 140.773 66.6438 140.592C66.9905 140.411 67.2838 140.176 67.5238 139.888ZM73.4515 142.208C72.7155 142.208 72.0435 142.019 71.4355 141.64C70.8328 141.261 70.3501 140.755 69.9875 140.12C69.6301 139.48 69.4515 138.773 69.4515 138C69.4515 137.413 69.5555 136.867 69.7635 136.36C69.9715 135.848 70.2568 135.4 70.6195 135.016C70.9875 134.627 71.4141 134.323 71.8995 134.104C72.3848 133.885 72.9021 133.776 73.4515 133.776C74.1875 133.776 74.8568 133.965 75.4595 134.344C76.0675 134.723 76.5501 135.232 76.9075 135.872C77.2701 136.512 77.4515 137.221 77.4515 138C77.4515 138.581 77.3475 139.125 77.1395 139.632C76.9315 140.139 76.6435 140.587 76.2755 140.976C75.9128 141.36 75.4888 141.661 75.0035 141.88C74.5235 142.099 74.0061 142.208 73.4515 142.208ZM73.4515 140.864C73.9528 140.864 74.4035 140.733 74.8035 140.472C75.2088 140.205 75.5261 139.856 75.7555 139.424C75.9901 138.987 76.1075 138.512 76.1075 138C76.1075 137.477 75.9875 136.997 75.7475 136.56C75.5128 136.123 75.1955 135.773 74.7955 135.512C74.3955 135.251 73.9475 135.12 73.4515 135.12C72.9501 135.12 72.4995 135.253 72.0995 135.52C71.6995 135.781 71.3821 136.131 71.1475 136.568C70.9128 137.005 70.7955 137.483 70.7955 138C70.7955 138.533 70.9155 139.019 71.1555 139.456C71.3955 139.888 71.7181 140.232 72.1235 140.488C72.5288 140.739 72.9715 140.864 73.4515 140.864ZM82.4798 142H80.7598L77.8398 133.984H79.2718L81.6158 140.44L83.9598 133.984H85.3918L82.4798 142ZM89.7907 142.208C89.0547 142.208 88.3827 142.019 87.7747 141.64C87.1721 141.261 86.6894 140.755 86.3267 140.12C85.9694 139.48 85.7907 138.773 85.7907 138C85.7907 137.413 85.8947 136.867 86.1027 136.36C86.3107 135.848 86.5961 135.4 86.9587 135.016C87.3267 134.627 87.7534 134.323 88.2387 134.104C88.7241 133.885 89.2414 133.776 89.7907 133.776C90.3934 133.776 90.9454 133.899 91.4467 134.144C91.9534 134.384 92.3854 134.72 92.7427 135.152C93.1054 135.584 93.3747 136.085 93.5507 136.656C93.7321 137.227 93.7987 137.837 93.7507 138.488H87.2227C87.2867 138.941 87.4361 139.347 87.6707 139.704C87.9054 140.056 88.2041 140.336 88.5667 140.544C88.9347 140.752 89.3427 140.859 89.7907 140.864C90.2707 140.864 90.7054 140.741 91.0947 140.496C91.4841 140.245 91.7987 139.904 92.0387 139.472L93.4067 139.792C93.0867 140.501 92.6041 141.083 91.9587 141.536C91.3134 141.984 90.5907 142.208 89.7907 142.208ZM87.1827 137.432H92.3987C92.3561 136.984 92.2121 136.576 91.9667 136.208C91.7214 135.835 91.4094 135.536 91.0307 135.312C90.6521 135.088 90.2387 134.976 89.7907 134.976C89.3427 134.976 88.9321 135.085 88.5587 135.304C88.1854 135.523 87.8761 135.819 87.6307 136.192C87.3907 136.56 87.2414 136.973 87.1827 137.432ZM95.0028 142V134H96.3468V135C96.6295 134.627 96.9868 134.331 97.4188 134.112C97.8508 133.888 98.3202 133.776 98.8268 133.776C99.1362 133.776 99.4348 133.816 99.7228 133.896L99.1788 135.24C98.9602 135.171 98.7468 135.136 98.5388 135.136C98.1388 135.136 97.7708 135.235 97.4348 135.432C97.1042 135.624 96.8402 135.885 96.6428 136.216C96.4455 136.547 96.3468 136.915 96.3468 137.32V142H95.0028ZM108.642 135.344H106.826L106.818 142H105.474L105.482 135.344H104.106V134H105.482L105.474 131.488H106.818L106.826 134H108.642V135.344ZM117.052 137.024V142H115.708V137.32C115.708 136.915 115.61 136.547 115.412 136.216C115.215 135.885 114.951 135.624 114.62 135.432C114.29 135.235 113.922 135.136 113.516 135.136C113.116 135.136 112.748 135.235 112.412 135.432C112.082 135.624 111.818 135.885 111.62 136.216C111.423 136.547 111.324 136.915 111.324 137.32V142H109.98V130H111.324V135C111.607 134.627 111.964 134.331 112.396 134.112C112.828 133.888 113.298 133.776 113.804 133.776C114.402 133.776 114.946 133.923 115.436 134.216C115.932 134.504 116.324 134.893 116.612 135.384C116.906 135.875 117.052 136.421 117.052 137.024ZM121.92 142.208C121.184 142.208 120.512 142.019 119.904 141.64C119.301 141.261 118.819 140.755 118.456 140.12C118.099 139.48 117.92 138.773 117.92 138C117.92 137.413 118.024 136.867 118.232 136.36C118.44 135.848 118.725 135.4 119.088 135.016C119.456 134.627 119.883 134.323 120.368 134.104C120.853 133.885 121.371 133.776 121.92 133.776C122.523 133.776 123.075 133.899 123.576 134.144C124.083 134.384 124.515 134.72 124.872 135.152C125.235 135.584 125.504 136.085 125.68 136.656C125.861 137.227 125.928 137.837 125.88 138.488H119.352C119.416 138.941 119.565 139.347 119.8 139.704C120.035 140.056 120.333 140.336 120.696 140.544C121.064 140.752 121.472 140.859 121.92 140.864C122.4 140.864 122.835 140.741 123.224 140.496C123.613 140.245 123.928 139.904 124.168 139.472L125.536 139.792C125.216 140.501 124.733 141.083 124.088 141.536C123.443 141.984 122.72 142.208 121.92 142.208ZM119.312 137.432H124.528C124.485 136.984 124.341 136.576 124.096 136.208C123.851 135.835 123.539 135.536 123.16 135.312C122.781 135.088 122.368 134.976 121.92 134.976C121.472 134.976 121.061 135.085 120.688 135.304C120.315 135.523 120.005 135.819 119.76 136.192C119.52 136.56 119.371 136.973 119.312 137.432ZM137.429 130H138.773V142H137.429V140.64C137.157 141.109 136.792 141.488 136.333 141.776C135.875 142.064 135.336 142.208 134.717 142.208C134.136 142.208 133.592 142.099 133.085 141.88C132.579 141.661 132.131 141.36 131.741 140.976C131.357 140.587 131.056 140.139 130.837 139.632C130.619 139.125 130.509 138.581 130.509 138C130.509 137.419 130.619 136.875 130.837 136.368C131.056 135.856 131.357 135.408 131.741 135.024C132.131 134.635 132.579 134.331 133.085 134.112C133.592 133.893 134.136 133.784 134.717 133.784C135.336 133.784 135.875 133.928 136.333 134.216C136.792 134.504 137.157 134.883 137.429 135.352V130ZM134.733 140.904C135.261 140.904 135.717 140.776 136.101 140.52C136.491 140.259 136.789 139.907 136.997 139.464C137.211 139.021 137.317 138.533 137.317 138C137.317 137.456 137.211 136.965 136.997 136.528C136.784 136.085 136.483 135.736 136.093 135.48C135.709 135.219 135.256 135.088 134.733 135.088C134.205 135.088 133.725 135.219 133.293 135.48C132.867 135.741 132.525 136.093 132.269 136.536C132.013 136.973 131.885 137.461 131.885 138C131.885 138.539 132.016 139.029 132.277 139.472C132.539 139.909 132.885 140.259 133.317 140.52C133.749 140.776 134.221 140.904 134.733 140.904ZM140.596 134H141.94V142H140.596V134ZM141.284 132.696C141.071 132.696 140.892 132.627 140.748 132.488C140.604 132.349 140.532 132.176 140.532 131.968C140.532 131.76 140.604 131.587 140.748 131.448C140.892 131.309 141.068 131.24 141.276 131.24C141.484 131.24 141.66 131.309 141.804 131.448C141.948 131.587 142.02 131.76 142.02 131.968C142.02 132.176 141.948 132.349 141.804 132.488C141.666 132.627 141.492 132.696 141.284 132.696ZM145.582 132.024V134H147.926V135.344H145.582V142H144.238V135.344H143.206V134H144.238V132.024C144.238 131.613 144.337 131.243 144.534 130.912C144.737 130.576 145.006 130.309 145.342 130.112C145.683 129.909 146.057 129.808 146.462 129.808C146.761 129.808 147.051 129.869 147.334 129.992C147.617 130.109 147.867 130.285 148.086 130.52L147.126 131.472C147.051 131.371 146.953 131.293 146.83 131.24C146.713 131.181 146.59 131.152 146.462 131.152C146.222 131.152 146.014 131.237 145.838 131.408C145.667 131.579 145.582 131.784 145.582 132.024ZM151.127 132.024V134H153.471V135.344H151.127V142H149.783V135.344H148.751V134H149.783V132.024C149.783 131.613 149.881 131.243 150.079 130.912C150.281 130.576 150.551 130.309 150.887 130.112C151.228 129.909 151.601 129.808 152.007 129.808C152.305 129.808 152.596 129.869 152.879 129.992C153.161 130.109 153.412 130.285 153.631 130.52L152.671 131.472C152.596 131.371 152.497 131.293 152.375 131.24C152.257 131.181 152.135 131.152 152.007 131.152C151.767 131.152 151.559 131.237 151.383 131.408C151.212 131.579 151.127 131.784 151.127 132.024ZM158.016 142.208C157.28 142.208 156.608 142.019 156 141.64C155.397 141.261 154.915 140.755 154.552 140.12C154.195 139.48 154.016 138.773 154.016 138C154.016 137.413 154.12 136.867 154.328 136.36C154.536 135.848 154.821 135.4 155.184 135.016C155.552 134.627 155.979 134.323 156.464 134.104C156.949 133.885 157.467 133.776 158.016 133.776C158.619 133.776 159.171 133.899 159.672 134.144C160.179 134.384 160.611 134.72 160.968 135.152C161.331 135.584 161.6 136.085 161.776 136.656C161.957 137.227 162.024 137.837 161.976 138.488H155.448C155.512 138.941 155.661 139.347 155.896 139.704C156.131 140.056 156.429 140.336 156.792 140.544C157.16 140.752 157.568 140.859 158.016 140.864C158.496 140.864 158.931 140.741 159.32 140.496C159.709 140.245 160.024 139.904 160.264 139.472L161.632 139.792C161.312 140.501 160.829 141.083 160.184 141.536C159.539 141.984 158.816 142.208 158.016 142.208ZM155.408 137.432H160.624C160.581 136.984 160.437 136.576 160.192 136.208C159.947 135.835 159.635 135.536 159.256 135.312C158.877 135.088 158.464 134.976 158.016 134.976C157.568 134.976 157.157 135.085 156.784 135.304C156.411 135.523 156.101 135.819 155.856 136.192C155.616 136.56 155.467 136.973 155.408 137.432ZM163.228 142V134H164.572V135C164.855 134.627 165.212 134.331 165.644 134.112C166.076 133.888 166.545 133.776 167.052 133.776C167.361 133.776 167.66 133.816 167.948 133.896L167.404 135.24C167.185 135.171 166.972 135.136 166.764 135.136C166.364 135.136 165.996 135.235 165.66 135.432C165.329 135.624 165.065 135.885 164.868 136.216C164.671 136.547 164.572 136.915 164.572 137.32V142H163.228ZM171.949 142.208C171.213 142.208 170.541 142.019 169.933 141.64C169.33 141.261 168.848 140.755 168.485 140.12C168.128 139.48 167.949 138.773 167.949 138C167.949 137.413 168.053 136.867 168.261 136.36C168.469 135.848 168.754 135.4 169.117 135.016C169.485 134.627 169.912 134.323 170.397 134.104C170.882 133.885 171.4 133.776 171.949 133.776C172.552 133.776 173.104 133.899 173.605 134.144C174.112 134.384 174.544 134.72 174.901 135.152C175.264 135.584 175.533 136.085 175.709 136.656C175.89 137.227 175.957 137.837 175.909 138.488H169.381C169.445 138.941 169.594 139.347 169.829 139.704C170.064 140.056 170.362 140.336 170.725 140.544C171.093 140.752 171.501 140.859 171.949 140.864C172.429 140.864 172.864 140.741 173.253 140.496C173.642 140.245 173.957 139.904 174.197 139.472L175.565 139.792C175.245 140.501 174.762 141.083 174.117 141.536C173.472 141.984 172.749 142.208 171.949 142.208ZM169.341 137.432H174.557C174.514 136.984 174.37 136.576 174.125 136.208C173.88 135.835 173.568 135.536 173.189 135.312C172.81 135.088 172.397 134.976 171.949 134.976C171.501 134.976 171.09 135.085 170.717 135.304C170.344 135.523 170.034 135.819 169.789 136.192C169.549 136.56 169.4 136.973 169.341 137.432ZM184.233 137.024V142H182.889V137.32C182.889 136.915 182.79 136.547 182.593 136.216C182.396 135.885 182.132 135.624 181.801 135.432C181.47 135.235 181.102 135.136 180.697 135.136C180.297 135.136 179.929 135.235 179.593 135.432C179.262 135.624 178.998 135.885 178.801 136.216C178.604 136.547 178.505 136.915 178.505 137.32V142H177.161V134H178.505V135C178.788 134.627 179.145 134.331 179.577 134.112C180.009 133.888 180.478 133.776 180.985 133.776C181.582 133.776 182.126 133.923 182.617 134.216C183.113 134.504 183.505 134.893 183.793 135.384C184.086 135.875 184.233 136.421 184.233 137.024ZM189.881 135.344H188.065L188.057 142H186.713L186.721 135.344H185.345V134H186.721L186.713 131.488H188.057L188.065 134H189.881V135.344ZM198.527 142H197.167L194.487 134H195.799L197.863 140.104L199.903 134H201.287L203.335 140.104L205.375 134H206.703L204.023 142H202.655L200.583 135.84L198.527 142ZM214.006 134H215.35V142H214.006L213.95 140.648C213.699 141.112 213.353 141.488 212.91 141.776C212.473 142.064 211.95 142.208 211.342 142.208C210.755 142.208 210.206 142.099 209.694 141.88C209.182 141.656 208.729 141.349 208.334 140.96C207.945 140.565 207.641 140.112 207.422 139.6C207.203 139.088 207.094 138.536 207.094 137.944C207.094 137.373 207.201 136.835 207.414 136.328C207.627 135.821 207.923 135.379 208.302 135C208.686 134.616 209.129 134.317 209.63 134.104C210.131 133.885 210.67 133.776 211.246 133.776C211.875 133.776 212.427 133.925 212.902 134.224C213.377 134.517 213.761 134.899 214.054 135.368L214.006 134ZM211.318 140.904C211.846 140.904 212.302 140.776 212.686 140.52C213.075 140.259 213.374 139.907 213.582 139.464C213.795 139.021 213.902 138.533 213.902 138C213.902 137.456 213.795 136.965 213.582 136.528C213.369 136.085 213.067 135.736 212.678 135.48C212.294 135.219 211.841 135.088 211.318 135.088C210.79 135.088 210.31 135.219 209.878 135.48C209.446 135.741 209.102 136.093 208.846 136.536C208.595 136.973 208.47 137.461 208.47 138C208.47 138.539 208.601 139.029 208.862 139.472C209.123 139.909 209.47 140.259 209.902 140.52C210.334 140.776 210.806 140.904 211.318 140.904ZM222.083 134H223.507L219.131 146H217.707L219.155 142L216.283 134H217.755L219.827 140.152L222.083 134ZM227.166 142.152C226.734 142.136 226.312 142.056 225.902 141.912C225.496 141.763 225.139 141.563 224.83 141.312C224.526 141.056 224.304 140.763 224.166 140.432L225.318 139.936C225.398 140.117 225.542 140.288 225.75 140.448C225.958 140.608 226.198 140.736 226.47 140.832C226.742 140.928 227.016 140.976 227.294 140.976C227.587 140.976 227.862 140.931 228.118 140.84C228.374 140.749 228.582 140.616 228.742 140.44C228.907 140.259 228.99 140.043 228.99 139.792C228.99 139.525 228.899 139.317 228.718 139.168C228.542 139.013 228.318 138.893 228.046 138.808C227.779 138.717 227.507 138.632 227.23 138.552C226.68 138.413 226.19 138.248 225.758 138.056C225.326 137.859 224.984 137.611 224.734 137.312C224.488 137.008 224.366 136.621 224.366 136.152C224.366 135.656 224.502 135.227 224.774 134.864C225.051 134.501 225.414 134.221 225.862 134.024C226.31 133.827 226.79 133.728 227.302 133.728C227.947 133.728 228.536 133.867 229.07 134.144C229.603 134.421 230 134.797 230.262 135.272L229.182 135.904C229.091 135.712 228.952 135.544 228.766 135.4C228.579 135.251 228.366 135.133 228.126 135.048C227.886 134.963 227.64 134.917 227.39 134.912C227.08 134.901 226.79 134.941 226.518 135.032C226.251 135.123 226.035 135.261 225.87 135.448C225.71 135.629 225.63 135.856 225.63 136.128C225.63 136.395 225.715 136.597 225.886 136.736C226.062 136.875 226.288 136.987 226.566 137.072C226.848 137.152 227.155 137.245 227.486 137.352C227.971 137.507 228.424 137.685 228.846 137.888C229.267 138.091 229.606 138.344 229.862 138.648C230.123 138.952 230.251 139.328 230.246 139.776C230.246 140.267 230.099 140.696 229.806 141.064C229.512 141.427 229.131 141.704 228.662 141.896C228.198 142.088 227.699 142.173 227.166 142.152ZM240.748 134H242.172L237.796 146H236.372L237.82 142L234.948 134H236.42L238.492 140.152L240.748 134ZM246.63 142.208C245.894 142.208 245.222 142.019 244.614 141.64C244.011 141.261 243.528 140.755 243.166 140.12C242.808 139.48 242.63 138.773 242.63 138C242.63 137.413 242.734 136.867 242.942 136.36C243.15 135.848 243.435 135.4 243.798 135.016C244.166 134.627 244.592 134.323 245.078 134.104C245.563 133.885 246.08 133.776 246.63 133.776C247.366 133.776 248.035 133.965 248.638 134.344C249.246 134.723 249.728 135.232 250.086 135.872C250.448 136.512 250.63 137.221 250.63 138C250.63 138.581 250.526 139.125 250.318 139.632C250.11 140.139 249.822 140.587 249.454 140.976C249.091 141.36 248.667 141.661 248.182 141.88C247.702 142.099 247.184 142.208 246.63 142.208ZM246.63 140.864C247.131 140.864 247.582 140.733 247.982 140.472C248.387 140.205 248.704 139.856 248.934 139.424C249.168 138.987 249.286 138.512 249.286 138C249.286 137.477 249.166 136.997 248.926 136.56C248.691 136.123 248.374 135.773 247.974 135.512C247.574 135.251 247.126 135.12 246.63 135.12C246.128 135.12 245.678 135.253 245.278 135.52C244.878 135.781 244.56 136.131 244.326 136.568C244.091 137.005 243.974 137.483 243.974 138C243.974 138.533 244.094 139.019 244.334 139.456C244.574 139.888 244.896 140.232 245.302 140.488C245.707 140.739 246.15 140.864 246.63 140.864ZM251.428 138.96V134H252.772V138.664C252.772 139.069 252.871 139.437 253.068 139.768C253.265 140.099 253.529 140.363 253.86 140.56C254.196 140.752 254.564 140.848 254.964 140.848C255.369 140.848 255.735 140.752 256.06 140.56C256.391 140.363 256.655 140.099 256.852 139.768C257.049 139.437 257.148 139.069 257.148 138.664V134H258.492L258.5 142H257.156L257.148 140.984C256.865 141.357 256.508 141.656 256.076 141.88C255.644 142.099 255.177 142.208 254.676 142.208C254.079 142.208 253.532 142.064 253.036 141.776C252.545 141.483 252.153 141.091 251.86 140.6C251.572 140.109 251.428 139.563 251.428 138.96ZM269.271 139.888L270.471 140.536C270.108 141.043 269.647 141.448 269.087 141.752C268.532 142.056 267.93 142.208 267.279 142.208C266.543 142.208 265.871 142.019 265.263 141.64C264.66 141.261 264.178 140.755 263.815 140.12C263.458 139.48 263.279 138.773 263.279 138C263.279 137.413 263.383 136.867 263.591 136.36C263.799 135.848 264.084 135.4 264.447 135.016C264.815 134.627 265.242 134.323 265.727 134.104C266.212 133.885 266.73 133.776 267.279 133.776C267.93 133.776 268.532 133.928 269.087 134.232C269.647 134.536 270.108 134.944 270.471 135.456L269.271 136.104C269.015 135.789 268.711 135.547 268.359 135.376C268.007 135.205 267.647 135.12 267.279 135.12C266.783 135.12 266.332 135.253 265.927 135.52C265.527 135.781 265.21 136.131 264.975 136.568C264.74 137.005 264.623 137.483 264.623 138C264.623 138.517 264.74 138.995 264.975 139.432C265.215 139.864 265.535 140.211 265.935 140.472C266.34 140.733 266.788 140.864 267.279 140.864C267.674 140.864 268.044 140.773 268.391 140.592C268.738 140.411 269.031 140.176 269.271 139.888ZM278.111 134H279.455V142H278.111L278.055 140.648C277.804 141.112 277.457 141.488 277.015 141.776C276.577 142.064 276.055 142.208 275.447 142.208C274.86 142.208 274.311 142.099 273.799 141.88C273.287 141.656 272.833 141.349 272.439 140.96C272.049 140.565 271.745 140.112 271.527 139.6C271.308 139.088 271.199 138.536 271.199 137.944C271.199 137.373 271.305 136.835 271.519 136.328C271.732 135.821 272.028 135.379 272.407 135C272.791 134.616 273.233 134.317 273.735 134.104C274.236 133.885 274.775 133.776 275.351 133.776C275.98 133.776 276.532 133.925 277.007 134.224C277.481 134.517 277.865 134.899 278.159 135.368L278.111 134ZM275.423 140.904C275.951 140.904 276.407 140.776 276.791 140.52C277.18 140.259 277.479 139.907 277.687 139.464C277.9 139.021 278.007 138.533 278.007 138C278.007 137.456 277.9 136.965 277.687 136.528C277.473 136.085 277.172 135.736 276.783 135.48C276.399 135.219 275.945 135.088 275.423 135.088C274.895 135.088 274.415 135.219 273.983 135.48C273.551 135.741 273.207 136.093 272.951 136.536C272.7 136.973 272.575 137.461 272.575 138C272.575 138.539 272.705 139.029 272.967 139.472C273.228 139.909 273.575 140.259 274.007 140.52C274.439 140.776 274.911 140.904 275.423 140.904ZM288.03 137.024V142H286.686V137.32C286.686 136.915 286.587 136.547 286.39 136.216C286.192 135.885 285.928 135.624 285.598 135.432C285.267 135.235 284.899 135.136 284.494 135.136C284.094 135.136 283.726 135.235 283.39 135.432C283.059 135.624 282.795 135.885 282.598 136.216C282.4 136.547 282.302 136.915 282.302 137.32V142H280.958V134H282.302V135C282.584 134.627 282.942 134.331 283.374 134.112C283.806 133.888 284.275 133.776 284.782 133.776C285.379 133.776 285.923 133.923 286.414 134.216C286.91 134.504 287.302 134.893 287.59 135.384C287.883 135.875 288.03 136.421 288.03 137.024ZM299.529 134H300.873V142.256C300.873 142.784 300.759 143.275 300.529 143.728C300.305 144.187 300.001 144.584 299.617 144.92C299.233 145.261 298.796 145.525 298.305 145.712C297.815 145.904 297.303 146 296.769 146C296.215 146 295.679 145.875 295.161 145.624C294.644 145.379 294.191 145.048 293.801 144.632C293.417 144.221 293.14 143.76 292.969 143.248L294.201 142.688C294.303 143.056 294.484 143.387 294.745 143.68C295.012 143.979 295.321 144.213 295.673 144.384C296.031 144.56 296.396 144.648 296.769 144.648C297.121 144.648 297.46 144.587 297.785 144.464C298.116 144.341 298.412 144.171 298.673 143.952C298.94 143.739 299.148 143.485 299.297 143.192C299.452 142.904 299.529 142.592 299.529 142.256V140.664C299.257 141.123 298.897 141.496 298.449 141.784C298.007 142.067 297.489 142.208 296.897 142.208C296.332 142.208 295.801 142.099 295.305 141.88C294.809 141.661 294.375 141.36 294.001 140.976C293.628 140.587 293.335 140.139 293.121 139.632C292.908 139.125 292.801 138.581 292.801 138C292.801 137.419 292.908 136.875 293.121 136.368C293.335 135.856 293.628 135.408 294.001 135.024C294.375 134.635 294.809 134.331 295.305 134.112C295.801 133.893 296.332 133.784 296.897 133.784C297.489 133.784 298.007 133.925 298.449 134.208C298.897 134.491 299.257 134.864 299.529 135.328V134ZM296.905 140.904C297.423 140.904 297.871 140.771 298.249 140.504C298.633 140.237 298.929 139.883 299.137 139.44C299.345 138.997 299.449 138.517 299.449 138C299.449 137.467 299.343 136.981 299.129 136.544C298.921 136.101 298.625 135.749 298.241 135.488C297.863 135.221 297.417 135.088 296.905 135.088C296.404 135.088 295.945 135.219 295.529 135.48C295.113 135.741 294.783 136.093 294.537 136.536C294.297 136.973 294.177 137.461 294.177 138C294.177 138.539 294.3 139.029 294.545 139.472C294.796 139.909 295.127 140.259 295.537 140.52C295.953 140.776 296.409 140.904 296.905 140.904ZM306.112 142.208C305.376 142.208 304.704 142.019 304.096 141.64C303.493 141.261 303.01 140.755 302.648 140.12C302.29 139.48 302.112 138.773 302.112 138C302.112 137.413 302.216 136.867 302.424 136.36C302.632 135.848 302.917 135.4 303.28 135.016C303.648 134.627 304.074 134.323 304.56 134.104C305.045 133.885 305.562 133.776 306.112 133.776C306.714 133.776 307.266 133.899 307.768 134.144C308.274 134.384 308.706 134.72 309.064 135.152C309.426 135.584 309.696 136.085 309.872 136.656C310.053 137.227 310.12 137.837 310.072 138.488H303.544C303.608 138.941 303.757 139.347 303.992 139.704C304.226 140.056 304.525 140.336 304.888 140.544C305.256 140.752 305.664 140.859 306.112 140.864C306.592 140.864 307.026 140.741 307.416 140.496C307.805 140.245 308.12 139.904 308.36 139.472L309.728 139.792C309.408 140.501 308.925 141.083 308.28 141.536C307.634 141.984 306.912 142.208 306.112 142.208ZM303.504 137.432H308.72C308.677 136.984 308.533 136.576 308.288 136.208C308.042 135.835 307.73 135.536 307.352 135.312C306.973 135.088 306.56 134.976 306.112 134.976C305.664 134.976 305.253 135.085 304.88 135.304C304.506 135.523 304.197 135.819 303.952 136.192C303.712 136.56 303.562 136.973 303.504 137.432ZM315.374 135.344H313.558L313.55 142H312.206L312.214 135.344H310.838V134H312.214L312.206 131.488H313.55L313.558 134H315.374V135.344ZM320.46 134H321.804V142H320.46V134ZM321.148 132.696C320.935 132.696 320.756 132.627 320.612 132.488C320.468 132.349 320.396 132.176 320.396 131.968C320.396 131.76 320.468 131.587 320.612 131.448C320.756 131.309 320.932 131.24 321.14 131.24C321.348 131.24 321.524 131.309 321.668 131.448C321.812 131.587 321.884 131.76 321.884 131.968C321.884 132.176 321.812 132.349 321.668 132.488C321.529 132.627 321.356 132.696 321.148 132.696ZM330.67 137.024V142H329.326V137.32C329.326 136.915 329.228 136.547 329.03 136.216C328.833 135.885 328.569 135.624 328.238 135.432C327.908 135.235 327.54 135.136 327.134 135.136C326.734 135.136 326.366 135.235 326.03 135.432C325.7 135.624 325.436 135.885 325.238 136.216C325.041 136.547 324.942 136.915 324.942 137.32V142H323.598V134H324.942V135C325.225 134.627 325.582 134.331 326.014 134.112C326.446 133.888 326.916 133.776 327.422 133.776C328.02 133.776 328.564 133.923 329.054 134.216C329.55 134.504 329.942 134.893 330.23 135.384C330.524 135.875 330.67 136.421 330.67 137.024ZM340.066 135.344H338.25L338.242 142H336.898L336.906 135.344H335.53V134H336.906L336.898 131.488H338.242L338.25 134H340.066V135.344ZM344.721 142.208C343.985 142.208 343.313 142.019 342.705 141.64C342.102 141.261 341.62 140.755 341.257 140.12C340.9 139.48 340.721 138.773 340.721 138C340.721 137.413 340.825 136.867 341.033 136.36C341.241 135.848 341.526 135.4 341.889 135.016C342.257 134.627 342.684 134.323 343.169 134.104C343.654 133.885 344.172 133.776 344.721 133.776C345.457 133.776 346.126 133.965 346.729 134.344C347.337 134.723 347.82 135.232 348.177 135.872C348.54 136.512 348.721 137.221 348.721 138C348.721 138.581 348.617 139.125 348.409 139.632C348.201 140.139 347.913 140.587 347.545 140.976C347.182 141.36 346.758 141.661 346.273 141.88C345.793 142.099 345.276 142.208 344.721 142.208ZM344.721 140.864C345.222 140.864 345.673 140.733 346.073 140.472C346.478 140.205 346.796 139.856 347.025 139.424C347.26 138.987 347.377 138.512 347.377 138C347.377 137.477 347.257 136.997 347.017 136.56C346.782 136.123 346.465 135.773 346.065 135.512C345.665 135.251 345.217 135.12 344.721 135.12C344.22 135.12 343.769 135.253 343.369 135.52C342.969 135.781 342.652 136.131 342.417 136.568C342.182 137.005 342.065 137.483 342.065 138C342.065 138.533 342.185 139.019 342.425 139.456C342.665 139.888 342.988 140.232 343.393 140.488C343.798 140.739 344.241 140.864 344.721 140.864ZM349.519 138.96V134H350.863V138.664C350.863 139.069 350.962 139.437 351.159 139.768C351.357 140.099 351.621 140.363 351.951 140.56C352.287 140.752 352.655 140.848 353.055 140.848C353.461 140.848 353.826 140.752 354.151 140.56C354.482 140.363 354.746 140.099 354.943 139.768C355.141 139.437 355.239 139.069 355.239 138.664V134H356.583L356.591 142H355.247L355.239 140.984C354.957 141.357 354.599 141.656 354.167 141.88C353.735 142.099 353.269 142.208 352.767 142.208C352.17 142.208 351.623 142.064 351.127 141.776C350.637 141.483 350.245 141.091 349.951 140.6C349.663 140.109 349.519 139.563 349.519 138.96ZM363.536 139.888L364.736 140.536C364.374 141.043 363.912 141.448 363.352 141.752C362.798 142.056 362.195 142.208 361.544 142.208C360.808 142.208 360.136 142.019 359.528 141.64C358.926 141.261 358.443 140.755 358.08 140.12C357.723 139.48 357.544 138.773 357.544 138C357.544 137.413 357.648 136.867 357.856 136.36C358.064 135.848 358.35 135.4 358.712 135.016C359.08 134.627 359.507 134.323 359.992 134.104C360.478 133.885 360.995 133.776 361.544 133.776C362.195 133.776 362.798 133.928 363.352 134.232C363.912 134.536 364.374 134.944 364.736 135.456L363.536 136.104C363.28 135.789 362.976 135.547 362.624 135.376C362.272 135.205 361.912 135.12 361.544 135.12C361.048 135.12 360.598 135.253 360.192 135.52C359.792 135.781 359.475 136.131 359.24 136.568C359.006 137.005 358.888 137.483 358.888 138C358.888 138.517 359.006 138.995 359.24 139.432C359.48 139.864 359.8 140.211 360.2 140.472C360.606 140.733 361.054 140.864 361.544 140.864C361.939 140.864 362.31 140.773 362.656 140.592C363.003 140.411 363.296 140.176 363.536 139.888ZM373.016 137.024V142H371.672V137.32C371.672 136.915 371.573 136.547 371.376 136.216C371.179 135.885 370.915 135.624 370.584 135.432C370.253 135.235 369.885 135.136 369.48 135.136C369.08 135.136 368.712 135.235 368.376 135.432C368.045 135.624 367.781 135.885 367.584 136.216C367.387 136.547 367.288 136.915 367.288 137.32V142H365.944V130H367.288V135C367.571 134.627 367.928 134.331 368.36 134.112C368.792 133.888 369.261 133.776 369.768 133.776C370.365 133.776 370.909 133.923 371.4 134.216C371.896 134.504 372.288 134.893 372.576 135.384C372.869 135.875 373.016 136.421 373.016 137.024ZM45.188 166H43.828L41.148 158H42.46L44.524 164.104L46.564 158H47.948L49.996 164.104L52.036 158H53.364L50.684 166H49.316L47.244 159.84L45.188 166ZM54.5632 158H55.9072V166H54.5632V158ZM55.2512 156.696C55.0379 156.696 54.8592 156.627 54.7152 156.488C54.5712 156.349 54.4992 156.176 54.4992 155.968C54.4992 155.76 54.5712 155.587 54.7152 155.448C54.8592 155.309 55.0352 155.24 55.2432 155.24C55.4512 155.24 55.6272 155.309 55.7712 155.448C55.9152 155.587 55.9872 155.76 55.9872 155.968C55.9872 156.176 55.9152 156.349 55.7712 156.488C55.6326 156.627 55.4592 156.696 55.2512 156.696ZM61.8768 159.344H60.0608L60.0528 166H58.7088L58.7168 159.344H57.3408V158H58.7168L58.7088 155.488H60.0528L60.0608 158H61.8768V159.344ZM70.287 161.024V166H68.943V161.32C68.943 160.915 68.8443 160.547 68.647 160.216C68.4496 159.885 68.1856 159.624 67.855 159.432C67.5243 159.235 67.1563 159.136 66.751 159.136C66.351 159.136 65.983 159.235 65.647 159.432C65.3163 159.624 65.0523 159.885 64.855 160.216C64.6576 160.547 64.559 160.915 64.559 161.32V166H63.215V154H64.559V159C64.8416 158.627 65.199 158.331 65.631 158.112C66.063 157.888 66.5323 157.776 67.039 157.776C67.6363 157.776 68.1803 157.923 68.671 158.216C69.167 158.504 69.559 158.893 69.847 159.384C70.1403 159.875 70.287 160.421 70.287 161.024ZM79.0586 166.208C78.3226 166.208 77.6506 166.019 77.0426 165.64C76.4399 165.261 75.9573 164.755 75.5946 164.12C75.2373 163.48 75.0586 162.773 75.0586 162C75.0586 161.413 75.1626 160.867 75.3706 160.36C75.5786 159.848 75.8639 159.4 76.2266 159.016C76.5946 158.627 77.0213 158.323 77.5066 158.104C77.9919 157.885 78.5093 157.776 79.0586 157.776C79.7946 157.776 80.4639 157.965 81.0666 158.344C81.6746 158.723 82.1573 159.232 82.5146 159.872C82.8773 160.512 83.0586 161.221 83.0586 162C83.0586 162.581 82.9546 163.125 82.7466 163.632C82.5386 164.139 82.2506 164.587 81.8826 164.976C81.5199 165.36 81.0959 165.661 80.6106 165.88C80.1306 166.099 79.6133 166.208 79.0586 166.208ZM79.0586 164.864C79.5599 164.864 80.0106 164.733 80.4106 164.472C80.8159 164.205 81.1333 163.856 81.3626 163.424C81.5973 162.987 81.7146 162.512 81.7146 162C81.7146 161.477 81.5946 160.997 81.3546 160.56C81.1199 160.123 80.8026 159.773 80.4026 159.512C80.0026 159.251 79.5546 159.12 79.0586 159.12C78.5573 159.12 78.1066 159.253 77.7066 159.52C77.3066 159.781 76.9893 160.131 76.7546 160.568C76.5199 161.005 76.4026 161.483 76.4026 162C76.4026 162.533 76.5226 163.019 76.7626 163.456C77.0026 163.888 77.3253 164.232 77.7306 164.488C78.1359 164.739 78.5786 164.864 79.0586 164.864ZM83.857 162.96V158H85.201V162.664C85.201 163.069 85.2996 163.437 85.497 163.768C85.6943 164.099 85.9583 164.363 86.289 164.56C86.625 164.752 86.993 164.848 87.393 164.848C87.7983 164.848 88.1636 164.752 88.489 164.56C88.8196 164.363 89.0836 164.099 89.281 163.768C89.4783 163.437 89.577 163.069 89.577 162.664V158H90.921L90.929 166H89.585L89.577 164.984C89.2943 165.357 88.937 165.656 88.505 165.88C88.073 166.099 87.6063 166.208 87.105 166.208C86.5076 166.208 85.961 166.064 85.465 165.776C84.9743 165.483 84.5823 165.091 84.289 164.6C84.001 164.109 83.857 163.563 83.857 162.96ZM92.4403 166V158H93.7843V159C94.067 158.627 94.4243 158.331 94.8563 158.112C95.2883 157.888 95.7577 157.776 96.2643 157.776C96.5737 157.776 96.8723 157.816 97.1603 157.896L96.6163 159.24C96.3977 159.171 96.1843 159.136 95.9763 159.136C95.5763 159.136 95.2083 159.235 94.8723 159.432C94.5417 159.624 94.2777 159.885 94.0803 160.216C93.883 160.547 93.7843 160.915 93.7843 161.32V166H92.4403ZM105.456 166.208C104.72 166.208 104.048 166.019 103.44 165.64C102.837 165.261 102.355 164.755 101.992 164.12C101.635 163.48 101.456 162.773 101.456 162C101.456 161.413 101.56 160.867 101.768 160.36C101.976 159.848 102.261 159.4 102.624 159.016C102.992 158.627 103.419 158.323 103.904 158.104C104.389 157.885 104.907 157.776 105.456 157.776C106.059 157.776 106.611 157.899 107.112 158.144C107.619 158.384 108.051 158.72 108.408 159.152C108.771 159.584 109.04 160.085 109.216 160.656C109.397 161.227 109.464 161.837 109.416 162.488H102.888C102.952 162.941 103.101 163.347 103.336 163.704C103.571 164.056 103.869 164.336 104.232 164.544C104.6 164.752 105.008 164.859 105.456 164.864C105.936 164.864 106.371 164.741 106.76 164.496C107.149 164.245 107.464 163.904 107.704 163.472L109.072 163.792C108.752 164.501 108.269 165.083 107.624 165.536C106.979 165.984 106.256 166.208 105.456 166.208ZM102.848 161.432H108.064C108.021 160.984 107.877 160.576 107.632 160.208C107.387 159.835 107.075 159.536 106.696 159.312C106.317 159.088 105.904 158.976 105.456 158.976C105.008 158.976 104.597 159.085 104.224 159.304C103.851 159.523 103.541 159.819 103.296 160.192C103.056 160.56 102.907 160.973 102.848 161.432ZM109.754 166L112.682 161.984L109.77 157.984H111.426L113.514 160.832L115.594 157.984H117.25L114.338 161.984L117.266 166H115.61L113.514 163.12L111.41 166H109.754ZM119.9 170H118.556V158H119.9V159.368C120.172 158.899 120.535 158.52 120.988 158.232C121.442 157.939 121.98 157.792 122.604 157.792C123.186 157.792 123.73 157.901 124.236 158.12C124.748 158.339 125.196 158.643 125.58 159.032C125.964 159.416 126.266 159.861 126.484 160.368C126.703 160.875 126.812 161.419 126.812 162C126.812 162.581 126.703 163.128 126.484 163.64C126.266 164.152 125.964 164.603 125.58 164.992C125.196 165.376 124.748 165.677 124.236 165.896C123.73 166.115 123.186 166.224 122.604 166.224C121.98 166.224 121.442 166.08 120.988 165.792C120.535 165.499 120.172 165.117 119.9 164.648V170ZM122.588 159.096C122.071 159.096 121.618 159.227 121.228 159.488C120.839 159.749 120.538 160.099 120.324 160.536C120.116 160.973 120.012 161.461 120.012 162C120.012 162.533 120.116 163.021 120.324 163.464C120.538 163.907 120.836 164.259 121.22 164.52C121.61 164.781 122.066 164.912 122.588 164.912C123.106 164.912 123.58 164.784 124.012 164.528C124.444 164.267 124.791 163.917 125.052 163.48C125.314 163.037 125.444 162.544 125.444 162C125.444 161.467 125.316 160.981 125.06 160.544C124.804 160.101 124.46 159.749 124.028 159.488C123.596 159.227 123.116 159.096 122.588 159.096ZM131.527 166.208C130.791 166.208 130.119 166.019 129.511 165.64C128.909 165.261 128.426 164.755 128.063 164.12C127.706 163.48 127.527 162.773 127.527 162C127.527 161.413 127.631 160.867 127.839 160.36C128.047 159.848 128.333 159.4 128.695 159.016C129.063 158.627 129.49 158.323 129.975 158.104C130.461 157.885 130.978 157.776 131.527 157.776C132.13 157.776 132.682 157.899 133.183 158.144C133.69 158.384 134.122 158.72 134.479 159.152C134.842 159.584 135.111 160.085 135.287 160.656C135.469 161.227 135.535 161.837 135.487 162.488H128.959C129.023 162.941 129.173 163.347 129.407 163.704C129.642 164.056 129.941 164.336 130.303 164.544C130.671 164.752 131.079 164.859 131.527 164.864C132.007 164.864 132.442 164.741 132.831 164.496C133.221 164.245 133.535 163.904 133.775 163.472L135.143 163.792C134.823 164.501 134.341 165.083 133.695 165.536C133.05 165.984 132.327 166.208 131.527 166.208ZM128.919 161.432H134.135C134.093 160.984 133.949 160.576 133.703 160.208C133.458 159.835 133.146 159.536 132.767 159.312C132.389 159.088 131.975 158.976 131.527 158.976C131.079 158.976 130.669 159.085 130.295 159.304C129.922 159.523 129.613 159.819 129.367 160.192C129.127 160.56 128.978 160.973 128.919 161.432ZM136.739 166V158H138.083V159C138.366 158.627 138.723 158.331 139.155 158.112C139.587 157.888 140.057 157.776 140.563 157.776C140.873 157.776 141.171 157.816 141.459 157.896L140.915 159.24C140.697 159.171 140.483 159.136 140.275 159.136C139.875 159.136 139.507 159.235 139.171 159.432C138.841 159.624 138.577 159.885 138.379 160.216C138.182 160.547 138.083 160.915 138.083 161.32V166H136.739ZM142.346 158H143.69V166H142.346V158ZM143.034 156.696C142.821 156.696 142.642 156.627 142.498 156.488C142.354 156.349 142.282 156.176 142.282 155.968C142.282 155.76 142.354 155.587 142.498 155.448C142.642 155.309 142.818 155.24 143.026 155.24C143.234 155.24 143.41 155.309 143.554 155.448C143.698 155.587 143.77 155.76 143.77 155.968C143.77 156.176 143.698 156.349 143.554 156.488C143.416 156.627 143.242 156.696 143.034 156.696ZM148.927 166.208C148.191 166.208 147.519 166.019 146.911 165.64C146.308 165.261 145.825 164.755 145.463 164.12C145.105 163.48 144.927 162.773 144.927 162C144.927 161.413 145.031 160.867 145.239 160.36C145.447 159.848 145.732 159.4 146.095 159.016C146.463 158.627 146.889 158.323 147.375 158.104C147.86 157.885 148.377 157.776 148.927 157.776C149.529 157.776 150.081 157.899 150.583 158.144C151.089 158.384 151.521 158.72 151.879 159.152C152.241 159.584 152.511 160.085 152.687 160.656C152.868 161.227 152.935 161.837 152.887 162.488H146.359C146.423 162.941 146.572 163.347 146.807 163.704C147.041 164.056 147.34 164.336 147.703 164.544C148.071 164.752 148.479 164.859 148.927 164.864C149.407 164.864 149.841 164.741 150.231 164.496C150.62 164.245 150.935 163.904 151.175 163.472L152.543 163.792C152.223 164.501 151.74 165.083 151.095 165.536C150.449 165.984 149.727 166.208 148.927 166.208ZM146.319 161.432H151.535C151.492 160.984 151.348 160.576 151.103 160.208C150.857 159.835 150.545 159.536 150.167 159.312C149.788 159.088 149.375 158.976 148.927 158.976C148.479 158.976 148.068 159.085 147.695 159.304C147.321 159.523 147.012 159.819 146.767 160.192C146.527 160.56 146.377 160.973 146.319 161.432ZM161.211 161.024V166H159.867V161.32C159.867 160.915 159.768 160.547 159.571 160.216C159.374 159.885 159.11 159.624 158.779 159.432C158.448 159.235 158.08 159.136 157.675 159.136C157.275 159.136 156.907 159.235 156.571 159.432C156.24 159.624 155.976 159.885 155.779 160.216C155.582 160.547 155.483 160.915 155.483 161.32V166H154.139V158H155.483V159C155.766 158.627 156.123 158.331 156.555 158.112C156.987 157.888 157.456 157.776 157.963 157.776C158.56 157.776 159.104 157.923 159.595 158.216C160.091 158.504 160.483 158.893 160.771 159.384C161.064 159.875 161.211 160.421 161.211 161.024ZM168.07 163.888L169.27 164.536C168.908 165.043 168.446 165.448 167.886 165.752C167.332 166.056 166.729 166.208 166.078 166.208C165.342 166.208 164.67 166.019 164.062 165.64C163.46 165.261 162.977 164.755 162.614 164.12C162.257 163.48 162.078 162.773 162.078 162C162.078 161.413 162.182 160.867 162.39 160.36C162.598 159.848 162.884 159.4 163.246 159.016C163.614 158.627 164.041 158.323 164.526 158.104C165.012 157.885 165.529 157.776 166.078 157.776C166.729 157.776 167.332 157.928 167.886 158.232C168.446 158.536 168.908 158.944 169.27 159.456L168.07 160.104C167.814 159.789 167.51 159.547 167.158 159.376C166.806 159.205 166.446 159.12 166.078 159.12C165.582 159.12 165.132 159.253 164.726 159.52C164.326 159.781 164.009 160.131 163.774 160.568C163.54 161.005 163.422 161.483 163.422 162C163.422 162.517 163.54 162.995 163.774 163.432C164.014 163.864 164.334 164.211 164.734 164.472C165.14 164.733 165.588 164.864 166.078 164.864C166.473 164.864 166.844 164.773 167.19 164.592C167.537 164.411 167.83 164.176 168.07 163.888ZM173.998 166.208C173.262 166.208 172.59 166.019 171.982 165.64C171.379 165.261 170.897 164.755 170.534 164.12C170.177 163.48 169.998 162.773 169.998 162C169.998 161.413 170.102 160.867 170.31 160.36C170.518 159.848 170.803 159.4 171.166 159.016C171.534 158.627 171.961 158.323 172.446 158.104C172.931 157.885 173.449 157.776 173.998 157.776C174.601 157.776 175.153 157.899 175.654 158.144C176.161 158.384 176.593 158.72 176.95 159.152C177.313 159.584 177.582 160.085 177.758 160.656C177.939 161.227 178.006 161.837 177.958 162.488H171.43C171.494 162.941 171.643 163.347 171.878 163.704C172.113 164.056 172.411 164.336 172.774 164.544C173.142 164.752 173.55 164.859 173.998 164.864C174.478 164.864 174.913 164.741 175.302 164.496C175.691 164.245 176.006 163.904 176.246 163.472L177.614 163.792C177.294 164.501 176.811 165.083 176.166 165.536C175.521 165.984 174.798 166.208 173.998 166.208ZM171.39 161.432H176.606C176.563 160.984 176.419 160.576 176.174 160.208C175.929 159.835 175.617 159.536 175.238 159.312C174.859 159.088 174.446 158.976 173.998 158.976C173.55 158.976 173.139 159.085 172.766 159.304C172.393 159.523 172.083 159.819 171.838 160.192C171.598 160.56 171.449 160.973 171.39 161.432ZM185.603 154H186.947V166H185.603V164.64C185.331 165.109 184.966 165.488 184.507 165.776C184.049 166.064 183.51 166.208 182.891 166.208C182.31 166.208 181.766 166.099 181.259 165.88C180.753 165.661 180.305 165.36 179.915 164.976C179.531 164.587 179.23 164.139 179.011 163.632C178.793 163.125 178.683 162.581 178.683 162C178.683 161.419 178.793 160.875 179.011 160.368C179.23 159.856 179.531 159.408 179.915 159.024C180.305 158.635 180.753 158.331 181.259 158.112C181.766 157.893 182.31 157.784 182.891 157.784C183.51 157.784 184.049 157.928 184.507 158.216C184.966 158.504 185.331 158.883 185.603 159.352V154ZM182.907 164.904C183.435 164.904 183.891 164.776 184.275 164.52C184.665 164.259 184.963 163.907 185.171 163.464C185.385 163.021 185.491 162.533 185.491 162C185.491 161.456 185.385 160.965 185.171 160.528C184.958 160.085 184.657 159.736 184.267 159.48C183.883 159.219 183.43 159.088 182.907 159.088C182.379 159.088 181.899 159.219 181.467 159.48C181.041 159.741 180.699 160.093 180.443 160.536C180.187 160.973 180.059 161.461 180.059 162C180.059 162.539 180.19 163.029 180.451 163.472C180.713 163.909 181.059 164.259 181.491 164.52C181.923 164.776 182.395 164.904 182.907 164.904ZM198.95 158H200.294V166H198.95L198.894 164.648C198.644 165.112 198.297 165.488 197.854 165.776C197.417 166.064 196.894 166.208 196.286 166.208C195.7 166.208 195.15 166.099 194.638 165.88C194.126 165.656 193.673 165.349 193.278 164.96C192.889 164.565 192.585 164.112 192.366 163.6C192.148 163.088 192.038 162.536 192.038 161.944C192.038 161.373 192.145 160.835 192.358 160.328C192.572 159.821 192.868 159.379 193.246 159C193.63 158.616 194.073 158.317 194.574 158.104C195.076 157.885 195.614 157.776 196.19 157.776C196.82 157.776 197.372 157.925 197.846 158.224C198.321 158.517 198.705 158.899 198.998 159.368L198.95 158ZM196.262 164.904C196.79 164.904 197.246 164.776 197.63 164.52C198.02 164.259 198.318 163.907 198.526 163.464C198.74 163.021 198.846 162.533 198.846 162C198.846 161.456 198.74 160.965 198.526 160.528C198.313 160.085 198.012 159.736 197.622 159.48C197.238 159.219 196.785 159.088 196.262 159.088C195.734 159.088 195.254 159.219 194.822 159.48C194.39 159.741 194.046 160.093 193.79 160.536C193.54 160.973 193.414 161.461 193.414 162C193.414 162.539 193.545 163.029 193.806 163.472C194.068 163.909 194.414 164.259 194.846 164.52C195.278 164.776 195.75 164.904 196.262 164.904ZM207.889 158H209.233V166.256C209.233 166.784 209.118 167.275 208.889 167.728C208.665 168.187 208.361 168.584 207.977 168.92C207.593 169.261 207.156 169.525 206.665 169.712C206.174 169.904 205.662 170 205.129 170C204.574 170 204.038 169.875 203.521 169.624C203.004 169.379 202.55 169.048 202.161 168.632C201.777 168.221 201.5 167.76 201.329 167.248L202.561 166.688C202.662 167.056 202.844 167.387 203.105 167.68C203.372 167.979 203.681 168.213 204.033 168.384C204.39 168.56 204.756 168.648 205.129 168.648C205.481 168.648 205.82 168.587 206.145 168.464C206.476 168.341 206.772 168.171 207.033 167.952C207.3 167.739 207.508 167.485 207.657 167.192C207.812 166.904 207.889 166.592 207.889 166.256V164.664C207.617 165.123 207.257 165.496 206.809 165.784C206.366 166.067 205.849 166.208 205.257 166.208C204.692 166.208 204.161 166.099 203.665 165.88C203.169 165.661 202.734 165.36 202.361 164.976C201.988 164.587 201.694 164.139 201.481 163.632C201.268 163.125 201.161 162.581 201.161 162C201.161 161.419 201.268 160.875 201.481 160.368C201.694 159.856 201.988 159.408 202.361 159.024C202.734 158.635 203.169 158.331 203.665 158.112C204.161 157.893 204.692 157.784 205.257 157.784C205.849 157.784 206.366 157.925 206.809 158.208C207.257 158.491 207.617 158.864 207.889 159.328V158ZM205.265 164.904C205.782 164.904 206.23 164.771 206.609 164.504C206.993 164.237 207.289 163.883 207.497 163.44C207.705 162.997 207.809 162.517 207.809 162C207.809 161.467 207.702 160.981 207.489 160.544C207.281 160.101 206.985 159.749 206.601 159.488C206.222 159.221 205.777 159.088 205.265 159.088C204.764 159.088 204.305 159.219 203.889 159.48C203.473 159.741 203.142 160.093 202.897 160.536C202.657 160.973 202.537 161.461 202.537 162C202.537 162.539 202.66 163.029 202.905 163.472C203.156 163.909 203.486 164.259 203.897 164.52C204.313 164.776 204.769 164.904 205.265 164.904ZM214.471 166.208C213.735 166.208 213.063 166.019 212.455 165.64C211.853 165.261 211.37 164.755 211.007 164.12C210.65 163.48 210.471 162.773 210.471 162C210.471 161.413 210.575 160.867 210.783 160.36C210.991 159.848 211.277 159.4 211.639 159.016C212.007 158.627 212.434 158.323 212.919 158.104C213.405 157.885 213.922 157.776 214.471 157.776C215.074 157.776 215.626 157.899 216.127 158.144C216.634 158.384 217.066 158.72 217.423 159.152C217.786 159.584 218.055 160.085 218.231 160.656C218.413 161.227 218.479 161.837 218.431 162.488H211.903C211.967 162.941 212.117 163.347 212.351 163.704C212.586 164.056 212.885 164.336 213.247 164.544C213.615 164.752 214.023 164.859 214.471 164.864C214.951 164.864 215.386 164.741 215.775 164.496C216.165 164.245 216.479 163.904 216.719 163.472L218.087 163.792C217.767 164.501 217.285 165.083 216.639 165.536C215.994 165.984 215.271 166.208 214.471 166.208ZM211.863 161.432H217.079C217.037 160.984 216.893 160.576 216.647 160.208C216.402 159.835 216.09 159.536 215.711 159.312C215.333 159.088 214.919 158.976 214.471 158.976C214.023 158.976 213.613 159.085 213.239 159.304C212.866 159.523 212.557 159.819 212.311 160.192C212.071 160.56 211.922 160.973 211.863 161.432ZM226.755 161.024V166H225.411V161.32C225.411 160.915 225.313 160.547 225.115 160.216C224.918 159.885 224.654 159.624 224.323 159.432C223.993 159.235 223.625 159.136 223.219 159.136C222.819 159.136 222.451 159.235 222.115 159.432C221.785 159.624 221.521 159.885 221.323 160.216C221.126 160.547 221.027 160.915 221.027 161.32V166H219.683V158H221.027V159C221.31 158.627 221.667 158.331 222.099 158.112C222.531 157.888 223.001 157.776 223.507 157.776C224.105 157.776 224.649 157.923 225.139 158.216C225.635 158.504 226.027 158.893 226.315 159.384C226.609 159.875 226.755 160.421 226.755 161.024ZM232.403 159.344H230.587L230.579 166H229.235L229.243 159.344H227.867V158H229.243L229.235 155.488H230.579L230.587 158H232.403V159.344ZM236.103 166.152C235.671 166.136 235.25 166.056 234.839 165.912C234.434 165.763 234.077 165.563 233.767 165.312C233.463 165.056 233.242 164.763 233.103 164.432L234.255 163.936C234.335 164.117 234.479 164.288 234.687 164.448C234.895 164.608 235.135 164.736 235.407 164.832C235.679 164.928 235.954 164.976 236.231 164.976C236.525 164.976 236.799 164.931 237.055 164.84C237.311 164.749 237.519 164.616 237.679 164.44C237.845 164.259 237.927 164.043 237.927 163.792C237.927 163.525 237.837 163.317 237.655 163.168C237.479 163.013 237.255 162.893 236.983 162.808C236.717 162.717 236.445 162.632 236.167 162.552C235.618 162.413 235.127 162.248 234.695 162.056C234.263 161.859 233.922 161.611 233.671 161.312C233.426 161.008 233.303 160.621 233.303 160.152C233.303 159.656 233.439 159.227 233.711 158.864C233.989 158.501 234.351 158.221 234.799 158.024C235.247 157.827 235.727 157.728 236.239 157.728C236.885 157.728 237.474 157.867 238.007 158.144C238.541 158.421 238.938 158.797 239.199 159.272L238.119 159.904C238.029 159.712 237.89 159.544 237.703 159.4C237.517 159.251 237.303 159.133 237.063 159.048C236.823 158.963 236.578 158.917 236.327 158.912C236.018 158.901 235.727 158.941 235.455 159.032C235.189 159.123 234.973 159.261 234.807 159.448C234.647 159.629 234.567 159.856 234.567 160.128C234.567 160.395 234.653 160.597 234.823 160.736C234.999 160.875 235.226 160.987 235.503 161.072C235.786 161.152 236.093 161.245 236.423 161.352C236.909 161.507 237.362 161.685 237.783 161.888C238.205 162.091 238.543 162.344 238.799 162.648C239.061 162.952 239.189 163.328 239.183 163.776C239.183 164.267 239.037 164.696 238.743 165.064C238.45 165.427 238.069 165.704 237.599 165.896C237.135 166.088 236.637 166.173 236.103 166.152ZM240.835 166.208C240.632 166.208 240.459 166.136 240.315 165.992C240.176 165.848 240.107 165.672 240.107 165.464C240.107 165.267 240.176 165.096 240.315 164.952C240.459 164.808 240.632 164.736 240.835 164.736C241.043 164.736 241.219 164.808 241.363 164.952C241.507 165.096 241.579 165.267 241.579 165.464C241.579 165.672 241.507 165.848 241.363 165.992C241.219 166.136 241.043 166.208 240.835 166.208Z" fill="#999999"></path><rect x="41.168" y="196.5" width="106" height="45" rx="7.5" fill="#1A1A1A"></rect><rect x="41.168" y="196.5" width="106" height="45" rx="7.5" stroke="#262626"></rect><path d="M61.508 224V214.2H64.952C65.4746 214.2 65.946 214.328 66.366 214.585C66.7906 214.842 67.1266 215.189 67.374 215.628C67.626 216.062 67.752 216.547 67.752 217.084C67.752 217.555 67.6586 217.985 67.472 218.372C67.2853 218.759 67.0286 219.084 66.702 219.345C66.38 219.602 66.0136 219.779 65.603 219.877L67.983 224H66.625L64.287 219.975H62.684V224H61.508ZM62.684 218.799H64.833C65.1503 218.799 65.442 218.722 65.708 218.568C65.974 218.409 66.184 218.197 66.338 217.931C66.4966 217.66 66.576 217.357 66.576 217.021C66.576 216.68 66.4966 216.377 66.338 216.111C66.184 215.84 65.974 215.628 65.708 215.474C65.442 215.315 65.1503 215.236 64.833 215.236H62.684V218.799ZM72.1329 224.182C71.4889 224.182 70.9009 224.016 70.3689 223.685C69.8415 223.354 69.4192 222.91 69.1019 222.355C68.7892 221.795 68.6329 221.177 68.6329 220.5C68.6329 219.987 68.7239 219.508 68.9059 219.065C69.0879 218.617 69.3375 218.225 69.6549 217.889C69.9769 217.548 70.3502 217.282 70.7749 217.091C71.1995 216.9 71.6522 216.804 72.1329 216.804C72.6602 216.804 73.1432 216.911 73.5819 217.126C74.0252 217.336 74.4032 217.63 74.7159 218.008C75.0332 218.386 75.2689 218.825 75.4229 219.324C75.5815 219.823 75.6399 220.358 75.5979 220.927H69.8859C69.9419 221.324 70.0725 221.678 70.2779 221.991C70.4832 222.299 70.7445 222.544 71.0619 222.726C71.3839 222.908 71.7409 223.001 72.1329 223.006C72.5529 223.006 72.9332 222.899 73.2739 222.684C73.6145 222.465 73.8899 222.166 74.0999 221.788L75.2969 222.068C75.0169 222.689 74.5945 223.197 74.0299 223.594C73.4652 223.986 72.8329 224.182 72.1329 224.182ZM69.8509 220.003H74.4149C74.3775 219.611 74.2515 219.254 74.0369 218.932C73.8222 218.605 73.5492 218.344 73.2179 218.148C72.8865 217.952 72.5249 217.854 72.1329 217.854C71.7409 217.854 71.3815 217.95 71.0549 218.141C70.7282 218.332 70.4575 218.591 70.2429 218.918C70.0329 219.24 69.9022 219.602 69.8509 220.003ZM82.2805 217H83.4565V224H82.2805L82.2315 222.817C82.0121 223.223 81.7088 223.552 81.3215 223.804C80.9388 224.056 80.4815 224.182 79.9495 224.182C79.4361 224.182 78.9555 224.086 78.5075 223.895C78.0595 223.699 77.6628 223.431 77.3175 223.09C76.9768 222.745 76.7108 222.348 76.5195 221.9C76.3281 221.452 76.2325 220.969 76.2325 220.451C76.2325 219.952 76.3258 219.48 76.5125 219.037C76.6991 218.594 76.9581 218.206 77.2895 217.875C77.6255 217.539 78.0128 217.278 78.4515 217.091C78.8901 216.9 79.3615 216.804 79.8655 216.804C80.4161 216.804 80.8991 216.935 81.3145 217.196C81.7298 217.453 82.0658 217.786 82.3225 218.197L82.2805 217ZM79.9285 223.041C80.3905 223.041 80.7895 222.929 81.1255 222.705C81.4661 222.476 81.7275 222.168 81.9095 221.781C82.0961 221.394 82.1895 220.967 82.1895 220.5C82.1895 220.024 82.0961 219.595 81.9095 219.212C81.7228 218.825 81.4591 218.519 81.1185 218.295C80.7825 218.066 80.3858 217.952 79.9285 217.952C79.4665 217.952 79.0465 218.066 78.6685 218.295C78.2905 218.524 77.9895 218.832 77.7655 219.219C77.5461 219.602 77.4365 220.029 77.4365 220.5C77.4365 220.971 77.5508 221.401 77.7795 221.788C78.0081 222.171 78.3115 222.476 78.6895 222.705C79.0675 222.929 79.4805 223.041 79.9285 223.041ZM90.2699 213.5H91.4459V224H90.2699V222.81C90.0319 223.221 89.7122 223.552 89.3109 223.804C88.9095 224.056 88.4382 224.182 87.8969 224.182C87.3882 224.182 86.9122 224.086 86.4689 223.895C86.0255 223.704 85.6335 223.44 85.2929 223.104C84.9569 222.763 84.6932 222.371 84.5019 221.928C84.3105 221.485 84.2149 221.009 84.2149 220.5C84.2149 219.991 84.3105 219.515 84.5019 219.072C84.6932 218.624 84.9569 218.232 85.2929 217.896C85.6335 217.555 86.0255 217.289 86.4689 217.098C86.9122 216.907 87.3882 216.811 87.8969 216.811C88.4382 216.811 88.9095 216.937 89.3109 217.189C89.7122 217.441 90.0319 217.772 90.2699 218.183V213.5ZM87.9109 223.041C88.3729 223.041 88.7719 222.929 89.1079 222.705C89.4485 222.476 89.7099 222.168 89.8919 221.781C90.0785 221.394 90.1719 220.967 90.1719 220.5C90.1719 220.024 90.0785 219.595 89.8919 219.212C89.7052 218.825 89.4415 218.519 89.1009 218.295C88.7649 218.066 88.3682 217.952 87.9109 217.952C87.4489 217.952 87.0289 218.066 86.6509 218.295C86.2775 218.524 85.9789 218.832 85.7549 219.219C85.5309 219.602 85.4189 220.029 85.4189 220.5C85.4189 220.971 85.5332 221.401 85.7619 221.788C85.9905 222.171 86.2939 222.476 86.6719 222.705C87.0499 222.929 87.4629 223.041 87.9109 223.041ZM96.3204 224L98.2174 214.2H99.1204L101.766 221.158L104.405 214.2H105.308L107.212 224H106.015L104.636 216.888L102.151 223.468H101.374L98.8894 216.888L97.5174 224H96.3204ZM111.279 224.182C110.635 224.182 110.047 224.016 109.515 223.685C108.988 223.354 108.566 222.91 108.248 222.355C107.936 221.795 107.779 221.177 107.779 220.5C107.779 219.987 107.87 219.508 108.052 219.065C108.234 218.617 108.484 218.225 108.801 217.889C109.123 217.548 109.497 217.282 109.921 217.091C110.346 216.9 110.799 216.804 111.279 216.804C111.923 216.804 112.509 216.97 113.036 217.301C113.568 217.632 113.991 218.078 114.303 218.638C114.621 219.198 114.779 219.819 114.779 220.5C114.779 221.009 114.688 221.485 114.506 221.928C114.324 222.371 114.072 222.763 113.75 223.104C113.433 223.44 113.062 223.704 112.637 223.895C112.217 224.086 111.765 224.182 111.279 224.182ZM111.279 223.006C111.718 223.006 112.112 222.892 112.462 222.663C112.817 222.43 113.095 222.124 113.295 221.746C113.501 221.363 113.603 220.948 113.603 220.5C113.603 220.043 113.498 219.623 113.288 219.24C113.083 218.857 112.805 218.552 112.455 218.323C112.105 218.094 111.713 217.98 111.279 217.98C110.841 217.98 110.446 218.097 110.096 218.33C109.746 218.559 109.469 218.864 109.263 219.247C109.058 219.63 108.955 220.047 108.955 220.5C108.955 220.967 109.06 221.391 109.27 221.774C109.48 222.152 109.763 222.453 110.117 222.677C110.472 222.896 110.859 223.006 111.279 223.006ZM115.854 224V217H117.03V217.875C117.277 217.548 117.59 217.289 117.968 217.098C118.346 216.902 118.756 216.804 119.2 216.804C119.47 216.804 119.732 216.839 119.984 216.909L119.508 218.085C119.316 218.024 119.13 217.994 118.948 217.994C118.598 217.994 118.276 218.08 117.982 218.253C117.692 218.421 117.461 218.65 117.289 218.939C117.116 219.228 117.03 219.55 117.03 219.905V224H115.854ZM123.484 224.182C122.84 224.182 122.252 224.016 121.72 223.685C121.193 223.354 120.771 222.91 120.453 222.355C120.141 221.795 119.984 221.177 119.984 220.5C119.984 219.987 120.075 219.508 120.257 219.065C120.439 218.617 120.689 218.225 121.006 217.889C121.328 217.548 121.702 217.282 122.126 217.091C122.551 216.9 123.004 216.804 123.484 216.804C124.012 216.804 124.495 216.911 124.933 217.126C125.377 217.336 125.755 217.63 126.067 218.008C126.385 218.386 126.62 218.825 126.774 219.324C126.933 219.823 126.991 220.358 126.949 220.927H121.237C121.293 221.324 121.424 221.678 121.629 221.991C121.835 222.299 122.096 222.544 122.413 222.726C122.735 222.908 123.092 223.001 123.484 223.006C123.904 223.006 124.285 222.899 124.625 222.684C124.966 222.465 125.241 222.166 125.451 221.788L126.648 222.068C126.368 222.689 125.946 223.197 125.381 223.594C124.817 223.986 124.184 224.182 123.484 224.182ZM121.202 220.003H125.766C125.729 219.611 125.603 219.254 125.388 218.932C125.174 218.605 124.901 218.344 124.569 218.148C124.238 217.952 123.876 217.854 123.484 217.854C123.092 217.854 122.733 217.95 122.406 218.141C122.08 218.332 121.809 218.591 121.594 218.918C121.384 219.24 121.254 219.602 121.202 220.003Z" fill="white"></path></svg>