<svg xmlns="http://www.w3.org/2000/svg" width="512" height="266" viewBox="0 0 512 266" fill="none"><rect x="0.5" y="0.5" width="511" height="265" rx="11.5" stroke="#262626"></rect><rect x="50.5" y="50.5" width="81" height="81" rx="40.5" stroke="url(#paint0_linear_104_11417)"></rect><rect x="50.5" y="50.5" width="81" height="81" rx="40.5" stroke="url(#paint1_linear_104_11417)"></rect><rect x="60.5" y="60.5" width="61" height="61" rx="30.5" stroke="url(#paint2_linear_104_11417)"></rect><rect x="60.5" y="60.5" width="61" height="61" rx="30.5" stroke="url(#paint3_linear_104_11417)"></rect><path d="M100.031 77.1875C98.5642 77.1875 97.375 78.3767 97.375 79.8438V102.156C97.375 103.623 98.5642 104.812 100.031 104.812H101.094C102.561 104.812 103.75 103.623 103.75 102.156V79.8438C103.75 78.3767 102.561 77.1875 101.094 77.1875H100.031Z" fill="#A685FA"></path><path d="M87.8125 86.2188C87.8125 84.7517 89.0017 83.5625 90.4688 83.5625H91.5312C92.9983 83.5625 94.1875 84.7517 94.1875 86.2188V102.156C94.1875 103.623 92.9983 104.812 91.5312 104.812H90.4688C89.0017 104.812 87.8125 103.623 87.8125 102.156V86.2188Z" fill="#A685FA"></path><path d="M78.25 92.5938C78.25 91.1267 79.4392 89.9375 80.9062 89.9375H81.9688C83.4358 89.9375 84.625 91.1267 84.625 92.5938V102.156C84.625 103.623 83.4358 104.812 81.9688 104.812H80.9062C79.4392 104.812 78.25 103.623 78.25 102.156V92.5938Z" fill="#A685FA"></path><path d="M158.936 99L152.84 82.2H155.48L160.496 96.036L165.536 82.2H168.176L162.08 99H158.936ZM178.057 87H180.553V99H178.045L177.949 97.26C177.597 97.876 177.121 98.372 176.521 98.748C175.921 99.124 175.213 99.312 174.397 99.312C173.517 99.312 172.689 99.148 171.913 98.82C171.137 98.484 170.453 98.02 169.861 97.428C169.277 96.836 168.821 96.156 168.493 95.388C168.165 94.612 168.001 93.78 168.001 92.892C168.001 92.036 168.161 91.232 168.481 90.48C168.801 89.72 169.245 89.056 169.813 88.488C170.381 87.92 171.037 87.476 171.781 87.156C172.533 86.828 173.337 86.664 174.193 86.664C175.065 86.664 175.833 86.864 176.497 87.264C177.169 87.656 177.725 88.16 178.165 88.776L178.057 87ZM174.337 96.9C175.041 96.9 175.657 96.728 176.185 96.384C176.713 96.032 177.121 95.56 177.409 94.968C177.705 94.376 177.853 93.72 177.853 93C177.853 92.272 177.705 91.612 177.409 91.02C177.113 90.428 176.701 89.96 176.173 89.616C175.653 89.264 175.041 89.088 174.337 89.088C173.641 89.088 173.005 89.264 172.429 89.616C171.853 89.968 171.397 90.44 171.061 91.032C170.725 91.624 170.557 92.28 170.557 93C170.557 93.728 170.729 94.388 171.073 94.98C171.425 95.564 171.885 96.032 172.453 96.384C173.029 96.728 173.657 96.9 174.337 96.9ZM183.042 99V81H185.538V99H183.042ZM187.929 94.5V87H190.425V93.888C190.425 94.424 190.557 94.912 190.821 95.352C191.085 95.792 191.437 96.144 191.877 96.408C192.317 96.664 192.801 96.792 193.329 96.792C193.865 96.792 194.349 96.664 194.781 96.408C195.221 96.144 195.569 95.792 195.825 95.352C196.089 94.912 196.221 94.424 196.221 93.888V87H198.717L198.729 99H196.233L196.221 97.704C195.813 98.2 195.305 98.592 194.697 98.88C194.089 99.168 193.437 99.312 192.741 99.312C191.853 99.312 191.045 99.096 190.317 98.664C189.589 98.232 189.009 97.652 188.577 96.924C188.145 96.196 187.929 95.388 187.929 94.5ZM210.307 87H212.803V99H210.295L210.199 97.26C209.847 97.876 209.371 98.372 208.771 98.748C208.171 99.124 207.463 99.312 206.647 99.312C205.767 99.312 204.939 99.148 204.163 98.82C203.387 98.484 202.703 98.02 202.111 97.428C201.527 96.836 201.071 96.156 200.743 95.388C200.415 94.612 200.251 93.78 200.251 92.892C200.251 92.036 200.411 91.232 200.731 90.48C201.051 89.72 201.495 89.056 202.063 88.488C202.631 87.92 203.287 87.476 204.031 87.156C204.783 86.828 205.587 86.664 206.443 86.664C207.315 86.664 208.083 86.864 208.747 87.264C209.419 87.656 209.975 88.16 210.415 88.776L210.307 87ZM206.587 96.9C207.291 96.9 207.907 96.728 208.435 96.384C208.963 96.032 209.371 95.56 209.659 94.968C209.955 94.376 210.103 93.72 210.103 93C210.103 92.272 209.955 91.612 209.659 91.02C209.363 90.428 208.951 89.96 208.423 89.616C207.903 89.264 207.291 89.088 206.587 89.088C205.891 89.088 205.255 89.264 204.679 89.616C204.103 89.968 203.647 90.44 203.311 91.032C202.975 91.624 202.807 92.28 202.807 93C202.807 93.728 202.979 94.388 203.323 94.98C203.675 95.564 204.135 96.032 204.703 96.384C205.279 96.728 205.907 96.9 206.587 96.9ZM221.534 89.496H219.014L219.002 99H216.506L216.518 89.496H214.61V87H216.518L216.506 83.232H219.002L219.014 87H221.534V89.496ZM223.518 87H226.014V99H223.518V87ZM224.79 85.26C224.406 85.26 224.086 85.136 223.83 84.888C223.574 84.64 223.446 84.328 223.446 83.952C223.446 83.584 223.574 83.276 223.83 83.028C224.086 82.772 224.402 82.644 224.778 82.644C225.146 82.644 225.458 82.772 225.714 83.028C225.97 83.276 226.098 83.584 226.098 83.952C226.098 84.328 225.97 84.64 225.714 84.888C225.466 85.136 225.158 85.26 224.79 85.26ZM233.954 99.312C232.85 99.312 231.842 99.028 230.93 98.46C230.026 97.892 229.302 97.132 228.758 96.18C228.222 95.22 227.954 94.16 227.954 93C227.954 92.12 228.11 91.3 228.422 90.54C228.734 89.772 229.162 89.1 229.706 88.524C230.258 87.94 230.898 87.484 231.626 87.156C232.354 86.828 233.13 86.664 233.954 86.664C235.058 86.664 236.062 86.948 236.966 87.516C237.878 88.084 238.602 88.848 239.138 89.808C239.682 90.768 239.954 91.832 239.954 93C239.954 93.872 239.798 94.688 239.486 95.448C239.174 96.208 238.742 96.88 238.19 97.464C237.646 98.04 237.01 98.492 236.282 98.82C235.562 99.148 234.786 99.312 233.954 99.312ZM233.954 96.816C234.618 96.816 235.214 96.64 235.742 96.288C236.27 95.936 236.686 95.472 236.99 94.896C237.302 94.312 237.458 93.68 237.458 93C237.458 92.304 237.298 91.664 236.978 91.08C236.666 90.496 236.246 90.032 235.718 89.688C235.19 89.336 234.602 89.16 233.954 89.16C233.298 89.16 232.702 89.336 232.166 89.688C231.638 90.04 231.218 90.508 230.906 91.092C230.602 91.676 230.45 92.312 230.45 93C230.45 93.712 230.61 94.356 230.93 94.932C231.25 95.508 231.674 95.968 232.202 96.312C232.738 96.648 233.322 96.816 233.954 96.816ZM252.693 91.476V99H250.197V92.088C250.197 91.552 250.065 91.064 249.801 90.624C249.545 90.184 249.197 89.836 248.757 89.58C248.325 89.316 247.837 89.184 247.293 89.184C246.765 89.184 246.281 89.316 245.841 89.58C245.401 89.836 245.049 90.184 244.785 90.624C244.521 91.064 244.389 91.552 244.389 92.088V99H241.893V87H244.389V88.272C244.805 87.776 245.317 87.384 245.925 87.096C246.533 86.808 247.189 86.664 247.893 86.664C248.781 86.664 249.589 86.88 250.317 87.312C251.045 87.744 251.621 88.324 252.045 89.052C252.477 89.78 252.693 90.588 252.693 91.476ZM260.854 99L264.106 82.2H266.122L270.43 93.516L274.714 82.2H276.73L279.994 99H277.45L275.278 87.756L271.258 98.364H269.578L265.57 87.756L263.398 99H260.854ZM291.049 87H293.545V99H291.037L290.941 97.26C290.589 97.876 290.113 98.372 289.513 98.748C288.913 99.124 288.205 99.312 287.389 99.312C286.509 99.312 285.681 99.148 284.905 98.82C284.129 98.484 283.445 98.02 282.853 97.428C282.269 96.836 281.813 96.156 281.485 95.388C281.157 94.612 280.993 93.78 280.993 92.892C280.993 92.036 281.153 91.232 281.473 90.48C281.793 89.72 282.237 89.056 282.805 88.488C283.373 87.92 284.029 87.476 284.773 87.156C285.525 86.828 286.329 86.664 287.185 86.664C288.057 86.664 288.825 86.864 289.489 87.264C290.161 87.656 290.717 88.16 291.157 88.776L291.049 87ZM287.329 96.9C288.033 96.9 288.649 96.728 289.177 96.384C289.705 96.032 290.113 95.56 290.401 94.968C290.697 94.376 290.845 93.72 290.845 93C290.845 92.272 290.697 91.612 290.401 91.02C290.105 90.428 289.693 89.96 289.165 89.616C288.645 89.264 288.033 89.088 287.329 89.088C286.633 89.088 285.997 89.264 285.421 89.616C284.845 89.968 284.389 90.44 284.053 91.032C283.717 91.624 283.549 92.28 283.549 93C283.549 93.728 283.721 94.388 284.065 94.98C284.417 95.564 284.877 96.032 285.445 96.384C286.021 96.728 286.649 96.9 287.329 96.9ZM299.54 99.228C298.908 99.188 298.292 99.06 297.692 98.844C297.092 98.628 296.564 98.336 296.108 97.968C295.66 97.592 295.324 97.152 295.1 96.648L297.224 95.736C297.328 95.952 297.508 96.164 297.764 96.372C298.028 96.58 298.336 96.752 298.688 96.888C299.04 97.016 299.408 97.08 299.792 97.08C300.168 97.08 300.516 97.028 300.836 96.924C301.164 96.812 301.432 96.644 301.64 96.42C301.848 96.196 301.952 95.928 301.952 95.616C301.952 95.264 301.832 94.992 301.592 94.8C301.36 94.6 301.068 94.448 300.716 94.344C300.364 94.24 300.012 94.14 299.66 94.044C298.876 93.868 298.156 93.628 297.5 93.324C296.852 93.012 296.336 92.616 295.952 92.136C295.568 91.648 295.376 91.052 295.376 90.348C295.376 89.58 295.584 88.916 296 88.356C296.416 87.788 296.96 87.352 297.632 87.048C298.312 86.744 299.036 86.592 299.804 86.592C300.764 86.592 301.644 86.796 302.444 87.204C303.244 87.612 303.856 88.172 304.28 88.884L302.3 90.06C302.18 89.82 302 89.604 301.76 89.412C301.52 89.22 301.248 89.068 300.944 88.956C300.64 88.836 300.324 88.768 299.996 88.752C299.588 88.736 299.208 88.784 298.856 88.896C298.512 89 298.236 89.168 298.028 89.4C297.82 89.632 297.716 89.928 297.716 90.288C297.716 90.64 297.84 90.904 298.088 91.08C298.336 91.248 298.648 91.384 299.024 91.488C299.408 91.592 299.8 91.708 300.2 91.836C300.912 92.06 301.58 92.336 302.204 92.664C302.828 92.984 303.332 93.38 303.716 93.852C304.1 94.324 304.284 94.9 304.268 95.58C304.268 96.332 304.04 96.992 303.584 97.56C303.136 98.128 302.552 98.56 301.832 98.856C301.112 99.152 300.348 99.276 299.54 99.228ZM312.659 89.496H310.139L310.127 99H307.631L307.643 89.496H305.735V87H307.643L307.631 83.232H310.127L310.139 87H312.659V89.496ZM319.806 99.312C318.702 99.312 317.694 99.028 316.782 98.46C315.878 97.892 315.154 97.132 314.61 96.18C314.074 95.22 313.806 94.16 313.806 93C313.806 92.12 313.962 91.3 314.274 90.54C314.586 89.772 315.014 89.1 315.558 88.524C316.11 87.94 316.75 87.484 317.478 87.156C318.206 86.828 318.982 86.664 319.806 86.664C320.726 86.664 321.57 86.856 322.338 87.24C323.106 87.616 323.762 88.14 324.306 88.812C324.85 89.476 325.25 90.244 325.506 91.116C325.762 91.98 325.838 92.9 325.734 93.876H316.482C316.586 94.428 316.786 94.928 317.082 95.376C317.386 95.816 317.77 96.164 318.234 96.42C318.706 96.676 319.23 96.808 319.806 96.816C320.414 96.816 320.966 96.664 321.462 96.36C321.966 96.056 322.378 95.636 322.698 95.1L325.23 95.688C324.75 96.752 324.026 97.624 323.058 98.304C322.09 98.976 321.006 99.312 319.806 99.312ZM316.398 91.968H323.214C323.134 91.392 322.93 90.872 322.602 90.408C322.282 89.936 321.878 89.564 321.39 89.292C320.91 89.012 320.382 88.872 319.806 88.872C319.238 88.872 318.71 89.008 318.222 89.28C317.742 89.552 317.342 89.924 317.022 90.396C316.71 90.86 316.502 91.384 316.398 91.968ZM327.721 99V87H330.217V88.272C330.633 87.776 331.145 87.384 331.753 87.096C332.361 86.808 333.017 86.664 333.721 86.664C334.169 86.664 334.613 86.724 335.053 86.844L334.057 89.364C333.745 89.244 333.433 89.184 333.121 89.184C332.593 89.184 332.109 89.316 331.669 89.58C331.229 89.836 330.877 90.184 330.613 90.624C330.349 91.064 330.217 91.552 330.217 92.088V99H327.721ZM344.683 87H347.347L340.771 105H338.119L340.291 99L335.983 87H338.707L341.539 95.58L344.683 87Z" fill="white"></path><path d="M51.08 182V169.4H55.247C56.117 169.4 56.933 169.565 57.695 169.895C58.457 170.219 59.126 170.672 59.702 171.254C60.278 171.83 60.728 172.499 61.052 173.261C61.382 174.017 61.547 174.83 61.547 175.7C61.547 176.57 61.382 177.386 61.052 178.148C60.728 178.904 60.278 179.573 59.702 180.155C59.126 180.731 58.457 181.184 57.695 181.514C56.933 181.838 56.117 182 55.247 182H51.08ZM52.592 180.488H55.247C55.907 180.488 56.525 180.365 57.101 180.119C57.683 179.867 58.193 179.522 58.631 179.084C59.069 178.646 59.411 178.139 59.657 177.563C59.909 176.981 60.035 176.36 60.035 175.7C60.035 175.04 59.909 174.422 59.657 173.846C59.411 173.264 59.066 172.754 58.622 172.316C58.184 171.878 57.677 171.536 57.101 171.29C56.525 171.038 55.907 170.912 55.247 170.912H52.592V180.488ZM63.0859 173H64.5979V182H63.0859V173ZM63.8599 171.533C63.6199 171.533 63.4189 171.455 63.2569 171.299C63.0949 171.143 63.0139 170.948 63.0139 170.714C63.0139 170.48 63.0949 170.285 63.2569 170.129C63.4189 169.973 63.6169 169.895 63.8509 169.895C64.0849 169.895 64.2829 169.973 64.4449 170.129C64.6069 170.285 64.6879 170.48 64.6879 170.714C64.6879 170.948 64.6069 171.143 64.4449 171.299C64.2889 171.455 64.0939 171.533 63.8599 171.533ZM69.4168 182.171C68.9308 182.153 68.4568 182.063 67.9948 181.901C67.5388 181.733 67.1368 181.508 66.7888 181.226C66.4468 180.938 66.1978 180.608 66.0418 180.236L67.3378 179.678C67.4278 179.882 67.5898 180.074 67.8238 180.254C68.0578 180.434 68.3278 180.578 68.6338 180.686C68.9398 180.794 69.2488 180.848 69.5608 180.848C69.8908 180.848 70.1998 180.797 70.4878 180.695C70.7758 180.593 71.0098 180.443 71.1898 180.245C71.3758 180.041 71.4688 179.798 71.4688 179.516C71.4688 179.216 71.3668 178.982 71.1628 178.814C70.9648 178.64 70.7128 178.505 70.4068 178.409C70.1068 178.307 69.8008 178.211 69.4888 178.121C68.8708 177.965 68.3188 177.779 67.8328 177.563C67.3468 177.341 66.9628 177.062 66.6808 176.726C66.4048 176.384 66.2668 175.949 66.2668 175.421C66.2668 174.863 66.4198 174.38 66.7258 173.972C67.0378 173.564 67.4458 173.249 67.9498 173.027C68.4538 172.805 68.9938 172.694 69.5698 172.694C70.2958 172.694 70.9588 172.85 71.5588 173.162C72.1588 173.474 72.6058 173.897 72.8998 174.431L71.6848 175.142C71.5828 174.926 71.4268 174.737 71.2168 174.575C71.0068 174.407 70.7668 174.275 70.4968 174.179C70.2268 174.083 69.9508 174.032 69.6688 174.026C69.3208 174.014 68.9938 174.059 68.6878 174.161C68.3878 174.263 68.1448 174.419 67.9588 174.629C67.7788 174.833 67.6888 175.088 67.6888 175.394C67.6888 175.694 67.7848 175.922 67.9768 176.078C68.1748 176.234 68.4298 176.36 68.7418 176.456C69.0598 176.546 69.4048 176.651 69.7768 176.771C70.3228 176.945 70.8328 177.146 71.3068 177.374C71.7808 177.602 72.1618 177.887 72.4498 178.229C72.7438 178.571 72.8878 178.994 72.8818 179.498C72.8818 180.05 72.7168 180.533 72.3868 180.947C72.0568 181.355 71.6278 181.667 71.0998 181.883C70.5778 182.099 70.0168 182.195 69.4168 182.171ZM80.5369 179.624L81.8869 180.353C81.4789 180.923 80.9599 181.379 80.3299 181.721C79.7059 182.063 79.0279 182.234 78.2959 182.234C77.4679 182.234 76.7119 182.021 76.0279 181.595C75.3499 181.169 74.8069 180.599 74.3989 179.885C73.9969 179.165 73.7959 178.37 73.7959 177.5C73.7959 176.84 73.9129 176.225 74.1469 175.655C74.3809 175.079 74.7019 174.575 75.1099 174.143C75.5239 173.705 76.0039 173.363 76.5499 173.117C77.0959 172.871 77.6779 172.748 78.2959 172.748C79.0279 172.748 79.7059 172.919 80.3299 173.261C80.9599 173.603 81.4789 174.062 81.8869 174.638L80.5369 175.367C80.2489 175.013 79.9069 174.74 79.5109 174.548C79.1149 174.356 78.7099 174.26 78.2959 174.26C77.7379 174.26 77.2309 174.41 76.7749 174.71C76.3249 175.004 75.9679 175.397 75.7039 175.889C75.4399 176.381 75.3079 176.918 75.3079 177.5C75.3079 178.082 75.4399 178.619 75.7039 179.111C75.9739 179.597 76.3339 179.987 76.7839 180.281C77.2399 180.575 77.7439 180.722 78.2959 180.722C78.7399 180.722 79.1569 180.62 79.5469 180.416C79.9369 180.212 80.2669 179.948 80.5369 179.624ZM87.3134 182.234C86.4854 182.234 85.7294 182.021 85.0454 181.595C84.3674 181.169 83.8244 180.599 83.4164 179.885C83.0144 179.165 82.8134 178.37 82.8134 177.5C82.8134 176.84 82.9304 176.225 83.1644 175.655C83.3984 175.079 83.7194 174.575 84.1274 174.143C84.5414 173.705 85.0214 173.363 85.5674 173.117C86.1134 172.871 86.6954 172.748 87.3134 172.748C88.1414 172.748 88.8944 172.961 89.5724 173.387C90.2564 173.813 90.7994 174.386 91.2014 175.106C91.6094 175.826 91.8134 176.624 91.8134 177.5C91.8134 178.154 91.6964 178.766 91.4624 179.336C91.2284 179.906 90.9044 180.41 90.4904 180.848C90.0824 181.28 89.6054 181.619 89.0594 181.865C88.5194 182.111 87.9374 182.234 87.3134 182.234ZM87.3134 180.722C87.8774 180.722 88.3844 180.575 88.8344 180.281C89.2904 179.981 89.6474 179.588 89.9054 179.102C90.1694 178.61 90.3014 178.076 90.3014 177.5C90.3014 176.912 90.1664 176.372 89.8964 175.88C89.6324 175.388 89.2754 174.995 88.8254 174.701C88.3754 174.407 87.8714 174.26 87.3134 174.26C86.7494 174.26 86.2424 174.41 85.7924 174.71C85.3424 175.004 84.9854 175.397 84.7214 175.889C84.4574 176.381 84.3254 176.918 84.3254 177.5C84.3254 178.1 84.4604 178.646 84.7304 179.138C85.0004 179.624 85.3634 180.011 85.8194 180.299C86.2754 180.581 86.7734 180.722 87.3134 180.722ZM97.5784 182H95.6434L92.3584 172.982H93.9694L96.6064 180.245L99.2434 172.982H100.854L97.5784 182ZM105.911 182.234C105.083 182.234 104.327 182.021 103.643 181.595C102.965 181.169 102.422 180.599 102.014 179.885C101.612 179.165 101.411 178.37 101.411 177.5C101.411 176.84 101.528 176.225 101.762 175.655C101.996 175.079 102.317 174.575 102.725 174.143C103.139 173.705 103.619 173.363 104.165 173.117C104.711 172.871 105.293 172.748 105.911 172.748C106.589 172.748 107.21 172.886 107.774 173.162C108.344 173.432 108.83 173.81 109.232 174.296C109.64 174.782 109.943 175.346 110.141 175.988C110.345 176.63 110.42 177.317 110.366 178.049H103.022C103.094 178.559 103.262 179.015 103.526 179.417C103.79 179.813 104.126 180.128 104.534 180.362C104.948 180.596 105.407 180.716 105.911 180.722C106.451 180.722 106.94 180.584 107.378 180.308C107.816 180.026 108.17 179.642 108.44 179.156L109.979 179.516C109.619 180.314 109.076 180.968 108.35 181.478C107.624 181.982 106.811 182.234 105.911 182.234ZM102.977 176.861H108.845C108.797 176.357 108.635 175.898 108.359 175.484C108.083 175.064 107.732 174.728 107.306 174.476C106.88 174.224 106.415 174.098 105.911 174.098C105.407 174.098 104.945 174.221 104.525 174.467C104.105 174.713 103.757 175.046 103.481 175.466C103.211 175.88 103.043 176.345 102.977 176.861ZM111.883 182V173H113.395V174.125C113.713 173.705 114.115 173.372 114.601 173.126C115.087 172.874 115.615 172.748 116.185 172.748C116.533 172.748 116.869 172.793 117.193 172.883L116.581 174.395C116.335 174.317 116.095 174.278 115.861 174.278C115.411 174.278 114.997 174.389 114.619 174.611C114.247 174.827 113.95 175.121 113.728 175.493C113.506 175.865 113.395 176.279 113.395 176.735V182H111.883ZM127.443 174.512H125.4L125.391 182H123.879L123.888 174.512H122.34V173H123.888L123.879 170.174H125.391L125.4 173H127.443V174.512ZM137.013 176.402V182H135.501V176.735C135.501 176.279 135.39 175.865 135.168 175.493C134.946 175.121 134.649 174.827 134.277 174.611C133.905 174.389 133.491 174.278 133.035 174.278C132.585 174.278 132.171 174.389 131.793 174.611C131.421 174.827 131.124 175.121 130.902 175.493C130.68 175.865 130.569 176.279 130.569 176.735V182H129.057V168.5H130.569V174.125C130.887 173.705 131.289 173.372 131.775 173.126C132.261 172.874 132.789 172.748 133.359 172.748C134.031 172.748 134.643 172.913 135.195 173.243C135.753 173.567 136.194 174.005 136.518 174.557C136.848 175.109 137.013 175.724 137.013 176.402ZM142.597 182.234C141.769 182.234 141.013 182.021 140.329 181.595C139.651 181.169 139.108 180.599 138.7 179.885C138.298 179.165 138.097 178.37 138.097 177.5C138.097 176.84 138.214 176.225 138.448 175.655C138.682 175.079 139.003 174.575 139.411 174.143C139.825 173.705 140.305 173.363 140.851 173.117C141.397 172.871 141.979 172.748 142.597 172.748C143.275 172.748 143.896 172.886 144.46 173.162C145.03 173.432 145.516 173.81 145.918 174.296C146.326 174.782 146.629 175.346 146.827 175.988C147.031 176.63 147.106 177.317 147.052 178.049H139.708C139.78 178.559 139.948 179.015 140.212 179.417C140.476 179.813 140.812 180.128 141.22 180.362C141.634 180.596 142.093 180.716 142.597 180.722C143.137 180.722 143.626 180.584 144.064 180.308C144.502 180.026 144.856 179.642 145.126 179.156L146.665 179.516C146.305 180.314 145.762 180.968 145.036 181.478C144.31 181.982 143.497 182.234 142.597 182.234ZM139.663 176.861H145.531C145.483 176.357 145.321 175.898 145.045 175.484C144.769 175.064 144.418 174.728 143.992 174.476C143.566 174.224 143.101 174.098 142.597 174.098C142.093 174.098 141.631 174.221 141.211 174.467C140.791 174.713 140.443 175.046 140.167 175.466C139.897 175.88 139.729 176.345 139.663 176.861ZM157.678 174.512H155.635L155.626 182H154.114L154.123 174.512H152.575V173H154.123L154.114 170.174H155.626L155.635 173H157.678V174.512ZM159.291 182V173H160.803V174.125C161.121 173.705 161.523 173.372 162.009 173.126C162.495 172.874 163.023 172.748 163.593 172.748C163.941 172.748 164.277 172.793 164.601 172.883L163.989 174.395C163.743 174.317 163.503 174.278 163.269 174.278C162.819 174.278 162.405 174.389 162.027 174.611C161.655 174.827 161.358 175.121 161.136 175.493C160.914 175.865 160.803 176.279 160.803 176.735V182H159.291ZM165.329 178.58V173H166.841V178.247C166.841 178.703 166.952 179.117 167.174 179.489C167.396 179.861 167.693 180.158 168.065 180.38C168.443 180.596 168.857 180.704 169.307 180.704C169.763 180.704 170.174 180.596 170.54 180.38C170.912 180.158 171.209 179.861 171.431 179.489C171.653 179.117 171.764 178.703 171.764 178.247V173H173.276L173.285 182H171.773L171.764 180.857C171.446 181.277 171.044 181.613 170.558 181.865C170.072 182.111 169.547 182.234 168.983 182.234C168.311 182.234 167.696 182.072 167.138 181.748C166.586 181.418 166.145 180.977 165.815 180.425C165.491 179.873 165.329 179.258 165.329 178.58ZM178.966 182.234C178.138 182.234 177.382 182.021 176.698 181.595C176.02 181.169 175.477 180.599 175.069 179.885C174.667 179.165 174.466 178.37 174.466 177.5C174.466 176.84 174.583 176.225 174.817 175.655C175.051 175.079 175.372 174.575 175.78 174.143C176.194 173.705 176.674 173.363 177.22 173.117C177.766 172.871 178.348 172.748 178.966 172.748C179.644 172.748 180.265 172.886 180.829 173.162C181.399 173.432 181.885 173.81 182.287 174.296C182.695 174.782 182.998 175.346 183.196 175.988C183.4 176.63 183.475 177.317 183.421 178.049H176.077C176.149 178.559 176.317 179.015 176.581 179.417C176.845 179.813 177.181 180.128 177.589 180.362C178.003 180.596 178.462 180.716 178.966 180.722C179.506 180.722 179.995 180.584 180.433 180.308C180.871 180.026 181.225 179.642 181.495 179.156L183.034 179.516C182.674 180.314 182.131 180.968 181.405 181.478C180.679 181.982 179.866 182.234 178.966 182.234ZM176.032 176.861H181.9C181.852 176.357 181.69 175.898 181.414 175.484C181.138 175.064 180.787 174.728 180.361 174.476C179.935 174.224 179.47 174.098 178.966 174.098C178.462 174.098 178 174.221 177.58 174.467C177.16 174.713 176.812 175.046 176.536 175.466C176.266 175.88 176.098 176.345 176.032 176.861ZM193.39 182H191.86L188.845 173H190.321L192.643 179.867L194.938 173H196.495L198.799 179.867L201.094 173H202.588L199.573 182H198.034L195.703 175.07L193.39 182ZM207.636 182.234C206.808 182.234 206.052 182.021 205.368 181.595C204.69 181.169 204.147 180.599 203.739 179.885C203.337 179.165 203.136 178.37 203.136 177.5C203.136 176.84 203.253 176.225 203.487 175.655C203.721 175.079 204.042 174.575 204.45 174.143C204.864 173.705 205.344 173.363 205.89 173.117C206.436 172.871 207.018 172.748 207.636 172.748C208.464 172.748 209.217 172.961 209.895 173.387C210.579 173.813 211.122 174.386 211.524 175.106C211.932 175.826 212.136 176.624 212.136 177.5C212.136 178.154 212.019 178.766 211.785 179.336C211.551 179.906 211.227 180.41 210.813 180.848C210.405 181.28 209.928 181.619 209.382 181.865C208.842 182.111 208.26 182.234 207.636 182.234ZM207.636 180.722C208.2 180.722 208.707 180.575 209.157 180.281C209.613 179.981 209.97 179.588 210.228 179.102C210.492 178.61 210.624 178.076 210.624 177.5C210.624 176.912 210.489 176.372 210.219 175.88C209.955 175.388 209.598 174.995 209.148 174.701C208.698 174.407 208.194 174.26 207.636 174.26C207.072 174.26 206.565 174.41 206.115 174.71C205.665 175.004 205.308 175.397 205.044 175.889C204.78 176.381 204.648 176.918 204.648 177.5C204.648 178.1 204.783 178.646 205.053 179.138C205.323 179.624 205.686 180.011 206.142 180.299C206.598 180.581 207.096 180.722 207.636 180.722ZM213.625 182V173H215.137V174.125C215.455 173.705 215.857 173.372 216.343 173.126C216.829 172.874 217.357 172.748 217.927 172.748C218.275 172.748 218.611 172.793 218.935 172.883L218.323 174.395C218.077 174.317 217.837 174.278 217.603 174.278C217.153 174.278 216.739 174.389 216.361 174.611C215.989 174.827 215.692 175.121 215.47 175.493C215.248 175.865 215.137 176.279 215.137 176.735V182H213.625ZM224.861 174.512H222.818L222.809 182H221.297L221.306 174.512H219.758V173H221.306L221.297 170.174H222.809L222.818 173H224.861V174.512ZM234.431 176.402V182H232.919V176.735C232.919 176.279 232.808 175.865 232.586 175.493C232.364 175.121 232.067 174.827 231.695 174.611C231.323 174.389 230.909 174.278 230.453 174.278C230.003 174.278 229.589 174.389 229.211 174.611C228.839 174.827 228.542 175.121 228.32 175.493C228.098 175.865 227.987 176.279 227.987 176.735V182H226.475V168.5H227.987V174.125C228.305 173.705 228.707 173.372 229.193 173.126C229.679 172.874 230.207 172.748 230.777 172.748C231.449 172.748 232.061 172.913 232.613 173.243C233.171 173.567 233.612 174.005 233.936 174.557C234.266 175.109 234.431 175.724 234.431 176.402ZM244.515 182.234C243.687 182.234 242.931 182.021 242.247 181.595C241.569 181.169 241.026 180.599 240.618 179.885C240.216 179.165 240.015 178.37 240.015 177.5C240.015 176.84 240.132 176.225 240.366 175.655C240.6 175.079 240.921 174.575 241.329 174.143C241.743 173.705 242.223 173.363 242.769 173.117C243.315 172.871 243.897 172.748 244.515 172.748C245.343 172.748 246.096 172.961 246.774 173.387C247.458 173.813 248.001 174.386 248.403 175.106C248.811 175.826 249.015 176.624 249.015 177.5C249.015 178.154 248.898 178.766 248.664 179.336C248.43 179.906 248.106 180.41 247.692 180.848C247.284 181.28 246.807 181.619 246.261 181.865C245.721 182.111 245.139 182.234 244.515 182.234ZM244.515 180.722C245.079 180.722 245.586 180.575 246.036 180.281C246.492 179.981 246.849 179.588 247.107 179.102C247.371 178.61 247.503 178.076 247.503 177.5C247.503 176.912 247.368 176.372 247.098 175.88C246.834 175.388 246.477 174.995 246.027 174.701C245.577 174.407 245.073 174.26 244.515 174.26C243.951 174.26 243.444 174.41 242.994 174.71C242.544 175.004 242.187 175.397 241.923 175.889C241.659 176.381 241.527 176.918 241.527 177.5C241.527 178.1 241.662 178.646 241.932 179.138C242.202 179.624 242.565 180.011 243.021 180.299C243.477 180.581 243.975 180.722 244.515 180.722ZM252.67 170.777V173H255.307V174.512H252.67V182H251.158V174.512H249.997V173H251.158V170.777C251.158 170.315 251.269 169.898 251.491 169.526C251.719 169.148 252.022 168.848 252.4 168.626C252.784 168.398 253.204 168.284 253.66 168.284C253.996 168.284 254.323 168.353 254.641 168.491C254.959 168.623 255.241 168.821 255.487 169.085L254.407 170.156C254.323 170.042 254.212 169.955 254.074 169.895C253.942 169.829 253.804 169.796 253.66 169.796C253.39 169.796 253.156 169.892 252.958 170.084C252.766 170.276 252.67 170.507 252.67 170.777ZM267.268 173H268.87L263.947 186.5H262.345L263.974 182L260.743 173H262.399L264.73 179.921L267.268 173ZM273.993 182.234C273.165 182.234 272.409 182.021 271.725 181.595C271.047 181.169 270.504 180.599 270.096 179.885C269.694 179.165 269.493 178.37 269.493 177.5C269.493 176.84 269.61 176.225 269.844 175.655C270.078 175.079 270.399 174.575 270.807 174.143C271.221 173.705 271.701 173.363 272.247 173.117C272.793 172.871 273.375 172.748 273.993 172.748C274.821 172.748 275.574 172.961 276.252 173.387C276.936 173.813 277.479 174.386 277.881 175.106C278.289 175.826 278.493 176.624 278.493 177.5C278.493 178.154 278.376 178.766 278.142 179.336C277.908 179.906 277.584 180.41 277.17 180.848C276.762 181.28 276.285 181.619 275.739 181.865C275.199 182.111 274.617 182.234 273.993 182.234ZM273.993 180.722C274.557 180.722 275.064 180.575 275.514 180.281C275.97 179.981 276.327 179.588 276.585 179.102C276.849 178.61 276.981 178.076 276.981 177.5C276.981 176.912 276.846 176.372 276.576 175.88C276.312 175.388 275.955 174.995 275.505 174.701C275.055 174.407 274.551 174.26 273.993 174.26C273.429 174.26 272.922 174.41 272.472 174.71C272.022 175.004 271.665 175.397 271.401 175.889C271.137 176.381 271.005 176.918 271.005 177.5C271.005 178.1 271.14 178.646 271.41 179.138C271.68 179.624 272.043 180.011 272.499 180.299C272.955 180.581 273.453 180.722 273.993 180.722ZM279.499 178.58V173H281.011V178.247C281.011 178.703 281.122 179.117 281.344 179.489C281.566 179.861 281.863 180.158 282.235 180.38C282.613 180.596 283.027 180.704 283.477 180.704C283.933 180.704 284.344 180.596 284.71 180.38C285.082 180.158 285.379 179.861 285.601 179.489C285.823 179.117 285.934 178.703 285.934 178.247V173H287.446L287.455 182H285.943L285.934 180.857C285.616 181.277 285.214 181.613 284.728 181.865C284.242 182.111 283.717 182.234 283.153 182.234C282.481 182.234 281.866 182.072 281.308 181.748C280.756 181.418 280.315 180.977 279.985 180.425C279.661 179.873 279.499 179.258 279.499 178.58ZM289.264 182V173H290.776V174.125C291.094 173.705 291.496 173.372 291.982 173.126C292.468 172.874 292.996 172.748 293.566 172.748C293.914 172.748 294.25 172.793 294.574 172.883L293.962 174.395C293.716 174.317 293.476 174.278 293.242 174.278C292.792 174.278 292.378 174.389 292 174.611C291.628 174.827 291.331 175.121 291.109 175.493C290.887 175.865 290.776 176.279 290.776 176.735V182H289.264ZM301.674 186.5H300.162V173H301.674V174.539C301.98 174.011 302.388 173.585 302.898 173.261C303.408 172.931 304.014 172.766 304.716 172.766C305.37 172.766 305.982 172.889 306.552 173.135C307.128 173.381 307.632 173.723 308.064 174.161C308.496 174.593 308.835 175.094 309.081 175.664C309.327 176.234 309.45 176.846 309.45 177.5C309.45 178.154 309.327 178.769 309.081 179.345C308.835 179.921 308.496 180.428 308.064 180.866C307.632 181.298 307.128 181.637 306.552 181.883C305.982 182.129 305.37 182.252 304.716 182.252C304.014 182.252 303.408 182.09 302.898 181.766C302.388 181.436 301.98 181.007 301.674 180.479V186.5ZM304.698 174.233C304.116 174.233 303.606 174.38 303.168 174.674C302.73 174.968 302.391 175.361 302.151 175.853C301.917 176.345 301.8 176.894 301.8 177.5C301.8 178.1 301.917 178.649 302.151 179.147C302.391 179.645 302.727 180.041 303.159 180.335C303.597 180.629 304.11 180.776 304.698 180.776C305.28 180.776 305.814 180.632 306.3 180.344C306.786 180.05 307.176 179.657 307.47 179.165C307.764 178.667 307.911 178.112 307.911 177.5C307.911 176.9 307.767 176.354 307.479 175.862C307.191 175.364 306.804 174.968 306.318 174.674C305.832 174.38 305.292 174.233 304.698 174.233ZM310.955 182V173H312.467V174.125C312.785 173.705 313.187 173.372 313.673 173.126C314.159 172.874 314.687 172.748 315.257 172.748C315.605 172.748 315.941 172.793 316.265 172.883L315.653 174.395C315.407 174.317 315.167 174.278 314.933 174.278C314.483 174.278 314.069 174.389 313.691 174.611C313.319 174.827 313.022 175.121 312.8 175.493C312.578 175.865 312.467 176.279 312.467 176.735V182H310.955ZM320.874 182.234C320.046 182.234 319.29 182.021 318.606 181.595C317.928 181.169 317.385 180.599 316.977 179.885C316.575 179.165 316.374 178.37 316.374 177.5C316.374 176.84 316.491 176.225 316.725 175.655C316.959 175.079 317.28 174.575 317.688 174.143C318.102 173.705 318.582 173.363 319.128 173.117C319.674 172.871 320.256 172.748 320.874 172.748C321.702 172.748 322.455 172.961 323.133 173.387C323.817 173.813 324.36 174.386 324.762 175.106C325.17 175.826 325.374 176.624 325.374 177.5C325.374 178.154 325.257 178.766 325.023 179.336C324.789 179.906 324.465 180.41 324.051 180.848C323.643 181.28 323.166 181.619 322.62 181.865C322.08 182.111 321.498 182.234 320.874 182.234ZM320.874 180.722C321.438 180.722 321.945 180.575 322.395 180.281C322.851 179.981 323.208 179.588 323.466 179.102C323.73 178.61 323.862 178.076 323.862 177.5C323.862 176.912 323.727 176.372 323.457 175.88C323.193 175.388 322.836 174.995 322.386 174.701C321.936 174.407 321.432 174.26 320.874 174.26C320.31 174.26 319.803 174.41 319.353 174.71C318.903 175.004 318.546 175.397 318.282 175.889C318.018 176.381 317.886 176.918 317.886 177.5C317.886 178.1 318.021 178.646 318.291 179.138C318.561 179.624 318.924 180.011 319.38 180.299C319.836 180.581 320.334 180.722 320.874 180.722ZM328.375 186.5H326.863V173H328.375V174.539C328.681 174.011 329.089 173.585 329.599 173.261C330.109 172.931 330.715 172.766 331.417 172.766C332.071 172.766 332.683 172.889 333.253 173.135C333.829 173.381 334.333 173.723 334.765 174.161C335.197 174.593 335.536 175.094 335.782 175.664C336.028 176.234 336.151 176.846 336.151 177.5C336.151 178.154 336.028 178.769 335.782 179.345C335.536 179.921 335.197 180.428 334.765 180.866C334.333 181.298 333.829 181.637 333.253 181.883C332.683 182.129 332.071 182.252 331.417 182.252C330.715 182.252 330.109 182.09 329.599 181.766C329.089 181.436 328.681 181.007 328.375 180.479V186.5ZM331.399 174.233C330.817 174.233 330.307 174.38 329.869 174.674C329.431 174.968 329.092 175.361 328.852 175.853C328.618 176.345 328.501 176.894 328.501 177.5C328.501 178.1 328.618 178.649 328.852 179.147C329.092 179.645 329.428 180.041 329.86 180.335C330.298 180.629 330.811 180.776 331.399 180.776C331.981 180.776 332.515 180.632 333.001 180.344C333.487 180.05 333.877 179.657 334.171 179.165C334.465 178.667 334.612 178.112 334.612 177.5C334.612 176.9 334.468 176.354 334.18 175.862C333.892 175.364 333.505 174.968 333.019 174.674C332.533 174.38 331.993 174.233 331.399 174.233ZM341.563 182.234C340.735 182.234 339.979 182.021 339.295 181.595C338.617 181.169 338.074 180.599 337.666 179.885C337.264 179.165 337.063 178.37 337.063 177.5C337.063 176.84 337.18 176.225 337.414 175.655C337.648 175.079 337.969 174.575 338.377 174.143C338.791 173.705 339.271 173.363 339.817 173.117C340.363 172.871 340.945 172.748 341.563 172.748C342.241 172.748 342.862 172.886 343.426 173.162C343.996 173.432 344.482 173.81 344.884 174.296C345.292 174.782 345.595 175.346 345.793 175.988C345.997 176.63 346.072 177.317 346.018 178.049H338.674C338.746 178.559 338.914 179.015 339.178 179.417C339.442 179.813 339.778 180.128 340.186 180.362C340.6 180.596 341.059 180.716 341.563 180.722C342.103 180.722 342.592 180.584 343.03 180.308C343.468 180.026 343.822 179.642 344.092 179.156L345.631 179.516C345.271 180.314 344.728 180.968 344.002 181.478C343.276 181.982 342.463 182.234 341.563 182.234ZM338.629 176.861H344.497C344.449 176.357 344.287 175.898 344.011 175.484C343.735 175.064 343.384 174.728 342.958 174.476C342.532 174.224 342.067 174.098 341.563 174.098C341.059 174.098 340.597 174.221 340.177 174.467C339.757 174.713 339.409 175.046 339.133 175.466C338.863 175.88 338.695 176.345 338.629 176.861ZM347.535 182V173H349.047V174.125C349.365 173.705 349.767 173.372 350.253 173.126C350.739 172.874 351.267 172.748 351.837 172.748C352.185 172.748 352.521 172.793 352.845 172.883L352.233 174.395C351.987 174.317 351.747 174.278 351.513 174.278C351.063 174.278 350.649 174.389 350.271 174.611C349.899 174.827 349.602 175.121 349.38 175.493C349.158 175.865 349.047 176.279 349.047 176.735V182H347.535ZM358.771 174.512H356.728L356.719 182H355.207L355.216 174.512H353.668V173H355.216L355.207 170.174H356.719L356.728 173H358.771V174.512ZM366.339 173H367.941L363.018 186.5H361.416L363.045 182L359.814 173H361.47L363.801 179.921L366.339 173ZM378.065 182H376.535L373.52 173H374.996L377.318 179.867L379.613 173H381.17L383.474 179.867L385.769 173H387.263L384.248 182H382.709L380.378 175.07L378.065 182ZM388.721 173H390.233V182H388.721V173ZM389.495 171.533C389.255 171.533 389.054 171.455 388.892 171.299C388.73 171.143 388.649 170.948 388.649 170.714C388.649 170.48 388.73 170.285 388.892 170.129C389.054 169.973 389.252 169.895 389.486 169.895C389.72 169.895 389.918 169.973 390.08 170.129C390.242 170.285 390.323 170.48 390.323 170.714C390.323 170.948 390.242 171.143 390.08 171.299C389.924 171.455 389.729 171.533 389.495 171.533ZM397.056 174.512H395.013L395.004 182H393.492L393.501 174.512H391.953V173H393.501L393.492 170.174H395.004L395.013 173H397.056V174.512ZM406.626 176.402V182H405.114V176.735C405.114 176.279 405.003 175.865 404.781 175.493C404.559 175.121 404.262 174.827 403.89 174.611C403.518 174.389 403.104 174.278 402.648 174.278C402.198 174.278 401.784 174.389 401.406 174.611C401.034 174.827 400.737 175.121 400.515 175.493C400.293 175.865 400.182 176.279 400.182 176.735V182H398.67V168.5H400.182V174.125C400.5 173.705 400.902 173.372 401.388 173.126C401.874 172.874 402.402 172.748 402.972 172.748C403.644 172.748 404.256 172.913 404.808 173.243C405.366 173.567 405.807 174.005 406.131 174.557C406.461 175.109 406.626 175.724 406.626 176.402ZM416.71 182.234C415.882 182.234 415.126 182.021 414.442 181.595C413.764 181.169 413.221 180.599 412.813 179.885C412.411 179.165 412.21 178.37 412.21 177.5C412.21 176.84 412.327 176.225 412.561 175.655C412.795 175.079 413.116 174.575 413.524 174.143C413.938 173.705 414.418 173.363 414.964 173.117C415.51 172.871 416.092 172.748 416.71 172.748C417.538 172.748 418.291 172.961 418.969 173.387C419.653 173.813 420.196 174.386 420.598 175.106C421.006 175.826 421.21 176.624 421.21 177.5C421.21 178.154 421.093 178.766 420.859 179.336C420.625 179.906 420.301 180.41 419.887 180.848C419.479 181.28 419.002 181.619 418.456 181.865C417.916 182.111 417.334 182.234 416.71 182.234ZM416.71 180.722C417.274 180.722 417.781 180.575 418.231 180.281C418.687 179.981 419.044 179.588 419.302 179.102C419.566 178.61 419.698 178.076 419.698 177.5C419.698 176.912 419.563 176.372 419.293 175.88C419.029 175.388 418.672 174.995 418.222 174.701C417.772 174.407 417.268 174.26 416.71 174.26C416.146 174.26 415.639 174.41 415.189 174.71C414.739 175.004 414.382 175.397 414.118 175.889C413.854 176.381 413.722 176.918 413.722 177.5C413.722 178.1 413.857 178.646 414.127 179.138C414.397 179.624 414.76 180.011 415.216 180.299C415.672 180.581 416.17 180.722 416.71 180.722ZM422.216 178.58V173H423.728V178.247C423.728 178.703 423.839 179.117 424.061 179.489C424.283 179.861 424.58 180.158 424.952 180.38C425.33 180.596 425.744 180.704 426.194 180.704C426.65 180.704 427.061 180.596 427.427 180.38C427.799 180.158 428.096 179.861 428.318 179.489C428.54 179.117 428.651 178.703 428.651 178.247V173H430.163L430.172 182H428.66L428.651 180.857C428.333 181.277 427.931 181.613 427.445 181.865C426.959 182.111 426.434 182.234 425.87 182.234C425.198 182.234 424.583 182.072 424.025 181.748C423.473 181.418 423.032 180.977 422.702 180.425C422.378 179.873 422.216 179.258 422.216 178.58ZM431.98 182V173H433.492V174.125C433.81 173.705 434.212 173.372 434.698 173.126C435.184 172.874 435.712 172.748 436.282 172.748C436.63 172.748 436.966 172.793 437.29 172.883L436.678 174.395C436.432 174.317 436.192 174.278 435.958 174.278C435.508 174.278 435.094 174.389 434.716 174.611C434.344 174.827 434.047 175.121 433.825 175.493C433.603 175.865 433.492 176.279 433.492 176.735V182H431.98ZM55.04 209.234C54.212 209.234 53.456 209.021 52.772 208.595C52.094 208.169 51.551 207.599 51.143 206.885C50.741 206.165 50.54 205.37 50.54 204.5C50.54 203.84 50.657 203.225 50.891 202.655C51.125 202.079 51.446 201.575 51.854 201.143C52.268 200.705 52.748 200.363 53.294 200.117C53.84 199.871 54.422 199.748 55.04 199.748C55.718 199.748 56.339 199.886 56.903 200.162C57.473 200.432 57.959 200.81 58.361 201.296C58.769 201.782 59.072 202.346 59.27 202.988C59.474 203.63 59.549 204.317 59.495 205.049H52.151C52.223 205.559 52.391 206.015 52.655 206.417C52.919 206.813 53.255 207.128 53.663 207.362C54.077 207.596 54.536 207.716 55.04 207.722C55.58 207.722 56.069 207.584 56.507 207.308C56.945 207.026 57.299 206.642 57.569 206.156L59.108 206.516C58.748 207.314 58.205 207.968 57.479 208.478C56.753 208.982 55.94 209.234 55.04 209.234ZM52.106 203.861H57.974C57.926 203.357 57.764 202.898 57.488 202.484C57.212 202.064 56.861 201.728 56.435 201.476C56.009 201.224 55.544 201.098 55.04 201.098C54.536 201.098 54.074 201.221 53.654 201.467C53.234 201.713 52.886 202.046 52.61 202.466C52.34 202.88 52.172 203.345 52.106 203.861ZM59.9837 209L63.2777 204.482L60.0017 199.982H61.8647L64.2137 203.186L66.5537 199.982H68.4167L65.1407 204.482L68.4347 209H66.5717L64.2137 205.76L61.8467 209H59.9837ZM71.5061 213.5H69.9941V200H71.5061V201.539C71.8121 201.011 72.2201 200.585 72.7301 200.261C73.2401 199.931 73.8461 199.766 74.5481 199.766C75.2021 199.766 75.8141 199.889 76.3841 200.135C76.9601 200.381 77.4641 200.723 77.8961 201.161C78.3281 201.593 78.6671 202.094 78.9131 202.664C79.1591 203.234 79.2821 203.846 79.2821 204.5C79.2821 205.154 79.1591 205.769 78.9131 206.345C78.6671 206.921 78.3281 207.428 77.8961 207.866C77.4641 208.298 76.9601 208.637 76.3841 208.883C75.8141 209.129 75.2021 209.252 74.5481 209.252C73.8461 209.252 73.2401 209.09 72.7301 208.766C72.2201 208.436 71.8121 208.007 71.5061 207.479V213.5ZM74.5301 201.233C73.9481 201.233 73.4381 201.38 73.0001 201.674C72.5621 201.968 72.2231 202.361 71.9831 202.853C71.7491 203.345 71.6321 203.894 71.6321 204.5C71.6321 205.1 71.7491 205.649 71.9831 206.147C72.2231 206.645 72.5591 207.041 72.9911 207.335C73.4291 207.629 73.9421 207.776 74.5301 207.776C75.1121 207.776 75.6461 207.632 76.1321 207.344C76.6181 207.05 77.0081 206.657 77.3021 206.165C77.5961 205.667 77.7431 205.112 77.7431 204.5C77.7431 203.9 77.5991 203.354 77.3111 202.862C77.0231 202.364 76.6361 201.968 76.1501 201.674C75.6641 201.38 75.1241 201.233 74.5301 201.233ZM84.6943 209.234C83.8663 209.234 83.1103 209.021 82.4263 208.595C81.7483 208.169 81.2053 207.599 80.7973 206.885C80.3953 206.165 80.1943 205.37 80.1943 204.5C80.1943 203.84 80.3113 203.225 80.5453 202.655C80.7793 202.079 81.1003 201.575 81.5083 201.143C81.9223 200.705 82.4023 200.363 82.9483 200.117C83.4943 199.871 84.0763 199.748 84.6943 199.748C85.3723 199.748 85.9933 199.886 86.5573 200.162C87.1273 200.432 87.6133 200.81 88.0153 201.296C88.4233 201.782 88.7263 202.346 88.9243 202.988C89.1283 203.63 89.2033 204.317 89.1493 205.049H81.8053C81.8773 205.559 82.0453 206.015 82.3093 206.417C82.5733 206.813 82.9093 207.128 83.3173 207.362C83.7313 207.596 84.1903 207.716 84.6943 207.722C85.2343 207.722 85.7233 207.584 86.1613 207.308C86.5993 207.026 86.9533 206.642 87.2233 206.156L88.7623 206.516C88.4023 207.314 87.8593 207.968 87.1333 208.478C86.4073 208.982 85.5943 209.234 84.6943 209.234ZM81.7603 203.861H87.6283C87.5803 203.357 87.4183 202.898 87.1423 202.484C86.8663 202.064 86.5153 201.728 86.0893 201.476C85.6633 201.224 85.1983 201.098 84.6943 201.098C84.1903 201.098 83.7283 201.221 83.3083 201.467C82.8883 201.713 82.5403 202.046 82.2643 202.466C81.9943 202.88 81.8263 203.345 81.7603 203.861ZM90.6659 209V200H92.1779V201.125C92.4959 200.705 92.8979 200.372 93.3839 200.126C93.8699 199.874 94.3979 199.748 94.9679 199.748C95.3159 199.748 95.6519 199.793 95.9759 199.883L95.3639 201.395C95.1179 201.317 94.8779 201.278 94.6439 201.278C94.1939 201.278 93.7799 201.389 93.4019 201.611C93.0299 201.827 92.7329 202.121 92.5109 202.493C92.2889 202.865 92.1779 203.279 92.1779 203.735V209H90.6659ZM101.902 201.512H99.8592L99.8502 209H98.3382L98.3472 201.512H96.7992V200H98.3472L98.3382 197.174H99.8502L99.8592 200H101.902V201.512ZM112.52 209H110.585L107.3 199.982H108.911L111.548 207.245L114.185 199.982H115.796L112.52 209ZM124.129 200H125.641V209H124.129L124.066 207.479C123.784 208.001 123.394 208.424 122.896 208.748C122.404 209.072 121.816 209.234 121.132 209.234C120.472 209.234 119.854 209.111 119.278 208.865C118.702 208.613 118.192 208.268 117.748 207.83C117.31 207.386 116.968 206.876 116.722 206.3C116.476 205.724 116.353 205.103 116.353 204.437C116.353 203.795 116.473 203.189 116.713 202.619C116.953 202.049 117.286 201.551 117.712 201.125C118.144 200.693 118.642 200.357 119.206 200.117C119.77 199.871 120.376 199.748 121.024 199.748C121.732 199.748 122.353 199.916 122.887 200.252C123.421 200.582 123.853 201.011 124.183 201.539L124.129 200ZM121.104 207.767C121.699 207.767 122.212 207.623 122.644 207.335C123.082 207.041 123.418 206.645 123.652 206.147C123.892 205.649 124.012 205.1 124.012 204.5C124.012 203.888 123.892 203.336 123.652 202.844C123.412 202.346 123.073 201.953 122.635 201.665C122.203 201.371 121.693 201.224 121.104 201.224C120.511 201.224 119.971 201.371 119.485 201.665C118.999 201.959 118.612 202.355 118.324 202.853C118.042 203.345 117.901 203.894 117.901 204.5C117.901 205.106 118.048 205.658 118.342 206.156C118.636 206.648 119.026 207.041 119.512 207.335C119.998 207.623 120.529 207.767 121.104 207.767ZM127.545 209V195.5H129.057V209H127.545ZM130.859 205.58V200H132.371V205.247C132.371 205.703 132.482 206.117 132.704 206.489C132.926 206.861 133.223 207.158 133.595 207.38C133.973 207.596 134.387 207.704 134.837 207.704C135.293 207.704 135.704 207.596 136.07 207.38C136.442 207.158 136.739 206.861 136.961 206.489C137.183 206.117 137.294 205.703 137.294 205.247V200H138.806L138.815 209H137.303L137.294 207.857C136.976 208.277 136.574 208.613 136.088 208.865C135.602 209.111 135.077 209.234 134.513 209.234C133.841 209.234 133.226 209.072 132.668 208.748C132.116 208.418 131.675 207.977 131.345 207.425C131.021 206.873 130.859 206.258 130.859 205.58ZM147.771 200H149.283V209H147.771L147.708 207.479C147.426 208.001 147.036 208.424 146.538 208.748C146.046 209.072 145.458 209.234 144.774 209.234C144.114 209.234 143.496 209.111 142.92 208.865C142.344 208.613 141.834 208.268 141.39 207.83C140.952 207.386 140.61 206.876 140.364 206.3C140.118 205.724 139.995 205.103 139.995 204.437C139.995 203.795 140.115 203.189 140.355 202.619C140.595 202.049 140.928 201.551 141.354 201.125C141.786 200.693 142.284 200.357 142.848 200.117C143.412 199.871 144.018 199.748 144.666 199.748C145.374 199.748 145.995 199.916 146.529 200.252C147.063 200.582 147.495 201.011 147.825 201.539L147.771 200ZM144.747 207.767C145.341 207.767 145.854 207.623 146.286 207.335C146.724 207.041 147.06 206.645 147.294 206.147C147.534 205.649 147.654 205.1 147.654 204.5C147.654 203.888 147.534 203.336 147.294 202.844C147.054 202.346 146.715 201.953 146.277 201.665C145.845 201.371 145.335 201.224 144.747 201.224C144.153 201.224 143.613 201.371 143.127 201.665C142.641 201.959 142.254 202.355 141.966 202.853C141.684 203.345 141.543 203.894 141.543 204.5C141.543 205.106 141.69 205.658 141.984 206.156C142.278 206.648 142.668 207.041 143.154 207.335C143.64 207.623 144.171 207.767 144.747 207.767ZM155.744 201.512H153.701L153.692 209H152.18L152.189 201.512H150.641V200H152.189L152.18 197.174H153.692L153.701 200H155.744V201.512ZM157.269 200H158.781V209H157.269V200ZM158.043 198.533C157.803 198.533 157.602 198.455 157.44 198.299C157.278 198.143 157.197 197.948 157.197 197.714C157.197 197.48 157.278 197.285 157.44 197.129C157.602 196.973 157.8 196.895 158.034 196.895C158.268 196.895 158.466 196.973 158.628 197.129C158.79 197.285 158.871 197.48 158.871 197.714C158.871 197.948 158.79 198.143 158.628 198.299C158.472 198.455 158.277 198.533 158.043 198.533ZM164.78 209.234C163.952 209.234 163.196 209.021 162.512 208.595C161.834 208.169 161.291 207.599 160.883 206.885C160.481 206.165 160.28 205.37 160.28 204.5C160.28 203.84 160.397 203.225 160.631 202.655C160.865 202.079 161.186 201.575 161.594 201.143C162.008 200.705 162.488 200.363 163.034 200.117C163.58 199.871 164.162 199.748 164.78 199.748C165.608 199.748 166.361 199.961 167.039 200.387C167.723 200.813 168.266 201.386 168.668 202.106C169.076 202.826 169.28 203.624 169.28 204.5C169.28 205.154 169.163 205.766 168.929 206.336C168.695 206.906 168.371 207.41 167.957 207.848C167.549 208.28 167.072 208.619 166.526 208.865C165.986 209.111 165.404 209.234 164.78 209.234ZM164.78 207.722C165.344 207.722 165.851 207.575 166.301 207.281C166.757 206.981 167.114 206.588 167.372 206.102C167.636 205.61 167.768 205.076 167.768 204.5C167.768 203.912 167.633 203.372 167.363 202.88C167.099 202.388 166.742 201.995 166.292 201.701C165.842 201.407 165.338 201.26 164.78 201.26C164.216 201.26 163.709 201.41 163.259 201.71C162.809 202.004 162.452 202.397 162.188 202.889C161.924 203.381 161.792 203.918 161.792 204.5C161.792 205.1 161.927 205.646 162.197 206.138C162.467 206.624 162.83 207.011 163.286 207.299C163.742 207.581 164.24 207.722 164.78 207.722ZM178.725 203.402V209H177.213V203.735C177.213 203.279 177.102 202.865 176.88 202.493C176.658 202.121 176.361 201.827 175.989 201.611C175.617 201.389 175.203 201.278 174.747 201.278C174.297 201.278 173.883 201.389 173.505 201.611C173.133 201.827 172.836 202.121 172.614 202.493C172.392 202.865 172.281 203.279 172.281 203.735V209H170.769V200H172.281V201.125C172.599 200.705 173.001 200.372 173.487 200.126C173.973 199.874 174.501 199.748 175.071 199.748C175.743 199.748 176.355 199.913 176.907 200.243C177.465 200.567 177.906 201.005 178.23 201.557C178.56 202.109 178.725 202.724 178.725 203.402ZM187.595 209.171C187.109 209.153 186.635 209.063 186.173 208.901C185.717 208.733 185.315 208.508 184.967 208.226C184.625 207.938 184.376 207.608 184.22 207.236L185.516 206.678C185.606 206.882 185.768 207.074 186.002 207.254C186.236 207.434 186.506 207.578 186.812 207.686C187.118 207.794 187.427 207.848 187.739 207.848C188.069 207.848 188.378 207.797 188.666 207.695C188.954 207.593 189.188 207.443 189.368 207.245C189.554 207.041 189.647 206.798 189.647 206.516C189.647 206.216 189.545 205.982 189.341 205.814C189.143 205.64 188.891 205.505 188.585 205.409C188.285 205.307 187.979 205.211 187.667 205.121C187.049 204.965 186.497 204.779 186.011 204.563C185.525 204.341 185.141 204.062 184.859 203.726C184.583 203.384 184.445 202.949 184.445 202.421C184.445 201.863 184.598 201.38 184.904 200.972C185.216 200.564 185.624 200.249 186.128 200.027C186.632 199.805 187.172 199.694 187.748 199.694C188.474 199.694 189.137 199.85 189.737 200.162C190.337 200.474 190.784 200.897 191.078 201.431L189.863 202.142C189.761 201.926 189.605 201.737 189.395 201.575C189.185 201.407 188.945 201.275 188.675 201.179C188.405 201.083 188.129 201.032 187.847 201.026C187.499 201.014 187.172 201.059 186.866 201.161C186.566 201.263 186.323 201.419 186.137 201.629C185.957 201.833 185.867 202.088 185.867 202.394C185.867 202.694 185.963 202.922 186.155 203.078C186.353 203.234 186.608 203.36 186.92 203.456C187.238 203.546 187.583 203.651 187.955 203.771C188.501 203.945 189.011 204.146 189.485 204.374C189.959 204.602 190.34 204.887 190.628 205.229C190.922 205.571 191.066 205.994 191.06 206.498C191.06 207.05 190.895 207.533 190.565 207.947C190.235 208.355 189.806 208.667 189.278 208.883C188.756 209.099 188.195 209.195 187.595 209.171ZM196.474 209.234C195.646 209.234 194.89 209.021 194.206 208.595C193.528 208.169 192.985 207.599 192.577 206.885C192.175 206.165 191.974 205.37 191.974 204.5C191.974 203.84 192.091 203.225 192.325 202.655C192.559 202.079 192.88 201.575 193.288 201.143C193.702 200.705 194.182 200.363 194.728 200.117C195.274 199.871 195.856 199.748 196.474 199.748C197.152 199.748 197.773 199.886 198.337 200.162C198.907 200.432 199.393 200.81 199.795 201.296C200.203 201.782 200.506 202.346 200.704 202.988C200.908 203.63 200.983 204.317 200.929 205.049H193.585C193.657 205.559 193.825 206.015 194.089 206.417C194.353 206.813 194.689 207.128 195.097 207.362C195.511 207.596 195.97 207.716 196.474 207.722C197.014 207.722 197.503 207.584 197.941 207.308C198.379 207.026 198.733 206.642 199.003 206.156L200.542 206.516C200.182 207.314 199.639 207.968 198.913 208.478C198.187 208.982 197.374 209.234 196.474 209.234ZM193.54 203.861H199.408C199.36 203.357 199.198 202.898 198.922 202.484C198.646 202.064 198.295 201.728 197.869 201.476C197.443 201.224 196.978 201.098 196.474 201.098C195.97 201.098 195.508 201.221 195.088 201.467C194.668 201.713 194.32 202.046 194.044 202.466C193.774 202.88 193.606 203.345 193.54 203.861ZM202.445 209V200H203.957V201.125C204.275 200.705 204.677 200.372 205.163 200.126C205.649 199.874 206.177 199.748 206.747 199.748C207.095 199.748 207.431 199.793 207.755 199.883L207.143 201.395C206.897 201.317 206.657 201.278 206.423 201.278C205.973 201.278 205.559 201.389 205.181 201.611C204.809 201.827 204.512 202.121 204.29 202.493C204.068 202.865 203.957 203.279 203.957 203.735V209H202.445ZM213.699 209H211.764L208.479 199.982H210.09L212.727 207.245L215.364 199.982H216.975L213.699 209ZM218.441 200H219.953V209H218.441V200ZM219.215 198.533C218.975 198.533 218.774 198.455 218.612 198.299C218.45 198.143 218.369 197.948 218.369 197.714C218.369 197.48 218.45 197.285 218.612 197.129C218.774 196.973 218.972 196.895 219.206 196.895C219.44 196.895 219.638 196.973 219.8 197.129C219.962 197.285 220.043 197.48 220.043 197.714C220.043 197.948 219.962 198.143 219.8 198.299C219.644 198.455 219.449 198.533 219.215 198.533ZM228.193 206.624L229.543 207.353C229.135 207.923 228.616 208.379 227.986 208.721C227.362 209.063 226.684 209.234 225.952 209.234C225.124 209.234 224.368 209.021 223.684 208.595C223.006 208.169 222.463 207.599 222.055 206.885C221.653 206.165 221.452 205.37 221.452 204.5C221.452 203.84 221.569 203.225 221.803 202.655C222.037 202.079 222.358 201.575 222.766 201.143C223.18 200.705 223.66 200.363 224.206 200.117C224.752 199.871 225.334 199.748 225.952 199.748C226.684 199.748 227.362 199.919 227.986 200.261C228.616 200.603 229.135 201.062 229.543 201.638L228.193 202.367C227.905 202.013 227.563 201.74 227.167 201.548C226.771 201.356 226.366 201.26 225.952 201.26C225.394 201.26 224.887 201.41 224.431 201.71C223.981 202.004 223.624 202.397 223.36 202.889C223.096 203.381 222.964 203.918 222.964 204.5C222.964 205.082 223.096 205.619 223.36 206.111C223.63 206.597 223.99 206.987 224.44 207.281C224.896 207.575 225.4 207.722 225.952 207.722C226.396 207.722 226.813 207.62 227.203 207.416C227.593 207.212 227.923 206.948 228.193 206.624ZM234.97 209.234C234.142 209.234 233.386 209.021 232.702 208.595C232.024 208.169 231.481 207.599 231.073 206.885C230.671 206.165 230.47 205.37 230.47 204.5C230.47 203.84 230.587 203.225 230.821 202.655C231.055 202.079 231.376 201.575 231.784 201.143C232.198 200.705 232.678 200.363 233.224 200.117C233.77 199.871 234.352 199.748 234.97 199.748C235.648 199.748 236.269 199.886 236.833 200.162C237.403 200.432 237.889 200.81 238.291 201.296C238.699 201.782 239.002 202.346 239.2 202.988C239.404 203.63 239.479 204.317 239.425 205.049H232.081C232.153 205.559 232.321 206.015 232.585 206.417C232.849 206.813 233.185 207.128 233.593 207.362C234.007 207.596 234.466 207.716 234.97 207.722C235.51 207.722 235.999 207.584 236.437 207.308C236.875 207.026 237.229 206.642 237.499 206.156L239.038 206.516C238.678 207.314 238.135 207.968 237.409 208.478C236.683 208.982 235.87 209.234 234.97 209.234ZM232.036 203.861H237.904C237.856 203.357 237.694 202.898 237.418 202.484C237.142 202.064 236.791 201.728 236.365 201.476C235.939 201.224 235.474 201.098 234.97 201.098C234.466 201.098 234.004 201.221 233.584 201.467C233.164 201.713 232.816 202.046 232.54 202.466C232.27 202.88 232.102 203.345 232.036 203.861ZM243.721 209.171C243.235 209.153 242.761 209.063 242.299 208.901C241.843 208.733 241.441 208.508 241.093 208.226C240.751 207.938 240.502 207.608 240.346 207.236L241.642 206.678C241.732 206.882 241.894 207.074 242.128 207.254C242.362 207.434 242.632 207.578 242.938 207.686C243.244 207.794 243.553 207.848 243.865 207.848C244.195 207.848 244.504 207.797 244.792 207.695C245.08 207.593 245.314 207.443 245.494 207.245C245.68 207.041 245.773 206.798 245.773 206.516C245.773 206.216 245.671 205.982 245.467 205.814C245.269 205.64 245.017 205.505 244.711 205.409C244.411 205.307 244.105 205.211 243.793 205.121C243.175 204.965 242.623 204.779 242.137 204.563C241.651 204.341 241.267 204.062 240.985 203.726C240.709 203.384 240.571 202.949 240.571 202.421C240.571 201.863 240.724 201.38 241.03 200.972C241.342 200.564 241.75 200.249 242.254 200.027C242.758 199.805 243.298 199.694 243.874 199.694C244.6 199.694 245.263 199.85 245.863 200.162C246.463 200.474 246.91 200.897 247.204 201.431L245.989 202.142C245.887 201.926 245.731 201.737 245.521 201.575C245.311 201.407 245.071 201.275 244.801 201.179C244.531 201.083 244.255 201.032 243.973 201.026C243.625 201.014 243.298 201.059 242.992 201.161C242.692 201.263 242.449 201.419 242.263 201.629C242.083 201.833 241.993 202.088 241.993 202.394C241.993 202.694 242.089 202.922 242.281 203.078C242.479 203.234 242.734 203.36 243.046 203.456C243.364 203.546 243.709 203.651 244.081 203.771C244.627 203.945 245.137 204.146 245.611 204.374C246.085 204.602 246.466 204.887 246.754 205.229C247.048 205.571 247.192 205.994 247.186 206.498C247.186 207.05 247.021 207.533 246.691 207.947C246.361 208.355 245.932 208.667 245.404 208.883C244.882 209.099 244.321 209.195 243.721 209.171ZM249.152 209.234C248.924 209.234 248.729 209.153 248.567 208.991C248.411 208.829 248.333 208.631 248.333 208.397C248.333 208.175 248.411 207.983 248.567 207.821C248.729 207.659 248.924 207.578 249.152 207.578C249.386 207.578 249.584 207.659 249.746 207.821C249.908 207.983 249.989 208.175 249.989 208.397C249.989 208.631 249.908 208.829 249.746 208.991C249.584 209.153 249.386 209.234 249.152 209.234Z" fill="#999999"></path><defs><linearGradient id="paint0_linear_104_11417" x1="56.75" y1="136.5" x2="135.75" y2="44.5" gradientUnits="userSpaceOnUse"><stop stop-color="#A685FA"></stop><stop offset="0.323723" stop-color="#A685FA" stop-opacity="0"></stop></linearGradient><linearGradient id="paint1_linear_104_11417" x1="131.75" y1="39.5" x2="56.75" y2="132" gradientUnits="userSpaceOnUse"><stop stop-color="#A685FA"></stop><stop offset="0.576615" stop-color="#A685FA" stop-opacity="0"></stop></linearGradient><linearGradient id="paint2_linear_104_11417" x1="53.25" y1="63.5" x2="121.75" y2="122" gradientUnits="userSpaceOnUse"><stop stop-color="#A685FA"></stop><stop offset="0.323723" stop-color="#A685FA" stop-opacity="0"></stop></linearGradient><linearGradient id="paint3_linear_104_11417" x1="134.25" y1="136" x2="62.25" y2="85" gradientUnits="userSpaceOnUse"><stop stop-color="#A685FA"></stop><stop offset="0.576615" stop-color="#A685FA" stop-opacity="0"></stop></linearGradient></defs></svg>