<svg xmlns="http://www.w3.org/2000/svg" width="414" height="282" viewBox="0 0 414 282" fill="none"><rect x="0.832031" y="0.5" width="412.333" height="281" rx="9.5" fill="#141414"></rect><rect x="0.832031" y="0.5" width="412.333" height="281" rx="9.5" stroke="#262626"></rect><path d="M44.612 62L41.032 48H43.172L45.792 58.27L48.402 48H50.292L52.912 58.27L55.532 48H57.672L54.112 62H51.722L49.352 52.73L46.982 62H44.612ZM68.4813 55.73V62H66.4013V56.24C66.4013 55.7933 66.2913 55.3867 66.0713 55.02C65.8579 54.6533 65.5679 54.3633 65.2013 54.15C64.8413 53.93 64.4346 53.82 63.9813 53.82C63.5413 53.82 63.1379 53.93 62.7713 54.15C62.4046 54.3633 62.1113 54.6533 61.8913 55.02C61.6713 55.3867 61.5613 55.7933 61.5613 56.24V62H59.4813V47H61.5613V53.06C61.9079 52.6467 62.3346 52.32 62.8413 52.08C63.3479 51.84 63.8946 51.72 64.4813 51.72C65.2213 51.72 65.8946 51.9 66.5013 52.26C67.1079 52.62 67.5879 53.1033 67.9413 53.71C68.3013 54.3167 68.4813 54.99 68.4813 55.73ZM78.062 52H80.142V62H78.052L77.972 60.55C77.6787 61.0633 77.282 61.4767 76.782 61.79C76.282 62.1033 75.692 62.26 75.012 62.26C74.2787 62.26 73.5887 62.1233 72.942 61.85C72.2954 61.57 71.7254 61.1833 71.232 60.69C70.7454 60.1967 70.3654 59.63 70.092 58.99C69.8187 58.3433 69.682 57.65 69.682 56.91C69.682 56.1967 69.8154 55.5267 70.082 54.9C70.3487 54.2667 70.7187 53.7133 71.192 53.24C71.6654 52.7667 72.212 52.3967 72.832 52.13C73.4587 51.8567 74.1287 51.72 74.842 51.72C75.5687 51.72 76.2087 51.8867 76.762 52.22C77.322 52.5467 77.7854 52.9667 78.152 53.48L78.062 52ZM74.962 60.25C75.5487 60.25 76.062 60.1067 76.502 59.82C76.942 59.5267 77.282 59.1333 77.522 58.64C77.7687 58.1467 77.892 57.6 77.892 57C77.892 56.3933 77.7687 55.8433 77.522 55.35C77.2754 54.8567 76.932 54.4667 76.492 54.18C76.0587 53.8867 75.5487 53.74 74.962 53.74C74.382 53.74 73.852 53.8867 73.372 54.18C72.892 54.4733 72.512 54.8667 72.232 55.36C71.952 55.8533 71.812 56.4 71.812 57C71.812 57.6067 71.9554 58.1567 72.242 58.65C72.5354 59.1367 72.9187 59.5267 73.392 59.82C73.872 60.1067 74.3954 60.25 74.962 60.25ZM87.4175 54.08H85.3175L85.3075 62H83.2275L83.2375 54.08H81.6475V52H83.2375L83.2275 48.86H85.3075L85.3175 52H87.4175V54.08ZM101.803 47H103.882V62H101.803V60.53C101.476 61.05 101.049 61.47 100.523 61.79C99.9958 62.1033 99.3792 62.26 98.6725 62.26C97.9458 62.26 97.2658 62.1233 96.6325 61.85C95.9992 61.5767 95.4392 61.2 94.9525 60.72C94.4725 60.2333 94.0958 59.6733 93.8225 59.04C93.5492 58.4067 93.4125 57.7267 93.4125 57C93.4125 56.2733 93.5492 55.5933 93.8225 54.96C94.0958 54.32 94.4725 53.76 94.9525 53.28C95.4392 52.7933 95.9992 52.4133 96.6325 52.14C97.2658 51.8667 97.9458 51.73 98.6725 51.73C99.3792 51.73 99.9958 51.89 100.523 52.21C101.049 52.5233 101.476 52.9367 101.803 53.45V47ZM98.6925 60.25C99.2792 60.25 99.7925 60.1067 100.233 59.82C100.673 59.5267 101.013 59.1333 101.253 58.64C101.499 58.1467 101.623 57.6 101.623 57C101.623 56.3933 101.499 55.8433 101.253 55.35C101.006 54.8567 100.663 54.4667 100.223 54.18C99.7892 53.8867 99.2792 53.74 98.6925 53.74C98.1125 53.74 97.5825 53.8867 97.1025 54.18C96.6292 54.4733 96.2492 54.8667 95.9625 55.36C95.6825 55.8533 95.5425 56.4 95.5425 57C95.5425 57.6067 95.6858 58.1567 95.9725 58.65C96.2658 59.1367 96.6492 59.5267 97.1225 59.82C97.6025 60.1067 98.1258 60.25 98.6925 60.25ZM110.541 62.26C109.621 62.26 108.781 62.0233 108.021 61.55C107.268 61.0767 106.665 60.4433 106.211 59.65C105.765 58.85 105.541 57.9667 105.541 57C105.541 56.2667 105.671 55.5833 105.931 54.95C106.191 54.31 106.548 53.75 107.001 53.27C107.461 52.7833 107.995 52.4033 108.601 52.13C109.208 51.8567 109.855 51.72 110.541 51.72C111.461 51.72 112.298 51.9567 113.051 52.43C113.811 52.9033 114.415 53.54 114.861 54.34C115.315 55.14 115.541 56.0267 115.541 57C115.541 57.7267 115.411 58.4067 115.151 59.04C114.891 59.6733 114.531 60.2333 114.071 60.72C113.618 61.2 113.088 61.5767 112.481 61.85C111.881 62.1233 111.235 62.26 110.541 62.26ZM110.541 60.18C111.095 60.18 111.591 60.0333 112.031 59.74C112.471 59.4467 112.818 59.06 113.071 58.58C113.331 58.0933 113.461 57.5667 113.461 57C113.461 56.42 113.328 55.8867 113.061 55.4C112.801 54.9133 112.451 54.5267 112.011 54.24C111.571 53.9467 111.081 53.8 110.541 53.8C109.995 53.8 109.498 53.9467 109.051 54.24C108.611 54.5333 108.261 54.9233 108.001 55.41C107.748 55.8967 107.621 56.4267 107.621 57C107.621 57.5933 107.755 58.13 108.021 58.61C108.288 59.09 108.641 59.4733 109.081 59.76C109.528 60.04 110.015 60.18 110.541 60.18ZM123.668 59.16L125.528 60.17C125.074 60.8033 124.498 61.31 123.798 61.69C123.104 62.07 122.351 62.26 121.538 62.26C120.618 62.26 119.778 62.0233 119.018 61.55C118.264 61.0767 117.661 60.4433 117.208 59.65C116.761 58.85 116.538 57.9667 116.538 57C116.538 56.2667 116.668 55.5833 116.928 54.95C117.188 54.31 117.544 53.75 117.998 53.27C118.458 52.7833 118.991 52.4033 119.598 52.13C120.204 51.8567 120.851 51.72 121.538 51.72C122.351 51.72 123.104 51.91 123.798 52.29C124.498 52.67 125.074 53.18 125.528 53.82L123.668 54.83C123.388 54.4967 123.061 54.2433 122.688 54.07C122.314 53.89 121.931 53.8 121.538 53.8C120.991 53.8 120.494 53.95 120.048 54.25C119.608 54.5433 119.258 54.9333 118.998 55.42C118.744 55.9 118.618 56.4267 118.618 57C118.618 57.5667 118.748 58.0933 119.008 58.58C119.268 59.06 119.618 59.4467 120.058 59.74C120.504 60.0333 120.998 60.18 121.538 60.18C121.951 60.18 122.344 60.0867 122.718 59.9C123.091 59.7133 123.408 59.4667 123.668 59.16ZM126.757 58.25V52H128.837V57.74C128.837 58.1867 128.947 58.5933 129.167 58.96C129.387 59.3267 129.68 59.62 130.047 59.84C130.414 60.0533 130.817 60.16 131.257 60.16C131.704 60.16 132.107 60.0533 132.467 59.84C132.834 59.62 133.124 59.3267 133.337 58.96C133.557 58.5933 133.667 58.1867 133.667 57.74V52H135.747L135.757 62H133.677L133.667 60.92C133.327 61.3333 132.904 61.66 132.397 61.9C131.89 62.14 131.347 62.26 130.767 62.26C130.027 62.26 129.354 62.08 128.747 61.72C128.14 61.36 127.657 60.8767 127.297 60.27C126.937 59.6633 126.757 58.99 126.757 58.25ZM137.763 62V52H139.843V53.06C140.189 52.6467 140.613 52.32 141.113 52.08C141.619 51.84 142.166 51.72 142.753 51.72C143.466 51.72 144.123 51.8933 144.723 52.24C145.323 52.58 145.799 53.0333 146.153 53.6C146.506 53.0333 146.976 52.58 147.563 52.24C148.156 51.8933 148.809 51.72 149.523 51.72C150.263 51.72 150.936 51.9 151.543 52.26C152.149 52.62 152.633 53.1033 152.993 53.71C153.353 54.3167 153.533 54.99 153.533 55.73V62H151.453V56.26C151.453 55.82 151.346 55.4167 151.133 55.05C150.919 54.6833 150.633 54.3867 150.273 54.16C149.913 53.9333 149.513 53.82 149.073 53.82C148.633 53.82 148.233 53.9267 147.873 54.14C147.513 54.3533 147.226 54.6433 147.013 55.01C146.799 55.3767 146.693 55.7933 146.693 56.26V62H144.613V56.26C144.613 55.7933 144.506 55.3767 144.293 55.01C144.079 54.6433 143.789 54.3533 143.423 54.14C143.063 53.9267 142.663 53.82 142.223 53.82C141.789 53.82 141.389 53.9333 141.023 54.16C140.663 54.3867 140.376 54.6833 140.163 55.05C139.949 55.4167 139.843 55.82 139.843 56.26V62H137.763ZM159.741 62.26C158.821 62.26 157.981 62.0233 157.221 61.55C156.467 61.0767 155.864 60.4433 155.411 59.65C154.964 58.85 154.741 57.9667 154.741 57C154.741 56.2667 154.871 55.5833 155.131 54.95C155.391 54.31 155.747 53.75 156.201 53.27C156.661 52.7833 157.194 52.4033 157.801 52.13C158.407 51.8567 159.054 51.72 159.741 51.72C160.507 51.72 161.211 51.88 161.851 52.2C162.491 52.5133 163.037 52.95 163.491 53.51C163.944 54.0633 164.277 54.7033 164.491 55.43C164.704 56.15 164.767 56.9167 164.681 57.73H156.971C157.057 58.19 157.224 58.6067 157.471 58.98C157.724 59.3467 158.044 59.6367 158.431 59.85C158.824 60.0633 159.261 60.1733 159.741 60.18C160.247 60.18 160.707 60.0533 161.121 59.8C161.541 59.5467 161.884 59.1967 162.151 58.75L164.261 59.24C163.861 60.1267 163.257 60.8533 162.451 61.42C161.644 61.98 160.741 62.26 159.741 62.26ZM156.901 56.14H162.581C162.514 55.66 162.344 55.2267 162.071 54.84C161.804 54.4467 161.467 54.1367 161.061 53.91C160.661 53.6767 160.221 53.56 159.741 53.56C159.267 53.56 158.827 53.6733 158.421 53.9C158.021 54.1267 157.687 54.4367 157.421 54.83C157.161 55.2167 156.987 55.6533 156.901 56.14ZM175.337 55.73V62H173.257V56.24C173.257 55.7933 173.147 55.3867 172.927 55.02C172.713 54.6533 172.423 54.3633 172.057 54.15C171.697 53.93 171.29 53.82 170.837 53.82C170.397 53.82 169.993 53.93 169.627 54.15C169.26 54.3633 168.967 54.6533 168.747 55.02C168.527 55.3867 168.417 55.7933 168.417 56.24V62H166.337V52H168.417V53.06C168.763 52.6467 169.19 52.32 169.697 52.08C170.203 51.84 170.75 51.72 171.337 51.72C172.077 51.72 172.75 51.9 173.357 52.26C173.963 52.62 174.443 53.1033 174.797 53.71C175.157 54.3167 175.337 54.99 175.337 55.73ZM182.613 54.08H180.513L180.503 62H178.423L178.433 54.08H176.843V52H178.433L178.423 48.86H180.503L180.513 52H182.613V54.08ZM187.266 62.19C186.74 62.1567 186.226 62.05 185.726 61.87C185.226 61.69 184.786 61.4467 184.406 61.14C184.033 60.8267 183.753 60.46 183.566 60.04L185.336 59.28C185.423 59.46 185.573 59.6367 185.786 59.81C186.006 59.9833 186.263 60.1267 186.556 60.24C186.85 60.3467 187.156 60.4 187.476 60.4C187.79 60.4 188.08 60.3567 188.346 60.27C188.62 60.1767 188.843 60.0367 189.016 59.85C189.19 59.6633 189.276 59.44 189.276 59.18C189.276 58.8867 189.176 58.66 188.976 58.5C188.783 58.3333 188.54 58.2067 188.246 58.12C187.953 58.0333 187.66 57.95 187.366 57.87C186.713 57.7233 186.113 57.5233 185.566 57.27C185.026 57.01 184.596 56.68 184.276 56.28C183.956 55.8733 183.796 55.3767 183.796 54.79C183.796 54.15 183.97 53.5967 184.316 53.13C184.663 52.6567 185.116 52.2933 185.676 52.04C186.243 51.7867 186.846 51.66 187.486 51.66C188.286 51.66 189.02 51.83 189.686 52.17C190.353 52.51 190.863 52.9767 191.216 53.57L189.566 54.55C189.466 54.35 189.316 54.17 189.116 54.01C188.916 53.85 188.69 53.7233 188.436 53.63C188.183 53.53 187.92 53.4733 187.646 53.46C187.306 53.4467 186.99 53.4867 186.696 53.58C186.41 53.6667 186.18 53.8067 186.006 54C185.833 54.1933 185.746 54.44 185.746 54.74C185.746 55.0333 185.85 55.2533 186.056 55.4C186.263 55.54 186.523 55.6533 186.836 55.74C187.156 55.8267 187.483 55.9233 187.816 56.03C188.41 56.2167 188.966 56.4467 189.486 56.72C190.006 56.9867 190.426 57.3167 190.746 57.71C191.066 58.1033 191.22 58.5833 191.206 59.15C191.206 59.7767 191.016 60.3267 190.636 60.8C190.263 61.2733 189.776 61.6333 189.176 61.88C188.576 62.1267 187.94 62.23 187.266 62.19ZM205.513 47H207.593V62H205.513V60.53C205.187 61.05 204.76 61.47 204.233 61.79C203.707 62.1033 203.09 62.26 202.383 62.26C201.657 62.26 200.977 62.1233 200.343 61.85C199.71 61.5767 199.15 61.2 198.663 60.72C198.183 60.2333 197.807 59.6733 197.533 59.04C197.26 58.4067 197.123 57.7267 197.123 57C197.123 56.2733 197.26 55.5933 197.533 54.96C197.807 54.32 198.183 53.76 198.663 53.28C199.15 52.7933 199.71 52.4133 200.343 52.14C200.977 51.8667 201.657 51.73 202.383 51.73C203.09 51.73 203.707 51.89 204.233 52.21C204.76 52.5233 205.187 52.9367 205.513 53.45V47ZM202.403 60.25C202.99 60.25 203.503 60.1067 203.943 59.82C204.383 59.5267 204.723 59.1333 204.963 58.64C205.21 58.1467 205.333 57.6 205.333 57C205.333 56.3933 205.21 55.8433 204.963 55.35C204.717 54.8567 204.373 54.4667 203.933 54.18C203.5 53.8867 202.99 53.74 202.403 53.74C201.823 53.74 201.293 53.8867 200.813 54.18C200.34 54.4733 199.96 54.8667 199.673 55.36C199.393 55.8533 199.253 56.4 199.253 57C199.253 57.6067 199.397 58.1567 199.683 58.65C199.977 59.1367 200.36 59.5267 200.833 59.82C201.313 60.1067 201.837 60.25 202.403 60.25ZM214.252 62.26C213.332 62.26 212.492 62.0233 211.732 61.55C210.979 61.0767 210.376 60.4433 209.922 59.65C209.476 58.85 209.252 57.9667 209.252 57C209.252 56.2667 209.382 55.5833 209.642 54.95C209.902 54.31 210.259 53.75 210.712 53.27C211.172 52.7833 211.706 52.4033 212.312 52.13C212.919 51.8567 213.566 51.72 214.252 51.72C215.172 51.72 216.009 51.9567 216.762 52.43C217.522 52.9033 218.126 53.54 218.572 54.34C219.026 55.14 219.252 56.0267 219.252 57C219.252 57.7267 219.122 58.4067 218.862 59.04C218.602 59.6733 218.242 60.2333 217.782 60.72C217.329 61.2 216.799 61.5767 216.192 61.85C215.592 62.1233 214.946 62.26 214.252 62.26ZM214.252 60.18C214.806 60.18 215.302 60.0333 215.742 59.74C216.182 59.4467 216.529 59.06 216.782 58.58C217.042 58.0933 217.172 57.5667 217.172 57C217.172 56.42 217.039 55.8867 216.772 55.4C216.512 54.9133 216.162 54.5267 215.722 54.24C215.282 53.9467 214.792 53.8 214.252 53.8C213.706 53.8 213.209 53.9467 212.762 54.24C212.322 54.5333 211.972 54.9233 211.712 55.41C211.459 55.8967 211.332 56.4267 211.332 57C211.332 57.5933 211.466 58.13 211.732 58.61C211.999 59.09 212.352 59.4733 212.792 59.76C213.239 60.04 213.726 60.18 214.252 60.18ZM226.148 62V48H228.228V62H226.148ZM244.731 55.73V62H242.651V56.24C242.651 55.7933 242.541 55.3867 242.321 55.02C242.108 54.6533 241.818 54.3633 241.451 54.15C241.091 53.93 240.685 53.82 240.231 53.82C239.791 53.82 239.388 53.93 239.021 54.15C238.655 54.3633 238.361 54.6533 238.141 55.02C237.921 55.3867 237.811 55.7933 237.811 56.24V62H235.731V52H237.811V53.06C238.158 52.6467 238.585 52.32 239.091 52.08C239.598 51.84 240.145 51.72 240.731 51.72C241.471 51.72 242.145 51.9 242.751 52.26C243.358 52.62 243.838 53.1033 244.191 53.71C244.551 54.3167 244.731 54.99 244.731 55.73ZM250.932 62.26C250.012 62.26 249.172 62.0233 248.412 61.55C247.659 61.0767 247.055 60.4433 246.602 59.65C246.155 58.85 245.932 57.9667 245.932 57C245.932 56.2667 246.062 55.5833 246.322 54.95C246.582 54.31 246.939 53.75 247.392 53.27C247.852 52.7833 248.385 52.4033 248.992 52.13C249.599 51.8567 250.245 51.72 250.932 51.72C251.699 51.72 252.402 51.88 253.042 52.2C253.682 52.5133 254.229 52.95 254.682 53.51C255.135 54.0633 255.469 54.7033 255.682 55.43C255.895 56.15 255.959 56.9167 255.872 57.73H248.162C248.249 58.19 248.415 58.6067 248.662 58.98C248.915 59.3467 249.235 59.6367 249.622 59.85C250.015 60.0633 250.452 60.1733 250.932 60.18C251.439 60.18 251.899 60.0533 252.312 59.8C252.732 59.5467 253.075 59.1967 253.342 58.75L255.452 59.24C255.052 60.1267 254.449 60.8533 253.642 61.42C252.835 61.98 251.932 62.26 250.932 62.26ZM248.092 56.14H253.772C253.705 55.66 253.535 55.2267 253.262 54.84C252.995 54.4467 252.659 54.1367 252.252 53.91C251.852 53.6767 251.412 53.56 250.932 53.56C250.459 53.56 250.019 53.6733 249.612 53.9C249.212 54.1267 248.879 54.4367 248.612 54.83C248.352 55.2167 248.179 55.6533 248.092 56.14ZM261.909 62.26C260.989 62.26 260.149 62.0233 259.389 61.55C258.635 61.0767 258.032 60.4433 257.579 59.65C257.132 58.85 256.909 57.9667 256.909 57C256.909 56.2667 257.039 55.5833 257.299 54.95C257.559 54.31 257.915 53.75 258.369 53.27C258.829 52.7833 259.362 52.4033 259.969 52.13C260.575 51.8567 261.222 51.72 261.909 51.72C262.675 51.72 263.379 51.88 264.019 52.2C264.659 52.5133 265.205 52.95 265.659 53.51C266.112 54.0633 266.445 54.7033 266.659 55.43C266.872 56.15 266.935 56.9167 266.849 57.73H259.139C259.225 58.19 259.392 58.6067 259.639 58.98C259.892 59.3467 260.212 59.6367 260.599 59.85C260.992 60.0633 261.429 60.1733 261.909 60.18C262.415 60.18 262.875 60.0533 263.289 59.8C263.709 59.5467 264.052 59.1967 264.319 58.75L266.429 59.24C266.029 60.1267 265.425 60.8533 264.619 61.42C263.812 61.98 262.909 62.26 261.909 62.26ZM259.069 56.14H264.749C264.682 55.66 264.512 55.2267 264.239 54.84C263.972 54.4467 263.635 54.1367 263.229 53.91C262.829 53.6767 262.389 53.56 261.909 53.56C261.435 53.56 260.995 53.6733 260.589 53.9C260.189 54.1267 259.855 54.4367 259.589 54.83C259.329 55.2167 259.155 55.6533 259.069 56.14ZM276.275 47H278.355V62H276.275V60.53C275.948 61.05 275.522 61.47 274.995 61.79C274.468 62.1033 273.852 62.26 273.145 62.26C272.418 62.26 271.738 62.1233 271.105 61.85C270.472 61.5767 269.912 61.2 269.425 60.72C268.945 60.2333 268.568 59.6733 268.295 59.04C268.022 58.4067 267.885 57.7267 267.885 57C267.885 56.2733 268.022 55.5933 268.295 54.96C268.568 54.32 268.945 53.76 269.425 53.28C269.912 52.7933 270.472 52.4133 271.105 52.14C271.738 51.8667 272.418 51.73 273.145 51.73C273.852 51.73 274.468 51.89 274.995 52.21C275.522 52.5233 275.948 52.9367 276.275 53.45V47ZM273.165 60.25C273.752 60.25 274.265 60.1067 274.705 59.82C275.145 59.5267 275.485 59.1333 275.725 58.64C275.972 58.1467 276.095 57.6 276.095 57C276.095 56.3933 275.972 55.8433 275.725 55.35C275.478 54.8567 275.135 54.4667 274.695 54.18C274.262 53.8867 273.752 53.74 273.165 53.74C272.585 53.74 272.055 53.8867 271.575 54.18C271.102 54.4733 270.722 54.8667 270.435 55.36C270.155 55.8533 270.015 56.4 270.015 57C270.015 57.6067 270.158 58.1567 270.445 58.65C270.738 59.1367 271.122 59.5267 271.595 59.82C272.075 60.1067 272.598 60.25 273.165 60.25ZM290.835 54.08H288.735L288.725 62H286.645L286.655 54.08H285.065V52H286.655L286.645 48.86H288.725L288.735 52H290.835V54.08ZM296.791 62.26C295.871 62.26 295.031 62.0233 294.271 61.55C293.518 61.0767 292.915 60.4433 292.461 59.65C292.015 58.85 291.791 57.9667 291.791 57C291.791 56.2667 291.921 55.5833 292.181 54.95C292.441 54.31 292.798 53.75 293.251 53.27C293.711 52.7833 294.245 52.4033 294.851 52.13C295.458 51.8567 296.105 51.72 296.791 51.72C297.711 51.72 298.548 51.9567 299.301 52.43C300.061 52.9033 300.665 53.54 301.111 54.34C301.565 55.14 301.791 56.0267 301.791 57C301.791 57.7267 301.661 58.4067 301.401 59.04C301.141 59.6733 300.781 60.2333 300.321 60.72C299.868 61.2 299.338 61.5767 298.731 61.85C298.131 62.1233 297.485 62.26 296.791 62.26ZM296.791 60.18C297.345 60.18 297.841 60.0333 298.281 59.74C298.721 59.4467 299.068 59.06 299.321 58.58C299.581 58.0933 299.711 57.5667 299.711 57C299.711 56.42 299.578 55.8867 299.311 55.4C299.051 54.9133 298.701 54.5267 298.261 54.24C297.821 53.9467 297.331 53.8 296.791 53.8C296.245 53.8 295.748 53.9467 295.301 54.24C294.861 54.5333 294.511 54.9233 294.251 55.41C293.998 55.8967 293.871 56.4267 293.871 57C293.871 57.5933 294.005 58.13 294.271 58.61C294.538 59.09 294.891 59.4733 295.331 59.76C295.778 60.04 296.265 60.18 296.791 60.18ZM311.388 62.19C310.861 62.1567 310.348 62.05 309.848 61.87C309.348 61.69 308.908 61.4467 308.528 61.14C308.154 60.8267 307.874 60.46 307.688 60.04L309.458 59.28C309.544 59.46 309.694 59.6367 309.908 59.81C310.128 59.9833 310.384 60.1267 310.678 60.24C310.971 60.3467 311.278 60.4 311.598 60.4C311.911 60.4 312.201 60.3567 312.467 60.27C312.741 60.1767 312.964 60.0367 313.138 59.85C313.311 59.6633 313.398 59.44 313.398 59.18C313.398 58.8867 313.298 58.66 313.098 58.5C312.904 58.3333 312.661 58.2067 312.368 58.12C312.074 58.0333 311.781 57.95 311.488 57.87C310.834 57.7233 310.234 57.5233 309.688 57.27C309.148 57.01 308.718 56.68 308.398 56.28C308.078 55.8733 307.918 55.3767 307.918 54.79C307.918 54.15 308.091 53.5967 308.438 53.13C308.784 52.6567 309.238 52.2933 309.798 52.04C310.364 51.7867 310.968 51.66 311.608 51.66C312.408 51.66 313.141 51.83 313.808 52.17C314.474 52.51 314.984 52.9767 315.338 53.57L313.688 54.55C313.588 54.35 313.438 54.17 313.238 54.01C313.038 53.85 312.811 53.7233 312.558 53.63C312.304 53.53 312.041 53.4733 311.768 53.46C311.428 53.4467 311.111 53.4867 310.818 53.58C310.531 53.6667 310.301 53.8067 310.127 54C309.954 54.1933 309.868 54.44 309.868 54.74C309.868 55.0333 309.971 55.2533 310.178 55.4C310.384 55.54 310.644 55.6533 310.958 55.74C311.278 55.8267 311.604 55.9233 311.938 56.03C312.531 56.2167 313.088 56.4467 313.608 56.72C314.128 56.9867 314.548 57.3167 314.868 57.71C315.188 58.1033 315.341 58.5833 315.328 59.15C315.328 59.7767 315.138 60.3267 314.758 60.8C314.384 61.2733 313.898 61.6333 313.298 61.88C312.698 62.1267 312.061 62.23 311.388 62.19ZM321.303 62.26C320.383 62.26 319.543 62.0233 318.783 61.55C318.03 61.0767 317.426 60.4433 316.973 59.65C316.526 58.85 316.303 57.9667 316.303 57C316.303 56.2667 316.433 55.5833 316.693 54.95C316.953 54.31 317.31 53.75 317.763 53.27C318.223 52.7833 318.756 52.4033 319.363 52.13C319.97 51.8567 320.616 51.72 321.303 51.72C322.07 51.72 322.773 51.88 323.413 52.2C324.053 52.5133 324.6 52.95 325.053 53.51C325.506 54.0633 325.84 54.7033 326.053 55.43C326.266 56.15 326.33 56.9167 326.243 57.73H318.533C318.62 58.19 318.786 58.6067 319.033 58.98C319.286 59.3467 319.606 59.6367 319.993 59.85C320.386 60.0633 320.823 60.1733 321.303 60.18C321.81 60.18 322.27 60.0533 322.683 59.8C323.103 59.5467 323.446 59.1967 323.713 58.75L325.823 59.24C325.423 60.1267 324.82 60.8533 324.013 61.42C323.206 61.98 322.303 62.26 321.303 62.26ZM318.463 56.14H324.143C324.076 55.66 323.906 55.2267 323.633 54.84C323.366 54.4467 323.03 54.1367 322.623 53.91C322.223 53.6767 321.783 53.56 321.303 53.56C320.83 53.56 320.39 53.6733 319.983 53.9C319.583 54.1267 319.25 54.4367 318.983 54.83C318.723 55.2167 318.55 55.6533 318.463 56.14ZM327.763 62V47H329.843V62H327.763ZM332.235 62V47H334.315V62H332.235ZM341.513 62V52H343.593V53.06C343.939 52.6467 344.363 52.32 344.863 52.08C345.369 51.84 345.916 51.72 346.503 51.72C347.216 51.72 347.873 51.8933 348.473 52.24C349.073 52.58 349.549 53.0333 349.903 53.6C350.256 53.0333 350.726 52.58 351.313 52.24C351.906 51.8933 352.559 51.72 353.273 51.72C354.013 51.72 354.686 51.9 355.293 52.26C355.899 52.62 356.383 53.1033 356.743 53.71C357.103 54.3167 357.283 54.99 357.283 55.73V62H355.203V56.26C355.203 55.82 355.096 55.4167 354.883 55.05C354.669 54.6833 354.383 54.3867 354.023 54.16C353.663 53.9333 353.263 53.82 352.823 53.82C352.383 53.82 351.983 53.9267 351.623 54.14C351.263 54.3533 350.976 54.6433 350.763 55.01C350.549 55.3767 350.443 55.7933 350.443 56.26V62H348.363V56.26C348.363 55.7933 348.256 55.3767 348.043 55.01C347.829 54.6433 347.539 54.3533 347.173 54.14C346.813 53.9267 346.413 53.82 345.973 53.82C345.539 53.82 345.139 53.9333 344.773 54.16C344.413 54.3867 344.126 54.6833 343.913 55.05C343.699 55.4167 343.593 55.82 343.593 56.26V62H341.513ZM365.706 52H367.926L362.446 67H360.236L362.046 62L358.456 52H360.726L363.086 59.15L365.706 52ZM43.612 97H41.532V82H43.612V83.47C43.9454 82.9567 44.372 82.54 44.892 82.22C45.412 81.9 46.0254 81.74 46.732 81.74C47.4587 81.74 48.1387 81.8767 48.772 82.15C49.412 82.4233 49.972 82.8033 50.452 83.29C50.932 83.77 51.3087 84.3267 51.582 84.96C51.8554 85.5933 51.992 86.2733 51.992 87C51.992 87.7267 51.8554 88.41 51.582 89.05C51.3087 89.69 50.932 90.2533 50.452 90.74C49.972 91.22 49.412 91.5967 48.772 91.87C48.1387 92.1433 47.4587 92.28 46.732 92.28C46.0254 92.28 45.412 92.12 44.892 91.8C44.372 91.4733 43.9454 91.0567 43.612 90.55V97ZM46.712 83.75C46.132 83.75 45.622 83.8967 45.182 84.19C44.742 84.4833 44.3987 84.8767 44.152 85.37C43.9054 85.8567 43.782 86.4 43.782 87C43.782 87.6 43.9054 88.1467 44.152 88.64C44.3987 89.1333 44.742 89.5267 45.182 89.82C45.622 90.1133 46.132 90.26 46.712 90.26C47.2854 90.26 47.812 90.1167 48.292 89.83C48.772 89.5367 49.1554 89.1433 49.442 88.65C49.7287 88.1567 49.872 87.6067 49.872 87C49.872 86.4067 49.7287 85.8633 49.442 85.37C49.162 84.8767 48.782 84.4833 48.302 84.19C47.822 83.8967 47.292 83.75 46.712 83.75ZM53.6219 92V82H55.7019V83.06C56.0485 82.6467 56.4752 82.32 56.9819 82.08C57.4885 81.84 58.0352 81.72 58.6219 81.72C58.9952 81.72 59.3652 81.77 59.7319 81.87L58.9019 83.97C58.6419 83.87 58.3819 83.82 58.1219 83.82C57.6819 83.82 57.2785 83.93 56.9119 84.15C56.5452 84.3633 56.2519 84.6533 56.0319 85.02C55.8119 85.3867 55.7019 85.7933 55.7019 86.24V92H53.6219ZM64.8188 92.26C63.8988 92.26 63.0588 92.0233 62.2988 91.55C61.5454 91.0767 60.9421 90.4433 60.4888 89.65C60.0421 88.85 59.8188 87.9667 59.8188 87C59.8188 86.2667 59.9488 85.5833 60.2088 84.95C60.4688 84.31 60.8254 83.75 61.2788 83.27C61.7388 82.7833 62.2721 82.4033 62.8788 82.13C63.4854 81.8567 64.1321 81.72 64.8188 81.72C65.7388 81.72 66.5754 81.9567 67.3288 82.43C68.0888 82.9033 68.6921 83.54 69.1388 84.34C69.5921 85.14 69.8188 86.0267 69.8188 87C69.8188 87.7267 69.6888 88.4067 69.4288 89.04C69.1688 89.6733 68.8088 90.2333 68.3488 90.72C67.8954 91.2 67.3654 91.5767 66.7588 91.85C66.1588 92.1233 65.5121 92.26 64.8188 92.26ZM64.8188 90.18C65.3721 90.18 65.8688 90.0333 66.3088 89.74C66.7488 89.4467 67.0954 89.06 67.3488 88.58C67.6088 88.0933 67.7388 87.5667 67.7388 87C67.7388 86.42 67.6054 85.8867 67.3388 85.4C67.0788 84.9133 66.7288 84.5267 66.2888 84.24C65.8488 83.9467 65.3588 83.8 64.8188 83.8C64.2721 83.8 63.7754 83.9467 63.3288 84.24C62.8888 84.5333 62.5388 84.9233 62.2788 85.41C62.0254 85.8967 61.8988 86.4267 61.8988 87C61.8988 87.5933 62.0321 88.13 62.2988 88.61C62.5654 89.09 62.9188 89.4733 63.3588 89.76C63.8054 90.04 64.2921 90.18 64.8188 90.18ZM73.5144 97H71.4344V82H73.5144V83.47C73.8477 82.9567 74.2744 82.54 74.7944 82.22C75.3144 81.9 75.9277 81.74 76.6344 81.74C77.361 81.74 78.041 81.8767 78.6744 82.15C79.3144 82.4233 79.8744 82.8033 80.3544 83.29C80.8344 83.77 81.211 84.3267 81.4844 84.96C81.7577 85.5933 81.8944 86.2733 81.8944 87C81.8944 87.7267 81.7577 88.41 81.4844 89.05C81.211 89.69 80.8344 90.2533 80.3544 90.74C79.8744 91.22 79.3144 91.5967 78.6744 91.87C78.041 92.1433 77.361 92.28 76.6344 92.28C75.9277 92.28 75.3144 92.12 74.7944 91.8C74.2744 91.4733 73.8477 91.0567 73.5144 90.55V97ZM76.6144 83.75C76.0344 83.75 75.5244 83.8967 75.0844 84.19C74.6444 84.4833 74.301 84.8767 74.0544 85.37C73.8077 85.8567 73.6844 86.4 73.6844 87C73.6844 87.6 73.8077 88.1467 74.0544 88.64C74.301 89.1333 74.6444 89.5267 75.0844 89.82C75.5244 90.1133 76.0344 90.26 76.6144 90.26C77.1877 90.26 77.7144 90.1167 78.1944 89.83C78.6744 89.5367 79.0577 89.1433 79.3444 88.65C79.631 88.1567 79.7744 87.6067 79.7744 87C79.7744 86.4067 79.631 85.8633 79.3444 85.37C79.0644 84.8767 78.6844 84.4833 78.2044 84.19C77.7244 83.8967 77.1944 83.75 76.6144 83.75ZM87.9047 92.26C86.9847 92.26 86.1447 92.0233 85.3847 91.55C84.6314 91.0767 84.028 90.4433 83.5747 89.65C83.128 88.85 82.9047 87.9667 82.9047 87C82.9047 86.2667 83.0347 85.5833 83.2947 84.95C83.5547 84.31 83.9114 83.75 84.3647 83.27C84.8247 82.7833 85.358 82.4033 85.9647 82.13C86.5714 81.8567 87.218 81.72 87.9047 81.72C88.6714 81.72 89.3747 81.88 90.0147 82.2C90.6547 82.5133 91.2014 82.95 91.6547 83.51C92.108 84.0633 92.4414 84.7033 92.6547 85.43C92.868 86.15 92.9314 86.9167 92.8447 87.73H85.1347C85.2214 88.19 85.388 88.6067 85.6347 88.98C85.888 89.3467 86.208 89.6367 86.5947 89.85C86.988 90.0633 87.4247 90.1733 87.9047 90.18C88.4114 90.18 88.8714 90.0533 89.2847 89.8C89.7047 89.5467 90.048 89.1967 90.3147 88.75L92.4247 89.24C92.0247 90.1267 91.4214 90.8533 90.6147 91.42C89.808 91.98 88.9047 92.26 87.9047 92.26ZM85.0647 86.14H90.7447C90.678 85.66 90.508 85.2267 90.2347 84.84C89.968 84.4467 89.6314 84.1367 89.2247 83.91C88.8247 83.6767 88.3847 83.56 87.9047 83.56C87.4314 83.56 86.9914 83.6733 86.5847 83.9C86.1847 84.1267 85.8514 84.4367 85.5847 84.83C85.3247 85.2167 85.1514 85.6533 85.0647 86.14ZM94.5008 92V82H96.5808V83.06C96.9274 82.6467 97.3541 82.32 97.8608 82.08C98.3674 81.84 98.9141 81.72 99.5008 81.72C99.8741 81.72 100.244 81.77 100.611 81.87L99.7808 83.97C99.5208 83.87 99.2608 83.82 99.0008 83.82C98.5608 83.82 98.1574 83.93 97.7908 84.15C97.4241 84.3633 97.1308 84.6533 96.9108 85.02C96.6908 85.3867 96.5808 85.7933 96.5808 86.24V92H94.5008ZM107.3 84.08H105.2L105.19 92H103.11L103.12 84.08H101.53V82H103.12L103.11 78.86H105.19L105.2 82H107.3V84.08ZM115.628 82H117.848L112.368 97H110.158L111.968 92L108.378 82H110.648L113.008 89.15L115.628 82ZM129.937 84.08H127.837L127.827 92H125.747L125.757 84.08H124.167V82H125.757L125.747 78.86H127.827L127.837 82H129.937V84.08ZM140.727 85.73V92H138.647V86.24C138.647 85.7933 138.537 85.3867 138.317 85.02C138.104 84.6533 137.814 84.3633 137.447 84.15C137.087 83.93 136.681 83.82 136.227 83.82C135.787 83.82 135.384 83.93 135.017 84.15C134.651 84.3633 134.357 84.6533 134.137 85.02C133.917 85.3867 133.807 85.7933 133.807 86.24V92H131.727V77H133.807V83.06C134.154 82.6467 134.581 82.32 135.087 82.08C135.594 81.84 136.141 81.72 136.727 81.72C137.467 81.72 138.141 81.9 138.747 82.26C139.354 82.62 139.834 83.1033 140.187 83.71C140.547 84.3167 140.727 84.99 140.727 85.73ZM142.723 92V82H144.803V83.06C145.15 82.6467 145.577 82.32 146.083 82.08C146.59 81.84 147.137 81.72 147.723 81.72C148.097 81.72 148.467 81.77 148.833 81.87L148.003 83.97C147.743 83.87 147.483 83.82 147.223 83.82C146.783 83.82 146.38 83.93 146.013 84.15C145.647 84.3633 145.353 84.6533 145.133 85.02C144.913 85.3867 144.803 85.7933 144.803 86.24V92H142.723ZM153.92 92.26C153 92.26 152.16 92.0233 151.4 91.55C150.647 91.0767 150.044 90.4433 149.59 89.65C149.144 88.85 148.92 87.9667 148.92 87C148.92 86.2667 149.05 85.5833 149.31 84.95C149.57 84.31 149.927 83.75 150.38 83.27C150.84 82.7833 151.374 82.4033 151.98 82.13C152.587 81.8567 153.234 81.72 153.92 81.72C154.84 81.72 155.677 81.9567 156.43 82.43C157.19 82.9033 157.794 83.54 158.24 84.34C158.694 85.14 158.92 86.0267 158.92 87C158.92 87.7267 158.79 88.4067 158.53 89.04C158.27 89.6733 157.91 90.2333 157.45 90.72C156.997 91.2 156.467 91.5767 155.86 91.85C155.26 92.1233 154.614 92.26 153.92 92.26ZM153.92 90.18C154.474 90.18 154.97 90.0333 155.41 89.74C155.85 89.4467 156.197 89.06 156.45 88.58C156.71 88.0933 156.84 87.5667 156.84 87C156.84 86.42 156.707 85.8867 156.44 85.4C156.18 84.9133 155.83 84.5267 155.39 84.24C154.95 83.9467 154.46 83.8 153.92 83.8C153.374 83.8 152.877 83.9467 152.43 84.24C151.99 84.5333 151.64 84.9233 151.38 85.41C151.127 85.8967 151 86.4267 151 87C151 87.5933 151.134 88.13 151.4 88.61C151.667 89.09 152.02 89.4733 152.46 89.76C152.907 90.04 153.394 90.18 153.92 90.18ZM159.941 88.25V82H162.021V87.74C162.021 88.1867 162.131 88.5933 162.351 88.96C162.571 89.3267 162.864 89.62 163.231 89.84C163.597 90.0533 164.001 90.16 164.441 90.16C164.887 90.16 165.291 90.0533 165.651 89.84C166.017 89.62 166.307 89.3267 166.521 88.96C166.741 88.5933 166.851 88.1867 166.851 87.74V82H168.931L168.941 92H166.861L166.851 90.92C166.511 91.3333 166.087 91.66 165.581 91.9C165.074 92.14 164.531 92.26 163.951 92.26C163.211 92.26 162.537 92.08 161.931 91.72C161.324 91.36 160.841 90.8767 160.481 90.27C160.121 89.6633 159.941 88.99 159.941 88.25ZM178.419 82H180.499V92.26C180.499 92.9467 180.353 93.58 180.059 94.16C179.773 94.74 179.383 95.24 178.889 95.66C178.396 96.0867 177.829 96.4167 177.189 96.65C176.556 96.8833 175.893 97 175.199 97C174.499 97 173.826 96.85 173.179 96.55C172.533 96.2567 171.963 95.8567 171.469 95.35C170.983 94.8433 170.619 94.27 170.379 93.63L172.289 92.77C172.423 93.1833 172.636 93.55 172.929 93.87C173.229 94.19 173.576 94.4433 173.969 94.63C174.369 94.8167 174.779 94.91 175.199 94.91C175.613 94.91 176.009 94.8433 176.389 94.71C176.776 94.5833 177.119 94.4033 177.419 94.17C177.726 93.9367 177.969 93.6567 178.149 93.33C178.329 93.0033 178.419 92.6467 178.419 92.26V90.57C178.093 91.0767 177.673 91.4867 177.159 91.8C176.646 92.1067 176.049 92.26 175.369 92.26C174.663 92.26 173.996 92.1233 173.369 91.85C172.743 91.5767 172.193 91.2 171.719 90.72C171.246 90.2333 170.876 89.6733 170.609 89.04C170.343 88.4067 170.209 87.7267 170.209 87C170.209 86.2733 170.343 85.5933 170.609 84.96C170.876 84.32 171.246 83.76 171.719 83.28C172.193 82.7933 172.743 82.4133 173.369 82.14C173.996 81.8667 174.663 81.73 175.369 81.73C176.049 81.73 176.646 81.8867 177.159 82.2C177.673 82.5067 178.093 82.9167 178.419 83.43V82ZM175.389 90.25C175.969 90.25 176.476 90.1033 176.909 89.81C177.343 89.51 177.679 89.1133 177.919 88.62C178.159 88.1267 178.279 87.5867 178.279 87C178.279 86.4 178.156 85.8567 177.909 85.37C177.669 84.8767 177.333 84.4833 176.899 84.19C176.466 83.89 175.963 83.74 175.389 83.74C174.829 83.74 174.316 83.8867 173.849 84.18C173.389 84.4733 173.023 84.8667 172.749 85.36C172.476 85.8533 172.339 86.4 172.339 87C172.339 87.6 172.476 88.1467 172.749 88.64C173.029 89.1333 173.399 89.5267 173.859 89.82C174.326 90.1067 174.836 90.25 175.389 90.25ZM191.899 85.73V92H189.819V86.24C189.819 85.7933 189.709 85.3867 189.489 85.02C189.276 84.6533 188.986 84.3633 188.619 84.15C188.259 83.93 187.853 83.82 187.399 83.82C186.959 83.82 186.556 83.93 186.189 84.15C185.823 84.3633 185.529 84.6533 185.309 85.02C185.089 85.3867 184.979 85.7933 184.979 86.24V92H182.899V77H184.979V83.06C185.326 82.6467 185.753 82.32 186.259 82.08C186.766 81.84 187.313 81.72 187.899 81.72C188.639 81.72 189.313 81.9 189.919 82.26C190.526 82.62 191.006 83.1033 191.359 83.71C191.719 84.3167 191.899 84.99 191.899 85.73ZM198.7 92V78H207.39V80.08H200.78V83.46H206.1V85.54H200.78V89.92H207.39V92H198.7ZM212.598 92.19C212.072 92.1567 211.558 92.05 211.058 91.87C210.558 91.69 210.118 91.4467 209.738 91.14C209.365 90.8267 209.085 90.46 208.898 90.04L210.668 89.28C210.755 89.46 210.905 89.6367 211.118 89.81C211.338 89.9833 211.595 90.1267 211.888 90.24C212.182 90.3467 212.488 90.4 212.808 90.4C213.122 90.4 213.412 90.3567 213.678 90.27C213.952 90.1767 214.175 90.0367 214.348 89.85C214.522 89.6633 214.608 89.44 214.608 89.18C214.608 88.8867 214.508 88.66 214.308 88.5C214.115 88.3333 213.872 88.2067 213.578 88.12C213.285 88.0333 212.992 87.95 212.698 87.87C212.045 87.7233 211.445 87.5233 210.898 87.27C210.358 87.01 209.928 86.68 209.608 86.28C209.288 85.8733 209.128 85.3767 209.128 84.79C209.128 84.15 209.302 83.5967 209.648 83.13C209.995 82.6567 210.448 82.2933 211.008 82.04C211.575 81.7867 212.178 81.66 212.818 81.66C213.618 81.66 214.352 81.83 215.018 82.17C215.685 82.51 216.195 82.9767 216.548 83.57L214.898 84.55C214.798 84.35 214.648 84.17 214.448 84.01C214.248 83.85 214.022 83.7233 213.768 83.63C213.515 83.53 213.252 83.4733 212.978 83.46C212.638 83.4467 212.322 83.4867 212.028 83.58C211.742 83.6667 211.512 83.8067 211.338 84C211.165 84.1933 211.078 84.44 211.078 84.74C211.078 85.0333 211.182 85.2533 211.388 85.4C211.595 85.54 211.855 85.6533 212.168 85.74C212.488 85.8267 212.815 85.9233 213.148 86.03C213.742 86.2167 214.298 86.4467 214.818 86.72C215.338 86.9867 215.758 87.3167 216.078 87.71C216.398 88.1033 216.552 88.5833 216.538 89.15C216.538 89.7767 216.348 90.3267 215.968 90.8C215.595 91.2733 215.108 91.6333 214.508 91.88C213.908 92.1267 213.272 92.23 212.598 92.19ZM223.531 84.08H221.431L221.421 92H219.341L219.351 84.08H217.761V82H219.351L219.341 78.86H221.421L221.431 82H223.531V84.08ZM232.867 82H234.947V92H232.857L232.777 90.55C232.483 91.0633 232.087 91.4767 231.587 91.79C231.087 92.1033 230.497 92.26 229.817 92.26C229.083 92.26 228.393 92.1233 227.747 91.85C227.1 91.57 226.53 91.1833 226.037 90.69C225.55 90.1967 225.17 89.63 224.897 88.99C224.623 88.3433 224.487 87.65 224.487 86.91C224.487 86.1967 224.62 85.5267 224.887 84.9C225.153 84.2667 225.523 83.7133 225.997 83.24C226.47 82.7667 227.017 82.3967 227.637 82.13C228.263 81.8567 228.933 81.72 229.647 81.72C230.373 81.72 231.013 81.8867 231.567 82.22C232.127 82.5467 232.59 82.9667 232.957 83.48L232.867 82ZM229.767 90.25C230.353 90.25 230.867 90.1067 231.307 89.82C231.747 89.5267 232.087 89.1333 232.327 88.64C232.573 88.1467 232.697 87.6 232.697 87C232.697 86.3933 232.573 85.8433 232.327 85.35C232.08 84.8567 231.737 84.4667 231.297 84.18C230.863 83.8867 230.353 83.74 229.767 83.74C229.187 83.74 228.657 83.8867 228.177 84.18C227.697 84.4733 227.317 84.8667 227.037 85.36C226.757 85.8533 226.617 86.4 226.617 87C226.617 87.6067 226.76 88.1567 227.047 88.65C227.34 89.1367 227.723 89.5267 228.197 89.82C228.677 90.1067 229.2 90.25 229.767 90.25ZM242.222 84.08H240.122L240.112 92H238.032L238.042 84.08H236.452V82H238.042L238.032 78.86H240.112L240.122 82H242.222V84.08ZM248.178 92.26C247.258 92.26 246.418 92.0233 245.658 91.55C244.905 91.0767 244.301 90.4433 243.848 89.65C243.401 88.85 243.178 87.9667 243.178 87C243.178 86.2667 243.308 85.5833 243.568 84.95C243.828 84.31 244.185 83.75 244.638 83.27C245.098 82.7833 245.631 82.4033 246.238 82.13C246.845 81.8567 247.491 81.72 248.178 81.72C248.945 81.72 249.648 81.88 250.288 82.2C250.928 82.5133 251.475 82.95 251.928 83.51C252.381 84.0633 252.715 84.7033 252.928 85.43C253.141 86.15 253.205 86.9167 253.118 87.73H245.408C245.495 88.19 245.661 88.6067 245.908 88.98C246.161 89.3467 246.481 89.6367 246.868 89.85C247.261 90.0633 247.698 90.1733 248.178 90.18C248.685 90.18 249.145 90.0533 249.558 89.8C249.978 89.5467 250.321 89.1967 250.588 88.75L252.698 89.24C252.298 90.1267 251.695 90.8533 250.888 91.42C250.081 91.98 249.178 92.26 248.178 92.26ZM245.338 86.14H251.018C250.951 85.66 250.781 85.2267 250.508 84.84C250.241 84.4467 249.905 84.1367 249.498 83.91C249.098 83.6767 248.658 83.56 248.178 83.56C247.705 83.56 247.265 83.6733 246.858 83.9C246.458 84.1267 246.125 84.4367 245.858 84.83C245.598 85.2167 245.425 85.6533 245.338 86.14ZM254.579 82H256.659V92H254.579V82ZM255.639 80.55C255.319 80.55 255.052 80.4467 254.839 80.24C254.626 80.0333 254.519 79.7733 254.519 79.46C254.519 79.1533 254.626 78.8967 254.839 78.69C255.052 78.4767 255.316 78.37 255.629 78.37C255.936 78.37 256.196 78.4767 256.409 78.69C256.622 78.8967 256.729 79.1533 256.729 79.46C256.729 79.7733 256.622 80.0333 256.409 80.24C256.202 80.4467 255.946 80.55 255.639 80.55ZM267.993 85.73V92H265.913V86.24C265.913 85.7933 265.803 85.3867 265.583 85.02C265.37 84.6533 265.08 84.3633 264.713 84.15C264.353 83.93 263.946 83.82 263.493 83.82C263.053 83.82 262.65 83.93 262.283 84.15C261.916 84.3633 261.623 84.6533 261.403 85.02C261.183 85.3867 261.073 85.7933 261.073 86.24V92H258.993V82H261.073V83.06C261.42 82.6467 261.846 82.32 262.353 82.08C262.86 81.84 263.406 81.72 263.993 81.72C264.733 81.72 265.406 81.9 266.013 82.26C266.62 82.62 267.1 83.1033 267.453 83.71C267.813 84.3167 267.993 84.99 267.993 85.73ZM273.039 87.53C273.039 86.81 273.219 86.1467 273.579 85.54C273.946 84.9333 274.446 84.4567 275.079 84.11C275.439 83.9233 275.719 83.65 275.919 83.29C276.119 82.9233 276.219 82.52 276.219 82.08C276.219 81.66 276.116 81.28 275.909 80.94C275.709 80.5933 275.436 80.32 275.089 80.12C274.742 79.9133 274.359 79.81 273.939 79.81C273.526 79.81 273.146 79.9133 272.799 80.12C272.452 80.32 272.176 80.5933 271.969 80.94C271.769 81.28 271.669 81.66 271.669 82.08H269.589C269.589 81.28 269.782 80.5533 270.169 79.9C270.562 79.24 271.089 78.7133 271.749 78.32C272.416 77.9267 273.146 77.73 273.939 77.73C274.746 77.73 275.479 77.9267 276.139 78.32C276.799 78.7133 277.322 79.24 277.709 79.9C278.102 80.5533 278.299 81.28 278.299 82.08C278.299 82.9 278.099 83.6567 277.699 84.35C277.306 85.0367 276.762 85.57 276.069 85.95C275.776 86.1033 275.542 86.32 275.369 86.6C275.202 86.88 275.119 87.19 275.119 87.53H273.039ZM274.129 92.26C273.822 92.26 273.562 92.1533 273.349 91.94C273.136 91.72 273.029 91.4567 273.029 91.15C273.029 90.85 273.136 90.5967 273.349 90.39C273.562 90.1767 273.822 90.07 274.129 90.07C274.429 90.07 274.686 90.1767 274.899 90.39C275.112 90.5967 275.219 90.85 275.219 91.15C275.219 91.4567 275.112 91.72 274.899 91.94C274.686 92.1533 274.429 92.26 274.129 92.26Z" fill="white"></path><path d="M41.292 142V130.8H47.86V132.144H42.636V135.328H47.092V136.672H42.636V142H41.292ZM48.4304 134H49.7744V142H48.4304V134ZM49.1184 132.696C48.9051 132.696 48.7264 132.627 48.5824 132.488C48.4384 132.349 48.3664 132.176 48.3664 131.968C48.3664 131.76 48.4384 131.587 48.5824 131.448C48.7264 131.309 48.9024 131.24 49.1104 131.24C49.3184 131.24 49.4944 131.309 49.6384 131.448C49.7824 131.587 49.8544 131.76 49.8544 131.968C49.8544 132.176 49.7824 132.349 49.6384 132.488C49.4997 132.627 49.3264 132.696 49.1184 132.696ZM58.6408 137.024V142H57.2968V137.32C57.2968 136.915 57.1981 136.547 57.0008 136.216C56.8034 135.885 56.5394 135.624 56.2088 135.432C55.8781 135.235 55.5101 135.136 55.1048 135.136C54.7048 135.136 54.3368 135.235 54.0008 135.432C53.6701 135.624 53.4061 135.885 53.2088 136.216C53.0114 136.547 52.9128 136.915 52.9128 137.32V142H51.5688V134H52.9128V135C53.1954 134.627 53.5528 134.331 53.9848 134.112C54.4168 133.888 54.8861 133.776 55.3928 133.776C55.9901 133.776 56.5341 133.923 57.0248 134.216C57.5208 134.504 57.9128 134.893 58.2008 135.384C58.4941 135.875 58.6408 136.421 58.6408 137.024ZM66.4284 130H67.7724V142H66.4284V140.64C66.1564 141.109 65.7911 141.488 65.3324 141.776C64.8737 142.064 64.3351 142.208 63.7164 142.208C63.1351 142.208 62.5911 142.099 62.0844 141.88C61.5777 141.661 61.1297 141.36 60.7404 140.976C60.3564 140.587 60.0551 140.139 59.8364 139.632C59.6177 139.125 59.5084 138.581 59.5084 138C59.5084 137.419 59.6177 136.875 59.8364 136.368C60.0551 135.856 60.3564 135.408 60.7404 135.024C61.1297 134.635 61.5777 134.331 62.0844 134.112C62.5911 133.893 63.1351 133.784 63.7164 133.784C64.3351 133.784 64.8737 133.928 65.3324 134.216C65.7911 134.504 66.1564 134.883 66.4284 135.352V130ZM63.7324 140.904C64.2604 140.904 64.7164 140.776 65.1004 140.52C65.4897 140.259 65.7884 139.907 65.9964 139.464C66.2097 139.021 66.3164 138.533 66.3164 138C66.3164 137.456 66.2097 136.965 65.9964 136.528C65.7831 136.085 65.4817 135.736 65.0924 135.48C64.7084 135.219 64.2551 135.088 63.7324 135.088C63.2044 135.088 62.7244 135.219 62.2924 135.48C61.8657 135.741 61.5244 136.093 61.2684 136.536C61.0124 136.973 60.8844 137.461 60.8844 138C60.8844 138.539 61.0151 139.029 61.2764 139.472C61.5377 139.909 61.8844 140.259 62.3164 140.52C62.7484 140.776 63.2204 140.904 63.7324 140.904ZM76.8633 142.208C76.1273 142.208 75.4553 142.019 74.8473 141.64C74.2446 141.261 73.7619 140.755 73.3993 140.12C73.0419 139.48 72.8633 138.773 72.8633 138C72.8633 137.413 72.9673 136.867 73.1753 136.36C73.3833 135.848 73.6686 135.4 74.0313 135.016C74.3993 134.627 74.8259 134.323 75.3113 134.104C75.7966 133.885 76.3139 133.776 76.8633 133.776C77.5993 133.776 78.2686 133.965 78.8713 134.344C79.4793 134.723 79.9619 135.232 80.3193 135.872C80.6819 136.512 80.8633 137.221 80.8633 138C80.8633 138.581 80.7593 139.125 80.5513 139.632C80.3433 140.139 80.0553 140.587 79.6873 140.976C79.3246 141.36 78.9006 141.661 78.4153 141.88C77.9353 142.099 77.4179 142.208 76.8633 142.208ZM76.8633 140.864C77.3646 140.864 77.8153 140.733 78.2153 140.472C78.6206 140.205 78.9379 139.856 79.1673 139.424C79.4019 138.987 79.5193 138.512 79.5193 138C79.5193 137.477 79.3993 136.997 79.1593 136.56C78.9246 136.123 78.6073 135.773 78.2073 135.512C77.8073 135.251 77.3593 135.12 76.8633 135.12C76.3619 135.12 75.9113 135.253 75.5113 135.52C75.1113 135.781 74.7939 136.131 74.5593 136.568C74.3246 137.005 74.2073 137.483 74.2073 138C74.2073 138.533 74.3273 139.019 74.5673 139.456C74.8073 139.888 75.1299 140.232 75.5353 140.488C75.9406 140.739 76.3833 140.864 76.8633 140.864ZM81.6617 138.96V134H83.0057V138.664C83.0057 139.069 83.1043 139.437 83.3017 139.768C83.499 140.099 83.763 140.363 84.0937 140.56C84.4297 140.752 84.7977 140.848 85.1977 140.848C85.603 140.848 85.9683 140.752 86.2937 140.56C86.6243 140.363 86.8883 140.099 87.0857 139.768C87.283 139.437 87.3817 139.069 87.3817 138.664V134H88.7257L88.7337 142H87.3897L87.3817 140.984C87.099 141.357 86.7417 141.656 86.3097 141.88C85.8777 142.099 85.411 142.208 84.9097 142.208C84.3123 142.208 83.7657 142.064 83.2697 141.776C82.779 141.483 82.387 141.091 82.0937 140.6C81.8057 140.109 81.6617 139.563 81.6617 138.96ZM94.389 135.344H92.573L92.565 142H91.221L91.229 135.344H89.853V134H91.229L91.221 131.488H92.565L92.573 134H94.389V135.344ZM105.907 134H107.251V142H105.907L105.851 140.648C105.6 141.112 105.254 141.488 104.811 141.776C104.374 142.064 103.851 142.208 103.243 142.208C102.656 142.208 102.107 142.099 101.595 141.88C101.083 141.656 100.63 141.349 100.235 140.96C99.8456 140.565 99.5416 140.112 99.3229 139.6C99.1042 139.088 98.9949 138.536 98.9949 137.944C98.9949 137.373 99.1016 136.835 99.3149 136.328C99.5282 135.821 99.8242 135.379 100.203 135C100.587 134.616 101.03 134.317 101.531 134.104C102.032 133.885 102.571 133.776 103.147 133.776C103.776 133.776 104.328 133.925 104.803 134.224C105.278 134.517 105.662 134.899 105.955 135.368L105.907 134ZM103.219 140.904C103.747 140.904 104.203 140.776 104.587 140.52C104.976 140.259 105.275 139.907 105.483 139.464C105.696 139.021 105.803 138.533 105.803 138C105.803 137.456 105.696 136.965 105.483 136.528C105.27 136.085 104.968 135.736 104.579 135.48C104.195 135.219 103.742 135.088 103.219 135.088C102.691 135.088 102.211 135.219 101.779 135.48C101.347 135.741 101.003 136.093 100.747 136.536C100.496 136.973 100.371 137.461 100.371 138C100.371 138.539 100.502 139.029 100.763 139.472C101.024 139.909 101.371 140.259 101.803 140.52C102.235 140.776 102.707 140.904 103.219 140.904ZM112.896 133.776C113.674 133.776 114.381 133.965 115.016 134.344C115.656 134.723 116.165 135.232 116.544 135.872C116.922 136.507 117.112 137.213 117.112 137.992C117.112 138.573 117.002 139.12 116.784 139.632C116.565 140.139 116.261 140.587 115.872 140.976C115.488 141.36 115.04 141.661 114.528 141.88C114.021 142.099 113.477 142.208 112.896 142.208C112.277 142.208 111.738 142.064 111.28 141.776C110.826 141.483 110.464 141.101 110.192 140.632V142H108.848V130H110.192V135.352C110.464 134.883 110.826 134.504 111.28 134.216C111.738 133.923 112.277 133.776 112.896 133.776ZM112.88 140.896C113.408 140.896 113.888 140.765 114.32 140.504C114.752 140.243 115.096 139.893 115.352 139.456C115.608 139.013 115.736 138.525 115.736 137.992C115.736 137.448 115.605 136.957 115.344 136.52C115.082 136.077 114.736 135.728 114.304 135.472C113.872 135.211 113.397 135.08 112.88 135.08C112.357 135.08 111.901 135.211 111.512 135.472C111.128 135.733 110.829 136.085 110.616 136.528C110.408 136.971 110.304 137.459 110.304 137.992C110.304 138.531 110.408 139.021 110.616 139.464C110.829 139.901 111.13 140.251 111.52 140.512C111.909 140.768 112.362 140.896 112.88 140.896ZM121.819 142.208C121.083 142.208 120.411 142.019 119.803 141.64C119.2 141.261 118.717 140.755 118.355 140.12C117.997 139.48 117.819 138.773 117.819 138C117.819 137.413 117.923 136.867 118.131 136.36C118.339 135.848 118.624 135.4 118.987 135.016C119.355 134.627 119.781 134.323 120.267 134.104C120.752 133.885 121.269 133.776 121.819 133.776C122.555 133.776 123.224 133.965 123.827 134.344C124.435 134.723 124.917 135.232 125.275 135.872C125.637 136.512 125.819 137.221 125.819 138C125.819 138.581 125.715 139.125 125.507 139.632C125.299 140.139 125.011 140.587 124.643 140.976C124.28 141.36 123.856 141.661 123.371 141.88C122.891 142.099 122.373 142.208 121.819 142.208ZM121.819 140.864C122.32 140.864 122.771 140.733 123.171 140.472C123.576 140.205 123.893 139.856 124.123 139.424C124.357 138.987 124.475 138.512 124.475 138C124.475 137.477 124.355 136.997 124.115 136.56C123.88 136.123 123.563 135.773 123.163 135.512C122.763 135.251 122.315 135.12 121.819 135.12C121.317 135.12 120.867 135.253 120.467 135.52C120.067 135.781 119.749 136.131 119.515 136.568C119.28 137.005 119.163 137.483 119.163 138C119.163 138.533 119.283 139.019 119.523 139.456C119.763 139.888 120.085 140.232 120.491 140.488C120.896 140.739 121.339 140.864 121.819 140.864ZM126.617 138.96V134H127.961V138.664C127.961 139.069 128.06 139.437 128.257 139.768C128.454 140.099 128.718 140.363 129.049 140.56C129.385 140.752 129.753 140.848 130.153 140.848C130.558 140.848 130.924 140.752 131.249 140.56C131.58 140.363 131.844 140.099 132.041 139.768C132.238 139.437 132.337 139.069 132.337 138.664V134H133.681L133.689 142H132.345L132.337 140.984C132.054 141.357 131.697 141.656 131.265 141.88C130.833 142.099 130.366 142.208 129.865 142.208C129.268 142.208 128.721 142.064 128.225 141.776C127.734 141.483 127.342 141.091 127.049 140.6C126.761 140.109 126.617 139.563 126.617 138.96ZM139.344 135.344H137.528L137.52 142H136.176L136.184 135.344H134.808V134H136.184L136.176 131.488H137.52L137.528 134H139.344V135.344ZM148.574 135.344H146.758L146.75 142H145.406L145.414 135.344H144.038V134H145.414L145.406 131.488H146.75L146.758 134H148.574V135.344ZM156.984 137.024V142H155.64V137.32C155.64 136.915 155.542 136.547 155.344 136.216C155.147 135.885 154.883 135.624 154.552 135.432C154.222 135.235 153.854 135.136 153.448 135.136C153.048 135.136 152.68 135.235 152.344 135.432C152.014 135.624 151.75 135.885 151.552 136.216C151.355 136.547 151.256 136.915 151.256 137.32V142H149.912V130H151.256V135C151.539 134.627 151.896 134.331 152.328 134.112C152.76 133.888 153.23 133.776 153.736 133.776C154.334 133.776 154.878 133.923 155.368 134.216C155.864 134.504 156.256 134.893 156.544 135.384C156.838 135.875 156.984 136.421 156.984 137.024ZM161.852 142.208C161.116 142.208 160.444 142.019 159.836 141.64C159.233 141.261 158.751 140.755 158.388 140.12C158.031 139.48 157.852 138.773 157.852 138C157.852 137.413 157.956 136.867 158.164 136.36C158.372 135.848 158.657 135.4 159.02 135.016C159.388 134.627 159.815 134.323 160.3 134.104C160.785 133.885 161.303 133.776 161.852 133.776C162.455 133.776 163.007 133.899 163.508 134.144C164.015 134.384 164.447 134.72 164.804 135.152C165.167 135.584 165.436 136.085 165.612 136.656C165.793 137.227 165.86 137.837 165.812 138.488H159.284C159.348 138.941 159.497 139.347 159.732 139.704C159.967 140.056 160.265 140.336 160.628 140.544C160.996 140.752 161.404 140.859 161.852 140.864C162.332 140.864 162.767 140.741 163.156 140.496C163.545 140.245 163.86 139.904 164.1 139.472L165.468 139.792C165.148 140.501 164.665 141.083 164.02 141.536C163.375 141.984 162.652 142.208 161.852 142.208ZM159.244 137.432H164.46C164.417 136.984 164.273 136.576 164.028 136.208C163.783 135.835 163.471 135.536 163.092 135.312C162.713 135.088 162.3 134.976 161.852 134.976C161.404 134.976 160.993 135.085 160.62 135.304C160.247 135.523 159.937 135.819 159.692 136.192C159.452 136.56 159.303 136.973 159.244 137.432ZM177.993 137.024V142H176.649V137.32C176.649 136.915 176.55 136.547 176.353 136.216C176.156 135.885 175.892 135.624 175.561 135.432C175.23 135.235 174.862 135.136 174.457 135.136C174.057 135.136 173.689 135.235 173.353 135.432C173.022 135.624 172.758 135.885 172.561 136.216C172.364 136.547 172.265 136.915 172.265 137.32V142H170.921V134H172.265V135C172.548 134.627 172.905 134.331 173.337 134.112C173.769 133.888 174.238 133.776 174.745 133.776C175.342 133.776 175.886 133.923 176.377 134.216C176.873 134.504 177.265 134.893 177.553 135.384C177.846 135.875 177.993 136.421 177.993 137.024ZM182.861 142.208C182.125 142.208 181.453 142.019 180.845 141.64C180.242 141.261 179.759 140.755 179.397 140.12C179.039 139.48 178.861 138.773 178.861 138C178.861 137.413 178.965 136.867 179.173 136.36C179.381 135.848 179.666 135.4 180.029 135.016C180.397 134.627 180.823 134.323 181.309 134.104C181.794 133.885 182.311 133.776 182.861 133.776C183.463 133.776 184.015 133.899 184.517 134.144C185.023 134.384 185.455 134.72 185.813 135.152C186.175 135.584 186.445 136.085 186.621 136.656C186.802 137.227 186.869 137.837 186.821 138.488H180.293C180.357 138.941 180.506 139.347 180.741 139.704C180.975 140.056 181.274 140.336 181.637 140.544C182.005 140.752 182.413 140.859 182.861 140.864C183.341 140.864 183.775 140.741 184.165 140.496C184.554 140.245 184.869 139.904 185.109 139.472L186.477 139.792C186.157 140.501 185.674 141.083 185.029 141.536C184.383 141.984 183.661 142.208 182.861 142.208ZM180.253 137.432H185.469C185.426 136.984 185.282 136.576 185.037 136.208C184.791 135.835 184.479 135.536 184.101 135.312C183.722 135.088 183.309 134.976 182.861 134.976C182.413 134.976 182.002 135.085 181.629 135.304C181.255 135.523 180.946 135.819 180.701 136.192C180.461 136.56 180.311 136.973 180.253 137.432ZM193.538 139.888L194.738 140.536C194.375 141.043 193.914 141.448 193.354 141.752C192.799 142.056 192.197 142.208 191.546 142.208C190.81 142.208 190.138 142.019 189.53 141.64C188.927 141.261 188.445 140.755 188.082 140.12C187.725 139.48 187.546 138.773 187.546 138C187.546 137.413 187.65 136.867 187.858 136.36C188.066 135.848 188.351 135.4 188.714 135.016C189.082 134.627 189.509 134.323 189.994 134.104C190.479 133.885 190.997 133.776 191.546 133.776C192.197 133.776 192.799 133.928 193.354 134.232C193.914 134.536 194.375 134.944 194.738 135.456L193.538 136.104C193.282 135.789 192.978 135.547 192.626 135.376C192.274 135.205 191.914 135.12 191.546 135.12C191.05 135.12 190.599 135.253 190.194 135.52C189.794 135.781 189.477 136.131 189.242 136.568C189.007 137.005 188.89 137.483 188.89 138C188.89 138.517 189.007 138.995 189.242 139.432C189.482 139.864 189.802 140.211 190.202 140.472C190.607 140.733 191.055 140.864 191.546 140.864C191.941 140.864 192.311 140.773 192.658 140.592C193.005 140.411 193.298 140.176 193.538 139.888ZM199.466 142.208C198.73 142.208 198.058 142.019 197.45 141.64C196.847 141.261 196.364 140.755 196.002 140.12C195.644 139.48 195.466 138.773 195.466 138C195.466 137.413 195.57 136.867 195.778 136.36C195.986 135.848 196.271 135.4 196.634 135.016C197.002 134.627 197.428 134.323 197.914 134.104C198.399 133.885 198.916 133.776 199.466 133.776C200.068 133.776 200.62 133.899 201.122 134.144C201.628 134.384 202.06 134.72 202.418 135.152C202.78 135.584 203.05 136.085 203.226 136.656C203.407 137.227 203.474 137.837 203.426 138.488H196.898C196.962 138.941 197.111 139.347 197.346 139.704C197.58 140.056 197.879 140.336 198.242 140.544C198.61 140.752 199.018 140.859 199.466 140.864C199.946 140.864 200.38 140.741 200.77 140.496C201.159 140.245 201.474 139.904 201.714 139.472L203.082 139.792C202.762 140.501 202.279 141.083 201.634 141.536C200.988 141.984 200.266 142.208 199.466 142.208ZM196.858 137.432H202.074C202.031 136.984 201.887 136.576 201.642 136.208C201.396 135.835 201.084 135.536 200.706 135.312C200.327 135.088 199.914 134.976 199.466 134.976C199.018 134.976 198.607 135.085 198.234 135.304C197.86 135.523 197.551 135.819 197.306 136.192C197.066 136.56 196.916 136.973 196.858 137.432ZM207.149 142.152C206.717 142.136 206.296 142.056 205.885 141.912C205.48 141.763 205.122 141.563 204.813 141.312C204.509 141.056 204.288 140.763 204.149 140.432L205.301 139.936C205.381 140.117 205.525 140.288 205.733 140.448C205.941 140.608 206.181 140.736 206.453 140.832C206.725 140.928 207 140.976 207.277 140.976C207.57 140.976 207.845 140.931 208.101 140.84C208.357 140.749 208.565 140.616 208.725 140.44C208.89 140.259 208.973 140.043 208.973 139.792C208.973 139.525 208.882 139.317 208.701 139.168C208.525 139.013 208.301 138.893 208.029 138.808C207.762 138.717 207.49 138.632 207.213 138.552C206.664 138.413 206.173 138.248 205.741 138.056C205.309 137.859 204.968 137.611 204.717 137.312C204.472 137.008 204.349 136.621 204.349 136.152C204.349 135.656 204.485 135.227 204.757 134.864C205.034 134.501 205.397 134.221 205.845 134.024C206.293 133.827 206.773 133.728 207.285 133.728C207.93 133.728 208.52 133.867 209.053 134.144C209.586 134.421 209.984 134.797 210.245 135.272L209.165 135.904C209.074 135.712 208.936 135.544 208.749 135.4C208.562 135.251 208.349 135.133 208.109 135.048C207.869 134.963 207.624 134.917 207.373 134.912C207.064 134.901 206.773 134.941 206.501 135.032C206.234 135.123 206.018 135.261 205.853 135.448C205.693 135.629 205.613 135.856 205.613 136.128C205.613 136.395 205.698 136.597 205.869 136.736C206.045 136.875 206.272 136.987 206.549 137.072C206.832 137.152 207.138 137.245 207.469 137.352C207.954 137.507 208.408 137.685 208.829 137.888C209.25 138.091 209.589 138.344 209.845 138.648C210.106 138.952 210.234 139.328 210.229 139.776C210.229 140.267 210.082 140.696 209.789 141.064C209.496 141.427 209.114 141.704 208.645 141.896C208.181 142.088 207.682 142.173 207.149 142.152ZM213.944 142.152C213.512 142.136 213.09 142.056 212.68 141.912C212.274 141.763 211.917 141.563 211.608 141.312C211.304 141.056 211.082 140.763 210.944 140.432L212.096 139.936C212.176 140.117 212.32 140.288 212.528 140.448C212.736 140.608 212.976 140.736 213.248 140.832C213.52 140.928 213.794 140.976 214.072 140.976C214.365 140.976 214.64 140.931 214.896 140.84C215.152 140.749 215.36 140.616 215.52 140.44C215.685 140.259 215.768 140.043 215.768 139.792C215.768 139.525 215.677 139.317 215.496 139.168C215.32 139.013 215.096 138.893 214.824 138.808C214.557 138.717 214.285 138.632 214.008 138.552C213.458 138.413 212.968 138.248 212.536 138.056C212.104 137.859 211.762 137.611 211.512 137.312C211.266 137.008 211.144 136.621 211.144 136.152C211.144 135.656 211.28 135.227 211.552 134.864C211.829 134.501 212.192 134.221 212.64 134.024C213.088 133.827 213.568 133.728 214.08 133.728C214.725 133.728 215.314 133.867 215.848 134.144C216.381 134.421 216.778 134.797 217.04 135.272L215.96 135.904C215.869 135.712 215.73 135.544 215.544 135.4C215.357 135.251 215.144 135.133 214.904 135.048C214.664 134.963 214.418 134.917 214.168 134.912C213.858 134.901 213.568 134.941 213.296 135.032C213.029 135.123 212.813 135.261 212.648 135.448C212.488 135.629 212.408 135.856 212.408 136.128C212.408 136.395 212.493 136.597 212.664 136.736C212.84 136.875 213.066 136.987 213.344 137.072C213.626 137.152 213.933 137.245 214.264 137.352C214.749 137.507 215.202 137.685 215.624 137.888C216.045 138.091 216.384 138.344 216.64 138.648C216.901 138.952 217.029 139.328 217.024 139.776C217.024 140.267 216.877 140.696 216.584 141.064C216.29 141.427 215.909 141.704 215.44 141.896C214.976 142.088 214.477 142.173 213.944 142.152ZM224.652 134H225.996V142H224.652L224.596 140.648C224.345 141.112 223.999 141.488 223.556 141.776C223.119 142.064 222.596 142.208 221.988 142.208C221.401 142.208 220.852 142.099 220.34 141.88C219.828 141.656 219.375 141.349 218.98 140.96C218.591 140.565 218.287 140.112 218.068 139.6C217.849 139.088 217.74 138.536 217.74 137.944C217.74 137.373 217.847 136.835 218.06 136.328C218.273 135.821 218.569 135.379 218.948 135C219.332 134.616 219.775 134.317 220.276 134.104C220.777 133.885 221.316 133.776 221.892 133.776C222.521 133.776 223.073 133.925 223.548 134.224C224.023 134.517 224.407 134.899 224.7 135.368L224.652 134ZM221.964 140.904C222.492 140.904 222.948 140.776 223.332 140.52C223.721 140.259 224.02 139.907 224.228 139.464C224.441 139.021 224.548 138.533 224.548 138C224.548 137.456 224.441 136.965 224.228 136.528C224.015 136.085 223.713 135.736 223.324 135.48C222.94 135.219 222.487 135.088 221.964 135.088C221.436 135.088 220.956 135.219 220.524 135.48C220.092 135.741 219.748 136.093 219.492 136.536C219.241 136.973 219.116 137.461 219.116 138C219.116 138.539 219.247 139.029 219.508 139.472C219.769 139.909 220.116 140.259 220.548 140.52C220.98 140.776 221.452 140.904 221.964 140.904ZM227.499 142V134H228.843V135C229.126 134.627 229.483 134.331 229.915 134.112C230.347 133.888 230.816 133.776 231.323 133.776C231.632 133.776 231.931 133.816 232.219 133.896L231.675 135.24C231.456 135.171 231.243 135.136 231.035 135.136C230.635 135.136 230.267 135.235 229.931 135.432C229.6 135.624 229.336 135.885 229.139 136.216C228.942 136.547 228.843 136.915 228.843 137.32V142H227.499ZM238.586 134H240.01L235.634 146H234.21L235.658 142L232.786 134H234.258L236.33 140.152L238.586 134ZM251.698 130H253.042V142H251.698V140.64C251.426 141.109 251.061 141.488 250.602 141.776C250.143 142.064 249.605 142.208 248.986 142.208C248.405 142.208 247.861 142.099 247.354 141.88C246.847 141.661 246.399 141.36 246.01 140.976C245.626 140.587 245.325 140.139 245.106 139.632C244.887 139.125 244.778 138.581 244.778 138C244.778 137.419 244.887 136.875 245.106 136.368C245.325 135.856 245.626 135.408 246.01 135.024C246.399 134.635 246.847 134.331 247.354 134.112C247.861 133.893 248.405 133.784 248.986 133.784C249.605 133.784 250.143 133.928 250.602 134.216C251.061 134.504 251.426 134.883 251.698 135.352V130ZM249.002 140.904C249.53 140.904 249.986 140.776 250.37 140.52C250.759 140.259 251.058 139.907 251.266 139.464C251.479 139.021 251.586 138.533 251.586 138C251.586 137.456 251.479 136.965 251.266 136.528C251.053 136.085 250.751 135.736 250.362 135.48C249.978 135.219 249.525 135.088 249.002 135.088C248.474 135.088 247.994 135.219 247.562 135.48C247.135 135.741 246.794 136.093 246.538 136.536C246.282 136.973 246.154 137.461 246.154 138C246.154 138.539 246.285 139.029 246.546 139.472C246.807 139.909 247.154 140.259 247.586 140.52C248.018 140.776 248.49 140.904 249.002 140.904ZM258.307 142.208C257.571 142.208 256.899 142.019 256.291 141.64C255.688 141.261 255.206 140.755 254.843 140.12C254.486 139.48 254.307 138.773 254.307 138C254.307 137.413 254.411 136.867 254.619 136.36C254.827 135.848 255.112 135.4 255.475 135.016C255.843 134.627 256.27 134.323 256.755 134.104C257.24 133.885 257.758 133.776 258.307 133.776C259.043 133.776 259.712 133.965 260.315 134.344C260.923 134.723 261.406 135.232 261.763 135.872C262.126 136.512 262.307 137.221 262.307 138C262.307 138.581 262.203 139.125 261.995 139.632C261.787 140.139 261.499 140.587 261.131 140.976C260.768 141.36 260.344 141.661 259.859 141.88C259.379 142.099 258.862 142.208 258.307 142.208ZM258.307 140.864C258.808 140.864 259.259 140.733 259.659 140.472C260.064 140.205 260.382 139.856 260.611 139.424C260.846 138.987 260.963 138.512 260.963 138C260.963 137.477 260.843 136.997 260.603 136.56C260.368 136.123 260.051 135.773 259.651 135.512C259.251 135.251 258.803 135.12 258.307 135.12C257.806 135.12 257.355 135.253 256.955 135.52C256.555 135.781 256.238 136.131 256.003 136.568C255.768 137.005 255.651 137.483 255.651 138C255.651 138.533 255.771 139.019 256.011 139.456C256.251 139.888 256.574 140.232 256.979 140.488C257.384 140.739 257.827 140.864 258.307 140.864ZM269 139.888L270.2 140.536C269.837 141.043 269.376 141.448 268.816 141.752C268.261 142.056 267.659 142.208 267.008 142.208C266.272 142.208 265.6 142.019 264.992 141.64C264.389 141.261 263.907 140.755 263.544 140.12C263.187 139.48 263.008 138.773 263.008 138C263.008 137.413 263.112 136.867 263.32 136.36C263.528 135.848 263.813 135.4 264.176 135.016C264.544 134.627 264.971 134.323 265.456 134.104C265.941 133.885 266.459 133.776 267.008 133.776C267.659 133.776 268.261 133.928 268.816 134.232C269.376 134.536 269.837 134.944 270.2 135.456L269 136.104C268.744 135.789 268.44 135.547 268.088 135.376C267.736 135.205 267.376 135.12 267.008 135.12C266.512 135.12 266.061 135.253 265.656 135.52C265.256 135.781 264.939 136.131 264.704 136.568C264.469 137.005 264.352 137.483 264.352 138C264.352 138.517 264.469 138.995 264.704 139.432C264.944 139.864 265.264 140.211 265.664 140.472C266.069 140.733 266.517 140.864 267.008 140.864C267.403 140.864 267.773 140.773 268.12 140.592C268.467 140.411 268.76 140.176 269 139.888ZM271.119 138.96V134H272.463V138.664C272.463 139.069 272.561 139.437 272.759 139.768C272.956 140.099 273.22 140.363 273.551 140.56C273.887 140.752 274.255 140.848 274.655 140.848C275.06 140.848 275.425 140.752 275.751 140.56C276.081 140.363 276.345 140.099 276.543 139.768C276.74 139.437 276.839 139.069 276.839 138.664V134H278.183L278.191 142H276.847L276.839 140.984C276.556 141.357 276.199 141.656 275.767 141.88C275.335 142.099 274.868 142.208 274.367 142.208C273.769 142.208 273.223 142.064 272.727 141.776C272.236 141.483 271.844 141.091 271.551 140.6C271.263 140.109 271.119 139.563 271.119 138.96ZM279.702 142V134H281.046V135C281.329 134.627 281.683 134.331 282.11 134.112C282.542 133.888 283.011 133.776 283.518 133.776C284.11 133.776 284.651 133.92 285.142 134.208C285.633 134.496 286.019 134.877 286.302 135.352C286.585 134.877 286.969 134.496 287.454 134.208C287.945 133.92 288.483 133.776 289.07 133.776C289.673 133.776 290.219 133.923 290.71 134.216C291.201 134.504 291.59 134.893 291.878 135.384C292.171 135.875 292.318 136.421 292.318 137.024V142H290.974V137.344C290.974 136.949 290.878 136.584 290.686 136.248C290.494 135.912 290.235 135.643 289.91 135.44C289.585 135.237 289.225 135.136 288.83 135.136C288.435 135.136 288.075 135.232 287.75 135.424C287.425 135.611 287.166 135.872 286.974 136.208C286.782 136.539 286.686 136.917 286.686 137.344V142H285.342V137.344C285.342 136.917 285.246 136.539 285.054 136.208C284.862 135.872 284.601 135.611 284.27 135.424C283.945 135.232 283.585 135.136 283.19 135.136C282.801 135.136 282.441 135.237 282.11 135.44C281.785 135.643 281.526 135.912 281.334 136.248C281.142 136.584 281.046 136.949 281.046 137.344V142H279.702ZM297.189 142.208C296.453 142.208 295.781 142.019 295.173 141.64C294.57 141.261 294.087 140.755 293.725 140.12C293.367 139.48 293.189 138.773 293.189 138C293.189 137.413 293.293 136.867 293.501 136.36C293.709 135.848 293.994 135.4 294.357 135.016C294.725 134.627 295.151 134.323 295.637 134.104C296.122 133.885 296.639 133.776 297.189 133.776C297.791 133.776 298.343 133.899 298.845 134.144C299.351 134.384 299.783 134.72 300.141 135.152C300.503 135.584 300.773 136.085 300.949 136.656C301.13 137.227 301.197 137.837 301.149 138.488H294.621C294.685 138.941 294.834 139.347 295.069 139.704C295.303 140.056 295.602 140.336 295.965 140.544C296.333 140.752 296.741 140.859 297.189 140.864C297.669 140.864 298.103 140.741 298.493 140.496C298.882 140.245 299.197 139.904 299.437 139.472L300.805 139.792C300.485 140.501 300.002 141.083 299.357 141.536C298.711 141.984 297.989 142.208 297.189 142.208ZM294.581 137.432H299.797C299.754 136.984 299.61 136.576 299.365 136.208C299.119 135.835 298.807 135.536 298.429 135.312C298.05 135.088 297.637 134.976 297.189 134.976C296.741 134.976 296.33 135.085 295.957 135.304C295.583 135.523 295.274 135.819 295.029 136.192C294.789 136.56 294.639 136.973 294.581 137.432ZM309.473 137.024V142H308.129V137.32C308.129 136.915 308.03 136.547 307.833 136.216C307.635 135.885 307.371 135.624 307.041 135.432C306.71 135.235 306.342 135.136 305.937 135.136C305.537 135.136 305.169 135.235 304.833 135.432C304.502 135.624 304.238 135.885 304.041 136.216C303.843 136.547 303.745 136.915 303.745 137.32V142H302.401V134H303.745V135C304.027 134.627 304.385 134.331 304.817 134.112C305.249 133.888 305.718 133.776 306.225 133.776C306.822 133.776 307.366 133.923 307.857 134.216C308.353 134.504 308.745 134.893 309.033 135.384C309.326 135.875 309.473 136.421 309.473 137.024ZM315.121 135.344H313.305L313.297 142H311.953L311.961 135.344H310.585V134H311.961L311.953 131.488H313.297L313.305 134H315.121V135.344ZM322.688 134H324.032V142H322.688L322.632 140.648C322.381 141.112 322.034 141.488 321.592 141.776C321.154 142.064 320.632 142.208 320.024 142.208C319.437 142.208 318.888 142.099 318.376 141.88C317.864 141.656 317.41 141.349 317.016 140.96C316.626 140.565 316.322 140.112 316.104 139.6C315.885 139.088 315.776 138.536 315.776 137.944C315.776 137.373 315.882 136.835 316.096 136.328C316.309 135.821 316.605 135.379 316.984 135C317.368 134.616 317.81 134.317 318.312 134.104C318.813 133.885 319.352 133.776 319.928 133.776C320.557 133.776 321.109 133.925 321.584 134.224C322.058 134.517 322.442 134.899 322.736 135.368L322.688 134ZM320 140.904C320.528 140.904 320.984 140.776 321.368 140.52C321.757 140.259 322.056 139.907 322.264 139.464C322.477 139.021 322.584 138.533 322.584 138C322.584 137.456 322.477 136.965 322.264 136.528C322.05 136.085 321.749 135.736 321.36 135.48C320.976 135.219 320.522 135.088 320 135.088C319.472 135.088 318.992 135.219 318.56 135.48C318.128 135.741 317.784 136.093 317.528 136.536C317.277 136.973 317.152 137.461 317.152 138C317.152 138.539 317.282 139.029 317.544 139.472C317.805 139.909 318.152 140.259 318.584 140.52C319.016 140.776 319.488 140.904 320 140.904ZM329.679 135.344H327.863L327.855 142H326.511L326.519 135.344H325.143V134H326.519L326.511 131.488H327.855L327.863 134H329.679V135.344ZM330.939 134H332.283V142H330.939V134ZM331.627 132.696C331.413 132.696 331.235 132.627 331.091 132.488C330.947 132.349 330.875 132.176 330.875 131.968C330.875 131.76 330.947 131.587 331.091 131.448C331.235 131.309 331.411 131.24 331.619 131.24C331.827 131.24 332.003 131.309 332.147 131.448C332.291 131.587 332.363 131.76 332.363 131.968C332.363 132.176 332.291 132.349 332.147 132.488C332.008 132.627 331.835 132.696 331.627 132.696ZM337.519 142.208C336.783 142.208 336.111 142.019 335.503 141.64C334.9 141.261 334.418 140.755 334.055 140.12C333.698 139.48 333.519 138.773 333.519 138C333.519 137.413 333.623 136.867 333.831 136.36C334.039 135.848 334.324 135.4 334.687 135.016C335.055 134.627 335.482 134.323 335.967 134.104C336.452 133.885 336.97 133.776 337.519 133.776C338.255 133.776 338.924 133.965 339.527 134.344C340.135 134.723 340.618 135.232 340.975 135.872C341.338 136.512 341.519 137.221 341.519 138C341.519 138.581 341.415 139.125 341.207 139.632C340.999 140.139 340.711 140.587 340.343 140.976C339.98 141.36 339.556 141.661 339.071 141.88C338.591 142.099 338.074 142.208 337.519 142.208ZM337.519 140.864C338.02 140.864 338.471 140.733 338.871 140.472C339.276 140.205 339.594 139.856 339.823 139.424C340.058 138.987 340.175 138.512 340.175 138C340.175 137.477 340.055 136.997 339.815 136.56C339.58 136.123 339.263 135.773 338.863 135.512C338.463 135.251 338.015 135.12 337.519 135.12C337.018 135.12 336.567 135.253 336.167 135.52C335.767 135.781 335.45 136.131 335.215 136.568C334.98 137.005 334.863 137.483 334.863 138C334.863 138.533 334.983 139.019 335.223 139.456C335.463 139.888 335.786 140.232 336.191 140.488C336.596 140.739 337.039 140.864 337.519 140.864ZM349.819 137.024V142H348.475V137.32C348.475 136.915 348.376 136.547 348.179 136.216C347.981 135.885 347.717 135.624 347.387 135.432C347.056 135.235 346.688 135.136 346.283 135.136C345.883 135.136 345.515 135.235 345.179 135.432C344.848 135.624 344.584 135.885 344.387 136.216C344.189 136.547 344.091 136.915 344.091 137.32V142H342.747V134H344.091V135C344.373 134.627 344.731 134.331 345.163 134.112C345.595 133.888 346.064 133.776 346.571 133.776C347.168 133.776 347.712 133.923 348.203 134.216C348.699 134.504 349.091 134.893 349.379 135.384C349.672 135.875 349.819 136.421 349.819 137.024ZM43.108 156.024V158H45.452V159.344H43.108V166H41.764V159.344H40.732V158H41.764V156.024C41.764 155.613 41.8627 155.243 42.06 154.912C42.2627 154.576 42.532 154.309 42.868 154.112C43.2094 153.909 43.5827 153.808 43.988 153.808C44.2867 153.808 44.5774 153.869 44.86 153.992C45.1427 154.109 45.3934 154.285 45.612 154.52L44.652 155.472C44.5774 155.371 44.4787 155.293 44.356 155.24C44.2387 155.181 44.116 155.152 43.988 155.152C43.748 155.152 43.54 155.237 43.364 155.408C43.1934 155.579 43.108 155.784 43.108 156.024ZM49.9973 166.208C49.2613 166.208 48.5893 166.019 47.9813 165.64C47.3786 165.261 46.8959 164.755 46.5333 164.12C46.1759 163.48 45.9973 162.773 45.9973 162C45.9973 161.413 46.1013 160.867 46.3093 160.36C46.5173 159.848 46.8026 159.4 47.1653 159.016C47.5333 158.627 47.9599 158.323 48.4453 158.104C48.9306 157.885 49.4479 157.776 49.9973 157.776C50.7333 157.776 51.4026 157.965 52.0053 158.344C52.6133 158.723 53.0959 159.232 53.4533 159.872C53.8159 160.512 53.9973 161.221 53.9973 162C53.9973 162.581 53.8933 163.125 53.6853 163.632C53.4773 164.139 53.1893 164.587 52.8213 164.976C52.4586 165.36 52.0346 165.661 51.5493 165.88C51.0693 166.099 50.5519 166.208 49.9973 166.208ZM49.9973 164.864C50.4986 164.864 50.9493 164.733 51.3493 164.472C51.7546 164.205 52.0719 163.856 52.3013 163.424C52.5359 162.987 52.6533 162.512 52.6533 162C52.6533 161.477 52.5333 160.997 52.2933 160.56C52.0586 160.123 51.7413 159.773 51.3413 159.512C50.9413 159.251 50.4933 159.12 49.9973 159.12C49.4959 159.12 49.0453 159.253 48.6453 159.52C48.2453 159.781 47.9279 160.131 47.6933 160.568C47.4586 161.005 47.3413 161.483 47.3413 162C47.3413 162.533 47.4613 163.019 47.7013 163.456C47.9413 163.888 48.2639 164.232 48.6693 164.488C49.0746 164.739 49.5173 164.864 49.9973 164.864ZM55.225 166V158H56.569V159C56.8517 158.627 57.209 158.331 57.641 158.112C58.073 157.888 58.5424 157.776 59.049 157.776C59.3584 157.776 59.657 157.816 59.945 157.896L59.401 159.24C59.1824 159.171 58.969 159.136 58.761 159.136C58.361 159.136 57.993 159.235 57.657 159.432C57.3264 159.624 57.0624 159.885 56.865 160.216C56.6677 160.547 56.569 160.915 56.569 161.32V166H55.225ZM64.7205 166V154H66.0645V166H64.7205ZM67.8902 158H69.2342V166H67.8902V158ZM68.5782 156.696C68.3648 156.696 68.1862 156.627 68.0422 156.488C67.8982 156.349 67.8262 156.176 67.8262 155.968C67.8262 155.76 67.8982 155.587 68.0422 155.448C68.1862 155.309 68.3622 155.24 68.5702 155.24C68.7782 155.24 68.9542 155.309 69.0982 155.448C69.2422 155.587 69.3142 155.76 69.3142 155.968C69.3142 156.176 69.2422 156.349 69.0982 156.488C68.9595 156.627 68.7862 156.696 68.5782 156.696ZM73.4217 166.152C72.9897 166.136 72.5683 166.056 72.1577 165.912C71.7523 165.763 71.395 165.563 71.0857 165.312C70.7817 165.056 70.5603 164.763 70.4217 164.432L71.5737 163.936C71.6537 164.117 71.7977 164.288 72.0057 164.448C72.2137 164.608 72.4537 164.736 72.7257 164.832C72.9977 164.928 73.2723 164.976 73.5497 164.976C73.843 164.976 74.1177 164.931 74.3737 164.84C74.6297 164.749 74.8377 164.616 74.9977 164.44C75.163 164.259 75.2457 164.043 75.2457 163.792C75.2457 163.525 75.155 163.317 74.9737 163.168C74.7977 163.013 74.5737 162.893 74.3017 162.808C74.035 162.717 73.763 162.632 73.4857 162.552C72.9363 162.413 72.4457 162.248 72.0137 162.056C71.5817 161.859 71.2403 161.611 70.9897 161.312C70.7443 161.008 70.6217 160.621 70.6217 160.152C70.6217 159.656 70.7577 159.227 71.0297 158.864C71.307 158.501 71.6697 158.221 72.1177 158.024C72.5657 157.827 73.0457 157.728 73.5577 157.728C74.203 157.728 74.7923 157.867 75.3257 158.144C75.859 158.421 76.2563 158.797 76.5177 159.272L75.4377 159.904C75.347 159.712 75.2083 159.544 75.0217 159.4C74.835 159.251 74.6217 159.133 74.3817 159.048C74.1417 158.963 73.8963 158.917 73.6457 158.912C73.3363 158.901 73.0457 158.941 72.7737 159.032C72.507 159.123 72.291 159.261 72.1257 159.448C71.9657 159.629 71.8857 159.856 71.8857 160.128C71.8857 160.395 71.971 160.597 72.1417 160.736C72.3177 160.875 72.5443 160.987 72.8217 161.072C73.1043 161.152 73.411 161.245 73.7417 161.352C74.227 161.507 74.6803 161.685 75.1017 161.888C75.523 162.091 75.8617 162.344 76.1177 162.648C76.379 162.952 76.507 163.328 76.5017 163.776C76.5017 164.267 76.355 164.696 76.0617 165.064C75.7683 165.427 75.387 165.704 74.9177 165.896C74.4537 166.088 73.955 166.173 73.4217 166.152ZM81.9203 159.344H80.1043L80.0963 166H78.7523L78.7603 159.344H77.3843V158H78.7603L78.7523 155.488H80.0963L80.1043 158H81.9203V159.344ZM83.1803 158H84.5243V166H83.1803V158ZM83.8683 156.696C83.6549 156.696 83.4763 156.627 83.3323 156.488C83.1883 156.349 83.1163 156.176 83.1163 155.968C83.1163 155.76 83.1883 155.587 83.3323 155.448C83.4763 155.309 83.6523 155.24 83.8603 155.24C84.0683 155.24 84.2443 155.309 84.3883 155.448C84.5323 155.587 84.6043 155.76 84.6043 155.968C84.6043 156.176 84.5323 156.349 84.3883 156.488C84.2496 156.627 84.0763 156.696 83.8683 156.696ZM93.3907 161.024V166H92.0467V161.32C92.0467 160.915 91.948 160.547 91.7507 160.216C91.5533 159.885 91.2893 159.624 90.9587 159.432C90.628 159.235 90.26 159.136 89.8547 159.136C89.4547 159.136 89.0867 159.235 88.7507 159.432C88.42 159.624 88.156 159.885 87.9587 160.216C87.7613 160.547 87.6627 160.915 87.6627 161.32V166H86.3187V158H87.6627V159C87.9453 158.627 88.3027 158.331 88.7347 158.112C89.1667 157.888 89.636 157.776 90.1427 157.776C90.74 157.776 91.284 157.923 91.7747 158.216C92.2707 158.504 92.6627 158.893 92.9507 159.384C93.244 159.875 93.3907 160.421 93.3907 161.024ZM100.986 158H102.33V166.256C102.33 166.784 102.216 167.275 101.986 167.728C101.762 168.187 101.458 168.584 101.074 168.92C100.69 169.261 100.253 169.525 99.7623 169.712C99.2716 169.904 98.7596 170 98.2263 170C97.6716 170 97.1356 169.875 96.6183 169.624C96.1009 169.379 95.6476 169.048 95.2583 168.632C94.8743 168.221 94.5969 167.76 94.4263 167.248L95.6583 166.688C95.7596 167.056 95.9409 167.387 96.2023 167.68C96.4689 167.979 96.7783 168.213 97.1303 168.384C97.4876 168.56 97.8529 168.648 98.2263 168.648C98.5783 168.648 98.9169 168.587 99.2423 168.464C99.5729 168.341 99.8689 168.171 100.13 167.952C100.397 167.739 100.605 167.485 100.754 167.192C100.909 166.904 100.986 166.592 100.986 166.256V164.664C100.714 165.123 100.354 165.496 99.9063 165.784C99.4636 166.067 98.9463 166.208 98.3543 166.208C97.7889 166.208 97.2583 166.099 96.7623 165.88C96.2663 165.661 95.8316 165.36 95.4583 164.976C95.0849 164.587 94.7916 164.139 94.5783 163.632C94.3649 163.125 94.2583 162.581 94.2583 162C94.2583 161.419 94.3649 160.875 94.5783 160.368C94.7916 159.856 95.0849 159.408 95.4583 159.024C95.8316 158.635 96.2663 158.331 96.7623 158.112C97.2583 157.893 97.7889 157.784 98.3543 157.784C98.9463 157.784 99.4636 157.925 99.9063 158.208C100.354 158.491 100.714 158.864 100.986 159.328V158ZM98.3623 164.904C98.8796 164.904 99.3276 164.771 99.7063 164.504C100.09 164.237 100.386 163.883 100.594 163.44C100.802 162.997 100.906 162.517 100.906 162C100.906 161.467 100.8 160.981 100.586 160.544C100.378 160.101 100.082 159.749 99.6983 159.488C99.3196 159.221 98.8743 159.088 98.3623 159.088C97.8609 159.088 97.4023 159.219 96.9863 159.48C96.5703 159.741 96.2396 160.093 95.9943 160.536C95.7543 160.973 95.6343 161.461 95.6343 162C95.6343 162.539 95.7569 163.029 96.0023 163.472C96.2529 163.909 96.5836 164.259 96.9943 164.52C97.4103 164.776 97.8663 164.904 98.3623 164.904ZM113.386 158H114.81L110.434 170H109.01L110.458 166L107.586 158H109.058L111.13 164.152L113.386 158ZM119.267 166.208C118.531 166.208 117.859 166.019 117.251 165.64C116.648 165.261 116.166 164.755 115.803 164.12C115.446 163.48 115.267 162.773 115.267 162C115.267 161.413 115.371 160.867 115.579 160.36C115.787 159.848 116.072 159.4 116.435 159.016C116.803 158.627 117.23 158.323 117.715 158.104C118.2 157.885 118.718 157.776 119.267 157.776C120.003 157.776 120.672 157.965 121.275 158.344C121.883 158.723 122.366 159.232 122.723 159.872C123.086 160.512 123.267 161.221 123.267 162C123.267 162.581 123.163 163.125 122.955 163.632C122.747 164.139 122.459 164.587 122.091 164.976C121.728 165.36 121.304 165.661 120.819 165.88C120.339 166.099 119.822 166.208 119.267 166.208ZM119.267 164.864C119.768 164.864 120.219 164.733 120.619 164.472C121.024 164.205 121.342 163.856 121.571 163.424C121.806 162.987 121.923 162.512 121.923 162C121.923 161.477 121.803 160.997 121.563 160.56C121.328 160.123 121.011 159.773 120.611 159.512C120.211 159.251 119.763 159.12 119.267 159.12C118.766 159.12 118.315 159.253 117.915 159.52C117.515 159.781 117.198 160.131 116.963 160.568C116.728 161.005 116.611 161.483 116.611 162C116.611 162.533 116.731 163.019 116.971 163.456C117.211 163.888 117.534 164.232 117.939 164.488C118.344 164.739 118.787 164.864 119.267 164.864ZM124.066 162.96V158H125.41V162.664C125.41 163.069 125.508 163.437 125.706 163.768C125.903 164.099 126.167 164.363 126.498 164.56C126.834 164.752 127.202 164.848 127.602 164.848C128.007 164.848 128.372 164.752 128.698 164.56C129.028 164.363 129.292 164.099 129.49 163.768C129.687 163.437 129.786 163.069 129.786 162.664V158H131.13L131.138 166H129.794L129.786 164.984C129.503 165.357 129.146 165.656 128.714 165.88C128.282 166.099 127.815 166.208 127.314 166.208C126.716 166.208 126.17 166.064 125.674 165.776C125.183 165.483 124.791 165.091 124.498 164.6C124.21 164.109 124.066 163.563 124.066 162.96ZM132.649 166V158H133.993V159C134.276 158.627 134.633 158.331 135.065 158.112C135.497 157.888 135.966 157.776 136.473 157.776C136.782 157.776 137.081 157.816 137.369 157.896L136.825 159.24C136.606 159.171 136.393 159.136 136.185 159.136C135.785 159.136 135.417 159.235 135.081 159.432C134.75 159.624 134.486 159.885 134.289 160.216C134.092 160.547 133.993 160.915 133.993 161.32V166H132.649ZM143.488 170H142.144V158H143.488V159.368C143.76 158.899 144.123 158.52 144.576 158.232C145.03 157.939 145.568 157.792 146.192 157.792C146.774 157.792 147.318 157.901 147.824 158.12C148.336 158.339 148.784 158.643 149.168 159.032C149.552 159.416 149.854 159.861 150.072 160.368C150.291 160.875 150.4 161.419 150.4 162C150.4 162.581 150.291 163.128 150.072 163.64C149.854 164.152 149.552 164.603 149.168 164.992C148.784 165.376 148.336 165.677 147.824 165.896C147.318 166.115 146.774 166.224 146.192 166.224C145.568 166.224 145.03 166.08 144.576 165.792C144.123 165.499 143.76 165.117 143.488 164.648V170ZM146.176 159.096C145.659 159.096 145.206 159.227 144.816 159.488C144.427 159.749 144.126 160.099 143.912 160.536C143.704 160.973 143.6 161.461 143.6 162C143.6 162.533 143.704 163.021 143.912 163.464C144.126 163.907 144.424 164.259 144.808 164.52C145.198 164.781 145.654 164.912 146.176 164.912C146.694 164.912 147.168 164.784 147.6 164.528C148.032 164.267 148.379 163.917 148.64 163.48C148.902 163.037 149.032 162.544 149.032 162C149.032 161.467 148.904 160.981 148.648 160.544C148.392 160.101 148.048 159.749 147.616 159.488C147.184 159.227 146.704 159.096 146.176 159.096ZM151.642 166V158H152.986V159C153.269 158.627 153.626 158.331 154.058 158.112C154.49 157.888 154.959 157.776 155.466 157.776C155.775 157.776 156.074 157.816 156.362 157.896L155.818 159.24C155.599 159.171 155.386 159.136 155.178 159.136C154.778 159.136 154.41 159.235 154.074 159.432C153.743 159.624 153.479 159.885 153.282 160.216C153.085 160.547 152.986 160.915 152.986 161.32V166H151.642ZM160.363 166.208C159.627 166.208 158.955 166.019 158.347 165.64C157.744 165.261 157.262 164.755 156.899 164.12C156.542 163.48 156.363 162.773 156.363 162C156.363 161.413 156.467 160.867 156.675 160.36C156.883 159.848 157.168 159.4 157.531 159.016C157.899 158.627 158.326 158.323 158.811 158.104C159.296 157.885 159.814 157.776 160.363 157.776C161.099 157.776 161.768 157.965 162.371 158.344C162.979 158.723 163.462 159.232 163.819 159.872C164.182 160.512 164.363 161.221 164.363 162C164.363 162.581 164.259 163.125 164.051 163.632C163.843 164.139 163.555 164.587 163.187 164.976C162.824 165.36 162.4 165.661 161.915 165.88C161.435 166.099 160.918 166.208 160.363 166.208ZM160.363 164.864C160.864 164.864 161.315 164.733 161.715 164.472C162.12 164.205 162.438 163.856 162.667 163.424C162.902 162.987 163.019 162.512 163.019 162C163.019 161.477 162.899 160.997 162.659 160.56C162.424 160.123 162.107 159.773 161.707 159.512C161.307 159.251 160.859 159.12 160.363 159.12C159.862 159.12 159.411 159.253 159.011 159.52C158.611 159.781 158.294 160.131 158.059 160.568C157.824 161.005 157.707 161.483 157.707 162C157.707 162.533 157.827 163.019 158.067 163.456C158.307 163.888 158.63 164.232 159.035 164.488C159.44 164.739 159.883 164.864 160.363 164.864ZM166.935 170H165.591V158H166.935V159.368C167.207 158.899 167.569 158.52 168.023 158.232C168.476 157.939 169.015 157.792 169.639 157.792C170.22 157.792 170.764 157.901 171.271 158.12C171.783 158.339 172.231 158.643 172.615 159.032C172.999 159.416 173.3 159.861 173.519 160.368C173.737 160.875 173.847 161.419 173.847 162C173.847 162.581 173.737 163.128 173.519 163.64C173.3 164.152 172.999 164.603 172.615 164.992C172.231 165.376 171.783 165.677 171.271 165.896C170.764 166.115 170.22 166.224 169.639 166.224C169.015 166.224 168.476 166.08 168.023 165.792C167.569 165.499 167.207 165.117 166.935 164.648V170ZM169.623 159.096C169.105 159.096 168.652 159.227 168.263 159.488C167.873 159.749 167.572 160.099 167.359 160.536C167.151 160.973 167.047 161.461 167.047 162C167.047 162.533 167.151 163.021 167.359 163.464C167.572 163.907 167.871 164.259 168.255 164.52C168.644 164.781 169.1 164.912 169.623 164.912C170.14 164.912 170.615 164.784 171.047 164.528C171.479 164.267 171.825 163.917 172.087 163.48C172.348 163.037 172.479 162.544 172.479 162C172.479 161.467 172.351 160.981 172.095 160.544C171.839 160.101 171.495 159.749 171.063 159.488C170.631 159.227 170.151 159.096 169.623 159.096ZM178.562 166.208C177.826 166.208 177.154 166.019 176.546 165.64C175.943 165.261 175.46 164.755 175.098 164.12C174.74 163.48 174.562 162.773 174.562 162C174.562 161.413 174.666 160.867 174.874 160.36C175.082 159.848 175.367 159.4 175.73 159.016C176.098 158.627 176.524 158.323 177.01 158.104C177.495 157.885 178.012 157.776 178.562 157.776C179.164 157.776 179.716 157.899 180.218 158.144C180.724 158.384 181.156 158.72 181.514 159.152C181.876 159.584 182.146 160.085 182.322 160.656C182.503 161.227 182.57 161.837 182.522 162.488H175.994C176.058 162.941 176.207 163.347 176.442 163.704C176.676 164.056 176.975 164.336 177.338 164.544C177.706 164.752 178.114 164.859 178.562 164.864C179.042 164.864 179.476 164.741 179.866 164.496C180.255 164.245 180.57 163.904 180.81 163.472L182.178 163.792C181.858 164.501 181.375 165.083 180.73 165.536C180.084 165.984 179.362 166.208 178.562 166.208ZM175.954 161.432H181.17C181.127 160.984 180.983 160.576 180.738 160.208C180.492 159.835 180.18 159.536 179.802 159.312C179.423 159.088 179.01 158.976 178.562 158.976C178.114 158.976 177.703 159.085 177.33 159.304C176.956 159.523 176.647 159.819 176.402 160.192C176.162 160.56 176.012 160.973 175.954 161.432ZM183.774 166V158H185.118V159C185.4 158.627 185.758 158.331 186.19 158.112C186.622 157.888 187.091 157.776 187.598 157.776C187.907 157.776 188.206 157.816 188.494 157.896L187.95 159.24C187.731 159.171 187.518 159.136 187.31 159.136C186.91 159.136 186.542 159.235 186.206 159.432C185.875 159.624 185.611 159.885 185.414 160.216C185.216 160.547 185.118 160.915 185.118 161.32V166H183.774ZM193.666 159.344H191.85L191.842 166H190.498L190.506 159.344H189.13V158H190.506L190.498 155.488H191.842L191.85 158H193.666V159.344ZM200.296 158H201.72L197.344 170H195.92L197.368 166L194.496 158H195.968L198.04 164.152L200.296 158ZM210.528 166H209.168L206.488 158H207.8L209.864 164.104L211.904 158H213.288L215.336 164.104L217.376 158H218.704L216.024 166H214.656L212.584 159.84L210.528 166ZM219.903 158H221.247V166H219.903V158ZM220.591 156.696C220.378 156.696 220.199 156.627 220.055 156.488C219.911 156.349 219.839 156.176 219.839 155.968C219.839 155.76 219.911 155.587 220.055 155.448C220.199 155.309 220.375 155.24 220.583 155.24C220.791 155.24 220.967 155.309 221.111 155.448C221.255 155.587 221.327 155.76 221.327 155.968C221.327 156.176 221.255 156.349 221.111 156.488C220.972 156.627 220.799 156.696 220.591 156.696ZM227.217 159.344H225.401L225.393 166H224.049L224.057 159.344H222.681V158H224.057L224.049 155.488H225.393L225.401 158H227.217V159.344ZM235.627 161.024V166H234.283V161.32C234.283 160.915 234.184 160.547 233.987 160.216C233.79 159.885 233.526 159.624 233.195 159.432C232.864 159.235 232.496 159.136 232.091 159.136C231.691 159.136 231.323 159.235 230.987 159.432C230.656 159.624 230.392 159.885 230.195 160.216C229.998 160.547 229.899 160.915 229.899 161.32V166H228.555V154H229.899V159C230.182 158.627 230.539 158.331 230.971 158.112C231.403 157.888 231.872 157.776 232.379 157.776C232.976 157.776 233.52 157.923 234.011 158.216C234.507 158.504 234.899 158.893 235.187 159.384C235.48 159.875 235.627 160.421 235.627 161.024ZM240.559 162.96V158H241.903V162.664C241.903 163.069 242.001 163.437 242.199 163.768C242.396 164.099 242.66 164.363 242.991 164.56C243.327 164.752 243.695 164.848 244.095 164.848C244.5 164.848 244.865 164.752 245.191 164.56C245.521 164.363 245.785 164.099 245.983 163.768C246.18 163.437 246.279 163.069 246.279 162.664V158H247.623L247.631 166H246.287L246.279 164.984C245.996 165.357 245.639 165.656 245.207 165.88C244.775 166.099 244.308 166.208 243.807 166.208C243.209 166.208 242.663 166.064 242.167 165.776C241.676 165.483 241.284 165.091 240.991 164.6C240.703 164.109 240.559 163.563 240.559 162.96ZM251.582 166.152C251.15 166.136 250.729 166.056 250.318 165.912C249.913 165.763 249.555 165.563 249.246 165.312C248.942 165.056 248.721 164.763 248.582 164.432L249.734 163.936C249.814 164.117 249.958 164.288 250.166 164.448C250.374 164.608 250.614 164.736 250.886 164.832C251.158 164.928 251.433 164.976 251.71 164.976C252.003 164.976 252.278 164.931 252.534 164.84C252.79 164.749 252.998 164.616 253.158 164.44C253.323 164.259 253.406 164.043 253.406 163.792C253.406 163.525 253.315 163.317 253.134 163.168C252.958 163.013 252.734 162.893 252.462 162.808C252.195 162.717 251.923 162.632 251.646 162.552C251.097 162.413 250.606 162.248 250.174 162.056C249.742 161.859 249.401 161.611 249.15 161.312C248.905 161.008 248.782 160.621 248.782 160.152C248.782 159.656 248.918 159.227 249.19 158.864C249.467 158.501 249.83 158.221 250.278 158.024C250.726 157.827 251.206 157.728 251.718 157.728C252.363 157.728 252.953 157.867 253.486 158.144C254.019 158.421 254.417 158.797 254.678 159.272L253.598 159.904C253.507 159.712 253.369 159.544 253.182 159.4C252.995 159.251 252.782 159.133 252.542 159.048C252.302 158.963 252.057 158.917 251.806 158.912C251.497 158.901 251.206 158.941 250.934 159.032C250.667 159.123 250.451 159.261 250.286 159.448C250.126 159.629 250.046 159.856 250.046 160.128C250.046 160.395 250.131 160.597 250.302 160.736C250.478 160.875 250.705 160.987 250.982 161.072C251.265 161.152 251.571 161.245 251.902 161.352C252.387 161.507 252.841 161.685 253.262 161.888C253.683 162.091 254.022 162.344 254.278 162.648C254.539 162.952 254.667 163.328 254.662 163.776C254.662 164.267 254.515 164.696 254.222 165.064C253.929 165.427 253.547 165.704 253.078 165.896C252.614 166.088 252.115 166.173 251.582 166.152ZM256.313 166.208C256.111 166.208 255.937 166.136 255.793 165.992C255.655 165.848 255.585 165.672 255.585 165.464C255.585 165.267 255.655 165.096 255.793 164.952C255.937 164.808 256.111 164.736 256.313 164.736C256.521 164.736 256.697 164.808 256.841 164.952C256.985 165.096 257.057 165.267 257.057 165.464C257.057 165.672 256.985 165.848 256.841 165.992C256.697 166.136 256.521 166.208 256.313 166.208Z" fill="#999999"></path><rect x="40.832" y="196.5" width="106" height="45" rx="7.5" fill="#1A1A1A"></rect><rect x="40.832" y="196.5" width="106" height="45" rx="7.5" stroke="#262626"></rect><path d="M61.172 224V214.2H64.616C65.1387 214.2 65.61 214.328 66.03 214.585C66.4547 214.842 66.7907 215.189 67.038 215.628C67.29 216.062 67.416 216.547 67.416 217.084C67.416 217.555 67.3227 217.985 67.136 218.372C66.9494 218.759 66.6927 219.084 66.366 219.345C66.044 219.602 65.6777 219.779 65.267 219.877L67.647 224H66.289L63.951 219.975H62.348V224H61.172ZM62.348 218.799H64.497C64.8144 218.799 65.106 218.722 65.372 218.568C65.638 218.409 65.848 218.197 66.002 217.931C66.1607 217.66 66.24 217.357 66.24 217.021C66.24 216.68 66.1607 216.377 66.002 216.111C65.848 215.84 65.638 215.628 65.372 215.474C65.106 215.315 64.8144 215.236 64.497 215.236H62.348V218.799ZM71.7969 224.182C71.1529 224.182 70.5649 224.016 70.0329 223.685C69.5056 223.354 69.0833 222.91 68.7659 222.355C68.4533 221.795 68.2969 221.177 68.2969 220.5C68.2969 219.987 68.3879 219.508 68.5699 219.065C68.7519 218.617 69.0016 218.225 69.3189 217.889C69.6409 217.548 70.0143 217.282 70.4389 217.091C70.8636 216.9 71.3163 216.804 71.7969 216.804C72.3243 216.804 72.8073 216.911 73.2459 217.126C73.6893 217.336 74.0673 217.63 74.3799 218.008C74.6973 218.386 74.9329 218.825 75.0869 219.324C75.2456 219.823 75.3039 220.358 75.2619 220.927H69.5499C69.6059 221.324 69.7366 221.678 69.9419 221.991C70.1473 222.299 70.4086 222.544 70.7259 222.726C71.0479 222.908 71.4049 223.001 71.7969 223.006C72.2169 223.006 72.5973 222.899 72.9379 222.684C73.2786 222.465 73.5539 222.166 73.7639 221.788L74.9609 222.068C74.6809 222.689 74.2586 223.197 73.6939 223.594C73.1293 223.986 72.4969 224.182 71.7969 224.182ZM69.5149 220.003H74.0789C74.0416 219.611 73.9156 219.254 73.7009 218.932C73.4863 218.605 73.2133 218.344 72.8819 218.148C72.5506 217.952 72.1889 217.854 71.7969 217.854C71.4049 217.854 71.0456 217.95 70.7189 218.141C70.3923 218.332 70.1216 218.591 69.9069 218.918C69.6969 219.24 69.5663 219.602 69.5149 220.003ZM81.9445 217H83.1205V224H81.9445L81.8955 222.817C81.6762 223.223 81.3729 223.552 80.9855 223.804C80.6029 224.056 80.1455 224.182 79.6135 224.182C79.1002 224.182 78.6195 224.086 78.1715 223.895C77.7235 223.699 77.3269 223.431 76.9815 223.09C76.6409 222.745 76.3749 222.348 76.1835 221.9C75.9922 221.452 75.8965 220.969 75.8965 220.451C75.8965 219.952 75.9899 219.48 76.1765 219.037C76.3632 218.594 76.6222 218.206 76.9535 217.875C77.2895 217.539 77.6769 217.278 78.1155 217.091C78.5542 216.9 79.0255 216.804 79.5295 216.804C80.0802 216.804 80.5632 216.935 80.9785 217.196C81.3939 217.453 81.7299 217.786 81.9865 218.197L81.9445 217ZM79.5925 223.041C80.0545 223.041 80.4535 222.929 80.7895 222.705C81.1302 222.476 81.3915 222.168 81.5735 221.781C81.7602 221.394 81.8535 220.967 81.8535 220.5C81.8535 220.024 81.7602 219.595 81.5735 219.212C81.3869 218.825 81.1232 218.519 80.7825 218.295C80.4465 218.066 80.0499 217.952 79.5925 217.952C79.1305 217.952 78.7105 218.066 78.3325 218.295C77.9545 218.524 77.6535 218.832 77.4295 219.219C77.2102 219.602 77.1005 220.029 77.1005 220.5C77.1005 220.971 77.2149 221.401 77.4435 221.788C77.6722 222.171 77.9755 222.476 78.3535 222.705C78.7315 222.929 79.1445 223.041 79.5925 223.041ZM89.9339 213.5H91.1099V224H89.9339V222.81C89.6959 223.221 89.3763 223.552 88.9749 223.804C88.5736 224.056 88.1023 224.182 87.5609 224.182C87.0523 224.182 86.5763 224.086 86.1329 223.895C85.6896 223.704 85.2976 223.44 84.9569 223.104C84.6209 222.763 84.3573 222.371 84.1659 221.928C83.9746 221.485 83.8789 221.009 83.8789 220.5C83.8789 219.991 83.9746 219.515 84.1659 219.072C84.3573 218.624 84.6209 218.232 84.9569 217.896C85.2976 217.555 85.6896 217.289 86.1329 217.098C86.5763 216.907 87.0523 216.811 87.5609 216.811C88.1023 216.811 88.5736 216.937 88.9749 217.189C89.3763 217.441 89.6959 217.772 89.9339 218.183V213.5ZM87.5749 223.041C88.0369 223.041 88.4359 222.929 88.7719 222.705C89.1126 222.476 89.3739 222.168 89.5559 221.781C89.7426 221.394 89.8359 220.967 89.8359 220.5C89.8359 220.024 89.7426 219.595 89.5559 219.212C89.3693 218.825 89.1056 218.519 88.7649 218.295C88.4289 218.066 88.0323 217.952 87.5749 217.952C87.1129 217.952 86.6929 218.066 86.3149 218.295C85.9416 218.524 85.6429 218.832 85.4189 219.219C85.1949 219.602 85.0829 220.029 85.0829 220.5C85.0829 220.971 85.1973 221.401 85.4259 221.788C85.6546 222.171 85.9579 222.476 86.3359 222.705C86.7139 222.929 87.1269 223.041 87.5749 223.041ZM95.9845 224L97.8815 214.2H98.7845L101.43 221.158L104.069 214.2H104.972L106.876 224H105.679L104.3 216.888L101.815 223.468H101.038L98.5535 216.888L97.1815 224H95.9845ZM110.943 224.182C110.299 224.182 109.711 224.016 109.179 223.685C108.652 223.354 108.23 222.91 107.912 222.355C107.6 221.795 107.443 221.177 107.443 220.5C107.443 219.987 107.534 219.508 107.716 219.065C107.898 218.617 108.148 218.225 108.465 217.889C108.787 217.548 109.161 217.282 109.585 217.091C110.01 216.9 110.463 216.804 110.943 216.804C111.587 216.804 112.173 216.97 112.7 217.301C113.232 217.632 113.655 218.078 113.967 218.638C114.285 219.198 114.443 219.819 114.443 220.5C114.443 221.009 114.352 221.485 114.17 221.928C113.988 222.371 113.736 222.763 113.414 223.104C113.097 223.44 112.726 223.704 112.301 223.895C111.881 224.086 111.429 224.182 110.943 224.182ZM110.943 223.006C111.382 223.006 111.776 222.892 112.126 222.663C112.481 222.43 112.759 222.124 112.959 221.746C113.165 221.363 113.267 220.948 113.267 220.5C113.267 220.043 113.162 219.623 112.952 219.24C112.747 218.857 112.469 218.552 112.119 218.323C111.769 218.094 111.377 217.98 110.943 217.98C110.505 217.98 110.11 218.097 109.76 218.33C109.41 218.559 109.133 218.864 108.927 219.247C108.722 219.63 108.619 220.047 108.619 220.5C108.619 220.967 108.724 221.391 108.934 221.774C109.144 222.152 109.427 222.453 109.781 222.677C110.136 222.896 110.523 223.006 110.943 223.006ZM115.518 224V217H116.694V217.875C116.941 217.548 117.254 217.289 117.632 217.098C118.01 216.902 118.42 216.804 118.864 216.804C119.134 216.804 119.396 216.839 119.648 216.909L119.172 218.085C118.98 218.024 118.794 217.994 118.612 217.994C118.262 217.994 117.94 218.08 117.646 218.253C117.356 218.421 117.125 218.65 116.953 218.939C116.78 219.228 116.694 219.55 116.694 219.905V224H115.518ZM123.148 224.182C122.504 224.182 121.916 224.016 121.384 223.685C120.857 223.354 120.435 222.91 120.117 222.355C119.805 221.795 119.648 221.177 119.648 220.5C119.648 219.987 119.739 219.508 119.921 219.065C120.103 218.617 120.353 218.225 120.67 217.889C120.992 217.548 121.366 217.282 121.79 217.091C122.215 216.9 122.668 216.804 123.148 216.804C123.676 216.804 124.159 216.911 124.597 217.126C125.041 217.336 125.419 217.63 125.731 218.008C126.049 218.386 126.284 218.825 126.438 219.324C126.597 219.823 126.655 220.358 126.613 220.927H120.901C120.957 221.324 121.088 221.678 121.293 221.991C121.499 222.299 121.76 222.544 122.077 222.726C122.399 222.908 122.756 223.001 123.148 223.006C123.568 223.006 123.949 222.899 124.289 222.684C124.63 222.465 124.905 222.166 125.115 221.788L126.312 222.068C126.032 222.689 125.61 223.197 125.045 223.594C124.481 223.986 123.848 224.182 123.148 224.182ZM120.866 220.003H125.43C125.393 219.611 125.267 219.254 125.052 218.932C124.838 218.605 124.565 218.344 124.233 218.148C123.902 217.952 123.54 217.854 123.148 217.854C122.756 217.854 122.397 217.95 122.07 218.141C121.744 218.332 121.473 218.591 121.258 218.918C121.048 219.24 120.918 219.602 120.866 220.003Z" fill="white"></path></svg>