<svg xmlns="http://www.w3.org/2000/svg" width="91" height="232" viewBox="0 0 91 232" fill="none"><path d="M5.801 5.4H7.628L12.209 18H10.607L9.671 15.426H3.758L2.831 18H1.22L5.801 5.4ZM4.316 13.914H9.113L6.71 7.335L4.316 13.914ZM18.2955 8.748C19.1715 8.748 19.9665 8.961 20.6805 9.387C21.4005 9.813 21.9735 10.386 22.3995 11.106C22.8255 11.82 23.0385 12.615 23.0385 13.491C23.0385 14.145 22.9155 14.76 22.6695 15.336C22.4235 15.906 22.0815 16.41 21.6435 16.848C21.2115 17.28 20.7075 17.619 20.1315 17.865C19.5615 18.111 18.9495 18.234 18.2955 18.234C17.5995 18.234 16.9935 18.072 16.4775 17.748C15.9675 17.418 15.5595 16.989 15.2535 16.461V18H13.7415V4.5H15.2535V10.521C15.5595 9.993 15.9675 9.567 16.4775 9.243C16.9935 8.913 17.5995 8.748 18.2955 8.748ZM18.2775 16.758C18.8715 16.758 19.4115 16.611 19.8975 16.317C20.3835 16.023 20.7705 15.63 21.0585 15.138C21.3465 14.64 21.4905 14.091 21.4905 13.491C21.4905 12.879 21.3435 12.327 21.0495 11.835C20.7555 11.337 20.3655 10.944 19.8795 10.656C19.3935 10.362 18.8595 10.215 18.2775 10.215C17.6895 10.215 17.1765 10.362 16.7385 10.656C16.3065 10.95 15.9705 11.346 15.7305 11.844C15.4965 12.342 15.3795 12.891 15.3795 13.491C15.3795 14.097 15.4965 14.649 15.7305 15.147C15.9705 15.639 16.3095 16.032 16.7475 16.326C17.1855 16.614 17.6955 16.758 18.2775 16.758ZM28.3338 18.234C27.5058 18.234 26.7498 18.021 26.0658 17.595C25.3878 17.169 24.8448 16.599 24.4368 15.885C24.0348 15.165 23.8338 14.37 23.8338 13.5C23.8338 12.84 23.9508 12.225 24.1848 11.655C24.4188 11.079 24.7398 10.575 25.1478 10.143C25.5618 9.705 26.0418 9.363 26.5878 9.117C27.1338 8.871 27.7158 8.748 28.3338 8.748C29.1618 8.748 29.9148 8.961 30.5928 9.387C31.2768 9.813 31.8198 10.386 32.2218 11.106C32.6298 11.826 32.8338 12.624 32.8338 13.5C32.8338 14.154 32.7168 14.766 32.4828 15.336C32.2488 15.906 31.9248 16.41 31.5108 16.848C31.1028 17.28 30.6258 17.619 30.0798 17.865C29.5398 18.111 28.9578 18.234 28.3338 18.234ZM28.3338 16.722C28.8978 16.722 29.4048 16.575 29.8548 16.281C30.3108 15.981 30.6678 15.588 30.9258 15.102C31.1898 14.61 31.3218 14.076 31.3218 13.5C31.3218 12.912 31.1868 12.372 30.9168 11.88C30.6528 11.388 30.2958 10.995 29.8458 10.701C29.3958 10.407 28.8918 10.26 28.3338 10.26C27.7698 10.26 27.2628 10.41 26.8128 10.71C26.3628 11.004 26.0058 11.397 25.7418 11.889C25.4778 12.381 25.3458 12.918 25.3458 13.5C25.3458 14.1 25.4808 14.646 25.7508 15.138C26.0208 15.624 26.3838 16.011 26.8398 16.299C27.2958 16.581 27.7938 16.722 28.3338 16.722ZM33.7319 14.58V9H35.2439V14.247C35.2439 14.703 35.3549 15.117 35.5769 15.489C35.7989 15.861 36.0959 16.158 36.4679 16.38C36.8459 16.596 37.2599 16.704 37.7099 16.704C38.1659 16.704 38.5769 16.596 38.9429 16.38C39.3149 16.158 39.6119 15.861 39.8339 15.489C40.0559 15.117 40.1669 14.703 40.1669 14.247V9H41.6789L41.6879 18H40.1759L40.1669 16.857C39.8489 17.277 39.4469 17.613 38.9609 17.865C38.4749 18.111 37.9499 18.234 37.3859 18.234C36.7139 18.234 36.0989 18.072 35.5409 17.748C34.9889 17.418 34.5479 16.977 34.2179 16.425C33.8939 15.873 33.7319 15.258 33.7319 14.58ZM48.0502 10.512H46.0072L45.9982 18H44.4862L44.4952 10.512H42.9472V9H44.4952L44.4862 6.174H45.9982L46.0072 9H48.0502V10.512ZM58.7038 18.234C57.6958 18.234 56.8198 17.988 56.0758 17.496C55.3378 17.004 54.7678 16.344 54.3658 15.516C53.9698 14.682 53.7718 13.758 53.7718 12.744V5.4H55.2838V12.744C55.2838 13.464 55.4158 14.127 55.6798 14.733C55.9498 15.339 56.3368 15.822 56.8408 16.182C57.3508 16.542 57.9718 16.722 58.7038 16.722C59.4478 16.722 60.0718 16.542 60.5758 16.182C61.0798 15.816 61.4608 15.333 61.7188 14.733C61.9828 14.127 62.1148 13.464 62.1148 12.744V5.4H63.6268V12.744C63.6268 13.506 63.5128 14.22 63.2848 14.886C63.0568 15.546 62.7268 16.128 62.2948 16.632C61.8688 17.136 61.3528 17.529 60.7468 17.811C60.1408 18.093 59.4598 18.234 58.7038 18.234ZM68.4323 18.171C67.9463 18.153 67.4723 18.063 67.0103 17.901C66.5543 17.733 66.1523 17.508 65.8043 17.226C65.4623 16.938 65.2133 16.608 65.0573 16.236L66.3533 15.678C66.4433 15.882 66.6053 16.074 66.8393 16.254C67.0733 16.434 67.3433 16.578 67.6493 16.686C67.9553 16.794 68.2643 16.848 68.5763 16.848C68.9063 16.848 69.2153 16.797 69.5033 16.695C69.7913 16.593 70.0253 16.443 70.2053 16.245C70.3913 16.041 70.4843 15.798 70.4843 15.516C70.4843 15.216 70.3823 14.982 70.1783 14.814C69.9803 14.64 69.7283 14.505 69.4223 14.409C69.1223 14.307 68.8163 14.211 68.5043 14.121C67.8863 13.965 67.3343 13.779 66.8483 13.563C66.3623 13.341 65.9783 13.062 65.6963 12.726C65.4203 12.384 65.2823 11.949 65.2823 11.421C65.2823 10.863 65.4353 10.38 65.7413 9.972C66.0533 9.564 66.4613 9.249 66.9653 9.027C67.4693 8.805 68.0093 8.694 68.5853 8.694C69.3113 8.694 69.9743 8.85 70.5743 9.162C71.1743 9.474 71.6213 9.897 71.9153 10.431L70.7003 11.142C70.5983 10.926 70.4423 10.737 70.2323 10.575C70.0223 10.407 69.7823 10.275 69.5123 10.179C69.2423 10.083 68.9663 10.032 68.6843 10.026C68.3363 10.014 68.0093 10.059 67.7033 10.161C67.4033 10.263 67.1603 10.419 66.9743 10.629C66.7943 10.833 66.7043 11.088 66.7043 11.394C66.7043 11.694 66.8003 11.922 66.9923 12.078C67.1903 12.234 67.4453 12.36 67.7573 12.456C68.0753 12.546 68.4203 12.651 68.7923 12.771C69.3383 12.945 69.8483 13.146 70.3223 13.374C70.7963 13.602 71.1773 13.887 71.4653 14.229C71.7593 14.571 71.9033 14.994 71.8973 15.498C71.8973 16.05 71.7323 16.533 71.4023 16.947C71.0723 17.355 70.6433 17.667 70.1153 17.883C69.5933 18.099 69.0323 18.195 68.4323 18.171Z" fill="#999999"></path><path d="M6.66 66.208C5.90267 66.208 5.19067 66.0587 4.524 65.76C3.85733 65.456 3.27067 65.0373 2.764 64.504C2.25733 63.9707 1.86 63.3547 1.572 62.656C1.284 61.952 1.14 61.2 1.14 60.4C1.14 59.6 1.284 58.8507 1.572 58.152C1.86 57.448 2.25733 56.8293 2.764 56.296C3.27067 55.7627 3.85733 55.3467 4.524 55.048C5.19067 54.744 5.90267 54.592 6.66 54.592C7.42267 54.592 8.13733 54.744 8.804 55.048C9.47067 55.3467 10.0573 55.7627 10.564 56.296C11.0707 56.8293 11.4653 57.448 11.748 58.152C12.036 58.8507 12.18 59.6 12.18 60.4C12.18 61.2 12.036 61.952 11.748 62.656C11.4653 63.3547 11.0707 63.9707 10.564 64.504C10.0573 65.0373 9.47067 65.456 8.804 65.76C8.13733 66.0587 7.42267 66.208 6.66 66.208ZM6.66 64.864C7.24133 64.864 7.78267 64.7467 8.284 64.512C8.79067 64.2773 9.23333 63.9547 9.612 63.544C9.996 63.128 10.2947 62.6533 10.508 62.12C10.7267 61.5813 10.836 61.008 10.836 60.4C10.836 59.792 10.7267 59.2187 10.508 58.68C10.2893 58.136 9.988 57.6613 9.604 57.256C9.22533 56.8453 8.78267 56.5227 8.276 56.288C7.77467 56.0533 7.236 55.936 6.66 55.936C6.07867 55.936 5.53467 56.0533 5.028 56.288C4.52667 56.5227 4.084 56.848 3.7 57.264C3.32133 57.6747 3.02267 58.1493 2.804 58.688C2.59067 59.2213 2.484 59.792 2.484 60.4C2.484 61.0133 2.59333 61.5893 2.812 62.128C3.03067 62.6667 3.32933 63.1413 3.708 63.552C4.092 63.9627 4.53467 64.2853 5.036 64.52C5.54267 64.7493 6.084 64.864 6.66 64.864ZM13.2159 62.96V58H14.5599V62.664C14.5599 63.0693 14.6585 63.4373 14.8559 63.768C15.0532 64.0987 15.3172 64.3627 15.6479 64.56C15.9839 64.752 16.3519 64.848 16.7519 64.848C17.1572 64.848 17.5225 64.752 17.8479 64.56C18.1785 64.3627 18.4425 64.0987 18.6399 63.768C18.8372 63.4373 18.9359 63.0693 18.9359 62.664V58H20.2799L20.2879 66H18.9439L18.9359 64.984C18.6532 65.3573 18.2959 65.656 17.8639 65.88C17.4319 66.0987 16.9652 66.208 16.4639 66.208C15.8665 66.208 15.3199 66.064 14.8239 65.776C14.3332 65.4827 13.9412 65.0907 13.6479 64.6C13.3599 64.1093 13.2159 63.5627 13.2159 62.96ZM21.7993 66V58H23.1433V59C23.4259 58.6267 23.7833 58.3307 24.2153 58.112C24.6473 57.888 25.1166 57.776 25.6233 57.776C25.9326 57.776 26.2313 57.816 26.5193 57.896L25.9753 59.24C25.7566 59.1707 25.5433 59.136 25.3353 59.136C24.9353 59.136 24.5673 59.2347 24.2313 59.432C23.9006 59.624 23.6366 59.8853 23.4393 60.216C23.2419 60.5467 23.1433 60.9147 23.1433 61.32V66H21.7993ZM35.2387 66.208C34.6361 66.208 34.0547 66.1147 33.4947 65.928C32.9347 65.736 32.4441 65.464 32.0227 65.112C31.6067 64.76 31.3107 64.3413 31.1347 63.856L32.3907 63.384C32.4974 63.6827 32.6947 63.944 32.9827 64.168C33.2761 64.3867 33.6201 64.5573 34.0147 64.68C34.4094 64.8027 34.8174 64.864 35.2387 64.864C35.7187 64.864 36.1641 64.7867 36.5747 64.632C36.9907 64.472 37.3267 64.2507 37.5827 63.968C37.8387 63.6853 37.9667 63.3547 37.9667 62.976C37.9667 62.5867 37.8334 62.2693 37.5667 62.024C37.3001 61.7733 36.9587 61.576 36.5427 61.432C36.1267 61.2827 35.6921 61.168 35.2387 61.088C34.4654 60.96 33.7721 60.7787 33.1587 60.544C32.5507 60.304 32.0681 59.9707 31.7107 59.544C31.3587 59.1173 31.1827 58.5547 31.1827 57.856C31.1827 57.2053 31.3694 56.6373 31.7427 56.152C32.1214 55.6667 32.6201 55.2907 33.2387 55.024C33.8574 54.7573 34.5241 54.624 35.2387 54.624C35.8307 54.624 36.4041 54.7173 36.9587 54.904C37.5187 55.0853 38.0121 55.352 38.4387 55.704C38.8654 56.056 39.1721 56.4853 39.3587 56.992L38.0867 57.456C37.9801 57.152 37.7801 56.8907 37.4867 56.672C37.1987 56.448 36.8574 56.2773 36.4627 56.16C36.0734 56.0373 35.6654 55.976 35.2387 55.976C34.7641 55.9707 34.3214 56.048 33.9107 56.208C33.5001 56.368 33.1667 56.5893 32.9107 56.872C32.6547 57.1547 32.5267 57.4827 32.5267 57.856C32.5267 58.304 32.6441 58.648 32.8787 58.888C33.1187 59.1227 33.4441 59.2987 33.8547 59.416C34.2654 59.5333 34.7267 59.6373 35.2387 59.728C35.9641 59.8507 36.6361 60.0453 37.2547 60.312C37.8734 60.5733 38.3694 60.9227 38.7427 61.36C39.1214 61.7973 39.3108 62.336 39.3108 62.976C39.3108 63.6267 39.1214 64.1947 38.7427 64.68C38.3694 65.1653 37.8734 65.5413 37.2547 65.808C36.6361 66.0747 35.9641 66.208 35.2387 66.208ZM45.0615 59.344H43.2455L43.2375 66H41.8935L41.9015 59.344H40.5255V58H41.9015L41.8935 55.488H43.2375L43.2455 58H45.0615V59.344ZM49.7165 66.208C48.9805 66.208 48.3085 66.0187 47.7005 65.64C47.0978 65.2613 46.6152 64.7547 46.2525 64.12C45.8952 63.48 45.7165 62.7733 45.7165 62C45.7165 61.4133 45.8205 60.8667 46.0285 60.36C46.2365 59.848 46.5218 59.4 46.8845 59.016C47.2525 58.6267 47.6792 58.3227 48.1645 58.104C48.6498 57.8853 49.1672 57.776 49.7165 57.776C50.4525 57.776 51.1218 57.9653 51.7245 58.344C52.3325 58.7227 52.8152 59.232 53.1725 59.872C53.5352 60.512 53.7165 61.2213 53.7165 62C53.7165 62.5813 53.6125 63.1253 53.4045 63.632C53.1965 64.1387 52.9085 64.5867 52.5405 64.976C52.1778 65.36 51.7538 65.6613 51.2685 65.88C50.7885 66.0987 50.2712 66.208 49.7165 66.208ZM49.7165 64.864C50.2178 64.864 50.6685 64.7333 51.0685 64.472C51.4738 64.2053 51.7912 63.856 52.0205 63.424C52.2552 62.9867 52.3725 62.512 52.3725 62C52.3725 61.4773 52.2525 60.9973 52.0125 60.56C51.7778 60.1227 51.4605 59.7733 51.0605 59.512C50.6605 59.2507 50.2125 59.12 49.7165 59.12C49.2152 59.12 48.7645 59.2533 48.3645 59.52C47.9645 59.7813 47.6472 60.1307 47.4125 60.568C47.1778 61.0053 47.0605 61.4827 47.0605 62C47.0605 62.5333 47.1805 63.0187 47.4205 63.456C47.6605 63.888 47.9832 64.232 48.3885 64.488C48.7938 64.7387 49.2365 64.864 49.7165 64.864ZM54.9442 66V58H56.2882V59C56.5709 58.6267 56.9282 58.3307 57.3602 58.112C57.7922 57.888 58.2616 57.776 58.7682 57.776C59.0776 57.776 59.3762 57.816 59.6642 57.896L59.1202 59.24C58.9016 59.1707 58.6882 59.136 58.4802 59.136C58.0802 59.136 57.7122 59.2347 57.3762 59.432C57.0456 59.624 56.7816 59.8853 56.5842 60.216C56.3869 60.5467 56.2882 60.9147 56.2882 61.32V66H54.9442ZM66.0314 58H67.4554L63.0794 70H61.6554L63.1034 66L60.2314 58H61.7034L63.7754 64.152L66.0314 58Z" fill="white"></path><path d="M6.66 106.208C5.90267 106.208 5.19067 106.059 4.524 105.76C3.85733 105.456 3.27067 105.037 2.764 104.504C2.25733 103.971 1.86 103.355 1.572 102.656C1.284 101.952 1.14 101.2 1.14 100.4C1.14 99.6 1.284 98.8507 1.572 98.152C1.86 97.448 2.25733 96.8293 2.764 96.296C3.27067 95.7627 3.85733 95.3467 4.524 95.048C5.19067 94.744 5.90267 94.592 6.66 94.592C7.42267 94.592 8.13733 94.744 8.804 95.048C9.47067 95.3467 10.0573 95.7627 10.564 96.296C11.0707 96.8293 11.4653 97.448 11.748 98.152C12.036 98.8507 12.18 99.6 12.18 100.4C12.18 101.2 12.036 101.952 11.748 102.656C11.4653 103.355 11.0707 103.971 10.564 104.504C10.0573 105.037 9.47067 105.456 8.804 105.76C8.13733 106.059 7.42267 106.208 6.66 106.208ZM6.66 104.864C7.24133 104.864 7.78267 104.747 8.284 104.512C8.79067 104.277 9.23333 103.955 9.612 103.544C9.996 103.128 10.2947 102.653 10.508 102.12C10.7267 101.581 10.836 101.008 10.836 100.4C10.836 99.792 10.7267 99.2187 10.508 98.68C10.2893 98.136 9.988 97.6613 9.604 97.256C9.22533 96.8453 8.78267 96.5227 8.276 96.288C7.77467 96.0533 7.236 95.936 6.66 95.936C6.07867 95.936 5.53467 96.0533 5.028 96.288C4.52667 96.5227 4.084 96.848 3.7 97.264C3.32133 97.6747 3.02267 98.1493 2.804 98.688C2.59067 99.2213 2.484 99.792 2.484 100.4C2.484 101.013 2.59333 101.589 2.812 102.128C3.03067 102.667 3.32933 103.141 3.708 103.552C4.092 103.963 4.53467 104.285 5.036 104.52C5.54267 104.749 6.084 104.864 6.66 104.864ZM13.2159 102.96V98H14.5599V102.664C14.5599 103.069 14.6585 103.437 14.8559 103.768C15.0532 104.099 15.3172 104.363 15.6479 104.56C15.9839 104.752 16.3519 104.848 16.7519 104.848C17.1572 104.848 17.5225 104.752 17.8479 104.56C18.1785 104.363 18.4425 104.099 18.6399 103.768C18.8372 103.437 18.9359 103.069 18.9359 102.664V98H20.2799L20.2879 106H18.9439L18.9359 104.984C18.6532 105.357 18.2959 105.656 17.8639 105.88C17.4319 106.099 16.9652 106.208 16.4639 106.208C15.8665 106.208 15.3199 106.064 14.8239 105.776C14.3332 105.483 13.9412 105.091 13.6479 104.6C13.3599 104.109 13.2159 103.563 13.2159 102.96ZM21.7993 106V98H23.1433V99C23.4259 98.6267 23.7833 98.3307 24.2153 98.112C24.6473 97.888 25.1166 97.776 25.6233 97.776C25.9326 97.776 26.2313 97.816 26.5193 97.896L25.9753 99.24C25.7566 99.1707 25.5433 99.136 25.3353 99.136C24.9353 99.136 24.5673 99.2347 24.2313 99.432C23.9006 99.624 23.6366 99.8853 23.4393 100.216C23.2419 100.547 23.1433 100.915 23.1433 101.32V106H21.7993ZM33.6467 106L30.7827 94.8H32.1667L34.4227 103.64L36.6707 94.8H37.8787L40.1347 103.64L42.3827 94.8H43.7668L40.9187 106H39.3507L37.2787 97.888L35.2067 106H33.6467ZM47.6719 106.208C46.9359 106.208 46.2639 106.019 45.6559 105.64C45.0532 105.261 44.5705 104.755 44.2079 104.12C43.8505 103.48 43.6719 102.773 43.6719 102C43.6719 101.413 43.7759 100.867 43.9839 100.36C44.1919 99.848 44.4772 99.4 44.8399 99.016C45.2079 98.6267 45.6345 98.3227 46.1199 98.104C46.6052 97.8853 47.1225 97.776 47.6719 97.776C48.4079 97.776 49.0772 97.9653 49.6799 98.344C50.2879 98.7227 50.7705 99.232 51.1279 99.872C51.4905 100.512 51.6719 101.221 51.6719 102C51.6719 102.581 51.5679 103.125 51.3599 103.632C51.1519 104.139 50.8639 104.587 50.4959 104.976C50.1332 105.36 49.7092 105.661 49.2239 105.88C48.7439 106.099 48.2265 106.208 47.6719 106.208ZM47.6719 104.864C48.1732 104.864 48.6239 104.733 49.0239 104.472C49.4292 104.205 49.7465 103.856 49.9759 103.424C50.2105 102.987 50.3279 102.512 50.3279 102C50.3279 101.477 50.2079 100.997 49.9679 100.56C49.7332 100.123 49.4159 99.7733 49.0159 99.512C48.6159 99.2507 48.1679 99.12 47.6719 99.12C47.1705 99.12 46.7199 99.2533 46.3199 99.52C45.9199 99.7813 45.6025 100.131 45.3679 100.568C45.1332 101.005 45.0159 101.483 45.0159 102C45.0159 102.533 45.1359 103.019 45.3759 103.456C45.6159 103.888 45.9385 104.232 46.3439 104.488C46.7492 104.739 47.1919 104.864 47.6719 104.864ZM52.8996 106V98H54.2436V99C54.5263 98.6267 54.8836 98.3307 55.3156 98.112C55.7476 97.888 56.217 97.776 56.7236 97.776C57.033 97.776 57.3316 97.816 57.6196 97.896L57.0756 99.24C56.857 99.1707 56.6436 99.136 56.4356 99.136C56.0356 99.136 55.6676 99.2347 55.3316 99.432C55.001 99.624 54.737 99.8853 54.5396 100.216C54.3423 100.547 54.2436 100.915 54.2436 101.32V106H52.8996ZM64.9479 106H63.4039L61.2759 102.328L59.8039 104.088V106H58.4599V94H59.8039V102L63.1559 98H64.9079L62.1879 101.24L64.9479 106ZM68.5851 106.152C68.1531 106.136 67.7318 106.056 67.3211 105.912C66.9158 105.763 66.5585 105.563 66.2491 105.312C65.9451 105.056 65.7238 104.763 65.5851 104.432L66.7371 103.936C66.8171 104.117 66.9611 104.288 67.1691 104.448C67.3771 104.608 67.6171 104.736 67.8891 104.832C68.1611 104.928 68.4358 104.976 68.7131 104.976C69.0065 104.976 69.2811 104.931 69.5371 104.84C69.7931 104.749 70.0011 104.616 70.1611 104.44C70.3265 104.259 70.4091 104.043 70.4091 103.792C70.4091 103.525 70.3185 103.317 70.1371 103.168C69.9611 103.013 69.7371 102.893 69.4651 102.808C69.1985 102.717 68.9265 102.632 68.6491 102.552C68.0998 102.413 67.6091 102.248 67.1771 102.056C66.7451 101.859 66.4038 101.611 66.1531 101.312C65.9078 101.008 65.7851 100.621 65.7851 100.152C65.7851 99.656 65.9211 99.2267 66.1931 98.864C66.4705 98.5013 66.8331 98.2213 67.2811 98.024C67.7291 97.8267 68.2091 97.728 68.7211 97.728C69.3665 97.728 69.9558 97.8667 70.4891 98.144C71.0225 98.4213 71.4198 98.7973 71.6811 99.272L70.6011 99.904C70.5105 99.712 70.3718 99.544 70.1851 99.4C69.9985 99.2507 69.7851 99.1333 69.5451 99.048C69.3051 98.9627 69.0598 98.9173 68.8091 98.912C68.4998 98.9013 68.2091 98.9413 67.9371 99.032C67.6705 99.1227 67.4545 99.2613 67.2891 99.448C67.1291 99.6293 67.0491 99.856 67.0491 100.128C67.0491 100.395 67.1345 100.597 67.3051 100.736C67.4811 100.875 67.7078 100.987 67.9851 101.072C68.2678 101.152 68.5745 101.245 68.9051 101.352C69.3905 101.507 69.8438 101.685 70.2651 101.888C70.6865 102.091 71.0251 102.344 71.2811 102.648C71.5425 102.952 71.6705 103.328 71.6651 103.776C71.6651 104.267 71.5185 104.696 71.2251 105.064C70.9318 105.427 70.5505 105.704 70.0811 105.896C69.6171 106.088 69.1185 106.173 68.5851 106.152Z" fill="white"></path><path d="M8.348 134.8H9.692V146H8.348V140.672H2.804V146H1.46V134.8H2.804V139.328H8.348V134.8ZM14.9621 146.208C14.2261 146.208 13.5541 146.019 12.9461 145.64C12.3435 145.261 11.8608 144.755 11.4981 144.12C11.1408 143.48 10.9621 142.773 10.9621 142C10.9621 141.413 11.0661 140.867 11.2741 140.36C11.4821 139.848 11.7675 139.4 12.1301 139.016C12.4981 138.627 12.9248 138.323 13.4101 138.104C13.8955 137.885 14.4128 137.776 14.9621 137.776C15.6981 137.776 16.3675 137.965 16.9701 138.344C17.5781 138.723 18.0608 139.232 18.4181 139.872C18.7808 140.512 18.9621 141.221 18.9621 142C18.9621 142.581 18.8581 143.125 18.6501 143.632C18.4421 144.139 18.1541 144.587 17.7861 144.976C17.4235 145.36 16.9995 145.661 16.5141 145.88C16.0341 146.099 15.5168 146.208 14.9621 146.208ZM14.9621 144.864C15.4635 144.864 15.9141 144.733 16.3141 144.472C16.7195 144.205 17.0368 143.856 17.2661 143.424C17.5008 142.987 17.6181 142.512 17.6181 142C17.6181 141.477 17.4981 140.997 17.2581 140.56C17.0235 140.123 16.7061 139.773 16.3061 139.512C15.9061 139.251 15.4581 139.12 14.9621 139.12C14.4608 139.12 14.0101 139.253 13.6101 139.52C13.2101 139.781 12.8928 140.131 12.6581 140.568C12.4235 141.005 12.3061 141.483 12.3061 142C12.3061 142.533 12.4261 143.019 12.6661 143.456C12.9061 143.888 13.2288 144.232 13.6341 144.488C14.0395 144.739 14.4821 144.864 14.9621 144.864ZM23.3905 146H22.0305L19.3505 138H20.6625L22.7265 144.104L24.7665 138H26.1505L28.1985 144.104L30.2385 138H31.5665L28.8865 146H27.5185L25.4465 139.84L23.3905 146ZM36.8941 146V134.8H38.2381V146H36.8941ZM44.4521 139.344H42.6361L42.6281 146H41.2841L41.2921 139.344H39.9161V138H41.2921L41.2841 135.488H42.6281L42.6361 138H44.4521V139.344ZM51.89 146L49.026 134.8H50.41L52.666 143.64L54.914 134.8H56.122L58.378 143.64L60.626 134.8H62.01L59.162 146H57.594L55.522 137.888L53.45 146H51.89ZM65.9151 146.208C65.1791 146.208 64.5071 146.019 63.8991 145.64C63.2965 145.261 62.8138 144.755 62.4511 144.12C62.0938 143.48 61.9151 142.773 61.9151 142C61.9151 141.413 62.0191 140.867 62.2271 140.36C62.4351 139.848 62.7205 139.4 63.0831 139.016C63.4511 138.627 63.8778 138.323 64.3631 138.104C64.8485 137.885 65.3658 137.776 65.9151 137.776C66.6511 137.776 67.3205 137.965 67.9231 138.344C68.5311 138.723 69.0138 139.232 69.3711 139.872C69.7338 140.512 69.9151 141.221 69.9151 142C69.9151 142.581 69.8111 143.125 69.6031 143.632C69.3951 144.139 69.1071 144.587 68.7391 144.976C68.3765 145.36 67.9525 145.661 67.4671 145.88C66.9871 146.099 66.4698 146.208 65.9151 146.208ZM65.9151 144.864C66.4165 144.864 66.8671 144.733 67.2671 144.472C67.6725 144.205 67.9898 143.856 68.2191 143.424C68.4538 142.987 68.5711 142.512 68.5711 142C68.5711 141.477 68.4511 140.997 68.2111 140.56C67.9765 140.123 67.6591 139.773 67.2591 139.512C66.8591 139.251 66.4111 139.12 65.9151 139.12C65.4138 139.12 64.9631 139.253 64.5631 139.52C64.1631 139.781 63.8458 140.131 63.6111 140.568C63.3765 141.005 63.2591 141.483 63.2591 142C63.2591 142.533 63.3791 143.019 63.6191 143.456C63.8591 143.888 64.1818 144.232 64.5871 144.488C64.9925 144.739 65.4351 144.864 65.9151 144.864ZM71.1429 146V138H72.4869V139C72.7695 138.627 73.1269 138.331 73.5589 138.112C73.9909 137.888 74.4602 137.776 74.9669 137.776C75.2762 137.776 75.5749 137.816 75.8629 137.896L75.3189 139.24C75.1002 139.171 74.8869 139.136 74.6789 139.136C74.2789 139.136 73.9109 139.235 73.5749 139.432C73.2442 139.624 72.9802 139.885 72.7829 140.216C72.5855 140.547 72.4869 140.915 72.4869 141.32V146H71.1429ZM83.1911 146H81.6471L79.5191 142.328L78.0471 144.088V146H76.7031V134H78.0471V142L81.3991 138H83.1511L80.4311 141.24L83.1911 146ZM86.8284 146.152C86.3964 146.136 85.975 146.056 85.5644 145.912C85.159 145.763 84.8017 145.563 84.4924 145.312C84.1884 145.056 83.967 144.763 83.8284 144.432L84.9804 143.936C85.0604 144.117 85.2044 144.288 85.4124 144.448C85.6204 144.608 85.8604 144.736 86.1324 144.832C86.4044 144.928 86.679 144.976 86.9564 144.976C87.2497 144.976 87.5244 144.931 87.7804 144.84C88.0364 144.749 88.2444 144.616 88.4044 144.44C88.5697 144.259 88.6524 144.043 88.6524 143.792C88.6524 143.525 88.5617 143.317 88.3804 143.168C88.2044 143.013 87.9804 142.893 87.7084 142.808C87.4417 142.717 87.1697 142.632 86.8924 142.552C86.343 142.413 85.8524 142.248 85.4204 142.056C84.9884 141.859 84.647 141.611 84.3964 141.312C84.151 141.008 84.0284 140.621 84.0284 140.152C84.0284 139.656 84.1644 139.227 84.4364 138.864C84.7137 138.501 85.0764 138.221 85.5244 138.024C85.9724 137.827 86.4524 137.728 86.9644 137.728C87.6097 137.728 88.199 137.867 88.7324 138.144C89.2657 138.421 89.663 138.797 89.9244 139.272L88.8444 139.904C88.7537 139.712 88.615 139.544 88.4284 139.4C88.2417 139.251 88.0284 139.133 87.7884 139.048C87.5484 138.963 87.303 138.917 87.0524 138.912C86.743 138.901 86.4524 138.941 86.1804 139.032C85.9137 139.123 85.6977 139.261 85.5324 139.448C85.3724 139.629 85.2924 139.856 85.2924 140.128C85.2924 140.395 85.3777 140.597 85.5484 140.736C85.7244 140.875 85.951 140.987 86.2284 141.072C86.511 141.152 86.8177 141.245 87.1484 141.352C87.6337 141.507 88.087 141.685 88.5084 141.888C88.9297 142.091 89.2684 142.344 89.5244 142.648C89.7857 142.952 89.9137 143.328 89.9084 143.776C89.9084 144.267 89.7617 144.696 89.4684 145.064C89.175 145.427 88.7937 145.704 88.3244 145.896C87.8604 146.088 87.3617 146.173 86.8284 146.152Z" fill="white"></path><path d="M6.66 186.208C5.90267 186.208 5.19067 186.059 4.524 185.76C3.85733 185.456 3.27067 185.037 2.764 184.504C2.25733 183.971 1.86 183.355 1.572 182.656C1.284 181.952 1.14 181.2 1.14 180.4C1.14 179.6 1.284 178.851 1.572 178.152C1.86 177.448 2.25733 176.829 2.764 176.296C3.27067 175.763 3.85733 175.347 4.524 175.048C5.19067 174.744 5.90267 174.592 6.66 174.592C7.42267 174.592 8.13733 174.744 8.804 175.048C9.47067 175.347 10.0573 175.763 10.564 176.296C11.0707 176.829 11.4653 177.448 11.748 178.152C12.036 178.851 12.18 179.6 12.18 180.4C12.18 181.2 12.036 181.952 11.748 182.656C11.4653 183.355 11.0707 183.971 10.564 184.504C10.0573 185.037 9.47067 185.456 8.804 185.76C8.13733 186.059 7.42267 186.208 6.66 186.208ZM6.66 184.864C7.24133 184.864 7.78267 184.747 8.284 184.512C8.79067 184.277 9.23333 183.955 9.612 183.544C9.996 183.128 10.2947 182.653 10.508 182.12C10.7267 181.581 10.836 181.008 10.836 180.4C10.836 179.792 10.7267 179.219 10.508 178.68C10.2893 178.136 9.988 177.661 9.604 177.256C9.22533 176.845 8.78267 176.523 8.276 176.288C7.77467 176.053 7.236 175.936 6.66 175.936C6.07867 175.936 5.53467 176.053 5.028 176.288C4.52667 176.523 4.084 176.848 3.7 177.264C3.32133 177.675 3.02267 178.149 2.804 178.688C2.59067 179.221 2.484 179.792 2.484 180.4C2.484 181.013 2.59333 181.589 2.812 182.128C3.03067 182.667 3.32933 183.141 3.708 183.552C4.092 183.963 4.53467 184.285 5.036 184.52C5.54267 184.749 6.084 184.864 6.66 184.864ZM13.2159 182.96V178H14.5599V182.664C14.5599 183.069 14.6585 183.437 14.8559 183.768C15.0532 184.099 15.3172 184.363 15.6479 184.56C15.9839 184.752 16.3519 184.848 16.7519 184.848C17.1572 184.848 17.5225 184.752 17.8479 184.56C18.1785 184.363 18.4425 184.099 18.6399 183.768C18.8372 183.437 18.9359 183.069 18.9359 182.664V178H20.2799L20.2879 186H18.9439L18.9359 184.984C18.6532 185.357 18.2959 185.656 17.8639 185.88C17.4319 186.099 16.9652 186.208 16.4639 186.208C15.8665 186.208 15.3199 186.064 14.8239 185.776C14.3332 185.483 13.9412 185.091 13.6479 184.6C13.3599 184.109 13.2159 183.563 13.2159 182.96ZM21.7993 186V178H23.1433V179C23.4259 178.627 23.7833 178.331 24.2153 178.112C24.6473 177.888 25.1166 177.776 25.6233 177.776C25.9326 177.776 26.2313 177.816 26.5193 177.896L25.9753 179.24C25.7566 179.171 25.5433 179.136 25.3353 179.136C24.9353 179.136 24.5673 179.235 24.2313 179.432C23.9006 179.624 23.6366 179.885 23.4393 180.216C23.2419 180.547 23.1433 180.915 23.1433 181.32V186H21.7993ZM39.7667 174.8V176.144H36.0387V186H34.6947V176.144H30.9747V174.8H39.7667ZM43.5469 186.208C42.8109 186.208 42.1389 186.019 41.5309 185.64C40.9282 185.261 40.4455 184.755 40.0829 184.12C39.7255 183.48 39.5469 182.773 39.5469 182C39.5469 181.413 39.6509 180.867 39.8589 180.36C40.0669 179.848 40.3522 179.4 40.7149 179.016C41.0829 178.627 41.5095 178.323 41.9949 178.104C42.4802 177.885 42.9975 177.776 43.5469 177.776C44.1495 177.776 44.7015 177.899 45.2029 178.144C45.7095 178.384 46.1415 178.72 46.4989 179.152C46.8615 179.584 47.1309 180.085 47.3069 180.656C47.4882 181.227 47.5549 181.837 47.5069 182.488H40.9789C41.0429 182.941 41.1922 183.347 41.4269 183.704C41.6615 184.056 41.9602 184.336 42.3229 184.544C42.6909 184.752 43.0989 184.859 43.5469 184.864C44.0269 184.864 44.4615 184.741 44.8509 184.496C45.2402 184.245 45.5549 183.904 45.7949 183.472L47.1629 183.792C46.8429 184.501 46.3602 185.083 45.7149 185.536C45.0695 185.984 44.3469 186.208 43.5469 186.208ZM40.9389 181.432H46.1549C46.1122 180.984 45.9682 180.576 45.7229 180.208C45.4775 179.835 45.1655 179.536 44.7869 179.312C44.4082 179.088 43.9949 178.976 43.5469 178.976C43.0989 178.976 42.6882 179.085 42.3149 179.304C41.9415 179.523 41.6322 179.819 41.3869 180.192C41.1469 180.56 40.9975 180.973 40.9389 181.432ZM55.1441 178H56.4881V186H55.1441L55.0881 184.648C54.8375 185.112 54.4908 185.488 54.0481 185.776C53.6108 186.064 53.0881 186.208 52.4801 186.208C51.8935 186.208 51.3441 186.099 50.8321 185.88C50.3201 185.656 49.8668 185.349 49.4721 184.96C49.0828 184.565 48.7788 184.112 48.5601 183.6C48.3415 183.088 48.2321 182.536 48.2321 181.944C48.2321 181.373 48.3388 180.835 48.5521 180.328C48.7655 179.821 49.0615 179.379 49.4401 179C49.8241 178.616 50.2668 178.317 50.7681 178.104C51.2695 177.885 51.8081 177.776 52.3841 177.776C53.0135 177.776 53.5655 177.925 54.0401 178.224C54.5148 178.517 54.8988 178.899 55.1921 179.368L55.1441 178ZM52.4561 184.904C52.9841 184.904 53.4401 184.776 53.8241 184.52C54.2135 184.259 54.5121 183.907 54.7201 183.464C54.9335 183.021 55.0401 182.533 55.0401 182C55.0401 181.456 54.9335 180.965 54.7201 180.528C54.5068 180.085 54.2055 179.736 53.8161 179.48C53.4321 179.219 52.9788 179.088 52.4561 179.088C51.9281 179.088 51.4481 179.219 51.0161 179.48C50.5841 179.741 50.2401 180.093 49.9841 180.536C49.7335 180.973 49.6081 181.461 49.6081 182C49.6081 182.539 49.7388 183.029 50.0001 183.472C50.2615 183.909 50.6081 184.259 51.0401 184.52C51.4721 184.776 51.9441 184.904 52.4561 184.904ZM57.9911 186V178H59.3351V179C59.6178 178.627 59.9725 178.331 60.3991 178.112C60.8311 177.888 61.3005 177.776 61.8071 177.776C62.3991 177.776 62.9405 177.92 63.4311 178.208C63.9218 178.496 64.3085 178.877 64.5911 179.352C64.8738 178.877 65.2578 178.496 65.7431 178.208C66.2338 177.92 66.7725 177.776 67.3591 177.776C67.9618 177.776 68.5085 177.923 68.9991 178.216C69.4898 178.504 69.8791 178.893 70.1671 179.384C70.4605 179.875 70.6071 180.421 70.6071 181.024V186H69.2631V181.344C69.2631 180.949 69.1671 180.584 68.9751 180.248C68.7831 179.912 68.5245 179.643 68.1991 179.44C67.8738 179.237 67.5138 179.136 67.1191 179.136C66.7245 179.136 66.3645 179.232 66.0391 179.424C65.7138 179.611 65.4551 179.872 65.2631 180.208C65.0711 180.539 64.9751 180.917 64.9751 181.344V186H63.6311V181.344C63.6311 180.917 63.5351 180.539 63.3431 180.208C63.1511 179.872 62.8898 179.611 62.5591 179.424C62.2338 179.232 61.8738 179.136 61.4791 179.136C61.0898 179.136 60.7298 179.237 60.3991 179.44C60.0738 179.643 59.8151 179.912 59.6231 180.248C59.4311 180.584 59.3351 180.949 59.3351 181.344V186H57.9911Z" fill="white"></path><path d="M6.66 226.208C5.90267 226.208 5.19067 226.059 4.524 225.76C3.85733 225.456 3.27067 225.037 2.764 224.504C2.25733 223.971 1.86 223.355 1.572 222.656C1.284 221.952 1.14 221.2 1.14 220.4C1.14 219.6 1.284 218.851 1.572 218.152C1.86 217.448 2.25733 216.829 2.764 216.296C3.27067 215.763 3.85733 215.347 4.524 215.048C5.19067 214.744 5.90267 214.592 6.66 214.592C7.42267 214.592 8.13733 214.744 8.804 215.048C9.47067 215.347 10.0573 215.763 10.564 216.296C11.0707 216.829 11.4653 217.448 11.748 218.152C12.036 218.851 12.18 219.6 12.18 220.4C12.18 221.2 12.036 221.952 11.748 222.656C11.4653 223.355 11.0707 223.971 10.564 224.504C10.0573 225.037 9.47067 225.456 8.804 225.76C8.13733 226.059 7.42267 226.208 6.66 226.208ZM6.66 224.864C7.24133 224.864 7.78267 224.747 8.284 224.512C8.79067 224.277 9.23333 223.955 9.612 223.544C9.996 223.128 10.2947 222.653 10.508 222.12C10.7267 221.581 10.836 221.008 10.836 220.4C10.836 219.792 10.7267 219.219 10.508 218.68C10.2893 218.136 9.988 217.661 9.604 217.256C9.22533 216.845 8.78267 216.523 8.276 216.288C7.77467 216.053 7.236 215.936 6.66 215.936C6.07867 215.936 5.53467 216.053 5.028 216.288C4.52667 216.523 4.084 216.848 3.7 217.264C3.32133 217.675 3.02267 218.149 2.804 218.688C2.59067 219.221 2.484 219.792 2.484 220.4C2.484 221.013 2.59333 221.589 2.812 222.128C3.03067 222.667 3.32933 223.141 3.708 223.552C4.092 223.963 4.53467 224.285 5.036 224.52C5.54267 224.749 6.084 224.864 6.66 224.864ZM13.2159 222.96V218H14.5599V222.664C14.5599 223.069 14.6585 223.437 14.8559 223.768C15.0532 224.099 15.3172 224.363 15.6479 224.56C15.9839 224.752 16.3519 224.848 16.7519 224.848C17.1572 224.848 17.5225 224.752 17.8479 224.56C18.1785 224.363 18.4425 224.099 18.6399 223.768C18.8372 223.437 18.9359 223.069 18.9359 222.664V218H20.2799L20.2879 226H18.9439L18.9359 224.984C18.6532 225.357 18.2959 225.656 17.8639 225.88C17.4319 226.099 16.9652 226.208 16.4639 226.208C15.8665 226.208 15.3199 226.064 14.8239 225.776C14.3332 225.483 13.9412 225.091 13.6479 224.6C13.3599 224.109 13.2159 223.563 13.2159 222.96ZM21.7993 226V218H23.1433V219C23.4259 218.627 23.7833 218.331 24.2153 218.112C24.6473 217.888 25.1166 217.776 25.6233 217.776C25.9326 217.776 26.2313 217.816 26.5193 217.896L25.9753 219.24C25.7566 219.171 25.5433 219.136 25.3353 219.136C24.9353 219.136 24.5673 219.235 24.2313 219.432C23.9006 219.624 23.6366 219.885 23.4393 220.216C23.2419 220.547 23.1433 220.915 23.1433 221.32V226H21.7993ZM36.4787 226.208C35.7214 226.208 35.0094 226.059 34.3427 225.76C33.6761 225.456 33.0894 225.04 32.5827 224.512C32.0814 223.979 31.6867 223.36 31.3987 222.656C31.1161 221.952 30.9747 221.2 30.9747 220.4C30.9747 219.6 31.1161 218.848 31.3987 218.144C31.6867 217.44 32.0814 216.824 32.5827 216.296C33.0894 215.763 33.6761 215.347 34.3427 215.048C35.0094 214.744 35.7214 214.592 36.4787 214.592C37.3854 214.592 38.2201 214.803 38.9827 215.224C39.7454 215.645 40.3774 216.205 40.8787 216.904L39.6867 217.544C39.3134 217.053 38.8414 216.664 38.2707 216.376C37.7054 216.083 37.1081 215.936 36.4787 215.936C35.8974 215.936 35.3534 216.053 34.8467 216.288C34.3454 216.523 33.9054 216.845 33.5267 217.256C33.1481 217.667 32.8521 218.141 32.6387 218.68C32.4254 219.219 32.3187 219.792 32.3187 220.4C32.3187 221.013 32.4254 221.589 32.6387 222.128C32.8574 222.667 33.1561 223.141 33.5347 223.552C33.9187 223.963 34.3614 224.285 34.8627 224.52C35.3694 224.749 35.9081 224.864 36.4787 224.864C37.1294 224.864 37.7321 224.717 38.2867 224.424C38.8467 224.125 39.3134 223.736 39.6867 223.256L40.8787 223.904C40.3774 224.603 39.7454 225.163 38.9827 225.584C38.2201 226 37.3854 226.208 36.4787 226.208ZM42.4019 226V214H43.7459V226H42.4019ZM45.5715 218H46.9155V226H45.5715V218ZM46.2595 216.696C46.0462 216.696 45.8675 216.627 45.7235 216.488C45.5795 216.349 45.5075 216.176 45.5075 215.968C45.5075 215.76 45.5795 215.587 45.7235 215.448C45.8675 215.309 46.0435 215.24 46.2515 215.24C46.4595 215.24 46.6355 215.309 46.7795 215.448C46.9235 215.587 46.9955 215.76 46.9955 215.968C46.9955 216.176 46.9235 216.349 46.7795 216.488C46.6408 216.627 46.4675 216.696 46.2595 216.696ZM52.1517 226.208C51.4157 226.208 50.7437 226.019 50.1357 225.64C49.5331 225.261 49.0504 224.755 48.6877 224.12C48.3304 223.48 48.1517 222.773 48.1517 222C48.1517 221.413 48.2557 220.867 48.4637 220.36C48.6717 219.848 48.9571 219.4 49.3197 219.016C49.6877 218.627 50.1144 218.323 50.5997 218.104C51.0851 217.885 51.6024 217.776 52.1517 217.776C52.7544 217.776 53.3064 217.899 53.8077 218.144C54.3144 218.384 54.7464 218.72 55.1037 219.152C55.4664 219.584 55.7357 220.085 55.9117 220.656C56.0931 221.227 56.1597 221.837 56.1117 222.488H49.5837C49.6477 222.941 49.7971 223.347 50.0317 223.704C50.2664 224.056 50.5651 224.336 50.9277 224.544C51.2957 224.752 51.7037 224.859 52.1517 224.864C52.6317 224.864 53.0664 224.741 53.4557 224.496C53.8451 224.245 54.1597 223.904 54.3997 223.472L55.7677 223.792C55.4477 224.501 54.9651 225.083 54.3197 225.536C53.6744 225.984 52.9517 226.208 52.1517 226.208ZM49.5437 221.432H54.7597C54.7171 220.984 54.5731 220.576 54.3277 220.208C54.0824 219.835 53.7704 219.536 53.3917 219.312C53.0131 219.088 52.5997 218.976 52.1517 218.976C51.7037 218.976 51.2931 219.085 50.9197 219.304C50.5464 219.523 50.2371 219.819 49.9917 220.192C49.7517 220.56 49.6024 220.973 49.5437 221.432ZM64.4359 221.024V226H63.0919V221.32C63.0919 220.915 62.9932 220.547 62.7959 220.216C62.5985 219.885 62.3345 219.624 62.0039 219.432C61.6732 219.235 61.3052 219.136 60.8999 219.136C60.4999 219.136 60.1319 219.235 59.7959 219.432C59.4652 219.624 59.2012 219.885 59.0039 220.216C58.8065 220.547 58.7079 220.915 58.7079 221.32V226H57.3639V218H58.7079V219C58.9905 218.627 59.3479 218.331 59.7799 218.112C60.2119 217.888 60.6812 217.776 61.1879 217.776C61.7852 217.776 62.3292 217.923 62.8199 218.216C63.3159 218.504 63.7079 218.893 63.9959 219.384C64.2892 219.875 64.4359 220.421 64.4359 221.024ZM70.0838 219.344H68.2678L68.2598 226H66.9158L66.9238 219.344H65.5478V218H66.9238L66.9158 215.488H68.2598L68.2678 218H70.0838V219.344ZM73.7838 226.152C73.3518 226.136 72.9304 226.056 72.5198 225.912C72.1144 225.763 71.7571 225.563 71.4478 225.312C71.1438 225.056 70.9224 224.763 70.7838 224.432L71.9358 223.936C72.0158 224.117 72.1598 224.288 72.3678 224.448C72.5758 224.608 72.8158 224.736 73.0878 224.832C73.3598 224.928 73.6344 224.976 73.9118 224.976C74.2051 224.976 74.4798 224.931 74.7358 224.84C74.9918 224.749 75.1998 224.616 75.3598 224.44C75.5251 224.259 75.6078 224.043 75.6078 223.792C75.6078 223.525 75.5171 223.317 75.3358 223.168C75.1598 223.013 74.9358 222.893 74.6638 222.808C74.3971 222.717 74.1251 222.632 73.8478 222.552C73.2984 222.413 72.8078 222.248 72.3758 222.056C71.9438 221.859 71.6024 221.611 71.3518 221.312C71.1064 221.008 70.9838 220.621 70.9838 220.152C70.9838 219.656 71.1198 219.227 71.3918 218.864C71.6691 218.501 72.0318 218.221 72.4798 218.024C72.9278 217.827 73.4078 217.728 73.9198 217.728C74.5651 217.728 75.1544 217.867 75.6878 218.144C76.2211 218.421 76.6184 218.797 76.8798 219.272L75.7998 219.904C75.7091 219.712 75.5704 219.544 75.3838 219.4C75.1971 219.251 74.9838 219.133 74.7438 219.048C74.5038 218.963 74.2584 218.917 74.0078 218.912C73.6984 218.901 73.4078 218.941 73.1358 219.032C72.8691 219.123 72.6531 219.261 72.4878 219.448C72.3278 219.629 72.2478 219.856 72.2478 220.128C72.2478 220.395 72.3331 220.597 72.5038 220.736C72.6798 220.875 72.9064 220.987 73.1838 221.072C73.4664 221.152 73.7731 221.245 74.1038 221.352C74.5891 221.507 75.0424 221.685 75.4638 221.888C75.8851 222.091 76.2238 222.344 76.4798 222.648C76.7411 222.952 76.8691 223.328 76.8638 223.776C76.8638 224.267 76.7171 224.696 76.4238 225.064C76.1304 225.427 75.7491 225.704 75.2798 225.896C74.8158 226.088 74.3171 226.173 73.7838 226.152Z" fill="white"></path></svg>