<svg xmlns="http://www.w3.org/2000/svg" width="160" height="232" viewBox="0 0 160 232" fill="none"><path d="M6.017 18.234C5.339 18.234 4.685 18.129 4.055 17.919C3.425 17.703 2.873 17.397 2.399 17.001C1.931 16.605 1.598 16.134 1.4 15.588L2.813 15.057C2.933 15.393 3.155 15.687 3.479 15.939C3.809 16.185 4.196 16.377 4.64 16.515C5.084 16.653 5.543 16.722 6.017 16.722C6.557 16.722 7.058 16.635 7.52 16.461C7.988 16.281 8.366 16.032 8.654 15.714C8.942 15.396 9.086 15.024 9.086 14.598C9.086 14.16 8.936 13.803 8.636 13.527C8.336 13.245 7.952 13.023 7.484 12.861C7.016 12.693 6.527 12.564 6.017 12.474C5.147 12.33 4.367 12.126 3.677 11.862C2.993 11.592 2.45 11.217 2.048 10.737C1.652 10.257 1.454 9.624 1.454 8.838C1.454 8.106 1.664 7.467 2.084 6.921C2.51 6.375 3.071 5.952 3.767 5.652C4.463 5.352 5.213 5.202 6.017 5.202C6.683 5.202 7.328 5.307 7.952 5.517C8.582 5.721 9.137 6.021 9.617 6.417C10.097 6.813 10.442 7.296 10.652 7.866L9.221 8.388C9.101 8.046 8.876 7.752 8.546 7.506C8.222 7.254 7.838 7.062 7.394 6.93C6.956 6.792 6.497 6.723 6.017 6.723C5.483 6.717 4.985 6.804 4.523 6.984C4.061 7.164 3.686 7.413 3.398 7.731C3.11 8.049 2.966 8.418 2.966 8.838C2.966 9.342 3.098 9.729 3.362 9.999C3.632 10.263 3.998 10.461 4.46 10.593C4.922 10.725 5.441 10.842 6.017 10.944C6.833 11.082 7.589 11.301 8.285 11.601C8.981 11.895 9.539 12.288 9.959 12.78C10.385 13.272 10.598 13.878 10.598 14.598C10.598 15.33 10.385 15.969 9.959 16.515C9.539 17.061 8.981 17.484 8.285 17.784C7.589 18.084 6.833 18.234 6.017 18.234ZM16.3304 18.234C15.5024 18.234 14.7464 18.021 14.0624 17.595C13.3844 17.169 12.8414 16.599 12.4334 15.885C12.0314 15.165 11.8304 14.37 11.8304 13.5C11.8304 12.84 11.9474 12.225 12.1814 11.655C12.4154 11.079 12.7364 10.575 13.1444 10.143C13.5584 9.705 14.0384 9.363 14.5844 9.117C15.1304 8.871 15.7124 8.748 16.3304 8.748C17.0084 8.748 17.6294 8.886 18.1934 9.162C18.7634 9.432 19.2494 9.81 19.6514 10.296C20.0594 10.782 20.3624 11.346 20.5604 11.988C20.7644 12.63 20.8394 13.317 20.7854 14.049H13.4414C13.5134 14.559 13.6814 15.015 13.9454 15.417C14.2094 15.813 14.5454 16.128 14.9534 16.362C15.3674 16.596 15.8264 16.716 16.3304 16.722C16.8704 16.722 17.3594 16.584 17.7974 16.308C18.2354 16.026 18.5894 15.642 18.8594 15.156L20.3984 15.516C20.0384 16.314 19.4954 16.968 18.7694 17.478C18.0434 17.982 17.2304 18.234 16.3304 18.234ZM13.3964 12.861H19.2644C19.2164 12.357 19.0544 11.898 18.7784 11.484C18.5024 11.064 18.1514 10.728 17.7254 10.476C17.2994 10.224 16.8344 10.098 16.3304 10.098C15.8264 10.098 15.3644 10.221 14.9444 10.467C14.5244 10.713 14.1764 11.046 13.9004 11.466C13.6304 11.88 13.4624 12.345 13.3964 12.861ZM22.1941 18V9H23.7061V10.125C24.0241 9.705 24.4261 9.372 24.9121 9.126C25.3981 8.874 25.9261 8.748 26.4961 8.748C26.8441 8.748 27.1801 8.793 27.5041 8.883L26.8921 10.395C26.6461 10.317 26.4061 10.278 26.1721 10.278C25.7221 10.278 25.3081 10.389 24.9301 10.611C24.5581 10.827 24.2611 11.121 24.0391 11.493C23.8171 11.865 23.7061 12.279 23.7061 12.735V18H22.1941ZM33.3403 18H31.4053L28.1203 8.982H29.7313L32.3683 16.245L35.0053 8.982H36.6163L33.3403 18ZM37.9742 9H39.4862V18H37.9742V9ZM38.7482 7.533C38.5082 7.533 38.3072 7.455 38.1452 7.299C37.9832 7.143 37.9022 6.948 37.9022 6.714C37.9022 6.48 37.9832 6.285 38.1452 6.129C38.3072 5.973 38.5052 5.895 38.7392 5.895C38.9732 5.895 39.1712 5.973 39.3332 6.129C39.4952 6.285 39.5762 6.48 39.5762 6.714C39.5762 6.948 39.4952 7.143 39.3332 7.299C39.1772 7.455 38.9822 7.533 38.7482 7.533ZM47.618 15.624L48.968 16.353C48.56 16.923 48.041 17.379 47.411 17.721C46.787 18.063 46.109 18.234 45.377 18.234C44.549 18.234 43.793 18.021 43.109 17.595C42.431 17.169 41.888 16.599 41.48 15.885C41.078 15.165 40.877 14.37 40.877 13.5C40.877 12.84 40.994 12.225 41.228 11.655C41.462 11.079 41.783 10.575 42.191 10.143C42.605 9.705 43.085 9.363 43.631 9.117C44.177 8.871 44.759 8.748 45.377 8.748C46.109 8.748 46.787 8.919 47.411 9.261C48.041 9.603 48.56 10.062 48.968 10.638L47.618 11.367C47.33 11.013 46.988 10.74 46.592 10.548C46.196 10.356 45.791 10.26 45.377 10.26C44.819 10.26 44.312 10.41 43.856 10.71C43.406 11.004 43.049 11.397 42.785 11.889C42.521 12.381 42.389 12.918 42.389 13.5C42.389 14.082 42.521 14.619 42.785 15.111C43.055 15.597 43.415 15.987 43.865 16.281C44.321 16.575 44.825 16.722 45.377 16.722C45.821 16.722 46.238 16.62 46.628 16.416C47.018 16.212 47.348 15.948 47.618 15.624ZM54.2865 18.234C53.4585 18.234 52.7025 18.021 52.0185 17.595C51.3405 17.169 50.7975 16.599 50.3895 15.885C49.9875 15.165 49.7865 14.37 49.7865 13.5C49.7865 12.84 49.9035 12.225 50.1375 11.655C50.3715 11.079 50.6925 10.575 51.1005 10.143C51.5145 9.705 51.9945 9.363 52.5405 9.117C53.0865 8.871 53.6685 8.748 54.2865 8.748C54.9645 8.748 55.5855 8.886 56.1495 9.162C56.7195 9.432 57.2055 9.81 57.6075 10.296C58.0155 10.782 58.3185 11.346 58.5165 11.988C58.7205 12.63 58.7955 13.317 58.7415 14.049H51.3975C51.4695 14.559 51.6375 15.015 51.9015 15.417C52.1655 15.813 52.5015 16.128 52.9095 16.362C53.3235 16.596 53.7825 16.716 54.2865 16.722C54.8265 16.722 55.3155 16.584 55.7535 16.308C56.1915 16.026 56.5455 15.642 56.8155 15.156L58.3545 15.516C57.9945 16.314 57.4515 16.968 56.7255 17.478C55.9995 17.982 55.1865 18.234 54.2865 18.234ZM51.3525 12.861H57.2205C57.1725 12.357 57.0105 11.898 56.7345 11.484C56.4585 11.064 56.1075 10.728 55.6815 10.476C55.2555 10.224 54.7905 10.098 54.2865 10.098C53.7825 10.098 53.3205 10.221 52.9005 10.467C52.4805 10.713 52.1325 11.046 51.8565 11.466C51.5865 11.88 51.4185 12.345 51.3525 12.861ZM62.9303 18.171C62.4443 18.153 61.9703 18.063 61.5083 17.901C61.0523 17.733 60.6503 17.508 60.3023 17.226C59.9603 16.938 59.7113 16.608 59.5553 16.236L60.8513 15.678C60.9413 15.882 61.1033 16.074 61.3373 16.254C61.5713 16.434 61.8413 16.578 62.1473 16.686C62.4533 16.794 62.7623 16.848 63.0743 16.848C63.4043 16.848 63.7133 16.797 64.0013 16.695C64.2893 16.593 64.5233 16.443 64.7033 16.245C64.8893 16.041 64.9823 15.798 64.9823 15.516C64.9823 15.216 64.8803 14.982 64.6763 14.814C64.4783 14.64 64.2263 14.505 63.9203 14.409C63.6203 14.307 63.3143 14.211 63.0023 14.121C62.3843 13.965 61.8323 13.779 61.3463 13.563C60.8603 13.341 60.4763 13.062 60.1943 12.726C59.9183 12.384 59.7803 11.949 59.7803 11.421C59.7803 10.863 59.9333 10.38 60.2393 9.972C60.5513 9.564 60.9593 9.249 61.4633 9.027C61.9673 8.805 62.5073 8.694 63.0833 8.694C63.8093 8.694 64.4723 8.85 65.0723 9.162C65.6723 9.474 66.1193 9.897 66.4133 10.431L65.1983 11.142C65.0963 10.926 64.9403 10.737 64.7303 10.575C64.5203 10.407 64.2803 10.275 64.0103 10.179C63.7403 10.083 63.4643 10.032 63.1823 10.026C62.8343 10.014 62.5073 10.059 62.2013 10.161C61.9013 10.263 61.6583 10.419 61.4723 10.629C61.2923 10.833 61.2023 11.088 61.2023 11.394C61.2023 11.694 61.2983 11.922 61.4903 12.078C61.6883 12.234 61.9433 12.36 62.2553 12.456C62.5733 12.546 62.9183 12.651 63.2903 12.771C63.8363 12.945 64.3463 13.146 64.8203 13.374C65.2943 13.602 65.6753 13.887 65.9633 14.229C66.2573 14.571 66.4013 14.994 66.3953 15.498C66.3953 16.05 66.2303 16.533 65.9003 16.947C65.5703 17.355 65.1413 17.667 64.6133 17.883C64.0913 18.099 63.5303 18.195 62.9303 18.171Z" fill="#999999"></path><path d="M5.012 66L0.948 54.8H2.372L5.844 64.36L9.324 54.8H10.74L6.676 66H5.012ZM17.5616 58H18.9056V66H17.5616L17.5056 64.648C17.255 65.112 16.9083 65.488 16.4656 65.776C16.0283 66.064 15.5056 66.208 14.8976 66.208C14.311 66.208 13.7616 66.0987 13.2496 65.88C12.7376 65.656 12.2843 65.3493 11.8896 64.96C11.5003 64.5653 11.1963 64.112 10.9776 63.6C10.759 63.088 10.6496 62.536 10.6496 61.944C10.6496 61.3733 10.7563 60.8347 10.9696 60.328C11.183 59.8213 11.479 59.3787 11.8576 59C12.2416 58.616 12.6843 58.3173 13.1856 58.104C13.687 57.8853 14.2256 57.776 14.8016 57.776C15.431 57.776 15.983 57.9253 16.4576 58.224C16.9323 58.5173 17.3163 58.8987 17.6096 59.368L17.5616 58ZM14.8736 64.904C15.4016 64.904 15.8576 64.776 16.2416 64.52C16.631 64.2587 16.9296 63.9067 17.1376 63.464C17.351 63.0213 17.4576 62.5333 17.4576 62C17.4576 61.456 17.351 60.9653 17.1376 60.528C16.9243 60.0853 16.623 59.736 16.2336 59.48C15.8496 59.2187 15.3963 59.088 14.8736 59.088C14.3456 59.088 13.8656 59.2187 13.4336 59.48C13.0016 59.7413 12.6576 60.0933 12.4016 60.536C12.151 60.9733 12.0256 61.4613 12.0256 62C12.0256 62.5387 12.1563 63.0293 12.4176 63.472C12.679 63.9093 13.0256 64.2587 13.4576 64.52C13.8896 64.776 14.3616 64.904 14.8736 64.904ZM20.5024 66V54H21.8464V66H20.5024ZM23.352 62.96V58H24.696V62.664C24.696 63.0693 24.7947 63.4373 24.992 63.768C25.1893 64.0987 25.4533 64.3627 25.784 64.56C26.12 64.752 26.488 64.848 26.888 64.848C27.2933 64.848 27.6587 64.752 27.984 64.56C28.3147 64.3627 28.5787 64.0987 28.776 63.768C28.9733 63.4373 29.072 63.0693 29.072 62.664V58H30.416L30.424 66H29.08L29.072 64.984C28.7893 65.3573 28.432 65.656 28 65.88C27.568 66.0987 27.1013 66.208 26.6 66.208C26.0027 66.208 25.456 66.064 24.96 65.776C24.4693 65.4827 24.0773 65.0907 23.784 64.6C23.496 64.1093 23.352 63.5627 23.352 62.96ZM38.2892 58H39.6332V66H38.2892L38.2332 64.648C37.9826 65.112 37.6359 65.488 37.1932 65.776C36.7559 66.064 36.2332 66.208 35.6252 66.208C35.0386 66.208 34.4892 66.0987 33.9772 65.88C33.4652 65.656 33.0119 65.3493 32.6172 64.96C32.2279 64.5653 31.9239 64.112 31.7052 63.6C31.4866 63.088 31.3772 62.536 31.3772 61.944C31.3772 61.3733 31.4839 60.8347 31.6972 60.328C31.9106 59.8213 32.2066 59.3787 32.5852 59C32.9692 58.616 33.4119 58.3173 33.9132 58.104C34.4146 57.8853 34.9532 57.776 35.5292 57.776C36.1586 57.776 36.7106 57.9253 37.1852 58.224C37.6599 58.5173 38.0439 58.8987 38.3372 59.368L38.2892 58ZM35.6012 64.904C36.1292 64.904 36.5852 64.776 36.9692 64.52C37.3586 64.2587 37.6572 63.9067 37.8652 63.464C38.0786 63.0213 38.1852 62.5333 38.1852 62C38.1852 61.456 38.0786 60.9653 37.8652 60.528C37.6519 60.0853 37.3506 59.736 36.9612 59.48C36.5772 59.2187 36.1239 59.088 35.6012 59.088C35.0732 59.088 34.5932 59.2187 34.1612 59.48C33.7292 59.7413 33.3852 60.0933 33.1292 60.536C32.8786 60.9733 32.7532 61.4613 32.7532 62C32.7532 62.5387 32.8839 63.0293 33.1452 63.472C33.4066 63.9093 33.7532 64.2587 34.1852 64.52C34.6172 64.776 35.0892 64.904 35.6012 64.904ZM45.2803 59.344H43.4643L43.4563 66H42.1123L42.1203 59.344H40.7443V58H42.1203L42.1123 55.488H43.4563L43.4643 58H45.2803V59.344ZM46.5402 58H47.8842V66H46.5402V58ZM47.2282 56.696C47.0149 56.696 46.8362 56.6267 46.6922 56.488C46.5482 56.3493 46.4762 56.176 46.4762 55.968C46.4762 55.76 46.5482 55.5867 46.6922 55.448C46.8362 55.3093 47.0122 55.24 47.2202 55.24C47.4282 55.24 47.6042 55.3093 47.7483 55.448C47.8922 55.5867 47.9642 55.76 47.9642 55.968C47.9642 56.176 47.8922 56.3493 47.7483 56.488C47.6096 56.6267 47.4362 56.696 47.2282 56.696ZM53.1205 66.208C52.3845 66.208 51.7125 66.0187 51.1045 65.64C50.5018 65.2613 50.0192 64.7547 49.6565 64.12C49.2992 63.48 49.1205 62.7733 49.1205 62C49.1205 61.4133 49.2245 60.8667 49.4325 60.36C49.6405 59.848 49.9258 59.4 50.2885 59.016C50.6565 58.6267 51.0832 58.3227 51.5685 58.104C52.0538 57.8853 52.5712 57.776 53.1205 57.776C53.8565 57.776 54.5258 57.9653 55.1285 58.344C55.7365 58.7227 56.2192 59.232 56.5765 59.872C56.9392 60.512 57.1205 61.2213 57.1205 62C57.1205 62.5813 57.0165 63.1253 56.8085 63.632C56.6005 64.1387 56.3125 64.5867 55.9445 64.976C55.5818 65.36 55.1578 65.6613 54.6725 65.88C54.1925 66.0987 53.6752 66.208 53.1205 66.208ZM53.1205 64.864C53.6218 64.864 54.0725 64.7333 54.4725 64.472C54.8778 64.2053 55.1952 63.856 55.4245 63.424C55.6592 62.9867 55.7765 62.512 55.7765 62C55.7765 61.4773 55.6565 60.9973 55.4165 60.56C55.1818 60.1227 54.8645 59.7733 54.4645 59.512C54.0645 59.2507 53.6165 59.12 53.1205 59.12C52.6192 59.12 52.1685 59.2533 51.7685 59.52C51.3685 59.7813 51.0512 60.1307 50.8165 60.568C50.5818 61.0053 50.4645 61.4827 50.4645 62C50.4645 62.5333 50.5845 63.0187 50.8245 63.456C51.0645 63.888 51.3872 64.232 51.7925 64.488C52.1978 64.7387 52.6405 64.864 53.1205 64.864ZM65.4202 61.024V66H64.0762V61.32C64.0762 60.9147 63.9776 60.5467 63.7802 60.216C63.5829 59.8853 63.3189 59.624 62.9882 59.432C62.6576 59.2347 62.2896 59.136 61.8842 59.136C61.4842 59.136 61.1162 59.2347 60.7802 59.432C60.4496 59.624 60.1856 59.8853 59.9882 60.216C59.7909 60.5467 59.6922 60.9147 59.6922 61.32V66H58.3482V58H59.6922V59C59.9749 58.6267 60.3322 58.3307 60.7642 58.112C61.1962 57.888 61.6656 57.776 62.1722 57.776C62.7696 57.776 63.3136 57.9227 63.8042 58.216C64.3002 58.504 64.6922 58.8933 64.9802 59.384C65.2736 59.8747 65.4202 60.4213 65.4202 61.024ZM70.6719 66L72.8399 54.8H73.8719L76.8959 62.752L79.9119 54.8H80.9439L83.1199 66H81.7519L80.1759 57.872L77.3359 65.392H76.4479L73.6079 57.872L72.0399 66H70.6719ZM90.6798 58H92.0238V66H90.6798L90.6238 64.648C90.3731 65.112 90.0264 65.488 89.5838 65.776C89.1464 66.064 88.6238 66.208 88.0158 66.208C87.4291 66.208 86.8798 66.0987 86.3678 65.88C85.8558 65.656 85.4024 65.3493 85.0078 64.96C84.6184 64.5653 84.3144 64.112 84.0958 63.6C83.8771 63.088 83.7678 62.536 83.7678 61.944C83.7678 61.3733 83.8744 60.8347 84.0878 60.328C84.3011 59.8213 84.5971 59.3787 84.9758 59C85.3598 58.616 85.8024 58.3173 86.3038 58.104C86.8051 57.8853 87.3438 57.776 87.9198 57.776C88.5491 57.776 89.1011 57.9253 89.5758 58.224C90.0504 58.5173 90.4344 58.8987 90.7278 59.368L90.6798 58ZM87.9918 64.904C88.5198 64.904 88.9758 64.776 89.3598 64.52C89.7491 64.2587 90.0478 63.9067 90.2558 63.464C90.4691 63.0213 90.5758 62.5333 90.5758 62C90.5758 61.456 90.4691 60.9653 90.2558 60.528C90.0424 60.0853 89.7411 59.736 89.3518 59.48C88.9678 59.2187 88.5144 59.088 87.9918 59.088C87.4638 59.088 86.9838 59.2187 86.5518 59.48C86.1198 59.7413 85.7758 60.0933 85.5198 60.536C85.2691 60.9733 85.1438 61.4613 85.1438 62C85.1438 62.5387 85.2744 63.0293 85.5358 63.472C85.7971 63.9093 86.1438 64.2587 86.5758 64.52C87.0078 64.776 87.4798 64.904 87.9918 64.904ZM95.9667 66.152C95.5347 66.136 95.1134 66.056 94.7027 65.912C94.2974 65.7627 93.9401 65.5627 93.6307 65.312C93.3267 65.056 93.1054 64.7627 92.9667 64.432L94.1187 63.936C94.1987 64.1173 94.3427 64.288 94.5507 64.448C94.7587 64.608 94.9987 64.736 95.2707 64.832C95.5427 64.928 95.8174 64.976 96.0947 64.976C96.3881 64.976 96.6627 64.9307 96.9187 64.84C97.1747 64.7493 97.3827 64.616 97.5427 64.44C97.7081 64.2587 97.7908 64.0427 97.7908 63.792C97.7908 63.5253 97.7001 63.3173 97.5187 63.168C97.3427 63.0133 97.1187 62.8933 96.8467 62.808C96.5801 62.7173 96.3081 62.632 96.0307 62.552C95.4814 62.4133 94.9907 62.248 94.5587 62.056C94.1267 61.8587 93.7854 61.6107 93.5347 61.312C93.2894 61.008 93.1667 60.6213 93.1667 60.152C93.1667 59.656 93.3027 59.2267 93.5747 58.864C93.8521 58.5013 94.2147 58.2213 94.6627 58.024C95.1107 57.8267 95.5907 57.728 96.1027 57.728C96.7481 57.728 97.3374 57.8667 97.8707 58.144C98.4041 58.4213 98.8014 58.7973 99.0627 59.272L97.9827 59.904C97.8921 59.712 97.7534 59.544 97.5667 59.4C97.3801 59.2507 97.1667 59.1333 96.9267 59.048C96.6867 58.9627 96.4414 58.9173 96.1907 58.912C95.8814 58.9013 95.5907 58.9413 95.3187 59.032C95.0521 59.1227 94.8361 59.2613 94.6707 59.448C94.5107 59.6293 94.4307 59.856 94.4307 60.128C94.4307 60.3947 94.5161 60.5973 94.6867 60.736C94.8627 60.8747 95.0894 60.9867 95.3667 61.072C95.6494 61.152 95.9561 61.2453 96.2867 61.352C96.7721 61.5067 97.2254 61.6853 97.6467 61.888C98.0681 62.0907 98.4067 62.344 98.6627 62.648C98.9241 62.952 99.0521 63.328 99.0468 63.776C99.0468 64.2667 98.9001 64.696 98.6068 65.064C98.3134 65.4267 97.9321 65.704 97.4627 65.896C96.9987 66.088 96.5001 66.1733 95.9667 66.152ZM104.465 59.344H102.649L102.641 66H101.297L101.305 59.344H99.9294V58H101.305L101.297 55.488H102.641L102.649 58H104.465V59.344ZM109.12 66.208C108.384 66.208 107.712 66.0187 107.104 65.64C106.502 65.2613 106.019 64.7547 105.656 64.12C105.299 63.48 105.12 62.7733 105.12 62C105.12 61.4133 105.224 60.8667 105.432 60.36C105.64 59.848 105.926 59.4 106.288 59.016C106.656 58.6267 107.083 58.3227 107.568 58.104C108.054 57.8853 108.571 57.776 109.12 57.776C109.723 57.776 110.275 57.8987 110.776 58.144C111.283 58.384 111.715 58.72 112.072 59.152C112.435 59.584 112.704 60.0853 112.88 60.656C113.062 61.2267 113.128 61.8373 113.08 62.488H106.552C106.616 62.9413 106.766 63.3467 107 63.704C107.235 64.056 107.534 64.336 107.896 64.544C108.264 64.752 108.672 64.8587 109.12 64.864C109.6 64.864 110.035 64.7413 110.424 64.496C110.814 64.2453 111.128 63.904 111.368 63.472L112.736 63.792C112.416 64.5013 111.934 65.0827 111.288 65.536C110.643 65.984 109.92 66.208 109.12 66.208ZM106.512 61.432H111.728C111.686 60.984 111.542 60.576 111.296 60.208C111.051 59.8347 110.739 59.536 110.36 59.312C109.982 59.088 109.568 58.976 109.12 58.976C108.672 58.976 108.262 59.0853 107.888 59.304C107.515 59.5227 107.206 59.8187 106.96 60.192C106.72 60.56 106.571 60.9733 106.512 61.432ZM114.332 66V58H115.676V59C115.959 58.6267 116.316 58.3307 116.748 58.112C117.18 57.888 117.65 57.776 118.156 57.776C118.466 57.776 118.764 57.816 119.052 57.896L118.508 59.24C118.29 59.1707 118.076 59.136 117.868 59.136C117.468 59.136 117.1 59.2347 116.764 59.432C116.434 59.624 116.17 59.8853 115.972 60.216C115.775 60.5467 115.676 60.9147 115.676 61.32V66H114.332ZM125.42 58H126.844L122.468 70H121.044L122.492 66L119.62 58H121.092L123.164 64.152L125.42 58Z" fill="white"></path><path d="M5.404 106.208C4.80133 106.208 4.22 106.115 3.66 105.928C3.1 105.736 2.60933 105.464 2.188 105.112C1.772 104.76 1.476 104.341 1.3 103.856L2.556 103.384C2.66267 103.683 2.86 103.944 3.148 104.168C3.44133 104.387 3.78533 104.557 4.18 104.68C4.57467 104.803 4.98267 104.864 5.404 104.864C5.884 104.864 6.32933 104.787 6.74 104.632C7.156 104.472 7.492 104.251 7.748 103.968C8.004 103.685 8.132 103.355 8.132 102.976C8.132 102.587 7.99867 102.269 7.732 102.024C7.46533 101.773 7.124 101.576 6.708 101.432C6.292 101.283 5.85733 101.168 5.404 101.088C4.63067 100.96 3.93733 100.779 3.324 100.544C2.716 100.304 2.23333 99.9707 1.876 99.544C1.524 99.1173 1.348 98.5547 1.348 97.856C1.348 97.2053 1.53467 96.6373 1.908 96.152C2.28667 95.6667 2.78533 95.2907 3.404 95.024C4.02267 94.7573 4.68933 94.624 5.404 94.624C5.996 94.624 6.56933 94.7173 7.124 94.904C7.684 95.0853 8.17733 95.352 8.604 95.704C9.03067 96.056 9.33733 96.4853 9.524 96.992L8.252 97.456C8.14533 97.152 7.94533 96.8907 7.652 96.672C7.364 96.448 7.02267 96.2773 6.628 96.16C6.23867 96.0373 5.83067 95.976 5.404 95.976C4.92933 95.9707 4.48667 96.048 4.076 96.208C3.66533 96.368 3.332 96.5893 3.076 96.872C2.82 97.1547 2.692 97.4827 2.692 97.856C2.692 98.304 2.80933 98.648 3.044 98.888C3.284 99.1227 3.60933 99.2987 4.02 99.416C4.43067 99.5333 4.892 99.6373 5.404 99.728C6.12933 99.8507 6.80133 100.045 7.42 100.312C8.03867 100.573 8.53467 100.923 8.908 101.36C9.28667 101.797 9.476 102.336 9.476 102.976C9.476 103.627 9.28667 104.195 8.908 104.68C8.53467 105.165 8.03867 105.541 7.42 105.808C6.80133 106.075 6.12933 106.208 5.404 106.208ZM15.2268 99.344H13.4108L13.4028 106H12.0588L12.0668 99.344H10.6908V98H12.0668L12.0588 95.488H13.4028L13.4108 98H15.2268V99.344ZM16.5649 106V98H17.9089V99C18.1915 98.6267 18.5489 98.3307 18.9809 98.112C19.4129 97.888 19.8822 97.776 20.3889 97.776C20.6982 97.776 20.9969 97.816 21.2849 97.896L20.7409 99.24C20.5222 99.1707 20.3089 99.136 20.1009 99.136C19.7009 99.136 19.3329 99.2347 18.9969 99.432C18.6662 99.624 18.4022 99.8853 18.2049 100.216C18.0075 100.547 17.9089 100.915 17.9089 101.32V106H16.5649ZM28.1978 98H29.5417V106H28.1978L28.1418 104.648C27.8911 105.112 27.5444 105.488 27.1018 105.776C26.6644 106.064 26.1418 106.208 25.5338 106.208C24.9471 106.208 24.3978 106.099 23.8858 105.88C23.3737 105.656 22.9204 105.349 22.5257 104.96C22.1364 104.565 21.8324 104.112 21.6137 103.6C21.3951 103.088 21.2857 102.536 21.2857 101.944C21.2857 101.373 21.3924 100.835 21.6057 100.328C21.8191 99.8213 22.1151 99.3787 22.4937 99C22.8778 98.616 23.3204 98.3173 23.8217 98.104C24.3231 97.8853 24.8618 97.776 25.4378 97.776C26.0671 97.776 26.6191 97.9253 27.0938 98.224C27.5684 98.5173 27.9524 98.8987 28.2458 99.368L28.1978 98ZM25.5097 104.904C26.0378 104.904 26.4938 104.776 26.8778 104.52C27.2671 104.259 27.5658 103.907 27.7738 103.464C27.9871 103.021 28.0938 102.533 28.0938 102C28.0938 101.456 27.9871 100.965 27.7738 100.528C27.5604 100.085 27.2591 99.736 26.8698 99.48C26.4858 99.2187 26.0324 99.088 25.5097 99.088C24.9818 99.088 24.5018 99.2187 24.0698 99.48C23.6378 99.7413 23.2938 100.093 23.0378 100.536C22.7871 100.973 22.6617 101.461 22.6617 102C22.6617 102.539 22.7924 103.029 23.0538 103.472C23.3151 103.909 23.6617 104.259 24.0938 104.52C24.5258 104.776 24.9977 104.904 25.5097 104.904ZM35.1887 99.344H33.3727L33.3647 106H32.0207L32.0287 99.344H30.6527V98H32.0287L32.0207 95.488H33.3647L33.3727 98H35.1887V99.344ZM39.8438 106.208C39.1078 106.208 38.4358 106.019 37.8278 105.64C37.2251 105.261 36.7424 104.755 36.3798 104.12C36.0224 103.48 35.8438 102.773 35.8438 102C35.8438 101.413 35.9478 100.867 36.1558 100.36C36.3638 99.848 36.6491 99.4 37.0118 99.016C37.3798 98.6267 37.8064 98.3227 38.2918 98.104C38.7771 97.8853 39.2944 97.776 39.8438 97.776C40.4464 97.776 40.9984 97.8987 41.4998 98.144C42.0064 98.384 42.4384 98.72 42.7958 99.152C43.1584 99.584 43.4278 100.085 43.6038 100.656C43.7851 101.227 43.8518 101.837 43.8038 102.488H37.2758C37.3398 102.941 37.4891 103.347 37.7238 103.704C37.9584 104.056 38.2571 104.336 38.6198 104.544C38.9878 104.752 39.3958 104.859 39.8438 104.864C40.3238 104.864 40.7584 104.741 41.1478 104.496C41.5371 104.245 41.8518 103.904 42.0918 103.472L43.4598 103.792C43.1398 104.501 42.6571 105.083 42.0118 105.536C41.3664 105.984 40.6438 106.208 39.8438 106.208ZM37.2358 101.432H42.4518C42.4091 100.984 42.2651 100.576 42.0198 100.208C41.7744 99.8347 41.4624 99.536 41.0838 99.312C40.7051 99.088 40.2918 98.976 39.8438 98.976C39.3958 98.976 38.9851 99.0853 38.6118 99.304C38.2384 99.5227 37.9291 99.8187 37.6838 100.192C37.4438 100.56 37.2944 100.973 37.2358 101.432ZM51.257 98H52.601V106.256C52.601 106.784 52.4863 107.275 52.257 107.728C52.033 108.187 51.729 108.584 51.345 108.92C50.961 109.261 50.5237 109.525 50.033 109.712C49.5423 109.904 49.0303 110 48.497 110C47.9423 110 47.4063 109.875 46.889 109.624C46.3717 109.379 45.9183 109.048 45.529 108.632C45.145 108.221 44.8677 107.76 44.697 107.248L45.929 106.688C46.0303 107.056 46.2117 107.387 46.473 107.68C46.7397 107.979 47.049 108.213 47.401 108.384C47.7583 108.56 48.1237 108.648 48.497 108.648C48.849 108.648 49.1877 108.587 49.513 108.464C49.8437 108.341 50.1397 108.171 50.401 107.952C50.6677 107.739 50.8757 107.485 51.025 107.192C51.1797 106.904 51.257 106.592 51.257 106.256V104.664C50.985 105.123 50.625 105.496 50.177 105.784C49.7343 106.067 49.217 106.208 48.625 106.208C48.0597 106.208 47.529 106.099 47.033 105.88C46.537 105.661 46.1023 105.36 45.729 104.976C45.3557 104.587 45.0623 104.139 44.849 103.632C44.6357 103.125 44.529 102.581 44.529 102C44.529 101.419 44.6357 100.875 44.849 100.368C45.0623 99.856 45.3557 99.408 45.729 99.024C46.1023 98.6347 46.537 98.3307 47.033 98.112C47.529 97.8933 48.0597 97.784 48.625 97.784C49.217 97.784 49.7343 97.9253 50.177 98.208C50.625 98.4907 50.985 98.864 51.257 99.328V98ZM48.633 104.904C49.1503 104.904 49.5983 104.771 49.977 104.504C50.361 104.237 50.657 103.883 50.865 103.44C51.073 102.997 51.177 102.517 51.177 102C51.177 101.467 51.0703 100.981 50.857 100.544C50.649 100.101 50.353 99.7493 49.969 99.488C49.5903 99.2213 49.145 99.088 48.633 99.088C48.1317 99.088 47.673 99.2187 47.257 99.48C46.841 99.7413 46.5103 100.093 46.265 100.536C46.025 100.973 45.905 101.461 45.905 102C45.905 102.539 46.0277 103.029 46.273 103.472C46.5237 103.909 46.8543 104.259 47.265 104.52C47.681 104.776 48.137 104.904 48.633 104.904ZM54.3192 98H55.6632V106H54.3192V98ZM55.0072 96.696C54.7939 96.696 54.6152 96.6267 54.4712 96.488C54.3272 96.3493 54.2552 96.176 54.2552 95.968C54.2552 95.76 54.3272 95.5867 54.4712 95.448C54.6152 95.3093 54.7912 95.24 54.9992 95.24C55.2072 95.24 55.3832 95.3093 55.5272 95.448C55.6712 95.5867 55.7432 95.76 55.7432 95.968C55.7432 96.176 55.6712 96.3493 55.5272 96.488C55.3886 96.6267 55.2152 96.696 55.0072 96.696ZM62.8915 103.888L64.0915 104.536C63.7288 105.043 63.2675 105.448 62.7075 105.752C62.1528 106.056 61.5502 106.208 60.8995 106.208C60.1635 106.208 59.4915 106.019 58.8835 105.64C58.2808 105.261 57.7982 104.755 57.4355 104.12C57.0782 103.48 56.8995 102.773 56.8995 102C56.8995 101.413 57.0035 100.867 57.2115 100.36C57.4195 99.848 57.7048 99.4 58.0675 99.016C58.4355 98.6267 58.8622 98.3227 59.3475 98.104C59.8328 97.8853 60.3502 97.776 60.8995 97.776C61.5502 97.776 62.1528 97.928 62.7075 98.232C63.2675 98.536 63.7288 98.944 64.0915 99.456L62.8915 100.104C62.6355 99.7893 62.3315 99.5467 61.9795 99.376C61.6275 99.2053 61.2675 99.12 60.8995 99.12C60.4035 99.12 59.9528 99.2533 59.5475 99.52C59.1475 99.7813 58.8302 100.131 58.5955 100.568C58.3608 101.005 58.2435 101.483 58.2435 102C58.2435 102.517 58.3608 102.995 58.5955 103.432C58.8355 103.864 59.1555 104.211 59.5555 104.472C59.9608 104.733 60.4088 104.864 60.8995 104.864C61.2942 104.864 61.6648 104.773 62.0115 104.592C62.3582 104.411 62.6515 104.176 62.8915 103.888ZM69.1875 106L71.3555 94.8H72.3875L75.4115 102.752L78.4275 94.8H79.4595L81.6355 106H80.2675L78.6915 97.872L75.8515 105.392H74.9635L72.1235 97.872L70.5555 106H69.1875ZM89.1954 98H90.5394V106H89.1954L89.1394 104.648C88.8887 105.112 88.542 105.488 88.0994 105.776C87.662 106.064 87.1394 106.208 86.5314 106.208C85.9447 106.208 85.3954 106.099 84.8834 105.88C84.3714 105.656 83.918 105.349 83.5234 104.96C83.134 104.565 82.83 104.112 82.6114 103.6C82.3927 103.088 82.2834 102.536 82.2834 101.944C82.2834 101.373 82.39 100.835 82.6034 100.328C82.8167 99.8213 83.1127 99.3787 83.4914 99C83.8754 98.616 84.318 98.3173 84.8194 98.104C85.3207 97.8853 85.8594 97.776 86.4354 97.776C87.0647 97.776 87.6167 97.9253 88.0914 98.224C88.566 98.5173 88.95 98.8987 89.2434 99.368L89.1954 98ZM86.5074 104.904C87.0354 104.904 87.4914 104.776 87.8754 104.52C88.2647 104.259 88.5634 103.907 88.7714 103.464C88.9847 103.021 89.0914 102.533 89.0914 102C89.0914 101.456 88.9847 100.965 88.7714 100.528C88.558 100.085 88.2567 99.736 87.8674 99.48C87.4834 99.2187 87.03 99.088 86.5074 99.088C85.9794 99.088 85.4994 99.2187 85.0674 99.48C84.6354 99.7413 84.2914 100.093 84.0354 100.536C83.7847 100.973 83.6594 101.461 83.6594 102C83.6594 102.539 83.79 103.029 84.0514 103.472C84.3127 103.909 84.6594 104.259 85.0914 104.52C85.5234 104.776 85.9954 104.904 86.5074 104.904ZM92.0424 106V98H93.3864V99C93.669 98.6267 94.0264 98.3307 94.4584 98.112C94.8904 97.888 95.3597 97.776 95.8664 97.776C96.1757 97.776 96.4744 97.816 96.7624 97.896L96.2184 99.24C95.9997 99.1707 95.7864 99.136 95.5784 99.136C95.1784 99.136 94.8104 99.2347 94.4744 99.432C94.1437 99.624 93.8797 99.8853 93.6824 100.216C93.485 100.547 93.3864 100.915 93.3864 101.32V106H92.0424ZM104.091 106H102.547L100.419 102.328L98.9466 104.088V106H97.6026V94H98.9466V102L102.299 98H104.051L101.331 101.24L104.091 106ZM108.448 106.208C107.712 106.208 107.04 106.019 106.432 105.64C105.83 105.261 105.347 104.755 104.984 104.12C104.627 103.48 104.448 102.773 104.448 102C104.448 101.413 104.552 100.867 104.76 100.36C104.968 99.848 105.254 99.4 105.616 99.016C105.984 98.6267 106.411 98.3227 106.896 98.104C107.382 97.8853 107.899 97.776 108.448 97.776C109.051 97.776 109.603 97.8987 110.104 98.144C110.611 98.384 111.043 98.72 111.4 99.152C111.763 99.584 112.032 100.085 112.208 100.656C112.39 101.227 112.456 101.837 112.408 102.488H105.88C105.944 102.941 106.094 103.347 106.328 103.704C106.563 104.056 106.862 104.336 107.224 104.544C107.592 104.752 108 104.859 108.448 104.864C108.928 104.864 109.363 104.741 109.752 104.496C110.142 104.245 110.456 103.904 110.696 103.472L112.064 103.792C111.744 104.501 111.262 105.083 110.616 105.536C109.971 105.984 109.248 106.208 108.448 106.208ZM105.84 101.432H111.056C111.014 100.984 110.87 100.576 110.624 100.208C110.379 99.8347 110.067 99.536 109.688 99.312C109.31 99.088 108.896 98.976 108.448 98.976C108 98.976 107.59 99.0853 107.216 99.304C106.843 99.5227 106.534 99.8187 106.288 100.192C106.048 100.56 105.899 100.973 105.84 101.432ZM117.711 99.344H115.895L115.887 106H114.543L114.551 99.344H113.175V98H114.551L114.543 95.488H115.887L115.895 98H117.711V99.344ZM118.971 98H120.315V106H118.971V98ZM119.659 96.696C119.446 96.696 119.267 96.6267 119.123 96.488C118.979 96.3493 118.907 96.176 118.907 95.968C118.907 95.76 118.979 95.5867 119.123 95.448C119.267 95.3093 119.443 95.24 119.651 95.24C119.859 95.24 120.035 95.3093 120.179 95.448C120.323 95.5867 120.395 95.76 120.395 95.968C120.395 96.176 120.323 96.3493 120.179 96.488C120.04 96.6267 119.867 96.696 119.659 96.696ZM129.181 101.024V106H127.837V101.32C127.837 100.915 127.739 100.547 127.541 100.216C127.344 99.8853 127.08 99.624 126.749 99.432C126.419 99.2347 126.051 99.136 125.645 99.136C125.245 99.136 124.877 99.2347 124.541 99.432C124.211 99.624 123.947 99.8853 123.749 100.216C123.552 100.547 123.453 100.915 123.453 101.32V106H122.109V98H123.453V99C123.736 98.6267 124.093 98.3307 124.525 98.112C124.957 97.888 125.427 97.776 125.933 97.776C126.531 97.776 127.075 97.9227 127.565 98.216C128.061 98.504 128.453 98.8933 128.741 99.384C129.035 99.8747 129.181 100.421 129.181 101.024ZM136.777 98H138.121V106.256C138.121 106.784 138.006 107.275 137.777 107.728C137.553 108.187 137.249 108.584 136.865 108.92C136.481 109.261 136.044 109.525 135.553 109.712C135.062 109.904 134.55 110 134.017 110C133.462 110 132.926 109.875 132.409 109.624C131.892 109.379 131.438 109.048 131.049 108.632C130.665 108.221 130.388 107.76 130.217 107.248L131.449 106.688C131.55 107.056 131.732 107.387 131.993 107.68C132.26 107.979 132.569 108.213 132.921 108.384C133.278 108.56 133.644 108.648 134.017 108.648C134.369 108.648 134.708 108.587 135.033 108.464C135.364 108.341 135.66 108.171 135.921 107.952C136.188 107.739 136.396 107.485 136.545 107.192C136.7 106.904 136.777 106.592 136.777 106.256V104.664C136.505 105.123 136.145 105.496 135.697 105.784C135.254 106.067 134.737 106.208 134.145 106.208C133.58 106.208 133.049 106.099 132.553 105.88C132.057 105.661 131.622 105.36 131.249 104.976C130.876 104.587 130.582 104.139 130.369 103.632C130.156 103.125 130.049 102.581 130.049 102C130.049 101.419 130.156 100.875 130.369 100.368C130.582 99.856 130.876 99.408 131.249 99.024C131.622 98.6347 132.057 98.3307 132.553 98.112C133.049 97.8933 133.58 97.784 134.145 97.784C134.737 97.784 135.254 97.9253 135.697 98.208C136.145 98.4907 136.505 98.864 136.777 99.328V98ZM134.153 104.904C134.67 104.904 135.118 104.771 135.497 104.504C135.881 104.237 136.177 103.883 136.385 103.44C136.593 102.997 136.697 102.517 136.697 102C136.697 101.467 136.59 100.981 136.377 100.544C136.169 100.101 135.873 99.7493 135.489 99.488C135.11 99.2213 134.665 99.088 134.153 99.088C133.652 99.088 133.193 99.2187 132.777 99.48C132.361 99.7413 132.03 100.093 131.785 100.536C131.545 100.973 131.425 101.461 131.425 102C131.425 102.539 131.548 103.029 131.793 103.472C132.044 103.909 132.374 104.259 132.785 104.52C133.201 104.776 133.657 104.904 134.153 104.904Z" fill="white"></path><path d="M1.46 146V134.8H2.916L8.508 143.568V134.8H9.852V146H8.404L2.804 137.232V146H1.46ZM15.1184 146.208C14.3824 146.208 13.7104 146.019 13.1024 145.64C12.4997 145.261 12.017 144.755 11.6544 144.12C11.297 143.48 11.1184 142.773 11.1184 142C11.1184 141.413 11.2224 140.867 11.4304 140.36C11.6384 139.848 11.9237 139.4 12.2864 139.016C12.6544 138.627 13.081 138.323 13.5664 138.104C14.0517 137.885 14.569 137.776 15.1184 137.776C15.721 137.776 16.273 137.899 16.7744 138.144C17.281 138.384 17.713 138.72 18.0704 139.152C18.433 139.584 18.7024 140.085 18.8784 140.656C19.0597 141.227 19.1264 141.837 19.0784 142.488H12.5504C12.6144 142.941 12.7637 143.347 12.9984 143.704C13.233 144.056 13.5317 144.336 13.8944 144.544C14.2624 144.752 14.6704 144.859 15.1184 144.864C15.5984 144.864 16.033 144.741 16.4224 144.496C16.8117 144.245 17.1264 143.904 17.3664 143.472L18.7344 143.792C18.4144 144.501 17.9317 145.083 17.2864 145.536C16.641 145.984 15.9184 146.208 15.1184 146.208ZM12.5104 141.432H17.7264C17.6837 140.984 17.5397 140.576 17.2944 140.208C17.049 139.835 16.737 139.536 16.3584 139.312C15.9797 139.088 15.5664 138.976 15.1184 138.976C14.6704 138.976 14.2597 139.085 13.8864 139.304C13.513 139.523 13.2037 139.819 12.9584 140.192C12.7184 140.56 12.569 140.973 12.5104 141.432ZM26.5316 138H27.8756V146.256C27.8756 146.784 27.761 147.275 27.5316 147.728C27.3076 148.187 27.0036 148.584 26.6196 148.92C26.2356 149.261 25.7983 149.525 25.3076 149.712C24.817 149.904 24.305 150 23.7716 150C23.217 150 22.681 149.875 22.1636 149.624C21.6463 149.379 21.193 149.048 20.8036 148.632C20.4196 148.221 20.1423 147.76 19.9716 147.248L21.2036 146.688C21.305 147.056 21.4863 147.387 21.7476 147.68C22.0143 147.979 22.3236 148.213 22.6756 148.384C23.033 148.56 23.3983 148.648 23.7716 148.648C24.1236 148.648 24.4623 148.587 24.7876 148.464C25.1183 148.341 25.4143 148.171 25.6756 147.952C25.9423 147.739 26.1503 147.485 26.2996 147.192C26.4543 146.904 26.5316 146.592 26.5316 146.256V144.664C26.2596 145.123 25.8996 145.496 25.4516 145.784C25.009 146.067 24.4916 146.208 23.8996 146.208C23.3343 146.208 22.8036 146.099 22.3076 145.88C21.8116 145.661 21.377 145.36 21.0036 144.976C20.6303 144.587 20.337 144.139 20.1236 143.632C19.9103 143.125 19.8036 142.581 19.8036 142C19.8036 141.419 19.9103 140.875 20.1236 140.368C20.337 139.856 20.6303 139.408 21.0036 139.024C21.377 138.635 21.8116 138.331 22.3076 138.112C22.8036 137.893 23.3343 137.784 23.8996 137.784C24.4916 137.784 25.009 137.925 25.4516 138.208C25.8996 138.491 26.2596 138.864 26.5316 139.328V138ZM23.9076 144.904C24.425 144.904 24.873 144.771 25.2516 144.504C25.6356 144.237 25.9316 143.883 26.1396 143.44C26.3476 142.997 26.4516 142.517 26.4516 142C26.4516 141.467 26.345 140.981 26.1316 140.544C25.9236 140.101 25.6276 139.749 25.2436 139.488C24.865 139.221 24.4196 139.088 23.9076 139.088C23.4063 139.088 22.9476 139.219 22.5316 139.48C22.1156 139.741 21.785 140.093 21.5396 140.536C21.2996 140.973 21.1796 141.461 21.1796 142C21.1796 142.539 21.3023 143.029 21.5476 143.472C21.7983 143.909 22.129 144.259 22.5396 144.52C22.9556 144.776 23.4116 144.904 23.9076 144.904ZM33.1139 146.208C32.3779 146.208 31.7059 146.019 31.0979 145.64C30.4952 145.261 30.0125 144.755 29.6499 144.12C29.2925 143.48 29.1139 142.773 29.1139 142C29.1139 141.413 29.2179 140.867 29.4259 140.36C29.6339 139.848 29.9192 139.4 30.2819 139.016C30.6499 138.627 31.0765 138.323 31.5619 138.104C32.0472 137.885 32.5645 137.776 33.1139 137.776C33.8499 137.776 34.5192 137.965 35.1219 138.344C35.7299 138.723 36.2125 139.232 36.5699 139.872C36.9325 140.512 37.1139 141.221 37.1139 142C37.1139 142.581 37.0099 143.125 36.8019 143.632C36.5939 144.139 36.3059 144.587 35.9379 144.976C35.5752 145.36 35.1512 145.661 34.6659 145.88C34.1859 146.099 33.6685 146.208 33.1139 146.208ZM33.1139 144.864C33.6152 144.864 34.0659 144.733 34.4659 144.472C34.8712 144.205 35.1885 143.856 35.4179 143.424C35.6525 142.987 35.7699 142.512 35.7699 142C35.7699 141.477 35.6499 140.997 35.4099 140.56C35.1752 140.123 34.8579 139.773 34.4579 139.512C34.0579 139.251 33.6099 139.12 33.1139 139.12C32.6125 139.12 32.1619 139.253 31.7619 139.52C31.3619 139.781 31.0445 140.131 30.8099 140.568C30.5752 141.005 30.4579 141.483 30.4579 142C30.4579 142.533 30.5779 143.019 30.8179 143.456C31.0579 143.888 31.3805 144.232 31.7859 144.488C32.1912 144.739 32.6339 144.864 33.1139 144.864ZM42.3919 139.344H40.5759L40.5679 146H39.2239L39.2319 139.344H37.8559V138H39.2319L39.2239 135.488H40.5679L40.5759 138H42.3919V139.344ZM43.6519 138H44.9959V146H43.6519V138ZM44.3399 136.696C44.1265 136.696 43.9479 136.627 43.8039 136.488C43.6599 136.349 43.5879 136.176 43.5879 135.968C43.5879 135.76 43.6599 135.587 43.8039 135.448C43.9479 135.309 44.1239 135.24 44.3319 135.24C44.5399 135.24 44.7159 135.309 44.8599 135.448C45.0039 135.587 45.0759 135.76 45.0759 135.968C45.0759 136.176 45.0039 136.349 44.8599 136.488C44.7212 136.627 44.5479 136.696 44.3399 136.696ZM53.1441 138H54.4881V146H53.1441L53.0881 144.648C52.8375 145.112 52.4908 145.488 52.0481 145.776C51.6108 146.064 51.0881 146.208 50.4801 146.208C49.8935 146.208 49.3441 146.099 48.8321 145.88C48.3201 145.656 47.8668 145.349 47.4721 144.96C47.0828 144.565 46.7788 144.112 46.5601 143.6C46.3415 143.088 46.2321 142.536 46.2321 141.944C46.2321 141.373 46.3388 140.835 46.5521 140.328C46.7655 139.821 47.0615 139.379 47.4401 139C47.8241 138.616 48.2668 138.317 48.7681 138.104C49.2695 137.885 49.8081 137.776 50.3841 137.776C51.0135 137.776 51.5655 137.925 52.0401 138.224C52.5148 138.517 52.8988 138.899 53.1921 139.368L53.1441 138ZM50.4561 144.904C50.9841 144.904 51.4401 144.776 51.8241 144.52C52.2135 144.259 52.5121 143.907 52.7201 143.464C52.9335 143.021 53.0401 142.533 53.0401 142C53.0401 141.456 52.9335 140.965 52.7201 140.528C52.5068 140.085 52.2055 139.736 51.8161 139.48C51.4321 139.219 50.9788 139.088 50.4561 139.088C49.9281 139.088 49.4481 139.219 49.0161 139.48C48.5841 139.741 48.2401 140.093 47.9841 140.536C47.7335 140.973 47.6081 141.461 47.6081 142C47.6081 142.539 47.7388 143.029 48.0001 143.472C48.2615 143.909 48.6081 144.259 49.0401 144.52C49.4721 144.776 49.9441 144.904 50.4561 144.904ZM60.1351 139.344H58.3191L58.3111 146H56.9671L56.9751 139.344H55.5991V138H56.9751L56.9671 135.488H58.3111L58.3191 138H60.1351V139.344ZM61.3951 138H62.7391V146H61.3951V138ZM62.0831 136.696C61.8698 136.696 61.6911 136.627 61.5471 136.488C61.4031 136.349 61.3311 136.176 61.3311 135.968C61.3311 135.76 61.4031 135.587 61.5471 135.448C61.6911 135.309 61.8671 135.24 62.0751 135.24C62.2831 135.24 62.4591 135.309 62.6031 135.448C62.7471 135.587 62.8191 135.76 62.8191 135.968C62.8191 136.176 62.7471 136.349 62.6031 136.488C62.4645 136.627 62.2911 136.696 62.0831 136.696ZM67.9754 146.208C67.2394 146.208 66.5674 146.019 65.9594 145.64C65.3567 145.261 64.874 144.755 64.5114 144.12C64.154 143.48 63.9754 142.773 63.9754 142C63.9754 141.413 64.0794 140.867 64.2874 140.36C64.4954 139.848 64.7807 139.4 65.1434 139.016C65.5114 138.627 65.938 138.323 66.4234 138.104C66.9087 137.885 67.426 137.776 67.9754 137.776C68.7114 137.776 69.3807 137.965 69.9834 138.344C70.5914 138.723 71.074 139.232 71.4314 139.872C71.794 140.512 71.9754 141.221 71.9754 142C71.9754 142.581 71.8714 143.125 71.6634 143.632C71.4554 144.139 71.1674 144.587 70.7994 144.976C70.4367 145.36 70.0127 145.661 69.5274 145.88C69.0474 146.099 68.53 146.208 67.9754 146.208ZM67.9754 144.864C68.4767 144.864 68.9274 144.733 69.3274 144.472C69.7327 144.205 70.05 143.856 70.2794 143.424C70.514 142.987 70.6314 142.512 70.6314 142C70.6314 141.477 70.5114 140.997 70.2714 140.56C70.0367 140.123 69.7194 139.773 69.3194 139.512C68.9194 139.251 68.4714 139.12 67.9754 139.12C67.474 139.12 67.0234 139.253 66.6234 139.52C66.2234 139.781 65.906 140.131 65.6714 140.568C65.4367 141.005 65.3194 141.483 65.3194 142C65.3194 142.533 65.4394 143.019 65.6794 143.456C65.9194 143.888 66.242 144.232 66.6474 144.488C67.0527 144.739 67.4954 144.864 67.9754 144.864ZM80.2751 141.024V146H78.9311V141.32C78.9311 140.915 78.8325 140.547 78.6351 140.216C78.4378 139.885 78.1738 139.624 77.8431 139.432C77.5125 139.235 77.1445 139.136 76.7391 139.136C76.3391 139.136 75.9711 139.235 75.6351 139.432C75.3045 139.624 75.0405 139.885 74.8431 140.216C74.6458 140.547 74.5471 140.915 74.5471 141.32V146H73.2031V138H74.5471V139C74.8298 138.627 75.1871 138.331 75.6191 138.112C76.0511 137.888 76.5205 137.776 77.0271 137.776C77.6245 137.776 78.1685 137.923 78.6591 138.216C79.1551 138.504 79.5471 138.893 79.8351 139.384C80.1285 139.875 80.2751 140.421 80.2751 141.024ZM87.8787 146L85.0147 134.8H86.3987L88.6547 143.64L90.9028 134.8H92.1107L94.3667 143.64L96.6147 134.8H97.9988L95.1508 146H93.5828L91.5107 137.888L89.4387 146H87.8787ZM98.7432 138H100.087V146H98.7432V138ZM99.4312 136.696C99.2179 136.696 99.0392 136.627 98.8952 136.488C98.7512 136.349 98.6792 136.176 98.6792 135.968C98.6792 135.76 98.7512 135.587 98.8952 135.448C99.0392 135.309 99.2152 135.24 99.4232 135.24C99.6312 135.24 99.8072 135.309 99.9512 135.448C100.095 135.587 100.167 135.76 100.167 135.968C100.167 136.176 100.095 136.349 99.9512 136.488C99.8126 136.627 99.6392 136.696 99.4312 136.696ZM108.425 139.344L103.505 144.656H108.425V146H101.593V144.656L106.513 139.344H101.593V138H108.425V139.344ZM116.249 138H117.593V146H116.249L116.193 144.648C115.942 145.112 115.596 145.488 115.153 145.776C114.716 146.064 114.193 146.208 113.585 146.208C112.998 146.208 112.449 146.099 111.937 145.88C111.425 145.656 110.972 145.349 110.577 144.96C110.188 144.565 109.884 144.112 109.665 143.6C109.446 143.088 109.337 142.536 109.337 141.944C109.337 141.373 109.444 140.835 109.657 140.328C109.87 139.821 110.166 139.379 110.545 139C110.929 138.616 111.372 138.317 111.873 138.104C112.374 137.885 112.913 137.776 113.489 137.776C114.118 137.776 114.67 137.925 115.145 138.224C115.62 138.517 116.004 138.899 116.297 139.368L116.249 138ZM113.561 144.904C114.089 144.904 114.545 144.776 114.929 144.52C115.318 144.259 115.617 143.907 115.825 143.464C116.038 143.021 116.145 142.533 116.145 142C116.145 141.456 116.038 140.965 115.825 140.528C115.612 140.085 115.31 139.736 114.921 139.48C114.537 139.219 114.084 139.088 113.561 139.088C113.033 139.088 112.553 139.219 112.121 139.48C111.689 139.741 111.345 140.093 111.089 140.536C110.838 140.973 110.713 141.461 110.713 142C110.713 142.539 110.844 143.029 111.105 143.472C111.366 143.909 111.713 144.259 112.145 144.52C112.577 144.776 113.049 144.904 113.561 144.904ZM119.096 146V138H120.44V139C120.723 138.627 121.08 138.331 121.512 138.112C121.944 137.888 122.413 137.776 122.92 137.776C123.229 137.776 123.528 137.816 123.816 137.896L123.272 139.24C123.053 139.171 122.84 139.136 122.632 139.136C122.232 139.136 121.864 139.235 121.528 139.432C121.197 139.624 120.933 139.885 120.736 140.216C120.539 140.547 120.44 140.915 120.44 141.32V146H119.096ZM130.737 134H132.081V146H130.737V144.64C130.465 145.109 130.099 145.488 129.641 145.776C129.182 146.064 128.643 146.208 128.025 146.208C127.443 146.208 126.899 146.099 126.393 145.88C125.886 145.661 125.438 145.36 125.049 144.976C124.665 144.587 124.363 144.139 124.145 143.632C123.926 143.125 123.817 142.581 123.817 142C123.817 141.419 123.926 140.875 124.145 140.368C124.363 139.856 124.665 139.408 125.049 139.024C125.438 138.635 125.886 138.331 126.393 138.112C126.899 137.893 127.443 137.784 128.025 137.784C128.643 137.784 129.182 137.928 129.641 138.216C130.099 138.504 130.465 138.883 130.737 139.352V134ZM128.041 144.904C128.569 144.904 129.025 144.776 129.409 144.52C129.798 144.259 130.097 143.907 130.305 143.464C130.518 143.021 130.625 142.533 130.625 142C130.625 141.456 130.518 140.965 130.305 140.528C130.091 140.085 129.79 139.736 129.401 139.48C129.017 139.219 128.563 139.088 128.041 139.088C127.513 139.088 127.033 139.219 126.601 139.48C126.174 139.741 125.833 140.093 125.577 140.536C125.321 140.973 125.193 141.461 125.193 142C125.193 142.539 125.323 143.029 125.585 143.472C125.846 143.909 126.193 144.259 126.625 144.52C127.057 144.776 127.529 144.904 128.041 144.904ZM133.904 146V138H135.248V139C135.531 138.627 135.888 138.331 136.32 138.112C136.752 137.888 137.221 137.776 137.728 137.776C138.037 137.776 138.336 137.816 138.624 137.896L138.08 139.24C137.861 139.171 137.648 139.136 137.44 139.136C137.04 139.136 136.672 139.235 136.336 139.432C136.005 139.624 135.741 139.885 135.544 140.216C135.347 140.547 135.248 140.915 135.248 141.32V146H133.904ZM144.991 138H146.415L142.039 150H140.615L142.063 146L139.191 138H140.663L142.735 144.152L144.991 138Z" fill="white"></path><path d="M6.644 186.208C5.88667 186.208 5.17467 186.059 4.508 185.76C3.84133 185.456 3.25467 185.04 2.748 184.512C2.24667 183.979 1.852 183.36 1.564 182.656C1.28133 181.952 1.14 181.2 1.14 180.4C1.14 179.6 1.28133 178.848 1.564 178.144C1.852 177.44 2.24667 176.824 2.748 176.296C3.25467 175.763 3.84133 175.347 4.508 175.048C5.17467 174.744 5.88667 174.592 6.644 174.592C7.55067 174.592 8.38533 174.803 9.148 175.224C9.91067 175.645 10.5427 176.205 11.044 176.904L9.852 177.544C9.47867 177.053 9.00667 176.664 8.436 176.376C7.87067 176.083 7.27333 175.936 6.644 175.936C6.06267 175.936 5.51867 176.053 5.012 176.288C4.51067 176.523 4.07067 176.845 3.692 177.256C3.31333 177.667 3.01733 178.141 2.804 178.68C2.59067 179.219 2.484 179.792 2.484 180.4C2.484 181.013 2.59067 181.589 2.804 182.128C3.02267 182.667 3.32133 183.141 3.7 183.552C4.084 183.963 4.52667 184.285 5.028 184.52C5.53467 184.749 6.07333 184.864 6.644 184.864C7.29467 184.864 7.89733 184.717 8.452 184.424C9.012 184.125 9.47867 183.736 9.852 183.256L11.044 183.904C10.5427 184.603 9.91067 185.163 9.148 185.584C8.38533 186 7.55067 186.208 6.644 186.208ZM12.5671 186V174H13.9111V186H12.5671ZM19.1786 186.208C18.4426 186.208 17.7706 186.019 17.1626 185.64C16.56 185.261 16.0773 184.755 15.7146 184.12C15.3573 183.48 15.1786 182.773 15.1786 182C15.1786 181.413 15.2826 180.867 15.4906 180.36C15.6986 179.848 15.984 179.4 16.3466 179.016C16.7146 178.627 17.1413 178.323 17.6266 178.104C18.112 177.885 18.6293 177.776 19.1786 177.776C19.9146 177.776 20.584 177.965 21.1866 178.344C21.7946 178.723 22.2773 179.232 22.6346 179.872C22.9973 180.512 23.1786 181.221 23.1786 182C23.1786 182.581 23.0746 183.125 22.8666 183.632C22.6586 184.139 22.3706 184.587 22.0026 184.976C21.64 185.36 21.216 185.661 20.7306 185.88C20.2506 186.099 19.7333 186.208 19.1786 186.208ZM19.1786 184.864C19.68 184.864 20.1306 184.733 20.5306 184.472C20.936 184.205 21.2533 183.856 21.4826 183.424C21.7173 182.987 21.8346 182.512 21.8346 182C21.8346 181.477 21.7146 180.997 21.4746 180.56C21.24 180.123 20.9226 179.773 20.5226 179.512C20.1226 179.251 19.6746 179.12 19.1786 179.12C18.6773 179.12 18.2266 179.253 17.8266 179.52C17.4266 179.781 17.1093 180.131 16.8746 180.568C16.64 181.005 16.5226 181.483 16.5226 182C16.5226 182.533 16.6426 183.019 16.8826 183.456C17.1226 183.888 17.4453 184.232 17.8506 184.488C18.256 184.739 18.6986 184.864 19.1786 184.864ZM26.8776 186.152C26.4456 186.136 26.0243 186.056 25.6136 185.912C25.2083 185.763 24.851 185.563 24.5416 185.312C24.2376 185.056 24.0163 184.763 23.8776 184.432L25.0296 183.936C25.1096 184.117 25.2536 184.288 25.4616 184.448C25.6696 184.608 25.9096 184.736 26.1816 184.832C26.4536 184.928 26.7283 184.976 27.0056 184.976C27.299 184.976 27.5736 184.931 27.8296 184.84C28.0856 184.749 28.2936 184.616 28.4536 184.44C28.619 184.259 28.7016 184.043 28.7016 183.792C28.7016 183.525 28.611 183.317 28.4296 183.168C28.2536 183.013 28.0296 182.893 27.7576 182.808C27.491 182.717 27.219 182.632 26.9416 182.552C26.3923 182.413 25.9016 182.248 25.4696 182.056C25.0376 181.859 24.6963 181.611 24.4456 181.312C24.2003 181.008 24.0776 180.621 24.0776 180.152C24.0776 179.656 24.2136 179.227 24.4856 178.864C24.763 178.501 25.1256 178.221 25.5736 178.024C26.0216 177.827 26.5016 177.728 27.0136 177.728C27.659 177.728 28.2483 177.867 28.7816 178.144C29.315 178.421 29.7123 178.797 29.9736 179.272L28.8936 179.904C28.803 179.712 28.6643 179.544 28.4776 179.4C28.291 179.251 28.0776 179.133 27.8376 179.048C27.5976 178.963 27.3523 178.917 27.1016 178.912C26.7923 178.901 26.5016 178.941 26.2296 179.032C25.963 179.123 25.747 179.261 25.5816 179.448C25.4216 179.629 25.3416 179.856 25.3416 180.128C25.3416 180.395 25.427 180.597 25.5976 180.736C25.7736 180.875 26.0003 180.987 26.2776 181.072C26.5603 181.152 26.867 181.245 27.1976 181.352C27.683 181.507 28.1363 181.685 28.5576 181.888C28.979 182.091 29.3176 182.344 29.5736 182.648C29.835 182.952 29.963 183.328 29.9576 183.776C29.9576 184.267 29.811 184.696 29.5176 185.064C29.2243 185.427 28.843 185.704 28.3736 185.896C27.9096 186.088 27.411 186.173 26.8776 186.152ZM31.1229 178H32.4669V186H31.1229V178ZM31.8109 176.696C31.5975 176.696 31.4189 176.627 31.2749 176.488C31.1309 176.349 31.0589 176.176 31.0589 175.968C31.0589 175.76 31.1309 175.587 31.2749 175.448C31.4189 175.309 31.5949 175.24 31.8029 175.24C32.0109 175.24 32.1869 175.309 32.3309 175.448C32.4749 175.587 32.5469 175.76 32.5469 175.968C32.5469 176.176 32.4749 176.349 32.3309 176.488C32.1922 176.627 32.0189 176.696 31.8109 176.696ZM41.3333 181.024V186H39.9893V181.32C39.9893 180.915 39.8906 180.547 39.6933 180.216C39.4959 179.885 39.2319 179.624 38.9013 179.432C38.5706 179.235 38.2026 179.136 37.7973 179.136C37.3973 179.136 37.0293 179.235 36.6933 179.432C36.3626 179.624 36.0986 179.885 35.9013 180.216C35.7039 180.547 35.6053 180.915 35.6053 181.32V186H34.2613V178H35.6053V179C35.8879 178.627 36.2453 178.331 36.6773 178.112C37.1093 177.888 37.5786 177.776 38.0853 177.776C38.6826 177.776 39.2266 177.923 39.7173 178.216C40.2133 178.504 40.6053 178.893 40.8933 179.384C41.1866 179.875 41.3333 180.421 41.3333 181.024ZM48.9289 178H50.2729V186.256C50.2729 186.784 50.1582 187.275 49.9289 187.728C49.7049 188.187 49.4009 188.584 49.0169 188.92C48.6329 189.261 48.1955 189.525 47.7049 189.712C47.2142 189.904 46.7022 190 46.1689 190C45.6142 190 45.0782 189.875 44.5609 189.624C44.0435 189.379 43.5902 189.048 43.2009 188.632C42.8169 188.221 42.5395 187.76 42.3689 187.248L43.6009 186.688C43.7022 187.056 43.8835 187.387 44.1449 187.68C44.4115 187.979 44.7209 188.213 45.0729 188.384C45.4302 188.56 45.7955 188.648 46.1689 188.648C46.5209 188.648 46.8595 188.587 47.1849 188.464C47.5155 188.341 47.8115 188.171 48.0729 187.952C48.3395 187.739 48.5475 187.485 48.6969 187.192C48.8515 186.904 48.9289 186.592 48.9289 186.256V184.664C48.6569 185.123 48.2969 185.496 47.8489 185.784C47.4062 186.067 46.8889 186.208 46.2969 186.208C45.7315 186.208 45.2009 186.099 44.7049 185.88C44.2089 185.661 43.7742 185.36 43.4009 184.976C43.0275 184.587 42.7342 184.139 42.5209 183.632C42.3075 183.125 42.2009 182.581 42.2009 182C42.2009 181.419 42.3075 180.875 42.5209 180.368C42.7342 179.856 43.0275 179.408 43.4009 179.024C43.7742 178.635 44.2089 178.331 44.7049 178.112C45.2009 177.893 45.7315 177.784 46.2969 177.784C46.8889 177.784 47.4062 177.925 47.8489 178.208C48.2969 178.491 48.6569 178.864 48.9289 179.328V178ZM46.3049 184.904C46.8222 184.904 47.2702 184.771 47.6489 184.504C48.0329 184.237 48.3289 183.883 48.5369 183.44C48.7449 182.997 48.8489 182.517 48.8489 182C48.8489 181.467 48.7422 180.981 48.5289 180.544C48.3209 180.101 48.0249 179.749 47.6409 179.488C47.2622 179.221 46.8169 179.088 46.3049 179.088C45.8035 179.088 45.3449 179.219 44.9289 179.48C44.5129 179.741 44.1822 180.093 43.9369 180.536C43.6969 180.973 43.5769 181.461 43.5769 182C43.5769 182.539 43.6995 183.029 43.9449 183.472C44.1955 183.909 44.5262 184.259 44.9369 184.52C45.3529 184.776 45.8089 184.904 46.3049 184.904ZM59.7922 186.208C59.1896 186.208 58.6082 186.115 58.0482 185.928C57.4882 185.736 56.9976 185.464 56.5762 185.112C56.1602 184.76 55.8642 184.341 55.6882 183.856L56.9442 183.384C57.0509 183.683 57.2482 183.944 57.5362 184.168C57.8296 184.387 58.1736 184.557 58.5682 184.68C58.9629 184.803 59.3709 184.864 59.7922 184.864C60.2722 184.864 60.7176 184.787 61.1282 184.632C61.5442 184.472 61.8802 184.251 62.1362 183.968C62.3922 183.685 62.5202 183.355 62.5202 182.976C62.5202 182.587 62.3869 182.269 62.1202 182.024C61.8536 181.773 61.5122 181.576 61.0962 181.432C60.6802 181.283 60.2456 181.168 59.7922 181.088C59.0189 180.96 58.3256 180.779 57.7122 180.544C57.1042 180.304 56.6216 179.971 56.2642 179.544C55.9122 179.117 55.7362 178.555 55.7362 177.856C55.7362 177.205 55.9229 176.637 56.2962 176.152C56.6749 175.667 57.1736 175.291 57.7922 175.024C58.4109 174.757 59.0776 174.624 59.7922 174.624C60.3842 174.624 60.9576 174.717 61.5122 174.904C62.0722 175.085 62.5656 175.352 62.9922 175.704C63.4189 176.056 63.7256 176.485 63.9122 176.992L62.6402 177.456C62.5336 177.152 62.3336 176.891 62.0402 176.672C61.7522 176.448 61.4109 176.277 61.0162 176.16C60.6269 176.037 60.2189 175.976 59.7922 175.976C59.3176 175.971 58.8749 176.048 58.4642 176.208C58.0536 176.368 57.7202 176.589 57.4642 176.872C57.2082 177.155 57.0802 177.483 57.0802 177.856C57.0802 178.304 57.1976 178.648 57.4322 178.888C57.6722 179.123 57.9976 179.299 58.4082 179.416C58.8189 179.533 59.2802 179.637 59.7922 179.728C60.5176 179.851 61.1896 180.045 61.8082 180.312C62.4269 180.573 62.9229 180.923 63.2962 181.36C63.6749 181.797 63.8642 182.336 63.8642 182.976C63.8642 183.627 63.6749 184.195 63.2962 184.68C62.9229 185.165 62.4269 185.541 61.8082 185.808C61.1896 186.075 60.5176 186.208 59.7922 186.208ZM65.151 182.96V178H66.495V182.664C66.495 183.069 66.5937 183.437 66.791 183.768C66.9883 184.099 67.2523 184.363 67.583 184.56C67.919 184.752 68.287 184.848 68.687 184.848C69.0923 184.848 69.4577 184.752 69.783 184.56C70.1137 184.363 70.3777 184.099 70.575 183.768C70.7723 183.437 70.871 183.069 70.871 182.664V178H72.215L72.223 186H70.879L70.871 184.984C70.5883 185.357 70.231 185.656 69.799 185.88C69.367 186.099 68.9003 186.208 68.399 186.208C67.8017 186.208 67.255 186.064 66.759 185.776C66.2683 185.483 65.8763 185.091 65.583 184.6C65.295 184.109 65.151 183.563 65.151 182.96ZM79.1683 183.888L80.3683 184.536C80.0056 185.043 79.5443 185.448 78.9843 185.752C78.4296 186.056 77.8269 186.208 77.1763 186.208C76.4403 186.208 75.7683 186.019 75.1603 185.64C74.5576 185.261 74.0749 184.755 73.7123 184.12C73.3549 183.48 73.1763 182.773 73.1763 182C73.1763 181.413 73.2803 180.867 73.4883 180.36C73.6963 179.848 73.9816 179.4 74.3443 179.016C74.7123 178.627 75.1389 178.323 75.6243 178.104C76.1096 177.885 76.6269 177.776 77.1763 177.776C77.8269 177.776 78.4296 177.928 78.9843 178.232C79.5443 178.536 80.0056 178.944 80.3683 179.456L79.1683 180.104C78.9123 179.789 78.6083 179.547 78.2563 179.376C77.9043 179.205 77.5443 179.12 77.1763 179.12C76.6803 179.12 76.2296 179.253 75.8243 179.52C75.4243 179.781 75.1069 180.131 74.8723 180.568C74.6376 181.005 74.5203 181.483 74.5203 182C74.5203 182.517 74.6376 182.995 74.8723 183.432C75.1123 183.864 75.4323 184.211 75.8323 184.472C76.2376 184.733 76.6856 184.864 77.1763 184.864C77.5709 184.864 77.9416 184.773 78.2883 184.592C78.6349 184.411 78.9283 184.176 79.1683 183.888ZM87.0879 183.888L88.2879 184.536C87.9252 185.043 87.4639 185.448 86.9039 185.752C86.3492 186.056 85.7465 186.208 85.0959 186.208C84.3599 186.208 83.6879 186.019 83.0799 185.64C82.4772 185.261 81.9945 184.755 81.6319 184.12C81.2745 183.48 81.0959 182.773 81.0959 182C81.0959 181.413 81.1999 180.867 81.4079 180.36C81.6159 179.848 81.9012 179.4 82.2639 179.016C82.6319 178.627 83.0585 178.323 83.5439 178.104C84.0292 177.885 84.5465 177.776 85.0959 177.776C85.7465 177.776 86.3492 177.928 86.9039 178.232C87.4639 178.536 87.9252 178.944 88.2879 179.456L87.0879 180.104C86.8319 179.789 86.5279 179.547 86.1759 179.376C85.8239 179.205 85.4639 179.12 85.0959 179.12C84.5999 179.12 84.1492 179.253 83.7439 179.52C83.3439 179.781 83.0265 180.131 82.7919 180.568C82.5572 181.005 82.4399 181.483 82.4399 182C82.4399 182.517 82.5572 182.995 82.7919 183.432C83.0319 183.864 83.3519 184.211 83.7519 184.472C84.1572 184.733 84.6052 184.864 85.0959 184.864C85.4905 184.864 85.8612 184.773 86.2079 184.592C86.5545 184.411 86.8479 184.176 87.0879 183.888ZM93.0155 186.208C92.2795 186.208 91.6075 186.019 90.9995 185.64C90.3968 185.261 89.9142 184.755 89.5515 184.12C89.1942 183.48 89.0155 182.773 89.0155 182C89.0155 181.413 89.1195 180.867 89.3275 180.36C89.5355 179.848 89.8208 179.4 90.1835 179.016C90.5515 178.627 90.9782 178.323 91.4635 178.104C91.9488 177.885 92.4662 177.776 93.0155 177.776C93.6182 177.776 94.1702 177.899 94.6715 178.144C95.1782 178.384 95.6102 178.72 95.9675 179.152C96.3302 179.584 96.5995 180.085 96.7755 180.656C96.9568 181.227 97.0235 181.837 96.9755 182.488H90.4475C90.5115 182.941 90.6608 183.347 90.8955 183.704C91.1302 184.056 91.4288 184.336 91.7915 184.544C92.1595 184.752 92.5675 184.859 93.0155 184.864C93.4955 184.864 93.9302 184.741 94.3195 184.496C94.7088 184.245 95.0235 183.904 95.2635 183.472L96.6315 183.792C96.3115 184.501 95.8288 185.083 95.1835 185.536C94.5382 185.984 93.8155 186.208 93.0155 186.208ZM90.4075 181.432H95.6235C95.5808 180.984 95.4368 180.576 95.1915 180.208C94.9462 179.835 94.6342 179.536 94.2555 179.312C93.8768 179.088 93.4635 178.976 93.0155 178.976C92.5675 178.976 92.1568 179.085 91.7835 179.304C91.4102 179.523 91.1008 179.819 90.8555 180.192C90.6155 180.56 90.4662 180.973 90.4075 181.432ZM100.699 186.152C100.267 186.136 99.8455 186.056 99.4349 185.912C99.0295 185.763 98.6722 185.563 98.3629 185.312C98.0589 185.056 97.8375 184.763 97.6989 184.432L98.8509 183.936C98.9309 184.117 99.0749 184.288 99.2829 184.448C99.4909 184.608 99.7309 184.736 100.003 184.832C100.275 184.928 100.55 184.976 100.827 184.976C101.12 184.976 101.395 184.931 101.651 184.84C101.907 184.749 102.115 184.616 102.275 184.44C102.44 184.259 102.523 184.043 102.523 183.792C102.523 183.525 102.432 183.317 102.251 183.168C102.075 183.013 101.851 182.893 101.579 182.808C101.312 182.717 101.04 182.632 100.763 182.552C100.214 182.413 99.7229 182.248 99.2909 182.056C98.8589 181.859 98.5175 181.611 98.2669 181.312C98.0215 181.008 97.8989 180.621 97.8989 180.152C97.8989 179.656 98.0349 179.227 98.3069 178.864C98.5842 178.501 98.9469 178.221 99.3949 178.024C99.8429 177.827 100.323 177.728 100.835 177.728C101.48 177.728 102.07 177.867 102.603 178.144C103.136 178.421 103.534 178.797 103.795 179.272L102.715 179.904C102.624 179.712 102.486 179.544 102.299 179.4C102.112 179.251 101.899 179.133 101.659 179.048C101.419 178.963 101.174 178.917 100.923 178.912C100.614 178.901 100.323 178.941 100.051 179.032C99.7842 179.123 99.5682 179.261 99.4029 179.448C99.2429 179.629 99.1629 179.856 99.1629 180.128C99.1629 180.395 99.2482 180.597 99.4189 180.736C99.5949 180.875 99.8215 180.987 100.099 181.072C100.382 181.152 100.688 181.245 101.019 181.352C101.504 181.507 101.958 181.685 102.379 181.888C102.8 182.091 103.139 182.344 103.395 182.648C103.656 182.952 103.784 183.328 103.779 183.776C103.779 184.267 103.632 184.696 103.339 185.064C103.046 185.427 102.664 185.704 102.195 185.896C101.731 186.088 101.232 186.173 100.699 186.152ZM107.493 186.152C107.061 186.136 106.64 186.056 106.229 185.912C105.824 185.763 105.467 185.563 105.157 185.312C104.853 185.056 104.632 184.763 104.493 184.432L105.645 183.936C105.725 184.117 105.869 184.288 106.077 184.448C106.285 184.608 106.525 184.736 106.797 184.832C107.069 184.928 107.344 184.976 107.621 184.976C107.915 184.976 108.189 184.931 108.445 184.84C108.701 184.749 108.909 184.616 109.069 184.44C109.235 184.259 109.317 184.043 109.317 183.792C109.317 183.525 109.227 183.317 109.045 183.168C108.869 183.013 108.645 182.893 108.373 182.808C108.107 182.717 107.835 182.632 107.557 182.552C107.008 182.413 106.517 182.248 106.085 182.056C105.653 181.859 105.312 181.611 105.061 181.312C104.816 181.008 104.693 180.621 104.693 180.152C104.693 179.656 104.829 179.227 105.101 178.864C105.379 178.501 105.741 178.221 106.189 178.024C106.637 177.827 107.117 177.728 107.629 177.728C108.275 177.728 108.864 177.867 109.397 178.144C109.931 178.421 110.328 178.797 110.589 179.272L109.509 179.904C109.419 179.712 109.28 179.544 109.093 179.4C108.907 179.251 108.693 179.133 108.453 179.048C108.213 178.963 107.968 178.917 107.717 178.912C107.408 178.901 107.117 178.941 106.845 179.032C106.579 179.123 106.363 179.261 106.197 179.448C106.037 179.629 105.957 179.856 105.957 180.128C105.957 180.395 106.043 180.597 106.213 180.736C106.389 180.875 106.616 180.987 106.893 181.072C107.176 181.152 107.483 181.245 107.813 181.352C108.299 181.507 108.752 181.685 109.173 181.888C109.595 182.091 109.933 182.344 110.189 182.648C110.451 182.952 110.579 183.328 110.573 183.776C110.573 184.267 110.427 184.696 110.133 185.064C109.84 185.427 109.459 185.704 108.989 185.896C108.525 186.088 108.027 186.173 107.493 186.152Z" fill="white"></path><path d="M1.46 226V214.8H5.156C5.75867 214.8 6.3 214.947 6.78 215.24C7.26533 215.533 7.64933 215.931 7.932 216.432C8.22 216.928 8.364 217.483 8.364 218.096C8.364 218.72 8.21733 219.283 7.924 219.784C7.636 220.28 7.24667 220.675 6.756 220.968C6.27067 221.256 5.73733 221.4 5.156 221.4H2.804V226H1.46ZM2.804 220.056H5.036C5.39867 220.056 5.72933 219.968 6.028 219.792C6.332 219.611 6.572 219.368 6.748 219.064C6.92933 218.755 7.02 218.408 7.02 218.024C7.02 217.635 6.92933 217.288 6.748 216.984C6.572 216.675 6.332 216.432 6.028 216.256C5.72933 216.075 5.39867 215.984 5.036 215.984H2.804V220.056ZM9.64525 226V218H10.9893V219C11.2719 218.627 11.6293 218.331 12.0613 218.112C12.4933 217.888 12.9626 217.776 13.4693 217.776C13.7786 217.776 14.0773 217.816 14.3653 217.896L13.8213 219.24C13.6026 219.171 13.3893 219.136 13.1813 219.136C12.7813 219.136 12.4133 219.235 12.0773 219.432C11.7466 219.624 11.4826 219.885 11.2853 220.216C11.0879 220.547 10.9893 220.915 10.9893 221.32V226H9.64525ZM18.3661 226.208C17.6301 226.208 16.9581 226.019 16.3501 225.64C15.7475 225.261 15.2648 224.755 14.9021 224.12C14.5448 223.48 14.3661 222.773 14.3661 222C14.3661 221.413 14.4701 220.867 14.6781 220.36C14.8861 219.848 15.1715 219.4 15.5341 219.016C15.9021 218.627 16.3288 218.323 16.8141 218.104C17.2995 217.885 17.8168 217.776 18.3661 217.776C19.1021 217.776 19.7715 217.965 20.3741 218.344C20.9821 218.723 21.4648 219.232 21.8221 219.872C22.1848 220.512 22.3661 221.221 22.3661 222C22.3661 222.581 22.2621 223.125 22.0541 223.632C21.8461 224.139 21.5581 224.587 21.1901 224.976C20.8275 225.36 20.4035 225.661 19.9181 225.88C19.4381 226.099 18.9208 226.208 18.3661 226.208ZM18.3661 224.864C18.8675 224.864 19.3181 224.733 19.7181 224.472C20.1235 224.205 20.4408 223.856 20.6701 223.424C20.9048 222.987 21.0221 222.512 21.0221 222C21.0221 221.477 20.9021 220.997 20.6621 220.56C20.4275 220.123 20.1101 219.773 19.7101 219.512C19.3101 219.251 18.8621 219.12 18.3661 219.12C17.8648 219.12 17.4141 219.253 17.0141 219.52C16.6141 219.781 16.2968 220.131 16.0621 220.568C15.8275 221.005 15.7101 221.483 15.7101 222C15.7101 222.533 15.8301 223.019 16.0701 223.456C16.3101 223.888 16.6328 224.232 17.0381 224.488C17.4435 224.739 17.8861 224.864 18.3661 224.864ZM24.9379 230H23.5939V218H24.9379V219.368C25.2099 218.899 25.5725 218.52 26.0259 218.232C26.4792 217.939 27.0179 217.792 27.6419 217.792C28.2232 217.792 28.7672 217.901 29.2739 218.12C29.7859 218.339 30.2339 218.643 30.6179 219.032C31.0019 219.416 31.3032 219.861 31.5219 220.368C31.7405 220.875 31.8499 221.419 31.8499 222C31.8499 222.581 31.7405 223.128 31.5219 223.64C31.3032 224.152 31.0019 224.603 30.6179 224.992C30.2339 225.376 29.7859 225.677 29.2739 225.896C28.7672 226.115 28.2232 226.224 27.6419 226.224C27.0179 226.224 26.4792 226.08 26.0259 225.792C25.5725 225.499 25.2099 225.117 24.9379 224.648V230ZM27.6259 219.096C27.1085 219.096 26.6552 219.227 26.2659 219.488C25.8765 219.749 25.5752 220.099 25.3619 220.536C25.1539 220.973 25.0499 221.461 25.0499 222C25.0499 222.533 25.1539 223.021 25.3619 223.464C25.5752 223.907 25.8739 224.259 26.2579 224.52C26.6472 224.781 27.1032 224.912 27.6259 224.912C28.1432 224.912 28.6179 224.784 29.0499 224.528C29.4819 224.267 29.8285 223.917 30.0899 223.48C30.3512 223.037 30.4819 222.544 30.4819 222C30.4819 221.467 30.3539 220.981 30.0979 220.544C29.8419 220.101 29.4979 219.749 29.0659 219.488C28.6339 219.227 28.1539 219.096 27.6259 219.096ZM36.5647 226.208C35.8287 226.208 35.1567 226.019 34.5487 225.64C33.9461 225.261 33.4634 224.755 33.1007 224.12C32.7434 223.48 32.5647 222.773 32.5647 222C32.5647 221.413 32.6687 220.867 32.8767 220.36C33.0847 219.848 33.3701 219.4 33.7327 219.016C34.1007 218.627 34.5274 218.323 35.0127 218.104C35.4981 217.885 36.0154 217.776 36.5647 217.776C37.1674 217.776 37.7194 217.899 38.2207 218.144C38.7274 218.384 39.1594 218.72 39.5167 219.152C39.8794 219.584 40.1487 220.085 40.3247 220.656C40.5061 221.227 40.5727 221.837 40.5247 222.488H33.9967C34.0607 222.941 34.2101 223.347 34.4447 223.704C34.6794 224.056 34.9781 224.336 35.3407 224.544C35.7087 224.752 36.1167 224.859 36.5647 224.864C37.0447 224.864 37.4794 224.741 37.8687 224.496C38.2581 224.245 38.5727 223.904 38.8127 223.472L40.1807 223.792C39.8607 224.501 39.3781 225.083 38.7327 225.536C38.0874 225.984 37.3647 226.208 36.5647 226.208ZM33.9567 221.432H39.1727C39.1301 220.984 38.9861 220.576 38.7407 220.208C38.4954 219.835 38.1834 219.536 37.8047 219.312C37.4261 219.088 37.0127 218.976 36.5647 218.976C36.1167 218.976 35.7061 219.085 35.3327 219.304C34.9594 219.523 34.6501 219.819 34.4047 220.192C34.1647 220.56 34.0154 220.973 33.9567 221.432ZM41.7769 226V218H43.1209V219C43.4035 218.627 43.7609 218.331 44.1929 218.112C44.6249 217.888 45.0942 217.776 45.6009 217.776C45.9102 217.776 46.2089 217.816 46.4969 217.896L45.9529 219.24C45.7342 219.171 45.5209 219.136 45.3129 219.136C44.9129 219.136 44.5449 219.235 44.2089 219.432C43.8782 219.624 43.6142 219.885 43.4169 220.216C43.2195 220.547 43.1209 220.915 43.1209 221.32V226H41.7769ZM51.6686 219.344H49.8526L49.8446 226H48.5006L48.5086 219.344H47.1326V218H48.5086L48.5006 215.488H49.8446L49.8526 218H51.6686V219.344ZM58.2992 218H59.7232L55.3472 230H53.9232L55.3712 226L52.4992 218H53.9712L56.0432 224.152L58.2992 218ZM64.971 226L67.139 214.8H68.171L71.195 222.752L74.211 214.8H75.243L77.419 226H76.051L74.475 217.872L71.635 225.392H70.747L67.907 217.872L66.339 226H64.971ZM84.9789 218H86.3229V226H84.9789L84.9229 224.648C84.6722 225.112 84.3255 225.488 83.8829 225.776C83.4455 226.064 82.9229 226.208 82.3149 226.208C81.7282 226.208 81.1789 226.099 80.6669 225.88C80.1549 225.656 79.7015 225.349 79.3069 224.96C78.9175 224.565 78.6135 224.112 78.3949 223.6C78.1762 223.088 78.0669 222.536 78.0669 221.944C78.0669 221.373 78.1735 220.835 78.3869 220.328C78.6002 219.821 78.8962 219.379 79.2749 219C79.6589 218.616 80.1015 218.317 80.6029 218.104C81.1042 217.885 81.6429 217.776 82.2189 217.776C82.8482 217.776 83.4002 217.925 83.8749 218.224C84.3495 218.517 84.7335 218.899 85.0269 219.368L84.9789 218ZM82.2909 224.904C82.8189 224.904 83.2749 224.776 83.6589 224.52C84.0482 224.259 84.3469 223.907 84.5549 223.464C84.7682 223.021 84.8749 222.533 84.8749 222C84.8749 221.456 84.7682 220.965 84.5549 220.528C84.3415 220.085 84.0402 219.736 83.6509 219.48C83.2669 219.219 82.8135 219.088 82.2909 219.088C81.7629 219.088 81.2829 219.219 80.8509 219.48C80.4189 219.741 80.0749 220.093 79.8189 220.536C79.5682 220.973 79.4429 221.461 79.4429 222C79.4429 222.539 79.5735 223.029 79.8349 223.472C80.0962 223.909 80.4429 224.259 80.8749 224.52C81.3069 224.776 81.7789 224.904 82.2909 224.904ZM94.8979 221.024V226H93.5539V221.32C93.5539 220.915 93.4552 220.547 93.2579 220.216C93.0605 219.885 92.7965 219.624 92.4659 219.432C92.1352 219.235 91.7672 219.136 91.3619 219.136C90.9619 219.136 90.5939 219.235 90.2579 219.432C89.9272 219.624 89.6632 219.885 89.4659 220.216C89.2685 220.547 89.1699 220.915 89.1699 221.32V226H87.8259V218H89.1699V219C89.4525 218.627 89.8099 218.331 90.2419 218.112C90.6739 217.888 91.1432 217.776 91.6499 217.776C92.2472 217.776 92.7912 217.923 93.2819 218.216C93.7779 218.504 94.1699 218.893 94.4579 219.384C94.7512 219.875 94.8979 220.421 94.8979 221.024ZM102.677 218H104.021V226H102.677L102.622 224.648C102.371 225.112 102.024 225.488 101.582 225.776C101.144 226.064 100.621 226.208 100.013 226.208C99.4268 226.208 98.8775 226.099 98.3655 225.88C97.8535 225.656 97.4002 225.349 97.0055 224.96C96.6162 224.565 96.3122 224.112 96.0935 223.6C95.8748 223.088 95.7655 222.536 95.7655 221.944C95.7655 221.373 95.8722 220.835 96.0855 220.328C96.2988 219.821 96.5948 219.379 96.9735 219C97.3575 218.616 97.8002 218.317 98.3015 218.104C98.8028 217.885 99.3415 217.776 99.9175 217.776C100.547 217.776 101.099 217.925 101.573 218.224C102.048 218.517 102.432 218.899 102.726 219.368L102.677 218ZM99.9895 224.904C100.517 224.904 100.973 224.776 101.358 224.52C101.747 224.259 102.045 223.907 102.253 223.464C102.467 223.021 102.574 222.533 102.574 222C102.574 221.456 102.467 220.965 102.253 220.528C102.04 220.085 101.739 219.736 101.349 219.48C100.965 219.219 100.512 219.088 99.9895 219.088C99.4615 219.088 98.9815 219.219 98.5495 219.48C98.1175 219.741 97.7735 220.093 97.5175 220.536C97.2668 220.973 97.1415 221.461 97.1415 222C97.1415 222.539 97.2722 223.029 97.5335 223.472C97.7948 223.909 98.1415 224.259 98.5735 224.52C99.0055 224.776 99.4775 224.904 99.9895 224.904ZM111.616 218H112.96V226.256C112.96 226.784 112.846 227.275 112.616 227.728C112.392 228.187 112.088 228.584 111.704 228.92C111.32 229.261 110.883 229.525 110.392 229.712C109.902 229.904 109.39 230 108.856 230C108.302 230 107.766 229.875 107.248 229.624C106.731 229.379 106.278 229.048 105.888 228.632C105.504 228.221 105.227 227.76 105.056 227.248L106.288 226.688C106.39 227.056 106.571 227.387 106.832 227.68C107.099 227.979 107.408 228.213 107.76 228.384C108.118 228.56 108.483 228.648 108.856 228.648C109.208 228.648 109.547 228.587 109.872 228.464C110.203 228.341 110.499 228.171 110.76 227.952C111.027 227.739 111.235 227.485 111.384 227.192C111.539 226.904 111.616 226.592 111.616 226.256V224.664C111.344 225.123 110.984 225.496 110.536 225.784C110.094 226.067 109.576 226.208 108.984 226.208C108.419 226.208 107.888 226.099 107.392 225.88C106.896 225.661 106.462 225.36 106.088 224.976C105.715 224.587 105.422 224.139 105.208 223.632C104.995 223.125 104.888 222.581 104.888 222C104.888 221.419 104.995 220.875 105.208 220.368C105.422 219.856 105.715 219.408 106.088 219.024C106.462 218.635 106.896 218.331 107.392 218.112C107.888 217.893 108.419 217.784 108.984 217.784C109.576 217.784 110.094 217.925 110.536 218.208C110.984 218.491 111.344 218.864 111.616 219.328V218ZM108.992 224.904C109.51 224.904 109.958 224.771 110.336 224.504C110.72 224.237 111.016 223.883 111.224 223.44C111.432 222.997 111.536 222.517 111.536 222C111.536 221.467 111.43 220.981 111.216 220.544C111.008 220.101 110.712 219.749 110.328 219.488C109.95 219.221 109.504 219.088 108.992 219.088C108.491 219.088 108.032 219.219 107.616 219.48C107.2 219.741 106.87 220.093 106.624 220.536C106.384 220.973 106.264 221.461 106.264 222C106.264 222.539 106.387 223.029 106.632 223.472C106.883 223.909 107.214 224.259 107.624 224.52C108.04 224.776 108.496 224.904 108.992 224.904ZM118.198 226.208C117.462 226.208 116.79 226.019 116.182 225.64C115.58 225.261 115.097 224.755 114.734 224.12C114.377 223.48 114.198 222.773 114.198 222C114.198 221.413 114.302 220.867 114.51 220.36C114.718 219.848 115.004 219.4 115.366 219.016C115.734 218.627 116.161 218.323 116.646 218.104C117.132 217.885 117.649 217.776 118.198 217.776C118.801 217.776 119.353 217.899 119.854 218.144C120.361 218.384 120.793 218.72 121.15 219.152C121.513 219.584 121.782 220.085 121.958 220.656C122.14 221.227 122.206 221.837 122.158 222.488H115.63C115.694 222.941 115.844 223.347 116.078 223.704C116.313 224.056 116.612 224.336 116.974 224.544C117.342 224.752 117.75 224.859 118.198 224.864C118.678 224.864 119.113 224.741 119.502 224.496C119.892 224.245 120.206 223.904 120.446 223.472L121.814 223.792C121.494 224.501 121.012 225.083 120.366 225.536C119.721 225.984 118.998 226.208 118.198 226.208ZM115.59 221.432H120.806C120.764 220.984 120.62 220.576 120.374 220.208C120.129 219.835 119.817 219.536 119.438 219.312C119.06 219.088 118.646 218.976 118.198 218.976C117.75 218.976 117.34 219.085 116.966 219.304C116.593 219.523 116.284 219.819 116.038 220.192C115.798 220.56 115.649 220.973 115.59 221.432ZM123.411 226V218H124.755V219C125.037 218.627 125.392 218.331 125.819 218.112C126.251 217.888 126.72 217.776 127.227 217.776C127.819 217.776 128.36 217.92 128.851 218.208C129.341 218.496 129.728 218.877 130.011 219.352C130.293 218.877 130.677 218.496 131.163 218.208C131.653 217.92 132.192 217.776 132.779 217.776C133.381 217.776 133.928 217.923 134.419 218.216C134.909 218.504 135.299 218.893 135.587 219.384C135.88 219.875 136.027 220.421 136.027 221.024V226H134.683V221.344C134.683 220.949 134.587 220.584 134.395 220.248C134.203 219.912 133.944 219.643 133.619 219.44C133.293 219.237 132.933 219.136 132.539 219.136C132.144 219.136 131.784 219.232 131.459 219.424C131.133 219.611 130.875 219.872 130.683 220.208C130.491 220.539 130.395 220.917 130.395 221.344V226H129.051V221.344C129.051 220.917 128.955 220.539 128.763 220.208C128.571 219.872 128.309 219.611 127.979 219.424C127.653 219.232 127.293 219.136 126.899 219.136C126.509 219.136 126.149 219.237 125.819 219.44C125.493 219.643 125.235 219.912 125.043 220.248C124.851 220.584 124.755 220.949 124.755 221.344V226H123.411ZM140.897 226.208C140.161 226.208 139.489 226.019 138.881 225.64C138.278 225.261 137.796 224.755 137.433 224.12C137.076 223.48 136.897 222.773 136.897 222C136.897 221.413 137.001 220.867 137.209 220.36C137.417 219.848 137.702 219.4 138.065 219.016C138.433 218.627 138.86 218.323 139.345 218.104C139.83 217.885 140.348 217.776 140.897 217.776C141.5 217.776 142.052 217.899 142.553 218.144C143.06 218.384 143.492 218.72 143.849 219.152C144.212 219.584 144.481 220.085 144.657 220.656C144.838 221.227 144.905 221.837 144.857 222.488H138.329C138.393 222.941 138.542 223.347 138.777 223.704C139.012 224.056 139.31 224.336 139.673 224.544C140.041 224.752 140.449 224.859 140.897 224.864C141.377 224.864 141.812 224.741 142.201 224.496C142.59 224.245 142.905 223.904 143.145 223.472L144.513 223.792C144.193 224.501 143.71 225.083 143.065 225.536C142.42 225.984 141.697 226.208 140.897 226.208ZM138.289 221.432H143.505C143.462 220.984 143.318 220.576 143.073 220.208C142.828 219.835 142.516 219.536 142.137 219.312C141.758 219.088 141.345 218.976 140.897 218.976C140.449 218.976 140.038 219.085 139.665 219.304C139.292 219.523 138.982 219.819 138.737 220.192C138.497 220.56 138.348 220.973 138.289 221.432ZM153.181 221.024V226H151.837V221.32C151.837 220.915 151.739 220.547 151.541 220.216C151.344 219.885 151.08 219.624 150.749 219.432C150.419 219.235 150.051 219.136 149.645 219.136C149.245 219.136 148.877 219.235 148.541 219.432C148.211 219.624 147.947 219.885 147.749 220.216C147.552 220.547 147.453 220.915 147.453 221.32V226H146.109V218H147.453V219C147.736 218.627 148.093 218.331 148.525 218.112C148.957 217.888 149.427 217.776 149.933 217.776C150.531 217.776 151.075 217.923 151.565 218.216C152.061 218.504 152.453 218.893 152.741 219.384C153.035 219.875 153.181 220.421 153.181 221.024ZM158.829 219.344H157.013L157.005 226H155.661L155.669 219.344H154.293V218H155.669L155.661 215.488H157.005L157.013 218H158.829V219.344Z" fill="white"></path></svg>