<svg xmlns="http://www.w3.org/2000/svg" width="79" height="112" viewBox="0 0 79 112" fill="none"><path d="M1.08 18V5.4H5.238C5.916 5.4 6.525 5.565 7.065 5.895C7.611 6.225 8.043 6.672 8.361 7.236C8.685 7.794 8.847 8.418 8.847 9.108C8.847 9.81 8.682 10.443 8.352 11.007C8.028 11.565 7.59 12.009 7.038 12.339C6.492 12.663 5.892 12.825 5.238 12.825H2.592V18H1.08ZM2.592 11.313H5.103C5.511 11.313 5.883 11.214 6.219 11.016C6.561 10.812 6.831 10.539 7.029 10.197C7.233 9.849 7.335 9.459 7.335 9.027C7.335 8.589 7.233 8.199 7.029 7.857C6.831 7.509 6.561 7.236 6.219 7.038C5.883 6.834 5.511 6.732 5.103 6.732H2.592V11.313ZM10.2884 18V9H11.8004V10.125C12.1184 9.705 12.5204 9.372 13.0064 9.126C13.4924 8.874 14.0204 8.748 14.5904 8.748C14.9384 8.748 15.2744 8.793 15.5984 8.883L14.9864 10.395C14.7404 10.317 14.5004 10.278 14.2664 10.278C13.8164 10.278 13.4024 10.389 13.0244 10.611C12.6524 10.827 12.3554 11.121 12.1334 11.493C11.9114 11.865 11.8004 12.279 11.8004 12.735V18H10.2884ZM20.0994 18.234C19.2714 18.234 18.5154 18.021 17.8314 17.595C17.1534 17.169 16.6104 16.599 16.2024 15.885C15.8004 15.165 15.5994 14.37 15.5994 13.5C15.5994 12.84 15.7164 12.225 15.9504 11.655C16.1844 11.079 16.5054 10.575 16.9134 10.143C17.3274 9.705 17.8074 9.363 18.3534 9.117C18.8994 8.871 19.4814 8.748 20.0994 8.748C20.9274 8.748 21.6804 8.961 22.3584 9.387C23.0424 9.813 23.5854 10.386 23.9874 11.106C24.3954 11.826 24.5994 12.624 24.5994 13.5C24.5994 14.154 24.4824 14.766 24.2484 15.336C24.0144 15.906 23.6904 16.41 23.2764 16.848C22.8684 17.28 22.3914 17.619 21.8454 17.865C21.3054 18.111 20.7234 18.234 20.0994 18.234ZM20.0994 16.722C20.6634 16.722 21.1704 16.575 21.6204 16.281C22.0764 15.981 22.4334 15.588 22.6914 15.102C22.9554 14.61 23.0874 14.076 23.0874 13.5C23.0874 12.912 22.9524 12.372 22.6824 11.88C22.4184 11.388 22.0614 10.995 21.6114 10.701C21.1614 10.407 20.6574 10.26 20.0994 10.26C19.5354 10.26 19.0284 10.41 18.5784 10.71C18.1284 11.004 17.7714 11.397 17.5074 11.889C17.2434 12.381 17.1114 12.918 17.1114 13.5C17.1114 14.1 17.2464 14.646 17.5164 15.138C17.7864 15.624 18.1494 16.011 18.6054 16.299C19.0614 16.581 19.5594 16.722 20.0994 16.722ZM27.4926 22.5H25.9806V9H27.4926V10.539C27.7986 10.011 28.2066 9.585 28.7166 9.261C29.2266 8.931 29.8326 8.766 30.5346 8.766C31.1886 8.766 31.8006 8.889 32.3706 9.135C32.9466 9.381 33.4506 9.723 33.8826 10.161C34.3146 10.593 34.6536 11.094 34.8996 11.664C35.1456 12.234 35.2686 12.846 35.2686 13.5C35.2686 14.154 35.1456 14.769 34.8996 15.345C34.6536 15.921 34.3146 16.428 33.8826 16.866C33.4506 17.298 32.9466 17.637 32.3706 17.883C31.8006 18.129 31.1886 18.252 30.5346 18.252C29.8326 18.252 29.2266 18.09 28.7166 17.766C28.2066 17.436 27.7986 17.007 27.4926 16.479V22.5ZM30.5166 10.233C29.9346 10.233 29.4246 10.38 28.9866 10.674C28.5486 10.968 28.2096 11.361 27.9696 11.853C27.7356 12.345 27.6186 12.894 27.6186 13.5C27.6186 14.1 27.7356 14.649 27.9696 15.147C28.2096 15.645 28.5456 16.041 28.9776 16.335C29.4156 16.629 29.9286 16.776 30.5166 16.776C31.0986 16.776 31.6326 16.632 32.1186 16.344C32.6046 16.05 32.9946 15.657 33.2886 15.165C33.5826 14.667 33.7296 14.112 33.7296 13.5C33.7296 12.9 33.5856 12.354 33.2976 11.862C33.0096 11.364 32.6226 10.968 32.1366 10.674C31.6506 10.38 31.1106 10.233 30.5166 10.233ZM40.5728 18.234C39.7448 18.234 38.9888 18.021 38.3048 17.595C37.6268 17.169 37.0838 16.599 36.6758 15.885C36.2738 15.165 36.0728 14.37 36.0728 13.5C36.0728 12.84 36.1898 12.225 36.4238 11.655C36.6578 11.079 36.9788 10.575 37.3868 10.143C37.8008 9.705 38.2808 9.363 38.8268 9.117C39.3728 8.871 39.9548 8.748 40.5728 8.748C41.2508 8.748 41.8718 8.886 42.4358 9.162C43.0058 9.432 43.4918 9.81 43.8938 10.296C44.3018 10.782 44.6048 11.346 44.8028 11.988C45.0068 12.63 45.0818 13.317 45.0278 14.049H37.6838C37.7558 14.559 37.9238 15.015 38.1878 15.417C38.4518 15.813 38.7878 16.128 39.1958 16.362C39.6098 16.596 40.0688 16.716 40.5728 16.722C41.1128 16.722 41.6018 16.584 42.0398 16.308C42.4778 16.026 42.8318 15.642 43.1018 15.156L44.6408 15.516C44.2808 16.314 43.7378 16.968 43.0118 17.478C42.2858 17.982 41.4728 18.234 40.5728 18.234ZM37.6388 12.861H43.5068C43.4588 12.357 43.2968 11.898 43.0208 11.484C42.7448 11.064 42.3938 10.728 41.9678 10.476C41.5418 10.224 41.0768 10.098 40.5728 10.098C40.0688 10.098 39.6068 10.221 39.1868 10.467C38.7668 10.713 38.4188 11.046 38.1428 11.466C37.8728 11.88 37.7048 12.345 37.6388 12.861ZM46.4365 18V9H47.9485V10.125C48.2665 9.705 48.6685 9.372 49.1545 9.126C49.6405 8.874 50.1685 8.748 50.7385 8.748C51.0865 8.748 51.4225 8.793 51.7465 8.883L51.1345 10.395C50.8885 10.317 50.6485 10.278 50.4145 10.278C49.9645 10.278 49.5505 10.389 49.1725 10.611C48.8005 10.827 48.5035 11.121 48.2815 11.493C48.0595 11.865 47.9485 12.279 47.9485 12.735V18H46.4365ZM57.5647 10.512H55.5217L55.5127 18H54.0007L54.0097 10.512H52.4617V9H54.0097L54.0007 6.174H55.5127L55.5217 9H57.5647V10.512ZM58.9822 9H60.4942V18H58.9822V9ZM59.7562 7.533C59.5162 7.533 59.3152 7.455 59.1532 7.299C58.9912 7.143 58.9102 6.948 58.9102 6.714C58.9102 6.48 58.9912 6.285 59.1532 6.129C59.3152 5.973 59.5132 5.895 59.7472 5.895C59.9812 5.895 60.1792 5.973 60.3412 6.129C60.5032 6.285 60.5842 6.48 60.5842 6.714C60.5842 6.948 60.5032 7.143 60.3412 7.299C60.1852 7.455 59.9902 7.533 59.7562 7.533ZM66.385 18.234C65.557 18.234 64.801 18.021 64.117 17.595C63.439 17.169 62.896 16.599 62.488 15.885C62.086 15.165 61.885 14.37 61.885 13.5C61.885 12.84 62.002 12.225 62.236 11.655C62.47 11.079 62.791 10.575 63.199 10.143C63.613 9.705 64.093 9.363 64.639 9.117C65.185 8.871 65.767 8.748 66.385 8.748C67.063 8.748 67.684 8.886 68.248 9.162C68.818 9.432 69.304 9.81 69.706 10.296C70.114 10.782 70.417 11.346 70.615 11.988C70.819 12.63 70.894 13.317 70.84 14.049H63.496C63.568 14.559 63.736 15.015 64 15.417C64.264 15.813 64.6 16.128 65.008 16.362C65.422 16.596 65.881 16.716 66.385 16.722C66.925 16.722 67.414 16.584 67.852 16.308C68.29 16.026 68.644 15.642 68.914 15.156L70.453 15.516C70.093 16.314 69.55 16.968 68.824 17.478C68.098 17.982 67.285 18.234 66.385 18.234ZM63.451 12.861H69.319C69.271 12.357 69.109 11.898 68.833 11.484C68.557 11.064 68.206 10.728 67.78 10.476C67.354 10.224 66.889 10.098 66.385 10.098C65.881 10.098 65.419 10.221 64.999 10.467C64.579 10.713 64.231 11.046 63.955 11.466C63.685 11.88 63.517 12.345 63.451 12.861ZM75.0288 18.171C74.5428 18.153 74.0688 18.063 73.6068 17.901C73.1508 17.733 72.7488 17.508 72.4008 17.226C72.0588 16.938 71.8098 16.608 71.6538 16.236L72.9498 15.678C73.0398 15.882 73.2018 16.074 73.4358 16.254C73.6698 16.434 73.9398 16.578 74.2458 16.686C74.5518 16.794 74.8608 16.848 75.1728 16.848C75.5028 16.848 75.8118 16.797 76.0998 16.695C76.3878 16.593 76.6218 16.443 76.8018 16.245C76.9878 16.041 77.0808 15.798 77.0808 15.516C77.0808 15.216 76.9788 14.982 76.7748 14.814C76.5768 14.64 76.3248 14.505 76.0188 14.409C75.7188 14.307 75.4128 14.211 75.1008 14.121C74.4828 13.965 73.9308 13.779 73.4448 13.563C72.9588 13.341 72.5748 13.062 72.2928 12.726C72.0168 12.384 71.8788 11.949 71.8788 11.421C71.8788 10.863 72.0318 10.38 72.3378 9.972C72.6498 9.564 73.0578 9.249 73.5618 9.027C74.0658 8.805 74.6058 8.694 75.1818 8.694C75.9078 8.694 76.5708 8.85 77.1708 9.162C77.7708 9.474 78.2178 9.897 78.5118 10.431L77.2968 11.142C77.1948 10.926 77.0388 10.737 76.8288 10.575C76.6188 10.407 76.3788 10.275 76.1088 10.179C75.8388 10.083 75.5628 10.032 75.2808 10.026C74.9328 10.014 74.6058 10.059 74.2998 10.161C73.9998 10.263 73.7568 10.419 73.5708 10.629C73.3908 10.833 73.3008 11.088 73.3008 11.394C73.3008 11.694 73.3968 11.922 73.5888 12.078C73.7868 12.234 74.0418 12.36 74.3538 12.456C74.6718 12.546 75.0168 12.651 75.3888 12.771C75.9348 12.945 76.4448 13.146 76.9188 13.374C77.3928 13.602 77.7738 13.887 78.0618 14.229C78.3558 14.571 78.4998 14.994 78.4938 15.498C78.4938 16.05 78.3288 16.533 77.9988 16.947C77.6688 17.355 77.2398 17.667 76.7118 17.883C76.1898 18.099 75.6288 18.195 75.0288 18.171Z" fill="#999999"></path><path d="M0.96 66V54.8H4.656C5.25867 54.8 5.8 54.9467 6.28 55.24C6.76533 55.5333 7.14933 55.9307 7.432 56.432C7.72 56.928 7.864 57.4827 7.864 58.096C7.864 58.72 7.71733 59.2827 7.424 59.784C7.136 60.28 6.74667 60.6747 6.256 60.968C5.77067 61.256 5.23733 61.4 4.656 61.4H2.304V66H0.96ZM2.304 60.056H4.536C4.89867 60.056 5.22933 59.968 5.528 59.792C5.832 59.6107 6.072 59.368 6.248 59.064C6.42933 58.7547 6.52 58.408 6.52 58.024C6.52 57.6347 6.42933 57.288 6.248 56.984C6.072 56.6747 5.832 56.432 5.528 56.256C5.22933 56.0747 4.89867 55.984 4.536 55.984H2.304V60.056ZM12.2121 66.208C11.4761 66.208 10.8041 66.0187 10.1961 65.64C9.59346 65.2613 9.11079 64.7547 8.74812 64.12C8.39079 63.48 8.21212 62.7733 8.21212 62C8.21212 61.4133 8.31612 60.8667 8.52412 60.36C8.73212 59.848 9.01746 59.4 9.38012 59.016C9.74812 58.6267 10.1748 58.3227 10.6601 58.104C11.1455 57.8853 11.6628 57.776 12.2121 57.776C12.9481 57.776 13.6175 57.9653 14.2201 58.344C14.8281 58.7227 15.3108 59.232 15.6681 59.872C16.0308 60.512 16.2121 61.2213 16.2121 62C16.2121 62.5813 16.1081 63.1253 15.9001 63.632C15.6921 64.1387 15.4041 64.5867 15.0361 64.976C14.6735 65.36 14.2495 65.6613 13.7641 65.88C13.2841 66.0987 12.7668 66.208 12.2121 66.208ZM12.2121 64.864C12.7135 64.864 13.1641 64.7333 13.5641 64.472C13.9695 64.2053 14.2868 63.856 14.5161 63.424C14.7508 62.9867 14.8681 62.512 14.8681 62C14.8681 61.4773 14.7481 60.9973 14.5081 60.56C14.2735 60.1227 13.9561 59.7733 13.5561 59.512C13.1561 59.2507 12.7081 59.12 12.2121 59.12C11.7108 59.12 11.2601 59.2533 10.8601 59.52C10.4601 59.7813 10.1428 60.1307 9.90812 60.568C9.67346 61.0053 9.55612 61.4827 9.55612 62C9.55612 62.5333 9.67612 63.0187 9.91612 63.456C10.1561 63.888 10.4788 64.232 10.8841 64.488C11.2895 64.7387 11.7321 64.864 12.2121 64.864ZM17.4399 66V58H18.7839V59C19.0665 58.6267 19.4239 58.3307 19.8559 58.112C20.2879 57.888 20.7572 57.776 21.2639 57.776C21.5732 57.776 21.8719 57.816 22.1599 57.896L21.6159 59.24C21.3972 59.1707 21.1839 59.136 20.9759 59.136C20.5759 59.136 20.2079 59.2347 19.8719 59.432C19.5412 59.624 19.2772 59.8853 19.0799 60.216C18.8825 60.5467 18.7839 60.9147 18.7839 61.32V66H17.4399ZM27.3316 59.344H25.5156L25.5076 66H24.1636L24.1716 59.344H22.7956V58H24.1716L24.1636 55.488H25.5076L25.5156 58H27.3316V59.344ZM30.4857 56.024V58H32.8297V59.344H30.4857V66H29.1417V59.344H28.1097V58H29.1417V56.024C29.1417 55.6133 29.2404 55.2427 29.4377 54.912C29.6404 54.576 29.9097 54.3093 30.2457 54.112C30.5871 53.9093 30.9604 53.808 31.3657 53.808C31.6644 53.808 31.9551 53.8693 32.2377 53.992C32.5204 54.1093 32.7711 54.2853 32.9897 54.52L32.0297 55.472C31.9551 55.3707 31.8564 55.2933 31.7337 55.24C31.6164 55.1813 31.4937 55.152 31.3657 55.152C31.1257 55.152 30.9177 55.2373 30.7417 55.408C30.5711 55.5787 30.4857 55.784 30.4857 56.024ZM37.375 66.208C36.639 66.208 35.967 66.0187 35.359 65.64C34.7563 65.2613 34.2737 64.7547 33.911 64.12C33.5537 63.48 33.375 62.7733 33.375 62C33.375 61.4133 33.479 60.8667 33.687 60.36C33.895 59.848 34.1803 59.4 34.543 59.016C34.911 58.6267 35.3377 58.3227 35.823 58.104C36.3083 57.8853 36.8257 57.776 37.375 57.776C38.111 57.776 38.7803 57.9653 39.383 58.344C39.991 58.7227 40.4737 59.232 40.831 59.872C41.1937 60.512 41.375 61.2213 41.375 62C41.375 62.5813 41.271 63.1253 41.063 63.632C40.855 64.1387 40.567 64.5867 40.199 64.976C39.8363 65.36 39.4123 65.6613 38.927 65.88C38.447 66.0987 37.9297 66.208 37.375 66.208ZM37.375 64.864C37.8763 64.864 38.327 64.7333 38.727 64.472C39.1323 64.2053 39.4497 63.856 39.679 63.424C39.9137 62.9867 40.031 62.512 40.031 62C40.031 61.4773 39.911 60.9973 39.671 60.56C39.4363 60.1227 39.119 59.7733 38.719 59.512C38.319 59.2507 37.871 59.12 37.375 59.12C36.8737 59.12 36.423 59.2533 36.023 59.52C35.623 59.7813 35.3057 60.1307 35.071 60.568C34.8363 61.0053 34.719 61.4827 34.719 62C34.719 62.5333 34.839 63.0187 35.079 63.456C35.319 63.888 35.6417 64.232 36.047 64.488C36.4523 64.7387 36.895 64.864 37.375 64.864ZM42.5246 66V54H43.8686V66H42.5246ZM45.6942 58H47.0382V66H45.6942V58ZM46.3822 56.696C46.1689 56.696 45.9902 56.6267 45.8462 56.488C45.7022 56.3493 45.6302 56.176 45.6302 55.968C45.6302 55.76 45.7022 55.5867 45.8462 55.448C45.9902 55.3093 46.1662 55.24 46.3742 55.24C46.5822 55.24 46.7582 55.3093 46.9022 55.448C47.0462 55.5867 47.1182 55.76 47.1182 55.968C47.1182 56.176 47.0462 56.3493 46.9022 56.488C46.7636 56.6267 46.5902 56.696 46.3822 56.696ZM52.2745 66.208C51.5385 66.208 50.8665 66.0187 50.2585 65.64C49.6558 65.2613 49.1732 64.7547 48.8105 64.12C48.4532 63.48 48.2745 62.7733 48.2745 62C48.2745 61.4133 48.3785 60.8667 48.5865 60.36C48.7945 59.848 49.0798 59.4 49.4425 59.016C49.8105 58.6267 50.2372 58.3227 50.7225 58.104C51.2078 57.8853 51.7252 57.776 52.2745 57.776C53.0105 57.776 53.6798 57.9653 54.2825 58.344C54.8905 58.7227 55.3732 59.232 55.7305 59.872C56.0932 60.512 56.2745 61.2213 56.2745 62C56.2745 62.5813 56.1705 63.1253 55.9625 63.632C55.7545 64.1387 55.4665 64.5867 55.0985 64.976C54.7358 65.36 54.3118 65.6613 53.8265 65.88C53.3465 66.0987 52.8292 66.208 52.2745 66.208ZM52.2745 64.864C52.7758 64.864 53.2265 64.7333 53.6265 64.472C54.0318 64.2053 54.3492 63.856 54.5785 63.424C54.8132 62.9867 54.9305 62.512 54.9305 62C54.9305 61.4773 54.8105 60.9973 54.5705 60.56C54.3358 60.1227 54.0185 59.7733 53.6185 59.512C53.2185 59.2507 52.7705 59.12 52.2745 59.12C51.7732 59.12 51.3225 59.2533 50.9225 59.52C50.5225 59.7813 50.2052 60.1307 49.9705 60.568C49.7358 61.0053 49.6185 61.4827 49.6185 62C49.6185 62.5333 49.7385 63.0187 49.9785 63.456C50.2185 63.888 50.5412 64.232 50.9465 64.488C51.3518 64.7387 51.7945 64.864 52.2745 64.864Z" fill="white"></path><path d="M6.144 106.208C5.38667 106.208 4.67467 106.059 4.008 105.76C3.34133 105.456 2.75467 105.04 2.248 104.512C1.74667 103.979 1.352 103.36 1.064 102.656C0.781333 101.952 0.64 101.2 0.64 100.4C0.64 99.6 0.781333 98.848 1.064 98.144C1.352 97.44 1.74667 96.824 2.248 96.296C2.75467 95.7627 3.34133 95.3467 4.008 95.048C4.67467 94.744 5.38667 94.592 6.144 94.592C7.05067 94.592 7.88533 94.8027 8.648 95.224C9.41067 95.6453 10.0427 96.2053 10.544 96.904L9.352 97.544C8.97867 97.0533 8.50667 96.664 7.936 96.376C7.37067 96.0827 6.77333 95.936 6.144 95.936C5.56267 95.936 5.01867 96.0533 4.512 96.288C4.01067 96.5227 3.57067 96.8453 3.192 97.256C2.81333 97.6667 2.51733 98.1413 2.304 98.68C2.09067 99.2187 1.984 99.792 1.984 100.4C1.984 101.013 2.09067 101.589 2.304 102.128C2.52267 102.667 2.82133 103.141 3.2 103.552C3.584 103.963 4.02667 104.285 4.528 104.52C5.03467 104.749 5.57333 104.864 6.144 104.864C6.79467 104.864 7.39733 104.717 7.952 104.424C8.512 104.125 8.97867 103.736 9.352 103.256L10.544 103.904C10.0427 104.603 9.41067 105.163 8.648 105.584C7.88533 106 7.05067 106.208 6.144 106.208ZM18.0616 98H19.4056V106H18.0616L18.0056 104.648C17.755 105.112 17.4083 105.488 16.9656 105.776C16.5283 106.064 16.0056 106.208 15.3976 106.208C14.811 106.208 14.2616 106.099 13.7496 105.88C13.2376 105.656 12.7843 105.349 12.3896 104.96C12.0003 104.565 11.6963 104.112 11.4776 103.6C11.259 103.088 11.1496 102.536 11.1496 101.944C11.1496 101.373 11.2563 100.835 11.4696 100.328C11.683 99.8213 11.979 99.3787 12.3576 99C12.7416 98.616 13.1843 98.3173 13.6856 98.104C14.187 97.8853 14.7256 97.776 15.3016 97.776C15.931 97.776 16.483 97.9253 16.9576 98.224C17.4323 98.5173 17.8163 98.8987 18.1096 99.368L18.0616 98ZM15.3736 104.904C15.9016 104.904 16.3576 104.776 16.7416 104.52C17.131 104.259 17.4296 103.907 17.6376 103.464C17.851 103.021 17.9576 102.533 17.9576 102C17.9576 101.456 17.851 100.965 17.6376 100.528C17.4243 100.085 17.123 99.736 16.7336 99.48C16.3496 99.2187 15.8963 99.088 15.3736 99.088C14.8456 99.088 14.3656 99.2187 13.9336 99.48C13.5016 99.7413 13.1576 100.093 12.9016 100.536C12.651 100.973 12.5256 101.461 12.5256 102C12.5256 102.539 12.6563 103.029 12.9176 103.472C13.179 103.909 13.5256 104.259 13.9576 104.52C14.3896 104.776 14.8616 104.904 15.3736 104.904ZM25.0526 99.344H23.2366L23.2286 106H21.8846L21.8926 99.344H20.5166V98H21.8926L21.8846 95.488H23.2286L23.2366 98H25.0526V99.344ZM29.7076 106.208C28.9716 106.208 28.2996 106.019 27.6916 105.64C27.089 105.261 26.6063 104.755 26.2436 104.12C25.8863 103.48 25.7076 102.773 25.7076 102C25.7076 101.413 25.8116 100.867 26.0196 100.36C26.2276 99.848 26.513 99.4 26.8756 99.016C27.2436 98.6267 27.6703 98.3227 28.1556 98.104C28.641 97.8853 29.1583 97.776 29.7076 97.776C30.3103 97.776 30.8623 97.8987 31.3636 98.144C31.8703 98.384 32.3023 98.72 32.6596 99.152C33.0223 99.584 33.2916 100.085 33.4676 100.656C33.649 101.227 33.7156 101.837 33.6676 102.488H27.1396C27.2036 102.941 27.353 103.347 27.5876 103.704C27.8223 104.056 28.121 104.336 28.4836 104.544C28.8516 104.752 29.2596 104.859 29.7076 104.864C30.1876 104.864 30.6223 104.741 31.0116 104.496C31.401 104.245 31.7156 103.904 31.9556 103.472L33.3236 103.792C33.0036 104.501 32.521 105.083 31.8756 105.536C31.2303 105.984 30.5076 106.208 29.7076 106.208ZM27.0996 101.432H32.3156C32.273 100.984 32.129 100.576 31.8836 100.208C31.6383 99.8347 31.3263 99.536 30.9476 99.312C30.569 99.088 30.1556 98.976 29.7076 98.976C29.2596 98.976 28.849 99.0853 28.4756 99.304C28.1023 99.5227 27.793 99.8187 27.5476 100.192C27.3076 100.56 27.1583 100.973 27.0996 101.432ZM41.1209 98H42.4649V106.256C42.4649 106.784 42.3502 107.275 42.1209 107.728C41.8969 108.187 41.5929 108.584 41.2089 108.92C40.8249 109.261 40.3875 109.525 39.8969 109.712C39.4062 109.904 38.8942 110 38.3609 110C37.8062 110 37.2702 109.875 36.7529 109.624C36.2355 109.379 35.7822 109.048 35.3929 108.632C35.0089 108.221 34.7315 107.76 34.5609 107.248L35.7929 106.688C35.8942 107.056 36.0755 107.387 36.3369 107.68C36.6035 107.979 36.9129 108.213 37.2649 108.384C37.6222 108.56 37.9875 108.648 38.3609 108.648C38.7129 108.648 39.0515 108.587 39.3769 108.464C39.7075 108.341 40.0035 108.171 40.2649 107.952C40.5315 107.739 40.7395 107.485 40.8889 107.192C41.0435 106.904 41.1209 106.592 41.1209 106.256V104.664C40.8489 105.123 40.4889 105.496 40.0409 105.784C39.5982 106.067 39.0809 106.208 38.4889 106.208C37.9235 106.208 37.3929 106.099 36.8969 105.88C36.4009 105.661 35.9662 105.36 35.5929 104.976C35.2195 104.587 34.9262 104.139 34.7129 103.632C34.4995 103.125 34.3929 102.581 34.3929 102C34.3929 101.419 34.4995 100.875 34.7129 100.368C34.9262 99.856 35.2195 99.408 35.5929 99.024C35.9662 98.6347 36.4009 98.3307 36.8969 98.112C37.3929 97.8933 37.9235 97.784 38.4889 97.784C39.0809 97.784 39.5982 97.9253 40.0409 98.208C40.4889 98.4907 40.8489 98.864 41.1209 99.328V98ZM38.4969 104.904C39.0142 104.904 39.4622 104.771 39.8409 104.504C40.2249 104.237 40.5209 103.883 40.7289 103.44C40.9369 102.997 41.0409 102.517 41.0409 102C41.0409 101.467 40.9342 100.981 40.7209 100.544C40.5129 100.101 40.2169 99.7493 39.8329 99.488C39.4542 99.2213 39.0089 99.088 38.4969 99.088C37.9955 99.088 37.5369 99.2187 37.1209 99.48C36.7049 99.7413 36.3742 100.093 36.1289 100.536C35.8889 100.973 35.7689 101.461 35.7689 102C35.7689 102.539 35.8915 103.029 36.1369 103.472C36.3875 103.909 36.7182 104.259 37.1289 104.52C37.5449 104.776 38.0009 104.904 38.4969 104.904ZM47.7031 106.208C46.9671 106.208 46.2951 106.019 45.6871 105.64C45.0845 105.261 44.6018 104.755 44.2391 104.12C43.8818 103.48 43.7031 102.773 43.7031 102C43.7031 101.413 43.8071 100.867 44.0151 100.36C44.2231 99.848 44.5085 99.4 44.8711 99.016C45.2391 98.6267 45.6658 98.3227 46.1511 98.104C46.6365 97.8853 47.1538 97.776 47.7031 97.776C48.4391 97.776 49.1085 97.9653 49.7111 98.344C50.3191 98.7227 50.8018 99.232 51.1591 99.872C51.5218 100.512 51.7031 101.221 51.7031 102C51.7031 102.581 51.5991 103.125 51.3911 103.632C51.1831 104.139 50.8951 104.587 50.5271 104.976C50.1645 105.36 49.7405 105.661 49.2551 105.88C48.7751 106.099 48.2578 106.208 47.7031 106.208ZM47.7031 104.864C48.2045 104.864 48.6551 104.733 49.0551 104.472C49.4605 104.205 49.7778 103.856 50.0071 103.424C50.2418 102.987 50.3591 102.512 50.3591 102C50.3591 101.477 50.2391 100.997 49.9991 100.56C49.7645 100.123 49.4471 99.7733 49.0471 99.512C48.6471 99.2507 48.1991 99.12 47.7031 99.12C47.2018 99.12 46.7511 99.2533 46.3511 99.52C45.9511 99.7813 45.6338 100.131 45.3991 100.568C45.1645 101.005 45.0471 101.483 45.0471 102C45.0471 102.533 45.1671 103.019 45.4071 103.456C45.6471 103.888 45.9698 104.232 46.3751 104.488C46.7805 104.739 47.2231 104.864 47.7031 104.864ZM52.9309 106V98H54.2749V99C54.5575 98.6267 54.9149 98.3307 55.3469 98.112C55.7789 97.888 56.2482 97.776 56.7549 97.776C57.0642 97.776 57.3629 97.816 57.6509 97.896L57.1069 99.24C56.8882 99.1707 56.6749 99.136 56.4669 99.136C56.0669 99.136 55.6989 99.2347 55.3629 99.432C55.0322 99.624 54.7682 99.8853 54.5709 100.216C54.3735 100.547 54.2749 100.915 54.2749 101.32V106H52.9309ZM58.538 98H59.882V106H58.538V98ZM59.226 96.696C59.0127 96.696 58.834 96.6267 58.69 96.488C58.546 96.3493 58.474 96.176 58.474 95.968C58.474 95.76 58.546 95.5867 58.69 95.448C58.834 95.3093 59.01 95.24 59.218 95.24C59.426 95.24 59.602 95.3093 59.746 95.448C59.89 95.5867 59.962 95.76 59.962 95.968C59.962 96.176 59.89 96.3493 59.746 96.488C59.6073 96.6267 59.434 96.696 59.226 96.696ZM65.1182 106.208C64.3822 106.208 63.7102 106.019 63.1022 105.64C62.4996 105.261 62.0169 104.755 61.6542 104.12C61.2969 103.48 61.1182 102.773 61.1182 102C61.1182 101.413 61.2222 100.867 61.4302 100.36C61.6382 99.848 61.9236 99.4 62.2862 99.016C62.6542 98.6267 63.0809 98.3227 63.5662 98.104C64.0516 97.8853 64.5689 97.776 65.1182 97.776C65.7209 97.776 66.2729 97.8987 66.7742 98.144C67.2809 98.384 67.7129 98.72 68.0702 99.152C68.4329 99.584 68.7022 100.085 68.8782 100.656C69.0596 101.227 69.1262 101.837 69.0782 102.488H62.5502C62.6142 102.941 62.7636 103.347 62.9982 103.704C63.2329 104.056 63.5316 104.336 63.8942 104.544C64.2622 104.752 64.6702 104.859 65.1182 104.864C65.5982 104.864 66.0329 104.741 66.4222 104.496C66.8116 104.245 67.1262 103.904 67.3662 103.472L68.7342 103.792C68.4142 104.501 67.9316 105.083 67.2862 105.536C66.6409 105.984 65.9182 106.208 65.1182 106.208ZM62.5102 101.432H67.7262C67.6836 100.984 67.5396 100.576 67.2942 100.208C67.0489 99.8347 66.7369 99.536 66.3582 99.312C65.9796 99.088 65.5662 98.976 65.1182 98.976C64.6702 98.976 64.2596 99.0853 63.8862 99.304C63.5129 99.5227 63.2036 99.8187 62.9582 100.192C62.7182 100.56 62.5689 100.973 62.5102 101.432ZM72.8016 106.152C72.3696 106.136 71.9483 106.056 71.5376 105.912C71.1323 105.763 70.775 105.563 70.4656 105.312C70.1616 105.056 69.9403 104.763 69.8016 104.432L70.9536 103.936C71.0336 104.117 71.1776 104.288 71.3856 104.448C71.5936 104.608 71.8336 104.736 72.1056 104.832C72.3776 104.928 72.6523 104.976 72.9296 104.976C73.223 104.976 73.4976 104.931 73.7536 104.84C74.0096 104.749 74.2176 104.616 74.3776 104.44C74.543 104.259 74.6256 104.043 74.6256 103.792C74.6256 103.525 74.535 103.317 74.3536 103.168C74.1776 103.013 73.9536 102.893 73.6816 102.808C73.415 102.717 73.143 102.632 72.8656 102.552C72.3163 102.413 71.8256 102.248 71.3936 102.056C70.9616 101.859 70.6203 101.611 70.3696 101.312C70.1243 101.008 70.0016 100.621 70.0016 100.152C70.0016 99.656 70.1376 99.2267 70.4096 98.864C70.687 98.5013 71.0496 98.2213 71.4976 98.024C71.9456 97.8267 72.4256 97.728 72.9376 97.728C73.583 97.728 74.1723 97.8667 74.7056 98.144C75.239 98.4213 75.6363 98.7973 75.8976 99.272L74.8176 99.904C74.727 99.712 74.5883 99.544 74.4016 99.4C74.215 99.2507 74.0016 99.1333 73.7616 99.048C73.5216 98.9627 73.2763 98.9173 73.0256 98.912C72.7163 98.9013 72.4256 98.9413 72.1536 99.032C71.887 99.1227 71.671 99.2613 71.5056 99.448C71.3456 99.6293 71.2656 99.856 71.2656 100.128C71.2656 100.395 71.351 100.597 71.5216 100.736C71.6976 100.875 71.9243 100.987 72.2016 101.072C72.4843 101.152 72.791 101.245 73.1216 101.352C73.607 101.507 74.0603 101.685 74.4816 101.888C74.903 102.091 75.2416 102.344 75.4976 102.648C75.759 102.952 75.887 103.328 75.8816 103.776C75.8816 104.267 75.735 104.696 75.4416 105.064C75.1483 105.427 74.767 105.704 74.2976 105.896C73.8336 106.088 73.335 106.173 72.8016 106.152Z" fill="white"></path></svg>