<svg xmlns="http://www.w3.org/2000/svg" width="89" height="232" viewBox="0 0 89 232" fill="none"><path d="M8.829 5.4H10.341V18H8.829V12.006H2.592V18H1.08V5.4H2.592V10.494H8.829V5.4ZM16.2699 18.234C15.4419 18.234 14.6859 18.021 14.0019 17.595C13.3239 17.169 12.7809 16.599 12.3729 15.885C11.9709 15.165 11.7699 14.37 11.7699 13.5C11.7699 12.84 11.8869 12.225 12.1209 11.655C12.3549 11.079 12.6759 10.575 13.0839 10.143C13.4979 9.705 13.9779 9.363 14.5239 9.117C15.0699 8.871 15.6519 8.748 16.2699 8.748C17.0979 8.748 17.8509 8.961 18.5289 9.387C19.2129 9.813 19.7559 10.386 20.1579 11.106C20.5659 11.826 20.7699 12.624 20.7699 13.5C20.7699 14.154 20.6529 14.766 20.4189 15.336C20.1849 15.906 19.8609 16.41 19.4469 16.848C19.0389 17.28 18.5619 17.619 18.0159 17.865C17.4759 18.111 16.8939 18.234 16.2699 18.234ZM16.2699 16.722C16.8339 16.722 17.3409 16.575 17.7909 16.281C18.2469 15.981 18.6039 15.588 18.8619 15.102C19.1259 14.61 19.2579 14.076 19.2579 13.5C19.2579 12.912 19.1229 12.372 18.8529 11.88C18.5889 11.388 18.2319 10.995 17.7819 10.701C17.3319 10.407 16.8279 10.26 16.2699 10.26C15.7059 10.26 15.1989 10.41 14.7489 10.71C14.2989 11.004 13.9419 11.397 13.6779 11.889C13.4139 12.381 13.2819 12.918 13.2819 13.5C13.2819 14.1 13.4169 14.646 13.6869 15.138C13.9569 15.624 14.3199 16.011 14.7759 16.299C15.2319 16.581 15.7299 16.722 16.2699 16.722ZM22.1511 18V9H23.6631V10.125C23.9811 9.705 24.3801 9.372 24.8601 9.126C25.3461 8.874 25.8741 8.748 26.4441 8.748C27.1101 8.748 27.7191 8.91 28.2711 9.234C28.8231 9.558 29.2581 9.987 29.5761 10.521C29.8941 9.987 30.3261 9.558 30.8721 9.234C31.4241 8.91 32.0301 8.748 32.6901 8.748C33.3681 8.748 33.9831 8.913 34.5351 9.243C35.0871 9.567 35.5251 10.005 35.8491 10.557C36.1791 11.109 36.3441 11.724 36.3441 12.402V18H34.8321V12.762C34.8321 12.318 34.7241 11.907 34.5081 11.529C34.2921 11.151 34.0011 10.848 33.6351 10.62C33.2691 10.392 32.8641 10.278 32.4201 10.278C31.9761 10.278 31.5711 10.386 31.2051 10.602C30.8391 10.812 30.5481 11.106 30.3321 11.484C30.1161 11.856 30.0081 12.282 30.0081 12.762V18H28.4961V12.762C28.4961 12.282 28.3881 11.856 28.1721 11.484C27.9561 11.106 27.6621 10.812 27.2901 10.602C26.9241 10.386 26.5191 10.278 26.0751 10.278C25.6371 10.278 25.2321 10.392 24.8601 10.62C24.4941 10.848 24.2031 11.151 23.9871 11.529C23.7711 11.907 23.6631 12.318 23.6631 12.762V18H22.1511ZM41.8234 18.234C40.9954 18.234 40.2394 18.021 39.5554 17.595C38.8774 17.169 38.3344 16.599 37.9264 15.885C37.5244 15.165 37.3234 14.37 37.3234 13.5C37.3234 12.84 37.4404 12.225 37.6744 11.655C37.9084 11.079 38.2294 10.575 38.6374 10.143C39.0514 9.705 39.5314 9.363 40.0774 9.117C40.6234 8.871 41.2054 8.748 41.8234 8.748C42.5014 8.748 43.1224 8.886 43.6864 9.162C44.2564 9.432 44.7424 9.81 45.1444 10.296C45.5524 10.782 45.8554 11.346 46.0534 11.988C46.2574 12.63 46.3324 13.317 46.2784 14.049H38.9344C39.0064 14.559 39.1744 15.015 39.4384 15.417C39.7024 15.813 40.0384 16.128 40.4464 16.362C40.8604 16.596 41.3194 16.716 41.8234 16.722C42.3634 16.722 42.8524 16.584 43.2904 16.308C43.7284 16.026 44.0824 15.642 44.3524 15.156L45.8914 15.516C45.5314 16.314 44.9884 16.968 44.2624 17.478C43.5364 17.982 42.7234 18.234 41.8234 18.234ZM38.8894 12.861H44.7574C44.7094 12.357 44.5474 11.898 44.2714 11.484C43.9954 11.064 43.6444 10.728 43.2184 10.476C42.7924 10.224 42.3274 10.098 41.8234 10.098C41.3194 10.098 40.8574 10.221 40.4374 10.467C40.0174 10.713 39.6694 11.046 39.3934 11.466C39.1234 11.88 38.9554 12.345 38.8894 12.861Z" fill="#999999"></path><path d="M7.848 54.8H9.192V66H7.848V60.672H2.304V66H0.96V54.8H2.304V59.328H7.848V54.8ZM14.4621 66.208C13.7261 66.208 13.0541 66.0187 12.4461 65.64C11.8435 65.2613 11.3608 64.7547 10.9981 64.12C10.6408 63.48 10.4621 62.7733 10.4621 62C10.4621 61.4133 10.5661 60.8667 10.7741 60.36C10.9821 59.848 11.2675 59.4 11.6301 59.016C11.9981 58.6267 12.4248 58.3227 12.9101 58.104C13.3955 57.8853 13.9128 57.776 14.4621 57.776C15.0648 57.776 15.6168 57.8987 16.1181 58.144C16.6248 58.384 17.0568 58.72 17.4141 59.152C17.7768 59.584 18.0461 60.0853 18.2221 60.656C18.4035 61.2267 18.4701 61.8373 18.4221 62.488H11.8941C11.9581 62.9413 12.1075 63.3467 12.3421 63.704C12.5768 64.056 12.8755 64.336 13.2381 64.544C13.6061 64.752 14.0141 64.8587 14.4621 64.864C14.9421 64.864 15.3768 64.7413 15.7661 64.496C16.1555 64.2453 16.4701 63.904 16.7101 63.472L18.0781 63.792C17.7581 64.5013 17.2755 65.0827 16.6301 65.536C15.9848 65.984 15.2621 66.208 14.4621 66.208ZM11.8541 61.432H17.0701C17.0275 60.984 16.8835 60.576 16.6381 60.208C16.3928 59.8347 16.0808 59.536 15.7021 59.312C15.3235 59.088 14.9101 58.976 14.4621 58.976C14.0141 58.976 13.6035 59.0853 13.2301 59.304C12.8568 59.5227 12.5475 59.8187 12.3021 60.192C12.0621 60.56 11.9128 60.9733 11.8541 61.432ZM19.6743 66V58H21.0183V59C21.3009 58.6267 21.6583 58.3307 22.0903 58.112C22.5223 57.888 22.9916 57.776 23.4983 57.776C23.8076 57.776 24.1063 57.816 24.3943 57.896L23.8503 59.24C23.6316 59.1707 23.4183 59.136 23.2103 59.136C22.8103 59.136 22.4423 59.2347 22.1063 59.432C21.7756 59.624 21.5116 59.8853 21.3143 60.216C21.1169 60.5467 21.0183 60.9147 21.0183 61.32V66H19.6743ZM28.3951 66.208C27.6591 66.208 26.9871 66.0187 26.3791 65.64C25.7765 65.2613 25.2938 64.7547 24.9311 64.12C24.5738 63.48 24.3951 62.7733 24.3951 62C24.3951 61.4133 24.4991 60.8667 24.7071 60.36C24.9151 59.848 25.2005 59.4 25.5631 59.016C25.9311 58.6267 26.3578 58.3227 26.8431 58.104C27.3285 57.8853 27.8458 57.776 28.3951 57.776C29.1311 57.776 29.8005 57.9653 30.4031 58.344C31.0111 58.7227 31.4938 59.232 31.8511 59.872C32.2138 60.512 32.3951 61.2213 32.3951 62C32.3951 62.5813 32.2911 63.1253 32.0831 63.632C31.8751 64.1387 31.5871 64.5867 31.2191 64.976C30.8565 65.36 30.4325 65.6613 29.9471 65.88C29.4671 66.0987 28.9498 66.208 28.3951 66.208ZM28.3951 64.864C28.8965 64.864 29.3471 64.7333 29.7471 64.472C30.1525 64.2053 30.4698 63.856 30.6991 63.424C30.9338 62.9867 31.0511 62.512 31.0511 62C31.0511 61.4773 30.9311 60.9973 30.6911 60.56C30.4565 60.1227 30.1391 59.7733 29.7391 59.512C29.3391 59.2507 28.8911 59.12 28.3951 59.12C27.8938 59.12 27.4431 59.2533 27.0431 59.52C26.6431 59.7813 26.3258 60.1307 26.0911 60.568C25.8565 61.0053 25.7391 61.4827 25.7391 62C25.7391 62.5333 25.8591 63.0187 26.0991 63.456C26.3391 63.888 26.6618 64.232 27.0671 64.488C27.4725 64.7387 27.9151 64.864 28.3951 64.864ZM41.424 66.208C40.8213 66.208 40.24 66.1147 39.68 65.928C39.12 65.736 38.6293 65.464 38.208 65.112C37.792 64.76 37.496 64.3413 37.32 63.856L38.576 63.384C38.6827 63.6827 38.88 63.944 39.168 64.168C39.4613 64.3867 39.8053 64.5573 40.2 64.68C40.5947 64.8027 41.0027 64.864 41.424 64.864C41.904 64.864 42.3493 64.7867 42.76 64.632C43.176 64.472 43.512 64.2507 43.768 63.968C44.024 63.6853 44.152 63.3547 44.152 62.976C44.152 62.5867 44.0187 62.2693 43.752 62.024C43.4853 61.7733 43.144 61.576 42.728 61.432C42.312 61.2827 41.8773 61.168 41.424 61.088C40.6507 60.96 39.9573 60.7787 39.344 60.544C38.736 60.304 38.2533 59.9707 37.896 59.544C37.544 59.1173 37.368 58.5547 37.368 57.856C37.368 57.2053 37.5547 56.6373 37.928 56.152C38.3067 55.6667 38.8053 55.2907 39.424 55.024C40.0427 54.7573 40.7093 54.624 41.424 54.624C42.016 54.624 42.5893 54.7173 43.144 54.904C43.704 55.0853 44.1973 55.352 44.624 55.704C45.0507 56.056 45.3573 56.4853 45.544 56.992L44.272 57.456C44.1653 57.152 43.9653 56.8907 43.672 56.672C43.384 56.448 43.0427 56.2773 42.648 56.16C42.2587 56.0373 41.8507 55.976 41.424 55.976C40.9493 55.9707 40.5067 56.048 40.096 56.208C39.6853 56.368 39.352 56.5893 39.096 56.872C38.84 57.1547 38.712 57.4827 38.712 57.856C38.712 58.304 38.8293 58.648 39.064 58.888C39.304 59.1227 39.6293 59.2987 40.04 59.416C40.4507 59.5333 40.912 59.6373 41.424 59.728C42.1493 59.8507 42.8213 60.0453 43.44 60.312C44.0587 60.5733 44.5547 60.9227 44.928 61.36C45.3067 61.7973 45.496 62.336 45.496 62.976C45.496 63.6267 45.3067 64.1947 44.928 64.68C44.5547 65.1653 44.0587 65.5413 43.44 65.808C42.8213 66.0747 42.1493 66.208 41.424 66.208ZM50.5915 66.208C49.8555 66.208 49.1835 66.0187 48.5755 65.64C47.9728 65.2613 47.4902 64.7547 47.1275 64.12C46.7702 63.48 46.5915 62.7733 46.5915 62C46.5915 61.4133 46.6955 60.8667 46.9035 60.36C47.1115 59.848 47.3968 59.4 47.7595 59.016C48.1275 58.6267 48.5542 58.3227 49.0395 58.104C49.5248 57.8853 50.0422 57.776 50.5915 57.776C51.1942 57.776 51.7462 57.8987 52.2475 58.144C52.7542 58.384 53.1862 58.72 53.5435 59.152C53.9062 59.584 54.1755 60.0853 54.3515 60.656C54.5328 61.2267 54.5995 61.8373 54.5515 62.488H48.0235C48.0875 62.9413 48.2368 63.3467 48.4715 63.704C48.7062 64.056 49.0048 64.336 49.3675 64.544C49.7355 64.752 50.1435 64.8587 50.5915 64.864C51.0715 64.864 51.5062 64.7413 51.8955 64.496C52.2848 64.2453 52.5995 63.904 52.8395 63.472L54.2075 63.792C53.8875 64.5013 53.4048 65.0827 52.7595 65.536C52.1142 65.984 51.3915 66.208 50.5915 66.208ZM47.9835 61.432H53.1995C53.1568 60.984 53.0128 60.576 52.7675 60.208C52.5222 59.8347 52.2102 59.536 51.8315 59.312C51.4528 59.088 51.0395 58.976 50.5915 58.976C50.1435 58.976 49.7328 59.0853 49.3595 59.304C48.9862 59.5227 48.6768 59.8187 48.4315 60.192C48.1915 60.56 48.0422 60.9733 47.9835 61.432ZM61.2687 63.888L62.4687 64.536C62.1061 65.0427 61.6447 65.448 61.0847 65.752C60.5301 66.056 59.9274 66.208 59.2767 66.208C58.5407 66.208 57.8687 66.0187 57.2607 65.64C56.6581 65.2613 56.1754 64.7547 55.8127 64.12C55.4554 63.48 55.2767 62.7733 55.2767 62C55.2767 61.4133 55.3807 60.8667 55.5887 60.36C55.7967 59.848 56.0821 59.4 56.4447 59.016C56.8127 58.6267 57.2394 58.3227 57.7247 58.104C58.2101 57.8853 58.7274 57.776 59.2767 57.776C59.9274 57.776 60.5301 57.928 61.0847 58.232C61.6447 58.536 62.1061 58.944 62.4687 59.456L61.2687 60.104C61.0127 59.7893 60.7087 59.5467 60.3567 59.376C60.0047 59.2053 59.6447 59.12 59.2767 59.12C58.7807 59.12 58.3301 59.2533 57.9247 59.52C57.5247 59.7813 57.2074 60.1307 56.9727 60.568C56.7381 61.0053 56.6207 61.4827 56.6207 62C56.6207 62.5173 56.7381 62.9947 56.9727 63.432C57.2127 63.864 57.5327 64.2107 57.9327 64.472C58.3381 64.7333 58.7861 64.864 59.2767 64.864C59.6714 64.864 60.0421 64.7733 60.3887 64.592C60.7354 64.4107 61.0287 64.176 61.2687 63.888ZM67.961 59.344H66.145L66.137 66H64.793L64.801 59.344H63.425V58H64.801L64.793 55.488H66.137L66.145 58H67.961V59.344ZM69.221 58H70.565V66H69.221V58ZM69.909 56.696C69.6957 56.696 69.517 56.6267 69.373 56.488C69.229 56.3493 69.157 56.176 69.157 55.968C69.157 55.76 69.229 55.5867 69.373 55.448C69.517 55.3093 69.693 55.24 69.901 55.24C70.109 55.24 70.285 55.3093 70.429 55.448C70.573 55.5867 70.645 55.76 70.645 55.968C70.645 56.176 70.573 56.3493 70.429 56.488C70.2903 56.6267 70.117 56.696 69.909 56.696ZM75.8013 66.208C75.0653 66.208 74.3933 66.0187 73.7853 65.64C73.1826 65.2613 72.6999 64.7547 72.3373 64.12C71.9799 63.48 71.8013 62.7733 71.8013 62C71.8013 61.4133 71.9053 60.8667 72.1133 60.36C72.3213 59.848 72.6066 59.4 72.9693 59.016C73.3373 58.6267 73.7639 58.3227 74.2493 58.104C74.7346 57.8853 75.2519 57.776 75.8013 57.776C76.5373 57.776 77.2066 57.9653 77.8093 58.344C78.4173 58.7227 78.8999 59.232 79.2573 59.872C79.6199 60.512 79.8013 61.2213 79.8013 62C79.8013 62.5813 79.6973 63.1253 79.4893 63.632C79.2813 64.1387 78.9933 64.5867 78.6253 64.976C78.2626 65.36 77.8386 65.6613 77.3533 65.88C76.8733 66.0987 76.3559 66.208 75.8013 66.208ZM75.8013 64.864C76.3026 64.864 76.7533 64.7333 77.1533 64.472C77.5586 64.2053 77.8759 63.856 78.1053 63.424C78.3399 62.9867 78.4573 62.512 78.4573 62C78.4573 61.4773 78.3373 60.9973 78.0973 60.56C77.8626 60.1227 77.5453 59.7733 77.1453 59.512C76.7453 59.2507 76.2973 59.12 75.8013 59.12C75.2999 59.12 74.8493 59.2533 74.4493 59.52C74.0493 59.7813 73.7319 60.1307 73.4973 60.568C73.2626 61.0053 73.1453 61.4827 73.1453 62C73.1453 62.5333 73.2653 63.0187 73.5053 63.456C73.7453 63.888 74.0679 64.232 74.4733 64.488C74.8786 64.7387 75.3213 64.864 75.8013 64.864ZM88.101 61.024V66H86.757V61.32C86.757 60.9147 86.6583 60.5467 86.461 60.216C86.2637 59.8853 85.9997 59.624 85.669 59.432C85.3383 59.2347 84.9703 59.136 84.565 59.136C84.165 59.136 83.797 59.2347 83.461 59.432C83.1303 59.624 82.8663 59.8853 82.669 60.216C82.4717 60.5467 82.373 60.9147 82.373 61.32V66H81.029V58H82.373V59C82.6557 58.6267 83.013 58.3307 83.445 58.112C83.877 57.888 84.3463 57.776 84.853 57.776C85.4503 57.776 85.9943 57.9227 86.485 58.216C86.981 58.504 87.373 58.8933 87.661 59.384C87.9543 59.8747 88.101 60.4213 88.101 61.024Z" fill="white"></path><path d="M0.96 106V94.8H7.528V96.144H2.304V99.328H6.76V100.672H2.304V106H0.96ZM11.3215 106.208C10.5855 106.208 9.9135 106.019 9.3055 105.64C8.70283 105.261 8.22017 104.755 7.8575 104.12C7.50017 103.48 7.3215 102.773 7.3215 102C7.3215 101.413 7.4255 100.867 7.6335 100.36C7.8415 99.848 8.12683 99.4 8.4895 99.016C8.8575 98.6267 9.28417 98.3227 9.7695 98.104C10.2548 97.8853 10.7722 97.776 11.3215 97.776C11.9242 97.776 12.4762 97.8987 12.9775 98.144C13.4842 98.384 13.9162 98.72 14.2735 99.152C14.6362 99.584 14.9055 100.085 15.0815 100.656C15.2628 101.227 15.3295 101.837 15.2815 102.488H8.7535C8.8175 102.941 8.96683 103.347 9.2015 103.704C9.43617 104.056 9.73483 104.336 10.0975 104.544C10.4655 104.752 10.8735 104.859 11.3215 104.864C11.8015 104.864 12.2362 104.741 12.6255 104.496C13.0148 104.245 13.3295 103.904 13.5695 103.472L14.9375 103.792C14.6175 104.501 14.1348 105.083 13.4895 105.536C12.8442 105.984 12.1215 106.208 11.3215 106.208ZM8.7135 101.432H13.9295C13.8868 100.984 13.7428 100.576 13.4975 100.208C13.2522 99.8347 12.9402 99.536 12.5615 99.312C12.1828 99.088 11.7695 98.976 11.3215 98.976C10.8735 98.976 10.4628 99.0853 10.0895 99.304C9.71617 99.5227 9.40683 99.8187 9.1615 100.192C8.9215 100.56 8.77217 100.973 8.7135 101.432ZM22.9187 98H24.2627V106H22.9187L22.8628 104.648C22.6121 105.112 22.2654 105.488 21.8228 105.776C21.3854 106.064 20.8627 106.208 20.2547 106.208C19.6681 106.208 19.1187 106.099 18.6067 105.88C18.0947 105.656 17.6414 105.349 17.2467 104.96C16.8574 104.565 16.5534 104.112 16.3347 103.6C16.1161 103.088 16.0067 102.536 16.0067 101.944C16.0067 101.373 16.1134 100.835 16.3267 100.328C16.5401 99.8213 16.8361 99.3787 17.2147 99C17.5987 98.616 18.0414 98.3173 18.5427 98.104C19.0441 97.8853 19.5827 97.776 20.1588 97.776C20.7881 97.776 21.3401 97.9253 21.8147 98.224C22.2894 98.5173 22.6734 98.8987 22.9668 99.368L22.9187 98ZM20.2307 104.904C20.7587 104.904 21.2147 104.776 21.5988 104.52C21.9881 104.259 22.2867 103.907 22.4948 103.464C22.7081 103.021 22.8148 102.533 22.8148 102C22.8148 101.456 22.7081 100.965 22.4948 100.528C22.2814 100.085 21.9801 99.736 21.5907 99.48C21.2067 99.2187 20.7534 99.088 20.2307 99.088C19.7027 99.088 19.2227 99.2187 18.7907 99.48C18.3587 99.7413 18.0147 100.093 17.7587 100.536C17.5081 100.973 17.3827 101.461 17.3827 102C17.3827 102.539 17.5134 103.029 17.7747 103.472C18.0361 103.909 18.3827 104.259 18.8147 104.52C19.2467 104.776 19.7187 104.904 20.2307 104.904ZM29.9097 99.344H28.0938L28.0858 106H26.7418L26.7498 99.344H25.3737V98H26.7498L26.7418 95.488H28.0858L28.0938 98H29.9097V99.344ZM30.9279 102.96V98H32.2719V102.664C32.2719 103.069 32.3705 103.437 32.5679 103.768C32.7652 104.099 33.0292 104.363 33.3599 104.56C33.6959 104.752 34.0639 104.848 34.4639 104.848C34.8692 104.848 35.2345 104.752 35.5599 104.56C35.8905 104.363 36.1545 104.099 36.3519 103.768C36.5492 103.437 36.6479 103.069 36.6479 102.664V98H37.9919L37.9999 106H36.6559L36.6479 104.984C36.3652 105.357 36.0079 105.656 35.5759 105.88C35.1439 106.099 34.6772 106.208 34.1759 106.208C33.5785 106.208 33.0319 106.064 32.5359 105.776C32.0452 105.483 31.6532 105.091 31.3599 104.6C31.0719 104.109 30.9279 103.563 30.9279 102.96ZM39.5113 106V98H40.8553V99C41.1379 98.6267 41.4953 98.3307 41.9273 98.112C42.3593 97.888 42.8286 97.776 43.3353 97.776C43.6446 97.776 43.9433 97.816 44.2313 97.896L43.6873 99.24C43.4686 99.1707 43.2553 99.136 43.0473 99.136C42.6473 99.136 42.2793 99.2347 41.9433 99.432C41.6126 99.624 41.3486 99.8853 41.1513 100.216C40.9539 100.547 40.8553 100.915 40.8553 101.32V106H39.5113ZM48.2321 106.208C47.4961 106.208 46.8241 106.019 46.2161 105.64C45.6135 105.261 45.1308 104.755 44.7681 104.12C44.4108 103.48 44.2321 102.773 44.2321 102C44.2321 101.413 44.3361 100.867 44.5441 100.36C44.7521 99.848 45.0375 99.4 45.4001 99.016C45.7681 98.6267 46.1948 98.3227 46.6801 98.104C47.1655 97.8853 47.6828 97.776 48.2321 97.776C48.8348 97.776 49.3868 97.8987 49.8881 98.144C50.3948 98.384 50.8268 98.72 51.1841 99.152C51.5468 99.584 51.8161 100.085 51.9921 100.656C52.1735 101.227 52.2401 101.837 52.1921 102.488H45.6641C45.7281 102.941 45.8775 103.347 46.1121 103.704C46.3468 104.056 46.6455 104.336 47.0081 104.544C47.3761 104.752 47.7841 104.859 48.2321 104.864C48.7121 104.864 49.1468 104.741 49.5361 104.496C49.9255 104.245 50.2401 103.904 50.4801 103.472L51.8481 103.792C51.5281 104.501 51.0455 105.083 50.4001 105.536C49.7548 105.984 49.0321 106.208 48.2321 106.208ZM45.6241 101.432H50.8401C50.7975 100.984 50.6535 100.576 50.4081 100.208C50.1628 99.8347 49.8508 99.536 49.4721 99.312C49.0935 99.088 48.6801 98.976 48.2321 98.976C47.7841 98.976 47.3735 99.0853 47.0001 99.304C46.6268 99.5227 46.3175 99.8187 46.0721 100.192C45.8321 100.56 45.6828 100.973 45.6241 101.432ZM55.9155 106.152C55.4835 106.136 55.0622 106.056 54.6515 105.912C54.2462 105.763 53.8888 105.563 53.5795 105.312C53.2755 105.056 53.0542 104.763 52.9155 104.432L54.0675 103.936C54.1475 104.117 54.2915 104.288 54.4995 104.448C54.7075 104.608 54.9475 104.736 55.2195 104.832C55.4915 104.928 55.7662 104.976 56.0435 104.976C56.3368 104.976 56.6115 104.931 56.8675 104.84C57.1235 104.749 57.3315 104.616 57.4915 104.44C57.6568 104.259 57.7395 104.043 57.7395 103.792C57.7395 103.525 57.6488 103.317 57.4675 103.168C57.2915 103.013 57.0675 102.893 56.7955 102.808C56.5288 102.717 56.2568 102.632 55.9795 102.552C55.4302 102.413 54.9395 102.248 54.5075 102.056C54.0755 101.859 53.7342 101.611 53.4835 101.312C53.2382 101.008 53.1155 100.621 53.1155 100.152C53.1155 99.656 53.2515 99.2267 53.5235 98.864C53.8008 98.5013 54.1635 98.2213 54.6115 98.024C55.0595 97.8267 55.5395 97.728 56.0515 97.728C56.6968 97.728 57.2862 97.8667 57.8195 98.144C58.3528 98.4213 58.7502 98.7973 59.0115 99.272L57.9315 99.904C57.8408 99.712 57.7022 99.544 57.5155 99.4C57.3288 99.2507 57.1155 99.1333 56.8755 99.048C56.6355 98.9627 56.3902 98.9173 56.1395 98.912C55.8302 98.9013 55.5395 98.9413 55.2675 99.032C55.0008 99.1227 54.7848 99.2613 54.6195 99.448C54.4595 99.6293 54.3795 99.856 54.3795 100.128C54.3795 100.395 54.4648 100.597 54.6355 100.736C54.8115 100.875 55.0382 100.987 55.3155 101.072C55.5982 101.152 55.9048 101.245 56.2355 101.352C56.7208 101.507 57.1742 101.685 57.5955 101.888C58.0168 102.091 58.3555 102.344 58.6115 102.648C58.8728 102.952 59.0008 103.328 58.9955 103.776C58.9955 104.267 58.8488 104.696 58.5555 105.064C58.2622 105.427 57.8808 105.704 57.4115 105.896C56.9475 106.088 56.4488 106.173 55.9155 106.152Z" fill="white"></path><path d="M0.96 146V134.8H4.656C5.25867 134.8 5.8 134.947 6.28 135.24C6.76533 135.533 7.14933 135.931 7.432 136.432C7.72 136.928 7.864 137.483 7.864 138.096C7.864 138.72 7.71733 139.283 7.424 139.784C7.136 140.28 6.74667 140.675 6.256 140.968C5.77067 141.256 5.23733 141.4 4.656 141.4H2.304V146H0.96ZM2.304 140.056H4.536C4.89867 140.056 5.22933 139.968 5.528 139.792C5.832 139.611 6.072 139.368 6.248 139.064C6.42933 138.755 6.52 138.408 6.52 138.024C6.52 137.635 6.42933 137.288 6.248 136.984C6.072 136.675 5.832 136.432 5.528 136.256C5.22933 136.075 4.89867 135.984 4.536 135.984H2.304V140.056ZM9.14525 146V138H10.4893V139C10.7719 138.627 11.1293 138.331 11.5613 138.112C11.9933 137.888 12.4626 137.776 12.9693 137.776C13.2786 137.776 13.5773 137.816 13.8653 137.896L13.3213 139.24C13.1026 139.171 12.8893 139.136 12.6813 139.136C12.2813 139.136 11.9133 139.235 11.5773 139.432C11.2466 139.624 10.9826 139.885 10.7853 140.216C10.5879 140.547 10.4893 140.915 10.4893 141.32V146H9.14525ZM17.8661 146.208C17.1301 146.208 16.4581 146.019 15.8501 145.64C15.2475 145.261 14.7648 144.755 14.4021 144.12C14.0448 143.48 13.8661 142.773 13.8661 142C13.8661 141.413 13.9701 140.867 14.1781 140.36C14.3861 139.848 14.6715 139.4 15.0341 139.016C15.4021 138.627 15.8288 138.323 16.3141 138.104C16.7995 137.885 17.3168 137.776 17.8661 137.776C18.6021 137.776 19.2715 137.965 19.8741 138.344C20.4821 138.723 20.9648 139.232 21.3221 139.872C21.6848 140.512 21.8661 141.221 21.8661 142C21.8661 142.581 21.7621 143.125 21.5541 143.632C21.3461 144.139 21.0581 144.587 20.6901 144.976C20.3275 145.36 19.9035 145.661 19.4181 145.88C18.9381 146.099 18.4208 146.208 17.8661 146.208ZM17.8661 144.864C18.3675 144.864 18.8181 144.733 19.2181 144.472C19.6235 144.205 19.9408 143.856 20.1701 143.424C20.4048 142.987 20.5221 142.512 20.5221 142C20.5221 141.477 20.4021 140.997 20.1621 140.56C19.9275 140.123 19.6101 139.773 19.2101 139.512C18.8101 139.251 18.3621 139.12 17.8661 139.12C17.3648 139.12 16.9141 139.253 16.5141 139.52C16.1141 139.781 15.7968 140.131 15.5621 140.568C15.3275 141.005 15.2101 141.483 15.2101 142C15.2101 142.533 15.3301 143.019 15.5701 143.456C15.8101 143.888 16.1328 144.232 16.5381 144.488C16.9435 144.739 17.3861 144.864 17.8661 144.864ZM24.4379 150H23.0939V138H24.4379V139.368C24.7099 138.899 25.0725 138.52 25.5259 138.232C25.9792 137.939 26.5179 137.792 27.1419 137.792C27.7232 137.792 28.2672 137.901 28.7739 138.12C29.2859 138.339 29.7339 138.643 30.1179 139.032C30.5019 139.416 30.8032 139.861 31.0219 140.368C31.2405 140.875 31.3499 141.419 31.3499 142C31.3499 142.581 31.2405 143.128 31.0219 143.64C30.8032 144.152 30.5019 144.603 30.1179 144.992C29.7339 145.376 29.2859 145.677 28.7739 145.896C28.2672 146.115 27.7232 146.224 27.1419 146.224C26.5179 146.224 25.9792 146.08 25.5259 145.792C25.0725 145.499 24.7099 145.117 24.4379 144.648V150ZM27.1259 139.096C26.6085 139.096 26.1552 139.227 25.7659 139.488C25.3765 139.749 25.0752 140.099 24.8619 140.536C24.6539 140.973 24.5499 141.461 24.5499 142C24.5499 142.533 24.6539 143.021 24.8619 143.464C25.0752 143.907 25.3739 144.259 25.7579 144.52C26.1472 144.781 26.6032 144.912 27.1259 144.912C27.6432 144.912 28.1179 144.784 28.5499 144.528C28.9819 144.267 29.3285 143.917 29.5899 143.48C29.8512 143.037 29.9819 142.544 29.9819 142C29.9819 141.467 29.8539 140.981 29.5979 140.544C29.3419 140.101 28.9979 139.749 28.5659 139.488C28.1339 139.227 27.6539 139.096 27.1259 139.096ZM36.0647 146.208C35.3287 146.208 34.6567 146.019 34.0487 145.64C33.4461 145.261 32.9634 144.755 32.6007 144.12C32.2434 143.48 32.0647 142.773 32.0647 142C32.0647 141.413 32.1687 140.867 32.3767 140.36C32.5847 139.848 32.8701 139.4 33.2327 139.016C33.6007 138.627 34.0274 138.323 34.5127 138.104C34.9981 137.885 35.5154 137.776 36.0647 137.776C36.6674 137.776 37.2194 137.899 37.7207 138.144C38.2274 138.384 38.6594 138.72 39.0167 139.152C39.3794 139.584 39.6487 140.085 39.8247 140.656C40.0061 141.227 40.0727 141.837 40.0247 142.488H33.4967C33.5607 142.941 33.7101 143.347 33.9447 143.704C34.1794 144.056 34.4781 144.336 34.8407 144.544C35.2087 144.752 35.6167 144.859 36.0647 144.864C36.5447 144.864 36.9794 144.741 37.3687 144.496C37.7581 144.245 38.0727 143.904 38.3127 143.472L39.6807 143.792C39.3607 144.501 38.8781 145.083 38.2327 145.536C37.5874 145.984 36.8647 146.208 36.0647 146.208ZM33.4567 141.432H38.6727C38.6301 140.984 38.4861 140.576 38.2407 140.208C37.9954 139.835 37.6834 139.536 37.3047 139.312C36.9261 139.088 36.5127 138.976 36.0647 138.976C35.6167 138.976 35.2061 139.085 34.8327 139.304C34.4594 139.523 34.1501 139.819 33.9047 140.192C33.6647 140.56 33.5154 140.973 33.4567 141.432ZM41.2769 146V138H42.6209V139C42.9035 138.627 43.2609 138.331 43.6929 138.112C44.1249 137.888 44.5942 137.776 45.1009 137.776C45.4102 137.776 45.7089 137.816 45.9969 137.896L45.4529 139.24C45.2342 139.171 45.0209 139.136 44.8129 139.136C44.4129 139.136 44.0449 139.235 43.7089 139.432C43.3782 139.624 43.1142 139.885 42.9169 140.216C42.7195 140.547 42.6209 140.915 42.6209 141.32V146H41.2769ZM51.1686 139.344H49.3526L49.3446 146H48.0006L48.0086 139.344H46.6326V138H48.0086L48.0006 135.488H49.3446L49.3526 138H51.1686V139.344ZM52.4286 138H53.7726V146H52.4286V138ZM53.1166 136.696C52.9033 136.696 52.7246 136.627 52.5806 136.488C52.4366 136.349 52.3646 136.176 52.3646 135.968C52.3646 135.76 52.4366 135.587 52.5806 135.448C52.7246 135.309 52.9006 135.24 53.1086 135.24C53.3166 135.24 53.4926 135.309 53.6366 135.448C53.7806 135.587 53.8526 135.76 53.8526 135.968C53.8526 136.176 53.7806 136.349 53.6366 136.488C53.498 136.627 53.3246 136.696 53.1166 136.696ZM59.0089 146.208C58.2729 146.208 57.6009 146.019 56.9929 145.64C56.3902 145.261 55.9075 144.755 55.5449 144.12C55.1875 143.48 55.0089 142.773 55.0089 142C55.0089 141.413 55.1129 140.867 55.3209 140.36C55.5289 139.848 55.8142 139.4 56.1769 139.016C56.5449 138.627 56.9715 138.323 57.4569 138.104C57.9422 137.885 58.4595 137.776 59.0089 137.776C59.6115 137.776 60.1635 137.899 60.6649 138.144C61.1715 138.384 61.6035 138.72 61.9609 139.152C62.3235 139.584 62.5929 140.085 62.7689 140.656C62.9502 141.227 63.0169 141.837 62.9689 142.488H56.4409C56.5049 142.941 56.6542 143.347 56.8889 143.704C57.1235 144.056 57.4222 144.336 57.7849 144.544C58.1529 144.752 58.5609 144.859 59.0089 144.864C59.4889 144.864 59.9235 144.741 60.3129 144.496C60.7022 144.245 61.0169 143.904 61.2569 143.472L62.6249 143.792C62.3049 144.501 61.8222 145.083 61.1769 145.536C60.5315 145.984 59.8089 146.208 59.0089 146.208ZM56.4009 141.432H61.6169C61.5742 140.984 61.4302 140.576 61.1849 140.208C60.9395 139.835 60.6275 139.536 60.2489 139.312C59.8702 139.088 59.4569 138.976 59.0089 138.976C58.5609 138.976 58.1502 139.085 57.7769 139.304C57.4035 139.523 57.0942 139.819 56.8489 140.192C56.6089 140.56 56.4595 140.973 56.4009 141.432ZM66.6923 146.152C66.2603 146.136 65.8389 146.056 65.4283 145.912C65.0229 145.763 64.6656 145.563 64.3563 145.312C64.0523 145.056 63.8309 144.763 63.6923 144.432L64.8443 143.936C64.9243 144.117 65.0683 144.288 65.2763 144.448C65.4843 144.608 65.7243 144.736 65.9963 144.832C66.2683 144.928 66.5429 144.976 66.8203 144.976C67.1136 144.976 67.3883 144.931 67.6443 144.84C67.9003 144.749 68.1083 144.616 68.2683 144.44C68.4336 144.259 68.5163 144.043 68.5163 143.792C68.5163 143.525 68.4256 143.317 68.2443 143.168C68.0683 143.013 67.8443 142.893 67.5723 142.808C67.3056 142.717 67.0336 142.632 66.7563 142.552C66.2069 142.413 65.7163 142.248 65.2843 142.056C64.8523 141.859 64.5109 141.611 64.2603 141.312C64.0149 141.008 63.8923 140.621 63.8923 140.152C63.8923 139.656 64.0283 139.227 64.3003 138.864C64.5776 138.501 64.9403 138.221 65.3883 138.024C65.8363 137.827 66.3163 137.728 66.8283 137.728C67.4736 137.728 68.0629 137.867 68.5963 138.144C69.1296 138.421 69.5269 138.797 69.7883 139.272L68.7083 139.904C68.6176 139.712 68.4789 139.544 68.2923 139.4C68.1056 139.251 67.8923 139.133 67.6523 139.048C67.4123 138.963 67.1669 138.917 66.9163 138.912C66.6069 138.901 66.3163 138.941 66.0443 139.032C65.7776 139.123 65.5616 139.261 65.3963 139.448C65.2363 139.629 65.1563 139.856 65.1563 140.128C65.1563 140.395 65.2416 140.597 65.4123 140.736C65.5883 140.875 65.8149 140.987 66.0923 141.072C66.3749 141.152 66.6816 141.245 67.0123 141.352C67.4976 141.507 67.9509 141.685 68.3723 141.888C68.7936 142.091 69.1323 142.344 69.3883 142.648C69.6496 142.952 69.7776 143.328 69.7723 143.776C69.7723 144.267 69.6256 144.696 69.3323 145.064C69.0389 145.427 68.6576 145.704 68.1883 145.896C67.7243 146.088 67.2256 146.173 66.6923 146.152Z" fill="white"></path><path d="M9.432 174.8V176.144H5.704V186H4.36V176.144H0.64V174.8H9.432ZM13.2121 186.208C12.4761 186.208 11.8041 186.019 11.1961 185.64C10.5935 185.261 10.1108 184.755 9.74813 184.12C9.39079 183.48 9.21213 182.773 9.21213 182C9.21213 181.413 9.31613 180.867 9.52413 180.36C9.73213 179.848 10.0175 179.4 10.3801 179.016C10.7481 178.627 11.1748 178.323 11.6601 178.104C12.1455 177.885 12.6628 177.776 13.2121 177.776C13.8148 177.776 14.3668 177.899 14.8681 178.144C15.3748 178.384 15.8068 178.72 16.1641 179.152C16.5268 179.584 16.7961 180.085 16.9721 180.656C17.1535 181.227 17.2201 181.837 17.1721 182.488H10.6441C10.7081 182.941 10.8575 183.347 11.0921 183.704C11.3268 184.056 11.6255 184.336 11.9881 184.544C12.3561 184.752 12.7641 184.859 13.2121 184.864C13.6921 184.864 14.1268 184.741 14.5161 184.496C14.9055 184.245 15.2201 183.904 15.4601 183.472L16.8281 183.792C16.5081 184.501 16.0255 185.083 15.3801 185.536C14.7348 185.984 14.0121 186.208 13.2121 186.208ZM10.6041 181.432H15.8201C15.7775 180.984 15.6335 180.576 15.3881 180.208C15.1428 179.835 14.8308 179.536 14.4521 179.312C14.0735 179.088 13.6601 178.976 13.2121 178.976C12.7641 178.976 12.3535 179.085 11.9801 179.304C11.6068 179.523 11.2975 179.819 11.0521 180.192C10.8121 180.56 10.6628 180.973 10.6041 181.432ZM20.8955 186.152C20.4635 186.136 20.0422 186.056 19.6315 185.912C19.2262 185.763 18.8688 185.563 18.5595 185.312C18.2555 185.056 18.0342 184.763 17.8955 184.432L19.0475 183.936C19.1275 184.117 19.2715 184.288 19.4795 184.448C19.6875 184.608 19.9275 184.736 20.1995 184.832C20.4715 184.928 20.7462 184.976 21.0235 184.976C21.3168 184.976 21.5915 184.931 21.8475 184.84C22.1035 184.749 22.3115 184.616 22.4715 184.44C22.6368 184.259 22.7195 184.043 22.7195 183.792C22.7195 183.525 22.6288 183.317 22.4475 183.168C22.2715 183.013 22.0475 182.893 21.7755 182.808C21.5088 182.717 21.2368 182.632 20.9595 182.552C20.4102 182.413 19.9195 182.248 19.4875 182.056C19.0555 181.859 18.7142 181.611 18.4635 181.312C18.2182 181.008 18.0955 180.621 18.0955 180.152C18.0955 179.656 18.2315 179.227 18.5035 178.864C18.7808 178.501 19.1435 178.221 19.5915 178.024C20.0395 177.827 20.5195 177.728 21.0315 177.728C21.6768 177.728 22.2662 177.867 22.7995 178.144C23.3328 178.421 23.7302 178.797 23.9915 179.272L22.9115 179.904C22.8208 179.712 22.6822 179.544 22.4955 179.4C22.3088 179.251 22.0955 179.133 21.8555 179.048C21.6155 178.963 21.3702 178.917 21.1195 178.912C20.8102 178.901 20.5195 178.941 20.2475 179.032C19.9808 179.123 19.7648 179.261 19.5995 179.448C19.4395 179.629 19.3595 179.856 19.3595 180.128C19.3595 180.395 19.4448 180.597 19.6155 180.736C19.7915 180.875 20.0182 180.987 20.2955 181.072C20.5782 181.152 20.8848 181.245 21.2155 181.352C21.7008 181.507 22.1542 181.685 22.5755 181.888C22.9968 182.091 23.3355 182.344 23.5915 182.648C23.8528 182.952 23.9808 183.328 23.9755 183.776C23.9755 184.267 23.8288 184.696 23.5355 185.064C23.2422 185.427 22.8608 185.704 22.3915 185.896C21.9275 186.088 21.4288 186.173 20.8955 186.152ZM29.3941 179.344H27.5781L27.5701 186H26.2261L26.2341 179.344H24.8581V178H26.2341L26.2261 175.488H27.5701L27.5781 178H29.3941V179.344ZM30.6541 178H31.9981V186H30.6541V178ZM31.3421 176.696C31.1288 176.696 30.9501 176.627 30.8061 176.488C30.6621 176.349 30.5901 176.176 30.5901 175.968C30.5901 175.76 30.6621 175.587 30.8061 175.448C30.9501 175.309 31.1261 175.24 31.3341 175.24C31.5421 175.24 31.7181 175.309 31.8621 175.448C32.0061 175.587 32.0781 175.76 32.0781 175.968C32.0781 176.176 32.0061 176.349 31.8621 176.488C31.7235 176.627 31.5501 176.696 31.3421 176.696ZM33.7925 186V178H35.1365V179C35.4192 178.627 35.7738 178.331 36.2005 178.112C36.6325 177.888 37.1018 177.776 37.6085 177.776C38.2005 177.776 38.7418 177.92 39.2325 178.208C39.7232 178.496 40.1098 178.877 40.3925 179.352C40.6752 178.877 41.0592 178.496 41.5445 178.208C42.0352 177.92 42.5738 177.776 43.1605 177.776C43.7632 177.776 44.3098 177.923 44.8005 178.216C45.2912 178.504 45.6805 178.893 45.9685 179.384C46.2618 179.875 46.4085 180.421 46.4085 181.024V186H45.0645V181.344C45.0645 180.949 44.9685 180.584 44.7765 180.248C44.5845 179.912 44.3258 179.643 44.0005 179.44C43.6752 179.237 43.3152 179.136 42.9205 179.136C42.5258 179.136 42.1658 179.232 41.8405 179.424C41.5152 179.611 41.2565 179.872 41.0645 180.208C40.8725 180.539 40.7765 180.917 40.7765 181.344V186H39.4325V181.344C39.4325 180.917 39.3365 180.539 39.1445 180.208C38.9525 179.872 38.6912 179.611 38.3605 179.424C38.0352 179.232 37.6752 179.136 37.2805 179.136C36.8912 179.136 36.5312 179.237 36.2005 179.44C35.8752 179.643 35.6165 179.912 35.4245 180.248C35.2325 180.584 35.1365 180.949 35.1365 181.344V186H33.7925ZM51.279 186.208C50.543 186.208 49.871 186.019 49.263 185.64C48.6603 185.261 48.1777 184.755 47.815 184.12C47.4577 183.48 47.279 182.773 47.279 182C47.279 181.413 47.383 180.867 47.591 180.36C47.799 179.848 48.0843 179.4 48.447 179.016C48.815 178.627 49.2417 178.323 49.727 178.104C50.2123 177.885 50.7297 177.776 51.279 177.776C52.015 177.776 52.6843 177.965 53.287 178.344C53.895 178.723 54.3777 179.232 54.735 179.872C55.0977 180.512 55.279 181.221 55.279 182C55.279 182.581 55.175 183.125 54.967 183.632C54.759 184.139 54.471 184.587 54.103 184.976C53.7403 185.36 53.3163 185.661 52.831 185.88C52.351 186.099 51.8337 186.208 51.279 186.208ZM51.279 184.864C51.7803 184.864 52.231 184.733 52.631 184.472C53.0363 184.205 53.3537 183.856 53.583 183.424C53.8177 182.987 53.935 182.512 53.935 182C53.935 181.477 53.815 180.997 53.575 180.56C53.3403 180.123 53.023 179.773 52.623 179.512C52.223 179.251 51.775 179.12 51.279 179.12C50.7777 179.12 50.327 179.253 49.927 179.52C49.527 179.781 49.2097 180.131 48.975 180.568C48.7403 181.005 48.623 181.483 48.623 182C48.623 182.533 48.743 183.019 48.983 183.456C49.223 183.888 49.5457 184.232 49.951 184.488C50.3563 184.739 50.799 184.864 51.279 184.864ZM63.5787 181.024V186H62.2347V181.32C62.2347 180.915 62.1361 180.547 61.9387 180.216C61.7414 179.885 61.4774 179.624 61.1467 179.432C60.8161 179.235 60.4481 179.136 60.0427 179.136C59.6427 179.136 59.2747 179.235 58.9387 179.432C58.6081 179.624 58.3441 179.885 58.1467 180.216C57.9494 180.547 57.8507 180.915 57.8507 181.32V186H56.5067V178H57.8507V179C58.1334 178.627 58.4907 178.331 58.9227 178.112C59.3547 177.888 59.8241 177.776 60.3307 177.776C60.9281 177.776 61.4721 177.923 61.9627 178.216C62.4587 178.504 62.8507 178.893 63.1387 179.384C63.4321 179.875 63.5787 180.421 63.5787 181.024ZM65.0826 178H66.4266V186H65.0826V178ZM65.7706 176.696C65.5573 176.696 65.3786 176.627 65.2346 176.488C65.0906 176.349 65.0186 176.176 65.0186 175.968C65.0186 175.76 65.0906 175.587 65.2346 175.448C65.3786 175.309 65.5546 175.24 65.7626 175.24C65.9706 175.24 66.1466 175.309 66.2906 175.448C66.4346 175.587 66.5066 175.76 66.5066 175.968C66.5066 176.176 66.4346 176.349 66.2906 176.488C66.152 176.627 65.9786 176.696 65.7706 176.696ZM74.5749 178H75.9189V186H74.5749L74.5189 184.648C74.2682 185.112 73.9215 185.488 73.4789 185.776C73.0415 186.064 72.5189 186.208 71.9109 186.208C71.3242 186.208 70.7749 186.099 70.2629 185.88C69.7509 185.656 69.2975 185.349 68.9029 184.96C68.5135 184.565 68.2095 184.112 67.9909 183.6C67.7722 183.088 67.6629 182.536 67.6629 181.944C67.6629 181.373 67.7695 180.835 67.9829 180.328C68.1962 179.821 68.4922 179.379 68.8709 179C69.2549 178.616 69.6975 178.317 70.1989 178.104C70.7002 177.885 71.2389 177.776 71.8149 177.776C72.4442 177.776 72.9962 177.925 73.4709 178.224C73.9455 178.517 74.3295 178.899 74.6229 179.368L74.5749 178ZM71.8869 184.904C72.4149 184.904 72.8709 184.776 73.2549 184.52C73.6442 184.259 73.9429 183.907 74.1509 183.464C74.3642 183.021 74.4709 182.533 74.4709 182C74.4709 181.456 74.3642 180.965 74.1509 180.528C73.9375 180.085 73.6362 179.736 73.2469 179.48C72.8629 179.219 72.4095 179.088 71.8869 179.088C71.3589 179.088 70.8789 179.219 70.4469 179.48C70.0149 179.741 69.6709 180.093 69.4149 180.536C69.1642 180.973 69.0389 181.461 69.0389 182C69.0389 182.539 69.1695 183.029 69.4309 183.472C69.6922 183.909 70.0389 184.259 70.4709 184.52C70.9029 184.776 71.3749 184.904 71.8869 184.904ZM77.5156 186V174H78.8596V186H77.5156ZM83.1253 186.152C82.6933 186.136 82.2719 186.056 81.8613 185.912C81.4559 185.763 81.0986 185.563 80.7893 185.312C80.4853 185.056 80.2639 184.763 80.1253 184.432L81.2773 183.936C81.3573 184.117 81.5013 184.288 81.7093 184.448C81.9173 184.608 82.1573 184.736 82.4293 184.832C82.7013 184.928 82.9759 184.976 83.2533 184.976C83.5466 184.976 83.8213 184.931 84.0773 184.84C84.3333 184.749 84.5413 184.616 84.7013 184.44C84.8666 184.259 84.9493 184.043 84.9493 183.792C84.9493 183.525 84.8586 183.317 84.6773 183.168C84.5013 183.013 84.2773 182.893 84.0053 182.808C83.7386 182.717 83.4666 182.632 83.1893 182.552C82.6399 182.413 82.1493 182.248 81.7173 182.056C81.2853 181.859 80.9439 181.611 80.6933 181.312C80.4479 181.008 80.3253 180.621 80.3253 180.152C80.3253 179.656 80.4613 179.227 80.7333 178.864C81.0106 178.501 81.3733 178.221 81.8213 178.024C82.2693 177.827 82.7493 177.728 83.2613 177.728C83.9066 177.728 84.4959 177.867 85.0293 178.144C85.5626 178.421 85.9599 178.797 86.2213 179.272L85.1413 179.904C85.0506 179.712 84.9119 179.544 84.7253 179.4C84.5386 179.251 84.3253 179.133 84.0853 179.048C83.8453 178.963 83.5999 178.917 83.3493 178.912C83.0399 178.901 82.7493 178.941 82.4773 179.032C82.2106 179.123 81.9946 179.261 81.8293 179.448C81.6693 179.629 81.5893 179.856 81.5893 180.128C81.5893 180.395 81.6746 180.597 81.8453 180.736C82.0213 180.875 82.2479 180.987 82.5253 181.072C82.8079 181.152 83.1146 181.245 83.4453 181.352C83.9306 181.507 84.3839 181.685 84.8053 181.888C85.2266 182.091 85.5653 182.344 85.8213 182.648C86.0826 182.952 86.2106 183.328 86.2053 183.776C86.2053 184.267 86.0586 184.696 85.7653 185.064C85.4719 185.427 85.0906 185.704 84.6213 185.896C84.1573 186.088 83.6586 186.173 83.1253 186.152Z" fill="white"></path><path d="M0.96 226V214.8H7.528V216.144H2.304V219.328H6.76V220.672H2.304V226H0.96ZM11.0535 214.8H12.6775L16.7495 226H15.3255L14.4935 223.712H9.2375L8.4135 226H6.9815L11.0535 214.8ZM9.7335 222.368H13.9975L11.8615 216.52L9.7335 222.368ZM27.4533 226.232L26.1413 224.92C25.6826 225.315 25.1626 225.624 24.5813 225.848C24.0053 226.067 23.3946 226.176 22.7493 226.176C21.9866 226.176 21.2719 226.027 20.6053 225.728C19.9386 225.424 19.3519 225.008 18.8453 224.48C18.3386 223.947 17.9413 223.328 17.6533 222.624C17.3706 221.92 17.2293 221.168 17.2293 220.368C17.2293 219.568 17.3706 218.819 17.6533 218.12C17.9413 217.416 18.3386 216.797 18.8453 216.264C19.3519 215.731 19.9386 215.315 20.6053 215.016C21.2719 214.712 21.9866 214.56 22.7493 214.56C23.5119 214.56 24.2239 214.712 24.8853 215.016C25.5519 215.315 26.1386 215.731 26.6453 216.264C27.1519 216.797 27.5466 217.416 27.8293 218.12C28.1173 218.819 28.2613 219.568 28.2613 220.368C28.2613 221.051 28.1546 221.696 27.9413 222.304C27.7333 222.912 27.4426 223.464 27.0693 223.96L28.4053 225.28L27.4533 226.232ZM22.7493 224.832C23.1866 224.832 23.6159 224.757 24.0373 224.608C24.4586 224.453 24.8346 224.232 25.1653 223.944L23.6773 222.464L24.6293 221.504L26.0693 222.96C26.3466 222.592 26.5573 222.187 26.7013 221.744C26.8453 221.296 26.9173 220.837 26.9173 220.368C26.9173 219.755 26.8079 219.179 26.5893 218.64C26.3759 218.101 26.0773 217.627 25.6933 217.216C25.3093 216.805 24.8639 216.485 24.3573 216.256C23.8559 216.021 23.3199 215.904 22.7493 215.904C22.1679 215.904 21.6239 216.024 21.1173 216.264C20.6159 216.499 20.1733 216.824 19.7893 217.24C19.4106 217.651 19.1119 218.125 18.8933 218.664C18.6799 219.197 18.5733 219.765 18.5733 220.368C18.5733 220.981 18.6826 221.557 18.9013 222.096C19.1199 222.635 19.4213 223.112 19.8053 223.528C20.1893 223.939 20.6319 224.259 21.1333 224.488C21.6399 224.717 22.1786 224.832 22.7493 224.832ZM29.282 218.976L29.778 214.8H31.122L30.178 218.976H29.282ZM34.9066 226.152C34.4746 226.136 34.0533 226.056 33.6426 225.912C33.2373 225.763 32.88 225.563 32.5706 225.312C32.2666 225.056 32.0453 224.763 31.9066 224.432L33.0586 223.936C33.1386 224.117 33.2826 224.288 33.4906 224.448C33.6986 224.608 33.9386 224.736 34.2106 224.832C34.4826 224.928 34.7573 224.976 35.0346 224.976C35.328 224.976 35.6026 224.931 35.8586 224.84C36.1146 224.749 36.3226 224.616 36.4826 224.44C36.648 224.259 36.7306 224.043 36.7306 223.792C36.7306 223.525 36.64 223.317 36.4586 223.168C36.2826 223.013 36.0586 222.893 35.7866 222.808C35.52 222.717 35.248 222.632 34.9706 222.552C34.4213 222.413 33.9306 222.248 33.4986 222.056C33.0666 221.859 32.7253 221.611 32.4746 221.312C32.2293 221.008 32.1066 220.621 32.1066 220.152C32.1066 219.656 32.2426 219.227 32.5146 218.864C32.792 218.501 33.1546 218.221 33.6026 218.024C34.0506 217.827 34.5306 217.728 35.0426 217.728C35.688 217.728 36.2773 217.867 36.8106 218.144C37.344 218.421 37.7413 218.797 38.0026 219.272L36.9226 219.904C36.832 219.712 36.6933 219.544 36.5066 219.4C36.32 219.251 36.1066 219.133 35.8666 219.048C35.6266 218.963 35.3813 218.917 35.1306 218.912C34.8213 218.901 34.5306 218.941 34.2586 219.032C33.992 219.123 33.776 219.261 33.6106 219.448C33.4506 219.629 33.3706 219.856 33.3706 220.128C33.3706 220.395 33.456 220.597 33.6266 220.736C33.8026 220.875 34.0293 220.987 34.3066 221.072C34.5893 221.152 34.896 221.245 35.2266 221.352C35.712 221.507 36.1653 221.685 36.5866 221.888C37.008 222.091 37.3466 222.344 37.6026 222.648C37.864 222.952 37.992 223.328 37.9866 223.776C37.9866 224.267 37.84 224.696 37.5466 225.064C37.2533 225.427 36.872 225.704 36.4026 225.896C35.9386 226.088 35.44 226.173 34.9066 226.152Z" fill="white"></path></svg>