<svg xmlns="http://www.w3.org/2000/svg" width="96" height="112" viewBox="0 0 96 112" fill="none"><path d="M6.912 18.234C6.06 18.234 5.259 18.066 4.509 17.73C3.759 17.388 3.099 16.92 2.529 16.326C1.965 15.726 1.521 15.03 1.197 14.238C0.879 13.446 0.72 12.6 0.72 11.7C0.72 10.8 0.879 9.954 1.197 9.162C1.521 8.37 1.965 7.677 2.529 7.083C3.099 6.483 3.759 6.015 4.509 5.679C5.259 5.337 6.06 5.166 6.912 5.166C7.932 5.166 8.871 5.403 9.729 5.877C10.587 6.351 11.298 6.981 11.862 7.767L10.521 8.487C10.101 7.935 9.57 7.497 8.928 7.173C8.292 6.843 7.62 6.678 6.912 6.678C6.258 6.678 5.646 6.81 5.076 7.074C4.512 7.338 4.017 7.701 3.591 8.163C3.165 8.625 2.832 9.159 2.592 9.765C2.352 10.371 2.232 11.016 2.232 11.7C2.232 12.39 2.352 13.038 2.592 13.644C2.838 14.25 3.174 14.784 3.6 15.246C4.032 15.708 4.53 16.071 5.094 16.335C5.664 16.593 6.27 16.722 6.912 16.722C7.644 16.722 8.322 16.557 8.946 16.227C9.576 15.891 10.101 15.453 10.521 14.913L11.862 15.642C11.298 16.428 10.587 17.058 9.729 17.532C8.871 18 7.932 18.234 6.912 18.234ZM17.0433 18.234C16.2153 18.234 15.4593 18.021 14.7753 17.595C14.0973 17.169 13.5543 16.599 13.1463 15.885C12.7443 15.165 12.5433 14.37 12.5433 13.5C12.5433 12.84 12.6603 12.225 12.8943 11.655C13.1283 11.079 13.4493 10.575 13.8573 10.143C14.2713 9.705 14.7513 9.363 15.2973 9.117C15.8433 8.871 16.4253 8.748 17.0433 8.748C17.8713 8.748 18.6243 8.961 19.3023 9.387C19.9863 9.813 20.5293 10.386 20.9313 11.106C21.3393 11.826 21.5433 12.624 21.5433 13.5C21.5433 14.154 21.4263 14.766 21.1923 15.336C20.9583 15.906 20.6343 16.41 20.2203 16.848C19.8123 17.28 19.3353 17.619 18.7893 17.865C18.2493 18.111 17.6673 18.234 17.0433 18.234ZM17.0433 16.722C17.6073 16.722 18.1143 16.575 18.5643 16.281C19.0203 15.981 19.3773 15.588 19.6353 15.102C19.8993 14.61 20.0313 14.076 20.0313 13.5C20.0313 12.912 19.8963 12.372 19.6263 11.88C19.3623 11.388 19.0053 10.995 18.5553 10.701C18.1053 10.407 17.6013 10.26 17.0433 10.26C16.4793 10.26 15.9723 10.41 15.5223 10.71C15.0723 11.004 14.7153 11.397 14.4513 11.889C14.1873 12.381 14.0553 12.918 14.0553 13.5C14.0553 14.1 14.1903 14.646 14.4603 15.138C14.7303 15.624 15.0933 16.011 15.5493 16.299C16.0053 16.581 16.5033 16.722 17.0433 16.722ZM30.8805 12.402V18H29.3685V12.735C29.3685 12.279 29.2575 11.865 29.0355 11.493C28.8135 11.121 28.5165 10.827 28.1445 10.611C27.7725 10.389 27.3585 10.278 26.9025 10.278C26.4525 10.278 26.0385 10.389 25.6605 10.611C25.2885 10.827 24.9915 11.121 24.7695 11.493C24.5475 11.865 24.4365 12.279 24.4365 12.735V18H22.9245V9H24.4365V10.125C24.7545 9.705 25.1565 9.372 25.6425 9.126C26.1285 8.874 26.6565 8.748 27.2265 8.748C27.8985 8.748 28.5105 8.913 29.0625 9.243C29.6205 9.567 30.0615 10.005 30.3855 10.557C30.7155 11.109 30.8805 11.724 30.8805 12.402ZM37.2344 10.512H35.1914L35.1824 18H33.6704L33.6794 10.512H32.1314V9H33.6794L33.6704 6.174H35.1824L35.1914 9H37.2344V10.512ZM45.7473 9H47.2593V18H45.7473L45.6843 16.479C45.4023 17.001 45.0123 17.424 44.5143 17.748C44.0223 18.072 43.4343 18.234 42.7503 18.234C42.0903 18.234 41.4723 18.111 40.8963 17.865C40.3203 17.613 39.8103 17.268 39.3663 16.83C38.9283 16.386 38.5863 15.876 38.3403 15.3C38.0943 14.724 37.9713 14.103 37.9713 13.437C37.9713 12.795 38.0913 12.189 38.3313 11.619C38.5713 11.049 38.9043 10.551 39.3303 10.125C39.7623 9.693 40.2603 9.357 40.8243 9.117C41.3883 8.871 41.9943 8.748 42.6423 8.748C43.3503 8.748 43.9713 8.916 44.5053 9.252C45.0393 9.582 45.4713 10.011 45.8013 10.539L45.7473 9ZM42.7233 16.767C43.3173 16.767 43.8303 16.623 44.2623 16.335C44.7003 16.041 45.0363 15.645 45.2703 15.147C45.5103 14.649 45.6303 14.1 45.6303 13.5C45.6303 12.888 45.5103 12.336 45.2703 11.844C45.0303 11.346 44.6913 10.953 44.2533 10.665C43.8213 10.371 43.3113 10.224 42.7233 10.224C42.1293 10.224 41.5893 10.371 41.1033 10.665C40.6173 10.959 40.2303 11.355 39.9423 11.853C39.6603 12.345 39.5193 12.894 39.5193 13.5C39.5193 14.106 39.6663 14.658 39.9603 15.156C40.2543 15.648 40.6443 16.041 41.1303 16.335C41.6163 16.623 42.1473 16.767 42.7233 16.767ZM54.9754 15.624L56.3254 16.353C55.9174 16.923 55.3984 17.379 54.7684 17.721C54.1444 18.063 53.4664 18.234 52.7344 18.234C51.9064 18.234 51.1504 18.021 50.4664 17.595C49.7884 17.169 49.2454 16.599 48.8374 15.885C48.4354 15.165 48.2344 14.37 48.2344 13.5C48.2344 12.84 48.3514 12.225 48.5854 11.655C48.8194 11.079 49.1404 10.575 49.5484 10.143C49.9624 9.705 50.4424 9.363 50.9884 9.117C51.5344 8.871 52.1164 8.748 52.7344 8.748C53.4664 8.748 54.1444 8.919 54.7684 9.261C55.3984 9.603 55.9174 10.062 56.3254 10.638L54.9754 11.367C54.6874 11.013 54.3454 10.74 53.9494 10.548C53.5534 10.356 53.1484 10.26 52.7344 10.26C52.1764 10.26 51.6694 10.41 51.2134 10.71C50.7634 11.004 50.4064 11.397 50.1424 11.889C49.8784 12.381 49.7464 12.918 49.7464 13.5C49.7464 14.082 49.8784 14.619 50.1424 15.111C50.4124 15.597 50.7724 15.987 51.2224 16.281C51.6784 16.575 52.1824 16.722 52.7344 16.722C53.1784 16.722 53.5954 16.62 53.9854 16.416C54.3754 16.212 54.7054 15.948 54.9754 15.624ZM62.5042 10.512H60.4612L60.4522 18H58.9402L58.9492 10.512H57.4012V9H58.9492L58.9402 6.174H60.4522L60.4612 9H62.5042V10.512ZM73.1578 18.234C72.1498 18.234 71.2738 17.988 70.5298 17.496C69.7918 17.004 69.2218 16.344 68.8198 15.516C68.4238 14.682 68.2258 13.758 68.2258 12.744V5.4H69.7378V12.744C69.7378 13.464 69.8698 14.127 70.1338 14.733C70.4038 15.339 70.7908 15.822 71.2948 16.182C71.8048 16.542 72.4258 16.722 73.1578 16.722C73.9018 16.722 74.5258 16.542 75.0298 16.182C75.5338 15.816 75.9148 15.333 76.1728 14.733C76.4368 14.127 76.5688 13.464 76.5688 12.744V5.4H78.0808V12.744C78.0808 13.506 77.9668 14.22 77.7388 14.886C77.5108 15.546 77.1808 16.128 76.7488 16.632C76.3228 17.136 75.8068 17.529 75.2008 17.811C74.5948 18.093 73.9138 18.234 73.1578 18.234ZM82.8862 18.171C82.4002 18.153 81.9262 18.063 81.4642 17.901C81.0082 17.733 80.6062 17.508 80.2582 17.226C79.9162 16.938 79.6672 16.608 79.5112 16.236L80.8072 15.678C80.8972 15.882 81.0592 16.074 81.2932 16.254C81.5272 16.434 81.7972 16.578 82.1032 16.686C82.4092 16.794 82.7182 16.848 83.0302 16.848C83.3602 16.848 83.6692 16.797 83.9572 16.695C84.2452 16.593 84.4792 16.443 84.6592 16.245C84.8452 16.041 84.9382 15.798 84.9382 15.516C84.9382 15.216 84.8362 14.982 84.6322 14.814C84.4342 14.64 84.1822 14.505 83.8762 14.409C83.5762 14.307 83.2702 14.211 82.9582 14.121C82.3402 13.965 81.7882 13.779 81.3022 13.563C80.8162 13.341 80.4322 13.062 80.1502 12.726C79.8742 12.384 79.7362 11.949 79.7362 11.421C79.7362 10.863 79.8892 10.38 80.1952 9.972C80.5072 9.564 80.9152 9.249 81.4192 9.027C81.9232 8.805 82.4632 8.694 83.0392 8.694C83.7652 8.694 84.4282 8.85 85.0282 9.162C85.6282 9.474 86.0752 9.897 86.3692 10.431L85.1542 11.142C85.0522 10.926 84.8962 10.737 84.6862 10.575C84.4762 10.407 84.2362 10.275 83.9662 10.179C83.6962 10.083 83.4202 10.032 83.1382 10.026C82.7902 10.014 82.4632 10.059 82.1572 10.161C81.8572 10.263 81.6142 10.419 81.4282 10.629C81.2482 10.833 81.1582 11.088 81.1582 11.394C81.1582 11.694 81.2542 11.922 81.4462 12.078C81.6442 12.234 81.8992 12.36 82.2112 12.456C82.5292 12.546 82.8742 12.651 83.2462 12.771C83.7922 12.945 84.3022 13.146 84.7762 13.374C85.2502 13.602 85.6312 13.887 85.9192 14.229C86.2132 14.571 86.3572 14.994 86.3512 15.498C86.3512 16.05 86.1862 16.533 85.8562 16.947C85.5262 17.355 85.0972 17.667 84.5692 17.883C84.0472 18.099 83.4862 18.195 82.8862 18.171Z" fill="#999999"></path><path d="M6.144 66.208C5.38667 66.208 4.67467 66.0587 4.008 65.76C3.34133 65.456 2.75467 65.04 2.248 64.512C1.74667 63.9787 1.352 63.36 1.064 62.656C0.781333 61.952 0.64 61.2 0.64 60.4C0.64 59.6 0.781333 58.848 1.064 58.144C1.352 57.44 1.74667 56.824 2.248 56.296C2.75467 55.7627 3.34133 55.3467 4.008 55.048C4.67467 54.744 5.38667 54.592 6.144 54.592C7.05067 54.592 7.88533 54.8027 8.648 55.224C9.41067 55.6453 10.0427 56.2053 10.544 56.904L9.352 57.544C8.97867 57.0533 8.50667 56.664 7.936 56.376C7.37067 56.0827 6.77333 55.936 6.144 55.936C5.56267 55.936 5.01867 56.0533 4.512 56.288C4.01067 56.5227 3.57067 56.8453 3.192 57.256C2.81333 57.6667 2.51733 58.1413 2.304 58.68C2.09067 59.2187 1.984 59.792 1.984 60.4C1.984 61.0133 2.09067 61.5893 2.304 62.128C2.52267 62.6667 2.82133 63.1413 3.2 63.552C3.584 63.9627 4.02667 64.2853 4.528 64.52C5.03467 64.7493 5.57333 64.864 6.144 64.864C6.79467 64.864 7.39733 64.7173 7.952 64.424C8.512 64.1253 8.97867 63.736 9.352 63.256L10.544 63.904C10.0427 64.6027 9.41067 65.1627 8.648 65.584C7.88533 66 7.05067 66.208 6.144 66.208ZM15.1496 66.208C14.4136 66.208 13.7416 66.0187 13.1336 65.64C12.531 65.2613 12.0483 64.7547 11.6856 64.12C11.3283 63.48 11.1496 62.7733 11.1496 62C11.1496 61.4133 11.2536 60.8667 11.4616 60.36C11.6696 59.848 11.955 59.4 12.3176 59.016C12.6856 58.6267 13.1123 58.3227 13.5976 58.104C14.083 57.8853 14.6003 57.776 15.1496 57.776C15.8856 57.776 16.555 57.9653 17.1576 58.344C17.7656 58.7227 18.2483 59.232 18.6056 59.872C18.9683 60.512 19.1496 61.2213 19.1496 62C19.1496 62.5813 19.0456 63.1253 18.8376 63.632C18.6296 64.1387 18.3416 64.5867 17.9736 64.976C17.611 65.36 17.187 65.6613 16.7016 65.88C16.2216 66.0987 15.7043 66.208 15.1496 66.208ZM15.1496 64.864C15.651 64.864 16.1016 64.7333 16.5016 64.472C16.907 64.2053 17.2243 63.856 17.4536 63.424C17.6883 62.9867 17.8056 62.512 17.8056 62C17.8056 61.4773 17.6856 60.9973 17.4456 60.56C17.211 60.1227 16.8936 59.7733 16.4936 59.512C16.0936 59.2507 15.6456 59.12 15.1496 59.12C14.6483 59.12 14.1976 59.2533 13.7976 59.52C13.3976 59.7813 13.0803 60.1307 12.8456 60.568C12.611 61.0053 12.4936 61.4827 12.4936 62C12.4936 62.5333 12.6136 63.0187 12.8536 63.456C13.0936 63.888 13.4163 64.232 13.8216 64.488C14.227 64.7387 14.6696 64.864 15.1496 64.864ZM27.4494 61.024V66H26.1054V61.32C26.1054 60.9147 26.0067 60.5467 25.8094 60.216C25.612 59.8853 25.348 59.624 25.0174 59.432C24.6867 59.2347 24.3187 59.136 23.9134 59.136C23.5134 59.136 23.1454 59.2347 22.8094 59.432C22.4787 59.624 22.2147 59.8853 22.0174 60.216C21.82 60.5467 21.7214 60.9147 21.7214 61.32V66H20.3774V58H21.7214V59C22.004 58.6267 22.3614 58.3307 22.7934 58.112C23.2254 57.888 23.6947 57.776 24.2014 57.776C24.7987 57.776 25.3427 57.9227 25.8334 58.216C26.3294 58.504 26.7214 58.8933 27.0094 59.384C27.3027 59.8747 27.4494 60.4213 27.4494 61.024ZM33.0972 59.344H31.2812L31.2733 66H29.9293L29.9373 59.344H28.5612V58H29.9373L29.9293 55.488H31.2733L31.2812 58H33.0972V59.344ZM40.6643 58H42.0083V66H40.6643L40.6083 64.648C40.3576 65.112 40.0109 65.488 39.5683 65.776C39.1309 66.064 38.6083 66.208 38.0003 66.208C37.4136 66.208 36.8643 66.0987 36.3523 65.88C35.8403 65.656 35.3869 65.3493 34.9923 64.96C34.6029 64.5653 34.2989 64.112 34.0803 63.6C33.8616 63.088 33.7523 62.536 33.7523 61.944C33.7523 61.3733 33.8589 60.8347 34.0723 60.328C34.2856 59.8213 34.5816 59.3787 34.9603 59C35.3443 58.616 35.7869 58.3173 36.2883 58.104C36.7896 57.8853 37.3283 57.776 37.9043 57.776C38.5336 57.776 39.0856 57.9253 39.5603 58.224C40.0349 58.5173 40.4189 58.8987 40.7123 59.368L40.6643 58ZM37.9763 64.904C38.5043 64.904 38.9603 64.776 39.3443 64.52C39.7336 64.2587 40.0323 63.9067 40.2403 63.464C40.4536 63.0213 40.5603 62.5333 40.5603 62C40.5603 61.456 40.4536 60.9653 40.2403 60.528C40.0269 60.0853 39.7256 59.736 39.3363 59.48C38.9523 59.2187 38.4989 59.088 37.9763 59.088C37.4483 59.088 36.9683 59.2187 36.5363 59.48C36.1043 59.7413 35.7603 60.0933 35.5043 60.536C35.2536 60.9733 35.1283 61.4613 35.1283 62C35.1283 62.5387 35.2589 63.0293 35.5203 63.472C35.7816 63.9093 36.1283 64.2587 36.5603 64.52C36.9923 64.776 37.4643 64.904 37.9763 64.904ZM48.867 63.888L50.067 64.536C49.7043 65.0427 49.243 65.448 48.683 65.752C48.1283 66.056 47.5257 66.208 46.875 66.208C46.139 66.208 45.467 66.0187 44.859 65.64C44.2563 65.2613 43.7737 64.7547 43.411 64.12C43.0537 63.48 42.875 62.7733 42.875 62C42.875 61.4133 42.979 60.8667 43.187 60.36C43.395 59.848 43.6803 59.4 44.043 59.016C44.411 58.6267 44.8377 58.3227 45.323 58.104C45.8083 57.8853 46.3257 57.776 46.875 57.776C47.5257 57.776 48.1283 57.928 48.683 58.232C49.243 58.536 49.7043 58.944 50.067 59.456L48.867 60.104C48.611 59.7893 48.307 59.5467 47.955 59.376C47.603 59.2053 47.243 59.12 46.875 59.12C46.379 59.12 45.9283 59.2533 45.523 59.52C45.123 59.7813 44.8057 60.1307 44.571 60.568C44.3363 61.0053 44.219 61.4827 44.219 62C44.219 62.5173 44.3363 62.9947 44.571 63.432C44.811 63.864 45.131 64.2107 45.531 64.472C45.9363 64.7333 46.3843 64.864 46.875 64.864C47.2697 64.864 47.6403 64.7733 47.987 64.592C48.3337 64.4107 48.627 64.176 48.867 63.888ZM55.5592 59.344H53.7432L53.7352 66H52.3912L52.3992 59.344H51.0232V58H52.3992L52.3912 55.488H53.7352L53.7432 58H55.5592V59.344ZM60.6451 66V54.8H67.2131V56.144H61.9891V59.328H66.4451V60.672H61.9891V66H60.6451ZM71.0066 66.208C70.2706 66.208 69.5986 66.0187 68.9906 65.64C68.388 65.2613 67.9053 64.7547 67.5426 64.12C67.1853 63.48 67.0066 62.7733 67.0066 62C67.0066 61.4133 67.1106 60.8667 67.3186 60.36C67.5266 59.848 67.812 59.4 68.1746 59.016C68.5426 58.6267 68.9693 58.3227 69.4546 58.104C69.94 57.8853 70.4573 57.776 71.0066 57.776C71.7426 57.776 72.412 57.9653 73.0146 58.344C73.6226 58.7227 74.1053 59.232 74.4626 59.872C74.8253 60.512 75.0066 61.2213 75.0066 62C75.0066 62.5813 74.9026 63.1253 74.6946 63.632C74.4866 64.1387 74.1986 64.5867 73.8306 64.976C73.468 65.36 73.044 65.6613 72.5586 65.88C72.0786 66.0987 71.5613 66.208 71.0066 66.208ZM71.0066 64.864C71.508 64.864 71.9586 64.7333 72.3586 64.472C72.764 64.2053 73.0813 63.856 73.3106 63.424C73.5453 62.9867 73.6626 62.512 73.6626 62C73.6626 61.4773 73.5426 60.9973 73.3026 60.56C73.068 60.1227 72.7506 59.7733 72.3506 59.512C71.9506 59.2507 71.5026 59.12 71.0066 59.12C70.5053 59.12 70.0546 59.2533 69.6546 59.52C69.2546 59.7813 68.9373 60.1307 68.7026 60.568C68.468 61.0053 68.3506 61.4827 68.3506 62C68.3506 62.5333 68.4706 63.0187 68.7106 63.456C68.9506 63.888 69.2733 64.232 69.6786 64.488C70.084 64.7387 70.5266 64.864 71.0066 64.864ZM76.2344 66V58H77.5784V59C77.861 58.6267 78.2184 58.3307 78.6504 58.112C79.0824 57.888 79.5517 57.776 80.0584 57.776C80.3677 57.776 80.6664 57.816 80.9544 57.896L80.4104 59.24C80.1917 59.1707 79.9784 59.136 79.7704 59.136C79.3704 59.136 79.0024 59.2347 78.6664 59.432C78.3357 59.624 78.0717 59.8853 77.8744 60.216C77.677 60.5467 77.5784 60.9147 77.5784 61.32V66H76.2344ZM81.8728 66V58H83.2168V59C83.4994 58.6267 83.8541 58.3307 84.2808 58.112C84.7128 57.888 85.1821 57.776 85.6888 57.776C86.2808 57.776 86.8221 57.92 87.3128 58.208C87.8034 58.496 88.1901 58.8773 88.4728 59.352C88.7554 58.8773 89.1394 58.496 89.6248 58.208C90.1154 57.92 90.6541 57.776 91.2408 57.776C91.8434 57.776 92.3901 57.9227 92.8808 58.216C93.3714 58.504 93.7608 58.8933 94.0488 59.384C94.3421 59.8747 94.4888 60.4213 94.4888 61.024V66H93.1448V61.344C93.1448 60.9493 93.0488 60.584 92.8568 60.248C92.6648 59.912 92.4061 59.6427 92.0808 59.44C91.7554 59.2373 91.3954 59.136 91.0008 59.136C90.6061 59.136 90.2461 59.232 89.9208 59.424C89.5954 59.6107 89.3368 59.872 89.1448 60.208C88.9528 60.5387 88.8568 60.9173 88.8568 61.344V66H87.5128V61.344C87.5128 60.9173 87.4168 60.5387 87.2248 60.208C87.0328 59.872 86.7714 59.6107 86.4408 59.424C86.1154 59.232 85.7554 59.136 85.3608 59.136C84.9714 59.136 84.6114 59.2373 84.2808 59.44C83.9554 59.6427 83.6968 59.912 83.5048 60.248C83.3128 60.584 83.2168 60.9493 83.2168 61.344V66H81.8728Z" fill="white"></path><path d="M6.16 106.208C5.40267 106.208 4.69067 106.059 4.024 105.76C3.35733 105.456 2.77067 105.037 2.264 104.504C1.75733 103.971 1.36 103.355 1.072 102.656C0.784 101.952 0.64 101.2 0.64 100.4C0.64 99.6 0.784 98.8507 1.072 98.152C1.36 97.448 1.75733 96.8293 2.264 96.296C2.77067 95.7627 3.35733 95.3467 4.024 95.048C4.69067 94.744 5.40267 94.592 6.16 94.592C6.92267 94.592 7.63733 94.744 8.304 95.048C8.97067 95.3467 9.55733 95.7627 10.064 96.296C10.5707 96.8293 10.9653 97.448 11.248 98.152C11.536 98.8507 11.68 99.6 11.68 100.4C11.68 101.2 11.536 101.952 11.248 102.656C10.9653 103.355 10.5707 103.971 10.064 104.504C9.55733 105.037 8.97067 105.456 8.304 105.76C7.63733 106.059 6.92267 106.208 6.16 106.208ZM6.16 104.864C6.74133 104.864 7.28267 104.747 7.784 104.512C8.29067 104.277 8.73333 103.955 9.112 103.544C9.496 103.128 9.79467 102.653 10.008 102.12C10.2267 101.581 10.336 101.008 10.336 100.4C10.336 99.792 10.2267 99.2187 10.008 98.68C9.78933 98.136 9.488 97.6613 9.104 97.256C8.72533 96.8453 8.28267 96.5227 7.776 96.288C7.27467 96.0533 6.736 95.936 6.16 95.936C5.57867 95.936 5.03467 96.0533 4.528 96.288C4.02667 96.5227 3.584 96.848 3.2 97.264C2.82133 97.6747 2.52267 98.1493 2.304 98.688C2.09067 99.2213 1.984 99.792 1.984 100.4C1.984 101.013 2.09333 101.589 2.312 102.128C2.53067 102.667 2.82933 103.141 3.208 103.552C3.592 103.963 4.03467 104.285 4.536 104.52C5.04267 104.749 5.584 104.864 6.16 104.864ZM12.7159 102.96V98H14.0599V102.664C14.0599 103.069 14.1585 103.437 14.3559 103.768C14.5532 104.099 14.8172 104.363 15.1479 104.56C15.4839 104.752 15.8519 104.848 16.2519 104.848C16.6572 104.848 17.0225 104.752 17.3479 104.56C17.6785 104.363 17.9425 104.099 18.1399 103.768C18.3372 103.437 18.4359 103.069 18.4359 102.664V98H19.7799L19.7879 106H18.4439L18.4359 104.984C18.1532 105.357 17.7959 105.656 17.3639 105.88C16.9319 106.099 16.4652 106.208 15.9639 106.208C15.3665 106.208 14.8199 106.064 14.3239 105.776C13.8332 105.483 13.4412 105.091 13.1479 104.6C12.8599 104.109 12.7159 103.563 12.7159 102.96ZM21.2993 106V98H22.6433V99C22.9259 98.6267 23.2833 98.3307 23.7153 98.112C24.1473 97.888 24.6166 97.776 25.1233 97.776C25.4326 97.776 25.7313 97.816 26.0193 97.896L25.4753 99.24C25.2566 99.1707 25.0433 99.136 24.8353 99.136C24.4353 99.136 24.0673 99.2347 23.7313 99.432C23.4006 99.624 23.1366 99.8853 22.9393 100.216C22.7419 100.547 22.6433 100.915 22.6433 101.32V106H21.2993ZM35.9947 106.208C35.2374 106.208 34.5254 106.059 33.8587 105.76C33.1921 105.456 32.6054 105.037 32.0987 104.504C31.5921 103.971 31.1947 103.355 30.9067 102.656C30.6187 101.952 30.4747 101.2 30.4747 100.4C30.4747 99.6 30.6187 98.8507 30.9067 98.152C31.1947 97.448 31.5921 96.8293 32.0987 96.296C32.6054 95.7627 33.1921 95.3467 33.8587 95.048C34.5254 94.744 35.2374 94.592 35.9947 94.592C36.7574 94.592 37.4721 94.744 38.1388 95.048C38.8054 95.3467 39.3921 95.7627 39.8987 96.296C40.4054 96.8293 40.8001 97.448 41.0827 98.152C41.3707 98.8507 41.5147 99.6 41.5147 100.4C41.5147 101.2 41.3707 101.952 41.0827 102.656C40.8001 103.355 40.4054 103.971 39.8987 104.504C39.3921 105.037 38.8054 105.456 38.1388 105.76C37.4721 106.059 36.7574 106.208 35.9947 106.208ZM35.9947 104.864C36.5761 104.864 37.1174 104.747 37.6187 104.512C38.1254 104.277 38.5681 103.955 38.9467 103.544C39.3307 103.128 39.6294 102.653 39.8427 102.12C40.0614 101.581 40.1707 101.008 40.1707 100.4C40.1707 99.792 40.0614 99.2187 39.8427 98.68C39.6241 98.136 39.3227 97.6613 38.9387 97.256C38.5601 96.8453 38.1174 96.5227 37.6107 96.288C37.1094 96.0533 36.5707 95.936 35.9947 95.936C35.4134 95.936 34.8694 96.0533 34.3627 96.288C33.8614 96.5227 33.4187 96.848 33.0347 97.264C32.6561 97.6747 32.3574 98.1493 32.1387 98.688C31.9254 99.2213 31.8187 99.792 31.8187 100.4C31.8187 101.013 31.9281 101.589 32.1467 102.128C32.3654 102.667 32.6641 103.141 33.0427 103.552C33.4267 103.963 33.8694 104.285 34.3707 104.52C34.8774 104.749 35.4187 104.864 35.9947 104.864ZM44.8273 96.024V98H47.1713V99.344H44.8273V106H43.4833V99.344H42.4513V98H43.4833V96.024C43.4833 95.6133 43.5819 95.2427 43.7793 94.912C43.9819 94.576 44.2513 94.3093 44.5873 94.112C44.9286 93.9093 45.3019 93.808 45.7073 93.808C46.0059 93.808 46.2966 93.8693 46.5793 93.992C46.8619 94.1093 47.1126 94.2853 47.3313 94.52L46.3713 95.472C46.2966 95.3707 46.1979 95.2933 46.0753 95.24C45.9579 95.1813 45.8353 95.152 45.7073 95.152C45.4673 95.152 45.2593 95.2373 45.0833 95.408C44.9126 95.5787 44.8273 95.784 44.8273 96.024ZM50.3719 96.024V98H52.7159V99.344H50.3719V106H49.0279V99.344H47.9959V98H49.0279V96.024C49.0279 95.6133 49.1265 95.2427 49.3239 94.912C49.5265 94.576 49.7959 94.3093 50.1319 94.112C50.4732 93.9093 50.8465 93.808 51.2519 93.808C51.5505 93.808 51.8412 93.8693 52.1239 93.992C52.4065 94.1093 52.6572 94.2853 52.8759 94.52L51.9159 95.472C51.8412 95.3707 51.7425 95.2933 51.6199 95.24C51.5025 95.1813 51.3799 95.152 51.2519 95.152C51.0119 95.152 50.8039 95.2373 50.6279 95.408C50.4572 95.5787 50.3719 95.784 50.3719 96.024ZM53.8505 98H55.1945V106H53.8505V98ZM54.5385 96.696C54.3252 96.696 54.1465 96.6267 54.0025 96.488C53.8585 96.3493 53.7865 96.176 53.7865 95.968C53.7865 95.76 53.8585 95.5867 54.0025 95.448C54.1465 95.3093 54.3225 95.24 54.5305 95.24C54.7385 95.24 54.9145 95.3093 55.0585 95.448C55.2025 95.5867 55.2745 95.76 55.2745 95.968C55.2745 96.176 55.2025 96.3493 55.0585 96.488C54.9198 96.6267 54.7465 96.696 54.5385 96.696ZM62.4227 103.888L63.6227 104.536C63.2601 105.043 62.7987 105.448 62.2387 105.752C61.6841 106.056 61.0814 106.208 60.4307 106.208C59.6947 106.208 59.0227 106.019 58.4147 105.64C57.8121 105.261 57.3294 104.755 56.9667 104.12C56.6094 103.48 56.4307 102.773 56.4307 102C56.4307 101.413 56.5347 100.867 56.7427 100.36C56.9507 99.848 57.2361 99.4 57.5987 99.016C57.9667 98.6267 58.3934 98.3227 58.8787 98.104C59.3641 97.8853 59.8814 97.776 60.4307 97.776C61.0814 97.776 61.6841 97.928 62.2387 98.232C62.7987 98.536 63.2601 98.944 63.6227 99.456L62.4227 100.104C62.1667 99.7893 61.8627 99.5467 61.5107 99.376C61.1587 99.2053 60.7987 99.12 60.4307 99.12C59.9347 99.12 59.4841 99.2533 59.0787 99.52C58.6787 99.7813 58.3614 100.131 58.1267 100.568C57.8921 101.005 57.7747 101.483 57.7747 102C57.7747 102.517 57.8921 102.995 58.1267 103.432C58.3667 103.864 58.6867 104.211 59.0867 104.472C59.4921 104.733 59.9401 104.864 60.4307 104.864C60.8254 104.864 61.1961 104.773 61.5427 104.592C61.8894 104.411 62.1827 104.176 62.4227 103.888ZM68.3504 106.208C67.6144 106.208 66.9424 106.019 66.3344 105.64C65.7317 105.261 65.249 104.755 64.8864 104.12C64.529 103.48 64.3504 102.773 64.3504 102C64.3504 101.413 64.4544 100.867 64.6624 100.36C64.8704 99.848 65.1557 99.4 65.5184 99.016C65.8864 98.6267 66.313 98.3227 66.7984 98.104C67.2837 97.8853 67.801 97.776 68.3504 97.776C68.953 97.776 69.505 97.8987 70.0064 98.144C70.513 98.384 70.945 98.72 71.3024 99.152C71.665 99.584 71.9344 100.085 72.1104 100.656C72.2917 101.227 72.3584 101.837 72.3104 102.488H65.7824C65.8464 102.941 65.9957 103.347 66.2304 103.704C66.465 104.056 66.7637 104.336 67.1264 104.544C67.4944 104.752 67.9024 104.859 68.3504 104.864C68.8304 104.864 69.265 104.741 69.6544 104.496C70.0437 104.245 70.3584 103.904 70.5984 103.472L71.9664 103.792C71.6464 104.501 71.1637 105.083 70.5184 105.536C69.873 105.984 69.1504 106.208 68.3504 106.208ZM65.7424 101.432H70.9584C70.9157 100.984 70.7717 100.576 70.5264 100.208C70.281 99.8347 69.969 99.536 69.5904 99.312C69.2117 99.088 68.7984 98.976 68.3504 98.976C67.9024 98.976 67.4917 99.0853 67.1184 99.304C66.745 99.5227 66.4357 99.8187 66.1904 100.192C65.9504 100.56 65.801 100.973 65.7424 101.432ZM76.0338 106.152C75.6018 106.136 75.1804 106.056 74.7698 105.912C74.3644 105.763 74.0071 105.563 73.6978 105.312C73.3938 105.056 73.1724 104.763 73.0338 104.432L74.1858 103.936C74.2658 104.117 74.4098 104.288 74.6178 104.448C74.8258 104.608 75.0658 104.736 75.3378 104.832C75.6098 104.928 75.8844 104.976 76.1618 104.976C76.4551 104.976 76.7298 104.931 76.9858 104.84C77.2418 104.749 77.4498 104.616 77.6098 104.44C77.7751 104.259 77.8578 104.043 77.8578 103.792C77.8578 103.525 77.7671 103.317 77.5858 103.168C77.4098 103.013 77.1858 102.893 76.9138 102.808C76.6471 102.717 76.3751 102.632 76.0978 102.552C75.5484 102.413 75.0578 102.248 74.6258 102.056C74.1938 101.859 73.8524 101.611 73.6018 101.312C73.3564 101.008 73.2338 100.621 73.2338 100.152C73.2338 99.656 73.3698 99.2267 73.6418 98.864C73.9191 98.5013 74.2818 98.2213 74.7298 98.024C75.1778 97.8267 75.6578 97.728 76.1698 97.728C76.8151 97.728 77.4044 97.8667 77.9378 98.144C78.4711 98.4213 78.8684 98.7973 79.1298 99.272L78.0498 99.904C77.9591 99.712 77.8204 99.544 77.6338 99.4C77.4471 99.2507 77.2338 99.1333 76.9938 99.048C76.7538 98.9627 76.5084 98.9173 76.2578 98.912C75.9484 98.9013 75.6578 98.9413 75.3858 99.032C75.1191 99.1227 74.9031 99.2613 74.7378 99.448C74.5778 99.6293 74.4978 99.856 74.4978 100.128C74.4978 100.395 74.5831 100.597 74.7538 100.736C74.9298 100.875 75.1564 100.987 75.4338 101.072C75.7164 101.152 76.0231 101.245 76.3538 101.352C76.8391 101.507 77.2924 101.685 77.7138 101.888C78.1351 102.091 78.4738 102.344 78.7298 102.648C78.9911 102.952 79.1191 103.328 79.1138 103.776C79.1138 104.267 78.9671 104.696 78.6738 105.064C78.3804 105.427 77.9991 105.704 77.5298 105.896C77.0658 106.088 76.5671 106.173 76.0338 106.152Z" fill="white"></path></svg>