<svg xmlns="http://www.w3.org/2000/svg" width="463" height="66" viewBox="0 0 463 66" fill="none"><g clip-path="url(#clip0_166_1100)"><path d="M4.623 5.2H6.044L9.607 15H8.361L7.633 12.998H3.034L2.313 15H1.06L4.623 5.2ZM3.468 11.822H7.199L5.33 6.705L3.468 11.822ZM15.9438 4.5H17.1198V15H15.9438V13.81C15.7058 14.2207 15.3861 14.552 14.9848 14.804C14.5834 15.056 14.1121 15.182 13.5708 15.182C13.0621 15.182 12.5861 15.0863 12.1428 14.895C11.6994 14.7037 11.3074 14.44 10.9668 14.104C10.6308 13.7633 10.3671 13.3713 10.1758 12.928C9.98442 12.4847 9.88875 12.0087 9.88875 11.5C9.88875 10.9913 9.98442 10.5153 10.1758 10.072C10.3671 9.624 10.6308 9.232 10.9668 8.896C11.3074 8.55533 11.6994 8.28933 12.1428 8.098C12.5861 7.90667 13.0621 7.811 13.5708 7.811C14.1121 7.811 14.5834 7.937 14.9848 8.189C15.3861 8.441 15.7058 8.77233 15.9438 9.183V4.5ZM13.5847 14.041C14.0468 14.041 14.4458 13.929 14.7818 13.705C15.1224 13.4763 15.3838 13.1683 15.5658 12.781C15.7524 12.3937 15.8458 11.9667 15.8458 11.5C15.8458 11.024 15.7524 10.5947 15.5658 10.212C15.3791 9.82467 15.1154 9.519 14.7748 9.295C14.4388 9.06633 14.0421 8.952 13.5847 8.952C13.1228 8.952 12.7028 9.06633 12.3248 9.295C11.9514 9.52367 11.6528 9.83167 11.4288 10.219C11.2048 10.6017 11.0928 11.0287 11.0928 11.5C11.0928 11.9713 11.2071 12.4007 11.4358 12.788C11.6644 13.1707 11.9678 13.4763 12.3458 13.705C12.7238 13.929 13.1368 14.041 13.5847 14.041ZM24.3656 4.5H25.5416V15H24.3656V13.81C24.1276 14.2207 23.808 14.552 23.4066 14.804C23.0053 15.056 22.534 15.182 21.9926 15.182C21.484 15.182 21.008 15.0863 20.5646 14.895C20.1213 14.7037 19.7293 14.44 19.3886 14.104C19.0526 13.7633 18.789 13.3713 18.5976 12.928C18.4063 12.4847 18.3106 12.0087 18.3106 11.5C18.3106 10.9913 18.4063 10.5153 18.5976 10.072C18.789 9.624 19.0526 9.232 19.3886 8.896C19.7293 8.55533 20.1213 8.28933 20.5646 8.098C21.008 7.90667 21.484 7.811 21.9926 7.811C22.534 7.811 23.0053 7.937 23.4066 8.189C23.808 8.441 24.1276 8.77233 24.3656 9.183V4.5ZM22.0066 14.041C22.4686 14.041 22.8676 13.929 23.2036 13.705C23.5443 13.4763 23.8056 13.1683 23.9876 12.781C24.1743 12.3937 24.2676 11.9667 24.2676 11.5C24.2676 11.024 24.1743 10.5947 23.9876 10.212C23.801 9.82467 23.5373 9.519 23.1966 9.295C22.8606 9.06633 22.464 8.952 22.0066 8.952C21.5446 8.952 21.1246 9.06633 20.7466 9.295C20.3733 9.52367 20.0746 9.83167 19.8506 10.219C19.6266 10.6017 19.5146 11.0287 19.5146 11.5C19.5146 11.9713 19.629 12.4007 19.8576 12.788C20.0863 13.1707 20.3896 13.4763 20.7676 13.705C21.1456 13.929 21.5586 14.041 22.0066 14.041ZM27.2209 8H28.3969V15H27.2209V8ZM27.8229 6.859C27.6362 6.859 27.4799 6.79833 27.3539 6.677C27.2279 6.55567 27.1649 6.404 27.1649 6.222C27.1649 6.04 27.2279 5.88833 27.3539 5.767C27.4799 5.64567 27.6339 5.585 27.8159 5.585C27.9979 5.585 28.1519 5.64567 28.2779 5.767C28.4039 5.88833 28.4669 6.04 28.4669 6.222C28.4669 6.404 28.4039 6.55567 28.2779 6.677C28.1565 6.79833 28.0049 6.859 27.8229 6.859ZM33.7043 9.176H32.1153L32.1083 15H30.9323L30.9393 9.176H29.7353V8H30.9393L30.9323 5.802H32.1083L32.1153 8H33.7043V9.176ZM34.8908 8H36.0668V15H34.8908V8ZM35.4928 6.859C35.3061 6.859 35.1498 6.79833 35.0238 6.677C34.8978 6.55567 34.8348 6.404 34.8348 6.222C34.8348 6.04 34.8978 5.88833 35.0238 5.767C35.1498 5.64567 35.3038 5.585 35.4858 5.585C35.6678 5.585 35.8218 5.64567 35.9478 5.767C36.0738 5.88833 36.1368 6.04 36.1368 6.222C36.1368 6.404 36.0738 6.55567 35.9478 6.677C35.8264 6.79833 35.6748 6.859 35.4928 6.859ZM40.7325 15.182C40.0885 15.182 39.5005 15.0163 38.9685 14.685C38.4412 14.3537 38.0188 13.9103 37.7015 13.355C37.3888 12.795 37.2325 12.1767 37.2325 11.5C37.2325 10.9867 37.3235 10.5083 37.5055 10.065C37.6875 9.617 37.9372 9.225 38.2545 8.889C38.5765 8.54833 38.9498 8.28233 39.3745 8.091C39.7992 7.89967 40.2518 7.804 40.7325 7.804C41.3765 7.804 41.9622 7.96967 42.4895 8.301C43.0215 8.63233 43.4438 9.078 43.7565 9.638C44.0738 10.198 44.2325 10.8187 44.2325 11.5C44.2325 12.0087 44.1415 12.4847 43.9595 12.928C43.7775 13.3713 43.5255 13.7633 43.2035 14.104C42.8862 14.44 42.5152 14.7037 42.0905 14.895C41.6705 15.0863 41.2178 15.182 40.7325 15.182ZM40.7325 14.006C41.1712 14.006 41.5655 13.8917 41.9155 13.663C42.2702 13.4297 42.5478 13.124 42.7485 12.746C42.9538 12.3633 43.0565 11.948 43.0565 11.5C43.0565 11.0427 42.9515 10.6227 42.7415 10.24C42.5362 9.85733 42.2585 9.55167 41.9085 9.323C41.5585 9.09433 41.1665 8.98 40.7325 8.98C40.2938 8.98 39.8995 9.09667 39.5495 9.33C39.1995 9.55867 38.9218 9.86433 38.7165 10.247C38.5112 10.6297 38.4085 11.0473 38.4085 11.5C38.4085 11.9667 38.5135 12.3913 38.7235 12.774C38.9335 13.152 39.2158 13.453 39.5705 13.677C39.9252 13.8963 40.3125 14.006 40.7325 14.006ZM51.5788 10.646V15H50.4028V10.905C50.4028 10.5503 50.3164 10.2283 50.1438 9.939C49.9711 9.64967 49.7401 9.421 49.4508 9.253C49.1614 9.08033 48.8394 8.994 48.4848 8.994C48.1348 8.994 47.8128 9.08033 47.5188 9.253C47.2294 9.421 46.9984 9.64967 46.8258 9.939C46.6531 10.2283 46.5668 10.5503 46.5668 10.905V15H45.3908V8H46.5668V8.875C46.8141 8.54833 47.1268 8.28933 47.5048 8.098C47.8828 7.902 48.2934 7.804 48.7368 7.804C49.2594 7.804 49.7354 7.93233 50.1648 8.189C50.5988 8.441 50.9418 8.78167 51.1938 9.211C51.4504 9.64033 51.5788 10.1187 51.5788 10.646ZM58.47 8H59.646V15H58.47L58.421 13.817C58.2016 14.223 57.8983 14.552 57.511 14.804C57.1283 15.056 56.671 15.182 56.139 15.182C55.6256 15.182 55.145 15.0863 54.697 14.895C54.249 14.699 53.8523 14.4307 53.507 14.09C53.1663 13.7447 52.9003 13.348 52.709 12.9C52.5176 12.452 52.422 11.969 52.422 11.451C52.422 10.9517 52.5153 10.4803 52.702 10.037C52.8886 9.59367 53.1476 9.20633 53.479 8.875C53.815 8.539 54.2023 8.27767 54.641 8.091C55.0796 7.89967 55.551 7.804 56.055 7.804C56.6056 7.804 57.0886 7.93467 57.504 8.196C57.9193 8.45267 58.2553 8.78633 58.512 9.197L58.47 8ZM56.118 14.041C56.58 14.041 56.979 13.929 57.315 13.705C57.6556 13.4763 57.917 13.1683 58.099 12.781C58.2856 12.3937 58.379 11.9667 58.379 11.5C58.379 11.024 58.2856 10.5947 58.099 10.212C57.9123 9.82467 57.6486 9.519 57.308 9.295C56.972 9.06633 56.5753 8.952 56.118 8.952C55.656 8.952 55.236 9.06633 54.858 9.295C54.48 9.52367 54.179 9.83167 53.955 10.219C53.7356 10.6017 53.626 11.0287 53.626 11.5C53.626 11.9713 53.7403 12.4007 53.969 12.788C54.1976 13.1707 54.501 13.4763 54.879 13.705C55.257 13.929 55.67 14.041 56.118 14.041ZM61.1271 15V4.5H62.3031V15H61.1271ZM67.3478 15V5.2H73.0948V6.376H68.5238V9.162H72.4228V10.338H68.5238V15H67.3478ZM76.4981 15.182C75.8541 15.182 75.2661 15.0163 74.7341 14.685C74.2068 14.3537 73.7845 13.9103 73.4671 13.355C73.1545 12.795 72.9981 12.1767 72.9981 11.5C72.9981 10.9867 73.0891 10.5083 73.2711 10.065C73.4531 9.617 73.7028 9.225 74.0201 8.889C74.3421 8.54833 74.7155 8.28233 75.1401 8.091C75.5648 7.89967 76.0175 7.804 76.4981 7.804C77.0255 7.804 77.5085 7.91133 77.9471 8.126C78.3905 8.336 78.7685 8.63 79.0811 9.008C79.3985 9.386 79.6341 9.82467 79.7881 10.324C79.9468 10.8233 80.0051 11.3577 79.9631 11.927H74.2511C74.3071 12.3237 74.4378 12.6783 74.6431 12.991C74.8485 13.299 75.1098 13.544 75.4271 13.726C75.7491 13.908 76.1061 14.0013 76.4981 14.006C76.9181 14.006 77.2985 13.8987 77.6391 13.684C77.9798 13.4647 78.2551 13.166 78.4651 12.788L79.6621 13.068C79.3821 13.6887 78.9598 14.1973 78.3951 14.594C77.8305 14.986 77.1981 15.182 76.4981 15.182ZM74.2161 11.003H78.7801C78.7428 10.611 78.6168 10.254 78.4021 9.932C78.1875 9.60533 77.9145 9.344 77.5831 9.148C77.2518 8.952 76.8901 8.854 76.4981 8.854C76.1061 8.854 75.7468 8.94967 75.4201 9.141C75.0935 9.33233 74.8228 9.59133 74.6081 9.918C74.3981 10.24 74.2675 10.6017 74.2161 11.003ZM84.1817 15.182C83.5377 15.182 82.9497 15.0163 82.4177 14.685C81.8904 14.3537 81.4681 13.9103 81.1507 13.355C80.8381 12.795 80.6817 12.1767 80.6817 11.5C80.6817 10.9867 80.7727 10.5083 80.9547 10.065C81.1367 9.617 81.3864 9.225 81.7037 8.889C82.0257 8.54833 82.3991 8.28233 82.8237 8.091C83.2484 7.89967 83.7011 7.804 84.1817 7.804C84.7091 7.804 85.1921 7.91133 85.6307 8.126C86.0741 8.336 86.4521 8.63 86.7647 9.008C87.0821 9.386 87.3177 9.82467 87.4717 10.324C87.6304 10.8233 87.6887 11.3577 87.6467 11.927H81.9347C81.9907 12.3237 82.1214 12.6783 82.3267 12.991C82.5321 13.299 82.7934 13.544 83.1107 13.726C83.4327 13.908 83.7897 14.0013 84.1817 14.006C84.6017 14.006 84.9821 13.8987 85.3227 13.684C85.6634 13.4647 85.9387 13.166 86.1487 12.788L87.3457 13.068C87.0657 13.6887 86.6434 14.1973 86.0787 14.594C85.5141 14.986 84.8817 15.182 84.1817 15.182ZM81.8997 11.003H86.4637C86.4264 10.611 86.3004 10.254 86.0857 9.932C85.8711 9.60533 85.5981 9.344 85.2667 9.148C84.9354 8.952 84.5737 8.854 84.1817 8.854C83.7897 8.854 83.4304 8.94967 83.1037 9.141C82.7771 9.33233 82.5064 9.59133 82.2917 9.918C82.0817 10.24 81.9511 10.6017 81.8997 11.003ZM90.9887 15.133C90.6107 15.119 90.242 15.049 89.8827 14.923C89.528 14.7923 89.2153 14.6173 88.9447 14.398C88.6787 14.174 88.485 13.9173 88.3637 13.628L89.3717 13.194C89.4417 13.3527 89.5677 13.502 89.7497 13.642C89.9317 13.782 90.1417 13.894 90.3797 13.978C90.6177 14.062 90.858 14.104 91.1007 14.104C91.3573 14.104 91.5977 14.0643 91.8217 13.985C92.0457 13.9057 92.2277 13.789 92.3677 13.635C92.5123 13.4763 92.5847 13.2873 92.5847 13.068C92.5847 12.8347 92.5053 12.6527 92.3467 12.522C92.1927 12.3867 91.9967 12.2817 91.7587 12.207C91.5253 12.1277 91.2873 12.053 91.0447 11.983C90.564 11.8617 90.1347 11.717 89.7567 11.549C89.3787 11.3763 89.08 11.1593 88.8607 10.898C88.646 10.632 88.5387 10.2937 88.5387 9.883C88.5387 9.449 88.6577 9.07333 88.8957 8.756C89.1383 8.43867 89.4557 8.19367 89.8477 8.021C90.2397 7.84833 90.6597 7.762 91.1077 7.762C91.6723 7.762 92.188 7.88333 92.6547 8.126C93.1213 8.36867 93.469 8.69767 93.6977 9.113L92.7527 9.666C92.6733 9.498 92.552 9.351 92.3887 9.225C92.2253 9.09433 92.0387 8.99167 91.8287 8.917C91.6187 8.84233 91.404 8.80267 91.1847 8.798C90.914 8.78867 90.6597 8.82367 90.4217 8.903C90.1883 8.98233 89.9993 9.10367 89.8547 9.267C89.7147 9.42567 89.6447 9.624 89.6447 9.862C89.6447 10.0953 89.7193 10.2727 89.8687 10.394C90.0227 10.5153 90.221 10.6133 90.4637 10.688C90.711 10.758 90.9793 10.8397 91.2687 10.933C91.6933 11.0683 92.09 11.2247 92.4587 11.402C92.8273 11.5793 93.1237 11.801 93.3477 12.067C93.5763 12.333 93.6883 12.662 93.6837 13.054C93.6837 13.4833 93.5553 13.859 93.2987 14.181C93.042 14.4983 92.7083 14.741 92.2977 14.909C91.8917 15.077 91.4553 15.1517 90.9887 15.133Z" fill="#999999"></path><path d="M6.49 44.36C5.95667 44.3533 5.45667 44.44 4.99 44.62C4.53 44.7933 4.15333 45.0333 3.86 45.34C3.56667 45.6467 3.42 46.0033 3.42 46.41C3.42 46.91 3.55667 47.29 3.83 47.55C4.10333 47.81 4.47 48.0033 4.93 48.13C5.39667 48.25 5.91667 48.36 6.49 48.46C7.41 48.6067 8.26 48.85 9.04 49.19C9.82667 49.53 10.4567 49.9833 10.93 50.55C11.41 51.11 11.65 51.8 11.65 52.62C11.65 53.3733 11.45 54.0433 11.05 54.63C10.65 55.21 10.1133 55.68 9.44 56.04C8.77333 56.3933 8.03667 56.6167 7.23 56.71V58.74H5.76V56.71C5.08667 56.6433 4.44667 56.4833 3.84 56.23C3.24 55.9767 2.71667 55.64 2.27 55.22C1.82333 54.8 1.5 54.3133 1.3 53.76L3.25 53.03C3.36333 53.35 3.58 53.6367 3.9 53.89C4.22667 54.1367 4.61333 54.33 5.06 54.47C5.51333 54.61 5.99 54.68 6.49 54.68C7.02333 54.68 7.52333 54.5933 7.99 54.42C8.46333 54.2467 8.84333 54.0067 9.13 53.7C9.42333 53.3933 9.57 53.0333 9.57 52.62C9.57 52.1933 9.41667 51.8433 9.11 51.57C8.81 51.2967 8.42333 51.08 7.95 50.92C7.48333 50.76 6.99667 50.64 6.49 50.56C5.51 50.4 4.63 50.1667 3.85 49.86C3.07667 49.5533 2.46333 49.1233 2.01 48.57C1.56333 48.0167 1.34 47.2967 1.34 46.41C1.34 45.6567 1.54 44.9867 1.94 44.4C2.34 43.8133 2.87333 43.3433 3.54 42.99C4.21333 42.63 4.95333 42.4067 5.76 42.32V40.26H7.23V42.32C7.88333 42.3867 8.51 42.5467 9.11 42.8C9.71667 43.0533 10.2467 43.39 10.7 43.81C11.1533 44.2233 11.4833 44.7167 11.69 45.29L9.72 46C9.60667 45.6733 9.39 45.39 9.07 45.15C8.75 44.9033 8.36333 44.71 7.91 44.57C7.46333 44.43 6.99 44.36 6.49 44.36ZM13.2922 56.5V54.65C13.7655 54.2567 14.3089 53.8 14.9222 53.28C15.5355 52.7533 16.1589 52.1967 16.7922 51.61C17.4255 51.0167 18.0089 50.4267 18.5422 49.84C19.0755 49.2467 19.5055 48.6867 19.8322 48.16C20.1655 47.6267 20.3322 47.1633 20.3322 46.77C20.3322 46.3233 20.2222 45.9167 20.0022 45.55C19.7889 45.1767 19.4989 44.88 19.1322 44.66C18.7655 44.4333 18.3589 44.32 17.9122 44.32C17.4655 44.32 17.0555 44.4333 16.6822 44.66C16.3155 44.88 16.0189 45.1767 15.7922 45.55C15.5722 45.9167 15.4622 46.3233 15.4622 46.77H13.3822C13.3822 45.9233 13.5889 45.16 14.0022 44.48C14.4222 43.7933 14.9722 43.25 15.6522 42.85C16.3389 42.4433 17.0922 42.24 17.9122 42.24C18.7389 42.24 19.4922 42.4433 20.1722 42.85C20.8522 43.2567 21.3955 43.8033 21.8022 44.49C22.2089 45.17 22.4122 45.93 22.4122 46.77C22.4122 47.2367 22.3155 47.7167 22.1222 48.21C21.9289 48.7033 21.6589 49.2067 21.3122 49.72C20.9722 50.2333 20.5755 50.7533 20.1222 51.28C19.6689 51.8067 19.1822 52.3333 18.6622 52.86C18.1422 53.3867 17.6122 53.9067 17.0722 54.42H22.5322V56.5H13.2922ZM26.8327 56.5L29.6627 51.6C28.9893 51.7267 28.3327 51.7 27.6927 51.52C27.0593 51.3333 26.4893 51.03 25.9827 50.61C25.476 50.1833 25.0727 49.6667 24.7727 49.06C24.4727 48.4533 24.3227 47.7867 24.3227 47.06C24.3227 46.4 24.446 45.78 24.6927 45.2C24.946 44.6133 25.2927 44.1 25.7327 43.66C26.1727 43.2133 26.6827 42.8667 27.2627 42.62C27.8493 42.3667 28.476 42.24 29.1427 42.24C30.016 42.24 30.816 42.4567 31.5427 42.89C32.2693 43.3233 32.8493 43.9067 33.2827 44.64C33.716 45.3667 33.9327 46.1733 33.9327 47.06C33.9327 47.52 33.876 47.94 33.7627 48.32C33.656 48.7 33.486 49.1 33.2527 49.52L29.2427 56.5H26.8327ZM29.1227 49.79C29.656 49.79 30.1293 49.6633 30.5427 49.41C30.956 49.15 31.2793 48.8133 31.5127 48.4C31.7527 47.98 31.8727 47.53 31.8727 47.05C31.8727 46.53 31.746 46.0633 31.4927 45.65C31.2393 45.2367 30.9027 44.91 30.4827 44.67C30.0693 44.43 29.6227 44.31 29.1427 44.31C28.6093 44.31 28.136 44.44 27.7227 44.7C27.3093 44.96 26.9827 45.3 26.7427 45.72C26.5027 46.1333 26.3827 46.5767 26.3827 47.05C26.3827 47.55 26.5027 48.01 26.7427 48.43C26.9893 48.8433 27.3193 49.1733 27.7327 49.42C28.146 49.6667 28.6093 49.79 29.1227 49.79ZM35.3234 57.62L35.9434 54.24H38.0234L36.7034 57.62H35.3234ZM40.4405 56.5L47.3105 44.58H39.6305V42.5H49.7205V44.58L42.8305 56.5H40.4405ZM56.1589 56.76C55.3322 56.76 54.5856 56.5733 53.9189 56.2C53.2589 55.82 52.6889 55.2967 52.2089 54.63C51.7289 53.9633 51.3622 53.1933 51.1089 52.32C50.8556 51.44 50.7289 50.5 50.7289 49.5C50.7289 48.5 50.8556 47.56 51.1089 46.68C51.3622 45.8 51.7289 45.03 52.2089 44.37C52.6889 43.7033 53.2589 43.1833 53.9189 42.81C54.5856 42.43 55.3322 42.24 56.1589 42.24C56.9722 42.24 57.7122 42.43 58.3789 42.81C59.0456 43.1833 59.6122 43.7033 60.0789 44.37C60.5522 45.03 60.9156 45.8 61.1689 46.68C61.4222 47.56 61.5489 48.5 61.5489 49.5C61.5489 50.5 61.4222 51.44 61.1689 52.32C60.9156 53.1933 60.5522 53.9633 60.0789 54.63C59.6122 55.2967 59.0456 55.82 58.3789 56.2C57.7122 56.5733 56.9722 56.76 56.1589 56.76ZM56.1589 54.68C56.9256 54.68 57.5622 54.44 58.0689 53.96C58.5822 53.4733 58.9656 52.8367 59.2189 52.05C59.4722 51.2633 59.5989 50.4133 59.5989 49.5C59.5989 48.54 59.4656 47.67 59.1989 46.89C58.9389 46.1033 58.5522 45.48 58.0389 45.02C57.5322 44.5533 56.9056 44.32 56.1589 44.32C55.5656 44.32 55.0489 44.46 54.6089 44.74C54.1756 45.02 53.8156 45.4033 53.5289 45.89C53.2489 46.3767 53.0356 46.93 52.8889 47.55C52.7489 48.17 52.6789 48.82 52.6789 49.5C52.6789 50.4133 52.8089 51.2633 53.0689 52.05C53.3289 52.8367 53.7156 53.4733 54.2289 53.96C54.7489 54.44 55.3922 54.68 56.1589 54.68ZM67.7995 56.76C66.9729 56.76 66.2262 56.5733 65.5595 56.2C64.8995 55.82 64.3295 55.2967 63.8495 54.63C63.3695 53.9633 63.0029 53.1933 62.7495 52.32C62.4962 51.44 62.3695 50.5 62.3695 49.5C62.3695 48.5 62.4962 47.56 62.7495 46.68C63.0029 45.8 63.3695 45.03 63.8495 44.37C64.3295 43.7033 64.8995 43.1833 65.5595 42.81C66.2262 42.43 66.9729 42.24 67.7995 42.24C68.6129 42.24 69.3529 42.43 70.0195 42.81C70.6862 43.1833 71.2529 43.7033 71.7195 44.37C72.1929 45.03 72.5562 45.8 72.8095 46.68C73.0629 47.56 73.1895 48.5 73.1895 49.5C73.1895 50.5 73.0629 51.44 72.8095 52.32C72.5562 53.1933 72.1929 53.9633 71.7195 54.63C71.2529 55.2967 70.6862 55.82 70.0195 56.2C69.3529 56.5733 68.6129 56.76 67.7995 56.76ZM67.7995 54.68C68.5662 54.68 69.2029 54.44 69.7095 53.96C70.2229 53.4733 70.6062 52.8367 70.8595 52.05C71.1129 51.2633 71.2395 50.4133 71.2395 49.5C71.2395 48.54 71.1062 47.67 70.8395 46.89C70.5795 46.1033 70.1929 45.48 69.6795 45.02C69.1729 44.5533 68.5462 44.32 67.7995 44.32C67.2062 44.32 66.6895 44.46 66.2495 44.74C65.8162 45.02 65.4562 45.4033 65.1695 45.89C64.8895 46.3767 64.6762 46.93 64.5295 47.55C64.3895 48.17 64.3195 48.82 64.3195 49.5C64.3195 50.4133 64.4495 51.2633 64.7095 52.05C64.9695 52.8367 65.3562 53.4733 65.8695 53.96C66.3895 54.44 67.0329 54.68 67.7995 54.68Z" fill="white"></path><rect x="87" y="33.5" width="352" height="32" rx="16" fill="#1A1A1A"></rect><rect x="87" y="33.5" width="352" height="32" rx="16" stroke="#262626"></rect><path d="M99.34 54V44.2H102.574C103.101 44.2 103.575 44.3283 103.995 44.585C104.42 44.8417 104.756 45.1893 105.003 45.628C105.255 46.062 105.381 46.5473 105.381 47.084C105.381 47.63 105.253 48.1223 104.996 48.561C104.744 48.995 104.403 49.3403 103.974 49.597C103.549 49.849 103.083 49.975 102.574 49.975H100.516V54H99.34ZM100.516 48.799H102.469C102.786 48.799 103.076 48.722 103.337 48.568C103.603 48.4093 103.813 48.197 103.967 47.931C104.126 47.6603 104.205 47.357 104.205 47.021C104.205 46.6803 104.126 46.377 103.967 46.111C103.813 45.8403 103.603 45.628 103.337 45.474C103.076 45.3153 102.786 45.236 102.469 45.236H100.516V48.799ZM106.586 54V47H107.762V47.875C108.009 47.5483 108.322 47.2893 108.7 47.098C109.078 46.902 109.489 46.804 109.932 46.804C110.203 46.804 110.464 46.839 110.716 46.909L110.24 48.085C110.049 48.0243 109.862 47.994 109.68 47.994C109.33 47.994 109.008 48.0803 108.714 48.253C108.425 48.421 108.194 48.6497 108.021 48.939C107.848 49.2283 107.762 49.5503 107.762 49.905V54H106.586ZM114.301 54.182C113.657 54.182 113.069 54.0163 112.537 53.685C112.01 53.3537 111.587 52.9103 111.27 52.355C110.957 51.795 110.801 51.1767 110.801 50.5C110.801 49.9867 110.892 49.5083 111.074 49.065C111.256 48.617 111.506 48.225 111.823 47.889C112.145 47.5483 112.518 47.2823 112.943 47.091C113.368 46.8997 113.82 46.804 114.301 46.804C114.945 46.804 115.531 46.9697 116.058 47.301C116.59 47.6323 117.012 48.078 117.325 48.638C117.642 49.198 117.801 49.8187 117.801 50.5C117.801 51.0087 117.71 51.4847 117.528 51.928C117.346 52.3713 117.094 52.7633 116.772 53.104C116.455 53.44 116.084 53.7037 115.659 53.895C115.239 54.0863 114.786 54.182 114.301 54.182ZM114.301 53.006C114.74 53.006 115.134 52.8917 115.484 52.663C115.839 52.4297 116.116 52.124 116.317 51.746C116.522 51.3633 116.625 50.948 116.625 50.5C116.625 50.0427 116.52 49.6227 116.31 49.24C116.105 48.8573 115.827 48.5517 115.477 48.323C115.127 48.0943 114.735 47.98 114.301 47.98C113.862 47.98 113.468 48.0967 113.118 48.33C112.768 48.5587 112.49 48.8643 112.285 49.247C112.08 49.6297 111.977 50.0473 111.977 50.5C111.977 50.9667 112.082 51.3913 112.292 51.774C112.502 52.152 112.784 52.453 113.139 52.677C113.494 52.8963 113.881 53.006 114.301 53.006ZM120.135 57.5H118.959V47H120.135V48.197C120.373 47.7863 120.69 47.455 121.087 47.203C121.484 46.9463 121.955 46.818 122.501 46.818C123.01 46.818 123.486 46.9137 123.929 47.105C124.377 47.2963 124.769 47.5623 125.105 47.903C125.441 48.239 125.705 48.6287 125.896 49.072C126.087 49.5153 126.183 49.9913 126.183 50.5C126.183 51.0087 126.087 51.487 125.896 51.935C125.705 52.383 125.441 52.7773 125.105 53.118C124.769 53.454 124.377 53.7177 123.929 53.909C123.486 54.1003 123.01 54.196 122.501 54.196C121.955 54.196 121.484 54.07 121.087 53.818C120.69 53.5613 120.373 53.2277 120.135 52.817V57.5ZM122.487 47.959C122.034 47.959 121.638 48.0733 121.297 48.302C120.956 48.5307 120.693 48.8363 120.506 49.219C120.324 49.6017 120.233 50.0287 120.233 50.5C120.233 50.9667 120.324 51.3937 120.506 51.781C120.693 52.1683 120.954 52.4763 121.29 52.705C121.631 52.9337 122.03 53.048 122.487 53.048C122.94 53.048 123.355 52.936 123.733 52.712C124.111 52.4833 124.414 52.1777 124.643 51.795C124.872 51.4077 124.986 50.976 124.986 50.5C124.986 50.0333 124.874 49.6087 124.65 49.226C124.426 48.8387 124.125 48.5307 123.747 48.302C123.369 48.0733 122.949 47.959 122.487 47.959ZM130.393 54.182C129.749 54.182 129.161 54.0163 128.629 53.685C128.101 53.3537 127.679 52.9103 127.362 52.355C127.049 51.795 126.893 51.1767 126.893 50.5C126.893 49.9867 126.984 49.5083 127.166 49.065C127.348 48.617 127.597 48.225 127.915 47.889C128.237 47.5483 128.61 47.2823 129.035 47.091C129.459 46.8997 129.912 46.804 130.393 46.804C130.92 46.804 131.403 46.9113 131.842 47.126C132.285 47.336 132.663 47.63 132.976 48.008C133.293 48.386 133.529 48.8247 133.683 49.324C133.841 49.8233 133.9 50.3577 133.858 50.927H128.146C128.202 51.3237 128.332 51.6783 128.538 51.991C128.743 52.299 129.004 52.544 129.322 52.726C129.644 52.908 130.001 53.0013 130.393 53.006C130.813 53.006 131.193 52.8987 131.534 52.684C131.874 52.4647 132.15 52.166 132.36 51.788L133.557 52.068C133.277 52.6887 132.854 53.1973 132.29 53.594C131.725 53.986 131.093 54.182 130.393 54.182ZM128.111 50.003H132.675C132.637 49.611 132.511 49.254 132.297 48.932C132.082 48.6053 131.809 48.344 131.478 48.148C131.146 47.952 130.785 47.854 130.393 47.854C130.001 47.854 129.641 47.9497 129.315 48.141C128.988 48.3323 128.717 48.5913 128.503 48.918C128.293 49.24 128.162 49.6017 128.111 50.003ZM135.037 54V47H136.213V47.875C136.461 47.5483 136.773 47.2893 137.151 47.098C137.529 46.902 137.94 46.804 138.383 46.804C138.654 46.804 138.915 46.839 139.167 46.909L138.691 48.085C138.5 48.0243 138.313 47.994 138.131 47.994C137.781 47.994 137.459 48.0803 137.165 48.253C136.876 48.421 136.645 48.6497 136.472 48.939C136.3 49.2283 136.213 49.5503 136.213 49.905V54H135.037ZM143.777 48.176H142.188L142.181 54H141.005L141.012 48.176H139.808V47H141.012L141.005 44.802H142.181L142.188 47H143.777V48.176ZM149.662 47H150.908L147.079 57.5H145.833L147.1 54L144.587 47H145.875L147.688 52.383L149.662 47ZM159.294 48.176H157.705L157.698 54H156.522L156.529 48.176H155.325V47H156.529L156.522 44.802H157.698L157.705 47H159.294V48.176ZM160.549 54V47H161.725V47.875C161.972 47.5483 162.285 47.2893 162.663 47.098C163.041 46.902 163.452 46.804 163.895 46.804C164.166 46.804 164.427 46.839 164.679 46.909L164.203 48.085C164.012 48.0243 163.825 47.994 163.643 47.994C163.293 47.994 162.971 48.0803 162.677 48.253C162.388 48.421 162.157 48.6497 161.984 48.939C161.811 49.2283 161.725 49.5503 161.725 49.905V54H160.549ZM170.812 47H171.988V54H170.812L170.763 52.817C170.543 53.223 170.24 53.552 169.853 53.804C169.47 54.056 169.013 54.182 168.481 54.182C167.967 54.182 167.487 54.0863 167.039 53.895C166.591 53.699 166.194 53.4307 165.849 53.09C165.508 52.7447 165.242 52.348 165.051 51.9C164.859 51.452 164.764 50.969 164.764 50.451C164.764 49.9517 164.857 49.4803 165.044 49.037C165.23 48.5937 165.489 48.2063 165.821 47.875C166.157 47.539 166.544 47.2777 166.983 47.091C167.421 46.8997 167.893 46.804 168.397 46.804C168.947 46.804 169.43 46.9347 169.846 47.196C170.261 47.4527 170.597 47.7863 170.854 48.197L170.812 47ZM168.46 53.041C168.922 53.041 169.321 52.929 169.657 52.705C169.997 52.4763 170.259 52.1683 170.441 51.781C170.627 51.3937 170.721 50.9667 170.721 50.5C170.721 50.024 170.627 49.5947 170.441 49.212C170.254 48.8247 169.99 48.519 169.65 48.295C169.314 48.0663 168.917 47.952 168.46 47.952C167.998 47.952 167.578 48.0663 167.2 48.295C166.822 48.5237 166.521 48.8317 166.297 49.219C166.077 49.6017 165.968 50.0287 165.968 50.5C165.968 50.9713 166.082 51.4007 166.311 51.788C166.539 52.1707 166.843 52.4763 167.221 52.705C167.599 52.929 168.012 53.041 168.46 53.041ZM179.575 49.646V54H178.399V49.905C178.399 49.5503 178.313 49.2283 178.14 48.939C177.967 48.6497 177.736 48.421 177.447 48.253C177.158 48.0803 176.836 47.994 176.481 47.994C176.131 47.994 175.809 48.0803 175.515 48.253C175.226 48.421 174.995 48.6497 174.822 48.939C174.649 49.2283 174.563 49.5503 174.563 49.905V54H173.387V47H174.563V47.875C174.81 47.5483 175.123 47.2893 175.501 47.098C175.879 46.902 176.29 46.804 176.733 46.804C177.256 46.804 177.732 46.9323 178.161 47.189C178.595 47.441 178.938 47.7817 179.19 48.211C179.447 48.6403 179.575 49.1187 179.575 49.646ZM183.11 54.133C182.732 54.119 182.363 54.049 182.004 53.923C181.649 53.7923 181.336 53.6173 181.066 53.398C180.8 53.174 180.606 52.9173 180.485 52.628L181.493 52.194C181.563 52.3527 181.689 52.502 181.871 52.642C182.053 52.782 182.263 52.894 182.501 52.978C182.739 53.062 182.979 53.104 183.222 53.104C183.478 53.104 183.719 53.0643 183.943 52.985C184.167 52.9057 184.349 52.789 184.489 52.635C184.633 52.4763 184.706 52.2873 184.706 52.068C184.706 51.8347 184.626 51.6527 184.468 51.522C184.314 51.3867 184.118 51.2817 183.88 51.207C183.646 51.1277 183.408 51.053 183.166 50.983C182.685 50.8617 182.256 50.717 181.878 50.549C181.5 50.3763 181.201 50.1593 180.982 49.898C180.767 49.632 180.66 49.2937 180.66 48.883C180.66 48.449 180.779 48.0733 181.017 47.756C181.259 47.4387 181.577 47.1937 181.969 47.021C182.361 46.8483 182.781 46.762 183.229 46.762C183.793 46.762 184.309 46.8833 184.776 47.126C185.242 47.3687 185.59 47.6977 185.819 48.113L184.874 48.666C184.794 48.498 184.673 48.351 184.51 48.225C184.346 48.0943 184.16 47.9917 183.95 47.917C183.74 47.8423 183.525 47.8027 183.306 47.798C183.035 47.7887 182.781 47.8237 182.543 47.903C182.309 47.9823 182.12 48.1037 181.976 48.267C181.836 48.4257 181.766 48.624 181.766 48.862C181.766 49.0953 181.84 49.2727 181.99 49.394C182.144 49.5153 182.342 49.6133 182.585 49.688C182.832 49.758 183.1 49.8397 183.39 49.933C183.814 50.0683 184.211 50.2247 184.58 50.402C184.948 50.5793 185.245 50.801 185.469 51.067C185.697 51.333 185.809 51.662 185.805 52.054C185.805 52.4833 185.676 52.859 185.42 53.181C185.163 53.4983 184.829 53.741 184.419 53.909C184.013 54.077 183.576 54.1517 183.11 54.133ZM188.593 45.271V47H190.644V48.176H188.593V54H187.417V48.176H186.514V47H187.417V45.271C187.417 44.9117 187.503 44.5873 187.676 44.298C187.853 44.004 188.089 43.7707 188.383 43.598C188.682 43.4207 189.008 43.332 189.363 43.332C189.624 43.332 189.879 43.3857 190.126 43.493C190.373 43.5957 190.593 43.7497 190.784 43.955L189.944 44.788C189.879 44.6993 189.792 44.6317 189.685 44.585C189.582 44.5337 189.475 44.508 189.363 44.508C189.153 44.508 188.971 44.5827 188.817 44.732C188.668 44.8813 188.593 45.061 188.593 45.271ZM194.705 54.182C194.061 54.182 193.473 54.0163 192.941 53.685C192.414 53.3537 191.991 52.9103 191.674 52.355C191.361 51.795 191.205 51.1767 191.205 50.5C191.205 49.9867 191.296 49.5083 191.478 49.065C191.66 48.617 191.91 48.225 192.227 47.889C192.549 47.5483 192.922 47.2823 193.347 47.091C193.772 46.8997 194.224 46.804 194.705 46.804C195.232 46.804 195.715 46.9113 196.154 47.126C196.597 47.336 196.975 47.63 197.288 48.008C197.605 48.386 197.841 48.8247 197.995 49.324C198.154 49.8233 198.212 50.3577 198.17 50.927H192.458C192.514 51.3237 192.645 51.6783 192.85 51.991C193.055 52.299 193.317 52.544 193.634 52.726C193.956 52.908 194.313 53.0013 194.705 53.006C195.125 53.006 195.505 52.8987 195.846 52.684C196.187 52.4647 196.462 52.166 196.672 51.788L197.869 52.068C197.589 52.6887 197.167 53.1973 196.602 53.594C196.037 53.986 195.405 54.182 194.705 54.182ZM192.423 50.003H196.987C196.95 49.611 196.824 49.254 196.609 48.932C196.394 48.6053 196.121 48.344 195.79 48.148C195.459 47.952 195.097 47.854 194.705 47.854C194.313 47.854 193.954 47.9497 193.627 48.141C193.3 48.3323 193.03 48.5913 192.815 48.918C192.605 49.24 192.474 49.6017 192.423 50.003ZM199.35 54V47H200.526V47.875C200.773 47.5483 201.086 47.2893 201.464 47.098C201.842 46.902 202.252 46.804 202.696 46.804C202.966 46.804 203.228 46.839 203.48 46.909L203.004 48.085C202.812 48.0243 202.626 47.994 202.444 47.994C202.094 47.994 201.772 48.0803 201.478 48.253C201.188 48.421 200.957 48.6497 200.785 48.939C200.612 49.2283 200.526 49.5503 200.526 49.905V54H199.35ZM211.452 48.176H209.863L209.856 54H208.68L208.687 48.176H207.483V47H208.687L208.68 44.802H209.856L209.863 47H211.452V48.176ZM218.157 47H219.333V54H218.157L218.108 52.817C217.889 53.223 217.586 53.552 217.198 53.804C216.816 54.056 216.358 54.182 215.826 54.182C215.313 54.182 214.832 54.0863 214.384 53.895C213.936 53.699 213.54 53.4307 213.194 53.09C212.854 52.7447 212.588 52.348 212.396 51.9C212.205 51.452 212.109 50.969 212.109 50.451C212.109 49.9517 212.203 49.4803 212.389 49.037C212.576 48.5937 212.835 48.2063 213.166 47.875C213.502 47.539 213.89 47.2777 214.328 47.091C214.767 46.8997 215.238 46.804 215.742 46.804C216.293 46.804 216.776 46.9347 217.191 47.196C217.607 47.4527 217.943 47.7863 218.199 48.197L218.157 47ZM215.805 53.041C216.267 53.041 216.666 52.929 217.002 52.705C217.343 52.4763 217.604 52.1683 217.786 51.781C217.973 51.3937 218.066 50.9667 218.066 50.5C218.066 50.024 217.973 49.5947 217.786 49.212C217.6 48.8247 217.336 48.519 216.995 48.295C216.659 48.0663 216.263 47.952 215.805 47.952C215.343 47.952 214.923 48.0663 214.545 48.295C214.167 48.5237 213.866 48.8317 213.642 49.219C213.423 49.6017 213.313 50.0287 213.313 50.5C213.313 50.9713 213.428 51.4007 213.656 51.788C213.885 52.1707 214.188 52.4763 214.566 52.705C214.944 52.929 215.357 53.041 215.805 53.041ZM220.357 54L222.919 50.486L220.371 46.986H221.82L223.647 49.478L225.467 46.986H226.916L224.368 50.486L226.93 54H225.481L223.647 51.48L221.806 54H220.357ZM228.054 54.784L228.488 52.418H229.664L228.838 54.784H228.054ZM234.705 54V43.5H235.881V54H234.705ZM240.574 54.182C239.93 54.182 239.342 54.0163 238.81 53.685C238.283 53.3537 237.861 52.9103 237.543 52.355C237.231 51.795 237.074 51.1767 237.074 50.5C237.074 49.9867 237.165 49.5083 237.347 49.065C237.529 48.617 237.779 48.225 238.096 47.889C238.418 47.5483 238.792 47.2823 239.216 47.091C239.641 46.8997 240.094 46.804 240.574 46.804C241.102 46.804 241.585 46.9113 242.023 47.126C242.467 47.336 242.845 47.63 243.157 48.008C243.475 48.386 243.71 48.8247 243.864 49.324C244.023 49.8233 244.081 50.3577 244.039 50.927H238.327C238.383 51.3237 238.514 51.6783 238.719 51.991C238.925 52.299 239.186 52.544 239.503 52.726C239.825 52.908 240.182 53.0013 240.574 53.006C240.994 53.006 241.375 52.8987 241.715 52.684C242.056 52.4647 242.331 52.166 242.541 51.788L243.738 52.068C243.458 52.6887 243.036 53.1973 242.471 53.594C241.907 53.986 241.274 54.182 240.574 54.182ZM238.292 50.003H242.856C242.819 49.611 242.693 49.254 242.478 48.932C242.264 48.6053 241.991 48.344 241.659 48.148C241.328 47.952 240.966 47.854 240.574 47.854C240.182 47.854 239.823 47.9497 239.496 48.141C239.17 48.3323 238.899 48.5913 238.684 48.918C238.474 49.24 238.344 49.6017 238.292 50.003ZM250.645 47H251.821V54.224C251.821 54.686 251.721 55.1153 251.52 55.512C251.324 55.9133 251.058 56.261 250.722 56.555C250.386 56.8537 250.003 57.0847 249.574 57.248C249.145 57.416 248.697 57.5 248.23 57.5C247.745 57.5 247.276 57.3903 246.823 57.171C246.37 56.9563 245.974 56.667 245.633 56.303C245.297 55.9437 245.054 55.54 244.905 55.092L245.983 54.602C246.072 54.924 246.23 55.2133 246.459 55.47C246.692 55.7313 246.963 55.9367 247.271 56.086C247.584 56.24 247.903 56.317 248.23 56.317C248.538 56.317 248.834 56.2633 249.119 56.156C249.408 56.0487 249.667 55.8993 249.896 55.708C250.129 55.5213 250.311 55.2997 250.442 55.043C250.577 54.791 250.645 54.518 250.645 54.224V52.831C250.407 53.2323 250.092 53.559 249.7 53.811C249.313 54.0583 248.86 54.182 248.342 54.182C247.847 54.182 247.383 54.0863 246.949 53.895C246.515 53.7037 246.135 53.44 245.808 53.104C245.481 52.7633 245.225 52.3713 245.038 51.928C244.851 51.4847 244.758 51.0087 244.758 50.5C244.758 49.9913 244.851 49.5153 245.038 49.072C245.225 48.624 245.481 48.232 245.808 47.896C246.135 47.5553 246.515 47.2893 246.949 47.098C247.383 46.9067 247.847 46.811 248.342 46.811C248.86 46.811 249.313 46.9347 249.7 47.182C250.092 47.4293 250.407 47.756 250.645 48.162V47ZM248.349 53.041C248.802 53.041 249.194 52.9243 249.525 52.691C249.861 52.4577 250.12 52.1473 250.302 51.76C250.484 51.3727 250.575 50.9527 250.575 50.5C250.575 50.0333 250.482 49.6087 250.295 49.226C250.113 48.8387 249.854 48.5307 249.518 48.302C249.187 48.0687 248.797 47.952 248.349 47.952C247.91 47.952 247.509 48.0663 247.145 48.295C246.781 48.5237 246.492 48.8317 246.277 49.219C246.067 49.6017 245.962 50.0287 245.962 50.5C245.962 50.9713 246.069 51.4007 246.284 51.788C246.503 52.1707 246.793 52.4763 247.152 52.705C247.516 52.929 247.915 53.041 248.349 53.041ZM259.036 47H260.212V54H259.036L258.987 52.817C258.768 53.223 258.465 53.552 258.077 53.804C257.695 54.056 257.237 54.182 256.705 54.182C256.192 54.182 255.711 54.0863 255.263 53.895C254.815 53.699 254.419 53.4307 254.073 53.09C253.733 52.7447 253.467 52.348 253.275 51.9C253.084 51.452 252.988 50.969 252.988 50.451C252.988 49.9517 253.082 49.4803 253.268 49.037C253.455 48.5937 253.714 48.2063 254.045 47.875C254.381 47.539 254.769 47.2777 255.207 47.091C255.646 46.8997 256.117 46.804 256.621 46.804C257.172 46.804 257.655 46.9347 258.07 47.196C258.486 47.4527 258.822 47.7863 259.078 48.197L259.036 47ZM256.684 53.041C257.146 53.041 257.545 52.929 257.881 52.705C258.222 52.4763 258.483 52.1683 258.665 51.781C258.852 51.3937 258.945 50.9667 258.945 50.5C258.945 50.024 258.852 49.5947 258.665 49.212C258.479 48.8247 258.215 48.519 257.874 48.295C257.538 48.0663 257.142 47.952 256.684 47.952C256.222 47.952 255.802 48.0663 255.424 48.295C255.046 48.5237 254.745 48.8317 254.521 49.219C254.302 49.6017 254.192 50.0287 254.192 50.5C254.192 50.9713 254.307 51.4007 254.535 51.788C254.764 52.1707 255.067 52.4763 255.445 52.705C255.823 52.929 256.236 53.041 256.684 53.041ZM261.694 54V43.5H262.87V54H261.694ZM269.503 45.271V47H271.554V48.176H269.503V54H268.327V48.176H267.424V47H268.327V45.271C268.327 44.9117 268.414 44.5873 268.586 44.298C268.764 44.004 268.999 43.7707 269.293 43.598C269.592 43.4207 269.919 43.332 270.273 43.332C270.535 43.332 270.789 43.3857 271.036 43.493C271.284 43.5957 271.503 43.7497 271.694 43.955L270.854 44.788C270.789 44.6993 270.703 44.6317 270.595 44.585C270.493 44.5337 270.385 44.508 270.273 44.508C270.063 44.508 269.881 44.5827 269.727 44.732C269.578 44.8813 269.503 45.061 269.503 45.271ZM275.615 54.182C274.971 54.182 274.383 54.0163 273.851 53.685C273.324 53.3537 272.902 52.9103 272.584 52.355C272.272 51.795 272.115 51.1767 272.115 50.5C272.115 49.9867 272.206 49.5083 272.388 49.065C272.57 48.617 272.82 48.225 273.137 47.889C273.459 47.5483 273.833 47.2823 274.257 47.091C274.682 46.8997 275.135 46.804 275.615 46.804C276.143 46.804 276.626 46.9113 277.064 47.126C277.508 47.336 277.886 47.63 278.198 48.008C278.516 48.386 278.751 48.8247 278.905 49.324C279.064 49.8233 279.122 50.3577 279.08 50.927H273.368C273.424 51.3237 273.555 51.6783 273.76 51.991C273.966 52.299 274.227 52.544 274.544 52.726C274.866 52.908 275.223 53.0013 275.615 53.006C276.035 53.006 276.416 52.8987 276.756 52.684C277.097 52.4647 277.372 52.166 277.582 51.788L278.779 52.068C278.499 52.6887 278.077 53.1973 277.512 53.594C276.948 53.986 276.315 54.182 275.615 54.182ZM273.333 50.003H277.897C277.86 49.611 277.734 49.254 277.519 48.932C277.305 48.6053 277.032 48.344 276.7 48.148C276.369 47.952 276.007 47.854 275.615 47.854C275.223 47.854 274.864 47.9497 274.537 48.141C274.211 48.3323 273.94 48.5913 273.725 48.918C273.515 49.24 273.385 49.6017 273.333 50.003ZM283.299 54.182C282.655 54.182 282.067 54.0163 281.535 53.685C281.008 53.3537 280.585 52.9103 280.268 52.355C279.955 51.795 279.799 51.1767 279.799 50.5C279.799 49.9867 279.89 49.5083 280.072 49.065C280.254 48.617 280.504 48.225 280.821 47.889C281.143 47.5483 281.516 47.2823 281.941 47.091C282.366 46.8997 282.818 46.804 283.299 46.804C283.826 46.804 284.309 46.9113 284.748 47.126C285.191 47.336 285.569 47.63 285.882 48.008C286.199 48.386 286.435 48.8247 286.589 49.324C286.748 49.8233 286.806 50.3577 286.764 50.927H281.052C281.108 51.3237 281.239 51.6783 281.444 51.991C281.649 52.299 281.911 52.544 282.228 52.726C282.55 52.908 282.907 53.0013 283.299 53.006C283.719 53.006 284.099 52.8987 284.44 52.684C284.781 52.4647 285.056 52.166 285.266 51.788L286.463 52.068C286.183 52.6887 285.761 53.1973 285.196 53.594C284.631 53.986 283.999 54.182 283.299 54.182ZM281.017 50.003H285.581C285.544 49.611 285.418 49.254 285.203 48.932C284.988 48.6053 284.715 48.344 284.384 48.148C284.053 47.952 283.691 47.854 283.299 47.854C282.907 47.854 282.548 47.9497 282.221 48.141C281.894 48.3323 281.624 48.5913 281.409 48.918C281.199 49.24 281.068 49.6017 281.017 50.003ZM290.106 54.133C289.728 54.119 289.359 54.049 289 53.923C288.645 53.7923 288.333 53.6173 288.062 53.398C287.796 53.174 287.602 52.9173 287.481 52.628L288.489 52.194C288.559 52.3527 288.685 52.502 288.867 52.642C289.049 52.782 289.259 52.894 289.497 52.978C289.735 53.062 289.975 53.104 290.218 53.104C290.475 53.104 290.715 53.0643 290.939 52.985C291.163 52.9057 291.345 52.789 291.485 52.635C291.63 52.4763 291.702 52.2873 291.702 52.068C291.702 51.8347 291.623 51.6527 291.464 51.522C291.31 51.3867 291.114 51.2817 290.876 51.207C290.643 51.1277 290.405 51.053 290.162 50.983C289.681 50.8617 289.252 50.717 288.874 50.549C288.496 50.3763 288.197 50.1593 287.978 49.898C287.763 49.632 287.656 49.2937 287.656 48.883C287.656 48.449 287.775 48.0733 288.013 47.756C288.256 47.4387 288.573 47.1937 288.965 47.021C289.357 46.8483 289.777 46.762 290.225 46.762C290.79 46.762 291.305 46.8833 291.772 47.126C292.239 47.3687 292.586 47.6977 292.815 48.113L291.87 48.666C291.791 48.498 291.669 48.351 291.506 48.225C291.343 48.0943 291.156 47.9917 290.946 47.917C290.736 47.8423 290.521 47.8027 290.302 47.798C290.031 47.7887 289.777 47.8237 289.539 47.903C289.306 47.9823 289.117 48.1037 288.972 48.267C288.832 48.4257 288.762 48.624 288.762 48.862C288.762 49.0953 288.837 49.2727 288.986 49.394C289.14 49.5153 289.338 49.6133 289.581 49.688C289.828 49.758 290.097 49.8397 290.386 49.933C290.811 50.0683 291.207 50.2247 291.576 50.402C291.945 50.5793 292.241 50.801 292.465 51.067C292.694 51.333 292.806 51.662 292.801 52.054C292.801 52.4833 292.673 52.859 292.416 53.181C292.159 53.4983 291.826 53.741 291.415 53.909C291.009 54.077 290.573 54.1517 290.106 54.133ZM293.693 54.784L294.127 52.418H295.303L294.477 54.784H293.693ZM300.344 47H301.52V54H300.344V47ZM300.946 45.859C300.759 45.859 300.603 45.7983 300.477 45.677C300.351 45.5557 300.288 45.404 300.288 45.222C300.288 45.04 300.351 44.8883 300.477 44.767C300.603 44.6457 300.757 44.585 300.939 44.585C301.121 44.585 301.275 44.6457 301.401 44.767C301.527 44.8883 301.59 45.04 301.59 45.222C301.59 45.404 301.527 45.5557 301.401 45.677C301.28 45.7983 301.128 45.859 300.946 45.859ZM309.362 49.646V54H308.186V49.905C308.186 49.5503 308.1 49.2283 307.927 48.939C307.754 48.6497 307.523 48.421 307.234 48.253C306.945 48.0803 306.623 47.994 306.268 47.994C305.918 47.994 305.596 48.0803 305.302 48.253C305.013 48.421 304.782 48.6497 304.609 48.939C304.436 49.2283 304.35 49.5503 304.35 49.905V54H303.174V47H304.35V47.875C304.597 47.5483 304.91 47.2893 305.288 47.098C305.666 46.902 306.077 46.804 306.52 46.804C307.043 46.804 307.519 46.9323 307.948 47.189C308.382 47.441 308.725 47.7817 308.977 48.211C309.234 48.6403 309.362 49.1187 309.362 49.646ZM312.897 54.133C312.519 54.119 312.15 54.049 311.791 53.923C311.436 53.7923 311.124 53.6173 310.853 53.398C310.587 53.174 310.393 52.9173 310.272 52.628L311.28 52.194C311.35 52.3527 311.476 52.502 311.658 52.642C311.84 52.782 312.05 52.894 312.288 52.978C312.526 53.062 312.766 53.104 313.009 53.104C313.266 53.104 313.506 53.0643 313.73 52.985C313.954 52.9057 314.136 52.789 314.276 52.635C314.421 52.4763 314.493 52.2873 314.493 52.068C314.493 51.8347 314.414 51.6527 314.255 51.522C314.101 51.3867 313.905 51.2817 313.667 51.207C313.434 51.1277 313.196 51.053 312.953 50.983C312.472 50.8617 312.043 50.717 311.665 50.549C311.287 50.3763 310.988 50.1593 310.769 49.898C310.554 49.632 310.447 49.2937 310.447 48.883C310.447 48.449 310.566 48.0733 310.804 47.756C311.047 47.4387 311.364 47.1937 311.756 47.021C312.148 46.8483 312.568 46.762 313.016 46.762C313.581 46.762 314.096 46.8833 314.563 47.126C315.03 47.3687 315.377 47.6977 315.606 48.113L314.661 48.666C314.582 48.498 314.46 48.351 314.297 48.225C314.134 48.0943 313.947 47.9917 313.737 47.917C313.527 47.8423 313.312 47.8027 313.093 47.798C312.822 47.7887 312.568 47.8237 312.33 47.903C312.097 47.9823 311.908 48.1037 311.763 48.267C311.623 48.4257 311.553 48.624 311.553 48.862C311.553 49.0953 311.628 49.2727 311.777 49.394C311.931 49.5153 312.129 49.6133 312.372 49.688C312.619 49.758 312.888 49.8397 313.177 49.933C313.602 50.0683 313.998 50.2247 314.367 50.402C314.736 50.5793 315.032 50.801 315.256 51.067C315.485 51.333 315.597 51.662 315.592 52.054C315.592 52.4833 315.464 52.859 315.207 53.181C314.95 53.4983 314.617 53.741 314.206 53.909C313.8 54.077 313.364 54.1517 312.897 54.133ZM317.967 57.5H316.791V47H317.967V48.197C318.205 47.7863 318.523 47.455 318.919 47.203C319.316 46.9463 319.787 46.818 320.333 46.818C320.842 46.818 321.318 46.9137 321.761 47.105C322.209 47.2963 322.601 47.5623 322.937 47.903C323.273 48.239 323.537 48.6287 323.728 49.072C323.92 49.5153 324.015 49.9913 324.015 50.5C324.015 51.0087 323.92 51.487 323.728 51.935C323.537 52.383 323.273 52.7773 322.937 53.118C322.601 53.454 322.209 53.7177 321.761 53.909C321.318 54.1003 320.842 54.196 320.333 54.196C319.787 54.196 319.316 54.07 318.919 53.818C318.523 53.5613 318.205 53.2277 317.967 52.817V57.5ZM320.319 47.959C319.867 47.959 319.47 48.0733 319.129 48.302C318.789 48.5307 318.525 48.8363 318.338 49.219C318.156 49.6017 318.065 50.0287 318.065 50.5C318.065 50.9667 318.156 51.3937 318.338 51.781C318.525 52.1683 318.786 52.4763 319.122 52.705C319.463 52.9337 319.862 53.048 320.319 53.048C320.772 53.048 321.187 52.936 321.565 52.712C321.943 52.4833 322.247 52.1777 322.475 51.795C322.704 51.4077 322.818 50.976 322.818 50.5C322.818 50.0333 322.706 49.6087 322.482 49.226C322.258 48.8387 321.957 48.5307 321.579 48.302C321.201 48.0733 320.781 47.959 320.319 47.959ZM328.225 54.182C327.581 54.182 326.993 54.0163 326.461 53.685C325.933 53.3537 325.511 52.9103 325.194 52.355C324.881 51.795 324.725 51.1767 324.725 50.5C324.725 49.9867 324.816 49.5083 324.998 49.065C325.18 48.617 325.429 48.225 325.747 47.889C326.069 47.5483 326.442 47.2823 326.867 47.091C327.291 46.8997 327.744 46.804 328.225 46.804C328.752 46.804 329.235 46.9113 329.674 47.126C330.117 47.336 330.495 47.63 330.808 48.008C331.125 48.386 331.361 48.8247 331.515 49.324C331.673 49.8233 331.732 50.3577 331.69 50.927H325.978C326.034 51.3237 326.164 51.6783 326.37 51.991C326.575 52.299 326.836 52.544 327.154 52.726C327.476 52.908 327.833 53.0013 328.225 53.006C328.645 53.006 329.025 52.8987 329.366 52.684C329.706 52.4647 329.982 52.166 330.192 51.788L331.389 52.068C331.109 52.6887 330.686 53.1973 330.122 53.594C329.557 53.986 328.925 54.182 328.225 54.182ZM325.943 50.003H330.507C330.469 49.611 330.343 49.254 330.129 48.932C329.914 48.6053 329.641 48.344 329.31 48.148C328.978 47.952 328.617 47.854 328.225 47.854C327.833 47.854 327.473 47.9497 327.147 48.141C326.82 48.3323 326.549 48.5913 326.335 48.918C326.125 49.24 325.994 49.6017 325.943 50.003ZM337.651 52.152L338.701 52.719C338.384 53.1623 337.98 53.517 337.49 53.783C337.005 54.049 336.478 54.182 335.908 54.182C335.264 54.182 334.676 54.0163 334.144 53.685C333.617 53.3537 333.195 52.9103 332.877 52.355C332.565 51.795 332.408 51.1767 332.408 50.5C332.408 49.9867 332.499 49.5083 332.681 49.065C332.863 48.617 333.113 48.225 333.43 47.889C333.752 47.5483 334.126 47.2823 334.55 47.091C334.975 46.8997 335.428 46.804 335.908 46.804C336.478 46.804 337.005 46.937 337.49 47.203C337.98 47.469 338.384 47.826 338.701 48.274L337.651 48.841C337.427 48.5657 337.161 48.3533 336.853 48.204C336.545 48.0547 336.23 47.98 335.908 47.98C335.474 47.98 335.08 48.0967 334.725 48.33C334.375 48.5587 334.098 48.8643 333.892 49.247C333.687 49.6297 333.584 50.0473 333.584 50.5C333.584 50.9527 333.687 51.3703 333.892 51.753C334.102 52.131 334.382 52.4343 334.732 52.663C335.087 52.8917 335.479 53.006 335.908 53.006C336.254 53.006 336.578 52.9267 336.881 52.768C337.185 52.6093 337.441 52.404 337.651 52.152ZM343.591 48.176H342.002L341.995 54H340.819L340.826 48.176H339.622V47H340.826L340.819 44.802H341.995L342.002 47H343.591V48.176ZM344.778 47H345.954V54H344.778V47ZM345.38 45.859C345.193 45.859 345.037 45.7983 344.911 45.677C344.785 45.5557 344.722 45.404 344.722 45.222C344.722 45.04 344.785 44.8883 344.911 44.767C345.037 44.6457 345.191 44.585 345.373 44.585C345.555 44.585 345.709 44.6457 345.835 44.767C345.961 44.8883 346.024 45.04 346.024 45.222C346.024 45.404 345.961 45.5557 345.835 45.677C345.713 45.7983 345.562 45.859 345.38 45.859ZM350.619 54.182C349.975 54.182 349.387 54.0163 348.855 53.685C348.328 53.3537 347.906 52.9103 347.588 52.355C347.276 51.795 347.119 51.1767 347.119 50.5C347.119 49.9867 347.21 49.5083 347.392 49.065C347.574 48.617 347.824 48.225 348.141 47.889C348.463 47.5483 348.837 47.2823 349.261 47.091C349.686 46.8997 350.139 46.804 350.619 46.804C351.263 46.804 351.849 46.9697 352.376 47.301C352.908 47.6323 353.331 48.078 353.643 48.638C353.961 49.198 354.119 49.8187 354.119 50.5C354.119 51.0087 354.028 51.4847 353.846 51.928C353.664 52.3713 353.412 52.7633 353.09 53.104C352.773 53.44 352.402 53.7037 351.977 53.895C351.557 54.0863 351.105 54.182 350.619 54.182ZM350.619 53.006C351.058 53.006 351.452 52.8917 351.802 52.663C352.157 52.4297 352.435 52.124 352.635 51.746C352.841 51.3633 352.943 50.948 352.943 50.5C352.943 50.0427 352.838 49.6227 352.628 49.24C352.423 48.8573 352.145 48.5517 351.795 48.323C351.445 48.0943 351.053 47.98 350.619 47.98C350.181 47.98 349.786 48.0967 349.436 48.33C349.086 48.5587 348.809 48.8643 348.603 49.247C348.398 49.6297 348.295 50.0473 348.295 50.5C348.295 50.9667 348.4 51.3913 348.61 51.774C348.82 52.152 349.103 52.453 349.457 52.677C349.812 52.8963 350.199 53.006 350.619 53.006ZM361.466 49.646V54H360.29V49.905C360.29 49.5503 360.203 49.2283 360.031 48.939C359.858 48.6497 359.627 48.421 359.338 48.253C359.048 48.0803 358.726 47.994 358.372 47.994C358.022 47.994 357.7 48.0803 357.406 48.253C357.116 48.421 356.885 48.6497 356.713 48.939C356.54 49.2283 356.454 49.5503 356.454 49.905V54H355.278V47H356.454V47.875C356.701 47.5483 357.014 47.2893 357.392 47.098C357.77 46.902 358.18 46.804 358.624 46.804C359.146 46.804 359.622 46.9323 360.052 47.189C360.486 47.441 360.829 47.7817 361.081 48.211C361.337 48.6403 361.466 49.1187 361.466 49.646ZM362.585 54.784L363.019 52.418H364.195L363.369 54.784H362.585ZM369.236 47H370.412V54H369.236V47ZM369.838 45.859C369.652 45.859 369.495 45.7983 369.369 45.677C369.243 45.5557 369.18 45.404 369.18 45.222C369.18 45.04 369.243 44.8883 369.369 44.767C369.495 44.6457 369.649 44.585 369.831 44.585C370.013 44.585 370.167 44.6457 370.293 44.767C370.419 44.8883 370.482 45.04 370.482 45.222C370.482 45.404 370.419 45.5557 370.293 45.677C370.172 45.7983 370.02 45.859 369.838 45.859ZM378.255 49.646V54H377.079V49.905C377.079 49.5503 376.992 49.2283 376.82 48.939C376.647 48.6497 376.416 48.421 376.127 48.253C375.837 48.0803 375.515 47.994 375.161 47.994C374.811 47.994 374.489 48.0803 374.195 48.253C373.905 48.421 373.674 48.6497 373.502 48.939C373.329 49.2283 373.243 49.5503 373.243 49.905V54H372.067V47H373.243V47.875C373.49 47.5483 373.803 47.2893 374.181 47.098C374.559 46.902 374.969 46.804 375.413 46.804C375.935 46.804 376.411 46.9323 376.841 47.189C377.275 47.441 377.618 47.7817 377.87 48.211C378.126 48.6403 378.255 49.1187 378.255 49.646ZM381.789 54.133C381.411 54.119 381.043 54.049 380.683 53.923C380.329 53.7923 380.016 53.6173 379.745 53.398C379.479 53.174 379.286 52.9173 379.164 52.628L380.172 52.194C380.242 52.3527 380.368 52.502 380.55 52.642C380.732 52.782 380.942 52.894 381.18 52.978C381.418 53.062 381.659 53.104 381.901 53.104C382.158 53.104 382.398 53.0643 382.622 52.985C382.846 52.9057 383.028 52.789 383.168 52.635C383.313 52.4763 383.385 52.2873 383.385 52.068C383.385 51.8347 383.306 51.6527 383.147 51.522C382.993 51.3867 382.797 51.2817 382.559 51.207C382.326 51.1277 382.088 51.053 381.845 50.983C381.365 50.8617 380.935 50.717 380.557 50.549C380.179 50.3763 379.881 50.1593 379.661 49.898C379.447 49.632 379.339 49.2937 379.339 48.883C379.339 48.449 379.458 48.0733 379.696 47.756C379.939 47.4387 380.256 47.1937 380.648 47.021C381.04 46.8483 381.46 46.762 381.908 46.762C382.473 46.762 382.989 46.8833 383.455 47.126C383.922 47.3687 384.27 47.6977 384.498 48.113L383.553 48.666C383.474 48.498 383.353 48.351 383.189 48.225C383.026 48.0943 382.839 47.9917 382.629 47.917C382.419 47.8423 382.205 47.8027 381.985 47.798C381.715 47.7887 381.46 47.8237 381.222 47.903C380.989 47.9823 380.8 48.1037 380.655 48.267C380.515 48.4257 380.445 48.624 380.445 48.862C380.445 49.0953 380.52 49.2727 380.669 49.394C380.823 49.5153 381.022 49.6133 381.264 49.688C381.512 49.758 381.78 49.8397 382.069 49.933C382.494 50.0683 382.891 50.2247 383.259 50.402C383.628 50.5793 383.924 50.801 384.148 51.067C384.377 51.333 384.489 51.662 384.484 52.054C384.484 52.4833 384.356 52.859 384.099 53.181C383.843 53.4983 383.509 53.741 383.098 53.909C382.692 54.077 382.256 54.1517 381.789 54.133ZM385.404 51.34V47H386.58V51.081C386.58 51.4357 386.666 51.7577 386.839 52.047C387.011 52.3363 387.242 52.5673 387.532 52.74C387.826 52.908 388.148 52.992 388.498 52.992C388.852 52.992 389.172 52.908 389.457 52.74C389.746 52.5673 389.977 52.3363 390.15 52.047C390.322 51.7577 390.409 51.4357 390.409 51.081V47H391.585L391.592 54H390.416L390.409 53.111C390.161 53.4377 389.849 53.699 389.471 53.895C389.093 54.0863 388.684 54.182 388.246 54.182C387.723 54.182 387.245 54.056 386.811 53.804C386.381 53.5473 386.038 53.2043 385.782 52.775C385.53 52.3457 385.404 51.8673 385.404 51.34ZM392.998 54V47H394.174V47.875C394.422 47.5483 394.734 47.2893 395.112 47.098C395.49 46.902 395.901 46.804 396.344 46.804C396.615 46.804 396.876 46.839 397.128 46.909L396.652 48.085C396.461 48.0243 396.274 47.994 396.092 47.994C395.742 47.994 395.42 48.0803 395.126 48.253C394.837 48.421 394.606 48.6497 394.433 48.939C394.261 49.2283 394.174 49.5503 394.174 49.905V54H392.998ZM403.261 47H404.437V54H403.261L403.212 52.817C402.993 53.223 402.689 53.552 402.302 53.804C401.919 54.056 401.462 54.182 400.93 54.182C400.417 54.182 399.936 54.0863 399.488 53.895C399.04 53.699 398.643 53.4307 398.298 53.09C397.957 52.7447 397.691 52.348 397.5 51.9C397.309 51.452 397.213 50.969 397.213 50.451C397.213 49.9517 397.306 49.4803 397.493 49.037C397.68 48.5937 397.939 48.2063 398.27 47.875C398.606 47.539 398.993 47.2777 399.432 47.091C399.871 46.8997 400.342 46.804 400.846 46.804C401.397 46.804 401.88 46.9347 402.295 47.196C402.71 47.4527 403.046 47.7863 403.303 48.197L403.261 47ZM400.909 53.041C401.371 53.041 401.77 52.929 402.106 52.705C402.447 52.4763 402.708 52.1683 402.89 51.781C403.077 51.3937 403.17 50.9667 403.17 50.5C403.17 50.024 403.077 49.5947 402.89 49.212C402.703 48.8247 402.44 48.519 402.099 48.295C401.763 48.0663 401.366 47.952 400.909 47.952C400.447 47.952 400.027 48.0663 399.649 48.295C399.271 48.5237 398.97 48.8317 398.746 49.219C398.527 49.6017 398.417 50.0287 398.417 50.5C398.417 50.9713 398.531 51.4007 398.76 51.788C398.989 52.1707 399.292 52.4763 399.67 52.705C400.048 52.929 400.461 53.041 400.909 53.041ZM412.024 49.646V54H410.848V49.905C410.848 49.5503 410.762 49.2283 410.589 48.939C410.416 48.6497 410.185 48.421 409.896 48.253C409.607 48.0803 409.285 47.994 408.93 47.994C408.58 47.994 408.258 48.0803 407.964 48.253C407.675 48.421 407.444 48.6497 407.271 48.939C407.098 49.2283 407.012 49.5503 407.012 49.905V54H405.836V47H407.012V47.875C407.259 47.5483 407.572 47.2893 407.95 47.098C408.328 46.902 408.739 46.804 409.182 46.804C409.705 46.804 410.181 46.9323 410.61 47.189C411.044 47.441 411.387 47.7817 411.639 48.211C411.896 48.6403 412.024 49.1187 412.024 49.646ZM418.11 52.152L419.16 52.719C418.843 53.1623 418.439 53.517 417.949 53.783C417.464 54.049 416.937 54.182 416.367 54.182C415.723 54.182 415.135 54.0163 414.603 53.685C414.076 53.3537 413.654 52.9103 413.336 52.355C413.024 51.795 412.867 51.1767 412.867 50.5C412.867 49.9867 412.958 49.5083 413.14 49.065C413.322 48.617 413.572 48.225 413.889 47.889C414.211 47.5483 414.585 47.2823 415.009 47.091C415.434 46.8997 415.887 46.804 416.367 46.804C416.937 46.804 417.464 46.937 417.949 47.203C418.439 47.469 418.843 47.826 419.16 48.274L418.11 48.841C417.886 48.5657 417.62 48.3533 417.312 48.204C417.004 48.0547 416.689 47.98 416.367 47.98C415.933 47.98 415.539 48.0967 415.184 48.33C414.834 48.5587 414.557 48.8643 414.351 49.247C414.146 49.6297 414.043 50.0473 414.043 50.5C414.043 50.9527 414.146 51.3703 414.351 51.753C414.561 52.131 414.841 52.4343 415.191 52.663C415.546 52.8917 415.938 53.006 416.367 53.006C416.713 53.006 417.037 52.9267 417.34 52.768C417.644 52.6093 417.9 52.404 418.11 52.152ZM423.381 54.182C422.737 54.182 422.149 54.0163 421.617 53.685C421.09 53.3537 420.667 52.9103 420.35 52.355C420.037 51.795 419.881 51.1767 419.881 50.5C419.881 49.9867 419.972 49.5083 420.154 49.065C420.336 48.617 420.586 48.225 420.903 47.889C421.225 47.5483 421.598 47.2823 422.023 47.091C422.448 46.8997 422.9 46.804 423.381 46.804C423.908 46.804 424.391 46.9113 424.83 47.126C425.273 47.336 425.651 47.63 425.964 48.008C426.281 48.386 426.517 48.8247 426.671 49.324C426.83 49.8233 426.888 50.3577 426.846 50.927H421.134C421.19 51.3237 421.321 51.6783 421.526 51.991C421.731 52.299 421.993 52.544 422.31 52.726C422.632 52.908 422.989 53.0013 423.381 53.006C423.801 53.006 424.181 52.8987 424.522 52.684C424.863 52.4647 425.138 52.166 425.348 51.788L426.545 52.068C426.265 52.6887 425.843 53.1973 425.278 53.594C424.713 53.986 424.081 54.182 423.381 54.182ZM421.099 50.003H425.663C425.626 49.611 425.5 49.254 425.285 48.932C425.07 48.6053 424.797 48.344 424.466 48.148C424.135 47.952 423.773 47.854 423.381 47.854C422.989 47.854 422.63 47.9497 422.303 48.141C421.976 48.3323 421.706 48.5913 421.491 48.918C421.281 49.24 421.15 49.6017 421.099 50.003Z" fill="#999999"></path></g><defs><clipPath id="clip0_166_1100"><rect width="462.5" height="66" fill="white" transform="translate(0.5)"></rect></clipPath></defs></svg>