<svg xmlns="http://www.w3.org/2000/svg" width="1441" height="68" viewBox="0 0 1441 68" fill="none"><rect width="1441" height="68" fill="#1A1A1A"></rect><path d="M86.16 40.421C85.3853 40.421 84.6597 40.2927 83.983 40.036C83.3063 39.7793 82.7113 39.4153 82.198 38.944C81.6847 38.468 81.2833 37.908 80.994 37.264C80.7047 36.62 80.56 35.913 80.56 35.143C80.56 34.373 80.7047 33.6497 80.994 32.973C81.2833 32.2963 81.6847 31.7013 82.198 31.188C82.7113 30.6747 83.3063 30.2733 83.983 29.984C84.6597 29.6947 85.3853 29.55 86.16 29.55C86.9393 29.55 87.6673 29.697 88.344 29.991C89.0207 30.2803 89.6133 30.6817 90.122 31.195C90.6353 31.7083 91.0343 32.3033 91.319 32.98C91.6083 33.652 91.753 34.373 91.753 35.143C91.753 35.5443 91.7017 35.9433 91.599 36.34C91.501 36.732 91.3563 37.089 91.165 37.411C90.9783 37.733 90.745 37.992 90.465 38.188C90.1897 38.3793 89.8747 38.475 89.52 38.475C89.2447 38.475 88.9717 38.4143 88.701 38.293C88.435 38.167 88.2087 37.9967 88.022 37.782C87.84 37.5673 87.735 37.3293 87.707 37.068C87.5157 37.3293 87.2707 37.5393 86.972 37.698C86.678 37.852 86.3397 37.929 85.957 37.929C85.4483 37.929 84.9817 37.8053 84.557 37.558C84.137 37.306 83.801 36.97 83.549 36.55C83.3017 36.1253 83.178 35.6563 83.178 35.143C83.178 34.6297 83.3017 34.163 83.549 33.743C83.801 33.323 84.137 32.9893 84.557 32.742C84.9817 32.49 85.4483 32.364 85.957 32.364C86.3257 32.364 86.671 32.4387 86.993 32.588C87.3197 32.7373 87.574 32.9357 87.756 33.183V32.504L88.673 32.665V36.571C88.673 36.781 88.7523 36.956 88.911 37.096C89.0697 37.2313 89.2517 37.299 89.457 37.299C89.7183 37.299 89.9307 37.1847 90.094 36.956C90.262 36.7227 90.3833 36.4403 90.458 36.109C90.5373 35.773 90.577 35.451 90.577 35.143C90.577 34.5317 90.4603 33.96 90.227 33.428C89.9983 32.8913 89.681 32.4223 89.275 32.021C88.869 31.615 88.4 31.2977 87.868 31.069C87.336 30.8403 86.7667 30.726 86.16 30.726C85.5533 30.726 84.9817 30.8403 84.445 31.069C83.913 31.2977 83.444 31.615 83.038 32.021C82.632 32.4223 82.3123 32.8913 82.079 33.428C81.8503 33.96 81.736 34.5317 81.736 35.143C81.736 35.7543 81.8503 36.312 82.079 36.816C82.3077 37.3153 82.625 37.747 83.031 38.111C83.437 38.475 83.906 38.7573 84.438 38.958C84.9747 39.154 85.5487 39.252 86.16 39.252V40.421ZM86.041 37.012C86.3863 37.012 86.685 36.9187 86.937 36.732C87.189 36.5453 87.385 36.305 87.525 36.011C87.665 35.7123 87.735 35.3997 87.735 35.073C87.735 34.7603 87.6697 34.4687 87.539 34.198C87.4083 33.9227 87.217 33.7033 86.965 33.54C86.713 33.372 86.405 33.288 86.041 33.288C85.6957 33.288 85.383 33.372 85.103 33.54C84.823 33.7033 84.599 33.925 84.431 34.205C84.263 34.485 84.179 34.7977 84.179 35.143C84.179 35.493 84.263 35.808 84.431 36.088C84.6037 36.368 84.83 36.592 85.11 36.76C85.3947 36.928 85.705 37.012 86.041 37.012ZM92.7944 39V37.957C93.1537 37.635 93.5574 37.2757 94.0054 36.879C94.4534 36.4777 94.899 36.06 95.3424 35.626C95.7904 35.1873 96.201 34.7533 96.5744 34.324C96.9477 33.8947 97.2487 33.4887 97.4774 33.106C97.706 32.7187 97.8204 32.3803 97.8204 32.091C97.8204 31.7457 97.7364 31.4307 97.5684 31.146C97.4004 30.8567 97.174 30.6257 96.8894 30.453C96.6094 30.2803 96.2967 30.194 95.9514 30.194C95.606 30.194 95.2887 30.2803 94.9994 30.453C94.7147 30.6257 94.486 30.8567 94.3134 31.146C94.1454 31.4307 94.0614 31.7457 94.0614 32.091H92.8854C92.8854 31.517 93.0254 30.999 93.3054 30.537C93.5854 30.0703 93.9564 29.7017 94.4184 29.431C94.8804 29.1557 95.3914 29.018 95.9514 29.018C96.5114 29.018 97.02 29.1557 97.4774 29.431C97.9394 29.7063 98.308 30.0773 98.5834 30.544C98.8587 31.006 98.9964 31.5217 98.9964 32.091C98.9964 32.4177 98.917 32.77 98.7584 33.148C98.5997 33.5213 98.3827 33.9063 98.1074 34.303C97.832 34.6997 97.5194 35.101 97.1694 35.507C96.8194 35.9083 96.4507 36.305 96.0634 36.697C95.676 37.089 95.291 37.4647 94.9084 37.824H99.1224V39H92.7944ZM103.713 39.182C103.129 39.182 102.607 39.0513 102.145 38.79C101.683 38.524 101.286 38.1577 100.955 37.691C100.623 37.2243 100.371 36.6853 100.199 36.074C100.026 35.458 99.9395 34.8 99.9395 34.1C99.9395 33.4 100.026 32.742 100.199 32.126C100.371 31.51 100.623 30.971 100.955 30.509C101.286 30.0423 101.683 29.6783 102.145 29.417C102.607 29.151 103.129 29.018 103.713 29.018C104.291 29.018 104.812 29.151 105.274 29.417C105.74 29.6783 106.135 30.0423 106.457 30.509C106.783 30.971 107.033 31.51 107.206 32.126C107.383 32.742 107.472 33.4 107.472 34.1C107.472 34.8 107.383 35.458 107.206 36.074C107.033 36.6853 106.783 37.2243 106.457 37.691C106.135 38.1577 105.74 38.524 105.274 38.79C104.812 39.0513 104.291 39.182 103.713 39.182ZM103.713 38.006C104.296 38.006 104.784 37.8263 105.176 37.467C105.572 37.103 105.869 36.6247 106.065 36.032C106.261 35.4393 106.359 34.7953 106.359 34.1C106.359 33.3673 106.256 32.707 106.051 32.119C105.85 31.5263 105.551 31.0573 105.155 30.712C104.763 30.3667 104.282 30.194 103.713 30.194C103.265 30.194 102.873 30.299 102.537 30.509C102.205 30.719 101.93 31.006 101.711 31.37C101.491 31.734 101.326 32.1517 101.214 32.623C101.106 33.0897 101.053 33.582 101.053 34.1C101.053 34.7953 101.153 35.4417 101.354 36.039C101.554 36.6317 101.851 37.1077 102.243 37.467C102.639 37.8263 103.129 38.006 103.713 38.006ZM108.363 39V37.957C108.722 37.635 109.126 37.2757 109.574 36.879C110.022 36.4777 110.467 36.06 110.911 35.626C111.359 35.1873 111.769 34.7533 112.143 34.324C112.516 33.8947 112.817 33.4887 113.046 33.106C113.274 32.7187 113.389 32.3803 113.389 32.091C113.389 31.7457 113.305 31.4307 113.137 31.146C112.969 30.8567 112.742 30.6257 112.458 30.453C112.178 30.2803 111.865 30.194 111.52 30.194C111.174 30.194 110.857 30.2803 110.568 30.453C110.283 30.6257 110.054 30.8567 109.882 31.146C109.714 31.4307 109.63 31.7457 109.63 32.091H108.454C108.454 31.517 108.594 30.999 108.874 30.537C109.154 30.0703 109.525 29.7017 109.987 29.431C110.449 29.1557 110.96 29.018 111.52 29.018C112.08 29.018 112.588 29.1557 113.046 29.431C113.508 29.7063 113.876 30.0773 114.152 30.544C114.427 31.006 114.565 31.5217 114.565 32.091C114.565 32.4177 114.485 32.77 114.327 33.148C114.168 33.5213 113.951 33.9063 113.676 34.303C113.4 34.6997 113.088 35.101 112.738 35.507C112.388 35.9083 112.019 36.305 111.632 36.697C111.244 37.089 110.859 37.4647 110.477 37.824H114.691V39H108.363ZM118.915 39.182C118.323 39.182 117.795 39.049 117.333 38.783C116.876 38.5123 116.517 38.153 116.255 37.705C115.994 37.2523 115.863 36.7507 115.863 36.2H117.039C117.039 36.5313 117.116 36.8347 117.27 37.11C117.424 37.3807 117.641 37.5977 117.921 37.761C118.201 37.9243 118.533 38.006 118.915 38.006C119.247 38.006 119.555 37.9243 119.839 37.761C120.129 37.5977 120.362 37.3807 120.539 37.11C120.717 36.8347 120.805 36.5313 120.805 36.2C120.805 35.7847 120.698 35.4393 120.483 35.164C120.273 34.884 119.979 34.6763 119.601 34.541C119.228 34.401 118.801 34.331 118.32 34.331V33.386C118.983 33.386 119.513 33.2483 119.909 32.973C120.311 32.6977 120.511 32.2917 120.511 31.755C120.511 31.4703 120.434 31.209 120.28 30.971C120.126 30.733 119.923 30.544 119.671 30.404C119.424 30.2593 119.158 30.187 118.873 30.187C118.584 30.187 118.306 30.2593 118.04 30.404C117.774 30.544 117.557 30.733 117.389 30.971C117.221 31.209 117.137 31.4703 117.137 31.755H115.961C115.961 31.377 116.038 31.0223 116.192 30.691C116.351 30.3597 116.566 30.068 116.836 29.816C117.112 29.564 117.422 29.368 117.767 29.228C118.113 29.0833 118.477 29.011 118.859 29.011C119.359 29.011 119.823 29.1347 120.252 29.382C120.682 29.6293 121.027 29.9607 121.288 30.376C121.554 30.7913 121.687 31.251 121.687 31.755C121.687 32.2077 121.573 32.6253 121.344 33.008C121.116 33.3907 120.805 33.659 120.413 33.813C120.754 33.9297 121.041 34.1117 121.274 34.359C121.508 34.6017 121.683 34.8817 121.799 35.199C121.921 35.5163 121.981 35.85 121.981 36.2C121.981 36.746 121.839 37.2453 121.554 37.698C121.274 38.1507 120.901 38.5123 120.434 38.783C119.972 39.049 119.466 39.182 118.915 39.182ZM126.438 39V29.2H132.451V30.376H127.614V33.162H131.576V34.338H127.614V37.824H132.451V39H126.438ZM136.035 39.133C135.657 39.119 135.289 39.049 134.929 38.923C134.575 38.7923 134.262 38.6173 133.991 38.398C133.725 38.174 133.532 37.9173 133.41 37.628L134.418 37.194C134.488 37.3527 134.614 37.502 134.796 37.642C134.978 37.782 135.188 37.894 135.426 37.978C135.664 38.062 135.905 38.104 136.147 38.104C136.404 38.104 136.644 38.0643 136.868 37.985C137.092 37.9057 137.274 37.789 137.414 37.635C137.559 37.4763 137.631 37.2873 137.631 37.068C137.631 36.8347 137.552 36.6527 137.393 36.522C137.239 36.3867 137.043 36.2817 136.805 36.207C136.572 36.1277 136.334 36.053 136.091 35.983C135.611 35.8617 135.181 35.717 134.803 35.549C134.425 35.3763 134.127 35.1593 133.907 34.898C133.693 34.632 133.585 34.2937 133.585 33.883C133.585 33.449 133.704 33.0733 133.942 32.756C134.185 32.4387 134.502 32.1937 134.894 32.021C135.286 31.8483 135.706 31.762 136.154 31.762C136.719 31.762 137.235 31.8833 137.701 32.126C138.168 32.3687 138.516 32.6977 138.744 33.113L137.799 33.666C137.72 33.498 137.599 33.351 137.435 33.225C137.272 33.0943 137.085 32.9917 136.875 32.917C136.665 32.8423 136.451 32.8027 136.231 32.798C135.961 32.7887 135.706 32.8237 135.468 32.903C135.235 32.9823 135.046 33.1037 134.901 33.267C134.761 33.4257 134.691 33.624 134.691 33.862C134.691 34.0953 134.766 34.2727 134.915 34.394C135.069 34.5153 135.268 34.6133 135.51 34.688C135.758 34.758 136.026 34.8397 136.315 34.933C136.74 35.0683 137.137 35.2247 137.505 35.402C137.874 35.5793 138.17 35.801 138.394 36.067C138.623 36.333 138.735 36.662 138.73 37.054C138.73 37.4833 138.602 37.859 138.345 38.181C138.089 38.4983 137.755 38.741 137.344 38.909C136.938 39.077 136.502 39.1517 136.035 39.133ZM143.472 33.176H141.883L141.876 39H140.7L140.707 33.176H139.503V32H140.707L140.7 29.802H141.876L141.883 32H143.472V33.176ZM150.093 32H151.269V39H150.093L150.044 37.817C149.825 38.223 149.521 38.552 149.134 38.804C148.751 39.056 148.294 39.182 147.762 39.182C147.249 39.182 146.768 39.0863 146.32 38.895C145.872 38.699 145.475 38.4307 145.13 38.09C144.789 37.7447 144.523 37.348 144.332 36.9C144.141 36.452 144.045 35.969 144.045 35.451C144.045 34.9517 144.138 34.4803 144.325 34.037C144.512 33.5937 144.771 33.2063 145.102 32.875C145.438 32.539 145.825 32.2777 146.264 32.091C146.703 31.8997 147.174 31.804 147.678 31.804C148.229 31.804 148.712 31.9347 149.127 32.196C149.542 32.4527 149.878 32.7863 150.135 33.197L150.093 32ZM147.741 38.041C148.203 38.041 148.602 37.929 148.938 37.705C149.279 37.4763 149.54 37.1683 149.722 36.781C149.909 36.3937 150.002 35.9667 150.002 35.5C150.002 35.024 149.909 34.5947 149.722 34.212C149.535 33.8247 149.272 33.519 148.931 33.295C148.595 33.0663 148.198 32.952 147.741 32.952C147.279 32.952 146.859 33.0663 146.481 33.295C146.103 33.5237 145.802 33.8317 145.578 34.219C145.359 34.6017 145.249 35.0287 145.249 35.5C145.249 35.9713 145.363 36.4007 145.592 36.788C145.821 37.1707 146.124 37.4763 146.502 37.705C146.88 37.929 147.293 38.041 147.741 38.041ZM156.21 33.176H154.621L154.614 39H153.438L153.445 33.176H152.241V32H153.445L153.438 29.802H154.614L154.621 32H156.21V33.176ZM160.283 39.182C159.639 39.182 159.051 39.0163 158.519 38.685C157.992 38.3537 157.569 37.9103 157.252 37.355C156.939 36.795 156.783 36.1767 156.783 35.5C156.783 34.9867 156.874 34.5083 157.056 34.065C157.238 33.617 157.488 33.225 157.805 32.889C158.127 32.5483 158.5 32.2823 158.925 32.091C159.35 31.8997 159.802 31.804 160.283 31.804C160.81 31.804 161.293 31.9113 161.732 32.126C162.175 32.336 162.553 32.63 162.866 33.008C163.183 33.386 163.419 33.8247 163.573 34.324C163.732 34.8233 163.79 35.3577 163.748 35.927H158.036C158.092 36.3237 158.223 36.6783 158.428 36.991C158.633 37.299 158.895 37.544 159.212 37.726C159.534 37.908 159.891 38.0013 160.283 38.006C160.703 38.006 161.083 37.8987 161.424 37.684C161.765 37.4647 162.04 37.166 162.25 36.788L163.447 37.068C163.167 37.6887 162.745 38.1973 162.18 38.594C161.615 38.986 160.983 39.182 160.283 39.182ZM158.001 35.003H162.565C162.528 34.611 162.402 34.254 162.187 33.932C161.972 33.6053 161.699 33.344 161.368 33.148C161.037 32.952 160.675 32.854 160.283 32.854C159.891 32.854 159.532 32.9497 159.205 33.141C158.878 33.3323 158.608 33.5913 158.393 33.918C158.183 34.24 158.052 34.6017 158.001 35.003ZM164.748 32H165.924V39H164.748V32ZM165.35 30.859C165.163 30.859 165.007 30.7983 164.881 30.677C164.755 30.5557 164.692 30.404 164.692 30.222C164.692 30.04 164.755 29.8883 164.881 29.767C165.007 29.6457 165.161 29.585 165.343 29.585C165.525 29.585 165.679 29.6457 165.805 29.767C165.931 29.8883 165.994 30.04 165.994 30.222C165.994 30.404 165.931 30.5557 165.805 30.677C165.684 30.7983 165.532 30.859 165.35 30.859ZM173.682 34.646V39H172.506V34.905C172.506 34.5503 172.42 34.2283 172.247 33.939C172.074 33.6497 171.843 33.421 171.554 33.253C171.265 33.0803 170.943 32.994 170.588 32.994C170.238 32.994 169.916 33.0803 169.622 33.253C169.333 33.421 169.102 33.6497 168.929 33.939C168.756 34.2283 168.67 34.5503 168.67 34.905V39H167.494V32H168.67V32.875C168.917 32.5483 169.23 32.2893 169.608 32.098C169.986 31.902 170.397 31.804 170.84 31.804C171.363 31.804 171.839 31.9323 172.268 32.189C172.702 32.441 173.045 32.7817 173.297 33.211C173.554 33.6403 173.682 34.1187 173.682 34.646ZM175.355 39.182C175.178 39.182 175.026 39.119 174.9 38.993C174.779 38.867 174.718 38.713 174.718 38.531C174.718 38.3583 174.779 38.209 174.9 38.083C175.026 37.957 175.178 37.894 175.355 37.894C175.537 37.894 175.691 37.957 175.817 38.083C175.943 38.209 176.006 38.3583 176.006 38.531C176.006 38.713 175.943 38.867 175.817 38.993C175.691 39.119 175.537 39.182 175.355 39.182ZM184.17 29.2H185.591L189.154 39H187.908L187.18 36.998H182.581L181.86 39H180.607L184.17 29.2ZM183.015 35.822H186.746L184.877 30.705L183.015 35.822ZM190.346 39V28.5H191.522V39H190.346ZM193.119 39V28.5H194.295V39H193.119ZM199.172 39V29.2H202.616C203.138 29.2 203.61 29.3283 204.03 29.585C204.454 29.8417 204.79 30.1893 205.038 30.628C205.29 31.062 205.416 31.5473 205.416 32.084C205.416 32.5553 205.322 32.9847 205.136 33.372C204.949 33.7593 204.692 34.0837 204.366 34.345C204.044 34.6017 203.677 34.779 203.267 34.877L205.647 39H204.289L201.951 34.975H200.348V39H199.172ZM200.348 33.799H202.497C202.814 33.799 203.106 33.722 203.372 33.568C203.638 33.4093 203.848 33.197 204.002 32.931C204.16 32.6603 204.24 32.357 204.24 32.021C204.24 31.6803 204.16 31.377 204.002 31.111C203.848 30.8403 203.638 30.628 203.372 30.474C203.106 30.3153 202.814 30.236 202.497 30.236H200.348V33.799ZM206.881 32H208.057V39H206.881V32ZM207.483 30.859C207.296 30.859 207.14 30.7983 207.014 30.677C206.888 30.5557 206.825 30.404 206.825 30.222C206.825 30.04 206.888 29.8883 207.014 29.767C207.14 29.6457 207.294 29.585 207.476 29.585C207.658 29.585 207.812 29.6457 207.938 29.767C208.064 29.8883 208.127 30.04 208.127 30.222C208.127 30.404 208.064 30.5557 207.938 30.677C207.816 30.7983 207.665 30.859 207.483 30.859ZM215.025 32H216.201V39.224C216.201 39.686 216.101 40.1153 215.9 40.512C215.704 40.9133 215.438 41.261 215.102 41.555C214.766 41.8537 214.384 42.0847 213.954 42.248C213.525 42.416 213.077 42.5 212.61 42.5C212.125 42.5 211.656 42.3903 211.203 42.171C210.751 41.9563 210.354 41.667 210.013 41.303C209.677 40.9437 209.435 40.54 209.285 40.092L210.363 39.602C210.452 39.924 210.611 40.2133 210.839 40.47C211.073 40.7313 211.343 40.9367 211.651 41.086C211.964 41.24 212.284 41.317 212.61 41.317C212.918 41.317 213.215 41.2633 213.499 41.156C213.789 41.0487 214.048 40.8993 214.276 40.708C214.51 40.5213 214.692 40.2997 214.822 40.043C214.958 39.791 215.025 39.518 215.025 39.224V37.831C214.787 38.2323 214.472 38.559 214.08 38.811C213.693 39.0583 213.24 39.182 212.722 39.182C212.228 39.182 211.763 39.0863 211.329 38.895C210.895 38.7037 210.515 38.44 210.188 38.104C209.862 37.7633 209.605 37.3713 209.418 36.928C209.232 36.4847 209.138 36.0087 209.138 35.5C209.138 34.9913 209.232 34.5153 209.418 34.072C209.605 33.624 209.862 33.232 210.188 32.896C210.515 32.5553 210.895 32.2893 211.329 32.098C211.763 31.9067 212.228 31.811 212.722 31.811C213.24 31.811 213.693 31.9347 214.08 32.182C214.472 32.4293 214.787 32.756 215.025 33.162V32ZM212.729 38.041C213.182 38.041 213.574 37.9243 213.905 37.691C214.241 37.4577 214.5 37.1473 214.682 36.76C214.864 36.3727 214.955 35.9527 214.955 35.5C214.955 35.0333 214.862 34.6087 214.675 34.226C214.493 33.8387 214.234 33.5307 213.898 33.302C213.567 33.0687 213.177 32.952 212.729 32.952C212.291 32.952 211.889 33.0663 211.525 33.295C211.161 33.5237 210.872 33.8317 210.657 34.219C210.447 34.6017 210.342 35.0287 210.342 35.5C210.342 35.9713 210.45 36.4007 210.664 36.788C210.884 37.1707 211.173 37.4763 211.532 37.705C211.896 37.929 212.295 38.041 212.729 38.041ZM223.989 34.646V39H222.813V34.905C222.813 34.5503 222.726 34.2283 222.554 33.939C222.381 33.6497 222.15 33.421 221.861 33.253C221.571 33.0803 221.249 32.994 220.895 32.994C220.545 32.994 220.223 33.0803 219.929 33.253C219.639 33.421 219.408 33.6497 219.236 33.939C219.063 34.2283 218.977 34.5503 218.977 34.905V39H217.801V28.5H218.977V32.875C219.224 32.5483 219.537 32.2893 219.915 32.098C220.293 31.902 220.703 31.804 221.147 31.804C221.669 31.804 222.145 31.9323 222.575 32.189C223.009 32.441 223.352 32.7817 223.604 33.211C223.86 33.6403 223.989 34.1187 223.989 34.646ZM228.93 33.176H227.341L227.334 39H226.158L226.165 33.176H224.961V32H226.165L226.158 29.802H227.334L227.341 32H228.93V33.176ZM232.168 39.133C231.79 39.119 231.421 39.049 231.062 38.923C230.707 38.7923 230.395 38.6173 230.124 38.398C229.858 38.174 229.664 37.9173 229.543 37.628L230.551 37.194C230.621 37.3527 230.747 37.502 230.929 37.642C231.111 37.782 231.321 37.894 231.559 37.978C231.797 38.062 232.037 38.104 232.28 38.104C232.537 38.104 232.777 38.0643 233.001 37.985C233.225 37.9057 233.407 37.789 233.547 37.635C233.692 37.4763 233.764 37.2873 233.764 37.068C233.764 36.8347 233.685 36.6527 233.526 36.522C233.372 36.3867 233.176 36.2817 232.938 36.207C232.705 36.1277 232.467 36.053 232.224 35.983C231.743 35.8617 231.314 35.717 230.936 35.549C230.558 35.3763 230.259 35.1593 230.04 34.898C229.825 34.632 229.718 34.2937 229.718 33.883C229.718 33.449 229.837 33.0733 230.075 32.756C230.318 32.4387 230.635 32.1937 231.027 32.021C231.419 31.8483 231.839 31.762 232.287 31.762C232.852 31.762 233.367 31.8833 233.834 32.126C234.301 32.3687 234.648 32.6977 234.877 33.113L233.932 33.666C233.853 33.498 233.731 33.351 233.568 33.225C233.405 33.0943 233.218 32.9917 233.008 32.917C232.798 32.8423 232.583 32.8027 232.364 32.798C232.093 32.7887 231.839 32.8237 231.601 32.903C231.368 32.9823 231.179 33.1037 231.034 33.267C230.894 33.4257 230.824 33.624 230.824 33.862C230.824 34.0953 230.899 34.2727 231.048 34.394C231.202 34.5153 231.4 34.6133 231.643 34.688C231.89 34.758 232.159 34.8397 232.448 34.933C232.873 35.0683 233.269 35.2247 233.638 35.402C234.007 35.5793 234.303 35.801 234.527 36.067C234.756 36.333 234.868 36.662 234.863 37.054C234.863 37.4833 234.735 37.859 234.478 38.181C234.221 38.4983 233.888 38.741 233.477 38.909C233.071 39.077 232.635 39.1517 232.168 39.133ZM239.258 39V29.2H242.702C243.224 29.2 243.696 29.3283 244.116 29.585C244.54 29.8417 244.876 30.1893 245.124 30.628C245.376 31.062 245.502 31.5473 245.502 32.084C245.502 32.5553 245.408 32.9847 245.222 33.372C245.035 33.7593 244.778 34.0837 244.452 34.345C244.13 34.6017 243.763 34.779 243.353 34.877L245.733 39H244.375L242.037 34.975H240.434V39H239.258ZM240.434 33.799H242.583C242.9 33.799 243.192 33.722 243.458 33.568C243.724 33.4093 243.934 33.197 244.088 32.931C244.246 32.6603 244.326 32.357 244.326 32.021C244.326 31.6803 244.246 31.377 244.088 31.111C243.934 30.8403 243.724 30.628 243.458 30.474C243.192 30.3153 242.9 30.236 242.583 30.236H240.434V33.799ZM249.882 39.182C249.238 39.182 248.65 39.0163 248.118 38.685C247.591 38.3537 247.169 37.9103 246.851 37.355C246.539 36.795 246.382 36.1767 246.382 35.5C246.382 34.9867 246.473 34.5083 246.655 34.065C246.837 33.617 247.087 33.225 247.404 32.889C247.726 32.5483 248.1 32.2823 248.524 32.091C248.949 31.8997 249.402 31.804 249.882 31.804C250.41 31.804 250.893 31.9113 251.331 32.126C251.775 32.336 252.153 32.63 252.465 33.008C252.783 33.386 253.018 33.8247 253.172 34.324C253.331 34.8233 253.389 35.3577 253.347 35.927H247.635C247.691 36.3237 247.822 36.6783 248.027 36.991C248.233 37.299 248.494 37.544 248.811 37.726C249.133 37.908 249.49 38.0013 249.882 38.006C250.302 38.006 250.683 37.8987 251.023 37.684C251.364 37.4647 251.639 37.166 251.849 36.788L253.046 37.068C252.766 37.6887 252.344 38.1973 251.779 38.594C251.215 38.986 250.582 39.182 249.882 39.182ZM247.6 35.003H252.164C252.127 34.611 252.001 34.254 251.786 33.932C251.572 33.6053 251.299 33.344 250.967 33.148C250.636 32.952 250.274 32.854 249.882 32.854C249.49 32.854 249.131 32.9497 248.804 33.141C248.478 33.3323 248.207 33.5913 247.992 33.918C247.782 34.24 247.652 34.6017 247.6 35.003ZM256.605 39.133C256.227 39.119 255.859 39.049 255.499 38.923C255.145 38.7923 254.832 38.6173 254.561 38.398C254.295 38.174 254.102 37.9173 253.98 37.628L254.988 37.194C255.058 37.3527 255.184 37.502 255.366 37.642C255.548 37.782 255.758 37.894 255.996 37.978C256.234 38.062 256.475 38.104 256.717 38.104C256.974 38.104 257.214 38.0643 257.438 37.985C257.662 37.9057 257.844 37.789 257.984 37.635C258.129 37.4763 258.201 37.2873 258.201 37.068C258.201 36.8347 258.122 36.6527 257.963 36.522C257.809 36.3867 257.613 36.2817 257.375 36.207C257.142 36.1277 256.904 36.053 256.661 35.983C256.181 35.8617 255.751 35.717 255.373 35.549C254.995 35.3763 254.697 35.1593 254.477 34.898C254.263 34.632 254.155 34.2937 254.155 33.883C254.155 33.449 254.274 33.0733 254.512 32.756C254.755 32.4387 255.072 32.1937 255.464 32.021C255.856 31.8483 256.276 31.762 256.724 31.762C257.289 31.762 257.805 31.8833 258.271 32.126C258.738 32.3687 259.086 32.6977 259.314 33.113L258.369 33.666C258.29 33.498 258.169 33.351 258.005 33.225C257.842 33.0943 257.655 32.9917 257.445 32.917C257.235 32.8423 257.021 32.8027 256.801 32.798C256.531 32.7887 256.276 32.8237 256.038 32.903C255.805 32.9823 255.616 33.1037 255.471 33.267C255.331 33.4257 255.261 33.624 255.261 33.862C255.261 34.0953 255.336 34.2727 255.485 34.394C255.639 34.5153 255.838 34.6133 256.08 34.688C256.328 34.758 256.596 34.8397 256.885 34.933C257.31 35.0683 257.707 35.2247 258.075 35.402C258.444 35.5793 258.74 35.801 258.964 36.067C259.193 36.333 259.305 36.662 259.3 37.054C259.3 37.4833 259.172 37.859 258.915 38.181C258.659 38.4983 258.325 38.741 257.914 38.909C257.508 39.077 257.072 39.1517 256.605 39.133ZM263.427 39.182C262.783 39.182 262.195 39.0163 261.663 38.685C261.136 38.3537 260.714 37.9103 260.396 37.355C260.084 36.795 259.927 36.1767 259.927 35.5C259.927 34.9867 260.018 34.5083 260.2 34.065C260.382 33.617 260.632 33.225 260.949 32.889C261.271 32.5483 261.645 32.2823 262.069 32.091C262.494 31.8997 262.947 31.804 263.427 31.804C263.955 31.804 264.438 31.9113 264.876 32.126C265.32 32.336 265.698 32.63 266.01 33.008C266.328 33.386 266.563 33.8247 266.717 34.324C266.876 34.8233 266.934 35.3577 266.892 35.927H261.18C261.236 36.3237 261.367 36.6783 261.572 36.991C261.778 37.299 262.039 37.544 262.356 37.726C262.678 37.908 263.035 38.0013 263.427 38.006C263.847 38.006 264.228 37.8987 264.568 37.684C264.909 37.4647 265.184 37.166 265.394 36.788L266.591 37.068C266.311 37.6887 265.889 38.1973 265.324 38.594C264.76 38.986 264.127 39.182 263.427 39.182ZM261.145 35.003H265.709C265.672 34.611 265.546 34.254 265.331 33.932C265.117 33.6053 264.844 33.344 264.512 33.148C264.181 32.952 263.819 32.854 263.427 32.854C263.035 32.854 262.676 32.9497 262.349 33.141C262.023 33.3323 261.752 33.5913 261.537 33.918C261.327 34.24 261.197 34.6017 261.145 35.003ZM267.988 39V32H269.164V32.875C269.411 32.5483 269.724 32.2893 270.102 32.098C270.48 31.902 270.891 31.804 271.334 31.804C271.605 31.804 271.866 31.839 272.118 31.909L271.642 33.085C271.451 33.0243 271.264 32.994 271.082 32.994C270.732 32.994 270.41 33.0803 270.116 33.253C269.827 33.421 269.596 33.6497 269.423 33.939C269.25 34.2283 269.164 34.5503 269.164 34.905V39H267.988ZM276.657 39H275.152L272.597 31.986H273.85L275.901 37.635L277.952 31.986H279.205L276.657 39ZM283.054 39.182C282.41 39.182 281.822 39.0163 281.29 38.685C280.763 38.3537 280.341 37.9103 280.023 37.355C279.711 36.795 279.554 36.1767 279.554 35.5C279.554 34.9867 279.645 34.5083 279.827 34.065C280.009 33.617 280.259 33.225 280.576 32.889C280.898 32.5483 281.272 32.2823 281.696 32.091C282.121 31.8997 282.574 31.804 283.054 31.804C283.582 31.804 284.065 31.9113 284.503 32.126C284.947 32.336 285.325 32.63 285.637 33.008C285.955 33.386 286.19 33.8247 286.344 34.324C286.503 34.8233 286.561 35.3577 286.519 35.927H280.807C280.863 36.3237 280.994 36.6783 281.199 36.991C281.405 37.299 281.666 37.544 281.983 37.726C282.305 37.908 282.662 38.0013 283.054 38.006C283.474 38.006 283.855 37.8987 284.195 37.684C284.536 37.4647 284.811 37.166 285.021 36.788L286.218 37.068C285.938 37.6887 285.516 38.1973 284.951 38.594C284.387 38.986 283.754 39.182 283.054 39.182ZM280.772 35.003H285.336C285.299 34.611 285.173 34.254 284.958 33.932C284.744 33.6053 284.471 33.344 284.139 33.148C283.808 32.952 283.446 32.854 283.054 32.854C282.662 32.854 282.303 32.9497 281.976 33.141C281.65 33.3323 281.379 33.5913 281.164 33.918C280.954 34.24 280.824 34.6017 280.772 35.003ZM293.209 28.5H294.385V39H293.209V37.81C292.971 38.2207 292.651 38.552 292.25 38.804C291.849 39.056 291.377 39.182 290.836 39.182C290.327 39.182 289.851 39.0863 289.408 38.895C288.965 38.7037 288.573 38.44 288.232 38.104C287.896 37.7633 287.632 37.3713 287.441 36.928C287.25 36.4847 287.154 36.0087 287.154 35.5C287.154 34.9913 287.25 34.5153 287.441 34.072C287.632 33.624 287.896 33.232 288.232 32.896C288.573 32.5553 288.965 32.2893 289.408 32.098C289.851 31.9067 290.327 31.811 290.836 31.811C291.377 31.811 291.849 31.937 292.25 32.189C292.651 32.441 292.971 32.7723 293.209 33.183V28.5ZM290.85 38.041C291.312 38.041 291.711 37.929 292.047 37.705C292.388 37.4763 292.649 37.1683 292.831 36.781C293.018 36.3937 293.111 35.9667 293.111 35.5C293.111 35.024 293.018 34.5947 292.831 34.212C292.644 33.8247 292.381 33.519 292.04 33.295C291.704 33.0663 291.307 32.952 290.85 32.952C290.388 32.952 289.968 33.0663 289.59 33.295C289.217 33.5237 288.918 33.8317 288.694 34.219C288.47 34.6017 288.358 35.0287 288.358 35.5C288.358 35.9713 288.472 36.4007 288.701 36.788C288.93 37.1707 289.233 37.4763 289.611 37.705C289.989 37.929 290.402 38.041 290.85 38.041ZM296.337 39.182C296.16 39.182 296.008 39.119 295.882 38.993C295.761 38.867 295.7 38.713 295.7 38.531C295.7 38.3583 295.761 38.209 295.882 38.083C296.008 37.957 296.16 37.894 296.337 37.894C296.519 37.894 296.673 37.957 296.799 38.083C296.925 38.209 296.988 38.3583 296.988 38.531C296.988 38.713 296.925 38.867 296.799 38.993C296.673 39.119 296.519 39.182 296.337 39.182Z" fill="white"></path><path d="M326.253 29.2V30.376H322.991V39H321.815V30.376H318.56V29.2H326.253ZM329.561 39.182C328.917 39.182 328.329 39.0163 327.797 38.685C327.269 38.3537 326.847 37.9103 326.53 37.355C326.217 36.795 326.061 36.1767 326.061 35.5C326.061 34.9867 326.152 34.5083 326.334 34.065C326.516 33.617 326.765 33.225 327.083 32.889C327.405 32.5483 327.778 32.2823 328.203 32.091C328.627 31.8997 329.08 31.804 329.561 31.804C330.088 31.804 330.571 31.9113 331.01 32.126C331.453 32.336 331.831 32.63 332.144 33.008C332.461 33.386 332.697 33.8247 332.851 34.324C333.009 34.8233 333.068 35.3577 333.026 35.927H327.314C327.37 36.3237 327.5 36.6783 327.706 36.991C327.911 37.299 328.172 37.544 328.49 37.726C328.812 37.908 329.169 38.0013 329.561 38.006C329.981 38.006 330.361 37.8987 330.702 37.684C331.042 37.4647 331.318 37.166 331.528 36.788L332.725 37.068C332.445 37.6887 332.022 38.1973 331.458 38.594C330.893 38.986 330.261 39.182 329.561 39.182ZM327.279 35.003H331.843C331.805 34.611 331.679 34.254 331.465 33.932C331.25 33.6053 330.977 33.344 330.646 33.148C330.314 32.952 329.953 32.854 329.561 32.854C329.169 32.854 328.809 32.9497 328.483 33.141C328.156 33.3323 327.885 33.5913 327.671 33.918C327.461 34.24 327.33 34.6017 327.279 35.003ZM334.121 39V32H335.297V32.875C335.545 32.5483 335.857 32.2893 336.235 32.098C336.613 31.902 337.024 31.804 337.467 31.804C337.738 31.804 337.999 31.839 338.251 31.909L337.775 33.085C337.584 33.0243 337.397 32.994 337.215 32.994C336.865 32.994 336.543 33.0803 336.249 33.253C335.96 33.421 335.729 33.6497 335.556 33.939C335.384 34.2283 335.297 34.5503 335.297 34.905V39H334.121ZM339.055 39V32H340.231V32.875C340.478 32.5483 340.788 32.2893 341.162 32.098C341.54 31.902 341.95 31.804 342.394 31.804C342.912 31.804 343.385 31.93 343.815 32.182C344.244 32.434 344.582 32.7677 344.83 33.183C345.077 32.7677 345.413 32.434 345.838 32.182C346.267 31.93 346.738 31.804 347.252 31.804C347.779 31.804 348.257 31.9323 348.687 32.189C349.116 32.441 349.457 32.7817 349.709 33.211C349.965 33.6403 350.094 34.1187 350.094 34.646V39H348.918V34.926C348.918 34.5807 348.834 34.261 348.666 33.967C348.498 33.673 348.271 33.4373 347.987 33.26C347.702 33.0827 347.387 32.994 347.042 32.994C346.696 32.994 346.381 33.078 346.097 33.246C345.812 33.4093 345.586 33.638 345.418 33.932C345.25 34.2213 345.166 34.5527 345.166 34.926V39H343.99V34.926C343.99 34.5527 343.906 34.2213 343.738 33.932C343.57 33.638 343.341 33.4093 343.052 33.246C342.767 33.078 342.452 32.994 342.107 32.994C341.766 32.994 341.451 33.0827 341.162 33.26C340.877 33.4373 340.651 33.673 340.483 33.967C340.315 34.261 340.231 34.5807 340.231 34.926V39H339.055ZM353.547 39.133C353.169 39.119 352.801 39.049 352.441 38.923C352.087 38.7923 351.774 38.6173 351.503 38.398C351.237 38.174 351.044 37.9173 350.922 37.628L351.93 37.194C352 37.3527 352.126 37.502 352.308 37.642C352.49 37.782 352.7 37.894 352.938 37.978C353.176 38.062 353.417 38.104 353.659 38.104C353.916 38.104 354.156 38.0643 354.38 37.985C354.604 37.9057 354.786 37.789 354.926 37.635C355.071 37.4763 355.143 37.2873 355.143 37.068C355.143 36.8347 355.064 36.6527 354.905 36.522C354.751 36.3867 354.555 36.2817 354.317 36.207C354.084 36.1277 353.846 36.053 353.603 35.983C353.123 35.8617 352.693 35.717 352.315 35.549C351.937 35.3763 351.639 35.1593 351.419 34.898C351.205 34.632 351.097 34.2937 351.097 33.883C351.097 33.449 351.216 33.0733 351.454 32.756C351.697 32.4387 352.014 32.1937 352.406 32.021C352.798 31.8483 353.218 31.762 353.666 31.762C354.231 31.762 354.747 31.8833 355.213 32.126C355.68 32.3687 356.028 32.6977 356.256 33.113L355.311 33.666C355.232 33.498 355.111 33.351 354.947 33.225C354.784 33.0943 354.597 32.9917 354.387 32.917C354.177 32.8423 353.963 32.8027 353.743 32.798C353.473 32.7887 353.218 32.8237 352.98 32.903C352.747 32.9823 352.558 33.1037 352.413 33.267C352.273 33.4257 352.203 33.624 352.203 33.862C352.203 34.0953 352.278 34.2727 352.427 34.394C352.581 34.5153 352.78 34.6133 353.022 34.688C353.27 34.758 353.538 34.8397 353.827 34.933C354.252 35.0683 354.649 35.2247 355.017 35.402C355.386 35.5793 355.682 35.801 355.906 36.067C356.135 36.333 356.247 36.662 356.242 37.054C356.242 37.4833 356.114 37.859 355.857 38.181C355.601 38.4983 355.267 38.741 354.856 38.909C354.45 39.077 354.014 39.1517 353.547 39.133ZM363.241 39.182C362.681 39.182 362.184 39.0467 361.75 38.776C361.316 38.5053 360.975 38.1507 360.728 37.712C360.48 37.2687 360.357 36.795 360.357 36.291C360.357 35.9877 360.387 35.724 360.448 35.5C360.508 35.276 360.613 35.0567 360.763 34.842C360.917 34.6227 361.127 34.373 361.393 34.093C361.659 33.813 361.999 33.4653 362.415 33.05C362.177 32.8073 361.978 32.602 361.82 32.434C361.661 32.2613 361.537 32.1027 361.449 31.958C361.36 31.8133 361.297 31.6663 361.26 31.517C361.222 31.3677 361.204 31.195 361.204 30.999C361.204 30.6163 361.297 30.271 361.484 29.963C361.67 29.6503 361.918 29.4053 362.226 29.228C362.538 29.046 362.877 28.955 363.241 28.955C363.619 28.955 363.962 29.046 364.27 29.228C364.578 29.41 364.823 29.655 365.005 29.963C365.191 30.271 365.285 30.6163 365.285 30.999C365.285 31.1997 365.266 31.377 365.229 31.531C365.191 31.685 365.126 31.8343 365.033 31.979C364.939 32.1237 364.813 32.2823 364.655 32.455C364.501 32.623 364.307 32.8213 364.074 33.05L366.489 35.465L368.085 33.862V35.521L367.308 36.305L369.184 38.167L368.351 39L366.489 37.145C366.069 37.5603 365.716 37.901 365.432 38.167C365.152 38.433 364.902 38.6407 364.683 38.79C364.468 38.9393 364.249 39.042 364.025 39.098C363.805 39.154 363.544 39.182 363.241 39.182ZM363.241 38.006C363.455 38.006 363.637 37.9827 363.787 37.936C363.941 37.8847 364.095 37.7983 364.249 37.677C364.407 37.551 364.594 37.3783 364.809 37.159C365.028 36.935 365.31 36.648 365.656 36.298L363.241 33.883C362.886 34.2423 362.597 34.534 362.373 34.758C362.149 34.9773 361.976 35.164 361.855 35.318C361.738 35.472 361.656 35.6237 361.61 35.773C361.563 35.9223 361.54 36.0997 361.54 36.305C361.54 36.627 361.617 36.9163 361.771 37.173C361.929 37.4297 362.137 37.6327 362.394 37.782C362.65 37.9313 362.933 38.006 363.241 38.006ZM363.241 32.371C363.516 32.0957 363.724 31.888 363.864 31.748C364.008 31.608 364.106 31.4867 364.158 31.384C364.209 31.2813 364.235 31.1483 364.235 30.985C364.235 30.6957 364.134 30.4577 363.934 30.271C363.733 30.0843 363.502 29.991 363.241 29.991C362.97 29.991 362.739 30.089 362.548 30.285C362.356 30.481 362.261 30.7143 362.261 30.985C362.261 31.1483 362.289 31.286 362.345 31.398C362.401 31.5053 362.499 31.629 362.639 31.769C362.779 31.909 362.979 32.1097 363.241 32.371ZM378.321 39.182C377.659 39.182 377.036 39.0513 376.452 38.79C375.869 38.524 375.356 38.16 374.912 37.698C374.474 37.2313 374.128 36.69 373.876 36.074C373.629 35.458 373.505 34.8 373.505 34.1C373.505 33.4 373.629 32.742 373.876 32.126C374.128 31.51 374.474 30.971 374.912 30.509C375.356 30.0423 375.869 29.6783 376.452 29.417C377.036 29.151 377.659 29.018 378.321 29.018C379.115 29.018 379.845 29.2023 380.512 29.571C381.18 29.9397 381.733 30.4297 382.171 31.041L381.128 31.601C380.802 31.1717 380.389 30.831 379.889 30.579C379.395 30.3223 378.872 30.194 378.321 30.194C377.813 30.194 377.337 30.2967 376.893 30.502C376.455 30.7073 376.07 30.9897 375.738 31.349C375.407 31.7083 375.148 32.1237 374.961 32.595C374.775 33.0663 374.681 33.568 374.681 34.1C374.681 34.6367 374.775 35.1407 374.961 35.612C375.153 36.0833 375.414 36.4987 375.745 36.858C376.081 37.2173 376.469 37.4997 376.907 37.705C377.351 37.9057 377.822 38.006 378.321 38.006C378.891 38.006 379.418 37.8777 379.903 37.621C380.393 37.3597 380.802 37.019 381.128 36.599L382.171 37.166C381.733 37.7773 381.18 38.2673 380.512 38.636C379.845 39 379.115 39.182 378.321 39.182ZM386.201 39.182C385.557 39.182 384.969 39.0163 384.437 38.685C383.91 38.3537 383.487 37.9103 383.17 37.355C382.857 36.795 382.701 36.1767 382.701 35.5C382.701 34.9867 382.792 34.5083 382.974 34.065C383.156 33.617 383.406 33.225 383.723 32.889C384.045 32.5483 384.418 32.2823 384.843 32.091C385.268 31.8997 385.72 31.804 386.201 31.804C386.845 31.804 387.431 31.9697 387.958 32.301C388.49 32.6323 388.912 33.078 389.225 33.638C389.542 34.198 389.701 34.8187 389.701 35.5C389.701 36.0087 389.61 36.4847 389.428 36.928C389.246 37.3713 388.994 37.7633 388.672 38.104C388.355 38.44 387.984 38.7037 387.559 38.895C387.139 39.0863 386.686 39.182 386.201 39.182ZM386.201 38.006C386.64 38.006 387.034 37.8917 387.384 37.663C387.739 37.4297 388.016 37.124 388.217 36.746C388.422 36.3633 388.525 35.948 388.525 35.5C388.525 35.0427 388.42 34.6227 388.21 34.24C388.005 33.8573 387.727 33.5517 387.377 33.323C387.027 33.0943 386.635 32.98 386.201 32.98C385.762 32.98 385.368 33.0967 385.018 33.33C384.668 33.5587 384.39 33.8643 384.185 34.247C383.98 34.6297 383.877 35.0473 383.877 35.5C383.877 35.9667 383.982 36.3913 384.192 36.774C384.402 37.152 384.684 37.453 385.039 37.677C385.394 37.8963 385.781 38.006 386.201 38.006ZM396.963 34.646V39H395.787V34.905C395.787 34.5503 395.701 34.2283 395.528 33.939C395.356 33.6497 395.125 33.421 394.835 33.253C394.546 33.0803 394.224 32.994 393.869 32.994C393.519 32.994 393.197 33.0803 392.903 33.253C392.614 33.421 392.383 33.6497 392.21 33.939C392.038 34.2283 391.951 34.5503 391.951 34.905V39H390.775V32H391.951V32.875C392.199 32.5483 392.511 32.2893 392.889 32.098C393.267 31.902 393.678 31.804 394.121 31.804C394.644 31.804 395.12 31.9323 395.549 32.189C395.983 32.441 396.326 32.7817 396.578 33.211C396.835 33.6403 396.963 34.1187 396.963 34.646ZM403.778 28.5H404.954V39H403.778V37.81C403.54 38.2207 403.22 38.552 402.819 38.804C402.417 39.056 401.946 39.182 401.405 39.182C400.896 39.182 400.42 39.0863 399.977 38.895C399.533 38.7037 399.141 38.44 398.801 38.104C398.465 37.7633 398.201 37.3713 398.01 36.928C397.818 36.4847 397.723 36.0087 397.723 35.5C397.723 34.9913 397.818 34.5153 398.01 34.072C398.201 33.624 398.465 33.232 398.801 32.896C399.141 32.5553 399.533 32.2893 399.977 32.098C400.42 31.9067 400.896 31.811 401.405 31.811C401.946 31.811 402.417 31.937 402.819 32.189C403.22 32.441 403.54 32.7723 403.778 33.183V28.5ZM401.419 38.041C401.881 38.041 402.28 37.929 402.616 37.705C402.956 37.4763 403.218 37.1683 403.4 36.781C403.586 36.3937 403.68 35.9667 403.68 35.5C403.68 35.024 403.586 34.5947 403.4 34.212C403.213 33.8247 402.949 33.519 402.609 33.295C402.273 33.0663 401.876 32.952 401.419 32.952C400.957 32.952 400.537 33.0663 400.159 33.295C399.785 33.5237 399.487 33.8317 399.263 34.219C399.039 34.6017 398.927 35.0287 398.927 35.5C398.927 35.9713 399.041 36.4007 399.27 36.788C399.498 37.1707 399.802 37.4763 400.18 37.705C400.558 37.929 400.971 38.041 401.419 38.041ZM406.549 32H407.725V39H406.549V32ZM407.151 30.859C406.964 30.859 406.808 30.7983 406.682 30.677C406.556 30.5557 406.493 30.404 406.493 30.222C406.493 30.04 406.556 29.8883 406.682 29.767C406.808 29.6457 406.962 29.585 407.144 29.585C407.326 29.585 407.48 29.6457 407.606 29.767C407.732 29.8883 407.795 30.04 407.795 30.222C407.795 30.404 407.732 30.5557 407.606 30.677C407.484 30.7983 407.333 30.859 407.151 30.859ZM412.948 33.176H411.359L411.352 39H410.176L410.183 33.176H408.979V32H410.183L410.176 29.802H411.352L411.359 32H412.948V33.176ZM414.051 32H415.227V39H414.051V32ZM414.653 30.859C414.466 30.859 414.31 30.7983 414.184 30.677C414.058 30.5557 413.995 30.404 413.995 30.222C413.995 30.04 414.058 29.8883 414.184 29.767C414.31 29.6457 414.464 29.585 414.646 29.585C414.828 29.585 414.982 29.6457 415.108 29.767C415.234 29.8883 415.297 30.04 415.297 30.222C415.297 30.404 415.234 30.5557 415.108 30.677C414.986 30.7983 414.835 30.859 414.653 30.859ZM419.808 39.182C419.164 39.182 418.576 39.0163 418.044 38.685C417.517 38.3537 417.095 37.9103 416.777 37.355C416.465 36.795 416.308 36.1767 416.308 35.5C416.308 34.9867 416.399 34.5083 416.581 34.065C416.763 33.617 417.013 33.225 417.33 32.889C417.652 32.5483 418.026 32.2823 418.45 32.091C418.875 31.8997 419.328 31.804 419.808 31.804C420.452 31.804 421.038 31.9697 421.565 32.301C422.097 32.6323 422.52 33.078 422.832 33.638C423.15 34.198 423.308 34.8187 423.308 35.5C423.308 36.0087 423.217 36.4847 423.035 36.928C422.853 37.3713 422.601 37.7633 422.279 38.104C421.962 38.44 421.591 38.7037 421.166 38.895C420.746 39.0863 420.294 39.182 419.808 39.182ZM419.808 38.006C420.247 38.006 420.641 37.8917 420.991 37.663C421.346 37.4297 421.624 37.124 421.824 36.746C422.03 36.3633 422.132 35.948 422.132 35.5C422.132 35.0427 422.027 34.6227 421.817 34.24C421.612 33.8573 421.334 33.5517 420.984 33.323C420.634 33.0943 420.242 32.98 419.808 32.98C419.37 32.98 418.975 33.0967 418.625 33.33C418.275 33.5587 417.998 33.8643 417.792 34.247C417.587 34.6297 417.484 35.0473 417.484 35.5C417.484 35.9667 417.589 36.3913 417.799 36.774C418.009 37.152 418.292 37.453 418.646 37.677C419.001 37.8963 419.388 38.006 419.808 38.006ZM430.571 34.646V39H429.395V34.905C429.395 34.5503 429.308 34.2283 429.136 33.939C428.963 33.6497 428.732 33.421 428.443 33.253C428.153 33.0803 427.831 32.994 427.477 32.994C427.127 32.994 426.805 33.0803 426.511 33.253C426.221 33.421 425.99 33.6497 425.818 33.939C425.645 34.2283 425.559 34.5503 425.559 34.905V39H424.383V32H425.559V32.875C425.806 32.5483 426.119 32.2893 426.497 32.098C426.875 31.902 427.285 31.804 427.729 31.804C428.251 31.804 428.727 31.9323 429.157 32.189C429.591 32.441 429.934 32.7817 430.186 33.211C430.442 33.6403 430.571 34.1187 430.571 34.646ZM434.022 39.133C433.644 39.119 433.275 39.049 432.916 38.923C432.561 38.7923 432.248 38.6173 431.978 38.398C431.712 38.174 431.518 37.9173 431.397 37.628L432.405 37.194C432.475 37.3527 432.601 37.502 432.783 37.642C432.965 37.782 433.175 37.894 433.413 37.978C433.651 38.062 433.891 38.104 434.134 38.104C434.39 38.104 434.631 38.0643 434.855 37.985C435.079 37.9057 435.261 37.789 435.401 37.635C435.545 37.4763 435.618 37.2873 435.618 37.068C435.618 36.8347 435.538 36.6527 435.38 36.522C435.226 36.3867 435.03 36.2817 434.792 36.207C434.558 36.1277 434.32 36.053 434.078 35.983C433.597 35.8617 433.168 35.717 432.79 35.549C432.412 35.3763 432.113 35.1593 431.894 34.898C431.679 34.632 431.572 34.2937 431.572 33.883C431.572 33.449 431.691 33.0733 431.929 32.756C432.171 32.4387 432.489 32.1937 432.881 32.021C433.273 31.8483 433.693 31.762 434.141 31.762C434.705 31.762 435.221 31.8833 435.688 32.126C436.154 32.3687 436.502 32.6977 436.731 33.113L435.786 33.666C435.706 33.498 435.585 33.351 435.422 33.225C435.258 33.0943 435.072 32.9917 434.862 32.917C434.652 32.8423 434.437 32.8027 434.218 32.798C433.947 32.7887 433.693 32.8237 433.455 32.903C433.221 32.9823 433.032 33.1037 432.888 33.267C432.748 33.4257 432.678 33.624 432.678 33.862C432.678 34.0953 432.752 34.2727 432.902 34.394C433.056 34.5153 433.254 34.6133 433.497 34.688C433.744 34.758 434.012 34.8397 434.302 34.933C434.726 35.0683 435.123 35.2247 435.492 35.402C435.86 35.5793 436.157 35.801 436.381 36.067C436.609 36.333 436.721 36.662 436.717 37.054C436.717 37.4833 436.588 37.859 436.332 38.181C436.075 38.4983 435.741 38.741 435.331 38.909C434.925 39.077 434.488 39.1517 434.022 39.133Z" fill="white"></path><rect x="1177" y="14" width="40" height="40" rx="20" fill="#141414"></rect><path d="M1200.12 27.32H1202V24.14C1201.09 24.0454 1200.18 23.9986 1199.26 24C1196.54 24 1194.68 25.66 1194.68 28.7V31.32H1191.61V34.88H1194.68V44H1198.36V34.88H1201.42L1201.88 31.32H1198.36V29.05C1198.36 28 1198.64 27.32 1200.12 27.32Z" fill="white"></path><rect x="1225" y="14" width="40" height="40" rx="20" fill="#141414"></rect><path d="M1252.06 25.6666H1237.94C1237.78 25.6644 1237.63 25.6935 1237.48 25.7522C1237.33 25.8109 1237.2 25.8981 1237.08 26.0087C1236.97 26.1194 1236.88 26.2514 1236.82 26.3971C1236.75 26.5429 1236.72 26.6996 1236.72 26.8583V41.1416C1236.72 41.3003 1236.75 41.457 1236.82 41.6028C1236.88 41.7486 1236.97 41.8805 1237.08 41.9912C1237.2 42.1019 1237.33 42.189 1237.48 42.2477C1237.63 42.3064 1237.78 42.3355 1237.94 42.3333H1252.06C1252.22 42.3355 1252.37 42.3064 1252.52 42.2477C1252.67 42.189 1252.8 42.1019 1252.92 41.9912C1253.03 41.8805 1253.12 41.7486 1253.19 41.6028C1253.25 41.457 1253.28 41.3003 1253.28 41.1416V26.8583C1253.28 26.6996 1253.25 26.5429 1253.19 26.3971C1253.12 26.2514 1253.03 26.1194 1252.92 26.0087C1252.8 25.8981 1252.67 25.8109 1252.52 25.7522C1252.37 25.6935 1252.22 25.6644 1252.06 25.6666ZM1241.74 39.6166H1239.24V32.1166H1241.74V39.6166ZM1240.49 31.0666C1240.15 31.0666 1239.82 30.9297 1239.57 30.6859C1239.33 30.4421 1239.19 30.1114 1239.19 29.7666C1239.19 29.4218 1239.33 29.0912 1239.57 28.8474C1239.82 28.6036 1240.15 28.4666 1240.49 28.4666C1240.67 28.4459 1240.86 28.464 1241.04 28.5199C1241.21 28.5757 1241.37 28.668 1241.51 28.7908C1241.65 28.9135 1241.76 29.0639 1241.83 29.232C1241.91 29.4002 1241.95 29.5824 1241.95 29.7666C1241.95 29.9509 1241.91 30.133 1241.83 30.3012C1241.76 30.4694 1241.65 30.6198 1241.51 30.7425C1241.37 30.8652 1241.21 30.9575 1241.04 31.0134C1240.86 31.0692 1240.67 31.0874 1240.49 31.0666ZM1250.76 39.6166H1248.26V35.5916C1248.26 34.5833 1247.9 33.925 1246.99 33.925C1246.71 33.927 1246.44 34.0152 1246.21 34.1776C1245.98 34.34 1245.8 34.5688 1245.71 34.8333C1245.64 35.0292 1245.61 35.2354 1245.63 35.4416V39.6083H1243.13C1243.13 39.6083 1243.13 32.7916 1243.13 32.1083H1245.63V33.1666C1245.85 32.7725 1246.18 32.4479 1246.58 32.2276C1246.98 32.0074 1247.43 31.8998 1247.88 31.9166C1249.55 31.9166 1250.76 32.9916 1250.76 35.3V39.6166Z" fill="white"></path><rect x="1273" y="14" width="40" height="40" rx="20" fill="#141414"></rect><path d="M1301.33 28.8333C1300.71 29.105 1300.04 29.2847 1299.37 29.3666C1300.08 28.9394 1300.62 28.2672 1300.88 27.4749C1300.2 27.875 1299.47 28.1568 1298.7 28.3083C1298.19 27.7521 1297.5 27.3818 1296.76 27.2556C1296.01 27.1294 1295.25 27.2544 1294.58 27.6109C1293.91 27.9674 1293.38 28.5354 1293.07 29.2256C1292.76 29.9159 1292.69 30.6894 1292.87 31.4249C1291.51 31.3562 1290.18 31.0024 1288.97 30.3865C1287.75 29.7706 1286.68 28.9063 1285.83 27.8499C1285.52 28.3751 1285.37 28.9698 1285.37 29.5749C1285.37 30.1369 1285.5 30.6904 1285.77 31.1862C1286.03 31.682 1286.42 32.1047 1286.88 32.4166C1286.34 32.4018 1285.81 32.256 1285.33 31.9916V32.0333C1285.34 32.8207 1285.61 33.5825 1286.11 34.1899C1286.62 34.7973 1287.31 35.213 1288.08 35.3666C1287.79 35.4571 1287.48 35.5048 1287.17 35.5083C1286.95 35.5058 1286.74 35.4862 1286.53 35.4499C1286.75 36.1273 1287.17 36.7192 1287.74 37.1434C1288.31 37.5676 1289 37.8029 1289.72 37.8166C1288.51 38.7627 1287.03 39.279 1285.5 39.2833C1285.22 39.2842 1284.94 39.2675 1284.67 39.2333C1286.23 40.2418 1288.05 40.7772 1289.91 40.7749C1291.19 40.7883 1292.46 40.5458 1293.65 40.0617C1294.84 39.5775 1295.92 38.8615 1296.83 37.9553C1297.74 37.0492 1298.46 35.9711 1298.94 34.784C1299.43 33.5969 1299.68 32.3247 1299.67 31.0416C1299.67 30.8999 1299.67 30.7499 1299.67 30.5999C1300.32 30.1123 1300.88 29.5145 1301.33 28.8333Z" fill="white"></path><rect x="1321" y="14" width="40" height="40" rx="20" fill="#141414"></rect><path d="M1350.17 32.0917C1350.21 30.8989 1349.95 29.715 1349.41 28.65C1349.04 28.213 1348.54 27.9181 1347.98 27.8167C1345.66 27.6063 1343.33 27.52 1341 27.5583C1338.68 27.5183 1336.36 27.6017 1334.05 27.8083C1333.59 27.8914 1333.17 28.1057 1332.83 28.425C1332.08 29.1167 1332 30.3 1331.92 31.3C1331.8 33.098 1331.8 34.902 1331.92 36.7C1331.94 37.2628 1332.02 37.8215 1332.17 38.3667C1332.27 38.7875 1332.47 39.1769 1332.76 39.5C1333.1 39.8362 1333.53 40.0627 1334 40.15C1335.8 40.3718 1337.61 40.4637 1339.42 40.425C1342.33 40.4667 1344.89 40.425 1347.92 40.1917C1348.4 40.1097 1348.84 39.8829 1349.19 39.5417C1349.43 39.3082 1349.6 39.0226 1349.7 38.7083C1350 37.7938 1350.14 36.8367 1350.13 35.875C1350.17 35.4083 1350.17 32.5917 1350.17 32.0917ZM1339.12 36.375V31.2167L1344.05 33.8083C1342.67 34.575 1340.84 35.4417 1339.12 36.375Z" fill="white"></path></svg>