<svg xmlns="http://www.w3.org/2000/svg" width="463" height="66" viewBox="0 0 463 66" fill="none"><g clip-path="url(#clip0_166_1108)"><path d="M0.84 15V5.2H4.081C4.75767 5.2 5.39233 5.32833 5.985 5.585C6.57767 5.837 7.098 6.18933 7.546 6.642C7.994 7.09 8.344 7.61033 8.596 8.203C8.85267 8.791 8.981 9.42333 8.981 10.1C8.981 10.7767 8.85267 11.4113 8.596 12.004C8.344 12.592 7.994 13.1123 7.546 13.565C7.098 14.013 6.57767 14.3653 5.985 14.622C5.39233 14.874 4.75767 15 4.081 15H0.84ZM2.016 13.824H4.081C4.59433 13.824 5.075 13.7283 5.523 13.537C5.97567 13.341 6.37233 13.0727 6.713 12.732C7.05367 12.3913 7.31967 11.997 7.511 11.549C7.707 11.0963 7.805 10.6133 7.805 10.1C7.805 9.58667 7.707 9.106 7.511 8.658C7.31967 8.20533 7.05133 7.80867 6.706 7.468C6.36533 7.12733 5.971 6.86133 5.523 6.67C5.075 6.474 4.59433 6.376 4.081 6.376H2.016V13.824ZM13.2032 15.182C12.5592 15.182 11.9712 15.0163 11.4392 14.685C10.9119 14.3537 10.4895 13.9103 10.1722 13.355C9.85954 12.795 9.7032 12.1767 9.7032 11.5C9.7032 10.9867 9.7942 10.5083 9.9762 10.065C10.1582 9.617 10.4079 9.225 10.7252 8.889C11.0472 8.54833 11.4205 8.28233 11.8452 8.091C12.2699 7.89967 12.7225 7.804 13.2032 7.804C13.8472 7.804 14.4329 7.96967 14.9602 8.301C15.4922 8.63233 15.9145 9.078 16.2272 9.638C16.5445 10.198 16.7032 10.8187 16.7032 11.5C16.7032 12.0087 16.6122 12.4847 16.4302 12.928C16.2482 13.3713 15.9962 13.7633 15.6742 14.104C15.3569 14.44 14.9859 14.7037 14.5612 14.895C14.1412 15.0863 13.6885 15.182 13.2032 15.182ZM13.2032 14.006C13.6419 14.006 14.0362 13.8917 14.3862 13.663C14.7409 13.4297 15.0185 13.124 15.2192 12.746C15.4245 12.3633 15.5272 11.948 15.5272 11.5C15.5272 11.0427 15.4222 10.6227 15.2122 10.24C15.0069 9.85733 14.7292 9.55167 14.3792 9.323C14.0292 9.09433 13.6372 8.98 13.2032 8.98C12.7645 8.98 12.3702 9.09667 12.0202 9.33C11.6702 9.55867 11.3925 9.86433 11.1872 10.247C10.9819 10.6297 10.8792 11.0473 10.8792 11.5C10.8792 11.9667 10.9842 12.3913 11.1942 12.774C11.4042 13.152 11.6865 13.453 12.0412 13.677C12.3959 13.8963 12.7832 14.006 13.2032 14.006ZM20.662 15H19.472L17.127 8H18.275L20.081 13.341L21.866 8H23.077L24.869 13.341L26.654 8H27.816L25.471 15H24.274L22.461 9.61L20.662 15ZM35.1374 10.646V15H33.9614V10.905C33.9614 10.5503 33.875 10.2283 33.7024 9.939C33.5297 9.64967 33.2987 9.421 33.0094 9.253C32.72 9.08033 32.398 8.994 32.0434 8.994C31.6934 8.994 31.3714 9.08033 31.0774 9.253C30.788 9.421 30.557 9.64967 30.3844 9.939C30.2117 10.2283 30.1254 10.5503 30.1254 10.905V15H28.9494V8H30.1254V8.875C30.3727 8.54833 30.6854 8.28933 31.0634 8.098C31.4414 7.902 31.852 7.804 32.2954 7.804C32.818 7.804 33.294 7.93233 33.7234 8.189C34.1574 8.441 34.5004 8.78167 34.7524 9.211C35.009 9.64033 35.1374 10.1187 35.1374 10.646ZM39.9005 15V5.2H43.1345C43.6619 5.2 44.1355 5.32833 44.5555 5.585C44.9802 5.84167 45.3162 6.18933 45.5635 6.628C45.8155 7.062 45.9415 7.54733 45.9415 8.084C45.9415 8.63 45.8132 9.12233 45.5565 9.561C45.3045 9.995 44.9639 10.3403 44.5345 10.597C44.1099 10.849 43.6432 10.975 43.1345 10.975H41.0765V15H39.9005ZM41.0765 9.799H43.0295C43.3469 9.799 43.6362 9.722 43.8975 9.568C44.1635 9.40933 44.3735 9.197 44.5275 8.931C44.6862 8.66033 44.7655 8.357 44.7655 8.021C44.7655 7.68033 44.6862 7.377 44.5275 7.111C44.3735 6.84033 44.1635 6.628 43.8975 6.474C43.6362 6.31533 43.3469 6.236 43.0295 6.236H41.0765V9.799ZM52.3782 8H53.5542V15H52.3782L52.3292 13.817C52.1098 14.223 51.8065 14.552 51.4192 14.804C51.0365 15.056 50.5792 15.182 50.0472 15.182C49.5338 15.182 49.0532 15.0863 48.6052 14.895C48.1572 14.699 47.7605 14.4307 47.4152 14.09C47.0745 13.7447 46.8085 13.348 46.6172 12.9C46.4258 12.452 46.3302 11.969 46.3302 11.451C46.3302 10.9517 46.4235 10.4803 46.6102 10.037C46.7968 9.59367 47.0558 9.20633 47.3872 8.875C47.7232 8.539 48.1105 8.27767 48.5492 8.091C48.9878 7.89967 49.4592 7.804 49.9632 7.804C50.5138 7.804 50.9968 7.93467 51.4122 8.196C51.8275 8.45267 52.1635 8.78633 52.4202 9.197L52.3782 8ZM50.0262 14.041C50.4882 14.041 50.8872 13.929 51.2232 13.705C51.5638 13.4763 51.8252 13.1683 52.0072 12.781C52.1938 12.3937 52.2872 11.9667 52.2872 11.5C52.2872 11.024 52.1938 10.5947 52.0072 10.212C51.8205 9.82467 51.5568 9.519 51.2162 9.295C50.8802 9.06633 50.4835 8.952 50.0262 8.952C49.5642 8.952 49.1442 9.06633 48.7662 9.295C48.3882 9.52367 48.0872 9.83167 47.8632 10.219C47.6438 10.6017 47.5342 11.0287 47.5342 11.5C47.5342 11.9713 47.6485 12.4007 47.8772 12.788C48.1058 13.1707 48.4092 13.4763 48.7872 13.705C49.1652 13.929 49.5782 14.041 50.0262 14.041ZM59.5295 8H60.7755L56.9465 18.5H55.7005L56.9675 15L54.4545 8H55.7425L57.5555 13.383L59.5295 8ZM62.008 15V8H63.184V8.875C63.4313 8.54833 63.7416 8.28933 64.115 8.098C64.493 7.902 64.9036 7.804 65.347 7.804C65.865 7.804 66.3386 7.93 66.768 8.182C67.1973 8.434 67.5356 8.76767 67.783 9.183C68.0303 8.76767 68.3663 8.434 68.791 8.182C69.2203 7.93 69.6916 7.804 70.205 7.804C70.7323 7.804 71.2106 7.93233 71.64 8.189C72.0693 8.441 72.41 8.78167 72.662 9.211C72.9186 9.64033 73.047 10.1187 73.047 10.646V15H71.871V10.926C71.871 10.5807 71.787 10.261 71.619 9.967C71.451 9.673 71.2246 9.43733 70.94 9.26C70.6553 9.08267 70.3403 8.994 69.995 8.994C69.6496 8.994 69.3346 9.078 69.05 9.246C68.7653 9.40933 68.539 9.638 68.371 9.932C68.203 10.2213 68.119 10.5527 68.119 10.926V15H66.943V10.926C66.943 10.5527 66.859 10.2213 66.691 9.932C66.523 9.638 66.2943 9.40933 66.005 9.246C65.7203 9.078 65.4053 8.994 65.06 8.994C64.7193 8.994 64.4043 9.08267 64.115 9.26C63.8303 9.43733 63.604 9.673 63.436 9.967C63.268 10.261 63.184 10.5807 63.184 10.926V15H62.008ZM77.3927 15.182C76.7487 15.182 76.1607 15.0163 75.6287 14.685C75.1013 14.3537 74.679 13.9103 74.3617 13.355C74.049 12.795 73.8927 12.1767 73.8927 11.5C73.8927 10.9867 73.9837 10.5083 74.1657 10.065C74.3477 9.617 74.5973 9.225 74.9147 8.889C75.2367 8.54833 75.61 8.28233 76.0347 8.091C76.4593 7.89967 76.912 7.804 77.3927 7.804C77.92 7.804 78.403 7.91133 78.8417 8.126C79.285 8.336 79.663 8.63 79.9757 9.008C80.293 9.386 80.5287 9.82467 80.6827 10.324C80.8413 10.8233 80.8997 11.3577 80.8577 11.927H75.1457C75.2017 12.3237 75.3323 12.6783 75.5377 12.991C75.743 13.299 76.0043 13.544 76.3217 13.726C76.6437 13.908 77.0007 14.0013 77.3927 14.006C77.8127 14.006 78.193 13.8987 78.5337 13.684C78.8743 13.4647 79.1497 13.166 79.3597 12.788L80.5567 13.068C80.2767 13.6887 79.8543 14.1973 79.2897 14.594C78.725 14.986 78.0927 15.182 77.3927 15.182ZM75.1107 11.003H79.6747C79.6373 10.611 79.5113 10.254 79.2967 9.932C79.082 9.60533 78.809 9.344 78.4777 9.148C78.1463 8.952 77.7847 8.854 77.3927 8.854C77.0007 8.854 76.6413 8.94967 76.3147 9.141C75.988 9.33233 75.7173 9.59133 75.5027 9.918C75.2927 10.24 75.162 10.6017 75.1107 11.003ZM88.2253 10.646V15H87.0493V10.905C87.0493 10.5503 86.9629 10.2283 86.7903 9.939C86.6176 9.64967 86.3866 9.421 86.0973 9.253C85.8079 9.08033 85.4859 8.994 85.1313 8.994C84.7813 8.994 84.4593 9.08033 84.1653 9.253C83.8759 9.421 83.6449 9.64967 83.4723 9.939C83.2996 10.2283 83.2133 10.5503 83.2133 10.905V15H82.0373V8H83.2133V8.875C83.4606 8.54833 83.7733 8.28933 84.1513 8.098C84.5293 7.902 84.9399 7.804 85.3833 7.804C85.9059 7.804 86.3819 7.93233 86.8113 8.189C87.2453 8.441 87.5883 8.78167 87.8403 9.211C88.0969 9.64033 88.2253 10.1187 88.2253 10.646ZM93.2512 9.176H91.6622L91.6552 15H90.4792L90.4862 9.176H89.2822V8H90.4862L90.4792 5.802H91.6552L91.6622 8H93.2512V9.176Z" fill="#999999"></path><path d="M5.99 44.36C5.45667 44.3533 4.95667 44.44 4.49 44.62C4.03 44.7933 3.65333 45.0333 3.36 45.34C3.06667 45.6467 2.92 46.0033 2.92 46.41C2.92 46.91 3.05667 47.29 3.33 47.55C3.60333 47.81 3.97 48.0033 4.43 48.13C4.89667 48.25 5.41667 48.36 5.99 48.46C6.91 48.6067 7.76 48.85 8.54 49.19C9.32667 49.53 9.95667 49.9833 10.43 50.55C10.91 51.11 11.15 51.8 11.15 52.62C11.15 53.3733 10.95 54.0433 10.55 54.63C10.15 55.21 9.61333 55.68 8.94 56.04C8.27333 56.3933 7.53667 56.6167 6.73 56.71V58.74H5.26V56.71C4.58667 56.6433 3.94667 56.4833 3.34 56.23C2.74 55.9767 2.21667 55.64 1.77 55.22C1.32333 54.8 1 54.3133 0.8 53.76L2.75 53.03C2.86333 53.35 3.08 53.6367 3.4 53.89C3.72667 54.1367 4.11333 54.33 4.56 54.47C5.01333 54.61 5.49 54.68 5.99 54.68C6.52333 54.68 7.02333 54.5933 7.49 54.42C7.96333 54.2467 8.34333 54.0067 8.63 53.7C8.92333 53.3933 9.07 53.0333 9.07 52.62C9.07 52.1933 8.91667 51.8433 8.61 51.57C8.31 51.2967 7.92333 51.08 7.45 50.92C6.98333 50.76 6.49667 50.64 5.99 50.56C5.01 50.4 4.13 50.1667 3.35 49.86C2.57667 49.5533 1.96333 49.1233 1.51 48.57C1.06333 48.0167 0.84 47.2967 0.84 46.41C0.84 45.6567 1.04 44.9867 1.44 44.4C1.84 43.8133 2.37333 43.3433 3.04 42.99C3.71333 42.63 4.45333 42.4067 5.26 42.32V40.26H6.73V42.32C7.38333 42.3867 8.01 42.5467 8.61 42.8C9.21667 43.0533 9.74667 43.39 10.2 43.81C10.6533 44.2233 10.9833 44.7167 11.19 45.29L9.22 46C9.10667 45.6733 8.89 45.39 8.57 45.15C8.25 44.9033 7.86333 44.71 7.41 44.57C6.96333 44.43 6.49 44.36 5.99 44.36ZM12.7922 56.5V54.65C13.2655 54.2567 13.8089 53.8 14.4222 53.28C15.0355 52.7533 15.6589 52.1967 16.2922 51.61C16.9255 51.0167 17.5089 50.4267 18.0422 49.84C18.5755 49.2467 19.0055 48.6867 19.3322 48.16C19.6655 47.6267 19.8322 47.1633 19.8322 46.77C19.8322 46.3233 19.7222 45.9167 19.5022 45.55C19.2889 45.1767 18.9989 44.88 18.6322 44.66C18.2655 44.4333 17.8589 44.32 17.4122 44.32C16.9655 44.32 16.5555 44.4333 16.1822 44.66C15.8155 44.88 15.5189 45.1767 15.2922 45.55C15.0722 45.9167 14.9622 46.3233 14.9622 46.77H12.8822C12.8822 45.9233 13.0889 45.16 13.5022 44.48C13.9222 43.7933 14.4722 43.25 15.1522 42.85C15.8389 42.4433 16.5922 42.24 17.4122 42.24C18.2389 42.24 18.9922 42.4433 19.6722 42.85C20.3522 43.2567 20.8955 43.8033 21.3022 44.49C21.7089 45.17 21.9122 45.93 21.9122 46.77C21.9122 47.2367 21.8155 47.7167 21.6222 48.21C21.4289 48.7033 21.1589 49.2067 20.8122 49.72C20.4722 50.2333 20.0755 50.7533 19.6222 51.28C19.1689 51.8067 18.6822 52.3333 18.1622 52.86C17.6422 53.3867 17.1122 53.9067 16.5722 54.42H22.0322V56.5H12.7922ZM28.6527 56.76C27.766 56.76 26.9627 56.5467 26.2427 56.12C25.5293 55.6867 24.9627 55.1133 24.5427 54.4C24.1293 53.68 23.9227 52.8933 23.9227 52.04H26.0027C26.0027 52.5267 26.1227 52.97 26.3627 53.37C26.6027 53.77 26.9227 54.09 27.3227 54.33C27.7227 54.5633 28.166 54.68 28.6527 54.68C29.1327 54.68 29.5727 54.5633 29.9727 54.33C30.3727 54.09 30.6927 53.77 30.9327 53.37C31.1727 52.97 31.2927 52.5267 31.2927 52.04C31.2927 51.5533 31.1827 51.11 30.9627 50.71C30.7427 50.3033 30.4127 49.98 29.9727 49.74C29.5327 49.4933 28.9727 49.37 28.2927 49.37H24.7627L26.1827 42.5H32.9527V44.58H27.8727L27.3227 47.29L28.5327 47.31C29.486 47.33 30.3227 47.55 31.0427 47.97C31.7693 48.3833 32.3393 48.9433 32.7527 49.65C33.166 50.35 33.3727 51.1467 33.3727 52.04C33.3727 52.6867 33.2493 53.2967 33.0027 53.87C32.756 54.4367 32.416 54.9367 31.9827 55.37C31.556 55.8033 31.056 56.1433 30.4827 56.39C29.916 56.6367 29.306 56.76 28.6527 56.76ZM39.9948 56.76C39.1682 56.76 38.4215 56.5733 37.7548 56.2C37.0948 55.82 36.5248 55.2967 36.0448 54.63C35.5648 53.9633 35.1982 53.1933 34.9448 52.32C34.6915 51.44 34.5648 50.5 34.5648 49.5C34.5648 48.5 34.6915 47.56 34.9448 46.68C35.1982 45.8 35.5648 45.03 36.0448 44.37C36.5248 43.7033 37.0948 43.1833 37.7548 42.81C38.4215 42.43 39.1682 42.24 39.9948 42.24C40.8082 42.24 41.5482 42.43 42.2148 42.81C42.8815 43.1833 43.4482 43.7033 43.9148 44.37C44.3882 45.03 44.7515 45.8 45.0048 46.68C45.2582 47.56 45.3848 48.5 45.3848 49.5C45.3848 50.5 45.2582 51.44 45.0048 52.32C44.7515 53.1933 44.3882 53.9633 43.9148 54.63C43.4482 55.2967 42.8815 55.82 42.2148 56.2C41.5482 56.5733 40.8082 56.76 39.9948 56.76ZM39.9948 54.68C40.7615 54.68 41.3982 54.44 41.9048 53.96C42.4182 53.4733 42.8015 52.8367 43.0548 52.05C43.3082 51.2633 43.4348 50.4133 43.4348 49.5C43.4348 48.54 43.3015 47.67 43.0348 46.89C42.7748 46.1033 42.3882 45.48 41.8748 45.02C41.3682 44.5533 40.7415 44.32 39.9948 44.32C39.4015 44.32 38.8848 44.46 38.4448 44.74C38.0115 45.02 37.6515 45.4033 37.3648 45.89C37.0848 46.3767 36.8715 46.93 36.7248 47.55C36.5848 48.17 36.5148 48.82 36.5148 49.5C36.5148 50.4133 36.6448 51.2633 36.9048 52.05C37.1648 52.8367 37.5515 53.4733 38.0648 53.96C38.5848 54.44 39.2282 54.68 39.9948 54.68ZM46.7766 57.62L47.3966 54.24H49.4766L48.1566 57.62H46.7766ZM56.7136 56.76C55.8869 56.76 55.1403 56.5733 54.4736 56.2C53.8136 55.82 53.2436 55.2967 52.7636 54.63C52.2836 53.9633 51.9169 53.1933 51.6636 52.32C51.4103 51.44 51.2836 50.5 51.2836 49.5C51.2836 48.5 51.4103 47.56 51.6636 46.68C51.9169 45.8 52.2836 45.03 52.7636 44.37C53.2436 43.7033 53.8136 43.1833 54.4736 42.81C55.1403 42.43 55.8869 42.24 56.7136 42.24C57.5269 42.24 58.2669 42.43 58.9336 42.81C59.6003 43.1833 60.1669 43.7033 60.6336 44.37C61.1069 45.03 61.4703 45.8 61.7236 46.68C61.9769 47.56 62.1036 48.5 62.1036 49.5C62.1036 50.5 61.9769 51.44 61.7236 52.32C61.4703 53.1933 61.1069 53.9633 60.6336 54.63C60.1669 55.2967 59.6003 55.82 58.9336 56.2C58.2669 56.5733 57.5269 56.76 56.7136 56.76ZM56.7136 54.68C57.4803 54.68 58.1169 54.44 58.6236 53.96C59.1369 53.4733 59.5203 52.8367 59.7736 52.05C60.0269 51.2633 60.1536 50.4133 60.1536 49.5C60.1536 48.54 60.0203 47.67 59.7536 46.89C59.4936 46.1033 59.1069 45.48 58.5936 45.02C58.0869 44.5533 57.4603 44.32 56.7136 44.32C56.1203 44.32 55.6036 44.46 55.1636 44.74C54.7303 45.02 54.3703 45.4033 54.0836 45.89C53.8036 46.3767 53.5903 46.93 53.4436 47.55C53.3036 48.17 53.2336 48.82 53.2336 49.5C53.2336 50.4133 53.3636 51.2633 53.6236 52.05C53.8836 52.8367 54.2703 53.4733 54.7836 53.96C55.3036 54.44 55.9469 54.68 56.7136 54.68ZM68.3542 56.76C67.5276 56.76 66.7809 56.5733 66.1142 56.2C65.4542 55.82 64.8842 55.2967 64.4042 54.63C63.9242 53.9633 63.5576 53.1933 63.3042 52.32C63.0509 51.44 62.9242 50.5 62.9242 49.5C62.9242 48.5 63.0509 47.56 63.3042 46.68C63.5576 45.8 63.9242 45.03 64.4042 44.37C64.8842 43.7033 65.4542 43.1833 66.1142 42.81C66.7809 42.43 67.5276 42.24 68.3542 42.24C69.1676 42.24 69.9076 42.43 70.5742 42.81C71.2409 43.1833 71.8076 43.7033 72.2742 44.37C72.7476 45.03 73.1109 45.8 73.3642 46.68C73.6176 47.56 73.7442 48.5 73.7442 49.5C73.7442 50.5 73.6176 51.44 73.3642 52.32C73.1109 53.1933 72.7476 53.9633 72.2742 54.63C71.8076 55.2967 71.2409 55.82 70.5742 56.2C69.9076 56.5733 69.1676 56.76 68.3542 56.76ZM68.3542 54.68C69.1209 54.68 69.7576 54.44 70.2642 53.96C70.7776 53.4733 71.1609 52.8367 71.4142 52.05C71.6676 51.2633 71.7942 50.4133 71.7942 49.5C71.7942 48.54 71.6609 47.67 71.3942 46.89C71.1342 46.1033 70.7476 45.48 70.2342 45.02C69.7276 44.5533 69.1009 44.32 68.3542 44.32C67.7609 44.32 67.2442 44.46 66.8042 44.74C66.3709 45.02 66.0109 45.4033 65.7242 45.89C65.4442 46.3767 65.2309 46.93 65.0842 47.55C64.9442 48.17 64.8742 48.82 64.8742 49.5C64.8742 50.4133 65.0042 51.2633 65.2642 52.05C65.5242 52.8367 65.9109 53.4733 66.4242 53.96C66.9442 54.44 67.5876 54.68 68.3542 54.68ZM79.9948 56.76C79.1682 56.76 78.4215 56.5733 77.7548 56.2C77.0948 55.82 76.5248 55.2967 76.0448 54.63C75.5648 53.9633 75.1982 53.1933 74.9448 52.32C74.6915 51.44 74.5648 50.5 74.5648 49.5C74.5648 48.5 74.6915 47.56 74.9448 46.68C75.1982 45.8 75.5648 45.03 76.0448 44.37C76.5248 43.7033 77.0948 43.1833 77.7548 42.81C78.4215 42.43 79.1682 42.24 79.9948 42.24C80.8082 42.24 81.5482 42.43 82.2148 42.81C82.8815 43.1833 83.4482 43.7033 83.9148 44.37C84.3882 45.03 84.7515 45.8 85.0048 46.68C85.2582 47.56 85.3848 48.5 85.3848 49.5C85.3848 50.5 85.2582 51.44 85.0048 52.32C84.7515 53.1933 84.3882 53.9633 83.9148 54.63C83.4482 55.2967 82.8815 55.82 82.2148 56.2C81.5482 56.5733 80.8082 56.76 79.9948 56.76ZM79.9948 54.68C80.7615 54.68 81.3982 54.44 81.9048 53.96C82.4182 53.4733 82.8015 52.8367 83.0548 52.05C83.3082 51.2633 83.4348 50.4133 83.4348 49.5C83.4348 48.54 83.3015 47.67 83.0348 46.89C82.7748 46.1033 82.3882 45.48 81.8748 45.02C81.3682 44.5533 80.7415 44.32 79.9948 44.32C79.4015 44.32 78.8848 44.46 78.4448 44.74C78.0115 45.02 77.6515 45.4033 77.3648 45.89C77.0848 46.3767 76.8715 46.93 76.7248 47.55C76.5848 48.17 76.5148 48.82 76.5148 49.5C76.5148 50.4133 76.6448 51.2633 76.9048 52.05C77.1648 52.8367 77.5515 53.4733 78.0648 53.96C78.5848 54.44 79.2282 54.68 79.9948 54.68Z" fill="white"></path><rect x="98.5" y="33.5" width="49" height="32" rx="16" fill="#1A1A1A"></rect><rect x="98.5" y="33.5" width="49" height="32" rx="16" stroke="#262626"></rect><path d="M110.56 54V52.957C110.919 52.635 111.323 52.2757 111.771 51.879C112.219 51.4777 112.665 51.06 113.108 50.626C113.556 50.1873 113.967 49.7533 114.34 49.324C114.713 48.8947 115.014 48.4887 115.243 48.106C115.472 47.7187 115.586 47.3803 115.586 47.091C115.586 46.7457 115.502 46.4307 115.334 46.146C115.166 45.8567 114.94 45.6257 114.655 45.453C114.375 45.2803 114.062 45.194 113.717 45.194C113.372 45.194 113.054 45.2803 112.765 45.453C112.48 45.6257 112.252 45.8567 112.079 46.146C111.911 46.4307 111.827 46.7457 111.827 47.091H110.651C110.651 46.517 110.791 45.999 111.071 45.537C111.351 45.0703 111.722 44.7017 112.184 44.431C112.646 44.1557 113.157 44.018 113.717 44.018C114.277 44.018 114.786 44.1557 115.243 44.431C115.705 44.7063 116.074 45.0773 116.349 45.544C116.624 46.006 116.762 46.5217 116.762 47.091C116.762 47.4177 116.683 47.77 116.524 48.148C116.365 48.5213 116.148 48.9063 115.873 49.303C115.598 49.6997 115.285 50.101 114.935 50.507C114.585 50.9083 114.216 51.305 113.829 51.697C113.442 52.089 113.057 52.4647 112.674 52.824H116.888V54H110.56ZM121.562 54.182C120.979 54.182 120.456 54.0513 119.994 53.79C119.532 53.524 119.135 53.1577 118.804 52.691C118.473 52.2243 118.221 51.6853 118.048 51.074C117.875 50.458 117.789 49.8 117.789 49.1C117.789 48.4 117.875 47.742 118.048 47.126C118.221 46.51 118.473 45.971 118.804 45.509C119.135 45.0423 119.532 44.6783 119.994 44.417C120.456 44.151 120.979 44.018 121.562 44.018C122.141 44.018 122.661 44.151 123.123 44.417C123.59 44.6783 123.984 45.0423 124.306 45.509C124.633 45.971 124.882 46.51 125.055 47.126C125.232 47.742 125.321 48.4 125.321 49.1C125.321 49.8 125.232 50.458 125.055 51.074C124.882 51.6853 124.633 52.2243 124.306 52.691C123.984 53.1577 123.59 53.524 123.123 53.79C122.661 54.0513 122.141 54.182 121.562 54.182ZM121.562 53.006C122.145 53.006 122.633 52.8263 123.025 52.467C123.422 52.103 123.718 51.6247 123.914 51.032C124.11 50.4393 124.208 49.7953 124.208 49.1C124.208 48.3673 124.105 47.707 123.9 47.119C123.699 46.5263 123.401 46.0573 123.004 45.712C122.612 45.3667 122.131 45.194 121.562 45.194C121.114 45.194 120.722 45.299 120.386 45.509C120.055 45.719 119.779 46.006 119.56 46.37C119.341 46.734 119.175 47.1517 119.063 47.623C118.956 48.0897 118.902 48.582 118.902 49.1C118.902 49.7953 119.002 50.4417 119.203 51.039C119.404 51.6317 119.7 52.1077 120.092 52.467C120.489 52.8263 120.979 53.006 121.562 53.006ZM126.926 54L132.582 44.2H133.94L128.284 54H126.926ZM128.088 48.141C127.757 48.141 127.456 48.0617 127.185 47.903C126.919 47.7443 126.705 47.5297 126.541 47.259C126.378 46.9883 126.296 46.6873 126.296 46.356C126.296 46.0153 126.378 45.712 126.541 45.446C126.705 45.1753 126.922 44.9607 127.192 44.802C127.463 44.6433 127.762 44.564 128.088 44.564C128.415 44.564 128.714 44.6457 128.984 44.809C129.255 44.9677 129.47 45.1823 129.628 45.453C129.792 45.719 129.873 46.02 129.873 46.356C129.873 46.692 129.792 46.9953 129.628 47.266C129.465 47.532 129.248 47.7443 128.977 47.903C128.707 48.0617 128.41 48.141 128.088 48.141ZM128.088 47.28C128.345 47.28 128.562 47.1913 128.739 47.014C128.921 46.832 129.012 46.6127 129.012 46.356C129.012 46.0947 128.921 45.8753 128.739 45.698C128.562 45.516 128.345 45.425 128.088 45.425C127.832 45.425 127.612 45.516 127.43 45.698C127.248 45.8753 127.157 46.0947 127.157 46.356C127.157 46.6127 127.248 46.832 127.43 47.014C127.612 47.1913 127.832 47.28 128.088 47.28ZM132.785 53.643C132.459 53.643 132.158 53.5613 131.882 53.398C131.612 53.23 131.395 53.0107 131.231 52.74C131.073 52.4647 130.993 52.1683 130.993 51.851C130.993 51.515 131.075 51.2117 131.238 50.941C131.406 50.6703 131.626 50.4557 131.896 50.297C132.167 50.1383 132.463 50.059 132.785 50.059C133.121 50.059 133.425 50.143 133.695 50.311C133.966 50.4743 134.181 50.6913 134.339 50.962C134.498 51.2327 134.577 51.529 134.577 51.851C134.577 52.1823 134.496 52.4833 134.332 52.754C134.174 53.0247 133.959 53.2417 133.688 53.405C133.418 53.5637 133.117 53.643 132.785 53.643ZM132.785 52.782C133.042 52.782 133.261 52.691 133.443 52.509C133.625 52.327 133.716 52.1077 133.716 51.851C133.716 51.5943 133.625 51.375 133.443 51.193C133.261 51.011 133.042 50.92 132.785 50.92C132.529 50.92 132.309 51.011 132.127 51.193C131.945 51.375 131.854 51.5943 131.854 51.851C131.854 52.1077 131.945 52.327 132.127 52.509C132.309 52.691 132.529 52.782 132.785 52.782Z" fill="#999999"></path></g><defs><clipPath id="clip0_166_1108"><rect width="462.5" height="66" fill="white"></rect></clipPath></defs></svg>