<svg xmlns="http://www.w3.org/2000/svg" width="463" height="66" viewBox="0 0 463 66" fill="none"><g clip-path="url(#clip0_166_1050)"><path d="M6.867 5.2H8.043V15H6.867V10.338H2.016V15H0.84V5.2H2.016V9.162H6.867V5.2ZM12.7384 15.182C12.0944 15.182 11.5064 15.0163 10.9744 14.685C10.447 14.3537 10.0247 13.9103 9.70736 13.355C9.39469 12.795 9.23836 12.1767 9.23836 11.5C9.23836 10.9867 9.32936 10.5083 9.51136 10.065C9.69336 9.617 9.94303 9.225 10.2604 8.889C10.5824 8.54833 10.9557 8.28233 11.3804 8.091C11.805 7.89967 12.2577 7.804 12.7384 7.804C13.3824 7.804 13.968 7.96967 14.4954 8.301C15.0274 8.63233 15.4497 9.078 15.7624 9.638C16.0797 10.198 16.2384 10.8187 16.2384 11.5C16.2384 12.0087 16.1474 12.4847 15.9654 12.928C15.7834 13.3713 15.5314 13.7633 15.2094 14.104C14.892 14.44 14.521 14.7037 14.0964 14.895C13.6764 15.0863 13.2237 15.182 12.7384 15.182ZM12.7384 14.006C13.177 14.006 13.5714 13.8917 13.9214 13.663C14.276 13.4297 14.5537 13.124 14.7544 12.746C14.9597 12.3633 15.0624 11.948 15.0624 11.5C15.0624 11.0427 14.9574 10.6227 14.7474 10.24C14.542 9.85733 14.2644 9.55167 13.9144 9.323C13.5644 9.09433 13.1724 8.98 12.7384 8.98C12.2997 8.98 11.9054 9.09667 11.5554 9.33C11.2054 9.55867 10.9277 9.86433 10.7224 10.247C10.517 10.6297 10.4144 11.0473 10.4144 11.5C10.4144 11.9667 10.5194 12.3913 10.7294 12.774C10.9394 13.152 11.2217 13.453 11.5764 13.677C11.931 13.8963 12.3184 14.006 12.7384 14.006ZM17.3966 15V8H18.5726V8.875C18.82 8.54833 19.1303 8.28933 19.5036 8.098C19.8816 7.902 20.2923 7.804 20.7356 7.804C21.2536 7.804 21.7273 7.93 22.1566 8.182C22.586 8.434 22.9243 8.76767 23.1716 9.183C23.419 8.76767 23.755 8.434 24.1796 8.182C24.609 7.93 25.0803 7.804 25.5936 7.804C26.121 7.804 26.5993 7.93233 27.0286 8.189C27.458 8.441 27.7986 8.78167 28.0506 9.211C28.3073 9.64033 28.4356 10.1187 28.4356 10.646V15H27.2596V10.926C27.2596 10.5807 27.1756 10.261 27.0076 9.967C26.8396 9.673 26.6133 9.43733 26.3286 9.26C26.044 9.08267 25.729 8.994 25.3836 8.994C25.0383 8.994 24.7233 9.078 24.4386 9.246C24.154 9.40933 23.9276 9.638 23.7596 9.932C23.5916 10.2213 23.5076 10.5527 23.5076 10.926V15H22.3316V10.926C22.3316 10.5527 22.2476 10.2213 22.0796 9.932C21.9116 9.638 21.683 9.40933 21.3936 9.246C21.109 9.078 20.794 8.994 20.4486 8.994C20.108 8.994 19.793 9.08267 19.5036 9.26C19.219 9.43733 18.9926 9.673 18.8246 9.967C18.6566 10.261 18.5726 10.5807 18.5726 10.926V15H17.3966ZM32.7813 15.182C32.1373 15.182 31.5493 15.0163 31.0173 14.685C30.49 14.3537 30.0677 13.9103 29.7503 13.355C29.4377 12.795 29.2813 12.1767 29.2813 11.5C29.2813 10.9867 29.3723 10.5083 29.5543 10.065C29.7363 9.617 29.986 9.225 30.3033 8.889C30.6253 8.54833 30.9987 8.28233 31.4233 8.091C31.848 7.89967 32.3007 7.804 32.7813 7.804C33.3087 7.804 33.7917 7.91133 34.2303 8.126C34.6737 8.336 35.0517 8.63 35.3643 9.008C35.6817 9.386 35.9173 9.82467 36.0713 10.324C36.23 10.8233 36.2883 11.3577 36.2463 11.927H30.5343C30.5903 12.3237 30.721 12.6783 30.9263 12.991C31.1317 13.299 31.393 13.544 31.7103 13.726C32.0323 13.908 32.3893 14.0013 32.7813 14.006C33.2013 14.006 33.5817 13.8987 33.9223 13.684C34.263 13.4647 34.5383 13.166 34.7483 12.788L35.9453 13.068C35.6653 13.6887 35.243 14.1973 34.6783 14.594C34.1137 14.986 33.4813 15.182 32.7813 15.182ZM30.4993 11.003H35.0633C35.026 10.611 34.9 10.254 34.6853 9.932C34.4707 9.60533 34.1977 9.344 33.8663 9.148C33.535 8.952 33.1733 8.854 32.7813 8.854C32.3893 8.854 32.03 8.94967 31.7033 9.141C31.3767 9.33233 31.106 9.59133 30.8913 9.918C30.6813 10.24 30.5507 10.6017 30.4993 11.003ZM41.0949 15V5.2H42.2709V15H41.0949ZM50.3542 10.646V15H49.1782V10.905C49.1782 10.5503 49.0918 10.2283 48.9192 9.939C48.7465 9.64967 48.5155 9.421 48.2262 9.253C47.9368 9.08033 47.6148 8.994 47.2602 8.994C46.9102 8.994 46.5882 9.08033 46.2942 9.253C46.0048 9.421 45.7738 9.64967 45.6012 9.939C45.4285 10.2283 45.3422 10.5503 45.3422 10.905V15H44.1662V8H45.3422V8.875C45.5895 8.54833 45.9022 8.28933 46.2802 8.098C46.6582 7.902 47.0688 7.804 47.5122 7.804C48.0348 7.804 48.5108 7.93233 48.9402 8.189C49.3742 8.441 49.7172 8.78167 49.9692 9.211C50.2258 9.64033 50.3542 10.1187 50.3542 10.646ZM53.8891 15.133C53.5111 15.119 53.1424 15.049 52.7831 14.923C52.4284 14.7923 52.1157 14.6173 51.8451 14.398C51.5791 14.174 51.3854 13.9173 51.2641 13.628L52.2721 13.194C52.3421 13.3527 52.4681 13.502 52.6501 13.642C52.8321 13.782 53.0421 13.894 53.2801 13.978C53.5181 14.062 53.7584 14.104 54.0011 14.104C54.2577 14.104 54.4981 14.0643 54.7221 13.985C54.9461 13.9057 55.1281 13.789 55.2681 13.635C55.4127 13.4763 55.4851 13.2873 55.4851 13.068C55.4851 12.8347 55.4057 12.6527 55.2471 12.522C55.0931 12.3867 54.8971 12.2817 54.6591 12.207C54.4257 12.1277 54.1877 12.053 53.9451 11.983C53.4644 11.8617 53.0351 11.717 52.6571 11.549C52.2791 11.3763 51.9804 11.1593 51.7611 10.898C51.5464 10.632 51.4391 10.2937 51.4391 9.883C51.4391 9.449 51.5581 9.07333 51.7961 8.756C52.0387 8.43867 52.3561 8.19367 52.7481 8.021C53.1401 7.84833 53.5601 7.762 54.0081 7.762C54.5727 7.762 55.0884 7.88333 55.5551 8.126C56.0217 8.36867 56.3694 8.69767 56.5981 9.113L55.6531 9.666C55.5737 9.498 55.4524 9.351 55.2891 9.225C55.1257 9.09433 54.9391 8.99167 54.7291 8.917C54.5191 8.84233 54.3044 8.80267 54.0851 8.798C53.8144 8.78867 53.5601 8.82367 53.3221 8.903C53.0887 8.98233 52.8997 9.10367 52.7551 9.267C52.6151 9.42567 52.5451 9.624 52.5451 9.862C52.5451 10.0953 52.6197 10.2727 52.7691 10.394C52.9231 10.5153 53.1214 10.6133 53.3641 10.688C53.6114 10.758 53.8797 10.8397 54.1691 10.933C54.5937 11.0683 54.9904 11.2247 55.3591 11.402C55.7277 11.5793 56.0241 11.801 56.2481 12.067C56.4767 12.333 56.5887 12.662 56.5841 13.054C56.5841 13.4833 56.4557 13.859 56.1991 14.181C55.9424 14.4983 55.6087 14.741 55.1981 14.909C54.7921 15.077 54.3557 15.1517 53.8891 15.133ZM58.9594 18.5H57.7834V8H58.9594V9.197C59.1974 8.78633 59.5147 8.455 59.9114 8.203C60.308 7.94633 60.7794 7.818 61.3254 7.818C61.834 7.818 62.31 7.91367 62.7534 8.105C63.2014 8.29633 63.5934 8.56233 63.9294 8.903C64.2654 9.239 64.529 9.62867 64.7204 10.072C64.9117 10.5153 65.0074 10.9913 65.0074 11.5C65.0074 12.0087 64.9117 12.487 64.7204 12.935C64.529 13.383 64.2654 13.7773 63.9294 14.118C63.5934 14.454 63.2014 14.7177 62.7534 14.909C62.31 15.1003 61.834 15.196 61.3254 15.196C60.7794 15.196 60.308 15.07 59.9114 14.818C59.5147 14.5613 59.1974 14.2277 58.9594 13.817V18.5ZM61.3114 8.959C60.8587 8.959 60.462 9.07333 60.1214 9.302C59.7807 9.53067 59.517 9.83633 59.3304 10.219C59.1484 10.6017 59.0574 11.0287 59.0574 11.5C59.0574 11.9667 59.1484 12.3937 59.3304 12.781C59.517 13.1683 59.7784 13.4763 60.1144 13.705C60.455 13.9337 60.854 14.048 61.3114 14.048C61.764 14.048 62.1794 13.936 62.5574 13.712C62.9354 13.4833 63.2387 13.1777 63.4674 12.795C63.696 12.4077 63.8104 11.976 63.8104 11.5C63.8104 11.0333 63.6984 10.6087 63.4744 10.226C63.2504 9.83867 62.9494 9.53067 62.5714 9.302C62.1934 9.07333 61.7734 8.959 61.3114 8.959ZM69.2169 15.182C68.5729 15.182 67.9849 15.0163 67.4529 14.685C66.9255 14.3537 66.5032 13.9103 66.1859 13.355C65.8732 12.795 65.7169 12.1767 65.7169 11.5C65.7169 10.9867 65.8079 10.5083 65.9899 10.065C66.1719 9.617 66.4215 9.225 66.7389 8.889C67.0609 8.54833 67.4342 8.28233 67.8589 8.091C68.2835 7.89967 68.7362 7.804 69.2169 7.804C69.7442 7.804 70.2272 7.91133 70.6659 8.126C71.1092 8.336 71.4872 8.63 71.7999 9.008C72.1172 9.386 72.3529 9.82467 72.5069 10.324C72.6655 10.8233 72.7239 11.3577 72.6819 11.927H66.9699C67.0259 12.3237 67.1565 12.6783 67.3619 12.991C67.5672 13.299 67.8285 13.544 68.1459 13.726C68.4679 13.908 68.8249 14.0013 69.2169 14.006C69.6369 14.006 70.0172 13.8987 70.3579 13.684C70.6985 13.4647 70.9739 13.166 71.1839 12.788L72.3809 13.068C72.1009 13.6887 71.6785 14.1973 71.1139 14.594C70.5492 14.986 69.9169 15.182 69.2169 15.182ZM66.9349 11.003H71.4989C71.4615 10.611 71.3355 10.254 71.1209 9.932C70.9062 9.60533 70.6332 9.344 70.3019 9.148C69.9705 8.952 69.6089 8.854 69.2169 8.854C68.8249 8.854 68.4655 8.94967 68.1389 9.141C67.8122 9.33233 67.5415 9.59133 67.3269 9.918C67.1169 10.24 66.9862 10.6017 66.9349 11.003ZM78.6435 13.152L79.6935 13.719C79.3761 14.1623 78.9725 14.517 78.4825 14.783C77.9971 15.049 77.4698 15.182 76.9005 15.182C76.2565 15.182 75.6685 15.0163 75.1365 14.685C74.6091 14.3537 74.1868 13.9103 73.8695 13.355C73.5568 12.795 73.4005 12.1767 73.4005 11.5C73.4005 10.9867 73.4915 10.5083 73.6735 10.065C73.8555 9.617 74.1051 9.225 74.4225 8.889C74.7445 8.54833 75.1178 8.28233 75.5425 8.091C75.9671 7.89967 76.4198 7.804 76.9005 7.804C77.4698 7.804 77.9971 7.937 78.4825 8.203C78.9725 8.469 79.3761 8.826 79.6935 9.274L78.6435 9.841C78.4195 9.56567 78.1535 9.35333 77.8455 9.204C77.5375 9.05467 77.2225 8.98 76.9005 8.98C76.4665 8.98 76.0721 9.09667 75.7175 9.33C75.3675 9.55867 75.0898 9.86433 74.8845 10.247C74.6791 10.6297 74.5765 11.0473 74.5765 11.5C74.5765 11.9527 74.6791 12.3703 74.8845 12.753C75.0945 13.131 75.3745 13.4343 75.7245 13.663C76.0791 13.8917 76.4711 14.006 76.9005 14.006C77.2458 14.006 77.5701 13.9267 77.8735 13.768C78.1768 13.6093 78.4335 13.404 78.6435 13.152ZM84.5832 9.176H82.9942L82.9872 15H81.8112L81.8182 9.176H80.6142V8H81.8182L81.8112 5.802H82.9872L82.9942 8H84.5832V9.176ZM85.7697 8H86.9457V15H85.7697V8ZM86.3717 6.859C86.185 6.859 86.0287 6.79833 85.9027 6.677C85.7767 6.55567 85.7137 6.404 85.7137 6.222C85.7137 6.04 85.7767 5.88833 85.9027 5.767C86.0287 5.64567 86.1827 5.585 86.3647 5.585C86.5467 5.585 86.7007 5.64567 86.8267 5.767C86.9527 5.88833 87.0157 6.04 87.0157 6.222C87.0157 6.404 86.9527 6.55567 86.8267 6.677C86.7054 6.79833 86.5537 6.859 86.3717 6.859ZM91.6114 15.182C90.9674 15.182 90.3794 15.0163 89.8474 14.685C89.3201 14.3537 88.8977 13.9103 88.5804 13.355C88.2677 12.795 88.1114 12.1767 88.1114 11.5C88.1114 10.9867 88.2024 10.5083 88.3844 10.065C88.5664 9.617 88.8161 9.225 89.1334 8.889C89.4554 8.54833 89.8287 8.28233 90.2534 8.091C90.6781 7.89967 91.1307 7.804 91.6114 7.804C92.2554 7.804 92.8411 7.96967 93.3684 8.301C93.9004 8.63233 94.3227 9.078 94.6354 9.638C94.9527 10.198 95.1114 10.8187 95.1114 11.5C95.1114 12.0087 95.0204 12.4847 94.8384 12.928C94.6564 13.3713 94.4044 13.7633 94.0824 14.104C93.7651 14.44 93.3941 14.7037 92.9694 14.895C92.5494 15.0863 92.0967 15.182 91.6114 15.182ZM91.6114 14.006C92.0501 14.006 92.4444 13.8917 92.7944 13.663C93.1491 13.4297 93.4267 13.124 93.6274 12.746C93.8327 12.3633 93.9354 11.948 93.9354 11.5C93.9354 11.0427 93.8304 10.6227 93.6204 10.24C93.4151 9.85733 93.1374 9.55167 92.7874 9.323C92.4374 9.09433 92.0454 8.98 91.6114 8.98C91.1727 8.98 90.7784 9.09667 90.4284 9.33C90.0784 9.55867 89.8007 9.86433 89.5954 10.247C89.3901 10.6297 89.2874 11.0473 89.2874 11.5C89.2874 11.9667 89.3924 12.3913 89.6024 12.774C89.8124 13.152 90.0947 13.453 90.4494 13.677C90.8041 13.8963 91.1914 14.006 91.6114 14.006ZM102.458 10.646V15H101.282V10.905C101.282 10.5503 101.195 10.2283 101.023 9.939C100.85 9.64967 100.619 9.421 100.33 9.253C100.04 9.08033 99.7184 8.994 99.3637 8.994C99.0137 8.994 98.6917 9.08033 98.3977 9.253C98.1084 9.421 97.8774 9.64967 97.7047 9.939C97.532 10.2283 97.4457 10.5503 97.4457 10.905V15H96.2697V8H97.4457V8.875C97.693 8.54833 98.0057 8.28933 98.3837 8.098C98.7617 7.902 99.1724 7.804 99.6157 7.804C100.138 7.804 100.614 7.93233 101.044 8.189C101.478 8.441 101.821 8.78167 102.073 9.211C102.329 9.64033 102.458 10.1187 102.458 10.646Z" fill="#999999"></path><path d="M5.99 44.36C5.45667 44.3533 4.95667 44.44 4.49 44.62C4.03 44.7933 3.65333 45.0333 3.36 45.34C3.06667 45.6467 2.92 46.0033 2.92 46.41C2.92 46.91 3.05667 47.29 3.33 47.55C3.60333 47.81 3.97 48.0033 4.43 48.13C4.89667 48.25 5.41667 48.36 5.99 48.46C6.91 48.6067 7.76 48.85 8.54 49.19C9.32667 49.53 9.95667 49.9833 10.43 50.55C10.91 51.11 11.15 51.8 11.15 52.62C11.15 53.3733 10.95 54.0433 10.55 54.63C10.15 55.21 9.61333 55.68 8.94 56.04C8.27333 56.3933 7.53667 56.6167 6.73 56.71V58.74H5.26V56.71C4.58667 56.6433 3.94667 56.4833 3.34 56.23C2.74 55.9767 2.21667 55.64 1.77 55.22C1.32333 54.8 1 54.3133 0.8 53.76L2.75 53.03C2.86333 53.35 3.08 53.6367 3.4 53.89C3.72667 54.1367 4.11333 54.33 4.56 54.47C5.01333 54.61 5.49 54.68 5.99 54.68C6.52333 54.68 7.02333 54.5933 7.49 54.42C7.96333 54.2467 8.34333 54.0067 8.63 53.7C8.92333 53.3933 9.07 53.0333 9.07 52.62C9.07 52.1933 8.91667 51.8433 8.61 51.57C8.31 51.2967 7.92333 51.08 7.45 50.92C6.98333 50.76 6.49667 50.64 5.99 50.56C5.01 50.4 4.13 50.1667 3.35 49.86C2.57667 49.5533 1.96333 49.1233 1.51 48.57C1.06333 48.0167 0.84 47.2967 0.84 46.41C0.84 45.6567 1.04 44.9867 1.44 44.4C1.84 43.8133 2.37333 43.3433 3.04 42.99C3.71333 42.63 4.45333 42.4067 5.26 42.32V40.26H6.73V42.32C7.38333 42.3867 8.01 42.5467 8.61 42.8C9.21667 43.0533 9.74667 43.39 10.2 43.81C10.6533 44.2233 10.9833 44.7167 11.19 45.29L9.22 46C9.10667 45.6733 8.89 45.39 8.57 45.15C8.25 44.9033 7.86333 44.71 7.41 44.57C6.96333 44.43 6.49 44.36 5.99 44.36ZM17.4222 56.76C16.5355 56.76 15.7322 56.5467 15.0122 56.12C14.2989 55.6867 13.7322 55.1133 13.3122 54.4C12.8989 53.68 12.6922 52.8933 12.6922 52.04H14.7722C14.7722 52.5267 14.8922 52.97 15.1322 53.37C15.3722 53.77 15.6922 54.09 16.0922 54.33C16.4922 54.5633 16.9355 54.68 17.4222 54.68C17.9022 54.68 18.3422 54.5633 18.7422 54.33C19.1422 54.09 19.4622 53.77 19.7022 53.37C19.9422 52.97 20.0622 52.5267 20.0622 52.04C20.0622 51.5533 19.9522 51.11 19.7322 50.71C19.5122 50.3033 19.1822 49.98 18.7422 49.74C18.3022 49.4933 17.7422 49.37 17.0622 49.37H13.5322L14.9522 42.5H21.7222V44.58H16.6422L16.0922 47.29L17.3022 47.31C18.2555 47.33 19.0922 47.55 19.8122 47.97C20.5389 48.3833 21.1089 48.9433 21.5222 49.65C21.9355 50.35 22.1422 51.1467 22.1422 52.04C22.1422 52.6867 22.0189 53.2967 21.7722 53.87C21.5255 54.4367 21.1855 54.9367 20.7522 55.37C20.3255 55.8033 19.8255 56.1433 19.2522 56.39C18.6855 56.6367 18.0755 56.76 17.4222 56.76ZM28.7644 56.76C27.9377 56.76 27.191 56.5733 26.5244 56.2C25.8644 55.82 25.2944 55.2967 24.8144 54.63C24.3344 53.9633 23.9677 53.1933 23.7144 52.32C23.461 51.44 23.3344 50.5 23.3344 49.5C23.3344 48.5 23.461 47.56 23.7144 46.68C23.9677 45.8 24.3344 45.03 24.8144 44.37C25.2944 43.7033 25.8644 43.1833 26.5244 42.81C27.191 42.43 27.9377 42.24 28.7644 42.24C29.5777 42.24 30.3177 42.43 30.9844 42.81C31.651 43.1833 32.2177 43.7033 32.6844 44.37C33.1577 45.03 33.521 45.8 33.7744 46.68C34.0277 47.56 34.1544 48.5 34.1544 49.5C34.1544 50.5 34.0277 51.44 33.7744 52.32C33.521 53.1933 33.1577 53.9633 32.6844 54.63C32.2177 55.2967 31.651 55.82 30.9844 56.2C30.3177 56.5733 29.5777 56.76 28.7644 56.76ZM28.7644 54.68C29.531 54.68 30.1677 54.44 30.6744 53.96C31.1877 53.4733 31.571 52.8367 31.8244 52.05C32.0777 51.2633 32.2044 50.4133 32.2044 49.5C32.2044 48.54 32.071 47.67 31.8044 46.89C31.5444 46.1033 31.1577 45.48 30.6444 45.02C30.1377 44.5533 29.511 44.32 28.7644 44.32C28.171 44.32 27.6544 44.46 27.2144 44.74C26.781 45.02 26.421 45.4033 26.1344 45.89C25.8544 46.3767 25.641 46.93 25.4944 47.55C25.3544 48.17 25.2844 48.82 25.2844 49.5C25.2844 50.4133 25.4144 51.2633 25.6744 52.05C25.9344 52.8367 26.321 53.4733 26.8344 53.96C27.3544 54.44 27.9977 54.68 28.7644 54.68ZM40.405 56.76C39.5783 56.76 38.8317 56.5733 38.165 56.2C37.505 55.82 36.935 55.2967 36.455 54.63C35.975 53.9633 35.6083 53.1933 35.355 52.32C35.1017 51.44 34.975 50.5 34.975 49.5C34.975 48.5 35.1017 47.56 35.355 46.68C35.6083 45.8 35.975 45.03 36.455 44.37C36.935 43.7033 37.505 43.1833 38.165 42.81C38.8317 42.43 39.5783 42.24 40.405 42.24C41.2183 42.24 41.9583 42.43 42.625 42.81C43.2917 43.1833 43.8583 43.7033 44.325 44.37C44.7983 45.03 45.1617 45.8 45.415 46.68C45.6683 47.56 45.795 48.5 45.795 49.5C45.795 50.5 45.6683 51.44 45.415 52.32C45.1617 53.1933 44.7983 53.9633 44.325 54.63C43.8583 55.2967 43.2917 55.82 42.625 56.2C41.9583 56.5733 41.2183 56.76 40.405 56.76ZM40.405 54.68C41.1717 54.68 41.8083 54.44 42.315 53.96C42.8283 53.4733 43.2117 52.8367 43.465 52.05C43.7183 51.2633 43.845 50.4133 43.845 49.5C43.845 48.54 43.7117 47.67 43.445 46.89C43.185 46.1033 42.7983 45.48 42.285 45.02C41.7783 44.5533 41.1517 44.32 40.405 44.32C39.8117 44.32 39.295 44.46 38.855 44.74C38.4217 45.02 38.0617 45.4033 37.775 45.89C37.495 46.3767 37.2817 46.93 37.135 47.55C36.995 48.17 36.925 48.82 36.925 49.5C36.925 50.4133 37.055 51.2633 37.315 52.05C37.575 52.8367 37.9617 53.4733 38.475 53.96C38.995 54.44 39.6383 54.68 40.405 54.68Z" fill="white"></path><rect x="59.5" y="33.5" width="224" height="32" rx="16" fill="#1A1A1A"></rect><rect x="59.5" y="33.5" width="224" height="32" rx="16" stroke="#262626"></rect><path d="M71.84 54V44.2H75.284C75.8067 44.2 76.278 44.3283 76.698 44.585C77.1227 44.8417 77.4587 45.1893 77.706 45.628C77.958 46.062 78.084 46.5473 78.084 47.084C78.084 47.5553 77.9907 47.9847 77.804 48.372C77.6173 48.7593 77.3607 49.0837 77.034 49.345C76.712 49.6017 76.3457 49.779 75.935 49.877L78.315 54H76.957L74.619 49.975H73.016V54H71.84ZM73.016 48.799H75.165C75.4823 48.799 75.774 48.722 76.04 48.568C76.306 48.4093 76.516 48.197 76.67 47.931C76.8287 47.6603 76.908 47.357 76.908 47.021C76.908 46.6803 76.8287 46.377 76.67 46.111C76.516 45.8403 76.306 45.628 76.04 45.474C75.774 45.3153 75.4823 45.236 75.165 45.236H73.016V48.799ZM82.5489 54.182C81.9049 54.182 81.3169 54.0163 80.7849 53.685C80.2576 53.3537 79.8352 52.9103 79.5179 52.355C79.2052 51.795 79.0489 51.1767 79.0489 50.5C79.0489 49.9867 79.1399 49.5083 79.3219 49.065C79.5039 48.617 79.7536 48.225 80.0709 47.889C80.3929 47.5483 80.7662 47.2823 81.1909 47.091C81.6156 46.8997 82.0682 46.804 82.5489 46.804C83.0762 46.804 83.5592 46.9113 83.9979 47.126C84.4412 47.336 84.8192 47.63 85.1319 48.008C85.4492 48.386 85.6849 48.8247 85.8389 49.324C85.9976 49.8233 86.0559 50.3577 86.0139 50.927H80.3019C80.3579 51.3237 80.4886 51.6783 80.6939 51.991C80.8992 52.299 81.1606 52.544 81.4779 52.726C81.7999 52.908 82.1569 53.0013 82.5489 53.006C82.9689 53.006 83.3492 52.8987 83.6899 52.684C84.0306 52.4647 84.3059 52.166 84.5159 51.788L85.7129 52.068C85.4329 52.6887 85.0106 53.1973 84.4459 53.594C83.8812 53.986 83.2489 54.182 82.5489 54.182ZM80.2669 50.003H84.8309C84.7936 49.611 84.6676 49.254 84.4529 48.932C84.2382 48.6053 83.9652 48.344 83.6339 48.148C83.3026 47.952 82.9409 47.854 82.5489 47.854C82.1569 47.854 81.7976 47.9497 81.4709 48.141C81.1442 48.3323 80.8736 48.5913 80.6589 48.918C80.4489 49.24 80.3182 49.6017 80.2669 50.003ZM91.9755 52.152L93.0255 52.719C92.7082 53.1623 92.3045 53.517 91.8145 53.783C91.3292 54.049 90.8018 54.182 90.2325 54.182C89.5885 54.182 89.0005 54.0163 88.4685 53.685C87.9412 53.3537 87.5188 52.9103 87.2015 52.355C86.8888 51.795 86.7325 51.1767 86.7325 50.5C86.7325 49.9867 86.8235 49.5083 87.0055 49.065C87.1875 48.617 87.4372 48.225 87.7545 47.889C88.0765 47.5483 88.4498 47.2823 88.8745 47.091C89.2992 46.8997 89.7518 46.804 90.2325 46.804C90.8018 46.804 91.3292 46.937 91.8145 47.203C92.3045 47.469 92.7082 47.826 93.0255 48.274L91.9755 48.841C91.7515 48.5657 91.4855 48.3533 91.1775 48.204C90.8695 48.0547 90.5545 47.98 90.2325 47.98C89.7985 47.98 89.4042 48.0967 89.0495 48.33C88.6995 48.5587 88.4218 48.8643 88.2165 49.247C88.0112 49.6297 87.9085 50.0473 87.9085 50.5C87.9085 50.9527 88.0112 51.3703 88.2165 51.753C88.4265 52.131 88.7065 52.4343 89.0565 52.663C89.4112 52.8917 89.8032 53.006 90.2325 53.006C90.5778 53.006 90.9022 52.9267 91.2055 52.768C91.5088 52.6093 91.7655 52.404 91.9755 52.152ZM97.2462 54.182C96.6022 54.182 96.0142 54.0163 95.4822 53.685C94.9548 53.3537 94.5325 52.9103 94.2152 52.355C93.9025 51.795 93.7462 51.1767 93.7462 50.5C93.7462 49.9867 93.8372 49.5083 94.0192 49.065C94.2012 48.617 94.4508 48.225 94.7682 47.889C95.0902 47.5483 95.4635 47.2823 95.8882 47.091C96.3128 46.8997 96.7655 46.804 97.2462 46.804C97.8902 46.804 98.4758 46.9697 99.0032 47.301C99.5352 47.6323 99.9575 48.078 100.27 48.638C100.588 49.198 100.746 49.8187 100.746 50.5C100.746 51.0087 100.655 51.4847 100.473 51.928C100.291 52.3713 100.039 52.7633 99.7172 53.104C99.3998 53.44 99.0288 53.7037 98.6042 53.895C98.1842 54.0863 97.7315 54.182 97.2462 54.182ZM97.2462 53.006C97.6848 53.006 98.0792 52.8917 98.4292 52.663C98.7838 52.4297 99.0615 52.124 99.2622 51.746C99.4675 51.3633 99.5702 50.948 99.5702 50.5C99.5702 50.0427 99.4652 49.6227 99.2552 49.24C99.0498 48.8573 98.7722 48.5517 98.4222 48.323C98.0722 48.0943 97.6802 47.98 97.2462 47.98C96.8075 47.98 96.4132 48.0967 96.0632 48.33C95.7132 48.5587 95.4355 48.8643 95.2302 49.247C95.0248 49.6297 94.9222 50.0473 94.9222 50.5C94.9222 50.9667 95.0272 51.3913 95.2372 51.774C95.4472 52.152 95.7295 52.453 96.0842 52.677C96.4388 52.8963 96.8262 53.006 97.2462 53.006ZM101.904 54V47H103.08V47.875C103.328 47.5483 103.638 47.2893 104.011 47.098C104.389 46.902 104.8 46.804 105.243 46.804C105.761 46.804 106.235 46.93 106.664 47.182C107.094 47.434 107.432 47.7677 107.679 48.183C107.927 47.7677 108.263 47.434 108.687 47.182C109.117 46.93 109.588 46.804 110.101 46.804C110.629 46.804 111.107 46.9323 111.536 47.189C111.966 47.441 112.306 47.7817 112.558 48.211C112.815 48.6403 112.943 49.1187 112.943 49.646V54H111.767V49.926C111.767 49.5807 111.683 49.261 111.515 48.967C111.347 48.673 111.121 48.4373 110.836 48.26C110.552 48.0827 110.237 47.994 109.891 47.994C109.546 47.994 109.231 48.078 108.946 48.246C108.662 48.4093 108.435 48.638 108.267 48.932C108.099 49.2213 108.015 49.5527 108.015 49.926V54H106.839V49.926C106.839 49.5527 106.755 49.2213 106.587 48.932C106.419 48.638 106.191 48.4093 105.901 48.246C105.617 48.078 105.302 47.994 104.956 47.994C104.616 47.994 104.301 48.0827 104.011 48.26C103.727 48.4373 103.5 48.673 103.332 48.967C103.164 49.261 103.08 49.5807 103.08 49.926V54H101.904ZM114.346 54V47H115.522V47.875C115.769 47.5483 116.08 47.2893 116.453 47.098C116.831 46.902 117.242 46.804 117.685 46.804C118.203 46.804 118.677 46.93 119.106 47.182C119.535 47.434 119.874 47.7677 120.121 48.183C120.368 47.7677 120.704 47.434 121.129 47.182C121.558 46.93 122.03 46.804 122.543 46.804C123.07 46.804 123.549 46.9323 123.978 47.189C124.407 47.441 124.748 47.7817 125 48.211C125.257 48.6403 125.385 49.1187 125.385 49.646V54H124.209V49.926C124.209 49.5807 124.125 49.261 123.957 48.967C123.789 48.673 123.563 48.4373 123.278 48.26C122.993 48.0827 122.678 47.994 122.333 47.994C121.988 47.994 121.673 48.078 121.388 48.246C121.103 48.4093 120.877 48.638 120.709 48.932C120.541 49.2213 120.457 49.5527 120.457 49.926V54H119.281V49.926C119.281 49.5527 119.197 49.2213 119.029 48.932C118.861 48.638 118.632 48.4093 118.343 48.246C118.058 48.078 117.743 47.994 117.398 47.994C117.057 47.994 116.742 48.0827 116.453 48.26C116.168 48.4373 115.942 48.673 115.774 48.967C115.606 49.261 115.522 49.5807 115.522 49.926V54H114.346ZM129.731 54.182C129.087 54.182 128.499 54.0163 127.967 53.685C127.439 53.3537 127.017 52.9103 126.7 52.355C126.387 51.795 126.231 51.1767 126.231 50.5C126.231 49.9867 126.322 49.5083 126.504 49.065C126.686 48.617 126.935 48.225 127.253 47.889C127.575 47.5483 127.948 47.2823 128.373 47.091C128.797 46.8997 129.25 46.804 129.731 46.804C130.258 46.804 130.741 46.9113 131.18 47.126C131.623 47.336 132.001 47.63 132.314 48.008C132.631 48.386 132.867 48.8247 133.021 49.324C133.179 49.8233 133.238 50.3577 133.196 50.927H127.484C127.54 51.3237 127.67 51.6783 127.876 51.991C128.081 52.299 128.342 52.544 128.66 52.726C128.982 52.908 129.339 53.0013 129.731 53.006C130.151 53.006 130.531 52.8987 130.872 52.684C131.212 52.4647 131.488 52.166 131.698 51.788L132.895 52.068C132.615 52.6887 132.192 53.1973 131.628 53.594C131.063 53.986 130.431 54.182 129.731 54.182ZM127.449 50.003H132.013C131.975 49.611 131.849 49.254 131.635 48.932C131.42 48.6053 131.147 48.344 130.816 48.148C130.484 47.952 130.123 47.854 129.731 47.854C129.339 47.854 128.979 47.9497 128.653 48.141C128.326 48.3323 128.055 48.5913 127.841 48.918C127.631 49.24 127.5 49.6017 127.449 50.003ZM140.563 49.646V54H139.387V49.905C139.387 49.5503 139.301 49.2283 139.128 48.939C138.955 48.6497 138.724 48.421 138.435 48.253C138.146 48.0803 137.824 47.994 137.469 47.994C137.119 47.994 136.797 48.0803 136.503 48.253C136.214 48.421 135.983 48.6497 135.81 48.939C135.637 49.2283 135.551 49.5503 135.551 49.905V54H134.375V47H135.551V47.875C135.798 47.5483 136.111 47.2893 136.489 47.098C136.867 46.902 137.278 46.804 137.721 46.804C138.244 46.804 138.72 46.9323 139.149 47.189C139.583 47.441 139.926 47.7817 140.178 48.211C140.435 48.6403 140.563 49.1187 140.563 49.646ZM147.461 43.5H148.637V54H147.461V52.81C147.223 53.2207 146.904 53.552 146.502 53.804C146.101 54.056 145.63 54.182 145.088 54.182C144.58 54.182 144.104 54.0863 143.66 53.895C143.217 53.7037 142.825 53.44 142.484 53.104C142.148 52.7633 141.885 52.3713 141.693 51.928C141.502 51.4847 141.406 51.0087 141.406 50.5C141.406 49.9913 141.502 49.5153 141.693 49.072C141.885 48.624 142.148 48.232 142.484 47.896C142.825 47.5553 143.217 47.2893 143.66 47.098C144.104 46.9067 144.58 46.811 145.088 46.811C145.63 46.811 146.101 46.937 146.502 47.189C146.904 47.441 147.223 47.7723 147.461 48.183V43.5ZM145.102 53.041C145.564 53.041 145.963 52.929 146.299 52.705C146.64 52.4763 146.901 52.1683 147.083 51.781C147.27 51.3937 147.363 50.9667 147.363 50.5C147.363 50.024 147.27 49.5947 147.083 49.212C146.897 48.8247 146.633 48.519 146.292 48.295C145.956 48.0663 145.56 47.952 145.102 47.952C144.64 47.952 144.22 48.0663 143.842 48.295C143.469 48.5237 143.17 48.8317 142.946 49.219C142.722 49.6017 142.61 50.0287 142.61 50.5C142.61 50.9713 142.725 51.4007 142.953 51.788C143.182 52.1707 143.485 52.4763 143.863 52.705C144.241 52.929 144.654 53.041 145.102 53.041ZM153.328 54.182C152.684 54.182 152.096 54.0163 151.564 53.685C151.037 53.3537 150.615 52.9103 150.297 52.355C149.985 51.795 149.828 51.1767 149.828 50.5C149.828 49.9867 149.919 49.5083 150.101 49.065C150.283 48.617 150.533 48.225 150.85 47.889C151.172 47.5483 151.546 47.2823 151.97 47.091C152.395 46.8997 152.848 46.804 153.328 46.804C153.856 46.804 154.339 46.9113 154.777 47.126C155.221 47.336 155.599 47.63 155.911 48.008C156.229 48.386 156.464 48.8247 156.618 49.324C156.777 49.8233 156.835 50.3577 156.793 50.927H151.081C151.137 51.3237 151.268 51.6783 151.473 51.991C151.679 52.299 151.94 52.544 152.257 52.726C152.579 52.908 152.936 53.0013 153.328 53.006C153.748 53.006 154.129 52.8987 154.469 52.684C154.81 52.4647 155.085 52.166 155.295 51.788L156.492 52.068C156.212 52.6887 155.79 53.1973 155.225 53.594C154.661 53.986 154.028 54.182 153.328 54.182ZM151.046 50.003H155.61C155.573 49.611 155.447 49.254 155.232 48.932C155.018 48.6053 154.745 48.344 154.413 48.148C154.082 47.952 153.72 47.854 153.328 47.854C152.936 47.854 152.577 47.9497 152.25 48.141C151.924 48.3323 151.653 48.5913 151.438 48.918C151.228 49.24 151.098 49.6017 151.046 50.003ZM163.567 43.5H164.743V54H163.567V52.81C163.329 53.2207 163.009 53.552 162.608 53.804C162.206 54.056 161.735 54.182 161.194 54.182C160.685 54.182 160.209 54.0863 159.766 53.895C159.322 53.7037 158.93 53.44 158.59 53.104C158.254 52.7633 157.99 52.3713 157.799 51.928C157.607 51.4847 157.512 51.0087 157.512 50.5C157.512 49.9913 157.607 49.5153 157.799 49.072C157.99 48.624 158.254 48.232 158.59 47.896C158.93 47.5553 159.322 47.2893 159.766 47.098C160.209 46.9067 160.685 46.811 161.194 46.811C161.735 46.811 162.206 46.937 162.608 47.189C163.009 47.441 163.329 47.7723 163.567 48.183V43.5ZM161.208 53.041C161.67 53.041 162.069 52.929 162.405 52.705C162.745 52.4763 163.007 52.1683 163.189 51.781C163.375 51.3937 163.469 50.9667 163.469 50.5C163.469 50.024 163.375 49.5947 163.189 49.212C163.002 48.8247 162.738 48.519 162.398 48.295C162.062 48.0663 161.665 47.952 161.208 47.952C160.746 47.952 160.326 48.0663 159.948 48.295C159.574 48.5237 159.276 48.8317 159.052 49.219C158.828 49.6017 158.716 50.0287 158.716 50.5C158.716 50.9713 158.83 51.4007 159.059 51.788C159.287 52.1707 159.591 52.4763 159.969 52.705C160.347 52.929 160.76 53.041 161.208 53.041ZM171.374 45.271V47H173.425V48.176H171.374V54H170.198V48.176H169.295V47H170.198V45.271C170.198 44.9117 170.285 44.5873 170.457 44.298C170.635 44.004 170.87 43.7707 171.164 43.598C171.463 43.4207 171.79 43.332 172.144 43.332C172.406 43.332 172.66 43.3857 172.907 43.493C173.155 43.5957 173.374 43.7497 173.565 43.955L172.725 44.788C172.66 44.6993 172.574 44.6317 172.466 44.585C172.364 44.5337 172.256 44.508 172.144 44.508C171.934 44.508 171.752 44.5827 171.598 44.732C171.449 44.8813 171.374 45.061 171.374 45.271ZM177.486 54.182C176.842 54.182 176.254 54.0163 175.722 53.685C175.195 53.3537 174.773 52.9103 174.455 52.355C174.143 51.795 173.986 51.1767 173.986 50.5C173.986 49.9867 174.077 49.5083 174.259 49.065C174.441 48.617 174.691 48.225 175.008 47.889C175.33 47.5483 175.704 47.2823 176.128 47.091C176.553 46.8997 177.006 46.804 177.486 46.804C178.13 46.804 178.716 46.9697 179.243 47.301C179.775 47.6323 180.198 48.078 180.51 48.638C180.828 49.198 180.986 49.8187 180.986 50.5C180.986 51.0087 180.895 51.4847 180.713 51.928C180.531 52.3713 180.279 52.7633 179.957 53.104C179.64 53.44 179.269 53.7037 178.844 53.895C178.424 54.0863 177.972 54.182 177.486 54.182ZM177.486 53.006C177.925 53.006 178.319 52.8917 178.669 52.663C179.024 52.4297 179.302 52.124 179.502 51.746C179.708 51.3633 179.81 50.948 179.81 50.5C179.81 50.0427 179.705 49.6227 179.495 49.24C179.29 48.8573 179.012 48.5517 178.662 48.323C178.312 48.0943 177.92 47.98 177.486 47.98C177.048 47.98 176.653 48.0967 176.303 48.33C175.953 48.5587 175.676 48.8643 175.47 49.247C175.265 49.6297 175.162 50.0473 175.162 50.5C175.162 50.9667 175.267 51.3913 175.477 51.774C175.687 52.152 175.97 52.453 176.324 52.677C176.679 52.8963 177.066 53.006 177.486 53.006ZM182.145 54V47H183.321V47.875C183.568 47.5483 183.881 47.2893 184.259 47.098C184.637 46.902 185.047 46.804 185.491 46.804C185.761 46.804 186.023 46.839 186.275 46.909L185.799 48.085C185.607 48.0243 185.421 47.994 185.239 47.994C184.889 47.994 184.567 48.0803 184.273 48.253C183.983 48.421 183.752 48.6497 183.58 48.939C183.407 49.2283 183.321 49.5503 183.321 49.905V54H182.145ZM196.256 43.5H197.432V54H196.256V52.81C196.018 53.2207 195.699 53.552 195.297 53.804C194.896 54.056 194.425 54.182 193.883 54.182C193.375 54.182 192.899 54.0863 192.455 53.895C192.012 53.7037 191.62 53.44 191.279 53.104C190.943 52.7633 190.68 52.3713 190.488 51.928C190.297 51.4847 190.201 51.0087 190.201 50.5C190.201 49.9913 190.297 49.5153 190.488 49.072C190.68 48.624 190.943 48.232 191.279 47.896C191.62 47.5553 192.012 47.2893 192.455 47.098C192.899 46.9067 193.375 46.811 193.883 46.811C194.425 46.811 194.896 46.937 195.297 47.189C195.699 47.441 196.018 47.7723 196.256 48.183V43.5ZM193.897 53.041C194.359 53.041 194.758 52.929 195.094 52.705C195.435 52.4763 195.696 52.1683 195.878 51.781C196.065 51.3937 196.158 50.9667 196.158 50.5C196.158 50.024 196.065 49.5947 195.878 49.212C195.692 48.8247 195.428 48.519 195.087 48.295C194.751 48.0663 194.355 47.952 193.897 47.952C193.435 47.952 193.015 48.0663 192.637 48.295C192.264 48.5237 191.965 48.8317 191.741 49.219C191.517 49.6017 191.405 50.0287 191.405 50.5C191.405 50.9713 191.52 51.4007 191.748 51.788C191.977 52.1707 192.28 52.4763 192.658 52.705C193.036 52.929 193.449 53.041 193.897 53.041ZM198.831 51.34V47H200.007V51.081C200.007 51.4357 200.094 51.7577 200.266 52.047C200.439 52.3363 200.67 52.5673 200.959 52.74C201.253 52.908 201.575 52.992 201.925 52.992C202.28 52.992 202.6 52.908 202.884 52.74C203.174 52.5673 203.405 52.3363 203.577 52.047C203.75 51.7577 203.836 51.4357 203.836 51.081V47H205.012L205.019 54H203.843L203.836 53.111C203.589 53.4377 203.276 53.699 202.898 53.895C202.52 54.0863 202.112 54.182 201.673 54.182C201.151 54.182 200.672 54.056 200.238 53.804C199.809 53.5473 199.466 53.2043 199.209 52.775C198.957 52.3457 198.831 51.8673 198.831 51.34ZM209.438 54.182C208.794 54.182 208.206 54.0163 207.674 53.685C207.146 53.3537 206.724 52.9103 206.407 52.355C206.094 51.795 205.938 51.1767 205.938 50.5C205.938 49.9867 206.029 49.5083 206.211 49.065C206.393 48.617 206.642 48.225 206.96 47.889C207.282 47.5483 207.655 47.2823 208.08 47.091C208.504 46.8997 208.957 46.804 209.438 46.804C209.965 46.804 210.448 46.9113 210.887 47.126C211.33 47.336 211.708 47.63 212.021 48.008C212.338 48.386 212.574 48.8247 212.728 49.324C212.886 49.8233 212.945 50.3577 212.903 50.927H207.191C207.247 51.3237 207.377 51.6783 207.583 51.991C207.788 52.299 208.049 52.544 208.367 52.726C208.689 52.908 209.046 53.0013 209.438 53.006C209.858 53.006 210.238 52.8987 210.579 52.684C210.919 52.4647 211.195 52.166 211.405 51.788L212.602 52.068C212.322 52.6887 211.899 53.1973 211.335 53.594C210.77 53.986 210.138 54.182 209.438 54.182ZM207.156 50.003H211.72C211.682 49.611 211.556 49.254 211.342 48.932C211.127 48.6053 210.854 48.344 210.523 48.148C210.191 47.952 209.83 47.854 209.438 47.854C209.046 47.854 208.686 47.9497 208.36 48.141C208.033 48.3323 207.762 48.5913 207.548 48.918C207.338 49.24 207.207 49.6017 207.156 50.003ZM223.176 43.5H224.352V54H223.176V52.81C222.938 53.2207 222.619 53.552 222.217 53.804C221.816 54.056 221.345 54.182 220.803 54.182C220.295 54.182 219.819 54.0863 219.375 53.895C218.932 53.7037 218.54 53.44 218.199 53.104C217.863 52.7633 217.6 52.3713 217.408 51.928C217.217 51.4847 217.121 51.0087 217.121 50.5C217.121 49.9913 217.217 49.5153 217.408 49.072C217.6 48.624 217.863 48.232 218.199 47.896C218.54 47.5553 218.932 47.2893 219.375 47.098C219.819 46.9067 220.295 46.811 220.803 46.811C221.345 46.811 221.816 46.937 222.217 47.189C222.619 47.441 222.938 47.7723 223.176 48.183V43.5ZM220.817 53.041C221.279 53.041 221.678 52.929 222.014 52.705C222.355 52.4763 222.616 52.1683 222.798 51.781C222.985 51.3937 223.078 50.9667 223.078 50.5C223.078 50.024 222.985 49.5947 222.798 49.212C222.612 48.8247 222.348 48.519 222.007 48.295C221.671 48.0663 221.275 47.952 220.817 47.952C220.355 47.952 219.935 48.0663 219.557 48.295C219.184 48.5237 218.885 48.8317 218.661 49.219C218.437 49.6017 218.325 50.0287 218.325 50.5C218.325 50.9713 218.44 51.4007 218.668 51.788C218.897 52.1707 219.2 52.4763 219.578 52.705C219.956 52.929 220.369 53.041 220.817 53.041ZM226.031 47H227.207V54H226.031V47ZM226.633 45.859C226.447 45.859 226.29 45.7983 226.164 45.677C226.038 45.5557 225.975 45.404 225.975 45.222C225.975 45.04 226.038 44.8883 226.164 44.767C226.29 44.6457 226.444 44.585 226.626 44.585C226.808 44.585 226.962 44.6457 227.088 44.767C227.214 44.8883 227.277 45.04 227.277 45.222C227.277 45.404 227.214 45.5557 227.088 45.677C226.967 45.7983 226.815 45.859 226.633 45.859ZM228.93 54V43.5H230.106V54H228.93ZM231.787 47H232.963V54H231.787V47ZM232.389 45.859C232.203 45.859 232.046 45.7983 231.92 45.677C231.794 45.5557 231.731 45.404 231.731 45.222C231.731 45.04 231.794 44.8883 231.92 44.767C232.046 44.6457 232.2 44.585 232.382 44.585C232.564 44.585 232.718 44.6457 232.844 44.767C232.97 44.8883 233.033 45.04 233.033 45.222C233.033 45.404 232.97 45.5557 232.844 45.677C232.723 45.7983 232.571 45.859 232.389 45.859ZM240.016 47H241.192V54.224C241.192 54.686 241.092 55.1153 240.891 55.512C240.695 55.9133 240.429 56.261 240.093 56.555C239.757 56.8537 239.374 57.0847 238.945 57.248C238.516 57.416 238.068 57.5 237.601 57.5C237.116 57.5 236.647 57.3903 236.194 57.171C235.741 56.9563 235.345 56.667 235.004 56.303C234.668 55.9437 234.425 55.54 234.276 55.092L235.354 54.602C235.443 54.924 235.601 55.2133 235.83 55.47C236.063 55.7313 236.334 55.9367 236.642 56.086C236.955 56.24 237.274 56.317 237.601 56.317C237.909 56.317 238.205 56.2633 238.49 56.156C238.779 56.0487 239.038 55.8993 239.267 55.708C239.5 55.5213 239.682 55.2997 239.813 55.043C239.948 54.791 240.016 54.518 240.016 54.224V52.831C239.778 53.2323 239.463 53.559 239.071 53.811C238.684 54.0583 238.231 54.182 237.713 54.182C237.218 54.182 236.754 54.0863 236.32 53.895C235.886 53.7037 235.506 53.44 235.179 53.104C234.852 52.7633 234.596 52.3713 234.409 51.928C234.222 51.4847 234.129 51.0087 234.129 50.5C234.129 49.9913 234.222 49.5153 234.409 49.072C234.596 48.624 234.852 48.232 235.179 47.896C235.506 47.5553 235.886 47.2893 236.32 47.098C236.754 46.9067 237.218 46.811 237.713 46.811C238.231 46.811 238.684 46.9347 239.071 47.182C239.463 47.4293 239.778 47.756 240.016 48.162V47ZM237.72 53.041C238.173 53.041 238.565 52.9243 238.896 52.691C239.232 52.4577 239.491 52.1473 239.673 51.76C239.855 51.3727 239.946 50.9527 239.946 50.5C239.946 50.0333 239.853 49.6087 239.666 49.226C239.484 48.8387 239.225 48.5307 238.889 48.302C238.558 48.0687 238.168 47.952 237.72 47.952C237.281 47.952 236.88 48.0663 236.516 48.295C236.152 48.5237 235.863 48.8317 235.648 49.219C235.438 49.6017 235.333 50.0287 235.333 50.5C235.333 50.9713 235.44 51.4007 235.655 51.788C235.874 52.1707 236.164 52.4763 236.523 52.705C236.887 52.929 237.286 53.041 237.72 53.041ZM245.859 54.182C245.215 54.182 244.627 54.0163 244.095 53.685C243.568 53.3537 243.146 52.9103 242.828 52.355C242.516 51.795 242.359 51.1767 242.359 50.5C242.359 49.9867 242.45 49.5083 242.632 49.065C242.814 48.617 243.064 48.225 243.381 47.889C243.703 47.5483 244.077 47.2823 244.501 47.091C244.926 46.8997 245.379 46.804 245.859 46.804C246.387 46.804 246.87 46.9113 247.308 47.126C247.752 47.336 248.13 47.63 248.442 48.008C248.76 48.386 248.995 48.8247 249.149 49.324C249.308 49.8233 249.366 50.3577 249.324 50.927H243.612C243.668 51.3237 243.799 51.6783 244.004 51.991C244.21 52.299 244.471 52.544 244.788 52.726C245.11 52.908 245.467 53.0013 245.859 53.006C246.279 53.006 246.66 52.8987 247 52.684C247.341 52.4647 247.616 52.166 247.826 51.788L249.023 52.068C248.743 52.6887 248.321 53.1973 247.756 53.594C247.192 53.986 246.559 54.182 245.859 54.182ZM243.577 50.003H248.141C248.104 49.611 247.978 49.254 247.763 48.932C247.549 48.6053 247.276 48.344 246.944 48.148C246.613 47.952 246.251 47.854 245.859 47.854C245.467 47.854 245.108 47.9497 244.781 48.141C244.455 48.3323 244.184 48.5913 243.969 48.918C243.759 49.24 243.629 49.6017 243.577 50.003ZM256.692 49.646V54H255.516V49.905C255.516 49.5503 255.43 49.2283 255.257 48.939C255.084 48.6497 254.853 48.421 254.564 48.253C254.275 48.0803 253.953 47.994 253.598 47.994C253.248 47.994 252.926 48.0803 252.632 48.253C252.343 48.421 252.112 48.6497 251.939 48.939C251.766 49.2283 251.68 49.5503 251.68 49.905V54H250.504V47H251.68V47.875C251.927 47.5483 252.24 47.2893 252.618 47.098C252.996 46.902 253.407 46.804 253.85 46.804C254.373 46.804 254.849 46.9323 255.278 47.189C255.712 47.441 256.055 47.7817 256.307 48.211C256.564 48.6403 256.692 49.1187 256.692 49.646ZM262.778 52.152L263.828 52.719C263.511 53.1623 263.107 53.517 262.617 53.783C262.132 54.049 261.605 54.182 261.035 54.182C260.391 54.182 259.803 54.0163 259.271 53.685C258.744 53.3537 258.322 52.9103 258.004 52.355C257.692 51.795 257.535 51.1767 257.535 50.5C257.535 49.9867 257.626 49.5083 257.808 49.065C257.99 48.617 258.24 48.225 258.557 47.889C258.879 47.5483 259.253 47.2823 259.677 47.091C260.102 46.8997 260.555 46.804 261.035 46.804C261.605 46.804 262.132 46.937 262.617 47.203C263.107 47.469 263.511 47.826 263.828 48.274L262.778 48.841C262.554 48.5657 262.288 48.3533 261.98 48.204C261.672 48.0547 261.357 47.98 261.035 47.98C260.601 47.98 260.207 48.0967 259.852 48.33C259.502 48.5587 259.225 48.8643 259.019 49.247C258.814 49.6297 258.711 50.0473 258.711 50.5C258.711 50.9527 258.814 51.3703 259.019 51.753C259.229 52.131 259.509 52.4343 259.859 52.663C260.214 52.8917 260.606 53.006 261.035 53.006C261.381 53.006 261.705 52.9267 262.008 52.768C262.312 52.6093 262.568 52.404 262.778 52.152ZM268.049 54.182C267.405 54.182 266.817 54.0163 266.285 53.685C265.758 53.3537 265.335 52.9103 265.018 52.355C264.705 51.795 264.549 51.1767 264.549 50.5C264.549 49.9867 264.64 49.5083 264.822 49.065C265.004 48.617 265.254 48.225 265.571 47.889C265.893 47.5483 266.266 47.2823 266.691 47.091C267.116 46.8997 267.568 46.804 268.049 46.804C268.576 46.804 269.059 46.9113 269.498 47.126C269.941 47.336 270.319 47.63 270.632 48.008C270.949 48.386 271.185 48.8247 271.339 49.324C271.498 49.8233 271.556 50.3577 271.514 50.927H265.802C265.858 51.3237 265.989 51.6783 266.194 51.991C266.399 52.299 266.661 52.544 266.978 52.726C267.3 52.908 267.657 53.0013 268.049 53.006C268.469 53.006 268.849 52.8987 269.19 52.684C269.531 52.4647 269.806 52.166 270.016 51.788L271.213 52.068C270.933 52.6887 270.511 53.1973 269.946 53.594C269.381 53.986 268.749 54.182 268.049 54.182ZM265.767 50.003H270.331C270.294 49.611 270.168 49.254 269.953 48.932C269.738 48.6053 269.465 48.344 269.134 48.148C268.803 47.952 268.441 47.854 268.049 47.854C267.657 47.854 267.298 47.9497 266.971 48.141C266.644 48.3323 266.374 48.5913 266.159 48.918C265.949 49.24 265.818 49.6017 265.767 50.003Z" fill="#999999"></path></g><defs><clipPath id="clip0_166_1050"><rect width="462.5" height="66" fill="white"></rect></clipPath></defs></svg>