<svg xmlns="http://www.w3.org/2000/svg" width="455" height="212" viewBox="0 0 455 212" fill="none"><rect x="0.5" y="0.5" width="454" height="211" rx="11.5" fill="#1A1A1A"></rect><rect x="0.5" y="0.5" width="454" height="211" rx="11.5" stroke="#262626"></rect><rect x="187" y="40.5" width="81" height="81" rx="40.5" stroke="url(#paint0_linear_104_12853)"></rect><rect x="187" y="40.5" width="81" height="81" rx="40.5" stroke="url(#paint1_linear_104_12853)"></rect><rect x="197" y="50.5" width="61" height="61" rx="30.5" stroke="url(#paint2_linear_104_12853)"></rect><rect x="197" y="50.5" width="61" height="61" rx="30.5" stroke="url(#paint3_linear_104_12853)"></rect><path fill-rule="evenodd" clip-rule="evenodd" d="M226.848 95.664C226.891 95.6888 226.924 95.7079 226.948 95.7213L226.988 95.7434C227.304 95.9167 227.695 95.9154 228.011 95.7439L228.052 95.7213C228.076 95.7079 228.109 95.6888 228.152 95.664C228.238 95.6144 228.36 95.5421 228.514 95.4474C228.821 95.2582 229.255 94.9791 229.773 94.6129C230.808 93.8819 232.189 92.7972 233.573 91.3804C236.327 88.5605 239.188 84.3237 239.188 78.875C239.188 72.4202 233.955 67.1875 227.5 67.1875C221.045 67.1875 215.812 72.4202 215.812 78.875C215.812 84.3237 218.673 88.5605 221.427 91.3804C222.811 92.7972 224.192 93.8819 225.227 94.6129C225.745 94.9791 226.179 95.2582 226.486 95.4474C226.64 95.5421 226.762 95.6144 226.848 95.664ZM227.5 83.125C229.847 83.125 231.75 81.2222 231.75 78.875C231.75 76.5278 229.847 74.625 227.5 74.625C225.153 74.625 223.25 76.5278 223.25 78.875C223.25 81.2222 225.153 83.125 227.5 83.125Z" fill="#A685FA"></path><path d="M142.391 164L145.101 150H146.781L150.371 159.43L153.941 150H155.621L158.341 164H156.221L154.411 154.63L151.061 163.47H149.661L146.321 154.63L144.511 164H142.391ZM167.554 154H169.634V164H167.544L167.464 162.55C167.171 163.063 166.774 163.477 166.274 163.79C165.774 164.103 165.184 164.26 164.504 164.26C163.771 164.26 163.081 164.123 162.434 163.85C161.788 163.57 161.218 163.183 160.724 162.69C160.238 162.197 159.858 161.63 159.584 160.99C159.311 160.343 159.174 159.65 159.174 158.91C159.174 158.197 159.308 157.527 159.574 156.9C159.841 156.267 160.211 155.713 160.684 155.24C161.158 154.767 161.704 154.397 162.324 154.13C162.951 153.857 163.621 153.72 164.334 153.72C165.061 153.72 165.701 153.887 166.254 154.22C166.814 154.547 167.278 154.967 167.644 155.48L167.554 154ZM164.454 162.25C165.041 162.25 165.554 162.107 165.994 161.82C166.434 161.527 166.774 161.133 167.014 160.64C167.261 160.147 167.384 159.6 167.384 159C167.384 158.393 167.261 157.843 167.014 157.35C166.768 156.857 166.424 156.467 165.984 156.18C165.551 155.887 165.041 155.74 164.454 155.74C163.874 155.74 163.344 155.887 162.864 156.18C162.384 156.473 162.004 156.867 161.724 157.36C161.444 157.853 161.304 158.4 161.304 159C161.304 159.607 161.448 160.157 161.734 160.65C162.028 161.137 162.411 161.527 162.884 161.82C163.364 162.107 163.888 162.25 164.454 162.25ZM171.63 154H173.71V164H171.63V154ZM172.69 152.55C172.37 152.55 172.103 152.447 171.89 152.24C171.676 152.033 171.57 151.773 171.57 151.46C171.57 151.153 171.676 150.897 171.89 150.69C172.103 150.477 172.366 150.37 172.68 150.37C172.986 150.37 173.246 150.477 173.46 150.69C173.673 150.897 173.78 151.153 173.78 151.46C173.78 151.773 173.673 152.033 173.46 152.24C173.253 152.447 172.996 152.55 172.69 152.55ZM185.044 157.73V164H182.964V158.24C182.964 157.793 182.854 157.387 182.634 157.02C182.42 156.653 182.13 156.363 181.764 156.15C181.404 155.93 180.997 155.82 180.544 155.82C180.104 155.82 179.7 155.93 179.334 156.15C178.967 156.363 178.674 156.653 178.454 157.02C178.234 157.387 178.124 157.793 178.124 158.24V164H176.044V154H178.124V155.06C178.47 154.647 178.897 154.32 179.404 154.08C179.91 153.84 180.457 153.72 181.044 153.72C181.784 153.72 182.457 153.9 183.064 154.26C183.67 154.62 184.15 155.103 184.504 155.71C184.864 156.317 185.044 156.99 185.044 157.73ZM200.255 150H202.335V164H200.255V157.54H193.925V164H191.845V150H193.925V155.46H200.255V150ZM208.998 164.26C208.078 164.26 207.238 164.023 206.478 163.55C205.725 163.077 205.122 162.443 204.668 161.65C204.222 160.85 203.998 159.967 203.998 159C203.998 158.267 204.128 157.583 204.388 156.95C204.648 156.31 205.005 155.75 205.458 155.27C205.918 154.783 206.452 154.403 207.058 154.13C207.665 153.857 208.312 153.72 208.998 153.72C209.765 153.72 210.468 153.88 211.108 154.2C211.748 154.513 212.295 154.95 212.748 155.51C213.202 156.063 213.535 156.703 213.748 157.43C213.962 158.15 214.025 158.917 213.938 159.73H206.228C206.315 160.19 206.482 160.607 206.728 160.98C206.982 161.347 207.302 161.637 207.688 161.85C208.082 162.063 208.518 162.173 208.998 162.18C209.505 162.18 209.965 162.053 210.378 161.8C210.798 161.547 211.142 161.197 211.408 160.75L213.518 161.24C213.118 162.127 212.515 162.853 211.708 163.42C210.902 163.98 209.998 164.26 208.998 164.26ZM206.158 158.14H211.838C211.772 157.66 211.602 157.227 211.328 156.84C211.062 156.447 210.725 156.137 210.318 155.91C209.918 155.677 209.478 155.56 208.998 155.56C208.525 155.56 208.085 155.673 207.678 155.9C207.278 156.127 206.945 156.437 206.678 156.83C206.418 157.217 206.245 157.653 206.158 158.14ZM223.355 154H225.435V164H223.345L223.265 162.55C222.972 163.063 222.575 163.477 222.075 163.79C221.575 164.103 220.985 164.26 220.305 164.26C219.572 164.26 218.882 164.123 218.235 163.85C217.588 163.57 217.018 163.183 216.525 162.69C216.038 162.197 215.658 161.63 215.385 160.99C215.112 160.343 214.975 159.65 214.975 158.91C214.975 158.197 215.108 157.527 215.375 156.9C215.642 156.267 216.012 155.713 216.485 155.24C216.958 154.767 217.505 154.397 218.125 154.13C218.752 153.857 219.422 153.72 220.135 153.72C220.862 153.72 221.502 153.887 222.055 154.22C222.615 154.547 223.078 154.967 223.445 155.48L223.355 154ZM220.255 162.25C220.842 162.25 221.355 162.107 221.795 161.82C222.235 161.527 222.575 161.133 222.815 160.64C223.062 160.147 223.185 159.6 223.185 159C223.185 158.393 223.062 157.843 222.815 157.35C222.568 156.857 222.225 156.467 221.785 156.18C221.352 155.887 220.842 155.74 220.255 155.74C219.675 155.74 219.145 155.887 218.665 156.18C218.185 156.473 217.805 156.867 217.525 157.36C217.245 157.853 217.105 158.4 217.105 159C217.105 159.607 217.248 160.157 217.535 160.65C217.828 161.137 218.212 161.527 218.685 161.82C219.165 162.107 219.688 162.25 220.255 162.25ZM235.025 149H237.105V164H235.025V162.53C234.698 163.05 234.272 163.47 233.745 163.79C233.218 164.103 232.602 164.26 231.895 164.26C231.168 164.26 230.488 164.123 229.855 163.85C229.222 163.577 228.662 163.2 228.175 162.72C227.695 162.233 227.318 161.673 227.045 161.04C226.772 160.407 226.635 159.727 226.635 159C226.635 158.273 226.772 157.593 227.045 156.96C227.318 156.32 227.695 155.76 228.175 155.28C228.662 154.793 229.222 154.413 229.855 154.14C230.488 153.867 231.168 153.73 231.895 153.73C232.602 153.73 233.218 153.89 233.745 154.21C234.272 154.523 234.698 154.937 235.025 155.45V149ZM231.915 162.25C232.502 162.25 233.015 162.107 233.455 161.82C233.895 161.527 234.235 161.133 234.475 160.64C234.722 160.147 234.845 159.6 234.845 159C234.845 158.393 234.722 157.843 234.475 157.35C234.228 156.857 233.885 156.467 233.445 156.18C233.012 155.887 232.502 155.74 231.915 155.74C231.335 155.74 230.805 155.887 230.325 156.18C229.852 156.473 229.472 156.867 229.185 157.36C228.905 157.853 228.765 158.4 228.765 159C228.765 159.607 228.908 160.157 229.195 160.65C229.488 161.137 229.872 161.527 230.345 161.82C230.825 162.107 231.348 162.25 231.915 162.25ZM244.024 164.28C243.057 164.28 242.174 164.043 241.374 163.57C240.581 163.097 239.947 162.46 239.474 161.66C239.001 160.86 238.764 159.973 238.764 159C238.764 158.273 238.901 157.593 239.174 156.96C239.447 156.327 239.824 155.77 240.304 155.29C240.791 154.803 241.351 154.423 241.984 154.15C242.617 153.877 243.297 153.74 244.024 153.74C244.731 153.74 245.344 153.9 245.864 154.22C246.384 154.54 246.811 154.957 247.144 155.47V154H249.224V169H247.144V162.55C246.811 163.057 246.384 163.473 245.864 163.8C245.344 164.12 244.731 164.28 244.024 164.28ZM244.044 155.75C243.464 155.75 242.934 155.897 242.454 156.19C241.974 156.483 241.594 156.877 241.314 157.37C241.034 157.863 240.894 158.407 240.894 159C240.894 159.607 241.037 160.157 241.324 160.65C241.611 161.143 241.991 161.537 242.464 161.83C242.944 162.117 243.471 162.26 244.044 162.26C244.631 162.26 245.144 162.113 245.584 161.82C246.024 161.527 246.364 161.133 246.604 160.64C246.844 160.147 246.964 159.6 246.964 159C246.964 158.4 246.841 157.857 246.594 157.37C246.354 156.877 246.014 156.483 245.574 156.19C245.141 155.897 244.631 155.75 244.044 155.75ZM250.995 160.25V154H253.075V159.74C253.075 160.187 253.185 160.593 253.405 160.96C253.625 161.327 253.919 161.62 254.285 161.84C254.652 162.053 255.055 162.16 255.495 162.16C255.942 162.16 256.345 162.053 256.705 161.84C257.072 161.62 257.362 161.327 257.575 160.96C257.795 160.593 257.905 160.187 257.905 159.74V154H259.985L259.995 164H257.915L257.905 162.92C257.565 163.333 257.142 163.66 256.635 163.9C256.129 164.14 255.585 164.26 255.005 164.26C254.265 164.26 253.592 164.08 252.985 163.72C252.379 163.36 251.895 162.877 251.535 162.27C251.175 161.663 250.995 160.99 250.995 160.25ZM269.644 154H271.724V164H269.634L269.554 162.55C269.261 163.063 268.864 163.477 268.364 163.79C267.864 164.103 267.274 164.26 266.594 164.26C265.861 164.26 265.171 164.123 264.524 163.85C263.877 163.57 263.307 163.183 262.814 162.69C262.327 162.197 261.947 161.63 261.674 160.99C261.401 160.343 261.264 159.65 261.264 158.91C261.264 158.197 261.397 157.527 261.664 156.9C261.931 156.267 262.301 155.713 262.774 155.24C263.247 154.767 263.794 154.397 264.414 154.13C265.041 153.857 265.711 153.72 266.424 153.72C267.151 153.72 267.791 153.887 268.344 154.22C268.904 154.547 269.367 154.967 269.734 155.48L269.644 154ZM266.544 162.25C267.131 162.25 267.644 162.107 268.084 161.82C268.524 161.527 268.864 161.133 269.104 160.64C269.351 160.147 269.474 159.6 269.474 159C269.474 158.393 269.351 157.843 269.104 157.35C268.857 156.857 268.514 156.467 268.074 156.18C267.641 155.887 267.131 155.74 266.544 155.74C265.964 155.74 265.434 155.887 264.954 156.18C264.474 156.473 264.094 156.867 263.814 157.36C263.534 157.853 263.394 158.4 263.394 159C263.394 159.607 263.537 160.157 263.824 160.65C264.117 161.137 264.501 161.527 264.974 161.82C265.454 162.107 265.977 162.25 266.544 162.25ZM273.72 164V154H275.8V155.06C276.146 154.647 276.573 154.32 277.08 154.08C277.586 153.84 278.133 153.72 278.72 153.72C279.093 153.72 279.463 153.77 279.83 153.87L279 155.97C278.74 155.87 278.48 155.82 278.22 155.82C277.78 155.82 277.376 155.93 277.01 156.15C276.643 156.363 276.35 156.653 276.13 157.02C275.91 157.387 275.8 157.793 275.8 158.24V164H273.72ZM286.519 156.08H284.419L284.409 164H282.329L282.339 156.08H280.749V154H282.339L282.329 150.86H284.409L284.419 154H286.519V156.08ZM292.475 164.26C291.555 164.26 290.715 164.023 289.955 163.55C289.202 163.077 288.598 162.443 288.145 161.65C287.698 160.85 287.475 159.967 287.475 159C287.475 158.267 287.605 157.583 287.865 156.95C288.125 156.31 288.482 155.75 288.935 155.27C289.395 154.783 289.928 154.403 290.535 154.13C291.142 153.857 291.788 153.72 292.475 153.72C293.242 153.72 293.945 153.88 294.585 154.2C295.225 154.513 295.772 154.95 296.225 155.51C296.678 156.063 297.012 156.703 297.225 157.43C297.438 158.15 297.502 158.917 297.415 159.73H289.705C289.792 160.19 289.958 160.607 290.205 160.98C290.458 161.347 290.778 161.637 291.165 161.85C291.558 162.063 291.995 162.173 292.475 162.18C292.982 162.18 293.442 162.053 293.855 161.8C294.275 161.547 294.618 161.197 294.885 160.75L296.995 161.24C296.595 162.127 295.992 162.853 295.185 163.42C294.378 163.98 293.475 164.26 292.475 164.26ZM289.635 158.14H295.315C295.248 157.66 295.078 157.227 294.805 156.84C294.538 156.447 294.202 156.137 293.795 155.91C293.395 155.677 292.955 155.56 292.475 155.56C292.002 155.56 291.562 155.673 291.155 155.9C290.755 156.127 290.422 156.437 290.155 156.83C289.895 157.217 289.722 157.653 289.635 158.14ZM299.071 164V154H301.151V155.06C301.498 154.647 301.924 154.32 302.431 154.08C302.938 153.84 303.484 153.72 304.071 153.72C304.444 153.72 304.814 153.77 305.181 153.87L304.351 155.97C304.091 155.87 303.831 155.82 303.571 155.82C303.131 155.82 302.728 155.93 302.361 156.15C301.994 156.363 301.701 156.653 301.481 157.02C301.261 157.387 301.151 157.793 301.151 158.24V164H299.071ZM309.356 164.19C308.83 164.157 308.316 164.05 307.816 163.87C307.316 163.69 306.876 163.447 306.496 163.14C306.123 162.827 305.843 162.46 305.656 162.04L307.426 161.28C307.513 161.46 307.663 161.637 307.876 161.81C308.096 161.983 308.353 162.127 308.646 162.24C308.94 162.347 309.246 162.4 309.566 162.4C309.88 162.4 310.17 162.357 310.436 162.27C310.71 162.177 310.933 162.037 311.106 161.85C311.28 161.663 311.366 161.44 311.366 161.18C311.366 160.887 311.266 160.66 311.066 160.5C310.873 160.333 310.63 160.207 310.336 160.12C310.043 160.033 309.75 159.95 309.456 159.87C308.803 159.723 308.203 159.523 307.656 159.27C307.116 159.01 306.686 158.68 306.366 158.28C306.046 157.873 305.886 157.377 305.886 156.79C305.886 156.15 306.06 155.597 306.406 155.13C306.753 154.657 307.206 154.293 307.766 154.04C308.333 153.787 308.936 153.66 309.576 153.66C310.376 153.66 311.11 153.83 311.776 154.17C312.443 154.51 312.953 154.977 313.306 155.57L311.656 156.55C311.556 156.35 311.406 156.17 311.206 156.01C311.006 155.85 310.78 155.723 310.526 155.63C310.273 155.53 310.01 155.473 309.736 155.46C309.396 155.447 309.08 155.487 308.786 155.58C308.5 155.667 308.27 155.807 308.096 156C307.923 156.193 307.836 156.44 307.836 156.74C307.836 157.033 307.94 157.253 308.146 157.4C308.353 157.54 308.613 157.653 308.926 157.74C309.246 157.827 309.573 157.923 309.906 158.03C310.5 158.217 311.056 158.447 311.576 158.72C312.096 158.987 312.516 159.317 312.836 159.71C313.156 160.103 313.31 160.583 313.296 161.15C313.296 161.777 313.106 162.327 312.726 162.8C312.353 163.273 311.866 163.633 311.266 163.88C310.666 164.127 310.03 164.23 309.356 164.19Z" fill="white"></path><path d="M407.375 47.625L428.625 26.375M428.625 26.375L412.687 26.375M428.625 26.375V42.3125" stroke="#4D4D4D" stroke-width="2" stroke-linecap="round" stroke-linejoin="round"></path><defs><linearGradient id="paint0_linear_104_12853" x1="193.25" y1="126.5" x2="272.25" y2="34.5" gradientUnits="userSpaceOnUse"><stop stop-color="#A685FA"></stop><stop offset="0.323723" stop-color="#A685FA" stop-opacity="0"></stop></linearGradient><linearGradient id="paint1_linear_104_12853" x1="268.25" y1="29.5" x2="193.25" y2="122" gradientUnits="userSpaceOnUse"><stop stop-color="#A685FA"></stop><stop offset="0.576615" stop-color="#A685FA" stop-opacity="0"></stop></linearGradient><linearGradient id="paint2_linear_104_12853" x1="189.75" y1="53.5" x2="258.25" y2="112" gradientUnits="userSpaceOnUse"><stop stop-color="#A685FA"></stop><stop offset="0.323723" stop-color="#A685FA" stop-opacity="0"></stop></linearGradient><linearGradient id="paint3_linear_104_12853" x1="270.75" y1="126" x2="198.75" y2="75" gradientUnits="userSpaceOnUse"><stop stop-color="#A685FA"></stop><stop offset="0.576615" stop-color="#A685FA" stop-opacity="0"></stop></linearGradient></defs></svg>