<svg xmlns="http://www.w3.org/2000/svg" width="455" height="212" viewBox="0 0 455 212" fill="none"><rect x="0.5" y="0.5" width="454" height="211" rx="11.5" fill="#1A1A1A"></rect><rect x="0.5" y="0.5" width="454" height="211" rx="11.5" stroke="#262626"></rect><rect x="187" y="40.5" width="81" height="81" rx="40.5" stroke="url(#paint0_linear_134_6214)"></rect><rect x="187" y="40.5" width="81" height="81" rx="40.5" stroke="url(#paint1_linear_134_6214)"></rect><rect x="197" y="50.5" width="61" height="61" rx="30.5" stroke="url(#paint2_linear_134_6214)"></rect><rect x="197" y="50.5" width="61" height="61" rx="30.5" stroke="url(#paint3_linear_134_6214)"></rect><path d="M227.5 74.625C225.74 74.625 224.312 76.0521 224.312 77.8125C224.312 79.5729 225.74 81 227.5 81C229.26 81 230.688 79.5729 230.688 77.8125C230.688 76.0521 229.26 74.625 227.5 74.625Z" fill="#A685FA"></path><path fill-rule="evenodd" clip-rule="evenodd" d="M212.625 70.9062C212.625 69.4392 213.814 68.25 215.281 68.25H239.719C241.186 68.25 242.375 69.4392 242.375 70.9062V84.7188C242.375 86.1858 241.186 87.375 239.719 87.375H215.281C213.814 87.375 212.625 86.1858 212.625 84.7188V70.9062ZM222.188 77.8125C222.188 74.8785 224.566 72.5 227.5 72.5C230.434 72.5 232.812 74.8785 232.812 77.8125C232.812 80.7465 230.434 83.125 227.5 83.125C224.566 83.125 222.188 80.7465 222.188 77.8125ZM237.062 76.75C236.476 76.75 236 77.2257 236 77.8125V77.8231C236 78.4099 236.476 78.8856 237.062 78.8856H237.073C237.66 78.8856 238.136 78.4099 238.136 77.8231V77.8125C238.136 77.2257 237.66 76.75 237.073 76.75H237.062ZM216.875 77.8125C216.875 77.2257 217.351 76.75 217.938 76.75H217.948C218.535 76.75 219.011 77.2257 219.011 77.8125V77.8231C219.011 78.4099 218.535 78.8856 217.948 78.8856H217.938C217.351 78.8856 216.875 78.4099 216.875 77.8231V77.8125Z" fill="#A685FA"></path><path d="M213.688 89.5C213.101 89.5 212.625 89.9757 212.625 90.5625C212.625 91.1493 213.101 91.625 213.688 91.625C221.338 91.625 228.747 92.6481 235.787 94.5644C237.474 95.0235 239.188 93.7738 239.188 91.9864V90.5625C239.188 89.9757 238.712 89.5 238.125 89.5H213.688Z" fill="#A685FA"></path><path d="M135.676 164.26C134.556 164.26 133.579 163.987 132.746 163.44C131.919 162.893 131.276 162.16 130.816 161.24C130.362 160.313 130.136 159.287 130.136 158.16V150H132.216V158.16C132.216 158.893 132.349 159.567 132.616 160.18C132.889 160.787 133.282 161.273 133.796 161.64C134.316 162 134.942 162.18 135.676 162.18C136.429 162.18 137.062 162 137.576 161.64C138.089 161.273 138.476 160.787 138.736 160.18C139.002 159.567 139.136 158.893 139.136 158.16V150H141.216V158.16C141.216 159.007 141.086 159.8 140.826 160.54C140.566 161.273 140.192 161.92 139.706 162.48C139.219 163.04 138.636 163.477 137.956 163.79C137.276 164.103 136.516 164.26 135.676 164.26ZM152.378 157.73V164H150.298V158.24C150.298 157.793 150.188 157.387 149.968 157.02C149.754 156.653 149.464 156.363 149.098 156.15C148.738 155.93 148.331 155.82 147.878 155.82C147.438 155.82 147.034 155.93 146.668 156.15C146.301 156.363 146.008 156.653 145.788 157.02C145.568 157.387 145.458 157.793 145.458 158.24V164H143.378V154H145.458V155.06C145.804 154.647 146.231 154.32 146.738 154.08C147.244 153.84 147.791 153.72 148.378 153.72C149.118 153.72 149.791 153.9 150.398 154.26C151.004 154.62 151.484 155.103 151.838 155.71C152.198 156.317 152.378 156.99 152.378 157.73ZM154.452 164V149H156.532V164H154.452ZM163.188 164.26C162.268 164.26 161.428 164.023 160.668 163.55C159.915 163.077 159.311 162.443 158.858 161.65C158.411 160.85 158.188 159.967 158.188 159C158.188 158.267 158.318 157.583 158.578 156.95C158.838 156.31 159.195 155.75 159.648 155.27C160.108 154.783 160.641 154.403 161.248 154.13C161.855 153.857 162.501 153.72 163.188 153.72C164.108 153.72 164.945 153.957 165.698 154.43C166.458 154.903 167.061 155.54 167.508 156.34C167.961 157.14 168.188 158.027 168.188 159C168.188 159.727 168.058 160.407 167.798 161.04C167.538 161.673 167.178 162.233 166.718 162.72C166.265 163.2 165.735 163.577 165.128 163.85C164.528 164.123 163.881 164.26 163.188 164.26ZM163.188 162.18C163.741 162.18 164.238 162.033 164.678 161.74C165.118 161.447 165.465 161.06 165.718 160.58C165.978 160.093 166.108 159.567 166.108 159C166.108 158.42 165.975 157.887 165.708 157.4C165.448 156.913 165.098 156.527 164.658 156.24C164.218 155.947 163.728 155.8 163.188 155.8C162.641 155.8 162.145 155.947 161.698 156.24C161.258 156.533 160.908 156.923 160.648 157.41C160.395 157.897 160.268 158.427 160.268 159C160.268 159.593 160.401 160.13 160.668 160.61C160.935 161.09 161.288 161.473 161.728 161.76C162.175 162.04 162.661 162.18 163.188 162.18ZM176.314 161.16L178.174 162.17C177.721 162.803 177.144 163.31 176.444 163.69C175.751 164.07 174.997 164.26 174.184 164.26C173.264 164.26 172.424 164.023 171.664 163.55C170.911 163.077 170.307 162.443 169.854 161.65C169.407 160.85 169.184 159.967 169.184 159C169.184 158.267 169.314 157.583 169.574 156.95C169.834 156.31 170.191 155.75 170.644 155.27C171.104 154.783 171.637 154.403 172.244 154.13C172.851 153.857 173.497 153.72 174.184 153.72C174.997 153.72 175.751 153.91 176.444 154.29C177.144 154.67 177.721 155.18 178.174 155.82L176.314 156.83C176.034 156.497 175.707 156.243 175.334 156.07C174.961 155.89 174.577 155.8 174.184 155.8C173.637 155.8 173.141 155.95 172.694 156.25C172.254 156.543 171.904 156.933 171.644 157.42C171.391 157.9 171.264 158.427 171.264 159C171.264 159.567 171.394 160.093 171.654 160.58C171.914 161.06 172.264 161.447 172.704 161.74C173.151 162.033 173.644 162.18 174.184 162.18C174.597 162.18 174.991 162.087 175.364 161.9C175.737 161.713 176.054 161.467 176.314 161.16ZM188.295 164H185.895L183.435 159.76L181.825 161.68V164H179.745V149H181.825V158.45L185.545 154H188.265L184.855 158.07L188.295 164ZM194.94 164V150H199.76C200.514 150 201.194 150.187 201.8 150.56C202.414 150.933 202.9 151.437 203.26 152.07C203.627 152.703 203.81 153.403 203.81 154.17C203.81 154.95 203.624 155.657 203.25 156.29C202.884 156.917 202.394 157.417 201.78 157.79C201.167 158.163 200.494 158.35 199.76 158.35H197.02V164H194.94ZM197.02 156.27H199.55C199.95 156.27 200.314 156.17 200.64 155.97C200.974 155.77 201.237 155.503 201.43 155.17C201.63 154.837 201.73 154.46 201.73 154.04C201.73 153.62 201.63 153.243 201.43 152.91C201.237 152.57 200.974 152.303 200.64 152.11C200.314 151.91 199.95 151.81 199.55 151.81H197.02V156.27ZM205.448 164V154H207.528V155.06C207.875 154.647 208.301 154.32 208.808 154.08C209.315 153.84 209.861 153.72 210.448 153.72C210.821 153.72 211.191 153.77 211.558 153.87L210.728 155.97C210.468 155.87 210.208 155.82 209.948 155.82C209.508 155.82 209.105 155.93 208.738 156.15C208.371 156.363 208.078 156.653 207.858 157.02C207.638 157.387 207.528 157.793 207.528 158.24V164H205.448ZM216.645 164.26C215.725 164.26 214.885 164.023 214.125 163.55C213.372 163.077 212.768 162.443 212.315 161.65C211.868 160.85 211.645 159.967 211.645 159C211.645 158.267 211.775 157.583 212.035 156.95C212.295 156.31 212.652 155.75 213.105 155.27C213.565 154.783 214.098 154.403 214.705 154.13C215.312 153.857 215.958 153.72 216.645 153.72C217.565 153.72 218.402 153.957 219.155 154.43C219.915 154.903 220.518 155.54 220.965 156.34C221.418 157.14 221.645 158.027 221.645 159C221.645 159.727 221.515 160.407 221.255 161.04C220.995 161.673 220.635 162.233 220.175 162.72C219.722 163.2 219.192 163.577 218.585 163.85C217.985 164.123 217.338 164.26 216.645 164.26ZM216.645 162.18C217.198 162.18 217.695 162.033 218.135 161.74C218.575 161.447 218.922 161.06 219.175 160.58C219.435 160.093 219.565 159.567 219.565 159C219.565 158.42 219.432 157.887 219.165 157.4C218.905 156.913 218.555 156.527 218.115 156.24C217.675 155.947 217.185 155.8 216.645 155.8C216.098 155.8 215.602 155.947 215.155 156.24C214.715 156.533 214.365 156.923 214.105 157.41C213.852 157.897 213.725 158.427 213.725 159C213.725 159.593 213.858 160.13 214.125 160.61C214.392 161.09 214.745 161.473 215.185 161.76C215.632 162.04 216.118 162.18 216.645 162.18ZM225.341 169H223.261V154H225.341V155.47C225.674 154.957 226.101 154.54 226.621 154.22C227.141 153.9 227.754 153.74 228.461 153.74C229.187 153.74 229.867 153.877 230.501 154.15C231.141 154.423 231.701 154.803 232.181 155.29C232.661 155.77 233.037 156.327 233.311 156.96C233.584 157.593 233.721 158.273 233.721 159C233.721 159.727 233.584 160.41 233.311 161.05C233.037 161.69 232.661 162.253 232.181 162.74C231.701 163.22 231.141 163.597 230.501 163.87C229.867 164.143 229.187 164.28 228.461 164.28C227.754 164.28 227.141 164.12 226.621 163.8C226.101 163.473 225.674 163.057 225.341 162.55V169ZM228.441 155.75C227.861 155.75 227.351 155.897 226.911 156.19C226.471 156.483 226.127 156.877 225.881 157.37C225.634 157.857 225.511 158.4 225.511 159C225.511 159.6 225.634 160.147 225.881 160.64C226.127 161.133 226.471 161.527 226.911 161.82C227.351 162.113 227.861 162.26 228.441 162.26C229.014 162.26 229.541 162.117 230.021 161.83C230.501 161.537 230.884 161.143 231.171 160.65C231.457 160.157 231.601 159.607 231.601 159C231.601 158.407 231.457 157.863 231.171 157.37C230.891 156.877 230.511 156.483 230.031 156.19C229.551 155.897 229.021 155.75 228.441 155.75ZM239.731 164.26C238.811 164.26 237.971 164.023 237.211 163.55C236.458 163.077 235.854 162.443 235.401 161.65C234.954 160.85 234.731 159.967 234.731 159C234.731 158.267 234.861 157.583 235.121 156.95C235.381 156.31 235.738 155.75 236.191 155.27C236.651 154.783 237.184 154.403 237.791 154.13C238.398 153.857 239.044 153.72 239.731 153.72C240.498 153.72 241.201 153.88 241.841 154.2C242.481 154.513 243.028 154.95 243.481 155.51C243.934 156.063 244.268 156.703 244.481 157.43C244.694 158.15 244.758 158.917 244.671 159.73H236.961C237.048 160.19 237.214 160.607 237.461 160.98C237.714 161.347 238.034 161.637 238.421 161.85C238.814 162.063 239.251 162.173 239.731 162.18C240.238 162.18 240.698 162.053 241.111 161.8C241.531 161.547 241.874 161.197 242.141 160.75L244.251 161.24C243.851 162.127 243.248 162.853 242.441 163.42C241.634 163.98 240.731 164.26 239.731 164.26ZM236.891 158.14H242.571C242.504 157.66 242.334 157.227 242.061 156.84C241.794 156.447 241.458 156.137 241.051 155.91C240.651 155.677 240.211 155.56 239.731 155.56C239.258 155.56 238.818 155.673 238.411 155.9C238.011 156.127 237.678 156.437 237.411 156.83C237.151 157.217 236.978 157.653 236.891 158.14ZM246.327 164V154H248.407V155.06C248.754 154.647 249.18 154.32 249.687 154.08C250.194 153.84 250.74 153.72 251.327 153.72C251.7 153.72 252.07 153.77 252.437 153.87L251.607 155.97C251.347 155.87 251.087 155.82 250.827 155.82C250.387 155.82 249.984 155.93 249.617 156.15C249.25 156.363 248.957 156.653 248.737 157.02C248.517 157.387 248.407 157.793 248.407 158.24V164H246.327ZM259.126 156.08H257.026L257.016 164H254.936L254.946 156.08H253.356V154H254.946L254.936 150.86H257.016L257.026 154H259.126V156.08ZM267.454 154H269.674L264.194 169H261.984L263.794 164L260.204 154H262.474L264.834 161.15L267.454 154ZM281.063 164L275.983 150H278.183L282.363 161.53L286.563 150H288.763L283.683 164H281.063ZM296.998 154H299.078V164H296.988L296.908 162.55C296.614 163.063 296.218 163.477 295.718 163.79C295.218 164.103 294.628 164.26 293.948 164.26C293.214 164.26 292.524 164.123 291.878 163.85C291.231 163.57 290.661 163.183 290.168 162.69C289.681 162.197 289.301 161.63 289.028 160.99C288.754 160.343 288.618 159.65 288.618 158.91C288.618 158.197 288.751 157.527 289.018 156.9C289.284 156.267 289.654 155.713 290.128 155.24C290.601 154.767 291.148 154.397 291.768 154.13C292.394 153.857 293.064 153.72 293.778 153.72C294.504 153.72 295.144 153.887 295.698 154.22C296.258 154.547 296.721 154.967 297.088 155.48L296.998 154ZM293.898 162.25C294.484 162.25 294.998 162.107 295.438 161.82C295.878 161.527 296.218 161.133 296.458 160.64C296.704 160.147 296.828 159.6 296.828 159C296.828 158.393 296.704 157.843 296.458 157.35C296.211 156.857 295.868 156.467 295.428 156.18C294.994 155.887 294.484 155.74 293.898 155.74C293.318 155.74 292.788 155.887 292.308 156.18C291.828 156.473 291.448 156.867 291.168 157.36C290.888 157.853 290.748 158.4 290.748 159C290.748 159.607 290.891 160.157 291.178 160.65C291.471 161.137 291.854 161.527 292.328 161.82C292.808 162.107 293.331 162.25 293.898 162.25ZM301.151 164V149H303.231V164H301.151ZM305.224 160.25V154H307.304V159.74C307.304 160.187 307.414 160.593 307.634 160.96C307.854 161.327 308.147 161.62 308.514 161.84C308.88 162.053 309.284 162.16 309.724 162.16C310.17 162.16 310.574 162.053 310.934 161.84C311.3 161.62 311.59 161.327 311.804 160.96C312.024 160.593 312.134 160.187 312.134 159.74V154H314.214L314.224 164H312.144L312.134 162.92C311.794 163.333 311.37 163.66 310.864 163.9C310.357 164.14 309.814 164.26 309.234 164.26C308.494 164.26 307.82 164.08 307.214 163.72C306.607 163.36 306.124 162.877 305.764 162.27C305.404 161.663 305.224 160.99 305.224 160.25ZM320.493 164.26C319.573 164.26 318.733 164.023 317.973 163.55C317.219 163.077 316.616 162.443 316.163 161.65C315.716 160.85 315.493 159.967 315.493 159C315.493 158.267 315.623 157.583 315.883 156.95C316.143 156.31 316.499 155.75 316.953 155.27C317.413 154.783 317.946 154.403 318.553 154.13C319.159 153.857 319.806 153.72 320.493 153.72C321.259 153.72 321.963 153.88 322.603 154.2C323.243 154.513 323.789 154.95 324.243 155.51C324.696 156.063 325.029 156.703 325.243 157.43C325.456 158.15 325.519 158.917 325.433 159.73H317.723C317.809 160.19 317.976 160.607 318.223 160.98C318.476 161.347 318.796 161.637 319.183 161.85C319.576 162.063 320.013 162.173 320.493 162.18C320.999 162.18 321.459 162.053 321.873 161.8C322.293 161.547 322.636 161.197 322.903 160.75L325.013 161.24C324.613 162.127 324.009 162.853 323.203 163.42C322.396 163.98 321.493 164.26 320.493 164.26ZM317.653 158.14H323.333C323.266 157.66 323.096 157.227 322.823 156.84C322.556 156.447 322.219 156.137 321.813 155.91C321.413 155.677 320.973 155.56 320.493 155.56C320.019 155.56 319.579 155.673 319.173 155.9C318.773 156.127 318.439 156.437 318.173 156.83C317.913 157.217 317.739 157.653 317.653 158.14Z" fill="white"></path><path d="M407.375 47.625L428.625 26.375M428.625 26.375L412.687 26.375M428.625 26.375V42.3125" stroke="#4D4D4D" stroke-width="2" stroke-linecap="round" stroke-linejoin="round"></path><defs><linearGradient id="paint0_linear_134_6214" x1="193.25" y1="126.5" x2="272.25" y2="34.5" gradientUnits="userSpaceOnUse"><stop stop-color="#A685FA"></stop><stop offset="0.323723" stop-color="#A685FA" stop-opacity="0"></stop></linearGradient><linearGradient id="paint1_linear_134_6214" x1="268.25" y1="29.5" x2="193.25" y2="122" gradientUnits="userSpaceOnUse"><stop stop-color="#A685FA"></stop><stop offset="0.576615" stop-color="#A685FA" stop-opacity="0"></stop></linearGradient><linearGradient id="paint2_linear_134_6214" x1="189.75" y1="53.5" x2="258.25" y2="112" gradientUnits="userSpaceOnUse"><stop stop-color="#A685FA"></stop><stop offset="0.323723" stop-color="#A685FA" stop-opacity="0"></stop></linearGradient><linearGradient id="paint3_linear_134_6214" x1="270.75" y1="126" x2="198.75" y2="75" gradientUnits="userSpaceOnUse"><stop stop-color="#A685FA"></stop><stop offset="0.576615" stop-color="#A685FA" stop-opacity="0"></stop></linearGradient></defs></svg>