<svg xmlns="http://www.w3.org/2000/svg" width="550" height="52" viewBox="0 0 550 52" fill="none"><mask id="path-1-inside-1_166_850" fill="white"><path d="M0 0H550V52H0V0Z"></path></mask><path d="M0 0H550V52H0V0Z" fill="url(#paint0_linear_166_850)"></path><path d="M1 52V0H-1V52H1Z" fill="#703BF7" mask="url(#path-1-inside-1_166_850)"></path><path fill-rule="evenodd" clip-rule="evenodd" d="M28.1794 17.3291C28.4304 17.4691 28.5536 17.7622 28.478 18.0394L26.8183 24.125H32.875C33.1239 24.125 33.349 24.2727 33.4482 24.5009C33.5474 24.7292 33.5017 24.9945 33.3319 25.1764L24.5819 34.5514C24.3858 34.7616 24.0717 34.8108 23.8207 34.6709C23.5696 34.5309 23.4464 34.2378 23.522 33.9605L25.1817 27.875H19.125C18.8761 27.875 18.651 27.7273 18.5518 27.4991C18.4526 27.2708 18.4983 27.0055 18.6681 26.8235L27.4181 17.4485C27.6142 17.2384 27.9283 17.1892 28.1794 17.3291Z" fill="white"></path><path d="M46.96 32V20.8H53.832V22.144H48.304V25.328H52.832V26.672H48.304V30.656H53.832V32H46.96ZM54.8275 32L57.7555 27.984L54.8435 23.984H56.4995L58.5875 26.832L60.6675 23.984H62.3235L59.4115 27.984L62.3395 32H60.6835L58.5875 29.12L56.4835 32H54.8275ZM65.0696 36H63.7256V24H65.0696V25.368C65.3416 24.8987 65.7043 24.52 66.1576 24.232C66.611 23.9387 67.1496 23.792 67.7736 23.792C68.355 23.792 68.899 23.9013 69.4056 24.12C69.9176 24.3387 70.3656 24.6427 70.7496 25.032C71.1336 25.416 71.435 25.8613 71.6536 26.368C71.8723 26.8747 71.9816 27.4187 71.9816 28C71.9816 28.5813 71.8723 29.128 71.6536 29.64C71.435 30.152 71.1336 30.6027 70.7496 30.992C70.3656 31.376 69.9176 31.6773 69.4056 31.896C68.899 32.1147 68.355 32.224 67.7736 32.224C67.1496 32.224 66.611 32.08 66.1576 31.792C65.7043 31.4987 65.3416 31.1173 65.0696 30.648V36ZM67.7576 25.096C67.2403 25.096 66.787 25.2267 66.3976 25.488C66.0083 25.7493 65.707 26.0987 65.4936 26.536C65.2856 26.9733 65.1816 27.4613 65.1816 28C65.1816 28.5333 65.2856 29.0213 65.4936 29.464C65.707 29.9067 66.0056 30.2587 66.3896 30.52C66.779 30.7813 67.235 30.912 67.7576 30.912C68.275 30.912 68.7496 30.784 69.1816 30.528C69.6136 30.2667 69.9603 29.9173 70.2216 29.48C70.483 29.0373 70.6136 28.544 70.6136 28C70.6136 27.4667 70.4856 26.9813 70.2296 26.544C69.9736 26.1013 69.6296 25.7493 69.1976 25.488C68.7656 25.2267 68.2856 25.096 67.7576 25.096ZM79.7045 24H81.0485V32H79.7045L79.6485 30.648C79.3978 31.112 79.0512 31.488 78.6085 31.776C78.1712 32.064 77.6485 32.208 77.0405 32.208C76.4538 32.208 75.9045 32.0987 75.3925 31.88C74.8805 31.656 74.4272 31.3493 74.0325 30.96C73.6432 30.5653 73.3392 30.112 73.1205 29.6C72.9018 29.088 72.7925 28.536 72.7925 27.944C72.7925 27.3733 72.8992 26.8347 73.1125 26.328C73.3258 25.8213 73.6218 25.3787 74.0005 25C74.3845 24.616 74.8272 24.3173 75.3285 24.104C75.8298 23.8853 76.3685 23.776 76.9445 23.776C77.5738 23.776 78.1258 23.9253 78.6005 24.224C79.0752 24.5173 79.4592 24.8987 79.7525 25.368L79.7045 24ZM77.0165 30.904C77.5445 30.904 78.0005 30.776 78.3845 30.52C78.7738 30.2587 79.0725 29.9067 79.2805 29.464C79.4938 29.0213 79.6005 28.5333 79.6005 28C79.6005 27.456 79.4938 26.9653 79.2805 26.528C79.0672 26.0853 78.7658 25.736 78.3765 25.48C77.9925 25.2187 77.5392 25.088 77.0165 25.088C76.4885 25.088 76.0085 25.2187 75.5765 25.48C75.1445 25.7413 74.8005 26.0933 74.5445 26.536C74.2938 26.9733 74.1685 27.4613 74.1685 28C74.1685 28.5387 74.2992 29.0293 74.5605 29.472C74.8218 29.9093 75.1685 30.2587 75.6005 30.52C76.0325 30.776 76.5045 30.904 77.0165 30.904ZM89.7195 27.024V32H88.3755V27.32C88.3755 26.9147 88.2768 26.5467 88.0795 26.216C87.8822 25.8853 87.6182 25.624 87.2875 25.432C86.9568 25.2347 86.5888 25.136 86.1835 25.136C85.7835 25.136 85.4155 25.2347 85.0795 25.432C84.7488 25.624 84.4848 25.8853 84.2875 26.216C84.0902 26.5467 83.9915 26.9147 83.9915 27.32V32H82.6475V24H83.9915V25C84.2742 24.6267 84.6315 24.3307 85.0635 24.112C85.4955 23.888 85.9648 23.776 86.4715 23.776C87.0688 23.776 87.6128 23.9227 88.1035 24.216C88.5995 24.504 88.9915 24.8933 89.2795 25.384C89.5728 25.8747 89.7195 26.4213 89.7195 27.024ZM93.7594 32.152C93.3274 32.136 92.906 32.056 92.4954 31.912C92.09 31.7627 91.7327 31.5627 91.4234 31.312C91.1194 31.056 90.898 30.7627 90.7594 30.432L91.9114 29.936C91.9914 30.1173 92.1354 30.288 92.3434 30.448C92.5514 30.608 92.7914 30.736 93.0634 30.832C93.3354 30.928 93.61 30.976 93.8874 30.976C94.1807 30.976 94.4554 30.9307 94.7114 30.84C94.9674 30.7493 95.1754 30.616 95.3354 30.44C95.5007 30.2587 95.5834 30.0427 95.5834 29.792C95.5834 29.5253 95.4927 29.3173 95.3114 29.168C95.1354 29.0133 94.9114 28.8933 94.6394 28.808C94.3727 28.7173 94.1007 28.632 93.8234 28.552C93.274 28.4133 92.7834 28.248 92.3514 28.056C91.9194 27.8587 91.578 27.6107 91.3274 27.312C91.082 27.008 90.9594 26.6213 90.9594 26.152C90.9594 25.656 91.0954 25.2267 91.3674 24.864C91.6447 24.5013 92.0074 24.2213 92.4554 24.024C92.9034 23.8267 93.3834 23.728 93.8954 23.728C94.5407 23.728 95.13 23.8667 95.6634 24.144C96.1967 24.4213 96.594 24.7973 96.8554 25.272L95.7754 25.904C95.6847 25.712 95.546 25.544 95.3594 25.4C95.1727 25.2507 94.9594 25.1333 94.7194 25.048C94.4794 24.9627 94.234 24.9173 93.9834 24.912C93.674 24.9013 93.3834 24.9413 93.1114 25.032C92.8447 25.1227 92.6287 25.2613 92.4634 25.448C92.3034 25.6293 92.2234 25.856 92.2234 26.128C92.2234 26.3947 92.3087 26.5973 92.4794 26.736C92.6554 26.8747 92.882 26.9867 93.1594 27.072C93.442 27.152 93.7487 27.2453 94.0794 27.352C94.5647 27.5067 95.018 27.6853 95.4394 27.888C95.8607 28.0907 96.1994 28.344 96.4554 28.648C96.7167 28.952 96.8447 29.328 96.8394 29.776C96.8394 30.2667 96.6927 30.696 96.3994 31.064C96.106 31.4267 95.7247 31.704 95.2554 31.896C94.7914 32.088 94.2927 32.1733 93.7594 32.152ZM98.1006 24H99.4446V32H98.1006V24ZM98.7886 22.696C98.5753 22.696 98.3966 22.6267 98.2526 22.488C98.1086 22.3493 98.0366 22.176 98.0366 21.968C98.0366 21.76 98.1086 21.5867 98.2526 21.448C98.3966 21.3093 98.5726 21.24 98.7806 21.24C98.9886 21.24 99.1646 21.3093 99.3086 21.448C99.4526 21.5867 99.5246 21.76 99.5246 21.968C99.5246 22.176 99.4526 22.3493 99.3086 22.488C99.17 22.6267 98.9966 22.696 98.7886 22.696ZM105.386 32H103.666L100.746 23.984H102.178L104.522 30.44L106.866 23.984H108.298L105.386 32ZM112.793 32.208C112.057 32.208 111.385 32.0187 110.777 31.64C110.174 31.2613 109.691 30.7547 109.329 30.12C108.971 29.48 108.793 28.7733 108.793 28C108.793 27.4133 108.897 26.8667 109.105 26.36C109.313 25.848 109.598 25.4 109.961 25.016C110.329 24.6267 110.755 24.3227 111.241 24.104C111.726 23.8853 112.243 23.776 112.793 23.776C113.395 23.776 113.947 23.8987 114.449 24.144C114.955 24.384 115.387 24.72 115.745 25.152C116.107 25.584 116.377 26.0853 116.553 26.656C116.734 27.2267 116.801 27.8373 116.753 28.488H110.225C110.289 28.9413 110.438 29.3467 110.673 29.704C110.907 30.056 111.206 30.336 111.569 30.544C111.937 30.752 112.345 30.8587 112.793 30.864C113.273 30.864 113.707 30.7413 114.097 30.496C114.486 30.2453 114.801 29.904 115.041 29.472L116.409 29.792C116.089 30.5013 115.606 31.0827 114.961 31.536C114.315 31.984 113.593 32.208 112.793 32.208ZM110.185 27.432H115.401C115.358 26.984 115.214 26.576 114.969 26.208C114.723 25.8347 114.411 25.536 114.033 25.312C113.654 25.088 113.241 24.976 112.793 24.976C112.345 24.976 111.934 25.0853 111.561 25.304C111.187 25.5227 110.878 25.8187 110.633 26.192C110.393 26.56 110.243 26.9733 110.185 27.432ZM125.574 32.208C124.838 32.208 124.166 32.0187 123.558 31.64C122.955 31.2613 122.472 30.7547 122.11 30.12C121.752 29.48 121.574 28.7733 121.574 28C121.574 27.4133 121.678 26.8667 121.886 26.36C122.094 25.848 122.379 25.4 122.742 25.016C123.11 24.6267 123.536 24.3227 124.022 24.104C124.507 23.8853 125.024 23.776 125.574 23.776C126.31 23.776 126.979 23.9653 127.582 24.344C128.19 24.7227 128.672 25.232 129.03 25.872C129.392 26.512 129.574 27.2213 129.574 28C129.574 28.5813 129.47 29.1253 129.262 29.632C129.054 30.1387 128.766 30.5867 128.398 30.976C128.035 31.36 127.611 31.6613 127.126 31.88C126.646 32.0987 126.128 32.208 125.574 32.208ZM125.574 30.864C126.075 30.864 126.526 30.7333 126.926 30.472C127.331 30.2053 127.648 29.856 127.878 29.424C128.112 28.9867 128.23 28.512 128.23 28C128.23 27.4773 128.11 26.9973 127.87 26.56C127.635 26.1227 127.318 25.7733 126.918 25.512C126.518 25.2507 126.07 25.12 125.574 25.12C125.072 25.12 124.622 25.2533 124.222 25.52C123.822 25.7813 123.504 26.1307 123.27 26.568C123.035 27.0053 122.918 27.4827 122.918 28C122.918 28.5333 123.038 29.0187 123.278 29.456C123.518 29.888 123.84 30.232 124.246 30.488C124.651 30.7387 125.094 30.864 125.574 30.864ZM136.363 29.888L137.563 30.536C137.2 31.0427 136.739 31.448 136.179 31.752C135.624 32.056 135.021 32.208 134.371 32.208C133.635 32.208 132.963 32.0187 132.355 31.64C131.752 31.2613 131.269 30.7547 130.907 30.12C130.549 29.48 130.371 28.7733 130.371 28C130.371 27.4133 130.475 26.8667 130.683 26.36C130.891 25.848 131.176 25.4 131.539 25.016C131.907 24.6267 132.333 24.3227 132.819 24.104C133.304 23.8853 133.821 23.776 134.371 23.776C135.021 23.776 135.624 23.928 136.179 24.232C136.739 24.536 137.2 24.944 137.563 25.456L136.363 26.104C136.107 25.7893 135.803 25.5467 135.451 25.376C135.099 25.2053 134.739 25.12 134.371 25.12C133.875 25.12 133.424 25.2533 133.019 25.52C132.619 25.7813 132.301 26.1307 132.067 26.568C131.832 27.0053 131.715 27.4827 131.715 28C131.715 28.5173 131.832 28.9947 132.067 29.432C132.307 29.864 132.627 30.2107 133.027 30.472C133.432 30.7333 133.88 30.864 134.371 30.864C134.765 30.864 135.136 30.7733 135.483 30.592C135.829 30.4107 136.123 30.176 136.363 29.888ZM142.386 32.208C141.65 32.208 140.978 32.0187 140.37 31.64C139.768 31.2613 139.285 30.7547 138.922 30.12C138.565 29.48 138.386 28.7733 138.386 28C138.386 27.4133 138.49 26.8667 138.698 26.36C138.906 25.848 139.192 25.4 139.554 25.016C139.922 24.6267 140.349 24.3227 140.834 24.104C141.32 23.8853 141.837 23.776 142.386 23.776C142.989 23.776 143.541 23.8987 144.042 24.144C144.549 24.384 144.981 24.72 145.338 25.152C145.701 25.584 145.97 26.0853 146.146 26.656C146.328 27.2267 146.394 27.8373 146.346 28.488H139.818C139.882 28.9413 140.032 29.3467 140.266 29.704C140.501 30.056 140.8 30.336 141.162 30.544C141.53 30.752 141.938 30.8587 142.386 30.864C142.866 30.864 143.301 30.7413 143.69 30.496C144.08 30.2453 144.394 29.904 144.634 29.472L146.002 29.792C145.682 30.5013 145.2 31.0827 144.554 31.536C143.909 31.984 143.186 32.208 142.386 32.208ZM139.778 27.432H144.994C144.952 26.984 144.808 26.576 144.562 26.208C144.317 25.8347 144.005 25.536 143.626 25.312C143.248 25.088 142.834 24.976 142.386 24.976C141.938 24.976 141.528 25.0853 141.154 25.304C140.781 25.5227 140.472 25.8187 140.226 26.192C139.986 26.56 139.837 26.9733 139.778 27.432ZM154.08 24H155.424V32H154.08L154.024 30.648C153.773 31.112 153.426 31.488 152.984 31.776C152.546 32.064 152.024 32.208 151.416 32.208C150.829 32.208 150.28 32.0987 149.768 31.88C149.256 31.656 148.802 31.3493 148.408 30.96C148.018 30.5653 147.714 30.112 147.496 29.6C147.277 29.088 147.168 28.536 147.168 27.944C147.168 27.3733 147.274 26.8347 147.488 26.328C147.701 25.8213 147.997 25.3787 148.376 25C148.76 24.616 149.202 24.3173 149.704 24.104C150.205 23.8853 150.744 23.776 151.32 23.776C151.949 23.776 152.501 23.9253 152.976 24.224C153.45 24.5173 153.834 24.8987 154.128 25.368L154.08 24ZM151.391 30.904C151.92 30.904 152.376 30.776 152.76 30.52C153.149 30.2587 153.448 29.9067 153.656 29.464C153.869 29.0213 153.976 28.5333 153.976 28C153.976 27.456 153.869 26.9653 153.656 26.528C153.442 26.0853 153.141 25.736 152.752 25.48C152.368 25.2187 151.914 25.088 151.391 25.088C150.864 25.088 150.384 25.2187 149.952 25.48C149.52 25.7413 149.176 26.0933 148.92 26.536C148.669 26.9733 148.544 27.4613 148.544 28C148.544 28.5387 148.674 29.0293 148.936 29.472C149.197 29.9093 149.544 30.2587 149.976 30.52C150.408 30.776 150.88 30.904 151.391 30.904ZM164.095 27.024V32H162.751V27.32C162.751 26.9147 162.652 26.5467 162.455 26.216C162.257 25.8853 161.993 25.624 161.663 25.432C161.332 25.2347 160.964 25.136 160.559 25.136C160.159 25.136 159.791 25.2347 159.455 25.432C159.124 25.624 158.86 25.8853 158.663 26.216C158.465 26.5467 158.367 26.9147 158.367 27.32V32H157.023V24H158.367V25C158.649 24.6267 159.007 24.3307 159.439 24.112C159.871 23.888 160.34 23.776 160.847 23.776C161.444 23.776 161.988 23.9227 162.479 24.216C162.975 24.504 163.367 24.8933 163.655 25.384C163.948 25.8747 164.095 26.4213 164.095 27.024ZM167.51 22.024V24H169.854V25.344H167.51V32H166.166V25.344H165.134V24H166.166V22.024C166.166 21.6133 166.265 21.2427 166.462 20.912C166.665 20.576 166.934 20.3093 167.27 20.112C167.612 19.9093 167.985 19.808 168.39 19.808C168.689 19.808 168.98 19.8693 169.262 19.992C169.545 20.1093 169.796 20.2853 170.014 20.52L169.054 21.472C168.98 21.3707 168.881 21.2933 168.758 21.24C168.641 21.1813 168.518 21.152 168.39 21.152C168.15 21.152 167.942 21.2373 167.766 21.408C167.596 21.5787 167.51 21.784 167.51 22.024ZM171.335 32V24H172.679V25C172.962 24.6267 173.319 24.3307 173.751 24.112C174.183 23.888 174.652 23.776 175.159 23.776C175.468 23.776 175.767 23.816 176.055 23.896L175.511 25.24C175.292 25.1707 175.079 25.136 174.871 25.136C174.471 25.136 174.103 25.2347 173.767 25.432C173.436 25.624 173.172 25.8853 172.975 26.216C172.778 26.5467 172.679 26.9147 172.679 27.32V32H171.335ZM180.152 32.208C179.416 32.208 178.744 32.0187 178.136 31.64C177.533 31.2613 177.051 30.7547 176.688 30.12C176.331 29.48 176.152 28.7733 176.152 28C176.152 27.4133 176.256 26.8667 176.464 26.36C176.672 25.848 176.957 25.4 177.32 25.016C177.688 24.6267 178.115 24.3227 178.6 24.104C179.085 23.8853 179.603 23.776 180.152 23.776C180.888 23.776 181.557 23.9653 182.16 24.344C182.768 24.7227 183.251 25.232 183.608 25.872C183.971 26.512 184.152 27.2213 184.152 28C184.152 28.5813 184.048 29.1253 183.84 29.632C183.632 30.1387 183.344 30.5867 182.976 30.976C182.613 31.36 182.189 31.6613 181.704 31.88C181.224 32.0987 180.707 32.208 180.152 32.208ZM180.152 30.864C180.653 30.864 181.104 30.7333 181.504 30.472C181.909 30.2053 182.227 29.856 182.456 29.424C182.691 28.9867 182.808 28.512 182.808 28C182.808 27.4773 182.688 26.9973 182.448 26.56C182.213 26.1227 181.896 25.7733 181.496 25.512C181.096 25.2507 180.648 25.12 180.152 25.12C179.651 25.12 179.2 25.2533 178.8 25.52C178.4 25.7813 178.083 26.1307 177.848 26.568C177.613 27.0053 177.496 27.4827 177.496 28C177.496 28.5333 177.616 29.0187 177.856 29.456C178.096 29.888 178.419 30.232 178.824 30.488C179.229 30.7387 179.672 30.864 180.152 30.864ZM192.548 27.024V32H191.204V27.32C191.204 26.9147 191.105 26.5467 190.908 26.216C190.71 25.8853 190.446 25.624 190.116 25.432C189.785 25.2347 189.417 25.136 189.012 25.136C188.612 25.136 188.244 25.2347 187.908 25.432C187.577 25.624 187.313 25.8853 187.116 26.216C186.918 26.5467 186.82 26.9147 186.82 27.32V32H185.476V24H186.82V25C187.102 24.6267 187.46 24.3307 187.892 24.112C188.324 23.888 188.793 23.776 189.3 23.776C189.897 23.776 190.441 23.9227 190.932 24.216C191.428 24.504 191.82 24.8933 192.108 25.384C192.401 25.8747 192.548 26.4213 192.548 27.024ZM198.292 25.344H196.476L196.468 32H195.124L195.132 25.344H193.756V24H195.132L195.124 21.488H196.468L196.476 24H198.292V25.344ZM207.713 25.344H205.897L205.889 32H204.545L204.553 25.344H203.177V24H204.553L204.545 21.488H205.889L205.897 24H207.713V25.344ZM212.464 32.208C211.728 32.208 211.056 32.0187 210.448 31.64C209.846 31.2613 209.363 30.7547 209 30.12C208.643 29.48 208.464 28.7733 208.464 28C208.464 27.4133 208.568 26.8667 208.776 26.36C208.984 25.848 209.27 25.4 209.632 25.016C210 24.6267 210.427 24.3227 210.912 24.104C211.398 23.8853 211.915 23.776 212.464 23.776C213.067 23.776 213.619 23.8987 214.12 24.144C214.627 24.384 215.059 24.72 215.416 25.152C215.779 25.584 216.048 26.0853 216.224 26.656C216.406 27.2267 216.472 27.8373 216.424 28.488H209.896C209.96 28.9413 210.11 29.3467 210.344 29.704C210.579 30.056 210.878 30.336 211.24 30.544C211.608 30.752 212.016 30.8587 212.464 30.864C212.944 30.864 213.379 30.7413 213.768 30.496C214.158 30.2453 214.472 29.904 214.712 29.472L216.08 29.792C215.76 30.5013 215.278 31.0827 214.632 31.536C213.987 31.984 213.264 32.208 212.464 32.208ZM209.856 27.432H215.072C215.03 26.984 214.886 26.576 214.64 26.208C214.395 25.8347 214.083 25.536 213.704 25.312C213.326 25.088 212.912 24.976 212.464 24.976C212.016 24.976 211.606 25.0853 211.232 25.304C210.859 25.5227 210.55 25.8187 210.304 26.192C210.064 26.56 209.915 26.9733 209.856 27.432ZM217.773 32V24H219.117V25C219.399 24.6267 219.757 24.3307 220.189 24.112C220.621 23.888 221.09 23.776 221.597 23.776C221.906 23.776 222.205 23.816 222.493 23.896L221.949 25.24C221.73 25.1707 221.517 25.136 221.309 25.136C220.909 25.136 220.541 25.2347 220.205 25.432C219.874 25.624 219.61 25.8853 219.413 26.216C219.215 26.5467 219.117 26.9147 219.117 27.32V32H217.773ZM223.507 32V24H224.851V25C225.134 24.6267 225.491 24.3307 225.923 24.112C226.355 23.888 226.824 23.776 227.331 23.776C227.64 23.776 227.939 23.816 228.227 23.896L227.683 25.24C227.464 25.1707 227.251 25.136 227.043 25.136C226.643 25.136 226.275 25.2347 225.939 25.432C225.608 25.624 225.344 25.8853 225.147 26.216C224.95 26.5467 224.851 26.9147 224.851 27.32V32H223.507ZM235.236 24H236.58V32H235.236L235.18 30.648C234.929 31.112 234.582 31.488 234.14 31.776C233.702 32.064 233.18 32.208 232.572 32.208C231.985 32.208 231.436 32.0987 230.924 31.88C230.412 31.656 229.958 31.3493 229.564 30.96C229.174 30.5653 228.87 30.112 228.652 29.6C228.433 29.088 228.324 28.536 228.324 27.944C228.324 27.3733 228.43 26.8347 228.644 26.328C228.857 25.8213 229.153 25.3787 229.532 25C229.916 24.616 230.358 24.3173 230.86 24.104C231.361 23.8853 231.9 23.776 232.476 23.776C233.105 23.776 233.657 23.9253 234.132 24.224C234.606 24.5173 234.99 24.8987 235.284 25.368L235.236 24ZM232.548 30.904C233.076 30.904 233.532 30.776 233.916 30.52C234.305 30.2587 234.604 29.9067 234.812 29.464C235.025 29.0213 235.132 28.5333 235.132 28C235.132 27.456 235.025 26.9653 234.812 26.528C234.598 26.0853 234.297 25.736 233.908 25.48C233.524 25.2187 233.07 25.088 232.548 25.088C232.02 25.088 231.54 25.2187 231.108 25.48C230.676 25.7413 230.332 26.0933 230.076 26.536C229.825 26.9733 229.7 27.4613 229.7 28C229.7 28.5387 229.83 29.0293 230.092 29.472C230.353 29.9093 230.7 30.2587 231.132 30.52C231.564 30.776 232.036 30.904 232.548 30.904ZM243.535 29.888L244.735 30.536C244.372 31.0427 243.911 31.448 243.351 31.752C242.796 32.056 242.193 32.208 241.543 32.208C240.807 32.208 240.135 32.0187 239.527 31.64C238.924 31.2613 238.441 30.7547 238.079 30.12C237.721 29.48 237.543 28.7733 237.543 28C237.543 27.4133 237.647 26.8667 237.855 26.36C238.063 25.848 238.348 25.4 238.711 25.016C239.079 24.6267 239.505 24.3227 239.991 24.104C240.476 23.8853 240.993 23.776 241.543 23.776C242.193 23.776 242.796 23.928 243.351 24.232C243.911 24.536 244.372 24.944 244.735 25.456L243.535 26.104C243.279 25.7893 242.975 25.5467 242.623 25.376C242.271 25.2053 241.911 25.12 241.543 25.12C241.047 25.12 240.596 25.2533 240.191 25.52C239.791 25.7813 239.473 26.1307 239.239 26.568C239.004 27.0053 238.887 27.4827 238.887 28C238.887 28.5173 239.004 28.9947 239.239 29.432C239.479 29.864 239.799 30.2107 240.199 30.472C240.604 30.7333 241.052 30.864 241.543 30.864C241.937 30.864 242.308 30.7733 242.655 30.592C243.001 30.4107 243.295 30.176 243.535 29.888ZM249.558 32.208C248.822 32.208 248.15 32.0187 247.542 31.64C246.939 31.2613 246.457 30.7547 246.094 30.12C245.737 29.48 245.558 28.7733 245.558 28C245.558 27.4133 245.662 26.8667 245.87 26.36C246.078 25.848 246.363 25.4 246.726 25.016C247.094 24.6267 247.521 24.3227 248.006 24.104C248.491 23.8853 249.009 23.776 249.558 23.776C250.161 23.776 250.713 23.8987 251.214 24.144C251.721 24.384 252.153 24.72 252.51 25.152C252.873 25.584 253.142 26.0853 253.318 26.656C253.499 27.2267 253.566 27.8373 253.518 28.488H246.99C247.054 28.9413 247.203 29.3467 247.438 29.704C247.673 30.056 247.971 30.336 248.334 30.544C248.702 30.752 249.11 30.8587 249.558 30.864C250.038 30.864 250.473 30.7413 250.862 30.496C251.251 30.2453 251.566 29.904 251.806 29.472L253.174 29.792C252.854 30.5013 252.371 31.0827 251.726 31.536C251.081 31.984 250.358 32.208 249.558 32.208ZM246.95 27.432H252.166C252.123 26.984 251.979 26.576 251.734 26.208C251.489 25.8347 251.177 25.536 250.798 25.312C250.419 25.088 250.006 24.976 249.558 24.976C249.11 24.976 248.699 25.0853 248.326 25.304C247.953 25.5227 247.643 25.8187 247.398 26.192C247.158 26.56 247.009 26.9733 246.95 27.432ZM260.635 22.024V24H262.979V25.344H260.635V32H259.291V25.344H258.259V24H259.291V22.024C259.291 21.6133 259.39 21.2427 259.587 20.912C259.79 20.576 260.059 20.3093 260.395 20.112C260.737 19.9093 261.11 19.808 261.515 19.808C261.814 19.808 262.105 19.8693 262.387 19.992C262.67 20.1093 262.921 20.2853 263.139 20.52L262.179 21.472C262.105 21.3707 262.006 21.2933 261.883 21.24C261.766 21.1813 261.643 21.152 261.515 21.152C261.275 21.152 261.067 21.2373 260.891 21.408C260.721 21.5787 260.635 21.784 260.635 22.024ZM267.621 32.208C266.885 32.208 266.213 32.0187 265.605 31.64C265.002 31.2613 264.519 30.7547 264.157 30.12C263.799 29.48 263.621 28.7733 263.621 28C263.621 27.4133 263.725 26.8667 263.933 26.36C264.141 25.848 264.426 25.4 264.789 25.016C265.157 24.6267 265.583 24.3227 266.069 24.104C266.554 23.8853 267.071 23.776 267.621 23.776C268.357 23.776 269.026 23.9653 269.629 24.344C270.237 24.7227 270.719 25.232 271.077 25.872C271.439 26.512 271.621 27.2213 271.621 28C271.621 28.5813 271.517 29.1253 271.309 29.632C271.101 30.1387 270.813 30.5867 270.445 30.976C270.082 31.36 269.658 31.6613 269.173 31.88C268.693 32.0987 268.175 32.208 267.621 32.208ZM267.621 30.864C268.122 30.864 268.573 30.7333 268.973 30.472C269.378 30.2053 269.695 29.856 269.925 29.424C270.159 28.9867 270.277 28.512 270.277 28C270.277 27.4773 270.157 26.9973 269.917 26.56C269.682 26.1227 269.365 25.7733 268.965 25.512C268.565 25.2507 268.117 25.12 267.621 25.12C267.119 25.12 266.669 25.2533 266.269 25.52C265.869 25.7813 265.551 26.1307 265.317 26.568C265.082 27.0053 264.965 27.4827 264.965 28C264.965 28.5333 265.085 29.0187 265.325 29.456C265.565 29.888 265.887 30.232 266.293 30.488C266.698 30.7387 267.141 30.864 267.621 30.864ZM272.944 32V24H274.288V25C274.571 24.6267 274.928 24.3307 275.36 24.112C275.792 23.888 276.262 23.776 276.768 23.776C277.078 23.776 277.376 23.816 277.664 23.896L277.12 25.24C276.902 25.1707 276.688 25.136 276.48 25.136C276.08 25.136 275.712 25.2347 275.376 25.432C275.046 25.624 274.782 25.8853 274.584 26.216C274.387 26.5467 274.288 26.9147 274.288 27.32V32H272.944ZM286.152 32.208C285.416 32.208 284.744 32.0187 284.136 31.64C283.533 31.2613 283.051 30.7547 282.688 30.12C282.331 29.48 282.152 28.7733 282.152 28C282.152 27.4133 282.256 26.8667 282.464 26.36C282.672 25.848 282.957 25.4 283.32 25.016C283.688 24.6267 284.115 24.3227 284.6 24.104C285.085 23.8853 285.603 23.776 286.152 23.776C286.888 23.776 287.557 23.9653 288.16 24.344C288.768 24.7227 289.251 25.232 289.608 25.872C289.971 26.512 290.152 27.2213 290.152 28C290.152 28.5813 290.048 29.1253 289.84 29.632C289.632 30.1387 289.344 30.5867 288.976 30.976C288.613 31.36 288.189 31.6613 287.704 31.88C287.224 32.0987 286.707 32.208 286.152 32.208ZM286.152 30.864C286.653 30.864 287.104 30.7333 287.504 30.472C287.909 30.2053 288.227 29.856 288.456 29.424C288.691 28.9867 288.808 28.512 288.808 28C288.808 27.4773 288.688 26.9973 288.448 26.56C288.213 26.1227 287.896 25.7733 287.496 25.512C287.096 25.2507 286.648 25.12 286.152 25.12C285.651 25.12 285.2 25.2533 284.8 25.52C284.4 25.7813 284.083 26.1307 283.848 26.568C283.613 27.0053 283.496 27.4827 283.496 28C283.496 28.5333 283.616 29.0187 283.856 29.456C284.096 29.888 284.419 30.232 284.824 30.488C285.229 30.7387 285.672 30.864 286.152 30.864ZM291.046 28.96V24H292.39V28.664C292.39 29.0693 292.489 29.4373 292.686 29.768C292.884 30.0987 293.148 30.3627 293.478 30.56C293.814 30.752 294.182 30.848 294.582 30.848C294.988 30.848 295.353 30.752 295.678 30.56C296.009 30.3627 296.273 30.0987 296.47 29.768C296.668 29.4373 296.766 29.0693 296.766 28.664V24H298.11L298.118 32H296.774L296.766 30.984C296.484 31.3573 296.126 31.656 295.694 31.88C295.262 32.0987 294.796 32.208 294.294 32.208C293.697 32.208 293.15 32.064 292.654 31.776C292.164 31.4827 291.772 31.0907 291.478 30.6C291.19 30.1093 291.046 29.5627 291.046 28.96ZM303.87 25.344H302.054L302.046 32H300.702L300.71 25.344H299.334V24H300.71L300.702 21.488H302.046L302.054 24H303.87V25.344ZM311.541 20H312.885V32H311.541V30.64C311.269 31.1093 310.903 31.488 310.445 31.776C309.986 32.064 309.447 32.208 308.829 32.208C308.247 32.208 307.703 32.0987 307.197 31.88C306.69 31.6613 306.242 31.36 305.853 30.976C305.469 30.5867 305.167 30.1387 304.949 29.632C304.73 29.1253 304.621 28.5813 304.621 28C304.621 27.4187 304.73 26.8747 304.949 26.368C305.167 25.856 305.469 25.408 305.853 25.024C306.242 24.6347 306.69 24.3307 307.197 24.112C307.703 23.8933 308.247 23.784 308.829 23.784C309.447 23.784 309.986 23.928 310.445 24.216C310.903 24.504 311.269 24.8827 311.541 25.352V20ZM308.845 30.904C309.373 30.904 309.829 30.776 310.213 30.52C310.602 30.2587 310.901 29.9067 311.109 29.464C311.322 29.0213 311.429 28.5333 311.429 28C311.429 27.456 311.322 26.9653 311.109 26.528C310.895 26.0853 310.594 25.736 310.205 25.48C309.821 25.2187 309.367 25.088 308.845 25.088C308.317 25.088 307.837 25.2187 307.405 25.48C306.978 25.7413 306.637 26.0933 306.381 26.536C306.125 26.9733 305.997 27.4613 305.997 28C305.997 28.5387 306.127 29.0293 306.389 29.472C306.65 29.9093 306.997 30.2587 307.429 30.52C307.861 30.776 308.333 30.904 308.845 30.904ZM318.246 32.208C317.51 32.208 316.838 32.0187 316.23 31.64C315.627 31.2613 315.144 30.7547 314.782 30.12C314.424 29.48 314.246 28.7733 314.246 28C314.246 27.4133 314.35 26.8667 314.558 26.36C314.766 25.848 315.051 25.4 315.414 25.016C315.782 24.6267 316.208 24.3227 316.694 24.104C317.179 23.8853 317.696 23.776 318.246 23.776C318.982 23.776 319.651 23.9653 320.254 24.344C320.862 24.7227 321.344 25.232 321.702 25.872C322.064 26.512 322.246 27.2213 322.246 28C322.246 28.5813 322.142 29.1253 321.934 29.632C321.726 30.1387 321.438 30.5867 321.07 30.976C320.707 31.36 320.283 31.6613 319.798 31.88C319.318 32.0987 318.8 32.208 318.246 32.208ZM318.246 30.864C318.747 30.864 319.198 30.7333 319.598 30.472C320.003 30.2053 320.32 29.856 320.55 29.424C320.784 28.9867 320.902 28.512 320.902 28C320.902 27.4773 320.782 26.9973 320.542 26.56C320.307 26.1227 319.99 25.7733 319.59 25.512C319.19 25.2507 318.742 25.12 318.246 25.12C317.744 25.12 317.294 25.2533 316.894 25.52C316.494 25.7813 316.176 26.1307 315.942 26.568C315.707 27.0053 315.59 27.4827 315.59 28C315.59 28.5333 315.71 29.0187 315.95 29.456C316.19 29.888 316.512 30.232 316.918 30.488C317.323 30.7387 317.766 30.864 318.246 30.864ZM327.043 32.208C326.307 32.208 325.635 32.0187 325.027 31.64C324.424 31.2613 323.941 30.7547 323.579 30.12C323.221 29.48 323.043 28.7733 323.043 28C323.043 27.4133 323.147 26.8667 323.355 26.36C323.563 25.848 323.848 25.4 324.211 25.016C324.579 24.6267 325.005 24.3227 325.491 24.104C325.976 23.8853 326.493 23.776 327.043 23.776C327.779 23.776 328.448 23.9653 329.051 24.344C329.659 24.7227 330.141 25.232 330.499 25.872C330.861 26.512 331.043 27.2213 331.043 28C331.043 28.5813 330.939 29.1253 330.731 29.632C330.523 30.1387 330.235 30.5867 329.867 30.976C329.504 31.36 329.08 31.6613 328.595 31.88C328.115 32.0987 327.597 32.208 327.043 32.208ZM327.043 30.864C327.544 30.864 327.995 30.7333 328.395 30.472C328.8 30.2053 329.117 29.856 329.347 29.424C329.581 28.9867 329.699 28.512 329.699 28C329.699 27.4773 329.579 26.9973 329.339 26.56C329.104 26.1227 328.787 25.7733 328.387 25.512C327.987 25.2507 327.539 25.12 327.043 25.12C326.541 25.12 326.091 25.2533 325.691 25.52C325.291 25.7813 324.973 26.1307 324.739 26.568C324.504 27.0053 324.387 27.4827 324.387 28C324.387 28.5333 324.507 29.0187 324.747 29.456C324.987 29.888 325.309 30.232 325.715 30.488C326.12 30.7387 326.563 30.864 327.043 30.864ZM332.366 32V24H333.71V25C333.993 24.6267 334.35 24.3307 334.782 24.112C335.214 23.888 335.684 23.776 336.19 23.776C336.5 23.776 336.798 23.816 337.086 23.896L336.542 25.24C336.324 25.1707 336.11 25.136 335.902 25.136C335.502 25.136 335.134 25.2347 334.798 25.432C334.468 25.624 334.204 25.8853 334.006 26.216C333.809 26.5467 333.71 26.9147 333.71 27.32V32H332.366ZM345.574 32.208C344.838 32.208 344.166 32.0187 343.558 31.64C342.955 31.2613 342.472 30.7547 342.11 30.12C341.752 29.48 341.574 28.7733 341.574 28C341.574 27.4133 341.678 26.8667 341.886 26.36C342.094 25.848 342.379 25.4 342.742 25.016C343.11 24.6267 343.536 24.3227 344.022 24.104C344.507 23.8853 345.024 23.776 345.574 23.776C346.176 23.776 346.728 23.8987 347.23 24.144C347.736 24.384 348.168 24.72 348.526 25.152C348.888 25.584 349.158 26.0853 349.334 26.656C349.515 27.2267 349.582 27.8373 349.534 28.488H343.006C343.07 28.9413 343.219 29.3467 343.454 29.704C343.688 30.056 343.987 30.336 344.35 30.544C344.718 30.752 345.126 30.8587 345.574 30.864C346.054 30.864 346.488 30.7413 346.878 30.496C347.267 30.2453 347.582 29.904 347.822 29.472L349.19 29.792C348.87 30.5013 348.387 31.0827 347.742 31.536C347.096 31.984 346.374 32.208 345.574 32.208ZM342.966 27.432H348.182C348.139 26.984 347.995 26.576 347.75 26.208C347.504 25.8347 347.192 25.536 346.814 25.312C346.435 25.088 346.022 24.976 345.574 24.976C345.126 24.976 344.715 25.0853 344.342 25.304C343.968 25.5227 343.659 25.8187 343.414 26.192C343.174 26.56 343.024 26.9733 342.966 27.432ZM357.954 27.024V32H356.61V27.32C356.61 26.9147 356.511 26.5467 356.314 26.216C356.117 25.8853 355.853 25.624 355.522 25.432C355.191 25.2347 354.823 25.136 354.418 25.136C354.018 25.136 353.65 25.2347 353.314 25.432C352.983 25.624 352.719 25.8853 352.522 26.216C352.325 26.5467 352.226 26.9147 352.226 27.32V32H350.882V24H352.226V25C352.509 24.6267 352.866 24.3307 353.298 24.112C353.73 23.888 354.199 23.776 354.706 23.776C355.303 23.776 355.847 23.9227 356.338 24.216C356.834 24.504 357.226 24.8933 357.514 25.384C357.807 25.8747 357.954 26.4213 357.954 27.024ZM363.698 25.344H361.882L361.874 32H360.53L360.538 25.344H359.162V24H360.538L360.53 21.488H361.874L361.882 24H363.698V25.344ZM368.449 32.208C367.713 32.208 367.041 32.0187 366.433 31.64C365.83 31.2613 365.347 30.7547 364.985 30.12C364.627 29.48 364.449 28.7733 364.449 28C364.449 27.4133 364.553 26.8667 364.761 26.36C364.969 25.848 365.254 25.4 365.617 25.016C365.985 24.6267 366.411 24.3227 366.897 24.104C367.382 23.8853 367.899 23.776 368.449 23.776C369.051 23.776 369.603 23.8987 370.105 24.144C370.611 24.384 371.043 24.72 371.401 25.152C371.763 25.584 372.033 26.0853 372.209 26.656C372.39 27.2267 372.457 27.8373 372.409 28.488H365.881C365.945 28.9413 366.094 29.3467 366.329 29.704C366.563 30.056 366.862 30.336 367.225 30.544C367.593 30.752 368.001 30.8587 368.449 30.864C368.929 30.864 369.363 30.7413 369.753 30.496C370.142 30.2453 370.457 29.904 370.697 29.472L372.065 29.792C371.745 30.5013 371.262 31.0827 370.617 31.536C369.971 31.984 369.249 32.208 368.449 32.208ZM365.841 27.432H371.057C371.014 26.984 370.87 26.576 370.625 26.208C370.379 25.8347 370.067 25.536 369.689 25.312C369.31 25.088 368.897 24.976 368.449 24.976C368.001 24.976 367.59 25.0853 367.217 25.304C366.843 25.5227 366.534 25.8187 366.289 26.192C366.049 26.56 365.899 26.9733 365.841 27.432ZM373.757 32V24H375.101V25C375.384 24.6267 375.741 24.3307 376.173 24.112C376.605 23.888 377.074 23.776 377.581 23.776C377.89 23.776 378.189 23.816 378.477 23.896L377.933 25.24C377.714 25.1707 377.501 25.136 377.293 25.136C376.893 25.136 376.525 25.2347 376.189 25.432C375.858 25.624 375.594 25.8853 375.397 26.216C375.2 26.5467 375.101 26.9147 375.101 27.32V32H373.757ZM383.745 25.344H381.929L381.921 32H380.577L380.585 25.344H379.209V24H380.585L380.577 21.488H381.921L381.929 24H383.745V25.344ZM391.408 24H392.752V32H391.408L391.352 30.648C391.101 31.112 390.754 31.488 390.312 31.776C389.874 32.064 389.352 32.208 388.744 32.208C388.157 32.208 387.608 32.0987 387.096 31.88C386.584 31.656 386.13 31.3493 385.736 30.96C385.346 30.5653 385.042 30.112 384.824 29.6C384.605 29.088 384.496 28.536 384.496 27.944C384.496 27.3733 384.602 26.8347 384.816 26.328C385.029 25.8213 385.325 25.3787 385.704 25C386.088 24.616 386.53 24.3173 387.032 24.104C387.533 23.8853 388.072 23.776 388.648 23.776C389.277 23.776 389.829 23.9253 390.304 24.224C390.778 24.5173 391.162 24.8987 391.456 25.368L391.408 24ZM388.72 30.904C389.248 30.904 389.704 30.776 390.088 30.52C390.477 30.2587 390.776 29.9067 390.984 29.464C391.197 29.0213 391.304 28.5333 391.304 28C391.304 27.456 391.197 26.9653 390.984 26.528C390.77 26.0853 390.469 25.736 390.08 25.48C389.696 25.2187 389.242 25.088 388.72 25.088C388.192 25.088 387.712 25.2187 387.28 25.48C386.848 25.7413 386.504 26.0933 386.248 26.536C385.997 26.9733 385.872 27.4613 385.872 28C385.872 28.5387 386.002 29.0293 386.264 29.472C386.525 29.9093 386.872 30.2587 387.304 30.52C387.736 30.776 388.208 30.904 388.72 30.904ZM394.351 24H395.695V32H394.351V24ZM395.039 22.696C394.825 22.696 394.647 22.6267 394.503 22.488C394.359 22.3493 394.287 22.176 394.287 21.968C394.287 21.76 394.359 21.5867 394.503 21.448C394.647 21.3093 394.823 21.24 395.031 21.24C395.239 21.24 395.415 21.3093 395.559 21.448C395.703 21.5867 395.775 21.76 395.775 21.968C395.775 22.176 395.703 22.3493 395.559 22.488C395.42 22.6267 395.247 22.696 395.039 22.696ZM404.657 27.024V32H403.313V27.32C403.313 26.9147 403.214 26.5467 403.017 26.216C402.82 25.8853 402.556 25.624 402.225 25.432C401.894 25.2347 401.526 25.136 401.121 25.136C400.721 25.136 400.353 25.2347 400.017 25.432C399.686 25.624 399.422 25.8853 399.225 26.216C399.028 26.5467 398.929 26.9147 398.929 27.32V32H397.585V24H398.929V25C399.212 24.6267 399.569 24.3307 400.001 24.112C400.433 23.888 400.902 23.776 401.409 23.776C402.006 23.776 402.55 23.9227 403.041 24.216C403.537 24.504 403.929 24.8933 404.217 25.384C404.51 25.8747 404.657 26.4213 404.657 27.024ZM406.257 24H407.601V32H406.257V24ZM406.945 22.696C406.732 22.696 406.553 22.6267 406.409 22.488C406.265 22.3493 406.193 22.176 406.193 21.968C406.193 21.76 406.265 21.5867 406.409 21.448C406.553 21.3093 406.729 21.24 406.937 21.24C407.145 21.24 407.321 21.3093 407.465 21.448C407.609 21.5867 407.681 21.76 407.681 21.968C407.681 22.176 407.609 22.3493 407.465 22.488C407.326 22.6267 407.153 22.696 406.945 22.696ZM416.563 27.024V32H415.219V27.32C415.219 26.9147 415.121 26.5467 414.923 26.216C414.726 25.8853 414.462 25.624 414.131 25.432C413.801 25.2347 413.433 25.136 413.027 25.136C412.627 25.136 412.259 25.2347 411.923 25.432C411.593 25.624 411.329 25.8853 411.131 26.216C410.934 26.5467 410.835 26.9147 410.835 27.32V32H409.491V24H410.835V25C411.118 24.6267 411.475 24.3307 411.907 24.112C412.339 23.888 412.809 23.776 413.315 23.776C413.913 23.776 414.457 23.9227 414.947 24.216C415.443 24.504 415.835 24.8933 416.123 25.384C416.417 25.8747 416.563 26.4213 416.563 27.024ZM424.255 24H425.599V32.256C425.599 32.784 425.484 33.2747 425.255 33.728C425.031 34.1867 424.727 34.584 424.343 34.92C423.959 35.2613 423.522 35.5253 423.031 35.712C422.54 35.904 422.028 36 421.495 36C420.94 36 420.404 35.8747 419.887 35.624C419.37 35.3787 418.916 35.048 418.527 34.632C418.143 34.2213 417.866 33.76 417.695 33.248L418.927 32.688C419.028 33.056 419.21 33.3867 419.471 33.68C419.738 33.9787 420.047 34.2133 420.399 34.384C420.756 34.56 421.122 34.648 421.495 34.648C421.847 34.648 422.186 34.5867 422.511 34.464C422.842 34.3413 423.138 34.1707 423.399 33.952C423.666 33.7387 423.874 33.4853 424.023 33.192C424.178 32.904 424.255 32.592 424.255 32.256V30.664C423.983 31.1227 423.623 31.496 423.175 31.784C422.732 32.0667 422.215 32.208 421.623 32.208C421.058 32.208 420.527 32.0987 420.031 31.88C419.535 31.6613 419.1 31.36 418.727 30.976C418.354 30.5867 418.06 30.1387 417.847 29.632C417.634 29.1253 417.527 28.5813 417.527 28C417.527 27.4187 417.634 26.8747 417.847 26.368C418.06 25.856 418.354 25.408 418.727 25.024C419.1 24.6347 419.535 24.3307 420.031 24.112C420.527 23.8933 421.058 23.784 421.623 23.784C422.215 23.784 422.732 23.9253 423.175 24.208C423.623 24.4907 423.983 24.864 424.255 25.328V24ZM421.631 30.904C422.148 30.904 422.596 30.7707 422.975 30.504C423.359 30.2373 423.655 29.8827 423.863 29.44C424.071 28.9973 424.175 28.5173 424.175 28C424.175 27.4667 424.068 26.9813 423.855 26.544C423.647 26.1013 423.351 25.7493 422.967 25.488C422.588 25.2213 422.143 25.088 421.631 25.088C421.13 25.088 420.671 25.2187 420.255 25.48C419.839 25.7413 419.508 26.0933 419.263 26.536C419.023 26.9733 418.903 27.4613 418.903 28C418.903 28.5387 419.026 29.0293 419.271 29.472C419.522 29.9093 419.852 30.2587 420.263 30.52C420.679 30.776 421.135 30.904 421.631 30.904Z" fill="#999999"></path><defs><linearGradient id="paint0_linear_166_850" x1="-3.42044e-06" y1="25.4468" x2="550" y2="25.4468" gradientUnits="userSpaceOnUse"><stop stop-color="#1A1A1A"></stop><stop offset="1" stop-color="#1A1A1A" stop-opacity="0"></stop></linearGradient></defs></svg>