<svg xmlns="http://www.w3.org/2000/svg" width="463" height="66" viewBox="0 0 463 66" fill="none"><g clip-path="url(#clip0_166_1057)"><path d="M1.34 15V5.2H4.574C5.10133 5.2 5.575 5.32833 5.995 5.585C6.41967 5.84167 6.75567 6.18933 7.003 6.628C7.255 7.062 7.381 7.54733 7.381 8.084C7.381 8.63 7.25267 9.12233 6.996 9.561C6.744 9.995 6.40333 10.3403 5.974 10.597C5.54933 10.849 5.08267 10.975 4.574 10.975H2.516V15H1.34ZM2.516 9.799H4.469C4.78633 9.799 5.07567 9.722 5.337 9.568C5.603 9.40933 5.813 9.197 5.967 8.931C6.12567 8.66033 6.205 8.357 6.205 8.021C6.205 7.68033 6.12567 7.377 5.967 7.111C5.813 6.84033 5.603 6.628 5.337 6.474C5.07567 6.31533 4.78633 6.236 4.469 6.236H2.516V9.799ZM8.58609 15V8H9.76209V8.875C10.0094 8.54833 10.3221 8.28933 10.7001 8.098C11.0781 7.902 11.4888 7.804 11.9321 7.804C12.2028 7.804 12.4641 7.839 12.7161 7.909L12.2401 9.085C12.0488 9.02433 11.8621 8.994 11.6801 8.994C11.3301 8.994 11.0081 9.08033 10.7141 9.253C10.4248 9.421 10.1938 9.64967 10.0211 9.939C9.84843 10.2283 9.76209 10.5503 9.76209 10.905V15H8.58609ZM16.3009 15.182C15.6569 15.182 15.0689 15.0163 14.5369 14.685C14.0095 14.3537 13.5872 13.9103 13.2699 13.355C12.9572 12.795 12.8009 12.1767 12.8009 11.5C12.8009 10.9867 12.8919 10.5083 13.0739 10.065C13.2559 9.617 13.5055 9.225 13.8229 8.889C14.1449 8.54833 14.5182 8.28233 14.9429 8.091C15.3675 7.89967 15.8202 7.804 16.3009 7.804C16.9449 7.804 17.5305 7.96967 18.0579 8.301C18.5899 8.63233 19.0122 9.078 19.3249 9.638C19.6422 10.198 19.8009 10.8187 19.8009 11.5C19.8009 12.0087 19.7099 12.4847 19.5279 12.928C19.3459 13.3713 19.0939 13.7633 18.7719 14.104C18.4545 14.44 18.0835 14.7037 17.6589 14.895C17.2389 15.0863 16.7862 15.182 16.3009 15.182ZM16.3009 14.006C16.7395 14.006 17.1339 13.8917 17.4839 13.663C17.8385 13.4297 18.1162 13.124 18.3169 12.746C18.5222 12.3633 18.6249 11.948 18.6249 11.5C18.6249 11.0427 18.5199 10.6227 18.3099 10.24C18.1045 9.85733 17.8269 9.55167 17.4769 9.323C17.1269 9.09433 16.7349 8.98 16.3009 8.98C15.8622 8.98 15.4679 9.09667 15.1179 9.33C14.7679 9.55867 14.4902 9.86433 14.2849 10.247C14.0795 10.6297 13.9769 11.0473 13.9769 11.5C13.9769 11.9667 14.0819 12.3913 14.2919 12.774C14.5019 13.152 14.7842 13.453 15.1389 13.677C15.4935 13.8963 15.8809 14.006 16.3009 14.006ZM22.1351 18.5H20.9591V8H22.1351V9.197C22.3731 8.78633 22.6905 8.455 23.0871 8.203C23.4838 7.94633 23.9551 7.818 24.5011 7.818C25.0098 7.818 25.4858 7.91367 25.9291 8.105C26.3771 8.29633 26.7691 8.56233 27.1051 8.903C27.4411 9.239 27.7048 9.62867 27.8961 10.072C28.0875 10.5153 28.1831 10.9913 28.1831 11.5C28.1831 12.0087 28.0875 12.487 27.8961 12.935C27.7048 13.383 27.4411 13.7773 27.1051 14.118C26.7691 14.454 26.3771 14.7177 25.9291 14.909C25.4858 15.1003 25.0098 15.196 24.5011 15.196C23.9551 15.196 23.4838 15.07 23.0871 14.818C22.6905 14.5613 22.3731 14.2277 22.1351 13.817V18.5ZM24.4871 8.959C24.0345 8.959 23.6378 9.07333 23.2971 9.302C22.9565 9.53067 22.6928 9.83633 22.5061 10.219C22.3241 10.6017 22.2331 11.0287 22.2331 11.5C22.2331 11.9667 22.3241 12.3937 22.5061 12.781C22.6928 13.1683 22.9541 13.4763 23.2901 13.705C23.6308 13.9337 24.0298 14.048 24.4871 14.048C24.9398 14.048 25.3551 13.936 25.7331 13.712C26.1111 13.4833 26.4145 13.1777 26.6431 12.795C26.8718 12.4077 26.9861 11.976 26.9861 11.5C26.9861 11.0333 26.8741 10.6087 26.6501 10.226C26.4261 9.83867 26.1251 9.53067 25.7471 9.302C25.3691 9.07333 24.9491 8.959 24.4871 8.959ZM32.3927 15.182C31.7487 15.182 31.1607 15.0163 30.6287 14.685C30.1013 14.3537 29.679 13.9103 29.3617 13.355C29.049 12.795 28.8927 12.1767 28.8927 11.5C28.8927 10.9867 28.9837 10.5083 29.1657 10.065C29.3477 9.617 29.5973 9.225 29.9147 8.889C30.2367 8.54833 30.61 8.28233 31.0347 8.091C31.4593 7.89967 31.912 7.804 32.3927 7.804C32.92 7.804 33.403 7.91133 33.8417 8.126C34.285 8.336 34.663 8.63 34.9757 9.008C35.293 9.386 35.5287 9.82467 35.6827 10.324C35.8413 10.8233 35.8997 11.3577 35.8577 11.927H30.1457C30.2017 12.3237 30.3323 12.6783 30.5377 12.991C30.743 13.299 31.0043 13.544 31.3217 13.726C31.6437 13.908 32.0007 14.0013 32.3927 14.006C32.8127 14.006 33.193 13.8987 33.5337 13.684C33.8743 13.4647 34.1497 13.166 34.3597 12.788L35.5567 13.068C35.2767 13.6887 34.8543 14.1973 34.2897 14.594C33.725 14.986 33.0927 15.182 32.3927 15.182ZM30.1107 11.003H34.6747C34.6373 10.611 34.5113 10.254 34.2967 9.932C34.082 9.60533 33.809 9.344 33.4777 9.148C33.1463 8.952 32.7847 8.854 32.3927 8.854C32.0007 8.854 31.6413 8.94967 31.3147 9.141C30.988 9.33233 30.7173 9.59133 30.5027 9.918C30.2927 10.24 30.162 10.6017 30.1107 11.003ZM37.0373 15V8H38.2133V8.875C38.4606 8.54833 38.7733 8.28933 39.1513 8.098C39.5293 7.902 39.9399 7.804 40.3833 7.804C40.6539 7.804 40.9153 7.839 41.1673 7.909L40.6913 9.085C40.4999 9.02433 40.3133 8.994 40.1313 8.994C39.7813 8.994 39.4593 9.08033 39.1653 9.253C38.8759 9.421 38.6449 9.64967 38.4723 9.939C38.2996 10.2283 38.2133 10.5503 38.2133 10.905V15H37.0373ZM45.7765 9.176H44.1875L44.1805 15H43.0045L43.0115 9.176H41.8075V8H43.0115L43.0045 5.802H44.1805L44.1875 8H45.7765V9.176ZM51.6623 8H52.9083L49.0793 18.5H47.8333L49.1003 15L46.5873 8H47.8753L49.6883 13.383L51.6623 8ZM57.8781 15V5.2H59.0541V15H57.8781ZM67.1374 10.646V15H65.9614V10.905C65.9614 10.5503 65.875 10.2283 65.7024 9.939C65.5297 9.64967 65.2987 9.421 65.0094 9.253C64.72 9.08033 64.398 8.994 64.0434 8.994C63.6934 8.994 63.3714 9.08033 63.0774 9.253C62.788 9.421 62.557 9.64967 62.3844 9.939C62.2117 10.2283 62.1254 10.5503 62.1254 10.905V15H60.9494V8H62.1254V8.875C62.3727 8.54833 62.6854 8.28933 63.0634 8.098C63.4414 7.902 63.852 7.804 64.2954 7.804C64.818 7.804 65.294 7.93233 65.7234 8.189C66.1574 8.441 66.5004 8.78167 66.7524 9.211C67.009 9.64033 67.1374 10.1187 67.1374 10.646ZM70.6723 15.133C70.2943 15.119 69.9256 15.049 69.5663 14.923C69.2116 14.7923 68.8989 14.6173 68.6283 14.398C68.3623 14.174 68.1686 13.9173 68.0473 13.628L69.0553 13.194C69.1253 13.3527 69.2513 13.502 69.4333 13.642C69.6153 13.782 69.8253 13.894 70.0633 13.978C70.3013 14.062 70.5416 14.104 70.7843 14.104C71.0409 14.104 71.2813 14.0643 71.5053 13.985C71.7293 13.9057 71.9113 13.789 72.0513 13.635C72.1959 13.4763 72.2683 13.2873 72.2683 13.068C72.2683 12.8347 72.1889 12.6527 72.0303 12.522C71.8763 12.3867 71.6803 12.2817 71.4423 12.207C71.2089 12.1277 70.9709 12.053 70.7283 11.983C70.2476 11.8617 69.8183 11.717 69.4403 11.549C69.0623 11.3763 68.7636 11.1593 68.5443 10.898C68.3296 10.632 68.2223 10.2937 68.2223 9.883C68.2223 9.449 68.3413 9.07333 68.5793 8.756C68.8219 8.43867 69.1393 8.19367 69.5313 8.021C69.9233 7.84833 70.3433 7.762 70.7913 7.762C71.3559 7.762 71.8716 7.88333 72.3383 8.126C72.8049 8.36867 73.1526 8.69767 73.3813 9.113L72.4363 9.666C72.3569 9.498 72.2356 9.351 72.0723 9.225C71.9089 9.09433 71.7223 8.99167 71.5123 8.917C71.3023 8.84233 71.0876 8.80267 70.8683 8.798C70.5976 8.78867 70.3433 8.82367 70.1053 8.903C69.8719 8.98233 69.6829 9.10367 69.5383 9.267C69.3983 9.42567 69.3283 9.624 69.3283 9.862C69.3283 10.0953 69.4029 10.2727 69.5523 10.394C69.7063 10.5153 69.9046 10.6133 70.1473 10.688C70.3946 10.758 70.6629 10.8397 70.9523 10.933C71.3769 11.0683 71.7736 11.2247 72.1423 11.402C72.5109 11.5793 72.8073 11.801 73.0313 12.067C73.2599 12.333 73.3719 12.662 73.3673 13.054C73.3673 13.4833 73.2389 13.859 72.9823 14.181C72.7256 14.4983 72.3919 14.741 71.9813 14.909C71.5753 15.077 71.1389 15.1517 70.6723 15.133ZM74.2866 12.34V8H75.4626V12.081C75.4626 12.4357 75.5489 12.7577 75.7216 13.047C75.8942 13.3363 76.1252 13.5673 76.4146 13.74C76.7086 13.908 77.0306 13.992 77.3806 13.992C77.7352 13.992 78.0549 13.908 78.3396 13.74C78.6289 13.5673 78.8599 13.3363 79.0326 13.047C79.2052 12.7577 79.2916 12.4357 79.2916 12.081V8H80.4676L80.4746 15H79.2986L79.2916 14.111C79.0442 14.4377 78.7316 14.699 78.3536 14.895C77.9756 15.0863 77.5672 15.182 77.1286 15.182C76.6059 15.182 76.1276 15.056 75.6936 14.804C75.2642 14.5473 74.9212 14.2043 74.6646 13.775C74.4126 13.3457 74.2866 12.8673 74.2866 12.34ZM81.881 15V8H83.057V8.875C83.3043 8.54833 83.617 8.28933 83.995 8.098C84.373 7.902 84.7837 7.804 85.227 7.804C85.4977 7.804 85.759 7.839 86.011 7.909L85.535 9.085C85.3437 9.02433 85.157 8.994 84.975 8.994C84.625 8.994 84.303 9.08033 84.009 9.253C83.7197 9.421 83.4887 9.64967 83.316 9.939C83.1433 10.2283 83.057 10.5503 83.057 10.905V15H81.881ZM92.1438 8H93.3198V15H92.1438L92.0948 13.817C91.8754 14.223 91.5721 14.552 91.1848 14.804C90.8021 15.056 90.3448 15.182 89.8128 15.182C89.2994 15.182 88.8188 15.0863 88.3708 14.895C87.9228 14.699 87.5261 14.4307 87.1808 14.09C86.8401 13.7447 86.5741 13.348 86.3828 12.9C86.1914 12.452 86.0958 11.969 86.0958 11.451C86.0958 10.9517 86.1891 10.4803 86.3758 10.037C86.5624 9.59367 86.8214 9.20633 87.1528 8.875C87.4888 8.539 87.8761 8.27767 88.3148 8.091C88.7534 7.89967 89.2248 7.804 89.7288 7.804C90.2794 7.804 90.7624 7.93467 91.1778 8.196C91.5931 8.45267 91.9291 8.78633 92.1858 9.197L92.1438 8ZM89.7918 14.041C90.2538 14.041 90.6528 13.929 90.9888 13.705C91.3294 13.4763 91.5908 13.1683 91.7728 12.781C91.9594 12.3937 92.0528 11.9667 92.0528 11.5C92.0528 11.024 91.9594 10.5947 91.7728 10.212C91.5861 9.82467 91.3224 9.519 90.9818 9.295C90.6458 9.06633 90.2491 8.952 89.7918 8.952C89.3298 8.952 88.9098 9.06633 88.5318 9.295C88.1538 9.52367 87.8528 9.83167 87.6288 10.219C87.4094 10.6017 87.2998 11.0287 87.2998 11.5C87.2998 11.9713 87.4141 12.4007 87.6428 12.788C87.8714 13.1707 88.1748 13.4763 88.5528 13.705C88.9308 13.929 89.3438 14.041 89.7918 14.041ZM100.907 10.646V15H99.7309V10.905C99.7309 10.5503 99.6446 10.2283 99.4719 9.939C99.2992 9.64967 99.0682 9.421 98.7789 9.253C98.4896 9.08033 98.1676 8.994 97.8129 8.994C97.4629 8.994 97.1409 9.08033 96.8469 9.253C96.5576 9.421 96.3266 9.64967 96.1539 9.939C95.9812 10.2283 95.8949 10.5503 95.8949 10.905V15H94.7189V8H95.8949V8.875C96.1422 8.54833 96.4549 8.28933 96.8329 8.098C97.2109 7.902 97.6216 7.804 98.0649 7.804C98.5876 7.804 99.0636 7.93233 99.4929 8.189C99.9269 8.441 100.27 8.78167 100.522 9.211C100.779 9.64033 100.907 10.1187 100.907 10.646ZM106.993 13.152L108.043 13.719C107.726 14.1623 107.322 14.517 106.832 14.783C106.347 15.049 105.819 15.182 105.25 15.182C104.606 15.182 104.018 15.0163 103.486 14.685C102.959 14.3537 102.536 13.9103 102.219 13.355C101.906 12.795 101.75 12.1767 101.75 11.5C101.75 10.9867 101.841 10.5083 102.023 10.065C102.205 9.617 102.455 9.225 102.772 8.889C103.094 8.54833 103.467 8.28233 103.892 8.091C104.317 7.89967 104.769 7.804 105.25 7.804C105.819 7.804 106.347 7.937 106.832 8.203C107.322 8.469 107.726 8.826 108.043 9.274L106.993 9.841C106.769 9.56567 106.503 9.35333 106.195 9.204C105.887 9.05467 105.572 8.98 105.25 8.98C104.816 8.98 104.422 9.09667 104.067 9.33C103.717 9.55867 103.439 9.86433 103.234 10.247C103.029 10.6297 102.926 11.0473 102.926 11.5C102.926 11.9527 103.029 12.3703 103.234 12.753C103.444 13.131 103.724 13.4343 104.074 13.663C104.429 13.8917 104.821 14.006 105.25 14.006C105.595 14.006 105.92 13.9267 106.223 13.768C106.526 13.6093 106.783 13.404 106.993 13.152ZM112.264 15.182C111.62 15.182 111.032 15.0163 110.5 14.685C109.972 14.3537 109.55 13.9103 109.233 13.355C108.92 12.795 108.764 12.1767 108.764 11.5C108.764 10.9867 108.855 10.5083 109.037 10.065C109.219 9.617 109.468 9.225 109.786 8.889C110.108 8.54833 110.481 8.28233 110.906 8.091C111.33 7.89967 111.783 7.804 112.264 7.804C112.791 7.804 113.274 7.91133 113.713 8.126C114.156 8.336 114.534 8.63 114.847 9.008C115.164 9.386 115.4 9.82467 115.554 10.324C115.712 10.8233 115.771 11.3577 115.729 11.927H110.017C110.073 12.3237 110.203 12.6783 110.409 12.991C110.614 13.299 110.875 13.544 111.193 13.726C111.515 13.908 111.872 14.0013 112.264 14.006C112.684 14.006 113.064 13.8987 113.405 13.684C113.745 13.4647 114.021 13.166 114.231 12.788L115.428 13.068C115.148 13.6887 114.725 14.1973 114.161 14.594C113.596 14.986 112.964 15.182 112.264 15.182ZM109.982 11.003H114.546C114.508 10.611 114.382 10.254 114.168 9.932C113.953 9.60533 113.68 9.344 113.349 9.148C113.017 8.952 112.656 8.854 112.264 8.854C111.872 8.854 111.512 8.94967 111.186 9.141C110.859 9.33233 110.588 9.59133 110.374 9.918C110.164 10.24 110.033 10.6017 109.982 11.003Z" fill="#999999"></path><path d="M6.49 44.36C5.95667 44.3533 5.45667 44.44 4.99 44.62C4.53 44.7933 4.15333 45.0333 3.86 45.34C3.56667 45.6467 3.42 46.0033 3.42 46.41C3.42 46.91 3.55667 47.29 3.83 47.55C4.10333 47.81 4.47 48.0033 4.93 48.13C5.39667 48.25 5.91667 48.36 6.49 48.46C7.41 48.6067 8.26 48.85 9.04 49.19C9.82667 49.53 10.4567 49.9833 10.93 50.55C11.41 51.11 11.65 51.8 11.65 52.62C11.65 53.3733 11.45 54.0433 11.05 54.63C10.65 55.21 10.1133 55.68 9.44 56.04C8.77333 56.3933 8.03667 56.6167 7.23 56.71V58.74H5.76V56.71C5.08667 56.6433 4.44667 56.4833 3.84 56.23C3.24 55.9767 2.71667 55.64 2.27 55.22C1.82333 54.8 1.5 54.3133 1.3 53.76L3.25 53.03C3.36333 53.35 3.58 53.6367 3.9 53.89C4.22667 54.1367 4.61333 54.33 5.06 54.47C5.51333 54.61 5.99 54.68 6.49 54.68C7.02333 54.68 7.52333 54.5933 7.99 54.42C8.46333 54.2467 8.84333 54.0067 9.13 53.7C9.42333 53.3933 9.57 53.0333 9.57 52.62C9.57 52.1933 9.41667 51.8433 9.11 51.57C8.81 51.2967 8.42333 51.08 7.95 50.92C7.48333 50.76 6.99667 50.64 6.49 50.56C5.51 50.4 4.63 50.1667 3.85 49.86C3.07667 49.5533 2.46333 49.1233 2.01 48.57C1.56333 48.0167 1.34 47.2967 1.34 46.41C1.34 45.6567 1.54 44.9867 1.94 44.4C2.34 43.8133 2.87333 43.3433 3.54 42.99C4.21333 42.63 4.95333 42.4067 5.76 42.32V40.26H7.23V42.32C7.88333 42.3867 8.51 42.5467 9.11 42.8C9.71667 43.0533 10.2467 43.39 10.7 43.81C11.1533 44.2233 11.4833 44.7167 11.69 45.29L9.72 46C9.60667 45.6733 9.39 45.39 9.07 45.15C8.75 44.9033 8.36333 44.71 7.91 44.57C7.46333 44.43 6.99 44.36 6.49 44.36ZM14.9622 56.5V44.58H13.2922L13.8622 42.5H17.0422V56.5H14.9622ZM19.4445 57.62L20.0645 54.24H22.1445L20.8245 57.62H19.4445ZM24.1516 56.5V54.65C24.6249 54.2567 25.1682 53.8 25.7816 53.28C26.3949 52.7533 27.0182 52.1967 27.6516 51.61C28.2849 51.0167 28.8682 50.4267 29.4016 49.84C29.9349 49.2467 30.3649 48.6867 30.6916 48.16C31.0249 47.6267 31.1916 47.1633 31.1916 46.77C31.1916 46.3233 31.0816 45.9167 30.8616 45.55C30.6482 45.1767 30.3582 44.88 29.9916 44.66C29.6249 44.4333 29.2182 44.32 28.7716 44.32C28.3249 44.32 27.9149 44.4333 27.5416 44.66C27.1749 44.88 26.8782 45.1767 26.6516 45.55C26.4316 45.9167 26.3216 46.3233 26.3216 46.77H24.2416C24.2416 45.9233 24.4482 45.16 24.8616 44.48C25.2816 43.7933 25.8316 43.25 26.5116 42.85C27.1982 42.4433 27.9516 42.24 28.7716 42.24C29.5982 42.24 30.3516 42.4433 31.0316 42.85C31.7116 43.2567 32.2549 43.8033 32.6616 44.49C33.0682 45.17 33.2716 45.93 33.2716 46.77C33.2716 47.2367 33.1749 47.7167 32.9816 48.21C32.7882 48.7033 32.5182 49.2067 32.1716 49.72C31.8316 50.2333 31.4349 50.7533 30.9816 51.28C30.5282 51.8067 30.0416 52.3333 29.5216 52.86C29.0016 53.3867 28.4716 53.9067 27.9316 54.42H33.3916V56.5H24.1516ZM40.1042 56.76C39.2776 56.76 38.5309 56.5733 37.8642 56.2C37.2042 55.82 36.6342 55.2967 36.1542 54.63C35.6742 53.9633 35.3076 53.1933 35.0542 52.32C34.8009 51.44 34.6742 50.5 34.6742 49.5C34.6742 48.5 34.8009 47.56 35.0542 46.68C35.3076 45.8 35.6742 45.03 36.1542 44.37C36.6342 43.7033 37.2042 43.1833 37.8642 42.81C38.5309 42.43 39.2776 42.24 40.1042 42.24C40.9176 42.24 41.6576 42.43 42.3242 42.81C42.9909 43.1833 43.5576 43.7033 44.0242 44.37C44.4976 45.03 44.8609 45.8 45.1142 46.68C45.3676 47.56 45.4942 48.5 45.4942 49.5C45.4942 50.5 45.3676 51.44 45.1142 52.32C44.8609 53.1933 44.4976 53.9633 44.0242 54.63C43.5576 55.2967 42.9909 55.82 42.3242 56.2C41.6576 56.5733 40.9176 56.76 40.1042 56.76ZM40.1042 54.68C40.8709 54.68 41.5076 54.44 42.0142 53.96C42.5276 53.4733 42.9109 52.8367 43.1642 52.05C43.4176 51.2633 43.5442 50.4133 43.5442 49.5C43.5442 48.54 43.4109 47.67 43.1442 46.89C42.8842 46.1033 42.4976 45.48 41.9842 45.02C41.4776 44.5533 40.8509 44.32 40.1042 44.32C39.5109 44.32 38.9942 44.46 38.5542 44.74C38.1209 45.02 37.7609 45.4033 37.4742 45.89C37.1942 46.3767 36.9809 46.93 36.8342 47.55C36.6942 48.17 36.6242 48.82 36.6242 49.5C36.6242 50.4133 36.7542 51.2633 37.0142 52.05C37.2742 52.8367 37.6609 53.4733 38.1742 53.96C38.6942 54.44 39.3376 54.68 40.1042 54.68ZM51.7448 56.76C50.9182 56.76 50.1715 56.5733 49.5048 56.2C48.8448 55.82 48.2748 55.2967 47.7948 54.63C47.3148 53.9633 46.9482 53.1933 46.6948 52.32C46.4415 51.44 46.3148 50.5 46.3148 49.5C46.3148 48.5 46.4415 47.56 46.6948 46.68C46.9482 45.8 47.3148 45.03 47.7948 44.37C48.2748 43.7033 48.8448 43.1833 49.5048 42.81C50.1715 42.43 50.9182 42.24 51.7448 42.24C52.5582 42.24 53.2982 42.43 53.9648 42.81C54.6315 43.1833 55.1982 43.7033 55.6648 44.37C56.1382 45.03 56.5015 45.8 56.7548 46.68C57.0082 47.56 57.1348 48.5 57.1348 49.5C57.1348 50.5 57.0082 51.44 56.7548 52.32C56.5015 53.1933 56.1382 53.9633 55.6648 54.63C55.1982 55.2967 54.6315 55.82 53.9648 56.2C53.2982 56.5733 52.5582 56.76 51.7448 56.76ZM51.7448 54.68C52.5115 54.68 53.1482 54.44 53.6548 53.96C54.1682 53.4733 54.5515 52.8367 54.8048 52.05C55.0582 51.2633 55.1848 50.4133 55.1848 49.5C55.1848 48.54 55.0515 47.67 54.7848 46.89C54.5248 46.1033 54.1382 45.48 53.6248 45.02C53.1182 44.5533 52.4915 44.32 51.7448 44.32C51.1515 44.32 50.6348 44.46 50.1948 44.74C49.7615 45.02 49.4015 45.4033 49.1148 45.89C48.8348 46.3767 48.6215 46.93 48.4748 47.55C48.3348 48.17 48.2648 48.82 48.2648 49.5C48.2648 50.4133 48.3948 51.2633 48.6548 52.05C48.9148 52.8367 49.3015 53.4733 49.8148 53.96C50.3348 54.44 50.9782 54.68 51.7448 54.68Z" fill="white"></path><rect x="71" y="33.5" width="334" height="32" rx="16" fill="#1A1A1A"></rect><rect x="71" y="33.5" width="334" height="32" rx="16" stroke="#262626"></rect><path d="M86.623 44.2H88.044L91.607 54H90.361L89.633 51.998H85.034L84.313 54H83.06L86.623 44.2ZM85.468 50.822H89.199L87.33 45.705L85.468 50.822ZM99.0026 49.646V54H97.8266V49.905C97.8266 49.5503 97.7403 49.2283 97.5676 48.939C97.3949 48.6497 97.1639 48.421 96.8746 48.253C96.5853 48.0803 96.2633 47.994 95.9086 47.994C95.5586 47.994 95.2366 48.0803 94.9426 48.253C94.6533 48.421 94.4223 48.6497 94.2496 48.939C94.0769 49.2283 93.9906 49.5503 93.9906 49.905V54H92.8146V47H93.9906V47.875C94.2379 47.5483 94.5506 47.2893 94.9286 47.098C95.3066 46.902 95.7173 46.804 96.1606 46.804C96.6833 46.804 97.1593 46.9323 97.5886 47.189C98.0226 47.441 98.3656 47.7817 98.6176 48.211C98.8743 48.6403 99.0026 49.1187 99.0026 49.646ZM106.591 49.646V54H105.415V49.905C105.415 49.5503 105.328 49.2283 105.156 48.939C104.983 48.6497 104.752 48.421 104.463 48.253C104.173 48.0803 103.851 47.994 103.497 47.994C103.147 47.994 102.825 48.0803 102.531 48.253C102.241 48.421 102.01 48.6497 101.838 48.939C101.665 49.2283 101.579 49.5503 101.579 49.905V54H100.403V47H101.579V47.875C101.826 47.5483 102.139 47.2893 102.517 47.098C102.895 46.902 103.305 46.804 103.749 46.804C104.271 46.804 104.747 46.9323 105.177 47.189C105.611 47.441 105.954 47.7817 106.206 48.211C106.462 48.6403 106.591 49.1187 106.591 49.646ZM107.71 51.34V47H108.886V51.081C108.886 51.4357 108.973 51.7577 109.145 52.047C109.318 52.3363 109.549 52.5673 109.838 52.74C110.132 52.908 110.454 52.992 110.804 52.992C111.159 52.992 111.479 52.908 111.763 52.74C112.053 52.5673 112.284 52.3363 112.456 52.047C112.629 51.7577 112.715 51.4357 112.715 51.081V47H113.891L113.898 54H112.722L112.715 53.111C112.468 53.4377 112.155 53.699 111.777 53.895C111.399 54.0863 110.991 54.182 110.552 54.182C110.03 54.182 109.551 54.056 109.117 53.804C108.688 53.5473 108.345 53.2043 108.088 52.775C107.836 52.3457 107.71 51.8673 107.71 51.34ZM120.864 47H122.04V54H120.864L120.815 52.817C120.596 53.223 120.293 53.552 119.905 53.804C119.523 54.056 119.065 54.182 118.533 54.182C118.02 54.182 117.539 54.0863 117.091 53.895C116.643 53.699 116.247 53.4307 115.901 53.09C115.561 52.7447 115.295 52.348 115.103 51.9C114.912 51.452 114.816 50.969 114.816 50.451C114.816 49.9517 114.91 49.4803 115.096 49.037C115.283 48.5937 115.542 48.2063 115.873 47.875C116.209 47.539 116.597 47.2777 117.035 47.091C117.474 46.8997 117.945 46.804 118.449 46.804C119 46.804 119.483 46.9347 119.898 47.196C120.314 47.4527 120.65 47.7863 120.906 48.197L120.864 47ZM118.512 53.041C118.974 53.041 119.373 52.929 119.709 52.705C120.05 52.4763 120.311 52.1683 120.493 51.781C120.68 51.3937 120.773 50.9667 120.773 50.5C120.773 50.024 120.68 49.5947 120.493 49.212C120.307 48.8247 120.043 48.519 119.702 48.295C119.366 48.0663 118.97 47.952 118.512 47.952C118.05 47.952 117.63 48.0663 117.252 48.295C116.874 48.5237 116.573 48.8317 116.349 49.219C116.13 49.6017 116.02 50.0287 116.02 50.5C116.02 50.9713 116.135 51.4007 116.363 51.788C116.592 52.1707 116.895 52.4763 117.273 52.705C117.651 52.929 118.064 53.041 118.512 53.041ZM123.522 54V43.5H124.698V54H123.522ZM134.565 52.152L135.615 52.719C135.298 53.1623 134.894 53.517 134.404 53.783C133.919 54.049 133.392 54.182 132.822 54.182C132.178 54.182 131.59 54.0163 131.058 53.685C130.531 53.3537 130.109 52.9103 129.791 52.355C129.479 51.795 129.322 51.1767 129.322 50.5C129.322 49.9867 129.413 49.5083 129.595 49.065C129.777 48.617 130.027 48.225 130.344 47.889C130.666 47.5483 131.04 47.2823 131.464 47.091C131.889 46.8997 132.342 46.804 132.822 46.804C133.392 46.804 133.919 46.937 134.404 47.203C134.894 47.469 135.298 47.826 135.615 48.274L134.565 48.841C134.341 48.5657 134.075 48.3533 133.767 48.204C133.459 48.0547 133.144 47.98 132.822 47.98C132.388 47.98 131.994 48.0967 131.639 48.33C131.289 48.5587 131.012 48.8643 130.806 49.247C130.601 49.6297 130.498 50.0473 130.498 50.5C130.498 50.9527 130.601 51.3703 130.806 51.753C131.016 52.131 131.296 52.4343 131.646 52.663C132.001 52.8917 132.393 53.006 132.822 53.006C133.168 53.006 133.492 52.9267 133.795 52.768C134.099 52.6093 134.355 52.404 134.565 52.152ZM139.836 54.182C139.192 54.182 138.604 54.0163 138.072 53.685C137.545 53.3537 137.122 52.9103 136.805 52.355C136.492 51.795 136.336 51.1767 136.336 50.5C136.336 49.9867 136.427 49.5083 136.609 49.065C136.791 48.617 137.041 48.225 137.358 47.889C137.68 47.5483 138.053 47.2823 138.478 47.091C138.903 46.8997 139.355 46.804 139.836 46.804C140.48 46.804 141.066 46.9697 141.593 47.301C142.125 47.6323 142.547 48.078 142.86 48.638C143.177 49.198 143.336 49.8187 143.336 50.5C143.336 51.0087 143.245 51.4847 143.063 51.928C142.881 52.3713 142.629 52.7633 142.307 53.104C141.99 53.44 141.619 53.7037 141.194 53.895C140.774 54.0863 140.321 54.182 139.836 54.182ZM139.836 53.006C140.275 53.006 140.669 52.8917 141.019 52.663C141.374 52.4297 141.651 52.124 141.852 51.746C142.057 51.3633 142.16 50.948 142.16 50.5C142.16 50.0427 142.055 49.6227 141.845 49.24C141.64 48.8573 141.362 48.5517 141.012 48.323C140.662 48.0943 140.27 47.98 139.836 47.98C139.397 47.98 139.003 48.0967 138.653 48.33C138.303 48.5587 138.025 48.8643 137.82 49.247C137.615 49.6297 137.512 50.0473 137.512 50.5C137.512 50.9667 137.617 51.3913 137.827 51.774C138.037 52.152 138.319 52.453 138.674 52.677C139.029 52.8963 139.416 53.006 139.836 53.006ZM146.657 54.133C146.279 54.119 145.91 54.049 145.551 53.923C145.196 53.7923 144.883 53.6173 144.613 53.398C144.347 53.174 144.153 52.9173 144.032 52.628L145.04 52.194C145.11 52.3527 145.236 52.502 145.418 52.642C145.6 52.782 145.81 52.894 146.048 52.978C146.286 53.062 146.526 53.104 146.769 53.104C147.025 53.104 147.266 53.0643 147.49 52.985C147.714 52.9057 147.896 52.789 148.036 52.635C148.18 52.4763 148.253 52.2873 148.253 52.068C148.253 51.8347 148.173 51.6527 148.015 51.522C147.861 51.3867 147.665 51.2817 147.427 51.207C147.193 51.1277 146.955 51.053 146.713 50.983C146.232 50.8617 145.803 50.717 145.425 50.549C145.047 50.3763 144.748 50.1593 144.529 49.898C144.314 49.632 144.207 49.2937 144.207 48.883C144.207 48.449 144.326 48.0733 144.564 47.756C144.806 47.4387 145.124 47.1937 145.516 47.021C145.908 46.8483 146.328 46.762 146.776 46.762C147.34 46.762 147.856 46.8833 148.323 47.126C148.789 47.3687 149.137 47.6977 149.366 48.113L148.421 48.666C148.341 48.498 148.22 48.351 148.057 48.225C147.893 48.0943 147.707 47.9917 147.497 47.917C147.287 47.8423 147.072 47.8027 146.853 47.798C146.582 47.7887 146.328 47.8237 146.09 47.903C145.856 47.9823 145.667 48.1037 145.523 48.267C145.383 48.4257 145.313 48.624 145.313 48.862C145.313 49.0953 145.387 49.2727 145.537 49.394C145.691 49.5153 145.889 49.6133 146.132 49.688C146.379 49.758 146.647 49.8397 146.937 49.933C147.361 50.0683 147.758 50.2247 148.127 50.402C148.495 50.5793 148.792 50.801 149.016 51.067C149.244 51.333 149.356 51.662 149.352 52.054C149.352 52.4833 149.223 52.859 148.967 53.181C148.71 53.4983 148.376 53.741 147.966 53.909C147.56 54.077 147.123 54.1517 146.657 54.133ZM154.177 48.176H152.588L152.581 54H151.405L151.412 48.176H150.208V47H151.412L151.405 44.802H152.581L152.588 47H154.177V48.176ZM160.384 45.271V47H162.435V48.176H160.384V54H159.208V48.176H158.305V47H159.208V45.271C159.208 44.9117 159.294 44.5873 159.467 44.298C159.644 44.004 159.88 43.7707 160.174 43.598C160.473 43.4207 160.799 43.332 161.154 43.332C161.415 43.332 161.67 43.3857 161.917 43.493C162.164 43.5957 162.384 43.7497 162.575 43.955L161.735 44.788C161.67 44.6993 161.583 44.6317 161.476 44.585C161.373 44.5337 161.266 44.508 161.154 44.508C160.944 44.508 160.762 44.5827 160.608 44.732C160.459 44.8813 160.384 45.061 160.384 45.271ZM166.496 54.182C165.852 54.182 165.264 54.0163 164.732 53.685C164.205 53.3537 163.783 52.9103 163.465 52.355C163.153 51.795 162.996 51.1767 162.996 50.5C162.996 49.9867 163.087 49.5083 163.269 49.065C163.451 48.617 163.701 48.225 164.018 47.889C164.34 47.5483 164.714 47.2823 165.138 47.091C165.563 46.8997 166.016 46.804 166.496 46.804C167.14 46.804 167.726 46.9697 168.253 47.301C168.785 47.6323 169.208 48.078 169.52 48.638C169.838 49.198 169.996 49.8187 169.996 50.5C169.996 51.0087 169.905 51.4847 169.723 51.928C169.541 52.3713 169.289 52.7633 168.967 53.104C168.65 53.44 168.279 53.7037 167.854 53.895C167.434 54.0863 166.982 54.182 166.496 54.182ZM166.496 53.006C166.935 53.006 167.329 52.8917 167.679 52.663C168.034 52.4297 168.312 52.124 168.512 51.746C168.718 51.3633 168.82 50.948 168.82 50.5C168.82 50.0427 168.715 49.6227 168.505 49.24C168.3 48.8573 168.022 48.5517 167.672 48.323C167.322 48.0943 166.93 47.98 166.496 47.98C166.058 47.98 165.663 48.0967 165.313 48.33C164.963 48.5587 164.686 48.8643 164.48 49.247C164.275 49.6297 164.172 50.0473 164.172 50.5C164.172 50.9667 164.277 51.3913 164.487 51.774C164.697 52.152 164.98 52.453 165.334 52.677C165.689 52.8963 166.076 53.006 166.496 53.006ZM171.154 54V47H172.33V47.875C172.578 47.5483 172.89 47.2893 173.268 47.098C173.646 46.902 174.057 46.804 174.5 46.804C174.771 46.804 175.032 46.839 175.284 46.909L174.808 48.085C174.617 48.0243 174.43 47.994 174.248 47.994C173.898 47.994 173.576 48.0803 173.282 48.253C172.993 48.421 172.762 48.6497 172.589 48.939C172.417 49.2283 172.33 49.5503 172.33 49.905V54H171.154ZM184.454 52.152L185.504 52.719C185.187 53.1623 184.783 53.517 184.293 53.783C183.808 54.049 183.28 54.182 182.711 54.182C182.067 54.182 181.479 54.0163 180.947 53.685C180.42 53.3537 179.997 52.9103 179.68 52.355C179.367 51.795 179.211 51.1767 179.211 50.5C179.211 49.9867 179.302 49.5083 179.484 49.065C179.666 48.617 179.916 48.225 180.233 47.889C180.555 47.5483 180.928 47.2823 181.353 47.091C181.778 46.8997 182.23 46.804 182.711 46.804C183.28 46.804 183.808 46.937 184.293 47.203C184.783 47.469 185.187 47.826 185.504 48.274L184.454 48.841C184.23 48.5657 183.964 48.3533 183.656 48.204C183.348 48.0547 183.033 47.98 182.711 47.98C182.277 47.98 181.883 48.0967 181.528 48.33C181.178 48.5587 180.9 48.8643 180.695 49.247C180.49 49.6297 180.387 50.0473 180.387 50.5C180.387 50.9527 180.49 51.3703 180.695 51.753C180.905 52.131 181.185 52.4343 181.535 52.663C181.89 52.8917 182.282 53.006 182.711 53.006C183.056 53.006 183.381 52.9267 183.684 52.768C183.987 52.6093 184.244 52.404 184.454 52.152ZM189.725 54.182C189.081 54.182 188.493 54.0163 187.961 53.685C187.433 53.3537 187.011 52.9103 186.694 52.355C186.381 51.795 186.225 51.1767 186.225 50.5C186.225 49.9867 186.316 49.5083 186.498 49.065C186.68 48.617 186.929 48.225 187.247 47.889C187.569 47.5483 187.942 47.2823 188.367 47.091C188.791 46.8997 189.244 46.804 189.725 46.804C190.369 46.804 190.954 46.9697 191.482 47.301C192.014 47.6323 192.436 48.078 192.749 48.638C193.066 49.198 193.225 49.8187 193.225 50.5C193.225 51.0087 193.134 51.4847 192.952 51.928C192.77 52.3713 192.518 52.7633 192.196 53.104C191.878 53.44 191.507 53.7037 191.083 53.895C190.663 54.0863 190.21 54.182 189.725 54.182ZM189.725 53.006C190.163 53.006 190.558 52.8917 190.908 52.663C191.262 52.4297 191.54 52.124 191.741 51.746C191.946 51.3633 192.049 50.948 192.049 50.5C192.049 50.0427 191.944 49.6227 191.734 49.24C191.528 48.8573 191.251 48.5517 190.901 48.323C190.551 48.0943 190.159 47.98 189.725 47.98C189.286 47.98 188.892 48.0967 188.542 48.33C188.192 48.5587 187.914 48.8643 187.709 49.247C187.503 49.6297 187.401 50.0473 187.401 50.5C187.401 50.9667 187.506 51.3913 187.716 51.774C187.926 52.152 188.208 52.453 188.563 52.677C188.917 52.8963 189.305 53.006 189.725 53.006ZM194.383 54V47H195.559V47.875C195.806 47.5483 196.117 47.2893 196.49 47.098C196.868 46.902 197.279 46.804 197.722 46.804C198.24 46.804 198.714 46.93 199.143 47.182C199.572 47.434 199.911 47.7677 200.158 48.183C200.405 47.7677 200.741 47.434 201.166 47.182C201.595 46.93 202.067 46.804 202.58 46.804C203.107 46.804 203.586 46.9323 204.015 47.189C204.444 47.441 204.785 47.7817 205.037 48.211C205.294 48.6403 205.422 49.1187 205.422 49.646V54H204.246V49.926C204.246 49.5807 204.162 49.261 203.994 48.967C203.826 48.673 203.6 48.4373 203.315 48.26C203.03 48.0827 202.715 47.994 202.37 47.994C202.025 47.994 201.71 48.078 201.425 48.246C201.14 48.4093 200.914 48.638 200.746 48.932C200.578 49.2213 200.494 49.5527 200.494 49.926V54H199.318V49.926C199.318 49.5527 199.234 49.2213 199.066 48.932C198.898 48.638 198.669 48.4093 198.38 48.246C198.095 48.078 197.78 47.994 197.435 47.994C197.094 47.994 196.779 48.0827 196.49 48.26C196.205 48.4373 195.979 48.673 195.811 48.967C195.643 49.261 195.559 49.5807 195.559 49.926V54H194.383ZM208 57.5H206.824V47H208V48.197C208.238 47.7863 208.556 47.455 208.952 47.203C209.349 46.9463 209.82 46.818 210.366 46.818C210.875 46.818 211.351 46.9137 211.794 47.105C212.242 47.2963 212.634 47.5623 212.97 47.903C213.306 48.239 213.57 48.6287 213.761 49.072C213.953 49.5153 214.048 49.9913 214.048 50.5C214.048 51.0087 213.953 51.487 213.761 51.935C213.57 52.383 213.306 52.7773 212.97 53.118C212.634 53.454 212.242 53.7177 211.794 53.909C211.351 54.1003 210.875 54.196 210.366 54.196C209.82 54.196 209.349 54.07 208.952 53.818C208.556 53.5613 208.238 53.2277 208 52.817V57.5ZM210.352 47.959C209.9 47.959 209.503 48.0733 209.162 48.302C208.822 48.5307 208.558 48.8363 208.371 49.219C208.189 49.6017 208.098 50.0287 208.098 50.5C208.098 50.9667 208.189 51.3937 208.371 51.781C208.558 52.1683 208.819 52.4763 209.155 52.705C209.496 52.9337 209.895 53.048 210.352 53.048C210.805 53.048 211.22 52.936 211.598 52.712C211.976 52.4833 212.28 52.1777 212.508 51.795C212.737 51.4077 212.851 50.976 212.851 50.5C212.851 50.0333 212.739 49.6087 212.515 49.226C212.291 48.8387 211.99 48.5307 211.612 48.302C211.234 48.0733 210.814 47.959 210.352 47.959ZM215.219 54V47H216.395V47.875C216.642 47.5483 216.955 47.2893 217.333 47.098C217.711 46.902 218.122 46.804 218.565 46.804C218.836 46.804 219.097 46.839 219.349 46.909L218.873 48.085C218.682 48.0243 218.495 47.994 218.313 47.994C217.963 47.994 217.641 48.0803 217.347 48.253C217.058 48.421 216.827 48.6497 216.654 48.939C216.481 49.2283 216.395 49.5503 216.395 49.905V54H215.219ZM222.934 54.182C222.29 54.182 221.702 54.0163 221.17 53.685C220.642 53.3537 220.22 52.9103 219.903 52.355C219.59 51.795 219.434 51.1767 219.434 50.5C219.434 49.9867 219.525 49.5083 219.707 49.065C219.889 48.617 220.138 48.225 220.456 47.889C220.778 47.5483 221.151 47.2823 221.576 47.091C222 46.8997 222.453 46.804 222.934 46.804C223.461 46.804 223.944 46.9113 224.383 47.126C224.826 47.336 225.204 47.63 225.517 48.008C225.834 48.386 226.07 48.8247 226.224 49.324C226.382 49.8233 226.441 50.3577 226.399 50.927H220.687C220.743 51.3237 220.873 51.6783 221.079 51.991C221.284 52.299 221.545 52.544 221.863 52.726C222.185 52.908 222.542 53.0013 222.934 53.006C223.354 53.006 223.734 52.8987 224.075 52.684C224.415 52.4647 224.691 52.166 224.901 51.788L226.098 52.068C225.818 52.6887 225.395 53.1973 224.831 53.594C224.266 53.986 223.634 54.182 222.934 54.182ZM220.652 50.003H225.216C225.178 49.611 225.052 49.254 224.838 48.932C224.623 48.6053 224.35 48.344 224.019 48.148C223.687 47.952 223.326 47.854 222.934 47.854C222.542 47.854 222.182 47.9497 221.856 48.141C221.529 48.3323 221.258 48.5913 221.044 48.918C220.834 49.24 220.703 49.6017 220.652 50.003ZM233.698 49.646V54H232.522V49.905C232.522 49.5503 232.436 49.2283 232.263 48.939C232.09 48.6497 231.859 48.421 231.57 48.253C231.281 48.0803 230.959 47.994 230.604 47.994C230.254 47.994 229.932 48.0803 229.638 48.253C229.349 48.421 229.118 48.6497 228.945 48.939C228.772 49.2283 228.686 49.5503 228.686 49.905V54H227.51V43.5H228.686V47.875C228.933 47.5483 229.246 47.2893 229.624 47.098C230.002 46.902 230.413 46.804 230.856 46.804C231.379 46.804 231.855 46.9323 232.284 47.189C232.718 47.441 233.061 47.7817 233.313 48.211C233.57 48.6403 233.698 49.1187 233.698 49.646ZM238.041 54.182C237.397 54.182 236.809 54.0163 236.277 53.685C235.75 53.3537 235.327 52.9103 235.01 52.355C234.697 51.795 234.541 51.1767 234.541 50.5C234.541 49.9867 234.632 49.5083 234.814 49.065C234.996 48.617 235.246 48.225 235.563 47.889C235.885 47.5483 236.258 47.2823 236.683 47.091C237.108 46.8997 237.56 46.804 238.041 46.804C238.568 46.804 239.051 46.9113 239.49 47.126C239.933 47.336 240.311 47.63 240.624 48.008C240.941 48.386 241.177 48.8247 241.331 49.324C241.49 49.8233 241.548 50.3577 241.506 50.927H235.794C235.85 51.3237 235.981 51.6783 236.186 51.991C236.391 52.299 236.653 52.544 236.97 52.726C237.292 52.908 237.649 53.0013 238.041 53.006C238.461 53.006 238.841 52.8987 239.182 52.684C239.523 52.4647 239.798 52.166 240.008 51.788L241.205 52.068C240.925 52.6887 240.503 53.1973 239.938 53.594C239.373 53.986 238.741 54.182 238.041 54.182ZM235.759 50.003H240.323C240.286 49.611 240.16 49.254 239.945 48.932C239.73 48.6053 239.457 48.344 239.126 48.148C238.795 47.952 238.433 47.854 238.041 47.854C237.649 47.854 237.29 47.9497 236.963 48.141C236.636 48.3323 236.366 48.5913 236.151 48.918C235.941 49.24 235.81 49.6017 235.759 50.003ZM248.874 49.646V54H247.698V49.905C247.698 49.5503 247.611 49.2283 247.439 48.939C247.266 48.6497 247.035 48.421 246.746 48.253C246.456 48.0803 246.134 47.994 245.78 47.994C245.43 47.994 245.108 48.0803 244.814 48.253C244.524 48.421 244.293 48.6497 244.121 48.939C243.948 49.2283 243.862 49.5503 243.862 49.905V54H242.686V47H243.862V47.875C244.109 47.5483 244.422 47.2893 244.8 47.098C245.178 46.902 245.588 46.804 246.032 46.804C246.554 46.804 247.03 46.9323 247.46 47.189C247.894 47.441 248.237 47.7817 248.489 48.211C248.745 48.6403 248.874 49.1187 248.874 49.646ZM252.409 54.133C252.031 54.119 251.662 54.049 251.303 53.923C250.948 53.7923 250.635 53.6173 250.365 53.398C250.099 53.174 249.905 52.9173 249.784 52.628L250.792 52.194C250.862 52.3527 250.988 52.502 251.17 52.642C251.352 52.782 251.562 52.894 251.8 52.978C252.038 53.062 252.278 53.104 252.521 53.104C252.777 53.104 253.018 53.0643 253.242 52.985C253.466 52.9057 253.648 52.789 253.788 52.635C253.932 52.4763 254.005 52.2873 254.005 52.068C254.005 51.8347 253.925 51.6527 253.767 51.522C253.613 51.3867 253.417 51.2817 253.179 51.207C252.945 51.1277 252.707 51.053 252.465 50.983C251.984 50.8617 251.555 50.717 251.177 50.549C250.799 50.3763 250.5 50.1593 250.281 49.898C250.066 49.632 249.959 49.2937 249.959 48.883C249.959 48.449 250.078 48.0733 250.316 47.756C250.558 47.4387 250.876 47.1937 251.268 47.021C251.66 46.8483 252.08 46.762 252.528 46.762C253.092 46.762 253.608 46.8833 254.075 47.126C254.541 47.3687 254.889 47.6977 255.118 48.113L254.173 48.666C254.093 48.498 253.972 48.351 253.809 48.225C253.645 48.0943 253.459 47.9917 253.249 47.917C253.039 47.8423 252.824 47.8027 252.605 47.798C252.334 47.7887 252.08 47.8237 251.842 47.903C251.608 47.9823 251.419 48.1037 251.275 48.267C251.135 48.4257 251.065 48.624 251.065 48.862C251.065 49.0953 251.139 49.2727 251.289 49.394C251.443 49.5153 251.641 49.6133 251.884 49.688C252.131 49.758 252.399 49.8397 252.689 49.933C253.113 50.0683 253.51 50.2247 253.879 50.402C254.247 50.5793 254.544 50.801 254.768 51.067C254.996 51.333 255.108 51.662 255.104 52.054C255.104 52.4833 254.975 52.859 254.719 53.181C254.462 53.4983 254.128 53.741 253.718 53.909C253.312 54.077 252.875 54.1517 252.409 54.133ZM256.207 47H257.383V54H256.207V47ZM256.809 45.859C256.623 45.859 256.466 45.7983 256.34 45.677C256.214 45.5557 256.151 45.404 256.151 45.222C256.151 45.04 256.214 44.8883 256.34 44.767C256.466 44.6457 256.62 44.585 256.802 44.585C256.984 44.585 257.138 44.6457 257.264 44.767C257.39 44.8883 257.453 45.04 257.453 45.222C257.453 45.404 257.39 45.5557 257.264 45.677C257.143 45.7983 256.991 45.859 256.809 45.859ZM262.582 54H261.077L258.522 46.986H259.775L261.826 52.635L263.877 46.986H265.13L262.582 54ZM269.063 54.182C268.419 54.182 267.831 54.0163 267.299 53.685C266.771 53.3537 266.349 52.9103 266.032 52.355C265.719 51.795 265.563 51.1767 265.563 50.5C265.563 49.9867 265.654 49.5083 265.836 49.065C266.018 48.617 266.267 48.225 266.585 47.889C266.907 47.5483 267.28 47.2823 267.705 47.091C268.129 46.8997 268.582 46.804 269.063 46.804C269.59 46.804 270.073 46.9113 270.512 47.126C270.955 47.336 271.333 47.63 271.646 48.008C271.963 48.386 272.199 48.8247 272.353 49.324C272.511 49.8233 272.57 50.3577 272.528 50.927H266.816C266.872 51.3237 267.002 51.6783 267.208 51.991C267.413 52.299 267.674 52.544 267.992 52.726C268.314 52.908 268.671 53.0013 269.063 53.006C269.483 53.006 269.863 52.8987 270.204 52.684C270.544 52.4647 270.82 52.166 271.03 51.788L272.227 52.068C271.947 52.6887 271.524 53.1973 270.96 53.594C270.395 53.986 269.763 54.182 269.063 54.182ZM266.781 50.003H271.345C271.307 49.611 271.181 49.254 270.967 48.932C270.752 48.6053 270.479 48.344 270.148 48.148C269.816 47.952 269.455 47.854 269.063 47.854C268.671 47.854 268.311 47.9497 267.985 48.141C267.658 48.3323 267.387 48.5913 267.173 48.918C266.963 49.24 266.832 49.6017 266.781 50.003ZM278.342 57.5H277.166V47H278.342V48.197C278.58 47.7863 278.898 47.455 279.294 47.203C279.691 46.9463 280.162 46.818 280.708 46.818C281.217 46.818 281.693 46.9137 282.136 47.105C282.584 47.2963 282.976 47.5623 283.312 47.903C283.648 48.239 283.912 48.6287 284.103 49.072C284.295 49.5153 284.39 49.9913 284.39 50.5C284.39 51.0087 284.295 51.487 284.103 51.935C283.912 52.383 283.648 52.7773 283.312 53.118C282.976 53.454 282.584 53.7177 282.136 53.909C281.693 54.1003 281.217 54.196 280.708 54.196C280.162 54.196 279.691 54.07 279.294 53.818C278.898 53.5613 278.58 53.2277 278.342 52.817V57.5ZM280.694 47.959C280.242 47.959 279.845 48.0733 279.504 48.302C279.164 48.5307 278.9 48.8363 278.713 49.219C278.531 49.6017 278.44 50.0287 278.44 50.5C278.44 50.9667 278.531 51.3937 278.713 51.781C278.9 52.1683 279.161 52.4763 279.497 52.705C279.838 52.9337 280.237 53.048 280.694 53.048C281.147 53.048 281.562 52.936 281.94 52.712C282.318 52.4833 282.622 52.1777 282.85 51.795C283.079 51.4077 283.193 50.976 283.193 50.5C283.193 50.0333 283.081 49.6087 282.857 49.226C282.633 48.8387 282.332 48.5307 281.954 48.302C281.576 48.0733 281.156 47.959 280.694 47.959ZM285.561 54V47H286.737V47.875C286.984 47.5483 287.297 47.2893 287.675 47.098C288.053 46.902 288.463 46.804 288.907 46.804C289.177 46.804 289.439 46.839 289.691 46.909L289.215 48.085C289.023 48.0243 288.837 47.994 288.655 47.994C288.305 47.994 287.983 48.0803 287.689 48.253C287.399 48.421 287.168 48.6497 286.996 48.939C286.823 49.2283 286.737 49.5503 286.737 49.905V54H285.561ZM293.275 54.182C292.631 54.182 292.043 54.0163 291.511 53.685C290.984 53.3537 290.562 52.9103 290.244 52.355C289.932 51.795 289.775 51.1767 289.775 50.5C289.775 49.9867 289.866 49.5083 290.048 49.065C290.23 48.617 290.48 48.225 290.797 47.889C291.119 47.5483 291.493 47.2823 291.917 47.091C292.342 46.8997 292.795 46.804 293.275 46.804C293.919 46.804 294.505 46.9697 295.032 47.301C295.564 47.6323 295.987 48.078 296.299 48.638C296.617 49.198 296.775 49.8187 296.775 50.5C296.775 51.0087 296.684 51.4847 296.502 51.928C296.32 52.3713 296.068 52.7633 295.746 53.104C295.429 53.44 295.058 53.7037 294.633 53.895C294.213 54.0863 293.761 54.182 293.275 54.182ZM293.275 53.006C293.714 53.006 294.108 52.8917 294.458 52.663C294.813 52.4297 295.091 52.124 295.291 51.746C295.497 51.3633 295.599 50.948 295.599 50.5C295.599 50.0427 295.494 49.6227 295.284 49.24C295.079 48.8573 294.801 48.5517 294.451 48.323C294.101 48.0943 293.709 47.98 293.275 47.98C292.837 47.98 292.442 48.0967 292.092 48.33C291.742 48.5587 291.465 48.8643 291.259 49.247C291.054 49.6297 290.951 50.0473 290.951 50.5C290.951 50.9667 291.056 51.3913 291.266 51.774C291.476 52.152 291.759 52.453 292.113 52.677C292.468 52.8963 292.855 53.006 293.275 53.006ZM299.11 57.5H297.934V47H299.11V48.197C299.348 47.7863 299.665 47.455 300.062 47.203C300.458 46.9463 300.93 46.818 301.476 46.818C301.984 46.818 302.46 46.9137 302.904 47.105C303.352 47.2963 303.744 47.5623 304.08 47.903C304.416 48.239 304.679 48.6287 304.871 49.072C305.062 49.5153 305.158 49.9913 305.158 50.5C305.158 51.0087 305.062 51.487 304.871 51.935C304.679 52.383 304.416 52.7773 304.08 53.118C303.744 53.454 303.352 53.7177 302.904 53.909C302.46 54.1003 301.984 54.196 301.476 54.196C300.93 54.196 300.458 54.07 300.062 53.818C299.665 53.5613 299.348 53.2277 299.11 52.817V57.5ZM301.462 47.959C301.009 47.959 300.612 48.0733 300.272 48.302C299.931 48.5307 299.667 48.8363 299.481 49.219C299.299 49.6017 299.208 50.0287 299.208 50.5C299.208 50.9667 299.299 51.3937 299.481 51.781C299.667 52.1683 299.929 52.4763 300.265 52.705C300.605 52.9337 301.004 53.048 301.462 53.048C301.914 53.048 302.33 52.936 302.708 52.712C303.086 52.4833 303.389 52.1777 303.618 51.795C303.846 51.4077 303.961 50.976 303.961 50.5C303.961 50.0333 303.849 49.6087 303.625 49.226C303.401 48.8387 303.1 48.5307 302.722 48.302C302.344 48.0733 301.924 47.959 301.462 47.959ZM309.367 54.182C308.723 54.182 308.135 54.0163 307.603 53.685C307.076 53.3537 306.654 52.9103 306.336 52.355C306.024 51.795 305.867 51.1767 305.867 50.5C305.867 49.9867 305.958 49.5083 306.14 49.065C306.322 48.617 306.572 48.225 306.889 47.889C307.211 47.5483 307.585 47.2823 308.009 47.091C308.434 46.8997 308.887 46.804 309.367 46.804C309.895 46.804 310.378 46.9113 310.816 47.126C311.26 47.336 311.638 47.63 311.95 48.008C312.268 48.386 312.503 48.8247 312.657 49.324C312.816 49.8233 312.874 50.3577 312.832 50.927H307.12C307.176 51.3237 307.307 51.6783 307.512 51.991C307.718 52.299 307.979 52.544 308.296 52.726C308.618 52.908 308.975 53.0013 309.367 53.006C309.787 53.006 310.168 52.8987 310.508 52.684C310.849 52.4647 311.124 52.166 311.334 51.788L312.531 52.068C312.251 52.6887 311.829 53.1973 311.264 53.594C310.7 53.986 310.067 54.182 309.367 54.182ZM307.085 50.003H311.649C311.612 49.611 311.486 49.254 311.271 48.932C311.057 48.6053 310.784 48.344 310.452 48.148C310.121 47.952 309.759 47.854 309.367 47.854C308.975 47.854 308.616 47.9497 308.289 48.141C307.963 48.3323 307.692 48.5913 307.477 48.918C307.267 49.24 307.137 49.6017 307.085 50.003ZM314.012 54V47H315.188V47.875C315.435 47.5483 315.748 47.2893 316.126 47.098C316.504 46.902 316.915 46.804 317.358 46.804C317.629 46.804 317.89 46.839 318.142 46.909L317.666 48.085C317.475 48.0243 317.288 47.994 317.106 47.994C316.756 47.994 316.434 48.0803 316.14 48.253C315.851 48.421 315.62 48.6497 315.447 48.939C315.274 49.2283 315.188 49.5503 315.188 49.905V54H314.012ZM322.751 48.176H321.162L321.155 54H319.979L319.986 48.176H318.782V47H319.986L319.979 44.802H321.155L321.162 47H322.751V48.176ZM328.637 47H329.883L326.054 57.5H324.808L326.075 54L323.562 47H324.85L326.663 52.383L328.637 47ZM334.643 47H335.819V54H334.643V47ZM335.245 45.859C335.058 45.859 334.902 45.7983 334.776 45.677C334.65 45.5557 334.587 45.404 334.587 45.222C334.587 45.04 334.65 44.8883 334.776 44.767C334.902 44.6457 335.056 44.585 335.238 44.585C335.42 44.585 335.574 44.6457 335.7 44.767C335.826 44.8883 335.889 45.04 335.889 45.222C335.889 45.404 335.826 45.5557 335.7 45.677C335.578 45.7983 335.427 45.859 335.245 45.859ZM343.661 49.646V54H342.485V49.905C342.485 49.5503 342.398 49.2283 342.226 48.939C342.053 48.6497 341.822 48.421 341.533 48.253C341.243 48.0803 340.921 47.994 340.567 47.994C340.217 47.994 339.895 48.0803 339.601 48.253C339.311 48.421 339.08 48.6497 338.908 48.939C338.735 49.2283 338.649 49.5503 338.649 49.905V54H337.473V47H338.649V47.875C338.896 47.5483 339.209 47.2893 339.587 47.098C339.965 46.902 340.375 46.804 340.819 46.804C341.341 46.804 341.817 46.9323 342.247 47.189C342.681 47.441 343.024 47.7817 343.276 48.211C343.532 48.6403 343.661 49.1187 343.661 49.646ZM347.196 54.133C346.818 54.119 346.449 54.049 346.09 53.923C345.735 53.7923 345.422 53.6173 345.152 53.398C344.886 53.174 344.692 52.9173 344.571 52.628L345.579 52.194C345.649 52.3527 345.775 52.502 345.957 52.642C346.139 52.782 346.349 52.894 346.587 52.978C346.825 53.062 347.065 53.104 347.308 53.104C347.564 53.104 347.805 53.0643 348.029 52.985C348.253 52.9057 348.435 52.789 348.575 52.635C348.719 52.4763 348.792 52.2873 348.792 52.068C348.792 51.8347 348.712 51.6527 348.554 51.522C348.4 51.3867 348.204 51.2817 347.966 51.207C347.732 51.1277 347.494 51.053 347.252 50.983C346.771 50.8617 346.342 50.717 345.964 50.549C345.586 50.3763 345.287 50.1593 345.068 49.898C344.853 49.632 344.746 49.2937 344.746 48.883C344.746 48.449 344.865 48.0733 345.103 47.756C345.345 47.4387 345.663 47.1937 346.055 47.021C346.447 46.8483 346.867 46.762 347.315 46.762C347.879 46.762 348.395 46.8833 348.862 47.126C349.328 47.3687 349.676 47.6977 349.905 48.113L348.96 48.666C348.88 48.498 348.759 48.351 348.596 48.225C348.432 48.0943 348.246 47.9917 348.036 47.917C347.826 47.8423 347.611 47.8027 347.392 47.798C347.121 47.7887 346.867 47.8237 346.629 47.903C346.395 47.9823 346.206 48.1037 346.062 48.267C345.922 48.4257 345.852 48.624 345.852 48.862C345.852 49.0953 345.926 49.2727 346.076 49.394C346.23 49.5153 346.428 49.6133 346.671 49.688C346.918 49.758 347.186 49.8397 347.476 49.933C347.9 50.0683 348.297 50.2247 348.666 50.402C349.034 50.5793 349.331 50.801 349.555 51.067C349.783 51.333 349.895 51.662 349.891 52.054C349.891 52.4833 349.762 52.859 349.506 53.181C349.249 53.4983 348.915 53.741 348.505 53.909C348.099 54.077 347.662 54.1517 347.196 54.133ZM350.81 51.34V47H351.986V51.081C351.986 51.4357 352.072 51.7577 352.245 52.047C352.418 52.3363 352.649 52.5673 352.938 52.74C353.232 52.908 353.554 52.992 353.904 52.992C354.259 52.992 354.578 52.908 354.863 52.74C355.152 52.5673 355.383 52.3363 355.556 52.047C355.729 51.7577 355.815 51.4357 355.815 51.081V47H356.991L356.998 54H355.822L355.815 53.111C355.568 53.4377 355.255 53.699 354.877 53.895C354.499 54.0863 354.091 54.182 353.652 54.182C353.129 54.182 352.651 54.056 352.217 53.804C351.788 53.5473 351.445 53.2043 351.188 52.775C350.936 52.3457 350.81 51.8673 350.81 51.34ZM358.404 54V47H359.58V47.875C359.828 47.5483 360.14 47.2893 360.518 47.098C360.896 46.902 361.307 46.804 361.75 46.804C362.021 46.804 362.282 46.839 362.534 46.909L362.058 48.085C361.867 48.0243 361.68 47.994 361.498 47.994C361.148 47.994 360.826 48.0803 360.532 48.253C360.243 48.421 360.012 48.6497 359.839 48.939C359.667 49.2283 359.58 49.5503 359.58 49.905V54H358.404ZM368.667 47H369.843V54H368.667L368.618 52.817C368.399 53.223 368.096 53.552 367.708 53.804C367.326 54.056 366.868 54.182 366.336 54.182C365.823 54.182 365.342 54.0863 364.894 53.895C364.446 53.699 364.05 53.4307 363.704 53.09C363.364 52.7447 363.098 52.348 362.906 51.9C362.715 51.452 362.619 50.969 362.619 50.451C362.619 49.9517 362.713 49.4803 362.899 49.037C363.086 48.5937 363.345 48.2063 363.676 47.875C364.012 47.539 364.4 47.2777 364.838 47.091C365.277 46.8997 365.748 46.804 366.252 46.804C366.803 46.804 367.286 46.9347 367.701 47.196C368.117 47.4527 368.453 47.7863 368.709 48.197L368.667 47ZM366.315 53.041C366.777 53.041 367.176 52.929 367.512 52.705C367.853 52.4763 368.114 52.1683 368.296 51.781C368.483 51.3937 368.576 50.9667 368.576 50.5C368.576 50.024 368.483 49.5947 368.296 49.212C368.11 48.8247 367.846 48.519 367.505 48.295C367.169 48.0663 366.773 47.952 366.315 47.952C365.853 47.952 365.433 48.0663 365.055 48.295C364.677 48.5237 364.376 48.8317 364.152 49.219C363.933 49.6017 363.823 50.0287 363.823 50.5C363.823 50.9713 363.938 51.4007 364.166 51.788C364.395 52.1707 364.698 52.4763 365.076 52.705C365.454 52.929 365.867 53.041 366.315 53.041ZM377.43 49.646V54H376.254V49.905C376.254 49.5503 376.168 49.2283 375.995 48.939C375.823 48.6497 375.592 48.421 375.302 48.253C375.013 48.0803 374.691 47.994 374.336 47.994C373.986 47.994 373.664 48.0803 373.37 48.253C373.081 48.421 372.85 48.6497 372.677 48.939C372.505 49.2283 372.418 49.5503 372.418 49.905V54H371.242V47H372.418V47.875C372.666 47.5483 372.978 47.2893 373.356 47.098C373.734 46.902 374.145 46.804 374.588 46.804C375.111 46.804 375.587 46.9323 376.016 47.189C376.45 47.441 376.793 47.7817 377.045 48.211C377.302 48.6403 377.43 49.1187 377.43 49.646ZM383.517 52.152L384.567 52.719C384.249 53.1623 383.846 53.517 383.356 53.783C382.87 54.049 382.343 54.182 381.774 54.182C381.13 54.182 380.542 54.0163 380.01 53.685C379.482 53.3537 379.06 52.9103 378.743 52.355C378.43 51.795 378.274 51.1767 378.274 50.5C378.274 49.9867 378.365 49.5083 378.547 49.065C378.729 48.617 378.978 48.225 379.296 47.889C379.618 47.5483 379.991 47.2823 380.416 47.091C380.84 46.8997 381.293 46.804 381.774 46.804C382.343 46.804 382.87 46.937 383.356 47.203C383.846 47.469 384.249 47.826 384.567 48.274L383.517 48.841C383.293 48.5657 383.027 48.3533 382.719 48.204C382.411 48.0547 382.096 47.98 381.774 47.98C381.34 47.98 380.945 48.0967 380.591 48.33C380.241 48.5587 379.963 48.8643 379.758 49.247C379.552 49.6297 379.45 50.0473 379.45 50.5C379.45 50.9527 379.552 51.3703 379.758 51.753C379.968 52.131 380.248 52.4343 380.598 52.663C380.952 52.8917 381.344 53.006 381.774 53.006C382.119 53.006 382.443 52.9267 382.747 52.768C383.05 52.6093 383.307 52.404 383.517 52.152ZM388.787 54.182C388.143 54.182 387.555 54.0163 387.023 53.685C386.496 53.3537 386.074 52.9103 385.756 52.355C385.444 51.795 385.287 51.1767 385.287 50.5C385.287 49.9867 385.378 49.5083 385.56 49.065C385.742 48.617 385.992 48.225 386.309 47.889C386.631 47.5483 387.005 47.2823 387.429 47.091C387.854 46.8997 388.307 46.804 388.787 46.804C389.315 46.804 389.798 46.9113 390.236 47.126C390.68 47.336 391.058 47.63 391.37 48.008C391.688 48.386 391.923 48.8247 392.077 49.324C392.236 49.8233 392.294 50.3577 392.252 50.927H386.54C386.596 51.3237 386.727 51.6783 386.932 51.991C387.138 52.299 387.399 52.544 387.716 52.726C388.038 52.908 388.395 53.0013 388.787 53.006C389.207 53.006 389.588 52.8987 389.928 52.684C390.269 52.4647 390.544 52.166 390.754 51.788L391.951 52.068C391.671 52.6887 391.249 53.1973 390.684 53.594C390.12 53.986 389.487 54.182 388.787 54.182ZM386.505 50.003H391.069C391.032 49.611 390.906 49.254 390.691 48.932C390.477 48.6053 390.204 48.344 389.872 48.148C389.541 47.952 389.179 47.854 388.787 47.854C388.395 47.854 388.036 47.9497 387.709 48.141C387.383 48.3323 387.112 48.5913 386.897 48.918C386.687 49.24 386.557 49.6017 386.505 50.003Z" fill="#999999"></path></g><defs><clipPath id="clip0_166_1057"><rect width="462.5" height="66" fill="white" transform="translate(0.5)"></rect></clipPath></defs></svg>