<svg xmlns="http://www.w3.org/2000/svg" width="463" height="66" viewBox="0 0 463 66" fill="none"><g clip-path="url(#clip0_166_1035)"><path d="M0.84 15V5.2H4.074C4.60133 5.2 5.075 5.32833 5.495 5.585C5.91967 5.84167 6.25567 6.18933 6.503 6.628C6.755 7.062 6.881 7.54733 6.881 8.084C6.881 8.63 6.75267 9.12233 6.496 9.561C6.244 9.995 5.90333 10.3403 5.474 10.597C5.04933 10.849 4.58267 10.975 4.074 10.975H2.016V15H0.84ZM2.016 9.799H3.969C4.28633 9.799 4.57567 9.722 4.837 9.568C5.103 9.40933 5.313 9.197 5.467 8.931C5.62567 8.66033 5.705 8.357 5.705 8.021C5.705 7.68033 5.62567 7.377 5.467 7.111C5.313 6.84033 5.103 6.628 4.837 6.474C4.57567 6.31533 4.28633 6.236 3.969 6.236H2.016V9.799ZM8.08609 15V8H9.26209V8.875C9.50943 8.54833 9.82209 8.28933 10.2001 8.098C10.5781 7.902 10.9888 7.804 11.4321 7.804C11.7028 7.804 11.9641 7.839 12.2161 7.909L11.7401 9.085C11.5488 9.02433 11.3621 8.994 11.1801 8.994C10.8301 8.994 10.5081 9.08033 10.2141 9.253C9.92476 9.421 9.69376 9.64967 9.52109 9.939C9.34843 10.2283 9.26209 10.5503 9.26209 10.905V15H8.08609ZM15.8009 15.182C15.1569 15.182 14.5689 15.0163 14.0369 14.685C13.5095 14.3537 13.0872 13.9103 12.7699 13.355C12.4572 12.795 12.3009 12.1767 12.3009 11.5C12.3009 10.9867 12.3919 10.5083 12.5739 10.065C12.7559 9.617 13.0055 9.225 13.3229 8.889C13.6449 8.54833 14.0182 8.28233 14.4429 8.091C14.8675 7.89967 15.3202 7.804 15.8009 7.804C16.4449 7.804 17.0305 7.96967 17.5579 8.301C18.0899 8.63233 18.5122 9.078 18.8249 9.638C19.1422 10.198 19.3009 10.8187 19.3009 11.5C19.3009 12.0087 19.2099 12.4847 19.0279 12.928C18.8459 13.3713 18.5939 13.7633 18.2719 14.104C17.9545 14.44 17.5835 14.7037 17.1589 14.895C16.7389 15.0863 16.2862 15.182 15.8009 15.182ZM15.8009 14.006C16.2395 14.006 16.6339 13.8917 16.9839 13.663C17.3385 13.4297 17.6162 13.124 17.8169 12.746C18.0222 12.3633 18.1249 11.948 18.1249 11.5C18.1249 11.0427 18.0199 10.6227 17.8099 10.24C17.6045 9.85733 17.3269 9.55167 16.9769 9.323C16.6269 9.09433 16.2349 8.98 15.8009 8.98C15.3622 8.98 14.9679 9.09667 14.6179 9.33C14.2679 9.55867 13.9902 9.86433 13.7849 10.247C13.5795 10.6297 13.4769 11.0473 13.4769 11.5C13.4769 11.9667 13.5819 12.3913 13.7919 12.774C14.0019 13.152 14.2842 13.453 14.6389 13.677C14.9935 13.8963 15.3809 14.006 15.8009 14.006ZM21.6351 18.5H20.4591V8H21.6351V9.197C21.8731 8.78633 22.1905 8.455 22.5871 8.203C22.9838 7.94633 23.4551 7.818 24.0011 7.818C24.5098 7.818 24.9858 7.91367 25.4291 8.105C25.8771 8.29633 26.2691 8.56233 26.6051 8.903C26.9411 9.239 27.2048 9.62867 27.3961 10.072C27.5875 10.5153 27.6831 10.9913 27.6831 11.5C27.6831 12.0087 27.5875 12.487 27.3961 12.935C27.2048 13.383 26.9411 13.7773 26.6051 14.118C26.2691 14.454 25.8771 14.7177 25.4291 14.909C24.9858 15.1003 24.5098 15.196 24.0011 15.196C23.4551 15.196 22.9838 15.07 22.5871 14.818C22.1905 14.5613 21.8731 14.2277 21.6351 13.817V18.5ZM23.9871 8.959C23.5345 8.959 23.1378 9.07333 22.7971 9.302C22.4565 9.53067 22.1928 9.83633 22.0061 10.219C21.8241 10.6017 21.7331 11.0287 21.7331 11.5C21.7331 11.9667 21.8241 12.3937 22.0061 12.781C22.1928 13.1683 22.4541 13.4763 22.7901 13.705C23.1308 13.9337 23.5298 14.048 23.9871 14.048C24.4398 14.048 24.8551 13.936 25.2331 13.712C25.6111 13.4833 25.9145 13.1777 26.1431 12.795C26.3718 12.4077 26.4861 11.976 26.4861 11.5C26.4861 11.0333 26.3741 10.6087 26.1501 10.226C25.9261 9.83867 25.6251 9.53067 25.2471 9.302C24.8691 9.07333 24.4491 8.959 23.9871 8.959ZM31.8927 15.182C31.2487 15.182 30.6607 15.0163 30.1287 14.685C29.6013 14.3537 29.179 13.9103 28.8617 13.355C28.549 12.795 28.3927 12.1767 28.3927 11.5C28.3927 10.9867 28.4837 10.5083 28.6657 10.065C28.8477 9.617 29.0973 9.225 29.4147 8.889C29.7367 8.54833 30.11 8.28233 30.5347 8.091C30.9593 7.89967 31.412 7.804 31.8927 7.804C32.42 7.804 32.903 7.91133 33.3417 8.126C33.785 8.336 34.163 8.63 34.4757 9.008C34.793 9.386 35.0287 9.82467 35.1827 10.324C35.3413 10.8233 35.3997 11.3577 35.3577 11.927H29.6457C29.7017 12.3237 29.8323 12.6783 30.0377 12.991C30.243 13.299 30.5043 13.544 30.8217 13.726C31.1437 13.908 31.5007 14.0013 31.8927 14.006C32.3127 14.006 32.693 13.8987 33.0337 13.684C33.3743 13.4647 33.6497 13.166 33.8597 12.788L35.0567 13.068C34.7767 13.6887 34.3543 14.1973 33.7897 14.594C33.225 14.986 32.5927 15.182 31.8927 15.182ZM29.6107 11.003H34.1747C34.1373 10.611 34.0113 10.254 33.7967 9.932C33.582 9.60533 33.309 9.344 32.9777 9.148C32.6463 8.952 32.2847 8.854 31.8927 8.854C31.5007 8.854 31.1413 8.94967 30.8147 9.141C30.488 9.33233 30.2173 9.59133 30.0027 9.918C29.7927 10.24 29.662 10.6017 29.6107 11.003ZM36.5373 15V8H37.7133V8.875C37.9606 8.54833 38.2733 8.28933 38.6513 8.098C39.0293 7.902 39.4399 7.804 39.8833 7.804C40.1539 7.804 40.4153 7.839 40.6673 7.909L40.1913 9.085C39.9999 9.02433 39.8133 8.994 39.6313 8.994C39.2813 8.994 38.9593 9.08033 38.6653 9.253C38.3759 9.421 38.1449 9.64967 37.9723 9.939C37.7996 10.2283 37.7133 10.5503 37.7133 10.905V15H36.5373ZM45.2765 9.176H43.6875L43.6805 15H42.5045L42.5115 9.176H41.3075V8H42.5115L42.5045 5.802H43.6805L43.6875 8H45.2765V9.176ZM51.1623 8H52.4083L48.5793 18.5H47.3333L48.6003 15L46.0873 8H47.3753L49.1883 13.383L51.1623 8ZM64.5811 5.2V6.376H61.3191V15H60.1431V6.376H56.8881V5.2H64.5811ZM64.8654 15V8H66.0414V8.875C66.2887 8.54833 66.6014 8.28933 66.9794 8.098C67.3574 7.902 67.7681 7.804 68.2114 7.804C68.4821 7.804 68.7434 7.839 68.9954 7.909L68.5194 9.085C68.3281 9.02433 68.1414 8.994 67.9594 8.994C67.6094 8.994 67.2874 9.08033 66.9934 9.253C66.7041 9.421 66.4731 9.64967 66.3004 9.939C66.1277 10.2283 66.0414 10.5503 66.0414 10.905V15H64.8654ZM75.1282 8H76.3042V15H75.1282L75.0792 13.817C74.8598 14.223 74.5565 14.552 74.1692 14.804C73.7865 15.056 73.3292 15.182 72.7972 15.182C72.2838 15.182 71.8032 15.0863 71.3552 14.895C70.9072 14.699 70.5105 14.4307 70.1652 14.09C69.8245 13.7447 69.5585 13.348 69.3672 12.9C69.1758 12.452 69.0802 11.969 69.0802 11.451C69.0802 10.9517 69.1735 10.4803 69.3602 10.037C69.5468 9.59367 69.8058 9.20633 70.1372 8.875C70.4732 8.539 70.8605 8.27767 71.2992 8.091C71.7378 7.89967 72.2092 7.804 72.7132 7.804C73.2638 7.804 73.7468 7.93467 74.1622 8.196C74.5775 8.45267 74.9135 8.78633 75.1702 9.197L75.1282 8ZM72.7762 14.041C73.2382 14.041 73.6372 13.929 73.9732 13.705C74.3138 13.4763 74.5752 13.1683 74.7572 12.781C74.9438 12.3937 75.0372 11.9667 75.0372 11.5C75.0372 11.024 74.9438 10.5947 74.7572 10.212C74.5705 9.82467 74.3068 9.519 73.9662 9.295C73.6302 9.06633 73.2335 8.952 72.7762 8.952C72.3142 8.952 71.8942 9.06633 71.5162 9.295C71.1382 9.52367 70.8372 9.83167 70.6132 10.219C70.3938 10.6017 70.2842 11.0287 70.2842 11.5C70.2842 11.9713 70.3985 12.4007 70.6272 12.788C70.8558 13.1707 71.1592 13.4763 71.5372 13.705C71.9152 13.929 72.3282 14.041 72.7762 14.041ZM83.8913 10.646V15H82.7153V10.905C82.7153 10.5503 82.6289 10.2283 82.4563 9.939C82.2836 9.64967 82.0526 9.421 81.7633 9.253C81.4739 9.08033 81.1519 8.994 80.7973 8.994C80.4473 8.994 80.1253 9.08033 79.8313 9.253C79.5419 9.421 79.3109 9.64967 79.1383 9.939C78.9656 10.2283 78.8793 10.5503 78.8793 10.905V15H77.7033V8H78.8793V8.875C79.1266 8.54833 79.4393 8.28933 79.8173 8.098C80.1953 7.902 80.6059 7.804 81.0493 7.804C81.5719 7.804 82.0479 7.93233 82.4773 8.189C82.9113 8.441 83.2543 8.78167 83.5063 9.211C83.7629 9.64033 83.8913 10.1187 83.8913 10.646ZM87.4262 15.133C87.0482 15.119 86.6795 15.049 86.3202 14.923C85.9655 14.7923 85.6528 14.6173 85.3822 14.398C85.1162 14.174 84.9225 13.9173 84.8012 13.628L85.8092 13.194C85.8792 13.3527 86.0052 13.502 86.1872 13.642C86.3692 13.782 86.5792 13.894 86.8172 13.978C87.0552 14.062 87.2955 14.104 87.5382 14.104C87.7948 14.104 88.0352 14.0643 88.2592 13.985C88.4832 13.9057 88.6652 13.789 88.8052 13.635C88.9498 13.4763 89.0222 13.2873 89.0222 13.068C89.0222 12.8347 88.9428 12.6527 88.7842 12.522C88.6302 12.3867 88.4342 12.2817 88.1962 12.207C87.9628 12.1277 87.7248 12.053 87.4822 11.983C87.0015 11.8617 86.5722 11.717 86.1942 11.549C85.8162 11.3763 85.5175 11.1593 85.2982 10.898C85.0835 10.632 84.9762 10.2937 84.9762 9.883C84.9762 9.449 85.0952 9.07333 85.3332 8.756C85.5758 8.43867 85.8932 8.19367 86.2852 8.021C86.6772 7.84833 87.0972 7.762 87.5452 7.762C88.1098 7.762 88.6255 7.88333 89.0922 8.126C89.5588 8.36867 89.9065 8.69767 90.1352 9.113L89.1902 9.666C89.1108 9.498 88.9895 9.351 88.8262 9.225C88.6628 9.09433 88.4762 8.99167 88.2662 8.917C88.0562 8.84233 87.8415 8.80267 87.6222 8.798C87.3515 8.78867 87.0972 8.82367 86.8592 8.903C86.6258 8.98233 86.4368 9.10367 86.2922 9.267C86.1522 9.42567 86.0822 9.624 86.0822 9.862C86.0822 10.0953 86.1568 10.2727 86.3062 10.394C86.4602 10.5153 86.6585 10.6133 86.9012 10.688C87.1485 10.758 87.4168 10.8397 87.7062 10.933C88.1308 11.0683 88.5275 11.2247 88.8962 11.402C89.2648 11.5793 89.5612 11.801 89.7852 12.067C90.0138 12.333 90.1258 12.662 90.1212 13.054C90.1212 13.4833 89.9928 13.859 89.7362 14.181C89.4795 14.4983 89.1458 14.741 88.7352 14.909C88.3292 15.077 87.8928 15.1517 87.4262 15.133ZM92.9095 6.271V8H94.9605V9.176H92.9095V15H91.7335V9.176H90.8305V8H91.7335V6.271C91.7335 5.91167 91.8198 5.58733 91.9925 5.298C92.1698 5.004 92.4055 4.77067 92.6995 4.598C92.9981 4.42067 93.3248 4.332 93.6795 4.332C93.9408 4.332 94.1951 4.38567 94.4425 4.493C94.6898 4.59567 94.9091 4.74967 95.1005 4.955L94.2605 5.788C94.1951 5.69933 94.1088 5.63167 94.0015 5.585C93.8988 5.53367 93.7915 5.508 93.6795 5.508C93.4695 5.508 93.2875 5.58267 93.1335 5.732C92.9841 5.88133 92.9095 6.061 92.9095 6.271ZM99.0216 15.182C98.3776 15.182 97.7896 15.0163 97.2576 14.685C96.7302 14.3537 96.3079 13.9103 95.9906 13.355C95.6779 12.795 95.5216 12.1767 95.5216 11.5C95.5216 10.9867 95.6126 10.5083 95.7946 10.065C95.9766 9.617 96.2262 9.225 96.5436 8.889C96.8656 8.54833 97.2389 8.28233 97.6636 8.091C98.0882 7.89967 98.5409 7.804 99.0216 7.804C99.5489 7.804 100.032 7.91133 100.471 8.126C100.914 8.336 101.292 8.63 101.605 9.008C101.922 9.386 102.158 9.82467 102.312 10.324C102.47 10.8233 102.529 11.3577 102.487 11.927H96.7746C96.8306 12.3237 96.9612 12.6783 97.1666 12.991C97.3719 13.299 97.6332 13.544 97.9506 13.726C98.2726 13.908 98.6296 14.0013 99.0216 14.006C99.4416 14.006 99.8219 13.8987 100.163 13.684C100.503 13.4647 100.779 13.166 100.989 12.788L102.186 13.068C101.906 13.6887 101.483 14.1973 100.919 14.594C100.354 14.986 99.7216 15.182 99.0216 15.182ZM96.7396 11.003H101.304C101.266 10.611 101.14 10.254 100.926 9.932C100.711 9.60533 100.438 9.344 100.107 9.148C99.7752 8.952 99.4136 8.854 99.0216 8.854C98.6296 8.854 98.2702 8.94967 97.9436 9.141C97.6169 9.33233 97.3462 9.59133 97.1316 9.918C96.9216 10.24 96.7909 10.6017 96.7396 11.003ZM103.666 15V8H104.842V8.875C105.09 8.54833 105.402 8.28933 105.78 8.098C106.158 7.902 106.569 7.804 107.012 7.804C107.283 7.804 107.544 7.839 107.796 7.909L107.32 9.085C107.129 9.02433 106.942 8.994 106.76 8.994C106.41 8.994 106.088 9.08033 105.794 9.253C105.505 9.421 105.274 9.64967 105.101 9.939C104.929 10.2283 104.842 10.5503 104.842 10.905V15H103.666ZM119.556 5.2V6.376H116.294V15H115.118V6.376H111.863V5.2H119.556ZM125.495 8H126.671V15H125.495L125.446 13.817C125.227 14.223 124.924 14.552 124.536 14.804C124.154 15.056 123.696 15.182 123.164 15.182C122.651 15.182 122.17 15.0863 121.722 14.895C121.274 14.699 120.878 14.4307 120.532 14.09C120.192 13.7447 119.926 13.348 119.734 12.9C119.543 12.452 119.447 11.969 119.447 11.451C119.447 10.9517 119.541 10.4803 119.727 10.037C119.914 9.59367 120.173 9.20633 120.504 8.875C120.84 8.539 121.228 8.27767 121.666 8.091C122.105 7.89967 122.576 7.804 123.08 7.804C123.631 7.804 124.114 7.93467 124.529 8.196C124.945 8.45267 125.281 8.78633 125.537 9.197L125.495 8ZM123.143 14.041C123.605 14.041 124.004 13.929 124.34 13.705C124.681 13.4763 124.942 13.1683 125.124 12.781C125.311 12.3937 125.404 11.9667 125.404 11.5C125.404 11.024 125.311 10.5947 125.124 10.212C124.938 9.82467 124.674 9.519 124.333 9.295C123.997 9.06633 123.601 8.952 123.143 8.952C122.681 8.952 122.261 9.06633 121.883 9.295C121.505 9.52367 121.204 9.83167 120.98 10.219C120.761 10.6017 120.651 11.0287 120.651 11.5C120.651 11.9713 120.766 12.4007 120.994 12.788C121.223 13.1707 121.526 13.4763 121.904 13.705C122.282 13.929 122.695 14.041 123.143 14.041ZM127.695 15L130.257 11.486L127.709 7.986H129.158L130.985 10.478L132.805 7.986H134.254L131.706 11.486L134.268 15H132.819L130.985 12.48L129.144 15H127.695Z" fill="#999999"></path><path d="M5.99 44.36C5.45667 44.3533 4.95667 44.44 4.49 44.62C4.03 44.7933 3.65333 45.0333 3.36 45.34C3.06667 45.6467 2.92 46.0033 2.92 46.41C2.92 46.91 3.05667 47.29 3.33 47.55C3.60333 47.81 3.97 48.0033 4.43 48.13C4.89667 48.25 5.41667 48.36 5.99 48.46C6.91 48.6067 7.76 48.85 8.54 49.19C9.32667 49.53 9.95667 49.9833 10.43 50.55C10.91 51.11 11.15 51.8 11.15 52.62C11.15 53.3733 10.95 54.0433 10.55 54.63C10.15 55.21 9.61333 55.68 8.94 56.04C8.27333 56.3933 7.53667 56.6167 6.73 56.71V58.74H5.26V56.71C4.58667 56.6433 3.94667 56.4833 3.34 56.23C2.74 55.9767 2.21667 55.64 1.77 55.22C1.32333 54.8 1 54.3133 0.8 53.76L2.75 53.03C2.86333 53.35 3.08 53.6367 3.4 53.89C3.72667 54.1367 4.11333 54.33 4.56 54.47C5.01333 54.61 5.49 54.68 5.99 54.68C6.52333 54.68 7.02333 54.5933 7.49 54.42C7.96333 54.2467 8.34333 54.0067 8.63 53.7C8.92333 53.3933 9.07 53.0333 9.07 52.62C9.07 52.1933 8.91667 51.8433 8.61 51.57C8.31 51.2967 7.92333 51.08 7.45 50.92C6.98333 50.76 6.49667 50.64 5.99 50.56C5.01 50.4 4.13 50.1667 3.35 49.86C2.57667 49.5533 1.96333 49.1233 1.51 48.57C1.06333 48.0167 0.84 47.2967 0.84 46.41C0.84 45.6567 1.04 44.9867 1.44 44.4C1.84 43.8133 2.37333 43.3433 3.04 42.99C3.71333 42.63 4.45333 42.4067 5.26 42.32V40.26H6.73V42.32C7.38333 42.3867 8.01 42.5467 8.61 42.8C9.21667 43.0533 9.74667 43.39 10.2 43.81C10.6533 44.2233 10.9833 44.7167 11.19 45.29L9.22 46C9.10667 45.6733 8.89 45.39 8.57 45.15C8.25 44.9033 7.86333 44.71 7.41 44.57C6.96333 44.43 6.49 44.36 5.99 44.36ZM12.7922 56.5V54.65C13.2655 54.2567 13.8089 53.8 14.4222 53.28C15.0355 52.7533 15.6589 52.1967 16.2922 51.61C16.9255 51.0167 17.5089 50.4267 18.0422 49.84C18.5755 49.2467 19.0055 48.6867 19.3322 48.16C19.6655 47.6267 19.8322 47.1633 19.8322 46.77C19.8322 46.3233 19.7222 45.9167 19.5022 45.55C19.2889 45.1767 18.9989 44.88 18.6322 44.66C18.2655 44.4333 17.8589 44.32 17.4122 44.32C16.9655 44.32 16.5555 44.4333 16.1822 44.66C15.8155 44.88 15.5189 45.1767 15.2922 45.55C15.0722 45.9167 14.9622 46.3233 14.9622 46.77H12.8822C12.8822 45.9233 13.0889 45.16 13.5022 44.48C13.9222 43.7933 14.4722 43.25 15.1522 42.85C15.8389 42.4433 16.5922 42.24 17.4122 42.24C18.2389 42.24 18.9922 42.4433 19.6722 42.85C20.3522 43.2567 20.8955 43.8033 21.3022 44.49C21.7089 45.17 21.9122 45.93 21.9122 46.77C21.9122 47.2367 21.8155 47.7167 21.6222 48.21C21.4289 48.7033 21.1589 49.2067 20.8122 49.72C20.4722 50.2333 20.0755 50.7533 19.6222 51.28C19.1689 51.8067 18.6822 52.3333 18.1622 52.86C17.6422 53.3867 17.1122 53.9067 16.5722 54.42H22.0322V56.5H12.7922ZM28.6527 56.76C27.766 56.76 26.9627 56.5467 26.2427 56.12C25.5293 55.6867 24.9627 55.1133 24.5427 54.4C24.1293 53.68 23.9227 52.8933 23.9227 52.04H26.0027C26.0027 52.5267 26.1227 52.97 26.3627 53.37C26.6027 53.77 26.9227 54.09 27.3227 54.33C27.7227 54.5633 28.166 54.68 28.6527 54.68C29.1327 54.68 29.5727 54.5633 29.9727 54.33C30.3727 54.09 30.6927 53.77 30.9327 53.37C31.1727 52.97 31.2927 52.5267 31.2927 52.04C31.2927 51.5533 31.1827 51.11 30.9627 50.71C30.7427 50.3033 30.4127 49.98 29.9727 49.74C29.5327 49.4933 28.9727 49.37 28.2927 49.37H24.7627L26.1827 42.5H32.9527V44.58H27.8727L27.3227 47.29L28.5327 47.31C29.486 47.33 30.3227 47.55 31.0427 47.97C31.7693 48.3833 32.3393 48.9433 32.7527 49.65C33.166 50.35 33.3727 51.1467 33.3727 52.04C33.3727 52.6867 33.2493 53.2967 33.0027 53.87C32.756 54.4367 32.416 54.9367 31.9827 55.37C31.556 55.8033 31.056 56.1433 30.4827 56.39C29.916 56.6367 29.306 56.76 28.6527 56.76ZM35.3703 57.62L35.9903 54.24H38.0703L36.7503 57.62H35.3703ZM45.3073 56.76C44.4807 56.76 43.734 56.5733 43.0673 56.2C42.4073 55.82 41.8373 55.2967 41.3573 54.63C40.8773 53.9633 40.5107 53.1933 40.2573 52.32C40.004 51.44 39.8773 50.5 39.8773 49.5C39.8773 48.5 40.004 47.56 40.2573 46.68C40.5107 45.8 40.8773 45.03 41.3573 44.37C41.8373 43.7033 42.4073 43.1833 43.0673 42.81C43.734 42.43 44.4807 42.24 45.3073 42.24C46.1207 42.24 46.8607 42.43 47.5273 42.81C48.194 43.1833 48.7607 43.7033 49.2273 44.37C49.7007 45.03 50.064 45.8 50.3173 46.68C50.5707 47.56 50.6973 48.5 50.6973 49.5C50.6973 50.5 50.5707 51.44 50.3173 52.32C50.064 53.1933 49.7007 53.9633 49.2273 54.63C48.7607 55.2967 48.194 55.82 47.5273 56.2C46.8607 56.5733 46.1207 56.76 45.3073 56.76ZM45.3073 54.68C46.074 54.68 46.7107 54.44 47.2173 53.96C47.7307 53.4733 48.114 52.8367 48.3673 52.05C48.6207 51.2633 48.7473 50.4133 48.7473 49.5C48.7473 48.54 48.614 47.67 48.3473 46.89C48.0873 46.1033 47.7007 45.48 47.1873 45.02C46.6807 44.5533 46.054 44.32 45.3073 44.32C44.714 44.32 44.1973 44.46 43.7573 44.74C43.324 45.02 42.964 45.4033 42.6773 45.89C42.3973 46.3767 42.184 46.93 42.0373 47.55C41.8973 48.17 41.8273 48.82 41.8273 49.5C41.8273 50.4133 41.9573 51.2633 42.2173 52.05C42.4773 52.8367 42.864 53.4733 43.3773 53.96C43.8973 54.44 44.5407 54.68 45.3073 54.68ZM56.948 56.76C56.1213 56.76 55.3746 56.5733 54.708 56.2C54.048 55.82 53.478 55.2967 52.998 54.63C52.518 53.9633 52.1513 53.1933 51.898 52.32C51.6446 51.44 51.518 50.5 51.518 49.5C51.518 48.5 51.6446 47.56 51.898 46.68C52.1513 45.8 52.518 45.03 52.998 44.37C53.478 43.7033 54.048 43.1833 54.708 42.81C55.3746 42.43 56.1213 42.24 56.948 42.24C57.7613 42.24 58.5013 42.43 59.168 42.81C59.8346 43.1833 60.4013 43.7033 60.868 44.37C61.3413 45.03 61.7046 45.8 61.958 46.68C62.2113 47.56 62.338 48.5 62.338 49.5C62.338 50.5 62.2113 51.44 61.958 52.32C61.7046 53.1933 61.3413 53.9633 60.868 54.63C60.4013 55.2967 59.8346 55.82 59.168 56.2C58.5013 56.5733 57.7613 56.76 56.948 56.76ZM56.948 54.68C57.7146 54.68 58.3513 54.44 58.858 53.96C59.3713 53.4733 59.7546 52.8367 60.008 52.05C60.2613 51.2633 60.388 50.4133 60.388 49.5C60.388 48.54 60.2546 47.67 59.988 46.89C59.728 46.1033 59.3413 45.48 58.828 45.02C58.3213 44.5533 57.6946 44.32 56.948 44.32C56.3546 44.32 55.838 44.46 55.398 44.74C54.9646 45.02 54.6046 45.4033 54.318 45.89C54.038 46.3767 53.8246 46.93 53.678 47.55C53.538 48.17 53.468 48.82 53.468 49.5C53.468 50.4133 53.598 51.2633 53.858 52.05C54.118 52.8367 54.5046 53.4733 55.018 53.96C55.538 54.44 56.1813 54.68 56.948 54.68ZM68.5886 56.76C67.7619 56.76 67.0153 56.5733 66.3486 56.2C65.6886 55.82 65.1186 55.2967 64.6386 54.63C64.1586 53.9633 63.7919 53.1933 63.5386 52.32C63.2853 51.44 63.1586 50.5 63.1586 49.5C63.1586 48.5 63.2853 47.56 63.5386 46.68C63.7919 45.8 64.1586 45.03 64.6386 44.37C65.1186 43.7033 65.6886 43.1833 66.3486 42.81C67.0153 42.43 67.7619 42.24 68.5886 42.24C69.4019 42.24 70.1419 42.43 70.8086 42.81C71.4753 43.1833 72.0419 43.7033 72.5086 44.37C72.9819 45.03 73.3453 45.8 73.5986 46.68C73.8519 47.56 73.9786 48.5 73.9786 49.5C73.9786 50.5 73.8519 51.44 73.5986 52.32C73.3453 53.1933 72.9819 53.9633 72.5086 54.63C72.0419 55.2967 71.4753 55.82 70.8086 56.2C70.1419 56.5733 69.4019 56.76 68.5886 56.76ZM68.5886 54.68C69.3553 54.68 69.9919 54.44 70.4986 53.96C71.0119 53.4733 71.3953 52.8367 71.6486 52.05C71.9019 51.2633 72.0286 50.4133 72.0286 49.5C72.0286 48.54 71.8953 47.67 71.6286 46.89C71.3686 46.1033 70.9819 45.48 70.4686 45.02C69.9619 44.5533 69.3353 44.32 68.5886 44.32C67.9953 44.32 67.4786 44.46 67.0386 44.74C66.6053 45.02 66.2453 45.4033 65.9586 45.89C65.6786 46.3767 65.4653 46.93 65.3186 47.55C65.1786 48.17 65.1086 48.82 65.1086 49.5C65.1086 50.4133 65.2386 51.2633 65.4986 52.05C65.7586 52.8367 66.1453 53.4733 66.6586 53.96C67.1786 54.44 67.8219 54.68 68.5886 54.68Z" fill="white"></path><rect x="87.5" y="33.5" width="297" height="32" rx="16" fill="#1A1A1A"></rect><rect x="87.5" y="33.5" width="297" height="32" rx="16" stroke="#262626"></rect><path d="M99.84 54V44.2H103.221C103.706 44.2 104.147 44.3003 104.544 44.501C104.945 44.697 105.263 44.984 105.496 45.362C105.729 45.74 105.846 46.1927 105.846 46.72C105.846 47.0047 105.797 47.28 105.699 47.546C105.606 47.8073 105.475 48.0337 105.307 48.225C105.144 48.4117 104.957 48.5377 104.747 48.603C105.041 48.6777 105.291 48.8107 105.496 49.002C105.701 49.1887 105.867 49.408 105.993 49.66C106.124 49.912 106.217 50.1757 106.273 50.451C106.329 50.7263 106.357 50.9923 106.357 51.249C106.357 51.7903 106.233 52.2687 105.986 52.684C105.743 53.0947 105.417 53.4167 105.006 53.65C104.595 53.8833 104.143 54 103.648 54H99.84ZM101.016 52.964H103.543C103.865 52.964 104.157 52.8823 104.418 52.719C104.684 52.551 104.896 52.3223 105.055 52.033C105.214 51.7437 105.293 51.417 105.293 51.053C105.293 50.731 105.214 50.4277 105.055 50.143C104.896 49.8537 104.684 49.6203 104.418 49.443C104.157 49.2657 103.865 49.177 103.543 49.177H101.016V52.964ZM101.016 48.162H103.109C103.538 48.162 103.905 48.036 104.208 47.784C104.516 47.5273 104.67 47.1703 104.67 46.713C104.67 46.2183 104.516 45.8497 104.208 45.607C103.905 45.3597 103.538 45.236 103.109 45.236H101.016V48.162ZM113.083 47H114.259V54H113.083L113.034 52.817C112.815 53.223 112.512 53.552 112.124 53.804C111.742 54.056 111.284 54.182 110.752 54.182C110.239 54.182 109.758 54.0863 109.31 53.895C108.862 53.699 108.466 53.4307 108.12 53.09C107.78 52.7447 107.514 52.348 107.322 51.9C107.131 51.452 107.035 50.969 107.035 50.451C107.035 49.9517 107.129 49.4803 107.315 49.037C107.502 48.5937 107.761 48.2063 108.092 47.875C108.428 47.539 108.816 47.2777 109.254 47.091C109.693 46.8997 110.164 46.804 110.668 46.804C111.219 46.804 111.702 46.9347 112.117 47.196C112.533 47.4527 112.869 47.7863 113.125 48.197L113.083 47ZM110.731 53.041C111.193 53.041 111.592 52.929 111.928 52.705C112.269 52.4763 112.53 52.1683 112.712 51.781C112.899 51.3937 112.992 50.9667 112.992 50.5C112.992 50.024 112.899 49.5947 112.712 49.212C112.526 48.8247 112.262 48.519 111.921 48.295C111.585 48.0663 111.189 47.952 110.731 47.952C110.269 47.952 109.849 48.0663 109.471 48.295C109.093 48.5237 108.792 48.8317 108.568 49.219C108.349 49.6017 108.239 50.0287 108.239 50.5C108.239 50.9713 108.354 51.4007 108.582 51.788C108.811 52.1707 109.114 52.4763 109.492 52.705C109.87 52.929 110.283 53.041 110.731 53.041ZM117.793 54.133C117.415 54.119 117.047 54.049 116.687 53.923C116.333 53.7923 116.02 53.6173 115.749 53.398C115.483 53.174 115.29 52.9173 115.168 52.628L116.176 52.194C116.246 52.3527 116.372 52.502 116.554 52.642C116.736 52.782 116.946 52.894 117.184 52.978C117.422 53.062 117.663 53.104 117.905 53.104C118.162 53.104 118.402 53.0643 118.626 52.985C118.85 52.9057 119.032 52.789 119.172 52.635C119.317 52.4763 119.389 52.2873 119.389 52.068C119.389 51.8347 119.31 51.6527 119.151 51.522C118.997 51.3867 118.801 51.2817 118.563 51.207C118.33 51.1277 118.092 51.053 117.849 50.983C117.369 50.8617 116.939 50.717 116.561 50.549C116.183 50.3763 115.885 50.1593 115.665 49.898C115.451 49.632 115.343 49.2937 115.343 48.883C115.343 48.449 115.462 48.0733 115.7 47.756C115.943 47.4387 116.26 47.1937 116.652 47.021C117.044 46.8483 117.464 46.762 117.912 46.762C118.477 46.762 118.993 46.8833 119.459 47.126C119.926 47.3687 120.274 47.6977 120.502 48.113L119.557 48.666C119.478 48.498 119.357 48.351 119.193 48.225C119.03 48.0943 118.843 47.9917 118.633 47.917C118.423 47.8423 118.209 47.8027 117.989 47.798C117.719 47.7887 117.464 47.8237 117.226 47.903C116.993 47.9823 116.804 48.1037 116.659 48.267C116.519 48.4257 116.449 48.624 116.449 48.862C116.449 49.0953 116.524 49.2727 116.673 49.394C116.827 49.5153 117.026 49.6133 117.268 49.688C117.516 49.758 117.784 49.8397 118.073 49.933C118.498 50.0683 118.895 50.2247 119.263 50.402C119.632 50.5793 119.928 50.801 120.152 51.067C120.381 51.333 120.493 51.662 120.488 52.054C120.488 52.4833 120.36 52.859 120.103 53.181C119.847 53.4983 119.513 53.741 119.102 53.909C118.696 54.077 118.26 54.1517 117.793 54.133ZM124.699 54.182C124.055 54.182 123.467 54.0163 122.935 53.685C122.408 53.3537 121.986 52.9103 121.668 52.355C121.356 51.795 121.199 51.1767 121.199 50.5C121.199 49.9867 121.29 49.5083 121.472 49.065C121.654 48.617 121.904 48.225 122.221 47.889C122.543 47.5483 122.917 47.2823 123.341 47.091C123.766 46.8997 124.219 46.804 124.699 46.804C125.227 46.804 125.71 46.9113 126.148 47.126C126.592 47.336 126.97 47.63 127.282 48.008C127.6 48.386 127.835 48.8247 127.989 49.324C128.148 49.8233 128.206 50.3577 128.164 50.927H122.452C122.508 51.3237 122.639 51.6783 122.844 51.991C123.05 52.299 123.311 52.544 123.628 52.726C123.95 52.908 124.307 53.0013 124.699 53.006C125.119 53.006 125.5 52.8987 125.84 52.684C126.181 52.4647 126.456 52.166 126.666 51.788L127.863 52.068C127.583 52.6887 127.161 53.1973 126.596 53.594C126.032 53.986 125.399 54.182 124.699 54.182ZM122.417 50.003H126.981C126.944 49.611 126.818 49.254 126.603 48.932C126.389 48.6053 126.116 48.344 125.784 48.148C125.453 47.952 125.091 47.854 124.699 47.854C124.307 47.854 123.948 47.9497 123.621 48.141C123.295 48.3323 123.024 48.5913 122.809 48.918C122.599 49.24 122.469 49.6017 122.417 50.003ZM134.938 43.5H136.114V54H134.938V52.81C134.7 53.2207 134.38 53.552 133.979 53.804C133.578 54.056 133.106 54.182 132.565 54.182C132.056 54.182 131.58 54.0863 131.137 53.895C130.694 53.7037 130.302 53.44 129.961 53.104C129.625 52.7633 129.361 52.3713 129.17 51.928C128.979 51.4847 128.883 51.0087 128.883 50.5C128.883 49.9913 128.979 49.5153 129.17 49.072C129.361 48.624 129.625 48.232 129.961 47.896C130.302 47.5553 130.694 47.2893 131.137 47.098C131.58 46.9067 132.056 46.811 132.565 46.811C133.106 46.811 133.578 46.937 133.979 47.189C134.38 47.441 134.7 47.7723 134.938 48.183V43.5ZM132.579 53.041C133.041 53.041 133.44 52.929 133.776 52.705C134.117 52.4763 134.378 52.1683 134.56 51.781C134.747 51.3937 134.84 50.9667 134.84 50.5C134.84 50.024 134.747 49.5947 134.56 49.212C134.373 48.8247 134.11 48.519 133.769 48.295C133.433 48.0663 133.036 47.952 132.579 47.952C132.117 47.952 131.697 48.0663 131.319 48.295C130.946 48.5237 130.647 48.8317 130.423 49.219C130.199 49.6017 130.087 50.0287 130.087 50.5C130.087 50.9713 130.201 51.4007 130.43 51.788C130.659 52.1707 130.962 52.4763 131.34 52.705C131.718 52.929 132.131 53.041 132.579 53.041ZM144.236 54.182C143.592 54.182 143.004 54.0163 142.472 53.685C141.945 53.3537 141.523 52.9103 141.205 52.355C140.893 51.795 140.736 51.1767 140.736 50.5C140.736 49.9867 140.827 49.5083 141.009 49.065C141.191 48.617 141.441 48.225 141.758 47.889C142.08 47.5483 142.454 47.2823 142.878 47.091C143.303 46.8997 143.756 46.804 144.236 46.804C144.88 46.804 145.466 46.9697 145.993 47.301C146.525 47.6323 146.948 48.078 147.26 48.638C147.578 49.198 147.736 49.8187 147.736 50.5C147.736 51.0087 147.645 51.4847 147.463 51.928C147.281 52.3713 147.029 52.7633 146.707 53.104C146.39 53.44 146.019 53.7037 145.594 53.895C145.174 54.0863 144.722 54.182 144.236 54.182ZM144.236 53.006C144.675 53.006 145.069 52.8917 145.419 52.663C145.774 52.4297 146.052 52.124 146.252 51.746C146.458 51.3633 146.56 50.948 146.56 50.5C146.56 50.0427 146.455 49.6227 146.245 49.24C146.04 48.8573 145.762 48.5517 145.412 48.323C145.062 48.0943 144.67 47.98 144.236 47.98C143.798 47.98 143.403 48.0967 143.053 48.33C142.703 48.5587 142.426 48.8643 142.22 49.247C142.015 49.6297 141.912 50.0473 141.912 50.5C141.912 50.9667 142.017 51.3913 142.227 51.774C142.437 52.152 142.72 52.453 143.074 52.677C143.429 52.8963 143.816 53.006 144.236 53.006ZM155.083 49.646V54H153.907V49.905C153.907 49.5503 153.82 49.2283 153.648 48.939C153.475 48.6497 153.244 48.421 152.955 48.253C152.665 48.0803 152.343 47.994 151.989 47.994C151.639 47.994 151.317 48.0803 151.023 48.253C150.733 48.421 150.502 48.6497 150.33 48.939C150.157 49.2283 150.071 49.5503 150.071 49.905V54H148.895V47H150.071V47.875C150.318 47.5483 150.631 47.2893 151.009 47.098C151.387 46.902 151.797 46.804 152.241 46.804C152.763 46.804 153.239 46.9323 153.669 47.189C154.103 47.441 154.446 47.7817 154.698 48.211C154.954 48.6403 155.083 49.1187 155.083 49.646ZM163.472 48.176H161.883L161.876 54H160.7L160.707 48.176H159.503V47H160.707L160.7 44.802H161.876L161.883 47H163.472V48.176ZM170.915 49.646V54H169.739V49.905C169.739 49.5503 169.652 49.2283 169.48 48.939C169.307 48.6497 169.076 48.421 168.787 48.253C168.497 48.0803 168.175 47.994 167.821 47.994C167.471 47.994 167.149 48.0803 166.855 48.253C166.565 48.421 166.334 48.6497 166.162 48.939C165.989 49.2283 165.903 49.5503 165.903 49.905V54H164.727V43.5H165.903V47.875C166.15 47.5483 166.463 47.2893 166.841 47.098C167.219 46.902 167.629 46.804 168.073 46.804C168.595 46.804 169.071 46.9323 169.501 47.189C169.935 47.441 170.278 47.7817 170.53 48.211C170.786 48.6403 170.915 49.1187 170.915 49.646ZM175.258 54.182C174.614 54.182 174.026 54.0163 173.494 53.685C172.967 53.3537 172.544 52.9103 172.227 52.355C171.914 51.795 171.758 51.1767 171.758 50.5C171.758 49.9867 171.849 49.5083 172.031 49.065C172.213 48.617 172.463 48.225 172.78 47.889C173.102 47.5483 173.475 47.2823 173.9 47.091C174.325 46.8997 174.777 46.804 175.258 46.804C175.785 46.804 176.268 46.9113 176.707 47.126C177.15 47.336 177.528 47.63 177.841 48.008C178.158 48.386 178.394 48.8247 178.548 49.324C178.707 49.8233 178.765 50.3577 178.723 50.927H173.011C173.067 51.3237 173.198 51.6783 173.403 51.991C173.608 52.299 173.87 52.544 174.187 52.726C174.509 52.908 174.866 53.0013 175.258 53.006C175.678 53.006 176.058 52.8987 176.399 52.684C176.74 52.4647 177.015 52.166 177.225 51.788L178.422 52.068C178.142 52.6887 177.72 53.1973 177.155 53.594C176.59 53.986 175.958 54.182 175.258 54.182ZM172.976 50.003H177.54C177.503 49.611 177.377 49.254 177.162 48.932C176.947 48.6053 176.674 48.344 176.343 48.148C176.012 47.952 175.65 47.854 175.258 47.854C174.866 47.854 174.507 47.9497 174.18 48.141C173.853 48.3323 173.583 48.5913 173.368 48.918C173.158 49.24 173.027 49.6017 172.976 50.003ZM185.496 54.133C185.118 54.119 184.75 54.049 184.39 53.923C184.036 53.7923 183.723 53.6173 183.452 53.398C183.186 53.174 182.993 52.9173 182.871 52.628L183.879 52.194C183.949 52.3527 184.075 52.502 184.257 52.642C184.439 52.782 184.649 52.894 184.887 52.978C185.125 53.062 185.366 53.104 185.608 53.104C185.865 53.104 186.105 53.0643 186.329 52.985C186.553 52.9057 186.735 52.789 186.875 52.635C187.02 52.4763 187.092 52.2873 187.092 52.068C187.092 51.8347 187.013 51.6527 186.854 51.522C186.7 51.3867 186.504 51.2817 186.266 51.207C186.033 51.1277 185.795 51.053 185.552 50.983C185.072 50.8617 184.642 50.717 184.264 50.549C183.886 50.3763 183.588 50.1593 183.368 49.898C183.154 49.632 183.046 49.2937 183.046 48.883C183.046 48.449 183.165 48.0733 183.403 47.756C183.646 47.4387 183.963 47.1937 184.355 47.021C184.747 46.8483 185.167 46.762 185.615 46.762C186.18 46.762 186.696 46.8833 187.162 47.126C187.629 47.3687 187.977 47.6977 188.205 48.113L187.26 48.666C187.181 48.498 187.06 48.351 186.896 48.225C186.733 48.0943 186.546 47.9917 186.336 47.917C186.126 47.8423 185.912 47.8027 185.692 47.798C185.422 47.7887 185.167 47.8237 184.929 47.903C184.696 47.9823 184.507 48.1037 184.362 48.267C184.222 48.4257 184.152 48.624 184.152 48.862C184.152 49.0953 184.227 49.2727 184.376 49.394C184.53 49.5153 184.729 49.6133 184.971 49.688C185.219 49.758 185.487 49.8397 185.776 49.933C186.201 50.0683 186.598 50.2247 186.966 50.402C187.335 50.5793 187.631 50.801 187.855 51.067C188.084 51.333 188.196 51.662 188.191 52.054C188.191 52.4833 188.063 52.859 187.806 53.181C187.55 53.4983 187.216 53.741 186.805 53.909C186.399 54.077 185.963 54.1517 185.496 54.133ZM194.95 47H196.126V54H194.95L194.901 52.817C194.682 53.223 194.379 53.552 193.991 53.804C193.609 54.056 193.151 54.182 192.619 54.182C192.106 54.182 191.625 54.0863 191.177 53.895C190.729 53.699 190.333 53.4307 189.987 53.09C189.647 52.7447 189.381 52.348 189.189 51.9C188.998 51.452 188.902 50.969 188.902 50.451C188.902 49.9517 188.996 49.4803 189.182 49.037C189.369 48.5937 189.628 48.2063 189.959 47.875C190.295 47.539 190.683 47.2777 191.121 47.091C191.56 46.8997 192.031 46.804 192.535 46.804C193.086 46.804 193.569 46.9347 193.984 47.196C194.4 47.4527 194.736 47.7863 194.992 48.197L194.95 47ZM192.598 53.041C193.06 53.041 193.459 52.929 193.795 52.705C194.136 52.4763 194.397 52.1683 194.579 51.781C194.766 51.3937 194.859 50.9667 194.859 50.5C194.859 50.024 194.766 49.5947 194.579 49.212C194.393 48.8247 194.129 48.519 193.788 48.295C193.452 48.0663 193.056 47.952 192.598 47.952C192.136 47.952 191.716 48.0663 191.338 48.295C190.96 48.5237 190.659 48.8317 190.435 49.219C190.216 49.6017 190.106 50.0287 190.106 50.5C190.106 50.9713 190.221 51.4007 190.449 51.788C190.678 52.1707 190.981 52.4763 191.359 52.705C191.737 52.929 192.15 53.041 192.598 53.041ZM197.608 54V43.5H198.784V54H197.608ZM203.477 54.182C202.833 54.182 202.245 54.0163 201.713 53.685C201.185 53.3537 200.763 52.9103 200.446 52.355C200.133 51.795 199.977 51.1767 199.977 50.5C199.977 49.9867 200.068 49.5083 200.25 49.065C200.432 48.617 200.681 48.225 200.999 47.889C201.321 47.5483 201.694 47.2823 202.119 47.091C202.543 46.8997 202.996 46.804 203.477 46.804C204.004 46.804 204.487 46.9113 204.926 47.126C205.369 47.336 205.747 47.63 206.06 48.008C206.377 48.386 206.613 48.8247 206.767 49.324C206.925 49.8233 206.984 50.3577 206.942 50.927H201.23C201.286 51.3237 201.416 51.6783 201.622 51.991C201.827 52.299 202.088 52.544 202.406 52.726C202.728 52.908 203.085 53.0013 203.477 53.006C203.897 53.006 204.277 52.8987 204.618 52.684C204.958 52.4647 205.234 52.166 205.444 51.788L206.641 52.068C206.361 52.6887 205.938 53.1973 205.374 53.594C204.809 53.986 204.177 54.182 203.477 54.182ZM201.195 50.003H205.759C205.721 49.611 205.595 49.254 205.381 48.932C205.166 48.6053 204.893 48.344 204.562 48.148C204.23 47.952 203.869 47.854 203.477 47.854C203.085 47.854 202.725 47.9497 202.399 48.141C202.072 48.3323 201.801 48.5913 201.587 48.918C201.377 49.24 201.246 49.6017 201.195 50.003ZM212.756 57.5H211.58V47H212.756V48.197C212.994 47.7863 213.312 47.455 213.708 47.203C214.105 46.9463 214.576 46.818 215.122 46.818C215.631 46.818 216.107 46.9137 216.55 47.105C216.998 47.2963 217.39 47.5623 217.726 47.903C218.062 48.239 218.326 48.6287 218.517 49.072C218.709 49.5153 218.804 49.9913 218.804 50.5C218.804 51.0087 218.709 51.487 218.517 51.935C218.326 52.383 218.062 52.7773 217.726 53.118C217.39 53.454 216.998 53.7177 216.55 53.909C216.107 54.1003 215.631 54.196 215.122 54.196C214.576 54.196 214.105 54.07 213.708 53.818C213.312 53.5613 212.994 53.2277 212.756 52.817V57.5ZM215.108 47.959C214.656 47.959 214.259 48.0733 213.918 48.302C213.578 48.5307 213.314 48.8363 213.127 49.219C212.945 49.6017 212.854 50.0287 212.854 50.5C212.854 50.9667 212.945 51.3937 213.127 51.781C213.314 52.1683 213.575 52.4763 213.911 52.705C214.252 52.9337 214.651 53.048 215.108 53.048C215.561 53.048 215.976 52.936 216.354 52.712C216.732 52.4833 217.036 52.1777 217.264 51.795C217.493 51.4077 217.607 50.976 217.607 50.5C217.607 50.0333 217.495 49.6087 217.271 49.226C217.047 48.8387 216.746 48.5307 216.368 48.302C215.99 48.0733 215.57 47.959 215.108 47.959ZM219.975 54V47H221.151V47.875C221.398 47.5483 221.711 47.2893 222.089 47.098C222.467 46.902 222.877 46.804 223.321 46.804C223.591 46.804 223.853 46.839 224.105 46.909L223.629 48.085C223.437 48.0243 223.251 47.994 223.069 47.994C222.719 47.994 222.397 48.0803 222.103 48.253C221.813 48.421 221.582 48.6497 221.41 48.939C221.237 49.2283 221.151 49.5503 221.151 49.905V54H219.975ZM224.965 47H226.141V54H224.965V47ZM225.567 45.859C225.38 45.859 225.224 45.7983 225.098 45.677C224.972 45.5557 224.909 45.404 224.909 45.222C224.909 45.04 224.972 44.8883 225.098 44.767C225.224 44.6457 225.378 44.585 225.56 44.585C225.742 44.585 225.896 44.6457 226.022 44.767C226.148 44.8883 226.211 45.04 226.211 45.222C226.211 45.404 226.148 45.5557 226.022 45.677C225.901 45.7983 225.749 45.859 225.567 45.859ZM232.55 52.152L233.6 52.719C233.282 53.1623 232.879 53.517 232.389 53.783C231.903 54.049 231.376 54.182 230.807 54.182C230.163 54.182 229.575 54.0163 229.043 53.685C228.515 53.3537 228.093 52.9103 227.776 52.355C227.463 51.795 227.307 51.1767 227.307 50.5C227.307 49.9867 227.398 49.5083 227.58 49.065C227.762 48.617 228.011 48.225 228.329 47.889C228.651 47.5483 229.024 47.2823 229.449 47.091C229.873 46.8997 230.326 46.804 230.807 46.804C231.376 46.804 231.903 46.937 232.389 47.203C232.879 47.469 233.282 47.826 233.6 48.274L232.55 48.841C232.326 48.5657 232.06 48.3533 231.752 48.204C231.444 48.0547 231.129 47.98 230.807 47.98C230.373 47.98 229.978 48.0967 229.624 48.33C229.274 48.5587 228.996 48.8643 228.791 49.247C228.585 49.6297 228.483 50.0473 228.483 50.5C228.483 50.9527 228.585 51.3703 228.791 51.753C229.001 52.131 229.281 52.4343 229.631 52.663C229.985 52.8917 230.377 53.006 230.807 53.006C231.152 53.006 231.476 52.9267 231.78 52.768C232.083 52.6093 232.34 52.404 232.55 52.152ZM237.82 54.182C237.176 54.182 236.588 54.0163 236.056 53.685C235.529 53.3537 235.107 52.9103 234.789 52.355C234.477 51.795 234.32 51.1767 234.32 50.5C234.32 49.9867 234.411 49.5083 234.593 49.065C234.775 48.617 235.025 48.225 235.342 47.889C235.664 47.5483 236.038 47.2823 236.462 47.091C236.887 46.8997 237.34 46.804 237.82 46.804C238.348 46.804 238.831 46.9113 239.269 47.126C239.713 47.336 240.091 47.63 240.403 48.008C240.721 48.386 240.956 48.8247 241.11 49.324C241.269 49.8233 241.327 50.3577 241.285 50.927H235.573C235.629 51.3237 235.76 51.6783 235.965 51.991C236.171 52.299 236.432 52.544 236.749 52.726C237.071 52.908 237.428 53.0013 237.82 53.006C238.24 53.006 238.621 52.8987 238.961 52.684C239.302 52.4647 239.577 52.166 239.787 51.788L240.984 52.068C240.704 52.6887 240.282 53.1973 239.717 53.594C239.153 53.986 238.52 54.182 237.82 54.182ZM235.538 50.003H240.102C240.065 49.611 239.939 49.254 239.724 48.932C239.51 48.6053 239.237 48.344 238.905 48.148C238.574 47.952 238.212 47.854 237.82 47.854C237.428 47.854 237.069 47.9497 236.742 48.141C236.416 48.3323 236.145 48.5913 235.93 48.918C235.72 49.24 235.59 49.6017 235.538 50.003ZM251.552 47H252.728V54H251.552L251.503 52.817C251.284 53.223 250.98 53.552 250.593 53.804C250.21 54.056 249.753 54.182 249.221 54.182C248.708 54.182 248.227 54.0863 247.779 53.895C247.331 53.699 246.934 53.4307 246.589 53.09C246.248 52.7447 245.982 52.348 245.791 51.9C245.6 51.452 245.504 50.969 245.504 50.451C245.504 49.9517 245.597 49.4803 245.784 49.037C245.971 48.5937 246.23 48.2063 246.561 47.875C246.897 47.539 247.284 47.2777 247.723 47.091C248.162 46.8997 248.633 46.804 249.137 46.804C249.688 46.804 250.171 46.9347 250.586 47.196C251.001 47.4527 251.337 47.7863 251.594 48.197L251.552 47ZM249.2 53.041C249.662 53.041 250.061 52.929 250.397 52.705C250.738 52.4763 250.999 52.1683 251.181 51.781C251.368 51.3937 251.461 50.9667 251.461 50.5C251.461 50.024 251.368 49.5947 251.181 49.212C250.994 48.8247 250.731 48.519 250.39 48.295C250.054 48.0663 249.657 47.952 249.2 47.952C248.738 47.952 248.318 48.0663 247.94 48.295C247.562 48.5237 247.261 48.8317 247.037 49.219C246.818 49.6017 246.708 50.0287 246.708 50.5C246.708 50.9713 246.822 51.4007 247.051 51.788C247.28 52.1707 247.583 52.4763 247.961 52.705C248.339 52.929 248.752 53.041 249.2 53.041ZM260.315 49.646V54H259.139V49.905C259.139 49.5503 259.053 49.2283 258.88 48.939C258.707 48.6497 258.476 48.421 258.187 48.253C257.898 48.0803 257.576 47.994 257.221 47.994C256.871 47.994 256.549 48.0803 256.255 48.253C255.966 48.421 255.735 48.6497 255.562 48.939C255.389 49.2283 255.303 49.5503 255.303 49.905V54H254.127V47H255.303V47.875C255.55 47.5483 255.863 47.2893 256.241 47.098C256.619 46.902 257.03 46.804 257.473 46.804C257.996 46.804 258.472 46.9323 258.901 47.189C259.335 47.441 259.678 47.7817 259.93 48.211C260.187 48.6403 260.315 49.1187 260.315 49.646ZM267.213 43.5H268.389V54H267.213V52.81C266.975 53.2207 266.656 53.552 266.254 53.804C265.853 54.056 265.382 54.182 264.84 54.182C264.332 54.182 263.856 54.0863 263.412 53.895C262.969 53.7037 262.577 53.44 262.236 53.104C261.9 52.7633 261.637 52.3713 261.445 51.928C261.254 51.4847 261.158 51.0087 261.158 50.5C261.158 49.9913 261.254 49.5153 261.445 49.072C261.637 48.624 261.9 48.232 262.236 47.896C262.577 47.5553 262.969 47.2893 263.412 47.098C263.856 46.9067 264.332 46.811 264.84 46.811C265.382 46.811 265.853 46.937 266.254 47.189C266.656 47.441 266.975 47.7723 267.213 48.183V43.5ZM264.854 53.041C265.316 53.041 265.715 52.929 266.051 52.705C266.392 52.4763 266.653 52.1683 266.835 51.781C267.022 51.3937 267.115 50.9667 267.115 50.5C267.115 50.024 267.022 49.5947 266.835 49.212C266.649 48.8247 266.385 48.519 266.044 48.295C265.708 48.0663 265.312 47.952 264.854 47.952C264.392 47.952 263.972 48.0663 263.594 48.295C263.221 48.5237 262.922 48.8317 262.698 49.219C262.474 49.6017 262.362 50.0287 262.362 50.5C262.362 50.9713 262.477 51.4007 262.705 51.788C262.934 52.1707 263.237 52.4763 263.615 52.705C263.993 52.929 264.406 53.041 264.854 53.041ZM273.432 54V43.5H274.608V54H273.432ZM279.301 54.182C278.657 54.182 278.069 54.0163 277.537 53.685C277.01 53.3537 276.587 52.9103 276.27 52.355C275.957 51.795 275.801 51.1767 275.801 50.5C275.801 49.9867 275.892 49.5083 276.074 49.065C276.256 48.617 276.506 48.225 276.823 47.889C277.145 47.5483 277.518 47.2823 277.943 47.091C278.368 46.8997 278.82 46.804 279.301 46.804C279.945 46.804 280.531 46.9697 281.058 47.301C281.59 47.6323 282.012 48.078 282.325 48.638C282.642 49.198 282.801 49.8187 282.801 50.5C282.801 51.0087 282.71 51.4847 282.528 51.928C282.346 52.3713 282.094 52.7633 281.772 53.104C281.455 53.44 281.084 53.7037 280.659 53.895C280.239 54.0863 279.786 54.182 279.301 54.182ZM279.301 53.006C279.74 53.006 280.134 52.8917 280.484 52.663C280.839 52.4297 281.116 52.124 281.317 51.746C281.522 51.3633 281.625 50.948 281.625 50.5C281.625 50.0427 281.52 49.6227 281.31 49.24C281.105 48.8573 280.827 48.5517 280.477 48.323C280.127 48.0943 279.735 47.98 279.301 47.98C278.862 47.98 278.468 48.0967 278.118 48.33C277.768 48.5587 277.49 48.8643 277.285 49.247C277.08 49.6297 276.977 50.0473 276.977 50.5C276.977 50.9667 277.082 51.3913 277.292 51.774C277.502 52.152 277.784 52.453 278.139 52.677C278.494 52.8963 278.881 53.006 279.301 53.006ZM288.741 52.152L289.791 52.719C289.474 53.1623 289.07 53.517 288.58 53.783C288.095 54.049 287.567 54.182 286.998 54.182C286.354 54.182 285.766 54.0163 285.234 53.685C284.707 53.3537 284.284 52.9103 283.967 52.355C283.654 51.795 283.498 51.1767 283.498 50.5C283.498 49.9867 283.589 49.5083 283.771 49.065C283.953 48.617 284.203 48.225 284.52 47.889C284.842 47.5483 285.215 47.2823 285.64 47.091C286.065 46.8997 286.517 46.804 286.998 46.804C287.567 46.804 288.095 46.937 288.58 47.203C289.07 47.469 289.474 47.826 289.791 48.274L288.741 48.841C288.517 48.5657 288.251 48.3533 287.943 48.204C287.635 48.0547 287.32 47.98 286.998 47.98C286.564 47.98 286.17 48.0967 285.815 48.33C285.465 48.5587 285.187 48.8643 284.982 49.247C284.777 49.6297 284.674 50.0473 284.674 50.5C284.674 50.9527 284.777 51.3703 284.982 51.753C285.192 52.131 285.472 52.4343 285.822 52.663C286.177 52.8917 286.569 53.006 286.998 53.006C287.343 53.006 287.668 52.9267 287.971 52.768C288.274 52.6093 288.531 52.404 288.741 52.152ZM296.56 47H297.736V54H296.56L296.511 52.817C296.291 53.223 295.988 53.552 295.601 53.804C295.218 54.056 294.761 54.182 294.229 54.182C293.715 54.182 293.235 54.0863 292.787 53.895C292.339 53.699 291.942 53.4307 291.597 53.09C291.256 52.7447 290.99 52.348 290.799 51.9C290.607 51.452 290.512 50.969 290.512 50.451C290.512 49.9517 290.605 49.4803 290.792 49.037C290.978 48.5937 291.237 48.2063 291.569 47.875C291.905 47.539 292.292 47.2777 292.731 47.091C293.169 46.8997 293.641 46.804 294.145 46.804C294.695 46.804 295.178 46.9347 295.594 47.196C296.009 47.4527 296.345 47.7863 296.602 48.197L296.56 47ZM294.208 53.041C294.67 53.041 295.069 52.929 295.405 52.705C295.745 52.4763 296.007 52.1683 296.189 51.781C296.375 51.3937 296.469 50.9667 296.469 50.5C296.469 50.024 296.375 49.5947 296.189 49.212C296.002 48.8247 295.738 48.519 295.398 48.295C295.062 48.0663 294.665 47.952 294.208 47.952C293.746 47.952 293.326 48.0663 292.948 48.295C292.57 48.5237 292.269 48.8317 292.045 49.219C291.825 49.6017 291.716 50.0287 291.716 50.5C291.716 50.9713 291.83 51.4007 292.059 51.788C292.287 52.1707 292.591 52.4763 292.969 52.705C293.347 52.929 293.76 53.041 294.208 53.041ZM299.217 54V43.5H300.393V54H299.217ZM305.438 54V47H306.614V47.875C306.861 47.5483 307.174 47.2893 307.552 47.098C307.93 46.902 308.34 46.804 308.784 46.804C309.054 46.804 309.316 46.839 309.568 46.909L309.092 48.085C308.9 48.0243 308.714 47.994 308.532 47.994C308.182 47.994 307.86 48.0803 307.566 48.253C307.276 48.421 307.045 48.6497 306.873 48.939C306.7 49.2283 306.614 49.5503 306.614 49.905V54H305.438ZM313.152 54.182C312.508 54.182 311.92 54.0163 311.388 53.685C310.861 53.3537 310.439 52.9103 310.121 52.355C309.809 51.795 309.652 51.1767 309.652 50.5C309.652 49.9867 309.743 49.5083 309.925 49.065C310.107 48.617 310.357 48.225 310.674 47.889C310.996 47.5483 311.37 47.2823 311.794 47.091C312.219 46.8997 312.672 46.804 313.152 46.804C313.68 46.804 314.163 46.9113 314.601 47.126C315.045 47.336 315.423 47.63 315.735 48.008C316.053 48.386 316.288 48.8247 316.442 49.324C316.601 49.8233 316.659 50.3577 316.617 50.927H310.905C310.961 51.3237 311.092 51.6783 311.297 51.991C311.503 52.299 311.764 52.544 312.081 52.726C312.403 52.908 312.76 53.0013 313.152 53.006C313.572 53.006 313.953 52.8987 314.293 52.684C314.634 52.4647 314.909 52.166 315.119 51.788L316.316 52.068C316.036 52.6887 315.614 53.1973 315.049 53.594C314.485 53.986 313.852 54.182 313.152 54.182ZM310.87 50.003H315.434C315.397 49.611 315.271 49.254 315.056 48.932C314.842 48.6053 314.569 48.344 314.237 48.148C313.906 47.952 313.544 47.854 313.152 47.854C312.76 47.854 312.401 47.9497 312.074 48.141C311.748 48.3323 311.477 48.5913 311.262 48.918C311.052 49.24 310.922 49.6017 310.87 50.003ZM323.223 47H324.399V54.224C324.399 54.686 324.299 55.1153 324.098 55.512C323.902 55.9133 323.636 56.261 323.3 56.555C322.964 56.8537 322.581 57.0847 322.152 57.248C321.723 57.416 321.275 57.5 320.808 57.5C320.323 57.5 319.854 57.3903 319.401 57.171C318.948 56.9563 318.552 56.667 318.211 56.303C317.875 55.9437 317.632 55.54 317.483 55.092L318.561 54.602C318.65 54.924 318.808 55.2133 319.037 55.47C319.27 55.7313 319.541 55.9367 319.849 56.086C320.162 56.24 320.481 56.317 320.808 56.317C321.116 56.317 321.412 56.2633 321.697 56.156C321.986 56.0487 322.245 55.8993 322.474 55.708C322.707 55.5213 322.889 55.2997 323.02 55.043C323.155 54.791 323.223 54.518 323.223 54.224V52.831C322.985 53.2323 322.67 53.559 322.278 53.811C321.891 54.0583 321.438 54.182 320.92 54.182C320.425 54.182 319.961 54.0863 319.527 53.895C319.093 53.7037 318.713 53.44 318.386 53.104C318.059 52.7633 317.803 52.3713 317.616 51.928C317.429 51.4847 317.336 51.0087 317.336 50.5C317.336 49.9913 317.429 49.5153 317.616 49.072C317.803 48.624 318.059 48.232 318.386 47.896C318.713 47.5553 319.093 47.2893 319.527 47.098C319.961 46.9067 320.425 46.811 320.92 46.811C321.438 46.811 321.891 46.9347 322.278 47.182C322.67 47.4293 322.985 47.756 323.223 48.162V47ZM320.927 53.041C321.38 53.041 321.772 52.9243 322.103 52.691C322.439 52.4577 322.698 52.1473 322.88 51.76C323.062 51.3727 323.153 50.9527 323.153 50.5C323.153 50.0333 323.06 49.6087 322.873 49.226C322.691 48.8387 322.432 48.5307 322.096 48.302C321.765 48.0687 321.375 47.952 320.927 47.952C320.488 47.952 320.087 48.0663 319.723 48.295C319.359 48.5237 319.07 48.8317 318.855 49.219C318.645 49.6017 318.54 50.0287 318.54 50.5C318.54 50.9713 318.647 51.4007 318.862 51.788C319.081 52.1707 319.371 52.4763 319.73 52.705C320.094 52.929 320.493 53.041 320.927 53.041ZM325.679 51.34V47H326.855V51.081C326.855 51.4357 326.941 51.7577 327.114 52.047C327.287 52.3363 327.518 52.5673 327.807 52.74C328.101 52.908 328.423 52.992 328.773 52.992C329.128 52.992 329.447 52.908 329.732 52.74C330.021 52.5673 330.252 52.3363 330.425 52.047C330.598 51.7577 330.684 51.4357 330.684 51.081V47H331.86L331.867 54H330.691L330.684 53.111C330.437 53.4377 330.124 53.699 329.746 53.895C329.368 54.0863 328.96 54.182 328.521 54.182C327.998 54.182 327.52 54.056 327.086 53.804C326.657 53.5473 326.314 53.2043 326.057 52.775C325.805 52.3457 325.679 51.8673 325.679 51.34ZM333.356 54V43.5H334.532V54H333.356ZM341.773 47H342.949V54H341.773L341.724 52.817C341.504 53.223 341.201 53.552 340.814 53.804C340.431 54.056 339.974 54.182 339.442 54.182C338.928 54.182 338.448 54.0863 338 53.895C337.552 53.699 337.155 53.4307 336.81 53.09C336.469 52.7447 336.203 52.348 336.012 51.9C335.82 51.452 335.725 50.969 335.725 50.451C335.725 49.9517 335.818 49.4803 336.005 49.037C336.191 48.5937 336.45 48.2063 336.782 47.875C337.118 47.539 337.505 47.2777 337.944 47.091C338.382 46.8997 338.854 46.804 339.358 46.804C339.908 46.804 340.391 46.9347 340.807 47.196C341.222 47.4527 341.558 47.7863 341.815 48.197L341.773 47ZM339.421 53.041C339.883 53.041 340.282 52.929 340.618 52.705C340.958 52.4763 341.22 52.1683 341.402 51.781C341.588 51.3937 341.682 50.9667 341.682 50.5C341.682 50.024 341.588 49.5947 341.402 49.212C341.215 48.8247 340.951 48.519 340.611 48.295C340.275 48.0663 339.878 47.952 339.421 47.952C338.959 47.952 338.539 48.0663 338.161 48.295C337.783 48.5237 337.482 48.8317 337.258 49.219C337.038 49.6017 336.929 50.0287 336.929 50.5C336.929 50.9713 337.043 51.4007 337.272 51.788C337.5 52.1707 337.804 52.4763 338.182 52.705C338.56 52.929 338.973 53.041 339.421 53.041ZM347.974 48.176H346.385L346.378 54H345.202L345.209 48.176H344.005V47H345.209L345.202 44.802H346.378L346.385 47H347.974V48.176ZM349.16 47H350.336V54H349.16V47ZM349.762 45.859C349.576 45.859 349.419 45.7983 349.293 45.677C349.167 45.5557 349.104 45.404 349.104 45.222C349.104 45.04 349.167 44.8883 349.293 44.767C349.419 44.6457 349.573 44.585 349.755 44.585C349.937 44.585 350.091 44.6457 350.217 44.767C350.343 44.8883 350.406 45.04 350.406 45.222C350.406 45.404 350.343 45.5557 350.217 45.677C350.096 45.7983 349.944 45.859 349.762 45.859ZM355.002 54.182C354.358 54.182 353.77 54.0163 353.238 53.685C352.711 53.3537 352.288 52.9103 351.971 52.355C351.658 51.795 351.502 51.1767 351.502 50.5C351.502 49.9867 351.593 49.5083 351.775 49.065C351.957 48.617 352.207 48.225 352.524 47.889C352.846 47.5483 353.219 47.2823 353.644 47.091C354.069 46.8997 354.521 46.804 355.002 46.804C355.646 46.804 356.232 46.9697 356.759 47.301C357.291 47.6323 357.713 48.078 358.026 48.638C358.343 49.198 358.502 49.8187 358.502 50.5C358.502 51.0087 358.411 51.4847 358.229 51.928C358.047 52.3713 357.795 52.7633 357.473 53.104C357.156 53.44 356.785 53.7037 356.36 53.895C355.94 54.0863 355.487 54.182 355.002 54.182ZM355.002 53.006C355.441 53.006 355.835 52.8917 356.185 52.663C356.54 52.4297 356.817 52.124 357.018 51.746C357.223 51.3633 357.326 50.948 357.326 50.5C357.326 50.0427 357.221 49.6227 357.011 49.24C356.806 48.8573 356.528 48.5517 356.178 48.323C355.828 48.0943 355.436 47.98 355.002 47.98C354.563 47.98 354.169 48.0967 353.819 48.33C353.469 48.5587 353.191 48.8643 352.986 49.247C352.781 49.6297 352.678 50.0473 352.678 50.5C352.678 50.9667 352.783 51.3913 352.993 51.774C353.203 52.152 353.485 52.453 353.84 52.677C354.195 52.8963 354.582 53.006 355.002 53.006ZM365.848 49.646V54H364.672V49.905C364.672 49.5503 364.586 49.2283 364.413 48.939C364.241 48.6497 364.01 48.421 363.72 48.253C363.431 48.0803 363.109 47.994 362.754 47.994C362.404 47.994 362.082 48.0803 361.788 48.253C361.499 48.421 361.268 48.6497 361.095 48.939C360.923 49.2283 360.836 49.5503 360.836 49.905V54H359.66V47H360.836V47.875C361.084 47.5483 361.396 47.2893 361.774 47.098C362.152 46.902 362.563 46.804 363.006 46.804C363.529 46.804 364.005 46.9323 364.434 47.189C364.868 47.441 365.211 47.7817 365.463 48.211C365.72 48.6403 365.848 49.1187 365.848 49.646ZM369.383 54.133C369.005 54.119 368.637 54.049 368.277 53.923C367.923 53.7923 367.61 53.6173 367.339 53.398C367.073 53.174 366.88 52.9173 366.758 52.628L367.766 52.194C367.836 52.3527 367.962 52.502 368.144 52.642C368.326 52.782 368.536 52.894 368.774 52.978C369.012 53.062 369.253 53.104 369.495 53.104C369.752 53.104 369.992 53.0643 370.216 52.985C370.44 52.9057 370.622 52.789 370.762 52.635C370.907 52.4763 370.979 52.2873 370.979 52.068C370.979 51.8347 370.9 51.6527 370.741 51.522C370.587 51.3867 370.391 51.2817 370.153 51.207C369.92 51.1277 369.682 51.053 369.439 50.983C368.959 50.8617 368.529 50.717 368.151 50.549C367.773 50.3763 367.475 50.1593 367.255 49.898C367.041 49.632 366.933 49.2937 366.933 48.883C366.933 48.449 367.052 48.0733 367.29 47.756C367.533 47.4387 367.85 47.1937 368.242 47.021C368.634 46.8483 369.054 46.762 369.502 46.762C370.067 46.762 370.583 46.8833 371.049 47.126C371.516 47.3687 371.864 47.6977 372.092 48.113L371.147 48.666C371.068 48.498 370.947 48.351 370.783 48.225C370.62 48.0943 370.433 47.9917 370.223 47.917C370.013 47.8423 369.799 47.8027 369.579 47.798C369.309 47.7887 369.054 47.8237 368.816 47.903C368.583 47.9823 368.394 48.1037 368.249 48.267C368.109 48.4257 368.039 48.624 368.039 48.862C368.039 49.0953 368.114 49.2727 368.263 49.394C368.417 49.5153 368.616 49.6133 368.858 49.688C369.106 49.758 369.374 49.8397 369.663 49.933C370.088 50.0683 370.485 50.2247 370.853 50.402C371.222 50.5793 371.518 50.801 371.742 51.067C371.971 51.333 372.083 51.662 372.078 52.054C372.078 52.4833 371.95 52.859 371.693 53.181C371.437 53.4983 371.103 53.741 370.692 53.909C370.286 54.077 369.85 54.1517 369.383 54.133Z" fill="#999999"></path></g><defs><clipPath id="clip0_166_1035"><rect width="462.5" height="66" fill="white"></rect></clipPath></defs></svg>