<svg xmlns="http://www.w3.org/2000/svg" width="170" height="59" viewBox="0 0 170 59" fill="none"><g clip-path="url(#clip0_166_840)"><g clip-path="url(#clip1_166_840)"><path d="M0.837286 3.76614C0.612648 4.0303 0.387352 4.29381 0.167984 4.55138C-0.262846 4.1166 -0.63834 3.73847 -1 3.37418C-0.083004 2.45586 0.852437 1.51976 1.77602 0.59552C2.70026 1.52174 3.63505 2.45784 4.55072 3.37549C4.19302 3.7332 3.81489 4.11067 3.40382 4.52174C3.16601 4.25626 2.91041 3.97101 2.59025 3.61462V7.40448C4.31555 5.67655 6.08234 3.90843 7.8386 2.14954C7.37549 2.14954 6.85112 2.11726 6.33333 2.15942C5.88472 2.19565 5.57115 2.04809 5.27866 1.71739C4.92358 1.3162 4.51976 0.957839 4.08235 0.527667C4.24769 0.515151 4.33794 0.502634 4.42885 0.502634C8.82148 0.501976 13.2141 0.499999 17.6067 0.502634C19.0086 0.503293 20.0079 1.48024 20.0099 2.87352C20.0171 7.2892 20.0125 11.7042 20.0125 16.1199C20.0125 16.1812 20.0059 16.2431 19.9209 16.363C19.5231 15.9466 19.143 15.5112 18.72 15.1219C18.4453 14.8689 18.3347 14.6054 18.357 14.2339C18.3887 13.7141 18.365 13.191 18.365 12.6746C16.6008 14.4407 14.8544 16.1884 13.112 17.9328H16.9091C16.554 17.643 16.2615 17.4045 15.9743 17.17C16.4453 16.7167 16.8287 16.3478 17.2016 15.9881C18.0837 16.8801 19.0152 17.8215 19.9401 18.7563C19.0441 19.6456 18.1047 20.5784 17.1752 21.5007C16.8261 21.1449 16.4545 20.7668 16.0586 20.3636C16.2813 20.1673 16.5349 19.9433 16.7885 19.7194C16.7727 19.6805 16.7569 19.6416 16.7404 19.6034H16.3775C12.0507 19.6034 7.72398 19.6047 3.39723 19.6028C2.21278 19.6028 1.35903 19.0283 1.03294 17.9835C0.943346 17.6963 0.917655 17.3801 0.916996 17.0764C0.90975 12.7708 0.912385 8.46509 0.912385 4.15942C0.912385 4.04348 0.912385 3.92688 0.912385 3.81094C0.886693 3.79578 0.861001 3.78129 0.83531 3.76614H0.837286ZM2.56258 16.6831C7.40975 11.8353 12.249 6.99473 17.0935 2.14954C16.4032 2.14954 15.6937 2.14361 14.9842 2.15678C14.8933 2.15876 14.7879 2.24177 14.7154 2.31423C10.7167 6.30896 6.72003 10.3063 2.72596 14.3063C2.65415 14.3788 2.57115 14.4842 2.56917 14.5751C2.55599 15.2839 2.56192 15.9928 2.56192 16.6825L2.56258 16.6831ZM18.365 3.45784C13.5296 8.29183 8.69499 13.1258 3.86693 17.9526C4.52569 17.9526 5.22464 17.9585 5.92358 17.9453C6.01449 17.9433 6.11858 17.857 6.19104 17.7839C10.1963 13.7826 14.1996 9.77866 18.1996 5.77273C18.2721 5.70026 18.3557 5.59486 18.357 5.50395C18.3702 4.80567 18.3643 4.10672 18.3643 3.45784H18.365ZM18.365 8.08762C15.0758 11.3742 11.7833 14.664 8.49144 17.9526C9.15876 17.9526 9.85705 17.9585 10.556 17.9453C10.6462 17.9433 10.749 17.8531 10.8221 17.78C13.2846 15.3221 15.7444 12.8617 18.2016 10.3986C18.2734 10.3261 18.3557 10.22 18.3577 10.1285C18.3709 9.42951 18.365 8.73057 18.365 8.08696V8.08762ZM2.56258 12.0231C5.861 8.72595 9.14624 5.44137 12.4387 2.14954C11.7793 2.14954 11.1028 2.14361 10.4262 2.15613C10.334 2.1581 10.2266 2.23518 10.1548 2.30632C7.67589 4.77997 5.20026 7.25626 2.72727 9.73518C2.65547 9.80764 2.5718 9.91238 2.56983 10.004C2.55665 10.6818 2.56258 11.3597 2.56258 12.0231Z" fill="#999999"></path></g></g><path d="M28.123 5.2H29.544L33.107 15H31.861L31.133 12.998H26.534L25.813 15H24.56L28.123 5.2ZM26.968 11.822H30.699L28.83 6.705L26.968 11.822ZM34.3146 15V8H35.4906V8.875C35.7379 8.54833 36.0506 8.28933 36.4286 8.098C36.8066 7.902 37.2173 7.804 37.6606 7.804C37.9313 7.804 38.1926 7.839 38.4446 7.909L37.9686 9.085C37.7773 9.02433 37.5906 8.994 37.4086 8.994C37.0586 8.994 36.7366 9.08033 36.4426 9.253C36.1533 9.421 35.9223 9.64967 35.7496 9.939C35.5769 10.2283 35.4906 10.5503 35.4906 10.905V15H34.3146ZM42.0294 15.182C41.3854 15.182 40.7974 15.0163 40.2654 14.685C39.738 14.3537 39.3157 13.9103 38.9984 13.355C38.6857 12.795 38.5294 12.1767 38.5294 11.5C38.5294 10.9867 38.6204 10.5083 38.8024 10.065C38.9844 9.617 39.234 9.225 39.5514 8.889C39.8734 8.54833 40.2467 8.28233 40.6714 8.091C41.096 7.89967 41.5487 7.804 42.0294 7.804C42.5567 7.804 43.0397 7.91133 43.4784 8.126C43.9217 8.336 44.2997 8.63 44.6124 9.008C44.9297 9.386 45.1654 9.82467 45.3194 10.324C45.478 10.8233 45.5364 11.3577 45.4944 11.927H39.7824C39.8384 12.3237 39.969 12.6783 40.1744 12.991C40.3797 13.299 40.641 13.544 40.9584 13.726C41.2804 13.908 41.6374 14.0013 42.0294 14.006C42.4494 14.006 42.8297 13.8987 43.1704 13.684C43.511 13.4647 43.7864 13.166 43.9964 12.788L45.1934 13.068C44.9134 13.6887 44.491 14.1973 43.9264 14.594C43.3617 14.986 42.7294 15.182 42.0294 15.182ZM39.7474 11.003H44.3114C44.274 10.611 44.148 10.254 43.9334 9.932C43.7187 9.60533 43.4457 9.344 43.1144 9.148C42.783 8.952 42.4214 8.854 42.0294 8.854C41.6374 8.854 41.278 8.94967 40.9514 9.141C40.6247 9.33233 40.354 9.59133 40.1394 9.918C39.9294 10.24 39.7987 10.6017 39.7474 11.003ZM52.261 8H53.437V15H52.261L52.212 13.817C51.9926 14.223 51.6893 14.552 51.302 14.804C50.9193 15.056 50.462 15.182 49.93 15.182C49.4166 15.182 48.936 15.0863 48.488 14.895C48.04 14.699 47.6433 14.4307 47.298 14.09C46.9573 13.7447 46.6913 13.348 46.5 12.9C46.3086 12.452 46.213 11.969 46.213 11.451C46.213 10.9517 46.3063 10.4803 46.493 10.037C46.6796 9.59367 46.9386 9.20633 47.27 8.875C47.606 8.539 47.9933 8.27767 48.432 8.091C48.8706 7.89967 49.342 7.804 49.846 7.804C50.3966 7.804 50.8796 7.93467 51.295 8.196C51.7103 8.45267 52.0463 8.78633 52.303 9.197L52.261 8ZM49.909 14.041C50.371 14.041 50.77 13.929 51.106 13.705C51.4466 13.4763 51.708 13.1683 51.89 12.781C52.0766 12.3937 52.17 11.9667 52.17 11.5C52.17 11.024 52.0766 10.5947 51.89 10.212C51.7033 9.82467 51.4396 9.519 51.099 9.295C50.763 9.06633 50.3663 8.952 49.909 8.952C49.447 8.952 49.027 9.06633 48.649 9.295C48.271 9.52367 47.97 9.83167 47.746 10.219C47.5266 10.6017 47.417 11.0287 47.417 11.5C47.417 11.9713 47.5313 12.4007 47.76 12.788C47.9886 13.1707 48.292 13.4763 48.67 13.705C49.048 13.929 49.461 14.041 49.909 14.041Z" fill="#999999"></path><path d="M0.8 51V49.15C1.27333 48.7567 1.81667 48.3 2.43 47.78C3.04333 47.2533 3.66667 46.6967 4.3 46.11C4.93333 45.5167 5.51667 44.9267 6.05 44.34C6.58333 43.7467 7.01333 43.1867 7.34 42.66C7.67333 42.1267 7.84 41.6633 7.84 41.27C7.84 40.8233 7.73 40.4167 7.51 40.05C7.29667 39.6767 7.00667 39.38 6.64 39.16C6.27333 38.9333 5.86667 38.82 5.42 38.82C4.97333 38.82 4.56333 38.9333 4.19 39.16C3.82333 39.38 3.52667 39.6767 3.3 40.05C3.08 40.4167 2.97 40.8233 2.97 41.27H0.89C0.89 40.4233 1.09667 39.66 1.51 38.98C1.93 38.2933 2.48 37.75 3.16 37.35C3.84667 36.9433 4.6 36.74 5.42 36.74C6.24667 36.74 7 36.9433 7.68 37.35C8.36 37.7567 8.90333 38.3033 9.31 38.99C9.71667 39.67 9.92 40.43 9.92 41.27C9.92 41.7367 9.82333 42.2167 9.63 42.71C9.43667 43.2033 9.16667 43.7067 8.82 44.22C8.48 44.7333 8.08333 45.2533 7.63 45.78C7.17667 46.3067 6.69 46.8333 6.17 47.36C5.65 47.8867 5.12 48.4067 4.58 48.92H10.04V51H0.8ZM12.0305 52.12L12.6505 48.74H14.7305L13.4105 52.12H12.0305ZM21.3675 51.26C20.4808 51.26 19.6775 51.0467 18.9575 50.62C18.2442 50.1867 17.6775 49.6133 17.2575 48.9C16.8442 48.18 16.6375 47.3933 16.6375 46.54H18.7175C18.7175 47.0267 18.8375 47.47 19.0775 47.87C19.3175 48.27 19.6375 48.59 20.0375 48.83C20.4375 49.0633 20.8808 49.18 21.3675 49.18C21.8475 49.18 22.2875 49.0633 22.6875 48.83C23.0875 48.59 23.4075 48.27 23.6475 47.87C23.8875 47.47 24.0075 47.0267 24.0075 46.54C24.0075 46.0533 23.8975 45.61 23.6775 45.21C23.4575 44.8033 23.1275 44.48 22.6875 44.24C22.2475 43.9933 21.6875 43.87 21.0075 43.87H17.4775L18.8975 37H25.6675V39.08H20.5875L20.0375 41.79L21.2475 41.81C22.2008 41.83 23.0375 42.05 23.7575 42.47C24.4842 42.8833 25.0542 43.4433 25.4675 44.15C25.8808 44.85 26.0875 45.6467 26.0875 46.54C26.0875 47.1867 25.9642 47.7967 25.7175 48.37C25.4708 48.9367 25.1308 49.4367 24.6975 49.87C24.2708 50.3033 23.7708 50.6433 23.1975 50.89C22.6308 51.1367 22.0208 51.26 21.3675 51.26ZM32.7097 51.26C31.883 51.26 31.1364 51.0733 30.4697 50.7C29.8097 50.32 29.2397 49.7967 28.7597 49.13C28.2797 48.4633 27.913 47.6933 27.6597 46.82C27.4064 45.94 27.2797 45 27.2797 44C27.2797 43 27.4064 42.06 27.6597 41.18C27.913 40.3 28.2797 39.53 28.7597 38.87C29.2397 38.2033 29.8097 37.6833 30.4697 37.31C31.1364 36.93 31.883 36.74 32.7097 36.74C33.523 36.74 34.263 36.93 34.9297 37.31C35.5964 37.6833 36.163 38.2033 36.6297 38.87C37.103 39.53 37.4664 40.3 37.7197 41.18C37.973 42.06 38.0997 43 38.0997 44C38.0997 45 37.973 45.94 37.7197 46.82C37.4664 47.6933 37.103 48.4633 36.6297 49.13C36.163 49.7967 35.5964 50.32 34.9297 50.7C34.263 51.0733 33.523 51.26 32.7097 51.26ZM32.7097 49.18C33.4764 49.18 34.113 48.94 34.6197 48.46C35.133 47.9733 35.5164 47.3367 35.7697 46.55C36.023 45.7633 36.1497 44.9133 36.1497 44C36.1497 43.04 36.0164 42.17 35.7497 41.39C35.4897 40.6033 35.103 39.98 34.5897 39.52C34.083 39.0533 33.4564 38.82 32.7097 38.82C32.1164 38.82 31.5997 38.96 31.1597 39.24C30.7264 39.52 30.3664 39.9033 30.0797 40.39C29.7997 40.8767 29.5864 41.43 29.4397 42.05C29.2997 42.67 29.2297 43.32 29.2297 44C29.2297 44.9133 29.3597 45.7633 29.6197 46.55C29.8797 47.3367 30.2664 47.9733 30.7797 48.46C31.2997 48.94 31.943 49.18 32.7097 49.18ZM44.3503 51.26C43.5236 51.26 42.777 51.0733 42.1103 50.7C41.4503 50.32 40.8803 49.7967 40.4003 49.13C39.9203 48.4633 39.5536 47.6933 39.3003 46.82C39.047 45.94 38.9203 45 38.9203 44C38.9203 43 39.047 42.06 39.3003 41.18C39.5536 40.3 39.9203 39.53 40.4003 38.87C40.8803 38.2033 41.4503 37.6833 42.1103 37.31C42.777 36.93 43.5236 36.74 44.3503 36.74C45.1636 36.74 45.9036 36.93 46.5703 37.31C47.237 37.6833 47.8036 38.2033 48.2703 38.87C48.7436 39.53 49.107 40.3 49.3603 41.18C49.6136 42.06 49.7403 43 49.7403 44C49.7403 45 49.6136 45.94 49.3603 46.82C49.107 47.6933 48.7436 48.4633 48.2703 49.13C47.8036 49.7967 47.237 50.32 46.5703 50.7C45.9036 51.0733 45.1636 51.26 44.3503 51.26ZM44.3503 49.18C45.117 49.18 45.7536 48.94 46.2603 48.46C46.7736 47.9733 47.157 47.3367 47.4103 46.55C47.6636 45.7633 47.7903 44.9133 47.7903 44C47.7903 43.04 47.657 42.17 47.3903 41.39C47.1303 40.6033 46.7436 39.98 46.2303 39.52C45.7236 39.0533 45.097 38.82 44.3503 38.82C43.757 38.82 43.2403 38.96 42.8003 39.24C42.367 39.52 42.007 39.9033 41.7203 40.39C41.4403 40.8767 41.227 41.43 41.0803 42.05C40.9403 42.67 40.8703 43.32 40.8703 44C40.8703 44.9133 41.0003 45.7633 41.2603 46.55C41.5203 47.3367 41.907 47.9733 42.4203 48.46C42.9403 48.94 43.5836 49.18 44.3503 49.18ZM61.3267 51.26C60.5601 51.26 59.8234 51.14 59.1167 50.9C58.4101 50.66 57.7934 50.3167 57.2667 49.87C56.7401 49.4167 56.3634 48.88 56.1367 48.26L58.0867 47.53C58.2001 47.85 58.4167 48.1367 58.7367 48.39C59.0634 48.6367 59.4501 48.83 59.8967 48.97C60.3501 49.11 60.8267 49.18 61.3267 49.18C61.8601 49.18 62.3601 49.0933 62.8267 48.92C63.3001 48.7467 63.6801 48.5067 63.9667 48.2C64.2601 47.8933 64.4067 47.5333 64.4067 47.12C64.4067 46.6933 64.2534 46.3433 63.9467 46.07C63.6467 45.7967 63.2601 45.58 62.7867 45.42C62.3201 45.26 61.8334 45.14 61.3267 45.06C60.3467 44.9 59.4667 44.6667 58.6867 44.36C57.9134 44.0533 57.3001 43.6233 56.8467 43.07C56.4001 42.5167 56.1767 41.7967 56.1767 40.91C56.1767 40.0767 56.4134 39.35 56.8867 38.73C57.3667 38.11 57.9967 37.63 58.7767 37.29C59.5634 36.9433 60.4134 36.77 61.3267 36.77C62.0801 36.77 62.8067 36.89 63.5067 37.13C64.2134 37.3633 64.8334 37.7067 65.3667 38.16C65.9067 38.6067 66.2934 39.15 66.5267 39.79L64.5567 40.5C64.4434 40.1733 64.2267 39.89 63.9067 39.65C63.5867 39.4033 63.2001 39.21 62.7467 39.07C62.3001 38.93 61.8267 38.86 61.3267 38.86C60.7934 38.8533 60.2934 38.94 59.8267 39.12C59.3667 39.2933 58.9901 39.5333 58.6967 39.84C58.4034 40.1467 58.2567 40.5033 58.2567 40.91C58.2567 41.41 58.3934 41.79 58.6667 42.05C58.9401 42.31 59.3067 42.5033 59.7667 42.63C60.2334 42.75 60.7534 42.86 61.3267 42.96C62.2467 43.1067 63.0967 43.35 63.8767 43.69C64.6634 44.03 65.2934 44.4833 65.7667 45.05C66.2467 45.61 66.4867 46.3 66.4867 47.12C66.4867 47.9467 66.2467 48.6733 65.7667 49.3C65.2934 49.92 64.6634 50.4033 63.8767 50.75C63.0967 51.09 62.2467 51.26 61.3267 51.26ZM73.1452 51.28C72.1785 51.28 71.2952 51.0433 70.4952 50.57C69.7018 50.0967 69.0685 49.46 68.5952 48.66C68.1218 47.86 67.8852 46.9733 67.8852 46C67.8852 45.2733 68.0218 44.5933 68.2952 43.96C68.5685 43.3267 68.9452 42.77 69.4252 42.29C69.9118 41.8033 70.4718 41.4233 71.1052 41.15C71.7385 40.8767 72.4185 40.74 73.1452 40.74C73.8518 40.74 74.4652 40.9 74.9852 41.22C75.5052 41.54 75.9318 41.9567 76.2652 42.47V41H78.3452V56H76.2652V49.55C75.9318 50.0567 75.5052 50.4733 74.9852 50.8C74.4652 51.12 73.8518 51.28 73.1452 51.28ZM73.1652 42.75C72.5852 42.75 72.0552 42.8967 71.5752 43.19C71.0952 43.4833 70.7152 43.8767 70.4352 44.37C70.1552 44.8633 70.0152 45.4067 70.0152 46C70.0152 46.6067 70.1585 47.1567 70.4452 47.65C70.7318 48.1433 71.1118 48.5367 71.5852 48.83C72.0652 49.1167 72.5918 49.26 73.1652 49.26C73.7518 49.26 74.2652 49.1133 74.7052 48.82C75.1452 48.5267 75.4852 48.1333 75.7252 47.64C75.9652 47.1467 76.0852 46.6 76.0852 46C76.0852 45.4 75.9618 44.8567 75.7152 44.37C75.4752 43.8767 75.1352 43.4833 74.6952 43.19C74.2618 42.8967 73.7518 42.75 73.1652 42.75ZM80.1164 47.25V41H82.1964V46.74C82.1964 47.1867 82.3064 47.5933 82.5264 47.96C82.7464 48.3267 83.0397 48.62 83.4064 48.84C83.7731 49.0533 84.1764 49.16 84.6164 49.16C85.0631 49.16 85.4664 49.0533 85.8264 48.84C86.1931 48.62 86.4831 48.3267 86.6964 47.96C86.9164 47.5933 87.0264 47.1867 87.0264 46.74V41H89.1064L89.1164 51H87.0364L87.0264 49.92C86.6864 50.3333 86.2631 50.66 85.7564 50.9C85.2497 51.14 84.7064 51.26 84.1264 51.26C83.3864 51.26 82.7131 51.08 82.1064 50.72C81.4997 50.36 81.0164 49.8767 80.6564 49.27C80.2964 48.6633 80.1164 47.99 80.1164 47.25ZM98.7652 41H100.845V51H98.7552L98.6752 49.55C98.3818 50.0633 97.9852 50.4767 97.4852 50.79C96.9852 51.1033 96.3952 51.26 95.7152 51.26C94.9818 51.26 94.2918 51.1233 93.6452 50.85C92.9985 50.57 92.4285 50.1833 91.9352 49.69C91.4485 49.1967 91.0685 48.63 90.7952 47.99C90.5218 47.3433 90.3852 46.65 90.3852 45.91C90.3852 45.1967 90.5185 44.5267 90.7852 43.9C91.0518 43.2667 91.4218 42.7133 91.8952 42.24C92.3685 41.7667 92.9152 41.3967 93.5352 41.13C94.1618 40.8567 94.8318 40.72 95.5452 40.72C96.2718 40.72 96.9118 40.8867 97.4652 41.22C98.0252 41.5467 98.4885 41.9667 98.8552 42.48L98.7652 41ZM95.6652 49.25C96.2518 49.25 96.7652 49.1067 97.2052 48.82C97.6452 48.5267 97.9852 48.1333 98.2252 47.64C98.4718 47.1467 98.5952 46.6 98.5952 46C98.5952 45.3933 98.4718 44.8433 98.2252 44.35C97.9785 43.8567 97.6352 43.4667 97.1952 43.18C96.7618 42.8867 96.2518 42.74 95.6652 42.74C95.0852 42.74 94.5552 42.8867 94.0752 43.18C93.5952 43.4733 93.2152 43.8667 92.9352 44.36C92.6552 44.8533 92.5152 45.4 92.5152 46C92.5152 46.6067 92.6585 47.1567 92.9452 47.65C93.2385 48.1367 93.6218 48.5267 94.0952 48.82C94.5752 49.1067 95.0985 49.25 95.6652 49.25ZM102.841 51V41H104.921V42.06C105.267 41.6467 105.694 41.32 106.201 41.08C106.707 40.84 107.254 40.72 107.841 40.72C108.214 40.72 108.584 40.77 108.951 40.87L108.121 42.97C107.861 42.87 107.601 42.82 107.341 42.82C106.901 42.82 106.497 42.93 106.131 43.15C105.764 43.3633 105.471 43.6533 105.251 44.02C105.031 44.3867 104.921 44.7933 104.921 45.24V51H102.841ZM114.038 51.26C113.118 51.26 112.278 51.0233 111.518 50.55C110.764 50.0767 110.161 49.4433 109.708 48.65C109.261 47.85 109.038 46.9667 109.038 46C109.038 45.2667 109.168 44.5833 109.428 43.95C109.688 43.31 110.044 42.75 110.498 42.27C110.958 41.7833 111.491 41.4033 112.098 41.13C112.704 40.8567 113.351 40.72 114.038 40.72C114.804 40.72 115.508 40.88 116.148 41.2C116.788 41.5133 117.334 41.95 117.788 42.51C118.241 43.0633 118.574 43.7033 118.788 44.43C119.001 45.15 119.064 45.9167 118.978 46.73H111.268C111.354 47.19 111.521 47.6067 111.768 47.98C112.021 48.3467 112.341 48.6367 112.728 48.85C113.121 49.0633 113.558 49.1733 114.038 49.18C114.544 49.18 115.004 49.0533 115.418 48.8C115.838 48.5467 116.181 48.1967 116.448 47.75L118.558 48.24C118.158 49.1267 117.554 49.8533 116.748 50.42C115.941 50.98 115.038 51.26 114.038 51.26ZM111.198 45.14H116.878C116.811 44.66 116.641 44.2267 116.368 43.84C116.101 43.4467 115.764 43.1367 115.358 42.91C114.958 42.6767 114.518 42.56 114.038 42.56C113.564 42.56 113.124 42.6733 112.718 42.9C112.318 43.1267 111.984 43.4367 111.718 43.83C111.458 44.2167 111.284 44.6533 111.198 45.14ZM125.614 51V37H133.864V39.08H127.694V42.46H132.904V44.54H127.694V51H125.614ZM138.842 51.26C137.922 51.26 137.082 51.0233 136.322 50.55C135.569 50.0767 134.966 49.4433 134.512 48.65C134.066 47.85 133.842 46.9667 133.842 46C133.842 45.2667 133.972 44.5833 134.232 43.95C134.492 43.31 134.849 42.75 135.302 42.27C135.762 41.7833 136.296 41.4033 136.902 41.13C137.509 40.8567 138.156 40.72 138.842 40.72C139.609 40.72 140.312 40.88 140.952 41.2C141.592 41.5133 142.139 41.95 142.592 42.51C143.046 43.0633 143.379 43.7033 143.592 44.43C143.806 45.15 143.869 45.9167 143.782 46.73H136.072C136.159 47.19 136.326 47.6067 136.572 47.98C136.826 48.3467 137.146 48.6367 137.532 48.85C137.926 49.0633 138.362 49.1733 138.842 49.18C139.349 49.18 139.809 49.0533 140.222 48.8C140.642 48.5467 140.986 48.1967 141.252 47.75L143.362 48.24C142.962 49.1267 142.359 49.8533 141.552 50.42C140.746 50.98 139.842 51.26 138.842 51.26ZM136.002 45.14H141.682C141.616 44.66 141.446 44.2267 141.172 43.84C140.906 43.4467 140.569 43.1367 140.162 42.91C139.762 42.6767 139.322 42.56 138.842 42.56C138.369 42.56 137.929 42.6733 137.522 42.9C137.122 43.1267 136.789 43.4367 136.522 43.83C136.262 44.2167 136.089 44.6533 136.002 45.14ZM149.819 51.26C148.899 51.26 148.059 51.0233 147.299 50.55C146.545 50.0767 145.942 49.4433 145.489 48.65C145.042 47.85 144.819 46.9667 144.819 46C144.819 45.2667 144.949 44.5833 145.209 43.95C145.469 43.31 145.825 42.75 146.279 42.27C146.739 41.7833 147.272 41.4033 147.879 41.13C148.485 40.8567 149.132 40.72 149.819 40.72C150.585 40.72 151.289 40.88 151.929 41.2C152.569 41.5133 153.115 41.95 153.569 42.51C154.022 43.0633 154.355 43.7033 154.569 44.43C154.782 45.15 154.845 45.9167 154.759 46.73H147.049C147.135 47.19 147.302 47.6067 147.549 47.98C147.802 48.3467 148.122 48.6367 148.509 48.85C148.902 49.0633 149.339 49.1733 149.819 49.18C150.325 49.18 150.785 49.0533 151.199 48.8C151.619 48.5467 151.962 48.1967 152.229 47.75L154.339 48.24C153.939 49.1267 153.335 49.8533 152.529 50.42C151.722 50.98 150.819 51.26 149.819 51.26ZM146.979 45.14H152.659C152.592 44.66 152.422 44.2267 152.149 43.84C151.882 43.4467 151.545 43.1367 151.139 42.91C150.739 42.6767 150.299 42.56 149.819 42.56C149.345 42.56 148.905 42.6733 148.499 42.9C148.099 43.1267 147.765 43.4367 147.499 43.83C147.239 44.2167 147.065 44.6533 146.979 45.14ZM161.636 43.08H159.536L159.526 51H157.446L157.456 43.08H155.866V41H157.456L157.446 37.86H159.526L159.536 41H161.636V43.08Z" fill="white"></path><defs><clipPath id="clip0_166_840"><rect width="20" height="20" fill="white" transform="translate(0 0.5)"></rect></clipPath><clipPath id="clip1_166_840"><rect width="21.0145" height="21" fill="white" transform="translate(-1 0.5)"></rect></clipPath></defs></svg>