<svg xmlns="http://www.w3.org/2000/svg" width="463" height="66" viewBox="0 0 463 66" fill="none"><g clip-path="url(#clip0_166_1137)"><path d="M0.84 15L2.737 5.2H3.64L6.286 12.158L8.925 5.2H9.828L11.732 15H10.535L9.156 7.888L6.671 14.468H5.894L3.409 7.888L2.037 15H0.84ZM15.8829 15.182C15.2389 15.182 14.6509 15.0163 14.1189 14.685C13.5916 14.3537 13.1692 13.9103 12.8519 13.355C12.5392 12.795 12.3829 12.1767 12.3829 11.5C12.3829 10.9867 12.4739 10.5083 12.6559 10.065C12.8379 9.617 13.0876 9.225 13.4049 8.889C13.7269 8.54833 14.1002 8.28233 14.5249 8.091C14.9496 7.89967 15.4022 7.804 15.8829 7.804C16.5269 7.804 17.1126 7.96967 17.6399 8.301C18.1719 8.63233 18.5942 9.078 18.9069 9.638C19.2242 10.198 19.3829 10.8187 19.3829 11.5C19.3829 12.0087 19.2919 12.4847 19.1099 12.928C18.9279 13.3713 18.6759 13.7633 18.3539 14.104C18.0366 14.44 17.6656 14.7037 17.2409 14.895C16.8209 15.0863 16.3682 15.182 15.8829 15.182ZM15.8829 14.006C16.3216 14.006 16.7159 13.8917 17.0659 13.663C17.4206 13.4297 17.6982 13.124 17.8989 12.746C18.1042 12.3633 18.2069 11.948 18.2069 11.5C18.2069 11.0427 18.1019 10.6227 17.8919 10.24C17.6866 9.85733 17.4089 9.55167 17.0589 9.323C16.7089 9.09433 16.3169 8.98 15.8829 8.98C15.4442 8.98 15.0499 9.09667 14.6999 9.33C14.3499 9.55867 14.0722 9.86433 13.8669 10.247C13.6616 10.6297 13.5589 11.0473 13.5589 11.5C13.5589 11.9667 13.6639 12.3913 13.8739 12.774C14.0839 13.152 14.3662 13.453 14.7209 13.677C15.0756 13.8963 15.4629 14.006 15.8829 14.006ZM20.5412 15V8H21.7172V8.875C21.9645 8.54833 22.2772 8.28933 22.6552 8.098C23.0332 7.902 23.4438 7.804 23.8872 7.804C24.1578 7.804 24.4192 7.839 24.6712 7.909L24.1952 9.085C24.0038 9.02433 23.8172 8.994 23.6352 8.994C23.2852 8.994 22.9632 9.08033 22.6692 9.253C22.3798 9.421 22.1488 9.64967 21.9762 9.939C21.8035 10.2283 21.7172 10.5503 21.7172 10.905V15H20.5412ZM29.2805 9.176H27.6915L27.6845 15H26.5085L26.5155 9.176H25.3115V8H26.5155L26.5085 5.802H27.6845L27.6915 8H29.2805V9.176ZM35.8246 8H37.0006V15.224C37.0006 15.686 36.9002 16.1153 36.6996 16.512C36.5036 16.9133 36.2376 17.261 35.9016 17.555C35.5656 17.8537 35.1829 18.0847 34.7536 18.248C34.3242 18.416 33.8762 18.5 33.4096 18.5C32.9242 18.5 32.4552 18.3903 32.0026 18.171C31.5499 17.9563 31.1532 17.667 30.8126 17.303C30.4766 16.9437 30.2339 16.54 30.0846 16.092L31.1626 15.602C31.2512 15.924 31.4099 16.2133 31.6386 16.47C31.8719 16.7313 32.1426 16.9367 32.4506 17.086C32.7632 17.24 33.0829 17.317 33.4096 17.317C33.7176 17.317 34.0139 17.2633 34.2986 17.156C34.5879 17.0487 34.8469 16.8993 35.0756 16.708C35.3089 16.5213 35.4909 16.2997 35.6216 16.043C35.7569 15.791 35.8246 15.518 35.8246 15.224V13.831C35.5866 14.2323 35.2716 14.559 34.8796 14.811C34.4922 15.0583 34.0396 15.182 33.5216 15.182C33.0269 15.182 32.5626 15.0863 32.1286 14.895C31.6946 14.7037 31.3142 14.44 30.9876 14.104C30.6609 13.7633 30.4042 13.3713 30.2176 12.928C30.0309 12.4847 29.9376 12.0087 29.9376 11.5C29.9376 10.9913 30.0309 10.5153 30.2176 10.072C30.4042 9.624 30.6609 9.232 30.9876 8.896C31.3142 8.55533 31.6946 8.28933 32.1286 8.098C32.5626 7.90667 33.0269 7.811 33.5216 7.811C34.0396 7.811 34.4922 7.93467 34.8796 8.182C35.2716 8.42933 35.5866 8.756 35.8246 9.162V8ZM33.5286 14.041C33.9812 14.041 34.3732 13.9243 34.7046 13.691C35.0406 13.4577 35.2996 13.1473 35.4816 12.76C35.6636 12.3727 35.7546 11.9527 35.7546 11.5C35.7546 11.0333 35.6612 10.6087 35.4746 10.226C35.2926 9.83867 35.0336 9.53067 34.6976 9.302C34.3662 9.06867 33.9766 8.952 33.5286 8.952C33.0899 8.952 32.6886 9.06633 32.3246 9.295C31.9606 9.52367 31.6712 9.83167 31.4566 10.219C31.2466 10.6017 31.1416 11.0287 31.1416 11.5C31.1416 11.9713 31.2489 12.4007 31.4636 12.788C31.6829 13.1707 31.9722 13.4763 32.3316 13.705C32.6956 13.929 33.0946 14.041 33.5286 14.041ZM44.216 8H45.392V15H44.216L44.167 13.817C43.9477 14.223 43.6444 14.552 43.257 14.804C42.8744 15.056 42.417 15.182 41.885 15.182C41.3717 15.182 40.891 15.0863 40.443 14.895C39.995 14.699 39.5984 14.4307 39.253 14.09C38.9124 13.7447 38.6464 13.348 38.455 12.9C38.2637 12.452 38.168 11.969 38.168 11.451C38.168 10.9517 38.2614 10.4803 38.448 10.037C38.6347 9.59367 38.8937 9.20633 39.225 8.875C39.561 8.539 39.9484 8.27767 40.387 8.091C40.8257 7.89967 41.297 7.804 41.801 7.804C42.3517 7.804 42.8347 7.93467 43.25 8.196C43.6654 8.45267 44.0014 8.78633 44.258 9.197L44.216 8ZM41.864 14.041C42.326 14.041 42.725 13.929 43.061 13.705C43.4017 13.4763 43.663 13.1683 43.845 12.781C44.0317 12.3937 44.125 11.9667 44.125 11.5C44.125 11.024 44.0317 10.5947 43.845 10.212C43.6584 9.82467 43.3947 9.519 43.054 9.295C42.718 9.06633 42.3214 8.952 41.864 8.952C41.402 8.952 40.982 9.06633 40.604 9.295C40.226 9.52367 39.925 9.83167 39.701 10.219C39.4817 10.6017 39.372 11.0287 39.372 11.5C39.372 11.9713 39.4864 12.4007 39.715 12.788C39.9437 13.1707 40.247 13.4763 40.625 13.705C41.003 13.929 41.416 14.041 41.864 14.041ZM52.1215 8H53.2975V15.224C53.2975 15.686 53.1971 16.1153 52.9965 16.512C52.8005 16.9133 52.5345 17.261 52.1985 17.555C51.8625 17.8537 51.4798 18.0847 51.0505 18.248C50.6211 18.416 50.1731 18.5 49.7065 18.5C49.2211 18.5 48.7521 18.3903 48.2995 18.171C47.8468 17.9563 47.4501 17.667 47.1095 17.303C46.7735 16.9437 46.5308 16.54 46.3815 16.092L47.4595 15.602C47.5481 15.924 47.7068 16.2133 47.9355 16.47C48.1688 16.7313 48.4395 16.9367 48.7475 17.086C49.0601 17.24 49.3798 17.317 49.7065 17.317C50.0145 17.317 50.3108 17.2633 50.5955 17.156C50.8848 17.0487 51.1438 16.8993 51.3725 16.708C51.6058 16.5213 51.7878 16.2997 51.9185 16.043C52.0538 15.791 52.1215 15.518 52.1215 15.224V13.831C51.8835 14.2323 51.5685 14.559 51.1765 14.811C50.7891 15.0583 50.3365 15.182 49.8185 15.182C49.3238 15.182 48.8595 15.0863 48.4255 14.895C47.9915 14.7037 47.6111 14.44 47.2845 14.104C46.9578 13.7633 46.7011 13.3713 46.5145 12.928C46.3278 12.4847 46.2345 12.0087 46.2345 11.5C46.2345 10.9913 46.3278 10.5153 46.5145 10.072C46.7011 9.624 46.9578 9.232 47.2845 8.896C47.6111 8.55533 47.9915 8.28933 48.4255 8.098C48.8595 7.90667 49.3238 7.811 49.8185 7.811C50.3365 7.811 50.7891 7.93467 51.1765 8.182C51.5685 8.42933 51.8835 8.756 52.1215 9.162V8ZM49.8255 14.041C50.2781 14.041 50.6701 13.9243 51.0015 13.691C51.3375 13.4577 51.5965 13.1473 51.7785 12.76C51.9605 12.3727 52.0515 11.9527 52.0515 11.5C52.0515 11.0333 51.9581 10.6087 51.7715 10.226C51.5895 9.83867 51.3305 9.53067 50.9945 9.302C50.6631 9.06867 50.2735 8.952 49.8255 8.952C49.3868 8.952 48.9855 9.06633 48.6215 9.295C48.2575 9.52367 47.9681 9.83167 47.7535 10.219C47.5435 10.6017 47.4385 11.0287 47.4385 11.5C47.4385 11.9713 47.5458 12.4007 47.7605 12.788C47.9798 13.1707 48.2691 13.4763 48.6285 13.705C48.9925 13.929 49.3915 14.041 49.8255 14.041ZM57.9649 15.182C57.3209 15.182 56.7329 15.0163 56.2009 14.685C55.6736 14.3537 55.2513 13.9103 54.9339 13.355C54.6213 12.795 54.4649 12.1767 54.4649 11.5C54.4649 10.9867 54.5559 10.5083 54.7379 10.065C54.9199 9.617 55.1696 9.225 55.4869 8.889C55.8089 8.54833 56.1823 8.28233 56.6069 8.091C57.0316 7.89967 57.4843 7.804 57.9649 7.804C58.4923 7.804 58.9753 7.91133 59.4139 8.126C59.8573 8.336 60.2353 8.63 60.5479 9.008C60.8653 9.386 61.1009 9.82467 61.2549 10.324C61.4136 10.8233 61.4719 11.3577 61.4299 11.927H55.7179C55.7739 12.3237 55.9046 12.6783 56.1099 12.991C56.3153 13.299 56.5766 13.544 56.8939 13.726C57.2159 13.908 57.5729 14.0013 57.9649 14.006C58.3849 14.006 58.7653 13.8987 59.1059 13.684C59.4466 13.4647 59.7219 13.166 59.9319 12.788L61.1289 13.068C60.8489 13.6887 60.4266 14.1973 59.8619 14.594C59.2973 14.986 58.6649 15.182 57.9649 15.182ZM55.6829 11.003H60.2469C60.2096 10.611 60.0836 10.254 59.8689 9.932C59.6543 9.60533 59.3813 9.344 59.0499 9.148C58.7186 8.952 58.3569 8.854 57.9649 8.854C57.5729 8.854 57.2136 8.94967 56.8869 9.141C56.5603 9.33233 56.2896 9.59133 56.0749 9.918C55.8649 10.24 55.7343 10.6017 55.6829 11.003ZM66.0685 15V5.2H69.3025C69.8298 5.2 70.3035 5.32833 70.7235 5.585C71.1482 5.84167 71.4842 6.18933 71.7315 6.628C71.9835 7.062 72.1095 7.54733 72.1095 8.084C72.1095 8.63 71.9812 9.12233 71.7245 9.561C71.4725 9.995 71.1318 10.3403 70.7025 10.597C70.2778 10.849 69.8112 10.975 69.3025 10.975H67.2445V15H66.0685ZM67.2445 9.799H69.1975C69.5148 9.799 69.8042 9.722 70.0655 9.568C70.3315 9.40933 70.5415 9.197 70.6955 8.931C70.8542 8.66033 70.9335 8.357 70.9335 8.021C70.9335 7.68033 70.8542 7.377 70.6955 7.111C70.5415 6.84033 70.3315 6.628 70.0655 6.474C69.8042 6.31533 69.5148 6.236 69.1975 6.236H67.2445V9.799ZM78.5461 8H79.7221V15H78.5461L78.4971 13.817C78.2778 14.223 77.9745 14.552 77.5871 14.804C77.2045 15.056 76.7471 15.182 76.2151 15.182C75.7018 15.182 75.2211 15.0863 74.7731 14.895C74.3251 14.699 73.9285 14.4307 73.5831 14.09C73.2425 13.7447 72.9765 13.348 72.7851 12.9C72.5938 12.452 72.4981 11.969 72.4981 11.451C72.4981 10.9517 72.5915 10.4803 72.7781 10.037C72.9648 9.59367 73.2238 9.20633 73.5551 8.875C73.8911 8.539 74.2785 8.27767 74.7171 8.091C75.1558 7.89967 75.6271 7.804 76.1311 7.804C76.6818 7.804 77.1648 7.93467 77.5801 8.196C77.9955 8.45267 78.3315 8.78633 78.5881 9.197L78.5461 8ZM76.1941 14.041C76.6561 14.041 77.0551 13.929 77.3911 13.705C77.7318 13.4763 77.9931 13.1683 78.1751 12.781C78.3618 12.3937 78.4551 11.9667 78.4551 11.5C78.4551 11.024 78.3618 10.5947 78.1751 10.212C77.9885 9.82467 77.7248 9.519 77.3841 9.295C77.0481 9.06633 76.6515 8.952 76.1941 8.952C75.7321 8.952 75.3121 9.06633 74.9341 9.295C74.5561 9.52367 74.2551 9.83167 74.0311 10.219C73.8118 10.6017 73.7021 11.0287 73.7021 11.5C73.7021 11.9713 73.8165 12.4007 74.0451 12.788C74.2738 13.1707 74.5771 13.4763 74.9551 13.705C75.3331 13.929 75.7461 14.041 76.1941 14.041ZM85.6975 8H86.9435L83.1145 18.5H81.8685L83.1355 15L80.6225 8H81.9105L83.7235 13.383L85.6975 8ZM88.1759 15V8H89.3519V8.875C89.5993 8.54833 89.9096 8.28933 90.2829 8.098C90.6609 7.902 91.0716 7.804 91.5149 7.804C92.0329 7.804 92.5066 7.93 92.9359 8.182C93.3653 8.434 93.7036 8.76767 93.9509 9.183C94.1983 8.76767 94.5343 8.434 94.9589 8.182C95.3883 7.93 95.8596 7.804 96.3729 7.804C96.9003 7.804 97.3786 7.93233 97.8079 8.189C98.2373 8.441 98.5779 8.78167 98.8299 9.211C99.0866 9.64033 99.2149 10.1187 99.2149 10.646V15H98.0389V10.926C98.0389 10.5807 97.9549 10.261 97.7869 9.967C97.6189 9.673 97.3926 9.43733 97.1079 9.26C96.8233 9.08267 96.5083 8.994 96.1629 8.994C95.8176 8.994 95.5026 9.078 95.2179 9.246C94.9333 9.40933 94.7069 9.638 94.5389 9.932C94.3709 10.2213 94.2869 10.5527 94.2869 10.926V15H93.1109V10.926C93.1109 10.5527 93.0269 10.2213 92.8589 9.932C92.6909 9.638 92.4623 9.40933 92.1729 9.246C91.8883 9.078 91.5733 8.994 91.2279 8.994C90.8873 8.994 90.5723 9.08267 90.2829 9.26C89.9983 9.43733 89.7719 9.673 89.6039 9.967C89.4359 10.261 89.3519 10.5807 89.3519 10.926V15H88.1759ZM103.561 15.182C102.917 15.182 102.329 15.0163 101.797 14.685C101.269 14.3537 100.847 13.9103 100.53 13.355C100.217 12.795 100.061 12.1767 100.061 11.5C100.061 10.9867 100.152 10.5083 100.334 10.065C100.516 9.617 100.765 9.225 101.083 8.889C101.405 8.54833 101.778 8.28233 102.203 8.091C102.627 7.89967 103.08 7.804 103.561 7.804C104.088 7.804 104.571 7.91133 105.01 8.126C105.453 8.336 105.831 8.63 106.144 9.008C106.461 9.386 106.697 9.82467 106.851 10.324C107.009 10.8233 107.068 11.3577 107.026 11.927H101.314C101.37 12.3237 101.5 12.6783 101.706 12.991C101.911 13.299 102.172 13.544 102.49 13.726C102.812 13.908 103.169 14.0013 103.561 14.006C103.981 14.006 104.361 13.8987 104.702 13.684C105.042 13.4647 105.318 13.166 105.528 12.788L106.725 13.068C106.445 13.6887 106.022 14.1973 105.458 14.594C104.893 14.986 104.261 15.182 103.561 15.182ZM101.279 11.003H105.843C105.805 10.611 105.679 10.254 105.465 9.932C105.25 9.60533 104.977 9.344 104.646 9.148C104.314 8.952 103.953 8.854 103.561 8.854C103.169 8.854 102.809 8.94967 102.483 9.141C102.156 9.33233 101.885 9.59133 101.671 9.918C101.461 10.24 101.33 10.6017 101.279 11.003ZM114.393 10.646V15H113.217V10.905C113.217 10.5503 113.131 10.2283 112.958 9.939C112.786 9.64967 112.555 9.421 112.265 9.253C111.976 9.08033 111.654 8.994 111.299 8.994C110.949 8.994 110.627 9.08033 110.333 9.253C110.044 9.421 109.813 9.64967 109.64 9.939C109.468 10.2283 109.381 10.5503 109.381 10.905V15H108.205V8H109.381V8.875C109.629 8.54833 109.941 8.28933 110.319 8.098C110.697 7.902 111.108 7.804 111.551 7.804C112.074 7.804 112.55 7.93233 112.979 8.189C113.413 8.441 113.756 8.78167 114.008 9.211C114.265 9.64033 114.393 10.1187 114.393 10.646ZM119.419 9.176H117.83L117.823 15H116.647L116.654 9.176H115.45V8H116.654L116.647 5.802H117.823L117.83 8H119.419V9.176Z" fill="#999999"></path><path d="M5.55 56.5L0.47 42.5H1.95L6.39 54.74L10.85 42.5H12.33L7.24 56.5H5.55ZM21.2364 46.5H22.6364V56.5H21.2364L21.1864 54.64C20.8597 55.2733 20.4031 55.7867 19.8164 56.18C19.2297 56.5667 18.5297 56.76 17.7164 56.76C16.9831 56.76 16.2964 56.6233 15.6564 56.35C15.0164 56.07 14.4531 55.6867 13.9664 55.2C13.4797 54.7133 13.0997 54.15 12.8264 53.51C12.5531 52.87 12.4164 52.1833 12.4164 51.45C12.4164 50.73 12.5497 50.0533 12.8164 49.42C13.0897 48.7867 13.4631 48.23 13.9364 47.75C14.4164 47.27 14.9697 46.8967 15.5964 46.63C16.2297 46.3567 16.9064 46.22 17.6264 46.22C18.4597 46.22 19.1864 46.42 19.8064 46.82C20.4264 47.2133 20.9197 47.73 21.2864 48.37L21.2364 46.5ZM17.6864 55.4C18.3997 55.4 19.0131 55.2267 19.5264 54.88C20.0397 54.5267 20.4331 54.0533 20.7064 53.46C20.9864 52.8667 21.1264 52.2133 21.1264 51.5C21.1264 50.7667 20.9864 50.1067 20.7064 49.52C20.4264 48.9267 20.0297 48.4567 19.5164 48.11C19.0031 47.7633 18.3931 47.59 17.6864 47.59C16.9797 47.59 16.3331 47.7667 15.7464 48.12C15.1664 48.4667 14.7031 48.9367 14.3564 49.53C14.0164 50.1233 13.8464 50.78 13.8464 51.5C13.8464 52.2267 14.0231 52.8867 14.3764 53.48C14.7297 54.0667 15.1964 54.5333 15.7764 54.88C16.3631 55.2267 16.9997 55.4 17.6864 55.4ZM24.6375 56.5V46.5H26.0375V47.88C26.3908 47.3733 26.8508 46.97 27.4175 46.67C27.9842 46.37 28.6008 46.22 29.2675 46.22C29.6542 46.22 30.0275 46.27 30.3875 46.37L29.8175 47.76C29.5375 47.6733 29.2642 47.63 28.9975 47.63C28.4575 47.63 27.9608 47.7633 27.5075 48.03C27.0608 48.2967 26.7042 48.6533 26.4375 49.1C26.1708 49.5467 26.0375 50.0433 26.0375 50.59V56.5H24.6375ZM31.6492 46.5H33.0492V56.5H31.6492V46.5ZM32.3592 44.75C32.1326 44.75 31.9392 44.6767 31.7792 44.53C31.6259 44.3767 31.5492 44.1867 31.5492 43.96C31.5492 43.7333 31.6259 43.5467 31.7792 43.4C31.9392 43.2467 32.1326 43.17 32.3592 43.17C32.5792 43.17 32.7659 43.2467 32.9192 43.4C33.0792 43.5467 33.1592 43.7333 33.1592 43.96C33.1592 44.1867 33.0826 44.3767 32.9292 44.53C32.7759 44.6767 32.5859 44.75 32.3592 44.75ZM39.7602 56.76C38.8402 56.76 38.0002 56.5233 37.2402 56.05C36.4868 55.5767 35.8835 54.9433 35.4302 54.15C34.9835 53.35 34.7602 52.4667 34.7602 51.5C34.7602 50.7667 34.8902 50.0833 35.1502 49.45C35.4102 48.81 35.7668 48.25 36.2202 47.77C36.6802 47.2833 37.2135 46.9033 37.8202 46.63C38.4268 46.3567 39.0735 46.22 39.7602 46.22C40.5002 46.22 41.1802 46.3667 41.8002 46.66C42.4268 46.9533 42.9635 47.3633 43.4102 47.89C43.8635 48.4167 44.2035 49.0333 44.4302 49.74C44.6635 50.4467 44.7602 51.21 44.7202 52.03H36.2402C36.3202 52.6633 36.5202 53.23 36.8402 53.73C37.1668 54.23 37.5802 54.6267 38.0802 54.92C38.5868 55.2067 39.1468 55.3533 39.7602 55.36C40.4268 55.36 41.0268 55.1867 41.5602 54.84C42.1002 54.4933 42.5335 54.0167 42.8602 53.41L44.2802 53.74C43.8802 54.6267 43.2768 55.3533 42.4702 55.92C41.6635 56.48 40.7602 56.76 39.7602 56.76ZM36.2002 50.9H43.3102C43.2635 50.28 43.0735 49.7133 42.7402 49.2C42.4135 48.68 41.9902 48.2667 41.4702 47.96C40.9502 47.6467 40.3802 47.49 39.7602 47.49C39.1402 47.49 38.5735 47.6433 38.0602 47.95C37.5468 48.25 37.1268 48.66 36.8002 49.18C36.4735 49.6933 36.2735 50.2667 36.2002 50.9ZM49.5439 56.69C48.9972 56.6767 48.4639 56.5767 47.9439 56.39C47.4239 56.2033 46.9706 55.95 46.5839 55.63C46.1972 55.31 45.9206 54.9467 45.7539 54.54L46.9639 54.02C47.0706 54.28 47.2672 54.52 47.5539 54.74C47.8472 54.9533 48.1806 55.1267 48.5539 55.26C48.9272 55.3867 49.2972 55.45 49.6639 55.45C50.0706 55.45 50.4506 55.3833 50.8039 55.25C51.1572 55.1167 51.4439 54.9267 51.6639 54.68C51.8906 54.4267 52.0039 54.13 52.0039 53.79C52.0039 53.4233 51.8839 53.1367 51.6439 52.93C51.4039 52.7167 51.1006 52.55 50.7339 52.43C50.3672 52.3033 49.9906 52.1833 49.6039 52.07C48.8972 51.8767 48.2739 51.6633 47.7339 51.43C47.1939 51.1967 46.7706 50.9 46.4639 50.54C46.1639 50.1733 46.0139 49.7033 46.0139 49.13C46.0139 48.5233 46.1839 48 46.5239 47.56C46.8706 47.1133 47.3206 46.77 47.8739 46.53C48.4339 46.2833 49.0306 46.16 49.6639 46.16C50.4772 46.16 51.2172 46.3367 51.8839 46.69C52.5572 47.0433 53.0439 47.5133 53.3439 48.1L52.2139 48.77C52.0939 48.4967 51.9039 48.26 51.6439 48.06C51.3839 47.86 51.0872 47.7033 50.7539 47.59C50.4272 47.4767 50.0939 47.4167 49.7539 47.41C49.3272 47.4033 48.9306 47.4667 48.5639 47.6C48.1972 47.7267 47.9006 47.9167 47.6739 48.17C47.4539 48.4233 47.3439 48.7333 47.3439 49.1C47.3439 49.4667 47.4539 49.7467 47.6739 49.94C47.8939 50.1267 48.1906 50.28 48.5639 50.4C48.9439 50.5133 49.3706 50.6467 49.8439 50.8C50.4506 50.9933 51.0206 51.2133 51.5539 51.46C52.0872 51.7067 52.5172 52.0133 52.8439 52.38C53.1706 52.7467 53.3306 53.21 53.3239 53.77C53.3239 54.37 53.1439 54.8933 52.7839 55.34C52.4239 55.7867 51.9572 56.13 51.3839 56.37C50.8106 56.6033 50.1972 56.71 49.5439 56.69ZM64.8123 46.22C65.7857 46.22 66.669 46.4567 67.4623 46.93C68.2623 47.4033 68.899 48.04 69.3723 48.84C69.8457 49.6333 70.0823 50.5167 70.0823 51.49C70.0823 52.2167 69.9457 52.9 69.6723 53.54C69.399 54.1733 69.019 54.7333 68.5323 55.22C68.0523 55.7 67.4923 56.0767 66.8523 56.35C66.219 56.6233 65.539 56.76 64.8123 56.76C63.9857 56.76 63.2723 56.5633 62.6723 56.17C62.0723 55.7767 61.599 55.2633 61.2523 54.63V56.5H59.8523V41.5H61.2523V48.35C61.599 47.7167 62.0723 47.2033 62.6723 46.81C63.2723 46.4167 63.9857 46.22 64.8123 46.22ZM64.8023 55.39C65.5157 55.39 66.1623 55.2167 66.7423 54.87C67.3223 54.5167 67.7857 54.0433 68.1323 53.45C68.479 52.8567 68.6523 52.2033 68.6523 51.49C68.6523 50.7567 68.4757 50.0967 68.1223 49.51C67.769 48.9167 67.299 48.4467 66.7123 48.1C66.1323 47.7533 65.4957 47.58 64.8023 47.58C64.0957 47.58 63.4823 47.7567 62.9623 48.11C62.449 48.4633 62.0523 48.9367 61.7723 49.53C61.499 50.1233 61.3623 50.7767 61.3623 51.49C61.3623 52.2167 61.5023 52.8767 61.7823 53.47C62.0623 54.0567 62.459 54.5233 62.9723 54.87C63.4923 55.2167 64.1023 55.39 64.8023 55.39ZM79.9083 46.5H81.3083V56.5H79.9083L79.8583 54.64C79.5316 55.2733 79.0749 55.7867 78.4883 56.18C77.9016 56.5667 77.2016 56.76 76.3883 56.76C75.6549 56.76 74.9683 56.6233 74.3283 56.35C73.6883 56.07 73.1249 55.6867 72.6383 55.2C72.1516 54.7133 71.7716 54.15 71.4983 53.51C71.2249 52.87 71.0883 52.1833 71.0883 51.45C71.0883 50.73 71.2216 50.0533 71.4883 49.42C71.7616 48.7867 72.1349 48.23 72.6083 47.75C73.0883 47.27 73.6416 46.8967 74.2683 46.63C74.9016 46.3567 75.5783 46.22 76.2983 46.22C77.1316 46.22 77.8583 46.42 78.4783 46.82C79.0983 47.2133 79.5916 47.73 79.9583 48.37L79.9083 46.5ZM76.3583 55.4C77.0716 55.4 77.6849 55.2267 78.1983 54.88C78.7116 54.5267 79.1049 54.0533 79.3783 53.46C79.6583 52.8667 79.7983 52.2133 79.7983 51.5C79.7983 50.7667 79.6583 50.1067 79.3783 49.52C79.0983 48.9267 78.7016 48.4567 78.1883 48.11C77.6749 47.7633 77.0649 47.59 76.3583 47.59C75.6516 47.59 75.0049 47.7667 74.4183 48.12C73.8383 48.4667 73.3749 48.9367 73.0283 49.53C72.6883 50.1233 72.5183 50.78 72.5183 51.5C72.5183 52.2267 72.6949 52.8867 73.0483 53.48C73.4016 54.0667 73.8683 54.5333 74.4483 54.88C75.0349 55.2267 75.6716 55.4 76.3583 55.4ZM86.3994 56.69C85.8527 56.6767 85.3194 56.5767 84.7994 56.39C84.2794 56.2033 83.826 55.95 83.4394 55.63C83.0527 55.31 82.776 54.9467 82.6094 54.54L83.8194 54.02C83.926 54.28 84.1227 54.52 84.4094 54.74C84.7027 54.9533 85.036 55.1267 85.4094 55.26C85.7827 55.3867 86.1527 55.45 86.5194 55.45C86.926 55.45 87.306 55.3833 87.6594 55.25C88.0127 55.1167 88.2994 54.9267 88.5194 54.68C88.746 54.4267 88.8594 54.13 88.8594 53.79C88.8594 53.4233 88.7394 53.1367 88.4994 52.93C88.2594 52.7167 87.956 52.55 87.5894 52.43C87.2227 52.3033 86.846 52.1833 86.4594 52.07C85.7527 51.8767 85.1294 51.6633 84.5894 51.43C84.0494 51.1967 83.626 50.9 83.3194 50.54C83.0194 50.1733 82.8694 49.7033 82.8694 49.13C82.8694 48.5233 83.0394 48 83.3794 47.56C83.726 47.1133 84.176 46.77 84.7294 46.53C85.2894 46.2833 85.886 46.16 86.5194 46.16C87.3327 46.16 88.0727 46.3367 88.7394 46.69C89.4127 47.0433 89.8994 47.5133 90.1994 48.1L89.0694 48.77C88.9494 48.4967 88.7594 48.26 88.4994 48.06C88.2394 47.86 87.9427 47.7033 87.6094 47.59C87.2827 47.4767 86.9494 47.4167 86.6094 47.41C86.1827 47.4033 85.786 47.4667 85.4194 47.6C85.0527 47.7267 84.756 47.9167 84.5294 48.17C84.3094 48.4233 84.1994 48.7333 84.1994 49.1C84.1994 49.4667 84.3094 49.7467 84.5294 49.94C84.7494 50.1267 85.046 50.28 85.4194 50.4C85.7994 50.5133 86.226 50.6467 86.6994 50.8C87.306 50.9933 87.876 51.2133 88.4094 51.46C88.9427 51.7067 89.3727 52.0133 89.6994 52.38C90.026 52.7467 90.186 53.21 90.1794 53.77C90.1794 54.37 89.9994 54.8933 89.6394 55.34C89.2794 55.7867 88.8127 56.13 88.2394 56.37C87.666 56.6033 87.0527 56.71 86.3994 56.69ZM96.225 56.76C95.305 56.76 94.465 56.5233 93.705 56.05C92.9517 55.5767 92.3483 54.9433 91.895 54.15C91.4483 53.35 91.225 52.4667 91.225 51.5C91.225 50.7667 91.355 50.0833 91.615 49.45C91.875 48.81 92.2317 48.25 92.685 47.77C93.145 47.2833 93.6783 46.9033 94.285 46.63C94.8917 46.3567 95.5383 46.22 96.225 46.22C96.965 46.22 97.645 46.3667 98.265 46.66C98.8917 46.9533 99.4283 47.3633 99.875 47.89C100.328 48.4167 100.668 49.0333 100.895 49.74C101.128 50.4467 101.225 51.21 101.185 52.03H92.705C92.785 52.6633 92.985 53.23 93.305 53.73C93.6317 54.23 94.045 54.6267 94.545 54.92C95.0517 55.2067 95.6117 55.3533 96.225 55.36C96.8917 55.36 97.4917 55.1867 98.025 54.84C98.565 54.4933 98.9983 54.0167 99.325 53.41L100.745 53.74C100.345 54.6267 99.7417 55.3533 98.935 55.92C98.1283 56.48 97.225 56.76 96.225 56.76ZM92.665 50.9H99.775C99.7283 50.28 99.5383 49.7133 99.205 49.2C98.8783 48.68 98.455 48.2667 97.935 47.96C97.415 47.6467 96.845 47.49 96.225 47.49C95.605 47.49 95.0383 47.6433 94.525 47.95C94.0117 48.25 93.5917 48.66 93.265 49.18C92.9383 49.6933 92.7383 50.2667 92.665 50.9ZM111.032 41.5H112.432V56.5H111.032V54.63C110.685 55.27 110.208 55.7867 109.602 56.18C109.002 56.5667 108.288 56.76 107.462 56.76C106.735 56.76 106.055 56.6233 105.422 56.35C104.788 56.0767 104.228 55.7 103.742 55.22C103.262 54.7333 102.885 54.1733 102.612 53.54C102.338 52.9067 102.202 52.2267 102.202 51.5C102.202 50.7733 102.338 50.0933 102.612 49.46C102.885 48.82 103.262 48.26 103.742 47.78C104.228 47.2933 104.788 46.9133 105.422 46.64C106.055 46.3667 106.735 46.23 107.462 46.23C108.288 46.23 109.002 46.4267 109.602 46.82C110.208 47.2067 110.685 47.7167 111.032 48.35V41.5ZM107.472 55.4C108.185 55.4 108.798 55.2267 109.312 54.88C109.825 54.5267 110.218 54.0533 110.492 53.46C110.772 52.8667 110.912 52.2133 110.912 51.5C110.912 50.7667 110.772 50.1067 110.492 49.52C110.212 48.9267 109.815 48.4567 109.302 48.11C108.788 47.7633 108.178 47.59 107.472 47.59C106.765 47.59 106.122 47.7667 105.542 48.12C104.962 48.4667 104.498 48.9367 104.152 49.53C103.805 50.1233 103.632 50.78 103.632 51.5C103.632 52.2267 103.808 52.8867 104.162 53.48C104.515 54.0667 104.982 54.5333 105.562 54.88C106.148 55.2267 106.785 55.4 107.472 55.4ZM124.038 56.76C123.118 56.76 122.278 56.5233 121.518 56.05C120.764 55.5767 120.161 54.9433 119.708 54.15C119.261 53.35 119.038 52.4667 119.038 51.5C119.038 50.7667 119.168 50.0833 119.428 49.45C119.688 48.81 120.044 48.25 120.498 47.77C120.958 47.2833 121.491 46.9033 122.098 46.63C122.704 46.3567 123.351 46.22 124.038 46.22C124.958 46.22 125.794 46.4567 126.548 46.93C127.308 47.4033 127.911 48.04 128.358 48.84C128.811 49.64 129.038 50.5267 129.038 51.5C129.038 52.2267 128.908 52.9067 128.648 53.54C128.388 54.1733 128.028 54.7333 127.568 55.22C127.114 55.7 126.584 56.0767 125.978 56.35C125.378 56.6233 124.731 56.76 124.038 56.76ZM124.038 55.36C124.718 55.36 125.328 55.1833 125.868 54.83C126.414 54.47 126.844 53.9967 127.158 53.41C127.478 52.8233 127.638 52.1867 127.638 51.5C127.638 50.8 127.478 50.1567 127.158 49.57C126.838 48.9767 126.404 48.5033 125.858 48.15C125.318 47.7967 124.711 47.62 124.038 47.62C123.358 47.62 122.744 47.8 122.198 48.16C121.658 48.5133 121.228 48.9833 120.908 49.57C120.594 50.1567 120.438 50.8 120.438 51.5C120.438 52.22 120.601 52.8733 120.928 53.46C121.254 54.04 121.691 54.5033 122.238 54.85C122.784 55.19 123.384 55.36 124.038 55.36ZM139.451 50.31V56.5H138.051V50.59C138.051 50.0433 137.918 49.5467 137.651 49.1C137.385 48.6533 137.028 48.2967 136.581 48.03C136.135 47.7633 135.638 47.63 135.091 47.63C134.551 47.63 134.055 47.7633 133.601 48.03C133.155 48.2967 132.798 48.6533 132.531 49.1C132.265 49.5467 132.131 50.0433 132.131 50.59V56.5H130.731V46.5H132.131V47.88C132.485 47.3733 132.945 46.97 133.511 46.67C134.078 46.37 134.695 46.22 135.361 46.22C136.115 46.22 136.801 46.4033 137.421 46.77C138.041 47.1367 138.535 47.63 138.901 48.25C139.268 48.87 139.451 49.5567 139.451 50.31ZM151.369 47.9H148.979L148.969 56.5H147.569L147.579 47.9H145.769V46.5H147.579L147.569 43.36H148.969L148.979 46.5H151.369V47.9ZM157.28 56.76C156.36 56.76 155.52 56.5233 154.76 56.05C154.006 55.5767 153.403 54.9433 152.95 54.15C152.503 53.35 152.28 52.4667 152.28 51.5C152.28 50.7667 152.41 50.0833 152.67 49.45C152.93 48.81 153.286 48.25 153.74 47.77C154.2 47.2833 154.733 46.9033 155.34 46.63C155.946 46.3567 156.593 46.22 157.28 46.22C158.02 46.22 158.7 46.3667 159.32 46.66C159.946 46.9533 160.483 47.3633 160.93 47.89C161.383 48.4167 161.723 49.0333 161.95 49.74C162.183 50.4467 162.28 51.21 162.24 52.03H153.76C153.84 52.6633 154.04 53.23 154.36 53.73C154.686 54.23 155.1 54.6267 155.6 54.92C156.106 55.2067 156.666 55.3533 157.28 55.36C157.946 55.36 158.546 55.1867 159.08 54.84C159.62 54.4933 160.053 54.0167 160.38 53.41L161.8 53.74C161.4 54.6267 160.796 55.3533 159.99 55.92C159.183 56.48 158.28 56.76 157.28 56.76ZM153.72 50.9H160.83C160.783 50.28 160.593 49.7133 160.26 49.2C159.933 48.68 159.51 48.2667 158.99 47.96C158.47 47.6467 157.9 47.49 157.28 47.49C156.66 47.49 156.093 47.6433 155.58 47.95C155.066 48.25 154.646 48.66 154.32 49.18C153.993 49.6933 153.793 50.2667 153.72 50.9ZM163.954 56.5V46.5H165.354V47.88C165.707 47.3733 166.167 46.97 166.734 46.67C167.301 46.37 167.917 46.22 168.584 46.22C168.971 46.22 169.344 46.27 169.704 46.37L169.134 47.76C168.854 47.6733 168.581 47.63 168.314 47.63C167.774 47.63 167.277 47.7633 166.824 48.03C166.377 48.2967 166.021 48.6533 165.754 49.1C165.487 49.5467 165.354 50.0433 165.354 50.59V56.5H163.954ZM171.005 56.5V46.5H172.405V47.88C172.765 47.3733 173.225 46.97 173.785 46.67C174.345 46.37 174.958 46.22 175.625 46.22C176.378 46.22 177.068 46.4067 177.695 46.78C178.321 47.1467 178.811 47.6367 179.165 48.25C179.518 47.6367 180.005 47.1467 180.625 46.78C181.245 46.4067 181.931 46.22 182.685 46.22C183.438 46.22 184.125 46.4033 184.745 46.77C185.365 47.1367 185.858 47.63 186.225 48.25C186.591 48.87 186.775 49.5567 186.775 50.31V56.5H185.375V50.62C185.375 50.0867 185.245 49.5933 184.985 49.14C184.725 48.6867 184.375 48.3233 183.935 48.05C183.501 47.77 183.018 47.63 182.485 47.63C181.951 47.63 181.465 47.76 181.025 48.02C180.591 48.2733 180.245 48.6267 179.985 49.08C179.725 49.5267 179.595 50.04 179.595 50.62V56.5H178.195V50.62C178.195 50.04 178.065 49.5267 177.805 49.08C177.545 48.6267 177.195 48.2733 176.755 48.02C176.315 47.76 175.828 47.63 175.295 47.63C174.768 47.63 174.285 47.77 173.845 48.05C173.405 48.3233 173.055 48.6867 172.795 49.14C172.535 49.5933 172.405 50.0867 172.405 50.62V56.5H171.005ZM191.868 56.69C191.321 56.6767 190.788 56.5767 190.268 56.39C189.748 56.2033 189.295 55.95 188.908 55.63C188.521 55.31 188.245 54.9467 188.078 54.54L189.288 54.02C189.395 54.28 189.591 54.52 189.878 54.74C190.171 54.9533 190.505 55.1267 190.878 55.26C191.251 55.3867 191.621 55.45 191.988 55.45C192.395 55.45 192.775 55.3833 193.128 55.25C193.481 55.1167 193.768 54.9267 193.988 54.68C194.215 54.4267 194.328 54.13 194.328 53.79C194.328 53.4233 194.208 53.1367 193.968 52.93C193.728 52.7167 193.425 52.55 193.058 52.43C192.691 52.3033 192.315 52.1833 191.928 52.07C191.221 51.8767 190.598 51.6633 190.058 51.43C189.518 51.1967 189.095 50.9 188.788 50.54C188.488 50.1733 188.338 49.7033 188.338 49.13C188.338 48.5233 188.508 48 188.848 47.56C189.195 47.1133 189.645 46.77 190.198 46.53C190.758 46.2833 191.355 46.16 191.988 46.16C192.801 46.16 193.541 46.3367 194.208 46.69C194.881 47.0433 195.368 47.5133 195.668 48.1L194.538 48.77C194.418 48.4967 194.228 48.26 193.968 48.06C193.708 47.86 193.411 47.7033 193.078 47.59C192.751 47.4767 192.418 47.4167 192.078 47.41C191.651 47.4033 191.255 47.4667 190.888 47.6C190.521 47.7267 190.225 47.9167 189.998 48.17C189.778 48.4233 189.668 48.7333 189.668 49.1C189.668 49.4667 189.778 49.7467 189.998 49.94C190.218 50.1267 190.515 50.28 190.888 50.4C191.268 50.5133 191.695 50.6467 192.168 50.8C192.775 50.9933 193.345 51.2133 193.878 51.46C194.411 51.7067 194.841 52.0133 195.168 52.38C195.495 52.7467 195.655 53.21 195.648 53.77C195.648 54.37 195.468 54.8933 195.108 55.34C194.748 55.7867 194.281 56.13 193.708 56.37C193.135 56.6033 192.521 56.71 191.868 56.69ZM210.397 46.5H211.797V56.5H210.397L210.347 54.64C210.02 55.2733 209.563 55.7867 208.977 56.18C208.39 56.5667 207.69 56.76 206.877 56.76C206.143 56.76 205.457 56.6233 204.817 56.35C204.177 56.07 203.613 55.6867 203.127 55.2C202.64 54.7133 202.26 54.15 201.987 53.51C201.713 52.87 201.577 52.1833 201.577 51.45C201.577 50.73 201.71 50.0533 201.977 49.42C202.25 48.7867 202.623 48.23 203.097 47.75C203.577 47.27 204.13 46.8967 204.757 46.63C205.39 46.3567 206.067 46.22 206.787 46.22C207.62 46.22 208.347 46.42 208.967 46.82C209.587 47.2133 210.08 47.73 210.447 48.37L210.397 46.5ZM206.847 55.4C207.56 55.4 208.173 55.2267 208.687 54.88C209.2 54.5267 209.593 54.0533 209.867 53.46C210.147 52.8667 210.287 52.2133 210.287 51.5C210.287 50.7667 210.147 50.1067 209.867 49.52C209.587 48.9267 209.19 48.4567 208.677 48.11C208.163 47.7633 207.553 47.59 206.847 47.59C206.14 47.59 205.493 47.7667 204.907 48.12C204.327 48.4667 203.863 48.9367 203.517 49.53C203.177 50.1233 203.007 50.78 203.007 51.5C203.007 52.2267 203.183 52.8867 203.537 53.48C203.89 54.0667 204.357 54.5333 204.937 54.88C205.523 55.2267 206.16 55.4 206.847 55.4ZM222.518 50.31V56.5H221.118V50.59C221.118 50.0433 220.984 49.5467 220.718 49.1C220.451 48.6533 220.094 48.2967 219.648 48.03C219.201 47.7633 218.704 47.63 218.158 47.63C217.618 47.63 217.121 47.7633 216.668 48.03C216.221 48.2967 215.864 48.6533 215.598 49.1C215.331 49.5467 215.198 50.0433 215.198 50.59V56.5H213.798V46.5H215.198V47.88C215.551 47.3733 216.011 46.97 216.578 46.67C217.144 46.37 217.761 46.22 218.428 46.22C219.181 46.22 219.868 46.4033 220.488 46.77C221.108 47.1367 221.601 47.63 221.968 48.25C222.334 48.87 222.518 49.5567 222.518 50.31ZM232.555 41.5H233.955V56.5H232.555V54.63C232.208 55.27 231.732 55.7867 231.125 56.18C230.525 56.5667 229.812 56.76 228.985 56.76C228.258 56.76 227.578 56.6233 226.945 56.35C226.312 56.0767 225.752 55.7 225.265 55.22C224.785 54.7333 224.408 54.1733 224.135 53.54C223.862 52.9067 223.725 52.2267 223.725 51.5C223.725 50.7733 223.862 50.0933 224.135 49.46C224.408 48.82 224.785 48.26 225.265 47.78C225.752 47.2933 226.312 46.9133 226.945 46.64C227.578 46.3667 228.258 46.23 228.985 46.23C229.812 46.23 230.525 46.4267 231.125 46.82C231.732 47.2067 232.208 47.7167 232.555 48.35V41.5ZM228.995 55.4C229.708 55.4 230.322 55.2267 230.835 54.88C231.348 54.5267 231.742 54.0533 232.015 53.46C232.295 52.8667 232.435 52.2133 232.435 51.5C232.435 50.7667 232.295 50.1067 232.015 49.52C231.735 48.9267 231.338 48.4567 230.825 48.11C230.312 47.7633 229.702 47.59 228.995 47.59C228.288 47.59 227.645 47.7667 227.065 48.12C226.485 48.4667 226.022 48.9367 225.675 49.53C225.328 50.1233 225.155 50.78 225.155 51.5C225.155 52.2267 225.332 52.8867 225.685 53.48C226.038 54.0667 226.505 54.5333 227.085 54.88C227.672 55.2267 228.308 55.4 228.995 55.4ZM241.161 46.5H242.561V56.5H241.161V46.5ZM241.871 44.75C241.644 44.75 241.451 44.6767 241.291 44.53C241.138 44.3767 241.061 44.1867 241.061 43.96C241.061 43.7333 241.138 43.5467 241.291 43.4C241.451 43.2467 241.644 43.17 241.871 43.17C242.091 43.17 242.278 43.2467 242.431 43.4C242.591 43.5467 242.671 43.7333 242.671 43.96C242.671 44.1867 242.594 44.3767 242.441 44.53C242.288 44.6767 242.098 44.75 241.871 44.75ZM253.65 50.31V56.5H252.25V50.59C252.25 50.0433 252.117 49.5467 251.85 49.1C251.584 48.6533 251.227 48.2967 250.78 48.03C250.334 47.7633 249.837 47.63 249.29 47.63C248.75 47.63 248.254 47.7633 247.8 48.03C247.354 48.2967 246.997 48.6533 246.73 49.1C246.464 49.5467 246.33 50.0433 246.33 50.59V56.5H244.93V46.5H246.33V47.88C246.684 47.3733 247.144 46.97 247.71 46.67C248.277 46.37 248.894 46.22 249.56 46.22C250.314 46.22 251 46.4033 251.62 46.77C252.24 47.1367 252.734 47.63 253.1 48.25C253.467 48.87 253.65 49.5567 253.65 50.31ZM260.763 47.9H258.373L258.363 56.5H256.963L256.973 47.9H255.163V46.5H256.973L256.963 43.36H258.363L258.373 46.5H260.763V47.9ZM266.674 56.76C265.754 56.76 264.914 56.5233 264.154 56.05C263.401 55.5767 262.798 54.9433 262.344 54.15C261.898 53.35 261.674 52.4667 261.674 51.5C261.674 50.7667 261.804 50.0833 262.064 49.45C262.324 48.81 262.681 48.25 263.134 47.77C263.594 47.2833 264.128 46.9033 264.734 46.63C265.341 46.3567 265.988 46.22 266.674 46.22C267.414 46.22 268.094 46.3667 268.714 46.66C269.341 46.9533 269.878 47.3633 270.324 47.89C270.778 48.4167 271.118 49.0333 271.344 49.74C271.578 50.4467 271.674 51.21 271.634 52.03H263.154C263.234 52.6633 263.434 53.23 263.754 53.73C264.081 54.23 264.494 54.6267 264.994 54.92C265.501 55.2067 266.061 55.3533 266.674 55.36C267.341 55.36 267.941 55.1867 268.474 54.84C269.014 54.4933 269.448 54.0167 269.774 53.41L271.194 53.74C270.794 54.6267 270.191 55.3533 269.384 55.92C268.578 56.48 267.674 56.76 266.674 56.76ZM263.114 50.9H270.224C270.178 50.28 269.988 49.7133 269.654 49.2C269.328 48.68 268.904 48.2667 268.384 47.96C267.864 47.6467 267.294 47.49 266.674 47.49C266.054 47.49 265.488 47.6433 264.974 47.95C264.461 48.25 264.041 48.66 263.714 49.18C263.388 49.6933 263.188 50.2667 263.114 50.9ZM273.348 56.5V46.5H274.748V47.88C275.102 47.3733 275.562 46.97 276.128 46.67C276.695 46.37 277.312 46.22 277.978 46.22C278.365 46.22 278.738 46.27 279.098 46.37L278.528 47.76C278.248 47.6733 277.975 47.63 277.708 47.63C277.168 47.63 276.672 47.7633 276.218 48.03C275.772 48.2967 275.415 48.6533 275.148 49.1C274.882 49.5467 274.748 50.0433 274.748 50.59V56.5H273.348ZM284.233 56.76C283.313 56.76 282.473 56.5233 281.713 56.05C280.959 55.5767 280.356 54.9433 279.903 54.15C279.456 53.35 279.233 52.4667 279.233 51.5C279.233 50.7667 279.363 50.0833 279.623 49.45C279.883 48.81 280.239 48.25 280.693 47.77C281.153 47.2833 281.686 46.9033 282.293 46.63C282.899 46.3567 283.546 46.22 284.233 46.22C284.973 46.22 285.653 46.3667 286.273 46.66C286.899 46.9533 287.436 47.3633 287.883 47.89C288.336 48.4167 288.676 49.0333 288.903 49.74C289.136 50.4467 289.233 51.21 289.193 52.03H280.713C280.793 52.6633 280.993 53.23 281.313 53.73C281.639 54.23 282.053 54.6267 282.553 54.92C283.059 55.2067 283.619 55.3533 284.233 55.36C284.899 55.36 285.499 55.1867 286.033 54.84C286.573 54.4933 287.006 54.0167 287.333 53.41L288.753 53.74C288.353 54.6267 287.749 55.3533 286.943 55.92C286.136 56.48 285.233 56.76 284.233 56.76ZM280.673 50.9H287.783C287.736 50.28 287.546 49.7133 287.213 49.2C286.886 48.68 286.463 48.2667 285.943 47.96C285.423 47.6467 284.853 47.49 284.233 47.49C283.613 47.49 283.046 47.6433 282.533 47.95C282.019 48.25 281.599 48.66 281.273 49.18C280.946 49.6933 280.746 50.2667 280.673 50.9ZM294.017 56.69C293.47 56.6767 292.937 56.5767 292.417 56.39C291.897 56.2033 291.443 55.95 291.057 55.63C290.67 55.31 290.393 54.9467 290.227 54.54L291.437 54.02C291.543 54.28 291.74 54.52 292.027 54.74C292.32 54.9533 292.653 55.1267 293.027 55.26C293.4 55.3867 293.77 55.45 294.137 55.45C294.543 55.45 294.923 55.3833 295.277 55.25C295.63 55.1167 295.917 54.9267 296.137 54.68C296.363 54.4267 296.477 54.13 296.477 53.79C296.477 53.4233 296.357 53.1367 296.117 52.93C295.877 52.7167 295.573 52.55 295.207 52.43C294.84 52.3033 294.463 52.1833 294.077 52.07C293.37 51.8767 292.747 51.6633 292.207 51.43C291.667 51.1967 291.243 50.9 290.937 50.54C290.637 50.1733 290.487 49.7033 290.487 49.13C290.487 48.5233 290.657 48 290.997 47.56C291.343 47.1133 291.793 46.77 292.347 46.53C292.907 46.2833 293.503 46.16 294.137 46.16C294.95 46.16 295.69 46.3367 296.357 46.69C297.03 47.0433 297.517 47.5133 297.817 48.1L296.687 48.77C296.567 48.4967 296.377 48.26 296.117 48.06C295.857 47.86 295.56 47.7033 295.227 47.59C294.9 47.4767 294.567 47.4167 294.227 47.41C293.8 47.4033 293.403 47.4667 293.037 47.6C292.67 47.7267 292.373 47.9167 292.147 48.17C291.927 48.4233 291.817 48.7333 291.817 49.1C291.817 49.4667 291.927 49.7467 292.147 49.94C292.367 50.1267 292.663 50.28 293.037 50.4C293.417 50.5133 293.843 50.6467 294.317 50.8C294.923 50.9933 295.493 51.2133 296.027 51.46C296.56 51.7067 296.99 52.0133 297.317 52.38C297.643 52.7467 297.803 53.21 297.797 53.77C297.797 54.37 297.617 54.8933 297.257 55.34C296.897 55.7867 296.43 56.13 295.857 56.37C295.283 56.6033 294.67 56.71 294.017 56.69ZM304.63 47.9H302.24L302.23 56.5H300.83L300.84 47.9H299.03V46.5H300.84L300.83 43.36H302.23L302.24 46.5H304.63V47.9ZM311.22 56.5V46.5H312.62V47.88C312.973 47.3733 313.433 46.97 314 46.67C314.566 46.37 315.183 46.22 315.85 46.22C316.236 46.22 316.61 46.27 316.97 46.37L316.4 47.76C316.12 47.6733 315.846 47.63 315.58 47.63C315.04 47.63 314.543 47.7633 314.09 48.03C313.643 48.2967 313.286 48.6533 313.02 49.1C312.753 49.5467 312.62 50.0433 312.62 50.59V56.5H311.22ZM325.924 46.5H327.324V56.5H325.924L325.874 54.64C325.547 55.2733 325.091 55.7867 324.504 56.18C323.917 56.5667 323.217 56.76 322.404 56.76C321.671 56.76 320.984 56.6233 320.344 56.35C319.704 56.07 319.141 55.6867 318.654 55.2C318.167 54.7133 317.787 54.15 317.514 53.51C317.241 52.87 317.104 52.1833 317.104 51.45C317.104 50.73 317.237 50.0533 317.504 49.42C317.777 48.7867 318.151 48.23 318.624 47.75C319.104 47.27 319.657 46.8967 320.284 46.63C320.917 46.3567 321.594 46.22 322.314 46.22C323.147 46.22 323.874 46.42 324.494 46.82C325.114 47.2133 325.607 47.73 325.974 48.37L325.924 46.5ZM322.374 55.4C323.087 55.4 323.701 55.2267 324.214 54.88C324.727 54.5267 325.121 54.0533 325.394 53.46C325.674 52.8667 325.814 52.2133 325.814 51.5C325.814 50.7667 325.674 50.1067 325.394 49.52C325.114 48.9267 324.717 48.4567 324.204 48.11C323.691 47.7633 323.081 47.59 322.374 47.59C321.667 47.59 321.021 47.7667 320.434 48.12C319.854 48.4667 319.391 48.9367 319.044 49.53C318.704 50.1233 318.534 50.78 318.534 51.5C318.534 52.2267 318.711 52.8867 319.064 53.48C319.417 54.0667 319.884 54.5333 320.464 54.88C321.051 55.2267 321.687 55.4 322.374 55.4ZM334.435 47.9H332.045L332.035 56.5H330.635L330.645 47.9H328.835V46.5H330.645L330.635 43.36H332.035L332.045 46.5H334.435V47.9ZM340.346 56.76C339.426 56.76 338.586 56.5233 337.826 56.05C337.073 55.5767 336.469 54.9433 336.016 54.15C335.569 53.35 335.346 52.4667 335.346 51.5C335.346 50.7667 335.476 50.0833 335.736 49.45C335.996 48.81 336.353 48.25 336.806 47.77C337.266 47.2833 337.799 46.9033 338.406 46.63C339.013 46.3567 339.659 46.22 340.346 46.22C341.086 46.22 341.766 46.3667 342.386 46.66C343.013 46.9533 343.549 47.3633 343.996 47.89C344.449 48.4167 344.789 49.0333 345.016 49.74C345.249 50.4467 345.346 51.21 345.306 52.03H336.826C336.906 52.6633 337.106 53.23 337.426 53.73C337.753 54.23 338.166 54.6267 338.666 54.92C339.173 55.2067 339.733 55.3533 340.346 55.36C341.013 55.36 341.613 55.1867 342.146 54.84C342.686 54.4933 343.119 54.0167 343.446 53.41L344.866 53.74C344.466 54.6267 343.863 55.3533 343.056 55.92C342.249 56.48 341.346 56.76 340.346 56.76ZM336.786 50.9H343.896C343.849 50.28 343.659 49.7133 343.326 49.2C342.999 48.68 342.576 48.2667 342.056 47.96C341.536 47.6467 340.966 47.49 340.346 47.49C339.726 47.49 339.159 47.6433 338.646 47.95C338.133 48.25 337.713 48.66 337.386 49.18C337.059 49.6933 336.859 50.2667 336.786 50.9Z" fill="white"></path><rect x="358.5" y="33.5" width="100" height="32" rx="16" fill="#1A1A1A"></rect><rect x="358.5" y="33.5" width="100" height="32" rx="16" stroke="#262626"></rect><path d="M371.05 54V44.2H372.226V54H371.05ZM375.71 45.271V47H377.761V48.176H375.71V54H374.534V48.176H373.631V47H374.534V45.271C374.534 44.9117 374.621 44.5873 374.793 44.298C374.971 44.004 375.206 43.7707 375.5 43.598C375.799 43.4207 376.126 43.332 376.48 43.332C376.742 43.332 376.996 43.3857 377.243 43.493C377.491 43.5957 377.71 43.7497 377.901 43.955L377.061 44.788C376.996 44.6993 376.91 44.6317 376.802 44.585C376.7 44.5337 376.592 44.508 376.48 44.508C376.27 44.508 376.088 44.5827 375.934 44.732C375.785 44.8813 375.71 45.061 375.71 45.271ZM387.898 47H389.074V54H387.898L387.849 52.817C387.629 53.223 387.326 53.552 386.939 53.804C386.556 54.056 386.099 54.182 385.567 54.182C385.053 54.182 384.573 54.0863 384.125 53.895C383.677 53.699 383.28 53.4307 382.935 53.09C382.594 52.7447 382.328 52.348 382.137 51.9C381.945 51.452 381.85 50.969 381.85 50.451C381.85 49.9517 381.943 49.4803 382.13 49.037C382.316 48.5937 382.575 48.2063 382.907 47.875C383.243 47.539 383.63 47.2777 384.069 47.091C384.507 46.8997 384.979 46.804 385.483 46.804C386.033 46.804 386.516 46.9347 386.932 47.196C387.347 47.4527 387.683 47.7863 387.94 48.197L387.898 47ZM385.546 53.041C386.008 53.041 386.407 52.929 386.743 52.705C387.083 52.4763 387.345 52.1683 387.527 51.781C387.713 51.3937 387.807 50.9667 387.807 50.5C387.807 50.024 387.713 49.5947 387.527 49.212C387.34 48.8247 387.076 48.519 386.736 48.295C386.4 48.0663 386.003 47.952 385.546 47.952C385.084 47.952 384.664 48.0663 384.286 48.295C383.908 48.5237 383.607 48.8317 383.383 49.219C383.163 49.6017 383.054 50.0287 383.054 50.5C383.054 50.9713 383.168 51.4007 383.397 51.788C383.625 52.1707 383.929 52.4763 384.307 52.705C384.685 52.929 385.098 53.041 385.546 53.041ZM391.649 57.5H390.473V47H391.649V48.197C391.887 47.7863 392.204 47.455 392.601 47.203C392.997 46.9463 393.469 46.818 394.015 46.818C394.523 46.818 394.999 46.9137 395.443 47.105C395.891 47.2963 396.283 47.5623 396.619 47.903C396.955 48.239 397.218 48.6287 397.41 49.072C397.601 49.5153 397.697 49.9913 397.697 50.5C397.697 51.0087 397.601 51.487 397.41 51.935C397.218 52.383 396.955 52.7773 396.619 53.118C396.283 53.454 395.891 53.7177 395.443 53.909C394.999 54.1003 394.523 54.196 394.015 54.196C393.469 54.196 392.997 54.07 392.601 53.818C392.204 53.5613 391.887 53.2277 391.649 52.817V57.5ZM394.001 47.959C393.548 47.959 393.151 48.0733 392.811 48.302C392.47 48.5307 392.206 48.8363 392.02 49.219C391.838 49.6017 391.747 50.0287 391.747 50.5C391.747 50.9667 391.838 51.3937 392.02 51.781C392.206 52.1683 392.468 52.4763 392.804 52.705C393.144 52.9337 393.543 53.048 394.001 53.048C394.453 53.048 394.869 52.936 395.247 52.712C395.625 52.4833 395.928 52.1777 396.157 51.795C396.385 51.4077 396.5 50.976 396.5 50.5C396.5 50.0333 396.388 49.6087 396.164 49.226C395.94 48.8387 395.639 48.5307 395.261 48.302C394.883 48.0733 394.463 47.959 394.001 47.959ZM400.043 57.5H398.867V47H400.043V48.197C400.281 47.7863 400.599 47.455 400.995 47.203C401.392 46.9463 401.863 46.818 402.409 46.818C402.918 46.818 403.394 46.9137 403.837 47.105C404.285 47.2963 404.677 47.5623 405.013 47.903C405.349 48.239 405.613 48.6287 405.804 49.072C405.996 49.5153 406.091 49.9913 406.091 50.5C406.091 51.0087 405.996 51.487 405.804 51.935C405.613 52.383 405.349 52.7773 405.013 53.118C404.677 53.454 404.285 53.7177 403.837 53.909C403.394 54.1003 402.918 54.196 402.409 54.196C401.863 54.196 401.392 54.07 400.995 53.818C400.599 53.5613 400.281 53.2277 400.043 52.817V57.5ZM402.395 47.959C401.943 47.959 401.546 48.0733 401.205 48.302C400.865 48.5307 400.601 48.8363 400.414 49.219C400.232 49.6017 400.141 50.0287 400.141 50.5C400.141 50.9667 400.232 51.3937 400.414 51.781C400.601 52.1683 400.862 52.4763 401.198 52.705C401.539 52.9337 401.938 53.048 402.395 53.048C402.848 53.048 403.263 52.936 403.641 52.712C404.019 52.4833 404.323 52.1777 404.551 51.795C404.78 51.4077 404.894 50.976 404.894 50.5C404.894 50.0333 404.782 49.6087 404.558 49.226C404.334 48.8387 404.033 48.5307 403.655 48.302C403.277 48.0733 402.857 47.959 402.395 47.959ZM407.194 54V43.5H408.37V54H407.194ZM410.051 47H411.227V54H410.051V47ZM410.653 45.859C410.466 45.859 410.31 45.7983 410.184 45.677C410.058 45.5557 409.995 45.404 409.995 45.222C409.995 45.04 410.058 44.8883 410.184 44.767C410.31 44.6457 410.464 44.585 410.646 44.585C410.828 44.585 410.982 44.6457 411.108 44.767C411.234 44.8883 411.297 45.04 411.297 45.222C411.297 45.404 411.234 45.5557 411.108 45.677C410.987 45.7983 410.835 45.859 410.653 45.859ZM417.636 52.152L418.686 52.719C418.368 53.1623 417.965 53.517 417.475 53.783C416.989 54.049 416.462 54.182 415.893 54.182C415.249 54.182 414.661 54.0163 414.129 53.685C413.601 53.3537 413.179 52.9103 412.862 52.355C412.549 51.795 412.393 51.1767 412.393 50.5C412.393 49.9867 412.484 49.5083 412.666 49.065C412.848 48.617 413.097 48.225 413.415 47.889C413.737 47.5483 414.11 47.2823 414.535 47.091C414.959 46.8997 415.412 46.804 415.893 46.804C416.462 46.804 416.989 46.937 417.475 47.203C417.965 47.469 418.368 47.826 418.686 48.274L417.636 48.841C417.412 48.5657 417.146 48.3533 416.838 48.204C416.53 48.0547 416.215 47.98 415.893 47.98C415.459 47.98 415.064 48.0967 414.71 48.33C414.36 48.5587 414.082 48.8643 413.877 49.247C413.671 49.6297 413.569 50.0473 413.569 50.5C413.569 50.9527 413.671 51.3703 413.877 51.753C414.087 52.131 414.367 52.4343 414.717 52.663C415.071 52.8917 415.463 53.006 415.893 53.006C416.238 53.006 416.562 52.9267 416.866 52.768C417.169 52.6093 417.426 52.404 417.636 52.152ZM425.454 47H426.63V54H425.454L425.405 52.817C425.186 53.223 424.883 53.552 424.495 53.804C424.113 54.056 423.655 54.182 423.123 54.182C422.61 54.182 422.129 54.0863 421.681 53.895C421.233 53.699 420.837 53.4307 420.491 53.09C420.151 52.7447 419.885 52.348 419.693 51.9C419.502 51.452 419.406 50.969 419.406 50.451C419.406 49.9517 419.5 49.4803 419.686 49.037C419.873 48.5937 420.132 48.2063 420.463 47.875C420.799 47.539 421.187 47.2777 421.625 47.091C422.064 46.8997 422.535 46.804 423.039 46.804C423.59 46.804 424.073 46.9347 424.488 47.196C424.904 47.4527 425.24 47.7863 425.496 48.197L425.454 47ZM423.102 53.041C423.564 53.041 423.963 52.929 424.299 52.705C424.64 52.4763 424.901 52.1683 425.083 51.781C425.27 51.3937 425.363 50.9667 425.363 50.5C425.363 50.024 425.27 49.5947 425.083 49.212C424.897 48.8247 424.633 48.519 424.292 48.295C423.956 48.0663 423.56 47.952 423.102 47.952C422.64 47.952 422.22 48.0663 421.842 48.295C421.464 48.5237 421.163 48.8317 420.939 49.219C420.72 49.6017 420.61 50.0287 420.61 50.5C420.61 50.9713 420.725 51.4007 420.953 51.788C421.182 52.1707 421.485 52.4763 421.863 52.705C422.241 52.929 422.654 53.041 423.102 53.041ZM431.653 46.804C432.335 46.804 432.953 46.9697 433.508 47.301C434.068 47.6323 434.514 48.078 434.845 48.638C435.177 49.1933 435.342 49.8117 435.342 50.493C435.342 51.0017 435.247 51.48 435.055 51.928C434.864 52.3713 434.598 52.7633 434.257 53.104C433.921 53.44 433.529 53.7037 433.081 53.895C432.638 54.0863 432.162 54.182 431.653 54.182C431.112 54.182 430.641 54.056 430.239 53.804C429.843 53.5473 429.525 53.2137 429.287 52.803V54H428.111V43.5H429.287V48.183C429.525 47.7723 429.843 47.441 430.239 47.189C430.641 46.9323 431.112 46.804 431.653 46.804ZM431.639 53.034C432.101 53.034 432.521 52.9197 432.899 52.691C433.277 52.4623 433.578 52.1567 433.802 51.774C434.026 51.3867 434.138 50.9597 434.138 50.493C434.138 50.017 434.024 49.5877 433.795 49.205C433.567 48.8177 433.263 48.512 432.885 48.288C432.507 48.0593 432.092 47.945 431.639 47.945C431.182 47.945 430.783 48.0593 430.442 48.288C430.106 48.5167 429.845 48.8247 429.658 49.212C429.476 49.5993 429.385 50.0263 429.385 50.493C429.385 50.9643 429.476 51.3937 429.658 51.781C429.845 52.1637 430.109 52.4693 430.449 52.698C430.79 52.922 431.187 53.034 431.639 53.034ZM436.438 54V43.5H437.614V54H436.438ZM442.307 54.182C441.663 54.182 441.075 54.0163 440.543 53.685C440.015 53.3537 439.593 52.9103 439.276 52.355C438.963 51.795 438.807 51.1767 438.807 50.5C438.807 49.9867 438.898 49.5083 439.08 49.065C439.262 48.617 439.511 48.225 439.829 47.889C440.151 47.5483 440.524 47.2823 440.949 47.091C441.373 46.8997 441.826 46.804 442.307 46.804C442.834 46.804 443.317 46.9113 443.756 47.126C444.199 47.336 444.577 47.63 444.89 48.008C445.207 48.386 445.443 48.8247 445.597 49.324C445.755 49.8233 445.814 50.3577 445.772 50.927H440.06C440.116 51.3237 440.246 51.6783 440.452 51.991C440.657 52.299 440.918 52.544 441.236 52.726C441.558 52.908 441.915 53.0013 442.307 53.006C442.727 53.006 443.107 52.8987 443.448 52.684C443.788 52.4647 444.064 52.166 444.274 51.788L445.471 52.068C445.191 52.6887 444.768 53.1973 444.204 53.594C443.639 53.986 443.007 54.182 442.307 54.182ZM440.025 50.003H444.589C444.551 49.611 444.425 49.254 444.211 48.932C443.996 48.6053 443.723 48.344 443.392 48.148C443.06 47.952 442.699 47.854 442.307 47.854C441.915 47.854 441.555 47.9497 441.229 48.141C440.902 48.3323 440.631 48.5913 440.417 48.918C440.207 49.24 440.076 49.6017 440.025 50.003Z" fill="#999999"></path></g><defs><clipPath id="clip0_166_1137"><rect width="462.5" height="66" fill="white"></rect></clipPath></defs></svg>