<svg xmlns="http://www.w3.org/2000/svg" width="550" height="52" viewBox="0 0 550 52" fill="none"><mask id="path-1-inside-1_166_866" fill="white"><path d="M0 0H550V52H0V0Z"></path></mask><path d="M0 0H550V52H0V0Z" fill="url(#paint0_linear_166_866)"></path><path d="M1 52V0H-1V52H1Z" fill="#703BF7" mask="url(#path-1-inside-1_166_866)"></path><path fill-rule="evenodd" clip-rule="evenodd" d="M28.1794 17.3291C28.4304 17.4691 28.5536 17.7622 28.478 18.0395L26.8183 24.125H32.875C33.1239 24.125 33.349 24.2727 33.4482 24.5009C33.5474 24.7292 33.5017 24.9945 33.3319 25.1765L24.5819 34.5515C24.3858 34.7616 24.0717 34.8109 23.8207 34.6709C23.5696 34.5309 23.4464 34.2378 23.522 33.9606L25.1817 27.875H19.125C18.8761 27.875 18.651 27.7274 18.5518 27.4991C18.4526 27.2708 18.4983 27.0055 18.6681 26.8236L27.4181 17.4486C27.6142 17.2384 27.9283 17.1892 28.1794 17.3291Z" fill="white"></path><path d="M46.96 32V20.8H50.656C51.2587 20.8 51.8 20.9467 52.28 21.24C52.7653 21.5333 53.1493 21.9307 53.432 22.432C53.72 22.928 53.864 23.4827 53.864 24.096C53.864 24.72 53.7173 25.2827 53.424 25.784C53.136 26.28 52.7467 26.6747 52.256 26.968C51.7707 27.256 51.2373 27.4 50.656 27.4H48.304V32H46.96ZM48.304 26.056H50.536C50.8987 26.056 51.2293 25.968 51.528 25.792C51.832 25.6107 52.072 25.368 52.248 25.064C52.4293 24.7547 52.52 24.408 52.52 24.024C52.52 23.6347 52.4293 23.288 52.248 22.984C52.072 22.6747 51.832 22.432 51.528 22.256C51.2293 22.0747 50.8987 21.984 50.536 21.984H48.304V26.056ZM55.2413 32V24H56.5853V25C56.8679 24.6267 57.2253 24.3307 57.6573 24.112C58.0893 23.888 58.5586 23.776 59.0653 23.776C59.3746 23.776 59.6733 23.816 59.9613 23.896L59.4173 25.24C59.1986 25.1707 58.9853 25.136 58.7773 25.136C58.3773 25.136 58.0093 25.2347 57.6733 25.432C57.3426 25.624 57.0786 25.8853 56.8813 26.216C56.6839 26.5467 56.5853 26.9147 56.5853 27.32V32H55.2413ZM60.9444 24H62.2884V32H60.9444V24ZM61.6324 22.696C61.419 22.696 61.2404 22.6267 61.0964 22.488C60.9524 22.3493 60.8804 22.176 60.8804 21.968C60.8804 21.76 60.9524 21.5867 61.0964 21.448C61.2404 21.3093 61.4164 21.24 61.6244 21.24C61.8324 21.24 62.0084 21.3093 62.1524 21.448C62.2964 21.5867 62.3684 21.76 62.3684 21.968C62.3684 22.176 62.2964 22.3493 62.1524 22.488C62.0137 22.6267 61.8404 22.696 61.6324 22.696ZM68.2294 32H66.5094L63.5894 23.984H65.0214L67.3654 30.44L69.7094 23.984H71.1414L68.2294 32ZM78.5483 24H79.8923V32H78.5483L78.4923 30.648C78.2416 31.112 77.8949 31.488 77.4523 31.776C77.0149 32.064 76.4923 32.208 75.8843 32.208C75.2976 32.208 74.7483 32.0987 74.2363 31.88C73.7243 31.656 73.2709 31.3493 72.8763 30.96C72.4869 30.5653 72.1829 30.112 71.9643 29.6C71.7456 29.088 71.6363 28.536 71.6363 27.944C71.6363 27.3733 71.7429 26.8347 71.9563 26.328C72.1696 25.8213 72.4656 25.3787 72.8443 25C73.2283 24.616 73.6709 24.3173 74.1723 24.104C74.6736 23.8853 75.2123 23.776 75.7883 23.776C76.4176 23.776 76.9696 23.9253 77.4443 24.224C77.9189 24.5173 78.3029 24.8987 78.5963 25.368L78.5483 24ZM75.8602 30.904C76.3883 30.904 76.8443 30.776 77.2283 30.52C77.6176 30.2587 77.9163 29.9067 78.1243 29.464C78.3376 29.0213 78.4443 28.5333 78.4443 28C78.4443 27.456 78.3376 26.9653 78.1243 26.528C77.9109 26.0853 77.6096 25.736 77.2203 25.48C76.8363 25.2187 76.3829 25.088 75.8602 25.088C75.3323 25.088 74.8523 25.2187 74.4203 25.48C73.9883 25.7413 73.6443 26.0933 73.3883 26.536C73.1376 26.9733 73.0123 27.4613 73.0123 28C73.0123 28.5387 73.1429 29.0293 73.4043 29.472C73.6656 29.9093 74.0123 30.2587 74.4443 30.52C74.8763 30.776 75.3483 30.904 75.8602 30.904ZM85.6353 25.344H83.8193L83.8113 32H82.4673L82.4753 25.344H81.0993V24H82.4753L82.4673 21.488H83.8113L83.8193 24H85.6353V25.344ZM90.3863 32.208C89.6503 32.208 88.9783 32.0187 88.3703 31.64C87.7676 31.2613 87.2849 30.7547 86.9223 30.12C86.5649 29.48 86.3863 28.7733 86.3863 28C86.3863 27.4133 86.4903 26.8667 86.6983 26.36C86.9063 25.848 87.1916 25.4 87.5543 25.016C87.9223 24.6267 88.3489 24.3227 88.8343 24.104C89.3196 23.8853 89.8369 23.776 90.3863 23.776C90.9889 23.776 91.5409 23.8987 92.0423 24.144C92.5489 24.384 92.9809 24.72 93.3383 25.152C93.7009 25.584 93.9703 26.0853 94.1463 26.656C94.3276 27.2267 94.3943 27.8373 94.3463 28.488H87.8183C87.8823 28.9413 88.0316 29.3467 88.2663 29.704C88.5009 30.056 88.7996 30.336 89.1623 30.544C89.5303 30.752 89.9383 30.8587 90.3863 30.864C90.8663 30.864 91.3009 30.7413 91.6903 30.496C92.0796 30.2453 92.3943 29.904 92.6343 29.472L94.0023 29.792C93.6823 30.5013 93.1996 31.0827 92.5543 31.536C91.9089 31.984 91.1863 32.208 90.3863 32.208ZM87.7783 27.432H92.9943C92.9516 26.984 92.8076 26.576 92.5623 26.208C92.3169 25.8347 92.0049 25.536 91.6263 25.312C91.2476 25.088 90.8343 24.976 90.3863 24.976C89.9383 24.976 89.5276 25.0853 89.1543 25.304C88.7809 25.5227 88.4716 25.8187 88.2263 26.192C87.9863 26.56 87.8369 26.9733 87.7783 27.432ZM105.896 24H107.24V32.256C107.24 32.784 107.125 33.2747 106.896 33.728C106.672 34.1867 106.368 34.584 105.984 34.92C105.6 35.2613 105.162 35.5253 104.672 35.712C104.181 35.904 103.669 36 103.136 36C102.581 36 102.045 35.8747 101.528 35.624C101.01 35.3787 100.557 35.048 100.168 34.632C99.7835 34.2213 99.5062 33.76 99.3355 33.248L100.568 32.688C100.669 33.056 100.85 33.3867 101.112 33.68C101.378 33.9787 101.688 34.2133 102.04 34.384C102.397 34.56 102.762 34.648 103.136 34.648C103.488 34.648 103.826 34.5867 104.152 34.464C104.482 34.3413 104.778 34.1707 105.04 33.952C105.306 33.7387 105.514 33.4853 105.664 33.192C105.818 32.904 105.896 32.592 105.896 32.256V30.664C105.624 31.1227 105.264 31.496 104.816 31.784C104.373 32.0667 103.856 32.208 103.264 32.208C102.698 32.208 102.168 32.0987 101.672 31.88C101.176 31.6613 100.741 31.36 100.368 30.976C99.9942 30.5867 99.7008 30.1387 99.4875 29.632C99.2742 29.1253 99.1675 28.5813 99.1675 28C99.1675 27.4187 99.2742 26.8747 99.4875 26.368C99.7008 25.856 99.9942 25.408 100.368 25.024C100.741 24.6347 101.176 24.3307 101.672 24.112C102.168 23.8933 102.698 23.784 103.264 23.784C103.856 23.784 104.373 23.9253 104.816 24.208C105.264 24.4907 105.624 24.864 105.896 25.328V24ZM103.272 30.904C103.789 30.904 104.237 30.7707 104.616 30.504C105 30.2373 105.296 29.8827 105.504 29.44C105.712 28.9973 105.816 28.5173 105.816 28C105.816 27.4667 105.709 26.9813 105.496 26.544C105.288 26.1013 104.992 25.7493 104.608 25.488C104.229 25.2213 103.784 25.088 103.272 25.088C102.77 25.088 102.312 25.2187 101.896 25.48C101.48 25.7413 101.149 26.0933 100.904 26.536C100.664 26.9733 100.544 27.4613 100.544 28C100.544 28.5387 100.666 29.0293 100.912 29.472C101.162 29.9093 101.493 30.2587 101.904 30.52C102.32 30.776 102.776 30.904 103.272 30.904ZM115.486 24H116.83V32H115.486L115.43 30.648C115.179 31.112 114.832 31.488 114.39 31.776C113.952 32.064 113.43 32.208 112.822 32.208C112.235 32.208 111.686 32.0987 111.174 31.88C110.662 31.656 110.208 31.3493 109.814 30.96C109.424 30.5653 109.12 30.112 108.902 29.6C108.683 29.088 108.574 28.536 108.574 27.944C108.574 27.3733 108.68 26.8347 108.894 26.328C109.107 25.8213 109.403 25.3787 109.782 25C110.166 24.616 110.608 24.3173 111.11 24.104C111.611 23.8853 112.15 23.776 112.726 23.776C113.355 23.776 113.907 23.9253 114.382 24.224C114.856 24.5173 115.24 24.8987 115.534 25.368L115.486 24ZM112.798 30.904C113.326 30.904 113.782 30.776 114.166 30.52C114.555 30.2587 114.854 29.9067 115.062 29.464C115.275 29.0213 115.382 28.5333 115.382 28C115.382 27.456 115.275 26.9653 115.062 26.528C114.848 26.0853 114.547 25.736 114.158 25.48C113.774 25.2187 113.32 25.088 112.798 25.088C112.27 25.088 111.79 25.2187 111.358 25.48C110.926 25.7413 110.582 26.0933 110.326 26.536C110.075 26.9733 109.95 27.4613 109.95 28C109.95 28.5387 110.08 29.0293 110.342 29.472C110.603 29.9093 110.95 30.2587 111.382 30.52C111.814 30.776 112.286 30.904 112.798 30.904ZM118.429 32V24H119.773V25C120.055 24.6267 120.413 24.3307 120.845 24.112C121.277 23.888 121.746 23.776 122.253 23.776C122.562 23.776 122.861 23.816 123.149 23.896L122.605 25.24C122.386 25.1707 122.173 25.136 121.965 25.136C121.565 25.136 121.197 25.2347 120.861 25.432C120.53 25.624 120.266 25.8853 120.069 26.216C119.871 26.5467 119.773 26.9147 119.773 27.32V32H118.429ZM130.158 24H131.502V32H130.158L130.102 30.648C129.851 31.112 129.504 31.488 129.062 31.776C128.624 32.064 128.102 32.208 127.494 32.208C126.907 32.208 126.358 32.0987 125.846 31.88C125.334 31.656 124.88 31.3493 124.486 30.96C124.096 30.5653 123.792 30.112 123.574 29.6C123.355 29.088 123.246 28.536 123.246 27.944C123.246 27.3733 123.352 26.8347 123.566 26.328C123.779 25.8213 124.075 25.3787 124.454 25C124.838 24.616 125.28 24.3173 125.782 24.104C126.283 23.8853 126.822 23.776 127.398 23.776C128.027 23.776 128.579 23.9253 129.054 24.224C129.528 24.5173 129.912 24.8987 130.206 25.368L130.158 24ZM127.47 30.904C127.998 30.904 128.454 30.776 128.838 30.52C129.227 30.2587 129.526 29.9067 129.734 29.464C129.947 29.0213 130.054 28.5333 130.054 28C130.054 27.456 129.947 26.9653 129.734 26.528C129.52 26.0853 129.219 25.736 128.83 25.48C128.446 25.2187 127.992 25.088 127.47 25.088C126.942 25.088 126.462 25.2187 126.03 25.48C125.598 25.7413 125.254 26.0933 124.998 26.536C124.747 26.9733 124.622 27.4613 124.622 28C124.622 28.5387 124.752 29.0293 125.014 29.472C125.275 29.9093 125.622 30.2587 126.054 30.52C126.486 30.776 126.958 30.904 127.47 30.904ZM139.192 24H140.536V32.256C140.536 32.784 140.422 33.2747 140.192 33.728C139.968 34.1867 139.664 34.584 139.28 34.92C138.896 35.2613 138.459 35.5253 137.968 35.712C137.478 35.904 136.966 36 136.432 36C135.878 36 135.342 35.8747 134.824 35.624C134.307 35.3787 133.854 35.048 133.464 34.632C133.08 34.2213 132.803 33.76 132.632 33.248L133.864 32.688C133.966 33.056 134.147 33.3867 134.408 33.68C134.675 33.9787 134.984 34.2133 135.336 34.384C135.694 34.56 136.059 34.648 136.432 34.648C136.784 34.648 137.123 34.5867 137.448 34.464C137.779 34.3413 138.075 34.1707 138.336 33.952C138.603 33.7387 138.811 33.4853 138.96 33.192C139.115 32.904 139.192 32.592 139.192 32.256V30.664C138.92 31.1227 138.56 31.496 138.112 31.784C137.67 32.0667 137.152 32.208 136.56 32.208C135.995 32.208 135.464 32.0987 134.968 31.88C134.472 31.6613 134.038 31.36 133.664 30.976C133.291 30.5867 132.998 30.1387 132.784 29.632C132.571 29.1253 132.464 28.5813 132.464 28C132.464 27.4187 132.571 26.8747 132.784 26.368C132.998 25.856 133.291 25.408 133.664 25.024C134.038 24.6347 134.472 24.3307 134.968 24.112C135.464 23.8933 135.995 23.784 136.56 23.784C137.152 23.784 137.67 23.9253 138.112 24.208C138.56 24.4907 138.92 24.864 139.192 25.328V24ZM136.568 30.904C137.086 30.904 137.534 30.7707 137.912 30.504C138.296 30.2373 138.592 29.8827 138.8 29.44C139.008 28.9973 139.112 28.5173 139.112 28C139.112 27.4667 139.006 26.9813 138.792 26.544C138.584 26.1013 138.288 25.7493 137.904 25.488C137.526 25.2213 137.08 25.088 136.568 25.088C136.067 25.088 135.608 25.2187 135.192 25.48C134.776 25.7413 134.446 26.0933 134.2 26.536C133.96 26.9733 133.84 27.4613 133.84 28C133.84 28.5387 133.963 29.0293 134.208 29.472C134.459 29.9093 134.79 30.2587 135.2 30.52C135.616 30.776 136.072 30.904 136.568 30.904ZM145.871 32.208C145.135 32.208 144.463 32.0187 143.855 31.64C143.252 31.2613 142.769 30.7547 142.407 30.12C142.049 29.48 141.871 28.7733 141.871 28C141.871 27.4133 141.975 26.8667 142.183 26.36C142.391 25.848 142.676 25.4 143.039 25.016C143.407 24.6267 143.833 24.3227 144.319 24.104C144.804 23.8853 145.321 23.776 145.871 23.776C146.473 23.776 147.025 23.8987 147.527 24.144C148.033 24.384 148.465 24.72 148.823 25.152C149.185 25.584 149.455 26.0853 149.631 26.656C149.812 27.2267 149.879 27.8373 149.831 28.488H143.303C143.367 28.9413 143.516 29.3467 143.751 29.704C143.985 30.056 144.284 30.336 144.647 30.544C145.015 30.752 145.423 30.8587 145.871 30.864C146.351 30.864 146.785 30.7413 147.175 30.496C147.564 30.2453 147.879 29.904 148.119 29.472L149.487 29.792C149.167 30.5013 148.684 31.0827 148.039 31.536C147.393 31.984 146.671 32.208 145.871 32.208ZM143.263 27.432H148.479C148.436 26.984 148.292 26.576 148.047 26.208C147.801 25.8347 147.489 25.536 147.111 25.312C146.732 25.088 146.319 24.976 145.871 24.976C145.423 24.976 145.012 25.0853 144.639 25.304C144.265 25.5227 143.956 25.8187 143.711 26.192C143.471 26.56 143.321 26.9733 143.263 27.432ZM161.564 24H162.908V32H161.564L161.508 30.648C161.257 31.112 160.911 31.488 160.468 31.776C160.031 32.064 159.508 32.208 158.9 32.208C158.313 32.208 157.764 32.0987 157.252 31.88C156.74 31.656 156.287 31.3493 155.892 30.96C155.503 30.5653 155.199 30.112 154.98 29.6C154.761 29.088 154.652 28.536 154.652 27.944C154.652 27.3733 154.759 26.8347 154.972 26.328C155.185 25.8213 155.481 25.3787 155.86 25C156.244 24.616 156.687 24.3173 157.188 24.104C157.689 23.8853 158.228 23.776 158.804 23.776C159.433 23.776 159.985 23.9253 160.46 24.224C160.935 24.5173 161.319 24.8987 161.612 25.368L161.564 24ZM158.876 30.904C159.404 30.904 159.86 30.776 160.244 30.52C160.633 30.2587 160.932 29.9067 161.14 29.464C161.353 29.0213 161.46 28.5333 161.46 28C161.46 27.456 161.353 26.9653 161.14 26.528C160.927 26.0853 160.625 25.736 160.236 25.48C159.852 25.2187 159.399 25.088 158.876 25.088C158.348 25.088 157.868 25.2187 157.436 25.48C157.004 25.7413 156.66 26.0933 156.404 26.536C156.153 26.9733 156.028 27.4613 156.028 28C156.028 28.5387 156.159 29.0293 156.42 29.472C156.681 29.9093 157.028 30.2587 157.46 30.52C157.892 30.776 158.364 30.904 158.876 30.904ZM171.579 27.024V32H170.235V27.32C170.235 26.9147 170.136 26.5467 169.939 26.216C169.742 25.8853 169.478 25.624 169.147 25.432C168.816 25.2347 168.448 25.136 168.043 25.136C167.643 25.136 167.275 25.2347 166.939 25.432C166.608 25.624 166.344 25.8853 166.147 26.216C165.95 26.5467 165.851 26.9147 165.851 27.32V32H164.507V24H165.851V25C166.134 24.6267 166.491 24.3307 166.923 24.112C167.355 23.888 167.824 23.776 168.331 23.776C168.928 23.776 169.472 23.9227 169.963 24.216C170.459 24.504 170.851 24.8933 171.139 25.384C171.432 25.8747 171.579 26.4213 171.579 27.024ZM179.463 20H180.807V32H179.463V30.64C179.191 31.1093 178.825 31.488 178.367 31.776C177.908 32.064 177.369 32.208 176.751 32.208C176.169 32.208 175.625 32.0987 175.119 31.88C174.612 31.6613 174.164 31.36 173.775 30.976C173.391 30.5867 173.089 30.1387 172.871 29.632C172.652 29.1253 172.543 28.5813 172.543 28C172.543 27.4187 172.652 26.8747 172.871 26.368C173.089 25.856 173.391 25.408 173.775 25.024C174.164 24.6347 174.612 24.3307 175.119 24.112C175.625 23.8933 176.169 23.784 176.751 23.784C177.369 23.784 177.908 23.928 178.367 24.216C178.825 24.504 179.191 24.8827 179.463 25.352V20ZM176.766 30.904C177.295 30.904 177.751 30.776 178.135 30.52C178.524 30.2587 178.823 29.9067 179.031 29.464C179.244 29.0213 179.351 28.5333 179.351 28C179.351 27.456 179.244 26.9653 179.031 26.528C178.817 26.0853 178.516 25.736 178.127 25.48C177.743 25.2187 177.289 25.088 176.766 25.088C176.239 25.088 175.759 25.2187 175.327 25.48C174.9 25.7413 174.559 26.0933 174.303 26.536C174.047 26.9733 173.919 27.4613 173.919 28C173.919 28.5387 174.049 29.0293 174.311 29.472C174.572 29.9093 174.919 30.2587 175.351 30.52C175.783 30.776 176.255 30.904 176.766 30.904ZM193.001 24H194.345V32H193.001L192.945 30.648C192.695 31.112 192.348 31.488 191.905 31.776C191.468 32.064 190.945 32.208 190.337 32.208C189.751 32.208 189.201 32.0987 188.689 31.88C188.177 31.656 187.724 31.3493 187.329 30.96C186.94 30.5653 186.636 30.112 186.417 29.6C186.199 29.088 186.089 28.536 186.089 27.944C186.089 27.3733 186.196 26.8347 186.409 26.328C186.623 25.8213 186.919 25.3787 187.297 25C187.681 24.616 188.124 24.3173 188.625 24.104C189.127 23.8853 189.665 23.776 190.241 23.776C190.871 23.776 191.423 23.9253 191.897 24.224C192.372 24.5173 192.756 24.8987 193.049 25.368L193.001 24ZM190.313 30.904C190.841 30.904 191.297 30.776 191.681 30.52C192.071 30.2587 192.369 29.9067 192.577 29.464C192.791 29.0213 192.897 28.5333 192.897 28C192.897 27.456 192.791 26.9653 192.577 26.528C192.364 26.0853 192.063 25.736 191.673 25.48C191.289 25.2187 190.836 25.088 190.313 25.088C189.785 25.088 189.305 25.2187 188.873 25.48C188.441 25.7413 188.097 26.0933 187.841 26.536C187.591 26.9733 187.465 27.4613 187.465 28C187.465 28.5387 187.596 29.0293 187.857 29.472C188.119 29.9093 188.465 30.2587 188.897 30.52C189.329 30.776 189.801 30.904 190.313 30.904ZM195.944 32V24H197.288V25C197.571 24.6267 197.926 24.3307 198.352 24.112C198.784 23.888 199.254 23.776 199.76 23.776C200.352 23.776 200.894 23.92 201.384 24.208C201.875 24.496 202.262 24.8773 202.544 25.352C202.827 24.8773 203.211 24.496 203.696 24.208C204.187 23.92 204.726 23.776 205.312 23.776C205.915 23.776 206.462 23.9227 206.952 24.216C207.443 24.504 207.832 24.8933 208.12 25.384C208.414 25.8747 208.56 26.4213 208.56 27.024V32H207.216V27.344C207.216 26.9493 207.12 26.584 206.928 26.248C206.736 25.912 206.478 25.6427 206.152 25.44C205.827 25.2373 205.467 25.136 205.072 25.136C204.678 25.136 204.318 25.232 203.992 25.424C203.667 25.6107 203.408 25.872 203.216 26.208C203.024 26.5387 202.928 26.9173 202.928 27.344V32H201.584V27.344C201.584 26.9173 201.488 26.5387 201.296 26.208C201.104 25.872 200.843 25.6107 200.512 25.424C200.187 25.232 199.827 25.136 199.432 25.136C199.043 25.136 198.683 25.2373 198.352 25.44C198.027 25.6427 197.768 25.912 197.576 26.248C197.384 26.584 197.288 26.9493 197.288 27.344V32H195.944ZM211.507 36H210.163V24H211.507V25.368C211.779 24.8987 212.142 24.52 212.595 24.232C213.048 23.9387 213.587 23.792 214.211 23.792C214.792 23.792 215.336 23.9013 215.843 24.12C216.355 24.3387 216.803 24.6427 217.187 25.032C217.571 25.416 217.872 25.8613 218.091 26.368C218.31 26.8747 218.419 27.4187 218.419 28C218.419 28.5813 218.31 29.128 218.091 29.64C217.872 30.152 217.571 30.6027 217.187 30.992C216.803 31.376 216.355 31.6773 215.843 31.896C215.336 32.1147 214.792 32.224 214.211 32.224C213.587 32.224 213.048 32.08 212.595 31.792C212.142 31.4987 211.779 31.1173 211.507 30.648V36ZM214.195 25.096C213.678 25.096 213.224 25.2267 212.835 25.488C212.446 25.7493 212.144 26.0987 211.931 26.536C211.723 26.9733 211.619 27.4613 211.619 28C211.619 28.5333 211.723 29.0213 211.931 29.464C212.144 29.9067 212.443 30.2587 212.827 30.52C213.216 30.7813 213.672 30.912 214.195 30.912C214.712 30.912 215.187 30.784 215.619 30.528C216.051 30.2667 216.398 29.9173 216.659 29.48C216.92 29.0373 217.051 28.544 217.051 28C217.051 27.4667 216.923 26.9813 216.667 26.544C216.411 26.1013 216.067 25.7493 215.635 25.488C215.203 25.2267 214.723 25.096 214.195 25.096ZM219.679 32V20H221.023V32H219.679ZM226.386 32.208C225.65 32.208 224.978 32.0187 224.37 31.64C223.768 31.2613 223.285 30.7547 222.922 30.12C222.565 29.48 222.386 28.7733 222.386 28C222.386 27.4133 222.49 26.8667 222.698 26.36C222.906 25.848 223.192 25.4 223.554 25.016C223.922 24.6267 224.349 24.3227 224.834 24.104C225.32 23.8853 225.837 23.776 226.386 23.776C226.989 23.776 227.541 23.8987 228.042 24.144C228.549 24.384 228.981 24.72 229.338 25.152C229.701 25.584 229.97 26.0853 230.146 26.656C230.328 27.2267 230.394 27.8373 230.346 28.488H223.818C223.882 28.9413 224.032 29.3467 224.266 29.704C224.501 30.056 224.8 30.336 225.162 30.544C225.53 30.752 225.938 30.8587 226.386 30.864C226.866 30.864 227.301 30.7413 227.69 30.496C228.08 30.2453 228.394 29.904 228.634 29.472L230.002 29.792C229.682 30.5013 229.2 31.0827 228.554 31.536C227.909 31.984 227.186 32.208 226.386 32.208ZM223.778 27.432H228.994C228.952 26.984 228.808 26.576 228.562 26.208C228.317 25.8347 228.005 25.536 227.626 25.312C227.248 25.088 226.834 24.976 226.386 24.976C225.938 24.976 225.528 25.0853 225.154 25.304C224.781 25.5227 224.472 25.8187 224.226 26.192C223.986 26.56 223.837 26.9733 223.778 27.432ZM238.088 32.152C237.656 32.136 237.234 32.056 236.824 31.912C236.418 31.7627 236.061 31.5627 235.752 31.312C235.448 31.056 235.226 30.7627 235.088 30.432L236.24 29.936C236.32 30.1173 236.464 30.288 236.672 30.448C236.88 30.608 237.12 30.736 237.392 30.832C237.664 30.928 237.938 30.976 238.216 30.976C238.509 30.976 238.784 30.9307 239.04 30.84C239.296 30.7493 239.504 30.616 239.664 30.44C239.829 30.2587 239.912 30.0427 239.912 29.792C239.912 29.5253 239.821 29.3173 239.64 29.168C239.464 29.0133 239.24 28.8933 238.968 28.808C238.701 28.7173 238.429 28.632 238.152 28.552C237.602 28.4133 237.112 28.248 236.68 28.056C236.248 27.8587 235.906 27.6107 235.656 27.312C235.41 27.008 235.288 26.6213 235.288 26.152C235.288 25.656 235.424 25.2267 235.696 24.864C235.973 24.5013 236.336 24.2213 236.784 24.024C237.232 23.8267 237.712 23.728 238.224 23.728C238.869 23.728 239.458 23.8667 239.992 24.144C240.525 24.4213 240.922 24.7973 241.184 25.272L240.104 25.904C240.013 25.712 239.874 25.544 239.688 25.4C239.501 25.2507 239.288 25.1333 239.048 25.048C238.808 24.9627 238.562 24.9173 238.312 24.912C238.002 24.9013 237.712 24.9413 237.44 25.032C237.173 25.1227 236.957 25.2613 236.792 25.448C236.632 25.6293 236.552 25.856 236.552 26.128C236.552 26.3947 236.637 26.5973 236.808 26.736C236.984 26.8747 237.21 26.9867 237.488 27.072C237.77 27.152 238.077 27.2453 238.408 27.352C238.893 27.5067 239.346 27.6853 239.768 27.888C240.189 28.0907 240.528 28.344 240.784 28.648C241.045 28.952 241.173 29.328 241.168 29.776C241.168 30.2667 241.021 30.696 240.728 31.064C240.434 31.4267 240.053 31.704 239.584 31.896C239.12 32.088 238.621 32.1733 238.088 32.152ZM246.682 25.344H244.866L244.858 32H243.514L243.522 25.344H242.146V24H243.522L243.514 21.488H244.858L244.866 24H246.682V25.344ZM251.433 32.208C250.697 32.208 250.025 32.0187 249.417 31.64C248.814 31.2613 248.332 30.7547 247.969 30.12C247.612 29.48 247.433 28.7733 247.433 28C247.433 27.4133 247.537 26.8667 247.745 26.36C247.953 25.848 248.238 25.4 248.601 25.016C248.969 24.6267 249.396 24.3227 249.881 24.104C250.366 23.8853 250.884 23.776 251.433 23.776C252.169 23.776 252.838 23.9653 253.441 24.344C254.049 24.7227 254.532 25.232 254.889 25.872C255.252 26.512 255.433 27.2213 255.433 28C255.433 28.5813 255.329 29.1253 255.121 29.632C254.913 30.1387 254.625 30.5867 254.257 30.976C253.894 31.36 253.47 31.6613 252.985 31.88C252.505 32.0987 251.988 32.208 251.433 32.208ZM251.433 30.864C251.934 30.864 252.385 30.7333 252.785 30.472C253.19 30.2053 253.508 29.856 253.737 29.424C253.972 28.9867 254.089 28.512 254.089 28C254.089 27.4773 253.969 26.9973 253.729 26.56C253.494 26.1227 253.177 25.7733 252.777 25.512C252.377 25.2507 251.929 25.12 251.433 25.12C250.932 25.12 250.481 25.2533 250.081 25.52C249.681 25.7813 249.364 26.1307 249.129 26.568C248.894 27.0053 248.777 27.4827 248.777 28C248.777 28.5333 248.897 29.0187 249.137 29.456C249.377 29.888 249.7 30.232 250.105 30.488C250.51 30.7387 250.953 30.864 251.433 30.864ZM256.757 32V24H258.101V25C258.384 24.6267 258.741 24.3307 259.173 24.112C259.605 23.888 260.074 23.776 260.581 23.776C260.89 23.776 261.189 23.816 261.477 23.896L260.933 25.24C260.714 25.1707 260.501 25.136 260.293 25.136C259.893 25.136 259.525 25.2347 259.189 25.432C258.858 25.624 258.594 25.8853 258.397 26.216C258.2 26.5467 258.101 26.9147 258.101 27.32V32H256.757ZM268.486 24H269.83V32H268.486L268.43 30.648C268.179 31.112 267.832 31.488 267.39 31.776C266.952 32.064 266.43 32.208 265.822 32.208C265.235 32.208 264.686 32.0987 264.174 31.88C263.662 31.656 263.208 31.3493 262.814 30.96C262.424 30.5653 262.12 30.112 261.902 29.6C261.683 29.088 261.574 28.536 261.574 27.944C261.574 27.3733 261.68 26.8347 261.894 26.328C262.107 25.8213 262.403 25.3787 262.782 25C263.166 24.616 263.608 24.3173 264.11 24.104C264.611 23.8853 265.15 23.776 265.726 23.776C266.355 23.776 266.907 23.9253 267.382 24.224C267.856 24.5173 268.24 24.8987 268.534 25.368L268.486 24ZM265.798 30.904C266.326 30.904 266.782 30.776 267.166 30.52C267.555 30.2587 267.854 29.9067 268.062 29.464C268.275 29.0213 268.382 28.5333 268.382 28C268.382 27.456 268.275 26.9653 268.062 26.528C267.848 26.0853 267.547 25.736 267.158 25.48C266.774 25.2187 266.32 25.088 265.798 25.088C265.27 25.088 264.79 25.2187 264.358 25.48C263.926 25.7413 263.582 26.0933 263.326 26.536C263.075 26.9733 262.95 27.4613 262.95 28C262.95 28.5387 263.08 29.0293 263.342 29.472C263.603 29.9093 263.95 30.2587 264.382 30.52C264.814 30.776 265.286 30.904 265.798 30.904ZM277.521 24H278.865V32.256C278.865 32.784 278.75 33.2747 278.521 33.728C278.297 34.1867 277.993 34.584 277.609 34.92C277.225 35.2613 276.787 35.5253 276.297 35.712C275.806 35.904 275.294 36 274.761 36C274.206 36 273.67 35.8747 273.153 35.624C272.635 35.3787 272.182 35.048 271.793 34.632C271.409 34.2213 271.131 33.76 270.961 33.248L272.193 32.688C272.294 33.056 272.475 33.3867 272.737 33.68C273.003 33.9787 273.313 34.2133 273.665 34.384C274.022 34.56 274.387 34.648 274.761 34.648C275.113 34.648 275.451 34.5867 275.777 34.464C276.107 34.3413 276.403 34.1707 276.665 33.952C276.931 33.7387 277.139 33.4853 277.289 33.192C277.443 32.904 277.521 32.592 277.521 32.256V30.664C277.249 31.1227 276.889 31.496 276.441 31.784C275.998 32.0667 275.481 32.208 274.889 32.208C274.323 32.208 273.793 32.0987 273.297 31.88C272.801 31.6613 272.366 31.36 271.993 30.976C271.619 30.5867 271.326 30.1387 271.113 29.632C270.899 29.1253 270.793 28.5813 270.793 28C270.793 27.4187 270.899 26.8747 271.113 26.368C271.326 25.856 271.619 25.408 271.993 25.024C272.366 24.6347 272.801 24.3307 273.297 24.112C273.793 23.8933 274.323 23.784 274.889 23.784C275.481 23.784 275.998 23.9253 276.441 24.208C276.889 24.4907 277.249 24.864 277.521 25.328V24ZM274.897 30.904C275.414 30.904 275.862 30.7707 276.241 30.504C276.625 30.2373 276.921 29.8827 277.129 29.44C277.337 28.9973 277.441 28.5173 277.441 28C277.441 27.4667 277.334 26.9813 277.121 26.544C276.913 26.1013 276.617 25.7493 276.233 25.488C275.854 25.2213 275.409 25.088 274.897 25.088C274.395 25.088 273.937 25.2187 273.521 25.48C273.105 25.7413 272.774 26.0933 272.529 26.536C272.289 26.9733 272.169 27.4613 272.169 28C272.169 28.5387 272.291 29.0293 272.537 29.472C272.787 29.9093 273.118 30.2587 273.529 30.52C273.945 30.776 274.401 30.904 274.897 30.904ZM284.199 32.208C283.463 32.208 282.791 32.0187 282.183 31.64C281.58 31.2613 281.097 30.7547 280.735 30.12C280.377 29.48 280.199 28.7733 280.199 28C280.199 27.4133 280.303 26.8667 280.511 26.36C280.719 25.848 281.004 25.4 281.367 25.016C281.735 24.6267 282.161 24.3227 282.647 24.104C283.132 23.8853 283.649 23.776 284.199 23.776C284.801 23.776 285.353 23.8987 285.855 24.144C286.361 24.384 286.793 24.72 287.151 25.152C287.513 25.584 287.783 26.0853 287.959 26.656C288.14 27.2267 288.207 27.8373 288.159 28.488H281.631C281.695 28.9413 281.844 29.3467 282.079 29.704C282.313 30.056 282.612 30.336 282.975 30.544C283.343 30.752 283.751 30.8587 284.199 30.864C284.679 30.864 285.113 30.7413 285.503 30.496C285.892 30.2453 286.207 29.904 286.447 29.472L287.815 29.792C287.495 30.5013 287.012 31.0827 286.367 31.536C285.721 31.984 284.999 32.208 284.199 32.208ZM281.591 27.432H286.807C286.764 26.984 286.62 26.576 286.375 26.208C286.129 25.8347 285.817 25.536 285.439 25.312C285.06 25.088 284.647 24.976 284.199 24.976C283.751 24.976 283.34 25.0853 282.967 25.304C282.593 25.5227 282.284 25.8187 282.039 26.192C281.799 26.56 281.649 26.9733 281.591 27.432ZM295.9 32.152C295.468 32.136 295.047 32.056 294.636 31.912C294.231 31.7627 293.873 31.5627 293.564 31.312C293.26 31.056 293.039 30.7627 292.9 30.432L294.052 29.936C294.132 30.1173 294.276 30.288 294.484 30.448C294.692 30.608 294.932 30.736 295.204 30.832C295.476 30.928 295.751 30.976 296.028 30.976C296.321 30.976 296.596 30.9307 296.852 30.84C297.108 30.7493 297.316 30.616 297.476 30.44C297.641 30.2587 297.724 30.0427 297.724 29.792C297.724 29.5253 297.633 29.3173 297.452 29.168C297.276 29.0133 297.052 28.8933 296.78 28.808C296.513 28.7173 296.241 28.632 295.964 28.552C295.415 28.4133 294.924 28.248 294.492 28.056C294.06 27.8587 293.719 27.6107 293.468 27.312C293.223 27.008 293.1 26.6213 293.1 26.152C293.1 25.656 293.236 25.2267 293.508 24.864C293.785 24.5013 294.148 24.2213 294.596 24.024C295.044 23.8267 295.524 23.728 296.036 23.728C296.681 23.728 297.271 23.8667 297.804 24.144C298.337 24.4213 298.735 24.7973 298.996 25.272L297.916 25.904C297.825 25.712 297.687 25.544 297.5 25.4C297.313 25.2507 297.1 25.1333 296.86 25.048C296.62 24.9627 296.375 24.9173 296.124 24.912C295.815 24.9013 295.524 24.9413 295.252 25.032C294.985 25.1227 294.769 25.2613 294.604 25.448C294.444 25.6293 294.364 25.856 294.364 26.128C294.364 26.3947 294.449 26.5973 294.62 26.736C294.796 26.8747 295.023 26.9867 295.3 27.072C295.583 27.152 295.889 27.2453 296.22 27.352C296.705 27.5067 297.159 27.6853 297.58 27.888C298.001 28.0907 298.34 28.344 298.596 28.648C298.857 28.952 298.985 29.328 298.98 29.776C298.98 30.2667 298.833 30.696 298.54 31.064C298.247 31.4267 297.865 31.704 297.396 31.896C296.932 32.088 296.433 32.1733 295.9 32.152ZM301.695 36H300.351V24H301.695V25.368C301.967 24.8987 302.329 24.52 302.783 24.232C303.236 23.9387 303.775 23.792 304.399 23.792C304.98 23.792 305.524 23.9013 306.031 24.12C306.543 24.3387 306.991 24.6427 307.375 25.032C307.759 25.416 308.06 25.8613 308.279 26.368C308.497 26.8747 308.607 27.4187 308.607 28C308.607 28.5813 308.497 29.128 308.279 29.64C308.06 30.152 307.759 30.6027 307.375 30.992C306.991 31.376 306.543 31.6773 306.031 31.896C305.524 32.1147 304.98 32.224 304.399 32.224C303.775 32.224 303.236 32.08 302.783 31.792C302.329 31.4987 301.967 31.1173 301.695 30.648V36ZM304.383 25.096C303.865 25.096 303.412 25.2267 303.023 25.488C302.633 25.7493 302.332 26.0987 302.119 26.536C301.911 26.9733 301.807 27.4613 301.807 28C301.807 28.5333 301.911 29.0213 302.119 29.464C302.332 29.9067 302.631 30.2587 303.015 30.52C303.404 30.7813 303.86 30.912 304.383 30.912C304.9 30.912 305.375 30.784 305.807 30.528C306.239 30.2667 306.585 29.9173 306.847 29.48C307.108 29.0373 307.239 28.544 307.239 28C307.239 27.4667 307.111 26.9813 306.855 26.544C306.599 26.1013 306.255 25.7493 305.823 25.488C305.391 25.2267 304.911 25.096 304.383 25.096ZM316.33 24H317.674V32H316.33L316.274 30.648C316.023 31.112 315.676 31.488 315.234 31.776C314.796 32.064 314.274 32.208 313.666 32.208C313.079 32.208 312.53 32.0987 312.018 31.88C311.506 31.656 311.052 31.3493 310.658 30.96C310.268 30.5653 309.964 30.112 309.746 29.6C309.527 29.088 309.418 28.536 309.418 27.944C309.418 27.3733 309.524 26.8347 309.738 26.328C309.951 25.8213 310.247 25.3787 310.626 25C311.01 24.616 311.452 24.3173 311.954 24.104C312.455 23.8853 312.994 23.776 313.57 23.776C314.199 23.776 314.751 23.9253 315.226 24.224C315.7 24.5173 316.084 24.8987 316.378 25.368L316.33 24ZM313.641 30.904C314.17 30.904 314.626 30.776 315.01 30.52C315.399 30.2587 315.698 29.9067 315.906 29.464C316.119 29.0213 316.226 28.5333 316.226 28C316.226 27.456 316.119 26.9653 315.906 26.528C315.692 26.0853 315.391 25.736 315.002 25.48C314.618 25.2187 314.164 25.088 313.641 25.088C313.114 25.088 312.634 25.2187 312.202 25.48C311.77 25.7413 311.426 26.0933 311.17 26.536C310.919 26.9733 310.794 27.4613 310.794 28C310.794 28.5387 310.924 29.0293 311.186 29.472C311.447 29.9093 311.794 30.2587 312.226 30.52C312.658 30.776 313.13 30.904 313.641 30.904ZM324.628 29.888L325.828 30.536C325.466 31.0427 325.004 31.448 324.444 31.752C323.89 32.056 323.287 32.208 322.636 32.208C321.9 32.208 321.228 32.0187 320.62 31.64C320.018 31.2613 319.535 30.7547 319.172 30.12C318.815 29.48 318.636 28.7733 318.636 28C318.636 27.4133 318.74 26.8667 318.948 26.36C319.156 25.848 319.442 25.4 319.804 25.016C320.172 24.6267 320.599 24.3227 321.084 24.104C321.57 23.8853 322.087 23.776 322.636 23.776C323.287 23.776 323.89 23.928 324.444 24.232C325.004 24.536 325.466 24.944 325.828 25.456L324.628 26.104C324.372 25.7893 324.068 25.5467 323.716 25.376C323.364 25.2053 323.004 25.12 322.636 25.12C322.14 25.12 321.69 25.2533 321.284 25.52C320.884 25.7813 320.567 26.1307 320.332 26.568C320.098 27.0053 319.98 27.4827 319.98 28C319.98 28.5173 320.098 28.9947 320.332 29.432C320.572 29.864 320.892 30.2107 321.292 30.472C321.698 30.7333 322.146 30.864 322.636 30.864C323.031 30.864 323.402 30.7733 323.748 30.592C324.095 30.4107 324.388 30.176 324.628 29.888ZM330.652 32.208C329.916 32.208 329.244 32.0187 328.636 31.64C328.033 31.2613 327.551 30.7547 327.188 30.12C326.831 29.48 326.652 28.7733 326.652 28C326.652 27.4133 326.756 26.8667 326.964 26.36C327.172 25.848 327.457 25.4 327.82 25.016C328.188 24.6267 328.615 24.3227 329.1 24.104C329.585 23.8853 330.103 23.776 330.652 23.776C331.255 23.776 331.807 23.8987 332.308 24.144C332.815 24.384 333.247 24.72 333.604 25.152C333.967 25.584 334.236 26.0853 334.412 26.656C334.593 27.2267 334.66 27.8373 334.612 28.488H328.084C328.148 28.9413 328.297 29.3467 328.532 29.704C328.767 30.056 329.065 30.336 329.428 30.544C329.796 30.752 330.204 30.8587 330.652 30.864C331.132 30.864 331.567 30.7413 331.956 30.496C332.345 30.2453 332.66 29.904 332.9 29.472L334.268 29.792C333.948 30.5013 333.465 31.0827 332.82 31.536C332.175 31.984 331.452 32.208 330.652 32.208ZM328.044 27.432H333.26C333.217 26.984 333.073 26.576 332.828 26.208C332.583 25.8347 332.271 25.536 331.892 25.312C331.513 25.088 331.1 24.976 330.652 24.976C330.204 24.976 329.793 25.0853 329.42 25.304C329.047 25.5227 328.737 25.8187 328.492 26.192C328.252 26.56 328.103 26.9733 328.044 27.432Z" fill="#999999"></path><defs><linearGradient id="paint0_linear_166_866" x1="-3.42044e-06" y1="25.4468" x2="550" y2="25.4468" gradientUnits="userSpaceOnUse"><stop stop-color="#1A1A1A"></stop><stop offset="1" stop-color="#1A1A1A" stop-opacity="0"></stop></linearGradient></defs></svg>