<svg xmlns="http://www.w3.org/2000/svg" width="463" height="66" viewBox="0 0 463 66" fill="none"><g clip-path="url(#clip0_166_1042)"><path d="M1.34 15V5.2H2.516V13.824H6.905V15H1.34ZM10.8458 15.182C10.2018 15.182 9.61378 15.0163 9.08178 14.685C8.55445 14.3537 8.13211 13.9103 7.81478 13.355C7.50211 12.795 7.34578 12.1767 7.34578 11.5C7.34578 10.9867 7.43678 10.5083 7.61878 10.065C7.80078 9.617 8.05045 9.225 8.36778 8.889C8.68978 8.54833 9.06311 8.28233 9.48778 8.091C9.91245 7.89967 10.3651 7.804 10.8458 7.804C11.3731 7.804 11.8561 7.91133 12.2948 8.126C12.7381 8.336 13.1161 8.63 13.4288 9.008C13.7461 9.386 13.9818 9.82467 14.1358 10.324C14.2944 10.8233 14.3528 11.3577 14.3108 11.927H8.59878C8.65478 12.3237 8.78545 12.6783 8.99078 12.991C9.19611 13.299 9.45745 13.544 9.77478 13.726C10.0968 13.908 10.4538 14.0013 10.8458 14.006C11.2658 14.006 11.6461 13.8987 11.9868 13.684C12.3274 13.4647 12.6028 13.166 12.8128 12.788L14.0098 13.068C13.7298 13.6887 13.3074 14.1973 12.7428 14.594C12.1781 14.986 11.5458 15.182 10.8458 15.182ZM8.56378 11.003H13.1278C13.0904 10.611 12.9644 10.254 12.7498 9.932C12.5351 9.60533 12.2621 9.344 11.9308 9.148C11.5994 8.952 11.2378 8.854 10.8458 8.854C10.4538 8.854 10.0944 8.94967 9.76778 9.141C9.44111 9.33233 9.17045 9.59133 8.95578 9.918C8.74578 10.24 8.61511 10.6017 8.56378 11.003ZM20.9164 8H22.0924V15.224C22.0924 15.686 21.992 16.1153 21.7914 16.512C21.5954 16.9133 21.3294 17.261 20.9934 17.555C20.6574 17.8537 20.2747 18.0847 19.8454 18.248C19.416 18.416 18.968 18.5 18.5014 18.5C18.016 18.5 17.547 18.3903 17.0944 18.171C16.6417 17.9563 16.245 17.667 15.9044 17.303C15.5684 16.9437 15.3257 16.54 15.1764 16.092L16.2544 15.602C16.343 15.924 16.5017 16.2133 16.7304 16.47C16.9637 16.7313 17.2344 16.9367 17.5424 17.086C17.855 17.24 18.1747 17.317 18.5014 17.317C18.8094 17.317 19.1057 17.2633 19.3904 17.156C19.6797 17.0487 19.9387 16.8993 20.1674 16.708C20.4007 16.5213 20.5827 16.2997 20.7134 16.043C20.8487 15.791 20.9164 15.518 20.9164 15.224V13.831C20.6784 14.2323 20.3634 14.559 19.9714 14.811C19.584 15.0583 19.1314 15.182 18.6134 15.182C18.1187 15.182 17.6544 15.0863 17.2204 14.895C16.7864 14.7037 16.406 14.44 16.0794 14.104C15.7527 13.7633 15.496 13.3713 15.3094 12.928C15.1227 12.4847 15.0294 12.0087 15.0294 11.5C15.0294 10.9913 15.1227 10.5153 15.3094 10.072C15.496 9.624 15.7527 9.232 16.0794 8.896C16.406 8.55533 16.7864 8.28933 17.2204 8.098C17.6544 7.90667 18.1187 7.811 18.6134 7.811C19.1314 7.811 19.584 7.93467 19.9714 8.182C20.3634 8.42933 20.6784 8.756 20.9164 9.162V8ZM18.6204 14.041C19.073 14.041 19.465 13.9243 19.7964 13.691C20.1324 13.4577 20.3914 13.1473 20.5734 12.76C20.7554 12.3727 20.8464 11.9527 20.8464 11.5C20.8464 11.0333 20.753 10.6087 20.5664 10.226C20.3844 9.83867 20.1254 9.53067 19.7894 9.302C19.458 9.06867 19.0684 8.952 18.6204 8.952C18.1817 8.952 17.7804 9.06633 17.4164 9.295C17.0524 9.52367 16.763 9.83167 16.5484 10.219C16.3384 10.6017 16.2334 11.0287 16.2334 11.5C16.2334 11.9713 16.3407 12.4007 16.5554 12.788C16.7747 13.1707 17.064 13.4763 17.4234 13.705C17.7874 13.929 18.1864 14.041 18.6204 14.041ZM29.3078 8H30.4838V15H29.3078L29.2588 13.817C29.0395 14.223 28.7362 14.552 28.3488 14.804C27.9662 15.056 27.5088 15.182 26.9768 15.182C26.4635 15.182 25.9828 15.0863 25.5348 14.895C25.0868 14.699 24.6902 14.4307 24.3448 14.09C24.0042 13.7447 23.7382 13.348 23.5468 12.9C23.3555 12.452 23.2598 11.969 23.2598 11.451C23.2598 10.9517 23.3532 10.4803 23.5398 10.037C23.7265 9.59367 23.9855 9.20633 24.3168 8.875C24.6528 8.539 25.0402 8.27767 25.4788 8.091C25.9175 7.89967 26.3888 7.804 26.8928 7.804C27.4435 7.804 27.9265 7.93467 28.3418 8.196C28.7572 8.45267 29.0932 8.78633 29.3498 9.197L29.3078 8ZM26.9558 14.041C27.4178 14.041 27.8168 13.929 28.1528 13.705C28.4935 13.4763 28.7548 13.1683 28.9368 12.781C29.1235 12.3937 29.2168 11.9667 29.2168 11.5C29.2168 11.024 29.1235 10.5947 28.9368 10.212C28.7502 9.82467 28.4865 9.519 28.1458 9.295C27.8098 9.06633 27.4132 8.952 26.9558 8.952C26.4938 8.952 26.0738 9.06633 25.6958 9.295C25.3178 9.52367 25.0168 9.83167 24.7928 10.219C24.5735 10.6017 24.4638 11.0287 24.4638 11.5C24.4638 11.9713 24.5782 12.4007 24.8068 12.788C25.0355 13.1707 25.3388 13.4763 25.7168 13.705C26.0948 13.929 26.5078 14.041 26.9558 14.041ZM31.965 15V4.5H33.141V15H31.965ZM38.1857 15V5.2H43.9327V6.376H39.3617V9.162H43.2607V10.338H39.3617V15H38.1857ZM47.336 15.182C46.692 15.182 46.104 15.0163 45.572 14.685C45.0447 14.3537 44.6223 13.9103 44.305 13.355C43.9923 12.795 43.836 12.1767 43.836 11.5C43.836 10.9867 43.927 10.5083 44.109 10.065C44.291 9.617 44.5407 9.225 44.858 8.889C45.18 8.54833 45.5533 8.28233 45.978 8.091C46.4027 7.89967 46.8553 7.804 47.336 7.804C47.8633 7.804 48.3463 7.91133 48.785 8.126C49.2283 8.336 49.6063 8.63 49.919 9.008C50.2363 9.386 50.472 9.82467 50.626 10.324C50.7847 10.8233 50.843 11.3577 50.801 11.927H45.089C45.145 12.3237 45.2757 12.6783 45.481 12.991C45.6863 13.299 45.9477 13.544 46.265 13.726C46.587 13.908 46.944 14.0013 47.336 14.006C47.756 14.006 48.1363 13.8987 48.477 13.684C48.8177 13.4647 49.093 13.166 49.303 12.788L50.5 13.068C50.22 13.6887 49.7977 14.1973 49.233 14.594C48.6683 14.986 48.036 15.182 47.336 15.182ZM45.054 11.003H49.618C49.5807 10.611 49.4547 10.254 49.24 9.932C49.0253 9.60533 48.7523 9.344 48.421 9.148C48.0897 8.952 47.728 8.854 47.336 8.854C46.944 8.854 46.5847 8.94967 46.258 9.141C45.9313 9.33233 45.6607 9.59133 45.446 9.918C45.236 10.24 45.1053 10.6017 45.054 11.003ZM55.0196 15.182C54.3756 15.182 53.7876 15.0163 53.2556 14.685C52.7283 14.3537 52.3059 13.9103 51.9886 13.355C51.6759 12.795 51.5196 12.1767 51.5196 11.5C51.5196 10.9867 51.6106 10.5083 51.7926 10.065C51.9746 9.617 52.2243 9.225 52.5416 8.889C52.8636 8.54833 53.2369 8.28233 53.6616 8.091C54.0863 7.89967 54.5389 7.804 55.0196 7.804C55.5469 7.804 56.0299 7.91133 56.4686 8.126C56.9119 8.336 57.2899 8.63 57.6026 9.008C57.9199 9.386 58.1556 9.82467 58.3096 10.324C58.4683 10.8233 58.5266 11.3577 58.4846 11.927H52.7726C52.8286 12.3237 52.9593 12.6783 53.1646 12.991C53.3699 13.299 53.6313 13.544 53.9486 13.726C54.2706 13.908 54.6276 14.0013 55.0196 14.006C55.4396 14.006 55.8199 13.8987 56.1606 13.684C56.5013 13.4647 56.7766 13.166 56.9866 12.788L58.1836 13.068C57.9036 13.6887 57.4813 14.1973 56.9166 14.594C56.3519 14.986 55.7196 15.182 55.0196 15.182ZM52.7376 11.003H57.3016C57.2643 10.611 57.1383 10.254 56.9236 9.932C56.7089 9.60533 56.4359 9.344 56.1046 9.148C55.7733 8.952 55.4116 8.854 55.0196 8.854C54.6276 8.854 54.2683 8.94967 53.9416 9.141C53.6149 9.33233 53.3443 9.59133 53.1296 9.918C52.9196 10.24 52.7889 10.6017 52.7376 11.003ZM61.8266 15.133C61.4486 15.119 61.0799 15.049 60.7206 14.923C60.3659 14.7923 60.0532 14.6173 59.7826 14.398C59.5166 14.174 59.3229 13.9173 59.2016 13.628L60.2096 13.194C60.2796 13.3527 60.4056 13.502 60.5876 13.642C60.7696 13.782 60.9796 13.894 61.2176 13.978C61.4556 14.062 61.6959 14.104 61.9386 14.104C62.1952 14.104 62.4356 14.0643 62.6596 13.985C62.8836 13.9057 63.0656 13.789 63.2056 13.635C63.3502 13.4763 63.4226 13.2873 63.4226 13.068C63.4226 12.8347 63.3432 12.6527 63.1846 12.522C63.0306 12.3867 62.8346 12.2817 62.5966 12.207C62.3632 12.1277 62.1252 12.053 61.8826 11.983C61.4019 11.8617 60.9726 11.717 60.5946 11.549C60.2166 11.3763 59.9179 11.1593 59.6986 10.898C59.4839 10.632 59.3766 10.2937 59.3766 9.883C59.3766 9.449 59.4956 9.07333 59.7336 8.756C59.9762 8.43867 60.2936 8.19367 60.6856 8.021C61.0776 7.84833 61.4976 7.762 61.9456 7.762C62.5102 7.762 63.0259 7.88333 63.4926 8.126C63.9592 8.36867 64.3069 8.69767 64.5356 9.113L63.5906 9.666C63.5112 9.498 63.3899 9.351 63.2266 9.225C63.0632 9.09433 62.8766 8.99167 62.6666 8.917C62.4566 8.84233 62.2419 8.80267 62.0226 8.798C61.7519 8.78867 61.4976 8.82367 61.2596 8.903C61.0262 8.98233 60.8372 9.10367 60.6926 9.267C60.5526 9.42567 60.4826 9.624 60.4826 9.862C60.4826 10.0953 60.5572 10.2727 60.7066 10.394C60.8606 10.5153 61.0589 10.6133 61.3016 10.688C61.5489 10.758 61.8172 10.8397 62.1066 10.933C62.5312 11.0683 62.9279 11.2247 63.2966 11.402C63.6652 11.5793 63.9616 11.801 64.1856 12.067C64.4142 12.333 64.5262 12.662 64.5216 13.054C64.5216 13.4833 64.3932 13.859 64.1366 14.181C63.8799 14.4983 63.5462 14.741 63.1356 14.909C62.7296 15.077 62.2932 15.1517 61.8266 15.133Z" fill="#999999"></path><path d="M6.49 44.36C5.95667 44.3533 5.45667 44.44 4.99 44.62C4.53 44.7933 4.15333 45.0333 3.86 45.34C3.56667 45.6467 3.42 46.0033 3.42 46.41C3.42 46.91 3.55667 47.29 3.83 47.55C4.10333 47.81 4.47 48.0033 4.93 48.13C5.39667 48.25 5.91667 48.36 6.49 48.46C7.41 48.6067 8.26 48.85 9.04 49.19C9.82667 49.53 10.4567 49.9833 10.93 50.55C11.41 51.11 11.65 51.8 11.65 52.62C11.65 53.3733 11.45 54.0433 11.05 54.63C10.65 55.21 10.1133 55.68 9.44 56.04C8.77333 56.3933 8.03667 56.6167 7.23 56.71V58.74H5.76V56.71C5.08667 56.6433 4.44667 56.4833 3.84 56.23C3.24 55.9767 2.71667 55.64 2.27 55.22C1.82333 54.8 1.5 54.3133 1.3 53.76L3.25 53.03C3.36333 53.35 3.58 53.6367 3.9 53.89C4.22667 54.1367 4.61333 54.33 5.06 54.47C5.51333 54.61 5.99 54.68 6.49 54.68C7.02333 54.68 7.52333 54.5933 7.99 54.42C8.46333 54.2467 8.84333 54.0067 9.13 53.7C9.42333 53.3933 9.57 53.0333 9.57 52.62C9.57 52.1933 9.41667 51.8433 9.11 51.57C8.81 51.2967 8.42333 51.08 7.95 50.92C7.48333 50.76 6.99667 50.64 6.49 50.56C5.51 50.4 4.63 50.1667 3.85 49.86C3.07667 49.5533 2.46333 49.1233 2.01 48.57C1.56333 48.0167 1.34 47.2967 1.34 46.41C1.34 45.6567 1.54 44.9867 1.94 44.4C2.34 43.8133 2.87333 43.3433 3.54 42.99C4.21333 42.63 4.95333 42.4067 5.76 42.32V40.26H7.23V42.32C7.88333 42.3867 8.51 42.5467 9.11 42.8C9.71667 43.0533 10.2467 43.39 10.7 43.81C11.1533 44.2233 11.4833 44.7167 11.69 45.29L9.72 46C9.60667 45.6733 9.39 45.39 9.07 45.15C8.75 44.9033 8.36333 44.71 7.91 44.57C7.46333 44.43 6.99 44.36 6.49 44.36ZM17.5322 56.76C16.6855 56.76 15.9255 56.5633 15.2522 56.17C14.5855 55.7767 14.0589 55.25 13.6722 54.59C13.2855 53.93 13.0922 53.1967 13.0922 52.39H15.1722C15.1722 52.81 15.2722 53.1933 15.4722 53.54C15.6722 53.8867 15.9489 54.1633 16.3022 54.37C16.6555 54.5767 17.0655 54.68 17.5322 54.68C17.9522 54.68 18.3422 54.5767 18.7022 54.37C19.0622 54.1633 19.3522 53.8867 19.5722 53.54C19.7922 53.1933 19.9022 52.81 19.9022 52.39C19.9022 51.8567 19.7622 51.41 19.4822 51.05C19.2022 50.69 18.8122 50.4233 18.3122 50.25C17.8189 50.07 17.2489 49.98 16.6022 49.98V48.34C17.4822 48.34 18.1855 48.1667 18.7122 47.82C19.2389 47.4733 19.5022 46.9567 19.5022 46.27C19.5022 45.91 19.4055 45.5833 19.2122 45.29C19.0255 44.99 18.7755 44.7533 18.4622 44.58C18.1555 44.4 17.8255 44.31 17.4722 44.31C17.1055 44.31 16.7522 44.4 16.4122 44.58C16.0789 44.7533 15.8055 44.99 15.5922 45.29C15.3789 45.5833 15.2722 45.91 15.2722 46.27H13.1922C13.1922 45.7167 13.3055 45.1967 13.5322 44.71C13.7655 44.2167 14.0789 43.7867 14.4722 43.42C14.8722 43.0467 15.3255 42.7567 15.8322 42.55C16.3455 42.3367 16.8822 42.23 17.4422 42.23C18.1755 42.23 18.8555 42.4133 19.4822 42.78C20.1155 43.14 20.6222 43.6267 21.0022 44.24C21.3889 44.8467 21.5822 45.5233 21.5822 46.27C21.5822 46.8633 21.4355 47.4267 21.1422 47.96C20.8555 48.4867 20.4555 48.86 19.9422 49.08C20.3889 49.24 20.7622 49.4933 21.0622 49.84C21.3689 50.18 21.5989 50.5733 21.7522 51.02C21.9055 51.46 21.9822 51.9167 21.9822 52.39C21.9822 53.19 21.7789 53.9233 21.3722 54.59C20.9655 55.25 20.4222 55.7767 19.7422 56.17C19.0689 56.5633 18.3322 56.76 17.5322 56.76ZM23.3898 57.62L24.0098 54.24H26.0898L24.7698 57.62H23.3898ZM33.3269 56.76C32.5002 56.76 31.7535 56.5733 31.0869 56.2C30.4269 55.82 29.8569 55.2967 29.3769 54.63C28.8969 53.9633 28.5302 53.1933 28.2769 52.32C28.0235 51.44 27.8969 50.5 27.8969 49.5C27.8969 48.5 28.0235 47.56 28.2769 46.68C28.5302 45.8 28.8969 45.03 29.3769 44.37C29.8569 43.7033 30.4269 43.1833 31.0869 42.81C31.7535 42.43 32.5002 42.24 33.3269 42.24C34.1402 42.24 34.8802 42.43 35.5469 42.81C36.2135 43.1833 36.7802 43.7033 37.2469 44.37C37.7202 45.03 38.0835 45.8 38.3369 46.68C38.5902 47.56 38.7169 48.5 38.7169 49.5C38.7169 50.5 38.5902 51.44 38.3369 52.32C38.0835 53.1933 37.7202 53.9633 37.2469 54.63C36.7802 55.2967 36.2135 55.82 35.5469 56.2C34.8802 56.5733 34.1402 56.76 33.3269 56.76ZM33.3269 54.68C34.0935 54.68 34.7302 54.44 35.2369 53.96C35.7502 53.4733 36.1335 52.8367 36.3869 52.05C36.6402 51.2633 36.7669 50.4133 36.7669 49.5C36.7669 48.54 36.6335 47.67 36.3669 46.89C36.1069 46.1033 35.7202 45.48 35.2069 45.02C34.7002 44.5533 34.0735 44.32 33.3269 44.32C32.7335 44.32 32.2169 44.46 31.7769 44.74C31.3435 45.02 30.9835 45.4033 30.6969 45.89C30.4169 46.3767 30.2035 46.93 30.0569 47.55C29.9169 48.17 29.8469 48.82 29.8469 49.5C29.8469 50.4133 29.9769 51.2633 30.2369 52.05C30.4969 52.8367 30.8835 53.4733 31.3969 53.96C31.9169 54.44 32.5602 54.68 33.3269 54.68ZM44.9675 56.76C44.1408 56.76 43.3942 56.5733 42.7275 56.2C42.0675 55.82 41.4975 55.2967 41.0175 54.63C40.5375 53.9633 40.1708 53.1933 39.9175 52.32C39.6642 51.44 39.5375 50.5 39.5375 49.5C39.5375 48.5 39.6642 47.56 39.9175 46.68C40.1708 45.8 40.5375 45.03 41.0175 44.37C41.4975 43.7033 42.0675 43.1833 42.7275 42.81C43.3942 42.43 44.1408 42.24 44.9675 42.24C45.7808 42.24 46.5208 42.43 47.1875 42.81C47.8542 43.1833 48.4208 43.7033 48.8875 44.37C49.3608 45.03 49.7242 45.8 49.9775 46.68C50.2308 47.56 50.3575 48.5 50.3575 49.5C50.3575 50.5 50.2308 51.44 49.9775 52.32C49.7242 53.1933 49.3608 53.9633 48.8875 54.63C48.4208 55.2967 47.8542 55.82 47.1875 56.2C46.5208 56.5733 45.7808 56.76 44.9675 56.76ZM44.9675 54.68C45.7342 54.68 46.3708 54.44 46.8775 53.96C47.3908 53.4733 47.7742 52.8367 48.0275 52.05C48.2808 51.2633 48.4075 50.4133 48.4075 49.5C48.4075 48.54 48.2742 47.67 48.0075 46.89C47.7475 46.1033 47.3608 45.48 46.8475 45.02C46.3408 44.5533 45.7142 44.32 44.9675 44.32C44.3742 44.32 43.8575 44.46 43.4175 44.74C42.9842 45.02 42.6242 45.4033 42.3375 45.89C42.0575 46.3767 41.8442 46.93 41.6975 47.55C41.5575 48.17 41.4875 48.82 41.4875 49.5C41.4875 50.4133 41.6175 51.2633 41.8775 52.05C42.1375 52.8367 42.5242 53.4733 43.0375 53.96C43.5575 54.44 44.2008 54.68 44.9675 54.68ZM56.6081 56.76C55.7815 56.76 55.0348 56.5733 54.3681 56.2C53.7081 55.82 53.1381 55.2967 52.6581 54.63C52.1781 53.9633 51.8115 53.1933 51.5581 52.32C51.3048 51.44 51.1781 50.5 51.1781 49.5C51.1781 48.5 51.3048 47.56 51.5581 46.68C51.8115 45.8 52.1781 45.03 52.6581 44.37C53.1381 43.7033 53.7081 43.1833 54.3681 42.81C55.0348 42.43 55.7815 42.24 56.6081 42.24C57.4215 42.24 58.1615 42.43 58.8281 42.81C59.4948 43.1833 60.0615 43.7033 60.5281 44.37C61.0015 45.03 61.3648 45.8 61.6181 46.68C61.8715 47.56 61.9981 48.5 61.9981 49.5C61.9981 50.5 61.8715 51.44 61.6181 52.32C61.3648 53.1933 61.0015 53.9633 60.5281 54.63C60.0615 55.2967 59.4948 55.82 58.8281 56.2C58.1615 56.5733 57.4215 56.76 56.6081 56.76ZM56.6081 54.68C57.3748 54.68 58.0115 54.44 58.5181 53.96C59.0315 53.4733 59.4148 52.8367 59.6681 52.05C59.9215 51.2633 60.0481 50.4133 60.0481 49.5C60.0481 48.54 59.9148 47.67 59.6481 46.89C59.3881 46.1033 59.0015 45.48 58.4881 45.02C57.9815 44.5533 57.3548 44.32 56.6081 44.32C56.0148 44.32 55.4981 44.46 55.0581 44.74C54.6248 45.02 54.2648 45.4033 53.9781 45.89C53.6981 46.3767 53.4848 46.93 53.3381 47.55C53.1981 48.17 53.1281 48.82 53.1281 49.5C53.1281 50.4133 53.2581 51.2633 53.5181 52.05C53.7781 52.8367 54.1648 53.4733 54.6781 53.96C55.1981 54.44 55.8415 54.68 56.6081 54.68Z" fill="white"></path><rect x="76" y="33.5" width="381" height="32" rx="16" fill="#1A1A1A"></rect><rect x="76" y="33.5" width="381" height="32" rx="16" stroke="#262626"></rect><path d="M91.623 44.2H93.044L96.607 54H95.361L94.633 51.998H90.034L89.313 54H88.06L91.623 44.2ZM90.468 50.822H94.199L92.33 45.705L90.468 50.822ZM98.9086 57.5H97.7326V47H98.9086V48.197C99.1466 47.7863 99.4639 47.455 99.8606 47.203C100.257 46.9463 100.729 46.818 101.275 46.818C101.783 46.818 102.259 46.9137 102.703 47.105C103.151 47.2963 103.543 47.5623 103.879 47.903C104.215 48.239 104.478 48.6287 104.67 49.072C104.861 49.5153 104.957 49.9913 104.957 50.5C104.957 51.0087 104.861 51.487 104.67 51.935C104.478 52.383 104.215 52.7773 103.879 53.118C103.543 53.454 103.151 53.7177 102.703 53.909C102.259 54.1003 101.783 54.196 101.275 54.196C100.729 54.196 100.257 54.07 99.8606 53.818C99.4639 53.5613 99.1466 53.2277 98.9086 52.817V57.5ZM101.261 47.959C100.808 47.959 100.411 48.0733 100.071 48.302C99.7299 48.5307 99.4662 48.8363 99.2796 49.219C99.0976 49.6017 99.0066 50.0287 99.0066 50.5C99.0066 50.9667 99.0976 51.3937 99.2796 51.781C99.4662 52.1683 99.7276 52.4763 100.064 52.705C100.404 52.9337 100.803 53.048 101.261 53.048C101.713 53.048 102.129 52.936 102.507 52.712C102.885 52.4833 103.188 52.1777 103.417 51.795C103.645 51.4077 103.76 50.976 103.76 50.5C103.76 50.0333 103.648 49.6087 103.424 49.226C103.2 48.8387 102.899 48.5307 102.521 48.302C102.143 48.0733 101.723 47.959 101.261 47.959ZM107.303 57.5H106.127V47H107.303V48.197C107.541 47.7863 107.858 47.455 108.255 47.203C108.652 46.9463 109.123 46.818 109.669 46.818C110.178 46.818 110.654 46.9137 111.097 47.105C111.545 47.2963 111.937 47.5623 112.273 47.903C112.609 48.239 112.873 48.6287 113.064 49.072C113.255 49.5153 113.351 49.9913 113.351 50.5C113.351 51.0087 113.255 51.487 113.064 51.935C112.873 52.383 112.609 52.7773 112.273 53.118C111.937 53.454 111.545 53.7177 111.097 53.909C110.654 54.1003 110.178 54.196 109.669 54.196C109.123 54.196 108.652 54.07 108.255 53.818C107.858 53.5613 107.541 53.2277 107.303 52.817V57.5ZM109.655 47.959C109.202 47.959 108.806 48.0733 108.465 48.302C108.124 48.5307 107.861 48.8363 107.674 49.219C107.492 49.6017 107.401 50.0287 107.401 50.5C107.401 50.9667 107.492 51.3937 107.674 51.781C107.861 52.1683 108.122 52.4763 108.458 52.705C108.799 52.9337 109.198 53.048 109.655 53.048C110.108 53.048 110.523 52.936 110.901 52.712C111.279 52.4833 111.582 52.1777 111.811 51.795C112.04 51.4077 112.154 50.976 112.154 50.5C112.154 50.0333 112.042 49.6087 111.818 49.226C111.594 48.8387 111.293 48.5307 110.915 48.302C110.537 48.0733 110.117 47.959 109.655 47.959ZM114.522 54V47H115.698V47.875C115.945 47.5483 116.258 47.2893 116.636 47.098C117.014 46.902 117.424 46.804 117.868 46.804C118.138 46.804 118.4 46.839 118.652 46.909L118.176 48.085C117.984 48.0243 117.798 47.994 117.616 47.994C117.266 47.994 116.944 48.0803 116.65 48.253C116.36 48.421 116.129 48.6497 115.957 48.939C115.784 49.2283 115.698 49.5503 115.698 49.905V54H114.522ZM122.236 54.182C121.592 54.182 121.004 54.0163 120.472 53.685C119.945 53.3537 119.523 52.9103 119.205 52.355C118.893 51.795 118.736 51.1767 118.736 50.5C118.736 49.9867 118.827 49.5083 119.009 49.065C119.191 48.617 119.441 48.225 119.758 47.889C120.08 47.5483 120.454 47.2823 120.878 47.091C121.303 46.8997 121.756 46.804 122.236 46.804C122.88 46.804 123.466 46.9697 123.993 47.301C124.525 47.6323 124.948 48.078 125.26 48.638C125.578 49.198 125.736 49.8187 125.736 50.5C125.736 51.0087 125.645 51.4847 125.463 51.928C125.281 52.3713 125.029 52.7633 124.707 53.104C124.39 53.44 124.019 53.7037 123.594 53.895C123.174 54.0863 122.722 54.182 122.236 54.182ZM122.236 53.006C122.675 53.006 123.069 52.8917 123.419 52.663C123.774 52.4297 124.052 52.124 124.252 51.746C124.458 51.3633 124.56 50.948 124.56 50.5C124.56 50.0427 124.455 49.6227 124.245 49.24C124.04 48.8573 123.762 48.5517 123.412 48.323C123.062 48.0943 122.67 47.98 122.236 47.98C121.798 47.98 121.403 48.0967 121.053 48.33C120.703 48.5587 120.426 48.8643 120.22 49.247C120.015 49.6297 119.912 50.0473 119.912 50.5C119.912 50.9667 120.017 51.3913 120.227 51.774C120.437 52.152 120.72 52.453 121.074 52.677C121.429 52.8963 121.816 53.006 122.236 53.006ZM126.095 54L128.657 50.486L126.109 46.986H127.558L129.385 49.478L131.205 46.986H132.654L130.106 50.486L132.668 54H131.219L129.385 51.48L127.544 54H126.095ZM133.881 47H135.057V54H133.881V47ZM134.483 45.859C134.296 45.859 134.14 45.7983 134.014 45.677C133.888 45.5557 133.825 45.404 133.825 45.222C133.825 45.04 133.888 44.8883 134.014 44.767C134.14 44.6457 134.294 44.585 134.476 44.585C134.658 44.585 134.812 44.6457 134.938 44.767C135.064 44.8883 135.127 45.04 135.127 45.222C135.127 45.404 135.064 45.5557 134.938 45.677C134.817 45.7983 134.665 45.859 134.483 45.859ZM136.711 54V47H137.887V47.875C138.134 47.5483 138.445 47.2893 138.818 47.098C139.196 46.902 139.607 46.804 140.05 46.804C140.568 46.804 141.042 46.93 141.471 47.182C141.9 47.434 142.239 47.7677 142.486 48.183C142.733 47.7677 143.069 47.434 143.494 47.182C143.923 46.93 144.395 46.804 144.908 46.804C145.435 46.804 145.914 46.9323 146.343 47.189C146.772 47.441 147.113 47.7817 147.365 48.211C147.622 48.6403 147.75 49.1187 147.75 49.646V54H146.574V49.926C146.574 49.5807 146.49 49.261 146.322 48.967C146.154 48.673 145.928 48.4373 145.643 48.26C145.358 48.0827 145.043 47.994 144.698 47.994C144.353 47.994 144.038 48.078 143.753 48.246C143.468 48.4093 143.242 48.638 143.074 48.932C142.906 49.2213 142.822 49.5527 142.822 49.926V54H141.646V49.926C141.646 49.5527 141.562 49.2213 141.394 48.932C141.226 48.638 140.997 48.4093 140.708 48.246C140.423 48.078 140.108 47.994 139.763 47.994C139.422 47.994 139.107 48.0827 138.818 48.26C138.533 48.4373 138.307 48.673 138.139 48.967C137.971 49.261 137.887 49.5807 137.887 49.926V54H136.711ZM154.644 47H155.82V54H154.644L154.595 52.817C154.375 53.223 154.072 53.552 153.685 53.804C153.302 54.056 152.845 54.182 152.313 54.182C151.799 54.182 151.319 54.0863 150.871 53.895C150.423 53.699 150.026 53.4307 149.681 53.09C149.34 52.7447 149.074 52.348 148.883 51.9C148.691 51.452 148.596 50.969 148.596 50.451C148.596 49.9517 148.689 49.4803 148.876 49.037C149.062 48.5937 149.321 48.2063 149.653 47.875C149.989 47.539 150.376 47.2777 150.815 47.091C151.253 46.8997 151.725 46.804 152.229 46.804C152.779 46.804 153.262 46.9347 153.678 47.196C154.093 47.4527 154.429 47.7863 154.686 48.197L154.644 47ZM152.292 53.041C152.754 53.041 153.153 52.929 153.489 52.705C153.829 52.4763 154.091 52.1683 154.273 51.781C154.459 51.3937 154.553 50.9667 154.553 50.5C154.553 50.024 154.459 49.5947 154.273 49.212C154.086 48.8247 153.822 48.519 153.482 48.295C153.146 48.0663 152.749 47.952 152.292 47.952C151.83 47.952 151.41 48.0663 151.032 48.295C150.654 48.5237 150.353 48.8317 150.129 49.219C149.909 49.6017 149.8 50.0287 149.8 50.5C149.8 50.9713 149.914 51.4007 150.143 51.788C150.371 52.1707 150.675 52.4763 151.053 52.705C151.431 52.929 151.844 53.041 152.292 53.041ZM160.845 48.176H159.256L159.249 54H158.073L158.08 48.176H156.876V47H158.08L158.073 44.802H159.249L159.256 47H160.845V48.176ZM165.002 54.182C164.358 54.182 163.77 54.0163 163.238 53.685C162.711 53.3537 162.288 52.9103 161.971 52.355C161.658 51.795 161.502 51.1767 161.502 50.5C161.502 49.9867 161.593 49.5083 161.775 49.065C161.957 48.617 162.207 48.225 162.524 47.889C162.846 47.5483 163.219 47.2823 163.644 47.091C164.069 46.8997 164.521 46.804 165.002 46.804C165.529 46.804 166.012 46.9113 166.451 47.126C166.894 47.336 167.272 47.63 167.585 48.008C167.902 48.386 168.138 48.8247 168.292 49.324C168.451 49.8233 168.509 50.3577 168.467 50.927H162.755C162.811 51.3237 162.942 51.6783 163.147 51.991C163.352 52.299 163.614 52.544 163.931 52.726C164.253 52.908 164.61 53.0013 165.002 53.006C165.422 53.006 165.802 52.8987 166.143 52.684C166.484 52.4647 166.759 52.166 166.969 51.788L168.166 52.068C167.886 52.6887 167.464 53.1973 166.899 53.594C166.334 53.986 165.702 54.182 165.002 54.182ZM162.72 50.003H167.284C167.247 49.611 167.121 49.254 166.906 48.932C166.691 48.6053 166.418 48.344 166.087 48.148C165.756 47.952 165.394 47.854 165.002 47.854C164.61 47.854 164.251 47.9497 163.924 48.141C163.597 48.3323 163.327 48.5913 163.112 48.918C162.902 49.24 162.771 49.6017 162.72 50.003ZM177.929 52.152L178.979 52.719C178.661 53.1623 178.258 53.517 177.768 53.783C177.282 54.049 176.755 54.182 176.186 54.182C175.542 54.182 174.954 54.0163 174.422 53.685C173.894 53.3537 173.472 52.9103 173.155 52.355C172.842 51.795 172.686 51.1767 172.686 50.5C172.686 49.9867 172.777 49.5083 172.959 49.065C173.141 48.617 173.39 48.225 173.708 47.889C174.03 47.5483 174.403 47.2823 174.828 47.091C175.252 46.8997 175.705 46.804 176.186 46.804C176.755 46.804 177.282 46.937 177.768 47.203C178.258 47.469 178.661 47.826 178.979 48.274L177.929 48.841C177.705 48.5657 177.439 48.3533 177.131 48.204C176.823 48.0547 176.508 47.98 176.186 47.98C175.752 47.98 175.357 48.0967 175.003 48.33C174.653 48.5587 174.375 48.8643 174.17 49.247C173.964 49.6297 173.862 50.0473 173.862 50.5C173.862 50.9527 173.964 51.3703 174.17 51.753C174.38 52.131 174.66 52.4343 175.01 52.663C175.364 52.8917 175.756 53.006 176.186 53.006C176.531 53.006 176.855 52.9267 177.159 52.768C177.462 52.6093 177.719 52.404 177.929 52.152ZM183.199 54.182C182.555 54.182 181.967 54.0163 181.435 53.685C180.908 53.3537 180.486 52.9103 180.168 52.355C179.856 51.795 179.699 51.1767 179.699 50.5C179.699 49.9867 179.79 49.5083 179.972 49.065C180.154 48.617 180.404 48.225 180.721 47.889C181.043 47.5483 181.417 47.2823 181.841 47.091C182.266 46.8997 182.719 46.804 183.199 46.804C183.843 46.804 184.429 46.9697 184.956 47.301C185.488 47.6323 185.911 48.078 186.223 48.638C186.541 49.198 186.699 49.8187 186.699 50.5C186.699 51.0087 186.608 51.4847 186.426 51.928C186.244 52.3713 185.992 52.7633 185.67 53.104C185.353 53.44 184.982 53.7037 184.557 53.895C184.137 54.0863 183.685 54.182 183.199 54.182ZM183.199 53.006C183.638 53.006 184.032 52.8917 184.382 52.663C184.737 52.4297 185.015 52.124 185.215 51.746C185.421 51.3633 185.523 50.948 185.523 50.5C185.523 50.0427 185.418 49.6227 185.208 49.24C185.003 48.8573 184.725 48.5517 184.375 48.323C184.025 48.0943 183.633 47.98 183.199 47.98C182.761 47.98 182.366 48.0967 182.016 48.33C181.666 48.5587 181.389 48.8643 181.183 49.247C180.978 49.6297 180.875 50.0473 180.875 50.5C180.875 50.9667 180.98 51.3913 181.19 51.774C181.4 52.152 181.683 52.453 182.037 52.677C182.392 52.8963 182.779 53.006 183.199 53.006ZM190.02 54.133C189.642 54.119 189.273 54.049 188.914 53.923C188.559 53.7923 188.247 53.6173 187.976 53.398C187.71 53.174 187.516 52.9173 187.395 52.628L188.403 52.194C188.473 52.3527 188.599 52.502 188.781 52.642C188.963 52.782 189.173 52.894 189.411 52.978C189.649 53.062 189.889 53.104 190.132 53.104C190.389 53.104 190.629 53.0643 190.853 52.985C191.077 52.9057 191.259 52.789 191.399 52.635C191.544 52.4763 191.616 52.2873 191.616 52.068C191.616 51.8347 191.537 51.6527 191.378 51.522C191.224 51.3867 191.028 51.2817 190.79 51.207C190.557 51.1277 190.319 51.053 190.076 50.983C189.595 50.8617 189.166 50.717 188.788 50.549C188.41 50.3763 188.111 50.1593 187.892 49.898C187.677 49.632 187.57 49.2937 187.57 48.883C187.57 48.449 187.689 48.0733 187.927 47.756C188.17 47.4387 188.487 47.1937 188.879 47.021C189.271 46.8483 189.691 46.762 190.139 46.762C190.704 46.762 191.219 46.8833 191.686 47.126C192.153 47.3687 192.5 47.6977 192.729 48.113L191.784 48.666C191.705 48.498 191.583 48.351 191.42 48.225C191.257 48.0943 191.07 47.9917 190.86 47.917C190.65 47.8423 190.435 47.8027 190.216 47.798C189.945 47.7887 189.691 47.8237 189.453 47.903C189.22 47.9823 189.031 48.1037 188.886 48.267C188.746 48.4257 188.676 48.624 188.676 48.862C188.676 49.0953 188.751 49.2727 188.9 49.394C189.054 49.5153 189.252 49.6133 189.495 49.688C189.742 49.758 190.011 49.8397 190.3 49.933C190.725 50.0683 191.121 50.2247 191.49 50.402C191.859 50.5793 192.155 50.801 192.379 51.067C192.608 51.333 192.72 51.662 192.715 52.054C192.715 52.4833 192.587 52.859 192.33 53.181C192.073 53.4983 191.74 53.741 191.329 53.909C190.923 54.077 190.487 54.1517 190.02 54.133ZM197.54 48.176H195.951L195.944 54H194.768L194.775 48.176H193.571V47H194.775L194.768 44.802H195.944L195.951 47H197.54V48.176ZM203.747 45.271V47H205.798V48.176H203.747V54H202.571V48.176H201.668V47H202.571V45.271C202.571 44.9117 202.658 44.5873 202.83 44.298C203.008 44.004 203.243 43.7707 203.537 43.598C203.836 43.4207 204.163 43.332 204.517 43.332C204.779 43.332 205.033 43.3857 205.28 43.493C205.528 43.5957 205.747 43.7497 205.938 43.955L205.098 44.788C205.033 44.6993 204.947 44.6317 204.839 44.585C204.737 44.5337 204.629 44.508 204.517 44.508C204.307 44.508 204.125 44.5827 203.971 44.732C203.822 44.8813 203.747 45.061 203.747 45.271ZM209.859 54.182C209.215 54.182 208.627 54.0163 208.095 53.685C207.568 53.3537 207.146 52.9103 206.828 52.355C206.516 51.795 206.359 51.1767 206.359 50.5C206.359 49.9867 206.45 49.5083 206.632 49.065C206.814 48.617 207.064 48.225 207.381 47.889C207.703 47.5483 208.077 47.2823 208.501 47.091C208.926 46.8997 209.379 46.804 209.859 46.804C210.503 46.804 211.089 46.9697 211.616 47.301C212.148 47.6323 212.571 48.078 212.883 48.638C213.201 49.198 213.359 49.8187 213.359 50.5C213.359 51.0087 213.268 51.4847 213.086 51.928C212.904 52.3713 212.652 52.7633 212.33 53.104C212.013 53.44 211.642 53.7037 211.217 53.895C210.797 54.0863 210.345 54.182 209.859 54.182ZM209.859 53.006C210.298 53.006 210.692 52.8917 211.042 52.663C211.397 52.4297 211.675 52.124 211.875 51.746C212.081 51.3633 212.183 50.948 212.183 50.5C212.183 50.0427 212.078 49.6227 211.868 49.24C211.663 48.8573 211.385 48.5517 211.035 48.323C210.685 48.0943 210.293 47.98 209.859 47.98C209.421 47.98 209.026 48.0967 208.676 48.33C208.326 48.5587 208.049 48.8643 207.843 49.247C207.638 49.6297 207.535 50.0473 207.535 50.5C207.535 50.9667 207.64 51.3913 207.85 51.774C208.06 52.152 208.343 52.453 208.697 52.677C209.052 52.8963 209.439 53.006 209.859 53.006ZM214.518 54V47H215.694V47.875C215.941 47.5483 216.254 47.2893 216.632 47.098C217.01 46.902 217.42 46.804 217.864 46.804C218.134 46.804 218.396 46.839 218.648 46.909L218.172 48.085C217.98 48.0243 217.794 47.994 217.612 47.994C217.262 47.994 216.94 48.0803 216.646 48.253C216.356 48.421 216.125 48.6497 215.953 48.939C215.78 49.2283 215.694 49.5503 215.694 49.905V54H214.518ZM222.994 54V43.5H224.17V54H222.994ZM228.863 54.182C228.219 54.182 227.631 54.0163 227.099 53.685C226.572 53.3537 226.15 52.9103 225.832 52.355C225.52 51.795 225.363 51.1767 225.363 50.5C225.363 49.9867 225.454 49.5083 225.636 49.065C225.818 48.617 226.068 48.225 226.385 47.889C226.707 47.5483 227.081 47.2823 227.505 47.091C227.93 46.8997 228.383 46.804 228.863 46.804C229.391 46.804 229.874 46.9113 230.312 47.126C230.756 47.336 231.134 47.63 231.446 48.008C231.764 48.386 231.999 48.8247 232.153 49.324C232.312 49.8233 232.37 50.3577 232.328 50.927H226.616C226.672 51.3237 226.803 51.6783 227.008 51.991C227.214 52.299 227.475 52.544 227.792 52.726C228.114 52.908 228.471 53.0013 228.863 53.006C229.283 53.006 229.664 52.8987 230.004 52.684C230.345 52.4647 230.62 52.166 230.83 51.788L232.027 52.068C231.747 52.6887 231.325 53.1973 230.76 53.594C230.196 53.986 229.563 54.182 228.863 54.182ZM226.581 50.003H231.145C231.108 49.611 230.982 49.254 230.767 48.932C230.553 48.6053 230.28 48.344 229.948 48.148C229.617 47.952 229.255 47.854 228.863 47.854C228.471 47.854 228.112 47.9497 227.785 48.141C227.459 48.3323 227.188 48.5913 226.973 48.918C226.763 49.24 226.633 49.6017 226.581 50.003ZM238.934 47H240.11V54.224C240.11 54.686 240.01 55.1153 239.809 55.512C239.613 55.9133 239.347 56.261 239.011 56.555C238.675 56.8537 238.292 57.0847 237.863 57.248C237.434 57.416 236.986 57.5 236.519 57.5C236.034 57.5 235.565 57.3903 235.112 57.171C234.659 56.9563 234.263 56.667 233.922 56.303C233.586 55.9437 233.343 55.54 233.194 55.092L234.272 54.602C234.361 54.924 234.519 55.2133 234.748 55.47C234.981 55.7313 235.252 55.9367 235.56 56.086C235.873 56.24 236.192 56.317 236.519 56.317C236.827 56.317 237.123 56.2633 237.408 56.156C237.697 56.0487 237.956 55.8993 238.185 55.708C238.418 55.5213 238.6 55.2997 238.731 55.043C238.866 54.791 238.934 54.518 238.934 54.224V52.831C238.696 53.2323 238.381 53.559 237.989 53.811C237.602 54.0583 237.149 54.182 236.631 54.182C236.136 54.182 235.672 54.0863 235.238 53.895C234.804 53.7037 234.424 53.44 234.097 53.104C233.77 52.7633 233.514 52.3713 233.327 51.928C233.14 51.4847 233.047 51.0087 233.047 50.5C233.047 49.9913 233.14 49.5153 233.327 49.072C233.514 48.624 233.77 48.232 234.097 47.896C234.424 47.5553 234.804 47.2893 235.238 47.098C235.672 46.9067 236.136 46.811 236.631 46.811C237.149 46.811 237.602 46.9347 237.989 47.182C238.381 47.4293 238.696 47.756 238.934 48.162V47ZM236.638 53.041C237.091 53.041 237.483 52.9243 237.814 52.691C238.15 52.4577 238.409 52.1473 238.591 51.76C238.773 51.3727 238.864 50.9527 238.864 50.5C238.864 50.0333 238.771 49.6087 238.584 49.226C238.402 48.8387 238.143 48.5307 237.807 48.302C237.476 48.0687 237.086 47.952 236.638 47.952C236.199 47.952 235.798 48.0663 235.434 48.295C235.07 48.5237 234.781 48.8317 234.566 49.219C234.356 49.6017 234.251 50.0287 234.251 50.5C234.251 50.9713 234.358 51.4007 234.573 51.788C234.792 52.1707 235.082 52.4763 235.441 52.705C235.805 52.929 236.204 53.041 236.638 53.041ZM247.325 47H248.501V54H247.325L247.276 52.817C247.057 53.223 246.754 53.552 246.366 53.804C245.984 54.056 245.526 54.182 244.994 54.182C244.481 54.182 244 54.0863 243.552 53.895C243.104 53.699 242.708 53.4307 242.362 53.09C242.022 52.7447 241.756 52.348 241.564 51.9C241.373 51.452 241.277 50.969 241.277 50.451C241.277 49.9517 241.371 49.4803 241.557 49.037C241.744 48.5937 242.003 48.2063 242.334 47.875C242.67 47.539 243.058 47.2777 243.496 47.091C243.935 46.8997 244.406 46.804 244.91 46.804C245.461 46.804 245.944 46.9347 246.359 47.196C246.775 47.4527 247.111 47.7863 247.367 48.197L247.325 47ZM244.973 53.041C245.435 53.041 245.834 52.929 246.17 52.705C246.511 52.4763 246.772 52.1683 246.954 51.781C247.141 51.3937 247.234 50.9667 247.234 50.5C247.234 50.024 247.141 49.5947 246.954 49.212C246.768 48.8247 246.504 48.519 246.163 48.295C245.827 48.0663 245.431 47.952 244.973 47.952C244.511 47.952 244.091 48.0663 243.713 48.295C243.335 48.5237 243.034 48.8317 242.81 49.219C242.591 49.6017 242.481 50.0287 242.481 50.5C242.481 50.9713 242.596 51.4007 242.824 51.788C243.053 52.1707 243.356 52.4763 243.734 52.705C244.112 52.929 244.525 53.041 244.973 53.041ZM249.983 54V43.5H251.159V54H249.983ZM258.338 54.133C257.96 54.119 257.592 54.049 257.232 53.923C256.878 53.7923 256.565 53.6173 256.294 53.398C256.028 53.174 255.835 52.9173 255.713 52.628L256.721 52.194C256.791 52.3527 256.917 52.502 257.099 52.642C257.281 52.782 257.491 52.894 257.729 52.978C257.967 53.062 258.208 53.104 258.45 53.104C258.707 53.104 258.947 53.0643 259.171 52.985C259.395 52.9057 259.577 52.789 259.717 52.635C259.862 52.4763 259.934 52.2873 259.934 52.068C259.934 51.8347 259.855 51.6527 259.696 51.522C259.542 51.3867 259.346 51.2817 259.108 51.207C258.875 51.1277 258.637 51.053 258.394 50.983C257.914 50.8617 257.484 50.717 257.106 50.549C256.728 50.3763 256.43 50.1593 256.21 49.898C255.996 49.632 255.888 49.2937 255.888 48.883C255.888 48.449 256.007 48.0733 256.245 47.756C256.488 47.4387 256.805 47.1937 257.197 47.021C257.589 46.8483 258.009 46.762 258.457 46.762C259.022 46.762 259.538 46.8833 260.004 47.126C260.471 47.3687 260.819 47.6977 261.047 48.113L260.102 48.666C260.023 48.498 259.902 48.351 259.738 48.225C259.575 48.0943 259.388 47.9917 259.178 47.917C258.968 47.8423 258.754 47.8027 258.534 47.798C258.264 47.7887 258.009 47.8237 257.771 47.903C257.538 47.9823 257.349 48.1037 257.204 48.267C257.064 48.4257 256.994 48.624 256.994 48.862C256.994 49.0953 257.069 49.2727 257.218 49.394C257.372 49.5153 257.571 49.6133 257.813 49.688C258.061 49.758 258.329 49.8397 258.618 49.933C259.043 50.0683 259.44 50.2247 259.808 50.402C260.177 50.5793 260.473 50.801 260.697 51.067C260.926 51.333 261.038 51.662 261.033 52.054C261.033 52.4833 260.905 52.859 260.648 53.181C260.392 53.4983 260.058 53.741 259.647 53.909C259.241 54.077 258.805 54.1517 258.338 54.133ZM265.244 54.182C264.6 54.182 264.012 54.0163 263.48 53.685C262.953 53.3537 262.531 52.9103 262.213 52.355C261.901 51.795 261.744 51.1767 261.744 50.5C261.744 49.9867 261.835 49.5083 262.017 49.065C262.199 48.617 262.449 48.225 262.766 47.889C263.088 47.5483 263.462 47.2823 263.886 47.091C264.311 46.8997 264.764 46.804 265.244 46.804C265.772 46.804 266.255 46.9113 266.693 47.126C267.137 47.336 267.515 47.63 267.827 48.008C268.145 48.386 268.38 48.8247 268.534 49.324C268.693 49.8233 268.751 50.3577 268.709 50.927H262.997C263.053 51.3237 263.184 51.6783 263.389 51.991C263.595 52.299 263.856 52.544 264.173 52.726C264.495 52.908 264.852 53.0013 265.244 53.006C265.664 53.006 266.045 52.8987 266.385 52.684C266.726 52.4647 267.001 52.166 267.211 51.788L268.408 52.068C268.128 52.6887 267.706 53.1973 267.141 53.594C266.577 53.986 265.944 54.182 265.244 54.182ZM262.962 50.003H267.526C267.489 49.611 267.363 49.254 267.148 48.932C266.934 48.6053 266.661 48.344 266.329 48.148C265.998 47.952 265.636 47.854 265.244 47.854C264.852 47.854 264.493 47.9497 264.166 48.141C263.84 48.3323 263.569 48.5913 263.354 48.918C263.144 49.24 263.014 49.6017 262.962 50.003ZM269.889 54V47H271.065V47.875C271.312 47.5483 271.625 47.2893 272.003 47.098C272.381 46.902 272.791 46.804 273.235 46.804C273.505 46.804 273.767 46.839 274.019 46.909L273.543 48.085C273.351 48.0243 273.165 47.994 272.983 47.994C272.633 47.994 272.311 48.0803 272.017 48.253C271.727 48.421 271.496 48.6497 271.324 48.939C271.151 49.2283 271.065 49.5503 271.065 49.905V54H269.889ZM278.642 54H277.137L274.582 46.986H275.835L277.886 52.635L279.937 46.986H281.19L278.642 54ZM282.33 47H283.506V54H282.33V47ZM282.932 45.859C282.746 45.859 282.589 45.7983 282.463 45.677C282.337 45.5557 282.274 45.404 282.274 45.222C282.274 45.04 282.337 44.8883 282.463 44.767C282.589 44.6457 282.743 44.585 282.925 44.585C283.107 44.585 283.261 44.6457 283.387 44.767C283.513 44.8883 283.576 45.04 283.576 45.222C283.576 45.404 283.513 45.5557 283.387 45.677C283.266 45.7983 283.114 45.859 282.932 45.859ZM289.915 52.152L290.965 52.719C290.648 53.1623 290.244 53.517 289.754 53.783C289.269 54.049 288.741 54.182 288.172 54.182C287.528 54.182 286.94 54.0163 286.408 53.685C285.881 53.3537 285.458 52.9103 285.141 52.355C284.828 51.795 284.672 51.1767 284.672 50.5C284.672 49.9867 284.763 49.5083 284.945 49.065C285.127 48.617 285.377 48.225 285.694 47.889C286.016 47.5483 286.389 47.2823 286.814 47.091C287.239 46.8997 287.691 46.804 288.172 46.804C288.741 46.804 289.269 46.937 289.754 47.203C290.244 47.469 290.648 47.826 290.965 48.274L289.915 48.841C289.691 48.5657 289.425 48.3533 289.117 48.204C288.809 48.0547 288.494 47.98 288.172 47.98C287.738 47.98 287.344 48.0967 286.989 48.33C286.639 48.5587 286.361 48.8643 286.156 49.247C285.951 49.6297 285.848 50.0473 285.848 50.5C285.848 50.9527 285.951 51.3703 286.156 51.753C286.366 52.131 286.646 52.4343 286.996 52.663C287.351 52.8917 287.743 53.006 288.172 53.006C288.517 53.006 288.842 52.9267 289.145 52.768C289.448 52.6093 289.705 52.404 289.915 52.152ZM295.186 54.182C294.542 54.182 293.954 54.0163 293.422 53.685C292.894 53.3537 292.472 52.9103 292.155 52.355C291.842 51.795 291.686 51.1767 291.686 50.5C291.686 49.9867 291.777 49.5083 291.959 49.065C292.141 48.617 292.39 48.225 292.708 47.889C293.03 47.5483 293.403 47.2823 293.828 47.091C294.252 46.8997 294.705 46.804 295.186 46.804C295.713 46.804 296.196 46.9113 296.635 47.126C297.078 47.336 297.456 47.63 297.769 48.008C298.086 48.386 298.322 48.8247 298.476 49.324C298.634 49.8233 298.693 50.3577 298.651 50.927H292.939C292.995 51.3237 293.125 51.6783 293.331 51.991C293.536 52.299 293.797 52.544 294.115 52.726C294.437 52.908 294.794 53.0013 295.186 53.006C295.606 53.006 295.986 52.8987 296.327 52.684C296.667 52.4647 296.943 52.166 297.153 51.788L298.35 52.068C298.07 52.6887 297.647 53.1973 297.083 53.594C296.518 53.986 295.886 54.182 295.186 54.182ZM292.904 50.003H297.468C297.43 49.611 297.304 49.254 297.09 48.932C296.875 48.6053 296.602 48.344 296.271 48.148C295.939 47.952 295.578 47.854 295.186 47.854C294.794 47.854 294.434 47.9497 294.108 48.141C293.781 48.3323 293.51 48.5913 293.296 48.918C293.086 49.24 292.955 49.6017 292.904 50.003ZM301.993 54.133C301.615 54.119 301.246 54.049 300.887 53.923C300.532 53.7923 300.219 53.6173 299.949 53.398C299.683 53.174 299.489 52.9173 299.368 52.628L300.376 52.194C300.446 52.3527 300.572 52.502 300.754 52.642C300.936 52.782 301.146 52.894 301.384 52.978C301.622 53.062 301.862 53.104 302.105 53.104C302.361 53.104 302.602 53.0643 302.826 52.985C303.05 52.9057 303.232 52.789 303.372 52.635C303.516 52.4763 303.589 52.2873 303.589 52.068C303.589 51.8347 303.509 51.6527 303.351 51.522C303.197 51.3867 303.001 51.2817 302.763 51.207C302.529 51.1277 302.291 51.053 302.049 50.983C301.568 50.8617 301.139 50.717 300.761 50.549C300.383 50.3763 300.084 50.1593 299.865 49.898C299.65 49.632 299.543 49.2937 299.543 48.883C299.543 48.449 299.662 48.0733 299.9 47.756C300.142 47.4387 300.46 47.1937 300.852 47.021C301.244 46.8483 301.664 46.762 302.112 46.762C302.676 46.762 303.192 46.8833 303.659 47.126C304.125 47.3687 304.473 47.6977 304.702 48.113L303.757 48.666C303.677 48.498 303.556 48.351 303.393 48.225C303.229 48.0943 303.043 47.9917 302.833 47.917C302.623 47.8423 302.408 47.8027 302.189 47.798C301.918 47.7887 301.664 47.8237 301.426 47.903C301.192 47.9823 301.003 48.1037 300.859 48.267C300.719 48.4257 300.649 48.624 300.649 48.862C300.649 49.0953 300.723 49.2727 300.873 49.394C301.027 49.5153 301.225 49.6133 301.468 49.688C301.715 49.758 301.983 49.8397 302.273 49.933C302.697 50.0683 303.094 50.2247 303.463 50.402C303.831 50.5793 304.128 50.801 304.352 51.067C304.58 51.333 304.692 51.662 304.688 52.054C304.688 52.4833 304.559 52.859 304.303 53.181C304.046 53.4983 303.712 53.741 303.302 53.909C302.896 54.077 302.459 54.1517 301.993 54.133ZM305.58 54.784L306.014 52.418H307.19L306.364 54.784H305.58ZM312.231 47H313.407V54H312.231V47ZM312.833 45.859C312.646 45.859 312.49 45.7983 312.364 45.677C312.238 45.5557 312.175 45.404 312.175 45.222C312.175 45.04 312.238 44.8883 312.364 44.767C312.49 44.6457 312.644 44.585 312.826 44.585C313.008 44.585 313.162 44.6457 313.288 44.767C313.414 44.8883 313.477 45.04 313.477 45.222C313.477 45.404 313.414 45.5557 313.288 45.677C313.166 45.7983 313.015 45.859 312.833 45.859ZM321.249 49.646V54H320.073V49.905C320.073 49.5503 319.986 49.2283 319.814 48.939C319.641 48.6497 319.41 48.421 319.121 48.253C318.831 48.0803 318.509 47.994 318.155 47.994C317.805 47.994 317.483 48.0803 317.189 48.253C316.899 48.421 316.668 48.6497 316.496 48.939C316.323 49.2283 316.237 49.5503 316.237 49.905V54H315.061V47H316.237V47.875C316.484 47.5483 316.797 47.2893 317.175 47.098C317.553 46.902 317.963 46.804 318.407 46.804C318.929 46.804 319.405 46.9323 319.835 47.189C320.269 47.441 320.612 47.7817 320.864 48.211C321.12 48.6403 321.249 49.1187 321.249 49.646ZM327.335 52.152L328.385 52.719C328.068 53.1623 327.664 53.517 327.174 53.783C326.689 54.049 326.161 54.182 325.592 54.182C324.948 54.182 324.36 54.0163 323.828 53.685C323.301 53.3537 322.878 52.9103 322.561 52.355C322.248 51.795 322.092 51.1767 322.092 50.5C322.092 49.9867 322.183 49.5083 322.365 49.065C322.547 48.617 322.797 48.225 323.114 47.889C323.436 47.5483 323.809 47.2823 324.234 47.091C324.659 46.8997 325.111 46.804 325.592 46.804C326.161 46.804 326.689 46.937 327.174 47.203C327.664 47.469 328.068 47.826 328.385 48.274L327.335 48.841C327.111 48.5657 326.845 48.3533 326.537 48.204C326.229 48.0547 325.914 47.98 325.592 47.98C325.158 47.98 324.764 48.0967 324.409 48.33C324.059 48.5587 323.781 48.8643 323.576 49.247C323.371 49.6297 323.268 50.0473 323.268 50.5C323.268 50.9527 323.371 51.3703 323.576 51.753C323.786 52.131 324.066 52.4343 324.416 52.663C324.771 52.8917 325.163 53.006 325.592 53.006C325.937 53.006 326.262 52.9267 326.565 52.768C326.868 52.6093 327.125 52.404 327.335 52.152ZM329.526 54V43.5H330.702V54H329.526ZM332.103 51.34V47H333.279V51.081C333.279 51.4357 333.365 51.7577 333.538 52.047C333.711 52.3363 333.942 52.5673 334.231 52.74C334.525 52.908 334.847 52.992 335.197 52.992C335.552 52.992 335.871 52.908 336.156 52.74C336.445 52.5673 336.676 52.3363 336.849 52.047C337.022 51.7577 337.108 51.4357 337.108 51.081V47H338.284L338.291 54H337.115L337.108 53.111C336.861 53.4377 336.548 53.699 336.17 53.895C335.792 54.0863 335.384 54.182 334.945 54.182C334.422 54.182 333.944 54.056 333.51 53.804C333.081 53.5473 332.738 53.2043 332.481 52.775C332.229 52.3457 332.103 51.8673 332.103 51.34ZM345.264 43.5H346.44V54H345.264V52.81C345.026 53.2207 344.706 53.552 344.305 53.804C343.904 54.056 343.432 54.182 342.891 54.182C342.382 54.182 341.906 54.0863 341.463 53.895C341.02 53.7037 340.628 53.44 340.287 53.104C339.951 52.7633 339.687 52.3713 339.496 51.928C339.305 51.4847 339.209 51.0087 339.209 50.5C339.209 49.9913 339.305 49.5153 339.496 49.072C339.687 48.624 339.951 48.232 340.287 47.896C340.628 47.5553 341.02 47.2893 341.463 47.098C341.906 46.9067 342.382 46.811 342.891 46.811C343.432 46.811 343.904 46.937 344.305 47.189C344.706 47.441 345.026 47.7723 345.264 48.183V43.5ZM342.905 53.041C343.367 53.041 343.766 52.929 344.102 52.705C344.443 52.4763 344.704 52.1683 344.886 51.781C345.073 51.3937 345.166 50.9667 345.166 50.5C345.166 50.024 345.073 49.5947 344.886 49.212C344.699 48.8247 344.436 48.519 344.095 48.295C343.759 48.0663 343.362 47.952 342.905 47.952C342.443 47.952 342.023 48.0663 341.645 48.295C341.272 48.5237 340.973 48.8317 340.749 49.219C340.525 49.6017 340.413 50.0287 340.413 50.5C340.413 50.9713 340.527 51.4007 340.756 51.788C340.985 52.1707 341.288 52.4763 341.666 52.705C342.044 52.929 342.457 53.041 342.905 53.041ZM348.119 47H349.295V54H348.119V47ZM348.721 45.859C348.535 45.859 348.378 45.7983 348.252 45.677C348.126 45.5557 348.063 45.404 348.063 45.222C348.063 45.04 348.126 44.8883 348.252 44.767C348.378 44.6457 348.532 44.585 348.714 44.585C348.896 44.585 349.05 44.6457 349.176 44.767C349.302 44.8883 349.365 45.04 349.365 45.222C349.365 45.404 349.302 45.5557 349.176 45.677C349.055 45.7983 348.903 45.859 348.721 45.859ZM357.137 49.646V54H355.961V49.905C355.961 49.5503 355.875 49.2283 355.702 48.939C355.53 48.6497 355.299 48.421 355.009 48.253C354.72 48.0803 354.398 47.994 354.043 47.994C353.693 47.994 353.371 48.0803 353.077 48.253C352.788 48.421 352.557 48.6497 352.384 48.939C352.212 49.2283 352.125 49.5503 352.125 49.905V54H350.949V47H352.125V47.875C352.373 47.5483 352.685 47.2893 353.063 47.098C353.441 46.902 353.852 46.804 354.295 46.804C354.818 46.804 355.294 46.9323 355.723 47.189C356.157 47.441 356.5 47.7817 356.752 48.211C357.009 48.6403 357.137 49.1187 357.137 49.646ZM363.868 47H365.044V54.224C365.044 54.686 364.943 55.1153 364.743 55.512C364.547 55.9133 364.281 56.261 363.945 56.555C363.609 56.8537 363.226 57.0847 362.797 57.248C362.367 57.416 361.919 57.5 361.453 57.5C360.967 57.5 360.498 57.3903 360.046 57.171C359.593 56.9563 359.196 56.667 358.856 56.303C358.52 55.9437 358.277 55.54 358.128 55.092L359.206 54.602C359.294 54.924 359.453 55.2133 359.682 55.47C359.915 55.7313 360.186 55.9367 360.494 56.086C360.806 56.24 361.126 56.317 361.453 56.317C361.761 56.317 362.057 56.2633 362.342 56.156C362.631 56.0487 362.89 55.8993 363.119 55.708C363.352 55.5213 363.534 55.2997 363.665 55.043C363.8 54.791 363.868 54.518 363.868 54.224V52.831C363.63 53.2323 363.315 53.559 362.923 53.811C362.535 54.0583 362.083 54.182 361.565 54.182C361.07 54.182 360.606 54.0863 360.172 53.895C359.738 53.7037 359.357 53.44 359.031 53.104C358.704 52.7633 358.447 52.3713 358.261 51.928C358.074 51.4847 357.981 51.0087 357.981 50.5C357.981 49.9913 358.074 49.5153 358.261 49.072C358.447 48.624 358.704 48.232 359.031 47.896C359.357 47.5553 359.738 47.2893 360.172 47.098C360.606 46.9067 361.07 46.811 361.565 46.811C362.083 46.811 362.535 46.9347 362.923 47.182C363.315 47.4293 363.63 47.756 363.868 48.162V47ZM361.572 53.041C362.024 53.041 362.416 52.9243 362.748 52.691C363.084 52.4577 363.343 52.1473 363.525 51.76C363.707 51.3727 363.798 50.9527 363.798 50.5C363.798 50.0333 363.704 49.6087 363.518 49.226C363.336 48.8387 363.077 48.5307 362.741 48.302C362.409 48.0687 362.02 47.952 361.572 47.952C361.133 47.952 360.732 48.0663 360.368 48.295C360.004 48.5237 359.714 48.8317 359.5 49.219C359.29 49.6017 359.185 50.0287 359.185 50.5C359.185 50.9713 359.292 51.4007 359.507 51.788C359.726 52.1707 360.015 52.4763 360.375 52.705C360.739 52.929 361.138 53.041 361.572 53.041ZM373.716 48.176H372.127L372.12 54H370.944L370.951 48.176H369.747V47H370.951L370.944 44.802H372.12L372.127 47H373.716V48.176ZM374.903 47H376.079V54H374.903V47ZM375.505 45.859C375.318 45.859 375.162 45.7983 375.036 45.677C374.91 45.5557 374.847 45.404 374.847 45.222C374.847 45.04 374.91 44.8883 375.036 44.767C375.162 44.6457 375.316 44.585 375.498 44.585C375.68 44.585 375.834 44.6457 375.96 44.767C376.086 44.8883 376.149 45.04 376.149 45.222C376.149 45.404 376.086 45.5557 375.96 45.677C375.838 45.7983 375.687 45.859 375.505 45.859ZM381.386 48.176H379.797L379.79 54H378.614L378.621 48.176H377.417V47H378.621L378.614 44.802H379.79L379.797 47H381.386V48.176ZM382.641 54V43.5H383.817V54H382.641ZM388.51 54.182C387.866 54.182 387.278 54.0163 386.746 53.685C386.219 53.3537 385.796 52.9103 385.479 52.355C385.166 51.795 385.01 51.1767 385.01 50.5C385.01 49.9867 385.101 49.5083 385.283 49.065C385.465 48.617 385.715 48.225 386.032 47.889C386.354 47.5483 386.727 47.2823 387.152 47.091C387.577 46.8997 388.029 46.804 388.51 46.804C389.037 46.804 389.52 46.9113 389.959 47.126C390.402 47.336 390.78 47.63 391.093 48.008C391.41 48.386 391.646 48.8247 391.8 49.324C391.959 49.8233 392.017 50.3577 391.975 50.927H386.263C386.319 51.3237 386.45 51.6783 386.655 51.991C386.86 52.299 387.122 52.544 387.439 52.726C387.761 52.908 388.118 53.0013 388.51 53.006C388.93 53.006 389.31 52.8987 389.651 52.684C389.992 52.4647 390.267 52.166 390.477 51.788L391.674 52.068C391.394 52.6887 390.972 53.1973 390.407 53.594C389.842 53.986 389.21 54.182 388.51 54.182ZM386.228 50.003H390.792C390.755 49.611 390.629 49.254 390.414 48.932C390.199 48.6053 389.926 48.344 389.595 48.148C389.264 47.952 388.902 47.854 388.51 47.854C388.118 47.854 387.759 47.9497 387.432 48.141C387.105 48.3323 386.835 48.5913 386.62 48.918C386.41 49.24 386.279 49.6017 386.228 50.003ZM400.239 48.176H398.65L398.643 54H397.467L397.474 48.176H396.27V47H397.474L397.467 44.802H398.643L398.65 47H400.239V48.176ZM401.494 54V47H402.67V47.875C402.918 47.5483 403.23 47.2893 403.608 47.098C403.986 46.902 404.397 46.804 404.84 46.804C405.111 46.804 405.372 46.839 405.624 46.909L405.148 48.085C404.957 48.0243 404.77 47.994 404.588 47.994C404.238 47.994 403.916 48.0803 403.622 48.253C403.333 48.421 403.102 48.6497 402.929 48.939C402.757 49.2283 402.67 49.5503 402.67 49.905V54H401.494ZM411.757 47H412.933V54H411.757L411.708 52.817C411.489 53.223 411.185 53.552 410.798 53.804C410.415 54.056 409.958 54.182 409.426 54.182C408.913 54.182 408.432 54.0863 407.984 53.895C407.536 53.699 407.139 53.4307 406.794 53.09C406.453 52.7447 406.187 52.348 405.996 51.9C405.805 51.452 405.709 50.969 405.709 50.451C405.709 49.9517 405.802 49.4803 405.989 49.037C406.176 48.5937 406.435 48.2063 406.766 47.875C407.102 47.539 407.489 47.2777 407.928 47.091C408.367 46.8997 408.838 46.804 409.342 46.804C409.893 46.804 410.376 46.9347 410.791 47.196C411.206 47.4527 411.542 47.7863 411.799 48.197L411.757 47ZM409.405 53.041C409.867 53.041 410.266 52.929 410.602 52.705C410.943 52.4763 411.204 52.1683 411.386 51.781C411.573 51.3937 411.666 50.9667 411.666 50.5C411.666 50.024 411.573 49.5947 411.386 49.212C411.199 48.8247 410.936 48.519 410.595 48.295C410.259 48.0663 409.862 47.952 409.405 47.952C408.943 47.952 408.523 48.0663 408.145 48.295C407.767 48.5237 407.466 48.8317 407.242 49.219C407.023 49.6017 406.913 50.0287 406.913 50.5C406.913 50.9713 407.027 51.4007 407.256 51.788C407.485 52.1707 407.788 52.4763 408.166 52.705C408.544 52.929 408.957 53.041 409.405 53.041ZM420.52 49.646V54H419.344V49.905C419.344 49.5503 419.258 49.2283 419.085 48.939C418.913 48.6497 418.682 48.421 418.392 48.253C418.103 48.0803 417.781 47.994 417.426 47.994C417.076 47.994 416.754 48.0803 416.46 48.253C416.171 48.421 415.94 48.6497 415.767 48.939C415.595 49.2283 415.508 49.5503 415.508 49.905V54H414.332V47H415.508V47.875C415.756 47.5483 416.068 47.2893 416.446 47.098C416.824 46.902 417.235 46.804 417.678 46.804C418.201 46.804 418.677 46.9323 419.106 47.189C419.54 47.441 419.883 47.7817 420.135 48.211C420.392 48.6403 420.52 49.1187 420.52 49.646ZM424.055 54.133C423.677 54.119 423.308 54.049 422.949 53.923C422.594 53.7923 422.282 53.6173 422.011 53.398C421.745 53.174 421.551 52.9173 421.43 52.628L422.438 52.194C422.508 52.3527 422.634 52.502 422.816 52.642C422.998 52.782 423.208 52.894 423.446 52.978C423.684 53.062 423.924 53.104 424.167 53.104C424.424 53.104 424.664 53.0643 424.888 52.985C425.112 52.9057 425.294 52.789 425.434 52.635C425.579 52.4763 425.651 52.2873 425.651 52.068C425.651 51.8347 425.572 51.6527 425.413 51.522C425.259 51.3867 425.063 51.2817 424.825 51.207C424.592 51.1277 424.354 51.053 424.111 50.983C423.63 50.8617 423.201 50.717 422.823 50.549C422.445 50.3763 422.146 50.1593 421.927 49.898C421.712 49.632 421.605 49.2937 421.605 48.883C421.605 48.449 421.724 48.0733 421.962 47.756C422.205 47.4387 422.522 47.1937 422.914 47.021C423.306 46.8483 423.726 46.762 424.174 46.762C424.739 46.762 425.254 46.8833 425.721 47.126C426.188 47.3687 426.535 47.6977 426.764 48.113L425.819 48.666C425.74 48.498 425.618 48.351 425.455 48.225C425.292 48.0943 425.105 47.9917 424.895 47.917C424.685 47.8423 424.47 47.8027 424.251 47.798C423.98 47.7887 423.726 47.8237 423.488 47.903C423.255 47.9823 423.066 48.1037 422.921 48.267C422.781 48.4257 422.711 48.624 422.711 48.862C422.711 49.0953 422.786 49.2727 422.935 49.394C423.089 49.5153 423.287 49.6133 423.53 49.688C423.777 49.758 424.046 49.8397 424.335 49.933C424.76 50.0683 425.156 50.2247 425.525 50.402C425.894 50.5793 426.19 50.801 426.414 51.067C426.643 51.333 426.755 51.662 426.75 52.054C426.75 52.4833 426.622 52.859 426.365 53.181C426.108 53.4983 425.775 53.741 425.364 53.909C424.958 54.077 424.522 54.1517 424.055 54.133ZM429.538 45.271V47H431.589V48.176H429.538V54H428.362V48.176H427.459V47H428.362V45.271C428.362 44.9117 428.449 44.5873 428.621 44.298C428.799 44.004 429.034 43.7707 429.328 43.598C429.627 43.4207 429.954 43.332 430.308 43.332C430.57 43.332 430.824 43.3857 431.071 43.493C431.319 43.5957 431.538 43.7497 431.729 43.955L430.889 44.788C430.824 44.6993 430.738 44.6317 430.63 44.585C430.528 44.5337 430.42 44.508 430.308 44.508C430.098 44.508 429.916 44.5827 429.762 44.732C429.613 44.8813 429.538 45.061 429.538 45.271ZM435.65 54.182C435.006 54.182 434.418 54.0163 433.886 53.685C433.359 53.3537 432.937 52.9103 432.619 52.355C432.307 51.795 432.15 51.1767 432.15 50.5C432.15 49.9867 432.241 49.5083 432.423 49.065C432.605 48.617 432.855 48.225 433.172 47.889C433.494 47.5483 433.868 47.2823 434.292 47.091C434.717 46.8997 435.17 46.804 435.65 46.804C436.178 46.804 436.661 46.9113 437.099 47.126C437.543 47.336 437.921 47.63 438.233 48.008C438.551 48.386 438.786 48.8247 438.94 49.324C439.099 49.8233 439.157 50.3577 439.115 50.927H433.403C433.459 51.3237 433.59 51.6783 433.795 51.991C434.001 52.299 434.262 52.544 434.579 52.726C434.901 52.908 435.258 53.0013 435.65 53.006C436.07 53.006 436.451 52.8987 436.791 52.684C437.132 52.4647 437.407 52.166 437.617 51.788L438.814 52.068C438.534 52.6887 438.112 53.1973 437.547 53.594C436.983 53.986 436.35 54.182 435.65 54.182ZM433.368 50.003H437.932C437.895 49.611 437.769 49.254 437.554 48.932C437.34 48.6053 437.067 48.344 436.735 48.148C436.404 47.952 436.042 47.854 435.65 47.854C435.258 47.854 434.899 47.9497 434.572 48.141C434.246 48.3323 433.975 48.5913 433.76 48.918C433.55 49.24 433.42 49.6017 433.368 50.003ZM440.295 54V47H441.471V47.875C441.718 47.5483 442.031 47.2893 442.409 47.098C442.787 46.902 443.198 46.804 443.641 46.804C443.912 46.804 444.173 46.839 444.425 46.909L443.949 48.085C443.758 48.0243 443.571 47.994 443.389 47.994C443.039 47.994 442.717 48.0803 442.423 48.253C442.134 48.421 441.903 48.6497 441.73 48.939C441.557 49.2283 441.471 49.5503 441.471 49.905V54H440.295Z" fill="#999999"></path></g><defs><clipPath id="clip0_166_1042"><rect width="462.5" height="66" fill="white" transform="translate(0.5)"></rect></clipPath></defs></svg>