<svg xmlns="http://www.w3.org/2000/svg" width="455" height="212" viewBox="0 0 455 212" fill="none"><rect x="0.5" y="0.5" width="454" height="211" rx="11.5" fill="#1A1A1A"></rect><rect x="0.5" y="0.5" width="454" height="211" rx="11.5" stroke="#262626"></rect><rect x="187" y="40.5" width="81" height="81" rx="40.5" stroke="url(#paint0_linear_134_6206)"></rect><rect x="187" y="40.5" width="81" height="81" rx="40.5" stroke="url(#paint1_linear_134_6206)"></rect><rect x="197" y="50.5" width="61" height="61" rx="30.5" stroke="url(#paint2_linear_134_6206)"></rect><rect x="197" y="50.5" width="61" height="61" rx="30.5" stroke="url(#paint3_linear_134_6206)"></rect><path d="M215.392 76.1058C217.384 78.0975 220.613 78.0975 222.605 76.1058C222.849 75.8611 223.064 75.5977 223.249 75.3201C224.162 76.6941 225.725 77.5996 227.498 77.5996C229.272 77.5996 230.835 76.6939 231.749 75.3196C231.933 75.5973 232.148 75.861 232.393 76.1059C234.385 78.0976 237.614 78.0976 239.605 76.1059C241.597 74.1142 241.597 70.8851 239.605 68.8934L239.108 68.3959C238.47 67.7582 237.605 67.4 236.704 67.4H218.294C217.392 67.4 216.527 67.7582 215.89 68.3959L215.392 68.8933C213.401 70.885 213.401 74.1142 215.392 76.1058Z" fill="#A685FA"></path><path d="M215.598 79.3548C218.026 80.5592 220.96 80.3947 223.249 78.8615C224.464 79.6741 225.925 80.1496 227.498 80.1496C229.072 80.1496 230.533 79.6741 231.748 78.8613C234.037 80.3946 236.971 80.5593 239.398 79.3553V92.05H239.823C240.528 92.05 241.098 92.6209 241.098 93.325C241.098 94.0292 240.528 94.6 239.823 94.6H232.173C231.469 94.6 230.898 94.0292 230.898 93.325V87.375C230.898 86.6709 230.328 86.1 229.623 86.1H225.373C224.669 86.1 224.098 86.6709 224.098 87.375V93.325C224.098 94.0292 223.528 94.6 222.823 94.6H215.173C214.469 94.6 213.898 94.0292 213.898 93.325C213.898 92.6209 214.469 92.05 215.173 92.05H215.598V79.3548Z" fill="#A685FA"></path><path d="M126.63 164V150H134.88V152.08H128.71V155.46H133.92V157.54H128.71V164H126.63ZM135.731 154H137.811V164H135.731V154ZM136.791 152.55C136.471 152.55 136.205 152.447 135.991 152.24C135.778 152.033 135.671 151.773 135.671 151.46C135.671 151.153 135.778 150.897 135.991 150.69C136.205 150.477 136.468 150.37 136.781 150.37C137.088 150.37 137.348 150.477 137.561 150.69C137.775 150.897 137.881 151.153 137.881 151.46C137.881 151.773 137.775 152.033 137.561 152.24C137.355 152.447 137.098 152.55 136.791 152.55ZM149.145 157.73V164H147.065V158.24C147.065 157.793 146.955 157.387 146.735 157.02C146.522 156.653 146.232 156.363 145.865 156.15C145.505 155.93 145.099 155.82 144.645 155.82C144.205 155.82 143.802 155.93 143.435 156.15C143.069 156.363 142.775 156.653 142.555 157.02C142.335 157.387 142.225 157.793 142.225 158.24V164H140.145V154H142.225V155.06C142.572 154.647 142.999 154.32 143.505 154.08C144.012 153.84 144.559 153.72 145.145 153.72C145.885 153.72 146.559 153.9 147.165 154.26C147.772 154.62 148.252 155.103 148.605 155.71C148.965 156.317 149.145 156.99 149.145 157.73ZM158.736 149H160.816V164H158.736V162.53C158.409 163.05 157.983 163.47 157.456 163.79C156.929 164.103 156.313 164.26 155.606 164.26C154.879 164.26 154.199 164.123 153.566 163.85C152.933 163.577 152.373 163.2 151.886 162.72C151.406 162.233 151.029 161.673 150.756 161.04C150.483 160.407 150.346 159.727 150.346 159C150.346 158.273 150.483 157.593 150.756 156.96C151.029 156.32 151.406 155.76 151.886 155.28C152.373 154.793 152.933 154.413 153.566 154.14C154.199 153.867 154.879 153.73 155.606 153.73C156.313 153.73 156.929 153.89 157.456 154.21C157.983 154.523 158.409 154.937 158.736 155.45V149ZM155.626 162.25C156.213 162.25 156.726 162.107 157.166 161.82C157.606 161.527 157.946 161.133 158.186 160.64C158.433 160.147 158.556 159.6 158.556 159C158.556 158.393 158.433 157.843 158.186 157.35C157.939 156.857 157.596 156.467 157.156 156.18C156.723 155.887 156.213 155.74 155.626 155.74C155.046 155.74 154.516 155.887 154.036 156.18C153.563 156.473 153.183 156.867 152.896 157.36C152.616 157.853 152.476 158.4 152.476 159C152.476 159.607 152.619 160.157 152.906 160.65C153.199 161.137 153.583 161.527 154.056 161.82C154.536 162.107 155.059 162.25 155.626 162.25ZM176.596 150H179.046L174.266 157.68V164H172.186V157.68L167.416 150H169.866L173.226 155.41L176.596 150ZM183.315 164.26C182.395 164.26 181.555 164.023 180.795 163.55C180.042 163.077 179.438 162.443 178.985 161.65C178.538 160.85 178.315 159.967 178.315 159C178.315 158.267 178.445 157.583 178.705 156.95C178.965 156.31 179.322 155.75 179.775 155.27C180.235 154.783 180.768 154.403 181.375 154.13C181.982 153.857 182.628 153.72 183.315 153.72C184.235 153.72 185.072 153.957 185.825 154.43C186.585 154.903 187.188 155.54 187.635 156.34C188.088 157.14 188.315 158.027 188.315 159C188.315 159.727 188.185 160.407 187.925 161.04C187.665 161.673 187.305 162.233 186.845 162.72C186.392 163.2 185.862 163.577 185.255 163.85C184.655 164.123 184.008 164.26 183.315 164.26ZM183.315 162.18C183.868 162.18 184.365 162.033 184.805 161.74C185.245 161.447 185.592 161.06 185.845 160.58C186.105 160.093 186.235 159.567 186.235 159C186.235 158.42 186.102 157.887 185.835 157.4C185.575 156.913 185.225 156.527 184.785 156.24C184.345 155.947 183.855 155.8 183.315 155.8C182.768 155.8 182.272 155.947 181.825 156.24C181.385 156.533 181.035 156.923 180.775 157.41C180.522 157.897 180.395 158.427 180.395 159C180.395 159.593 180.528 160.13 180.795 160.61C181.062 161.09 181.415 161.473 181.855 161.76C182.302 162.04 182.788 162.18 183.315 162.18ZM189.335 160.25V154H191.415V159.74C191.415 160.187 191.525 160.593 191.745 160.96C191.965 161.327 192.258 161.62 192.625 161.84C192.992 162.053 193.395 162.16 193.835 162.16C194.282 162.16 194.685 162.053 195.045 161.84C195.412 161.62 195.702 161.327 195.915 160.96C196.135 160.593 196.245 160.187 196.245 159.74V154H198.325L198.335 164H196.255L196.245 162.92C195.905 163.333 195.482 163.66 194.975 163.9C194.468 164.14 193.925 164.26 193.345 164.26C192.605 164.26 191.932 164.08 191.325 163.72C190.718 163.36 190.235 162.877 189.875 162.27C189.515 161.663 189.335 160.99 189.335 160.25ZM200.341 164V154H202.421V155.06C202.767 154.647 203.194 154.32 203.701 154.08C204.207 153.84 204.754 153.72 205.341 153.72C205.714 153.72 206.084 153.77 206.451 153.87L205.621 155.97C205.361 155.87 205.101 155.82 204.841 155.82C204.401 155.82 203.997 155.93 203.631 156.15C203.264 156.363 202.971 156.653 202.751 157.02C202.531 157.387 202.421 157.793 202.421 158.24V164H200.341ZM212.665 164V150H217.295C218.262 150 219.168 150.183 220.015 150.55C220.862 150.91 221.605 151.413 222.245 152.06C222.885 152.7 223.385 153.443 223.745 154.29C224.112 155.13 224.295 156.033 224.295 157C224.295 157.967 224.112 158.873 223.745 159.72C223.385 160.56 222.885 161.303 222.245 161.95C221.605 162.59 220.862 163.093 220.015 163.46C219.168 163.82 218.262 164 217.295 164H212.665ZM214.745 161.92H217.295C217.975 161.92 218.608 161.793 219.195 161.54C219.788 161.287 220.312 160.933 220.765 160.48C221.225 160.027 221.582 159.503 221.835 158.91C222.088 158.317 222.215 157.68 222.215 157C222.215 156.32 222.088 155.683 221.835 155.09C221.582 154.497 221.225 153.973 220.765 153.52C220.312 153.067 219.788 152.713 219.195 152.46C218.608 152.207 217.975 152.08 217.295 152.08H214.745V161.92ZM226.044 164V154H228.124V155.06C228.47 154.647 228.897 154.32 229.404 154.08C229.91 153.84 230.457 153.72 231.044 153.72C231.417 153.72 231.787 153.77 232.154 153.87L231.324 155.97C231.064 155.87 230.804 155.82 230.544 155.82C230.104 155.82 229.7 155.93 229.334 156.15C228.967 156.363 228.674 156.653 228.454 157.02C228.234 157.387 228.124 157.793 228.124 158.24V164H226.044ZM237.241 164.26C236.321 164.26 235.481 164.023 234.721 163.55C233.967 163.077 233.364 162.443 232.911 161.65C232.464 160.85 232.241 159.967 232.241 159C232.241 158.267 232.371 157.583 232.631 156.95C232.891 156.31 233.247 155.75 233.701 155.27C234.161 154.783 234.694 154.403 235.301 154.13C235.907 153.857 236.554 153.72 237.241 153.72C238.007 153.72 238.711 153.88 239.351 154.2C239.991 154.513 240.537 154.95 240.991 155.51C241.444 156.063 241.777 156.703 241.991 157.43C242.204 158.15 242.267 158.917 242.181 159.73H234.471C234.557 160.19 234.724 160.607 234.971 160.98C235.224 161.347 235.544 161.637 235.931 161.85C236.324 162.063 236.761 162.173 237.241 162.18C237.747 162.18 238.207 162.053 238.621 161.8C239.041 161.547 239.384 161.197 239.651 160.75L241.761 161.24C241.361 162.127 240.757 162.853 239.951 163.42C239.144 163.98 238.241 164.26 237.241 164.26ZM234.401 158.14H240.081C240.014 157.66 239.844 157.227 239.571 156.84C239.304 156.447 238.967 156.137 238.561 155.91C238.161 155.677 237.721 155.56 237.241 155.56C236.767 155.56 236.327 155.673 235.921 155.9C235.521 156.127 235.187 156.437 234.921 156.83C234.661 157.217 234.487 157.653 234.401 158.14ZM251.597 154H253.677V164H251.587L251.507 162.55C251.214 163.063 250.817 163.477 250.317 163.79C249.817 164.103 249.227 164.26 248.547 164.26C247.814 164.26 247.124 164.123 246.477 163.85C245.831 163.57 245.261 163.183 244.767 162.69C244.281 162.197 243.901 161.63 243.627 160.99C243.354 160.343 243.217 159.65 243.217 158.91C243.217 158.197 243.351 157.527 243.617 156.9C243.884 156.267 244.254 155.713 244.727 155.24C245.201 154.767 245.747 154.397 246.367 154.13C246.994 153.857 247.664 153.72 248.377 153.72C249.104 153.72 249.744 153.887 250.297 154.22C250.857 154.547 251.321 154.967 251.687 155.48L251.597 154ZM248.497 162.25C249.084 162.25 249.597 162.107 250.037 161.82C250.477 161.527 250.817 161.133 251.057 160.64C251.304 160.147 251.427 159.6 251.427 159C251.427 158.393 251.304 157.843 251.057 157.35C250.811 156.857 250.467 156.467 250.027 156.18C249.594 155.887 249.084 155.74 248.497 155.74C247.917 155.74 247.387 155.887 246.907 156.18C246.427 156.473 246.047 156.867 245.767 157.36C245.487 157.853 245.347 158.4 245.347 159C245.347 159.607 245.491 160.157 245.777 160.65C246.071 161.137 246.454 161.527 246.927 161.82C247.407 162.107 247.931 162.25 248.497 162.25ZM255.673 164V154H257.753V155.06C258.099 154.647 258.523 154.32 259.023 154.08C259.529 153.84 260.076 153.72 260.663 153.72C261.376 153.72 262.033 153.893 262.633 154.24C263.233 154.58 263.709 155.033 264.063 155.6C264.416 155.033 264.886 154.58 265.473 154.24C266.066 153.893 266.719 153.72 267.433 153.72C268.173 153.72 268.846 153.9 269.453 154.26C270.059 154.62 270.543 155.103 270.903 155.71C271.263 156.317 271.443 156.99 271.443 157.73V164H269.363V158.26C269.363 157.82 269.256 157.417 269.043 157.05C268.829 156.683 268.543 156.387 268.183 156.16C267.823 155.933 267.423 155.82 266.983 155.82C266.543 155.82 266.143 155.927 265.783 156.14C265.423 156.353 265.136 156.643 264.923 157.01C264.709 157.377 264.603 157.793 264.603 158.26V164H262.523V158.26C262.523 157.793 262.416 157.377 262.203 157.01C261.989 156.643 261.699 156.353 261.333 156.14C260.973 155.927 260.573 155.82 260.133 155.82C259.699 155.82 259.299 155.933 258.933 156.16C258.573 156.387 258.286 156.683 258.073 157.05C257.859 157.417 257.753 157.82 257.753 158.26V164H255.673ZM286.661 150H288.741V164H286.661V157.54H280.331V164H278.251V150H280.331V155.46H286.661V150ZM295.405 164.26C294.485 164.26 293.645 164.023 292.885 163.55C292.131 163.077 291.528 162.443 291.075 161.65C290.628 160.85 290.405 159.967 290.405 159C290.405 158.267 290.535 157.583 290.795 156.95C291.055 156.31 291.411 155.75 291.865 155.27C292.325 154.783 292.858 154.403 293.465 154.13C294.071 153.857 294.718 153.72 295.405 153.72C296.325 153.72 297.161 153.957 297.915 154.43C298.675 154.903 299.278 155.54 299.725 156.34C300.178 157.14 300.405 158.027 300.405 159C300.405 159.727 300.275 160.407 300.015 161.04C299.755 161.673 299.395 162.233 298.935 162.72C298.481 163.2 297.951 163.577 297.345 163.85C296.745 164.123 296.098 164.26 295.405 164.26ZM295.405 162.18C295.958 162.18 296.455 162.033 296.895 161.74C297.335 161.447 297.681 161.06 297.935 160.58C298.195 160.093 298.325 159.567 298.325 159C298.325 158.42 298.191 157.887 297.925 157.4C297.665 156.913 297.315 156.527 296.875 156.24C296.435 155.947 295.945 155.8 295.405 155.8C294.858 155.8 294.361 155.947 293.915 156.24C293.475 156.533 293.125 156.923 292.865 157.41C292.611 157.897 292.485 158.427 292.485 159C292.485 159.593 292.618 160.13 292.885 160.61C293.151 161.09 293.505 161.473 293.945 161.76C294.391 162.04 294.878 162.18 295.405 162.18ZM302.02 164V154H304.1V155.06C304.447 154.647 304.87 154.32 305.37 154.08C305.877 153.84 306.424 153.72 307.01 153.72C307.724 153.72 308.38 153.893 308.98 154.24C309.58 154.58 310.057 155.033 310.41 155.6C310.764 155.033 311.234 154.58 311.82 154.24C312.414 153.893 313.067 153.72 313.78 153.72C314.52 153.72 315.194 153.9 315.8 154.26C316.407 154.62 316.89 155.103 317.25 155.71C317.61 156.317 317.79 156.99 317.79 157.73V164H315.71V158.26C315.71 157.82 315.604 157.417 315.39 157.05C315.177 156.683 314.89 156.387 314.53 156.16C314.17 155.933 313.77 155.82 313.33 155.82C312.89 155.82 312.49 155.927 312.13 156.14C311.77 156.353 311.484 156.643 311.27 157.01C311.057 157.377 310.95 157.793 310.95 158.26V164H308.87V158.26C308.87 157.793 308.764 157.377 308.55 157.01C308.337 156.643 308.047 156.353 307.68 156.14C307.32 155.927 306.92 155.82 306.48 155.82C306.047 155.82 305.647 155.933 305.28 156.16C304.92 156.387 304.634 156.683 304.42 157.05C304.207 157.417 304.1 157.82 304.1 158.26V164H302.02ZM323.998 164.26C323.078 164.26 322.238 164.023 321.478 163.55C320.725 163.077 320.122 162.443 319.668 161.65C319.222 160.85 318.998 159.967 318.998 159C318.998 158.267 319.128 157.583 319.388 156.95C319.648 156.31 320.005 155.75 320.458 155.27C320.918 154.783 321.452 154.403 322.058 154.13C322.665 153.857 323.312 153.72 323.998 153.72C324.765 153.72 325.468 153.88 326.108 154.2C326.748 154.513 327.295 154.95 327.748 155.51C328.202 156.063 328.535 156.703 328.748 157.43C328.962 158.15 329.025 158.917 328.938 159.73H321.228C321.315 160.19 321.482 160.607 321.728 160.98C321.982 161.347 322.302 161.637 322.688 161.85C323.082 162.063 323.518 162.173 323.998 162.18C324.505 162.18 324.965 162.053 325.378 161.8C325.798 161.547 326.142 161.197 326.408 160.75L328.518 161.24C328.118 162.127 327.515 162.853 326.708 163.42C325.902 163.98 324.998 164.26 323.998 164.26ZM321.158 158.14H326.838C326.772 157.66 326.602 157.227 326.328 156.84C326.062 156.447 325.725 156.137 325.318 155.91C324.918 155.677 324.478 155.56 323.998 155.56C323.525 155.56 323.085 155.673 322.678 155.9C322.278 156.127 321.945 156.437 321.678 156.83C321.418 157.217 321.245 157.653 321.158 158.14Z" fill="white"></path><path d="M407.375 47.625L428.625 26.375M428.625 26.375L412.687 26.375M428.625 26.375V42.3125" stroke="#4D4D4D" stroke-width="2" stroke-linecap="round" stroke-linejoin="round"></path><defs><linearGradient id="paint0_linear_134_6206" x1="193.25" y1="126.5" x2="272.25" y2="34.5" gradientUnits="userSpaceOnUse"><stop stop-color="#A685FA"></stop><stop offset="0.323723" stop-color="#A685FA" stop-opacity="0"></stop></linearGradient><linearGradient id="paint1_linear_134_6206" x1="268.25" y1="29.5" x2="193.25" y2="122" gradientUnits="userSpaceOnUse"><stop stop-color="#A685FA"></stop><stop offset="0.576615" stop-color="#A685FA" stop-opacity="0"></stop></linearGradient><linearGradient id="paint2_linear_134_6206" x1="189.75" y1="53.5" x2="258.25" y2="112" gradientUnits="userSpaceOnUse"><stop stop-color="#A685FA"></stop><stop offset="0.323723" stop-color="#A685FA" stop-opacity="0"></stop></linearGradient><linearGradient id="paint3_linear_134_6206" x1="270.75" y1="126" x2="198.75" y2="75" gradientUnits="userSpaceOnUse"><stop stop-color="#A685FA"></stop><stop offset="0.576615" stop-color="#A685FA" stop-opacity="0"></stop></linearGradient></defs></svg>