<svg xmlns="http://www.w3.org/2000/svg" width="463" height="63" viewBox="0 0 463 63" fill="none"><g clip-path="url(#clip0_166_1096)"><path d="M0.84 15V5.2H2.016V13.824H6.405V15H0.84ZM7.94938 8H9.12538V15H7.94938V8ZM8.55138 6.859C8.36471 6.859 8.20838 6.79833 8.08238 6.677C7.95638 6.55567 7.89338 6.404 7.89338 6.222C7.89338 6.04 7.95638 5.88833 8.08238 5.767C8.20838 5.64567 8.36238 5.585 8.54438 5.585C8.72638 5.585 8.88038 5.64567 9.00638 5.767C9.13238 5.88833 9.19538 6.04 9.19538 6.222C9.19538 6.404 9.13238 6.55567 9.00638 6.677C8.88504 6.79833 8.73338 6.859 8.55138 6.859ZM12.8734 15.133C12.4954 15.119 12.1268 15.049 11.7674 14.923C11.4128 14.7923 11.1001 14.6173 10.8294 14.398C10.5634 14.174 10.3698 13.9173 10.2484 13.628L11.2564 13.194C11.3264 13.3527 11.4524 13.502 11.6344 13.642C11.8164 13.782 12.0264 13.894 12.2644 13.978C12.5024 14.062 12.7428 14.104 12.9854 14.104C13.2421 14.104 13.4824 14.0643 13.7064 13.985C13.9304 13.9057 14.1124 13.789 14.2524 13.635C14.3971 13.4763 14.4694 13.2873 14.4694 13.068C14.4694 12.8347 14.3901 12.6527 14.2314 12.522C14.0774 12.3867 13.8814 12.2817 13.6434 12.207C13.4101 12.1277 13.1721 12.053 12.9294 11.983C12.4488 11.8617 12.0194 11.717 11.6414 11.549C11.2634 11.3763 10.9648 11.1593 10.7454 10.898C10.5308 10.632 10.4234 10.2937 10.4234 9.883C10.4234 9.449 10.5424 9.07333 10.7804 8.756C11.0231 8.43867 11.3404 8.19367 11.7324 8.021C12.1244 7.84833 12.5444 7.762 12.9924 7.762C13.5571 7.762 14.0728 7.88333 14.5394 8.126C15.0061 8.36867 15.3538 8.69767 15.5824 9.113L14.6374 9.666C14.5581 9.498 14.4368 9.351 14.2734 9.225C14.1101 9.09433 13.9234 8.99167 13.7134 8.917C13.5034 8.84233 13.2888 8.80267 13.0694 8.798C12.7988 8.78867 12.5444 8.82367 12.3064 8.903C12.0731 8.98233 11.8841 9.10367 11.7394 9.267C11.5994 9.42567 11.5294 9.624 11.5294 9.862C11.5294 10.0953 11.6041 10.2727 11.7534 10.394C11.9074 10.5153 12.1058 10.6133 12.3484 10.688C12.5958 10.758 12.8641 10.8397 13.1534 10.933C13.5781 11.0683 13.9748 11.2247 14.3434 11.402C14.7121 11.5793 15.0084 11.801 15.2324 12.067C15.4611 12.333 15.5731 12.662 15.5684 13.054C15.5684 13.4833 15.4401 13.859 15.1834 14.181C14.9268 14.4983 14.5931 14.741 14.1824 14.909C13.7764 15.077 13.3401 15.1517 12.8734 15.133ZM20.3937 9.176H18.8047L18.7977 15H17.6217L17.6287 9.176H16.4247V8H17.6287L17.6217 5.802H18.7977L18.8047 8H20.3937V9.176ZM21.5802 8H22.7562V15H21.5802V8ZM22.1822 6.859C21.9956 6.859 21.8392 6.79833 21.7132 6.677C21.5872 6.55567 21.5242 6.404 21.5242 6.222C21.5242 6.04 21.5872 5.88833 21.7132 5.767C21.8392 5.64567 21.9932 5.585 22.1752 5.585C22.3572 5.585 22.5112 5.64567 22.6372 5.767C22.7632 5.88833 22.8262 6.04 22.8262 6.222C22.8262 6.404 22.7632 6.55567 22.6372 6.677C22.5159 6.79833 22.3642 6.859 22.1822 6.859ZM30.5983 10.646V15H29.4223V10.905C29.4223 10.5503 29.336 10.2283 29.1633 9.939C28.9906 9.64967 28.7596 9.421 28.4703 9.253C28.181 9.08033 27.859 8.994 27.5043 8.994C27.1543 8.994 26.8323 9.08033 26.5383 9.253C26.249 9.421 26.018 9.64967 25.8453 9.939C25.6726 10.2283 25.5863 10.5503 25.5863 10.905V15H24.4103V8H25.5863V8.875C25.8336 8.54833 26.1463 8.28933 26.5243 8.098C26.9023 7.902 27.313 7.804 27.7563 7.804C28.279 7.804 28.755 7.93233 29.1843 8.189C29.6183 8.441 29.9613 8.78167 30.2133 9.211C30.47 9.64033 30.5983 10.1187 30.5983 10.646ZM37.3285 8H38.5045V15.224C38.5045 15.686 38.4042 16.1153 38.2035 16.512C38.0075 16.9133 37.7415 17.261 37.4055 17.555C37.0695 17.8537 36.6868 18.0847 36.2575 18.248C35.8282 18.416 35.3802 18.5 34.9135 18.5C34.4282 18.5 33.9592 18.3903 33.5065 18.171C33.0538 17.9563 32.6572 17.667 32.3165 17.303C31.9805 16.9437 31.7378 16.54 31.5885 16.092L32.6665 15.602C32.7552 15.924 32.9138 16.2133 33.1425 16.47C33.3758 16.7313 33.6465 16.9367 33.9545 17.086C34.2672 17.24 34.5868 17.317 34.9135 17.317C35.2215 17.317 35.5178 17.2633 35.8025 17.156C36.0918 17.0487 36.3508 16.8993 36.5795 16.708C36.8128 16.5213 36.9948 16.2997 37.1255 16.043C37.2608 15.791 37.3285 15.518 37.3285 15.224V13.831C37.0905 14.2323 36.7755 14.559 36.3835 14.811C35.9962 15.0583 35.5435 15.182 35.0255 15.182C34.5308 15.182 34.0665 15.0863 33.6325 14.895C33.1985 14.7037 32.8182 14.44 32.4915 14.104C32.1648 13.7633 31.9082 13.3713 31.7215 12.928C31.5348 12.4847 31.4415 12.0087 31.4415 11.5C31.4415 10.9913 31.5348 10.5153 31.7215 10.072C31.9082 9.624 32.1648 9.232 32.4915 8.896C32.8182 8.55533 33.1985 8.28933 33.6325 8.098C34.0665 7.90667 34.5308 7.811 35.0255 7.811C35.5435 7.811 35.9962 7.93467 36.3835 8.182C36.7755 8.42933 37.0905 8.756 37.3285 9.162V8ZM35.0325 14.041C35.4852 14.041 35.8772 13.9243 36.2085 13.691C36.5445 13.4577 36.8035 13.1473 36.9855 12.76C37.1675 12.3727 37.2585 11.9527 37.2585 11.5C37.2585 11.0333 37.1652 10.6087 36.9785 10.226C36.7965 9.83867 36.5375 9.53067 36.2015 9.302C35.8702 9.06867 35.4805 8.952 35.0325 8.952C34.5938 8.952 34.1925 9.06633 33.8285 9.295C33.4645 9.52367 33.1752 9.83167 32.9605 10.219C32.7505 10.6017 32.6455 11.0287 32.6455 11.5C32.6455 11.9713 32.7528 12.4007 32.9675 12.788C33.1868 13.1707 33.4762 13.4763 33.8355 13.705C34.1995 13.929 34.5985 14.041 35.0325 14.041ZM43.5509 15V5.2H46.7849C47.3123 5.2 47.7859 5.32833 48.2059 5.585C48.6306 5.84167 48.9666 6.18933 49.2139 6.628C49.4659 7.062 49.5919 7.54733 49.5919 8.084C49.5919 8.63 49.4636 9.12233 49.2069 9.561C48.9549 9.995 48.6143 10.3403 48.1849 10.597C47.7603 10.849 47.2936 10.975 46.7849 10.975H44.7269V15H43.5509ZM44.7269 9.799H46.6799C46.9973 9.799 47.2866 9.722 47.5479 9.568C47.8139 9.40933 48.0239 9.197 48.1779 8.931C48.3366 8.66033 48.4159 8.357 48.4159 8.021C48.4159 7.68033 48.3366 7.377 48.1779 7.111C48.0239 6.84033 47.8139 6.628 47.5479 6.474C47.2866 6.31533 46.9973 6.236 46.6799 6.236H44.7269V9.799ZM50.797 15V8H51.973V8.875C52.2204 8.54833 52.533 8.28933 52.911 8.098C53.289 7.902 53.6997 7.804 54.143 7.804C54.4137 7.804 54.675 7.839 54.927 7.909L54.451 9.085C54.2597 9.02433 54.073 8.994 53.891 8.994C53.541 8.994 53.219 9.08033 52.925 9.253C52.6357 9.421 52.4047 9.64967 52.232 9.939C52.0594 10.2283 51.973 10.5503 51.973 10.905V15H50.797ZM55.7873 8H56.9633V15H55.7873V8ZM56.3893 6.859C56.2026 6.859 56.0463 6.79833 55.9203 6.677C55.7943 6.55567 55.7313 6.404 55.7313 6.222C55.7313 6.04 55.7943 5.88833 55.9203 5.767C56.0463 5.64567 56.2003 5.585 56.3823 5.585C56.5643 5.585 56.7183 5.64567 56.8443 5.767C56.9703 5.88833 57.0333 6.04 57.0333 6.222C57.0333 6.404 56.9703 6.55567 56.8443 6.677C56.7229 6.79833 56.5713 6.859 56.3893 6.859ZM63.372 13.152L64.422 13.719C64.1047 14.1623 63.701 14.517 63.211 14.783C62.7257 15.049 62.1983 15.182 61.629 15.182C60.985 15.182 60.397 15.0163 59.865 14.685C59.3377 14.3537 58.9153 13.9103 58.598 13.355C58.2853 12.795 58.129 12.1767 58.129 11.5C58.129 10.9867 58.22 10.5083 58.402 10.065C58.584 9.617 58.8337 9.225 59.151 8.889C59.473 8.54833 59.8463 8.28233 60.271 8.091C60.6957 7.89967 61.1483 7.804 61.629 7.804C62.1983 7.804 62.7257 7.937 63.211 8.203C63.701 8.469 64.1047 8.826 64.422 9.274L63.372 9.841C63.148 9.56567 62.882 9.35333 62.574 9.204C62.266 9.05467 61.951 8.98 61.629 8.98C61.195 8.98 60.8007 9.09667 60.446 9.33C60.096 9.55867 59.8183 9.86433 59.613 10.247C59.4077 10.6297 59.305 11.0473 59.305 11.5C59.305 11.9527 59.4077 12.3703 59.613 12.753C59.823 13.131 60.103 13.4343 60.453 13.663C60.8077 13.8917 61.1997 14.006 61.629 14.006C61.9743 14.006 62.2987 13.9267 62.602 13.768C62.9053 13.6093 63.162 13.404 63.372 13.152ZM68.6427 15.182C67.9987 15.182 67.4107 15.0163 66.8787 14.685C66.3513 14.3537 65.929 13.9103 65.6117 13.355C65.299 12.795 65.1427 12.1767 65.1427 11.5C65.1427 10.9867 65.2337 10.5083 65.4157 10.065C65.5977 9.617 65.8473 9.225 66.1647 8.889C66.4867 8.54833 66.86 8.28233 67.2847 8.091C67.7093 7.89967 68.162 7.804 68.6427 7.804C69.17 7.804 69.653 7.91133 70.0917 8.126C70.535 8.336 70.913 8.63 71.2257 9.008C71.543 9.386 71.7787 9.82467 71.9327 10.324C72.0913 10.8233 72.1497 11.3577 72.1077 11.927H66.3957C66.4517 12.3237 66.5823 12.6783 66.7877 12.991C66.993 13.299 67.2543 13.544 67.5717 13.726C67.8937 13.908 68.2507 14.0013 68.6427 14.006C69.0627 14.006 69.443 13.8987 69.7837 13.684C70.1243 13.4647 70.3997 13.166 70.6097 12.788L71.8067 13.068C71.5267 13.6887 71.1043 14.1973 70.5397 14.594C69.975 14.986 69.3427 15.182 68.6427 15.182ZM66.3607 11.003H70.9247C70.8873 10.611 70.7613 10.254 70.5467 9.932C70.332 9.60533 70.059 9.344 69.7277 9.148C69.3963 8.952 69.0347 8.854 68.6427 8.854C68.2507 8.854 67.8913 8.94967 67.5647 9.141C67.238 9.33233 66.9673 9.59133 66.7527 9.918C66.5427 10.24 66.412 10.6017 66.3607 11.003Z" fill="#999999"></path><path d="M5.99 42.86C5.45667 42.8533 4.95667 42.94 4.49 43.12C4.03 43.2933 3.65333 43.5333 3.36 43.84C3.06667 44.1467 2.92 44.5033 2.92 44.91C2.92 45.41 3.05667 45.79 3.33 46.05C3.60333 46.31 3.97 46.5033 4.43 46.63C4.89667 46.75 5.41667 46.86 5.99 46.96C6.91 47.1067 7.76 47.35 8.54 47.69C9.32667 48.03 9.95667 48.4833 10.43 49.05C10.91 49.61 11.15 50.3 11.15 51.12C11.15 51.8733 10.95 52.5433 10.55 53.13C10.15 53.71 9.61333 54.18 8.94 54.54C8.27333 54.8933 7.53667 55.1167 6.73 55.21V57.24H5.26V55.21C4.58667 55.1433 3.94667 54.9833 3.34 54.73C2.74 54.4767 2.21667 54.14 1.77 53.72C1.32333 53.3 1 52.8133 0.8 52.26L2.75 51.53C2.86333 51.85 3.08 52.1367 3.4 52.39C3.72667 52.6367 4.11333 52.83 4.56 52.97C5.01333 53.11 5.49 53.18 5.99 53.18C6.52333 53.18 7.02333 53.0933 7.49 52.92C7.96333 52.7467 8.34333 52.5067 8.63 52.2C8.92333 51.8933 9.07 51.5333 9.07 51.12C9.07 50.6933 8.91667 50.3433 8.61 50.07C8.31 49.7967 7.92333 49.58 7.45 49.42C6.98333 49.26 6.49667 49.14 5.99 49.06C5.01 48.9 4.13 48.6667 3.35 48.36C2.57667 48.0533 1.96333 47.6233 1.51 47.07C1.06333 46.5167 0.84 45.7967 0.84 44.91C0.84 44.1567 1.04 43.4867 1.44 42.9C1.84 42.3133 2.37333 41.8433 3.04 41.49C3.71333 41.13 4.45333 40.9067 5.26 40.82V38.76H6.73V40.82C7.38333 40.8867 8.01 41.0467 8.61 41.3C9.21667 41.5533 9.74667 41.89 10.2 42.31C10.6533 42.7233 10.9833 43.2167 11.19 43.79L9.22 44.5C9.10667 44.1733 8.89 43.89 8.57 43.65C8.25 43.4033 7.86333 43.21 7.41 43.07C6.96333 42.93 6.49 42.86 5.99 42.86ZM14.4622 55V43.08H12.7922L13.3622 41H16.5422V55H14.4622ZM18.9445 56.12L19.5645 52.74H21.6445L20.3245 56.12H18.9445ZM23.6516 55V53.15C24.1249 52.7567 24.6682 52.3 25.2816 51.78C25.8949 51.2533 26.5182 50.6967 27.1516 50.11C27.7849 49.5167 28.3682 48.9267 28.9016 48.34C29.4349 47.7467 29.8649 47.1867 30.1916 46.66C30.5249 46.1267 30.6916 45.6633 30.6916 45.27C30.6916 44.8233 30.5816 44.4167 30.3616 44.05C30.1482 43.6767 29.8582 43.38 29.4916 43.16C29.1249 42.9333 28.7182 42.82 28.2716 42.82C27.8249 42.82 27.4149 42.9333 27.0416 43.16C26.6749 43.38 26.3782 43.6767 26.1516 44.05C25.9316 44.4167 25.8216 44.8233 25.8216 45.27H23.7416C23.7416 44.4233 23.9482 43.66 24.3616 42.98C24.7816 42.2933 25.3316 41.75 26.0116 41.35C26.6982 40.9433 27.4516 40.74 28.2716 40.74C29.0982 40.74 29.8516 40.9433 30.5316 41.35C31.2116 41.7567 31.7549 42.3033 32.1616 42.99C32.5682 43.67 32.7716 44.43 32.7716 45.27C32.7716 45.7367 32.6749 46.2167 32.4816 46.71C32.2882 47.2033 32.0182 47.7067 31.6716 48.22C31.3316 48.7333 30.9349 49.2533 30.4816 49.78C30.0282 50.3067 29.5416 50.8333 29.0216 51.36C28.5016 51.8867 27.9716 52.4067 27.4316 52.92H32.8916V55H23.6516ZM39.512 55.26C38.6254 55.26 37.822 55.0467 37.102 54.62C36.3887 54.1867 35.822 53.6133 35.402 52.9C34.9887 52.18 34.782 51.3933 34.782 50.54H36.862C36.862 51.0267 36.982 51.47 37.222 51.87C37.462 52.27 37.782 52.59 38.182 52.83C38.582 53.0633 39.0254 53.18 39.512 53.18C39.992 53.18 40.432 53.0633 40.832 52.83C41.232 52.59 41.552 52.27 41.792 51.87C42.032 51.47 42.152 51.0267 42.152 50.54C42.152 50.0533 42.042 49.61 41.822 49.21C41.602 48.8033 41.272 48.48 40.832 48.24C40.392 47.9933 39.832 47.87 39.152 47.87H35.622L37.042 41H43.812V43.08H38.732L38.182 45.79L39.392 45.81C40.3454 45.83 41.182 46.05 41.902 46.47C42.6287 46.8833 43.1987 47.4433 43.612 48.15C44.0254 48.85 44.232 49.6467 44.232 50.54C44.232 51.1867 44.1087 51.7967 43.862 52.37C43.6154 52.9367 43.2754 53.4367 42.842 53.87C42.4154 54.3033 41.9154 54.6433 41.342 54.89C40.7754 55.1367 40.1654 55.26 39.512 55.26ZM50.8542 55.26C50.0276 55.26 49.2809 55.0733 48.6142 54.7C47.9542 54.32 47.3842 53.7967 46.9042 53.13C46.4242 52.4633 46.0576 51.6933 45.8042 50.82C45.5509 49.94 45.4242 49 45.4242 48C45.4242 47 45.5509 46.06 45.8042 45.18C46.0576 44.3 46.4242 43.53 46.9042 42.87C47.3842 42.2033 47.9542 41.6833 48.6142 41.31C49.2809 40.93 50.0276 40.74 50.8542 40.74C51.6676 40.74 52.4076 40.93 53.0742 41.31C53.7409 41.6833 54.3076 42.2033 54.7742 42.87C55.2476 43.53 55.6109 44.3 55.8642 45.18C56.1176 46.06 56.2442 47 56.2442 48C56.2442 49 56.1176 49.94 55.8642 50.82C55.6109 51.6933 55.2476 52.4633 54.7742 53.13C54.3076 53.7967 53.7409 54.32 53.0742 54.7C52.4076 55.0733 51.6676 55.26 50.8542 55.26ZM50.8542 53.18C51.6209 53.18 52.2576 52.94 52.7642 52.46C53.2776 51.9733 53.6609 51.3367 53.9142 50.55C54.1676 49.7633 54.2942 48.9133 54.2942 48C54.2942 47.04 54.1609 46.17 53.8942 45.39C53.6342 44.6033 53.2476 43.98 52.7342 43.52C52.2276 43.0533 51.6009 42.82 50.8542 42.82C50.2609 42.82 49.7442 42.96 49.3042 43.24C48.8709 43.52 48.5109 43.9033 48.2242 44.39C47.9442 44.8767 47.7309 45.43 47.5842 46.05C47.4442 46.67 47.3742 47.32 47.3742 48C47.3742 48.9133 47.5042 49.7633 47.7642 50.55C48.0242 51.3367 48.4109 51.9733 48.9242 52.46C49.4442 52.94 50.0876 53.18 50.8542 53.18ZM57.6359 56.12L58.2559 52.74H60.3359L59.0159 56.12H57.6359ZM67.573 55.26C66.7463 55.26 65.9996 55.0733 65.333 54.7C64.673 54.32 64.103 53.7967 63.623 53.13C63.143 52.4633 62.7763 51.6933 62.523 50.82C62.2696 49.94 62.143 49 62.143 48C62.143 47 62.2696 46.06 62.523 45.18C62.7763 44.3 63.143 43.53 63.623 42.87C64.103 42.2033 64.673 41.6833 65.333 41.31C65.9996 40.93 66.7463 40.74 67.573 40.74C68.3863 40.74 69.1263 40.93 69.793 41.31C70.4596 41.6833 71.0263 42.2033 71.493 42.87C71.9663 43.53 72.3296 44.3 72.583 45.18C72.8363 46.06 72.963 47 72.963 48C72.963 49 72.8363 49.94 72.583 50.82C72.3296 51.6933 71.9663 52.4633 71.493 53.13C71.0263 53.7967 70.4596 54.32 69.793 54.7C69.1263 55.0733 68.3863 55.26 67.573 55.26ZM67.573 53.18C68.3396 53.18 68.9763 52.94 69.483 52.46C69.9963 51.9733 70.3796 51.3367 70.633 50.55C70.8863 49.7633 71.013 48.9133 71.013 48C71.013 47.04 70.8796 46.17 70.613 45.39C70.353 44.6033 69.9663 43.98 69.453 43.52C68.9463 43.0533 68.3196 42.82 67.573 42.82C66.9796 42.82 66.463 42.96 66.023 43.24C65.5896 43.52 65.2296 43.9033 64.943 44.39C64.663 44.8767 64.4496 45.43 64.303 46.05C64.163 46.67 64.093 47.32 64.093 48C64.093 48.9133 64.223 49.7633 64.483 50.55C64.743 51.3367 65.1296 51.9733 65.643 52.46C66.163 52.94 66.8063 53.18 67.573 53.18ZM79.2136 55.26C78.3869 55.26 77.6403 55.0733 76.9736 54.7C76.3136 54.32 75.7436 53.7967 75.2636 53.13C74.7836 52.4633 74.4169 51.6933 74.1636 50.82C73.9103 49.94 73.7836 49 73.7836 48C73.7836 47 73.9103 46.06 74.1636 45.18C74.4169 44.3 74.7836 43.53 75.2636 42.87C75.7436 42.2033 76.3136 41.6833 76.9736 41.31C77.6403 40.93 78.3869 40.74 79.2136 40.74C80.0269 40.74 80.7669 40.93 81.4336 41.31C82.1003 41.6833 82.6669 42.2033 83.1336 42.87C83.6069 43.53 83.9703 44.3 84.2236 45.18C84.4769 46.06 84.6036 47 84.6036 48C84.6036 49 84.4769 49.94 84.2236 50.82C83.9703 51.6933 83.6069 52.4633 83.1336 53.13C82.6669 53.7967 82.1003 54.32 81.4336 54.7C80.7669 55.0733 80.0269 55.26 79.2136 55.26ZM79.2136 53.18C79.9803 53.18 80.6169 52.94 81.1236 52.46C81.6369 51.9733 82.0203 51.3367 82.2736 50.55C82.5269 49.7633 82.6536 48.9133 82.6536 48C82.6536 47.04 82.5203 46.17 82.2536 45.39C81.9936 44.6033 81.6069 43.98 81.0936 43.52C80.5869 43.0533 79.9603 42.82 79.2136 42.82C78.6203 42.82 78.1036 42.96 77.6636 43.24C77.2303 43.52 76.8703 43.9033 76.5836 44.39C76.3036 44.8767 76.0903 45.43 75.9436 46.05C75.8036 46.67 75.7336 47.32 75.7336 48C75.7336 48.9133 75.8636 49.7633 76.1236 50.55C76.3836 51.3367 76.7703 51.9733 77.2836 52.46C77.8036 52.94 78.4469 53.18 79.2136 53.18ZM90.8542 55.26C90.0276 55.26 89.2809 55.0733 88.6142 54.7C87.9542 54.32 87.3842 53.7967 86.9042 53.13C86.4242 52.4633 86.0576 51.6933 85.8042 50.82C85.5509 49.94 85.4242 49 85.4242 48C85.4242 47 85.5509 46.06 85.8042 45.18C86.0576 44.3 86.4242 43.53 86.9042 42.87C87.3842 42.2033 87.9542 41.6833 88.6142 41.31C89.2809 40.93 90.0276 40.74 90.8542 40.74C91.6676 40.74 92.4076 40.93 93.0742 41.31C93.7409 41.6833 94.3076 42.2033 94.7742 42.87C95.2476 43.53 95.6109 44.3 95.8642 45.18C96.1176 46.06 96.2442 47 96.2442 48C96.2442 49 96.1176 49.94 95.8642 50.82C95.6109 51.6933 95.2476 52.4633 94.7742 53.13C94.3076 53.7967 93.7409 54.32 93.0742 54.7C92.4076 55.0733 91.6676 55.26 90.8542 55.26ZM90.8542 53.18C91.6209 53.18 92.2576 52.94 92.7642 52.46C93.2776 51.9733 93.6609 51.3367 93.9142 50.55C94.1676 49.7633 94.2942 48.9133 94.2942 48C94.2942 47.04 94.1609 46.17 93.8942 45.39C93.6342 44.6033 93.2476 43.98 92.7342 43.52C92.2276 43.0533 91.6009 42.82 90.8542 42.82C90.2609 42.82 89.7442 42.96 89.3042 43.24C88.8709 43.52 88.5109 43.9033 88.2242 44.39C87.9442 44.8767 87.7309 45.43 87.5842 46.05C87.4442 46.67 87.3742 47.32 87.3742 48C87.3742 48.9133 87.5042 49.7633 87.7642 50.55C88.0242 51.3367 88.4109 51.9733 88.9242 52.46C89.4442 52.94 90.0876 53.18 90.8542 53.18Z" fill="white"></path></g><defs><clipPath id="clip0_166_1096"><rect width="462.5" height="63" fill="white"></rect></clipPath></defs></svg>