<svg xmlns="http://www.w3.org/2000/svg" width="455" height="212" viewBox="0 0 455 212" fill="none"><rect x="0.5" y="0.5" width="454" height="211" rx="11.5" fill="#1A1A1A"></rect><rect x="0.5" y="0.5" width="454" height="211" rx="11.5" stroke="#262626"></rect><rect x="187" y="40.5" width="81" height="81" rx="40.5" stroke="url(#paint0_linear_104_13260)"></rect><rect x="187" y="40.5" width="81" height="81" rx="40.5" stroke="url(#paint1_linear_104_13260)"></rect><rect x="197" y="50.5" width="61" height="61" rx="30.5" stroke="url(#paint2_linear_104_13260)"></rect><rect x="197" y="50.5" width="61" height="61" rx="30.5" stroke="url(#paint3_linear_104_13260)"></rect><path d="M227.5 95C219.769 95 213.5 88.7311 213.5 81H227.5V95Z" fill="#A685FA"></path><path d="M213.5 67C221.231 67 227.5 73.2689 227.5 81H213.5V67Z" fill="#A685FA"></path><path d="M227.5 95C235.231 95 241.5 88.7311 241.5 81H227.5V95Z" fill="#A685FA"></path><path d="M241.5 81C241.5 73.2689 235.231 67 227.5 67V81H241.5Z" fill="#A685FA"></path><path d="M72.6309 164V150H74.7109V164H72.6309ZM86.409 157.73V164H84.329V158.24C84.329 157.793 84.219 157.387 83.999 157.02C83.7857 156.653 83.4957 156.363 83.129 156.15C82.769 155.93 82.3623 155.82 81.909 155.82C81.469 155.82 81.0657 155.93 80.699 156.15C80.3323 156.363 80.039 156.653 79.819 157.02C79.599 157.387 79.489 157.793 79.489 158.24V164H77.409V154H79.489V155.06C79.8357 154.647 80.2623 154.32 80.769 154.08C81.2757 153.84 81.8223 153.72 82.409 153.72C83.149 153.72 83.8223 153.9 84.429 154.26C85.0357 154.62 85.5157 155.103 85.869 155.71C86.229 156.317 86.409 156.99 86.409 157.73ZM91.4051 164.19C90.8784 164.157 90.3651 164.05 89.8651 163.87C89.3651 163.69 88.9251 163.447 88.5451 163.14C88.1717 162.827 87.8917 162.46 87.7051 162.04L89.4751 161.28C89.5617 161.46 89.7117 161.637 89.9251 161.81C90.1451 161.983 90.4017 162.127 90.6951 162.24C90.9884 162.347 91.2951 162.4 91.6151 162.4C91.9284 162.4 92.2184 162.357 92.4851 162.27C92.7584 162.177 92.9817 162.037 93.1551 161.85C93.3284 161.663 93.4151 161.44 93.4151 161.18C93.4151 160.887 93.3151 160.66 93.1151 160.5C92.9217 160.333 92.6784 160.207 92.3851 160.12C92.0917 160.033 91.7984 159.95 91.5051 159.87C90.8517 159.723 90.2517 159.523 89.7051 159.27C89.1651 159.01 88.7351 158.68 88.4151 158.28C88.0951 157.873 87.9351 157.377 87.9351 156.79C87.9351 156.15 88.1084 155.597 88.4551 155.13C88.8017 154.657 89.2551 154.293 89.8151 154.04C90.3817 153.787 90.9851 153.66 91.6251 153.66C92.4251 153.66 93.1584 153.83 93.8251 154.17C94.4917 154.51 95.0017 154.977 95.3551 155.57L93.7051 156.55C93.6051 156.35 93.4551 156.17 93.2551 156.01C93.0551 155.85 92.8284 155.723 92.5751 155.63C92.3217 155.53 92.0584 155.473 91.7851 155.46C91.4451 155.447 91.1284 155.487 90.8351 155.58C90.5484 155.667 90.3184 155.807 90.1451 156C89.9717 156.193 89.8851 156.44 89.8851 156.74C89.8851 157.033 89.9884 157.253 90.1951 157.4C90.4017 157.54 90.6617 157.653 90.9751 157.74C91.2951 157.827 91.6217 157.923 91.9551 158.03C92.5484 158.217 93.1051 158.447 93.6251 158.72C94.1451 158.987 94.5651 159.317 94.8851 159.71C95.2051 160.103 95.3584 160.583 95.3451 161.15C95.3451 161.777 95.1551 162.327 94.7751 162.8C94.4017 163.273 93.9151 163.633 93.3151 163.88C92.7151 164.127 92.0784 164.23 91.4051 164.19ZM102.337 156.08H100.237L100.227 164H98.1474L98.1574 156.08H96.5674V154H98.1574L98.1474 150.86H100.227L100.237 154H102.337V156.08ZM111.673 154H113.753V164H111.663L111.583 162.55C111.29 163.063 110.893 163.477 110.393 163.79C109.893 164.103 109.303 164.26 108.623 164.26C107.89 164.26 107.2 164.123 106.553 163.85C105.907 163.57 105.337 163.183 104.843 162.69C104.357 162.197 103.977 161.63 103.703 160.99C103.43 160.343 103.293 159.65 103.293 158.91C103.293 158.197 103.427 157.527 103.693 156.9C103.96 156.267 104.33 155.713 104.803 155.24C105.277 154.767 105.823 154.397 106.443 154.13C107.07 153.857 107.74 153.72 108.453 153.72C109.18 153.72 109.82 153.887 110.373 154.22C110.933 154.547 111.397 154.967 111.763 155.48L111.673 154ZM108.573 162.25C109.16 162.25 109.673 162.107 110.113 161.82C110.553 161.527 110.893 161.133 111.133 160.64C111.38 160.147 111.503 159.6 111.503 159C111.503 158.393 111.38 157.843 111.133 157.35C110.887 156.857 110.543 156.467 110.103 156.18C109.67 155.887 109.16 155.74 108.573 155.74C107.993 155.74 107.463 155.887 106.983 156.18C106.503 156.473 106.123 156.867 105.843 157.36C105.563 157.853 105.423 158.4 105.423 159C105.423 159.607 105.567 160.157 105.853 160.65C106.147 161.137 106.53 161.527 107.003 161.82C107.483 162.107 108.007 162.25 108.573 162.25ZM123.164 154H125.244V164.26C125.244 164.947 125.097 165.58 124.804 166.16C124.517 166.74 124.127 167.24 123.634 167.66C123.14 168.087 122.574 168.417 121.934 168.65C121.3 168.883 120.637 169 119.944 169C119.244 169 118.57 168.85 117.924 168.55C117.277 168.257 116.707 167.857 116.214 167.35C115.727 166.843 115.364 166.27 115.124 165.63L117.034 164.77C117.167 165.183 117.38 165.55 117.674 165.87C117.974 166.19 118.32 166.443 118.714 166.63C119.114 166.817 119.524 166.91 119.944 166.91C120.357 166.91 120.754 166.843 121.134 166.71C121.52 166.583 121.864 166.403 122.164 166.17C122.47 165.937 122.714 165.657 122.894 165.33C123.074 165.003 123.164 164.647 123.164 164.26V162.57C122.837 163.077 122.417 163.487 121.904 163.8C121.39 164.107 120.794 164.26 120.114 164.26C119.407 164.26 118.74 164.123 118.114 163.85C117.487 163.577 116.937 163.2 116.464 162.72C115.99 162.233 115.62 161.673 115.354 161.04C115.087 160.407 114.954 159.727 114.954 159C114.954 158.273 115.087 157.593 115.354 156.96C115.62 156.32 115.99 155.76 116.464 155.28C116.937 154.793 117.487 154.413 118.114 154.14C118.74 153.867 119.407 153.73 120.114 153.73C120.794 153.73 121.39 153.887 121.904 154.2C122.417 154.507 122.837 154.917 123.164 155.43V154ZM120.134 162.25C120.714 162.25 121.22 162.103 121.654 161.81C122.087 161.51 122.424 161.113 122.664 160.62C122.904 160.127 123.024 159.587 123.024 159C123.024 158.4 122.9 157.857 122.654 157.37C122.414 156.877 122.077 156.483 121.644 156.19C121.21 155.89 120.707 155.74 120.134 155.74C119.574 155.74 119.06 155.887 118.594 156.18C118.134 156.473 117.767 156.867 117.494 157.36C117.22 157.853 117.084 158.4 117.084 159C117.084 159.6 117.22 160.147 117.494 160.64C117.774 161.133 118.144 161.527 118.604 161.82C119.07 162.107 119.58 162.25 120.134 162.25ZM127.643 164V154H129.723V155.06C130.07 154.647 130.497 154.32 131.003 154.08C131.51 153.84 132.057 153.72 132.643 153.72C133.017 153.72 133.387 153.77 133.753 153.87L132.923 155.97C132.663 155.87 132.403 155.82 132.143 155.82C131.703 155.82 131.3 155.93 130.933 156.15C130.567 156.363 130.273 156.653 130.053 157.02C129.833 157.387 129.723 157.793 129.723 158.24V164H127.643ZM142.22 154H144.3V164H142.21L142.13 162.55C141.837 163.063 141.44 163.477 140.94 163.79C140.44 164.103 139.85 164.26 139.17 164.26C138.437 164.26 137.747 164.123 137.1 163.85C136.454 163.57 135.884 163.183 135.39 162.69C134.904 162.197 134.524 161.63 134.25 160.99C133.977 160.343 133.84 159.65 133.84 158.91C133.84 158.197 133.974 157.527 134.24 156.9C134.507 156.267 134.877 155.713 135.35 155.24C135.824 154.767 136.37 154.397 136.99 154.13C137.617 153.857 138.287 153.72 139 153.72C139.727 153.72 140.367 153.887 140.92 154.22C141.48 154.547 141.944 154.967 142.31 155.48L142.22 154ZM139.12 162.25C139.707 162.25 140.22 162.107 140.66 161.82C141.1 161.527 141.44 161.133 141.68 160.64C141.927 160.147 142.05 159.6 142.05 159C142.05 158.393 141.927 157.843 141.68 157.35C141.434 156.857 141.09 156.467 140.65 156.18C140.217 155.887 139.707 155.74 139.12 155.74C138.54 155.74 138.01 155.887 137.53 156.18C137.05 156.473 136.67 156.867 136.39 157.36C136.11 157.853 135.97 158.4 135.97 159C135.97 159.607 136.114 160.157 136.4 160.65C136.694 161.137 137.077 161.527 137.55 161.82C138.03 162.107 138.554 162.25 139.12 162.25ZM146.296 164V154H148.376V155.06C148.722 154.647 149.146 154.32 149.646 154.08C150.152 153.84 150.699 153.72 151.286 153.72C151.999 153.72 152.656 153.893 153.256 154.24C153.856 154.58 154.332 155.033 154.686 155.6C155.039 155.033 155.509 154.58 156.096 154.24C156.689 153.893 157.342 153.72 158.056 153.72C158.796 153.72 159.469 153.9 160.076 154.26C160.682 154.62 161.166 155.103 161.526 155.71C161.886 156.317 162.066 156.99 162.066 157.73V164H159.986V158.26C159.986 157.82 159.879 157.417 159.666 157.05C159.452 156.683 159.166 156.387 158.806 156.16C158.446 155.933 158.046 155.82 157.606 155.82C157.166 155.82 156.766 155.927 156.406 156.14C156.046 156.353 155.759 156.643 155.546 157.01C155.332 157.377 155.226 157.793 155.226 158.26V164H153.146V158.26C153.146 157.793 153.039 157.377 152.826 157.01C152.612 156.643 152.322 156.353 151.956 156.14C151.596 155.927 151.196 155.82 150.756 155.82C150.322 155.82 149.922 155.933 149.556 156.16C149.196 156.387 148.909 156.683 148.696 157.05C148.482 157.417 148.376 157.82 148.376 158.26V164H146.296Z" fill="white"></path><path d="M71.1309 165.25H162.866V165.75H71.1309V165.25Z" fill="white"></path><path d="M194.356 164V150H196.436V161.92H202.466V164H194.356ZM204.669 154H206.749V164H204.669V154ZM205.729 152.55C205.409 152.55 205.142 152.447 204.929 152.24C204.715 152.033 204.609 151.773 204.609 151.46C204.609 151.153 204.715 150.897 204.929 150.69C205.142 150.477 205.405 150.37 205.719 150.37C206.025 150.37 206.285 150.477 206.499 150.69C206.712 150.897 206.819 151.153 206.819 151.46C206.819 151.773 206.712 152.033 206.499 152.24C206.292 152.447 206.035 152.55 205.729 152.55ZM218.083 157.73V164H216.003V158.24C216.003 157.793 215.893 157.387 215.673 157.02C215.459 156.653 215.169 156.363 214.803 156.15C214.443 155.93 214.036 155.82 213.583 155.82C213.143 155.82 212.739 155.93 212.373 156.15C212.006 156.363 211.713 156.653 211.493 157.02C211.273 157.387 211.163 157.793 211.163 158.24V164H209.083V154H211.163V155.06C211.509 154.647 211.936 154.32 212.443 154.08C212.949 153.84 213.496 153.72 214.083 153.72C214.823 153.72 215.496 153.9 216.103 154.26C216.709 154.62 217.189 155.103 217.543 155.71C217.903 156.317 218.083 156.99 218.083 157.73ZM228.707 164H226.307L223.847 159.76L222.237 161.68V164H220.157V149H222.237V158.45L225.957 154H228.677L225.267 158.07L228.707 164ZM234.127 164.26C233.207 164.26 232.367 164.023 231.607 163.55C230.854 163.077 230.251 162.443 229.797 161.65C229.351 160.85 229.127 159.967 229.127 159C229.127 158.267 229.257 157.583 229.517 156.95C229.777 156.31 230.134 155.75 230.587 155.27C231.047 154.783 231.581 154.403 232.187 154.13C232.794 153.857 233.441 153.72 234.127 153.72C234.894 153.72 235.597 153.88 236.237 154.2C236.877 154.513 237.424 154.95 237.877 155.51C238.331 156.063 238.664 156.703 238.877 157.43C239.091 158.15 239.154 158.917 239.067 159.73H231.357C231.444 160.19 231.611 160.607 231.857 160.98C232.111 161.347 232.431 161.637 232.817 161.85C233.211 162.063 233.647 162.173 234.127 162.18C234.634 162.18 235.094 162.053 235.507 161.8C235.927 161.547 236.271 161.197 236.537 160.75L238.647 161.24C238.247 162.127 237.644 162.853 236.837 163.42C236.031 163.98 235.127 164.26 234.127 164.26ZM231.287 158.14H236.967C236.901 157.66 236.731 157.227 236.457 156.84C236.191 156.447 235.854 156.137 235.447 155.91C235.047 155.677 234.607 155.56 234.127 155.56C233.654 155.56 233.214 155.673 232.807 155.9C232.407 156.127 232.074 156.437 231.807 156.83C231.547 157.217 231.374 157.653 231.287 158.14ZM248.494 149H250.574V164H248.494V162.53C248.167 163.05 247.741 163.47 247.214 163.79C246.687 164.103 246.071 164.26 245.364 164.26C244.637 164.26 243.957 164.123 243.324 163.85C242.691 163.577 242.131 163.2 241.644 162.72C241.164 162.233 240.787 161.673 240.514 161.04C240.241 160.407 240.104 159.727 240.104 159C240.104 158.273 240.241 157.593 240.514 156.96C240.787 156.32 241.164 155.76 241.644 155.28C242.131 154.793 242.691 154.413 243.324 154.14C243.957 153.867 244.637 153.73 245.364 153.73C246.071 153.73 246.687 153.89 247.214 154.21C247.741 154.523 248.167 154.937 248.494 155.45V149ZM245.384 162.25C245.971 162.25 246.484 162.107 246.924 161.82C247.364 161.527 247.704 161.133 247.944 160.64C248.191 160.147 248.314 159.6 248.314 159C248.314 158.393 248.191 157.843 247.944 157.35C247.697 156.857 247.354 156.467 246.914 156.18C246.481 155.887 245.971 155.74 245.384 155.74C244.804 155.74 244.274 155.887 243.794 156.18C243.321 156.473 242.941 156.867 242.654 157.36C242.374 157.853 242.234 158.4 242.234 159C242.234 159.607 242.377 160.157 242.664 160.65C242.957 161.137 243.341 161.527 243.814 161.82C244.294 162.107 244.817 162.25 245.384 162.25ZM253.27 164V150H255.35V164H253.27ZM267.048 157.73V164H264.968V158.24C264.968 157.793 264.858 157.387 264.638 157.02C264.424 156.653 264.134 156.363 263.768 156.15C263.408 155.93 263.001 155.82 262.548 155.82C262.108 155.82 261.704 155.93 261.338 156.15C260.971 156.363 260.678 156.653 260.458 157.02C260.238 157.387 260.128 157.793 260.128 158.24V164H258.048V154H260.128V155.06C260.474 154.647 260.901 154.32 261.408 154.08C261.914 153.84 262.461 153.72 263.048 153.72C263.788 153.72 264.461 153.9 265.068 154.26C265.674 154.62 266.154 155.103 266.508 155.71C266.868 156.317 267.048 156.99 267.048 157.73Z" fill="white"></path><path d="M193.156 165.25H267.848V165.75H193.156V165.25Z" fill="white"></path><path d="M299.378 164V150H307.628V152.08H301.458V155.46H306.668V157.54H301.458V164H299.378ZM315.986 154H318.066V164H315.976L315.896 162.55C315.603 163.063 315.206 163.477 314.706 163.79C314.206 164.103 313.616 164.26 312.936 164.26C312.203 164.26 311.513 164.123 310.866 163.85C310.219 163.57 309.649 163.183 309.156 162.69C308.669 162.197 308.289 161.63 308.016 160.99C307.743 160.343 307.606 159.65 307.606 158.91C307.606 158.197 307.739 157.527 308.006 156.9C308.273 156.267 308.643 155.713 309.116 155.24C309.589 154.767 310.136 154.397 310.756 154.13C311.383 153.857 312.053 153.72 312.766 153.72C313.493 153.72 314.133 153.887 314.686 154.22C315.246 154.547 315.709 154.967 316.076 155.48L315.986 154ZM312.886 162.25C313.473 162.25 313.986 162.107 314.426 161.82C314.866 161.527 315.206 161.133 315.446 160.64C315.693 160.147 315.816 159.6 315.816 159C315.816 158.393 315.693 157.843 315.446 157.35C315.199 156.857 314.856 156.467 314.416 156.18C313.983 155.887 313.473 155.74 312.886 155.74C312.306 155.74 311.776 155.887 311.296 156.18C310.816 156.473 310.436 156.867 310.156 157.36C309.876 157.853 309.736 158.4 309.736 159C309.736 159.607 309.879 160.157 310.166 160.65C310.459 161.137 310.843 161.527 311.316 161.82C311.796 162.107 312.319 162.25 312.886 162.25ZM326.396 161.16L328.256 162.17C327.803 162.803 327.226 163.31 326.526 163.69C325.833 164.07 325.079 164.26 324.266 164.26C323.346 164.26 322.506 164.023 321.746 163.55C320.993 163.077 320.389 162.443 319.936 161.65C319.489 160.85 319.266 159.967 319.266 159C319.266 158.267 319.396 157.583 319.656 156.95C319.916 156.31 320.273 155.75 320.726 155.27C321.186 154.783 321.719 154.403 322.326 154.13C322.933 153.857 323.579 153.72 324.266 153.72C325.079 153.72 325.833 153.91 326.526 154.29C327.226 154.67 327.803 155.18 328.256 155.82L326.396 156.83C326.116 156.497 325.789 156.243 325.416 156.07C325.043 155.89 324.659 155.8 324.266 155.8C323.719 155.8 323.223 155.95 322.776 156.25C322.336 156.543 321.986 156.933 321.726 157.42C321.473 157.9 321.346 158.427 321.346 159C321.346 159.567 321.476 160.093 321.736 160.58C321.996 161.06 322.346 161.447 322.786 161.74C323.233 162.033 323.726 162.18 324.266 162.18C324.679 162.18 325.073 162.087 325.446 161.9C325.819 161.713 326.136 161.467 326.396 161.16ZM334.227 164.26C333.307 164.26 332.467 164.023 331.707 163.55C330.954 163.077 330.35 162.443 329.897 161.65C329.45 160.85 329.227 159.967 329.227 159C329.227 158.267 329.357 157.583 329.617 156.95C329.877 156.31 330.234 155.75 330.687 155.27C331.147 154.783 331.68 154.403 332.287 154.13C332.894 153.857 333.54 153.72 334.227 153.72C334.994 153.72 335.697 153.88 336.337 154.2C336.977 154.513 337.524 154.95 337.977 155.51C338.43 156.063 338.764 156.703 338.977 157.43C339.19 158.15 339.254 158.917 339.167 159.73H331.457C331.544 160.19 331.71 160.607 331.957 160.98C332.21 161.347 332.53 161.637 332.917 161.85C333.31 162.063 333.747 162.173 334.227 162.18C334.734 162.18 335.194 162.053 335.607 161.8C336.027 161.547 336.37 161.197 336.637 160.75L338.747 161.24C338.347 162.127 337.744 162.853 336.937 163.42C336.13 163.98 335.227 164.26 334.227 164.26ZM331.387 158.14H337.067C337 157.66 336.83 157.227 336.557 156.84C336.29 156.447 335.954 156.137 335.547 155.91C335.147 155.677 334.707 155.56 334.227 155.56C333.754 155.56 333.314 155.673 332.907 155.9C332.507 156.127 332.174 156.437 331.907 156.83C331.647 157.217 331.474 157.653 331.387 158.14ZM345.886 153.72C346.86 153.72 347.743 153.957 348.536 154.43C349.336 154.903 349.973 155.54 350.446 156.34C350.92 157.133 351.156 158.017 351.156 158.99C351.156 159.717 351.02 160.4 350.746 161.04C350.473 161.673 350.093 162.233 349.606 162.72C349.126 163.2 348.566 163.577 347.926 163.85C347.293 164.123 346.613 164.26 345.886 164.26C345.186 164.26 344.573 164.1 344.046 163.78C343.526 163.453 343.1 163.037 342.766 162.53V164H340.686V149H342.766V155.45C343.1 154.937 343.526 154.52 344.046 154.2C344.573 153.88 345.186 153.72 345.886 153.72ZM345.866 162.24C346.446 162.24 346.976 162.093 347.456 161.8C347.936 161.507 348.316 161.113 348.596 160.62C348.883 160.127 349.026 159.583 349.026 158.99C349.026 158.383 348.883 157.833 348.596 157.34C348.31 156.847 347.926 156.457 347.446 156.17C346.966 155.877 346.44 155.73 345.866 155.73C345.286 155.73 344.776 155.877 344.336 156.17C343.896 156.463 343.553 156.857 343.306 157.35C343.06 157.843 342.936 158.39 342.936 158.99C342.936 159.59 343.06 160.137 343.306 160.63C343.553 161.123 343.896 161.517 344.336 161.81C344.776 162.097 345.286 162.24 345.866 162.24ZM357.157 164.26C356.237 164.26 355.397 164.023 354.637 163.55C353.883 163.077 353.28 162.443 352.827 161.65C352.38 160.85 352.157 159.967 352.157 159C352.157 158.267 352.287 157.583 352.547 156.95C352.807 156.31 353.163 155.75 353.617 155.27C354.077 154.783 354.61 154.403 355.217 154.13C355.823 153.857 356.47 153.72 357.157 153.72C358.077 153.72 358.913 153.957 359.667 154.43C360.427 154.903 361.03 155.54 361.477 156.34C361.93 157.14 362.157 158.027 362.157 159C362.157 159.727 362.027 160.407 361.767 161.04C361.507 161.673 361.147 162.233 360.687 162.72C360.233 163.2 359.703 163.577 359.097 163.85C358.497 164.123 357.85 164.26 357.157 164.26ZM357.157 162.18C357.71 162.18 358.207 162.033 358.647 161.74C359.087 161.447 359.433 161.06 359.687 160.58C359.947 160.093 360.077 159.567 360.077 159C360.077 158.42 359.943 157.887 359.677 157.4C359.417 156.913 359.067 156.527 358.627 156.24C358.187 155.947 357.697 155.8 357.157 155.8C356.61 155.8 356.113 155.947 355.667 156.24C355.227 156.533 354.877 156.923 354.617 157.41C354.363 157.897 354.237 158.427 354.237 159C354.237 159.593 354.37 160.13 354.637 160.61C354.903 161.09 355.257 161.473 355.697 161.76C356.143 162.04 356.63 162.18 357.157 162.18ZM368.153 164.26C367.233 164.26 366.393 164.023 365.633 163.55C364.879 163.077 364.276 162.443 363.823 161.65C363.376 160.85 363.153 159.967 363.153 159C363.153 158.267 363.283 157.583 363.543 156.95C363.803 156.31 364.159 155.75 364.613 155.27C365.073 154.783 365.606 154.403 366.213 154.13C366.819 153.857 367.466 153.72 368.153 153.72C369.073 153.72 369.909 153.957 370.663 154.43C371.423 154.903 372.026 155.54 372.473 156.34C372.926 157.14 373.153 158.027 373.153 159C373.153 159.727 373.023 160.407 372.763 161.04C372.503 161.673 372.143 162.233 371.683 162.72C371.229 163.2 370.699 163.577 370.093 163.85C369.493 164.123 368.846 164.26 368.153 164.26ZM368.153 162.18C368.706 162.18 369.203 162.033 369.643 161.74C370.083 161.447 370.429 161.06 370.683 160.58C370.943 160.093 371.073 159.567 371.073 159C371.073 158.42 370.939 157.887 370.673 157.4C370.413 156.913 370.063 156.527 369.623 156.24C369.183 155.947 368.693 155.8 368.153 155.8C367.606 155.8 367.109 155.947 366.663 156.24C366.223 156.533 365.873 156.923 365.613 157.41C365.359 157.897 365.233 158.427 365.233 159C365.233 159.593 365.366 160.13 365.633 160.61C365.899 161.09 366.253 161.473 366.693 161.76C367.139 162.04 367.626 162.18 368.153 162.18ZM383.182 164H380.782L378.322 159.76L376.712 161.68V164H374.632V149H376.712V158.45L380.432 154H383.152L379.742 158.07L383.182 164Z" fill="white"></path><path d="M298.178 165.25H383.832V165.75H298.178V165.25Z" fill="white"></path><path d="M407.375 47.625L428.625 26.375M428.625 26.375L412.687 26.375M428.625 26.375V42.3125" stroke="#4D4D4D" stroke-width="2" stroke-linecap="round" stroke-linejoin="round"></path><defs><linearGradient id="paint0_linear_104_13260" x1="193.25" y1="126.5" x2="272.25" y2="34.5" gradientUnits="userSpaceOnUse"><stop stop-color="#A685FA"></stop><stop offset="0.323723" stop-color="#A685FA" stop-opacity="0"></stop></linearGradient><linearGradient id="paint1_linear_104_13260" x1="268.25" y1="29.5" x2="193.25" y2="122" gradientUnits="userSpaceOnUse"><stop stop-color="#A685FA"></stop><stop offset="0.576615" stop-color="#A685FA" stop-opacity="0"></stop></linearGradient><linearGradient id="paint2_linear_104_13260" x1="189.75" y1="53.5" x2="258.25" y2="112" gradientUnits="userSpaceOnUse"><stop stop-color="#A685FA"></stop><stop offset="0.323723" stop-color="#A685FA" stop-opacity="0"></stop></linearGradient><linearGradient id="paint3_linear_104_13260" x1="270.75" y1="126" x2="198.75" y2="75" gradientUnits="userSpaceOnUse"><stop stop-color="#A685FA"></stop><stop offset="0.576615" stop-color="#A685FA" stop-opacity="0"></stop></linearGradient></defs></svg>