<svg xmlns="http://www.w3.org/2000/svg" width="455" height="212" viewBox="0 0 455 212" fill="none"><rect x="0.5" y="0.5" width="454" height="211" rx="11.5" fill="#1A1A1A"></rect><rect x="0.5" y="0.5" width="454" height="211" rx="11.5" stroke="#262626"></rect><rect x="187" y="40.5" width="81" height="81" rx="40.5" stroke="url(#paint0_linear_104_12837)"></rect><rect x="187" y="40.5" width="81" height="81" rx="40.5" stroke="url(#paint1_linear_104_12837)"></rect><rect x="197" y="50.5" width="61" height="61" rx="30.5" stroke="url(#paint2_linear_104_12837)"></rect><rect x="197" y="50.5" width="61" height="61" rx="30.5" stroke="url(#paint3_linear_104_12837)"></rect><path d="M212.625 76.2812V88.4375C212.625 90.7847 214.528 92.6875 216.875 92.6875H238.125C240.472 92.6875 242.375 90.7847 242.375 88.4375V76.2812L229.727 84.0644C228.361 84.905 226.639 84.905 225.273 84.0644L212.625 76.2812Z" fill="#A685FA"></path><path d="M242.375 73.7861V73.5625C242.375 71.2153 240.472 69.3125 238.125 69.3125H216.875C214.528 69.3125 212.625 71.2153 212.625 73.5625V73.7861L226.386 82.2546C227.069 82.6749 227.931 82.6749 228.614 82.2546L242.375 73.7861Z" fill="#A685FA"></path><path d="M145.878 154H147.958V164H145.878V154ZM146.938 152.55C146.618 152.55 146.351 152.447 146.138 152.24C145.924 152.033 145.818 151.773 145.818 151.46C145.818 151.153 145.924 150.897 146.138 150.69C146.351 150.477 146.614 150.37 146.928 150.37C147.234 150.37 147.494 150.477 147.708 150.69C147.921 150.897 148.028 151.153 148.028 151.46C148.028 151.773 147.921 152.033 147.708 152.24C147.501 152.447 147.244 152.55 146.938 152.55ZM159.292 157.73V164H157.212V158.24C157.212 157.793 157.102 157.387 156.882 157.02C156.668 156.653 156.378 156.363 156.012 156.15C155.652 155.93 155.245 155.82 154.792 155.82C154.352 155.82 153.948 155.93 153.582 156.15C153.215 156.363 152.922 156.653 152.702 157.02C152.482 157.387 152.372 157.793 152.372 158.24V164H150.292V154H152.372V155.06C152.718 154.647 153.145 154.32 153.652 154.08C154.158 153.84 154.705 153.72 155.292 153.72C156.032 153.72 156.705 153.9 157.312 154.26C157.918 154.62 158.398 155.103 158.752 155.71C159.112 156.317 159.292 156.99 159.292 157.73ZM163.858 151.73V154H166.678V156.08H163.858V164H161.778V156.08H160.588V154H161.778V151.73C161.778 151.183 161.911 150.687 162.178 150.24C162.445 149.787 162.801 149.427 163.248 149.16C163.701 148.893 164.205 148.76 164.758 148.76C165.158 148.76 165.548 148.84 165.928 149C166.308 149.16 166.648 149.407 166.948 149.74L165.458 151.21C165.385 151.09 165.281 151 165.148 150.94C165.021 150.873 164.891 150.84 164.758 150.84C164.511 150.84 164.298 150.927 164.118 151.1C163.945 151.273 163.858 151.483 163.858 151.73ZM172.504 164.26C171.584 164.26 170.744 164.023 169.984 163.55C169.231 163.077 168.628 162.443 168.174 161.65C167.728 160.85 167.504 159.967 167.504 159C167.504 158.267 167.634 157.583 167.894 156.95C168.154 156.31 168.511 155.75 168.964 155.27C169.424 154.783 169.958 154.403 170.564 154.13C171.171 153.857 171.818 153.72 172.504 153.72C173.424 153.72 174.261 153.957 175.014 154.43C175.774 154.903 176.378 155.54 176.824 156.34C177.278 157.14 177.504 158.027 177.504 159C177.504 159.727 177.374 160.407 177.114 161.04C176.854 161.673 176.494 162.233 176.034 162.72C175.581 163.2 175.051 163.577 174.444 163.85C173.844 164.123 173.198 164.26 172.504 164.26ZM172.504 162.18C173.058 162.18 173.554 162.033 173.994 161.74C174.434 161.447 174.781 161.06 175.034 160.58C175.294 160.093 175.424 159.567 175.424 159C175.424 158.42 175.291 157.887 175.024 157.4C174.764 156.913 174.414 156.527 173.974 156.24C173.534 155.947 173.044 155.8 172.504 155.8C171.958 155.8 171.461 155.947 171.014 156.24C170.574 156.533 170.224 156.923 169.964 157.41C169.711 157.897 169.584 158.427 169.584 159C169.584 159.593 169.718 160.13 169.984 160.61C170.251 161.09 170.604 161.473 171.044 161.76C171.491 162.04 171.978 162.18 172.504 162.18ZM187.096 166.28C185.956 166.28 184.889 166.087 183.896 165.7C182.909 165.32 182.039 164.78 181.286 164.08C180.539 163.387 179.952 162.567 179.526 161.62C179.106 160.667 178.896 159.623 178.896 158.49C178.896 157.363 179.106 156.303 179.526 155.31C179.952 154.317 180.539 153.447 181.286 152.7C182.039 151.947 182.912 151.36 183.906 150.94C184.899 150.513 185.962 150.3 187.096 150.3C188.229 150.3 189.292 150.513 190.286 150.94C191.279 151.367 192.149 151.957 192.896 152.71C193.642 153.463 194.226 154.337 194.646 155.33C195.072 156.317 195.286 157.37 195.286 158.49C195.286 159.097 195.209 159.697 195.056 160.29C194.909 160.877 194.689 161.41 194.396 161.89C194.109 162.363 193.756 162.743 193.336 163.03C192.916 163.31 192.436 163.45 191.896 163.45C191.496 163.45 191.092 163.363 190.686 163.19C190.286 163.01 189.942 162.77 189.656 162.47C189.369 162.163 189.196 161.827 189.136 161.46C188.876 161.767 188.549 162.013 188.156 162.2C187.769 162.38 187.329 162.47 186.836 162.47C186.109 162.47 185.442 162.293 184.836 161.94C184.236 161.58 183.756 161.1 183.396 160.5C183.042 159.893 182.866 159.223 182.866 158.49C182.866 157.757 183.042 157.09 183.396 156.49C183.756 155.89 184.236 155.413 184.836 155.06C185.442 154.7 186.109 154.52 186.836 154.52C187.302 154.52 187.756 154.603 188.196 154.77C188.642 154.937 188.989 155.167 189.236 155.46V154.72L190.826 155.03V160.45C190.826 160.723 190.916 160.947 191.096 161.12C191.282 161.287 191.506 161.37 191.766 161.37C192.106 161.37 192.379 161.213 192.586 160.9C192.799 160.58 192.956 160.197 193.056 159.75C193.156 159.297 193.206 158.877 193.206 158.49C193.206 157.643 193.046 156.85 192.726 156.11C192.406 155.37 191.962 154.72 191.396 154.16C190.836 153.6 190.186 153.163 189.446 152.85C188.712 152.537 187.929 152.38 187.096 152.38C186.256 152.38 185.466 152.54 184.726 152.86C183.986 153.173 183.332 153.61 182.766 154.17C182.206 154.73 181.766 155.38 181.446 156.12C181.132 156.853 180.976 157.643 180.976 158.49C180.976 159.337 181.132 160.11 181.446 160.81C181.759 161.51 182.196 162.113 182.756 162.62C183.322 163.12 183.972 163.51 184.706 163.79C185.446 164.07 186.242 164.21 187.096 164.21V166.28ZM186.996 160.89C187.442 160.89 187.832 160.773 188.166 160.54C188.499 160.307 188.759 160.003 188.946 159.63C189.132 159.25 189.226 158.85 189.226 158.43C189.226 158.01 189.136 157.627 188.956 157.28C188.776 156.927 188.519 156.643 188.186 156.43C187.852 156.21 187.456 156.1 186.996 156.1C186.556 156.1 186.152 156.207 185.786 156.42C185.426 156.633 185.136 156.923 184.916 157.29C184.702 157.65 184.596 158.05 184.596 158.49C184.596 158.937 184.706 159.343 184.926 159.71C185.146 160.07 185.436 160.357 185.796 160.57C186.162 160.783 186.562 160.89 186.996 160.89ZM201.684 164.26C200.764 164.26 199.924 164.023 199.164 163.55C198.411 163.077 197.807 162.443 197.354 161.65C196.907 160.85 196.684 159.967 196.684 159C196.684 158.267 196.814 157.583 197.074 156.95C197.334 156.31 197.691 155.75 198.144 155.27C198.604 154.783 199.137 154.403 199.744 154.13C200.351 153.857 200.997 153.72 201.684 153.72C202.451 153.72 203.154 153.88 203.794 154.2C204.434 154.513 204.981 154.95 205.434 155.51C205.887 156.063 206.221 156.703 206.434 157.43C206.647 158.15 206.711 158.917 206.624 159.73H198.914C199.001 160.19 199.167 160.607 199.414 160.98C199.667 161.347 199.987 161.637 200.374 161.85C200.767 162.063 201.204 162.173 201.684 162.18C202.191 162.18 202.651 162.053 203.064 161.8C203.484 161.547 203.827 161.197 204.094 160.75L206.204 161.24C205.804 162.127 205.201 162.853 204.394 163.42C203.587 163.98 202.684 164.26 201.684 164.26ZM198.844 158.14H204.524C204.457 157.66 204.287 157.227 204.014 156.84C203.747 156.447 203.411 156.137 203.004 155.91C202.604 155.677 202.164 155.56 201.684 155.56C201.211 155.56 200.771 155.673 200.364 155.9C199.964 156.127 199.631 156.437 199.364 156.83C199.104 157.217 198.931 157.653 198.844 158.14ZM211.319 164.19C210.792 164.157 210.279 164.05 209.779 163.87C209.279 163.69 208.839 163.447 208.459 163.14C208.086 162.827 207.806 162.46 207.619 162.04L209.389 161.28C209.476 161.46 209.626 161.637 209.839 161.81C210.059 161.983 210.316 162.127 210.609 162.24C210.902 162.347 211.209 162.4 211.529 162.4C211.842 162.4 212.132 162.357 212.399 162.27C212.672 162.177 212.896 162.037 213.069 161.85C213.242 161.663 213.329 161.44 213.329 161.18C213.329 160.887 213.229 160.66 213.029 160.5C212.836 160.333 212.592 160.207 212.299 160.12C212.006 160.033 211.712 159.95 211.419 159.87C210.766 159.723 210.166 159.523 209.619 159.27C209.079 159.01 208.649 158.68 208.329 158.28C208.009 157.873 207.849 157.377 207.849 156.79C207.849 156.15 208.022 155.597 208.369 155.13C208.716 154.657 209.169 154.293 209.729 154.04C210.296 153.787 210.899 153.66 211.539 153.66C212.339 153.66 213.072 153.83 213.739 154.17C214.406 154.51 214.916 154.977 215.269 155.57L213.619 156.55C213.519 156.35 213.369 156.17 213.169 156.01C212.969 155.85 212.742 155.723 212.489 155.63C212.236 155.53 211.972 155.473 211.699 155.46C211.359 155.447 211.042 155.487 210.749 155.58C210.462 155.667 210.232 155.807 210.059 156C209.886 156.193 209.799 156.44 209.799 156.74C209.799 157.033 209.902 157.253 210.109 157.4C210.316 157.54 210.576 157.653 210.889 157.74C211.209 157.827 211.536 157.923 211.869 158.03C212.462 158.217 213.019 158.447 213.539 158.72C214.059 158.987 214.479 159.317 214.799 159.71C215.119 160.103 215.272 160.583 215.259 161.15C215.259 161.777 215.069 162.327 214.689 162.8C214.316 163.273 213.829 163.633 213.229 163.88C212.629 164.127 211.992 164.23 211.319 164.19ZM222.251 156.08H220.151L220.141 164H218.061L218.071 156.08H216.481V154H218.071L218.061 150.86H220.141L220.151 154H222.251V156.08ZM231.587 154H233.667V164H231.577L231.497 162.55C231.204 163.063 230.807 163.477 230.307 163.79C229.807 164.103 229.217 164.26 228.537 164.26C227.804 164.26 227.114 164.123 226.467 163.85C225.821 163.57 225.251 163.183 224.757 162.69C224.271 162.197 223.891 161.63 223.617 160.99C223.344 160.343 223.207 159.65 223.207 158.91C223.207 158.197 223.341 157.527 223.607 156.9C223.874 156.267 224.244 155.713 224.717 155.24C225.191 154.767 225.737 154.397 226.357 154.13C226.984 153.857 227.654 153.72 228.367 153.72C229.094 153.72 229.734 153.887 230.287 154.22C230.847 154.547 231.311 154.967 231.677 155.48L231.587 154ZM228.487 162.25C229.074 162.25 229.587 162.107 230.027 161.82C230.467 161.527 230.807 161.133 231.047 160.64C231.294 160.147 231.417 159.6 231.417 159C231.417 158.393 231.294 157.843 231.047 157.35C230.801 156.857 230.457 156.467 230.017 156.18C229.584 155.887 229.074 155.74 228.487 155.74C227.907 155.74 227.377 155.887 226.897 156.18C226.417 156.473 226.037 156.867 225.757 157.36C225.477 157.853 225.337 158.4 225.337 159C225.337 159.607 225.481 160.157 225.767 160.65C226.061 161.137 226.444 161.527 226.917 161.82C227.397 162.107 227.921 162.25 228.487 162.25ZM240.943 156.08H238.843L238.833 164H236.753L236.763 156.08H235.173V154H236.763L236.753 150.86H238.833L238.843 154H240.943V156.08ZM246.899 164.26C245.979 164.26 245.139 164.023 244.379 163.55C243.625 163.077 243.022 162.443 242.569 161.65C242.122 160.85 241.899 159.967 241.899 159C241.899 158.267 242.029 157.583 242.289 156.95C242.549 156.31 242.905 155.75 243.359 155.27C243.819 154.783 244.352 154.403 244.959 154.13C245.565 153.857 246.212 153.72 246.899 153.72C247.665 153.72 248.369 153.88 249.009 154.2C249.649 154.513 250.195 154.95 250.649 155.51C251.102 156.063 251.435 156.703 251.649 157.43C251.862 158.15 251.925 158.917 251.839 159.73H244.129C244.215 160.19 244.382 160.607 244.629 160.98C244.882 161.347 245.202 161.637 245.589 161.85C245.982 162.063 246.419 162.173 246.899 162.18C247.405 162.18 247.865 162.053 248.279 161.8C248.699 161.547 249.042 161.197 249.309 160.75L251.419 161.24C251.019 162.127 250.415 162.853 249.609 163.42C248.802 163.98 247.899 164.26 246.899 164.26ZM244.059 158.14H249.739C249.672 157.66 249.502 157.227 249.229 156.84C248.962 156.447 248.625 156.137 248.219 155.91C247.819 155.677 247.379 155.56 246.899 155.56C246.425 155.56 245.985 155.673 245.579 155.9C245.179 156.127 244.845 156.437 244.579 156.83C244.319 157.217 244.145 157.653 244.059 158.14ZM253.3 154H255.38V164H253.3V154ZM254.36 152.55C254.04 152.55 253.773 152.447 253.56 152.24C253.346 152.033 253.24 151.773 253.24 151.46C253.24 151.153 253.346 150.897 253.56 150.69C253.773 150.477 254.036 150.37 254.35 150.37C254.656 150.37 254.916 150.477 255.13 150.69C255.343 150.897 255.45 151.153 255.45 151.46C255.45 151.773 255.343 152.033 255.13 152.24C254.923 152.447 254.666 152.55 254.36 152.55ZM266.714 157.73V164H264.634V158.24C264.634 157.793 264.524 157.387 264.304 157.02C264.09 156.653 263.8 156.363 263.434 156.15C263.074 155.93 262.667 155.82 262.214 155.82C261.774 155.82 261.37 155.93 261.004 156.15C260.637 156.363 260.344 156.653 260.124 157.02C259.904 157.387 259.794 157.793 259.794 158.24V164H257.714V154H259.794V155.06C260.14 154.647 260.567 154.32 261.074 154.08C261.58 153.84 262.127 153.72 262.714 153.72C263.454 153.72 264.127 153.9 264.734 154.26C265.34 154.62 265.82 155.103 266.174 155.71C266.534 156.317 266.714 156.99 266.714 157.73ZM269.4 164.26C269.093 164.26 268.833 164.153 268.62 163.94C268.413 163.727 268.31 163.467 268.31 163.16C268.31 162.86 268.413 162.603 268.62 162.39C268.833 162.177 269.093 162.07 269.4 162.07C269.706 162.07 269.966 162.177 270.18 162.39C270.393 162.603 270.5 162.86 270.5 163.16C270.5 163.467 270.393 163.727 270.18 163.94C269.966 164.153 269.706 164.26 269.4 164.26ZM279.302 161.16L281.162 162.17C280.709 162.803 280.132 163.31 279.432 163.69C278.739 164.07 277.986 164.26 277.172 164.26C276.252 164.26 275.412 164.023 274.652 163.55C273.899 163.077 273.296 162.443 272.842 161.65C272.396 160.85 272.172 159.967 272.172 159C272.172 158.267 272.302 157.583 272.562 156.95C272.822 156.31 273.179 155.75 273.632 155.27C274.092 154.783 274.626 154.403 275.232 154.13C275.839 153.857 276.486 153.72 277.172 153.72C277.986 153.72 278.739 153.91 279.432 154.29C280.132 154.67 280.709 155.18 281.162 155.82L279.302 156.83C279.022 156.497 278.696 156.243 278.322 156.07C277.949 155.89 277.566 155.8 277.172 155.8C276.626 155.8 276.129 155.95 275.682 156.25C275.242 156.543 274.892 156.933 274.632 157.42C274.379 157.9 274.252 158.427 274.252 159C274.252 159.567 274.382 160.093 274.642 160.58C274.902 161.06 275.252 161.447 275.692 161.74C276.139 162.033 276.632 162.18 277.172 162.18C277.586 162.18 277.979 162.087 278.352 161.9C278.726 161.713 279.042 161.467 279.302 161.16ZM287.133 164.26C286.213 164.26 285.373 164.023 284.613 163.55C283.86 163.077 283.257 162.443 282.803 161.65C282.357 160.85 282.133 159.967 282.133 159C282.133 158.267 282.263 157.583 282.523 156.95C282.783 156.31 283.14 155.75 283.593 155.27C284.053 154.783 284.587 154.403 285.193 154.13C285.8 153.857 286.447 153.72 287.133 153.72C288.053 153.72 288.89 153.957 289.643 154.43C290.403 154.903 291.007 155.54 291.453 156.34C291.907 157.14 292.133 158.027 292.133 159C292.133 159.727 292.003 160.407 291.743 161.04C291.483 161.673 291.123 162.233 290.663 162.72C290.21 163.2 289.68 163.577 289.073 163.85C288.473 164.123 287.827 164.26 287.133 164.26ZM287.133 162.18C287.687 162.18 288.183 162.033 288.623 161.74C289.063 161.447 289.41 161.06 289.663 160.58C289.923 160.093 290.053 159.567 290.053 159C290.053 158.42 289.92 157.887 289.653 157.4C289.393 156.913 289.043 156.527 288.603 156.24C288.163 155.947 287.673 155.8 287.133 155.8C286.587 155.8 286.09 155.947 285.643 156.24C285.203 156.533 284.853 156.923 284.593 157.41C284.34 157.897 284.213 158.427 284.213 159C284.213 159.593 284.347 160.13 284.613 160.61C284.88 161.09 285.233 161.473 285.673 161.76C286.12 162.04 286.607 162.18 287.133 162.18ZM293.749 164V154H295.829V155.06C296.175 154.647 296.599 154.32 297.099 154.08C297.605 153.84 298.152 153.72 298.739 153.72C299.452 153.72 300.109 153.893 300.709 154.24C301.309 154.58 301.785 155.033 302.139 155.6C302.492 155.033 302.962 154.58 303.549 154.24C304.142 153.893 304.795 153.72 305.509 153.72C306.249 153.72 306.922 153.9 307.529 154.26C308.135 154.62 308.619 155.103 308.979 155.71C309.339 156.317 309.519 156.99 309.519 157.73V164H307.439V158.26C307.439 157.82 307.332 157.417 307.119 157.05C306.905 156.683 306.619 156.387 306.259 156.16C305.899 155.933 305.499 155.82 305.059 155.82C304.619 155.82 304.219 155.927 303.859 156.14C303.499 156.353 303.212 156.643 302.999 157.01C302.785 157.377 302.679 157.793 302.679 158.26V164H300.599V158.26C300.599 157.793 300.492 157.377 300.279 157.01C300.065 156.643 299.775 156.353 299.409 156.14C299.049 155.927 298.649 155.82 298.209 155.82C297.775 155.82 297.375 155.933 297.009 156.16C296.649 156.387 296.362 156.683 296.149 157.05C295.935 157.417 295.829 157.82 295.829 158.26V164H293.749Z" fill="white"></path><path d="M407.375 47.625L428.625 26.375M428.625 26.375L412.687 26.375M428.625 26.375V42.3125" stroke="#4D4D4D" stroke-width="2" stroke-linecap="round" stroke-linejoin="round"></path><defs><linearGradient id="paint0_linear_104_12837" x1="193.25" y1="126.5" x2="272.25" y2="34.5" gradientUnits="userSpaceOnUse"><stop stop-color="#A685FA"></stop><stop offset="0.323723" stop-color="#A685FA" stop-opacity="0"></stop></linearGradient><linearGradient id="paint1_linear_104_12837" x1="268.25" y1="29.5" x2="193.25" y2="122" gradientUnits="userSpaceOnUse"><stop stop-color="#A685FA"></stop><stop offset="0.576615" stop-color="#A685FA" stop-opacity="0"></stop></linearGradient><linearGradient id="paint2_linear_104_12837" x1="189.75" y1="53.5" x2="258.25" y2="112" gradientUnits="userSpaceOnUse"><stop stop-color="#A685FA"></stop><stop offset="0.323723" stop-color="#A685FA" stop-opacity="0"></stop></linearGradient><linearGradient id="paint3_linear_104_12837" x1="270.75" y1="126" x2="198.75" y2="75" gradientUnits="userSpaceOnUse"><stop stop-color="#A685FA"></stop><stop offset="0.576615" stop-color="#A685FA" stop-opacity="0"></stop></linearGradient></defs></svg>