<svg xmlns="http://www.w3.org/2000/svg" width="550" height="76" viewBox="0 0 550 76" fill="none"><mask id="path-1-inside-1_166_862" fill="white"><path d="M0 0H550V76H0V0Z"></path></mask><path d="M0 0H550V76H0V0Z" fill="url(#paint0_linear_166_862)"></path><path d="M1 76V0H-1V76H1Z" fill="#703BF7" mask="url(#path-1-inside-1_166_862)"></path><path fill-rule="evenodd" clip-rule="evenodd" d="M28.1794 29.3291C28.4304 29.4691 28.5536 29.7622 28.478 30.0394L26.8183 36.125H32.875C33.1239 36.125 33.349 36.2727 33.4482 36.5009C33.5474 36.7292 33.5017 36.9945 33.3319 37.1764L24.5819 46.5514C24.3858 46.7616 24.0717 46.8108 23.8207 46.6709C23.5696 46.5309 23.4464 46.2378 23.522 45.9605L25.1817 39.875H19.125C18.8761 39.875 18.651 39.7273 18.5518 39.4991C18.4526 39.2708 18.4983 39.0055 18.6681 38.8235L27.4181 29.4485C27.6142 29.2384 27.9283 29.1892 28.1794 29.3291Z" fill="white"></path><path d="M46.96 32L49.128 20.8H50.16L53.184 28.752L56.2 20.8H57.232L59.408 32H58.04L56.464 23.872L53.624 31.392H52.736L49.896 23.872L48.328 32H46.96ZM67.0639 24H68.4079V32H67.0639L67.0079 30.648C66.7572 31.112 66.4105 31.488 65.9679 31.776C65.5305 32.064 65.0079 32.208 64.3999 32.208C63.8132 32.208 63.2639 32.0987 62.7519 31.88C62.2399 31.656 61.7865 31.3493 61.3919 30.96C61.0025 30.5653 60.6985 30.112 60.4799 29.6C60.2612 29.088 60.1519 28.536 60.1519 27.944C60.1519 27.3733 60.2585 26.8347 60.4719 26.328C60.6852 25.8213 60.9812 25.3787 61.3599 25C61.7439 24.616 62.1865 24.3173 62.6879 24.104C63.1892 23.8853 63.7279 23.776 64.3039 23.776C64.9332 23.776 65.4852 23.9253 65.9599 24.224C66.4345 24.5173 66.8185 24.8987 67.1119 25.368L67.0639 24ZM64.3759 30.904C64.9039 30.904 65.3599 30.776 65.7439 30.52C66.1332 30.2587 66.4319 29.9067 66.6399 29.464C66.8532 29.0213 66.9599 28.5333 66.9599 28C66.9599 27.456 66.8532 26.9653 66.6399 26.528C66.4265 26.0853 66.1252 25.736 65.7359 25.48C65.3519 25.2187 64.8985 25.088 64.3759 25.088C63.8479 25.088 63.3679 25.2187 62.9359 25.48C62.5039 25.7413 62.1599 26.0933 61.9039 26.536C61.6532 26.9733 61.5279 27.4613 61.5279 28C61.5279 28.5387 61.6585 29.0293 61.9199 29.472C62.1812 29.9093 62.5279 30.2587 62.9599 30.52C63.3919 30.776 63.8639 30.904 64.3759 30.904ZM72.4469 32.152C72.0149 32.136 71.5935 32.056 71.1829 31.912C70.7775 31.7627 70.4202 31.5627 70.1109 31.312C69.8069 31.056 69.5855 30.7627 69.4469 30.432L70.5989 29.936C70.6789 30.1173 70.8229 30.288 71.0309 30.448C71.2389 30.608 71.4789 30.736 71.7509 30.832C72.0229 30.928 72.2975 30.976 72.5749 30.976C72.8682 30.976 73.1429 30.9307 73.3989 30.84C73.6549 30.7493 73.8629 30.616 74.0229 30.44C74.1882 30.2587 74.2709 30.0427 74.2709 29.792C74.2709 29.5253 74.1802 29.3173 73.9989 29.168C73.8229 29.0133 73.5989 28.8933 73.3269 28.808C73.0602 28.7173 72.7882 28.632 72.5109 28.552C71.9615 28.4133 71.4709 28.248 71.0389 28.056C70.6069 27.8587 70.2655 27.6107 70.0149 27.312C69.7695 27.008 69.6469 26.6213 69.6469 26.152C69.6469 25.656 69.7829 25.2267 70.0549 24.864C70.3322 24.5013 70.6949 24.2213 71.1429 24.024C71.5909 23.8267 72.0709 23.728 72.5829 23.728C73.2282 23.728 73.8175 23.8667 74.3509 24.144C74.8842 24.4213 75.2815 24.7973 75.5429 25.272L74.4629 25.904C74.3722 25.712 74.2335 25.544 74.0469 25.4C73.8602 25.2507 73.6469 25.1333 73.4069 25.048C73.1669 24.9627 72.9215 24.9173 72.6709 24.912C72.3615 24.9013 72.0709 24.9413 71.7989 25.032C71.5322 25.1227 71.3162 25.2613 71.1509 25.448C70.9909 25.6293 70.9109 25.856 70.9109 26.128C70.9109 26.3947 70.9962 26.5973 71.1669 26.736C71.3429 26.8747 71.5695 26.9867 71.8469 27.072C72.1295 27.152 72.4362 27.2453 72.7669 27.352C73.2522 27.5067 73.7055 27.6853 74.1269 27.888C74.5482 28.0907 74.8869 28.344 75.1429 28.648C75.4042 28.952 75.5322 29.328 75.5269 29.776C75.5269 30.2667 75.3802 30.696 75.0869 31.064C74.7935 31.4267 74.4122 31.704 73.9429 31.896C73.4789 32.088 72.9802 32.1733 72.4469 32.152ZM81.0415 25.344H79.2255L79.2175 32H77.8735L77.8815 25.344H76.5055V24H77.8815L77.8735 21.488H79.2175L79.2255 24H81.0415V25.344ZM85.7925 32.208C85.0565 32.208 84.3845 32.0187 83.7765 31.64C83.1738 31.2613 82.6912 30.7547 82.3285 30.12C81.9712 29.48 81.7925 28.7733 81.7925 28C81.7925 27.4133 81.8965 26.8667 82.1045 26.36C82.3125 25.848 82.5978 25.4 82.9605 25.016C83.3285 24.6267 83.7552 24.3227 84.2405 24.104C84.7258 23.8853 85.2432 23.776 85.7925 23.776C86.3952 23.776 86.9472 23.8987 87.4485 24.144C87.9552 24.384 88.3872 24.72 88.7445 25.152C89.1072 25.584 89.3765 26.0853 89.5525 26.656C89.7338 27.2267 89.8005 27.8373 89.7525 28.488H83.2245C83.2885 28.9413 83.4378 29.3467 83.6725 29.704C83.9072 30.056 84.2058 30.336 84.5685 30.544C84.9365 30.752 85.3445 30.8587 85.7925 30.864C86.2725 30.864 86.7072 30.7413 87.0965 30.496C87.4858 30.2453 87.8005 29.904 88.0405 29.472L89.4085 29.792C89.0885 30.5013 88.6058 31.0827 87.9605 31.536C87.3152 31.984 86.5925 32.208 85.7925 32.208ZM83.1845 27.432H88.4005C88.3578 26.984 88.2138 26.576 87.9685 26.208C87.7232 25.8347 87.4112 25.536 87.0325 25.312C86.6538 25.088 86.2405 24.976 85.7925 24.976C85.3445 24.976 84.9338 25.0853 84.5605 25.304C84.1872 25.5227 83.8778 25.8187 83.6325 26.192C83.3925 26.56 83.2432 26.9733 83.1845 27.432ZM91.1006 32V24H92.4446V25C92.7273 24.6267 93.0846 24.3307 93.5166 24.112C93.9486 23.888 94.418 23.776 94.9246 23.776C95.234 23.776 95.5326 23.816 95.8206 23.896L95.2766 25.24C95.058 25.1707 94.8446 25.136 94.6366 25.136C94.2366 25.136 93.8686 25.2347 93.5326 25.432C93.202 25.624 92.938 25.8853 92.7406 26.216C92.5433 26.5467 92.4446 26.9147 92.4446 27.32V32H91.1006ZM103.228 32.152C102.796 32.136 102.375 32.056 101.964 31.912C101.559 31.7627 101.201 31.5627 100.892 31.312C100.588 31.056 100.367 30.7627 100.228 30.432L101.38 29.936C101.46 30.1173 101.604 30.288 101.812 30.448C102.02 30.608 102.26 30.736 102.532 30.832C102.804 30.928 103.079 30.976 103.356 30.976C103.649 30.976 103.924 30.9307 104.18 30.84C104.436 30.7493 104.644 30.616 104.804 30.44C104.969 30.2587 105.052 30.0427 105.052 29.792C105.052 29.5253 104.961 29.3173 104.78 29.168C104.604 29.0133 104.38 28.8933 104.108 28.808C103.841 28.7173 103.569 28.632 103.292 28.552C102.743 28.4133 102.252 28.248 101.82 28.056C101.388 27.8587 101.047 27.6107 100.796 27.312C100.551 27.008 100.428 26.6213 100.428 26.152C100.428 25.656 100.564 25.2267 100.836 24.864C101.113 24.5013 101.476 24.2213 101.924 24.024C102.372 23.8267 102.852 23.728 103.364 23.728C104.009 23.728 104.599 23.8667 105.132 24.144C105.665 24.4213 106.063 24.7973 106.324 25.272L105.244 25.904C105.153 25.712 105.015 25.544 104.828 25.4C104.641 25.2507 104.428 25.1333 104.188 25.048C103.948 24.9627 103.703 24.9173 103.452 24.912C103.143 24.9013 102.852 24.9413 102.58 25.032C102.313 25.1227 102.097 25.2613 101.932 25.448C101.772 25.6293 101.692 25.856 101.692 26.128C101.692 26.3947 101.777 26.5973 101.948 26.736C102.124 26.8747 102.351 26.9867 102.628 27.072C102.911 27.152 103.217 27.2453 103.548 27.352C104.033 27.5067 104.487 27.6853 104.908 27.888C105.329 28.0907 105.668 28.344 105.924 28.648C106.185 28.952 106.313 29.328 106.308 29.776C106.308 30.2667 106.161 30.696 105.868 31.064C105.575 31.4267 105.193 31.704 104.724 31.896C104.26 32.088 103.761 32.1733 103.228 32.152ZM107.359 28.96V24H108.703V28.664C108.703 29.0693 108.801 29.4373 108.999 29.768C109.196 30.0987 109.46 30.3627 109.791 30.56C110.127 30.752 110.495 30.848 110.895 30.848C111.3 30.848 111.665 30.752 111.991 30.56C112.321 30.3627 112.585 30.0987 112.783 29.768C112.98 29.4373 113.079 29.0693 113.079 28.664V24H114.423L114.431 32H113.087L113.079 30.984C112.796 31.3573 112.439 31.656 112.007 31.88C111.575 32.0987 111.108 32.208 110.607 32.208C110.009 32.208 109.463 32.064 108.967 31.776C108.476 31.4827 108.084 31.0907 107.791 30.6C107.503 30.1093 107.359 29.5627 107.359 28.96ZM116.038 24H117.382V32H116.038V24ZM116.726 22.696C116.513 22.696 116.334 22.6267 116.19 22.488C116.046 22.3493 115.974 22.176 115.974 21.968C115.974 21.76 116.046 21.5867 116.19 21.448C116.334 21.3093 116.51 21.24 116.718 21.24C116.926 21.24 117.102 21.3093 117.246 21.448C117.39 21.5867 117.462 21.76 117.462 21.968C117.462 22.176 117.39 22.3493 117.246 22.488C117.107 22.6267 116.934 22.696 116.726 22.696ZM123.448 25.344H121.632L121.624 32H120.28L120.288 25.344H118.912V24H120.288L120.28 21.488H121.624L121.632 24H123.448V25.344ZM128.199 32.208C127.463 32.208 126.791 32.0187 126.183 31.64C125.58 31.2613 125.097 30.7547 124.735 30.12C124.377 29.48 124.199 28.7733 124.199 28C124.199 27.4133 124.303 26.8667 124.511 26.36C124.719 25.848 125.004 25.4 125.367 25.016C125.735 24.6267 126.161 24.3227 126.647 24.104C127.132 23.8853 127.649 23.776 128.199 23.776C128.801 23.776 129.353 23.8987 129.855 24.144C130.361 24.384 130.793 24.72 131.151 25.152C131.513 25.584 131.783 26.0853 131.959 26.656C132.14 27.2267 132.207 27.8373 132.159 28.488H125.631C125.695 28.9413 125.844 29.3467 126.079 29.704C126.313 30.056 126.612 30.336 126.975 30.544C127.343 30.752 127.751 30.8587 128.199 30.864C128.679 30.864 129.113 30.7413 129.503 30.496C129.892 30.2453 130.207 29.904 130.447 29.472L131.815 29.792C131.495 30.5013 131.012 31.0827 130.367 31.536C129.721 31.984 128.999 32.208 128.199 32.208ZM125.591 27.432H130.807C130.764 26.984 130.62 26.576 130.375 26.208C130.129 25.8347 129.817 25.536 129.439 25.312C129.06 25.088 128.647 24.976 128.199 24.976C127.751 24.976 127.34 25.0853 126.967 25.304C126.593 25.5227 126.284 25.8187 126.039 26.192C125.799 26.56 125.649 26.9733 125.591 27.432ZM141.02 32H139.66L136.98 24H138.292L140.356 30.104L142.396 24H143.78L145.828 30.104L147.868 24H149.196L146.516 32H145.148L143.076 25.84L141.02 32ZM150.491 24H151.835V32H150.491V24ZM151.179 22.696C150.966 22.696 150.787 22.6267 150.643 22.488C150.499 22.3493 150.427 22.176 150.427 21.968C150.427 21.76 150.499 21.5867 150.643 21.448C150.787 21.3093 150.963 21.24 151.171 21.24C151.379 21.24 151.555 21.3093 151.699 21.448C151.843 21.5867 151.915 21.76 151.915 21.968C151.915 22.176 151.843 22.3493 151.699 22.488C151.561 22.6267 151.387 22.696 151.179 22.696ZM157.901 25.344H156.085L156.077 32H154.733L154.741 25.344H153.365V24H154.741L154.733 21.488H156.077L156.085 24H157.901V25.344ZM166.407 27.024V32H165.063V27.32C165.063 26.9147 164.964 26.5467 164.767 26.216C164.57 25.8853 164.306 25.624 163.975 25.432C163.644 25.2347 163.276 25.136 162.871 25.136C162.471 25.136 162.103 25.2347 161.767 25.432C161.436 25.624 161.172 25.8853 160.975 26.216C160.778 26.5467 160.679 26.9147 160.679 27.32V32H159.335V20H160.679V25C160.962 24.6267 161.319 24.3307 161.751 24.112C162.183 23.888 162.652 23.776 163.159 23.776C163.756 23.776 164.3 23.9227 164.791 24.216C165.287 24.504 165.679 24.8933 165.967 25.384C166.26 25.8747 166.407 26.4213 166.407 27.024ZM178.283 24H179.627V32H178.283L178.227 30.648C177.976 31.112 177.629 31.488 177.187 31.776C176.749 32.064 176.227 32.208 175.619 32.208C175.032 32.208 174.483 32.0987 173.971 31.88C173.459 31.656 173.005 31.3493 172.611 30.96C172.221 30.5653 171.917 30.112 171.699 29.6C171.48 29.088 171.371 28.536 171.371 27.944C171.371 27.3733 171.477 26.8347 171.691 26.328C171.904 25.8213 172.2 25.3787 172.579 25C172.963 24.616 173.405 24.3173 173.907 24.104C174.408 23.8853 174.947 23.776 175.523 23.776C176.152 23.776 176.704 23.9253 177.179 24.224C177.653 24.5173 178.037 24.8987 178.331 25.368L178.283 24ZM175.595 30.904C176.123 30.904 176.579 30.776 176.963 30.52C177.352 30.2587 177.651 29.9067 177.859 29.464C178.072 29.0213 178.179 28.5333 178.179 28C178.179 27.456 178.072 26.9653 177.859 26.528C177.645 26.0853 177.344 25.736 176.955 25.48C176.571 25.2187 176.117 25.088 175.595 25.088C175.067 25.088 174.587 25.2187 174.155 25.48C173.723 25.7413 173.379 26.0933 173.123 26.536C172.872 26.9733 172.747 27.4613 172.747 28C172.747 28.5387 172.877 29.0293 173.139 29.472C173.4 29.9093 173.747 30.2587 174.179 30.52C174.611 30.776 175.083 30.904 175.595 30.904ZM187.509 32.152C187.077 32.136 186.656 32.056 186.245 31.912C185.84 31.7627 185.483 31.5627 185.173 31.312C184.869 31.056 184.648 30.7627 184.509 30.432L185.661 29.936C185.741 30.1173 185.885 30.288 186.093 30.448C186.301 30.608 186.541 30.736 186.813 30.832C187.085 30.928 187.36 30.976 187.637 30.976C187.931 30.976 188.205 30.9307 188.461 30.84C188.717 30.7493 188.925 30.616 189.085 30.44C189.251 30.2587 189.333 30.0427 189.333 29.792C189.333 29.5253 189.243 29.3173 189.061 29.168C188.885 29.0133 188.661 28.8933 188.389 28.808C188.123 28.7173 187.851 28.632 187.573 28.552C187.024 28.4133 186.533 28.248 186.101 28.056C185.669 27.8587 185.328 27.6107 185.077 27.312C184.832 27.008 184.709 26.6213 184.709 26.152C184.709 25.656 184.845 25.2267 185.117 24.864C185.395 24.5013 185.757 24.2213 186.205 24.024C186.653 23.8267 187.133 23.728 187.645 23.728C188.291 23.728 188.88 23.8667 189.413 24.144C189.947 24.4213 190.344 24.7973 190.605 25.272L189.525 25.904C189.435 25.712 189.296 25.544 189.109 25.4C188.923 25.2507 188.709 25.1333 188.469 25.048C188.229 24.9627 187.984 24.9173 187.733 24.912C187.424 24.9013 187.133 24.9413 186.861 25.032C186.595 25.1227 186.379 25.2613 186.213 25.448C186.053 25.6293 185.973 25.856 185.973 26.128C185.973 26.3947 186.059 26.5973 186.229 26.736C186.405 26.8747 186.632 26.9867 186.909 27.072C187.192 27.152 187.499 27.2453 187.829 27.352C188.315 27.5067 188.768 27.6853 189.189 27.888C189.611 28.0907 189.949 28.344 190.205 28.648C190.467 28.952 190.595 29.328 190.589 29.776C190.589 30.2667 190.443 30.696 190.149 31.064C189.856 31.4267 189.475 31.704 189.005 31.896C188.541 32.088 188.043 32.1733 187.509 32.152ZM193.304 36H191.96V24H193.304V25.368C193.576 24.8987 193.939 24.52 194.392 24.232C194.845 23.9387 195.384 23.792 196.008 23.792C196.589 23.792 197.133 23.9013 197.64 24.12C198.152 24.3387 198.6 24.6427 198.984 25.032C199.368 25.416 199.669 25.8613 199.888 26.368C200.107 26.8747 200.216 27.4187 200.216 28C200.216 28.5813 200.107 29.128 199.888 29.64C199.669 30.152 199.368 30.6027 198.984 30.992C198.6 31.376 198.152 31.6773 197.64 31.896C197.133 32.1147 196.589 32.224 196.008 32.224C195.384 32.224 194.845 32.08 194.392 31.792C193.939 31.4987 193.576 31.1173 193.304 30.648V36ZM195.992 25.096C195.475 25.096 195.021 25.2267 194.632 25.488C194.243 25.7493 193.941 26.0987 193.728 26.536C193.52 26.9733 193.416 27.4613 193.416 28C193.416 28.5333 193.52 29.0213 193.728 29.464C193.941 29.9067 194.24 30.2587 194.624 30.52C195.013 30.7813 195.469 30.912 195.992 30.912C196.509 30.912 196.984 30.784 197.416 30.528C197.848 30.2667 198.195 29.9173 198.456 29.48C198.717 29.0373 198.848 28.544 198.848 28C198.848 27.4667 198.72 26.9813 198.464 26.544C198.208 26.1013 197.864 25.7493 197.432 25.488C197 25.2267 196.52 25.096 195.992 25.096ZM207.939 24H209.283V32H207.939L207.883 30.648C207.632 31.112 207.286 31.488 206.843 31.776C206.406 32.064 205.883 32.208 205.275 32.208C204.688 32.208 204.139 32.0987 203.627 31.88C203.115 31.656 202.662 31.3493 202.267 30.96C201.878 30.5653 201.574 30.112 201.355 29.6C201.136 29.088 201.027 28.536 201.027 27.944C201.027 27.3733 201.134 26.8347 201.347 26.328C201.56 25.8213 201.856 25.3787 202.235 25C202.619 24.616 203.062 24.3173 203.563 24.104C204.064 23.8853 204.603 23.776 205.179 23.776C205.808 23.776 206.36 23.9253 206.835 24.224C207.31 24.5173 207.694 24.8987 207.987 25.368L207.939 24ZM205.251 30.904C205.779 30.904 206.235 30.776 206.619 30.52C207.008 30.2587 207.307 29.9067 207.515 29.464C207.728 29.0213 207.835 28.5333 207.835 28C207.835 27.456 207.728 26.9653 207.515 26.528C207.302 26.0853 207 25.736 206.611 25.48C206.227 25.2187 205.774 25.088 205.251 25.088C204.723 25.088 204.243 25.2187 203.811 25.48C203.379 25.7413 203.035 26.0933 202.779 26.536C202.528 26.9733 202.403 27.4613 202.403 28C202.403 28.5387 202.534 29.0293 202.795 29.472C203.056 29.9093 203.403 30.2587 203.835 30.52C204.267 30.776 204.739 30.904 205.251 30.904ZM210.882 26.528H216.002V27.872H210.882V26.528ZM217.929 24H219.273V32H217.929V24ZM218.617 22.696C218.403 22.696 218.225 22.6267 218.081 22.488C217.937 22.3493 217.865 22.176 217.865 21.968C217.865 21.76 217.937 21.5867 218.081 21.448C218.225 21.3093 218.401 21.24 218.609 21.24C218.817 21.24 218.993 21.3093 219.137 21.448C219.281 21.5867 219.353 21.76 219.353 21.968C219.353 22.176 219.281 22.3493 219.137 22.488C218.998 22.6267 218.825 22.696 218.617 22.696ZM228.235 27.024V32H226.891V27.32C226.891 26.9147 226.792 26.5467 226.595 26.216C226.398 25.8853 226.134 25.624 225.803 25.432C225.472 25.2347 225.104 25.136 224.699 25.136C224.299 25.136 223.931 25.2347 223.595 25.432C223.264 25.624 223 25.8853 222.803 26.216C222.606 26.5467 222.507 26.9147 222.507 27.32V32H221.163V24H222.507V25C222.79 24.6267 223.147 24.3307 223.579 24.112C224.011 23.888 224.48 23.776 224.987 23.776C225.584 23.776 226.128 23.9227 226.619 24.216C227.115 24.504 227.507 24.8933 227.795 25.384C228.088 25.8747 228.235 26.4213 228.235 27.024ZM232.275 32.152C231.843 32.136 231.422 32.056 231.011 31.912C230.606 31.7627 230.248 31.5627 229.939 31.312C229.635 31.056 229.414 30.7627 229.275 30.432L230.427 29.936C230.507 30.1173 230.651 30.288 230.859 30.448C231.067 30.608 231.307 30.736 231.579 30.832C231.851 30.928 232.126 30.976 232.403 30.976C232.696 30.976 232.971 30.9307 233.227 30.84C233.483 30.7493 233.691 30.616 233.851 30.44C234.016 30.2587 234.099 30.0427 234.099 29.792C234.099 29.5253 234.008 29.3173 233.827 29.168C233.651 29.0133 233.427 28.8933 233.155 28.808C232.888 28.7173 232.616 28.632 232.339 28.552C231.79 28.4133 231.299 28.248 230.867 28.056C230.435 27.8587 230.094 27.6107 229.843 27.312C229.598 27.008 229.475 26.6213 229.475 26.152C229.475 25.656 229.611 25.2267 229.883 24.864C230.16 24.5013 230.523 24.2213 230.971 24.024C231.419 23.8267 231.899 23.728 232.411 23.728C233.056 23.728 233.646 23.8667 234.179 24.144C234.712 24.4213 235.11 24.7973 235.371 25.272L234.291 25.904C234.2 25.712 234.062 25.544 233.875 25.4C233.688 25.2507 233.475 25.1333 233.235 25.048C232.995 24.9627 232.75 24.9173 232.499 24.912C232.19 24.9013 231.899 24.9413 231.627 25.032C231.36 25.1227 231.144 25.2613 230.979 25.448C230.819 25.6293 230.739 25.856 230.739 26.128C230.739 26.3947 230.824 26.5973 230.995 26.736C231.171 26.8747 231.398 26.9867 231.675 27.072C231.958 27.152 232.264 27.2453 232.595 27.352C233.08 27.5067 233.534 27.6853 233.955 27.888C234.376 28.0907 234.715 28.344 234.971 28.648C235.232 28.952 235.36 29.328 235.355 29.776C235.355 30.2667 235.208 30.696 234.915 31.064C234.622 31.4267 234.24 31.704 233.771 31.896C233.307 32.088 232.808 32.1733 232.275 32.152ZM238.07 36H236.726V24H238.07V25.368C238.342 24.8987 238.704 24.52 239.158 24.232C239.611 23.9387 240.15 23.792 240.774 23.792C241.355 23.792 241.899 23.9013 242.406 24.12C242.918 24.3387 243.366 24.6427 243.75 25.032C244.134 25.416 244.435 25.8613 244.654 26.368C244.872 26.8747 244.982 27.4187 244.982 28C244.982 28.5813 244.872 29.128 244.654 29.64C244.435 30.152 244.134 30.6027 243.75 30.992C243.366 31.376 242.918 31.6773 242.406 31.896C241.899 32.1147 241.355 32.224 240.774 32.224C240.15 32.224 239.611 32.08 239.158 31.792C238.704 31.4987 238.342 31.1173 238.07 30.648V36ZM240.758 25.096C240.24 25.096 239.787 25.2267 239.398 25.488C239.008 25.7493 238.707 26.0987 238.494 26.536C238.286 26.9733 238.182 27.4613 238.182 28C238.182 28.5333 238.286 29.0213 238.494 29.464C238.707 29.9067 239.006 30.2587 239.39 30.52C239.779 30.7813 240.235 30.912 240.758 30.912C241.275 30.912 241.75 30.784 242.182 30.528C242.614 30.2667 242.96 29.9173 243.222 29.48C243.483 29.0373 243.614 28.544 243.614 28C243.614 27.4667 243.486 26.9813 243.23 26.544C242.974 26.1013 242.63 25.7493 242.198 25.488C241.766 25.2267 241.286 25.096 240.758 25.096ZM246.21 24H247.554V32H246.21V24ZM246.898 22.696C246.685 22.696 246.506 22.6267 246.362 22.488C246.218 22.3493 246.146 22.176 246.146 21.968C246.146 21.76 246.218 21.5867 246.362 21.448C246.506 21.3093 246.682 21.24 246.89 21.24C247.098 21.24 247.274 21.3093 247.418 21.448C247.562 21.5867 247.634 21.76 247.634 21.968C247.634 22.176 247.562 22.3493 247.418 22.488C247.279 22.6267 247.106 22.696 246.898 22.696ZM249.444 32V24H250.788V25C251.071 24.6267 251.428 24.3307 251.86 24.112C252.292 23.888 252.762 23.776 253.268 23.776C253.578 23.776 253.876 23.816 254.164 23.896L253.62 25.24C253.402 25.1707 253.188 25.136 252.98 25.136C252.58 25.136 252.212 25.2347 251.876 25.432C251.546 25.624 251.282 25.8853 251.084 26.216C250.887 26.5467 250.788 26.9147 250.788 27.32V32H249.444ZM258.261 32.208C257.525 32.208 256.853 32.0187 256.245 31.64C255.643 31.2613 255.16 30.7547 254.797 30.12C254.44 29.48 254.261 28.7733 254.261 28C254.261 27.4133 254.365 26.8667 254.573 26.36C254.781 25.848 255.067 25.4 255.429 25.016C255.797 24.6267 256.224 24.3227 256.709 24.104C257.195 23.8853 257.712 23.776 258.261 23.776C258.864 23.776 259.416 23.8987 259.917 24.144C260.424 24.384 260.856 24.72 261.213 25.152C261.576 25.584 261.845 26.0853 262.021 26.656C262.203 27.2267 262.269 27.8373 262.221 28.488H255.693C255.757 28.9413 255.907 29.3467 256.141 29.704C256.376 30.056 256.675 30.336 257.037 30.544C257.405 30.752 257.813 30.8587 258.261 30.864C258.741 30.864 259.176 30.7413 259.565 30.496C259.955 30.2453 260.269 29.904 260.509 29.472L261.877 29.792C261.557 30.5013 261.075 31.0827 260.429 31.536C259.784 31.984 259.061 32.208 258.261 32.208ZM255.653 27.432H260.869C260.827 26.984 260.683 26.576 260.437 26.208C260.192 25.8347 259.88 25.536 259.501 25.312C259.123 25.088 258.709 24.976 258.261 24.976C257.813 24.976 257.403 25.0853 257.029 25.304C256.656 25.5227 256.347 25.8187 256.101 26.192C255.861 26.56 255.712 26.9733 255.653 27.432ZM269.963 20H271.307V32H269.963V30.64C269.691 31.1093 269.325 31.488 268.867 31.776C268.408 32.064 267.869 32.208 267.251 32.208C266.669 32.208 266.125 32.0987 265.619 31.88C265.112 31.6613 264.664 31.36 264.275 30.976C263.891 30.5867 263.589 30.1387 263.371 29.632C263.152 29.1253 263.043 28.5813 263.043 28C263.043 27.4187 263.152 26.8747 263.371 26.368C263.589 25.856 263.891 25.408 264.275 25.024C264.664 24.6347 265.112 24.3307 265.619 24.112C266.125 23.8933 266.669 23.784 267.251 23.784C267.869 23.784 268.408 23.928 268.867 24.216C269.325 24.504 269.691 24.8827 269.963 25.352V20ZM267.266 30.904C267.795 30.904 268.251 30.776 268.635 30.52C269.024 30.2587 269.323 29.9067 269.531 29.464C269.744 29.0213 269.851 28.5333 269.851 28C269.851 27.456 269.744 26.9653 269.531 26.528C269.317 26.0853 269.016 25.736 268.627 25.48C268.243 25.2187 267.789 25.088 267.266 25.088C266.739 25.088 266.259 25.2187 265.827 25.48C265.4 25.7413 265.059 26.0933 264.803 26.536C264.547 26.9733 264.419 27.4613 264.419 28C264.419 28.5387 264.549 29.0293 264.811 29.472C265.072 29.9093 265.419 30.2587 265.851 30.52C266.283 30.776 266.755 30.904 267.266 30.904ZM281.117 23.776C281.896 23.776 282.603 23.9653 283.237 24.344C283.877 24.7227 284.387 25.232 284.765 25.872C285.144 26.5067 285.333 27.2133 285.333 27.992C285.333 28.5733 285.224 29.12 285.005 29.632C284.787 30.1387 284.483 30.5867 284.093 30.976C283.709 31.36 283.261 31.6613 282.749 31.88C282.243 32.0987 281.699 32.208 281.117 32.208C280.499 32.208 279.96 32.064 279.501 31.776C279.048 31.4827 278.685 31.1013 278.413 30.632V32H277.069V20H278.413V25.352C278.685 24.8827 279.048 24.504 279.501 24.216C279.96 23.9227 280.499 23.776 281.117 23.776ZM281.101 30.896C281.629 30.896 282.109 30.7653 282.541 30.504C282.973 30.2427 283.317 29.8933 283.573 29.456C283.829 29.0133 283.957 28.5253 283.957 27.992C283.957 27.448 283.827 26.9573 283.565 26.52C283.304 26.0773 282.957 25.728 282.525 25.472C282.093 25.2107 281.619 25.08 281.101 25.08C280.579 25.08 280.123 25.2107 279.733 25.472C279.349 25.7333 279.051 26.0853 278.837 26.528C278.629 26.9707 278.525 27.4587 278.525 27.992C278.525 28.5307 278.629 29.0213 278.837 29.464C279.051 29.9013 279.352 30.2507 279.741 30.512C280.131 30.768 280.584 30.896 281.101 30.896ZM293.048 24H294.392V32H293.048L292.992 30.648C292.742 31.112 292.395 31.488 291.952 31.776C291.515 32.064 290.992 32.208 290.384 32.208C289.798 32.208 289.248 32.0987 288.736 31.88C288.224 31.656 287.771 31.3493 287.376 30.96C286.987 30.5653 286.683 30.112 286.464 29.6C286.246 29.088 286.136 28.536 286.136 27.944C286.136 27.3733 286.243 26.8347 286.456 26.328C286.67 25.8213 286.966 25.3787 287.344 25C287.728 24.616 288.171 24.3173 288.672 24.104C289.174 23.8853 289.712 23.776 290.288 23.776C290.918 23.776 291.47 23.9253 291.944 24.224C292.419 24.5173 292.803 24.8987 293.096 25.368L293.048 24ZM290.36 30.904C290.888 30.904 291.344 30.776 291.728 30.52C292.118 30.2587 292.416 29.9067 292.624 29.464C292.838 29.0213 292.944 28.5333 292.944 28C292.944 27.456 292.838 26.9653 292.624 26.528C292.411 26.0853 292.11 25.736 291.72 25.48C291.336 25.2187 290.883 25.088 290.36 25.088C289.832 25.088 289.352 25.2187 288.92 25.48C288.488 25.7413 288.144 26.0933 287.888 26.536C287.638 26.9733 287.512 27.4613 287.512 28C287.512 28.5387 287.643 29.0293 287.904 29.472C288.166 29.9093 288.512 30.2587 288.944 30.52C289.376 30.776 289.848 30.904 290.36 30.904ZM300.135 25.344H298.319L298.311 32H296.967L296.975 25.344H295.599V24H296.975L296.967 21.488H298.311L298.319 24H300.135V25.344ZM308.641 27.024V32H307.297V27.32C307.297 26.9147 307.199 26.5467 307.001 26.216C306.804 25.8853 306.54 25.624 306.209 25.432C305.879 25.2347 305.511 25.136 305.105 25.136C304.705 25.136 304.337 25.2347 304.001 25.432C303.671 25.624 303.407 25.8853 303.209 26.216C303.012 26.5467 302.913 26.9147 302.913 27.32V32H301.569V20H302.913V25C303.196 24.6267 303.553 24.3307 303.985 24.112C304.417 23.888 304.887 23.776 305.393 23.776C305.991 23.776 306.535 23.9227 307.025 24.216C307.521 24.504 307.913 24.8933 308.201 25.384C308.495 25.8747 308.641 26.4213 308.641 27.024ZM310.241 32V24H311.585V25C311.868 24.6267 312.225 24.3307 312.657 24.112C313.089 23.888 313.559 23.776 314.065 23.776C314.375 23.776 314.673 23.816 314.961 23.896L314.417 25.24C314.199 25.1707 313.985 25.136 313.777 25.136C313.377 25.136 313.009 25.2347 312.673 25.432C312.343 25.624 312.079 25.8853 311.881 26.216C311.684 26.5467 311.585 26.9147 311.585 27.32V32H310.241ZM319.058 32.208C318.322 32.208 317.65 32.0187 317.042 31.64C316.439 31.2613 315.957 30.7547 315.594 30.12C315.237 29.48 315.058 28.7733 315.058 28C315.058 27.4133 315.162 26.8667 315.37 26.36C315.578 25.848 315.863 25.4 316.226 25.016C316.594 24.6267 317.021 24.3227 317.506 24.104C317.991 23.8853 318.509 23.776 319.058 23.776C319.794 23.776 320.463 23.9653 321.066 24.344C321.674 24.7227 322.157 25.232 322.514 25.872C322.877 26.512 323.058 27.2213 323.058 28C323.058 28.5813 322.954 29.1253 322.746 29.632C322.538 30.1387 322.25 30.5867 321.882 30.976C321.519 31.36 321.095 31.6613 320.61 31.88C320.13 32.0987 319.613 32.208 319.058 32.208ZM319.058 30.864C319.559 30.864 320.01 30.7333 320.41 30.472C320.815 30.2053 321.133 29.856 321.362 29.424C321.597 28.9867 321.714 28.512 321.714 28C321.714 27.4773 321.594 26.9973 321.354 26.56C321.119 26.1227 320.802 25.7733 320.402 25.512C320.002 25.2507 319.554 25.12 319.058 25.12C318.557 25.12 318.106 25.2533 317.706 25.52C317.306 25.7813 316.989 26.1307 316.754 26.568C316.519 27.0053 316.402 27.4827 316.402 28C316.402 28.5333 316.522 29.0187 316.762 29.456C317.002 29.888 317.325 30.232 317.73 30.488C318.135 30.7387 318.578 30.864 319.058 30.864ZM327.855 32.208C327.119 32.208 326.447 32.0187 325.839 31.64C325.236 31.2613 324.754 30.7547 324.391 30.12C324.034 29.48 323.855 28.7733 323.855 28C323.855 27.4133 323.959 26.8667 324.167 26.36C324.375 25.848 324.66 25.4 325.023 25.016C325.391 24.6267 325.818 24.3227 326.303 24.104C326.788 23.8853 327.306 23.776 327.855 23.776C328.591 23.776 329.26 23.9653 329.863 24.344C330.471 24.7227 330.954 25.232 331.311 25.872C331.674 26.512 331.855 27.2213 331.855 28C331.855 28.5813 331.751 29.1253 331.543 29.632C331.335 30.1387 331.047 30.5867 330.679 30.976C330.316 31.36 329.892 31.6613 329.407 31.88C328.927 32.0987 328.41 32.208 327.855 32.208ZM327.855 30.864C328.356 30.864 328.807 30.7333 329.207 30.472C329.612 30.2053 329.93 29.856 330.159 29.424C330.394 28.9867 330.511 28.512 330.511 28C330.511 27.4773 330.391 26.9973 330.151 26.56C329.916 26.1227 329.599 25.7733 329.199 25.512C328.799 25.2507 328.351 25.12 327.855 25.12C327.354 25.12 326.903 25.2533 326.503 25.52C326.103 25.7813 325.786 26.1307 325.551 26.568C325.316 27.0053 325.199 27.4827 325.199 28C325.199 28.5333 325.319 29.0187 325.559 29.456C325.799 29.888 326.122 30.232 326.527 30.488C326.932 30.7387 327.375 30.864 327.855 30.864ZM333.179 32V24H334.523V25C334.805 24.6267 335.16 24.3307 335.587 24.112C336.019 23.888 336.488 23.776 336.995 23.776C337.587 23.776 338.128 23.92 338.619 24.208C339.109 24.496 339.496 24.8773 339.779 25.352C340.061 24.8773 340.445 24.496 340.931 24.208C341.421 23.92 341.96 23.776 342.547 23.776C343.149 23.776 343.696 23.9227 344.187 24.216C344.677 24.504 345.067 24.8933 345.355 25.384C345.648 25.8747 345.795 26.4213 345.795 27.024V32H344.451V27.344C344.451 26.9493 344.355 26.584 344.163 26.248C343.971 25.912 343.712 25.6427 343.387 25.44C343.061 25.2373 342.701 25.136 342.307 25.136C341.912 25.136 341.552 25.232 341.227 25.424C340.901 25.6107 340.643 25.872 340.451 26.208C340.259 26.5387 340.163 26.9173 340.163 27.344V32H338.819V27.344C338.819 26.9173 338.723 26.5387 338.531 26.208C338.339 25.872 338.077 25.6107 337.747 25.424C337.421 25.232 337.061 25.136 336.667 25.136C336.277 25.136 335.917 25.2373 335.587 25.44C335.261 25.6427 335.003 25.912 334.811 26.248C334.619 26.584 334.523 26.9493 334.523 27.344V32H333.179ZM357.673 24H359.017V32H357.673L357.617 30.648C357.367 31.112 357.02 31.488 356.577 31.776C356.14 32.064 355.617 32.208 355.009 32.208C354.423 32.208 353.873 32.0987 353.361 31.88C352.849 31.656 352.396 31.3493 352.001 30.96C351.612 30.5653 351.308 30.112 351.089 29.6C350.871 29.088 350.761 28.536 350.761 27.944C350.761 27.3733 350.868 26.8347 351.081 26.328C351.295 25.8213 351.591 25.3787 351.969 25C352.353 24.616 352.796 24.3173 353.297 24.104C353.799 23.8853 354.337 23.776 354.913 23.776C355.543 23.776 356.095 23.9253 356.569 24.224C357.044 24.5173 357.428 24.8987 357.721 25.368L357.673 24ZM354.985 30.904C355.513 30.904 355.969 30.776 356.353 30.52C356.743 30.2587 357.041 29.9067 357.249 29.464C357.463 29.0213 357.569 28.5333 357.569 28C357.569 27.456 357.463 26.9653 357.249 26.528C357.036 26.0853 356.735 25.736 356.345 25.48C355.961 25.2187 355.508 25.088 354.985 25.088C354.457 25.088 353.977 25.2187 353.545 25.48C353.113 25.7413 352.769 26.0933 352.513 26.536C352.263 26.9733 352.137 27.4613 352.137 28C352.137 28.5387 352.268 29.0293 352.529 29.472C352.791 29.9093 353.137 30.2587 353.569 30.52C354.001 30.776 354.473 30.904 354.985 30.904ZM367.688 27.024V32H366.344V27.32C366.344 26.9147 366.246 26.5467 366.048 26.216C365.851 25.8853 365.587 25.624 365.256 25.432C364.926 25.2347 364.558 25.136 364.152 25.136C363.752 25.136 363.384 25.2347 363.048 25.432C362.718 25.624 362.454 25.8853 362.256 26.216C362.059 26.5467 361.96 26.9147 361.96 27.32V32H360.616V24H361.96V25C362.243 24.6267 362.6 24.3307 363.032 24.112C363.464 23.888 363.934 23.776 364.44 23.776C365.038 23.776 365.582 23.9227 366.072 24.216C366.568 24.504 366.96 24.8933 367.248 25.384C367.542 25.8747 367.688 26.4213 367.688 27.024ZM375.572 20H376.916V32H375.572V30.64C375.3 31.1093 374.935 31.488 374.476 31.776C374.017 32.064 373.479 32.208 372.86 32.208C372.279 32.208 371.735 32.0987 371.228 31.88C370.721 31.6613 370.273 31.36 369.884 30.976C369.5 30.5867 369.199 30.1387 368.98 29.632C368.761 29.1253 368.652 28.5813 368.652 28C368.652 27.4187 368.761 26.8747 368.98 26.368C369.199 25.856 369.5 25.408 369.884 25.024C370.273 24.6347 370.721 24.3307 371.228 24.112C371.735 23.8933 372.279 23.784 372.86 23.784C373.479 23.784 374.017 23.928 374.476 24.216C374.935 24.504 375.3 24.8827 375.572 25.352V20ZM372.876 30.904C373.404 30.904 373.86 30.776 374.244 30.52C374.633 30.2587 374.932 29.9067 375.14 29.464C375.353 29.0213 375.46 28.5333 375.46 28C375.46 27.456 375.353 26.9653 375.14 26.528C374.927 26.0853 374.625 25.736 374.236 25.48C373.852 25.2187 373.399 25.088 372.876 25.088C372.348 25.088 371.868 25.2187 371.436 25.48C371.009 25.7413 370.668 26.0933 370.412 26.536C370.156 26.9733 370.028 27.4613 370.028 28C370.028 28.5387 370.159 29.0293 370.42 29.472C370.681 29.9093 371.028 30.2587 371.46 30.52C371.892 30.776 372.364 30.904 372.876 30.904ZM386.199 32.208C385.463 32.208 384.791 32.0187 384.183 31.64C383.58 31.2613 383.097 30.7547 382.735 30.12C382.377 29.48 382.199 28.7733 382.199 28C382.199 27.4133 382.303 26.8667 382.511 26.36C382.719 25.848 383.004 25.4 383.367 25.016C383.735 24.6267 384.161 24.3227 384.647 24.104C385.132 23.8853 385.649 23.776 386.199 23.776C386.935 23.776 387.604 23.9653 388.207 24.344C388.815 24.7227 389.297 25.232 389.655 25.872C390.017 26.512 390.199 27.2213 390.199 28C390.199 28.5813 390.095 29.1253 389.887 29.632C389.679 30.1387 389.391 30.5867 389.023 30.976C388.66 31.36 388.236 31.6613 387.751 31.88C387.271 32.0987 386.753 32.208 386.199 32.208ZM386.199 30.864C386.7 30.864 387.151 30.7333 387.551 30.472C387.956 30.2053 388.273 29.856 388.503 29.424C388.737 28.9867 388.855 28.512 388.855 28C388.855 27.4773 388.735 26.9973 388.495 26.56C388.26 26.1227 387.943 25.7733 387.543 25.512C387.143 25.2507 386.695 25.12 386.199 25.12C385.697 25.12 385.247 25.2533 384.847 25.52C384.447 25.7813 384.129 26.1307 383.895 26.568C383.66 27.0053 383.543 27.4827 383.543 28C383.543 28.5333 383.663 29.0187 383.903 29.456C384.143 29.888 384.465 30.232 384.871 30.488C385.276 30.7387 385.719 30.864 386.199 30.864ZM396.988 29.888L398.188 30.536C397.825 31.0427 397.364 31.448 396.804 31.752C396.249 32.056 395.646 32.208 394.996 32.208C394.26 32.208 393.588 32.0187 392.98 31.64C392.377 31.2613 391.894 30.7547 391.532 30.12C391.174 29.48 390.996 28.7733 390.996 28C390.996 27.4133 391.1 26.8667 391.308 26.36C391.516 25.848 391.801 25.4 392.164 25.016C392.532 24.6267 392.958 24.3227 393.444 24.104C393.929 23.8853 394.446 23.776 394.996 23.776C395.646 23.776 396.249 23.928 396.804 24.232C397.364 24.536 397.825 24.944 398.188 25.456L396.988 26.104C396.732 25.7893 396.428 25.5467 396.076 25.376C395.724 25.2053 395.364 25.12 394.996 25.12C394.5 25.12 394.049 25.2533 393.644 25.52C393.244 25.7813 392.926 26.1307 392.692 26.568C392.457 27.0053 392.34 27.4827 392.34 28C392.34 28.5173 392.457 28.9947 392.692 29.432C392.932 29.864 393.252 30.2107 393.652 30.472C394.057 30.7333 394.505 30.864 394.996 30.864C395.39 30.864 395.761 30.7733 396.108 30.592C396.454 30.4107 396.748 30.176 396.988 29.888ZM403.011 32.208C402.275 32.208 401.603 32.0187 400.995 31.64C400.393 31.2613 399.91 30.7547 399.547 30.12C399.19 29.48 399.011 28.7733 399.011 28C399.011 27.4133 399.115 26.8667 399.323 26.36C399.531 25.848 399.817 25.4 400.179 25.016C400.547 24.6267 400.974 24.3227 401.459 24.104C401.945 23.8853 402.462 23.776 403.011 23.776C403.614 23.776 404.166 23.8987 404.667 24.144C405.174 24.384 405.606 24.72 405.963 25.152C406.326 25.584 406.595 26.0853 406.771 26.656C406.953 27.2267 407.019 27.8373 406.971 28.488H400.443C400.507 28.9413 400.657 29.3467 400.891 29.704C401.126 30.056 401.425 30.336 401.787 30.544C402.155 30.752 402.563 30.8587 403.011 30.864C403.491 30.864 403.926 30.7413 404.315 30.496C404.705 30.2453 405.019 29.904 405.259 29.472L406.627 29.792C406.307 30.5013 405.825 31.0827 405.179 31.536C404.534 31.984 403.811 32.208 403.011 32.208ZM400.403 27.432H405.619C405.577 26.984 405.433 26.576 405.187 26.208C404.942 25.8347 404.63 25.536 404.251 25.312C403.873 25.088 403.459 24.976 403.011 24.976C402.563 24.976 402.153 25.0853 401.779 25.304C401.406 25.5227 401.097 25.8187 400.851 26.192C400.611 26.56 400.462 26.9733 400.403 27.432ZM414.705 24H416.049V32H414.705L414.649 30.648C414.398 31.112 414.051 31.488 413.609 31.776C413.171 32.064 412.649 32.208 412.041 32.208C411.454 32.208 410.905 32.0987 410.393 31.88C409.881 31.656 409.427 31.3493 409.033 30.96C408.643 30.5653 408.339 30.112 408.121 29.6C407.902 29.088 407.793 28.536 407.793 27.944C407.793 27.3733 407.899 26.8347 408.113 26.328C408.326 25.8213 408.622 25.3787 409.001 25C409.385 24.616 409.827 24.3173 410.329 24.104C410.83 23.8853 411.369 23.776 411.945 23.776C412.574 23.776 413.126 23.9253 413.601 24.224C414.075 24.5173 414.459 24.8987 414.753 25.368L414.705 24ZM412.016 30.904C412.545 30.904 413.001 30.776 413.385 30.52C413.774 30.2587 414.073 29.9067 414.281 29.464C414.494 29.0213 414.601 28.5333 414.601 28C414.601 27.456 414.494 26.9653 414.281 26.528C414.067 26.0853 413.766 25.736 413.377 25.48C412.993 25.2187 412.539 25.088 412.016 25.088C411.489 25.088 411.009 25.2187 410.577 25.48C410.145 25.7413 409.801 26.0933 409.545 26.536C409.294 26.9733 409.169 27.4613 409.169 28C409.169 28.5387 409.299 29.0293 409.561 29.472C409.822 29.9093 410.169 30.2587 410.601 30.52C411.033 30.776 411.505 30.904 412.016 30.904ZM424.72 27.024V32H423.376V27.32C423.376 26.9147 423.277 26.5467 423.08 26.216C422.882 25.8853 422.618 25.624 422.288 25.432C421.957 25.2347 421.589 25.136 421.184 25.136C420.784 25.136 420.416 25.2347 420.08 25.432C419.749 25.624 419.485 25.8853 419.288 26.216C419.09 26.5467 418.992 26.9147 418.992 27.32V32H417.648V24H418.992V25C419.274 24.6267 419.632 24.3307 420.064 24.112C420.496 23.888 420.965 23.776 421.472 23.776C422.069 23.776 422.613 23.9227 423.104 24.216C423.6 24.504 423.992 24.8933 424.28 25.384C424.573 25.8747 424.72 26.4213 424.72 27.024ZM426.319 26.528H431.439V27.872H426.319V26.528ZM435.182 22.024V24H437.526V25.344H435.182V32H433.838V25.344H432.806V24H433.838V22.024C433.838 21.6133 433.937 21.2427 434.134 20.912C434.337 20.576 434.606 20.3093 434.942 20.112C435.284 19.9093 435.657 19.808 436.062 19.808C436.361 19.808 436.652 19.8693 436.934 19.992C437.217 20.1093 437.468 20.2853 437.686 20.52L436.726 21.472C436.652 21.3707 436.553 21.2933 436.43 21.24C436.313 21.1813 436.19 21.152 436.062 21.152C435.822 21.152 435.614 21.2373 435.438 21.408C435.268 21.5787 435.182 21.784 435.182 22.024ZM445.08 24H446.424V32H445.08L445.024 30.648C444.773 31.112 444.426 31.488 443.984 31.776C443.546 32.064 443.024 32.208 442.416 32.208C441.829 32.208 441.28 32.0987 440.768 31.88C440.256 31.656 439.802 31.3493 439.408 30.96C439.018 30.5653 438.714 30.112 438.496 29.6C438.277 29.088 438.168 28.536 438.168 27.944C438.168 27.3733 438.274 26.8347 438.488 26.328C438.701 25.8213 438.997 25.3787 439.376 25C439.76 24.616 440.202 24.3173 440.704 24.104C441.205 23.8853 441.744 23.776 442.32 23.776C442.949 23.776 443.501 23.9253 443.976 24.224C444.45 24.5173 444.834 24.8987 445.128 25.368L445.08 24ZM442.391 30.904C442.92 30.904 443.376 30.776 443.76 30.52C444.149 30.2587 444.448 29.9067 444.656 29.464C444.869 29.0213 444.976 28.5333 444.976 28C444.976 27.456 444.869 26.9653 444.656 26.528C444.442 26.0853 444.141 25.736 443.752 25.48C443.368 25.2187 442.914 25.088 442.391 25.088C441.864 25.088 441.384 25.2187 440.952 25.48C440.52 25.7413 440.176 26.0933 439.92 26.536C439.669 26.9733 439.544 27.4613 439.544 28C439.544 28.5387 439.674 29.0293 439.936 29.472C440.197 29.9093 440.544 30.2587 440.976 30.52C441.408 30.776 441.88 30.904 442.391 30.904ZM453.378 29.888L454.578 30.536C454.216 31.0427 453.754 31.448 453.194 31.752C452.64 32.056 452.037 32.208 451.386 32.208C450.65 32.208 449.978 32.0187 449.37 31.64C448.768 31.2613 448.285 30.7547 447.922 30.12C447.565 29.48 447.386 28.7733 447.386 28C447.386 27.4133 447.49 26.8667 447.698 26.36C447.906 25.848 448.192 25.4 448.554 25.016C448.922 24.6267 449.349 24.3227 449.834 24.104C450.32 23.8853 450.837 23.776 451.386 23.776C452.037 23.776 452.64 23.928 453.194 24.232C453.754 24.536 454.216 24.944 454.578 25.456L453.378 26.104C453.122 25.7893 452.818 25.5467 452.466 25.376C452.114 25.2053 451.754 25.12 451.386 25.12C450.89 25.12 450.44 25.2533 450.034 25.52C449.634 25.7813 449.317 26.1307 449.082 26.568C448.848 27.0053 448.73 27.4827 448.73 28C448.73 28.5173 448.848 28.9947 449.082 29.432C449.322 29.864 449.642 30.2107 450.042 30.472C450.448 30.7333 450.896 30.864 451.386 30.864C451.781 30.864 452.152 30.7733 452.498 30.592C452.845 30.4107 453.138 30.176 453.378 29.888ZM455.835 24H457.179V32H455.835V24ZM456.523 22.696C456.31 22.696 456.131 22.6267 455.987 22.488C455.843 22.3493 455.771 22.176 455.771 21.968C455.771 21.76 455.843 21.5867 455.987 21.448C456.131 21.3093 456.307 21.24 456.515 21.24C456.723 21.24 456.899 21.3093 457.043 21.448C457.187 21.5867 457.259 21.76 457.259 21.968C457.259 22.176 457.187 22.3493 457.043 22.488C456.904 22.6267 456.731 22.696 456.523 22.696ZM466.141 27.024V32H464.797V27.32C464.797 26.9147 464.699 26.5467 464.501 26.216C464.304 25.8853 464.04 25.624 463.709 25.432C463.379 25.2347 463.011 25.136 462.605 25.136C462.205 25.136 461.837 25.2347 461.501 25.432C461.171 25.624 460.907 25.8853 460.709 26.216C460.512 26.5467 460.413 26.9147 460.413 27.32V32H459.069V24H460.413V25C460.696 24.6267 461.053 24.3307 461.485 24.112C461.917 23.888 462.387 23.776 462.893 23.776C463.491 23.776 464.035 23.9227 464.525 24.216C465.021 24.504 465.413 24.8933 465.701 25.384C465.995 25.8747 466.141 26.4213 466.141 27.024ZM473.833 24H475.177V32.256C475.177 32.784 475.062 33.2747 474.833 33.728C474.609 34.1867 474.305 34.584 473.921 34.92C473.537 35.2613 473.1 35.5253 472.609 35.712C472.118 35.904 471.606 36 471.073 36C470.518 36 469.982 35.8747 469.465 35.624C468.948 35.3787 468.494 35.048 468.105 34.632C467.721 34.2213 467.444 33.76 467.273 33.248L468.505 32.688C468.606 33.056 468.788 33.3867 469.049 33.68C469.316 33.9787 469.625 34.2133 469.977 34.384C470.334 34.56 470.7 34.648 471.073 34.648C471.425 34.648 471.764 34.5867 472.089 34.464C472.42 34.3413 472.716 34.1707 472.977 33.952C473.244 33.7387 473.452 33.4853 473.601 33.192C473.756 32.904 473.833 32.592 473.833 32.256V30.664C473.561 31.1227 473.201 31.496 472.753 31.784C472.31 32.0667 471.793 32.208 471.201 32.208C470.636 32.208 470.105 32.0987 469.609 31.88C469.113 31.6613 468.678 31.36 468.305 30.976C467.932 30.5867 467.638 30.1387 467.425 29.632C467.212 29.1253 467.105 28.5813 467.105 28C467.105 27.4187 467.212 26.8747 467.425 26.368C467.638 25.856 467.932 25.408 468.305 25.024C468.678 24.6347 469.113 24.3307 469.609 24.112C470.105 23.8933 470.636 23.784 471.201 23.784C471.793 23.784 472.31 23.9253 472.753 24.208C473.201 24.4907 473.561 24.864 473.833 25.328V24ZM471.209 30.904C471.726 30.904 472.174 30.7707 472.553 30.504C472.937 30.2373 473.233 29.8827 473.441 29.44C473.649 28.9973 473.753 28.5173 473.753 28C473.753 27.4667 473.646 26.9813 473.433 26.544C473.225 26.1013 472.929 25.7493 472.545 25.488C472.166 25.2213 471.721 25.088 471.209 25.088C470.708 25.088 470.249 25.2187 469.833 25.48C469.417 25.7413 469.086 26.0933 468.841 26.536C468.601 26.9733 468.481 27.4613 468.481 28C468.481 28.5387 468.604 29.0293 468.849 29.472C469.1 29.9093 469.43 30.2587 469.841 30.52C470.257 30.776 470.713 30.904 471.209 30.904ZM51.008 47.776C51.7867 47.776 52.4933 47.9653 53.128 48.344C53.768 48.7227 54.2773 49.232 54.656 49.872C55.0347 50.5067 55.224 51.2133 55.224 51.992C55.224 52.5733 55.1147 53.12 54.896 53.632C54.6773 54.1387 54.3733 54.5867 53.984 54.976C53.6 55.36 53.152 55.6613 52.64 55.88C52.1333 56.0987 51.5893 56.208 51.008 56.208C50.3893 56.208 49.8507 56.064 49.392 55.776C48.9387 55.4827 48.576 55.1013 48.304 54.632V56H46.96V44H48.304V49.352C48.576 48.8827 48.9387 48.504 49.392 48.216C49.8507 47.9227 50.3893 47.776 51.008 47.776ZM50.992 54.896C51.52 54.896 52 54.7653 52.432 54.504C52.864 54.2427 53.208 53.8933 53.464 53.456C53.72 53.0133 53.848 52.5253 53.848 51.992C53.848 51.448 53.7173 50.9573 53.456 50.52C53.1947 50.0773 52.848 49.728 52.416 49.472C51.984 49.2107 51.5093 49.08 50.992 49.08C50.4693 49.08 50.0133 49.2107 49.624 49.472C49.24 49.7333 48.9413 50.0853 48.728 50.528C48.52 50.9707 48.416 51.4587 48.416 51.992C48.416 52.5307 48.52 53.0213 48.728 53.464C48.9413 53.9013 49.2427 54.2507 49.632 54.512C50.0213 54.768 50.4747 54.896 50.992 54.896ZM62.9389 48H64.2829V56H62.9389L62.8829 54.648C62.6322 55.112 62.2855 55.488 61.8429 55.776C61.4055 56.064 60.8829 56.208 60.2749 56.208C59.6882 56.208 59.1389 56.0987 58.6269 55.88C58.1149 55.656 57.6615 55.3493 57.2669 54.96C56.8775 54.5653 56.5735 54.112 56.3549 53.6C56.1362 53.088 56.0269 52.536 56.0269 51.944C56.0269 51.3733 56.1335 50.8347 56.3469 50.328C56.5602 49.8213 56.8562 49.3787 57.2349 49C57.6189 48.616 58.0615 48.3173 58.5629 48.104C59.0642 47.8853 59.6029 47.776 60.1789 47.776C60.8082 47.776 61.3602 47.9253 61.8349 48.224C62.3095 48.5173 62.6935 48.8987 62.9869 49.368L62.9389 48ZM60.2509 54.904C60.7789 54.904 61.2349 54.776 61.6189 54.52C62.0082 54.2587 62.3069 53.9067 62.5149 53.464C62.7282 53.0213 62.8349 52.5333 62.8349 52C62.8349 51.456 62.7282 50.9653 62.5149 50.528C62.3015 50.0853 62.0002 49.736 61.6109 49.48C61.2269 49.2187 60.7735 49.088 60.2509 49.088C59.7229 49.088 59.2429 49.2187 58.8109 49.48C58.3789 49.7413 58.0349 50.0933 57.7789 50.536C57.5282 50.9733 57.4029 51.4613 57.4029 52C57.4029 52.5387 57.5335 53.0293 57.7949 53.472C58.0562 53.9093 58.4029 54.2587 58.8349 54.52C59.2669 54.776 59.7389 54.904 60.2509 54.904ZM65.9756 56V44H67.3196V56H65.9756ZM74.6751 53.888L75.8751 54.536C75.5125 55.0427 75.0511 55.448 74.4911 55.752C73.9365 56.056 73.3338 56.208 72.6831 56.208C71.9471 56.208 71.2751 56.0187 70.6671 55.64C70.0645 55.2613 69.5818 54.7547 69.2191 54.12C68.8618 53.48 68.6831 52.7733 68.6831 52C68.6831 51.4133 68.7871 50.8667 68.9951 50.36C69.2031 49.848 69.4885 49.4 69.8511 49.016C70.2191 48.6267 70.6458 48.3227 71.1311 48.104C71.6165 47.8853 72.1338 47.776 72.6831 47.776C73.3338 47.776 73.9365 47.928 74.4911 48.232C75.0511 48.536 75.5125 48.944 75.8751 49.456L74.6751 50.104C74.4191 49.7893 74.1151 49.5467 73.7631 49.376C73.4111 49.2053 73.0511 49.12 72.6831 49.12C72.1871 49.12 71.7365 49.2533 71.3311 49.52C70.9311 49.7813 70.6138 50.1307 70.3791 50.568C70.1445 51.0053 70.0271 51.4827 70.0271 52C70.0271 52.5173 70.1445 52.9947 70.3791 53.432C70.6191 53.864 70.9391 54.2107 71.3391 54.472C71.7445 54.7333 72.1925 54.864 72.6831 54.864C73.0778 54.864 73.4485 54.7733 73.7951 54.592C74.1418 54.4107 74.4351 54.176 74.6751 53.888ZM80.6988 56.208C79.9628 56.208 79.2908 56.0187 78.6828 55.64C78.0801 55.2613 77.5974 54.7547 77.2348 54.12C76.8774 53.48 76.6988 52.7733 76.6988 52C76.6988 51.4133 76.8028 50.8667 77.0108 50.36C77.2188 49.848 77.5041 49.4 77.8668 49.016C78.2348 48.6267 78.6614 48.3227 79.1468 48.104C79.6321 47.8853 80.1494 47.776 80.6988 47.776C81.4348 47.776 82.1041 47.9653 82.7068 48.344C83.3148 48.7227 83.7974 49.232 84.1548 49.872C84.5174 50.512 84.6988 51.2213 84.6988 52C84.6988 52.5813 84.5948 53.1253 84.3868 53.632C84.1788 54.1387 83.8908 54.5867 83.5228 54.976C83.1601 55.36 82.7361 55.6613 82.2508 55.88C81.7708 56.0987 81.2534 56.208 80.6988 56.208ZM80.6988 54.864C81.2001 54.864 81.6508 54.7333 82.0508 54.472C82.4561 54.2053 82.7734 53.856 83.0028 53.424C83.2374 52.9867 83.3548 52.512 83.3548 52C83.3548 51.4773 83.2348 50.9973 82.9948 50.56C82.7601 50.1227 82.4428 49.7733 82.0428 49.512C81.6428 49.2507 81.1948 49.12 80.6988 49.12C80.1974 49.12 79.7468 49.2533 79.3468 49.52C78.9468 49.7813 78.6294 50.1307 78.3948 50.568C78.1601 51.0053 78.0428 51.4827 78.0428 52C78.0428 52.5333 78.1628 53.0187 78.4028 53.456C78.6428 53.888 78.9654 54.232 79.3708 54.488C79.7761 54.7387 80.2188 54.864 80.6988 54.864ZM93.0945 51.024V56H91.7505V51.32C91.7505 50.9147 91.6518 50.5467 91.4545 50.216C91.2572 49.8853 90.9932 49.624 90.6625 49.432C90.3318 49.2347 89.9638 49.136 89.5585 49.136C89.1585 49.136 88.7905 49.2347 88.4545 49.432C88.1238 49.624 87.8598 49.8853 87.6625 50.216C87.4652 50.5467 87.3665 50.9147 87.3665 51.32V56H86.0225V48H87.3665V49C87.6492 48.6267 88.0065 48.3307 88.4385 48.112C88.8705 47.888 89.3398 47.776 89.8465 47.776C90.4438 47.776 90.9878 47.9227 91.4785 48.216C91.9745 48.504 92.3665 48.8933 92.6545 49.384C92.9478 49.8747 93.0945 50.4213 93.0945 51.024ZM99.9244 48H101.348L96.9724 60H95.5484L96.9964 56L94.1244 48H95.5964L97.6684 54.152L99.9244 48Z" fill="#999999"></path><defs><linearGradient id="paint0_linear_166_862" x1="-3.42044e-06" y1="37.1915" x2="550" y2="37.1915" gradientUnits="userSpaceOnUse"><stop stop-color="#1A1A1A"></stop><stop offset="1" stop-color="#1A1A1A" stop-opacity="0"></stop></linearGradient></defs></svg>