<svg xmlns="http://www.w3.org/2000/svg" width="455" height="212" viewBox="0 0 455 212" fill="none"><rect x="0.5" y="0.5" width="454" height="211" rx="11.5" fill="#1A1A1A"></rect><rect x="0.5" y="0.5" width="454" height="211" rx="11.5" stroke="#262626"></rect><rect x="187" y="40.5" width="81" height="81" rx="40.5" stroke="url(#paint0_linear_134_6222)"></rect><rect x="187" y="40.5" width="81" height="81" rx="40.5" stroke="url(#paint1_linear_134_6222)"></rect><rect x="197" y="50.5" width="61" height="61" rx="30.5" stroke="url(#paint2_linear_134_6222)"></rect><rect x="197" y="50.5" width="61" height="61" rx="30.5" stroke="url(#paint3_linear_134_6222)"></rect><path fill-rule="evenodd" clip-rule="evenodd" d="M212.199 68.675C212.199 67.9709 212.77 67.4 213.474 67.4H231.324C232.028 67.4 232.599 67.9709 232.599 68.675C232.599 69.3792 232.028 69.95 231.324 69.95H230.899V93.325C230.899 94.0292 230.328 94.6 229.624 94.6H227.074C226.37 94.6 225.799 94.0292 225.799 93.325V89.075C225.799 88.3709 225.228 87.8 224.524 87.8H220.274C219.57 87.8 218.999 88.3709 218.999 89.075V93.325C218.999 94.0292 218.428 94.6 217.724 94.6H213.474C212.77 94.6 212.199 94.0292 212.199 93.325C212.199 92.6209 212.77 92.05 213.474 92.05H213.899V69.95H213.474C212.77 69.95 212.199 69.3792 212.199 68.675ZM217.299 73.35C217.299 72.8806 217.68 72.5 218.149 72.5H219.849C220.319 72.5 220.699 72.8806 220.699 73.35V75.05C220.699 75.5195 220.319 75.9 219.849 75.9H218.149C217.68 75.9 217.299 75.5195 217.299 75.05V73.35ZM218.149 79.3C217.68 79.3 217.299 79.6806 217.299 80.15V81.85C217.299 82.3195 217.68 82.7 218.149 82.7H219.849C220.319 82.7 220.699 82.3195 220.699 81.85V80.15C220.699 79.6806 220.319 79.3 219.849 79.3H218.149ZM224.099 73.35C224.099 72.8806 224.48 72.5 224.949 72.5H226.649C227.119 72.5 227.499 72.8806 227.499 73.35V75.05C227.499 75.5195 227.119 75.9 226.649 75.9H224.949C224.48 75.9 224.099 75.5195 224.099 75.05V73.35ZM224.949 79.3C224.48 79.3 224.099 79.6806 224.099 80.15V81.85C224.099 82.3195 224.48 82.7 224.949 82.7H226.649C227.119 82.7 227.499 82.3195 227.499 81.85V80.15C227.499 79.6806 227.119 79.3 226.649 79.3H224.949Z" fill="#A685FA"></path><path fill-rule="evenodd" clip-rule="evenodd" d="M234.724 74.2C234.02 74.2 233.449 74.7709 233.449 75.475V92.9C233.449 93.8389 234.21 94.6 235.149 94.6H241.524C242.228 94.6 242.799 94.0292 242.799 93.325C242.799 92.6209 242.228 92.05 241.524 92.05H241.099V76.75H241.524C242.228 76.75 242.799 76.1792 242.799 75.475C242.799 74.7709 242.228 74.2 241.524 74.2H234.724ZM235.574 80.15C235.574 79.6806 235.955 79.3 236.424 79.3H238.124C238.594 79.3 238.974 79.6806 238.974 80.15V81.85C238.974 82.3195 238.594 82.7 238.124 82.7H236.424C235.955 82.7 235.574 82.3195 235.574 81.85V80.15ZM236.424 86.1C235.955 86.1 235.574 86.4806 235.574 86.95V88.65C235.574 89.1195 235.955 89.5 236.424 89.5H238.124C238.594 89.5 238.974 89.1195 238.974 88.65V86.95C238.974 86.4806 238.594 86.1 238.124 86.1H236.424Z" fill="#A685FA"></path><path d="M83.2898 164V150H91.9798V152.08H85.3698V155.46H90.6898V157.54H85.3698V161.92H91.9798V164H83.2898ZM96.7583 151.73V154H99.5783V156.08H96.7583V164H94.6783V156.08H93.4883V154H94.6783V151.73C94.6783 151.183 94.8116 150.687 95.0783 150.24C95.3449 149.787 95.7016 149.427 96.1483 149.16C96.6016 148.893 97.1049 148.76 97.6583 148.76C98.0583 148.76 98.4483 148.84 98.8283 149C99.2083 149.16 99.5483 149.407 99.8483 149.74L98.3583 151.21C98.2849 151.09 98.1816 151 98.0483 150.94C97.9216 150.873 97.7916 150.84 97.6583 150.84C97.4116 150.84 97.1983 150.927 97.0183 151.1C96.8449 151.273 96.7583 151.483 96.7583 151.73ZM103.985 151.73V154H106.805V156.08H103.985V164H101.905V156.08H100.715V154H101.905V151.73C101.905 151.183 102.038 150.687 102.305 150.24C102.572 149.787 102.928 149.427 103.375 149.16C103.828 148.893 104.332 148.76 104.885 148.76C105.285 148.76 105.675 148.84 106.055 149C106.435 149.16 106.775 149.407 107.075 149.74L105.585 151.21C105.512 151.09 105.408 151 105.275 150.94C105.148 150.873 105.018 150.84 104.885 150.84C104.638 150.84 104.425 150.927 104.245 151.1C104.072 151.273 103.985 151.483 103.985 151.73ZM112.631 164.26C111.711 164.26 110.871 164.023 110.111 163.55C109.358 163.077 108.755 162.443 108.301 161.65C107.855 160.85 107.631 159.967 107.631 159C107.631 158.267 107.761 157.583 108.021 156.95C108.281 156.31 108.638 155.75 109.091 155.27C109.551 154.783 110.085 154.403 110.691 154.13C111.298 153.857 111.945 153.72 112.631 153.72C113.551 153.72 114.388 153.957 115.141 154.43C115.901 154.903 116.505 155.54 116.951 156.34C117.405 157.14 117.631 158.027 117.631 159C117.631 159.727 117.501 160.407 117.241 161.04C116.981 161.673 116.621 162.233 116.161 162.72C115.708 163.2 115.178 163.577 114.571 163.85C113.971 164.123 113.325 164.26 112.631 164.26ZM112.631 162.18C113.185 162.18 113.681 162.033 114.121 161.74C114.561 161.447 114.908 161.06 115.161 160.58C115.421 160.093 115.551 159.567 115.551 159C115.551 158.42 115.418 157.887 115.151 157.4C114.891 156.913 114.541 156.527 114.101 156.24C113.661 155.947 113.171 155.8 112.631 155.8C112.085 155.8 111.588 155.947 111.141 156.24C110.701 156.533 110.351 156.923 110.091 157.41C109.838 157.897 109.711 158.427 109.711 159C109.711 159.593 109.845 160.13 110.111 160.61C110.378 161.09 110.731 161.473 111.171 161.76C111.618 162.04 112.105 162.18 112.631 162.18ZM119.247 164V154H121.327V155.06C121.674 154.647 122.1 154.32 122.607 154.08C123.114 153.84 123.66 153.72 124.247 153.72C124.62 153.72 124.99 153.77 125.357 153.87L124.527 155.97C124.267 155.87 124.007 155.82 123.747 155.82C123.307 155.82 122.904 155.93 122.537 156.15C122.17 156.363 121.877 156.653 121.657 157.02C121.437 157.387 121.327 157.793 121.327 158.24V164H119.247ZM132.046 156.08H129.946L129.936 164H127.856L127.866 156.08H126.276V154H127.866L127.856 150.86H129.936L129.946 154H132.046V156.08ZM133.837 164V149H135.917V164H133.837ZM142.573 164.26C141.653 164.26 140.813 164.023 140.053 163.55C139.299 163.077 138.696 162.443 138.243 161.65C137.796 160.85 137.573 159.967 137.573 159C137.573 158.267 137.703 157.583 137.963 156.95C138.223 156.31 138.579 155.75 139.033 155.27C139.493 154.783 140.026 154.403 140.633 154.13C141.239 153.857 141.886 153.72 142.573 153.72C143.339 153.72 144.043 153.88 144.683 154.2C145.323 154.513 145.869 154.95 146.323 155.51C146.776 156.063 147.109 156.703 147.323 157.43C147.536 158.15 147.599 158.917 147.513 159.73H139.803C139.889 160.19 140.056 160.607 140.303 160.98C140.556 161.347 140.876 161.637 141.263 161.85C141.656 162.063 142.093 162.173 142.573 162.18C143.079 162.18 143.539 162.053 143.953 161.8C144.373 161.547 144.716 161.197 144.983 160.75L147.093 161.24C146.693 162.127 146.089 162.853 145.283 163.42C144.476 163.98 143.573 164.26 142.573 164.26ZM139.733 158.14H145.413C145.346 157.66 145.176 157.227 144.903 156.84C144.636 156.447 144.299 156.137 143.893 155.91C143.493 155.677 143.053 155.56 142.573 155.56C142.099 155.56 141.659 155.673 141.253 155.9C140.853 156.127 140.519 156.437 140.253 156.83C139.993 157.217 139.819 157.653 139.733 158.14ZM152.208 164.19C151.681 164.157 151.168 164.05 150.668 163.87C150.168 163.69 149.728 163.447 149.348 163.14C148.974 162.827 148.694 162.46 148.508 162.04L150.278 161.28C150.364 161.46 150.514 161.637 150.728 161.81C150.948 161.983 151.204 162.127 151.498 162.24C151.791 162.347 152.098 162.4 152.418 162.4C152.731 162.4 153.021 162.357 153.288 162.27C153.561 162.177 153.784 162.037 153.958 161.85C154.131 161.663 154.218 161.44 154.218 161.18C154.218 160.887 154.118 160.66 153.918 160.5C153.724 160.333 153.481 160.207 153.188 160.12C152.894 160.033 152.601 159.95 152.308 159.87C151.654 159.723 151.054 159.523 150.508 159.27C149.968 159.01 149.538 158.68 149.218 158.28C148.898 157.873 148.738 157.377 148.738 156.79C148.738 156.15 148.911 155.597 149.258 155.13C149.604 154.657 150.058 154.293 150.618 154.04C151.184 153.787 151.788 153.66 152.428 153.66C153.228 153.66 153.961 153.83 154.628 154.17C155.294 154.51 155.804 154.977 156.158 155.57L154.508 156.55C154.408 156.35 154.258 156.17 154.058 156.01C153.858 155.85 153.631 155.723 153.378 155.63C153.124 155.53 152.861 155.473 152.588 155.46C152.248 155.447 151.931 155.487 151.638 155.58C151.351 155.667 151.121 155.807 150.948 156C150.774 156.193 150.688 156.44 150.688 156.74C150.688 157.033 150.791 157.253 150.998 157.4C151.204 157.54 151.464 157.653 151.778 157.74C152.098 157.827 152.424 157.923 152.758 158.03C153.351 158.217 153.908 158.447 154.428 158.72C154.948 158.987 155.368 159.317 155.688 159.71C156.008 160.103 156.161 160.583 156.148 161.15C156.148 161.777 155.958 162.327 155.578 162.8C155.204 163.273 154.718 163.633 154.118 163.88C153.518 164.127 152.881 164.23 152.208 164.19ZM160.86 164.19C160.333 164.157 159.82 164.05 159.32 163.87C158.82 163.69 158.38 163.447 158 163.14C157.627 162.827 157.347 162.46 157.16 162.04L158.93 161.28C159.017 161.46 159.167 161.637 159.38 161.81C159.6 161.983 159.857 162.127 160.15 162.24C160.443 162.347 160.75 162.4 161.07 162.4C161.383 162.4 161.673 162.357 161.94 162.27C162.213 162.177 162.437 162.037 162.61 161.85C162.783 161.663 162.87 161.44 162.87 161.18C162.87 160.887 162.77 160.66 162.57 160.5C162.377 160.333 162.133 160.207 161.84 160.12C161.547 160.033 161.253 159.95 160.96 159.87C160.307 159.723 159.707 159.523 159.16 159.27C158.62 159.01 158.19 158.68 157.87 158.28C157.55 157.873 157.39 157.377 157.39 156.79C157.39 156.15 157.563 155.597 157.91 155.13C158.257 154.657 158.71 154.293 159.27 154.04C159.837 153.787 160.44 153.66 161.08 153.66C161.88 153.66 162.613 153.83 163.28 154.17C163.947 154.51 164.457 154.977 164.81 155.57L163.16 156.55C163.06 156.35 162.91 156.17 162.71 156.01C162.51 155.85 162.283 155.723 162.03 155.63C161.777 155.53 161.513 155.473 161.24 155.46C160.9 155.447 160.583 155.487 160.29 155.58C160.003 155.667 159.773 155.807 159.6 156C159.427 156.193 159.34 156.44 159.34 156.74C159.34 157.033 159.443 157.253 159.65 157.4C159.857 157.54 160.117 157.653 160.43 157.74C160.75 157.827 161.077 157.923 161.41 158.03C162.003 158.217 162.56 158.447 163.08 158.72C163.6 158.987 164.02 159.317 164.34 159.71C164.66 160.103 164.813 160.583 164.8 161.15C164.8 161.777 164.61 162.327 164.23 162.8C163.857 163.273 163.37 163.633 162.77 163.88C162.17 164.127 161.533 164.23 160.86 164.19ZM171.317 164V150H176.137C176.891 150 177.571 150.187 178.177 150.56C178.791 150.933 179.277 151.437 179.637 152.07C180.004 152.703 180.187 153.403 180.187 154.17C180.187 154.95 180.001 155.657 179.627 156.29C179.261 156.917 178.771 157.417 178.157 157.79C177.544 158.163 176.871 158.35 176.137 158.35H173.397V164H171.317ZM173.397 156.27H175.927C176.327 156.27 176.691 156.17 177.017 155.97C177.351 155.77 177.614 155.503 177.807 155.17C178.007 154.837 178.107 154.46 178.107 154.04C178.107 153.62 178.007 153.243 177.807 152.91C177.614 152.57 177.351 152.303 177.017 152.11C176.691 151.91 176.327 151.81 175.927 151.81H173.397V156.27ZM181.825 164V154H183.905V155.06C184.252 154.647 184.678 154.32 185.185 154.08C185.692 153.84 186.238 153.72 186.825 153.72C187.198 153.72 187.568 153.77 187.935 153.87L187.105 155.97C186.845 155.87 186.585 155.82 186.325 155.82C185.885 155.82 185.482 155.93 185.115 156.15C184.748 156.363 184.455 156.653 184.235 157.02C184.015 157.387 183.905 157.793 183.905 158.24V164H181.825ZM193.022 164.26C192.102 164.26 191.262 164.023 190.502 163.55C189.749 163.077 189.145 162.443 188.692 161.65C188.245 160.85 188.022 159.967 188.022 159C188.022 158.267 188.152 157.583 188.412 156.95C188.672 156.31 189.029 155.75 189.482 155.27C189.942 154.783 190.475 154.403 191.082 154.13C191.689 153.857 192.335 153.72 193.022 153.72C193.942 153.72 194.779 153.957 195.532 154.43C196.292 154.903 196.895 155.54 197.342 156.34C197.795 157.14 198.022 158.027 198.022 159C198.022 159.727 197.892 160.407 197.632 161.04C197.372 161.673 197.012 162.233 196.552 162.72C196.099 163.2 195.569 163.577 194.962 163.85C194.362 164.123 193.715 164.26 193.022 164.26ZM193.022 162.18C193.575 162.18 194.072 162.033 194.512 161.74C194.952 161.447 195.299 161.06 195.552 160.58C195.812 160.093 195.942 159.567 195.942 159C195.942 158.42 195.809 157.887 195.542 157.4C195.282 156.913 194.932 156.527 194.492 156.24C194.052 155.947 193.562 155.8 193.022 155.8C192.475 155.8 191.979 155.947 191.532 156.24C191.092 156.533 190.742 156.923 190.482 157.41C190.229 157.897 190.102 158.427 190.102 159C190.102 159.593 190.235 160.13 190.502 160.61C190.769 161.09 191.122 161.473 191.562 161.76C192.009 162.04 192.495 162.18 193.022 162.18ZM201.718 169H199.638V154H201.718V155.47C202.051 154.957 202.478 154.54 202.998 154.22C203.518 153.9 204.131 153.74 204.838 153.74C205.564 153.74 206.244 153.877 206.878 154.15C207.518 154.423 208.078 154.803 208.558 155.29C209.038 155.77 209.414 156.327 209.688 156.96C209.961 157.593 210.098 158.273 210.098 159C210.098 159.727 209.961 160.41 209.688 161.05C209.414 161.69 209.038 162.253 208.558 162.74C208.078 163.22 207.518 163.597 206.878 163.87C206.244 164.143 205.564 164.28 204.838 164.28C204.131 164.28 203.518 164.12 202.998 163.8C202.478 163.473 202.051 163.057 201.718 162.55V169ZM204.818 155.75C204.238 155.75 203.728 155.897 203.288 156.19C202.848 156.483 202.504 156.877 202.258 157.37C202.011 157.857 201.888 158.4 201.888 159C201.888 159.6 202.011 160.147 202.258 160.64C202.504 161.133 202.848 161.527 203.288 161.82C203.728 162.113 204.238 162.26 204.818 162.26C205.391 162.26 205.918 162.117 206.398 161.83C206.878 161.537 207.261 161.143 207.548 160.65C207.834 160.157 207.978 159.607 207.978 159C207.978 158.407 207.834 157.863 207.548 157.37C207.268 156.877 206.888 156.483 206.408 156.19C205.928 155.897 205.398 155.75 204.818 155.75ZM216.108 164.26C215.188 164.26 214.348 164.023 213.588 163.55C212.834 163.077 212.231 162.443 211.778 161.65C211.331 160.85 211.108 159.967 211.108 159C211.108 158.267 211.238 157.583 211.498 156.95C211.758 156.31 212.114 155.75 212.568 155.27C213.028 154.783 213.561 154.403 214.168 154.13C214.774 153.857 215.421 153.72 216.108 153.72C216.874 153.72 217.578 153.88 218.218 154.2C218.858 154.513 219.404 154.95 219.858 155.51C220.311 156.063 220.644 156.703 220.858 157.43C221.071 158.15 221.134 158.917 221.048 159.73H213.338C213.424 160.19 213.591 160.607 213.838 160.98C214.091 161.347 214.411 161.637 214.798 161.85C215.191 162.063 215.628 162.173 216.108 162.18C216.614 162.18 217.074 162.053 217.488 161.8C217.908 161.547 218.251 161.197 218.518 160.75L220.628 161.24C220.228 162.127 219.624 162.853 218.818 163.42C218.011 163.98 217.108 164.26 216.108 164.26ZM213.268 158.14H218.948C218.881 157.66 218.711 157.227 218.438 156.84C218.171 156.447 217.834 156.137 217.428 155.91C217.028 155.677 216.588 155.56 216.108 155.56C215.634 155.56 215.194 155.673 214.788 155.9C214.388 156.127 214.054 156.437 213.788 156.83C213.528 157.217 213.354 157.653 213.268 158.14ZM222.704 164V154H224.784V155.06C225.131 154.647 225.557 154.32 226.064 154.08C226.571 153.84 227.117 153.72 227.704 153.72C228.077 153.72 228.447 153.77 228.814 153.87L227.984 155.97C227.724 155.87 227.464 155.82 227.204 155.82C226.764 155.82 226.361 155.93 225.994 156.15C225.627 156.363 225.334 156.653 225.114 157.02C224.894 157.387 224.784 157.793 224.784 158.24V164H222.704ZM235.503 156.08H233.403L233.393 164H231.313L231.323 156.08H229.733V154H231.323L231.313 150.86H233.393L233.403 154H235.503V156.08ZM243.831 154H246.051L240.571 169H238.361L240.171 164L236.581 154H238.851L241.211 161.15L243.831 154ZM252.86 164L255.57 150H257.25L260.84 159.43L264.41 150H266.09L268.81 164H266.69L264.88 154.63L261.53 163.47H260.13L256.79 154.63L254.98 164H252.86ZM278.023 154H280.103V164H278.013L277.933 162.55C277.64 163.063 277.243 163.477 276.743 163.79C276.243 164.103 275.653 164.26 274.973 164.26C274.24 164.26 273.55 164.123 272.903 163.85C272.256 163.57 271.686 163.183 271.193 162.69C270.706 162.197 270.326 161.63 270.053 160.99C269.78 160.343 269.643 159.65 269.643 158.91C269.643 158.197 269.776 157.527 270.043 156.9C270.31 156.267 270.68 155.713 271.153 155.24C271.626 154.767 272.173 154.397 272.793 154.13C273.42 153.857 274.09 153.72 274.803 153.72C275.53 153.72 276.17 153.887 276.723 154.22C277.283 154.547 277.746 154.967 278.113 155.48L278.023 154ZM274.923 162.25C275.51 162.25 276.023 162.107 276.463 161.82C276.903 161.527 277.243 161.133 277.483 160.64C277.73 160.147 277.853 159.6 277.853 159C277.853 158.393 277.73 157.843 277.483 157.35C277.236 156.857 276.893 156.467 276.453 156.18C276.02 155.887 275.51 155.74 274.923 155.74C274.343 155.74 273.813 155.887 273.333 156.18C272.853 156.473 272.473 156.867 272.193 157.36C271.913 157.853 271.773 158.4 271.773 159C271.773 159.607 271.916 160.157 272.203 160.65C272.496 161.137 272.88 161.527 273.353 161.82C273.833 162.107 274.356 162.25 274.923 162.25ZM291.098 157.73V164H289.018V158.24C289.018 157.793 288.908 157.387 288.688 157.02C288.475 156.653 288.185 156.363 287.818 156.15C287.458 155.93 287.052 155.82 286.598 155.82C286.158 155.82 285.755 155.93 285.388 156.15C285.022 156.363 284.728 156.653 284.508 157.02C284.288 157.387 284.178 157.793 284.178 158.24V164H282.098V154H284.178V155.06C284.525 154.647 284.952 154.32 285.458 154.08C285.965 153.84 286.512 153.72 287.098 153.72C287.838 153.72 288.512 153.9 289.118 154.26C289.725 154.62 290.205 155.103 290.558 155.71C290.918 156.317 291.098 156.99 291.098 157.73ZM300.679 154H302.759V164H300.669L300.589 162.55C300.296 163.063 299.899 163.477 299.399 163.79C298.899 164.103 298.309 164.26 297.629 164.26C296.896 164.26 296.206 164.123 295.559 163.85C294.913 163.57 294.343 163.183 293.849 162.69C293.363 162.197 292.983 161.63 292.709 160.99C292.436 160.343 292.299 159.65 292.299 158.91C292.299 158.197 292.433 157.527 292.699 156.9C292.966 156.267 293.336 155.713 293.809 155.24C294.283 154.767 294.829 154.397 295.449 154.13C296.076 153.857 296.746 153.72 297.459 153.72C298.186 153.72 298.826 153.887 299.379 154.22C299.939 154.547 300.403 154.967 300.769 155.48L300.679 154ZM297.579 162.25C298.166 162.25 298.679 162.107 299.119 161.82C299.559 161.527 299.899 161.133 300.139 160.64C300.386 160.147 300.509 159.6 300.509 159C300.509 158.393 300.386 157.843 300.139 157.35C299.893 156.857 299.549 156.467 299.109 156.18C298.676 155.887 298.166 155.74 297.579 155.74C296.999 155.74 296.469 155.887 295.989 156.18C295.509 156.473 295.129 156.867 294.849 157.36C294.569 157.853 294.429 158.4 294.429 159C294.429 159.607 294.573 160.157 294.859 160.65C295.153 161.137 295.536 161.527 296.009 161.82C296.489 162.107 297.013 162.25 297.579 162.25ZM312.169 154H314.249V164.26C314.249 164.947 314.103 165.58 313.809 166.16C313.523 166.74 313.133 167.24 312.639 167.66C312.146 168.087 311.579 168.417 310.939 168.65C310.306 168.883 309.643 169 308.949 169C308.249 169 307.576 168.85 306.929 168.55C306.283 168.257 305.713 167.857 305.219 167.35C304.733 166.843 304.369 166.27 304.129 165.63L306.039 164.77C306.173 165.183 306.386 165.55 306.679 165.87C306.979 166.19 307.326 166.443 307.719 166.63C308.119 166.817 308.529 166.91 308.949 166.91C309.363 166.91 309.759 166.843 310.139 166.71C310.526 166.583 310.869 166.403 311.169 166.17C311.476 165.937 311.719 165.657 311.899 165.33C312.079 165.003 312.169 164.647 312.169 164.26V162.57C311.843 163.077 311.423 163.487 310.909 163.8C310.396 164.107 309.799 164.26 309.119 164.26C308.413 164.26 307.746 164.123 307.119 163.85C306.493 163.577 305.943 163.2 305.469 162.72C304.996 162.233 304.626 161.673 304.359 161.04C304.093 160.407 303.959 159.727 303.959 159C303.959 158.273 304.093 157.593 304.359 156.96C304.626 156.32 304.996 155.76 305.469 155.28C305.943 154.793 306.493 154.413 307.119 154.14C307.746 153.867 308.413 153.73 309.119 153.73C309.799 153.73 310.396 153.887 310.909 154.2C311.423 154.507 311.843 154.917 312.169 155.43V154ZM309.139 162.25C309.719 162.25 310.226 162.103 310.659 161.81C311.093 161.51 311.429 161.113 311.669 160.62C311.909 160.127 312.029 159.587 312.029 159C312.029 158.4 311.906 157.857 311.659 157.37C311.419 156.877 311.083 156.483 310.649 156.19C310.216 155.89 309.713 155.74 309.139 155.74C308.579 155.74 308.066 155.887 307.599 156.18C307.139 156.473 306.773 156.867 306.499 157.36C306.226 157.853 306.089 158.4 306.089 159C306.089 159.6 306.226 160.147 306.499 160.64C306.779 161.133 307.149 161.527 307.609 161.82C308.076 162.107 308.586 162.25 309.139 162.25ZM320.873 164.26C319.953 164.26 319.113 164.023 318.353 163.55C317.6 163.077 316.997 162.443 316.543 161.65C316.097 160.85 315.873 159.967 315.873 159C315.873 158.267 316.003 157.583 316.263 156.95C316.523 156.31 316.88 155.75 317.333 155.27C317.793 154.783 318.327 154.403 318.933 154.13C319.54 153.857 320.187 153.72 320.873 153.72C321.64 153.72 322.343 153.88 322.983 154.2C323.623 154.513 324.17 154.95 324.623 155.51C325.077 156.063 325.41 156.703 325.623 157.43C325.837 158.15 325.9 158.917 325.813 159.73H318.103C318.19 160.19 318.357 160.607 318.603 160.98C318.857 161.347 319.177 161.637 319.563 161.85C319.957 162.063 320.393 162.173 320.873 162.18C321.38 162.18 321.84 162.053 322.253 161.8C322.673 161.547 323.017 161.197 323.283 160.75L325.393 161.24C324.993 162.127 324.39 162.853 323.583 163.42C322.777 163.98 321.873 164.26 320.873 164.26ZM318.033 158.14H323.713C323.647 157.66 323.477 157.227 323.203 156.84C322.937 156.447 322.6 156.137 322.193 155.91C321.793 155.677 321.353 155.56 320.873 155.56C320.4 155.56 319.96 155.673 319.553 155.9C319.153 156.127 318.82 156.437 318.553 156.83C318.293 157.217 318.12 157.653 318.033 158.14ZM327.47 164V154H329.55V155.06C329.896 154.647 330.32 154.32 330.82 154.08C331.326 153.84 331.873 153.72 332.46 153.72C333.173 153.72 333.83 153.893 334.43 154.24C335.03 154.58 335.506 155.033 335.86 155.6C336.213 155.033 336.683 154.58 337.27 154.24C337.863 153.893 338.516 153.72 339.23 153.72C339.97 153.72 340.643 153.9 341.25 154.26C341.856 154.62 342.34 155.103 342.7 155.71C343.06 156.317 343.24 156.99 343.24 157.73V164H341.16V158.26C341.16 157.82 341.053 157.417 340.84 157.05C340.626 156.683 340.34 156.387 339.98 156.16C339.62 155.933 339.22 155.82 338.78 155.82C338.34 155.82 337.94 155.927 337.58 156.14C337.22 156.353 336.933 156.643 336.72 157.01C336.506 157.377 336.4 157.793 336.4 158.26V164H334.32V158.26C334.32 157.793 334.213 157.377 334 157.01C333.786 156.643 333.496 156.353 333.13 156.14C332.77 155.927 332.37 155.82 331.93 155.82C331.496 155.82 331.096 155.933 330.73 156.16C330.37 156.387 330.083 156.683 329.87 157.05C329.656 157.417 329.55 157.82 329.55 158.26V164H327.47ZM349.448 164.26C348.528 164.26 347.688 164.023 346.928 163.55C346.174 163.077 345.571 162.443 345.118 161.65C344.671 160.85 344.448 159.967 344.448 159C344.448 158.267 344.578 157.583 344.838 156.95C345.098 156.31 345.454 155.75 345.908 155.27C346.368 154.783 346.901 154.403 347.508 154.13C348.114 153.857 348.761 153.72 349.448 153.72C350.214 153.72 350.918 153.88 351.558 154.2C352.198 154.513 352.744 154.95 353.198 155.51C353.651 156.063 353.984 156.703 354.198 157.43C354.411 158.15 354.474 158.917 354.388 159.73H346.678C346.764 160.19 346.931 160.607 347.178 160.98C347.431 161.347 347.751 161.637 348.138 161.85C348.531 162.063 348.968 162.173 349.448 162.18C349.954 162.18 350.414 162.053 350.828 161.8C351.248 161.547 351.591 161.197 351.858 160.75L353.968 161.24C353.568 162.127 352.964 162.853 352.158 163.42C351.351 163.98 350.448 164.26 349.448 164.26ZM346.608 158.14H352.288C352.221 157.66 352.051 157.227 351.778 156.84C351.511 156.447 351.174 156.137 350.768 155.91C350.368 155.677 349.928 155.56 349.448 155.56C348.974 155.56 348.534 155.673 348.128 155.9C347.728 156.127 347.394 156.437 347.128 156.83C346.868 157.217 346.694 157.653 346.608 158.14ZM365.044 157.73V164H362.964V158.24C362.964 157.793 362.854 157.387 362.634 157.02C362.42 156.653 362.13 156.363 361.764 156.15C361.404 155.93 360.997 155.82 360.544 155.82C360.104 155.82 359.7 155.93 359.334 156.15C358.967 156.363 358.674 156.653 358.454 157.02C358.234 157.387 358.124 157.793 358.124 158.24V164H356.044V154H358.124V155.06C358.47 154.647 358.897 154.32 359.404 154.08C359.91 153.84 360.457 153.72 361.044 153.72C361.784 153.72 362.457 153.9 363.064 154.26C363.67 154.62 364.15 155.103 364.504 155.71C364.864 156.317 365.044 156.99 365.044 157.73ZM372.32 156.08H370.22L370.21 164H368.13L368.14 156.08H366.55V154H368.14L368.13 150.86H370.21L370.22 154H372.32V156.08Z" fill="white"></path><path d="M407.375 47.625L428.625 26.375M428.625 26.375L412.687 26.375M428.625 26.375V42.3125" stroke="#4D4D4D" stroke-width="2" stroke-linecap="round" stroke-linejoin="round"></path><defs><linearGradient id="paint0_linear_134_6222" x1="193.25" y1="126.5" x2="272.25" y2="34.5" gradientUnits="userSpaceOnUse"><stop stop-color="#A685FA"></stop><stop offset="0.323723" stop-color="#A685FA" stop-opacity="0"></stop></linearGradient><linearGradient id="paint1_linear_134_6222" x1="268.25" y1="29.5" x2="193.25" y2="122" gradientUnits="userSpaceOnUse"><stop stop-color="#A685FA"></stop><stop offset="0.576615" stop-color="#A685FA" stop-opacity="0"></stop></linearGradient><linearGradient id="paint2_linear_134_6222" x1="189.75" y1="53.5" x2="258.25" y2="112" gradientUnits="userSpaceOnUse"><stop stop-color="#A685FA"></stop><stop offset="0.323723" stop-color="#A685FA" stop-opacity="0"></stop></linearGradient><linearGradient id="paint3_linear_134_6222" x1="270.75" y1="126" x2="198.75" y2="75" gradientUnits="userSpaceOnUse"><stop stop-color="#A685FA"></stop><stop offset="0.576615" stop-color="#A685FA" stop-opacity="0"></stop></linearGradient></defs></svg>