<svg xmlns="http://www.w3.org/2000/svg" width="884" height="216" viewBox="0 0 884 216" fill="none"><path d="M1.2 22L3.91 8H5.59L9.18 17.43L12.75 8H14.43L17.15 22H15.03L13.22 12.63L9.87 21.47H8.47L5.13 12.63L3.32 22H1.2ZM22.9828 22.26C22.0628 22.26 21.2228 22.0233 20.4628 21.55C19.7095 21.0767 19.1061 20.4433 18.6528 19.65C18.2061 18.85 17.9828 17.9667 17.9828 17C17.9828 16.2667 18.1128 15.5833 18.3728 14.95C18.6328 14.31 18.9895 13.75 19.4428 13.27C19.9028 12.7833 20.4361 12.4033 21.0428 12.13C21.6495 11.8567 22.2961 11.72 22.9828 11.72C23.7495 11.72 24.4528 11.88 25.0928 12.2C25.7328 12.5133 26.2795 12.95 26.7328 13.51C27.1861 14.0633 27.5195 14.7033 27.7328 15.43C27.9461 16.15 28.0095 16.9167 27.9228 17.73H20.2128C20.2995 18.19 20.4661 18.6067 20.7128 18.98C20.9661 19.3467 21.2861 19.6367 21.6728 19.85C22.0661 20.0633 22.5028 20.1733 22.9828 20.18C23.4895 20.18 23.9495 20.0533 24.3628 19.8C24.7828 19.5467 25.1261 19.1967 25.3928 18.75L27.5028 19.24C27.1028 20.1267 26.4995 20.8533 25.6928 21.42C24.8861 21.98 23.9828 22.26 22.9828 22.26ZM20.1428 16.14H25.8228C25.7561 15.66 25.5861 15.2267 25.3128 14.84C25.0461 14.4467 24.7095 14.1367 24.3028 13.91C23.9028 13.6767 23.4628 13.56 22.9828 13.56C22.5095 13.56 22.0695 13.6733 21.6628 13.9C21.2628 14.1267 20.9295 14.4367 20.6628 14.83C20.4028 15.2167 20.2295 15.6533 20.1428 16.14ZM32.618 22.19C32.0913 22.1567 31.578 22.05 31.078 21.87C30.578 21.69 30.138 21.4467 29.758 21.14C29.3846 20.8267 29.1046 20.46 28.918 20.04L30.688 19.28C30.7746 19.46 30.9246 19.6367 31.138 19.81C31.358 19.9833 31.6146 20.1267 31.908 20.24C32.2013 20.3467 32.508 20.4 32.828 20.4C33.1413 20.4 33.4313 20.3567 33.698 20.27C33.9713 20.1767 34.1946 20.0367 34.368 19.85C34.5413 19.6633 34.628 19.44 34.628 19.18C34.628 18.8867 34.528 18.66 34.328 18.5C34.1346 18.3333 33.8913 18.2067 33.598 18.12C33.3046 18.0333 33.0113 17.95 32.718 17.87C32.0646 17.7233 31.4646 17.5233 30.918 17.27C30.378 17.01 29.948 16.68 29.628 16.28C29.308 15.8733 29.148 15.3767 29.148 14.79C29.148 14.15 29.3213 13.5967 29.668 13.13C30.0146 12.6567 30.468 12.2933 31.028 12.04C31.5946 11.7867 32.198 11.66 32.838 11.66C33.638 11.66 34.3713 11.83 35.038 12.17C35.7046 12.51 36.2146 12.9767 36.568 13.57L34.918 14.55C34.818 14.35 34.668 14.17 34.468 14.01C34.268 13.85 34.0413 13.7233 33.788 13.63C33.5346 13.53 33.2713 13.4733 32.998 13.46C32.658 13.4467 32.3413 13.4867 32.048 13.58C31.7613 13.6667 31.5313 13.8067 31.358 14C31.1846 14.1933 31.098 14.44 31.098 14.74C31.098 15.0333 31.2013 15.2533 31.408 15.4C31.6146 15.54 31.8746 15.6533 32.188 15.74C32.508 15.8267 32.8346 15.9233 33.168 16.03C33.7613 16.2167 34.318 16.4467 34.838 16.72C35.358 16.9867 35.778 17.3167 36.098 17.71C36.418 18.1033 36.5713 18.5833 36.558 19.15C36.558 19.7767 36.368 20.3267 35.988 20.8C35.6146 21.2733 35.128 21.6333 34.528 21.88C33.928 22.1267 33.2913 22.23 32.618 22.19ZM41.2703 22.19C40.7436 22.1567 40.2303 22.05 39.7303 21.87C39.2303 21.69 38.7903 21.4467 38.4103 21.14C38.037 20.8267 37.757 20.46 37.5703 20.04L39.3403 19.28C39.427 19.46 39.577 19.6367 39.7903 19.81C40.0103 19.9833 40.267 20.1267 40.5603 20.24C40.8536 20.3467 41.1603 20.4 41.4803 20.4C41.7936 20.4 42.0836 20.3567 42.3503 20.27C42.6236 20.1767 42.847 20.0367 43.0203 19.85C43.1936 19.6633 43.2803 19.44 43.2803 19.18C43.2803 18.8867 43.1803 18.66 42.9803 18.5C42.787 18.3333 42.5436 18.2067 42.2503 18.12C41.957 18.0333 41.6636 17.95 41.3703 17.87C40.717 17.7233 40.117 17.5233 39.5703 17.27C39.0303 17.01 38.6003 16.68 38.2803 16.28C37.9603 15.8733 37.8003 15.3767 37.8003 14.79C37.8003 14.15 37.9736 13.5967 38.3203 13.13C38.667 12.6567 39.1203 12.2933 39.6803 12.04C40.247 11.7867 40.8503 11.66 41.4903 11.66C42.2903 11.66 43.0236 11.83 43.6903 12.17C44.357 12.51 44.867 12.9767 45.2203 13.57L43.5703 14.55C43.4703 14.35 43.3203 14.17 43.1203 14.01C42.9203 13.85 42.6936 13.7233 42.4403 13.63C42.187 13.53 41.9236 13.4733 41.6503 13.46C41.3103 13.4467 40.9936 13.4867 40.7003 13.58C40.4136 13.6667 40.1836 13.8067 40.0103 14C39.837 14.1933 39.7503 14.44 39.7503 14.74C39.7503 15.0333 39.8536 15.2533 40.0603 15.4C40.267 15.54 40.527 15.6533 40.8403 15.74C41.1603 15.8267 41.487 15.9233 41.8203 16.03C42.4136 16.2167 42.9703 16.4467 43.4903 16.72C44.0103 16.9867 44.4303 17.3167 44.7503 17.71C45.0703 18.1033 45.2236 18.5833 45.2103 19.15C45.2103 19.7767 45.0203 20.3267 44.6403 20.8C44.267 21.2733 43.7803 21.6333 43.1803 21.88C42.5803 22.1267 41.9436 22.23 41.2703 22.19ZM54.5659 12H56.6459V22H54.5559L54.4759 20.55C54.1826 21.0633 53.7859 21.4767 53.2859 21.79C52.7859 22.1033 52.1959 22.26 51.5159 22.26C50.7826 22.26 50.0926 22.1233 49.4459 21.85C48.7993 21.57 48.2293 21.1833 47.7359 20.69C47.2493 20.1967 46.8693 19.63 46.5959 18.99C46.3226 18.3433 46.1859 17.65 46.1859 16.91C46.1859 16.1967 46.3193 15.5267 46.5859 14.9C46.8526 14.2667 47.2226 13.7133 47.6959 13.24C48.1693 12.7667 48.7159 12.3967 49.3359 12.13C49.9626 11.8567 50.6326 11.72 51.3459 11.72C52.0726 11.72 52.7126 11.8867 53.2659 12.22C53.8259 12.5467 54.2893 12.9667 54.6559 13.48L54.5659 12ZM51.4659 20.25C52.0526 20.25 52.5659 20.1067 53.0059 19.82C53.4459 19.5267 53.7859 19.1333 54.0259 18.64C54.2726 18.1467 54.3959 17.6 54.3959 17C54.3959 16.3933 54.2726 15.8433 54.0259 15.35C53.7793 14.8567 53.4359 14.4667 52.9959 14.18C52.5626 13.8867 52.0526 13.74 51.4659 13.74C50.8859 13.74 50.3559 13.8867 49.8759 14.18C49.3959 14.4733 49.0159 14.8667 48.7359 15.36C48.4559 15.8533 48.3159 16.4 48.3159 17C48.3159 17.6067 48.4593 18.1567 48.7459 18.65C49.0393 19.1367 49.4226 19.5267 49.8959 19.82C50.3759 20.1067 50.8993 20.25 51.4659 20.25ZM66.0561 12H68.1361V22.26C68.1361 22.9467 67.9894 23.58 67.6961 24.16C67.4094 24.74 67.0194 25.24 66.5261 25.66C66.0328 26.0867 65.4661 26.4167 64.8261 26.65C64.1928 26.8833 63.5294 27 62.8361 27C62.1361 27 61.4628 26.85 60.8161 26.55C60.1694 26.2567 59.5994 25.8567 59.1061 25.35C58.6194 24.8433 58.2561 24.27 58.0161 23.63L59.9261 22.77C60.0594 23.1833 60.2728 23.55 60.5661 23.87C60.8661 24.19 61.2128 24.4433 61.6061 24.63C62.0061 24.8167 62.4161 24.91 62.8361 24.91C63.2494 24.91 63.6461 24.8433 64.0261 24.71C64.4128 24.5833 64.7561 24.4033 65.0561 24.17C65.3628 23.9367 65.6061 23.6567 65.7861 23.33C65.9661 23.0033 66.0561 22.6467 66.0561 22.26V20.57C65.7294 21.0767 65.3094 21.4867 64.7961 21.8C64.2828 22.1067 63.6861 22.26 63.0061 22.26C62.2994 22.26 61.6328 22.1233 61.0061 21.85C60.3794 21.5767 59.8294 21.2 59.3561 20.72C58.8828 20.2333 58.5128 19.6733 58.2461 19.04C57.9794 18.4067 57.8461 17.7267 57.8461 17C57.8461 16.2733 57.9794 15.5933 58.2461 14.96C58.5128 14.32 58.8828 13.76 59.3561 13.28C59.8294 12.7933 60.3794 12.4133 61.0061 12.14C61.6328 11.8667 62.2994 11.73 63.0061 11.73C63.6861 11.73 64.2828 11.8867 64.7961 12.2C65.3094 12.5067 65.7294 12.9167 66.0561 13.43V12ZM63.0261 20.25C63.6061 20.25 64.1128 20.1033 64.5461 19.81C64.9794 19.51 65.3161 19.1133 65.5561 18.62C65.7961 18.1267 65.9161 17.5867 65.9161 17C65.9161 16.4 65.7928 15.8567 65.5461 15.37C65.3061 14.8767 64.9694 14.4833 64.5361 14.19C64.1028 13.89 63.5994 13.74 63.0261 13.74C62.4661 13.74 61.9528 13.8867 61.4861 14.18C61.0261 14.4733 60.6594 14.8667 60.3861 15.36C60.1128 15.8533 59.9761 16.4 59.9761 17C59.9761 17.6 60.1128 18.1467 60.3861 18.64C60.6661 19.1333 61.0361 19.5267 61.4961 19.82C61.9628 20.1067 62.4728 20.25 63.0261 20.25ZM74.7602 22.26C73.8402 22.26 73.0002 22.0233 72.2402 21.55C71.4868 21.0767 70.8835 20.4433 70.4302 19.65C69.9835 18.85 69.7602 17.9667 69.7602 17C69.7602 16.2667 69.8902 15.5833 70.1502 14.95C70.4102 14.31 70.7668 13.75 71.2202 13.27C71.6802 12.7833 72.2135 12.4033 72.8202 12.13C73.4268 11.8567 74.0735 11.72 74.7602 11.72C75.5268 11.72 76.2302 11.88 76.8702 12.2C77.5102 12.5133 78.0568 12.95 78.5102 13.51C78.9635 14.0633 79.2968 14.7033 79.5102 15.43C79.7235 16.15 79.7868 16.9167 79.7002 17.73H71.9902C72.0768 18.19 72.2435 18.6067 72.4902 18.98C72.7435 19.3467 73.0635 19.6367 73.4502 19.85C73.8435 20.0633 74.2802 20.1733 74.7602 20.18C75.2668 20.18 75.7268 20.0533 76.1402 19.8C76.5602 19.5467 76.9035 19.1967 77.1702 18.75L79.2802 19.24C78.8802 20.1267 78.2768 20.8533 77.4702 21.42C76.6635 21.98 75.7602 22.26 74.7602 22.26ZM71.9202 16.14H77.6002C77.5335 15.66 77.3635 15.2267 77.0902 14.84C76.8235 14.4467 76.4868 14.1367 76.0802 13.91C75.6802 13.6767 75.2402 13.56 74.7602 13.56C74.2868 13.56 73.8468 13.6733 73.4402 13.9C73.0402 14.1267 72.7068 14.4367 72.4402 14.83C72.1802 15.2167 72.0068 15.6533 71.9202 16.14Z" fill="white"></path><rect x="0.5" y="46.5" width="883" height="169" rx="7.5" fill="#1A1A1A"></rect><rect x="0.5" y="46.5" width="883" height="169" rx="7.5" stroke="#262626"></rect><path d="M21.08 86V73.4H28.811V74.912H22.592V78.494H27.686V80.006H22.592V84.488H28.811V86H21.08ZM38.7391 80.402V86H37.2271V80.735C37.2271 80.279 37.1161 79.865 36.8941 79.493C36.6721 79.121 36.3751 78.827 36.0031 78.611C35.6311 78.389 35.2171 78.278 34.7611 78.278C34.3111 78.278 33.8971 78.389 33.5191 78.611C33.1471 78.827 32.8501 79.121 32.6281 79.493C32.4061 79.865 32.2951 80.279 32.2951 80.735V86H30.7831V77H32.2951V78.125C32.6131 77.705 33.0151 77.372 33.5011 77.126C33.9871 76.874 34.5151 76.748 35.0851 76.748C35.7571 76.748 36.3691 76.913 36.9211 77.243C37.4791 77.567 37.9201 78.005 38.2441 78.557C38.5741 79.109 38.7391 79.724 38.7391 80.402ZM45.201 78.512H43.158L43.149 86H41.637L41.646 78.512H40.098V77H41.646L41.637 74.174H43.149L43.158 77H45.201V78.512ZM50.5459 86.234C49.7179 86.234 48.9619 86.021 48.2779 85.595C47.5999 85.169 47.0569 84.599 46.6489 83.885C46.2469 83.165 46.0459 82.37 46.0459 81.5C46.0459 80.84 46.1629 80.225 46.3969 79.655C46.6309 79.079 46.9519 78.575 47.3599 78.143C47.7739 77.705 48.2539 77.363 48.7999 77.117C49.3459 76.871 49.9279 76.748 50.5459 76.748C51.2239 76.748 51.8449 76.886 52.4089 77.162C52.9789 77.432 53.4649 77.81 53.8669 78.296C54.2749 78.782 54.5779 79.346 54.7759 79.988C54.9799 80.63 55.0549 81.317 55.0009 82.049H47.6569C47.7289 82.559 47.8969 83.015 48.1609 83.417C48.4249 83.813 48.7609 84.128 49.1689 84.362C49.5829 84.596 50.0419 84.716 50.5459 84.722C51.0859 84.722 51.5749 84.584 52.0129 84.308C52.4509 84.026 52.8049 83.642 53.0749 83.156L54.6139 83.516C54.2539 84.314 53.7109 84.968 52.9849 85.478C52.2589 85.982 51.4459 86.234 50.5459 86.234ZM47.6119 80.861H53.4799C53.4319 80.357 53.2699 79.898 52.9939 79.484C52.7179 79.064 52.3669 78.728 51.9409 78.476C51.5149 78.224 51.0499 78.098 50.5459 78.098C50.0419 78.098 49.5799 78.221 49.1599 78.467C48.7399 78.713 48.3919 79.046 48.1159 79.466C47.8459 79.88 47.6779 80.345 47.6119 80.861ZM56.5175 86V77H58.0295V78.125C58.3475 77.705 58.7495 77.372 59.2355 77.126C59.7215 76.874 60.2495 76.748 60.8195 76.748C61.1675 76.748 61.5035 76.793 61.8275 76.883L61.2155 78.395C60.9695 78.317 60.7295 78.278 60.4955 78.278C60.0455 78.278 59.6315 78.389 59.2535 78.611C58.8815 78.827 58.5845 79.121 58.3625 79.493C58.1405 79.865 58.0295 80.279 58.0295 80.735V86H56.5175ZM73.5809 77H75.1829L70.2599 90.5H68.6579L70.2869 86L67.0559 77H68.7119L71.0429 83.921L73.5809 77ZM80.3056 86.234C79.4776 86.234 78.7216 86.021 78.0376 85.595C77.3596 85.169 76.8166 84.599 76.4086 83.885C76.0066 83.165 75.8056 82.37 75.8056 81.5C75.8056 80.84 75.9226 80.225 76.1566 79.655C76.3906 79.079 76.7116 78.575 77.1196 78.143C77.5336 77.705 78.0136 77.363 78.5596 77.117C79.1056 76.871 79.6876 76.748 80.3056 76.748C81.1336 76.748 81.8866 76.961 82.5646 77.387C83.2486 77.813 83.7916 78.386 84.1936 79.106C84.6016 79.826 84.8056 80.624 84.8056 81.5C84.8056 82.154 84.6886 82.766 84.4546 83.336C84.2206 83.906 83.8966 84.41 83.4826 84.848C83.0746 85.28 82.5976 85.619 82.0516 85.865C81.5116 86.111 80.9296 86.234 80.3056 86.234ZM80.3056 84.722C80.8696 84.722 81.3766 84.575 81.8266 84.281C82.2826 83.981 82.6396 83.588 82.8976 83.102C83.1616 82.61 83.2936 82.076 83.2936 81.5C83.2936 80.912 83.1586 80.372 82.8886 79.88C82.6246 79.388 82.2676 78.995 81.8176 78.701C81.3676 78.407 80.8636 78.26 80.3056 78.26C79.7416 78.26 79.2346 78.41 78.7846 78.71C78.3346 79.004 77.9776 79.397 77.7136 79.889C77.4496 80.381 77.3176 80.918 77.3176 81.5C77.3176 82.1 77.4526 82.646 77.7226 83.138C77.9926 83.624 78.3556 84.011 78.8116 84.299C79.2676 84.581 79.7656 84.722 80.3056 84.722ZM85.8118 82.58V77H87.3238V82.247C87.3238 82.703 87.4348 83.117 87.6568 83.489C87.8788 83.861 88.1758 84.158 88.5478 84.38C88.9258 84.596 89.3398 84.704 89.7898 84.704C90.2458 84.704 90.6568 84.596 91.0228 84.38C91.3948 84.158 91.6918 83.861 91.9138 83.489C92.1358 83.117 92.2468 82.703 92.2468 82.247V77H93.7588L93.7678 86H92.2558L92.2468 84.857C91.9288 85.277 91.5268 85.613 91.0408 85.865C90.5548 86.111 90.0298 86.234 89.4658 86.234C88.7938 86.234 88.1788 86.072 87.6208 85.748C87.0688 85.418 86.6278 84.977 86.2978 84.425C85.9738 83.873 85.8118 83.258 85.8118 82.58ZM95.5761 86V77H97.0881V78.125C97.4061 77.705 97.8081 77.372 98.2941 77.126C98.7801 76.874 99.3081 76.748 99.8781 76.748C100.226 76.748 100.562 76.793 100.886 76.883L100.274 78.395C100.028 78.317 99.7881 78.278 99.5541 78.278C99.1041 78.278 98.6901 78.389 98.3121 78.611C97.9401 78.827 97.6431 79.121 97.4211 79.493C97.1991 79.865 97.0881 80.279 97.0881 80.735V86H95.5761ZM106.475 86L108.914 73.4H110.075L113.477 82.346L116.87 73.4H118.031L120.479 86H118.94L117.167 76.856L113.972 85.316H112.973L109.778 76.856L108.014 86H106.475ZM125.815 86.234C124.987 86.234 124.231 86.021 123.547 85.595C122.869 85.169 122.326 84.599 121.918 83.885C121.516 83.165 121.315 82.37 121.315 81.5C121.315 80.84 121.432 80.225 121.666 79.655C121.9 79.079 122.221 78.575 122.629 78.143C123.043 77.705 123.523 77.363 124.069 77.117C124.615 76.871 125.197 76.748 125.815 76.748C126.493 76.748 127.114 76.886 127.678 77.162C128.248 77.432 128.734 77.81 129.136 78.296C129.544 78.782 129.847 79.346 130.045 79.988C130.249 80.63 130.324 81.317 130.27 82.049H122.926C122.998 82.559 123.166 83.015 123.43 83.417C123.694 83.813 124.03 84.128 124.438 84.362C124.852 84.596 125.311 84.716 125.815 84.722C126.355 84.722 126.844 84.584 127.282 84.308C127.72 84.026 128.074 83.642 128.344 83.156L129.883 83.516C129.523 84.314 128.98 84.968 128.254 85.478C127.528 85.982 126.715 86.234 125.815 86.234ZM122.881 80.861H128.749C128.701 80.357 128.539 79.898 128.263 79.484C127.987 79.064 127.636 78.728 127.21 78.476C126.784 78.224 126.319 78.098 125.815 78.098C125.311 78.098 124.849 78.221 124.429 78.467C124.009 78.713 123.661 79.046 123.385 79.466C123.115 79.88 122.947 80.345 122.881 80.861ZM134.567 86.171C134.081 86.153 133.607 86.063 133.145 85.901C132.689 85.733 132.287 85.508 131.939 85.226C131.597 84.938 131.348 84.608 131.192 84.236L132.488 83.678C132.578 83.882 132.74 84.074 132.974 84.254C133.208 84.434 133.478 84.578 133.784 84.686C134.09 84.794 134.399 84.848 134.711 84.848C135.041 84.848 135.35 84.797 135.638 84.695C135.926 84.593 136.16 84.443 136.34 84.245C136.526 84.041 136.619 83.798 136.619 83.516C136.619 83.216 136.517 82.982 136.313 82.814C136.115 82.64 135.863 82.505 135.557 82.409C135.257 82.307 134.951 82.211 134.639 82.121C134.021 81.965 133.469 81.779 132.983 81.563C132.497 81.341 132.113 81.062 131.831 80.726C131.555 80.384 131.417 79.949 131.417 79.421C131.417 78.863 131.57 78.38 131.876 77.972C132.188 77.564 132.596 77.249 133.1 77.027C133.604 76.805 134.144 76.694 134.72 76.694C135.446 76.694 136.109 76.85 136.709 77.162C137.309 77.474 137.756 77.897 138.05 78.431L136.835 79.142C136.733 78.926 136.577 78.737 136.367 78.575C136.157 78.407 135.917 78.275 135.647 78.179C135.377 78.083 135.101 78.032 134.819 78.026C134.471 78.014 134.144 78.059 133.838 78.161C133.538 78.263 133.295 78.419 133.109 78.629C132.929 78.833 132.839 79.088 132.839 79.394C132.839 79.694 132.935 79.922 133.127 80.078C133.325 80.234 133.58 80.36 133.892 80.456C134.21 80.546 134.555 80.651 134.927 80.771C135.473 80.945 135.983 81.146 136.457 81.374C136.931 81.602 137.312 81.887 137.6 82.229C137.894 82.571 138.038 82.994 138.032 83.498C138.032 84.05 137.867 84.533 137.537 84.947C137.207 85.355 136.778 85.667 136.25 85.883C135.728 86.099 135.167 86.195 134.567 86.171ZM142.319 86.171C141.833 86.153 141.359 86.063 140.897 85.901C140.441 85.733 140.039 85.508 139.691 85.226C139.349 84.938 139.1 84.608 138.944 84.236L140.24 83.678C140.33 83.882 140.492 84.074 140.726 84.254C140.96 84.434 141.23 84.578 141.536 84.686C141.842 84.794 142.151 84.848 142.463 84.848C142.793 84.848 143.102 84.797 143.39 84.695C143.678 84.593 143.912 84.443 144.092 84.245C144.278 84.041 144.371 83.798 144.371 83.516C144.371 83.216 144.269 82.982 144.065 82.814C143.867 82.64 143.615 82.505 143.309 82.409C143.009 82.307 142.703 82.211 142.391 82.121C141.773 81.965 141.221 81.779 140.735 81.563C140.249 81.341 139.865 81.062 139.583 80.726C139.307 80.384 139.169 79.949 139.169 79.421C139.169 78.863 139.322 78.38 139.628 77.972C139.94 77.564 140.348 77.249 140.852 77.027C141.356 76.805 141.896 76.694 142.472 76.694C143.198 76.694 143.861 76.85 144.461 77.162C145.061 77.474 145.508 77.897 145.802 78.431L144.587 79.142C144.485 78.926 144.329 78.737 144.119 78.575C143.909 78.407 143.669 78.275 143.399 78.179C143.129 78.083 142.853 78.032 142.571 78.026C142.223 78.014 141.896 78.059 141.59 78.161C141.29 78.263 141.047 78.419 140.861 78.629C140.681 78.833 140.591 79.088 140.591 79.394C140.591 79.694 140.687 79.922 140.879 80.078C141.077 80.234 141.332 80.36 141.644 80.456C141.962 80.546 142.307 80.651 142.679 80.771C143.225 80.945 143.735 81.146 144.209 81.374C144.683 81.602 145.064 81.887 145.352 82.229C145.646 82.571 145.79 82.994 145.784 83.498C145.784 84.05 145.619 84.533 145.289 84.947C144.959 85.355 144.53 85.667 144.002 85.883C143.48 86.099 142.919 86.195 142.319 86.171ZM154.474 77H155.986V86H154.474L154.411 84.479C154.129 85.001 153.739 85.424 153.241 85.748C152.749 86.072 152.161 86.234 151.477 86.234C150.817 86.234 150.199 86.111 149.623 85.865C149.047 85.613 148.537 85.268 148.093 84.83C147.655 84.386 147.313 83.876 147.067 83.3C146.821 82.724 146.698 82.103 146.698 81.437C146.698 80.795 146.818 80.189 147.058 79.619C147.298 79.049 147.631 78.551 148.057 78.125C148.489 77.693 148.987 77.357 149.551 77.117C150.115 76.871 150.721 76.748 151.369 76.748C152.077 76.748 152.698 76.916 153.232 77.252C153.766 77.582 154.198 78.011 154.528 78.539L154.474 77ZM151.45 84.767C152.044 84.767 152.557 84.623 152.989 84.335C153.427 84.041 153.763 83.645 153.997 83.147C154.237 82.649 154.357 82.1 154.357 81.5C154.357 80.888 154.237 80.336 153.997 79.844C153.757 79.346 153.418 78.953 152.98 78.665C152.548 78.371 152.038 78.224 151.45 78.224C150.856 78.224 150.316 78.371 149.83 78.665C149.344 78.959 148.957 79.355 148.669 79.853C148.387 80.345 148.246 80.894 148.246 81.5C148.246 82.106 148.393 82.658 148.687 83.156C148.981 83.648 149.371 84.041 149.857 84.335C150.343 84.623 150.874 84.767 151.45 84.767ZM164.638 77H166.15V86.288C166.15 86.882 166.021 87.434 165.763 87.944C165.511 88.46 165.169 88.907 164.737 89.285C164.305 89.669 163.813 89.966 163.261 90.176C162.709 90.392 162.133 90.5 161.533 90.5C160.909 90.5 160.306 90.359 159.724 90.077C159.142 89.801 158.632 89.429 158.194 88.961C157.762 88.499 157.45 87.98 157.258 87.404L158.644 86.774C158.758 87.188 158.962 87.56 159.256 87.89C159.556 88.226 159.904 88.49 160.3 88.682C160.702 88.88 161.113 88.979 161.533 88.979C161.929 88.979 162.31 88.91 162.676 88.772C163.048 88.634 163.381 88.442 163.675 88.196C163.975 87.956 164.209 87.671 164.377 87.341C164.551 87.017 164.638 86.666 164.638 86.288V84.497C164.332 85.013 163.927 85.433 163.423 85.757C162.925 86.075 162.343 86.234 161.677 86.234C161.041 86.234 160.444 86.111 159.886 85.865C159.328 85.619 158.839 85.28 158.419 84.848C157.999 84.41 157.669 83.906 157.429 83.336C157.189 82.766 157.069 82.154 157.069 81.5C157.069 80.846 157.189 80.234 157.429 79.664C157.669 79.088 157.999 78.584 158.419 78.152C158.839 77.714 159.328 77.372 159.886 77.126C160.444 76.88 161.041 76.757 161.677 76.757C162.343 76.757 162.925 76.916 163.423 77.234C163.927 77.552 164.332 77.972 164.638 78.494V77ZM161.686 84.767C162.268 84.767 162.772 84.617 163.198 84.317C163.63 84.017 163.963 83.618 164.197 83.12C164.431 82.622 164.548 82.082 164.548 81.5C164.548 80.9 164.428 80.354 164.188 79.862C163.954 79.364 163.621 78.968 163.189 78.674C162.763 78.374 162.262 78.224 161.686 78.224C161.122 78.224 160.606 78.371 160.138 78.665C159.67 78.959 159.298 79.355 159.022 79.853C158.752 80.345 158.617 80.894 158.617 81.5C158.617 82.106 158.755 82.658 159.031 83.156C159.313 83.648 159.685 84.041 160.147 84.335C160.615 84.623 161.128 84.767 161.686 84.767ZM172.151 86.234C171.323 86.234 170.567 86.021 169.883 85.595C169.205 85.169 168.662 84.599 168.254 83.885C167.852 83.165 167.651 82.37 167.651 81.5C167.651 80.84 167.768 80.225 168.002 79.655C168.236 79.079 168.557 78.575 168.965 78.143C169.379 77.705 169.859 77.363 170.405 77.117C170.951 76.871 171.533 76.748 172.151 76.748C172.829 76.748 173.45 76.886 174.014 77.162C174.584 77.432 175.07 77.81 175.472 78.296C175.88 78.782 176.183 79.346 176.381 79.988C176.585 80.63 176.66 81.317 176.606 82.049H169.262C169.334 82.559 169.502 83.015 169.766 83.417C170.03 83.813 170.366 84.128 170.774 84.362C171.188 84.596 171.647 84.716 172.151 84.722C172.691 84.722 173.18 84.584 173.618 84.308C174.056 84.026 174.41 83.642 174.68 83.156L176.219 83.516C175.859 84.314 175.316 84.968 174.59 85.478C173.864 85.982 173.051 86.234 172.151 86.234ZM169.217 80.861H175.085C175.037 80.357 174.875 79.898 174.599 79.484C174.323 79.064 173.972 78.728 173.546 78.476C173.12 78.224 172.655 78.098 172.151 78.098C171.647 78.098 171.185 78.221 170.765 78.467C170.345 78.713 169.997 79.046 169.721 79.466C169.451 79.88 169.283 80.345 169.217 80.861ZM190.526 80.402V86H189.014V80.735C189.014 80.279 188.903 79.865 188.681 79.493C188.459 79.121 188.162 78.827 187.79 78.611C187.418 78.389 187.004 78.278 186.548 78.278C186.098 78.278 185.684 78.389 185.306 78.611C184.934 78.827 184.637 79.121 184.415 79.493C184.193 79.865 184.082 80.279 184.082 80.735V86H182.57V72.5H184.082V78.125C184.4 77.705 184.802 77.372 185.288 77.126C185.774 76.874 186.302 76.748 186.872 76.748C187.544 76.748 188.156 76.913 188.708 77.243C189.266 77.567 189.707 78.005 190.031 78.557C190.361 79.109 190.526 79.724 190.526 80.402ZM196.11 86.234C195.282 86.234 194.526 86.021 193.842 85.595C193.164 85.169 192.621 84.599 192.213 83.885C191.811 83.165 191.61 82.37 191.61 81.5C191.61 80.84 191.727 80.225 191.961 79.655C192.195 79.079 192.516 78.575 192.924 78.143C193.338 77.705 193.818 77.363 194.364 77.117C194.91 76.871 195.492 76.748 196.11 76.748C196.788 76.748 197.409 76.886 197.973 77.162C198.543 77.432 199.029 77.81 199.431 78.296C199.839 78.782 200.142 79.346 200.34 79.988C200.544 80.63 200.619 81.317 200.565 82.049H193.221C193.293 82.559 193.461 83.015 193.725 83.417C193.989 83.813 194.325 84.128 194.733 84.362C195.147 84.596 195.606 84.716 196.11 84.722C196.65 84.722 197.139 84.584 197.577 84.308C198.015 84.026 198.369 83.642 198.639 83.156L200.178 83.516C199.818 84.314 199.275 84.968 198.549 85.478C197.823 85.982 197.01 86.234 196.11 86.234ZM193.176 80.861H199.044C198.996 80.357 198.834 79.898 198.558 79.484C198.282 79.064 197.931 78.728 197.505 78.476C197.079 78.224 196.614 78.098 196.11 78.098C195.606 78.098 195.144 78.221 194.724 78.467C194.304 78.713 193.956 79.046 193.68 79.466C193.41 79.88 193.242 80.345 193.176 80.861ZM202.082 86V77H203.594V78.125C203.912 77.705 204.314 77.372 204.8 77.126C205.286 76.874 205.814 76.748 206.384 76.748C206.732 76.748 207.068 76.793 207.392 76.883L206.78 78.395C206.534 78.317 206.294 78.278 206.06 78.278C205.61 78.278 205.196 78.389 204.818 78.611C204.446 78.827 204.149 79.121 203.927 79.493C203.705 79.865 203.594 80.279 203.594 80.735V86H202.082ZM212.001 86.234C211.173 86.234 210.417 86.021 209.733 85.595C209.055 85.169 208.512 84.599 208.104 83.885C207.702 83.165 207.501 82.37 207.501 81.5C207.501 80.84 207.618 80.225 207.852 79.655C208.086 79.079 208.407 78.575 208.815 78.143C209.229 77.705 209.709 77.363 210.255 77.117C210.801 76.871 211.383 76.748 212.001 76.748C212.679 76.748 213.3 76.886 213.864 77.162C214.434 77.432 214.92 77.81 215.322 78.296C215.73 78.782 216.033 79.346 216.231 79.988C216.435 80.63 216.51 81.317 216.456 82.049H209.112C209.184 82.559 209.352 83.015 209.616 83.417C209.88 83.813 210.216 84.128 210.624 84.362C211.038 84.596 211.497 84.716 212.001 84.722C212.541 84.722 213.03 84.584 213.468 84.308C213.906 84.026 214.26 83.642 214.53 83.156L216.069 83.516C215.709 84.314 215.166 84.968 214.44 85.478C213.714 85.982 212.901 86.234 212.001 86.234ZM209.067 80.861H214.935C214.887 80.357 214.725 79.898 214.449 79.484C214.173 79.064 213.822 78.728 213.396 78.476C212.97 78.224 212.505 78.098 212.001 78.098C211.497 78.098 211.035 78.221 210.615 78.467C210.195 78.713 209.847 79.046 209.571 79.466C209.301 79.88 209.133 80.345 209.067 80.861ZM218.379 86.234C218.151 86.234 217.956 86.153 217.794 85.991C217.638 85.829 217.56 85.631 217.56 85.397C217.56 85.175 217.638 84.983 217.794 84.821C217.956 84.659 218.151 84.578 218.379 84.578C218.613 84.578 218.811 84.659 218.973 84.821C219.135 84.983 219.216 85.175 219.216 85.397C219.216 85.631 219.135 85.829 218.973 85.991C218.811 86.153 218.613 86.234 218.379 86.234ZM221.842 86.234C221.614 86.234 221.419 86.153 221.257 85.991C221.101 85.829 221.023 85.631 221.023 85.397C221.023 85.175 221.101 84.983 221.257 84.821C221.419 84.659 221.614 84.578 221.842 84.578C222.076 84.578 222.274 84.659 222.436 84.821C222.598 84.983 222.679 85.175 222.679 85.397C222.679 85.631 222.598 85.829 222.436 85.991C222.274 86.153 222.076 86.234 221.842 86.234Z" fill="#666666"></path></svg>