<svg xmlns="http://www.w3.org/2000/svg" width="1280" height="60" viewBox="0 0 1280 60" fill="none"><mask id="path-1-inside-1_166_1224" fill="white"><path d="M0 0H1280V60H0V0Z"></path></mask><path d="M0 1H1280V-1H0V1Z" fill="#262626" mask="url(#path-1-inside-1_166_1224)"></path><path d="M4.792 34.208C4.12533 34.208 3.528 34.0587 3 33.76C2.472 33.456 2.01867 33.0373 1.64 32.504C1.26133 31.9707 0.973333 31.3547 0.776 30.656C0.578667 29.952 0.48 29.2 0.48 28.4C0.48 27.6 0.578667 26.848 0.776 26.144C0.973333 25.44 1.26133 24.824 1.64 24.296C2.01867 23.7627 2.472 23.3467 3 23.048C3.528 22.744 4.12533 22.592 4.792 22.592C5.45333 22.592 6.048 22.744 6.576 23.048C7.10933 23.3467 7.56 23.7627 7.928 24.296C8.30133 24.824 8.58667 25.44 8.784 26.144C8.98667 26.848 9.088 27.6 9.088 28.4C9.088 29.2 8.98667 29.952 8.784 30.656C8.58667 31.3547 8.30133 31.9707 7.928 32.504C7.56 33.0373 7.10933 33.456 6.576 33.76C6.048 34.0587 5.45333 34.208 4.792 34.208ZM4.792 32.864C5.45867 32.864 6.016 32.6587 6.464 32.248C6.91733 31.832 7.256 31.2853 7.48 30.608C7.704 29.9307 7.816 29.1947 7.816 28.4C7.816 27.5627 7.69867 26.808 7.464 26.136C7.23467 25.4587 6.89333 24.9227 6.44 24.528C5.992 24.1333 5.44267 23.936 4.792 23.936C4.28 23.936 3.832 24.056 3.448 24.296C3.06933 24.536 2.75467 24.864 2.504 25.28C2.25333 25.696 2.064 26.1733 1.936 26.712C1.81333 27.2453 1.752 27.808 1.752 28.4C1.752 29.1947 1.86667 29.9333 2.096 30.616C2.32533 31.2933 2.664 31.8373 3.112 32.248C3.56533 32.6587 4.12533 32.864 4.792 32.864ZM11.4585 34V24.144H10.2025L10.5785 22.8H12.8025V34H11.4585Z" fill="white"></path><path d="M22.4019 34.208C21.6659 34.208 20.9939 34.0187 20.3859 33.64C19.7832 33.2613 19.3005 32.7547 18.9379 32.12C18.5805 31.48 18.4019 30.7733 18.4019 30C18.4019 29.4133 18.5059 28.8667 18.7139 28.36C18.9219 27.848 19.2072 27.4 19.5699 27.016C19.9379 26.6267 20.3645 26.3227 20.8499 26.104C21.3352 25.8853 21.8525 25.776 22.4019 25.776C23.1379 25.776 23.8072 25.9653 24.4099 26.344C25.0179 26.7227 25.5005 27.232 25.8579 27.872C26.2205 28.512 26.4019 29.2213 26.4019 30C26.4019 30.5813 26.2979 31.1253 26.0899 31.632C25.8819 32.1387 25.5939 32.5867 25.2259 32.976C24.8632 33.36 24.4392 33.6613 23.9539 33.88C23.4739 34.0987 22.9565 34.208 22.4019 34.208ZM22.4019 32.864C22.9032 32.864 23.3539 32.7333 23.7539 32.472C24.1592 32.2053 24.4765 31.856 24.7059 31.424C24.9405 30.9867 25.0579 30.512 25.0579 30C25.0579 29.4773 24.9379 28.9973 24.6979 28.56C24.4632 28.1227 24.1459 27.7733 23.7459 27.512C23.3459 27.2507 22.8979 27.12 22.4019 27.12C21.9005 27.12 21.4499 27.2533 21.0499 27.52C20.6499 27.7813 20.3325 28.1307 20.0979 28.568C19.8632 29.0053 19.7459 29.4827 19.7459 30C19.7459 30.5333 19.8659 31.0187 20.1059 31.456C20.3459 31.888 20.6685 32.232 21.0739 32.488C21.4792 32.7387 21.9219 32.864 22.4019 32.864ZM29.651 24.024V26H31.995V27.344H29.651V34H28.307V27.344H27.275V26H28.307V24.024C28.307 23.6133 28.4057 23.2427 28.603 22.912C28.8057 22.576 29.075 22.3093 29.411 22.112C29.7523 21.9093 30.1257 21.808 30.531 21.808C30.8297 21.808 31.1203 21.8693 31.403 21.992C31.6857 22.1093 31.9363 22.2853 32.155 22.52L31.195 23.472C31.1203 23.3707 31.0217 23.2933 30.899 23.24C30.7817 23.1813 30.659 23.152 30.531 23.152C30.291 23.152 30.083 23.2373 29.907 23.408C29.7363 23.5787 29.651 23.784 29.651 24.024ZM38.0835 34V24.144H36.8275L37.2035 22.8H39.4275V34H38.0835ZM45.4951 34.208C44.8285 34.208 44.2311 34.0587 43.7031 33.76C43.1751 33.456 42.7218 33.0373 42.3431 32.504C41.9645 31.9707 41.6765 31.3547 41.4791 30.656C41.2818 29.952 41.1831 29.2 41.1831 28.4C41.1831 27.6 41.2818 26.848 41.4791 26.144C41.6765 25.44 41.9645 24.824 42.3431 24.296C42.7218 23.7627 43.1751 23.3467 43.7031 23.048C44.2311 22.744 44.8285 22.592 45.4951 22.592C46.1565 22.592 46.7511 22.744 47.2791 23.048C47.8125 23.3467 48.2631 23.7627 48.6311 24.296C49.0045 24.824 49.2898 25.44 49.4871 26.144C49.6898 26.848 49.7911 27.6 49.7911 28.4C49.7911 29.2 49.6898 29.952 49.4871 30.656C49.2898 31.3547 49.0045 31.9707 48.6311 32.504C48.2631 33.0373 47.8125 33.456 47.2791 33.76C46.7511 34.0587 46.1565 34.208 45.4951 34.208ZM45.4951 32.864C46.1618 32.864 46.7191 32.6587 47.1671 32.248C47.6205 31.832 47.9591 31.2853 48.1831 30.608C48.4071 29.9307 48.5191 29.1947 48.5191 28.4C48.5191 27.5627 48.4018 26.808 48.1671 26.136C47.9378 25.4587 47.5965 24.9227 47.1431 24.528C46.6951 24.1333 46.1458 23.936 45.4951 23.936C44.9831 23.936 44.5351 24.056 44.1511 24.296C43.7725 24.536 43.4578 24.864 43.2071 25.28C42.9565 25.696 42.7671 26.1733 42.6391 26.712C42.5165 27.2453 42.4551 27.808 42.4551 28.4C42.4551 29.1947 42.5698 29.9333 42.7991 30.616C43.0285 31.2933 43.3671 31.8373 43.8151 32.248C44.2685 32.6587 44.8285 32.864 45.4951 32.864Z" fill="#999999"></path><rect x="1182.5" y="16.5" width="43" height="43" rx="21.5" stroke="#262626"></rect><path fill-rule="evenodd" clip-rule="evenodd" d="M1212.4 38.0001C1212.4 38.4971 1212 38.9001 1211.5 38.9001L1198.73 38.9L1203.72 43.6513C1204.08 43.9958 1204.09 44.5656 1203.75 44.9238C1203.4 45.2821 1202.83 45.2933 1202.47 44.9488L1195.87 38.6488C1195.7 38.4791 1195.6 38.2449 1195.6 38C1195.6 37.7552 1195.7 37.521 1195.87 37.3513L1202.47 31.0513C1202.83 30.7068 1203.4 30.718 1203.75 31.0763C1204.09 31.4345 1204.08 32.0043 1203.72 32.3488L1198.73 37.1L1211.5 37.1001C1212 37.1001 1212.4 37.503 1212.4 38.0001Z" fill="#808080"></path><rect x="1236.5" y="16.5" width="43" height="43" rx="21.5" fill="#1A1A1A"></rect><rect x="1236.5" y="16.5" width="43" height="43" rx="21.5" stroke="#262626"></rect><path fill-rule="evenodd" clip-rule="evenodd" d="M1249.6 37.9999C1249.6 37.5029 1250 37.0999 1250.5 37.0999L1263.27 37.0999L1258.28 32.3487C1257.92 32.0042 1257.91 31.4344 1258.25 31.0762C1258.6 30.7179 1259.17 30.7067 1259.53 31.0512L1266.13 37.3512C1266.3 37.5209 1266.4 37.7551 1266.4 37.9999C1266.4 38.2448 1266.3 38.479 1266.13 38.6487L1259.53 44.9487C1259.17 45.2932 1258.6 45.282 1258.25 44.9237C1257.91 44.5655 1257.92 43.9957 1258.28 43.6512L1263.27 38.8999L1250.5 38.8999C1250 38.8999 1249.6 38.497 1249.6 37.9999Z" fill="white"></path></svg>