<svg xmlns="http://www.w3.org/2000/svg" width="550" height="52" viewBox="0 0 550 52" fill="none"><mask id="path-1-inside-1_166_858" fill="white"><path d="M0 0H550V52H0V0Z"></path></mask><path d="M0 0H550V52H0V0Z" fill="url(#paint0_linear_166_858)"></path><path d="M1 52V0H-1V52H1Z" fill="#703BF7" mask="url(#path-1-inside-1_166_858)"></path><path fill-rule="evenodd" clip-rule="evenodd" d="M28.1794 17.3291C28.4304 17.4691 28.5536 17.7622 28.478 18.0394L26.8183 24.125H32.875C33.1239 24.125 33.349 24.2727 33.4482 24.5009C33.5474 24.7292 33.5017 24.9945 33.3319 25.1764L24.5819 34.5514C24.3858 34.7616 24.0717 34.8108 23.8207 34.6709C23.5696 34.5309 23.4464 34.2378 23.522 33.9606L25.1817 27.875H19.125C18.8761 27.875 18.651 27.7273 18.5518 27.4991C18.4526 27.2708 18.4983 27.0055 18.6681 26.8236L27.4181 17.4486C27.6142 17.2384 27.9283 17.1892 28.1794 17.3291Z" fill="white"></path><path d="M46.96 32V20.8H50.656C51.2587 20.8 51.8 20.9467 52.28 21.24C52.7653 21.5333 53.1493 21.9307 53.432 22.432C53.72 22.928 53.864 23.4827 53.864 24.096C53.864 24.72 53.7173 25.2827 53.424 25.784C53.136 26.28 52.7467 26.6747 52.256 26.968C51.7707 27.256 51.2373 27.4 50.656 27.4H48.304V32H46.96ZM48.304 26.056H50.536C50.8987 26.056 51.2293 25.968 51.528 25.792C51.832 25.6107 52.072 25.368 52.248 25.064C52.4293 24.7547 52.52 24.408 52.52 24.024C52.52 23.6347 52.4293 23.288 52.248 22.984C52.072 22.6747 51.832 22.432 51.528 22.256C51.2293 22.0747 50.8987 21.984 50.536 21.984H48.304V26.056ZM55.2413 32V24H56.5853V25C56.8679 24.6267 57.2253 24.3307 57.6573 24.112C58.0893 23.888 58.5586 23.776 59.0653 23.776C59.3746 23.776 59.6733 23.816 59.9613 23.896L59.4173 25.24C59.1986 25.1707 58.9853 25.136 58.7773 25.136C58.3773 25.136 58.0093 25.2347 57.6733 25.432C57.3426 25.624 57.0786 25.8853 56.8813 26.216C56.6839 26.5467 56.5853 26.9147 56.5853 27.32V32H55.2413ZM60.9444 24H62.2884V32H60.9444V24ZM61.6324 22.696C61.419 22.696 61.2404 22.6267 61.0964 22.488C60.9524 22.3493 60.8804 22.176 60.8804 21.968C60.8804 21.76 60.9524 21.5867 61.0964 21.448C61.2404 21.3093 61.4164 21.24 61.6244 21.24C61.8324 21.24 62.0084 21.3093 62.1524 21.448C62.2964 21.5867 62.3684 21.76 62.3684 21.968C62.3684 22.176 62.2964 22.3493 62.1524 22.488C62.0137 22.6267 61.8404 22.696 61.6324 22.696ZM68.2294 32H66.5094L63.5894 23.984H65.0214L67.3654 30.44L69.7094 23.984H71.1414L68.2294 32ZM78.5483 24H79.8923V32H78.5483L78.4923 30.648C78.2416 31.112 77.8949 31.488 77.4523 31.776C77.0149 32.064 76.4923 32.208 75.8843 32.208C75.2976 32.208 74.7483 32.0987 74.2363 31.88C73.7243 31.656 73.2709 31.3493 72.8763 30.96C72.4869 30.5653 72.1829 30.112 71.9643 29.6C71.7456 29.088 71.6363 28.536 71.6363 27.944C71.6363 27.3733 71.7429 26.8347 71.9563 26.328C72.1696 25.8213 72.4656 25.3787 72.8443 25C73.2283 24.616 73.6709 24.3173 74.1723 24.104C74.6736 23.8853 75.2123 23.776 75.7883 23.776C76.4176 23.776 76.9696 23.9253 77.4443 24.224C77.9189 24.5173 78.3029 24.8987 78.5963 25.368L78.5483 24ZM75.8602 30.904C76.3883 30.904 76.8443 30.776 77.2283 30.52C77.6176 30.2587 77.9163 29.9067 78.1243 29.464C78.3376 29.0213 78.4443 28.5333 78.4443 28C78.4443 27.456 78.3376 26.9653 78.1243 26.528C77.9109 26.0853 77.6096 25.736 77.2203 25.48C76.8363 25.2187 76.3829 25.088 75.8602 25.088C75.3323 25.088 74.8523 25.2187 74.4203 25.48C73.9883 25.7413 73.6443 26.0933 73.3883 26.536C73.1376 26.9733 73.0123 27.4613 73.0123 28C73.0123 28.5387 73.1429 29.0293 73.4043 29.472C73.6656 29.9093 74.0123 30.2587 74.4443 30.52C74.8763 30.776 75.3483 30.904 75.8602 30.904ZM85.6353 25.344H83.8193L83.8113 32H82.4673L82.4753 25.344H81.0993V24H82.4753L82.4673 21.488H83.8113L83.8193 24H85.6353V25.344ZM90.3863 32.208C89.6503 32.208 88.9783 32.0187 88.3703 31.64C87.7676 31.2613 87.2849 30.7547 86.9223 30.12C86.5649 29.48 86.3863 28.7733 86.3863 28C86.3863 27.4133 86.4903 26.8667 86.6983 26.36C86.9063 25.848 87.1916 25.4 87.5543 25.016C87.9223 24.6267 88.3489 24.3227 88.8343 24.104C89.3196 23.8853 89.8369 23.776 90.3863 23.776C90.9889 23.776 91.5409 23.8987 92.0423 24.144C92.5489 24.384 92.9809 24.72 93.3383 25.152C93.7009 25.584 93.9703 26.0853 94.1463 26.656C94.3276 27.2267 94.3943 27.8373 94.3463 28.488H87.8183C87.8823 28.9413 88.0316 29.3467 88.2663 29.704C88.5009 30.056 88.7996 30.336 89.1623 30.544C89.5303 30.752 89.9383 30.8587 90.3863 30.864C90.8663 30.864 91.3009 30.7413 91.6903 30.496C92.0796 30.2453 92.3943 29.904 92.6343 29.472L94.0023 29.792C93.6823 30.5013 93.1996 31.0827 92.5543 31.536C91.9089 31.984 91.1863 32.208 90.3863 32.208ZM87.7783 27.432H92.9943C92.9516 26.984 92.8076 26.576 92.5623 26.208C92.3169 25.8347 92.0049 25.536 91.6263 25.312C91.2476 25.088 90.8343 24.976 90.3863 24.976C89.9383 24.976 89.5276 25.0853 89.1543 25.304C88.7809 25.5227 88.4716 25.8187 88.2263 26.192C87.9863 26.56 87.8369 26.9733 87.7783 27.432ZM103.696 23.776C104.474 23.776 105.181 23.9653 105.816 24.344C106.456 24.7227 106.965 25.232 107.344 25.872C107.722 26.5067 107.911 27.2133 107.911 27.992C107.911 28.5733 107.802 29.12 107.584 29.632C107.365 30.1387 107.061 30.5867 106.672 30.976C106.288 31.36 105.84 31.6613 105.328 31.88C104.821 32.0987 104.277 32.208 103.696 32.208C103.077 32.208 102.538 32.064 102.08 31.776C101.626 31.4827 101.264 31.1013 100.992 30.632V32H99.6475V20H100.992V25.352C101.264 24.8827 101.626 24.504 102.08 24.216C102.538 23.9227 103.077 23.776 103.696 23.776ZM103.68 30.896C104.208 30.896 104.688 30.7653 105.12 30.504C105.552 30.2427 105.896 29.8933 106.152 29.456C106.408 29.0133 106.536 28.5253 106.536 27.992C106.536 27.448 106.405 26.9573 106.144 26.52C105.882 26.0773 105.536 25.728 105.104 25.472C104.672 25.2107 104.197 25.08 103.68 25.08C103.157 25.08 102.701 25.2107 102.312 25.472C101.928 25.7333 101.629 26.0853 101.416 26.528C101.208 26.9707 101.104 27.4587 101.104 27.992C101.104 28.5307 101.208 29.0213 101.416 29.464C101.629 29.9013 101.93 30.2507 102.32 30.512C102.709 30.768 103.162 30.896 103.68 30.896ZM112.714 32.208C111.978 32.208 111.306 32.0187 110.698 31.64C110.096 31.2613 109.613 30.7547 109.25 30.12C108.893 29.48 108.714 28.7733 108.714 28C108.714 27.4133 108.818 26.8667 109.026 26.36C109.234 25.848 109.52 25.4 109.882 25.016C110.25 24.6267 110.677 24.3227 111.162 24.104C111.648 23.8853 112.165 23.776 112.714 23.776C113.317 23.776 113.869 23.8987 114.37 24.144C114.877 24.384 115.309 24.72 115.666 25.152C116.029 25.584 116.298 26.0853 116.474 26.656C116.656 27.2267 116.722 27.8373 116.674 28.488H110.146C110.21 28.9413 110.36 29.3467 110.594 29.704C110.829 30.056 111.128 30.336 111.49 30.544C111.858 30.752 112.266 30.8587 112.714 30.864C113.194 30.864 113.629 30.7413 114.018 30.496C114.408 30.2453 114.722 29.904 114.962 29.472L116.33 29.792C116.01 30.5013 115.528 31.0827 114.882 31.536C114.237 31.984 113.514 32.208 112.714 32.208ZM110.106 27.432H115.322C115.28 26.984 115.136 26.576 114.89 26.208C114.645 25.8347 114.333 25.536 113.954 25.312C113.576 25.088 113.162 24.976 112.714 24.976C112.266 24.976 111.856 25.0853 111.482 25.304C111.109 25.5227 110.8 25.8187 110.554 26.192C110.314 26.56 110.165 26.9733 110.106 27.432ZM124.408 24H125.752V32H124.408L124.352 30.648C124.101 31.112 123.754 31.488 123.312 31.776C122.874 32.064 122.352 32.208 121.744 32.208C121.157 32.208 120.608 32.0987 120.096 31.88C119.584 31.656 119.13 31.3493 118.736 30.96C118.346 30.5653 118.042 30.112 117.824 29.6C117.605 29.088 117.496 28.536 117.496 27.944C117.496 27.3733 117.602 26.8347 117.816 26.328C118.029 25.8213 118.325 25.3787 118.704 25C119.088 24.616 119.53 24.3173 120.032 24.104C120.533 23.8853 121.072 23.776 121.648 23.776C122.277 23.776 122.829 23.9253 123.304 24.224C123.778 24.5173 124.162 24.8987 124.456 25.368L124.408 24ZM121.72 30.904C122.248 30.904 122.704 30.776 123.088 30.52C123.477 30.2587 123.776 29.9067 123.984 29.464C124.197 29.0213 124.304 28.5333 124.304 28C124.304 27.456 124.197 26.9653 123.984 26.528C123.77 26.0853 123.469 25.736 123.08 25.48C122.696 25.2187 122.242 25.088 121.72 25.088C121.192 25.088 120.712 25.2187 120.28 25.48C119.848 25.7413 119.504 26.0933 119.248 26.536C118.997 26.9733 118.872 27.4613 118.872 28C118.872 28.5387 119.002 29.0293 119.264 29.472C119.525 29.9093 119.872 30.2587 120.304 30.52C120.736 30.776 121.208 30.904 121.72 30.904ZM132.706 29.888L133.906 30.536C133.544 31.0427 133.082 31.448 132.522 31.752C131.968 32.056 131.365 32.208 130.714 32.208C129.978 32.208 129.306 32.0187 128.698 31.64C128.096 31.2613 127.613 30.7547 127.25 30.12C126.893 29.48 126.714 28.7733 126.714 28C126.714 27.4133 126.818 26.8667 127.026 26.36C127.234 25.848 127.52 25.4 127.882 25.016C128.25 24.6267 128.677 24.3227 129.162 24.104C129.648 23.8853 130.165 23.776 130.714 23.776C131.365 23.776 131.968 23.928 132.522 24.232C133.082 24.536 133.544 24.944 133.906 25.456L132.706 26.104C132.45 25.7893 132.146 25.5467 131.794 25.376C131.442 25.2053 131.082 25.12 130.714 25.12C130.218 25.12 129.768 25.2533 129.362 25.52C128.962 25.7813 128.645 26.1307 128.41 26.568C128.176 27.0053 128.058 27.4827 128.058 28C128.058 28.5173 128.176 28.9947 128.41 29.432C128.65 29.864 128.97 30.2107 129.37 30.472C129.776 30.7333 130.224 30.864 130.714 30.864C131.109 30.864 131.48 30.7733 131.826 30.592C132.173 30.4107 132.466 30.176 132.706 29.888ZM142.282 27.024V32H140.938V27.32C140.938 26.9147 140.839 26.5467 140.642 26.216C140.445 25.8853 140.181 25.624 139.85 25.432C139.519 25.2347 139.151 25.136 138.746 25.136C138.346 25.136 137.978 25.2347 137.642 25.432C137.311 25.624 137.047 25.8853 136.85 26.216C136.653 26.5467 136.554 26.9147 136.554 27.32V32H135.21V20H136.554V25C136.837 24.6267 137.194 24.3307 137.626 24.112C138.058 23.888 138.527 23.776 139.034 23.776C139.631 23.776 140.175 23.9227 140.666 24.216C141.162 24.504 141.554 24.8933 141.842 25.384C142.135 25.8747 142.282 26.4213 142.282 27.024ZM154.158 24H155.502V32H154.158L154.102 30.648C153.851 31.112 153.504 31.488 153.062 31.776C152.624 32.064 152.102 32.208 151.494 32.208C150.907 32.208 150.358 32.0987 149.846 31.88C149.334 31.656 148.88 31.3493 148.486 30.96C148.096 30.5653 147.792 30.112 147.574 29.6C147.355 29.088 147.246 28.536 147.246 27.944C147.246 27.3733 147.352 26.8347 147.566 26.328C147.779 25.8213 148.075 25.3787 148.454 25C148.838 24.616 149.28 24.3173 149.782 24.104C150.283 23.8853 150.822 23.776 151.398 23.776C152.027 23.776 152.579 23.9253 153.054 24.224C153.528 24.5173 153.912 24.8987 154.206 25.368L154.158 24ZM151.47 30.904C151.998 30.904 152.454 30.776 152.838 30.52C153.227 30.2587 153.526 29.9067 153.734 29.464C153.947 29.0213 154.054 28.5333 154.054 28C154.054 27.456 153.947 26.9653 153.734 26.528C153.52 26.0853 153.219 25.736 152.83 25.48C152.446 25.2187 151.992 25.088 151.47 25.088C150.942 25.088 150.462 25.2187 150.03 25.48C149.598 25.7413 149.254 26.0933 148.998 26.536C148.747 26.9733 148.622 27.4613 148.622 28C148.622 28.5387 148.752 29.0293 149.014 29.472C149.275 29.9093 149.622 30.2587 150.054 30.52C150.486 30.776 150.958 30.904 151.47 30.904ZM162.456 29.888L163.656 30.536C163.294 31.0427 162.832 31.448 162.272 31.752C161.718 32.056 161.115 32.208 160.464 32.208C159.728 32.208 159.056 32.0187 158.448 31.64C157.846 31.2613 157.363 30.7547 157 30.12C156.643 29.48 156.464 28.7733 156.464 28C156.464 27.4133 156.568 26.8667 156.776 26.36C156.984 25.848 157.27 25.4 157.632 25.016C158 24.6267 158.427 24.3227 158.912 24.104C159.398 23.8853 159.915 23.776 160.464 23.776C161.115 23.776 161.718 23.928 162.272 24.232C162.832 24.536 163.294 24.944 163.656 25.456L162.456 26.104C162.2 25.7893 161.896 25.5467 161.544 25.376C161.192 25.2053 160.832 25.12 160.464 25.12C159.968 25.12 159.518 25.2533 159.112 25.52C158.712 25.7813 158.395 26.1307 158.16 26.568C157.926 27.0053 157.808 27.4827 157.808 28C157.808 28.5173 157.926 28.9947 158.16 29.432C158.4 29.864 158.72 30.2107 159.12 30.472C159.526 30.7333 159.974 30.864 160.464 30.864C160.859 30.864 161.23 30.7733 161.576 30.592C161.923 30.4107 162.216 30.176 162.456 29.888ZM170.472 29.888L171.672 30.536C171.309 31.0427 170.848 31.448 170.288 31.752C169.733 32.056 169.131 32.208 168.48 32.208C167.744 32.208 167.072 32.0187 166.464 31.64C165.861 31.2613 165.379 30.7547 165.016 30.12C164.659 29.48 164.48 28.7733 164.48 28C164.48 27.4133 164.584 26.8667 164.792 26.36C165 25.848 165.285 25.4 165.648 25.016C166.016 24.6267 166.443 24.3227 166.928 24.104C167.413 23.8853 167.931 23.776 168.48 23.776C169.131 23.776 169.733 23.928 170.288 24.232C170.848 24.536 171.309 24.944 171.672 25.456L170.472 26.104C170.216 25.7893 169.912 25.5467 169.56 25.376C169.208 25.2053 168.848 25.12 168.48 25.12C167.984 25.12 167.533 25.2533 167.128 25.52C166.728 25.7813 166.411 26.1307 166.176 26.568C165.941 27.0053 165.824 27.4827 165.824 28C165.824 28.5173 165.941 28.9947 166.176 29.432C166.416 29.864 166.736 30.2107 167.136 30.472C167.541 30.7333 167.989 30.864 168.48 30.864C168.875 30.864 169.245 30.7733 169.592 30.592C169.939 30.4107 170.232 30.176 170.472 29.888ZM176.496 32.208C175.76 32.208 175.088 32.0187 174.48 31.64C173.877 31.2613 173.394 30.7547 173.032 30.12C172.674 29.48 172.496 28.7733 172.496 28C172.496 27.4133 172.6 26.8667 172.808 26.36C173.016 25.848 173.301 25.4 173.664 25.016C174.032 24.6267 174.458 24.3227 174.944 24.104C175.429 23.8853 175.946 23.776 176.496 23.776C177.098 23.776 177.65 23.8987 178.152 24.144C178.658 24.384 179.09 24.72 179.448 25.152C179.81 25.584 180.08 26.0853 180.256 26.656C180.437 27.2267 180.504 27.8373 180.456 28.488H173.928C173.992 28.9413 174.141 29.3467 174.376 29.704C174.61 30.056 174.909 30.336 175.272 30.544C175.64 30.752 176.048 30.8587 176.496 30.864C176.976 30.864 177.41 30.7413 177.8 30.496C178.189 30.2453 178.504 29.904 178.744 29.472L180.112 29.792C179.792 30.5013 179.309 31.0827 178.664 31.536C178.018 31.984 177.296 32.208 176.496 32.208ZM173.888 27.432H179.104C179.061 26.984 178.917 26.576 178.672 26.208C178.426 25.8347 178.114 25.536 177.736 25.312C177.357 25.088 176.944 24.976 176.496 24.976C176.048 24.976 175.637 25.0853 175.264 25.304C174.89 25.5227 174.581 25.8187 174.336 26.192C174.096 26.56 173.946 26.9733 173.888 27.432ZM184.275 32.152C183.843 32.136 183.422 32.056 183.011 31.912C182.606 31.7627 182.248 31.5627 181.939 31.312C181.635 31.056 181.414 30.7627 181.275 30.432L182.427 29.936C182.507 30.1173 182.651 30.288 182.859 30.448C183.067 30.608 183.307 30.736 183.579 30.832C183.851 30.928 184.126 30.976 184.403 30.976C184.696 30.976 184.971 30.9307 185.227 30.84C185.483 30.7493 185.691 30.616 185.851 30.44C186.016 30.2587 186.099 30.0427 186.099 29.792C186.099 29.5253 186.008 29.3173 185.827 29.168C185.651 29.0133 185.427 28.8933 185.155 28.808C184.888 28.7173 184.616 28.632 184.339 28.552C183.79 28.4133 183.299 28.248 182.867 28.056C182.435 27.8587 182.094 27.6107 181.843 27.312C181.598 27.008 181.475 26.6213 181.475 26.152C181.475 25.656 181.611 25.2267 181.883 24.864C182.16 24.5013 182.523 24.2213 182.971 24.024C183.419 23.8267 183.899 23.728 184.411 23.728C185.056 23.728 185.646 23.8667 186.179 24.144C186.712 24.4213 187.11 24.7973 187.371 25.272L186.291 25.904C186.2 25.712 186.062 25.544 185.875 25.4C185.688 25.2507 185.475 25.1333 185.235 25.048C184.995 24.9627 184.75 24.9173 184.499 24.912C184.19 24.9013 183.899 24.9413 183.627 25.032C183.36 25.1227 183.144 25.2613 182.979 25.448C182.819 25.6293 182.739 25.856 182.739 26.128C182.739 26.3947 182.824 26.5973 182.995 26.736C183.171 26.8747 183.398 26.9867 183.675 27.072C183.958 27.152 184.264 27.2453 184.595 27.352C185.08 27.5067 185.534 27.6853 185.955 27.888C186.376 28.0907 186.715 28.344 186.971 28.648C187.232 28.952 187.36 29.328 187.355 29.776C187.355 30.2667 187.208 30.696 186.915 31.064C186.622 31.4267 186.24 31.704 185.771 31.896C185.307 32.088 184.808 32.1733 184.275 32.152ZM191.166 32.152C190.734 32.136 190.312 32.056 189.902 31.912C189.496 31.7627 189.139 31.5627 188.83 31.312C188.526 31.056 188.304 30.7627 188.166 30.432L189.318 29.936C189.398 30.1173 189.542 30.288 189.75 30.448C189.958 30.608 190.198 30.736 190.47 30.832C190.742 30.928 191.016 30.976 191.294 30.976C191.587 30.976 191.862 30.9307 192.118 30.84C192.374 30.7493 192.582 30.616 192.742 30.44C192.907 30.2587 192.99 30.0427 192.99 29.792C192.99 29.5253 192.899 29.3173 192.718 29.168C192.542 29.0133 192.318 28.8933 192.046 28.808C191.779 28.7173 191.507 28.632 191.23 28.552C190.68 28.4133 190.19 28.248 189.758 28.056C189.326 27.8587 188.984 27.6107 188.734 27.312C188.488 27.008 188.366 26.6213 188.366 26.152C188.366 25.656 188.502 25.2267 188.774 24.864C189.051 24.5013 189.414 24.2213 189.862 24.024C190.31 23.8267 190.79 23.728 191.302 23.728C191.947 23.728 192.536 23.8667 193.07 24.144C193.603 24.4213 194 24.7973 194.262 25.272L193.182 25.904C193.091 25.712 192.952 25.544 192.766 25.4C192.579 25.2507 192.366 25.1333 192.126 25.048C191.886 24.9627 191.64 24.9173 191.39 24.912C191.08 24.9013 190.79 24.9413 190.518 25.032C190.251 25.1227 190.035 25.2613 189.87 25.448C189.71 25.6293 189.63 25.856 189.63 26.128C189.63 26.3947 189.715 26.5973 189.886 26.736C190.062 26.8747 190.288 26.9867 190.566 27.072C190.848 27.152 191.155 27.2453 191.486 27.352C191.971 27.5067 192.424 27.6853 192.846 27.888C193.267 28.0907 193.606 28.344 193.862 28.648C194.123 28.952 194.251 29.328 194.246 29.776C194.246 30.2667 194.099 30.696 193.806 31.064C193.512 31.4267 193.131 31.704 192.662 31.896C192.198 32.088 191.699 32.1733 191.166 32.152ZM201.276 22.024V24H203.62V25.344H201.276V32H199.932V25.344H198.9V24H199.932V22.024C199.932 21.6133 200.031 21.2427 200.228 20.912C200.431 20.576 200.7 20.3093 201.036 20.112C201.377 19.9093 201.751 19.808 202.156 19.808C202.455 19.808 202.745 19.8693 203.028 19.992C203.311 20.1093 203.561 20.2853 203.78 20.52L202.82 21.472C202.745 21.3707 202.647 21.2933 202.524 21.24C202.407 21.1813 202.284 21.152 202.156 21.152C201.916 21.152 201.708 21.2373 201.532 21.408C201.361 21.5787 201.276 21.784 201.276 22.024ZM208.261 32.208C207.525 32.208 206.853 32.0187 206.245 31.64C205.643 31.2613 205.16 30.7547 204.797 30.12C204.44 29.48 204.261 28.7733 204.261 28C204.261 27.4133 204.365 26.8667 204.573 26.36C204.781 25.848 205.067 25.4 205.429 25.016C205.797 24.6267 206.224 24.3227 206.709 24.104C207.195 23.8853 207.712 23.776 208.261 23.776C208.997 23.776 209.667 23.9653 210.269 24.344C210.877 24.7227 211.36 25.232 211.717 25.872C212.08 26.512 212.261 27.2213 212.261 28C212.261 28.5813 212.157 29.1253 211.949 29.632C211.741 30.1387 211.453 30.5867 211.085 30.976C210.723 31.36 210.299 31.6613 209.813 31.88C209.333 32.0987 208.816 32.208 208.261 32.208ZM208.261 30.864C208.763 30.864 209.213 30.7333 209.613 30.472C210.019 30.2053 210.336 29.856 210.565 29.424C210.8 28.9867 210.917 28.512 210.917 28C210.917 27.4773 210.797 26.9973 210.557 26.56C210.323 26.1227 210.005 25.7733 209.605 25.512C209.205 25.2507 208.757 25.12 208.261 25.12C207.76 25.12 207.309 25.2533 206.909 25.52C206.509 25.7813 206.192 26.1307 205.957 26.568C205.723 27.0053 205.605 27.4827 205.605 28C205.605 28.5333 205.725 29.0187 205.965 29.456C206.205 29.888 206.528 30.232 206.933 30.488C207.339 30.7387 207.781 30.864 208.261 30.864ZM213.585 32V24H214.929V25C215.212 24.6267 215.569 24.3307 216.001 24.112C216.433 23.888 216.902 23.776 217.409 23.776C217.718 23.776 218.017 23.816 218.305 23.896L217.761 25.24C217.542 25.1707 217.329 25.136 217.121 25.136C216.721 25.136 216.353 25.2347 216.017 25.432C215.686 25.624 215.422 25.8853 215.225 26.216C215.028 26.5467 214.929 26.9147 214.929 27.32V32H213.585ZM223.273 32V24H224.617V25C224.899 24.6267 225.254 24.3307 225.681 24.112C226.113 23.888 226.582 23.776 227.089 23.776C227.681 23.776 228.222 23.92 228.713 24.208C229.203 24.496 229.59 24.8773 229.873 25.352C230.155 24.8773 230.539 24.496 231.025 24.208C231.515 23.92 232.054 23.776 232.641 23.776C233.243 23.776 233.79 23.9227 234.281 24.216C234.771 24.504 235.161 24.8933 235.449 25.384C235.742 25.8747 235.889 26.4213 235.889 27.024V32H234.545V27.344C234.545 26.9493 234.449 26.584 234.257 26.248C234.065 25.912 233.806 25.6427 233.481 25.44C233.155 25.2373 232.795 25.136 232.401 25.136C232.006 25.136 231.646 25.232 231.321 25.424C230.995 25.6107 230.737 25.872 230.545 26.208C230.353 26.5387 230.257 26.9173 230.257 27.344V32H228.913V27.344C228.913 26.9173 228.817 26.5387 228.625 26.208C228.433 25.872 228.171 25.6107 227.841 25.424C227.515 25.232 227.155 25.136 226.761 25.136C226.371 25.136 226.011 25.2373 225.681 25.44C225.355 25.6427 225.097 25.912 224.905 26.248C224.713 26.584 224.617 26.9493 224.617 27.344V32H223.273ZM240.855 32.208C240.119 32.208 239.447 32.0187 238.839 31.64C238.236 31.2613 237.754 30.7547 237.391 30.12C237.034 29.48 236.855 28.7733 236.855 28C236.855 27.4133 236.959 26.8667 237.167 26.36C237.375 25.848 237.66 25.4 238.023 25.016C238.391 24.6267 238.818 24.3227 239.303 24.104C239.788 23.8853 240.306 23.776 240.855 23.776C241.591 23.776 242.26 23.9653 242.863 24.344C243.471 24.7227 243.954 25.232 244.311 25.872C244.674 26.512 244.855 27.2213 244.855 28C244.855 28.5813 244.751 29.1253 244.543 29.632C244.335 30.1387 244.047 30.5867 243.679 30.976C243.316 31.36 242.892 31.6613 242.407 31.88C241.927 32.0987 241.41 32.208 240.855 32.208ZM240.855 30.864C241.356 30.864 241.807 30.7333 242.207 30.472C242.612 30.2053 242.93 29.856 243.159 29.424C243.394 28.9867 243.511 28.512 243.511 28C243.511 27.4773 243.391 26.9973 243.151 26.56C242.916 26.1227 242.599 25.7733 242.199 25.512C241.799 25.2507 241.351 25.12 240.855 25.12C240.354 25.12 239.903 25.2533 239.503 25.52C239.103 25.7813 238.786 26.1307 238.551 26.568C238.316 27.0053 238.199 27.4827 238.199 28C238.199 28.5333 238.319 29.0187 238.559 29.456C238.799 29.888 239.122 30.232 239.527 30.488C239.932 30.7387 240.375 30.864 240.855 30.864ZM246.179 32V24H247.523V25C247.805 24.6267 248.163 24.3307 248.595 24.112C249.027 23.888 249.496 23.776 250.003 23.776C250.312 23.776 250.611 23.816 250.899 23.896L250.355 25.24C250.136 25.1707 249.923 25.136 249.715 25.136C249.315 25.136 248.947 25.2347 248.611 25.432C248.28 25.624 248.016 25.8853 247.819 26.216C247.621 26.5467 247.523 26.9147 247.523 27.32V32H246.179ZM258.985 27.024V32H257.641V27.32C257.641 26.9147 257.542 26.5467 257.345 26.216C257.148 25.8853 256.884 25.624 256.553 25.432C256.222 25.2347 255.854 25.136 255.449 25.136C255.049 25.136 254.681 25.2347 254.345 25.432C254.014 25.624 253.75 25.8853 253.553 26.216C253.356 26.5467 253.257 26.9147 253.257 27.32V32H251.913V24H253.257V25C253.54 24.6267 253.897 24.3307 254.329 24.112C254.761 23.888 255.23 23.776 255.737 23.776C256.334 23.776 256.878 23.9227 257.369 24.216C257.865 24.504 258.257 24.8933 258.545 25.384C258.838 25.8747 258.985 26.4213 258.985 27.024ZM260.585 24H261.929V32H260.585V24ZM261.273 22.696C261.06 22.696 260.881 22.6267 260.737 22.488C260.593 22.3493 260.521 22.176 260.521 21.968C260.521 21.76 260.593 21.5867 260.737 21.448C260.881 21.3093 261.057 21.24 261.265 21.24C261.473 21.24 261.649 21.3093 261.793 21.448C261.937 21.5867 262.009 21.76 262.009 21.968C262.009 22.176 261.937 22.3493 261.793 22.488C261.654 22.6267 261.481 22.696 261.273 22.696ZM270.891 27.024V32H269.547V27.32C269.547 26.9147 269.449 26.5467 269.251 26.216C269.054 25.8853 268.79 25.624 268.459 25.432C268.129 25.2347 267.761 25.136 267.355 25.136C266.955 25.136 266.587 25.2347 266.251 25.432C265.921 25.624 265.657 25.8853 265.459 26.216C265.262 26.5467 265.163 26.9147 265.163 27.32V32H263.819V24H265.163V25C265.446 24.6267 265.803 24.3307 266.235 24.112C266.667 23.888 267.137 23.776 267.643 23.776C268.241 23.776 268.785 23.9227 269.275 24.216C269.771 24.504 270.163 24.8933 270.451 25.384C270.745 25.8747 270.891 26.4213 270.891 27.024ZM278.583 24H279.927V32.256C279.927 32.784 279.812 33.2747 279.583 33.728C279.359 34.1867 279.055 34.584 278.671 34.92C278.287 35.2613 277.85 35.5253 277.359 35.712C276.868 35.904 276.356 36 275.823 36C275.268 36 274.732 35.8747 274.215 35.624C273.698 35.3787 273.244 35.048 272.855 34.632C272.471 34.2213 272.194 33.76 272.023 33.248L273.255 32.688C273.356 33.056 273.538 33.3867 273.799 33.68C274.066 33.9787 274.375 34.2133 274.727 34.384C275.084 34.56 275.45 34.648 275.823 34.648C276.175 34.648 276.514 34.5867 276.839 34.464C277.17 34.3413 277.466 34.1707 277.727 33.952C277.994 33.7387 278.202 33.4853 278.351 33.192C278.506 32.904 278.583 32.592 278.583 32.256V30.664C278.311 31.1227 277.951 31.496 277.503 31.784C277.06 32.0667 276.543 32.208 275.951 32.208C275.386 32.208 274.855 32.0987 274.359 31.88C273.863 31.6613 273.428 31.36 273.055 30.976C272.682 30.5867 272.388 30.1387 272.175 29.632C271.962 29.1253 271.855 28.5813 271.855 28C271.855 27.4187 271.962 26.8747 272.175 26.368C272.388 25.856 272.682 25.408 273.055 25.024C273.428 24.6347 273.863 24.3307 274.359 24.112C274.855 23.8933 275.386 23.784 275.951 23.784C276.543 23.784 277.06 23.9253 277.503 24.208C277.951 24.4907 278.311 24.864 278.583 25.328V24ZM275.959 30.904C276.476 30.904 276.924 30.7707 277.303 30.504C277.687 30.2373 277.983 29.8827 278.191 29.44C278.399 28.9973 278.503 28.5173 278.503 28C278.503 27.4667 278.396 26.9813 278.183 26.544C277.975 26.1013 277.679 25.7493 277.295 25.488C276.916 25.2213 276.471 25.088 275.959 25.088C275.458 25.088 274.999 25.2187 274.583 25.48C274.167 25.7413 273.836 26.0933 273.591 26.536C273.351 26.9733 273.231 27.4613 273.231 28C273.231 28.5387 273.354 29.0293 273.599 29.472C273.85 29.9093 274.18 30.2587 274.591 30.52C275.007 30.776 275.463 30.904 275.959 30.904ZM288.134 32.152C287.702 32.136 287.281 32.056 286.87 31.912C286.465 31.7627 286.108 31.5627 285.798 31.312C285.494 31.056 285.273 30.7627 285.134 30.432L286.286 29.936C286.366 30.1173 286.51 30.288 286.718 30.448C286.926 30.608 287.166 30.736 287.438 30.832C287.71 30.928 287.985 30.976 288.262 30.976C288.556 30.976 288.83 30.9307 289.086 30.84C289.342 30.7493 289.55 30.616 289.71 30.44C289.876 30.2587 289.958 30.0427 289.958 29.792C289.958 29.5253 289.868 29.3173 289.686 29.168C289.51 29.0133 289.286 28.8933 289.014 28.808C288.748 28.7173 288.476 28.632 288.198 28.552C287.649 28.4133 287.158 28.248 286.726 28.056C286.294 27.8587 285.953 27.6107 285.702 27.312C285.457 27.008 285.334 26.6213 285.334 26.152C285.334 25.656 285.47 25.2267 285.742 24.864C286.02 24.5013 286.382 24.2213 286.83 24.024C287.278 23.8267 287.758 23.728 288.27 23.728C288.916 23.728 289.505 23.8667 290.038 24.144C290.572 24.4213 290.969 24.7973 291.23 25.272L290.15 25.904C290.06 25.712 289.921 25.544 289.734 25.4C289.548 25.2507 289.334 25.1333 289.094 25.048C288.854 24.9627 288.609 24.9173 288.358 24.912C288.049 24.9013 287.758 24.9413 287.486 25.032C287.22 25.1227 287.004 25.2613 286.838 25.448C286.678 25.6293 286.598 25.856 286.598 26.128C286.598 26.3947 286.684 26.5973 286.854 26.736C287.03 26.8747 287.257 26.9867 287.534 27.072C287.817 27.152 288.124 27.2453 288.454 27.352C288.94 27.5067 289.393 27.6853 289.814 27.888C290.236 28.0907 290.574 28.344 290.83 28.648C291.092 28.952 291.22 29.328 291.214 29.776C291.214 30.2667 291.068 30.696 290.774 31.064C290.481 31.4267 290.1 31.704 289.63 31.896C289.166 32.088 288.668 32.1733 288.134 32.152ZM296.729 25.344H294.913L294.905 32H293.561L293.569 25.344H292.193V24H293.569L293.561 21.488H294.905L294.913 24H296.729V25.344ZM298.163 32V24H299.507V25C299.79 24.6267 300.147 24.3307 300.579 24.112C301.011 23.888 301.48 23.776 301.987 23.776C302.296 23.776 302.595 23.816 302.883 23.896L302.339 25.24C302.12 25.1707 301.907 25.136 301.699 25.136C301.299 25.136 300.931 25.2347 300.595 25.432C300.264 25.624 300 25.8853 299.803 26.216C299.606 26.5467 299.507 26.9147 299.507 27.32V32H298.163ZM306.98 32.208C306.244 32.208 305.572 32.0187 304.964 31.64C304.361 31.2613 303.879 30.7547 303.516 30.12C303.159 29.48 302.98 28.7733 302.98 28C302.98 27.4133 303.084 26.8667 303.292 26.36C303.5 25.848 303.785 25.4 304.148 25.016C304.516 24.6267 304.943 24.3227 305.428 24.104C305.913 23.8853 306.431 23.776 306.98 23.776C307.716 23.776 308.385 23.9653 308.988 24.344C309.596 24.7227 310.079 25.232 310.436 25.872C310.799 26.512 310.98 27.2213 310.98 28C310.98 28.5813 310.876 29.1253 310.668 29.632C310.46 30.1387 310.172 30.5867 309.804 30.976C309.441 31.36 309.017 31.6613 308.532 31.88C308.052 32.0987 307.535 32.208 306.98 32.208ZM306.98 30.864C307.481 30.864 307.932 30.7333 308.332 30.472C308.737 30.2053 309.055 29.856 309.284 29.424C309.519 28.9867 309.636 28.512 309.636 28C309.636 27.4773 309.516 26.9973 309.276 26.56C309.041 26.1227 308.724 25.7733 308.324 25.512C307.924 25.2507 307.476 25.12 306.98 25.12C306.479 25.12 306.028 25.2533 305.628 25.52C305.228 25.7813 304.911 26.1307 304.676 26.568C304.441 27.0053 304.324 27.4827 304.324 28C304.324 28.5333 304.444 29.0187 304.684 29.456C304.924 29.888 305.247 30.232 305.652 30.488C306.057 30.7387 306.5 30.864 306.98 30.864ZM312.226 32V20H313.57V32H312.226ZM315.491 32V20H316.835V32H315.491ZM321.197 32.152C320.765 32.136 320.344 32.056 319.933 31.912C319.528 31.7627 319.17 31.5627 318.861 31.312C318.557 31.056 318.336 30.7627 318.197 30.432L319.349 29.936C319.429 30.1173 319.573 30.288 319.781 30.448C319.989 30.608 320.229 30.736 320.501 30.832C320.773 30.928 321.048 30.976 321.325 30.976C321.618 30.976 321.893 30.9307 322.149 30.84C322.405 30.7493 322.613 30.616 322.773 30.44C322.938 30.2587 323.021 30.0427 323.021 29.792C323.021 29.5253 322.93 29.3173 322.749 29.168C322.573 29.0133 322.349 28.8933 322.077 28.808C321.81 28.7173 321.538 28.632 321.261 28.552C320.712 28.4133 320.221 28.248 319.789 28.056C319.357 27.8587 319.016 27.6107 318.765 27.312C318.52 27.008 318.397 26.6213 318.397 26.152C318.397 25.656 318.533 25.2267 318.805 24.864C319.082 24.5013 319.445 24.2213 319.893 24.024C320.341 23.8267 320.821 23.728 321.333 23.728C321.978 23.728 322.568 23.8667 323.101 24.144C323.634 24.4213 324.032 24.7973 324.293 25.272L323.213 25.904C323.122 25.712 322.984 25.544 322.797 25.4C322.61 25.2507 322.397 25.1333 322.157 25.048C321.917 24.9627 321.672 24.9173 321.421 24.912C321.112 24.9013 320.821 24.9413 320.549 25.032C320.282 25.1227 320.066 25.2613 319.901 25.448C319.741 25.6293 319.661 25.856 319.661 26.128C319.661 26.3947 319.746 26.5973 319.917 26.736C320.093 26.8747 320.32 26.9867 320.597 27.072C320.88 27.152 321.186 27.2453 321.517 27.352C322.002 27.5067 322.456 27.6853 322.877 27.888C323.298 28.0907 323.637 28.344 323.893 28.648C324.154 28.952 324.282 29.328 324.277 29.776C324.277 30.2667 324.13 30.696 323.837 31.064C323.544 31.4267 323.162 31.704 322.693 31.896C322.229 32.088 321.73 32.1733 321.197 32.152ZM335.923 24H337.267V32H335.923L335.867 30.648C335.617 31.112 335.27 31.488 334.827 31.776C334.39 32.064 333.867 32.208 333.259 32.208C332.673 32.208 332.123 32.0987 331.611 31.88C331.099 31.656 330.646 31.3493 330.251 30.96C329.862 30.5653 329.558 30.112 329.339 29.6C329.121 29.088 329.011 28.536 329.011 27.944C329.011 27.3733 329.118 26.8347 329.331 26.328C329.545 25.8213 329.841 25.3787 330.219 25C330.603 24.616 331.046 24.3173 331.547 24.104C332.049 23.8853 332.587 23.776 333.163 23.776C333.793 23.776 334.345 23.9253 334.819 24.224C335.294 24.5173 335.678 24.8987 335.971 25.368L335.923 24ZM333.235 30.904C333.763 30.904 334.219 30.776 334.603 30.52C334.993 30.2587 335.291 29.9067 335.499 29.464C335.713 29.0213 335.819 28.5333 335.819 28C335.819 27.456 335.713 26.9653 335.499 26.528C335.286 26.0853 334.985 25.736 334.595 25.48C334.211 25.2187 333.758 25.088 333.235 25.088C332.707 25.088 332.227 25.2187 331.795 25.48C331.363 25.7413 331.019 26.0933 330.763 26.536C330.513 26.9733 330.387 27.4613 330.387 28C330.387 28.5387 330.518 29.0293 330.779 29.472C331.041 29.9093 331.387 30.2587 331.819 30.52C332.251 30.776 332.723 30.904 333.235 30.904ZM345.938 27.024V32H344.594V27.32C344.594 26.9147 344.496 26.5467 344.298 26.216C344.101 25.8853 343.837 25.624 343.506 25.432C343.176 25.2347 342.808 25.136 342.402 25.136C342.002 25.136 341.634 25.2347 341.298 25.432C340.968 25.624 340.704 25.8853 340.506 26.216C340.309 26.5467 340.21 26.9147 340.21 27.32V32H338.866V24H340.21V25C340.493 24.6267 340.85 24.3307 341.282 24.112C341.714 23.888 342.184 23.776 342.69 23.776C343.288 23.776 343.832 23.9227 344.322 24.216C344.818 24.504 345.21 24.8933 345.498 25.384C345.792 25.8747 345.938 26.4213 345.938 27.024ZM353.822 20H355.166V32H353.822V30.64C353.55 31.1093 353.185 31.488 352.726 31.776C352.267 32.064 351.729 32.208 351.11 32.208C350.529 32.208 349.985 32.0987 349.478 31.88C348.971 31.6613 348.523 31.36 348.134 30.976C347.75 30.5867 347.449 30.1387 347.23 29.632C347.011 29.1253 346.902 28.5813 346.902 28C346.902 27.4187 347.011 26.8747 347.23 26.368C347.449 25.856 347.75 25.408 348.134 25.024C348.523 24.6347 348.971 24.3307 349.478 24.112C349.985 23.8933 350.529 23.784 351.11 23.784C351.729 23.784 352.267 23.928 352.726 24.216C353.185 24.504 353.55 24.8827 353.822 25.352V20ZM351.126 30.904C351.654 30.904 352.11 30.776 352.494 30.52C352.883 30.2587 353.182 29.9067 353.39 29.464C353.603 29.0213 353.71 28.5333 353.71 28C353.71 27.456 353.603 26.9653 353.39 26.528C353.177 26.0853 352.875 25.736 352.486 25.48C352.102 25.2187 351.649 25.088 351.126 25.088C350.598 25.088 350.118 25.2187 349.686 25.48C349.259 25.7413 348.918 26.0933 348.662 26.536C348.406 26.9733 348.278 27.4613 348.278 28C348.278 28.5387 348.409 29.0293 348.67 29.472C348.931 29.9093 349.278 30.2587 349.71 30.52C350.142 30.776 350.614 30.904 351.126 30.904ZM363.369 32.152C362.937 32.136 362.515 32.056 362.105 31.912C361.699 31.7627 361.342 31.5627 361.033 31.312C360.729 31.056 360.507 30.7627 360.369 30.432L361.521 29.936C361.601 30.1173 361.745 30.288 361.953 30.448C362.161 30.608 362.401 30.736 362.673 30.832C362.945 30.928 363.219 30.976 363.497 30.976C363.79 30.976 364.065 30.9307 364.321 30.84C364.577 30.7493 364.785 30.616 364.945 30.44C365.11 30.2587 365.193 30.0427 365.193 29.792C365.193 29.5253 365.102 29.3173 364.921 29.168C364.745 29.0133 364.521 28.8933 364.249 28.808C363.982 28.7173 363.71 28.632 363.433 28.552C362.883 28.4133 362.393 28.248 361.961 28.056C361.529 27.8587 361.187 27.6107 360.937 27.312C360.691 27.008 360.569 26.6213 360.569 26.152C360.569 25.656 360.705 25.2267 360.977 24.864C361.254 24.5013 361.617 24.2213 362.065 24.024C362.513 23.8267 362.993 23.728 363.505 23.728C364.15 23.728 364.739 23.8667 365.273 24.144C365.806 24.4213 366.203 24.7973 366.465 25.272L365.385 25.904C365.294 25.712 365.155 25.544 364.969 25.4C364.782 25.2507 364.569 25.1333 364.329 25.048C364.089 24.9627 363.843 24.9173 363.593 24.912C363.283 24.9013 362.993 24.9413 362.721 25.032C362.454 25.1227 362.238 25.2613 362.073 25.448C361.913 25.6293 361.833 25.856 361.833 26.128C361.833 26.3947 361.918 26.5973 362.089 26.736C362.265 26.8747 362.491 26.9867 362.769 27.072C363.051 27.152 363.358 27.2453 363.689 27.352C364.174 27.5067 364.627 27.6853 365.049 27.888C365.47 28.0907 365.809 28.344 366.065 28.648C366.326 28.952 366.454 29.328 366.449 29.776C366.449 30.2667 366.302 30.696 366.009 31.064C365.715 31.4267 365.334 31.704 364.865 31.896C364.401 32.088 363.902 32.1733 363.369 32.152ZM367.499 28.96V24H368.843V28.664C368.843 29.0693 368.942 29.4373 369.139 29.768C369.337 30.0987 369.601 30.3627 369.931 30.56C370.267 30.752 370.635 30.848 371.035 30.848C371.441 30.848 371.806 30.752 372.131 30.56C372.462 30.3627 372.726 30.0987 372.923 29.768C373.121 29.4373 373.219 29.0693 373.219 28.664V24H374.563L374.571 32H373.227L373.219 30.984C372.937 31.3573 372.579 31.656 372.147 31.88C371.715 32.0987 371.249 32.208 370.747 32.208C370.15 32.208 369.603 32.064 369.107 31.776C368.617 31.4827 368.225 31.0907 367.931 30.6C367.643 30.1093 367.499 29.5627 367.499 28.96ZM383.251 27.024V32H381.907V27.32C381.907 26.9147 381.808 26.5467 381.611 26.216C381.413 25.8853 381.149 25.624 380.819 25.432C380.488 25.2347 380.12 25.136 379.715 25.136C379.315 25.136 378.947 25.2347 378.611 25.432C378.28 25.624 378.016 25.8853 377.819 26.216C377.621 26.5467 377.523 26.9147 377.523 27.32V32H376.179V24H377.523V25C377.805 24.6267 378.163 24.3307 378.595 24.112C379.027 23.888 379.496 23.776 380.003 23.776C380.6 23.776 381.144 23.9227 381.635 24.216C382.131 24.504 382.523 24.8933 382.811 25.384C383.104 25.8747 383.251 26.4213 383.251 27.024ZM387.291 32.152C386.859 32.136 386.437 32.056 386.027 31.912C385.621 31.7627 385.264 31.5627 384.955 31.312C384.651 31.056 384.429 30.7627 384.291 30.432L385.443 29.936C385.523 30.1173 385.667 30.288 385.875 30.448C386.083 30.608 386.323 30.736 386.595 30.832C386.867 30.928 387.141 30.976 387.419 30.976C387.712 30.976 387.987 30.9307 388.243 30.84C388.499 30.7493 388.707 30.616 388.867 30.44C389.032 30.2587 389.115 30.0427 389.115 29.792C389.115 29.5253 389.024 29.3173 388.843 29.168C388.667 29.0133 388.443 28.8933 388.171 28.808C387.904 28.7173 387.632 28.632 387.355 28.552C386.805 28.4133 386.315 28.248 385.883 28.056C385.451 27.8587 385.109 27.6107 384.859 27.312C384.613 27.008 384.491 26.6213 384.491 26.152C384.491 25.656 384.627 25.2267 384.899 24.864C385.176 24.5013 385.539 24.2213 385.987 24.024C386.435 23.8267 386.915 23.728 387.427 23.728C388.072 23.728 388.661 23.8667 389.195 24.144C389.728 24.4213 390.125 24.7973 390.387 25.272L389.307 25.904C389.216 25.712 389.077 25.544 388.891 25.4C388.704 25.2507 388.491 25.1333 388.251 25.048C388.011 24.9627 387.765 24.9173 387.515 24.912C387.205 24.9013 386.915 24.9413 386.643 25.032C386.376 25.1227 386.16 25.2613 385.995 25.448C385.835 25.6293 385.755 25.856 385.755 26.128C385.755 26.3947 385.84 26.5973 386.011 26.736C386.187 26.8747 386.413 26.9867 386.691 27.072C386.973 27.152 387.28 27.2453 387.611 27.352C388.096 27.5067 388.549 27.6853 388.971 27.888C389.392 28.0907 389.731 28.344 389.987 28.648C390.248 28.952 390.376 29.328 390.371 29.776C390.371 30.2667 390.224 30.696 389.931 31.064C389.637 31.4267 389.256 31.704 388.787 31.896C388.323 32.088 387.824 32.1733 387.291 32.152ZM395.183 32.208C394.447 32.208 393.775 32.0187 393.167 31.64C392.564 31.2613 392.082 30.7547 391.719 30.12C391.362 29.48 391.183 28.7733 391.183 28C391.183 27.4133 391.287 26.8667 391.495 26.36C391.703 25.848 391.988 25.4 392.351 25.016C392.719 24.6267 393.146 24.3227 393.631 24.104C394.116 23.8853 394.634 23.776 395.183 23.776C395.786 23.776 396.338 23.8987 396.839 24.144C397.346 24.384 397.778 24.72 398.135 25.152C398.498 25.584 398.767 26.0853 398.943 26.656C399.124 27.2267 399.191 27.8373 399.143 28.488H392.615C392.679 28.9413 392.828 29.3467 393.063 29.704C393.298 30.056 393.596 30.336 393.959 30.544C394.327 30.752 394.735 30.8587 395.183 30.864C395.663 30.864 396.098 30.7413 396.487 30.496C396.876 30.2453 397.191 29.904 397.431 29.472L398.799 29.792C398.479 30.5013 397.996 31.0827 397.351 31.536C396.706 31.984 395.983 32.208 395.183 32.208ZM392.575 27.432H397.791C397.748 26.984 397.604 26.576 397.359 26.208C397.114 25.8347 396.802 25.536 396.423 25.312C396.044 25.088 395.631 24.976 395.183 24.976C394.735 24.976 394.324 25.0853 393.951 25.304C393.578 25.5227 393.268 25.8187 393.023 26.192C392.783 26.56 392.634 26.9733 392.575 27.432ZM404.542 25.344H402.726L402.718 32H401.374L401.382 25.344H400.006V24H401.382L401.374 21.488H402.718L402.726 24H404.542V25.344ZM413.979 32H412.259L409.339 23.984H410.771L413.115 30.44L415.459 23.984H416.891L413.979 32ZM418.194 24H419.538V32H418.194V24ZM418.882 22.696C418.669 22.696 418.49 22.6267 418.346 22.488C418.202 22.3493 418.13 22.176 418.13 21.968C418.13 21.76 418.202 21.5867 418.346 21.448C418.49 21.3093 418.666 21.24 418.874 21.24C419.082 21.24 419.258 21.3093 419.402 21.448C419.546 21.5867 419.618 21.76 419.618 21.968C419.618 22.176 419.546 22.3493 419.402 22.488C419.264 22.6267 419.09 22.696 418.882 22.696ZM424.871 32.208C424.135 32.208 423.463 32.0187 422.855 31.64C422.252 31.2613 421.769 30.7547 421.407 30.12C421.049 29.48 420.871 28.7733 420.871 28C420.871 27.4133 420.975 26.8667 421.183 26.36C421.391 25.848 421.676 25.4 422.039 25.016C422.407 24.6267 422.833 24.3227 423.319 24.104C423.804 23.8853 424.321 23.776 424.871 23.776C425.473 23.776 426.025 23.8987 426.527 24.144C427.033 24.384 427.465 24.72 427.823 25.152C428.185 25.584 428.455 26.0853 428.631 26.656C428.812 27.2267 428.879 27.8373 428.831 28.488H422.303C422.367 28.9413 422.516 29.3467 422.751 29.704C422.985 30.056 423.284 30.336 423.647 30.544C424.015 30.752 424.423 30.8587 424.871 30.864C425.351 30.864 425.785 30.7413 426.175 30.496C426.564 30.2453 426.879 29.904 427.119 29.472L428.487 29.792C428.167 30.5013 427.684 31.0827 427.039 31.536C426.393 31.984 425.671 32.208 424.871 32.208ZM422.263 27.432H427.479C427.436 26.984 427.292 26.576 427.047 26.208C426.801 25.8347 426.489 25.536 426.111 25.312C425.732 25.088 425.319 24.976 424.871 24.976C424.423 24.976 424.012 25.0853 423.639 25.304C423.265 25.5227 422.956 25.8187 422.711 26.192C422.471 26.56 422.321 26.9733 422.263 27.432ZM433.379 32H432.019L429.339 24H430.651L432.715 30.104L434.755 24H436.139L438.187 30.104L440.227 24H441.555L438.875 32H437.507L435.435 25.84L433.379 32ZM445.244 32.152C444.812 32.136 444.39 32.056 443.98 31.912C443.574 31.7627 443.217 31.5627 442.908 31.312C442.604 31.056 442.382 30.7627 442.244 30.432L443.396 29.936C443.476 30.1173 443.62 30.288 443.828 30.448C444.036 30.608 444.276 30.736 444.548 30.832C444.82 30.928 445.094 30.976 445.372 30.976C445.665 30.976 445.94 30.9307 446.196 30.84C446.452 30.7493 446.66 30.616 446.82 30.44C446.985 30.2587 447.068 30.0427 447.068 29.792C447.068 29.5253 446.977 29.3173 446.796 29.168C446.62 29.0133 446.396 28.8933 446.124 28.808C445.857 28.7173 445.585 28.632 445.308 28.552C444.758 28.4133 444.268 28.248 443.836 28.056C443.404 27.8587 443.062 27.6107 442.812 27.312C442.566 27.008 442.444 26.6213 442.444 26.152C442.444 25.656 442.58 25.2267 442.852 24.864C443.129 24.5013 443.492 24.2213 443.94 24.024C444.388 23.8267 444.868 23.728 445.38 23.728C446.025 23.728 446.614 23.8667 447.148 24.144C447.681 24.4213 448.078 24.7973 448.34 25.272L447.26 25.904C447.169 25.712 447.03 25.544 446.844 25.4C446.657 25.2507 446.444 25.1333 446.204 25.048C445.964 24.9627 445.718 24.9173 445.468 24.912C445.158 24.9013 444.868 24.9413 444.596 25.032C444.329 25.1227 444.113 25.2613 443.948 25.448C443.788 25.6293 443.708 25.856 443.708 26.128C443.708 26.3947 443.793 26.5973 443.964 26.736C444.14 26.8747 444.366 26.9867 444.644 27.072C444.926 27.152 445.233 27.2453 445.564 27.352C446.049 27.5067 446.502 27.6853 446.924 27.888C447.345 28.0907 447.684 28.344 447.94 28.648C448.201 28.952 448.329 29.328 448.324 29.776C448.324 30.2667 448.177 30.696 447.884 31.064C447.59 31.4267 447.209 31.704 446.74 31.896C446.276 32.088 445.777 32.1733 445.244 32.152Z" fill="#999999"></path><defs><linearGradient id="paint0_linear_166_858" x1="-3.42044e-06" y1="25.4468" x2="550" y2="25.4468" gradientUnits="userSpaceOnUse"><stop stop-color="#1A1A1A"></stop><stop offset="1" stop-color="#1A1A1A" stop-opacity="0"></stop></linearGradient></defs></svg>