<svg xmlns="http://www.w3.org/2000/svg" width="550" height="52" viewBox="0 0 550 52" fill="none"><mask id="path-1-inside-1_166_854" fill="white"><path d="M0 0H550V52H0V0Z"></path></mask><path d="M0 0H550V52H0V0Z" fill="url(#paint0_linear_166_854)"></path><path d="M1 52V0H-1V52H1Z" fill="#703BF7" mask="url(#path-1-inside-1_166_854)"></path><path fill-rule="evenodd" clip-rule="evenodd" d="M28.1794 17.3291C28.4304 17.4691 28.5536 17.7622 28.478 18.0394L26.8183 24.125H32.875C33.1239 24.125 33.349 24.2727 33.4482 24.5009C33.5474 24.7292 33.5017 24.9945 33.3319 25.1764L24.5819 34.5514C24.3858 34.7616 24.0717 34.8108 23.8207 34.6709C23.5696 34.5309 23.4464 34.2378 23.522 33.9605L25.1817 27.875H19.125C18.8761 27.875 18.651 27.7273 18.5518 27.4991C18.4526 27.2708 18.4983 27.0055 18.6681 26.8235L27.4181 17.4485C27.6142 17.2384 27.9283 17.1892 28.1794 17.3291Z" fill="white"></path><path d="M52.152 32.208C51.3787 32.208 50.656 32.0587 49.984 31.76C49.3173 31.456 48.7333 31.0373 48.232 30.504C47.736 29.9653 47.3467 29.3467 47.064 28.648C46.7813 27.944 46.64 27.192 46.64 26.392C46.64 25.5653 46.7867 24.8 47.08 24.096C47.3787 23.392 47.784 22.7787 48.296 22.256C48.8133 21.7333 49.4027 21.328 50.064 21.04C50.7307 20.7467 51.4347 20.6 52.176 20.6C53.0187 20.6 53.8213 20.7973 54.584 21.192C55.3467 21.5867 56.0027 22.1573 56.552 22.904L55.352 23.552C54.9413 23.0293 54.4533 22.6293 53.888 22.352C53.328 22.0747 52.752 21.936 52.16 21.936C51.5947 21.936 51.0587 22.0507 50.552 22.28C50.0507 22.5093 49.6053 22.8293 49.216 23.24C48.832 23.6507 48.5307 24.1253 48.312 24.664C48.0933 25.2027 47.984 25.7867 47.984 26.416C47.984 27.0293 48.0933 27.6053 48.312 28.144C48.5307 28.6827 48.8293 29.1573 49.208 29.568C49.592 29.9733 50.0373 30.2907 50.544 30.52C51.0507 30.7493 51.592 30.864 52.168 30.864C52.6267 30.864 53.0613 30.7867 53.472 30.632C53.888 30.4773 54.2693 30.2587 54.616 29.976C54.968 29.6933 55.2667 29.36 55.512 28.976C55.7627 28.592 55.952 28.1707 56.08 27.712H53.32V26.512H57.648C57.6427 27.296 57.4933 28.032 57.2 28.72C56.912 29.408 56.5147 30.0133 56.008 30.536C55.5067 31.0587 54.9253 31.4693 54.264 31.768C53.608 32.0613 52.904 32.208 52.152 32.208ZM62.6206 32.208C61.8846 32.208 61.2126 32.0187 60.6046 31.64C60.002 31.2613 59.5193 30.7547 59.1566 30.12C58.7993 29.48 58.6206 28.7733 58.6206 28C58.6206 27.4133 58.7246 26.8667 58.9326 26.36C59.1406 25.848 59.426 25.4 59.7886 25.016C60.1566 24.6267 60.5833 24.3227 61.0686 24.104C61.554 23.8853 62.0713 23.776 62.6206 23.776C63.3566 23.776 64.026 23.9653 64.6286 24.344C65.2366 24.7227 65.7193 25.232 66.0766 25.872C66.4393 26.512 66.6206 27.2213 66.6206 28C66.6206 28.5813 66.5166 29.1253 66.3086 29.632C66.1006 30.1387 65.8126 30.5867 65.4446 30.976C65.082 31.36 64.658 31.6613 64.1726 31.88C63.6926 32.0987 63.1753 32.208 62.6206 32.208ZM62.6206 30.864C63.122 30.864 63.5726 30.7333 63.9726 30.472C64.378 30.2053 64.6953 29.856 64.9246 29.424C65.1593 28.9867 65.2766 28.512 65.2766 28C65.2766 27.4773 65.1566 26.9973 64.9166 26.56C64.682 26.1227 64.3646 25.7733 63.9646 25.512C63.5646 25.2507 63.1166 25.12 62.6206 25.12C62.1193 25.12 61.6686 25.2533 61.2686 25.52C60.8686 25.7813 60.5513 26.1307 60.3166 26.568C60.082 27.0053 59.9646 27.4827 59.9646 28C59.9646 28.5333 60.0846 29.0187 60.3246 29.456C60.5646 29.888 60.8873 30.232 61.2926 30.488C61.698 30.7387 62.1406 30.864 62.6206 30.864ZM67.515 28.96V24H68.859V28.664C68.859 29.0693 68.9577 29.4373 69.155 29.768C69.3523 30.0987 69.6163 30.3627 69.947 30.56C70.283 30.752 70.651 30.848 71.051 30.848C71.4563 30.848 71.8217 30.752 72.147 30.56C72.4777 30.3627 72.7417 30.0987 72.939 29.768C73.1363 29.4373 73.235 29.0693 73.235 28.664V24H74.579L74.587 32H73.243L73.235 30.984C72.9523 31.3573 72.595 31.656 72.163 31.88C71.731 32.0987 71.2643 32.208 70.763 32.208C70.1657 32.208 69.619 32.064 69.123 31.776C68.6323 31.4827 68.2403 31.0907 67.947 30.6C67.659 30.1093 67.515 29.5627 67.515 28.96ZM76.1944 32V24H77.5384V25C77.821 24.6267 78.1784 24.3307 78.6104 24.112C79.0424 23.888 79.5117 23.776 80.0184 23.776C80.3277 23.776 80.6264 23.816 80.9144 23.896L80.3704 25.24C80.1517 25.1707 79.9384 25.136 79.7304 25.136C79.3304 25.136 78.9624 25.2347 78.6264 25.432C78.2957 25.624 78.0317 25.8853 77.8344 26.216C77.637 26.5467 77.5384 26.9147 77.5384 27.32V32H76.1944ZM81.9288 32V24H83.2728V25C83.5554 24.6267 83.9101 24.3307 84.3368 24.112C84.7688 23.888 85.2381 23.776 85.7448 23.776C86.3368 23.776 86.8781 23.92 87.3688 24.208C87.8594 24.496 88.2461 24.8773 88.5288 25.352C88.8114 24.8773 89.1954 24.496 89.6808 24.208C90.1714 23.92 90.7101 23.776 91.2968 23.776C91.8994 23.776 92.4461 23.9227 92.9368 24.216C93.4274 24.504 93.8168 24.8933 94.1048 25.384C94.3981 25.8747 94.5448 26.4213 94.5448 27.024V32H93.2008V27.344C93.2008 26.9493 93.1048 26.584 92.9128 26.248C92.7208 25.912 92.4621 25.6427 92.1368 25.44C91.8114 25.2373 91.4514 25.136 91.0568 25.136C90.6621 25.136 90.3021 25.232 89.9768 25.424C89.6514 25.6107 89.3928 25.872 89.2008 26.208C89.0088 26.5387 88.9128 26.9173 88.9128 27.344V32H87.5688V27.344C87.5688 26.9173 87.4728 26.5387 87.2808 26.208C87.0888 25.872 86.8274 25.6107 86.4968 25.424C86.1714 25.232 85.8114 25.136 85.4168 25.136C85.0274 25.136 84.6674 25.2373 84.3368 25.44C84.0114 25.6427 83.7528 25.912 83.5608 26.248C83.3688 26.584 83.2728 26.9493 83.2728 27.344V32H81.9288ZM99.5113 32.208C98.7753 32.208 98.1033 32.0187 97.4953 31.64C96.8926 31.2613 96.4099 30.7547 96.0473 30.12C95.6899 29.48 95.5113 28.7733 95.5113 28C95.5113 27.4133 95.6153 26.8667 95.8233 26.36C96.0313 25.848 96.3166 25.4 96.6793 25.016C97.0473 24.6267 97.4739 24.3227 97.9593 24.104C98.4446 23.8853 98.9619 23.776 99.5113 23.776C100.114 23.776 100.666 23.8987 101.167 24.144C101.674 24.384 102.106 24.72 102.463 25.152C102.826 25.584 103.095 26.0853 103.271 26.656C103.453 27.2267 103.519 27.8373 103.471 28.488H96.9433C97.0073 28.9413 97.1566 29.3467 97.3913 29.704C97.6259 30.056 97.9246 30.336 98.2873 30.544C98.6553 30.752 99.0633 30.8587 99.5113 30.864C99.9913 30.864 100.426 30.7413 100.815 30.496C101.205 30.2453 101.519 29.904 101.759 29.472L103.127 29.792C102.807 30.5013 102.325 31.0827 101.679 31.536C101.034 31.984 100.311 32.208 99.5113 32.208ZM96.9033 27.432H102.119C102.077 26.984 101.933 26.576 101.687 26.208C101.442 25.8347 101.13 25.536 100.751 25.312C100.373 25.088 99.9593 24.976 99.5113 24.976C99.0633 24.976 98.6526 25.0853 98.2793 25.304C97.9059 25.5227 97.5966 25.8187 97.3513 26.192C97.1113 26.56 96.9619 26.9733 96.9033 27.432ZM108.87 25.344H107.054L107.046 32H105.702L105.71 25.344H104.334V24H105.71L105.702 21.488H107.046L107.054 24H108.87V25.344ZM120.636 32H119.092L116.964 28.328L115.492 30.088V32H114.148V20H115.492V28L118.844 24H120.596L117.876 27.24L120.636 32ZM122.054 24H123.398V32H122.054V24ZM122.742 22.696C122.528 22.696 122.35 22.6267 122.206 22.488C122.062 22.3493 121.99 22.176 121.99 21.968C121.99 21.76 122.062 21.5867 122.206 21.448C122.35 21.3093 122.526 21.24 122.734 21.24C122.942 21.24 123.118 21.3093 123.262 21.448C123.406 21.5867 123.478 21.76 123.478 21.968C123.478 22.176 123.406 22.3493 123.262 22.488C123.123 22.6267 122.95 22.696 122.742 22.696ZM129.463 25.344H127.647L127.639 32H126.295L126.303 25.344H124.927V24H126.303L126.295 21.488H127.639L127.647 24H129.463V25.344ZM136.206 29.888L137.406 30.536C137.044 31.0427 136.582 31.448 136.022 31.752C135.468 32.056 134.865 32.208 134.214 32.208C133.478 32.208 132.806 32.0187 132.198 31.64C131.596 31.2613 131.113 30.7547 130.75 30.12C130.393 29.48 130.214 28.7733 130.214 28C130.214 27.4133 130.318 26.8667 130.526 26.36C130.734 25.848 131.02 25.4 131.382 25.016C131.75 24.6267 132.177 24.3227 132.662 24.104C133.148 23.8853 133.665 23.776 134.214 23.776C134.865 23.776 135.468 23.928 136.022 24.232C136.582 24.536 137.044 24.944 137.406 25.456L136.206 26.104C135.95 25.7893 135.646 25.5467 135.294 25.376C134.942 25.2053 134.582 25.12 134.214 25.12C133.718 25.12 133.268 25.2533 132.862 25.52C132.462 25.7813 132.145 26.1307 131.91 26.568C131.676 27.0053 131.558 27.4827 131.558 28C131.558 28.5173 131.676 28.9947 131.91 29.432C132.15 29.864 132.47 30.2107 132.87 30.472C133.276 30.7333 133.724 30.864 134.214 30.864C134.609 30.864 134.98 30.7733 135.326 30.592C135.673 30.4107 135.966 30.176 136.206 29.888ZM145.782 27.024V32H144.438V27.32C144.438 26.9147 144.339 26.5467 144.142 26.216C143.945 25.8853 143.681 25.624 143.35 25.432C143.019 25.2347 142.651 25.136 142.246 25.136C141.846 25.136 141.478 25.2347 141.142 25.432C140.811 25.624 140.547 25.8853 140.35 26.216C140.153 26.5467 140.054 26.9147 140.054 27.32V32H138.71V20H140.054V25C140.337 24.6267 140.694 24.3307 141.126 24.112C141.558 23.888 142.027 23.776 142.534 23.776C143.131 23.776 143.675 23.9227 144.166 24.216C144.662 24.504 145.054 24.8933 145.342 25.384C145.635 25.8747 145.782 26.4213 145.782 27.024ZM150.746 32.208C150.01 32.208 149.338 32.0187 148.73 31.64C148.127 31.2613 147.644 30.7547 147.282 30.12C146.924 29.48 146.746 28.7733 146.746 28C146.746 27.4133 146.85 26.8667 147.058 26.36C147.266 25.848 147.551 25.4 147.914 25.016C148.282 24.6267 148.708 24.3227 149.194 24.104C149.679 23.8853 150.196 23.776 150.746 23.776C151.348 23.776 151.9 23.8987 152.402 24.144C152.908 24.384 153.34 24.72 153.698 25.152C154.06 25.584 154.33 26.0853 154.506 26.656C154.687 27.2267 154.754 27.8373 154.706 28.488H148.178C148.242 28.9413 148.391 29.3467 148.626 29.704C148.86 30.056 149.159 30.336 149.522 30.544C149.89 30.752 150.298 30.8587 150.746 30.864C151.226 30.864 151.66 30.7413 152.05 30.496C152.439 30.2453 152.754 29.904 152.994 29.472L154.362 29.792C154.042 30.5013 153.559 31.0827 152.914 31.536C152.268 31.984 151.546 32.208 150.746 32.208ZM148.138 27.432H153.354C153.311 26.984 153.167 26.576 152.922 26.208C152.676 25.8347 152.364 25.536 151.986 25.312C151.607 25.088 151.194 24.976 150.746 24.976C150.298 24.976 149.887 25.0853 149.514 25.304C149.14 25.5227 148.831 25.8187 148.586 26.192C148.346 26.56 148.196 26.9733 148.138 27.432ZM163.126 27.024V32H161.782V27.32C161.782 26.9147 161.683 26.5467 161.486 26.216C161.288 25.8853 161.024 25.624 160.694 25.432C160.363 25.2347 159.995 25.136 159.59 25.136C159.19 25.136 158.822 25.2347 158.486 25.432C158.155 25.624 157.891 25.8853 157.694 26.216C157.496 26.5467 157.398 26.9147 157.398 27.32V32H156.054V24H157.398V25C157.68 24.6267 158.038 24.3307 158.47 24.112C158.902 23.888 159.371 23.776 159.878 23.776C160.475 23.776 161.019 23.9227 161.51 24.216C162.006 24.504 162.398 24.8933 162.686 25.384C162.979 25.8747 163.126 26.4213 163.126 27.024ZM172.129 32H170.769L168.089 24H169.401L171.465 30.104L173.505 24H174.889L176.937 30.104L178.977 24H180.305L177.625 32H176.257L174.185 25.84L172.129 32ZM181.601 24H182.945V32H181.601V24ZM182.289 22.696C182.075 22.696 181.897 22.6267 181.753 22.488C181.609 22.3493 181.537 22.176 181.537 21.968C181.537 21.76 181.609 21.5867 181.753 21.448C181.897 21.3093 182.073 21.24 182.281 21.24C182.489 21.24 182.665 21.3093 182.809 21.448C182.953 21.5867 183.025 21.76 183.025 21.968C183.025 22.176 182.953 22.3493 182.809 22.488C182.67 22.6267 182.497 22.696 182.289 22.696ZM189.01 25.344H187.194L187.186 32H185.842L185.85 25.344H184.474V24H185.85L185.842 21.488H187.186L187.194 24H189.01V25.344ZM197.516 27.024V32H196.172V27.32C196.172 26.9147 196.074 26.5467 195.876 26.216C195.679 25.8853 195.415 25.624 195.084 25.432C194.754 25.2347 194.386 25.136 193.98 25.136C193.58 25.136 193.212 25.2347 192.876 25.432C192.546 25.624 192.282 25.8853 192.084 26.216C191.887 26.5467 191.788 26.9147 191.788 27.32V32H190.444V20H191.788V25C192.071 24.6267 192.428 24.3307 192.86 24.112C193.292 23.888 193.762 23.776 194.268 23.776C194.866 23.776 195.41 23.9227 195.9 24.216C196.396 24.504 196.788 24.8933 197.076 25.384C197.37 25.8747 197.516 26.4213 197.516 27.024ZM207.104 25.344H205.288L205.28 32H203.936L203.944 25.344H202.568V24H203.944L203.936 21.488H205.28L205.288 24H207.104V25.344ZM211.855 32.208C211.119 32.208 210.447 32.0187 209.839 31.64C209.236 31.2613 208.754 30.7547 208.391 30.12C208.034 29.48 207.855 28.7733 207.855 28C207.855 27.4133 207.959 26.8667 208.167 26.36C208.375 25.848 208.66 25.4 209.023 25.016C209.391 24.6267 209.818 24.3227 210.303 24.104C210.788 23.8853 211.306 23.776 211.855 23.776C212.591 23.776 213.26 23.9653 213.863 24.344C214.471 24.7227 214.954 25.232 215.311 25.872C215.674 26.512 215.855 27.2213 215.855 28C215.855 28.5813 215.751 29.1253 215.543 29.632C215.335 30.1387 215.047 30.5867 214.679 30.976C214.316 31.36 213.892 31.6613 213.407 31.88C212.927 32.0987 212.41 32.208 211.855 32.208ZM211.855 30.864C212.356 30.864 212.807 30.7333 213.207 30.472C213.612 30.2053 213.93 29.856 214.159 29.424C214.394 28.9867 214.511 28.512 214.511 28C214.511 27.4773 214.391 26.9973 214.151 26.56C213.916 26.1227 213.599 25.7733 213.199 25.512C212.799 25.2507 212.351 25.12 211.855 25.12C211.354 25.12 210.903 25.2533 210.503 25.52C210.103 25.7813 209.786 26.1307 209.551 26.568C209.316 27.0053 209.199 27.4827 209.199 28C209.199 28.5333 209.319 29.0187 209.559 29.456C209.799 29.888 210.122 30.232 210.527 30.488C210.932 30.7387 211.375 30.864 211.855 30.864ZM218.523 36H217.179V24H218.523V25.368C218.795 24.8987 219.157 24.52 219.611 24.232C220.064 23.9387 220.603 23.792 221.227 23.792C221.808 23.792 222.352 23.9013 222.859 24.12C223.371 24.3387 223.819 24.6427 224.203 25.032C224.587 25.416 224.888 25.8613 225.107 26.368C225.325 26.8747 225.435 27.4187 225.435 28C225.435 28.5813 225.325 29.128 225.107 29.64C224.888 30.152 224.587 30.6027 224.203 30.992C223.819 31.376 223.371 31.6773 222.859 31.896C222.352 32.1147 221.808 32.224 221.227 32.224C220.603 32.224 220.064 32.08 219.611 31.792C219.157 31.4987 218.795 31.1173 218.523 30.648V36ZM221.211 25.096C220.693 25.096 220.24 25.2267 219.851 25.488C219.461 25.7493 219.16 26.0987 218.947 26.536C218.739 26.9733 218.635 27.4613 218.635 28C218.635 28.5333 218.739 29.0213 218.947 29.464C219.16 29.9067 219.459 30.2587 219.843 30.52C220.232 30.7813 220.688 30.912 221.211 30.912C221.728 30.912 222.203 30.784 222.635 30.528C223.067 30.2667 223.413 29.9173 223.675 29.48C223.936 29.0373 224.067 28.544 224.067 28C224.067 27.4667 223.939 26.9813 223.683 26.544C223.427 26.1013 223.083 25.7493 222.651 25.488C222.219 25.2267 221.739 25.096 221.211 25.096ZM226.882 26.528H232.002V27.872H226.882V26.528ZM237.449 32.208C236.713 32.208 236.041 32.0187 235.433 31.64C234.83 31.2613 234.347 30.7547 233.985 30.12C233.627 29.48 233.449 28.7733 233.449 28C233.449 27.4133 233.553 26.8667 233.761 26.36C233.969 25.848 234.254 25.4 234.617 25.016C234.985 24.6267 235.411 24.3227 235.897 24.104C236.382 23.8853 236.899 23.776 237.449 23.776C238.185 23.776 238.854 23.9653 239.457 24.344C240.065 24.7227 240.547 25.232 240.905 25.872C241.267 26.512 241.449 27.2213 241.449 28C241.449 28.5813 241.345 29.1253 241.137 29.632C240.929 30.1387 240.641 30.5867 240.273 30.976C239.91 31.36 239.486 31.6613 239.001 31.88C238.521 32.0987 238.003 32.208 237.449 32.208ZM237.449 30.864C237.95 30.864 238.401 30.7333 238.801 30.472C239.206 30.2053 239.523 29.856 239.753 29.424C239.987 28.9867 240.105 28.512 240.105 28C240.105 27.4773 239.985 26.9973 239.745 26.56C239.51 26.1227 239.193 25.7733 238.793 25.512C238.393 25.2507 237.945 25.12 237.449 25.12C236.947 25.12 236.497 25.2533 236.097 25.52C235.697 25.7813 235.379 26.1307 235.145 26.568C234.91 27.0053 234.793 27.4827 234.793 28C234.793 28.5333 234.913 29.0187 235.153 29.456C235.393 29.888 235.715 30.232 236.121 30.488C236.526 30.7387 236.969 30.864 237.449 30.864ZM244.698 22.024V24H247.042V25.344H244.698V32H243.354V25.344H242.322V24H243.354V22.024C243.354 21.6133 243.453 21.2427 243.65 20.912C243.853 20.576 244.122 20.3093 244.458 20.112C244.799 19.9093 245.173 19.808 245.578 19.808C245.877 19.808 246.167 19.8693 246.45 19.992C246.733 20.1093 246.983 20.2853 247.202 20.52L246.242 21.472C246.167 21.3707 246.069 21.2933 245.946 21.24C245.829 21.1813 245.706 21.152 245.578 21.152C245.338 21.152 245.13 21.2373 244.954 21.408C244.783 21.5787 244.698 21.784 244.698 22.024ZM248.194 26.528H253.314V27.872H248.194V26.528ZM259.385 25.344H257.569L257.561 32H256.217L256.225 25.344H254.849V24H256.225L256.217 21.488H257.561L257.569 24H259.385V25.344ZM267.891 27.024V32H266.547V27.32C266.547 26.9147 266.449 26.5467 266.251 26.216C266.054 25.8853 265.79 25.624 265.459 25.432C265.129 25.2347 264.761 25.136 264.355 25.136C263.955 25.136 263.587 25.2347 263.251 25.432C262.921 25.624 262.657 25.8853 262.459 26.216C262.262 26.5467 262.163 26.9147 262.163 27.32V32H260.819V20H262.163V25C262.446 24.6267 262.803 24.3307 263.235 24.112C263.667 23.888 264.137 23.776 264.643 23.776C265.241 23.776 265.785 23.9227 266.275 24.216C266.771 24.504 267.163 24.8933 267.451 25.384C267.745 25.8747 267.891 26.4213 267.891 27.024ZM272.855 32.208C272.119 32.208 271.447 32.0187 270.839 31.64C270.236 31.2613 269.754 30.7547 269.391 30.12C269.034 29.48 268.855 28.7733 268.855 28C268.855 27.4133 268.959 26.8667 269.167 26.36C269.375 25.848 269.66 25.4 270.023 25.016C270.391 24.6267 270.818 24.3227 271.303 24.104C271.788 23.8853 272.306 23.776 272.855 23.776C273.458 23.776 274.01 23.8987 274.511 24.144C275.018 24.384 275.45 24.72 275.807 25.152C276.17 25.584 276.439 26.0853 276.615 26.656C276.796 27.2267 276.863 27.8373 276.815 28.488H270.287C270.351 28.9413 270.5 29.3467 270.735 29.704C270.97 30.056 271.268 30.336 271.631 30.544C271.999 30.752 272.407 30.8587 272.855 30.864C273.335 30.864 273.77 30.7413 274.159 30.496C274.548 30.2453 274.863 29.904 275.103 29.472L276.471 29.792C276.151 30.5013 275.668 31.0827 275.023 31.536C274.378 31.984 273.655 32.208 272.855 32.208ZM270.247 27.432H275.463C275.42 26.984 275.276 26.576 275.031 26.208C274.786 25.8347 274.474 25.536 274.095 25.312C273.716 25.088 273.303 24.976 272.855 24.976C272.407 24.976 271.996 25.0853 271.623 25.304C271.25 25.5227 270.94 25.8187 270.695 26.192C270.455 26.56 270.306 26.9733 270.247 27.432ZM278.273 26.528H283.393V27.872H278.273V26.528ZM285.319 32V20H286.663V32H285.319ZM288.585 24H289.929V32H288.585V24ZM289.273 22.696C289.06 22.696 288.881 22.6267 288.737 22.488C288.593 22.3493 288.521 22.176 288.521 21.968C288.521 21.76 288.593 21.5867 288.737 21.448C288.881 21.3093 289.057 21.24 289.265 21.24C289.473 21.24 289.649 21.3093 289.793 21.448C289.937 21.5867 290.009 21.76 290.009 21.968C290.009 22.176 289.937 22.3493 289.793 22.488C289.654 22.6267 289.481 22.696 289.273 22.696ZM298.891 27.024V32H297.547V27.32C297.547 26.9147 297.449 26.5467 297.251 26.216C297.054 25.8853 296.79 25.624 296.459 25.432C296.129 25.2347 295.761 25.136 295.355 25.136C294.955 25.136 294.587 25.2347 294.251 25.432C293.921 25.624 293.657 25.8853 293.459 26.216C293.262 26.5467 293.163 26.9147 293.163 27.32V32H291.819V24H293.163V25C293.446 24.6267 293.803 24.3307 294.235 24.112C294.667 23.888 295.137 23.776 295.643 23.776C296.241 23.776 296.785 23.9227 297.275 24.216C297.771 24.504 298.163 24.8933 298.451 25.384C298.745 25.8747 298.891 26.4213 298.891 27.024ZM303.855 32.208C303.119 32.208 302.447 32.0187 301.839 31.64C301.236 31.2613 300.754 30.7547 300.391 30.12C300.034 29.48 299.855 28.7733 299.855 28C299.855 27.4133 299.959 26.8667 300.167 26.36C300.375 25.848 300.66 25.4 301.023 25.016C301.391 24.6267 301.818 24.3227 302.303 24.104C302.788 23.8853 303.306 23.776 303.855 23.776C304.458 23.776 305.01 23.8987 305.511 24.144C306.018 24.384 306.45 24.72 306.807 25.152C307.17 25.584 307.439 26.0853 307.615 26.656C307.796 27.2267 307.863 27.8373 307.815 28.488H301.287C301.351 28.9413 301.5 29.3467 301.735 29.704C301.97 30.056 302.268 30.336 302.631 30.544C302.999 30.752 303.407 30.8587 303.855 30.864C304.335 30.864 304.77 30.7413 305.159 30.496C305.548 30.2453 305.863 29.904 306.103 29.472L307.471 29.792C307.151 30.5013 306.668 31.0827 306.023 31.536C305.378 31.984 304.655 32.208 303.855 32.208ZM301.247 27.432H306.463C306.42 26.984 306.276 26.576 306.031 26.208C305.786 25.8347 305.474 25.536 305.095 25.312C304.716 25.088 304.303 24.976 303.855 24.976C303.407 24.976 302.996 25.0853 302.623 25.304C302.25 25.5227 301.94 25.8187 301.695 26.192C301.455 26.56 301.306 26.9733 301.247 27.432ZM319.548 24H320.892V32H319.548L319.492 30.648C319.242 31.112 318.895 31.488 318.452 31.776C318.015 32.064 317.492 32.208 316.884 32.208C316.298 32.208 315.748 32.0987 315.236 31.88C314.724 31.656 314.271 31.3493 313.876 30.96C313.487 30.5653 313.183 30.112 312.964 29.6C312.746 29.088 312.636 28.536 312.636 27.944C312.636 27.3733 312.743 26.8347 312.956 26.328C313.17 25.8213 313.466 25.3787 313.844 25C314.228 24.616 314.671 24.3173 315.172 24.104C315.674 23.8853 316.212 23.776 316.788 23.776C317.418 23.776 317.97 23.9253 318.444 24.224C318.919 24.5173 319.303 24.8987 319.596 25.368L319.548 24ZM316.86 30.904C317.388 30.904 317.844 30.776 318.228 30.52C318.618 30.2587 318.916 29.9067 319.124 29.464C319.338 29.0213 319.444 28.5333 319.444 28C319.444 27.456 319.338 26.9653 319.124 26.528C318.911 26.0853 318.61 25.736 318.22 25.48C317.836 25.2187 317.383 25.088 316.86 25.088C316.332 25.088 315.852 25.2187 315.42 25.48C314.988 25.7413 314.644 26.0933 314.388 26.536C314.138 26.9733 314.012 27.4613 314.012 28C314.012 28.5387 314.143 29.0293 314.404 29.472C314.666 29.9093 315.012 30.2587 315.444 30.52C315.876 30.776 316.348 30.904 316.86 30.904ZM323.835 36H322.491V24H323.835V25.368C324.107 24.8987 324.47 24.52 324.923 24.232C325.377 23.9387 325.915 23.792 326.539 23.792C327.121 23.792 327.665 23.9013 328.171 24.12C328.683 24.3387 329.131 24.6427 329.515 25.032C329.899 25.416 330.201 25.8613 330.419 26.368C330.638 26.8747 330.747 27.4187 330.747 28C330.747 28.5813 330.638 29.128 330.419 29.64C330.201 30.152 329.899 30.6027 329.515 30.992C329.131 31.376 328.683 31.6773 328.171 31.896C327.665 32.1147 327.121 32.224 326.539 32.224C325.915 32.224 325.377 32.08 324.923 31.792C324.47 31.4987 324.107 31.1173 323.835 30.648V36ZM326.523 25.096C326.006 25.096 325.553 25.2267 325.163 25.488C324.774 25.7493 324.473 26.0987 324.259 26.536C324.051 26.9733 323.947 27.4613 323.947 28C323.947 28.5333 324.051 29.0213 324.259 29.464C324.473 29.9067 324.771 30.2587 325.155 30.52C325.545 30.7813 326.001 30.912 326.523 30.912C327.041 30.912 327.515 30.784 327.947 30.528C328.379 30.2667 328.726 29.9173 328.987 29.48C329.249 29.0373 329.379 28.544 329.379 28C329.379 27.4667 329.251 26.9813 328.995 26.544C328.739 26.1013 328.395 25.7493 327.963 25.488C327.531 25.2267 327.051 25.096 326.523 25.096ZM333.429 36H332.085V24H333.429V25.368C333.701 24.8987 334.064 24.52 334.517 24.232C334.97 23.9387 335.509 23.792 336.133 23.792C336.714 23.792 337.258 23.9013 337.765 24.12C338.277 24.3387 338.725 24.6427 339.109 25.032C339.493 25.416 339.794 25.8613 340.013 26.368C340.232 26.8747 340.341 27.4187 340.341 28C340.341 28.5813 340.232 29.128 340.013 29.64C339.794 30.152 339.493 30.6027 339.109 30.992C338.725 31.376 338.277 31.6773 337.765 31.896C337.258 32.1147 336.714 32.224 336.133 32.224C335.509 32.224 334.97 32.08 334.517 31.792C334.064 31.4987 333.701 31.1173 333.429 30.648V36ZM336.117 25.096C335.6 25.096 335.146 25.2267 334.757 25.488C334.368 25.7493 334.066 26.0987 333.853 26.536C333.645 26.9733 333.541 27.4613 333.541 28C333.541 28.5333 333.645 29.0213 333.853 29.464C334.066 29.9067 334.365 30.2587 334.749 30.52C335.138 30.7813 335.594 30.912 336.117 30.912C336.634 30.912 337.109 30.784 337.541 30.528C337.973 30.2667 338.32 29.9173 338.581 29.48C338.842 29.0373 338.973 28.544 338.973 28C338.973 27.4667 338.845 26.9813 338.589 26.544C338.333 26.1013 337.989 25.7493 337.557 25.488C337.125 25.2267 336.645 25.096 336.117 25.096ZM341.601 32V20H342.945V32H341.601ZM344.866 24H346.21V32H344.866V24ZM345.554 22.696C345.341 22.696 345.162 22.6267 345.018 22.488C344.874 22.3493 344.802 22.176 344.802 21.968C344.802 21.76 344.874 21.5867 345.018 21.448C345.162 21.3093 345.338 21.24 345.546 21.24C345.754 21.24 345.93 21.3093 346.074 21.448C346.218 21.5867 346.29 21.76 346.29 21.968C346.29 22.176 346.218 22.3493 346.074 22.488C345.936 22.6267 345.762 22.696 345.554 22.696ZM354.455 24H355.799V32H354.455L354.399 30.648C354.148 31.112 353.801 31.488 353.359 31.776C352.921 32.064 352.399 32.208 351.791 32.208C351.204 32.208 350.655 32.0987 350.143 31.88C349.631 31.656 349.177 31.3493 348.783 30.96C348.393 30.5653 348.089 30.112 347.871 29.6C347.652 29.088 347.543 28.536 347.543 27.944C347.543 27.3733 347.649 26.8347 347.863 26.328C348.076 25.8213 348.372 25.3787 348.751 25C349.135 24.616 349.577 24.3173 350.079 24.104C350.58 23.8853 351.119 23.776 351.695 23.776C352.324 23.776 352.876 23.9253 353.351 24.224C353.825 24.5173 354.209 24.8987 354.503 25.368L354.455 24ZM351.766 30.904C352.295 30.904 352.751 30.776 353.135 30.52C353.524 30.2587 353.823 29.9067 354.031 29.464C354.244 29.0213 354.351 28.5333 354.351 28C354.351 27.456 354.244 26.9653 354.031 26.528C353.817 26.0853 353.516 25.736 353.127 25.48C352.743 25.2187 352.289 25.088 351.766 25.088C351.239 25.088 350.759 25.2187 350.327 25.48C349.895 25.7413 349.551 26.0933 349.295 26.536C349.044 26.9733 348.919 27.4613 348.919 28C348.919 28.5387 349.049 29.0293 349.311 29.472C349.572 29.9093 349.919 30.2587 350.351 30.52C350.783 30.776 351.255 30.904 351.766 30.904ZM364.47 27.024V32H363.126V27.32C363.126 26.9147 363.027 26.5467 362.83 26.216C362.632 25.8853 362.368 25.624 362.038 25.432C361.707 25.2347 361.339 25.136 360.934 25.136C360.534 25.136 360.166 25.2347 359.83 25.432C359.499 25.624 359.235 25.8853 359.038 26.216C358.84 26.5467 358.742 26.9147 358.742 27.32V32H357.398V24H358.742V25C359.024 24.6267 359.382 24.3307 359.814 24.112C360.246 23.888 360.715 23.776 361.222 23.776C361.819 23.776 362.363 23.9227 362.854 24.216C363.35 24.504 363.742 24.8933 364.03 25.384C364.323 25.8747 364.47 26.4213 364.47 27.024ZM371.425 29.888L372.625 30.536C372.262 31.0427 371.801 31.448 371.241 31.752C370.686 32.056 370.084 32.208 369.433 32.208C368.697 32.208 368.025 32.0187 367.417 31.64C366.814 31.2613 366.332 30.7547 365.969 30.12C365.612 29.48 365.433 28.7733 365.433 28C365.433 27.4133 365.537 26.8667 365.745 26.36C365.953 25.848 366.238 25.4 366.601 25.016C366.969 24.6267 367.396 24.3227 367.881 24.104C368.366 23.8853 368.884 23.776 369.433 23.776C370.084 23.776 370.686 23.928 371.241 24.232C371.801 24.536 372.262 24.944 372.625 25.456L371.425 26.104C371.169 25.7893 370.865 25.5467 370.513 25.376C370.161 25.2053 369.801 25.12 369.433 25.12C368.937 25.12 368.486 25.2533 368.081 25.52C367.681 25.7813 367.364 26.1307 367.129 26.568C366.894 27.0053 366.777 27.4827 366.777 28C366.777 28.5173 366.894 28.9947 367.129 29.432C367.369 29.864 367.689 30.2107 368.089 30.472C368.494 30.7333 368.942 30.864 369.433 30.864C369.828 30.864 370.198 30.7733 370.545 30.592C370.892 30.4107 371.185 30.176 371.425 29.888ZM377.449 32.208C376.713 32.208 376.041 32.0187 375.433 31.64C374.83 31.2613 374.347 30.7547 373.985 30.12C373.627 29.48 373.449 28.7733 373.449 28C373.449 27.4133 373.553 26.8667 373.761 26.36C373.969 25.848 374.254 25.4 374.617 25.016C374.985 24.6267 375.411 24.3227 375.897 24.104C376.382 23.8853 376.899 23.776 377.449 23.776C378.051 23.776 378.603 23.8987 379.105 24.144C379.611 24.384 380.043 24.72 380.401 25.152C380.763 25.584 381.033 26.0853 381.209 26.656C381.39 27.2267 381.457 27.8373 381.409 28.488H374.881C374.945 28.9413 375.094 29.3467 375.329 29.704C375.563 30.056 375.862 30.336 376.225 30.544C376.593 30.752 377.001 30.8587 377.449 30.864C377.929 30.864 378.363 30.7413 378.753 30.496C379.142 30.2453 379.457 29.904 379.697 29.472L381.065 29.792C380.745 30.5013 380.262 31.0827 379.617 31.536C378.971 31.984 378.249 32.208 377.449 32.208ZM374.841 27.432H380.057C380.014 26.984 379.87 26.576 379.625 26.208C379.379 25.8347 379.067 25.536 378.689 25.312C378.31 25.088 377.897 24.976 377.449 24.976C377.001 24.976 376.59 25.0853 376.217 25.304C375.843 25.5227 375.534 25.8187 375.289 26.192C375.049 26.56 374.899 26.9733 374.841 27.432ZM385.228 32.152C384.796 32.136 384.375 32.056 383.964 31.912C383.559 31.7627 383.201 31.5627 382.892 31.312C382.588 31.056 382.367 30.7627 382.228 30.432L383.38 29.936C383.46 30.1173 383.604 30.288 383.812 30.448C384.02 30.608 384.26 30.736 384.532 30.832C384.804 30.928 385.079 30.976 385.356 30.976C385.649 30.976 385.924 30.9307 386.18 30.84C386.436 30.7493 386.644 30.616 386.804 30.44C386.969 30.2587 387.052 30.0427 387.052 29.792C387.052 29.5253 386.961 29.3173 386.78 29.168C386.604 29.0133 386.38 28.8933 386.108 28.808C385.841 28.7173 385.569 28.632 385.292 28.552C384.743 28.4133 384.252 28.248 383.82 28.056C383.388 27.8587 383.047 27.6107 382.796 27.312C382.551 27.008 382.428 26.6213 382.428 26.152C382.428 25.656 382.564 25.2267 382.836 24.864C383.113 24.5013 383.476 24.2213 383.924 24.024C384.372 23.8267 384.852 23.728 385.364 23.728C386.009 23.728 386.599 23.8667 387.132 24.144C387.665 24.4213 388.063 24.7973 388.324 25.272L387.244 25.904C387.153 25.712 387.015 25.544 386.828 25.4C386.641 25.2507 386.428 25.1333 386.188 25.048C385.948 24.9627 385.703 24.9173 385.452 24.912C385.143 24.9013 384.852 24.9413 384.58 25.032C384.313 25.1227 384.097 25.2613 383.932 25.448C383.772 25.6293 383.692 25.856 383.692 26.128C383.692 26.3947 383.777 26.5973 383.948 26.736C384.124 26.8747 384.351 26.9867 384.628 27.072C384.911 27.152 385.217 27.2453 385.548 27.352C386.033 27.5067 386.487 27.6853 386.908 27.888C387.329 28.0907 387.668 28.344 387.924 28.648C388.185 28.952 388.313 29.328 388.308 29.776C388.308 30.2667 388.161 30.696 387.868 31.064C387.575 31.4267 387.193 31.704 386.724 31.896C386.26 32.088 385.761 32.1733 385.228 32.152Z" fill="#999999"></path><defs><linearGradient id="paint0_linear_166_854" x1="-3.42044e-06" y1="25.4468" x2="550" y2="25.4468" gradientUnits="userSpaceOnUse"><stop stop-color="#1A1A1A"></stop><stop offset="1" stop-color="#1A1A1A" stop-opacity="0"></stop></linearGradient></defs></svg>