<svg xmlns="http://www.w3.org/2000/svg" width="455" height="212" viewBox="0 0 455 212" fill="none"><rect x="0.5" y="0.5" width="454" height="211" rx="11.5" fill="#1A1A1A"></rect><rect x="0.5" y="0.5" width="454" height="211" rx="11.5" stroke="#262626"></rect><rect x="187" y="40.5" width="81" height="81" rx="40.5" stroke="url(#paint0_linear_134_6230)"></rect><rect x="187" y="40.5" width="81" height="81" rx="40.5" stroke="url(#paint1_linear_134_6230)"></rect><rect x="197" y="50.5" width="61" height="61" rx="30.5" stroke="url(#paint2_linear_134_6230)"></rect><rect x="197" y="50.5" width="61" height="61" rx="30.5" stroke="url(#paint3_linear_134_6230)"></rect><path d="M227.5 67.1875C228.087 67.1875 228.562 67.6632 228.562 68.25V71.4375C228.562 72.0243 228.087 72.5 227.5 72.5C226.913 72.5 226.438 72.0243 226.438 71.4375V68.25C226.438 67.6632 226.913 67.1875 227.5 67.1875Z" fill="#A685FA"></path><path d="M221.125 81C221.125 77.4792 223.979 74.625 227.5 74.625C231.021 74.625 233.875 77.4792 233.875 81C233.875 84.5208 231.021 87.375 227.5 87.375C223.979 87.375 221.125 84.5208 221.125 81Z" fill="#A685FA"></path><path d="M237.267 72.7356C237.682 72.3207 237.682 71.648 237.267 71.233C236.852 70.8181 236.179 70.8181 235.764 71.233L233.51 73.4869C233.096 73.9019 233.096 74.5746 233.51 74.9895C233.925 75.4045 234.598 75.4045 235.013 74.9895L237.267 72.7356Z" fill="#A685FA"></path><path d="M241.312 81C241.312 81.5868 240.837 82.0625 240.25 82.0625H237.062C236.476 82.0625 236 81.5868 236 81C236 80.4132 236.476 79.9375 237.062 79.9375H240.25C240.837 79.9375 241.312 80.4132 241.312 81Z" fill="#A685FA"></path><path d="M235.764 90.7669C236.179 91.1818 236.852 91.1818 237.267 90.7669C237.682 90.3519 237.682 89.6792 237.267 89.2643L235.013 87.0104C234.598 86.5954 233.925 86.5954 233.51 87.0104C233.095 87.4253 233.095 88.098 233.51 88.513L235.764 90.7669Z" fill="#A685FA"></path><path d="M227.5 89.5C228.087 89.5 228.562 89.9757 228.562 90.5625V93.75C228.562 94.3368 228.087 94.8125 227.5 94.8125C226.913 94.8125 226.438 94.3368 226.438 93.75V90.5625C226.438 89.9757 226.913 89.5 227.5 89.5Z" fill="#A685FA"></path><path d="M221.49 88.513C221.905 88.098 221.905 87.4253 221.49 87.0104C221.075 86.5954 220.402 86.5954 219.987 87.0104L217.733 89.2643C217.318 89.6792 217.318 90.3519 217.733 90.7669C218.148 91.1818 218.821 91.1818 219.236 90.7669L221.49 88.513Z" fill="#A685FA"></path><path d="M219 81C219 81.5868 218.524 82.0625 217.938 82.0625H214.75C214.163 82.0625 213.688 81.5868 213.688 81C213.688 80.4132 214.163 79.9375 214.75 79.9375H217.938C218.524 79.9375 219 80.4132 219 81Z" fill="#A685FA"></path><path d="M219.987 74.9895C220.402 75.4045 221.075 75.4045 221.49 74.9895C221.905 74.5746 221.905 73.9019 221.49 73.4869L219.236 71.233C218.821 70.8181 218.148 70.8181 217.733 71.233C217.318 71.648 217.318 72.3207 217.733 72.7356L219.987 74.9895Z" fill="#A685FA"></path><path d="M60.0279 164.26C59.2612 164.26 58.5246 164.14 57.8179 163.9C57.1112 163.66 56.4946 163.317 55.9679 162.87C55.4412 162.417 55.0646 161.88 54.8379 161.26L56.7879 160.53C56.9012 160.85 57.1179 161.137 57.4379 161.39C57.7646 161.637 58.1512 161.83 58.5979 161.97C59.0512 162.11 59.5279 162.18 60.0279 162.18C60.5612 162.18 61.0612 162.093 61.5279 161.92C62.0012 161.747 62.3812 161.507 62.6679 161.2C62.9612 160.893 63.1079 160.533 63.1079 160.12C63.1079 159.693 62.9546 159.343 62.6479 159.07C62.3479 158.797 61.9612 158.58 61.4879 158.42C61.0212 158.26 60.5346 158.14 60.0279 158.06C59.0479 157.9 58.1679 157.667 57.3879 157.36C56.6146 157.053 56.0012 156.623 55.5479 156.07C55.1012 155.517 54.8779 154.797 54.8779 153.91C54.8779 153.077 55.1146 152.35 55.5879 151.73C56.0679 151.11 56.6979 150.63 57.4779 150.29C58.2646 149.943 59.1146 149.77 60.0279 149.77C60.7812 149.77 61.5079 149.89 62.2079 150.13C62.9146 150.363 63.5346 150.707 64.0679 151.16C64.6079 151.607 64.9946 152.15 65.2279 152.79L63.2579 153.5C63.1446 153.173 62.9279 152.89 62.6079 152.65C62.2879 152.403 61.9012 152.21 61.4479 152.07C61.0012 151.93 60.5279 151.86 60.0279 151.86C59.4946 151.853 58.9946 151.94 58.5279 152.12C58.0679 152.293 57.6912 152.533 57.3979 152.84C57.1046 153.147 56.9579 153.503 56.9579 153.91C56.9579 154.41 57.0946 154.79 57.3679 155.05C57.6412 155.31 58.0079 155.503 58.4679 155.63C58.9346 155.75 59.4546 155.86 60.0279 155.96C60.9479 156.107 61.7979 156.35 62.5779 156.69C63.3646 157.03 63.9946 157.483 64.4679 158.05C64.9479 158.61 65.1879 159.3 65.1879 160.12C65.1879 160.947 64.9479 161.673 64.4679 162.3C63.9946 162.92 63.3646 163.403 62.5779 163.75C61.7979 164.09 60.9479 164.26 60.0279 164.26ZM67.2449 164V154H69.3249V155.06C69.6716 154.647 70.0949 154.32 70.5949 154.08C71.1016 153.84 71.6483 153.72 72.2349 153.72C72.9483 153.72 73.6049 153.893 74.2049 154.24C74.8049 154.58 75.2816 155.033 75.6349 155.6C75.9883 155.033 76.4583 154.58 77.0449 154.24C77.6383 153.893 78.2916 153.72 79.0049 153.72C79.7449 153.72 80.4183 153.9 81.0249 154.26C81.6316 154.62 82.1149 155.103 82.4749 155.71C82.8349 156.317 83.0149 156.99 83.0149 157.73V164H80.9349V158.26C80.9349 157.82 80.8283 157.417 80.6149 157.05C80.4016 156.683 80.1149 156.387 79.7549 156.16C79.3949 155.933 78.9949 155.82 78.5549 155.82C78.1149 155.82 77.7149 155.927 77.3549 156.14C76.9949 156.353 76.7083 156.643 76.4949 157.01C76.2816 157.377 76.1749 157.793 76.1749 158.26V164H74.0949V158.26C74.0949 157.793 73.9883 157.377 73.7749 157.01C73.5616 156.643 73.2716 156.353 72.9049 156.14C72.5449 155.927 72.1449 155.82 71.7049 155.82C71.2716 155.82 70.8716 155.933 70.5049 156.16C70.1449 156.387 69.8583 156.683 69.6449 157.05C69.4316 157.417 69.3249 157.82 69.3249 158.26V164H67.2449ZM92.603 154H94.683V164H92.593L92.513 162.55C92.2197 163.063 91.823 163.477 91.323 163.79C90.823 164.103 90.233 164.26 89.553 164.26C88.8197 164.26 88.1297 164.123 87.483 163.85C86.8364 163.57 86.2664 163.183 85.773 162.69C85.2864 162.197 84.9064 161.63 84.633 160.99C84.3597 160.343 84.223 159.65 84.223 158.91C84.223 158.197 84.3564 157.527 84.623 156.9C84.8897 156.267 85.2597 155.713 85.733 155.24C86.2064 154.767 86.753 154.397 87.373 154.13C87.9997 153.857 88.6697 153.72 89.383 153.72C90.1097 153.72 90.7497 153.887 91.303 154.22C91.863 154.547 92.3264 154.967 92.693 155.48L92.603 154ZM89.503 162.25C90.0897 162.25 90.603 162.107 91.043 161.82C91.483 161.527 91.823 161.133 92.063 160.64C92.3097 160.147 92.433 159.6 92.433 159C92.433 158.393 92.3097 157.843 92.063 157.35C91.8164 156.857 91.473 156.467 91.033 156.18C90.5997 155.887 90.0897 155.74 89.503 155.74C88.923 155.74 88.393 155.887 87.913 156.18C87.433 156.473 87.053 156.867 86.773 157.36C86.493 157.853 86.353 158.4 86.353 159C86.353 159.607 86.4964 160.157 86.783 160.65C87.0764 161.137 87.4597 161.527 87.933 161.82C88.413 162.107 88.9364 162.25 89.503 162.25ZM96.6785 164V154H98.7585V155.06C99.1052 154.647 99.5318 154.32 100.039 154.08C100.545 153.84 101.092 153.72 101.679 153.72C102.052 153.72 102.422 153.77 102.789 153.87L101.959 155.97C101.699 155.87 101.439 155.82 101.179 155.82C100.739 155.82 100.335 155.93 99.9685 156.15C99.6018 156.363 99.3085 156.653 99.0885 157.02C98.8685 157.387 98.7585 157.793 98.7585 158.24V164H96.6785ZM109.478 156.08H107.378L107.368 164H105.288L105.298 156.08H103.708V154H105.298L105.288 150.86H107.368L107.378 154H109.478V156.08ZM116.373 164V150H118.453V164H116.373ZM130.151 157.73V164H128.071V158.24C128.071 157.793 127.961 157.387 127.741 157.02C127.528 156.653 127.238 156.363 126.871 156.15C126.511 155.93 126.105 155.82 125.651 155.82C125.211 155.82 124.808 155.93 124.441 156.15C124.075 156.363 123.781 156.653 123.561 157.02C123.341 157.387 123.231 157.793 123.231 158.24V164H121.151V154H123.231V155.06C123.578 154.647 124.005 154.32 124.511 154.08C125.018 153.84 125.565 153.72 126.151 153.72C126.891 153.72 127.565 153.9 128.171 154.26C128.778 154.62 129.258 155.103 129.611 155.71C129.971 156.317 130.151 156.99 130.151 157.73ZM137.496 164H134.826L131.176 153.98H133.396L136.156 161.6L138.926 153.98H141.136L137.496 164ZM146.684 164.26C145.764 164.26 144.924 164.023 144.164 163.55C143.411 163.077 142.807 162.443 142.354 161.65C141.907 160.85 141.684 159.967 141.684 159C141.684 158.267 141.814 157.583 142.074 156.95C142.334 156.31 142.691 155.75 143.144 155.27C143.604 154.783 144.137 154.403 144.744 154.13C145.351 153.857 145.997 153.72 146.684 153.72C147.451 153.72 148.154 153.88 148.794 154.2C149.434 154.513 149.981 154.95 150.434 155.51C150.887 156.063 151.221 156.703 151.434 157.43C151.647 158.15 151.711 158.917 151.624 159.73H143.914C144.001 160.19 144.167 160.607 144.414 160.98C144.667 161.347 144.987 161.637 145.374 161.85C145.767 162.063 146.204 162.173 146.684 162.18C147.191 162.18 147.651 162.053 148.064 161.8C148.484 161.547 148.827 161.197 149.094 160.75L151.204 161.24C150.804 162.127 150.201 162.853 149.394 163.42C148.587 163.98 147.684 164.26 146.684 164.26ZM143.844 158.14H149.524C149.457 157.66 149.287 157.227 149.014 156.84C148.747 156.447 148.411 156.137 148.004 155.91C147.604 155.677 147.164 155.56 146.684 155.56C146.211 155.56 145.771 155.673 145.364 155.9C144.964 156.127 144.631 156.437 144.364 156.83C144.104 157.217 143.931 157.653 143.844 158.14ZM156.319 164.19C155.792 164.157 155.279 164.05 154.779 163.87C154.279 163.69 153.839 163.447 153.459 163.14C153.086 162.827 152.806 162.46 152.619 162.04L154.389 161.28C154.476 161.46 154.626 161.637 154.839 161.81C155.059 161.983 155.316 162.127 155.609 162.24C155.902 162.347 156.209 162.4 156.529 162.4C156.842 162.4 157.132 162.357 157.399 162.27C157.672 162.177 157.896 162.037 158.069 161.85C158.242 161.663 158.329 161.44 158.329 161.18C158.329 160.887 158.229 160.66 158.029 160.5C157.836 160.333 157.592 160.207 157.299 160.12C157.006 160.033 156.712 159.95 156.419 159.87C155.766 159.723 155.166 159.523 154.619 159.27C154.079 159.01 153.649 158.68 153.329 158.28C153.009 157.873 152.849 157.377 152.849 156.79C152.849 156.15 153.022 155.597 153.369 155.13C153.716 154.657 154.169 154.293 154.729 154.04C155.296 153.787 155.899 153.66 156.539 153.66C157.339 153.66 158.072 153.83 158.739 154.17C159.406 154.51 159.916 154.977 160.269 155.57L158.619 156.55C158.519 156.35 158.369 156.17 158.169 156.01C157.969 155.85 157.742 155.723 157.489 155.63C157.236 155.53 156.972 155.473 156.699 155.46C156.359 155.447 156.042 155.487 155.749 155.58C155.462 155.667 155.232 155.807 155.059 156C154.886 156.193 154.799 156.44 154.799 156.74C154.799 157.033 154.902 157.253 155.109 157.4C155.316 157.54 155.576 157.653 155.889 157.74C156.209 157.827 156.536 157.923 156.869 158.03C157.462 158.217 158.019 158.447 158.539 158.72C159.059 158.987 159.479 159.317 159.799 159.71C160.119 160.103 160.272 160.583 160.259 161.15C160.259 161.777 160.069 162.327 159.689 162.8C159.316 163.273 158.829 163.633 158.229 163.88C157.629 164.127 156.992 164.23 156.319 164.19ZM167.251 156.08H165.151L165.141 164H163.061L163.071 156.08H161.481V154H163.071L163.061 150.86H165.141L165.151 154H167.251V156.08ZM169.042 164V154H171.122V155.06C171.468 154.647 171.892 154.32 172.392 154.08C172.898 153.84 173.445 153.72 174.032 153.72C174.745 153.72 175.402 153.893 176.002 154.24C176.602 154.58 177.078 155.033 177.432 155.6C177.785 155.033 178.255 154.58 178.842 154.24C179.435 153.893 180.088 153.72 180.802 153.72C181.542 153.72 182.215 153.9 182.822 154.26C183.428 154.62 183.912 155.103 184.272 155.71C184.632 156.317 184.812 156.99 184.812 157.73V164H182.732V158.26C182.732 157.82 182.625 157.417 182.412 157.05C182.198 156.683 181.912 156.387 181.552 156.16C181.192 155.933 180.792 155.82 180.352 155.82C179.912 155.82 179.512 155.927 179.152 156.14C178.792 156.353 178.505 156.643 178.292 157.01C178.078 157.377 177.972 157.793 177.972 158.26V164H175.892V158.26C175.892 157.793 175.785 157.377 175.572 157.01C175.358 156.643 175.068 156.353 174.702 156.14C174.342 155.927 173.942 155.82 173.502 155.82C173.068 155.82 172.668 155.933 172.302 156.16C171.942 156.387 171.655 156.683 171.442 157.05C171.228 157.417 171.122 157.82 171.122 158.26V164H169.042ZM191.02 164.26C190.1 164.26 189.26 164.023 188.5 163.55C187.747 163.077 187.143 162.443 186.69 161.65C186.243 160.85 186.02 159.967 186.02 159C186.02 158.267 186.15 157.583 186.41 156.95C186.67 156.31 187.027 155.75 187.48 155.27C187.94 154.783 188.473 154.403 189.08 154.13C189.687 153.857 190.333 153.72 191.02 153.72C191.787 153.72 192.49 153.88 193.13 154.2C193.77 154.513 194.317 154.95 194.77 155.51C195.223 156.063 195.557 156.703 195.77 157.43C195.983 158.15 196.047 158.917 195.96 159.73H188.25C188.337 160.19 188.503 160.607 188.75 160.98C189.003 161.347 189.323 161.637 189.71 161.85C190.103 162.063 190.54 162.173 191.02 162.18C191.527 162.18 191.987 162.053 192.4 161.8C192.82 161.547 193.163 161.197 193.43 160.75L195.54 161.24C195.14 162.127 194.537 162.853 193.73 163.42C192.923 163.98 192.02 164.26 191.02 164.26ZM188.18 158.14H193.86C193.793 157.66 193.623 157.227 193.35 156.84C193.083 156.447 192.747 156.137 192.34 155.91C191.94 155.677 191.5 155.56 191.02 155.56C190.547 155.56 190.107 155.673 189.7 155.9C189.3 156.127 188.967 156.437 188.7 156.83C188.44 157.217 188.267 157.653 188.18 158.14ZM206.616 157.73V164H204.536V158.24C204.536 157.793 204.426 157.387 204.206 157.02C203.993 156.653 203.703 156.363 203.336 156.15C202.976 155.93 202.569 155.82 202.116 155.82C201.676 155.82 201.273 155.93 200.906 156.15C200.539 156.363 200.246 156.653 200.026 157.02C199.806 157.387 199.696 157.793 199.696 158.24V164H197.616V154H199.696V155.06C200.043 154.647 200.469 154.32 200.976 154.08C201.483 153.84 202.029 153.72 202.616 153.72C203.356 153.72 204.029 153.9 204.636 154.26C205.243 154.62 205.723 155.103 206.076 155.71C206.436 156.317 206.616 156.99 206.616 157.73ZM213.892 156.08H211.792L211.782 164H209.702L209.712 156.08H208.122V154H209.712L209.702 150.86H211.782L211.792 154H213.892V156.08ZM218.546 164.19C218.019 164.157 217.506 164.05 217.006 163.87C216.506 163.69 216.066 163.447 215.686 163.14C215.312 162.827 215.032 162.46 214.846 162.04L216.616 161.28C216.702 161.46 216.852 161.637 217.066 161.81C217.286 161.983 217.542 162.127 217.836 162.24C218.129 162.347 218.436 162.4 218.756 162.4C219.069 162.4 219.359 162.357 219.626 162.27C219.899 162.177 220.122 162.037 220.296 161.85C220.469 161.663 220.556 161.44 220.556 161.18C220.556 160.887 220.456 160.66 220.256 160.5C220.062 160.333 219.819 160.207 219.526 160.12C219.232 160.033 218.939 159.95 218.646 159.87C217.992 159.723 217.392 159.523 216.846 159.27C216.306 159.01 215.876 158.68 215.556 158.28C215.236 157.873 215.076 157.377 215.076 156.79C215.076 156.15 215.249 155.597 215.596 155.13C215.942 154.657 216.396 154.293 216.956 154.04C217.522 153.787 218.126 153.66 218.766 153.66C219.566 153.66 220.299 153.83 220.966 154.17C221.632 154.51 222.142 154.977 222.496 155.57L220.846 156.55C220.746 156.35 220.596 156.17 220.396 156.01C220.196 155.85 219.969 155.723 219.716 155.63C219.462 155.53 219.199 155.473 218.926 155.46C218.586 155.447 218.269 155.487 217.976 155.58C217.689 155.667 217.459 155.807 217.286 156C217.112 156.193 217.026 156.44 217.026 156.74C217.026 157.033 217.129 157.253 217.336 157.4C217.542 157.54 217.802 157.653 218.116 157.74C218.436 157.827 218.762 157.923 219.096 158.03C219.689 158.217 220.246 158.447 220.766 158.72C221.286 158.987 221.706 159.317 222.026 159.71C222.346 160.103 222.499 160.583 222.486 161.15C222.486 161.777 222.296 162.327 221.916 162.8C221.542 163.273 221.056 163.633 220.456 163.88C219.856 164.127 219.219 164.23 218.546 164.19ZM223.739 165.12L224.359 161.74H226.439L225.119 165.12H223.739ZM233.951 164V150H236.031V164H233.951ZM247.729 157.73V164H245.649V158.24C245.649 157.793 245.539 157.387 245.319 157.02C245.106 156.653 244.816 156.363 244.449 156.15C244.089 155.93 243.683 155.82 243.229 155.82C242.789 155.82 242.386 155.93 242.019 156.15C241.653 156.363 241.359 156.653 241.139 157.02C240.919 157.387 240.809 157.793 240.809 158.24V164H238.729V154H240.809V155.06C241.156 154.647 241.583 154.32 242.089 154.08C242.596 153.84 243.143 153.72 243.729 153.72C244.469 153.72 245.143 153.9 245.749 154.26C246.356 154.62 246.836 155.103 247.189 155.71C247.549 156.317 247.729 156.99 247.729 157.73ZM252.295 151.73V154H255.115V156.08H252.295V164H250.215V156.08H249.025V154H250.215V151.73C250.215 151.183 250.349 150.687 250.615 150.24C250.882 149.787 251.239 149.427 251.685 149.16C252.139 148.893 252.642 148.76 253.195 148.76C253.595 148.76 253.985 148.84 254.365 149C254.745 149.16 255.085 149.407 255.385 149.74L253.895 151.21C253.822 151.09 253.719 151 253.585 150.94C253.459 150.873 253.329 150.84 253.195 150.84C252.949 150.84 252.735 150.927 252.555 151.1C252.382 151.273 252.295 151.483 252.295 151.73ZM260.942 164.26C260.022 164.26 259.182 164.023 258.422 163.55C257.668 163.077 257.065 162.443 256.612 161.65C256.165 160.85 255.942 159.967 255.942 159C255.942 158.267 256.072 157.583 256.332 156.95C256.592 156.31 256.948 155.75 257.402 155.27C257.862 154.783 258.395 154.403 259.002 154.13C259.608 153.857 260.255 153.72 260.942 153.72C261.862 153.72 262.698 153.957 263.452 154.43C264.212 154.903 264.815 155.54 265.262 156.34C265.715 157.14 265.942 158.027 265.942 159C265.942 159.727 265.812 160.407 265.552 161.04C265.292 161.673 264.932 162.233 264.472 162.72C264.018 163.2 263.488 163.577 262.882 163.85C262.282 164.123 261.635 164.26 260.942 164.26ZM260.942 162.18C261.495 162.18 261.992 162.033 262.432 161.74C262.872 161.447 263.218 161.06 263.472 160.58C263.732 160.093 263.862 159.567 263.862 159C263.862 158.42 263.728 157.887 263.462 157.4C263.202 156.913 262.852 156.527 262.412 156.24C261.972 155.947 261.482 155.8 260.942 155.8C260.395 155.8 259.898 155.947 259.452 156.24C259.012 156.533 258.662 156.923 258.402 157.41C258.148 157.897 258.022 158.427 258.022 159C258.022 159.593 258.155 160.13 258.422 160.61C258.688 161.09 259.042 161.473 259.482 161.76C259.928 162.04 260.415 162.18 260.942 162.18ZM267.557 164V154H269.637V155.06C269.984 154.647 270.411 154.32 270.917 154.08C271.424 153.84 271.971 153.72 272.557 153.72C272.931 153.72 273.301 153.77 273.667 153.87L272.837 155.97C272.577 155.87 272.317 155.82 272.057 155.82C271.617 155.82 271.214 155.93 270.847 156.15C270.481 156.363 270.187 156.653 269.967 157.02C269.747 157.387 269.637 157.793 269.637 158.24V164H267.557ZM274.901 164V154H276.981V155.06C277.328 154.647 277.751 154.32 278.251 154.08C278.758 153.84 279.305 153.72 279.891 153.72C280.605 153.72 281.261 153.893 281.861 154.24C282.461 154.58 282.938 155.033 283.291 155.6C283.645 155.033 284.115 154.58 284.701 154.24C285.295 153.893 285.948 153.72 286.661 153.72C287.401 153.72 288.075 153.9 288.681 154.26C289.288 154.62 289.771 155.103 290.131 155.71C290.491 156.317 290.671 156.99 290.671 157.73V164H288.591V158.26C288.591 157.82 288.485 157.417 288.271 157.05C288.058 156.683 287.771 156.387 287.411 156.16C287.051 155.933 286.651 155.82 286.211 155.82C285.771 155.82 285.371 155.927 285.011 156.14C284.651 156.353 284.365 156.643 284.151 157.01C283.938 157.377 283.831 157.793 283.831 158.26V164H281.751V158.26C281.751 157.793 281.645 157.377 281.431 157.01C281.218 156.643 280.928 156.353 280.561 156.14C280.201 155.927 279.801 155.82 279.361 155.82C278.928 155.82 278.528 155.933 278.161 156.16C277.801 156.387 277.515 156.683 277.301 157.05C277.088 157.417 276.981 157.82 276.981 158.26V164H274.901ZM296.879 164.26C295.959 164.26 295.119 164.023 294.359 163.55C293.606 163.077 293.003 162.443 292.549 161.65C292.103 160.85 291.879 159.967 291.879 159C291.879 158.267 292.009 157.583 292.269 156.95C292.529 156.31 292.886 155.75 293.339 155.27C293.799 154.783 294.333 154.403 294.939 154.13C295.546 153.857 296.193 153.72 296.879 153.72C297.646 153.72 298.349 153.88 298.989 154.2C299.629 154.513 300.176 154.95 300.629 155.51C301.083 156.063 301.416 156.703 301.629 157.43C301.843 158.15 301.906 158.917 301.819 159.73H294.109C294.196 160.19 294.363 160.607 294.609 160.98C294.863 161.347 295.183 161.637 295.569 161.85C295.963 162.063 296.399 162.173 296.879 162.18C297.386 162.18 297.846 162.053 298.259 161.8C298.679 161.547 299.023 161.197 299.289 160.75L301.399 161.24C300.999 162.127 300.396 162.853 299.589 163.42C298.783 163.98 297.879 164.26 296.879 164.26ZM294.039 158.14H299.719C299.653 157.66 299.483 157.227 299.209 156.84C298.943 156.447 298.606 156.137 298.199 155.91C297.799 155.677 297.359 155.56 296.879 155.56C296.406 155.56 295.966 155.673 295.559 155.9C295.159 156.127 294.826 156.437 294.559 156.83C294.299 157.217 294.126 157.653 294.039 158.14ZM311.246 149H313.326V164H311.246V162.53C310.919 163.05 310.493 163.47 309.966 163.79C309.439 164.103 308.823 164.26 308.116 164.26C307.389 164.26 306.709 164.123 306.076 163.85C305.443 163.577 304.883 163.2 304.396 162.72C303.916 162.233 303.539 161.673 303.266 161.04C302.993 160.407 302.856 159.727 302.856 159C302.856 158.273 302.993 157.593 303.266 156.96C303.539 156.32 303.916 155.76 304.396 155.28C304.883 154.793 305.443 154.413 306.076 154.14C306.709 153.867 307.389 153.73 308.116 153.73C308.823 153.73 309.439 153.89 309.966 154.21C310.493 154.523 310.919 154.937 311.246 155.45V149ZM308.136 162.25C308.723 162.25 309.236 162.107 309.676 161.82C310.116 161.527 310.456 161.133 310.696 160.64C310.943 160.147 311.066 159.6 311.066 159C311.066 158.393 310.943 157.843 310.696 157.35C310.449 156.857 310.106 156.467 309.666 156.18C309.233 155.887 308.723 155.74 308.136 155.74C307.556 155.74 307.026 155.887 306.546 156.18C306.073 156.473 305.693 156.867 305.406 157.36C305.126 157.853 304.986 158.4 304.986 159C304.986 159.607 305.129 160.157 305.416 160.65C305.709 161.137 306.093 161.527 306.566 161.82C307.046 162.107 307.569 162.25 308.136 162.25ZM320.526 164V150H325.156C326.123 150 327.03 150.183 327.876 150.55C328.723 150.91 329.466 151.413 330.106 152.06C330.746 152.7 331.246 153.443 331.606 154.29C331.973 155.13 332.156 156.033 332.156 157C332.156 157.967 331.973 158.873 331.606 159.72C331.246 160.56 330.746 161.303 330.106 161.95C329.466 162.59 328.723 163.093 327.876 163.46C327.03 163.82 326.123 164 325.156 164H320.526ZM322.606 161.92H325.156C325.836 161.92 326.47 161.793 327.056 161.54C327.65 161.287 328.173 160.933 328.626 160.48C329.086 160.027 329.443 159.503 329.696 158.91C329.95 158.317 330.076 157.68 330.076 157C330.076 156.32 329.95 155.683 329.696 155.09C329.443 154.497 329.086 153.973 328.626 153.52C328.173 153.067 327.65 152.713 327.056 152.46C326.47 152.207 325.836 152.08 325.156 152.08H322.606V161.92ZM338.129 164.26C337.209 164.26 336.369 164.023 335.609 163.55C334.856 163.077 334.253 162.443 333.799 161.65C333.353 160.85 333.129 159.967 333.129 159C333.129 158.267 333.259 157.583 333.519 156.95C333.779 156.31 334.136 155.75 334.589 155.27C335.049 154.783 335.583 154.403 336.189 154.13C336.796 153.857 337.443 153.72 338.129 153.72C338.896 153.72 339.599 153.88 340.239 154.2C340.879 154.513 341.426 154.95 341.879 155.51C342.333 156.063 342.666 156.703 342.879 157.43C343.093 158.15 343.156 158.917 343.069 159.73H335.359C335.446 160.19 335.613 160.607 335.859 160.98C336.113 161.347 336.433 161.637 336.819 161.85C337.213 162.063 337.649 162.173 338.129 162.18C338.636 162.18 339.096 162.053 339.509 161.8C339.929 161.547 340.273 161.197 340.539 160.75L342.649 161.24C342.249 162.127 341.646 162.853 340.839 163.42C340.033 163.98 339.129 164.26 338.129 164.26ZM335.289 158.14H340.969C340.903 157.66 340.733 157.227 340.459 156.84C340.193 156.447 339.856 156.137 339.449 155.91C339.049 155.677 338.609 155.56 338.129 155.56C337.656 155.56 337.216 155.673 336.809 155.9C336.409 156.127 336.076 156.437 335.809 156.83C335.549 157.217 335.376 157.653 335.289 158.14ZM351.236 161.16L353.096 162.17C352.643 162.803 352.066 163.31 351.366 163.69C350.673 164.07 349.919 164.26 349.106 164.26C348.186 164.26 347.346 164.023 346.586 163.55C345.833 163.077 345.229 162.443 344.776 161.65C344.329 160.85 344.106 159.967 344.106 159C344.106 158.267 344.236 157.583 344.496 156.95C344.756 156.31 345.113 155.75 345.566 155.27C346.026 154.783 346.559 154.403 347.166 154.13C347.773 153.857 348.419 153.72 349.106 153.72C349.919 153.72 350.673 153.91 351.366 154.29C352.066 154.67 352.643 155.18 353.096 155.82L351.236 156.83C350.956 156.497 350.629 156.243 350.256 156.07C349.883 155.89 349.499 155.8 349.106 155.8C348.559 155.8 348.063 155.95 347.616 156.25C347.176 156.543 346.826 156.933 346.566 157.42C346.313 157.9 346.186 158.427 346.186 159C346.186 159.567 346.316 160.093 346.576 160.58C346.836 161.06 347.186 161.447 347.626 161.74C348.073 162.033 348.566 162.18 349.106 162.18C349.519 162.18 349.913 162.087 350.286 161.9C350.659 161.713 350.976 161.467 351.236 161.16ZM354.589 154H356.669V164H354.589V154ZM355.649 152.55C355.329 152.55 355.062 152.447 354.849 152.24C354.635 152.033 354.529 151.773 354.529 151.46C354.529 151.153 354.635 150.897 354.849 150.69C355.062 150.477 355.325 150.37 355.639 150.37C355.945 150.37 356.205 150.477 356.419 150.69C356.632 150.897 356.739 151.153 356.739 151.46C356.739 151.773 356.632 152.033 356.419 152.24C356.212 152.447 355.955 152.55 355.649 152.55ZM361.925 164.19C361.398 164.157 360.885 164.05 360.385 163.87C359.885 163.69 359.445 163.447 359.065 163.14C358.691 162.827 358.411 162.46 358.225 162.04L359.995 161.28C360.081 161.46 360.231 161.637 360.445 161.81C360.665 161.983 360.921 162.127 361.215 162.24C361.508 162.347 361.815 162.4 362.135 162.4C362.448 162.4 362.738 162.357 363.005 162.27C363.278 162.177 363.501 162.037 363.675 161.85C363.848 161.663 363.935 161.44 363.935 161.18C363.935 160.887 363.835 160.66 363.635 160.5C363.441 160.333 363.198 160.207 362.905 160.12C362.611 160.033 362.318 159.95 362.025 159.87C361.371 159.723 360.771 159.523 360.225 159.27C359.685 159.01 359.255 158.68 358.935 158.28C358.615 157.873 358.455 157.377 358.455 156.79C358.455 156.15 358.628 155.597 358.975 155.13C359.321 154.657 359.775 154.293 360.335 154.04C360.901 153.787 361.505 153.66 362.145 153.66C362.945 153.66 363.678 153.83 364.345 154.17C365.011 154.51 365.521 154.977 365.875 155.57L364.225 156.55C364.125 156.35 363.975 156.17 363.775 156.01C363.575 155.85 363.348 155.723 363.095 155.63C362.841 155.53 362.578 155.473 362.305 155.46C361.965 155.447 361.648 155.487 361.355 155.58C361.068 155.667 360.838 155.807 360.665 156C360.491 156.193 360.405 156.44 360.405 156.74C360.405 157.033 360.508 157.253 360.715 157.4C360.921 157.54 361.181 157.653 361.495 157.74C361.815 157.827 362.141 157.923 362.475 158.03C363.068 158.217 363.625 158.447 364.145 158.72C364.665 158.987 365.085 159.317 365.405 159.71C365.725 160.103 365.878 160.583 365.865 161.15C365.865 161.777 365.675 162.327 365.295 162.8C364.921 163.273 364.435 163.633 363.835 163.88C363.235 164.127 362.598 164.23 361.925 164.19ZM367.401 154H369.481V164H367.401V154ZM368.461 152.55C368.141 152.55 367.875 152.447 367.661 152.24C367.448 152.033 367.341 151.773 367.341 151.46C367.341 151.153 367.448 150.897 367.661 150.69C367.875 150.477 368.138 150.37 368.451 150.37C368.758 150.37 369.018 150.477 369.231 150.69C369.445 150.897 369.551 151.153 369.551 151.46C369.551 151.773 369.445 152.033 369.231 152.24C369.025 152.447 368.768 152.55 368.461 152.55ZM376.098 164.26C375.178 164.26 374.338 164.023 373.578 163.55C372.825 163.077 372.221 162.443 371.768 161.65C371.321 160.85 371.098 159.967 371.098 159C371.098 158.267 371.228 157.583 371.488 156.95C371.748 156.31 372.105 155.75 372.558 155.27C373.018 154.783 373.551 154.403 374.158 154.13C374.765 153.857 375.411 153.72 376.098 153.72C377.018 153.72 377.855 153.957 378.608 154.43C379.368 154.903 379.971 155.54 380.418 156.34C380.871 157.14 381.098 158.027 381.098 159C381.098 159.727 380.968 160.407 380.708 161.04C380.448 161.673 380.088 162.233 379.628 162.72C379.175 163.2 378.645 163.577 378.038 163.85C377.438 164.123 376.791 164.26 376.098 164.26ZM376.098 162.18C376.651 162.18 377.148 162.033 377.588 161.74C378.028 161.447 378.375 161.06 378.628 160.58C378.888 160.093 379.018 159.567 379.018 159C379.018 158.42 378.885 157.887 378.618 157.4C378.358 156.913 378.008 156.527 377.568 156.24C377.128 155.947 376.638 155.8 376.098 155.8C375.551 155.8 375.055 155.947 374.608 156.24C374.168 156.533 373.818 156.923 373.558 157.41C373.305 157.897 373.178 158.427 373.178 159C373.178 159.593 373.311 160.13 373.578 160.61C373.845 161.09 374.198 161.473 374.638 161.76C375.085 162.04 375.571 162.18 376.098 162.18ZM391.714 157.73V164H389.634V158.24C389.634 157.793 389.524 157.387 389.304 157.02C389.09 156.653 388.8 156.363 388.434 156.15C388.074 155.93 387.667 155.82 387.214 155.82C386.774 155.82 386.37 155.93 386.004 156.15C385.637 156.363 385.344 156.653 385.124 157.02C384.904 157.387 384.794 157.793 384.794 158.24V164H382.714V154H384.794V155.06C385.14 154.647 385.567 154.32 386.074 154.08C386.58 153.84 387.127 153.72 387.714 153.72C388.454 153.72 389.127 153.9 389.734 154.26C390.34 154.62 390.82 155.103 391.174 155.71C391.534 156.317 391.714 156.99 391.714 157.73ZM396.71 164.19C396.183 164.157 395.67 164.05 395.17 163.87C394.67 163.69 394.23 163.447 393.85 163.14C393.476 162.827 393.196 162.46 393.01 162.04L394.78 161.28C394.866 161.46 395.016 161.637 395.23 161.81C395.45 161.983 395.706 162.127 396 162.24C396.293 162.347 396.6 162.4 396.92 162.4C397.233 162.4 397.523 162.357 397.79 162.27C398.063 162.177 398.286 162.037 398.46 161.85C398.633 161.663 398.72 161.44 398.72 161.18C398.72 160.887 398.62 160.66 398.42 160.5C398.226 160.333 397.983 160.207 397.69 160.12C397.396 160.033 397.103 159.95 396.81 159.87C396.156 159.723 395.556 159.523 395.01 159.27C394.47 159.01 394.04 158.68 393.72 158.28C393.4 157.873 393.24 157.377 393.24 156.79C393.24 156.15 393.413 155.597 393.76 155.13C394.106 154.657 394.56 154.293 395.12 154.04C395.686 153.787 396.29 153.66 396.93 153.66C397.73 153.66 398.463 153.83 399.13 154.17C399.796 154.51 400.306 154.977 400.66 155.57L399.01 156.55C398.91 156.35 398.76 156.17 398.56 156.01C398.36 155.85 398.133 155.723 397.88 155.63C397.626 155.53 397.363 155.473 397.09 155.46C396.75 155.447 396.433 155.487 396.14 155.58C395.853 155.667 395.623 155.807 395.45 156C395.276 156.193 395.19 156.44 395.19 156.74C395.19 157.033 395.293 157.253 395.5 157.4C395.706 157.54 395.966 157.653 396.28 157.74C396.6 157.827 396.926 157.923 397.26 158.03C397.853 158.217 398.41 158.447 398.93 158.72C399.45 158.987 399.87 159.317 400.19 159.71C400.51 160.103 400.663 160.583 400.65 161.15C400.65 161.777 400.46 162.327 400.08 162.8C399.706 163.273 399.22 163.633 398.62 163.88C398.02 164.127 397.383 164.23 396.71 164.19Z" fill="white"></path><path d="M407.375 47.625L428.625 26.375M428.625 26.375L412.687 26.375M428.625 26.375V42.3125" stroke="#4D4D4D" stroke-width="2" stroke-linecap="round" stroke-linejoin="round"></path><defs><linearGradient id="paint0_linear_134_6230" x1="193.25" y1="126.5" x2="272.25" y2="34.5" gradientUnits="userSpaceOnUse"><stop stop-color="#A685FA"></stop><stop offset="0.323723" stop-color="#A685FA" stop-opacity="0"></stop></linearGradient><linearGradient id="paint1_linear_134_6230" x1="268.25" y1="29.5" x2="193.25" y2="122" gradientUnits="userSpaceOnUse"><stop stop-color="#A685FA"></stop><stop offset="0.576615" stop-color="#A685FA" stop-opacity="0"></stop></linearGradient><linearGradient id="paint2_linear_134_6230" x1="189.75" y1="53.5" x2="258.25" y2="112" gradientUnits="userSpaceOnUse"><stop stop-color="#A685FA"></stop><stop offset="0.323723" stop-color="#A685FA" stop-opacity="0"></stop></linearGradient><linearGradient id="paint3_linear_134_6230" x1="270.75" y1="126" x2="198.75" y2="75" gradientUnits="userSpaceOnUse"><stop stop-color="#A685FA"></stop><stop offset="0.576615" stop-color="#A685FA" stop-opacity="0"></stop></linearGradient></defs></svg>