<svg xmlns="http://www.w3.org/2000/svg" width="463" height="66" viewBox="0 0 463 66" fill="none"><g clip-path="url(#clip0_166_1115)"><path d="M1.34 15L3.237 5.2H4.14L6.786 12.158L9.425 5.2H10.328L12.232 15H11.035L9.656 7.888L7.171 14.468H6.394L3.909 7.888L2.537 15H1.34ZM16.3829 15.182C15.7389 15.182 15.1509 15.0163 14.6189 14.685C14.0916 14.3537 13.6692 13.9103 13.3519 13.355C13.0392 12.795 12.8829 12.1767 12.8829 11.5C12.8829 10.9867 12.9739 10.5083 13.1559 10.065C13.3379 9.617 13.5876 9.225 13.9049 8.889C14.2269 8.54833 14.6002 8.28233 15.0249 8.091C15.4496 7.89967 15.9022 7.804 16.3829 7.804C17.0269 7.804 17.6126 7.96967 18.1399 8.301C18.6719 8.63233 19.0942 9.078 19.4069 9.638C19.7242 10.198 19.8829 10.8187 19.8829 11.5C19.8829 12.0087 19.7919 12.4847 19.6099 12.928C19.4279 13.3713 19.1759 13.7633 18.8539 14.104C18.5366 14.44 18.1656 14.7037 17.7409 14.895C17.3209 15.0863 16.8682 15.182 16.3829 15.182ZM16.3829 14.006C16.8216 14.006 17.2159 13.8917 17.5659 13.663C17.9206 13.4297 18.1982 13.124 18.3989 12.746C18.6042 12.3633 18.7069 11.948 18.7069 11.5C18.7069 11.0427 18.6019 10.6227 18.3919 10.24C18.1866 9.85733 17.9089 9.55167 17.5589 9.323C17.2089 9.09433 16.8169 8.98 16.3829 8.98C15.9442 8.98 15.5499 9.09667 15.1999 9.33C14.8499 9.55867 14.5722 9.86433 14.3669 10.247C14.1616 10.6297 14.0589 11.0473 14.0589 11.5C14.0589 11.9667 14.1639 12.3913 14.3739 12.774C14.5839 13.152 14.8662 13.453 15.2209 13.677C15.5756 13.8963 15.9629 14.006 16.3829 14.006ZM21.0412 15V8H22.2172V8.875C22.4645 8.54833 22.7772 8.28933 23.1552 8.098C23.5332 7.902 23.9438 7.804 24.3872 7.804C24.6578 7.804 24.9192 7.839 25.1712 7.909L24.6952 9.085C24.5038 9.02433 24.3172 8.994 24.1352 8.994C23.7852 8.994 23.4632 9.08033 23.1692 9.253C22.8798 9.421 22.6488 9.64967 22.4762 9.939C22.3035 10.2283 22.2172 10.5503 22.2172 10.905V15H21.0412ZM29.7805 9.176H28.1915L28.1845 15H27.0085L27.0155 9.176H25.8115V8H27.0155L27.0085 5.802H28.1845L28.1915 8H29.7805V9.176ZM36.3246 8H37.5006V15.224C37.5006 15.686 37.4002 16.1153 37.1996 16.512C37.0036 16.9133 36.7376 17.261 36.4016 17.555C36.0656 17.8537 35.6829 18.0847 35.2536 18.248C34.8242 18.416 34.3762 18.5 33.9096 18.5C33.4242 18.5 32.9552 18.3903 32.5026 18.171C32.0499 17.9563 31.6532 17.667 31.3126 17.303C30.9766 16.9437 30.7339 16.54 30.5846 16.092L31.6626 15.602C31.7512 15.924 31.9099 16.2133 32.1386 16.47C32.3719 16.7313 32.6426 16.9367 32.9506 17.086C33.2632 17.24 33.5829 17.317 33.9096 17.317C34.2176 17.317 34.5139 17.2633 34.7986 17.156C35.0879 17.0487 35.3469 16.8993 35.5756 16.708C35.8089 16.5213 35.9909 16.2997 36.1216 16.043C36.2569 15.791 36.3246 15.518 36.3246 15.224V13.831C36.0866 14.2323 35.7716 14.559 35.3796 14.811C34.9922 15.0583 34.5396 15.182 34.0216 15.182C33.5269 15.182 33.0626 15.0863 32.6286 14.895C32.1946 14.7037 31.8142 14.44 31.4876 14.104C31.1609 13.7633 30.9042 13.3713 30.7176 12.928C30.5309 12.4847 30.4376 12.0087 30.4376 11.5C30.4376 10.9913 30.5309 10.5153 30.7176 10.072C30.9042 9.624 31.1609 9.232 31.4876 8.896C31.8142 8.55533 32.1946 8.28933 32.6286 8.098C33.0626 7.90667 33.5269 7.811 34.0216 7.811C34.5396 7.811 34.9922 7.93467 35.3796 8.182C35.7716 8.42933 36.0866 8.756 36.3246 9.162V8ZM34.0286 14.041C34.4812 14.041 34.8732 13.9243 35.2046 13.691C35.5406 13.4577 35.7996 13.1473 35.9816 12.76C36.1636 12.3727 36.2546 11.9527 36.2546 11.5C36.2546 11.0333 36.1612 10.6087 35.9746 10.226C35.7926 9.83867 35.5336 9.53067 35.1976 9.302C34.8662 9.06867 34.4766 8.952 34.0286 8.952C33.5899 8.952 33.1886 9.06633 32.8246 9.295C32.4606 9.52367 32.1712 9.83167 31.9566 10.219C31.7466 10.6017 31.6416 11.0287 31.6416 11.5C31.6416 11.9713 31.7489 12.4007 31.9636 12.788C32.1829 13.1707 32.4722 13.4763 32.8316 13.705C33.1956 13.929 33.5946 14.041 34.0286 14.041ZM44.716 8H45.892V15H44.716L44.667 13.817C44.4477 14.223 44.1444 14.552 43.757 14.804C43.3744 15.056 42.917 15.182 42.385 15.182C41.8717 15.182 41.391 15.0863 40.943 14.895C40.495 14.699 40.0984 14.4307 39.753 14.09C39.4124 13.7447 39.1464 13.348 38.955 12.9C38.7637 12.452 38.668 11.969 38.668 11.451C38.668 10.9517 38.7614 10.4803 38.948 10.037C39.1347 9.59367 39.3937 9.20633 39.725 8.875C40.061 8.539 40.4484 8.27767 40.887 8.091C41.3257 7.89967 41.797 7.804 42.301 7.804C42.8517 7.804 43.3347 7.93467 43.75 8.196C44.1654 8.45267 44.5014 8.78633 44.758 9.197L44.716 8ZM42.364 14.041C42.826 14.041 43.225 13.929 43.561 13.705C43.9017 13.4763 44.163 13.1683 44.345 12.781C44.5317 12.3937 44.625 11.9667 44.625 11.5C44.625 11.024 44.5317 10.5947 44.345 10.212C44.1584 9.82467 43.8947 9.519 43.554 9.295C43.218 9.06633 42.8214 8.952 42.364 8.952C41.902 8.952 41.482 9.06633 41.104 9.295C40.726 9.52367 40.425 9.83167 40.201 10.219C39.9817 10.6017 39.872 11.0287 39.872 11.5C39.872 11.9713 39.9864 12.4007 40.215 12.788C40.4437 13.1707 40.747 13.4763 41.125 13.705C41.503 13.929 41.916 14.041 42.364 14.041ZM52.6215 8H53.7975V15.224C53.7975 15.686 53.6971 16.1153 53.4965 16.512C53.3005 16.9133 53.0345 17.261 52.6985 17.555C52.3625 17.8537 51.9798 18.0847 51.5505 18.248C51.1211 18.416 50.6731 18.5 50.2065 18.5C49.7211 18.5 49.2521 18.3903 48.7995 18.171C48.3468 17.9563 47.9501 17.667 47.6095 17.303C47.2735 16.9437 47.0308 16.54 46.8815 16.092L47.9595 15.602C48.0481 15.924 48.2068 16.2133 48.4355 16.47C48.6688 16.7313 48.9395 16.9367 49.2475 17.086C49.5601 17.24 49.8798 17.317 50.2065 17.317C50.5145 17.317 50.8108 17.2633 51.0955 17.156C51.3848 17.0487 51.6438 16.8993 51.8725 16.708C52.1058 16.5213 52.2878 16.2997 52.4185 16.043C52.5538 15.791 52.6215 15.518 52.6215 15.224V13.831C52.3835 14.2323 52.0685 14.559 51.6765 14.811C51.2891 15.0583 50.8365 15.182 50.3185 15.182C49.8238 15.182 49.3595 15.0863 48.9255 14.895C48.4915 14.7037 48.1111 14.44 47.7845 14.104C47.4578 13.7633 47.2011 13.3713 47.0145 12.928C46.8278 12.4847 46.7345 12.0087 46.7345 11.5C46.7345 10.9913 46.8278 10.5153 47.0145 10.072C47.2011 9.624 47.4578 9.232 47.7845 8.896C48.1111 8.55533 48.4915 8.28933 48.9255 8.098C49.3595 7.90667 49.8238 7.811 50.3185 7.811C50.8365 7.811 51.2891 7.93467 51.6765 8.182C52.0685 8.42933 52.3835 8.756 52.6215 9.162V8ZM50.3255 14.041C50.7781 14.041 51.1701 13.9243 51.5015 13.691C51.8375 13.4577 52.0965 13.1473 52.2785 12.76C52.4605 12.3727 52.5515 11.9527 52.5515 11.5C52.5515 11.0333 52.4581 10.6087 52.2715 10.226C52.0895 9.83867 51.8305 9.53067 51.4945 9.302C51.1631 9.06867 50.7735 8.952 50.3255 8.952C49.8868 8.952 49.4855 9.06633 49.1215 9.295C48.7575 9.52367 48.4681 9.83167 48.2535 10.219C48.0435 10.6017 47.9385 11.0287 47.9385 11.5C47.9385 11.9713 48.0458 12.4007 48.2605 12.788C48.4798 13.1707 48.7691 13.4763 49.1285 13.705C49.4925 13.929 49.8915 14.041 50.3255 14.041ZM58.4649 15.182C57.8209 15.182 57.2329 15.0163 56.7009 14.685C56.1736 14.3537 55.7513 13.9103 55.4339 13.355C55.1213 12.795 54.9649 12.1767 54.9649 11.5C54.9649 10.9867 55.0559 10.5083 55.2379 10.065C55.4199 9.617 55.6696 9.225 55.9869 8.889C56.3089 8.54833 56.6823 8.28233 57.1069 8.091C57.5316 7.89967 57.9843 7.804 58.4649 7.804C58.9923 7.804 59.4753 7.91133 59.9139 8.126C60.3573 8.336 60.7353 8.63 61.0479 9.008C61.3653 9.386 61.6009 9.82467 61.7549 10.324C61.9136 10.8233 61.9719 11.3577 61.9299 11.927H56.2179C56.2739 12.3237 56.4046 12.6783 56.6099 12.991C56.8153 13.299 57.0766 13.544 57.3939 13.726C57.7159 13.908 58.0729 14.0013 58.4649 14.006C58.8849 14.006 59.2653 13.8987 59.6059 13.684C59.9466 13.4647 60.2219 13.166 60.4319 12.788L61.6289 13.068C61.3489 13.6887 60.9266 14.1973 60.3619 14.594C59.7973 14.986 59.1649 15.182 58.4649 15.182ZM56.1829 11.003H60.7469C60.7096 10.611 60.5836 10.254 60.3689 9.932C60.1543 9.60533 59.8813 9.344 59.5499 9.148C59.2186 8.952 58.8569 8.854 58.4649 8.854C58.0729 8.854 57.7136 8.94967 57.3869 9.141C57.0603 9.33233 56.7896 9.59133 56.5749 9.918C56.3649 10.24 56.2343 10.6017 56.1829 11.003ZM69.8515 5.2H71.2725L74.8355 15H73.5895L72.8615 12.998H68.2625L67.5415 15H66.2885L69.8515 5.2ZM68.6965 11.822H72.4275L70.5585 6.705L68.6965 11.822ZM76.0431 15V8H77.2191V8.875C77.4665 8.54833 77.7768 8.28933 78.1501 8.098C78.5281 7.902 78.9388 7.804 79.3821 7.804C79.9001 7.804 80.3738 7.93 80.8031 8.182C81.2325 8.434 81.5708 8.76767 81.8181 9.183C82.0655 8.76767 82.4015 8.434 82.8261 8.182C83.2555 7.93 83.7268 7.804 84.2401 7.804C84.7675 7.804 85.2458 7.93233 85.6751 8.189C86.1045 8.441 86.4451 8.78167 86.6971 9.211C86.9538 9.64033 87.0821 10.1187 87.0821 10.646V15H85.9061V10.926C85.9061 10.5807 85.8221 10.261 85.6541 9.967C85.4861 9.673 85.2598 9.43733 84.9751 9.26C84.6905 9.08267 84.3755 8.994 84.0301 8.994C83.6848 8.994 83.3698 9.078 83.0851 9.246C82.8005 9.40933 82.5741 9.638 82.4061 9.932C82.2381 10.2213 82.1541 10.5527 82.1541 10.926V15H80.9781V10.926C80.9781 10.5527 80.8941 10.2213 80.7261 9.932C80.5581 9.638 80.3295 9.40933 80.0401 9.246C79.7555 9.078 79.4405 8.994 79.0951 8.994C78.7545 8.994 78.4395 9.08267 78.1501 9.26C77.8655 9.43733 77.6391 9.673 77.4711 9.967C77.3031 10.261 77.2191 10.5807 77.2191 10.926V15H76.0431ZM91.4278 15.182C90.7838 15.182 90.1958 15.0163 89.6638 14.685C89.1365 14.3537 88.7141 13.9103 88.3968 13.355C88.0841 12.795 87.9278 12.1767 87.9278 11.5C87.9278 10.9867 88.0188 10.5083 88.2008 10.065C88.3828 9.617 88.6325 9.225 88.9498 8.889C89.2718 8.54833 89.6451 8.28233 90.0698 8.091C90.4945 7.89967 90.9471 7.804 91.4278 7.804C92.0718 7.804 92.6575 7.96967 93.1848 8.301C93.7168 8.63233 94.1391 9.078 94.4518 9.638C94.7691 10.198 94.9278 10.8187 94.9278 11.5C94.9278 12.0087 94.8368 12.4847 94.6548 12.928C94.4728 13.3713 94.2208 13.7633 93.8988 14.104C93.5815 14.44 93.2105 14.7037 92.7858 14.895C92.3658 15.0863 91.9131 15.182 91.4278 15.182ZM91.4278 14.006C91.8665 14.006 92.2608 13.8917 92.6108 13.663C92.9655 13.4297 93.2431 13.124 93.4438 12.746C93.6491 12.3633 93.7518 11.948 93.7518 11.5C93.7518 11.0427 93.6468 10.6227 93.4368 10.24C93.2315 9.85733 92.9538 9.55167 92.6038 9.323C92.2538 9.09433 91.8618 8.98 91.4278 8.98C90.9891 8.98 90.5948 9.09667 90.2448 9.33C89.8948 9.55867 89.6171 9.86433 89.4118 10.247C89.2065 10.6297 89.1038 11.0473 89.1038 11.5C89.1038 11.9667 89.2088 12.3913 89.4188 12.774C89.6288 13.152 89.9111 13.453 90.2658 13.677C90.6205 13.8963 91.0078 14.006 91.4278 14.006ZM95.7104 12.34V8H96.8864V12.081C96.8864 12.4357 96.9727 12.7577 97.1454 13.047C97.3181 13.3363 97.5491 13.5673 97.8384 13.74C98.1324 13.908 98.4544 13.992 98.8044 13.992C99.1591 13.992 99.4787 13.908 99.7634 13.74C100.053 13.5673 100.284 13.3363 100.456 13.047C100.629 12.7577 100.715 12.4357 100.715 12.081V8H101.891L101.898 15H100.722L100.715 14.111C100.468 14.4377 100.155 14.699 99.7774 14.895C99.3994 15.0863 98.9911 15.182 98.5524 15.182C98.0297 15.182 97.5514 15.056 97.1174 14.804C96.6881 14.5473 96.3451 14.2043 96.0884 13.775C95.8364 13.3457 95.7104 12.8673 95.7104 12.34ZM109.493 10.646V15H108.317V10.905C108.317 10.5503 108.231 10.2283 108.058 9.939C107.885 9.64967 107.654 9.421 107.365 9.253C107.076 9.08033 106.754 8.994 106.399 8.994C106.049 8.994 105.727 9.08033 105.433 9.253C105.144 9.421 104.913 9.64967 104.74 9.939C104.567 10.2283 104.481 10.5503 104.481 10.905V15H103.305V8H104.481V8.875C104.728 8.54833 105.041 8.28933 105.419 8.098C105.797 7.902 106.208 7.804 106.651 7.804C107.174 7.804 107.65 7.93233 108.079 8.189C108.513 8.441 108.856 8.78167 109.108 9.211C109.365 9.64033 109.493 10.1187 109.493 10.646ZM114.519 9.176H112.93L112.923 15H111.747L111.754 9.176H110.55V8H111.754L111.747 5.802H112.923L112.93 8H114.519V9.176Z" fill="#999999"></path><path d="M6.49 44.36C5.95667 44.3533 5.45667 44.44 4.99 44.62C4.53 44.7933 4.15333 45.0333 3.86 45.34C3.56667 45.6467 3.42 46.0033 3.42 46.41C3.42 46.91 3.55667 47.29 3.83 47.55C4.10333 47.81 4.47 48.0033 4.93 48.13C5.39667 48.25 5.91667 48.36 6.49 48.46C7.41 48.6067 8.26 48.85 9.04 49.19C9.82667 49.53 10.4567 49.9833 10.93 50.55C11.41 51.11 11.65 51.8 11.65 52.62C11.65 53.3733 11.45 54.0433 11.05 54.63C10.65 55.21 10.1133 55.68 9.44 56.04C8.77333 56.3933 8.03667 56.6167 7.23 56.71V58.74H5.76V56.71C5.08667 56.6433 4.44667 56.4833 3.84 56.23C3.24 55.9767 2.71667 55.64 2.27 55.22C1.82333 54.8 1.5 54.3133 1.3 53.76L3.25 53.03C3.36333 53.35 3.58 53.6367 3.9 53.89C4.22667 54.1367 4.61333 54.33 5.06 54.47C5.51333 54.61 5.99 54.68 6.49 54.68C7.02333 54.68 7.52333 54.5933 7.99 54.42C8.46333 54.2467 8.84333 54.0067 9.13 53.7C9.42333 53.3933 9.57 53.0333 9.57 52.62C9.57 52.1933 9.41667 51.8433 9.11 51.57C8.81 51.2967 8.42333 51.08 7.95 50.92C7.48333 50.76 6.99667 50.64 6.49 50.56C5.51 50.4 4.63 50.1667 3.85 49.86C3.07667 49.5533 2.46333 49.1233 2.01 48.57C1.56333 48.0167 1.34 47.2967 1.34 46.41C1.34 45.6567 1.54 44.9867 1.94 44.4C2.34 43.8133 2.87333 43.3433 3.54 42.99C4.21333 42.63 4.95333 42.4067 5.76 42.32V40.26H7.23V42.32C7.88333 42.3867 8.51 42.5467 9.11 42.8C9.71667 43.0533 10.2467 43.39 10.7 43.81C11.1533 44.2233 11.4833 44.7167 11.69 45.29L9.72 46C9.60667 45.6733 9.39 45.39 9.07 45.15C8.75 44.9033 8.36333 44.71 7.91 44.57C7.46333 44.43 6.99 44.36 6.49 44.36ZM14.9622 56.5V44.58H13.2922L13.8622 42.5H17.0422V56.5H14.9622ZM19.4445 57.62L20.0645 54.24H22.1445L20.8245 57.62H19.4445ZM29.3816 56.76C28.5549 56.76 27.8082 56.5733 27.1416 56.2C26.4816 55.82 25.9116 55.2967 25.4316 54.63C24.9516 53.9633 24.5849 53.1933 24.3316 52.32C24.0782 51.44 23.9516 50.5 23.9516 49.5C23.9516 48.5 24.0782 47.56 24.3316 46.68C24.5849 45.8 24.9516 45.03 25.4316 44.37C25.9116 43.7033 26.4816 43.1833 27.1416 42.81C27.8082 42.43 28.5549 42.24 29.3816 42.24C30.1949 42.24 30.9349 42.43 31.6016 42.81C32.2682 43.1833 32.8349 43.7033 33.3016 44.37C33.7749 45.03 34.1382 45.8 34.3916 46.68C34.6449 47.56 34.7716 48.5 34.7716 49.5C34.7716 50.5 34.6449 51.44 34.3916 52.32C34.1382 53.1933 33.7749 53.9633 33.3016 54.63C32.8349 55.2967 32.2682 55.82 31.6016 56.2C30.9349 56.5733 30.1949 56.76 29.3816 56.76ZM29.3816 54.68C30.1482 54.68 30.7849 54.44 31.2916 53.96C31.8049 53.4733 32.1882 52.8367 32.4416 52.05C32.6949 51.2633 32.8216 50.4133 32.8216 49.5C32.8216 48.54 32.6882 47.67 32.4216 46.89C32.1616 46.1033 31.7749 45.48 31.2616 45.02C30.7549 44.5533 30.1282 44.32 29.3816 44.32C28.7882 44.32 28.2716 44.46 27.8316 44.74C27.3982 45.02 27.0382 45.4033 26.7516 45.89C26.4716 46.3767 26.2582 46.93 26.1116 47.55C25.9716 48.17 25.9016 48.82 25.9016 49.5C25.9016 50.4133 26.0316 51.2633 26.2916 52.05C26.5516 52.8367 26.9382 53.4733 27.4516 53.96C27.9716 54.44 28.6149 54.68 29.3816 54.68ZM41.0222 56.76C40.1955 56.76 39.4489 56.5733 38.7822 56.2C38.1222 55.82 37.5522 55.2967 37.0722 54.63C36.5922 53.9633 36.2255 53.1933 35.9722 52.32C35.7189 51.44 35.5922 50.5 35.5922 49.5C35.5922 48.5 35.7189 47.56 35.9722 46.68C36.2255 45.8 36.5922 45.03 37.0722 44.37C37.5522 43.7033 38.1222 43.1833 38.7822 42.81C39.4489 42.43 40.1955 42.24 41.0222 42.24C41.8355 42.24 42.5755 42.43 43.2422 42.81C43.9089 43.1833 44.4755 43.7033 44.9422 44.37C45.4155 45.03 45.7789 45.8 46.0322 46.68C46.2855 47.56 46.4122 48.5 46.4122 49.5C46.4122 50.5 46.2855 51.44 46.0322 52.32C45.7789 53.1933 45.4155 53.9633 44.9422 54.63C44.4755 55.2967 43.9089 55.82 43.2422 56.2C42.5755 56.5733 41.8355 56.76 41.0222 56.76ZM41.0222 54.68C41.7889 54.68 42.4255 54.44 42.9322 53.96C43.4455 53.4733 43.8289 52.8367 44.0822 52.05C44.3355 51.2633 44.4622 50.4133 44.4622 49.5C44.4622 48.54 44.3289 47.67 44.0622 46.89C43.8022 46.1033 43.4155 45.48 42.9022 45.02C42.3955 44.5533 41.7689 44.32 41.0222 44.32C40.4289 44.32 39.9122 44.46 39.4722 44.74C39.0389 45.02 38.6789 45.4033 38.3922 45.89C38.1122 46.3767 37.8989 46.93 37.7522 47.55C37.6122 48.17 37.5422 48.82 37.5422 49.5C37.5422 50.4133 37.6722 51.2633 37.9322 52.05C38.1922 52.8367 38.5789 53.4733 39.0922 53.96C39.6122 54.44 40.2555 54.68 41.0222 54.68ZM52.6628 56.76C51.8361 56.76 51.0895 56.5733 50.4228 56.2C49.7628 55.82 49.1928 55.2967 48.7128 54.63C48.2328 53.9633 47.8661 53.1933 47.6128 52.32C47.3595 51.44 47.2328 50.5 47.2328 49.5C47.2328 48.5 47.3595 47.56 47.6128 46.68C47.8661 45.8 48.2328 45.03 48.7128 44.37C49.1928 43.7033 49.7628 43.1833 50.4228 42.81C51.0895 42.43 51.8361 42.24 52.6628 42.24C53.4761 42.24 54.2161 42.43 54.8828 42.81C55.5495 43.1833 56.1161 43.7033 56.5828 44.37C57.0561 45.03 57.4195 45.8 57.6728 46.68C57.9261 47.56 58.0528 48.5 58.0528 49.5C58.0528 50.5 57.9261 51.44 57.6728 52.32C57.4195 53.1933 57.0561 53.9633 56.5828 54.63C56.1161 55.2967 55.5495 55.82 54.8828 56.2C54.2161 56.5733 53.4761 56.76 52.6628 56.76ZM52.6628 54.68C53.4295 54.68 54.0661 54.44 54.5728 53.96C55.0861 53.4733 55.4695 52.8367 55.7228 52.05C55.9761 51.2633 56.1028 50.4133 56.1028 49.5C56.1028 48.54 55.9695 47.67 55.7028 46.89C55.4428 46.1033 55.0561 45.48 54.5428 45.02C54.0361 44.5533 53.4095 44.32 52.6628 44.32C52.0695 44.32 51.5528 44.46 51.1128 44.74C50.6795 45.02 50.3195 45.4033 50.0328 45.89C49.7528 46.3767 49.5395 46.93 49.3928 47.55C49.2528 48.17 49.1828 48.82 49.1828 49.5C49.1828 50.4133 49.3128 51.2633 49.5728 52.05C49.8328 52.8367 50.2195 53.4733 50.7328 53.96C51.2528 54.44 51.8961 54.68 52.6628 54.68ZM59.4445 57.62L60.0645 54.24H62.1445L60.8245 57.62H59.4445ZM69.3816 56.76C68.5549 56.76 67.8082 56.5733 67.1416 56.2C66.4816 55.82 65.9116 55.2967 65.4316 54.63C64.9516 53.9633 64.5849 53.1933 64.3316 52.32C64.0782 51.44 63.9516 50.5 63.9516 49.5C63.9516 48.5 64.0782 47.56 64.3316 46.68C64.5849 45.8 64.9516 45.03 65.4316 44.37C65.9116 43.7033 66.4816 43.1833 67.1416 42.81C67.8082 42.43 68.5549 42.24 69.3816 42.24C70.1949 42.24 70.9349 42.43 71.6016 42.81C72.2682 43.1833 72.8349 43.7033 73.3016 44.37C73.7749 45.03 74.1382 45.8 74.3916 46.68C74.6449 47.56 74.7716 48.5 74.7716 49.5C74.7716 50.5 74.6449 51.44 74.3916 52.32C74.1382 53.1933 73.7749 53.9633 73.3016 54.63C72.8349 55.2967 72.2682 55.82 71.6016 56.2C70.9349 56.5733 70.1949 56.76 69.3816 56.76ZM69.3816 54.68C70.1482 54.68 70.7849 54.44 71.2916 53.96C71.8049 53.4733 72.1882 52.8367 72.4416 52.05C72.6949 51.2633 72.8216 50.4133 72.8216 49.5C72.8216 48.54 72.6882 47.67 72.4216 46.89C72.1616 46.1033 71.7749 45.48 71.2616 45.02C70.7549 44.5533 70.1282 44.32 69.3816 44.32C68.7882 44.32 68.2716 44.46 67.8316 44.74C67.3982 45.02 67.0382 45.4033 66.7516 45.89C66.4716 46.3767 66.2582 46.93 66.1116 47.55C65.9716 48.17 65.9016 48.82 65.9016 49.5C65.9016 50.4133 66.0316 51.2633 66.2916 52.05C66.5516 52.8367 66.9382 53.4733 67.4516 53.96C67.9716 54.44 68.6149 54.68 69.3816 54.68ZM81.0222 56.76C80.1955 56.76 79.4489 56.5733 78.7822 56.2C78.1222 55.82 77.5522 55.2967 77.0722 54.63C76.5922 53.9633 76.2255 53.1933 75.9722 52.32C75.7189 51.44 75.5922 50.5 75.5922 49.5C75.5922 48.5 75.7189 47.56 75.9722 46.68C76.2255 45.8 76.5922 45.03 77.0722 44.37C77.5522 43.7033 78.1222 43.1833 78.7822 42.81C79.4489 42.43 80.1955 42.24 81.0222 42.24C81.8355 42.24 82.5755 42.43 83.2422 42.81C83.9089 43.1833 84.4755 43.7033 84.9422 44.37C85.4155 45.03 85.7789 45.8 86.0322 46.68C86.2855 47.56 86.4122 48.5 86.4122 49.5C86.4122 50.5 86.2855 51.44 86.0322 52.32C85.7789 53.1933 85.4155 53.9633 84.9422 54.63C84.4755 55.2967 83.9089 55.82 83.2422 56.2C82.5755 56.5733 81.8355 56.76 81.0222 56.76ZM81.0222 54.68C81.7889 54.68 82.4255 54.44 82.9322 53.96C83.4455 53.4733 83.8289 52.8367 84.0822 52.05C84.3355 51.2633 84.4622 50.4133 84.4622 49.5C84.4622 48.54 84.3289 47.67 84.0622 46.89C83.8022 46.1033 83.4155 45.48 82.9022 45.02C82.3955 44.5533 81.7689 44.32 81.0222 44.32C80.4289 44.32 79.9122 44.46 79.4722 44.74C79.0389 45.02 78.6789 45.4033 78.3922 45.89C78.1122 46.3767 77.8989 46.93 77.7522 47.55C77.6122 48.17 77.5422 48.82 77.5422 49.5C77.5422 50.4133 77.6722 51.2633 77.9322 52.05C78.1922 52.8367 78.5789 53.4733 79.0922 53.96C79.6122 54.44 80.2555 54.68 81.0222 54.68ZM92.6628 56.76C91.8361 56.76 91.0895 56.5733 90.4228 56.2C89.7628 55.82 89.1928 55.2967 88.7128 54.63C88.2328 53.9633 87.8661 53.1933 87.6128 52.32C87.3595 51.44 87.2328 50.5 87.2328 49.5C87.2328 48.5 87.3595 47.56 87.6128 46.68C87.8661 45.8 88.2328 45.03 88.7128 44.37C89.1928 43.7033 89.7628 43.1833 90.4228 42.81C91.0895 42.43 91.8361 42.24 92.6628 42.24C93.4761 42.24 94.2161 42.43 94.8828 42.81C95.5495 43.1833 96.1161 43.7033 96.5828 44.37C97.0561 45.03 97.4195 45.8 97.6728 46.68C97.9261 47.56 98.0528 48.5 98.0528 49.5C98.0528 50.5 97.9261 51.44 97.6728 52.32C97.4195 53.1933 97.0561 53.9633 96.5828 54.63C96.1161 55.2967 95.5495 55.82 94.8828 56.2C94.2161 56.5733 93.4761 56.76 92.6628 56.76ZM92.6628 54.68C93.4295 54.68 94.0661 54.44 94.5728 53.96C95.0861 53.4733 95.4695 52.8367 95.7228 52.05C95.9761 51.2633 96.1028 50.4133 96.1028 49.5C96.1028 48.54 95.9695 47.67 95.7028 46.89C95.4428 46.1033 95.0561 45.48 94.5428 45.02C94.0361 44.5533 93.4095 44.32 92.6628 44.32C92.0695 44.32 91.5528 44.46 91.1128 44.74C90.6795 45.02 90.3195 45.4033 90.0328 45.89C89.7528 46.3767 89.5395 46.93 89.3928 47.55C89.2528 48.17 89.1828 48.82 89.1828 49.5C89.1828 50.4133 89.3128 51.2633 89.5728 52.05C89.8328 52.8367 90.2195 53.4733 90.7328 53.96C91.2528 54.44 91.8961 54.68 92.6628 54.68Z" fill="white"></path><rect x="112" y="33.5" width="100" height="32" rx="16" fill="#1A1A1A"></rect><rect x="112" y="33.5" width="100" height="32" rx="16" stroke="#262626"></rect><path d="M124.55 54V44.2H125.726V54H124.55ZM129.21 45.271V47H131.261V48.176H129.21V54H128.034V48.176H127.131V47H128.034V45.271C128.034 44.9117 128.121 44.5873 128.293 44.298C128.471 44.004 128.706 43.7707 129 43.598C129.299 43.4207 129.626 43.332 129.98 43.332C130.242 43.332 130.496 43.3857 130.743 43.493C130.991 43.5957 131.21 43.7497 131.401 43.955L130.561 44.788C130.496 44.6993 130.41 44.6317 130.302 44.585C130.2 44.5337 130.092 44.508 129.98 44.508C129.77 44.508 129.588 44.5827 129.434 44.732C129.285 44.8813 129.21 45.061 129.21 45.271ZM141.398 47H142.574V54H141.398L141.349 52.817C141.129 53.223 140.826 53.552 140.439 53.804C140.056 54.056 139.599 54.182 139.067 54.182C138.553 54.182 138.073 54.0863 137.625 53.895C137.177 53.699 136.78 53.4307 136.435 53.09C136.094 52.7447 135.828 52.348 135.637 51.9C135.445 51.452 135.35 50.969 135.35 50.451C135.35 49.9517 135.443 49.4803 135.63 49.037C135.816 48.5937 136.075 48.2063 136.407 47.875C136.743 47.539 137.13 47.2777 137.569 47.091C138.007 46.8997 138.479 46.804 138.983 46.804C139.533 46.804 140.016 46.9347 140.432 47.196C140.847 47.4527 141.183 47.7863 141.44 48.197L141.398 47ZM139.046 53.041C139.508 53.041 139.907 52.929 140.243 52.705C140.583 52.4763 140.845 52.1683 141.027 51.781C141.213 51.3937 141.307 50.9667 141.307 50.5C141.307 50.024 141.213 49.5947 141.027 49.212C140.84 48.8247 140.576 48.519 140.236 48.295C139.9 48.0663 139.503 47.952 139.046 47.952C138.584 47.952 138.164 48.0663 137.786 48.295C137.408 48.5237 137.107 48.8317 136.883 49.219C136.663 49.6017 136.554 50.0287 136.554 50.5C136.554 50.9713 136.668 51.4007 136.897 51.788C137.125 52.1707 137.429 52.4763 137.807 52.705C138.185 52.929 138.598 53.041 139.046 53.041ZM145.149 57.5H143.973V47H145.149V48.197C145.387 47.7863 145.704 47.455 146.101 47.203C146.497 46.9463 146.969 46.818 147.515 46.818C148.023 46.818 148.499 46.9137 148.943 47.105C149.391 47.2963 149.783 47.5623 150.119 47.903C150.455 48.239 150.718 48.6287 150.91 49.072C151.101 49.5153 151.197 49.9913 151.197 50.5C151.197 51.0087 151.101 51.487 150.91 51.935C150.718 52.383 150.455 52.7773 150.119 53.118C149.783 53.454 149.391 53.7177 148.943 53.909C148.499 54.1003 148.023 54.196 147.515 54.196C146.969 54.196 146.497 54.07 146.101 53.818C145.704 53.5613 145.387 53.2277 145.149 52.817V57.5ZM147.501 47.959C147.048 47.959 146.651 48.0733 146.311 48.302C145.97 48.5307 145.706 48.8363 145.52 49.219C145.338 49.6017 145.247 50.0287 145.247 50.5C145.247 50.9667 145.338 51.3937 145.52 51.781C145.706 52.1683 145.968 52.4763 146.304 52.705C146.644 52.9337 147.043 53.048 147.501 53.048C147.953 53.048 148.369 52.936 148.747 52.712C149.125 52.4833 149.428 52.1777 149.657 51.795C149.885 51.4077 150 50.976 150 50.5C150 50.0333 149.888 49.6087 149.664 49.226C149.44 48.8387 149.139 48.5307 148.761 48.302C148.383 48.0733 147.963 47.959 147.501 47.959ZM153.543 57.5H152.367V47H153.543V48.197C153.781 47.7863 154.099 47.455 154.495 47.203C154.892 46.9463 155.363 46.818 155.909 46.818C156.418 46.818 156.894 46.9137 157.337 47.105C157.785 47.2963 158.177 47.5623 158.513 47.903C158.849 48.239 159.113 48.6287 159.304 49.072C159.496 49.5153 159.591 49.9913 159.591 50.5C159.591 51.0087 159.496 51.487 159.304 51.935C159.113 52.383 158.849 52.7773 158.513 53.118C158.177 53.454 157.785 53.7177 157.337 53.909C156.894 54.1003 156.418 54.196 155.909 54.196C155.363 54.196 154.892 54.07 154.495 53.818C154.099 53.5613 153.781 53.2277 153.543 52.817V57.5ZM155.895 47.959C155.443 47.959 155.046 48.0733 154.705 48.302C154.365 48.5307 154.101 48.8363 153.914 49.219C153.732 49.6017 153.641 50.0287 153.641 50.5C153.641 50.9667 153.732 51.3937 153.914 51.781C154.101 52.1683 154.362 52.4763 154.698 52.705C155.039 52.9337 155.438 53.048 155.895 53.048C156.348 53.048 156.763 52.936 157.141 52.712C157.519 52.4833 157.823 52.1777 158.051 51.795C158.28 51.4077 158.394 50.976 158.394 50.5C158.394 50.0333 158.282 49.6087 158.058 49.226C157.834 48.8387 157.533 48.5307 157.155 48.302C156.777 48.0733 156.357 47.959 155.895 47.959ZM160.694 54V43.5H161.87V54H160.694ZM163.551 47H164.727V54H163.551V47ZM164.153 45.859C163.966 45.859 163.81 45.7983 163.684 45.677C163.558 45.5557 163.495 45.404 163.495 45.222C163.495 45.04 163.558 44.8883 163.684 44.767C163.81 44.6457 163.964 44.585 164.146 44.585C164.328 44.585 164.482 44.6457 164.608 44.767C164.734 44.8883 164.797 45.04 164.797 45.222C164.797 45.404 164.734 45.5557 164.608 45.677C164.487 45.7983 164.335 45.859 164.153 45.859ZM171.136 52.152L172.186 52.719C171.868 53.1623 171.465 53.517 170.975 53.783C170.489 54.049 169.962 54.182 169.393 54.182C168.749 54.182 168.161 54.0163 167.629 53.685C167.101 53.3537 166.679 52.9103 166.362 52.355C166.049 51.795 165.893 51.1767 165.893 50.5C165.893 49.9867 165.984 49.5083 166.166 49.065C166.348 48.617 166.597 48.225 166.915 47.889C167.237 47.5483 167.61 47.2823 168.035 47.091C168.459 46.8997 168.912 46.804 169.393 46.804C169.962 46.804 170.489 46.937 170.975 47.203C171.465 47.469 171.868 47.826 172.186 48.274L171.136 48.841C170.912 48.5657 170.646 48.3533 170.338 48.204C170.03 48.0547 169.715 47.98 169.393 47.98C168.959 47.98 168.564 48.0967 168.21 48.33C167.86 48.5587 167.582 48.8643 167.377 49.247C167.171 49.6297 167.069 50.0473 167.069 50.5C167.069 50.9527 167.171 51.3703 167.377 51.753C167.587 52.131 167.867 52.4343 168.217 52.663C168.571 52.8917 168.963 53.006 169.393 53.006C169.738 53.006 170.062 52.9267 170.366 52.768C170.669 52.6093 170.926 52.404 171.136 52.152ZM178.954 47H180.13V54H178.954L178.905 52.817C178.686 53.223 178.383 53.552 177.995 53.804C177.613 54.056 177.155 54.182 176.623 54.182C176.11 54.182 175.629 54.0863 175.181 53.895C174.733 53.699 174.337 53.4307 173.991 53.09C173.651 52.7447 173.385 52.348 173.193 51.9C173.002 51.452 172.906 50.969 172.906 50.451C172.906 49.9517 173 49.4803 173.186 49.037C173.373 48.5937 173.632 48.2063 173.963 47.875C174.299 47.539 174.687 47.2777 175.125 47.091C175.564 46.8997 176.035 46.804 176.539 46.804C177.09 46.804 177.573 46.9347 177.988 47.196C178.404 47.4527 178.74 47.7863 178.996 48.197L178.954 47ZM176.602 53.041C177.064 53.041 177.463 52.929 177.799 52.705C178.14 52.4763 178.401 52.1683 178.583 51.781C178.77 51.3937 178.863 50.9667 178.863 50.5C178.863 50.024 178.77 49.5947 178.583 49.212C178.397 48.8247 178.133 48.519 177.792 48.295C177.456 48.0663 177.06 47.952 176.602 47.952C176.14 47.952 175.72 48.0663 175.342 48.295C174.964 48.5237 174.663 48.8317 174.439 49.219C174.22 49.6017 174.11 50.0287 174.11 50.5C174.11 50.9713 174.225 51.4007 174.453 51.788C174.682 52.1707 174.985 52.4763 175.363 52.705C175.741 52.929 176.154 53.041 176.602 53.041ZM185.153 46.804C185.835 46.804 186.453 46.9697 187.008 47.301C187.568 47.6323 188.014 48.078 188.345 48.638C188.677 49.1933 188.842 49.8117 188.842 50.493C188.842 51.0017 188.747 51.48 188.555 51.928C188.364 52.3713 188.098 52.7633 187.757 53.104C187.421 53.44 187.029 53.7037 186.581 53.895C186.138 54.0863 185.662 54.182 185.153 54.182C184.612 54.182 184.141 54.056 183.739 53.804C183.343 53.5473 183.025 53.2137 182.787 52.803V54H181.611V43.5H182.787V48.183C183.025 47.7723 183.343 47.441 183.739 47.189C184.141 46.9323 184.612 46.804 185.153 46.804ZM185.139 53.034C185.601 53.034 186.021 52.9197 186.399 52.691C186.777 52.4623 187.078 52.1567 187.302 51.774C187.526 51.3867 187.638 50.9597 187.638 50.493C187.638 50.017 187.524 49.5877 187.295 49.205C187.067 48.8177 186.763 48.512 186.385 48.288C186.007 48.0593 185.592 47.945 185.139 47.945C184.682 47.945 184.283 48.0593 183.942 48.288C183.606 48.5167 183.345 48.8247 183.158 49.212C182.976 49.5993 182.885 50.0263 182.885 50.493C182.885 50.9643 182.976 51.3937 183.158 51.781C183.345 52.1637 183.609 52.4693 183.949 52.698C184.29 52.922 184.687 53.034 185.139 53.034ZM189.938 54V43.5H191.114V54H189.938ZM195.807 54.182C195.163 54.182 194.575 54.0163 194.043 53.685C193.515 53.3537 193.093 52.9103 192.776 52.355C192.463 51.795 192.307 51.1767 192.307 50.5C192.307 49.9867 192.398 49.5083 192.58 49.065C192.762 48.617 193.011 48.225 193.329 47.889C193.651 47.5483 194.024 47.2823 194.449 47.091C194.873 46.8997 195.326 46.804 195.807 46.804C196.334 46.804 196.817 46.9113 197.256 47.126C197.699 47.336 198.077 47.63 198.39 48.008C198.707 48.386 198.943 48.8247 199.097 49.324C199.255 49.8233 199.314 50.3577 199.272 50.927H193.56C193.616 51.3237 193.746 51.6783 193.952 51.991C194.157 52.299 194.418 52.544 194.736 52.726C195.058 52.908 195.415 53.0013 195.807 53.006C196.227 53.006 196.607 52.8987 196.948 52.684C197.288 52.4647 197.564 52.166 197.774 51.788L198.971 52.068C198.691 52.6887 198.268 53.1973 197.704 53.594C197.139 53.986 196.507 54.182 195.807 54.182ZM193.525 50.003H198.089C198.051 49.611 197.925 49.254 197.711 48.932C197.496 48.6053 197.223 48.344 196.892 48.148C196.56 47.952 196.199 47.854 195.807 47.854C195.415 47.854 195.055 47.9497 194.729 48.141C194.402 48.3323 194.131 48.5913 193.917 48.918C193.707 49.24 193.576 49.6017 193.525 50.003Z" fill="#999999"></path></g><defs><clipPath id="clip0_166_1115"><rect width="462.5" height="66" fill="white" transform="translate(0.5)"></rect></clipPath></defs></svg>