<svg xmlns="http://www.w3.org/2000/svg" width="1596" height="65" viewBox="0 0 1596 65" fill="none"><path d="M9.285 43.39C8.135 43.39 7.03 43.21 5.97 42.85C4.91 42.49 3.985 41.975 3.195 41.305C2.405 40.625 1.84 39.82 1.5 38.89L4.425 37.795C4.595 38.275 4.92 38.705 5.4 39.085C5.89 39.455 6.47 39.745 7.14 39.955C7.82 40.165 8.535 40.27 9.285 40.27C10.085 40.27 10.835 40.14 11.535 39.88C12.245 39.62 12.815 39.26 13.245 38.8C13.685 38.34 13.905 37.8 13.905 37.18C13.905 36.54 13.675 36.015 13.215 35.605C12.765 35.195 12.185 34.87 11.475 34.63C10.775 34.39 10.045 34.21 9.285 34.09C7.815 33.85 6.495 33.5 5.325 33.04C4.165 32.58 3.245 31.935 2.565 31.105C1.895 30.275 1.56 29.195 1.56 27.865C1.56 26.615 1.915 25.525 2.625 24.595C3.345 23.665 4.29 22.945 5.46 22.435C6.64 21.915 7.915 21.655 9.285 21.655C10.415 21.655 11.505 21.835 12.555 22.195C13.615 22.545 14.545 23.06 15.345 23.74C16.155 24.41 16.735 25.225 17.085 26.185L14.13 27.25C13.96 26.76 13.635 26.335 13.155 25.975C12.675 25.605 12.095 25.315 11.415 25.105C10.745 24.895 10.035 24.79 9.285 24.79C8.485 24.78 7.735 24.91 7.035 25.18C6.345 25.44 5.78 25.8 5.34 26.26C4.9 26.72 4.68 27.255 4.68 27.865C4.68 28.615 4.885 29.185 5.295 29.575C5.705 29.965 6.255 30.255 6.945 30.445C7.645 30.625 8.425 30.79 9.285 30.94C10.665 31.16 11.94 31.525 13.11 32.035C14.29 32.545 15.235 33.225 15.945 34.075C16.665 34.915 17.025 35.95 17.025 37.18C17.025 38.42 16.665 39.51 15.945 40.45C15.235 41.38 14.29 42.105 13.11 42.625C11.94 43.135 10.665 43.39 9.285 43.39ZM26.5934 43.39C25.2134 43.39 23.9534 43.035 22.8134 42.325C21.6834 41.615 20.7784 40.665 20.0984 39.475C19.4284 38.275 19.0934 36.95 19.0934 35.5C19.0934 34.4 19.2884 33.375 19.6784 32.425C20.0684 31.465 20.6034 30.625 21.2834 29.905C21.9734 29.175 22.7734 28.605 23.6834 28.195C24.5934 27.785 25.5634 27.58 26.5934 27.58C27.7434 27.58 28.7984 27.82 29.7584 28.3C30.7184 28.77 31.5384 29.425 32.2184 30.265C32.8984 31.095 33.3984 32.055 33.7184 33.145C34.0384 34.225 34.1334 35.375 34.0034 36.595H22.4384C22.5684 37.285 22.8184 37.91 23.1884 38.47C23.5684 39.02 24.0484 39.455 24.6284 39.775C25.2184 40.095 25.8734 40.26 26.5934 40.27C27.3534 40.27 28.0434 40.08 28.6634 39.7C29.2934 39.32 29.8084 38.795 30.2084 38.125L33.3734 38.86C32.7734 40.19 31.8684 41.28 30.6584 42.13C29.4484 42.97 28.0934 43.39 26.5934 43.39ZM22.3334 34.21H30.8534C30.7534 33.49 30.4984 32.84 30.0884 32.26C29.6884 31.67 29.1834 31.205 28.5734 30.865C27.9734 30.515 27.3134 30.34 26.5934 30.34C25.8834 30.34 25.2234 30.51 24.6134 30.85C24.0134 31.19 23.5134 31.655 23.1134 32.245C22.7234 32.825 22.4634 33.48 22.3334 34.21ZM48.1282 28H51.2482V43H48.1132L47.9932 40.825C47.5532 41.595 46.9582 42.215 46.2082 42.685C45.4582 43.155 44.5732 43.39 43.5532 43.39C42.4532 43.39 41.4182 43.185 40.4482 42.775C39.4782 42.355 38.6232 41.775 37.8832 41.035C37.1532 40.295 36.5832 39.445 36.1732 38.485C35.7632 37.515 35.5582 36.475 35.5582 35.365C35.5582 34.295 35.7582 33.29 36.1582 32.35C36.5582 31.4 37.1132 30.57 37.8232 29.86C38.5332 29.15 39.3532 28.595 40.2832 28.195C41.2232 27.785 42.2282 27.58 43.2982 27.58C44.3882 27.58 45.3482 27.83 46.1782 28.33C47.0182 28.82 47.7132 29.45 48.2632 30.22L48.1282 28ZM43.4782 40.375C44.3582 40.375 45.1282 40.16 45.7882 39.73C46.4482 39.29 46.9582 38.7 47.3182 37.96C47.6882 37.22 47.8732 36.4 47.8732 35.5C47.8732 34.59 47.6882 33.765 47.3182 33.025C46.9482 32.285 46.4332 31.7 45.7732 31.27C45.1232 30.83 44.3582 30.61 43.4782 30.61C42.6082 30.61 41.8132 30.83 41.0932 31.27C40.3732 31.71 39.8032 32.3 39.3832 33.04C38.9632 33.78 38.7532 34.6 38.7532 35.5C38.7532 36.41 38.9682 37.235 39.3982 37.975C39.8382 38.705 40.4132 39.29 41.1232 39.73C41.8432 40.16 42.6282 40.375 43.4782 40.375ZM58.7414 43.285C57.9514 43.235 57.1814 43.075 56.4314 42.805C55.6814 42.535 55.0214 42.17 54.4514 41.71C53.8914 41.24 53.4714 40.69 53.1914 40.06L55.8464 38.92C55.9764 39.19 56.2014 39.455 56.5214 39.715C56.8514 39.975 57.2364 40.19 57.6764 40.36C58.1164 40.52 58.5764 40.6 59.0564 40.6C59.5264 40.6 59.9614 40.535 60.3614 40.405C60.7714 40.265 61.1064 40.055 61.3664 39.775C61.6264 39.495 61.7564 39.16 61.7564 38.77C61.7564 38.33 61.6064 37.99 61.3064 37.75C61.0164 37.5 60.6514 37.31 60.2114 37.18C59.7714 37.05 59.3314 36.925 58.8914 36.805C57.9114 36.585 57.0114 36.285 56.1914 35.905C55.3814 35.515 54.7364 35.02 54.2564 34.42C53.7764 33.81 53.5364 33.065 53.5364 32.185C53.5364 31.225 53.7964 30.395 54.3164 29.695C54.8364 28.985 55.5164 28.44 56.3564 28.06C57.2064 27.68 58.1114 27.49 59.0714 27.49C60.2714 27.49 61.3714 27.745 62.3714 28.255C63.3714 28.765 64.1364 29.465 64.6664 30.355L62.1914 31.825C62.0414 31.525 61.8164 31.255 61.5164 31.015C61.2164 30.775 60.8764 30.585 60.4964 30.445C60.1164 30.295 59.7214 30.21 59.3114 30.19C58.8014 30.17 58.3264 30.23 57.8864 30.37C57.4564 30.5 57.1114 30.71 56.8514 31C56.5914 31.29 56.4614 31.66 56.4614 32.11C56.4614 32.55 56.6164 32.88 56.9264 33.1C57.2364 33.31 57.6264 33.48 58.0964 33.61C58.5764 33.74 59.0664 33.885 59.5664 34.045C60.4564 34.325 61.2914 34.67 62.0714 35.08C62.8514 35.48 63.4814 35.975 63.9614 36.565C64.4414 37.155 64.6714 37.875 64.6514 38.725C64.6514 39.665 64.3664 40.49 63.7964 41.2C63.2364 41.91 62.5064 42.45 61.6064 42.82C60.7064 43.19 59.7514 43.345 58.7414 43.285ZM66.9563 28H70.0763V43H66.9563V28ZM68.5463 25.825C68.0663 25.825 67.6663 25.67 67.3463 25.36C67.0263 25.05 66.8663 24.66 66.8663 24.19C66.8663 23.73 67.0263 23.345 67.3463 23.035C67.6663 22.715 68.0613 22.555 68.5313 22.555C68.9913 22.555 69.3813 22.715 69.7013 23.035C70.0213 23.345 70.1813 23.73 70.1813 24.19C70.1813 24.66 70.0213 25.05 69.7013 25.36C69.3913 25.67 69.0063 25.825 68.5463 25.825ZM85.0866 20.5H88.2066V43H85.0866V40.795C84.5966 41.575 83.9566 42.205 83.1666 42.685C82.3766 43.155 81.4516 43.39 80.3916 43.39C79.3016 43.39 78.2816 43.185 77.3316 42.775C76.3816 42.365 75.5416 41.8 74.8116 41.08C74.0916 40.35 73.5266 39.51 73.1166 38.56C72.7066 37.61 72.5016 36.59 72.5016 35.5C72.5016 34.41 72.7066 33.39 73.1166 32.44C73.5266 31.48 74.0916 30.64 74.8116 29.92C75.5416 29.19 76.3816 28.62 77.3316 28.21C78.2816 27.8 79.3016 27.595 80.3916 27.595C81.4516 27.595 82.3766 27.835 83.1666 28.315C83.9566 28.785 84.5966 29.405 85.0866 30.175V20.5ZM80.4216 40.375C81.3016 40.375 82.0716 40.16 82.7316 39.73C83.3916 39.29 83.9016 38.7 84.2616 37.96C84.6316 37.22 84.8166 36.4 84.8166 35.5C84.8166 34.59 84.6316 33.765 84.2616 33.025C83.8916 32.285 83.3766 31.7 82.7166 31.27C82.0666 30.83 81.3016 30.61 80.4216 30.61C79.5516 30.61 78.7566 30.83 78.0366 31.27C77.3266 31.71 76.7566 32.3 76.3266 33.04C75.9066 33.78 75.6966 34.6 75.6966 35.5C75.6966 36.41 75.9116 37.235 76.3416 37.975C76.7816 38.705 77.3566 39.29 78.0666 39.73C78.7866 40.16 79.5716 40.375 80.4216 40.375ZM98.1949 43.39C96.8149 43.39 95.5549 43.035 94.4149 42.325C93.2849 41.615 92.3799 40.665 91.6999 39.475C91.0299 38.275 90.6949 36.95 90.6949 35.5C90.6949 34.4 90.8899 33.375 91.2799 32.425C91.6699 31.465 92.2049 30.625 92.8849 29.905C93.5749 29.175 94.3749 28.605 95.2849 28.195C96.1949 27.785 97.1649 27.58 98.1949 27.58C99.3449 27.58 100.4 27.82 101.36 28.3C102.32 28.77 103.14 29.425 103.82 30.265C104.5 31.095 105 32.055 105.32 33.145C105.64 34.225 105.735 35.375 105.605 36.595H94.0399C94.1699 37.285 94.4199 37.91 94.7899 38.47C95.1699 39.02 95.6499 39.455 96.2299 39.775C96.8199 40.095 97.4749 40.26 98.1949 40.27C98.9549 40.27 99.6449 40.08 100.265 39.7C100.895 39.32 101.41 38.795 101.81 38.125L104.975 38.86C104.375 40.19 103.47 41.28 102.26 42.13C101.05 42.97 99.6949 43.39 98.1949 43.39ZM93.9349 34.21H102.455C102.355 33.49 102.1 32.84 101.69 32.26C101.29 31.67 100.785 31.205 100.175 30.865C99.5749 30.515 98.9149 30.34 98.1949 30.34C97.4849 30.34 96.8249 30.51 96.2149 30.85C95.6149 31.19 95.1149 31.655 94.7149 32.245C94.3249 32.825 94.0649 33.48 93.9349 34.21ZM123.045 43.39C121.895 43.39 120.79 43.21 119.73 42.85C118.67 42.49 117.745 41.975 116.955 41.305C116.165 40.625 115.6 39.82 115.26 38.89L118.185 37.795C118.355 38.275 118.68 38.705 119.16 39.085C119.65 39.455 120.23 39.745 120.9 39.955C121.58 40.165 122.295 40.27 123.045 40.27C123.845 40.27 124.595 40.14 125.295 39.88C126.005 39.62 126.575 39.26 127.005 38.8C127.445 38.34 127.665 37.8 127.665 37.18C127.665 36.54 127.435 36.015 126.975 35.605C126.525 35.195 125.945 34.87 125.235 34.63C124.535 34.39 123.805 34.21 123.045 34.09C121.575 33.85 120.255 33.5 119.085 33.04C117.925 32.58 117.005 31.935 116.325 31.105C115.655 30.275 115.32 29.195 115.32 27.865C115.32 26.615 115.675 25.525 116.385 24.595C117.105 23.665 118.05 22.945 119.22 22.435C120.4 21.915 121.675 21.655 123.045 21.655C124.175 21.655 125.265 21.835 126.315 22.195C127.375 22.545 128.305 23.06 129.105 23.74C129.915 24.41 130.495 25.225 130.845 26.185L127.89 27.25C127.72 26.76 127.395 26.335 126.915 25.975C126.435 25.605 125.855 25.315 125.175 25.105C124.505 24.895 123.795 24.79 123.045 24.79C122.245 24.78 121.495 24.91 120.795 25.18C120.105 25.44 119.54 25.8 119.1 26.26C118.66 26.72 118.44 27.255 118.44 27.865C118.44 28.615 118.645 29.185 119.055 29.575C119.465 29.965 120.015 30.255 120.705 30.445C121.405 30.625 122.185 30.79 123.045 30.94C124.425 31.16 125.7 31.525 126.87 32.035C128.05 32.545 128.995 33.225 129.705 34.075C130.425 34.915 130.785 35.95 130.785 37.18C130.785 38.42 130.425 39.51 129.705 40.45C128.995 41.38 128.05 42.105 126.87 42.625C125.7 43.135 124.425 43.39 123.045 43.39ZM140.353 43.39C138.973 43.39 137.713 43.035 136.573 42.325C135.443 41.615 134.538 40.665 133.858 39.475C133.188 38.275 132.853 36.95 132.853 35.5C132.853 34.4 133.048 33.375 133.438 32.425C133.828 31.465 134.363 30.625 135.043 29.905C135.733 29.175 136.533 28.605 137.443 28.195C138.353 27.785 139.323 27.58 140.353 27.58C141.503 27.58 142.558 27.82 143.518 28.3C144.478 28.77 145.298 29.425 145.978 30.265C146.658 31.095 147.158 32.055 147.478 33.145C147.798 34.225 147.893 35.375 147.763 36.595H136.198C136.328 37.285 136.578 37.91 136.948 38.47C137.328 39.02 137.808 39.455 138.388 39.775C138.978 40.095 139.633 40.26 140.353 40.27C141.113 40.27 141.803 40.08 142.423 39.7C143.053 39.32 143.568 38.795 143.968 38.125L147.133 38.86C146.533 40.19 145.628 41.28 144.418 42.13C143.208 42.97 141.853 43.39 140.353 43.39ZM136.093 34.21H144.613C144.513 33.49 144.258 32.84 143.848 32.26C143.448 31.67 142.943 31.205 142.333 30.865C141.733 30.515 141.073 30.34 140.353 30.34C139.643 30.34 138.983 30.51 138.373 30.85C137.773 31.19 137.273 31.655 136.873 32.245C136.483 32.825 136.223 33.48 136.093 34.21ZM150.247 43V28H153.367V29.59C153.887 28.97 154.527 28.48 155.287 28.12C156.047 27.76 156.867 27.58 157.747 27.58C158.307 27.58 158.862 27.655 159.412 27.805L158.167 30.955C157.777 30.805 157.387 30.73 156.997 30.73C156.337 30.73 155.732 30.895 155.182 31.225C154.632 31.545 154.192 31.98 153.862 32.53C153.532 33.08 153.367 33.69 153.367 34.36V43H150.247ZM167.043 43.39C165.663 43.39 164.403 43.035 163.263 42.325C162.133 41.615 161.228 40.665 160.548 39.475C159.878 38.275 159.543 36.95 159.543 35.5C159.543 34.4 159.738 33.375 160.128 32.425C160.518 31.465 161.053 30.625 161.733 29.905C162.423 29.175 163.223 28.605 164.133 28.195C165.043 27.785 166.013 27.58 167.043 27.58C168.193 27.58 169.248 27.82 170.208 28.3C171.168 28.77 171.988 29.425 172.668 30.265C173.348 31.095 173.848 32.055 174.168 33.145C174.488 34.225 174.583 35.375 174.453 36.595H162.888C163.018 37.285 163.268 37.91 163.638 38.47C164.018 39.02 164.498 39.455 165.078 39.775C165.668 40.095 166.323 40.26 167.043 40.27C167.803 40.27 168.493 40.08 169.113 39.7C169.743 39.32 170.258 38.795 170.658 38.125L173.823 38.86C173.223 40.19 172.318 41.28 171.108 42.13C169.898 42.97 168.543 43.39 167.043 43.39ZM162.783 34.21H171.303C171.203 33.49 170.948 32.84 170.538 32.26C170.138 31.67 169.633 31.205 169.023 30.865C168.423 30.515 167.763 30.34 167.043 30.34C166.333 30.34 165.673 30.51 165.063 30.85C164.463 31.19 163.963 31.655 163.563 32.245C163.173 32.825 162.913 33.48 162.783 34.21ZM190.437 33.595V43H187.317V34.36C187.317 33.69 187.152 33.08 186.822 32.53C186.502 31.98 186.067 31.545 185.517 31.225C184.977 30.895 184.367 30.73 183.687 30.73C183.027 30.73 182.422 30.895 181.872 31.225C181.322 31.545 180.882 31.98 180.552 32.53C180.222 33.08 180.057 33.69 180.057 34.36V43H176.937V28H180.057V29.59C180.577 28.97 181.217 28.48 181.977 28.12C182.737 27.76 183.557 27.58 184.437 27.58C185.547 27.58 186.557 27.85 187.467 28.39C188.377 28.93 189.097 29.655 189.627 30.565C190.167 31.475 190.437 32.485 190.437 33.595ZM193.431 28H196.551V43H193.431V28ZM195.021 25.825C194.541 25.825 194.141 25.67 193.821 25.36C193.501 25.05 193.341 24.66 193.341 24.19C193.341 23.73 193.501 23.345 193.821 23.035C194.141 22.715 194.536 22.555 195.006 22.555C195.466 22.555 195.856 22.715 196.176 23.035C196.496 23.345 196.656 23.73 196.656 24.19C196.656 24.66 196.496 25.05 196.176 25.36C195.866 25.67 195.481 25.825 195.021 25.825ZM208.06 31.12H204.91L204.895 43H201.775L201.79 31.12H199.405V28H201.79L201.775 23.29H204.895L204.91 28H208.06V31.12ZM220.552 28H223.882L215.662 50.5H212.347L215.062 43L209.677 28H213.082L216.622 38.725L220.552 28ZM240.965 43L233.345 22H236.645L242.915 39.295L249.215 22H252.515L244.895 43H240.965ZM254.193 28H257.313V43H254.193V28ZM255.783 25.825C255.303 25.825 254.903 25.67 254.583 25.36C254.263 25.05 254.103 24.66 254.103 24.19C254.103 23.73 254.263 23.345 254.583 23.035C254.903 22.715 255.298 22.555 255.768 22.555C256.228 22.555 256.618 22.715 256.938 23.035C257.258 23.345 257.418 23.73 257.418 24.19C257.418 24.66 257.258 25.05 256.938 25.36C256.628 25.67 256.243 25.825 255.783 25.825ZM260.96 43V20.5H264.08V43H260.96ZM267.669 43V20.5H270.789V43H267.669ZM285.843 28H288.963V43H285.828L285.708 40.825C285.268 41.595 284.673 42.215 283.923 42.685C283.173 43.155 282.288 43.39 281.268 43.39C280.168 43.39 279.133 43.185 278.163 42.775C277.193 42.355 276.338 41.775 275.598 41.035C274.868 40.295 274.298 39.445 273.888 38.485C273.478 37.515 273.273 36.475 273.273 35.365C273.273 34.295 273.473 33.29 273.873 32.35C274.273 31.4 274.828 30.57 275.538 29.86C276.248 29.15 277.068 28.595 277.998 28.195C278.938 27.785 279.943 27.58 281.013 27.58C282.103 27.58 283.063 27.83 283.893 28.33C284.733 28.82 285.428 29.45 285.978 30.22L285.843 28ZM281.193 40.375C282.073 40.375 282.843 40.16 283.503 39.73C284.163 39.29 284.673 38.7 285.033 37.96C285.403 37.22 285.588 36.4 285.588 35.5C285.588 34.59 285.403 33.765 285.033 33.025C284.663 32.285 284.148 31.7 283.488 31.27C282.838 30.83 282.073 30.61 281.193 30.61C280.323 30.61 279.528 30.83 278.808 31.27C278.088 31.71 277.518 32.3 277.098 33.04C276.678 33.78 276.468 34.6 276.468 35.5C276.468 36.41 276.683 37.235 277.113 37.975C277.553 38.705 278.128 39.29 278.838 39.73C279.558 40.16 280.343 40.375 281.193 40.375Z" fill="white"></path><rect x="311.5" y="9.5" width="187" height="46" rx="7.5" stroke="#262626"></rect><path fill-rule="evenodd" clip-rule="evenodd" d="M332.54 42.851C332.57 42.8685 332.594 42.8821 332.611 42.8915L332.638 42.9071C332.861 43.0294 333.138 43.0285 333.361 42.9075L333.389 42.8915C333.406 42.8821 333.43 42.8685 333.46 42.851C333.521 42.816 333.607 42.765 333.716 42.6982C333.932 42.5646 334.239 42.3676 334.605 42.1091C335.335 41.5931 336.31 40.8274 337.287 39.8273C339.231 37.8368 341.25 34.8462 341.25 31C341.25 26.4437 337.556 22.75 333 22.75C328.444 22.75 324.75 26.4437 324.75 31C324.75 34.8462 326.769 37.8368 328.713 39.8273C329.69 40.8274 330.665 41.5931 331.395 42.1091C331.761 42.3676 332.068 42.5646 332.284 42.6982C332.393 42.765 332.479 42.816 332.54 42.851ZM333 34C334.657 34 336 32.6569 336 31C336 29.3431 334.657 28 333 28C331.343 28 330 29.3431 330 31C330 32.6569 331.343 34 333 34Z" fill="white"></path><path d="M352.08 39L354.519 26.4H355.68L359.082 35.346L362.475 26.4H363.636L366.084 39H364.545L362.772 29.856L359.577 38.316H358.578L355.383 29.856L353.619 39H352.08ZM374.697 30H376.209V39H374.697L374.634 37.479C374.352 38.001 373.962 38.424 373.464 38.748C372.972 39.072 372.384 39.234 371.7 39.234C371.04 39.234 370.422 39.111 369.846 38.865C369.27 38.613 368.76 38.268 368.316 37.83C367.878 37.386 367.536 36.876 367.29 36.3C367.044 35.724 366.921 35.103 366.921 34.437C366.921 33.795 367.041 33.189 367.281 32.619C367.521 32.049 367.854 31.551 368.28 31.125C368.712 30.693 369.21 30.357 369.774 30.117C370.338 29.871 370.944 29.748 371.592 29.748C372.3 29.748 372.921 29.916 373.455 30.252C373.989 30.582 374.421 31.011 374.751 31.539L374.697 30ZM371.673 37.767C372.267 37.767 372.78 37.623 373.212 37.335C373.65 37.041 373.986 36.645 374.22 36.147C374.46 35.649 374.58 35.1 374.58 34.5C374.58 33.888 374.46 33.336 374.22 32.844C373.98 32.346 373.641 31.953 373.203 31.665C372.771 31.371 372.261 31.224 371.673 31.224C371.079 31.224 370.539 31.371 370.053 31.665C369.567 31.959 369.18 32.355 368.892 32.853C368.61 33.345 368.469 33.894 368.469 34.5C368.469 35.106 368.616 35.658 368.91 36.156C369.204 36.648 369.594 37.041 370.08 37.335C370.566 37.623 371.097 37.767 371.673 37.767ZM378.113 39V25.5H379.625V39H378.113ZM381.787 30H383.299V39H381.787V30ZM382.561 28.533C382.321 28.533 382.12 28.455 381.958 28.299C381.796 28.143 381.715 27.948 381.715 27.714C381.715 27.48 381.796 27.285 381.958 27.129C382.12 26.973 382.318 26.895 382.552 26.895C382.786 26.895 382.984 26.973 383.146 27.129C383.308 27.285 383.389 27.48 383.389 27.714C383.389 27.948 383.308 28.143 383.146 28.299C382.99 28.455 382.795 28.533 382.561 28.533ZM390.068 29.748C390.944 29.748 391.739 29.961 392.453 30.387C393.173 30.813 393.746 31.386 394.172 32.106C394.598 32.82 394.811 33.615 394.811 34.491C394.811 35.145 394.688 35.76 394.442 36.336C394.196 36.906 393.854 37.41 393.416 37.848C392.984 38.28 392.48 38.619 391.904 38.865C391.334 39.111 390.722 39.234 390.068 39.234C389.372 39.234 388.766 39.072 388.25 38.748C387.74 38.418 387.332 37.989 387.026 37.461V39H385.514V25.5H387.026V31.521C387.332 30.993 387.74 30.567 388.25 30.243C388.766 29.913 389.372 29.748 390.068 29.748ZM390.05 37.758C390.644 37.758 391.184 37.611 391.67 37.317C392.156 37.023 392.543 36.63 392.831 36.138C393.119 35.64 393.263 35.091 393.263 34.491C393.263 33.879 393.116 33.327 392.822 32.835C392.528 32.337 392.138 31.944 391.652 31.656C391.166 31.362 390.632 31.215 390.05 31.215C389.462 31.215 388.949 31.362 388.511 31.656C388.079 31.95 387.743 32.346 387.503 32.844C387.269 33.342 387.152 33.891 387.152 34.491C387.152 35.097 387.269 35.649 387.503 36.147C387.743 36.639 388.082 37.032 388.52 37.326C388.958 37.614 389.468 37.758 390.05 37.758ZM395.824 35.58V30H397.336V35.247C397.336 35.703 397.447 36.117 397.669 36.489C397.891 36.861 398.188 37.158 398.56 37.38C398.938 37.596 399.352 37.704 399.802 37.704C400.258 37.704 400.669 37.596 401.035 37.38C401.407 37.158 401.704 36.861 401.926 36.489C402.148 36.117 402.259 35.703 402.259 35.247V30H403.771L403.78 39H402.268L402.259 37.857C401.941 38.277 401.539 38.613 401.053 38.865C400.567 39.111 400.042 39.234 399.478 39.234C398.806 39.234 398.191 39.072 397.633 38.748C397.081 38.418 396.64 37.977 396.31 37.425C395.986 36.873 395.824 36.258 395.824 35.58ZM405.228 40.008L405.786 36.966H407.298L406.236 40.008H405.228ZM419.611 39.234C418.759 39.234 417.958 39.066 417.208 38.73C416.458 38.388 415.798 37.92 415.228 37.326C414.664 36.726 414.22 36.03 413.896 35.238C413.578 34.446 413.419 33.6 413.419 32.7C413.419 31.8 413.578 30.954 413.896 30.162C414.22 29.37 414.664 28.677 415.228 28.083C415.798 27.483 416.458 27.015 417.208 26.679C417.958 26.337 418.759 26.166 419.611 26.166C420.631 26.166 421.57 26.403 422.428 26.877C423.286 27.351 423.997 27.981 424.561 28.767L423.22 29.487C422.8 28.935 422.269 28.497 421.627 28.173C420.991 27.843 420.319 27.678 419.611 27.678C418.957 27.678 418.345 27.81 417.775 28.074C417.211 28.338 416.716 28.701 416.29 29.163C415.864 29.625 415.531 30.159 415.291 30.765C415.051 31.371 414.931 32.016 414.931 32.7C414.931 33.39 415.051 34.038 415.291 34.644C415.537 35.25 415.873 35.784 416.299 36.246C416.731 36.708 417.229 37.071 417.793 37.335C418.363 37.593 418.969 37.722 419.611 37.722C420.343 37.722 421.021 37.557 421.645 37.227C422.275 36.891 422.8 36.453 423.22 35.913L424.561 36.642C423.997 37.428 423.286 38.058 422.428 38.532C421.57 39 420.631 39.234 419.611 39.234ZM433.109 30H434.621V39H433.109L433.046 37.479C432.764 38.001 432.374 38.424 431.876 38.748C431.384 39.072 430.796 39.234 430.112 39.234C429.452 39.234 428.834 39.111 428.258 38.865C427.682 38.613 427.172 38.268 426.728 37.83C426.29 37.386 425.948 36.876 425.702 36.3C425.456 35.724 425.333 35.103 425.333 34.437C425.333 33.795 425.453 33.189 425.693 32.619C425.933 32.049 426.266 31.551 426.692 31.125C427.124 30.693 427.622 30.357 428.186 30.117C428.75 29.871 429.356 29.748 430.004 29.748C430.712 29.748 431.333 29.916 431.867 30.252C432.401 30.582 432.833 31.011 433.163 31.539L433.109 30ZM430.085 37.767C430.679 37.767 431.192 37.623 431.624 37.335C432.062 37.041 432.398 36.645 432.632 36.147C432.872 35.649 432.992 35.1 432.992 34.5C432.992 33.888 432.872 33.336 432.632 32.844C432.392 32.346 432.053 31.953 431.615 31.665C431.183 31.371 430.673 31.224 430.085 31.224C429.491 31.224 428.951 31.371 428.465 31.665C427.979 31.959 427.592 32.355 427.304 32.853C427.022 33.345 426.881 33.894 426.881 34.5C426.881 35.106 427.028 35.658 427.322 36.156C427.616 36.648 428.006 37.041 428.492 37.335C428.978 37.623 429.509 37.767 430.085 37.767ZM436.525 39V25.5H438.037V39H436.525ZM440.199 30H441.711V39H440.199V30ZM440.973 28.533C440.733 28.533 440.532 28.455 440.37 28.299C440.208 28.143 440.127 27.948 440.127 27.714C440.127 27.48 440.208 27.285 440.37 27.129C440.532 26.973 440.73 26.895 440.964 26.895C441.198 26.895 441.396 26.973 441.558 27.129C441.72 27.285 441.801 27.48 441.801 27.714C441.801 27.948 441.72 28.143 441.558 28.299C441.402 28.455 441.207 28.533 440.973 28.533ZM445.916 27.777V30H448.553V31.512H445.916V39H444.404V31.512H443.243V30H444.404V27.777C444.404 27.315 444.515 26.898 444.737 26.526C444.965 26.148 445.268 25.848 445.646 25.626C446.03 25.398 446.45 25.284 446.906 25.284C447.242 25.284 447.569 25.353 447.887 25.491C448.205 25.623 448.487 25.821 448.733 26.085L447.653 27.156C447.569 27.042 447.458 26.955 447.32 26.895C447.188 26.829 447.05 26.796 446.906 26.796C446.636 26.796 446.402 26.892 446.204 27.084C446.012 27.276 445.916 27.507 445.916 27.777ZM453.757 39.234C452.929 39.234 452.173 39.021 451.489 38.595C450.811 38.169 450.268 37.599 449.86 36.885C449.458 36.165 449.257 35.37 449.257 34.5C449.257 33.84 449.374 33.225 449.608 32.655C449.842 32.079 450.163 31.575 450.571 31.143C450.985 30.705 451.465 30.363 452.011 30.117C452.557 29.871 453.139 29.748 453.757 29.748C454.585 29.748 455.338 29.961 456.016 30.387C456.7 30.813 457.243 31.386 457.645 32.106C458.053 32.826 458.257 33.624 458.257 34.5C458.257 35.154 458.14 35.766 457.906 36.336C457.672 36.906 457.348 37.41 456.934 37.848C456.526 38.28 456.049 38.619 455.503 38.865C454.963 39.111 454.381 39.234 453.757 39.234ZM453.757 37.722C454.321 37.722 454.828 37.575 455.278 37.281C455.734 36.981 456.091 36.588 456.349 36.102C456.613 35.61 456.745 35.076 456.745 34.5C456.745 33.912 456.61 33.372 456.34 32.88C456.076 32.388 455.719 31.995 455.269 31.701C454.819 31.407 454.315 31.26 453.757 31.26C453.193 31.26 452.686 31.41 452.236 31.71C451.786 32.004 451.429 32.397 451.165 32.889C450.901 33.381 450.769 33.918 450.769 34.5C450.769 35.1 450.904 35.646 451.174 36.138C451.444 36.624 451.807 37.011 452.263 37.299C452.719 37.581 453.217 37.722 453.757 37.722ZM459.746 39V30H461.258V31.125C461.576 30.705 461.978 30.372 462.464 30.126C462.95 29.874 463.478 29.748 464.048 29.748C464.396 29.748 464.732 29.793 465.056 29.883L464.444 31.395C464.198 31.317 463.958 31.278 463.724 31.278C463.274 31.278 462.86 31.389 462.482 31.611C462.11 31.827 461.813 32.121 461.591 32.493C461.369 32.865 461.258 33.279 461.258 33.735V39H459.746ZM474.153 33.402V39H472.641V33.735C472.641 33.279 472.53 32.865 472.308 32.493C472.086 32.121 471.789 31.827 471.417 31.611C471.045 31.389 470.631 31.278 470.175 31.278C469.725 31.278 469.311 31.389 468.933 31.611C468.561 31.827 468.264 32.121 468.042 32.493C467.82 32.865 467.709 33.279 467.709 33.735V39H466.197V30H467.709V31.125C468.027 30.705 468.429 30.372 468.915 30.126C469.401 29.874 469.929 29.748 470.499 29.748C471.171 29.748 471.783 29.913 472.335 30.243C472.893 30.567 473.334 31.005 473.658 31.557C473.988 32.109 474.153 32.724 474.153 33.402ZM475.953 30H477.465V39H475.953V30ZM476.727 28.533C476.487 28.533 476.286 28.455 476.124 28.299C475.962 28.143 475.881 27.948 475.881 27.714C475.881 27.48 475.962 27.285 476.124 27.129C476.286 26.973 476.484 26.895 476.718 26.895C476.952 26.895 477.15 26.973 477.312 27.129C477.474 27.285 477.555 27.48 477.555 27.714C477.555 27.948 477.474 28.143 477.312 28.299C477.156 28.455 476.961 28.533 476.727 28.533ZM486.74 30H488.252V39H486.74L486.677 37.479C486.395 38.001 486.005 38.424 485.507 38.748C485.015 39.072 484.427 39.234 483.743 39.234C483.083 39.234 482.465 39.111 481.889 38.865C481.313 38.613 480.803 38.268 480.359 37.83C479.921 37.386 479.579 36.876 479.333 36.3C479.087 35.724 478.964 35.103 478.964 34.437C478.964 33.795 479.084 33.189 479.324 32.619C479.564 32.049 479.897 31.551 480.323 31.125C480.755 30.693 481.253 30.357 481.817 30.117C482.381 29.871 482.987 29.748 483.635 29.748C484.343 29.748 484.964 29.916 485.498 30.252C486.032 30.582 486.464 31.011 486.794 31.539L486.74 30ZM483.716 37.767C484.31 37.767 484.823 37.623 485.255 37.335C485.693 37.041 486.029 36.645 486.263 36.147C486.503 35.649 486.623 35.1 486.623 34.5C486.623 33.888 486.503 33.336 486.263 32.844C486.023 32.346 485.684 31.953 485.246 31.665C484.814 31.371 484.304 31.224 483.716 31.224C483.122 31.224 482.582 31.371 482.096 31.665C481.61 31.959 481.223 32.355 480.935 32.853C480.653 33.345 480.512 33.894 480.512 34.5C480.512 35.106 480.659 35.658 480.953 36.156C481.247 36.648 481.637 37.041 482.123 37.335C482.609 37.623 483.14 37.767 483.716 37.767Z" fill="white"></path><path d="M1480.08 20V7.4H1484.24C1484.92 7.4 1485.53 7.565 1486.07 7.895C1486.61 8.225 1487.04 8.672 1487.36 9.236C1487.69 9.794 1487.85 10.418 1487.85 11.108C1487.85 11.81 1487.68 12.443 1487.35 13.007C1487.03 13.565 1486.59 14.009 1486.04 14.339C1485.49 14.663 1484.89 14.825 1484.24 14.825H1481.59V20H1480.08ZM1481.59 13.313H1484.1C1484.51 13.313 1484.88 13.214 1485.22 13.016C1485.56 12.812 1485.83 12.539 1486.03 12.197C1486.23 11.849 1486.34 11.459 1486.34 11.027C1486.34 10.589 1486.23 10.199 1486.03 9.857C1485.83 9.509 1485.56 9.236 1485.22 9.038C1484.88 8.834 1484.51 8.732 1484.1 8.732H1481.59V13.313ZM1489.4 20V11H1490.91V12.125C1491.23 11.705 1491.63 11.372 1492.11 11.126C1492.6 10.874 1493.13 10.748 1493.7 10.748C1494.05 10.748 1494.38 10.793 1494.71 10.883L1494.09 12.395C1493.85 12.317 1493.61 12.278 1493.37 12.278C1492.92 12.278 1492.51 12.389 1492.13 12.611C1491.76 12.827 1491.46 13.121 1491.24 13.493C1491.02 13.865 1490.91 14.279 1490.91 14.735V20H1489.4ZM1495.81 11H1497.32V20H1495.81V11ZM1496.59 9.533C1496.35 9.533 1496.15 9.455 1495.98 9.299C1495.82 9.143 1495.74 8.948 1495.74 8.714C1495.74 8.48 1495.82 8.285 1495.98 8.129C1496.15 7.973 1496.34 7.895 1496.58 7.895C1496.81 7.895 1497.01 7.973 1497.17 8.129C1497.33 8.285 1497.41 8.48 1497.41 8.714C1497.41 8.948 1497.33 9.143 1497.17 9.299C1497.02 9.455 1496.82 9.533 1496.59 9.533ZM1505.56 17.624L1506.91 18.353C1506.51 18.923 1505.99 19.379 1505.36 19.721C1504.73 20.063 1504.06 20.234 1503.32 20.234C1502.5 20.234 1501.74 20.021 1501.06 19.595C1500.38 19.169 1499.83 18.599 1499.43 17.885C1499.02 17.165 1498.82 16.37 1498.82 15.5C1498.82 14.84 1498.94 14.225 1499.17 13.655C1499.41 13.079 1499.73 12.575 1500.14 12.143C1500.55 11.705 1501.03 11.363 1501.58 11.117C1502.12 10.871 1502.71 10.748 1503.32 10.748C1504.06 10.748 1504.73 10.919 1505.36 11.261C1505.99 11.603 1506.51 12.062 1506.91 12.638L1505.56 13.367C1505.28 13.013 1504.93 12.74 1504.54 12.548C1504.14 12.356 1503.74 12.26 1503.32 12.26C1502.77 12.26 1502.26 12.41 1501.8 12.71C1501.35 13.004 1501 13.397 1500.73 13.889C1500.47 14.381 1500.34 14.918 1500.34 15.5C1500.34 16.082 1500.47 16.619 1500.73 17.111C1501 17.597 1501.36 17.987 1501.81 18.281C1502.27 18.575 1502.77 18.722 1503.32 18.722C1503.77 18.722 1504.18 18.62 1504.57 18.416C1504.96 18.212 1505.29 17.948 1505.56 17.624ZM1512.34 20.234C1511.51 20.234 1510.76 20.021 1510.07 19.595C1509.39 19.169 1508.85 18.599 1508.44 17.885C1508.04 17.165 1507.84 16.37 1507.84 15.5C1507.84 14.84 1507.96 14.225 1508.19 13.655C1508.43 13.079 1508.75 12.575 1509.15 12.143C1509.57 11.705 1510.05 11.363 1510.59 11.117C1511.14 10.871 1511.72 10.748 1512.34 10.748C1513.02 10.748 1513.64 10.886 1514.2 11.162C1514.77 11.432 1515.26 11.81 1515.66 12.296C1516.07 12.782 1516.37 13.346 1516.57 13.988C1516.77 14.63 1516.85 15.317 1516.8 16.049H1509.45C1509.52 16.559 1509.69 17.015 1509.96 17.417C1510.22 17.813 1510.56 18.128 1510.96 18.362C1511.38 18.596 1511.84 18.716 1512.34 18.722C1512.88 18.722 1513.37 18.584 1513.81 18.308C1514.25 18.026 1514.6 17.642 1514.87 17.156L1516.41 17.516C1516.05 18.314 1515.51 18.968 1514.78 19.478C1514.05 19.982 1513.24 20.234 1512.34 20.234ZM1509.41 14.861H1515.27C1515.23 14.357 1515.06 13.898 1514.79 13.484C1514.51 13.064 1514.16 12.728 1513.74 12.476C1513.31 12.224 1512.84 12.098 1512.34 12.098C1511.84 12.098 1511.37 12.221 1510.95 12.467C1510.53 12.713 1510.19 13.046 1509.91 13.466C1509.64 13.88 1509.47 14.345 1509.41 14.861Z" fill="#999999"></path><path d="M1486.19 40.432C1485.55 40.424 1484.95 40.528 1484.39 40.744C1483.84 40.952 1483.38 41.24 1483.03 41.608C1482.68 41.976 1482.5 42.404 1482.5 42.892C1482.5 43.492 1482.67 43.948 1483 44.26C1483.32 44.572 1483.76 44.804 1484.32 44.956C1484.88 45.1 1485.5 45.232 1486.19 45.352C1487.29 45.528 1488.31 45.82 1489.25 46.228C1490.19 46.636 1490.95 47.18 1491.52 47.86C1492.09 48.532 1492.38 49.36 1492.38 50.344C1492.38 51.248 1492.14 52.052 1491.66 52.756C1491.18 53.452 1490.54 54.016 1489.73 54.448C1488.93 54.872 1488.04 55.14 1487.08 55.252V57.688H1485.31V55.252C1484.5 55.172 1483.74 54.98 1483.01 54.676C1482.29 54.372 1481.66 53.968 1481.12 53.464C1480.59 52.96 1480.2 52.376 1479.96 51.712L1482.3 50.836C1482.44 51.22 1482.7 51.564 1483.08 51.868C1483.47 52.164 1483.94 52.396 1484.47 52.564C1485.02 52.732 1485.59 52.816 1486.19 52.816C1486.83 52.816 1487.43 52.712 1487.99 52.504C1488.56 52.296 1489.01 52.008 1489.36 51.64C1489.71 51.272 1489.88 50.84 1489.88 50.344C1489.88 49.832 1489.7 49.412 1489.33 49.084C1488.97 48.756 1488.51 48.496 1487.94 48.304C1487.38 48.112 1486.8 47.968 1486.19 47.872C1485.01 47.68 1483.96 47.4 1483.02 47.032C1482.09 46.664 1481.36 46.148 1480.81 45.484C1480.28 44.82 1480.01 43.956 1480.01 42.892C1480.01 41.988 1480.25 41.184 1480.73 40.48C1481.21 39.776 1481.85 39.212 1482.65 38.788C1483.46 38.356 1484.34 38.088 1485.31 37.984V35.512H1487.08V37.984C1487.86 38.064 1488.61 38.256 1489.33 38.56C1490.06 38.864 1490.7 39.268 1491.24 39.772C1491.78 40.268 1492.18 40.86 1492.43 41.548L1490.06 42.4C1489.93 42.008 1489.67 41.668 1489.28 41.38C1488.9 41.084 1488.44 40.852 1487.89 40.684C1487.36 40.516 1486.79 40.432 1486.19 40.432ZM1496.35 55V40.696H1494.35L1495.03 38.2H1498.85V55H1496.35ZM1501.73 56.344L1502.48 52.288H1504.97L1503.39 56.344H1501.73ZM1507.38 55V52.78C1507.95 52.308 1508.6 51.76 1509.34 51.136C1510.07 50.504 1510.82 49.836 1511.58 49.132C1512.34 48.42 1513.04 47.712 1513.68 47.008C1514.32 46.296 1514.84 45.624 1515.23 44.992C1515.63 44.352 1515.83 43.796 1515.83 43.324C1515.83 42.788 1515.7 42.3 1515.43 41.86C1515.18 41.412 1514.83 41.056 1514.39 40.792C1513.95 40.52 1513.46 40.384 1512.93 40.384C1512.39 40.384 1511.9 40.52 1511.45 40.792C1511.01 41.056 1510.65 41.412 1510.38 41.86C1510.12 42.3 1509.99 42.788 1509.99 43.324H1507.49C1507.49 42.308 1507.74 41.392 1508.23 40.576C1508.74 39.752 1509.4 39.1 1510.21 38.62C1511.04 38.132 1511.94 37.888 1512.93 37.888C1513.92 37.888 1514.82 38.132 1515.64 38.62C1516.45 39.108 1517.11 39.764 1517.59 40.588C1518.08 41.404 1518.33 42.316 1518.33 43.324C1518.33 43.884 1518.21 44.46 1517.98 45.052C1517.75 45.644 1517.42 46.248 1517.01 46.864C1516.6 47.48 1516.12 48.104 1515.58 48.736C1515.03 49.368 1514.45 50 1513.83 50.632C1513.2 51.264 1512.57 51.888 1511.92 52.504H1518.47V55H1507.38ZM1526.41 55.312C1525.35 55.312 1524.39 55.056 1523.52 54.544C1522.67 54.024 1521.99 53.336 1521.48 52.48C1520.99 51.616 1520.74 50.672 1520.74 49.648H1523.23C1523.23 50.232 1523.38 50.764 1523.67 51.244C1523.95 51.724 1524.34 52.108 1524.82 52.396C1525.3 52.676 1525.83 52.816 1526.41 52.816C1526.99 52.816 1527.52 52.676 1528 52.396C1528.48 52.108 1528.86 51.724 1529.15 51.244C1529.44 50.764 1529.58 50.232 1529.58 49.648C1529.58 49.064 1529.45 48.532 1529.19 48.052C1528.92 47.564 1528.53 47.176 1528 46.888C1527.47 46.592 1526.8 46.444 1525.98 46.444H1521.75L1523.45 38.2H1531.57V40.696H1525.48L1524.82 43.948L1526.27 43.972C1527.41 43.996 1528.42 44.26 1529.28 44.764C1530.15 45.26 1530.84 45.932 1531.33 46.78C1531.83 47.62 1532.08 48.576 1532.08 49.648C1532.08 50.424 1531.93 51.156 1531.63 51.844C1531.34 52.524 1530.93 53.124 1530.41 53.644C1529.9 54.164 1529.3 54.572 1528.61 54.868C1527.93 55.164 1527.2 55.312 1526.41 55.312ZM1540.03 55.312C1539.03 55.312 1538.14 55.088 1537.34 54.64C1536.55 54.184 1535.86 53.556 1535.29 52.756C1534.71 51.956 1534.27 51.032 1533.97 49.984C1533.66 48.928 1533.51 47.8 1533.51 46.6C1533.51 45.4 1533.66 44.272 1533.97 43.216C1534.27 42.16 1534.71 41.236 1535.29 40.444C1535.86 39.644 1536.55 39.02 1537.34 38.572C1538.14 38.116 1539.03 37.888 1540.03 37.888C1541 37.888 1541.89 38.116 1542.69 38.572C1543.49 39.02 1544.17 39.644 1544.73 40.444C1545.3 41.236 1545.73 42.16 1546.04 43.216C1546.34 44.272 1546.49 45.4 1546.49 46.6C1546.49 47.8 1546.34 48.928 1546.04 49.984C1545.73 51.032 1545.3 51.956 1544.73 52.756C1544.17 53.556 1543.49 54.184 1542.69 54.64C1541.89 55.088 1541 55.312 1540.03 55.312ZM1540.03 52.816C1540.95 52.816 1541.71 52.528 1542.32 51.952C1542.93 51.368 1543.39 50.604 1543.7 49.66C1544 48.716 1544.15 47.696 1544.15 46.6C1544.15 45.448 1543.99 44.404 1543.67 43.468C1543.36 42.524 1542.9 41.776 1542.28 41.224C1541.67 40.664 1540.92 40.384 1540.03 40.384C1539.31 40.384 1538.69 40.552 1538.17 40.888C1537.65 41.224 1537.21 41.684 1536.87 42.268C1536.53 42.852 1536.28 43.516 1536.1 44.26C1535.93 45.004 1535.85 45.784 1535.85 46.6C1535.85 47.696 1536.01 48.716 1536.32 49.66C1536.63 50.604 1537.09 51.368 1537.71 51.952C1538.33 52.528 1539.11 52.816 1540.03 52.816ZM1548.16 56.344L1548.91 52.288H1551.4L1549.82 56.344H1548.16ZM1560.09 55.312C1559.1 55.312 1558.2 55.088 1557.4 54.64C1556.61 54.184 1555.92 53.556 1555.35 52.756C1554.77 51.956 1554.33 51.032 1554.03 49.984C1553.72 48.928 1553.57 47.8 1553.57 46.6C1553.57 45.4 1553.72 44.272 1554.03 43.216C1554.33 42.16 1554.77 41.236 1555.35 40.444C1555.92 39.644 1556.61 39.02 1557.4 38.572C1558.2 38.116 1559.1 37.888 1560.09 37.888C1561.06 37.888 1561.95 38.116 1562.75 38.572C1563.55 39.02 1564.23 39.644 1564.79 40.444C1565.36 41.236 1565.8 42.16 1566.1 43.216C1566.4 44.272 1566.56 45.4 1566.56 46.6C1566.56 47.8 1566.4 48.928 1566.1 49.984C1565.8 51.032 1565.36 51.956 1564.79 52.756C1564.23 53.556 1563.55 54.184 1562.75 54.64C1561.95 55.088 1561.06 55.312 1560.09 55.312ZM1560.09 52.816C1561.01 52.816 1561.77 52.528 1562.38 51.952C1563 51.368 1563.46 50.604 1563.76 49.66C1564.06 48.716 1564.22 47.696 1564.22 46.6C1564.22 45.448 1564.06 44.404 1563.74 43.468C1563.42 42.524 1562.96 41.776 1562.34 41.224C1561.74 40.664 1560.98 40.384 1560.09 40.384C1559.38 40.384 1558.76 40.552 1558.23 40.888C1557.71 41.224 1557.28 41.684 1556.93 42.268C1556.6 42.852 1556.34 43.516 1556.16 44.26C1556 45.004 1555.91 45.784 1555.91 46.6C1555.91 47.696 1556.07 48.716 1556.38 49.66C1556.69 50.604 1557.16 51.368 1557.77 51.952C1558.4 52.528 1559.17 52.816 1560.09 52.816ZM1574.06 55.312C1573.06 55.312 1572.17 55.088 1571.37 54.64C1570.58 54.184 1569.89 53.556 1569.32 52.756C1568.74 51.956 1568.3 51.032 1568 49.984C1567.69 48.928 1567.54 47.8 1567.54 46.6C1567.54 45.4 1567.69 44.272 1568 43.216C1568.3 42.16 1568.74 41.236 1569.32 40.444C1569.89 39.644 1570.58 39.02 1571.37 38.572C1572.17 38.116 1573.06 37.888 1574.06 37.888C1575.03 37.888 1575.92 38.116 1576.72 38.572C1577.52 39.02 1578.2 39.644 1578.76 40.444C1579.33 41.236 1579.76 42.16 1580.07 43.216C1580.37 44.272 1580.52 45.4 1580.52 46.6C1580.52 47.8 1580.37 48.928 1580.07 49.984C1579.76 51.032 1579.33 51.956 1578.76 52.756C1578.2 53.556 1577.52 54.184 1576.72 54.64C1575.92 55.088 1575.03 55.312 1574.06 55.312ZM1574.06 52.816C1574.98 52.816 1575.74 52.528 1576.35 51.952C1576.96 51.368 1577.42 50.604 1577.73 49.66C1578.03 48.716 1578.18 47.696 1578.18 46.6C1578.18 45.448 1578.02 44.404 1577.7 43.468C1577.39 42.524 1576.93 41.776 1576.31 41.224C1575.7 40.664 1574.95 40.384 1574.06 40.384C1573.34 40.384 1572.72 40.552 1572.2 40.888C1571.68 41.224 1571.24 41.684 1570.9 42.268C1570.56 42.852 1570.31 43.516 1570.13 44.26C1569.96 45.004 1569.88 45.784 1569.88 46.6C1569.88 47.696 1570.04 48.716 1570.35 49.66C1570.66 50.604 1571.12 51.368 1571.74 51.952C1572.36 52.528 1573.14 52.816 1574.06 52.816ZM1588.03 55.312C1587.03 55.312 1586.14 55.088 1585.34 54.64C1584.55 54.184 1583.86 53.556 1583.29 52.756C1582.71 51.956 1582.27 51.032 1581.97 49.984C1581.66 48.928 1581.51 47.8 1581.51 46.6C1581.51 45.4 1581.66 44.272 1581.97 43.216C1582.27 42.16 1582.71 41.236 1583.29 40.444C1583.86 39.644 1584.55 39.02 1585.34 38.572C1586.14 38.116 1587.03 37.888 1588.03 37.888C1589 37.888 1589.89 38.116 1590.69 38.572C1591.49 39.02 1592.17 39.644 1592.73 40.444C1593.3 41.236 1593.73 42.16 1594.04 43.216C1594.34 44.272 1594.49 45.4 1594.49 46.6C1594.49 47.8 1594.34 48.928 1594.04 49.984C1593.73 51.032 1593.3 51.956 1592.73 52.756C1592.17 53.556 1591.49 54.184 1590.69 54.64C1589.89 55.088 1589 55.312 1588.03 55.312ZM1588.03 52.816C1588.95 52.816 1589.71 52.528 1590.32 51.952C1590.93 51.368 1591.39 50.604 1591.7 49.66C1592 48.716 1592.15 47.696 1592.15 46.6C1592.15 45.448 1591.99 44.404 1591.67 43.468C1591.36 42.524 1590.9 41.776 1590.28 41.224C1589.67 40.664 1588.92 40.384 1588.03 40.384C1587.31 40.384 1586.69 40.552 1586.17 40.888C1585.65 41.224 1585.21 41.684 1584.87 42.268C1584.53 42.852 1584.28 43.516 1584.1 44.26C1583.93 45.004 1583.85 45.784 1583.85 46.6C1583.85 47.696 1584.01 48.716 1584.32 49.66C1584.63 50.604 1585.09 51.368 1585.71 51.952C1586.33 52.528 1587.11 52.816 1588.03 52.816Z" fill="white"></path></svg>