<svg xmlns="http://www.w3.org/2000/svg" width="455" height="212" viewBox="0 0 455 212" fill="none"><rect x="0.5" y="0.5" width="454" height="211" rx="11.5" fill="#1A1A1A"></rect><rect x="0.5" y="0.5" width="454" height="211" rx="11.5" stroke="#262626"></rect><rect x="187" y="40.5" width="81" height="81" rx="40.5" stroke="url(#paint0_linear_104_12845)"></rect><rect x="187" y="40.5" width="81" height="81" rx="40.5" stroke="url(#paint1_linear_104_12845)"></rect><rect x="197" y="50.5" width="61" height="61" rx="30.5" stroke="url(#paint2_linear_104_12845)"></rect><rect x="197" y="50.5" width="61" height="61" rx="30.5" stroke="url(#paint3_linear_104_12845)"></rect><path fill-rule="evenodd" clip-rule="evenodd" d="M212.625 70.375C212.625 68.0278 214.528 66.125 216.875 66.125H218.818C220.037 66.125 221.099 66.9545 221.395 68.137L222.962 74.4032C223.221 75.44 222.833 76.5312 221.978 77.1724L220.146 78.5469C219.956 78.6896 219.914 78.8986 219.968 79.0446C221.576 83.4359 225.064 86.9238 229.455 88.5324C229.601 88.5859 229.81 88.5445 229.953 88.3542L231.328 86.5216C231.969 85.6666 233.06 85.2792 234.097 85.5384L240.363 87.1049C241.545 87.4005 242.375 88.463 242.375 89.6819V91.625C242.375 93.9722 240.472 95.875 238.125 95.875H234.938C222.615 95.875 212.625 85.8854 212.625 73.5625V70.375Z" fill="#A685FA"></path><path d="M154.203 163V159.04H150.243V156.96H154.203V153H156.283V156.96H160.243V159.04H156.283V163H154.203ZM163.515 164V152.08H161.845L162.415 150H165.595V164H163.515ZM176.102 165.12C175.422 164.46 174.869 163.74 174.442 162.96C174.015 162.173 173.702 161.33 173.502 160.43C173.302 159.53 173.202 158.573 173.202 157.56C173.202 157.06 173.245 156.513 173.332 155.92C173.419 155.327 173.545 154.727 173.712 154.12C173.879 153.513 174.079 152.937 174.312 152.39C174.552 151.843 174.822 151.36 175.122 150.94C175.422 150.52 175.749 150.207 176.102 150H178.182C177.882 150.24 177.592 150.57 177.312 150.99C177.032 151.403 176.772 151.877 176.532 152.41C176.292 152.943 176.079 153.507 175.892 154.1C175.705 154.693 175.559 155.287 175.452 155.88C175.345 156.467 175.289 157.027 175.282 157.56C175.295 158.607 175.435 159.6 175.702 160.54C175.975 161.473 176.329 162.33 176.762 163.11C177.202 163.883 177.675 164.553 178.182 165.12H176.102ZM181.659 164V152.08H179.989L180.559 150H183.739V164H181.659ZM186.142 164V162.15C186.615 161.757 187.158 161.3 187.772 160.78C188.385 160.253 189.008 159.697 189.642 159.11C190.275 158.517 190.858 157.927 191.392 157.34C191.925 156.747 192.355 156.187 192.682 155.66C193.015 155.127 193.182 154.663 193.182 154.27C193.182 153.823 193.072 153.417 192.852 153.05C192.638 152.677 192.348 152.38 191.982 152.16C191.615 151.933 191.208 151.82 190.762 151.82C190.315 151.82 189.905 151.933 189.532 152.16C189.165 152.38 188.868 152.677 188.642 153.05C188.422 153.417 188.312 153.823 188.312 154.27H186.232C186.232 153.423 186.438 152.66 186.852 151.98C187.272 151.293 187.822 150.75 188.502 150.35C189.188 149.943 189.942 149.74 190.762 149.74C191.588 149.74 192.342 149.943 193.022 150.35C193.702 150.757 194.245 151.303 194.652 151.99C195.058 152.67 195.262 153.43 195.262 154.27C195.262 154.737 195.165 155.217 194.972 155.71C194.778 156.203 194.508 156.707 194.162 157.22C193.822 157.733 193.425 158.253 192.972 158.78C192.518 159.307 192.032 159.833 191.512 160.36C190.992 160.887 190.462 161.407 189.922 161.92H195.382V164H186.142ZM201.612 164.26C200.766 164.26 200.006 164.063 199.332 163.67C198.666 163.277 198.139 162.75 197.752 162.09C197.366 161.43 197.172 160.697 197.172 159.89H199.252C199.252 160.31 199.352 160.693 199.552 161.04C199.752 161.387 200.029 161.663 200.382 161.87C200.736 162.077 201.146 162.18 201.612 162.18C202.032 162.18 202.422 162.077 202.782 161.87C203.142 161.663 203.432 161.387 203.652 161.04C203.872 160.693 203.982 160.31 203.982 159.89C203.982 159.357 203.842 158.91 203.562 158.55C203.282 158.19 202.892 157.923 202.392 157.75C201.899 157.57 201.329 157.48 200.682 157.48V155.84C201.562 155.84 202.266 155.667 202.792 155.32C203.319 154.973 203.582 154.457 203.582 153.77C203.582 153.41 203.486 153.083 203.292 152.79C203.106 152.49 202.856 152.253 202.542 152.08C202.236 151.9 201.906 151.81 201.552 151.81C201.186 151.81 200.832 151.9 200.492 152.08C200.159 152.253 199.886 152.49 199.672 152.79C199.459 153.083 199.352 153.41 199.352 153.77H197.272C197.272 153.217 197.386 152.697 197.612 152.21C197.846 151.717 198.159 151.287 198.552 150.92C198.952 150.547 199.406 150.257 199.912 150.05C200.426 149.837 200.962 149.73 201.522 149.73C202.256 149.73 202.936 149.913 203.562 150.28C204.196 150.64 204.702 151.127 205.082 151.74C205.469 152.347 205.662 153.023 205.662 153.77C205.662 154.363 205.516 154.927 205.222 155.46C204.936 155.987 204.536 156.36 204.022 156.58C204.469 156.74 204.842 156.993 205.142 157.34C205.449 157.68 205.679 158.073 205.832 158.52C205.986 158.96 206.062 159.417 206.062 159.89C206.062 160.69 205.859 161.423 205.452 162.09C205.046 162.75 204.502 163.277 203.822 163.67C203.149 164.063 202.412 164.26 201.612 164.26ZM207.67 165.12C208.177 164.553 208.647 163.883 209.08 163.11C209.52 162.33 209.873 161.473 210.14 160.54C210.413 159.6 210.557 158.607 210.57 157.56C210.563 157.027 210.507 156.467 210.4 155.88C210.293 155.287 210.147 154.693 209.96 154.1C209.773 153.507 209.56 152.943 209.32 152.41C209.08 151.877 208.82 151.403 208.54 150.99C208.26 150.57 207.97 150.24 207.67 150H209.75C210.103 150.207 210.427 150.52 210.72 150.94C211.02 151.36 211.29 151.843 211.53 152.39C211.77 152.937 211.973 153.513 212.14 154.12C212.307 154.727 212.433 155.327 212.52 155.92C212.607 156.513 212.65 157.06 212.65 157.56C212.65 158.573 212.55 159.53 212.35 160.43C212.157 161.33 211.847 162.173 211.42 162.96C210.993 163.74 210.437 164.46 209.75 165.12H207.67ZM225.452 164V160.42H219.462V158.33L224.952 150H227.532V158.34H228.812V160.42H227.532V164H225.452ZM221.882 158.33L225.452 158.34L225.432 152.87L221.882 158.33ZM235.44 164.26C234.553 164.26 233.75 164.047 233.03 163.62C232.316 163.187 231.75 162.613 231.33 161.9C230.916 161.18 230.71 160.393 230.71 159.54H232.79C232.79 160.027 232.91 160.47 233.15 160.87C233.39 161.27 233.71 161.59 234.11 161.83C234.51 162.063 234.953 162.18 235.44 162.18C235.92 162.18 236.36 162.063 236.76 161.83C237.16 161.59 237.48 161.27 237.72 160.87C237.96 160.47 238.08 160.027 238.08 159.54C238.08 159.053 237.97 158.61 237.75 158.21C237.53 157.803 237.2 157.48 236.76 157.24C236.32 156.993 235.76 156.87 235.08 156.87H231.55L232.97 150H239.74V152.08H234.66L234.11 154.79L235.32 154.81C236.273 154.83 237.11 155.05 237.83 155.47C238.556 155.883 239.126 156.443 239.54 157.15C239.953 157.85 240.16 158.647 240.16 159.54C240.16 160.187 240.036 160.797 239.79 161.37C239.543 161.937 239.203 162.437 238.77 162.87C238.343 163.303 237.843 163.643 237.27 163.89C236.703 164.137 236.093 164.26 235.44 164.26ZM246.747 164.26C245.854 164.26 245.037 164.04 244.297 163.6C243.557 163.153 242.964 162.56 242.517 161.82C242.077 161.073 241.857 160.25 241.857 159.35C241.857 158.87 241.914 158.437 242.027 158.05C242.141 157.663 242.314 157.257 242.547 156.83L246.487 150H248.907L246.177 154.72C246.731 154.613 247.271 154.61 247.797 154.71C248.331 154.803 248.831 154.987 249.297 155.26C249.764 155.527 250.174 155.867 250.527 156.28C250.887 156.687 251.167 157.15 251.367 157.67C251.567 158.19 251.667 158.75 251.667 159.35C251.667 160.023 251.537 160.657 251.277 161.25C251.024 161.843 250.671 162.367 250.217 162.82C249.771 163.267 249.247 163.62 248.647 163.88C248.054 164.133 247.421 164.26 246.747 164.26ZM246.747 162.18C247.294 162.18 247.781 162.047 248.207 161.78C248.634 161.513 248.971 161.163 249.217 160.73C249.464 160.297 249.587 159.837 249.587 159.35C249.587 158.837 249.461 158.367 249.207 157.94C248.961 157.513 248.624 157.173 248.197 156.92C247.771 156.66 247.294 156.53 246.767 156.53C246.221 156.53 245.734 156.663 245.307 156.93C244.881 157.197 244.544 157.543 244.297 157.97C244.057 158.397 243.937 158.857 243.937 159.35C243.937 159.89 244.067 160.373 244.327 160.8C244.594 161.227 244.941 161.563 245.367 161.81C245.794 162.057 246.254 162.18 246.747 162.18ZM253.475 156.96H259.875V159.04H253.475V156.96ZM262.294 164L269.164 152.08H261.484V150H271.574V152.08L264.684 164H262.294ZM277.362 164.26C276.516 164.26 275.746 164.067 275.052 163.68C274.359 163.293 273.806 162.777 273.392 162.13C272.986 161.477 272.782 160.75 272.782 159.95C272.782 159.277 272.949 158.65 273.282 158.07C273.616 157.49 274.059 157.01 274.612 156.63C274.166 156.297 273.802 155.877 273.522 155.37C273.242 154.863 273.102 154.317 273.102 153.73C273.102 152.997 273.292 152.33 273.672 151.73C274.059 151.123 274.576 150.64 275.222 150.28C275.869 149.92 276.582 149.74 277.362 149.74C278.142 149.74 278.856 149.92 279.502 150.28C280.149 150.64 280.662 151.123 281.042 151.73C281.429 152.33 281.622 152.997 281.622 153.73C281.622 154.317 281.482 154.863 281.202 155.37C280.929 155.877 280.566 156.297 280.112 156.63C280.679 157.01 281.126 157.49 281.452 158.07C281.786 158.65 281.952 159.277 281.952 159.95C281.952 160.743 281.746 161.467 281.332 162.12C280.919 162.773 280.366 163.293 279.672 163.68C278.979 164.067 278.209 164.26 277.362 164.26ZM277.362 162.18C277.802 162.18 278.202 162.08 278.562 161.88C278.922 161.68 279.209 161.413 279.422 161.08C279.642 160.74 279.752 160.363 279.752 159.95C279.752 159.543 279.642 159.173 279.422 158.84C279.209 158.5 278.922 158.23 278.562 158.03C278.202 157.83 277.802 157.73 277.362 157.73C276.929 157.73 276.529 157.83 276.162 158.03C275.802 158.23 275.512 158.5 275.292 158.84C275.079 159.173 274.972 159.543 274.972 159.95C274.972 160.363 275.079 160.74 275.292 161.08C275.512 161.413 275.802 161.68 276.162 161.88C276.529 162.08 276.929 162.18 277.362 162.18ZM277.362 155.65C277.742 155.65 278.086 155.563 278.392 155.39C278.706 155.217 278.956 154.987 279.142 154.7C279.329 154.407 279.422 154.083 279.422 153.73C279.422 153.377 279.329 153.057 279.142 152.77C278.956 152.483 278.706 152.253 278.392 152.08C278.086 151.907 277.742 151.82 277.362 151.82C276.982 151.82 276.636 151.907 276.322 152.08C276.016 152.253 275.769 152.483 275.582 152.77C275.396 153.057 275.302 153.377 275.302 153.73C275.302 154.083 275.396 154.407 275.582 154.7C275.769 154.987 276.016 155.217 276.322 155.39C276.636 155.563 276.982 155.65 277.362 155.65ZM285.854 164L288.684 159.1C288.011 159.227 287.354 159.2 286.714 159.02C286.081 158.833 285.511 158.53 285.004 158.11C284.497 157.683 284.094 157.167 283.794 156.56C283.494 155.953 283.344 155.287 283.344 154.56C283.344 153.9 283.467 153.28 283.714 152.7C283.967 152.113 284.314 151.6 284.754 151.16C285.194 150.713 285.704 150.367 286.284 150.12C286.871 149.867 287.497 149.74 288.164 149.74C289.037 149.74 289.837 149.957 290.564 150.39C291.291 150.823 291.871 151.407 292.304 152.14C292.737 152.867 292.954 153.673 292.954 154.56C292.954 155.02 292.897 155.44 292.784 155.82C292.677 156.2 292.507 156.6 292.274 157.02L288.264 164H285.854ZM288.144 157.29C288.677 157.29 289.151 157.163 289.564 156.91C289.977 156.65 290.301 156.313 290.534 155.9C290.774 155.48 290.894 155.03 290.894 154.55C290.894 154.03 290.767 153.563 290.514 153.15C290.261 152.737 289.924 152.41 289.504 152.17C289.091 151.93 288.644 151.81 288.164 151.81C287.631 151.81 287.157 151.94 286.744 152.2C286.331 152.46 286.004 152.8 285.764 153.22C285.524 153.633 285.404 154.077 285.404 154.55C285.404 155.05 285.524 155.51 285.764 155.93C286.011 156.343 286.341 156.673 286.754 156.92C287.167 157.167 287.631 157.29 288.144 157.29ZM299.575 164.26C298.748 164.26 298.002 164.073 297.335 163.7C296.675 163.32 296.105 162.797 295.625 162.13C295.145 161.463 294.778 160.693 294.525 159.82C294.272 158.94 294.145 158 294.145 157C294.145 156 294.272 155.06 294.525 154.18C294.778 153.3 295.145 152.53 295.625 151.87C296.105 151.203 296.675 150.683 297.335 150.31C298.002 149.93 298.748 149.74 299.575 149.74C300.388 149.74 301.128 149.93 301.795 150.31C302.462 150.683 303.028 151.203 303.495 151.87C303.968 152.53 304.332 153.3 304.585 154.18C304.838 155.06 304.965 156 304.965 157C304.965 158 304.838 158.94 304.585 159.82C304.332 160.693 303.968 161.463 303.495 162.13C303.028 162.797 302.462 163.32 301.795 163.7C301.128 164.073 300.388 164.26 299.575 164.26ZM299.575 162.18C300.342 162.18 300.978 161.94 301.485 161.46C301.998 160.973 302.382 160.337 302.635 159.55C302.888 158.763 303.015 157.913 303.015 157C303.015 156.04 302.882 155.17 302.615 154.39C302.355 153.603 301.968 152.98 301.455 152.52C300.948 152.053 300.322 151.82 299.575 151.82C298.982 151.82 298.465 151.96 298.025 152.24C297.592 152.52 297.232 152.903 296.945 153.39C296.665 153.877 296.452 154.43 296.305 155.05C296.165 155.67 296.095 156.32 296.095 157C296.095 157.913 296.225 158.763 296.485 159.55C296.745 160.337 297.132 160.973 297.645 161.46C298.165 161.94 298.808 162.18 299.575 162.18Z" fill="white"></path><path d="M407.375 47.625L428.625 26.375M428.625 26.375L412.687 26.375M428.625 26.375V42.3125" stroke="#4D4D4D" stroke-width="2" stroke-linecap="round" stroke-linejoin="round"></path><defs><linearGradient id="paint0_linear_104_12845" x1="193.25" y1="126.5" x2="272.25" y2="34.5" gradientUnits="userSpaceOnUse"><stop stop-color="#A685FA"></stop><stop offset="0.323723" stop-color="#A685FA" stop-opacity="0"></stop></linearGradient><linearGradient id="paint1_linear_104_12845" x1="268.25" y1="29.5" x2="193.25" y2="122" gradientUnits="userSpaceOnUse"><stop stop-color="#A685FA"></stop><stop offset="0.576615" stop-color="#A685FA" stop-opacity="0"></stop></linearGradient><linearGradient id="paint2_linear_104_12845" x1="189.75" y1="53.5" x2="258.25" y2="112" gradientUnits="userSpaceOnUse"><stop stop-color="#A685FA"></stop><stop offset="0.323723" stop-color="#A685FA" stop-opacity="0"></stop></linearGradient><linearGradient id="paint3_linear_104_12845" x1="270.75" y1="126" x2="198.75" y2="75" gradientUnits="userSpaceOnUse"><stop stop-color="#A685FA"></stop><stop offset="0.576615" stop-color="#A685FA" stop-opacity="0"></stop></linearGradient></defs></svg>