<svg xmlns="http://www.w3.org/2000/svg" width="463" height="66" viewBox="0 0 463 66" fill="none"><g clip-path="url(#clip0_166_1144)"><path d="M1.34 15V5.2H4.574C5.10133 5.2 5.575 5.32833 5.995 5.585C6.41967 5.84167 6.75567 6.18933 7.003 6.628C7.255 7.062 7.381 7.54733 7.381 8.084C7.381 8.63 7.25267 9.12233 6.996 9.561C6.744 9.995 6.40333 10.3403 5.974 10.597C5.54933 10.849 5.08267 10.975 4.574 10.975H2.516V15H1.34ZM2.516 9.799H4.469C4.78633 9.799 5.07567 9.722 5.337 9.568C5.603 9.40933 5.813 9.197 5.967 8.931C6.12567 8.66033 6.205 8.357 6.205 8.021C6.205 7.68033 6.12567 7.377 5.967 7.111C5.813 6.84033 5.603 6.628 5.337 6.474C5.07567 6.31533 4.78633 6.236 4.469 6.236H2.516V9.799ZM8.58609 15V8H9.76209V8.875C10.0094 8.54833 10.3221 8.28933 10.7001 8.098C11.0781 7.902 11.4888 7.804 11.9321 7.804C12.2028 7.804 12.4641 7.839 12.7161 7.909L12.2401 9.085C12.0488 9.02433 11.8621 8.994 11.6801 8.994C11.3301 8.994 11.0081 9.08033 10.7141 9.253C10.4248 9.421 10.1938 9.64967 10.0211 9.939C9.84843 10.2283 9.76209 10.5503 9.76209 10.905V15H8.58609ZM16.3009 15.182C15.6569 15.182 15.0689 15.0163 14.5369 14.685C14.0095 14.3537 13.5872 13.9103 13.2699 13.355C12.9572 12.795 12.8009 12.1767 12.8009 11.5C12.8009 10.9867 12.8919 10.5083 13.0739 10.065C13.2559 9.617 13.5055 9.225 13.8229 8.889C14.1449 8.54833 14.5182 8.28233 14.9429 8.091C15.3675 7.89967 15.8202 7.804 16.3009 7.804C16.9449 7.804 17.5305 7.96967 18.0579 8.301C18.5899 8.63233 19.0122 9.078 19.3249 9.638C19.6422 10.198 19.8009 10.8187 19.8009 11.5C19.8009 12.0087 19.7099 12.4847 19.5279 12.928C19.3459 13.3713 19.0939 13.7633 18.7719 14.104C18.4545 14.44 18.0835 14.7037 17.6589 14.895C17.2389 15.0863 16.7862 15.182 16.3009 15.182ZM16.3009 14.006C16.7395 14.006 17.1339 13.8917 17.4839 13.663C17.8385 13.4297 18.1162 13.124 18.3169 12.746C18.5222 12.3633 18.6249 11.948 18.6249 11.5C18.6249 11.0427 18.5199 10.6227 18.3099 10.24C18.1045 9.85733 17.8269 9.55167 17.4769 9.323C17.1269 9.09433 16.7349 8.98 16.3009 8.98C15.8622 8.98 15.4679 9.09667 15.1179 9.33C14.7679 9.55867 14.4902 9.86433 14.2849 10.247C14.0795 10.6297 13.9769 11.0473 13.9769 11.5C13.9769 11.9667 14.0819 12.3913 14.2919 12.774C14.5019 13.152 14.7842 13.453 15.1389 13.677C15.4935 13.8963 15.8809 14.006 16.3009 14.006ZM22.1351 18.5H20.9591V8H22.1351V9.197C22.3731 8.78633 22.6905 8.455 23.0871 8.203C23.4838 7.94633 23.9551 7.818 24.5011 7.818C25.0098 7.818 25.4858 7.91367 25.9291 8.105C26.3771 8.29633 26.7691 8.56233 27.1051 8.903C27.4411 9.239 27.7048 9.62867 27.8961 10.072C28.0875 10.5153 28.1831 10.9913 28.1831 11.5C28.1831 12.0087 28.0875 12.487 27.8961 12.935C27.7048 13.383 27.4411 13.7773 27.1051 14.118C26.7691 14.454 26.3771 14.7177 25.9291 14.909C25.4858 15.1003 25.0098 15.196 24.5011 15.196C23.9551 15.196 23.4838 15.07 23.0871 14.818C22.6905 14.5613 22.3731 14.2277 22.1351 13.817V18.5ZM24.4871 8.959C24.0345 8.959 23.6378 9.07333 23.2971 9.302C22.9565 9.53067 22.6928 9.83633 22.5061 10.219C22.3241 10.6017 22.2331 11.0287 22.2331 11.5C22.2331 11.9667 22.3241 12.3937 22.5061 12.781C22.6928 13.1683 22.9541 13.4763 23.2901 13.705C23.6308 13.9337 24.0298 14.048 24.4871 14.048C24.9398 14.048 25.3551 13.936 25.7331 13.712C26.1111 13.4833 26.4145 13.1777 26.6431 12.795C26.8718 12.4077 26.9861 11.976 26.9861 11.5C26.9861 11.0333 26.8741 10.6087 26.6501 10.226C26.4261 9.83867 26.1251 9.53067 25.7471 9.302C25.3691 9.07333 24.9491 8.959 24.4871 8.959ZM32.3927 15.182C31.7487 15.182 31.1607 15.0163 30.6287 14.685C30.1013 14.3537 29.679 13.9103 29.3617 13.355C29.049 12.795 28.8927 12.1767 28.8927 11.5C28.8927 10.9867 28.9837 10.5083 29.1657 10.065C29.3477 9.617 29.5973 9.225 29.9147 8.889C30.2367 8.54833 30.61 8.28233 31.0347 8.091C31.4593 7.89967 31.912 7.804 32.3927 7.804C32.92 7.804 33.403 7.91133 33.8417 8.126C34.285 8.336 34.663 8.63 34.9757 9.008C35.293 9.386 35.5287 9.82467 35.6827 10.324C35.8413 10.8233 35.8997 11.3577 35.8577 11.927H30.1457C30.2017 12.3237 30.3323 12.6783 30.5377 12.991C30.743 13.299 31.0043 13.544 31.3217 13.726C31.6437 13.908 32.0007 14.0013 32.3927 14.006C32.8127 14.006 33.193 13.8987 33.5337 13.684C33.8743 13.4647 34.1497 13.166 34.3597 12.788L35.5567 13.068C35.2767 13.6887 34.8543 14.1973 34.2897 14.594C33.725 14.986 33.0927 15.182 32.3927 15.182ZM30.1107 11.003H34.6747C34.6373 10.611 34.5113 10.254 34.2967 9.932C34.082 9.60533 33.809 9.344 33.4777 9.148C33.1463 8.952 32.7847 8.854 32.3927 8.854C32.0007 8.854 31.6413 8.94967 31.3147 9.141C30.988 9.33233 30.7173 9.59133 30.5027 9.918C30.2927 10.24 30.162 10.6017 30.1107 11.003ZM37.0373 15V8H38.2133V8.875C38.4606 8.54833 38.7733 8.28933 39.1513 8.098C39.5293 7.902 39.9399 7.804 40.3833 7.804C40.6539 7.804 40.9153 7.839 41.1673 7.909L40.6913 9.085C40.4999 9.02433 40.3133 8.994 40.1313 8.994C39.7813 8.994 39.4593 9.08033 39.1653 9.253C38.8759 9.421 38.6449 9.64967 38.4723 9.939C38.2996 10.2283 38.2133 10.5503 38.2133 10.905V15H37.0373ZM45.7765 9.176H44.1875L44.1805 15H43.0045L43.0115 9.176H41.8075V8H43.0115L43.0045 5.802H44.1805L44.1875 8H45.7765V9.176ZM51.6623 8H52.9083L49.0793 18.5H47.8333L49.1003 15L46.5873 8H47.8753L49.6883 13.383L51.6623 8ZM57.8781 15V5.2H59.0541V15H57.8781ZM67.1374 10.646V15H65.9614V10.905C65.9614 10.5503 65.875 10.2283 65.7024 9.939C65.5297 9.64967 65.2987 9.421 65.0094 9.253C64.72 9.08033 64.398 8.994 64.0434 8.994C63.6934 8.994 63.3714 9.08033 63.0774 9.253C62.788 9.421 62.557 9.64967 62.3844 9.939C62.2117 10.2283 62.1254 10.5503 62.1254 10.905V15H60.9494V8H62.1254V8.875C62.3727 8.54833 62.6854 8.28933 63.0634 8.098C63.4414 7.902 63.852 7.804 64.2954 7.804C64.818 7.804 65.294 7.93233 65.7234 8.189C66.1574 8.441 66.5004 8.78167 66.7524 9.211C67.009 9.64033 67.1374 10.1187 67.1374 10.646ZM70.6723 15.133C70.2943 15.119 69.9256 15.049 69.5663 14.923C69.2116 14.7923 68.8989 14.6173 68.6283 14.398C68.3623 14.174 68.1686 13.9173 68.0473 13.628L69.0553 13.194C69.1253 13.3527 69.2513 13.502 69.4333 13.642C69.6153 13.782 69.8253 13.894 70.0633 13.978C70.3013 14.062 70.5416 14.104 70.7843 14.104C71.0409 14.104 71.2813 14.0643 71.5053 13.985C71.7293 13.9057 71.9113 13.789 72.0513 13.635C72.1959 13.4763 72.2683 13.2873 72.2683 13.068C72.2683 12.8347 72.1889 12.6527 72.0303 12.522C71.8763 12.3867 71.6803 12.2817 71.4423 12.207C71.2089 12.1277 70.9709 12.053 70.7283 11.983C70.2476 11.8617 69.8183 11.717 69.4403 11.549C69.0623 11.3763 68.7636 11.1593 68.5443 10.898C68.3296 10.632 68.2223 10.2937 68.2223 9.883C68.2223 9.449 68.3413 9.07333 68.5793 8.756C68.8219 8.43867 69.1393 8.19367 69.5313 8.021C69.9233 7.84833 70.3433 7.762 70.7913 7.762C71.3559 7.762 71.8716 7.88333 72.3383 8.126C72.8049 8.36867 73.1526 8.69767 73.3813 9.113L72.4363 9.666C72.3569 9.498 72.2356 9.351 72.0723 9.225C71.9089 9.09433 71.7223 8.99167 71.5123 8.917C71.3023 8.84233 71.0876 8.80267 70.8683 8.798C70.5976 8.78867 70.3433 8.82367 70.1053 8.903C69.8719 8.98233 69.6829 9.10367 69.5383 9.267C69.3983 9.42567 69.3283 9.624 69.3283 9.862C69.3283 10.0953 69.4029 10.2727 69.5523 10.394C69.7063 10.5153 69.9046 10.6133 70.1473 10.688C70.3946 10.758 70.6629 10.8397 70.9523 10.933C71.3769 11.0683 71.7736 11.2247 72.1423 11.402C72.5109 11.5793 72.8073 11.801 73.0313 12.067C73.2599 12.333 73.3719 12.662 73.3673 13.054C73.3673 13.4833 73.2389 13.859 72.9823 14.181C72.7256 14.4983 72.3919 14.741 71.9813 14.909C71.5753 15.077 71.1389 15.1517 70.6723 15.133ZM74.2866 12.34V8H75.4626V12.081C75.4626 12.4357 75.5489 12.7577 75.7216 13.047C75.8942 13.3363 76.1252 13.5673 76.4146 13.74C76.7086 13.908 77.0306 13.992 77.3806 13.992C77.7352 13.992 78.0549 13.908 78.3396 13.74C78.6289 13.5673 78.8599 13.3363 79.0326 13.047C79.2052 12.7577 79.2916 12.4357 79.2916 12.081V8H80.4676L80.4746 15H79.2986L79.2916 14.111C79.0442 14.4377 78.7316 14.699 78.3536 14.895C77.9756 15.0863 77.5672 15.182 77.1286 15.182C76.6059 15.182 76.1276 15.056 75.6936 14.804C75.2642 14.5473 74.9212 14.2043 74.6646 13.775C74.4126 13.3457 74.2866 12.8673 74.2866 12.34ZM81.881 15V8H83.057V8.875C83.3043 8.54833 83.617 8.28933 83.995 8.098C84.373 7.902 84.7837 7.804 85.227 7.804C85.4977 7.804 85.759 7.839 86.011 7.909L85.535 9.085C85.3437 9.02433 85.157 8.994 84.975 8.994C84.625 8.994 84.303 9.08033 84.009 9.253C83.7197 9.421 83.4887 9.64967 83.316 9.939C83.1433 10.2283 83.057 10.5503 83.057 10.905V15H81.881ZM92.1438 8H93.3198V15H92.1438L92.0948 13.817C91.8754 14.223 91.5721 14.552 91.1848 14.804C90.8021 15.056 90.3448 15.182 89.8128 15.182C89.2994 15.182 88.8188 15.0863 88.3708 14.895C87.9228 14.699 87.5261 14.4307 87.1808 14.09C86.8401 13.7447 86.5741 13.348 86.3828 12.9C86.1914 12.452 86.0958 11.969 86.0958 11.451C86.0958 10.9517 86.1891 10.4803 86.3758 10.037C86.5624 9.59367 86.8214 9.20633 87.1528 8.875C87.4888 8.539 87.8761 8.27767 88.3148 8.091C88.7534 7.89967 89.2248 7.804 89.7288 7.804C90.2794 7.804 90.7624 7.93467 91.1778 8.196C91.5931 8.45267 91.9291 8.78633 92.1858 9.197L92.1438 8ZM89.7918 14.041C90.2538 14.041 90.6528 13.929 90.9888 13.705C91.3294 13.4763 91.5908 13.1683 91.7728 12.781C91.9594 12.3937 92.0528 11.9667 92.0528 11.5C92.0528 11.024 91.9594 10.5947 91.7728 10.212C91.5861 9.82467 91.3224 9.519 90.9818 9.295C90.6458 9.06633 90.2491 8.952 89.7918 8.952C89.3298 8.952 88.9098 9.06633 88.5318 9.295C88.1538 9.52367 87.8528 9.83167 87.6288 10.219C87.4094 10.6017 87.2998 11.0287 87.2998 11.5C87.2998 11.9713 87.4141 12.4007 87.6428 12.788C87.8714 13.1707 88.1748 13.4763 88.5528 13.705C88.9308 13.929 89.3438 14.041 89.7918 14.041ZM100.907 10.646V15H99.7309V10.905C99.7309 10.5503 99.6446 10.2283 99.4719 9.939C99.2992 9.64967 99.0682 9.421 98.7789 9.253C98.4896 9.08033 98.1676 8.994 97.8129 8.994C97.4629 8.994 97.1409 9.08033 96.8469 9.253C96.5576 9.421 96.3266 9.64967 96.1539 9.939C95.9812 10.2283 95.8949 10.5503 95.8949 10.905V15H94.7189V8H95.8949V8.875C96.1422 8.54833 96.4549 8.28933 96.8329 8.098C97.2109 7.902 97.6216 7.804 98.0649 7.804C98.5876 7.804 99.0636 7.93233 99.4929 8.189C99.9269 8.441 100.27 8.78167 100.522 9.211C100.779 9.64033 100.907 10.1187 100.907 10.646ZM106.993 13.152L108.043 13.719C107.726 14.1623 107.322 14.517 106.832 14.783C106.347 15.049 105.819 15.182 105.25 15.182C104.606 15.182 104.018 15.0163 103.486 14.685C102.959 14.3537 102.536 13.9103 102.219 13.355C101.906 12.795 101.75 12.1767 101.75 11.5C101.75 10.9867 101.841 10.5083 102.023 10.065C102.205 9.617 102.455 9.225 102.772 8.889C103.094 8.54833 103.467 8.28233 103.892 8.091C104.317 7.89967 104.769 7.804 105.25 7.804C105.819 7.804 106.347 7.937 106.832 8.203C107.322 8.469 107.726 8.826 108.043 9.274L106.993 9.841C106.769 9.56567 106.503 9.35333 106.195 9.204C105.887 9.05467 105.572 8.98 105.25 8.98C104.816 8.98 104.422 9.09667 104.067 9.33C103.717 9.55867 103.439 9.86433 103.234 10.247C103.029 10.6297 102.926 11.0473 102.926 11.5C102.926 11.9527 103.029 12.3703 103.234 12.753C103.444 13.131 103.724 13.4343 104.074 13.663C104.429 13.8917 104.821 14.006 105.25 14.006C105.595 14.006 105.92 13.9267 106.223 13.768C106.526 13.6093 106.783 13.404 106.993 13.152ZM112.264 15.182C111.62 15.182 111.032 15.0163 110.5 14.685C109.972 14.3537 109.55 13.9103 109.233 13.355C108.92 12.795 108.764 12.1767 108.764 11.5C108.764 10.9867 108.855 10.5083 109.037 10.065C109.219 9.617 109.468 9.225 109.786 8.889C110.108 8.54833 110.481 8.28233 110.906 8.091C111.33 7.89967 111.783 7.804 112.264 7.804C112.791 7.804 113.274 7.91133 113.713 8.126C114.156 8.336 114.534 8.63 114.847 9.008C115.164 9.386 115.4 9.82467 115.554 10.324C115.712 10.8233 115.771 11.3577 115.729 11.927H110.017C110.073 12.3237 110.203 12.6783 110.409 12.991C110.614 13.299 110.875 13.544 111.193 13.726C111.515 13.908 111.872 14.0013 112.264 14.006C112.684 14.006 113.064 13.8987 113.405 13.684C113.745 13.4647 114.021 13.166 114.231 12.788L115.428 13.068C115.148 13.6887 114.725 14.1973 114.161 14.594C113.596 14.986 112.964 15.182 112.264 15.182ZM109.982 11.003H114.546C114.508 10.611 114.382 10.254 114.168 9.932C113.953 9.60533 113.68 9.344 113.349 9.148C113.017 8.952 112.656 8.854 112.264 8.854C111.872 8.854 111.512 8.94967 111.186 9.141C110.859 9.33233 110.588 9.59133 110.374 9.918C110.164 10.24 110.033 10.6017 109.982 11.003Z" fill="#999999"></path><path d="M6.49 44.36C5.95667 44.3533 5.45667 44.44 4.99 44.62C4.53 44.7933 4.15333 45.0333 3.86 45.34C3.56667 45.6467 3.42 46.0033 3.42 46.41C3.42 46.91 3.55667 47.29 3.83 47.55C4.10333 47.81 4.47 48.0033 4.93 48.13C5.39667 48.25 5.91667 48.36 6.49 48.46C7.41 48.6067 8.26 48.85 9.04 49.19C9.82667 49.53 10.4567 49.9833 10.93 50.55C11.41 51.11 11.65 51.8 11.65 52.62C11.65 53.3733 11.45 54.0433 11.05 54.63C10.65 55.21 10.1133 55.68 9.44 56.04C8.77333 56.3933 8.03667 56.6167 7.23 56.71V58.74H5.76V56.71C5.08667 56.6433 4.44667 56.4833 3.84 56.23C3.24 55.9767 2.71667 55.64 2.27 55.22C1.82333 54.8 1.5 54.3133 1.3 53.76L3.25 53.03C3.36333 53.35 3.58 53.6367 3.9 53.89C4.22667 54.1367 4.61333 54.33 5.06 54.47C5.51333 54.61 5.99 54.68 6.49 54.68C7.02333 54.68 7.52333 54.5933 7.99 54.42C8.46333 54.2467 8.84333 54.0067 9.13 53.7C9.42333 53.3933 9.57 53.0333 9.57 52.62C9.57 52.1933 9.41667 51.8433 9.11 51.57C8.81 51.2967 8.42333 51.08 7.95 50.92C7.48333 50.76 6.99667 50.64 6.49 50.56C5.51 50.4 4.63 50.1667 3.85 49.86C3.07667 49.5533 2.46333 49.1233 2.01 48.57C1.56333 48.0167 1.34 47.2967 1.34 46.41C1.34 45.6567 1.54 44.9867 1.94 44.4C2.34 43.8133 2.87333 43.3433 3.54 42.99C4.21333 42.63 4.95333 42.4067 5.76 42.32V40.26H7.23V42.32C7.88333 42.3867 8.51 42.5467 9.11 42.8C9.71667 43.0533 10.2467 43.39 10.7 43.81C11.1533 44.2233 11.4833 44.7167 11.69 45.29L9.72 46C9.60667 45.6733 9.39 45.39 9.07 45.15C8.75 44.9033 8.36333 44.71 7.91 44.57C7.46333 44.43 6.99 44.36 6.49 44.36ZM14.9622 56.5V44.58H13.2922L13.8622 42.5H17.0422V56.5H14.9622ZM24.6745 56.76C23.8479 56.76 23.1012 56.5733 22.4345 56.2C21.7745 55.82 21.2045 55.2967 20.7245 54.63C20.2445 53.9633 19.8779 53.1933 19.6245 52.32C19.3712 51.44 19.2445 50.5 19.2445 49.5C19.2445 48.5 19.3712 47.56 19.6245 46.68C19.8779 45.8 20.2445 45.03 20.7245 44.37C21.2045 43.7033 21.7745 43.1833 22.4345 42.81C23.1012 42.43 23.8479 42.24 24.6745 42.24C25.4879 42.24 26.2279 42.43 26.8945 42.81C27.5612 43.1833 28.1279 43.7033 28.5945 44.37C29.0679 45.03 29.4312 45.8 29.6845 46.68C29.9379 47.56 30.0645 48.5 30.0645 49.5C30.0645 50.5 29.9379 51.44 29.6845 52.32C29.4312 53.1933 29.0679 53.9633 28.5945 54.63C28.1279 55.2967 27.5612 55.82 26.8945 56.2C26.2279 56.5733 25.4879 56.76 24.6745 56.76ZM24.6745 54.68C25.4412 54.68 26.0779 54.44 26.5845 53.96C27.0979 53.4733 27.4812 52.8367 27.7345 52.05C27.9879 51.2633 28.1145 50.4133 28.1145 49.5C28.1145 48.54 27.9812 47.67 27.7145 46.89C27.4545 46.1033 27.0679 45.48 26.5545 45.02C26.0479 44.5533 25.4212 44.32 24.6745 44.32C24.0812 44.32 23.5645 44.46 23.1245 44.74C22.6912 45.02 22.3312 45.4033 22.0445 45.89C21.7645 46.3767 21.5512 46.93 21.4045 47.55C21.2645 48.17 21.1945 48.82 21.1945 49.5C21.1945 50.4133 21.3245 51.2633 21.5845 52.05C21.8445 52.8367 22.2312 53.4733 22.7445 53.96C23.2645 54.44 23.9079 54.68 24.6745 54.68ZM36.3152 56.76C35.4885 56.76 34.7418 56.5733 34.0752 56.2C33.4152 55.82 32.8452 55.2967 32.3652 54.63C31.8852 53.9633 31.5185 53.1933 31.2652 52.32C31.0118 51.44 30.8852 50.5 30.8852 49.5C30.8852 48.5 31.0118 47.56 31.2652 46.68C31.5185 45.8 31.8852 45.03 32.3652 44.37C32.8452 43.7033 33.4152 43.1833 34.0752 42.81C34.7418 42.43 35.4885 42.24 36.3152 42.24C37.1285 42.24 37.8685 42.43 38.5352 42.81C39.2018 43.1833 39.7685 43.7033 40.2352 44.37C40.7085 45.03 41.0718 45.8 41.3252 46.68C41.5785 47.56 41.7052 48.5 41.7052 49.5C41.7052 50.5 41.5785 51.44 41.3252 52.32C41.0718 53.1933 40.7085 53.9633 40.2352 54.63C39.7685 55.2967 39.2018 55.82 38.5352 56.2C37.8685 56.5733 37.1285 56.76 36.3152 56.76ZM36.3152 54.68C37.0818 54.68 37.7185 54.44 38.2252 53.96C38.7385 53.4733 39.1218 52.8367 39.3752 52.05C39.6285 51.2633 39.7552 50.4133 39.7552 49.5C39.7552 48.54 39.6218 47.67 39.3552 46.89C39.0952 46.1033 38.7085 45.48 38.1952 45.02C37.6885 44.5533 37.0618 44.32 36.3152 44.32C35.7218 44.32 35.2052 44.46 34.7652 44.74C34.3318 45.02 33.9718 45.4033 33.6852 45.89C33.4052 46.3767 33.1918 46.93 33.0452 47.55C32.9052 48.17 32.8352 48.82 32.8352 49.5C32.8352 50.4133 32.9652 51.2633 33.2252 52.05C33.4852 52.8367 33.8718 53.4733 34.3852 53.96C34.9052 54.44 35.5485 54.68 36.3152 54.68Z" fill="white"></path><rect x="55" y="33.5" width="188" height="32" rx="16" fill="#1A1A1A"></rect><rect x="55" y="33.5" width="188" height="32" rx="16" stroke="#262626"></rect><path d="M70.623 44.2H72.044L75.607 54H74.361L73.633 51.998H69.034L68.313 54H67.06L70.623 44.2ZM69.468 50.822H73.199L71.33 45.705L69.468 50.822ZM77.9086 57.5H76.7326V47H77.9086V48.197C78.1466 47.7863 78.4639 47.455 78.8606 47.203C79.2572 46.9463 79.7286 46.818 80.2746 46.818C80.7832 46.818 81.2592 46.9137 81.7026 47.105C82.1506 47.2963 82.5426 47.5623 82.8786 47.903C83.2146 48.239 83.4782 48.6287 83.6696 49.072C83.8609 49.5153 83.9566 49.9913 83.9566 50.5C83.9566 51.0087 83.8609 51.487 83.6696 51.935C83.4782 52.383 83.2146 52.7773 82.8786 53.118C82.5426 53.454 82.1506 53.7177 81.7026 53.909C81.2592 54.1003 80.7832 54.196 80.2746 54.196C79.7286 54.196 79.2572 54.07 78.8606 53.818C78.4639 53.5613 78.1466 53.2277 77.9086 52.817V57.5ZM80.2606 47.959C79.8079 47.959 79.4112 48.0733 79.0706 48.302C78.7299 48.5307 78.4662 48.8363 78.2796 49.219C78.0976 49.6017 78.0066 50.0287 78.0066 50.5C78.0066 50.9667 78.0976 51.3937 78.2796 51.781C78.4662 52.1683 78.7276 52.4763 79.0636 52.705C79.4042 52.9337 79.8032 53.048 80.2606 53.048C80.7132 53.048 81.1286 52.936 81.5066 52.712C81.8846 52.4833 82.1879 52.1777 82.4166 51.795C82.6452 51.4077 82.7596 50.976 82.7596 50.5C82.7596 50.0333 82.6476 49.6087 82.4236 49.226C82.1996 48.8387 81.8986 48.5307 81.5206 48.302C81.1426 48.0733 80.7226 47.959 80.2606 47.959ZM86.3031 57.5H85.1271V47H86.3031V48.197C86.5411 47.7863 86.8584 47.455 87.2551 47.203C87.6518 46.9463 88.1231 46.818 88.6691 46.818C89.1778 46.818 89.6538 46.9137 90.0971 47.105C90.5451 47.2963 90.9371 47.5623 91.2731 47.903C91.6091 48.239 91.8728 48.6287 92.0641 49.072C92.2554 49.5153 92.3511 49.9913 92.3511 50.5C92.3511 51.0087 92.2554 51.487 92.0641 51.935C91.8728 52.383 91.6091 52.7773 91.2731 53.118C90.9371 53.454 90.5451 53.7177 90.0971 53.909C89.6538 54.1003 89.1778 54.196 88.6691 54.196C88.1231 54.196 87.6518 54.07 87.2551 53.818C86.8584 53.5613 86.5411 53.2277 86.3031 52.817V57.5ZM88.6551 47.959C88.2024 47.959 87.8058 48.0733 87.4651 48.302C87.1244 48.5307 86.8608 48.8363 86.6741 49.219C86.4921 49.6017 86.4011 50.0287 86.4011 50.5C86.4011 50.9667 86.4921 51.3937 86.6741 51.781C86.8608 52.1683 87.1221 52.4763 87.4581 52.705C87.7988 52.9337 88.1978 53.048 88.6551 53.048C89.1078 53.048 89.5231 52.936 89.9011 52.712C90.2791 52.4833 90.5824 52.1777 90.8111 51.795C91.0398 51.4077 91.1541 50.976 91.1541 50.5C91.1541 50.0333 91.0421 49.6087 90.8181 49.226C90.5941 48.8387 90.2931 48.5307 89.9151 48.302C89.5371 48.0733 89.1171 47.959 88.6551 47.959ZM93.5216 54V47H94.6976V47.875C94.945 47.5483 95.2576 47.2893 95.6356 47.098C96.0136 46.902 96.4243 46.804 96.8676 46.804C97.1383 46.804 97.3996 46.839 97.6516 46.909L97.1756 48.085C96.9843 48.0243 96.7976 47.994 96.6156 47.994C96.2656 47.994 95.9436 48.0803 95.6496 48.253C95.3603 48.421 95.1293 48.6497 94.9566 48.939C94.784 49.2283 94.6976 49.5503 94.6976 49.905V54H93.5216ZM101.236 54.182C100.592 54.182 100.004 54.0163 99.4724 53.685C98.9451 53.3537 98.5227 52.9103 98.2054 52.355C97.8927 51.795 97.7364 51.1767 97.7364 50.5C97.7364 49.9867 97.8274 49.5083 98.0094 49.065C98.1914 48.617 98.4411 48.225 98.7584 47.889C99.0804 47.5483 99.4537 47.2823 99.8784 47.091C100.303 46.8997 100.756 46.804 101.236 46.804C101.88 46.804 102.466 46.9697 102.993 47.301C103.525 47.6323 103.948 48.078 104.26 48.638C104.578 49.198 104.736 49.8187 104.736 50.5C104.736 51.0087 104.645 51.4847 104.463 51.928C104.281 52.3713 104.029 52.7633 103.707 53.104C103.39 53.44 103.019 53.7037 102.594 53.895C102.174 54.0863 101.722 54.182 101.236 54.182ZM101.236 53.006C101.675 53.006 102.069 52.8917 102.419 52.663C102.774 52.4297 103.052 52.124 103.252 51.746C103.458 51.3633 103.56 50.948 103.56 50.5C103.56 50.0427 103.455 49.6227 103.245 49.24C103.04 48.8573 102.762 48.5517 102.412 48.323C102.062 48.0943 101.67 47.98 101.236 47.98C100.798 47.98 100.403 48.0967 100.053 48.33C99.7034 48.5587 99.4257 48.8643 99.2204 49.247C99.0151 49.6297 98.9124 50.0473 98.9124 50.5C98.9124 50.9667 99.0174 51.3913 99.2274 51.774C99.4374 52.152 99.7197 52.453 100.074 52.677C100.429 52.8963 100.816 53.006 101.236 53.006ZM105.095 54L107.657 50.486L105.109 46.986H106.558L108.385 49.478L110.205 46.986H111.654L109.106 50.486L111.668 54H110.219L108.385 51.48L106.544 54H105.095ZM112.881 47H114.057V54H112.881V47ZM113.483 45.859C113.296 45.859 113.14 45.7983 113.014 45.677C112.888 45.5557 112.825 45.404 112.825 45.222C112.825 45.04 112.888 44.8883 113.014 44.767C113.14 44.6457 113.294 44.585 113.476 44.585C113.658 44.585 113.812 44.6457 113.938 44.767C114.064 44.8883 114.127 45.04 114.127 45.222C114.127 45.404 114.064 45.5557 113.938 45.677C113.817 45.7983 113.665 45.859 113.483 45.859ZM115.711 54V47H116.887V47.875C117.134 47.5483 117.445 47.2893 117.818 47.098C118.196 46.902 118.607 46.804 119.05 46.804C119.568 46.804 120.042 46.93 120.471 47.182C120.9 47.434 121.239 47.7677 121.486 48.183C121.733 47.7677 122.069 47.434 122.494 47.182C122.923 46.93 123.395 46.804 123.908 46.804C124.435 46.804 124.914 46.9323 125.343 47.189C125.772 47.441 126.113 47.7817 126.365 48.211C126.622 48.6403 126.75 49.1187 126.75 49.646V54H125.574V49.926C125.574 49.5807 125.49 49.261 125.322 48.967C125.154 48.673 124.928 48.4373 124.643 48.26C124.358 48.0827 124.043 47.994 123.698 47.994C123.353 47.994 123.038 48.078 122.753 48.246C122.468 48.4093 122.242 48.638 122.074 48.932C121.906 49.2213 121.822 49.5527 121.822 49.926V54H120.646V49.926C120.646 49.5527 120.562 49.2213 120.394 48.932C120.226 48.638 119.997 48.4093 119.708 48.246C119.423 48.078 119.108 47.994 118.763 47.994C118.422 47.994 118.107 48.0827 117.818 48.26C117.533 48.4373 117.307 48.673 117.139 48.967C116.971 49.261 116.887 49.5807 116.887 49.926V54H115.711ZM133.644 47H134.82V54H133.644L133.595 52.817C133.375 53.223 133.072 53.552 132.685 53.804C132.302 54.056 131.845 54.182 131.313 54.182C130.799 54.182 130.319 54.0863 129.871 53.895C129.423 53.699 129.026 53.4307 128.681 53.09C128.34 52.7447 128.074 52.348 127.883 51.9C127.691 51.452 127.596 50.969 127.596 50.451C127.596 49.9517 127.689 49.4803 127.876 49.037C128.062 48.5937 128.321 48.2063 128.653 47.875C128.989 47.539 129.376 47.2777 129.815 47.091C130.253 46.8997 130.725 46.804 131.229 46.804C131.779 46.804 132.262 46.9347 132.678 47.196C133.093 47.4527 133.429 47.7863 133.686 48.197L133.644 47ZM131.292 53.041C131.754 53.041 132.153 52.929 132.489 52.705C132.829 52.4763 133.091 52.1683 133.273 51.781C133.459 51.3937 133.553 50.9667 133.553 50.5C133.553 50.024 133.459 49.5947 133.273 49.212C133.086 48.8247 132.822 48.519 132.482 48.295C132.146 48.0663 131.749 47.952 131.292 47.952C130.83 47.952 130.41 48.0663 130.032 48.295C129.654 48.5237 129.353 48.8317 129.129 49.219C128.909 49.6017 128.8 50.0287 128.8 50.5C128.8 50.9713 128.914 51.4007 129.143 51.788C129.371 52.1707 129.675 52.4763 130.053 52.705C130.431 52.929 130.844 53.041 131.292 53.041ZM139.845 48.176H138.256L138.249 54H137.073L137.08 48.176H135.876V47H137.08L137.073 44.802H138.249L138.256 47H139.845V48.176ZM144.002 54.182C143.358 54.182 142.77 54.0163 142.238 53.685C141.711 53.3537 141.288 52.9103 140.971 52.355C140.658 51.795 140.502 51.1767 140.502 50.5C140.502 49.9867 140.593 49.5083 140.775 49.065C140.957 48.617 141.207 48.225 141.524 47.889C141.846 47.5483 142.219 47.2823 142.644 47.091C143.069 46.8997 143.521 46.804 144.002 46.804C144.529 46.804 145.012 46.9113 145.451 47.126C145.894 47.336 146.272 47.63 146.585 48.008C146.902 48.386 147.138 48.8247 147.292 49.324C147.451 49.8233 147.509 50.3577 147.467 50.927H141.755C141.811 51.3237 141.942 51.6783 142.147 51.991C142.352 52.299 142.614 52.544 142.931 52.726C143.253 52.908 143.61 53.0013 144.002 53.006C144.422 53.006 144.802 52.8987 145.143 52.684C145.484 52.4647 145.759 52.166 145.969 51.788L147.166 52.068C146.886 52.6887 146.464 53.1973 145.899 53.594C145.334 53.986 144.702 54.182 144.002 54.182ZM141.72 50.003H146.284C146.247 49.611 146.121 49.254 145.906 48.932C145.691 48.6053 145.418 48.344 145.087 48.148C144.756 47.952 144.394 47.854 144.002 47.854C143.61 47.854 143.251 47.9497 142.924 48.141C142.597 48.3323 142.327 48.5913 142.112 48.918C141.902 49.24 141.771 49.6017 141.72 50.003ZM152.106 54V47H153.282V47.875C153.529 47.5483 153.839 47.2893 154.213 47.098C154.591 46.902 155.001 46.804 155.445 46.804C155.963 46.804 156.436 46.93 156.866 47.182C157.295 47.434 157.633 47.7677 157.881 48.183C158.128 47.7677 158.464 47.434 158.889 47.182C159.318 46.93 159.789 46.804 160.303 46.804C160.83 46.804 161.308 46.9323 161.738 47.189C162.167 47.441 162.508 47.7817 162.76 48.211C163.016 48.6403 163.145 49.1187 163.145 49.646V54H161.969V49.926C161.969 49.5807 161.885 49.261 161.717 48.967C161.549 48.673 161.322 48.4373 161.038 48.26C160.753 48.0827 160.438 47.994 160.093 47.994C159.747 47.994 159.432 48.078 159.148 48.246C158.863 48.4093 158.637 48.638 158.469 48.932C158.301 49.2213 158.217 49.5527 158.217 49.926V54H157.041V49.926C157.041 49.5527 156.957 49.2213 156.789 48.932C156.621 48.638 156.392 48.4093 156.103 48.246C155.818 48.078 155.503 47.994 155.158 47.994C154.817 47.994 154.502 48.0827 154.213 48.26C153.928 48.4373 153.702 48.673 153.534 48.967C153.366 49.261 153.282 49.5807 153.282 49.926V54H152.106ZM167.49 54.182C166.846 54.182 166.258 54.0163 165.726 53.685C165.199 53.3537 164.777 52.9103 164.459 52.355C164.147 51.795 163.99 51.1767 163.99 50.5C163.99 49.9867 164.081 49.5083 164.263 49.065C164.445 48.617 164.695 48.225 165.012 47.889C165.334 47.5483 165.708 47.2823 166.132 47.091C166.557 46.8997 167.01 46.804 167.49 46.804C168.134 46.804 168.72 46.9697 169.247 47.301C169.779 47.6323 170.202 48.078 170.514 48.638C170.832 49.198 170.99 49.8187 170.99 50.5C170.99 51.0087 170.899 51.4847 170.717 51.928C170.535 52.3713 170.283 52.7633 169.961 53.104C169.644 53.44 169.273 53.7037 168.848 53.895C168.428 54.0863 167.976 54.182 167.49 54.182ZM167.49 53.006C167.929 53.006 168.323 52.8917 168.673 52.663C169.028 52.4297 169.306 52.124 169.506 51.746C169.712 51.3633 169.814 50.948 169.814 50.5C169.814 50.0427 169.709 49.6227 169.499 49.24C169.294 48.8573 169.016 48.5517 168.666 48.323C168.316 48.0943 167.924 47.98 167.49 47.98C167.052 47.98 166.657 48.0967 166.307 48.33C165.957 48.5587 165.68 48.8643 165.474 49.247C165.269 49.6297 165.166 50.0473 165.166 50.5C165.166 50.9667 165.271 51.3913 165.481 51.774C165.691 52.152 165.974 52.453 166.328 52.677C166.683 52.8963 167.07 53.006 167.49 53.006ZM178.337 49.646V54H177.161V49.905C177.161 49.5503 177.074 49.2283 176.902 48.939C176.729 48.6497 176.498 48.421 176.209 48.253C175.919 48.0803 175.597 47.994 175.243 47.994C174.893 47.994 174.571 48.0803 174.277 48.253C173.987 48.421 173.756 48.6497 173.584 48.939C173.411 49.2283 173.325 49.5503 173.325 49.905V54H172.149V47H173.325V47.875C173.572 47.5483 173.885 47.2893 174.263 47.098C174.641 46.902 175.051 46.804 175.495 46.804C176.017 46.804 176.493 46.9323 176.923 47.189C177.357 47.441 177.7 47.7817 177.952 48.211C178.208 48.6403 178.337 49.1187 178.337 49.646ZM183.362 48.176H181.773L181.766 54H180.59L180.597 48.176H179.393V47H180.597L180.59 44.802H181.766L181.773 47H183.362V48.176ZM190.805 49.646V54H189.629V49.905C189.629 49.5503 189.543 49.2283 189.37 48.939C189.198 48.6497 188.967 48.421 188.677 48.253C188.388 48.0803 188.066 47.994 187.711 47.994C187.361 47.994 187.039 48.0803 186.745 48.253C186.456 48.421 186.225 48.6497 186.052 48.939C185.88 49.2283 185.793 49.5503 185.793 49.905V54H184.617V43.5H185.793V47.875C186.041 47.5483 186.353 47.2893 186.731 47.098C187.109 46.902 187.52 46.804 187.963 46.804C188.486 46.804 188.962 46.9323 189.391 47.189C189.825 47.441 190.168 47.7817 190.42 48.211C190.677 48.6403 190.805 49.1187 190.805 49.646ZM192.287 54V43.5H193.463V54H192.287ZM199.666 47H200.912L197.083 57.5H195.837L197.104 54L194.591 47H195.879L197.692 52.383L199.666 47ZM210.495 52.152L211.545 52.719C211.228 53.1623 210.824 53.517 210.334 53.783C209.849 54.049 209.321 54.182 208.752 54.182C208.108 54.182 207.52 54.0163 206.988 53.685C206.461 53.3537 206.038 52.9103 205.721 52.355C205.408 51.795 205.252 51.1767 205.252 50.5C205.252 49.9867 205.343 49.5083 205.525 49.065C205.707 48.617 205.957 48.225 206.274 47.889C206.596 47.5483 206.969 47.2823 207.394 47.091C207.819 46.8997 208.271 46.804 208.752 46.804C209.321 46.804 209.849 46.937 210.334 47.203C210.824 47.469 211.228 47.826 211.545 48.274L210.495 48.841C210.271 48.5657 210.005 48.3533 209.697 48.204C209.389 48.0547 209.074 47.98 208.752 47.98C208.318 47.98 207.924 48.0967 207.569 48.33C207.219 48.5587 206.941 48.8643 206.736 49.247C206.531 49.6297 206.428 50.0473 206.428 50.5C206.428 50.9527 206.531 51.3703 206.736 51.753C206.946 52.131 207.226 52.4343 207.576 52.663C207.931 52.8917 208.323 53.006 208.752 53.006C209.097 53.006 209.422 52.9267 209.725 52.768C210.028 52.6093 210.285 52.404 210.495 52.152ZM215.766 54.182C215.122 54.182 214.534 54.0163 214.002 53.685C213.474 53.3537 213.052 52.9103 212.735 52.355C212.422 51.795 212.266 51.1767 212.266 50.5C212.266 49.9867 212.357 49.5083 212.539 49.065C212.721 48.617 212.97 48.225 213.288 47.889C213.61 47.5483 213.983 47.2823 214.408 47.091C214.832 46.8997 215.285 46.804 215.766 46.804C216.41 46.804 216.995 46.9697 217.523 47.301C218.055 47.6323 218.477 48.078 218.79 48.638C219.107 49.198 219.266 49.8187 219.266 50.5C219.266 51.0087 219.175 51.4847 218.993 51.928C218.811 52.3713 218.559 52.7633 218.237 53.104C217.919 53.44 217.548 53.7037 217.124 53.895C216.704 54.0863 216.251 54.182 215.766 54.182ZM215.766 53.006C216.204 53.006 216.599 52.8917 216.949 52.663C217.303 52.4297 217.581 52.124 217.782 51.746C217.987 51.3633 218.09 50.948 218.09 50.5C218.09 50.0427 217.985 49.6227 217.775 49.24C217.569 48.8573 217.292 48.5517 216.942 48.323C216.592 48.0943 216.2 47.98 215.766 47.98C215.327 47.98 214.933 48.0967 214.583 48.33C214.233 48.5587 213.955 48.8643 213.75 49.247C213.544 49.6297 213.442 50.0473 213.442 50.5C213.442 50.9667 213.547 51.3913 213.757 51.774C213.967 52.152 214.249 52.453 214.604 52.677C214.958 52.8963 215.346 53.006 215.766 53.006ZM222.586 54.133C222.208 54.119 221.84 54.049 221.48 53.923C221.126 53.7923 220.813 53.6173 220.542 53.398C220.276 53.174 220.083 52.9173 219.961 52.628L220.969 52.194C221.039 52.3527 221.165 52.502 221.347 52.642C221.529 52.782 221.739 52.894 221.977 52.978C222.215 53.062 222.456 53.104 222.698 53.104C222.955 53.104 223.195 53.0643 223.419 52.985C223.643 52.9057 223.825 52.789 223.965 52.635C224.11 52.4763 224.182 52.2873 224.182 52.068C224.182 51.8347 224.103 51.6527 223.944 51.522C223.79 51.3867 223.594 51.2817 223.356 51.207C223.123 51.1277 222.885 51.053 222.642 50.983C222.162 50.8617 221.732 50.717 221.354 50.549C220.976 50.3763 220.678 50.1593 220.458 49.898C220.244 49.632 220.136 49.2937 220.136 48.883C220.136 48.449 220.255 48.0733 220.493 47.756C220.736 47.4387 221.053 47.1937 221.445 47.021C221.837 46.8483 222.257 46.762 222.705 46.762C223.27 46.762 223.786 46.8833 224.252 47.126C224.719 47.3687 225.067 47.6977 225.295 48.113L224.35 48.666C224.271 48.498 224.15 48.351 223.986 48.225C223.823 48.0943 223.636 47.9917 223.426 47.917C223.216 47.8423 223.002 47.8027 222.782 47.798C222.512 47.7887 222.257 47.8237 222.019 47.903C221.786 47.9823 221.597 48.1037 221.452 48.267C221.312 48.4257 221.242 48.624 221.242 48.862C221.242 49.0953 221.317 49.2727 221.466 49.394C221.62 49.5153 221.819 49.6133 222.061 49.688C222.309 49.758 222.577 49.8397 222.866 49.933C223.291 50.0683 223.688 50.2247 224.056 50.402C224.425 50.5793 224.721 50.801 224.945 51.067C225.174 51.333 225.286 51.662 225.281 52.054C225.281 52.4833 225.153 52.859 224.896 53.181C224.64 53.4983 224.306 53.741 223.895 53.909C223.489 54.077 223.053 54.1517 222.586 54.133ZM230.107 48.176H228.518L228.511 54H227.335L227.342 48.176H226.138V47H227.342L227.335 44.802H228.511L228.518 47H230.107V48.176Z" fill="#999999"></path></g><defs><clipPath id="clip0_166_1144"><rect width="462.5" height="66" fill="white" transform="translate(0.5)"></rect></clipPath></defs></svg>