<svg xmlns="http://www.w3.org/2000/svg" width="313" height="68" viewBox="0 0 313 68" fill="none"><rect x="1" y="0.5" width="310.75" height="67" rx="7.5" fill="#1A1A1A"></rect><rect x="1" y="0.5" width="310.75" height="67" rx="7.5" stroke="#262626"></rect><path d="M26.017 40.234C25.339 40.234 24.685 40.129 24.055 39.919C23.425 39.703 22.873 39.397 22.399 39.001C21.931 38.605 21.598 38.134 21.4 37.588L22.813 37.057C22.933 37.393 23.155 37.687 23.479 37.939C23.809 38.185 24.196 38.377 24.64 38.515C25.084 38.653 25.543 38.722 26.017 38.722C26.557 38.722 27.058 38.635 27.52 38.461C27.988 38.281 28.366 38.032 28.654 37.714C28.942 37.396 29.086 37.024 29.086 36.598C29.086 36.16 28.936 35.803 28.636 35.527C28.336 35.245 27.952 35.023 27.484 34.861C27.016 34.693 26.527 34.564 26.017 34.474C25.147 34.33 24.367 34.126 23.677 33.862C22.993 33.592 22.45 33.217 22.048 32.737C21.652 32.257 21.454 31.624 21.454 30.838C21.454 30.106 21.664 29.467 22.084 28.921C22.51 28.375 23.071 27.952 23.767 27.652C24.463 27.352 25.213 27.202 26.017 27.202C26.683 27.202 27.328 27.307 27.952 27.517C28.582 27.721 29.137 28.021 29.617 28.417C30.097 28.813 30.442 29.296 30.652 29.866L29.221 30.388C29.101 30.046 28.876 29.752 28.546 29.506C28.222 29.254 27.838 29.062 27.394 28.93C26.956 28.792 26.497 28.723 26.017 28.723C25.483 28.717 24.985 28.804 24.523 28.984C24.061 29.164 23.686 29.413 23.398 29.731C23.11 30.049 22.966 30.418 22.966 30.838C22.966 31.342 23.098 31.729 23.362 31.999C23.632 32.263 23.998 32.461 24.46 32.593C24.922 32.725 25.441 32.842 26.017 32.944C26.833 33.082 27.589 33.301 28.285 33.601C28.981 33.895 29.539 34.288 29.959 34.78C30.385 35.272 30.598 35.878 30.598 36.598C30.598 37.33 30.385 37.969 29.959 38.515C29.539 39.061 28.981 39.484 28.285 39.784C27.589 40.084 26.833 40.234 26.017 40.234ZM36.4384 40.234C35.6104 40.234 34.8544 40.021 34.1704 39.595C33.4924 39.169 32.9494 38.599 32.5414 37.885C32.1394 37.165 31.9384 36.37 31.9384 35.5C31.9384 34.84 32.0554 34.225 32.2894 33.655C32.5234 33.079 32.8444 32.575 33.2524 32.143C33.6664 31.705 34.1464 31.363 34.6924 31.117C35.2384 30.871 35.8204 30.748 36.4384 30.748C37.1164 30.748 37.7374 30.886 38.3014 31.162C38.8714 31.432 39.3574 31.81 39.7594 32.296C40.1674 32.782 40.4704 33.346 40.6684 33.988C40.8724 34.63 40.9474 35.317 40.8934 36.049H33.5494C33.6214 36.559 33.7894 37.015 34.0534 37.417C34.3174 37.813 34.6534 38.128 35.0614 38.362C35.4754 38.596 35.9344 38.716 36.4384 38.722C36.9784 38.722 37.4674 38.584 37.9054 38.308C38.3434 38.026 38.6974 37.642 38.9674 37.156L40.5064 37.516C40.1464 38.314 39.6034 38.968 38.8774 39.478C38.1514 39.982 37.3384 40.234 36.4384 40.234ZM33.5044 34.861H39.3724C39.3244 34.357 39.1624 33.898 38.8864 33.484C38.6104 33.064 38.2594 32.728 37.8334 32.476C37.4074 32.224 36.9424 32.098 36.4384 32.098C35.9344 32.098 35.4724 32.221 35.0524 32.467C34.6324 32.713 34.2844 33.046 34.0084 33.466C33.7384 33.88 33.5704 34.345 33.5044 34.861ZM42.3222 40V26.5H43.8342V40H42.3222ZM49.8681 40.234C49.0401 40.234 48.2841 40.021 47.6001 39.595C46.9221 39.169 46.3791 38.599 45.9711 37.885C45.5691 37.165 45.3681 36.37 45.3681 35.5C45.3681 34.84 45.4851 34.225 45.7191 33.655C45.9531 33.079 46.2741 32.575 46.6821 32.143C47.0961 31.705 47.5761 31.363 48.1221 31.117C48.6681 30.871 49.2501 30.748 49.8681 30.748C50.5461 30.748 51.1671 30.886 51.7311 31.162C52.3011 31.432 52.7871 31.81 53.1891 32.296C53.5971 32.782 53.9001 33.346 54.0981 33.988C54.3021 34.63 54.3771 35.317 54.3231 36.049H46.9791C47.0511 36.559 47.2191 37.015 47.4831 37.417C47.7471 37.813 48.0831 38.128 48.4911 38.362C48.9051 38.596 49.3641 38.716 49.8681 38.722C50.4081 38.722 50.8971 38.584 51.3351 38.308C51.7731 38.026 52.1271 37.642 52.3971 37.156L53.9361 37.516C53.5761 38.314 53.0331 38.968 52.3071 39.478C51.5811 39.982 50.7681 40.234 49.8681 40.234ZM46.9341 34.861H52.8021C52.7541 34.357 52.5921 33.898 52.3161 33.484C52.0401 33.064 51.6891 32.728 51.2631 32.476C50.8371 32.224 50.3721 32.098 49.8681 32.098C49.3641 32.098 48.9021 32.221 48.4821 32.467C48.0621 32.713 47.7141 33.046 47.4381 33.466C47.1681 33.88 47.0001 34.345 46.9341 34.861ZM61.988 37.624L63.338 38.353C62.93 38.923 62.411 39.379 61.781 39.721C61.157 40.063 60.479 40.234 59.747 40.234C58.919 40.234 58.163 40.021 57.479 39.595C56.801 39.169 56.258 38.599 55.85 37.885C55.448 37.165 55.247 36.37 55.247 35.5C55.247 34.84 55.364 34.225 55.598 33.655C55.832 33.079 56.153 32.575 56.561 32.143C56.975 31.705 57.455 31.363 58.001 31.117C58.547 30.871 59.129 30.748 59.747 30.748C60.479 30.748 61.157 30.919 61.781 31.261C62.411 31.603 62.93 32.062 63.338 32.638L61.988 33.367C61.7 33.013 61.358 32.74 60.962 32.548C60.566 32.356 60.161 32.26 59.747 32.26C59.189 32.26 58.682 32.41 58.226 32.71C57.776 33.004 57.419 33.397 57.155 33.889C56.891 34.381 56.759 34.918 56.759 35.5C56.759 36.082 56.891 36.619 57.155 37.111C57.425 37.597 57.785 37.987 58.235 38.281C58.691 38.575 59.195 38.722 59.747 38.722C60.191 38.722 60.608 38.62 60.998 38.416C61.388 38.212 61.718 37.948 61.988 37.624ZM69.6248 32.512H67.5818L67.5728 40H66.0608L66.0698 32.512H64.5218V31H66.0698L66.0608 28.174H67.5728L67.5818 31H69.6248V32.512ZM83.5184 34.402V40H82.0064V34.735C82.0064 34.279 81.8954 33.865 81.6734 33.493C81.4514 33.121 81.1544 32.827 80.7824 32.611C80.4104 32.389 79.9964 32.278 79.5404 32.278C79.0904 32.278 78.6764 32.389 78.2984 32.611C77.9264 32.827 77.6294 33.121 77.4074 33.493C77.1854 33.865 77.0744 34.279 77.0744 34.735V40H75.5624V31H77.0744V32.125C77.3924 31.705 77.7944 31.372 78.2804 31.126C78.7664 30.874 79.2944 30.748 79.8644 30.748C80.5364 30.748 81.1484 30.913 81.7004 31.243C82.2584 31.567 82.6994 32.005 83.0234 32.557C83.3534 33.109 83.5184 33.724 83.5184 34.402ZM89.1025 40.234C88.2745 40.234 87.5185 40.021 86.8345 39.595C86.1565 39.169 85.6135 38.599 85.2055 37.885C84.8035 37.165 84.6025 36.37 84.6025 35.5C84.6025 34.84 84.7195 34.225 84.9535 33.655C85.1875 33.079 85.5085 32.575 85.9165 32.143C86.3305 31.705 86.8105 31.363 87.3565 31.117C87.9025 30.871 88.4845 30.748 89.1025 30.748C89.9305 30.748 90.6835 30.961 91.3615 31.387C92.0455 31.813 92.5885 32.386 92.9905 33.106C93.3985 33.826 93.6025 34.624 93.6025 35.5C93.6025 36.154 93.4855 36.766 93.2515 37.336C93.0175 37.906 92.6935 38.41 92.2795 38.848C91.8715 39.28 91.3945 39.619 90.8485 39.865C90.3085 40.111 89.7265 40.234 89.1025 40.234ZM89.1025 38.722C89.6665 38.722 90.1735 38.575 90.6235 38.281C91.0795 37.981 91.4365 37.588 91.6945 37.102C91.9585 36.61 92.0905 36.076 92.0905 35.5C92.0905 34.912 91.9555 34.372 91.6855 33.88C91.4215 33.388 91.0645 32.995 90.6145 32.701C90.1645 32.407 89.6605 32.26 89.1025 32.26C88.5385 32.26 88.0315 32.41 87.5815 32.71C87.1315 33.004 86.7745 33.397 86.5105 33.889C86.2465 34.381 86.1145 34.918 86.1145 35.5C86.1145 36.1 86.2495 36.646 86.5195 37.138C86.7895 37.624 87.1525 38.011 87.6085 38.299C88.0645 38.581 88.5625 38.722 89.1025 38.722ZM95.498 40.234C95.27 40.234 95.075 40.153 94.913 39.991C94.757 39.829 94.679 39.631 94.679 39.397C94.679 39.175 94.757 38.983 94.913 38.821C95.075 38.659 95.27 38.578 95.498 38.578C95.732 38.578 95.93 38.659 96.092 38.821C96.254 38.983 96.335 39.175 96.335 39.397C96.335 39.631 96.254 39.829 96.092 39.991C95.93 40.153 95.732 40.234 95.498 40.234ZM106.786 40.234C105.958 40.234 105.202 40.021 104.518 39.595C103.84 39.169 103.297 38.599 102.889 37.885C102.487 37.165 102.286 36.37 102.286 35.5C102.286 34.84 102.403 34.225 102.637 33.655C102.871 33.079 103.192 32.575 103.6 32.143C104.014 31.705 104.494 31.363 105.04 31.117C105.586 30.871 106.168 30.748 106.786 30.748C107.614 30.748 108.367 30.961 109.045 31.387C109.729 31.813 110.272 32.386 110.674 33.106C111.082 33.826 111.286 34.624 111.286 35.5C111.286 36.154 111.169 36.766 110.935 37.336C110.701 37.906 110.377 38.41 109.963 38.848C109.555 39.28 109.078 39.619 108.532 39.865C107.992 40.111 107.41 40.234 106.786 40.234ZM106.786 38.722C107.35 38.722 107.857 38.575 108.307 38.281C108.763 37.981 109.12 37.588 109.378 37.102C109.642 36.61 109.774 36.076 109.774 35.5C109.774 34.912 109.639 34.372 109.369 33.88C109.105 33.388 108.748 32.995 108.298 32.701C107.848 32.407 107.344 32.26 106.786 32.26C106.222 32.26 105.715 32.41 105.265 32.71C104.815 33.004 104.458 33.397 104.194 33.889C103.93 34.381 103.798 34.918 103.798 35.5C103.798 36.1 103.933 36.646 104.203 37.138C104.473 37.624 104.836 38.011 105.292 38.299C105.748 38.581 106.246 38.722 106.786 38.722ZM114.941 28.777V31H117.578V32.512H114.941V40H113.429V32.512H112.268V31H113.429V28.777C113.429 28.315 113.54 27.898 113.762 27.526C113.99 27.148 114.293 26.848 114.671 26.626C115.055 26.398 115.475 26.284 115.931 26.284C116.267 26.284 116.594 26.353 116.912 26.491C117.23 26.623 117.512 26.821 117.758 27.085L116.678 28.156C116.594 28.042 116.483 27.955 116.345 27.895C116.213 27.829 116.075 27.796 115.931 27.796C115.661 27.796 115.427 27.892 115.229 28.084C115.037 28.276 114.941 28.507 114.941 28.777ZM123.375 40V27.4H127.722C128.346 27.4 128.913 27.529 129.423 27.787C129.939 28.039 130.347 28.408 130.647 28.894C130.947 29.38 131.097 29.962 131.097 30.64C131.097 31.006 131.034 31.36 130.908 31.702C130.788 32.038 130.62 32.329 130.404 32.575C130.194 32.815 129.954 32.977 129.684 33.061C130.062 33.157 130.383 33.328 130.647 33.574C130.911 33.814 131.124 34.096 131.286 34.42C131.454 34.744 131.574 35.083 131.646 35.437C131.718 35.791 131.754 36.133 131.754 36.463C131.754 37.159 131.595 37.774 131.277 38.308C130.965 38.836 130.545 39.25 130.017 39.55C129.489 39.85 128.907 40 128.271 40H123.375ZM124.887 38.668H128.136C128.55 38.668 128.925 38.563 129.261 38.353C129.603 38.137 129.876 37.843 130.08 37.471C130.284 37.099 130.386 36.679 130.386 36.211C130.386 35.797 130.284 35.407 130.08 35.041C129.876 34.669 129.603 34.369 129.261 34.141C128.925 33.913 128.55 33.799 128.136 33.799H124.887V38.668ZM124.887 32.494H127.578C128.13 32.494 128.601 32.332 128.991 32.008C129.387 31.678 129.585 31.219 129.585 30.631C129.585 29.995 129.387 29.521 128.991 29.209C128.601 28.891 128.13 28.732 127.578 28.732H124.887V32.494ZM137.126 40.234C136.298 40.234 135.542 40.021 134.858 39.595C134.18 39.169 133.637 38.599 133.229 37.885C132.827 37.165 132.626 36.37 132.626 35.5C132.626 34.84 132.743 34.225 132.977 33.655C133.211 33.079 133.532 32.575 133.94 32.143C134.354 31.705 134.834 31.363 135.38 31.117C135.926 30.871 136.508 30.748 137.126 30.748C137.804 30.748 138.425 30.886 138.989 31.162C139.559 31.432 140.045 31.81 140.447 32.296C140.855 32.782 141.158 33.346 141.356 33.988C141.56 34.63 141.635 35.317 141.581 36.049H134.237C134.309 36.559 134.477 37.015 134.741 37.417C135.005 37.813 135.341 38.128 135.749 38.362C136.163 38.596 136.622 38.716 137.126 38.722C137.666 38.722 138.155 38.584 138.593 38.308C139.031 38.026 139.385 37.642 139.655 37.156L141.194 37.516C140.834 38.314 140.291 38.968 139.565 39.478C138.839 39.982 138.026 40.234 137.126 40.234ZM134.192 34.861H140.06C140.012 34.357 139.85 33.898 139.574 33.484C139.298 33.064 138.947 32.728 138.521 32.476C138.095 32.224 137.63 32.098 137.126 32.098C136.622 32.098 136.16 32.221 135.74 32.467C135.32 32.713 134.972 33.046 134.696 33.466C134.426 33.88 134.258 34.345 134.192 34.861ZM150.29 26.5H151.802V40H150.29V38.47C149.984 38.998 149.573 39.424 149.057 39.748C148.541 40.072 147.935 40.234 147.239 40.234C146.585 40.234 145.973 40.111 145.403 39.865C144.833 39.619 144.329 39.28 143.891 38.848C143.459 38.41 143.12 37.906 142.874 37.336C142.628 36.766 142.505 36.154 142.505 35.5C142.505 34.846 142.628 34.234 142.874 33.664C143.12 33.088 143.459 32.584 143.891 32.152C144.329 31.714 144.833 31.372 145.403 31.126C145.973 30.88 146.585 30.757 147.239 30.757C147.935 30.757 148.541 30.919 149.057 31.243C149.573 31.567 149.984 31.993 150.29 32.521V26.5ZM147.257 38.767C147.851 38.767 148.364 38.623 148.796 38.335C149.234 38.041 149.57 37.645 149.804 37.147C150.044 36.649 150.164 36.1 150.164 35.5C150.164 34.888 150.044 34.336 149.804 33.844C149.564 33.346 149.225 32.953 148.787 32.665C148.355 32.371 147.845 32.224 147.257 32.224C146.663 32.224 146.123 32.371 145.637 32.665C145.157 32.959 144.773 33.355 144.485 33.853C144.197 34.345 144.053 34.894 144.053 35.5C144.053 36.106 144.2 36.658 144.494 37.156C144.788 37.648 145.178 38.041 145.664 38.335C146.15 38.623 146.681 38.767 147.257 38.767ZM153.961 40V31H155.473V32.125C155.791 31.705 156.193 31.372 156.679 31.126C157.165 30.874 157.693 30.748 158.263 30.748C158.611 30.748 158.947 30.793 159.271 30.883L158.659 32.395C158.413 32.317 158.173 32.278 157.939 32.278C157.489 32.278 157.075 32.389 156.697 32.611C156.325 32.827 156.028 33.121 155.806 33.493C155.584 33.865 155.473 34.279 155.473 34.735V40H153.961ZM163.88 40.234C163.052 40.234 162.296 40.021 161.612 39.595C160.934 39.169 160.391 38.599 159.983 37.885C159.581 37.165 159.38 36.37 159.38 35.5C159.38 34.84 159.497 34.225 159.731 33.655C159.965 33.079 160.286 32.575 160.694 32.143C161.108 31.705 161.588 31.363 162.134 31.117C162.68 30.871 163.262 30.748 163.88 30.748C164.708 30.748 165.461 30.961 166.139 31.387C166.823 31.813 167.366 32.386 167.768 33.106C168.176 33.826 168.38 34.624 168.38 35.5C168.38 36.154 168.263 36.766 168.029 37.336C167.795 37.906 167.471 38.41 167.057 38.848C166.649 39.28 166.172 39.619 165.626 39.865C165.086 40.111 164.504 40.234 163.88 40.234ZM163.88 38.722C164.444 38.722 164.951 38.575 165.401 38.281C165.857 37.981 166.214 37.588 166.472 37.102C166.736 36.61 166.868 36.076 166.868 35.5C166.868 34.912 166.733 34.372 166.463 33.88C166.199 33.388 165.842 32.995 165.392 32.701C164.942 32.407 164.438 32.26 163.88 32.26C163.316 32.26 162.809 32.41 162.359 32.71C161.909 33.004 161.552 33.397 161.288 33.889C161.024 34.381 160.892 34.918 160.892 35.5C160.892 36.1 161.027 36.646 161.297 37.138C161.567 37.624 161.93 38.011 162.386 38.299C162.842 38.581 163.34 38.722 163.88 38.722ZM173.776 40.234C172.948 40.234 172.192 40.021 171.508 39.595C170.83 39.169 170.287 38.599 169.879 37.885C169.477 37.165 169.276 36.37 169.276 35.5C169.276 34.84 169.393 34.225 169.627 33.655C169.861 33.079 170.182 32.575 170.59 32.143C171.004 31.705 171.484 31.363 172.03 31.117C172.576 30.871 173.158 30.748 173.776 30.748C174.604 30.748 175.357 30.961 176.035 31.387C176.719 31.813 177.262 32.386 177.664 33.106C178.072 33.826 178.276 34.624 178.276 35.5C178.276 36.154 178.159 36.766 177.925 37.336C177.691 37.906 177.367 38.41 176.953 38.848C176.545 39.28 176.068 39.619 175.522 39.865C174.982 40.111 174.4 40.234 173.776 40.234ZM173.776 38.722C174.34 38.722 174.847 38.575 175.297 38.281C175.753 37.981 176.11 37.588 176.368 37.102C176.632 36.61 176.764 36.076 176.764 35.5C176.764 34.912 176.629 34.372 176.359 33.88C176.095 33.388 175.738 32.995 175.288 32.701C174.838 32.407 174.334 32.26 173.776 32.26C173.212 32.26 172.705 32.41 172.255 32.71C171.805 33.004 171.448 33.397 171.184 33.889C170.92 34.381 170.788 34.918 170.788 35.5C170.788 36.1 170.923 36.646 171.193 37.138C171.463 37.624 171.826 38.011 172.282 38.299C172.738 38.581 173.236 38.722 173.776 38.722ZM179.766 40V31H181.278V32.125C181.596 31.705 181.995 31.372 182.475 31.126C182.961 30.874 183.489 30.748 184.059 30.748C184.725 30.748 185.334 30.91 185.886 31.234C186.438 31.558 186.873 31.987 187.191 32.521C187.509 31.987 187.941 31.558 188.487 31.234C189.039 30.91 189.645 30.748 190.305 30.748C190.983 30.748 191.598 30.913 192.15 31.243C192.702 31.567 193.14 32.005 193.464 32.557C193.794 33.109 193.959 33.724 193.959 34.402V40H192.447V34.762C192.447 34.318 192.339 33.907 192.123 33.529C191.907 33.151 191.616 32.848 191.25 32.62C190.884 32.392 190.479 32.278 190.035 32.278C189.591 32.278 189.186 32.386 188.82 32.602C188.454 32.812 188.163 33.106 187.947 33.484C187.731 33.856 187.623 34.282 187.623 34.762V40H186.111V34.762C186.111 34.282 186.003 33.856 185.787 33.484C185.571 33.106 185.277 32.812 184.905 32.602C184.539 32.386 184.134 32.278 183.69 32.278C183.252 32.278 182.847 32.392 182.475 32.62C182.109 32.848 181.818 33.151 181.602 33.529C181.386 33.907 181.278 34.318 181.278 34.762V40H179.766ZM198.507 40.171C198.021 40.153 197.547 40.063 197.085 39.901C196.629 39.733 196.227 39.508 195.879 39.226C195.537 38.938 195.288 38.608 195.132 38.236L196.428 37.678C196.518 37.882 196.68 38.074 196.914 38.254C197.148 38.434 197.418 38.578 197.724 38.686C198.03 38.794 198.339 38.848 198.651 38.848C198.981 38.848 199.29 38.797 199.578 38.695C199.866 38.593 200.1 38.443 200.28 38.245C200.466 38.041 200.559 37.798 200.559 37.516C200.559 37.216 200.457 36.982 200.253 36.814C200.055 36.64 199.803 36.505 199.497 36.409C199.197 36.307 198.891 36.211 198.579 36.121C197.961 35.965 197.409 35.779 196.923 35.563C196.437 35.341 196.053 35.062 195.771 34.726C195.495 34.384 195.357 33.949 195.357 33.421C195.357 32.863 195.51 32.38 195.816 31.972C196.128 31.564 196.536 31.249 197.04 31.027C197.544 30.805 198.084 30.694 198.66 30.694C199.386 30.694 200.049 30.85 200.649 31.162C201.249 31.474 201.696 31.897 201.99 32.431L200.775 33.142C200.673 32.926 200.517 32.737 200.307 32.575C200.097 32.407 199.857 32.275 199.587 32.179C199.317 32.083 199.041 32.032 198.759 32.026C198.411 32.014 198.084 32.059 197.778 32.161C197.478 32.263 197.235 32.419 197.049 32.629C196.869 32.833 196.779 33.088 196.779 33.394C196.779 33.694 196.875 33.922 197.067 34.078C197.265 34.234 197.52 34.36 197.832 34.456C198.15 34.546 198.495 34.651 198.867 34.771C199.413 34.945 199.923 35.146 200.397 35.374C200.871 35.602 201.252 35.887 201.54 36.229C201.834 36.571 201.978 36.994 201.972 37.498C201.972 38.05 201.807 38.533 201.477 38.947C201.147 39.355 200.718 39.667 200.19 39.883C199.668 40.099 199.107 40.195 198.507 40.171Z" fill="#666666"></path><path d="M287.75 30.25L280.25 37.75L272.75 30.25" stroke="white" stroke-width="1.5" stroke-linecap="round" stroke-linejoin="round"></path></svg>