<svg xmlns="http://www.w3.org/2000/svg" width="312" height="68" viewBox="0 0 312 68" fill="none"><rect x="0.5" y="0.5" width="310.75" height="67" rx="7.5" fill="#1A1A1A"></rect><rect x="0.5" y="0.5" width="310.75" height="67" rx="7.5" stroke="#262626"></rect><path d="M25.517 40.234C24.839 40.234 24.185 40.129 23.555 39.919C22.925 39.703 22.373 39.397 21.899 39.001C21.431 38.605 21.098 38.134 20.9 37.588L22.313 37.057C22.433 37.393 22.655 37.687 22.979 37.939C23.309 38.185 23.696 38.377 24.14 38.515C24.584 38.653 25.043 38.722 25.517 38.722C26.057 38.722 26.558 38.635 27.02 38.461C27.488 38.281 27.866 38.032 28.154 37.714C28.442 37.396 28.586 37.024 28.586 36.598C28.586 36.16 28.436 35.803 28.136 35.527C27.836 35.245 27.452 35.023 26.984 34.861C26.516 34.693 26.027 34.564 25.517 34.474C24.647 34.33 23.867 34.126 23.177 33.862C22.493 33.592 21.95 33.217 21.548 32.737C21.152 32.257 20.954 31.624 20.954 30.838C20.954 30.106 21.164 29.467 21.584 28.921C22.01 28.375 22.571 27.952 23.267 27.652C23.963 27.352 24.713 27.202 25.517 27.202C26.183 27.202 26.828 27.307 27.452 27.517C28.082 27.721 28.637 28.021 29.117 28.417C29.597 28.813 29.942 29.296 30.152 29.866L28.721 30.388C28.601 30.046 28.376 29.752 28.046 29.506C27.722 29.254 27.338 29.062 26.894 28.93C26.456 28.792 25.997 28.723 25.517 28.723C24.983 28.717 24.485 28.804 24.023 28.984C23.561 29.164 23.186 29.413 22.898 29.731C22.61 30.049 22.466 30.418 22.466 30.838C22.466 31.342 22.598 31.729 22.862 31.999C23.132 32.263 23.498 32.461 23.96 32.593C24.422 32.725 24.941 32.842 25.517 32.944C26.333 33.082 27.089 33.301 27.785 33.601C28.481 33.895 29.039 34.288 29.459 34.78C29.885 35.272 30.098 35.878 30.098 36.598C30.098 37.33 29.885 37.969 29.459 38.515C29.039 39.061 28.481 39.484 27.785 39.784C27.089 40.084 26.333 40.234 25.517 40.234ZM35.9384 40.234C35.1104 40.234 34.3544 40.021 33.6704 39.595C32.9924 39.169 32.4494 38.599 32.0414 37.885C31.6394 37.165 31.4384 36.37 31.4384 35.5C31.4384 34.84 31.5554 34.225 31.7894 33.655C32.0234 33.079 32.3444 32.575 32.7524 32.143C33.1664 31.705 33.6464 31.363 34.1924 31.117C34.7384 30.871 35.3204 30.748 35.9384 30.748C36.6164 30.748 37.2374 30.886 37.8014 31.162C38.3714 31.432 38.8574 31.81 39.2594 32.296C39.6674 32.782 39.9704 33.346 40.1684 33.988C40.3724 34.63 40.4474 35.317 40.3934 36.049H33.0494C33.1214 36.559 33.2894 37.015 33.5534 37.417C33.8174 37.813 34.1534 38.128 34.5614 38.362C34.9754 38.596 35.4344 38.716 35.9384 38.722C36.4784 38.722 36.9674 38.584 37.4054 38.308C37.8434 38.026 38.1974 37.642 38.4674 37.156L40.0064 37.516C39.6464 38.314 39.1034 38.968 38.3774 39.478C37.6514 39.982 36.8384 40.234 35.9384 40.234ZM33.0044 34.861H38.8724C38.8244 34.357 38.6624 33.898 38.3864 33.484C38.1104 33.064 37.7594 32.728 37.3334 32.476C36.9074 32.224 36.4424 32.098 35.9384 32.098C35.4344 32.098 34.9724 32.221 34.5524 32.467C34.1324 32.713 33.7844 33.046 33.5084 33.466C33.2384 33.88 33.0704 34.345 33.0044 34.861ZM41.8222 40V26.5H43.3342V40H41.8222ZM49.3681 40.234C48.5401 40.234 47.7841 40.021 47.1001 39.595C46.4221 39.169 45.8791 38.599 45.4711 37.885C45.0691 37.165 44.8681 36.37 44.8681 35.5C44.8681 34.84 44.9851 34.225 45.2191 33.655C45.4531 33.079 45.7741 32.575 46.1821 32.143C46.5961 31.705 47.0761 31.363 47.6221 31.117C48.1681 30.871 48.7501 30.748 49.3681 30.748C50.0461 30.748 50.6671 30.886 51.2311 31.162C51.8011 31.432 52.2871 31.81 52.6891 32.296C53.0971 32.782 53.4001 33.346 53.5981 33.988C53.8021 34.63 53.8771 35.317 53.8231 36.049H46.4791C46.5511 36.559 46.7191 37.015 46.9831 37.417C47.2471 37.813 47.5831 38.128 47.9911 38.362C48.4051 38.596 48.8641 38.716 49.3681 38.722C49.9081 38.722 50.3971 38.584 50.8351 38.308C51.2731 38.026 51.6271 37.642 51.8971 37.156L53.4361 37.516C53.0761 38.314 52.5331 38.968 51.8071 39.478C51.0811 39.982 50.2681 40.234 49.3681 40.234ZM46.4341 34.861H52.3021C52.2541 34.357 52.0921 33.898 51.8161 33.484C51.5401 33.064 51.1891 32.728 50.7631 32.476C50.3371 32.224 49.8721 32.098 49.3681 32.098C48.8641 32.098 48.4021 32.221 47.9821 32.467C47.5621 32.713 47.2141 33.046 46.9381 33.466C46.6681 33.88 46.5001 34.345 46.4341 34.861ZM61.488 37.624L62.838 38.353C62.43 38.923 61.911 39.379 61.281 39.721C60.657 40.063 59.979 40.234 59.247 40.234C58.419 40.234 57.663 40.021 56.979 39.595C56.301 39.169 55.758 38.599 55.35 37.885C54.948 37.165 54.747 36.37 54.747 35.5C54.747 34.84 54.864 34.225 55.098 33.655C55.332 33.079 55.653 32.575 56.061 32.143C56.475 31.705 56.955 31.363 57.501 31.117C58.047 30.871 58.629 30.748 59.247 30.748C59.979 30.748 60.657 30.919 61.281 31.261C61.911 31.603 62.43 32.062 62.838 32.638L61.488 33.367C61.2 33.013 60.858 32.74 60.462 32.548C60.066 32.356 59.661 32.26 59.247 32.26C58.689 32.26 58.182 32.41 57.726 32.71C57.276 33.004 56.919 33.397 56.655 33.889C56.391 34.381 56.259 34.918 56.259 35.5C56.259 36.082 56.391 36.619 56.655 37.111C56.925 37.597 57.285 37.987 57.735 38.281C58.191 38.575 58.695 38.722 59.247 38.722C59.691 38.722 60.108 38.62 60.498 38.416C60.888 38.212 61.218 37.948 61.488 37.624ZM69.1248 32.512H67.0818L67.0728 40H65.5608L65.5698 32.512H64.0218V31H65.5698L65.5608 28.174H67.0728L67.0818 31H69.1248V32.512ZM75.0624 40V27.4H76.5744V38.488H82.2174V40H75.0624ZM87.2841 40.234C86.4561 40.234 85.7001 40.021 85.0161 39.595C84.3381 39.169 83.7951 38.599 83.3871 37.885C82.9851 37.165 82.7841 36.37 82.7841 35.5C82.7841 34.84 82.9011 34.225 83.1351 33.655C83.3691 33.079 83.6901 32.575 84.0981 32.143C84.5121 31.705 84.9921 31.363 85.5381 31.117C86.0841 30.871 86.6661 30.748 87.2841 30.748C88.1121 30.748 88.8651 30.961 89.5431 31.387C90.2271 31.813 90.7701 32.386 91.1721 33.106C91.5801 33.826 91.7841 34.624 91.7841 35.5C91.7841 36.154 91.6671 36.766 91.4331 37.336C91.1991 37.906 90.8751 38.41 90.4611 38.848C90.0531 39.28 89.5761 39.619 89.0301 39.865C88.4901 40.111 87.9081 40.234 87.2841 40.234ZM87.2841 38.722C87.8481 38.722 88.3551 38.575 88.8051 38.281C89.2611 37.981 89.6181 37.588 89.8761 37.102C90.1401 36.61 90.2721 36.076 90.2721 35.5C90.2721 34.912 90.1371 34.372 89.8671 33.88C89.6031 33.388 89.2461 32.995 88.7961 32.701C88.3461 32.407 87.8421 32.26 87.2841 32.26C86.7201 32.26 86.2131 32.41 85.7631 32.71C85.3131 33.004 84.9561 33.397 84.6921 33.889C84.4281 34.381 84.2961 34.918 84.2961 35.5C84.2961 36.1 84.4311 36.646 84.7011 37.138C84.9711 37.624 85.3341 38.011 85.7901 38.299C86.2461 38.581 86.7441 38.722 87.2841 38.722ZM99.4216 37.624L100.772 38.353C100.364 38.923 99.8446 39.379 99.2146 39.721C98.5906 40.063 97.9126 40.234 97.1806 40.234C96.3526 40.234 95.5966 40.021 94.9126 39.595C94.2346 39.169 93.6916 38.599 93.2836 37.885C92.8816 37.165 92.6806 36.37 92.6806 35.5C92.6806 34.84 92.7976 34.225 93.0316 33.655C93.2656 33.079 93.5866 32.575 93.9946 32.143C94.4086 31.705 94.8886 31.363 95.4346 31.117C95.9806 30.871 96.5626 30.748 97.1806 30.748C97.9126 30.748 98.5906 30.919 99.2146 31.261C99.8446 31.603 100.364 32.062 100.772 32.638L99.4216 33.367C99.1336 33.013 98.7916 32.74 98.3956 32.548C97.9996 32.356 97.5946 32.26 97.1806 32.26C96.6226 32.26 96.1156 32.41 95.6596 32.71C95.2096 33.004 94.8526 33.397 94.5886 33.889C94.3246 34.381 94.1926 34.918 94.1926 35.5C94.1926 36.082 94.3246 36.619 94.5886 37.111C94.8586 37.597 95.2186 37.987 95.6686 38.281C96.1246 38.575 96.6286 38.722 97.1806 38.722C97.6246 38.722 98.0416 38.62 98.4316 38.416C98.8216 38.212 99.1516 37.948 99.4216 37.624ZM109.474 31H110.986V40H109.474L109.411 38.479C109.129 39.001 108.739 39.424 108.241 39.748C107.749 40.072 107.161 40.234 106.477 40.234C105.817 40.234 105.199 40.111 104.623 39.865C104.047 39.613 103.537 39.268 103.093 38.83C102.655 38.386 102.313 37.876 102.067 37.3C101.821 36.724 101.698 36.103 101.698 35.437C101.698 34.795 101.818 34.189 102.058 33.619C102.298 33.049 102.631 32.551 103.057 32.125C103.489 31.693 103.987 31.357 104.551 31.117C105.115 30.871 105.721 30.748 106.369 30.748C107.077 30.748 107.698 30.916 108.232 31.252C108.766 31.582 109.198 32.011 109.528 32.539L109.474 31ZM106.45 38.767C107.044 38.767 107.557 38.623 107.989 38.335C108.427 38.041 108.763 37.645 108.997 37.147C109.237 36.649 109.357 36.1 109.357 35.5C109.357 34.888 109.237 34.336 108.997 33.844C108.757 33.346 108.418 32.953 107.98 32.665C107.548 32.371 107.038 32.224 106.45 32.224C105.856 32.224 105.316 32.371 104.83 32.665C104.344 32.959 103.957 33.355 103.669 33.853C103.387 34.345 103.246 34.894 103.246 35.5C103.246 36.106 103.393 36.658 103.687 37.156C103.981 37.648 104.371 38.041 104.857 38.335C105.343 38.623 105.874 38.767 106.45 38.767ZM117.447 32.512H115.404L115.395 40H113.883L113.892 32.512H112.344V31H113.892L113.883 28.174H115.395L115.404 31H117.447V32.512ZM118.973 31H120.485V40H118.973V31ZM119.747 29.533C119.507 29.533 119.306 29.455 119.144 29.299C118.982 29.143 118.901 28.948 118.901 28.714C118.901 28.48 118.982 28.285 119.144 28.129C119.306 27.973 119.504 27.895 119.738 27.895C119.972 27.895 120.17 27.973 120.332 28.129C120.494 28.285 120.575 28.48 120.575 28.714C120.575 28.948 120.494 29.143 120.332 29.299C120.176 29.455 119.981 29.533 119.747 29.533ZM126.483 40.234C125.655 40.234 124.899 40.021 124.215 39.595C123.537 39.169 122.994 38.599 122.586 37.885C122.184 37.165 121.983 36.37 121.983 35.5C121.983 34.84 122.1 34.225 122.334 33.655C122.568 33.079 122.889 32.575 123.297 32.143C123.711 31.705 124.191 31.363 124.737 31.117C125.283 30.871 125.865 30.748 126.483 30.748C127.311 30.748 128.064 30.961 128.742 31.387C129.426 31.813 129.969 32.386 130.371 33.106C130.779 33.826 130.983 34.624 130.983 35.5C130.983 36.154 130.866 36.766 130.632 37.336C130.398 37.906 130.074 38.41 129.66 38.848C129.252 39.28 128.775 39.619 128.229 39.865C127.689 40.111 127.107 40.234 126.483 40.234ZM126.483 38.722C127.047 38.722 127.554 38.575 128.004 38.281C128.46 37.981 128.817 37.588 129.075 37.102C129.339 36.61 129.471 36.076 129.471 35.5C129.471 34.912 129.336 34.372 129.066 33.88C128.802 33.388 128.445 32.995 127.995 32.701C127.545 32.407 127.041 32.26 126.483 32.26C125.919 32.26 125.412 32.41 124.962 32.71C124.512 33.004 124.155 33.397 123.891 33.889C123.627 34.381 123.495 34.918 123.495 35.5C123.495 36.1 123.63 36.646 123.9 37.138C124.17 37.624 124.533 38.011 124.989 38.299C125.445 38.581 125.943 38.722 126.483 38.722ZM140.429 34.402V40H138.917V34.735C138.917 34.279 138.806 33.865 138.584 33.493C138.362 33.121 138.065 32.827 137.693 32.611C137.321 32.389 136.907 32.278 136.451 32.278C136.001 32.278 135.587 32.389 135.209 32.611C134.837 32.827 134.54 33.121 134.318 33.493C134.096 33.865 133.985 34.279 133.985 34.735V40H132.473V31H133.985V32.125C134.303 31.705 134.705 31.372 135.191 31.126C135.677 30.874 136.205 30.748 136.775 30.748C137.447 30.748 138.059 30.913 138.611 31.243C139.169 31.567 139.61 32.005 139.934 32.557C140.264 33.109 140.429 33.724 140.429 34.402Z" fill="#666666"></path><path d="M287.25 30.25L279.75 37.75L272.25 30.25" stroke="white" stroke-width="1.5" stroke-linecap="round" stroke-linejoin="round"></path></svg>