<svg xmlns="http://www.w3.org/2000/svg" width="312" height="68" viewBox="0 0 312 68" fill="none"><rect x="0.75" y="0.5" width="310.75" height="67" rx="7.5" fill="#1A1A1A"></rect><rect x="0.75" y="0.5" width="310.75" height="67" rx="7.5" stroke="#262626"></rect><path d="M25.767 40.234C25.089 40.234 24.435 40.129 23.805 39.919C23.175 39.703 22.623 39.397 22.149 39.001C21.681 38.605 21.348 38.134 21.15 37.588L22.563 37.057C22.683 37.393 22.905 37.687 23.229 37.939C23.559 38.185 23.946 38.377 24.39 38.515C24.834 38.653 25.293 38.722 25.767 38.722C26.307 38.722 26.808 38.635 27.27 38.461C27.738 38.281 28.116 38.032 28.404 37.714C28.692 37.396 28.836 37.024 28.836 36.598C28.836 36.16 28.686 35.803 28.386 35.527C28.086 35.245 27.702 35.023 27.234 34.861C26.766 34.693 26.277 34.564 25.767 34.474C24.897 34.33 24.117 34.126 23.427 33.862C22.743 33.592 22.2 33.217 21.798 32.737C21.402 32.257 21.204 31.624 21.204 30.838C21.204 30.106 21.414 29.467 21.834 28.921C22.26 28.375 22.821 27.952 23.517 27.652C24.213 27.352 24.963 27.202 25.767 27.202C26.433 27.202 27.078 27.307 27.702 27.517C28.332 27.721 28.887 28.021 29.367 28.417C29.847 28.813 30.192 29.296 30.402 29.866L28.971 30.388C28.851 30.046 28.626 29.752 28.296 29.506C27.972 29.254 27.588 29.062 27.144 28.93C26.706 28.792 26.247 28.723 25.767 28.723C25.233 28.717 24.735 28.804 24.273 28.984C23.811 29.164 23.436 29.413 23.148 29.731C22.86 30.049 22.716 30.418 22.716 30.838C22.716 31.342 22.848 31.729 23.112 31.999C23.382 32.263 23.748 32.461 24.21 32.593C24.672 32.725 25.191 32.842 25.767 32.944C26.583 33.082 27.339 33.301 28.035 33.601C28.731 33.895 29.289 34.288 29.709 34.78C30.135 35.272 30.348 35.878 30.348 36.598C30.348 37.33 30.135 37.969 29.709 38.515C29.289 39.061 28.731 39.484 28.035 39.784C27.339 40.084 26.583 40.234 25.767 40.234ZM36.1884 40.234C35.3604 40.234 34.6044 40.021 33.9204 39.595C33.2424 39.169 32.6994 38.599 32.2914 37.885C31.8894 37.165 31.6884 36.37 31.6884 35.5C31.6884 34.84 31.8054 34.225 32.0394 33.655C32.2734 33.079 32.5944 32.575 33.0024 32.143C33.4164 31.705 33.8964 31.363 34.4424 31.117C34.9884 30.871 35.5704 30.748 36.1884 30.748C36.8664 30.748 37.4874 30.886 38.0514 31.162C38.6214 31.432 39.1074 31.81 39.5094 32.296C39.9174 32.782 40.2204 33.346 40.4184 33.988C40.6224 34.63 40.6974 35.317 40.6434 36.049H33.2994C33.3714 36.559 33.5394 37.015 33.8034 37.417C34.0674 37.813 34.4034 38.128 34.8114 38.362C35.2254 38.596 35.6844 38.716 36.1884 38.722C36.7284 38.722 37.2174 38.584 37.6554 38.308C38.0934 38.026 38.4474 37.642 38.7174 37.156L40.2564 37.516C39.8964 38.314 39.3534 38.968 38.6274 39.478C37.9014 39.982 37.0884 40.234 36.1884 40.234ZM33.2544 34.861H39.1224C39.0744 34.357 38.9124 33.898 38.6364 33.484C38.3604 33.064 38.0094 32.728 37.5834 32.476C37.1574 32.224 36.6924 32.098 36.1884 32.098C35.6844 32.098 35.2224 32.221 34.8024 32.467C34.3824 32.713 34.0344 33.046 33.7584 33.466C33.4884 33.88 33.3204 34.345 33.2544 34.861ZM42.0722 40V26.5H43.5842V40H42.0722ZM49.6181 40.234C48.7901 40.234 48.0341 40.021 47.3501 39.595C46.6721 39.169 46.1291 38.599 45.7211 37.885C45.3191 37.165 45.1181 36.37 45.1181 35.5C45.1181 34.84 45.2351 34.225 45.4691 33.655C45.7031 33.079 46.0241 32.575 46.4321 32.143C46.8461 31.705 47.3261 31.363 47.8721 31.117C48.4181 30.871 49.0001 30.748 49.6181 30.748C50.2961 30.748 50.9171 30.886 51.4811 31.162C52.0511 31.432 52.5371 31.81 52.9391 32.296C53.3471 32.782 53.6501 33.346 53.8481 33.988C54.0521 34.63 54.1271 35.317 54.0731 36.049H46.7291C46.8011 36.559 46.9691 37.015 47.2331 37.417C47.4971 37.813 47.8331 38.128 48.2411 38.362C48.6551 38.596 49.1141 38.716 49.6181 38.722C50.1581 38.722 50.6471 38.584 51.0851 38.308C51.5231 38.026 51.8771 37.642 52.1471 37.156L53.6861 37.516C53.3261 38.314 52.7831 38.968 52.0571 39.478C51.3311 39.982 50.5181 40.234 49.6181 40.234ZM46.6841 34.861H52.5521C52.5041 34.357 52.3421 33.898 52.0661 33.484C51.7901 33.064 51.4391 32.728 51.0131 32.476C50.5871 32.224 50.1221 32.098 49.6181 32.098C49.1141 32.098 48.6521 32.221 48.2321 32.467C47.8121 32.713 47.4641 33.046 47.1881 33.466C46.9181 33.88 46.7501 34.345 46.6841 34.861ZM61.738 37.624L63.088 38.353C62.68 38.923 62.161 39.379 61.531 39.721C60.907 40.063 60.229 40.234 59.497 40.234C58.669 40.234 57.913 40.021 57.229 39.595C56.551 39.169 56.008 38.599 55.6 37.885C55.198 37.165 54.997 36.37 54.997 35.5C54.997 34.84 55.114 34.225 55.348 33.655C55.582 33.079 55.903 32.575 56.311 32.143C56.725 31.705 57.205 31.363 57.751 31.117C58.297 30.871 58.879 30.748 59.497 30.748C60.229 30.748 60.907 30.919 61.531 31.261C62.161 31.603 62.68 32.062 63.088 32.638L61.738 33.367C61.45 33.013 61.108 32.74 60.712 32.548C60.316 32.356 59.911 32.26 59.497 32.26C58.939 32.26 58.432 32.41 57.976 32.71C57.526 33.004 57.169 33.397 56.905 33.889C56.641 34.381 56.509 34.918 56.509 35.5C56.509 36.082 56.641 36.619 56.905 37.111C57.175 37.597 57.535 37.987 57.985 38.281C58.441 38.575 58.945 38.722 59.497 38.722C59.941 38.722 60.358 38.62 60.748 38.416C61.138 38.212 61.468 37.948 61.738 37.624ZM69.3748 32.512H67.3318L67.3228 40H65.8108L65.8198 32.512H64.2718V31H65.8198L65.8108 28.174H67.3228L67.3318 31H69.3748V32.512ZM83.2684 34.402V40H81.7564V34.735C81.7564 34.279 81.6454 33.865 81.4234 33.493C81.2014 33.121 80.9044 32.827 80.5324 32.611C80.1604 32.389 79.7464 32.278 79.2904 32.278C78.8404 32.278 78.4264 32.389 78.0484 32.611C77.6764 32.827 77.3794 33.121 77.1574 33.493C76.9354 33.865 76.8244 34.279 76.8244 34.735V40H75.3124V31H76.8244V32.125C77.1424 31.705 77.5444 31.372 78.0304 31.126C78.5164 30.874 79.0444 30.748 79.6144 30.748C80.2864 30.748 80.8984 30.913 81.4504 31.243C82.0084 31.567 82.4494 32.005 82.7734 32.557C83.1034 33.109 83.2684 33.724 83.2684 34.402ZM88.8525 40.234C88.0245 40.234 87.2685 40.021 86.5845 39.595C85.9065 39.169 85.3635 38.599 84.9555 37.885C84.5535 37.165 84.3525 36.37 84.3525 35.5C84.3525 34.84 84.4695 34.225 84.7035 33.655C84.9375 33.079 85.2585 32.575 85.6665 32.143C86.0805 31.705 86.5605 31.363 87.1065 31.117C87.6525 30.871 88.2345 30.748 88.8525 30.748C89.6805 30.748 90.4335 30.961 91.1115 31.387C91.7955 31.813 92.3385 32.386 92.7405 33.106C93.1485 33.826 93.3525 34.624 93.3525 35.5C93.3525 36.154 93.2355 36.766 93.0015 37.336C92.7675 37.906 92.4435 38.41 92.0295 38.848C91.6215 39.28 91.1445 39.619 90.5985 39.865C90.0585 40.111 89.4765 40.234 88.8525 40.234ZM88.8525 38.722C89.4165 38.722 89.9235 38.575 90.3735 38.281C90.8295 37.981 91.1865 37.588 91.4445 37.102C91.7085 36.61 91.8405 36.076 91.8405 35.5C91.8405 34.912 91.7055 34.372 91.4355 33.88C91.1715 33.388 90.8145 32.995 90.3645 32.701C89.9145 32.407 89.4105 32.26 88.8525 32.26C88.2885 32.26 87.7815 32.41 87.3315 32.71C86.8815 33.004 86.5245 33.397 86.2605 33.889C85.9965 34.381 85.8645 34.918 85.8645 35.5C85.8645 36.1 85.9995 36.646 86.2695 37.138C86.5395 37.624 86.9025 38.011 87.3585 38.299C87.8145 38.581 88.3125 38.722 88.8525 38.722ZM95.248 40.234C95.02 40.234 94.825 40.153 94.663 39.991C94.507 39.829 94.429 39.631 94.429 39.397C94.429 39.175 94.507 38.983 94.663 38.821C94.825 38.659 95.02 38.578 95.248 38.578C95.482 38.578 95.68 38.659 95.842 38.821C96.004 38.983 96.085 39.175 96.085 39.397C96.085 39.631 96.004 39.829 95.842 39.991C95.68 40.153 95.482 40.234 95.248 40.234ZM106.536 40.234C105.708 40.234 104.952 40.021 104.268 39.595C103.59 39.169 103.047 38.599 102.639 37.885C102.237 37.165 102.036 36.37 102.036 35.5C102.036 34.84 102.153 34.225 102.387 33.655C102.621 33.079 102.942 32.575 103.35 32.143C103.764 31.705 104.244 31.363 104.79 31.117C105.336 30.871 105.918 30.748 106.536 30.748C107.364 30.748 108.117 30.961 108.795 31.387C109.479 31.813 110.022 32.386 110.424 33.106C110.832 33.826 111.036 34.624 111.036 35.5C111.036 36.154 110.919 36.766 110.685 37.336C110.451 37.906 110.127 38.41 109.713 38.848C109.305 39.28 108.828 39.619 108.282 39.865C107.742 40.111 107.16 40.234 106.536 40.234ZM106.536 38.722C107.1 38.722 107.607 38.575 108.057 38.281C108.513 37.981 108.87 37.588 109.128 37.102C109.392 36.61 109.524 36.076 109.524 35.5C109.524 34.912 109.389 34.372 109.119 33.88C108.855 33.388 108.498 32.995 108.048 32.701C107.598 32.407 107.094 32.26 106.536 32.26C105.972 32.26 105.465 32.41 105.015 32.71C104.565 33.004 104.208 33.397 103.944 33.889C103.68 34.381 103.548 34.918 103.548 35.5C103.548 36.1 103.683 36.646 103.953 37.138C104.223 37.624 104.586 38.011 105.042 38.299C105.498 38.581 105.996 38.722 106.536 38.722ZM114.691 28.777V31H117.328V32.512H114.691V40H113.179V32.512H112.018V31H113.179V28.777C113.179 28.315 113.29 27.898 113.512 27.526C113.74 27.148 114.043 26.848 114.421 26.626C114.805 26.398 115.225 26.284 115.681 26.284C116.017 26.284 116.344 26.353 116.662 26.491C116.98 26.623 117.262 26.821 117.508 27.085L116.428 28.156C116.344 28.042 116.233 27.955 116.095 27.895C115.963 27.829 115.825 27.796 115.681 27.796C115.411 27.796 115.177 27.892 114.979 28.084C114.787 28.276 114.691 28.507 114.691 28.777ZM123.125 40V27.4H127.472C128.096 27.4 128.663 27.529 129.173 27.787C129.689 28.039 130.097 28.408 130.397 28.894C130.697 29.38 130.847 29.962 130.847 30.64C130.847 31.006 130.784 31.36 130.658 31.702C130.538 32.038 130.37 32.329 130.154 32.575C129.944 32.815 129.704 32.977 129.434 33.061C129.812 33.157 130.133 33.328 130.397 33.574C130.661 33.814 130.874 34.096 131.036 34.42C131.204 34.744 131.324 35.083 131.396 35.437C131.468 35.791 131.504 36.133 131.504 36.463C131.504 37.159 131.345 37.774 131.027 38.308C130.715 38.836 130.295 39.25 129.767 39.55C129.239 39.85 128.657 40 128.021 40H123.125ZM124.637 38.668H127.886C128.3 38.668 128.675 38.563 129.011 38.353C129.353 38.137 129.626 37.843 129.83 37.471C130.034 37.099 130.136 36.679 130.136 36.211C130.136 35.797 130.034 35.407 129.83 35.041C129.626 34.669 129.353 34.369 129.011 34.141C128.675 33.913 128.3 33.799 127.886 33.799H124.637V38.668ZM124.637 32.494H127.328C127.88 32.494 128.351 32.332 128.741 32.008C129.137 31.678 129.335 31.219 129.335 30.631C129.335 29.995 129.137 29.521 128.741 29.209C128.351 28.891 127.88 28.732 127.328 28.732H124.637V32.494ZM136.876 40.234C136.048 40.234 135.292 40.021 134.608 39.595C133.93 39.169 133.387 38.599 132.979 37.885C132.577 37.165 132.376 36.37 132.376 35.5C132.376 34.84 132.493 34.225 132.727 33.655C132.961 33.079 133.282 32.575 133.69 32.143C134.104 31.705 134.584 31.363 135.13 31.117C135.676 30.871 136.258 30.748 136.876 30.748C137.554 30.748 138.175 30.886 138.739 31.162C139.309 31.432 139.795 31.81 140.197 32.296C140.605 32.782 140.908 33.346 141.106 33.988C141.31 34.63 141.385 35.317 141.331 36.049H133.987C134.059 36.559 134.227 37.015 134.491 37.417C134.755 37.813 135.091 38.128 135.499 38.362C135.913 38.596 136.372 38.716 136.876 38.722C137.416 38.722 137.905 38.584 138.343 38.308C138.781 38.026 139.135 37.642 139.405 37.156L140.944 37.516C140.584 38.314 140.041 38.968 139.315 39.478C138.589 39.982 137.776 40.234 136.876 40.234ZM133.942 34.861H139.81C139.762 34.357 139.6 33.898 139.324 33.484C139.048 33.064 138.697 32.728 138.271 32.476C137.845 32.224 137.38 32.098 136.876 32.098C136.372 32.098 135.91 32.221 135.49 32.467C135.07 32.713 134.722 33.046 134.446 33.466C134.176 33.88 134.008 34.345 133.942 34.861ZM150.04 26.5H151.552V40H150.04V38.47C149.734 38.998 149.323 39.424 148.807 39.748C148.291 40.072 147.685 40.234 146.989 40.234C146.335 40.234 145.723 40.111 145.153 39.865C144.583 39.619 144.079 39.28 143.641 38.848C143.209 38.41 142.87 37.906 142.624 37.336C142.378 36.766 142.255 36.154 142.255 35.5C142.255 34.846 142.378 34.234 142.624 33.664C142.87 33.088 143.209 32.584 143.641 32.152C144.079 31.714 144.583 31.372 145.153 31.126C145.723 30.88 146.335 30.757 146.989 30.757C147.685 30.757 148.291 30.919 148.807 31.243C149.323 31.567 149.734 31.993 150.04 32.521V26.5ZM147.007 38.767C147.601 38.767 148.114 38.623 148.546 38.335C148.984 38.041 149.32 37.645 149.554 37.147C149.794 36.649 149.914 36.1 149.914 35.5C149.914 34.888 149.794 34.336 149.554 33.844C149.314 33.346 148.975 32.953 148.537 32.665C148.105 32.371 147.595 32.224 147.007 32.224C146.413 32.224 145.873 32.371 145.387 32.665C144.907 32.959 144.523 33.355 144.235 33.853C143.947 34.345 143.803 34.894 143.803 35.5C143.803 36.106 143.95 36.658 144.244 37.156C144.538 37.648 144.928 38.041 145.414 38.335C145.9 38.623 146.431 38.767 147.007 38.767ZM153.711 40V31H155.223V32.125C155.541 31.705 155.943 31.372 156.429 31.126C156.915 30.874 157.443 30.748 158.013 30.748C158.361 30.748 158.697 30.793 159.021 30.883L158.409 32.395C158.163 32.317 157.923 32.278 157.689 32.278C157.239 32.278 156.825 32.389 156.447 32.611C156.075 32.827 155.778 33.121 155.556 33.493C155.334 33.865 155.223 34.279 155.223 34.735V40H153.711ZM163.63 40.234C162.802 40.234 162.046 40.021 161.362 39.595C160.684 39.169 160.141 38.599 159.733 37.885C159.331 37.165 159.13 36.37 159.13 35.5C159.13 34.84 159.247 34.225 159.481 33.655C159.715 33.079 160.036 32.575 160.444 32.143C160.858 31.705 161.338 31.363 161.884 31.117C162.43 30.871 163.012 30.748 163.63 30.748C164.458 30.748 165.211 30.961 165.889 31.387C166.573 31.813 167.116 32.386 167.518 33.106C167.926 33.826 168.13 34.624 168.13 35.5C168.13 36.154 168.013 36.766 167.779 37.336C167.545 37.906 167.221 38.41 166.807 38.848C166.399 39.28 165.922 39.619 165.376 39.865C164.836 40.111 164.254 40.234 163.63 40.234ZM163.63 38.722C164.194 38.722 164.701 38.575 165.151 38.281C165.607 37.981 165.964 37.588 166.222 37.102C166.486 36.61 166.618 36.076 166.618 35.5C166.618 34.912 166.483 34.372 166.213 33.88C165.949 33.388 165.592 32.995 165.142 32.701C164.692 32.407 164.188 32.26 163.63 32.26C163.066 32.26 162.559 32.41 162.109 32.71C161.659 33.004 161.302 33.397 161.038 33.889C160.774 34.381 160.642 34.918 160.642 35.5C160.642 36.1 160.777 36.646 161.047 37.138C161.317 37.624 161.68 38.011 162.136 38.299C162.592 38.581 163.09 38.722 163.63 38.722ZM173.526 40.234C172.698 40.234 171.942 40.021 171.258 39.595C170.58 39.169 170.037 38.599 169.629 37.885C169.227 37.165 169.026 36.37 169.026 35.5C169.026 34.84 169.143 34.225 169.377 33.655C169.611 33.079 169.932 32.575 170.34 32.143C170.754 31.705 171.234 31.363 171.78 31.117C172.326 30.871 172.908 30.748 173.526 30.748C174.354 30.748 175.107 30.961 175.785 31.387C176.469 31.813 177.012 32.386 177.414 33.106C177.822 33.826 178.026 34.624 178.026 35.5C178.026 36.154 177.909 36.766 177.675 37.336C177.441 37.906 177.117 38.41 176.703 38.848C176.295 39.28 175.818 39.619 175.272 39.865C174.732 40.111 174.15 40.234 173.526 40.234ZM173.526 38.722C174.09 38.722 174.597 38.575 175.047 38.281C175.503 37.981 175.86 37.588 176.118 37.102C176.382 36.61 176.514 36.076 176.514 35.5C176.514 34.912 176.379 34.372 176.109 33.88C175.845 33.388 175.488 32.995 175.038 32.701C174.588 32.407 174.084 32.26 173.526 32.26C172.962 32.26 172.455 32.41 172.005 32.71C171.555 33.004 171.198 33.397 170.934 33.889C170.67 34.381 170.538 34.918 170.538 35.5C170.538 36.1 170.673 36.646 170.943 37.138C171.213 37.624 171.576 38.011 172.032 38.299C172.488 38.581 172.986 38.722 173.526 38.722ZM179.516 40V31H181.028V32.125C181.346 31.705 181.745 31.372 182.225 31.126C182.711 30.874 183.239 30.748 183.809 30.748C184.475 30.748 185.084 30.91 185.636 31.234C186.188 31.558 186.623 31.987 186.941 32.521C187.259 31.987 187.691 31.558 188.237 31.234C188.789 30.91 189.395 30.748 190.055 30.748C190.733 30.748 191.348 30.913 191.9 31.243C192.452 31.567 192.89 32.005 193.214 32.557C193.544 33.109 193.709 33.724 193.709 34.402V40H192.197V34.762C192.197 34.318 192.089 33.907 191.873 33.529C191.657 33.151 191.366 32.848 191 32.62C190.634 32.392 190.229 32.278 189.785 32.278C189.341 32.278 188.936 32.386 188.57 32.602C188.204 32.812 187.913 33.106 187.697 33.484C187.481 33.856 187.373 34.282 187.373 34.762V40H185.861V34.762C185.861 34.282 185.753 33.856 185.537 33.484C185.321 33.106 185.027 32.812 184.655 32.602C184.289 32.386 183.884 32.278 183.44 32.278C183.002 32.278 182.597 32.392 182.225 32.62C181.859 32.848 181.568 33.151 181.352 33.529C181.136 33.907 181.028 34.318 181.028 34.762V40H179.516ZM198.257 40.171C197.771 40.153 197.297 40.063 196.835 39.901C196.379 39.733 195.977 39.508 195.629 39.226C195.287 38.938 195.038 38.608 194.882 38.236L196.178 37.678C196.268 37.882 196.43 38.074 196.664 38.254C196.898 38.434 197.168 38.578 197.474 38.686C197.78 38.794 198.089 38.848 198.401 38.848C198.731 38.848 199.04 38.797 199.328 38.695C199.616 38.593 199.85 38.443 200.03 38.245C200.216 38.041 200.309 37.798 200.309 37.516C200.309 37.216 200.207 36.982 200.003 36.814C199.805 36.64 199.553 36.505 199.247 36.409C198.947 36.307 198.641 36.211 198.329 36.121C197.711 35.965 197.159 35.779 196.673 35.563C196.187 35.341 195.803 35.062 195.521 34.726C195.245 34.384 195.107 33.949 195.107 33.421C195.107 32.863 195.26 32.38 195.566 31.972C195.878 31.564 196.286 31.249 196.79 31.027C197.294 30.805 197.834 30.694 198.41 30.694C199.136 30.694 199.799 30.85 200.399 31.162C200.999 31.474 201.446 31.897 201.74 32.431L200.525 33.142C200.423 32.926 200.267 32.737 200.057 32.575C199.847 32.407 199.607 32.275 199.337 32.179C199.067 32.083 198.791 32.032 198.509 32.026C198.161 32.014 197.834 32.059 197.528 32.161C197.228 32.263 196.985 32.419 196.799 32.629C196.619 32.833 196.529 33.088 196.529 33.394C196.529 33.694 196.625 33.922 196.817 34.078C197.015 34.234 197.27 34.36 197.582 34.456C197.9 34.546 198.245 34.651 198.617 34.771C199.163 34.945 199.673 35.146 200.147 35.374C200.621 35.602 201.002 35.887 201.29 36.229C201.584 36.571 201.728 36.994 201.722 37.498C201.722 38.05 201.557 38.533 201.227 38.947C200.897 39.355 200.468 39.667 199.94 39.883C199.418 40.099 198.857 40.195 198.257 40.171Z" fill="#666666"></path><path d="M287.5 30.25L280 37.75L272.5 30.25" stroke="white" stroke-width="1.5" stroke-linecap="round" stroke-linejoin="round"></path></svg>