<svg xmlns="http://www.w3.org/2000/svg" width="1397" height="170" viewBox="0 0 1397 170" fill="none"><rect x="0.5" y="0.5" width="1396" height="169" rx="7.5" fill="#1A1A1A"></rect><rect x="0.5" y="0.5" width="1396" height="169" rx="7.5" stroke="#262626"></rect><path d="M21.08 40V27.4H28.811V28.912H22.592V32.494H27.686V34.006H22.592V38.488H28.811V40H21.08ZM38.7391 34.402V40H37.2271V34.735C37.2271 34.279 37.1161 33.865 36.8941 33.493C36.6721 33.121 36.3751 32.827 36.0031 32.611C35.6311 32.389 35.2171 32.278 34.7611 32.278C34.3111 32.278 33.8971 32.389 33.5191 32.611C33.1471 32.827 32.8501 33.121 32.6281 33.493C32.4061 33.865 32.2951 34.279 32.2951 34.735V40H30.7831V31H32.2951V32.125C32.6131 31.705 33.0151 31.372 33.5011 31.126C33.9871 30.874 34.5151 30.748 35.0851 30.748C35.7571 30.748 36.3691 30.913 36.9211 31.243C37.4791 31.567 37.9201 32.005 38.2441 32.557C38.5741 33.109 38.7391 33.724 38.7391 34.402ZM45.201 32.512H43.158L43.149 40H41.637L41.646 32.512H40.098V31H41.646L41.637 28.174H43.149L43.158 31H45.201V32.512ZM50.5459 40.234C49.7179 40.234 48.9619 40.021 48.2779 39.595C47.5999 39.169 47.0569 38.599 46.6489 37.885C46.2469 37.165 46.0459 36.37 46.0459 35.5C46.0459 34.84 46.1629 34.225 46.3969 33.655C46.6309 33.079 46.9519 32.575 47.3599 32.143C47.7739 31.705 48.2539 31.363 48.7999 31.117C49.3459 30.871 49.9279 30.748 50.5459 30.748C51.2239 30.748 51.8449 30.886 52.4089 31.162C52.9789 31.432 53.4649 31.81 53.8669 32.296C54.2749 32.782 54.5779 33.346 54.7759 33.988C54.9799 34.63 55.0549 35.317 55.0009 36.049H47.6569C47.7289 36.559 47.8969 37.015 48.1609 37.417C48.4249 37.813 48.7609 38.128 49.1689 38.362C49.5829 38.596 50.0419 38.716 50.5459 38.722C51.0859 38.722 51.5749 38.584 52.0129 38.308C52.4509 38.026 52.8049 37.642 53.0749 37.156L54.6139 37.516C54.2539 38.314 53.7109 38.968 52.9849 39.478C52.2589 39.982 51.4459 40.234 50.5459 40.234ZM47.6119 34.861H53.4799C53.4319 34.357 53.2699 33.898 52.9939 33.484C52.7179 33.064 52.3669 32.728 51.9409 32.476C51.5149 32.224 51.0499 32.098 50.5459 32.098C50.0419 32.098 49.5799 32.221 49.1599 32.467C48.7399 32.713 48.3919 33.046 48.1159 33.466C47.8459 33.88 47.6779 34.345 47.6119 34.861ZM56.5175 40V31H58.0295V32.125C58.3475 31.705 58.7495 31.372 59.2355 31.126C59.7215 30.874 60.2495 30.748 60.8195 30.748C61.1675 30.748 61.5035 30.793 61.8275 30.883L61.2155 32.395C60.9695 32.317 60.7295 32.278 60.4955 32.278C60.0455 32.278 59.6315 32.389 59.2535 32.611C58.8815 32.827 58.5845 33.121 58.3625 33.493C58.1405 33.865 58.0295 34.279 58.0295 34.735V40H56.5175ZM73.5809 31H75.1829L70.2599 44.5H68.6579L70.2869 40L67.0559 31H68.7119L71.0429 37.921L73.5809 31ZM80.3056 40.234C79.4776 40.234 78.7216 40.021 78.0376 39.595C77.3596 39.169 76.8166 38.599 76.4086 37.885C76.0066 37.165 75.8056 36.37 75.8056 35.5C75.8056 34.84 75.9226 34.225 76.1566 33.655C76.3906 33.079 76.7116 32.575 77.1196 32.143C77.5336 31.705 78.0136 31.363 78.5596 31.117C79.1056 30.871 79.6876 30.748 80.3056 30.748C81.1336 30.748 81.8866 30.961 82.5646 31.387C83.2486 31.813 83.7916 32.386 84.1936 33.106C84.6016 33.826 84.8056 34.624 84.8056 35.5C84.8056 36.154 84.6886 36.766 84.4546 37.336C84.2206 37.906 83.8966 38.41 83.4826 38.848C83.0746 39.28 82.5976 39.619 82.0516 39.865C81.5116 40.111 80.9296 40.234 80.3056 40.234ZM80.3056 38.722C80.8696 38.722 81.3766 38.575 81.8266 38.281C82.2826 37.981 82.6396 37.588 82.8976 37.102C83.1616 36.61 83.2936 36.076 83.2936 35.5C83.2936 34.912 83.1586 34.372 82.8886 33.88C82.6246 33.388 82.2676 32.995 81.8176 32.701C81.3676 32.407 80.8636 32.26 80.3056 32.26C79.7416 32.26 79.2346 32.41 78.7846 32.71C78.3346 33.004 77.9776 33.397 77.7136 33.889C77.4496 34.381 77.3176 34.918 77.3176 35.5C77.3176 36.1 77.4526 36.646 77.7226 37.138C77.9926 37.624 78.3556 38.011 78.8116 38.299C79.2676 38.581 79.7656 38.722 80.3056 38.722ZM85.8118 36.58V31H87.3238V36.247C87.3238 36.703 87.4348 37.117 87.6568 37.489C87.8788 37.861 88.1758 38.158 88.5478 38.38C88.9258 38.596 89.3398 38.704 89.7898 38.704C90.2458 38.704 90.6568 38.596 91.0228 38.38C91.3948 38.158 91.6918 37.861 91.9138 37.489C92.1358 37.117 92.2468 36.703 92.2468 36.247V31H93.7588L93.7678 40H92.2558L92.2468 38.857C91.9288 39.277 91.5268 39.613 91.0408 39.865C90.5548 40.111 90.0298 40.234 89.4658 40.234C88.7938 40.234 88.1788 40.072 87.6208 39.748C87.0688 39.418 86.6278 38.977 86.2978 38.425C85.9738 37.873 85.8118 37.258 85.8118 36.58ZM95.5761 40V31H97.0881V32.125C97.4061 31.705 97.8081 31.372 98.2941 31.126C98.7801 30.874 99.3081 30.748 99.8781 30.748C100.226 30.748 100.562 30.793 100.886 30.883L100.274 32.395C100.028 32.317 99.7881 32.278 99.5541 32.278C99.1041 32.278 98.6901 32.389 98.3121 32.611C97.9401 32.827 97.6431 33.121 97.4211 33.493C97.1991 33.865 97.0881 34.279 97.0881 34.735V40H95.5761ZM106.475 40L108.914 27.4H110.075L113.477 36.346L116.87 27.4H118.031L120.479 40H118.94L117.167 30.856L113.972 39.316H112.973L109.778 30.856L108.014 40H106.475ZM125.815 40.234C124.987 40.234 124.231 40.021 123.547 39.595C122.869 39.169 122.326 38.599 121.918 37.885C121.516 37.165 121.315 36.37 121.315 35.5C121.315 34.84 121.432 34.225 121.666 33.655C121.9 33.079 122.221 32.575 122.629 32.143C123.043 31.705 123.523 31.363 124.069 31.117C124.615 30.871 125.197 30.748 125.815 30.748C126.493 30.748 127.114 30.886 127.678 31.162C128.248 31.432 128.734 31.81 129.136 32.296C129.544 32.782 129.847 33.346 130.045 33.988C130.249 34.63 130.324 35.317 130.27 36.049H122.926C122.998 36.559 123.166 37.015 123.43 37.417C123.694 37.813 124.03 38.128 124.438 38.362C124.852 38.596 125.311 38.716 125.815 38.722C126.355 38.722 126.844 38.584 127.282 38.308C127.72 38.026 128.074 37.642 128.344 37.156L129.883 37.516C129.523 38.314 128.98 38.968 128.254 39.478C127.528 39.982 126.715 40.234 125.815 40.234ZM122.881 34.861H128.749C128.701 34.357 128.539 33.898 128.263 33.484C127.987 33.064 127.636 32.728 127.21 32.476C126.784 32.224 126.319 32.098 125.815 32.098C125.311 32.098 124.849 32.221 124.429 32.467C124.009 32.713 123.661 33.046 123.385 33.466C123.115 33.88 122.947 34.345 122.881 34.861ZM134.567 40.171C134.081 40.153 133.607 40.063 133.145 39.901C132.689 39.733 132.287 39.508 131.939 39.226C131.597 38.938 131.348 38.608 131.192 38.236L132.488 37.678C132.578 37.882 132.74 38.074 132.974 38.254C133.208 38.434 133.478 38.578 133.784 38.686C134.09 38.794 134.399 38.848 134.711 38.848C135.041 38.848 135.35 38.797 135.638 38.695C135.926 38.593 136.16 38.443 136.34 38.245C136.526 38.041 136.619 37.798 136.619 37.516C136.619 37.216 136.517 36.982 136.313 36.814C136.115 36.64 135.863 36.505 135.557 36.409C135.257 36.307 134.951 36.211 134.639 36.121C134.021 35.965 133.469 35.779 132.983 35.563C132.497 35.341 132.113 35.062 131.831 34.726C131.555 34.384 131.417 33.949 131.417 33.421C131.417 32.863 131.57 32.38 131.876 31.972C132.188 31.564 132.596 31.249 133.1 31.027C133.604 30.805 134.144 30.694 134.72 30.694C135.446 30.694 136.109 30.85 136.709 31.162C137.309 31.474 137.756 31.897 138.05 32.431L136.835 33.142C136.733 32.926 136.577 32.737 136.367 32.575C136.157 32.407 135.917 32.275 135.647 32.179C135.377 32.083 135.101 32.032 134.819 32.026C134.471 32.014 134.144 32.059 133.838 32.161C133.538 32.263 133.295 32.419 133.109 32.629C132.929 32.833 132.839 33.088 132.839 33.394C132.839 33.694 132.935 33.922 133.127 34.078C133.325 34.234 133.58 34.36 133.892 34.456C134.21 34.546 134.555 34.651 134.927 34.771C135.473 34.945 135.983 35.146 136.457 35.374C136.931 35.602 137.312 35.887 137.6 36.229C137.894 36.571 138.038 36.994 138.032 37.498C138.032 38.05 137.867 38.533 137.537 38.947C137.207 39.355 136.778 39.667 136.25 39.883C135.728 40.099 135.167 40.195 134.567 40.171ZM142.319 40.171C141.833 40.153 141.359 40.063 140.897 39.901C140.441 39.733 140.039 39.508 139.691 39.226C139.349 38.938 139.1 38.608 138.944 38.236L140.24 37.678C140.33 37.882 140.492 38.074 140.726 38.254C140.96 38.434 141.23 38.578 141.536 38.686C141.842 38.794 142.151 38.848 142.463 38.848C142.793 38.848 143.102 38.797 143.39 38.695C143.678 38.593 143.912 38.443 144.092 38.245C144.278 38.041 144.371 37.798 144.371 37.516C144.371 37.216 144.269 36.982 144.065 36.814C143.867 36.64 143.615 36.505 143.309 36.409C143.009 36.307 142.703 36.211 142.391 36.121C141.773 35.965 141.221 35.779 140.735 35.563C140.249 35.341 139.865 35.062 139.583 34.726C139.307 34.384 139.169 33.949 139.169 33.421C139.169 32.863 139.322 32.38 139.628 31.972C139.94 31.564 140.348 31.249 140.852 31.027C141.356 30.805 141.896 30.694 142.472 30.694C143.198 30.694 143.861 30.85 144.461 31.162C145.061 31.474 145.508 31.897 145.802 32.431L144.587 33.142C144.485 32.926 144.329 32.737 144.119 32.575C143.909 32.407 143.669 32.275 143.399 32.179C143.129 32.083 142.853 32.032 142.571 32.026C142.223 32.014 141.896 32.059 141.59 32.161C141.29 32.263 141.047 32.419 140.861 32.629C140.681 32.833 140.591 33.088 140.591 33.394C140.591 33.694 140.687 33.922 140.879 34.078C141.077 34.234 141.332 34.36 141.644 34.456C141.962 34.546 142.307 34.651 142.679 34.771C143.225 34.945 143.735 35.146 144.209 35.374C144.683 35.602 145.064 35.887 145.352 36.229C145.646 36.571 145.79 36.994 145.784 37.498C145.784 38.05 145.619 38.533 145.289 38.947C144.959 39.355 144.53 39.667 144.002 39.883C143.48 40.099 142.919 40.195 142.319 40.171ZM154.474 31H155.986V40H154.474L154.411 38.479C154.129 39.001 153.739 39.424 153.241 39.748C152.749 40.072 152.161 40.234 151.477 40.234C150.817 40.234 150.199 40.111 149.623 39.865C149.047 39.613 148.537 39.268 148.093 38.83C147.655 38.386 147.313 37.876 147.067 37.3C146.821 36.724 146.698 36.103 146.698 35.437C146.698 34.795 146.818 34.189 147.058 33.619C147.298 33.049 147.631 32.551 148.057 32.125C148.489 31.693 148.987 31.357 149.551 31.117C150.115 30.871 150.721 30.748 151.369 30.748C152.077 30.748 152.698 30.916 153.232 31.252C153.766 31.582 154.198 32.011 154.528 32.539L154.474 31ZM151.45 38.767C152.044 38.767 152.557 38.623 152.989 38.335C153.427 38.041 153.763 37.645 153.997 37.147C154.237 36.649 154.357 36.1 154.357 35.5C154.357 34.888 154.237 34.336 153.997 33.844C153.757 33.346 153.418 32.953 152.98 32.665C152.548 32.371 152.038 32.224 151.45 32.224C150.856 32.224 150.316 32.371 149.83 32.665C149.344 32.959 148.957 33.355 148.669 33.853C148.387 34.345 148.246 34.894 148.246 35.5C148.246 36.106 148.393 36.658 148.687 37.156C148.981 37.648 149.371 38.041 149.857 38.335C150.343 38.623 150.874 38.767 151.45 38.767ZM164.638 31H166.15V40.288C166.15 40.882 166.021 41.434 165.763 41.944C165.511 42.46 165.169 42.907 164.737 43.285C164.305 43.669 163.813 43.966 163.261 44.176C162.709 44.392 162.133 44.5 161.533 44.5C160.909 44.5 160.306 44.359 159.724 44.077C159.142 43.801 158.632 43.429 158.194 42.961C157.762 42.499 157.45 41.98 157.258 41.404L158.644 40.774C158.758 41.188 158.962 41.56 159.256 41.89C159.556 42.226 159.904 42.49 160.3 42.682C160.702 42.88 161.113 42.979 161.533 42.979C161.929 42.979 162.31 42.91 162.676 42.772C163.048 42.634 163.381 42.442 163.675 42.196C163.975 41.956 164.209 41.671 164.377 41.341C164.551 41.017 164.638 40.666 164.638 40.288V38.497C164.332 39.013 163.927 39.433 163.423 39.757C162.925 40.075 162.343 40.234 161.677 40.234C161.041 40.234 160.444 40.111 159.886 39.865C159.328 39.619 158.839 39.28 158.419 38.848C157.999 38.41 157.669 37.906 157.429 37.336C157.189 36.766 157.069 36.154 157.069 35.5C157.069 34.846 157.189 34.234 157.429 33.664C157.669 33.088 157.999 32.584 158.419 32.152C158.839 31.714 159.328 31.372 159.886 31.126C160.444 30.88 161.041 30.757 161.677 30.757C162.343 30.757 162.925 30.916 163.423 31.234C163.927 31.552 164.332 31.972 164.638 32.494V31ZM161.686 38.767C162.268 38.767 162.772 38.617 163.198 38.317C163.63 38.017 163.963 37.618 164.197 37.12C164.431 36.622 164.548 36.082 164.548 35.5C164.548 34.9 164.428 34.354 164.188 33.862C163.954 33.364 163.621 32.968 163.189 32.674C162.763 32.374 162.262 32.224 161.686 32.224C161.122 32.224 160.606 32.371 160.138 32.665C159.67 32.959 159.298 33.355 159.022 33.853C158.752 34.345 158.617 34.894 158.617 35.5C158.617 36.106 158.755 36.658 159.031 37.156C159.313 37.648 159.685 38.041 160.147 38.335C160.615 38.623 161.128 38.767 161.686 38.767ZM172.151 40.234C171.323 40.234 170.567 40.021 169.883 39.595C169.205 39.169 168.662 38.599 168.254 37.885C167.852 37.165 167.651 36.37 167.651 35.5C167.651 34.84 167.768 34.225 168.002 33.655C168.236 33.079 168.557 32.575 168.965 32.143C169.379 31.705 169.859 31.363 170.405 31.117C170.951 30.871 171.533 30.748 172.151 30.748C172.829 30.748 173.45 30.886 174.014 31.162C174.584 31.432 175.07 31.81 175.472 32.296C175.88 32.782 176.183 33.346 176.381 33.988C176.585 34.63 176.66 35.317 176.606 36.049H169.262C169.334 36.559 169.502 37.015 169.766 37.417C170.03 37.813 170.366 38.128 170.774 38.362C171.188 38.596 171.647 38.716 172.151 38.722C172.691 38.722 173.18 38.584 173.618 38.308C174.056 38.026 174.41 37.642 174.68 37.156L176.219 37.516C175.859 38.314 175.316 38.968 174.59 39.478C173.864 39.982 173.051 40.234 172.151 40.234ZM169.217 34.861H175.085C175.037 34.357 174.875 33.898 174.599 33.484C174.323 33.064 173.972 32.728 173.546 32.476C173.12 32.224 172.655 32.098 172.151 32.098C171.647 32.098 171.185 32.221 170.765 32.467C170.345 32.713 169.997 33.046 169.721 33.466C169.451 33.88 169.283 34.345 169.217 34.861ZM190.526 34.402V40H189.014V34.735C189.014 34.279 188.903 33.865 188.681 33.493C188.459 33.121 188.162 32.827 187.79 32.611C187.418 32.389 187.004 32.278 186.548 32.278C186.098 32.278 185.684 32.389 185.306 32.611C184.934 32.827 184.637 33.121 184.415 33.493C184.193 33.865 184.082 34.279 184.082 34.735V40H182.57V26.5H184.082V32.125C184.4 31.705 184.802 31.372 185.288 31.126C185.774 30.874 186.302 30.748 186.872 30.748C187.544 30.748 188.156 30.913 188.708 31.243C189.266 31.567 189.707 32.005 190.031 32.557C190.361 33.109 190.526 33.724 190.526 34.402ZM196.11 40.234C195.282 40.234 194.526 40.021 193.842 39.595C193.164 39.169 192.621 38.599 192.213 37.885C191.811 37.165 191.61 36.37 191.61 35.5C191.61 34.84 191.727 34.225 191.961 33.655C192.195 33.079 192.516 32.575 192.924 32.143C193.338 31.705 193.818 31.363 194.364 31.117C194.91 30.871 195.492 30.748 196.11 30.748C196.788 30.748 197.409 30.886 197.973 31.162C198.543 31.432 199.029 31.81 199.431 32.296C199.839 32.782 200.142 33.346 200.34 33.988C200.544 34.63 200.619 35.317 200.565 36.049H193.221C193.293 36.559 193.461 37.015 193.725 37.417C193.989 37.813 194.325 38.128 194.733 38.362C195.147 38.596 195.606 38.716 196.11 38.722C196.65 38.722 197.139 38.584 197.577 38.308C198.015 38.026 198.369 37.642 198.639 37.156L200.178 37.516C199.818 38.314 199.275 38.968 198.549 39.478C197.823 39.982 197.01 40.234 196.11 40.234ZM193.176 34.861H199.044C198.996 34.357 198.834 33.898 198.558 33.484C198.282 33.064 197.931 32.728 197.505 32.476C197.079 32.224 196.614 32.098 196.11 32.098C195.606 32.098 195.144 32.221 194.724 32.467C194.304 32.713 193.956 33.046 193.68 33.466C193.41 33.88 193.242 34.345 193.176 34.861ZM202.082 40V31H203.594V32.125C203.912 31.705 204.314 31.372 204.8 31.126C205.286 30.874 205.814 30.748 206.384 30.748C206.732 30.748 207.068 30.793 207.392 30.883L206.78 32.395C206.534 32.317 206.294 32.278 206.06 32.278C205.61 32.278 205.196 32.389 204.818 32.611C204.446 32.827 204.149 33.121 203.927 33.493C203.705 33.865 203.594 34.279 203.594 34.735V40H202.082ZM212.001 40.234C211.173 40.234 210.417 40.021 209.733 39.595C209.055 39.169 208.512 38.599 208.104 37.885C207.702 37.165 207.501 36.37 207.501 35.5C207.501 34.84 207.618 34.225 207.852 33.655C208.086 33.079 208.407 32.575 208.815 32.143C209.229 31.705 209.709 31.363 210.255 31.117C210.801 30.871 211.383 30.748 212.001 30.748C212.679 30.748 213.3 30.886 213.864 31.162C214.434 31.432 214.92 31.81 215.322 32.296C215.73 32.782 216.033 33.346 216.231 33.988C216.435 34.63 216.51 35.317 216.456 36.049H209.112C209.184 36.559 209.352 37.015 209.616 37.417C209.88 37.813 210.216 38.128 210.624 38.362C211.038 38.596 211.497 38.716 212.001 38.722C212.541 38.722 213.03 38.584 213.468 38.308C213.906 38.026 214.26 37.642 214.53 37.156L216.069 37.516C215.709 38.314 215.166 38.968 214.44 39.478C213.714 39.982 212.901 40.234 212.001 40.234ZM209.067 34.861H214.935C214.887 34.357 214.725 33.898 214.449 33.484C214.173 33.064 213.822 32.728 213.396 32.476C212.97 32.224 212.505 32.098 212.001 32.098C211.497 32.098 211.035 32.221 210.615 32.467C210.195 32.713 209.847 33.046 209.571 33.466C209.301 33.88 209.133 34.345 209.067 34.861ZM218.379 40.234C218.151 40.234 217.956 40.153 217.794 39.991C217.638 39.829 217.56 39.631 217.56 39.397C217.56 39.175 217.638 38.983 217.794 38.821C217.956 38.659 218.151 38.578 218.379 38.578C218.613 38.578 218.811 38.659 218.973 38.821C219.135 38.983 219.216 39.175 219.216 39.397C219.216 39.631 219.135 39.829 218.973 39.991C218.811 40.153 218.613 40.234 218.379 40.234ZM221.842 40.234C221.614 40.234 221.419 40.153 221.257 39.991C221.101 39.829 221.023 39.631 221.023 39.397C221.023 39.175 221.101 38.983 221.257 38.821C221.419 38.659 221.614 38.578 221.842 38.578C222.076 38.578 222.274 38.659 222.436 38.821C222.598 38.983 222.679 39.175 222.679 39.397C222.679 39.631 222.598 39.829 222.436 39.991C222.274 40.153 222.076 40.234 221.842 40.234Z" fill="#666666"></path></svg>