<svg xmlns="http://www.w3.org/2000/svg" width="236" height="52" viewBox="0 0 236 52" fill="none"><rect x="0.5" y="0.5" width="235" height="51" rx="7.5" fill="#141414"></rect><rect x="0.5" y="0.5" width="235" height="51" rx="7.5" stroke="#262626"></rect><path d="M24.3149 17.3351C24.1203 17.2216 23.8797 17.2216 23.6851 17.3351L16.5 21.5264L24 25.9014L31.5 21.5264L24.3149 17.3351Z" fill="#999999"></path><path d="M32.125 22.609L24.625 26.984V34.484L31.8149 30.2899C32.0069 30.1779 32.125 29.9723 32.125 29.75V22.609Z" fill="#999999"></path><path d="M23.375 34.484V26.984L15.875 22.609V29.75C15.875 29.9723 15.9931 30.1779 16.1851 30.2899L23.375 34.484Z" fill="#999999"></path><line x1="42.5" y1="15.5" x2="42.5" y2="36.5" stroke="#262626"></line><path d="M50.84 30.5V20.7H54.074C54.6013 20.7 55.075 20.8283 55.495 21.085C55.9197 21.3417 56.2557 21.6893 56.503 22.128C56.755 22.562 56.881 23.0473 56.881 23.584C56.881 24.13 56.7527 24.6223 56.496 25.061C56.244 25.495 55.9033 25.8403 55.474 26.097C55.0493 26.349 54.5827 26.475 54.074 26.475H52.016V30.5H50.84ZM52.016 25.299H53.969C54.2863 25.299 54.5757 25.222 54.837 25.068C55.103 24.9093 55.313 24.697 55.467 24.431C55.6257 24.1603 55.705 23.857 55.705 23.521C55.705 23.1803 55.6257 22.877 55.467 22.611C55.313 22.3403 55.103 22.128 54.837 21.974C54.5757 21.8153 54.2863 21.736 53.969 21.736H52.016V25.299ZM58.0861 30.5V23.5H59.2621V24.375C59.5094 24.0483 59.8221 23.7893 60.2001 23.598C60.5781 23.402 60.9888 23.304 61.4321 23.304C61.7028 23.304 61.9641 23.339 62.2161 23.409L61.7401 24.585C61.5488 24.5243 61.3621 24.494 61.1801 24.494C60.8301 24.494 60.5081 24.5803 60.2141 24.753C59.9248 24.921 59.6938 25.1497 59.5211 25.439C59.3484 25.7283 59.2621 26.0503 59.2621 26.405V30.5H58.0861ZM65.8009 30.682C65.1569 30.682 64.5689 30.5163 64.0369 30.185C63.5095 29.8537 63.0872 29.4103 62.7699 28.855C62.4572 28.295 62.3009 27.6767 62.3009 27C62.3009 26.4867 62.3919 26.0083 62.5739 25.565C62.7559 25.117 63.0055 24.725 63.3229 24.389C63.6449 24.0483 64.0182 23.7823 64.4429 23.591C64.8675 23.3997 65.3202 23.304 65.8009 23.304C66.4449 23.304 67.0305 23.4697 67.5579 23.801C68.0899 24.1323 68.5122 24.578 68.8249 25.138C69.1422 25.698 69.3009 26.3187 69.3009 27C69.3009 27.5087 69.2099 27.9847 69.0279 28.428C68.8459 28.8713 68.5939 29.2633 68.2719 29.604C67.9545 29.94 67.5835 30.2037 67.1589 30.395C66.7389 30.5863 66.2862 30.682 65.8009 30.682ZM65.8009 29.506C66.2395 29.506 66.6339 29.3917 66.9839 29.163C67.3385 28.9297 67.6162 28.624 67.8169 28.246C68.0222 27.8633 68.1249 27.448 68.1249 27C68.1249 26.5427 68.0199 26.1227 67.8099 25.74C67.6045 25.3573 67.3269 25.0517 66.9769 24.823C66.6269 24.5943 66.2349 24.48 65.8009 24.48C65.3622 24.48 64.9679 24.5967 64.6179 24.83C64.2679 25.0587 63.9902 25.3643 63.7849 25.747C63.5795 26.1297 63.4769 26.5473 63.4769 27C63.4769 27.4667 63.5819 27.8913 63.7919 28.274C64.0019 28.652 64.2842 28.953 64.6389 29.177C64.9935 29.3963 65.3809 29.506 65.8009 29.506ZM71.6351 34H70.4591V23.5H71.6351V24.697C71.8731 24.2863 72.1905 23.955 72.5871 23.703C72.9838 23.4463 73.4551 23.318 74.0011 23.318C74.5098 23.318 74.9858 23.4137 75.4291 23.605C75.8771 23.7963 76.2691 24.0623 76.6051 24.403C76.9411 24.739 77.2048 25.1287 77.3961 25.572C77.5875 26.0153 77.6831 26.4913 77.6831 27C77.6831 27.5087 77.5875 27.987 77.3961 28.435C77.2048 28.883 76.9411 29.2773 76.6051 29.618C76.2691 29.954 75.8771 30.2177 75.4291 30.409C74.9858 30.6003 74.5098 30.696 74.0011 30.696C73.4551 30.696 72.9838 30.57 72.5871 30.318C72.1905 30.0613 71.8731 29.7277 71.6351 29.317V34ZM73.9871 24.459C73.5345 24.459 73.1378 24.5733 72.7971 24.802C72.4565 25.0307 72.1928 25.3363 72.0061 25.719C71.8241 26.1017 71.7331 26.5287 71.7331 27C71.7331 27.4667 71.8241 27.8937 72.0061 28.281C72.1928 28.6683 72.4541 28.9763 72.7901 29.205C73.1308 29.4337 73.5298 29.548 73.9871 29.548C74.4398 29.548 74.8551 29.436 75.2331 29.212C75.6111 28.9833 75.9145 28.6777 76.1431 28.295C76.3718 27.9077 76.4861 27.476 76.4861 27C76.4861 26.5333 76.3741 26.1087 76.1501 25.726C75.9261 25.3387 75.6251 25.0307 75.2471 24.802C74.8691 24.5733 74.4491 24.459 73.9871 24.459ZM81.8927 30.682C81.2487 30.682 80.6607 30.5163 80.1287 30.185C79.6013 29.8537 79.179 29.4103 78.8617 28.855C78.549 28.295 78.3927 27.6767 78.3927 27C78.3927 26.4867 78.4837 26.0083 78.6657 25.565C78.8477 25.117 79.0973 24.725 79.4147 24.389C79.7367 24.0483 80.11 23.7823 80.5347 23.591C80.9593 23.3997 81.412 23.304 81.8927 23.304C82.42 23.304 82.903 23.4113 83.3417 23.626C83.785 23.836 84.163 24.13 84.4757 24.508C84.793 24.886 85.0287 25.3247 85.1827 25.824C85.3413 26.3233 85.3997 26.8577 85.3577 27.427H79.6457C79.7017 27.8237 79.8323 28.1783 80.0377 28.491C80.243 28.799 80.5043 29.044 80.8217 29.226C81.1437 29.408 81.5007 29.5013 81.8927 29.506C82.3127 29.506 82.693 29.3987 83.0337 29.184C83.3743 28.9647 83.6497 28.666 83.8597 28.288L85.0567 28.568C84.7767 29.1887 84.3543 29.6973 83.7897 30.094C83.225 30.486 82.5927 30.682 81.8927 30.682ZM79.6107 26.503H84.1747C84.1373 26.111 84.0113 25.754 83.7967 25.432C83.582 25.1053 83.309 24.844 82.9777 24.648C82.6463 24.452 82.2847 24.354 81.8927 24.354C81.5007 24.354 81.1413 24.4497 80.8147 24.641C80.488 24.8323 80.2173 25.0913 80.0027 25.418C79.7927 25.74 79.662 26.1017 79.6107 26.503ZM86.5373 30.5V23.5H87.7133V24.375C87.9606 24.0483 88.2733 23.7893 88.6513 23.598C89.0293 23.402 89.4399 23.304 89.8833 23.304C90.1539 23.304 90.4153 23.339 90.6673 23.409L90.1913 24.585C89.9999 24.5243 89.8133 24.494 89.6313 24.494C89.2813 24.494 88.9593 24.5803 88.6653 24.753C88.3759 24.921 88.1449 25.1497 87.9723 25.439C87.7996 25.7283 87.7133 26.0503 87.7133 26.405V30.5H86.5373ZM95.2765 24.676H93.6875L93.6805 30.5H92.5045L92.5115 24.676H91.3075V23.5H92.5115L92.5045 21.302H93.6805L93.6875 23.5H95.2765V24.676ZM101.162 23.5H102.408L98.5793 34H97.3333L98.6003 30.5L96.0873 23.5H97.3753L99.1883 28.883L101.162 23.5ZM110.619 30.682C110.092 30.682 109.583 30.6003 109.093 30.437C108.603 30.269 108.174 30.031 107.805 29.723C107.441 29.415 107.182 29.0487 107.028 28.624L108.127 28.211C108.22 28.4723 108.393 28.701 108.645 28.897C108.902 29.0883 109.203 29.2377 109.548 29.345C109.893 29.4523 110.25 29.506 110.619 29.506C111.039 29.506 111.429 29.4383 111.788 29.303C112.152 29.163 112.446 28.9693 112.67 28.722C112.894 28.4747 113.006 28.1853 113.006 27.854C113.006 27.5133 112.889 27.2357 112.656 27.021C112.423 26.8017 112.124 26.629 111.76 26.503C111.396 26.3723 111.016 26.272 110.619 26.202C109.942 26.09 109.336 25.9313 108.799 25.726C108.267 25.516 107.845 25.2243 107.532 24.851C107.224 24.4777 107.07 23.9853 107.07 23.374C107.07 22.8047 107.233 22.3077 107.56 21.883C107.891 21.4583 108.328 21.1293 108.869 20.896C109.41 20.6627 109.994 20.546 110.619 20.546C111.137 20.546 111.639 20.6277 112.124 20.791C112.614 20.9497 113.046 21.183 113.419 21.491C113.792 21.799 114.061 22.1747 114.224 22.618L113.111 23.024C113.018 22.758 112.843 22.5293 112.586 22.338C112.334 22.142 112.035 21.9927 111.69 21.89C111.349 21.7827 110.992 21.729 110.619 21.729C110.204 21.7243 109.816 21.792 109.457 21.932C109.098 22.072 108.806 22.2657 108.582 22.513C108.358 22.7603 108.246 23.0473 108.246 23.374C108.246 23.766 108.349 24.067 108.554 24.277C108.764 24.4823 109.049 24.6363 109.408 24.739C109.767 24.8417 110.171 24.9327 110.619 25.012C111.254 25.1193 111.842 25.2897 112.383 25.523C112.924 25.7517 113.358 26.0573 113.685 26.44C114.016 26.8227 114.182 27.294 114.182 27.854C114.182 28.4233 114.016 28.9203 113.685 29.345C113.358 29.7697 112.924 30.0987 112.383 30.332C111.842 30.5653 111.254 30.682 110.619 30.682ZM115.672 23.5H116.848V30.5H115.672V23.5ZM116.274 22.359C116.087 22.359 115.931 22.2983 115.805 22.177C115.679 22.0557 115.616 21.904 115.616 21.722C115.616 21.54 115.679 21.3883 115.805 21.267C115.931 21.1457 116.085 21.085 116.267 21.085C116.449 21.085 116.603 21.1457 116.729 21.267C116.855 21.3883 116.918 21.54 116.918 21.722C116.918 21.904 116.855 22.0557 116.729 22.177C116.608 22.2983 116.456 22.359 116.274 22.359ZM124.227 24.676L119.922 29.324H124.227V30.5H118.249V29.324L122.554 24.676H118.249V23.5H124.227V24.676ZM128.609 30.682C127.965 30.682 127.377 30.5163 126.845 30.185C126.318 29.8537 125.896 29.4103 125.578 28.855C125.266 28.295 125.109 27.6767 125.109 27C125.109 26.4867 125.2 26.0083 125.382 25.565C125.564 25.117 125.814 24.725 126.131 24.389C126.453 24.0483 126.827 23.7823 127.251 23.591C127.676 23.3997 128.129 23.304 128.609 23.304C129.137 23.304 129.62 23.4113 130.058 23.626C130.502 23.836 130.88 24.13 131.192 24.508C131.51 24.886 131.745 25.3247 131.899 25.824C132.058 26.3233 132.116 26.8577 132.074 27.427H126.362C126.418 27.8237 126.549 28.1783 126.754 28.491C126.96 28.799 127.221 29.044 127.538 29.226C127.86 29.408 128.217 29.5013 128.609 29.506C129.029 29.506 129.41 29.3987 129.75 29.184C130.091 28.9647 130.366 28.666 130.576 28.288L131.773 28.568C131.493 29.1887 131.071 29.6973 130.506 30.094C129.942 30.486 129.309 30.682 128.609 30.682ZM126.327 26.503H130.891C130.854 26.111 130.728 25.754 130.513 25.432C130.299 25.1053 130.026 24.844 129.694 24.648C129.363 24.452 129.001 24.354 128.609 24.354C128.217 24.354 127.858 24.4497 127.531 24.641C127.205 24.8323 126.934 25.0913 126.719 25.418C126.509 25.74 126.379 26.1017 126.327 26.503Z" fill="#999999"></path><rect x="194" y="12" width="28" height="28" rx="14" fill="#1A1A1A"></rect><path d="M214.25 22.875L208 29.125L201.75 22.875" stroke="white" stroke-linecap="round" stroke-linejoin="round"></path></svg>