<svg xmlns="http://www.w3.org/2000/svg" width="236" height="52" viewBox="0 0 236 52" fill="none"><rect x="0.5" y="0.5" width="235" height="51" rx="7.5" fill="#141414"></rect><rect x="0.5" y="0.5" width="235" height="51" rx="7.5" stroke="#262626"></rect><path d="M24 22.25C22.9645 22.25 22.125 23.0895 22.125 24.125C22.125 25.1605 22.9645 26 24 26C25.0355 26 25.875 25.1605 25.875 24.125C25.875 23.0895 25.0355 22.25 24 22.25Z" fill="#999999"></path><path fill-rule="evenodd" clip-rule="evenodd" d="M15.25 20.0625C15.25 19.1996 15.9496 18.5 16.8125 18.5H31.1875C32.0504 18.5 32.75 19.1996 32.75 20.0625V28.1875C32.75 29.0504 32.0504 29.75 31.1875 29.75H16.8125C15.9496 29.75 15.25 29.0504 15.25 28.1875V20.0625ZM20.875 24.125C20.875 22.3991 22.2741 21 24 21C25.7259 21 27.125 22.3991 27.125 24.125C27.125 25.8509 25.7259 27.25 24 27.25C22.2741 27.25 20.875 25.8509 20.875 24.125ZM29.625 23.5C29.2798 23.5 29 23.7798 29 24.125V24.1313C29 24.4764 29.2798 24.7563 29.625 24.7563H29.6313C29.9764 24.7563 30.2563 24.4764 30.2563 24.1313V24.125C30.2563 23.7798 29.9764 23.5 29.6313 23.5H29.625ZM17.75 24.125C17.75 23.7798 18.0298 23.5 18.375 23.5H18.3813C18.7264 23.5 19.0063 23.7798 19.0063 24.125V24.1313C19.0063 24.4764 18.7264 24.7563 18.3813 24.7563H18.375C18.0298 24.7563 17.75 24.4764 17.75 24.1313V24.125Z" fill="#999999"></path><path d="M15.875 31C15.5298 31 15.25 31.2798 15.25 31.625C15.25 31.9702 15.5298 32.25 15.875 32.25C20.375 32.25 24.7335 32.8518 28.8748 33.9791C29.867 34.2491 30.875 33.514 30.875 32.4626V31.625C30.875 31.2798 30.5952 31 30.25 31H15.875Z" fill="#999999"></path><line x1="42.5" y1="15.5" x2="42.5" y2="36.5" stroke="#262626"></line><path d="M50.84 30.5V20.7H54.074C54.6013 20.7 55.075 20.8283 55.495 21.085C55.9197 21.3417 56.2557 21.6893 56.503 22.128C56.755 22.562 56.881 23.0473 56.881 23.584C56.881 24.13 56.7527 24.6223 56.496 25.061C56.244 25.495 55.9033 25.8403 55.474 26.097C55.0493 26.349 54.5827 26.475 54.074 26.475H52.016V30.5H50.84ZM52.016 25.299H53.969C54.2863 25.299 54.5757 25.222 54.837 25.068C55.103 24.9093 55.313 24.697 55.467 24.431C55.6257 24.1603 55.705 23.857 55.705 23.521C55.705 23.1803 55.6257 22.877 55.467 22.611C55.313 22.3403 55.103 22.128 54.837 21.974C54.5757 21.8153 54.2863 21.736 53.969 21.736H52.016V25.299ZM58.0861 30.5V23.5H59.2621V24.375C59.5094 24.0483 59.8221 23.7893 60.2001 23.598C60.5781 23.402 60.9888 23.304 61.4321 23.304C61.7028 23.304 61.9641 23.339 62.2161 23.409L61.7401 24.585C61.5488 24.5243 61.3621 24.494 61.1801 24.494C60.8301 24.494 60.5081 24.5803 60.2141 24.753C59.9248 24.921 59.6938 25.1497 59.5211 25.439C59.3484 25.7283 59.2621 26.0503 59.2621 26.405V30.5H58.0861ZM63.0763 23.5H64.2523V30.5H63.0763V23.5ZM63.6783 22.359C63.4917 22.359 63.3353 22.2983 63.2093 22.177C63.0833 22.0557 63.0203 21.904 63.0203 21.722C63.0203 21.54 63.0833 21.3883 63.2093 21.267C63.3353 21.1457 63.4893 21.085 63.6713 21.085C63.8533 21.085 64.0073 21.1457 64.1333 21.267C64.2593 21.3883 64.3223 21.54 64.3223 21.722C64.3223 21.904 64.2593 22.0557 64.1333 22.177C64.012 22.2983 63.8603 22.359 63.6783 22.359ZM70.661 28.652L71.711 29.219C71.3937 29.6623 70.99 30.017 70.5 30.283C70.0147 30.549 69.4874 30.682 68.918 30.682C68.274 30.682 67.686 30.5163 67.154 30.185C66.6267 29.8537 66.2044 29.4103 65.887 28.855C65.5744 28.295 65.418 27.6767 65.418 27C65.418 26.4867 65.509 26.0083 65.691 25.565C65.873 25.117 66.1227 24.725 66.44 24.389C66.762 24.0483 67.1354 23.7823 67.56 23.591C67.9847 23.3997 68.4374 23.304 68.918 23.304C69.4874 23.304 70.0147 23.437 70.5 23.703C70.99 23.969 71.3937 24.326 71.711 24.774L70.661 25.341C70.437 25.0657 70.171 24.8533 69.863 24.704C69.555 24.5547 69.24 24.48 68.918 24.48C68.484 24.48 68.0897 24.5967 67.735 24.83C67.385 25.0587 67.1074 25.3643 66.902 25.747C66.6967 26.1297 66.594 26.5473 66.594 27C66.594 27.4527 66.6967 27.8703 66.902 28.253C67.112 28.631 67.392 28.9343 67.742 29.163C68.0967 29.3917 68.4887 29.506 68.918 29.506C69.2634 29.506 69.5877 29.4267 69.891 29.268C70.1944 29.1093 70.451 28.904 70.661 28.652ZM72.8107 23.5H73.9867V30.5H72.8107V23.5ZM73.4127 22.359C73.226 22.359 73.0697 22.2983 72.9437 22.177C72.8177 22.0557 72.7547 21.904 72.7547 21.722C72.7547 21.54 72.8177 21.3883 72.9437 21.267C73.0697 21.1457 73.2237 21.085 73.4057 21.085C73.5877 21.085 73.7417 21.1457 73.8677 21.267C73.9937 21.3883 74.0567 21.54 74.0567 21.722C74.0567 21.904 73.9937 22.0557 73.8677 22.177C73.7464 22.2983 73.5947 22.359 73.4127 22.359ZM81.8288 26.146V30.5H80.6528V26.405C80.6528 26.0503 80.5664 25.7283 80.3938 25.439C80.2211 25.1497 79.9901 24.921 79.7008 24.753C79.4114 24.5803 79.0894 24.494 78.7348 24.494C78.3848 24.494 78.0628 24.5803 77.7688 24.753C77.4794 24.921 77.2484 25.1497 77.0758 25.439C76.9031 25.7283 76.8168 26.0503 76.8168 26.405V30.5H75.6408V23.5H76.8168V24.375C77.0641 24.0483 77.3768 23.7893 77.7548 23.598C78.1328 23.402 78.5434 23.304 78.9868 23.304C79.5094 23.304 79.9854 23.4323 80.4148 23.689C80.8488 23.941 81.1918 24.2817 81.4438 24.711C81.7004 25.1403 81.8288 25.6187 81.8288 26.146ZM88.559 23.5H89.735V30.724C89.735 31.186 89.6346 31.6153 89.434 32.012C89.238 32.4133 88.972 32.761 88.636 33.055C88.3 33.3537 87.9173 33.5847 87.488 33.748C87.0586 33.916 86.6106 34 86.144 34C85.6586 34 85.1896 33.8903 84.737 33.671C84.2843 33.4563 83.8876 33.167 83.547 32.803C83.211 32.4437 82.9683 32.04 82.819 31.592L83.897 31.102C83.9856 31.424 84.1443 31.7133 84.373 31.97C84.6063 32.2313 84.877 32.4367 85.185 32.586C85.4976 32.74 85.8173 32.817 86.144 32.817C86.452 32.817 86.7483 32.7633 87.033 32.656C87.3223 32.5487 87.5813 32.3993 87.81 32.208C88.0433 32.0213 88.2253 31.7997 88.356 31.543C88.4913 31.291 88.559 31.018 88.559 30.724V29.331C88.321 29.7323 88.006 30.059 87.614 30.311C87.2266 30.5583 86.774 30.682 86.256 30.682C85.7613 30.682 85.297 30.5863 84.863 30.395C84.429 30.2037 84.0486 29.94 83.722 29.604C83.3953 29.2633 83.1386 28.8713 82.952 28.428C82.7653 27.9847 82.672 27.5087 82.672 27C82.672 26.4913 82.7653 26.0153 82.952 25.572C83.1386 25.124 83.3953 24.732 83.722 24.396C84.0486 24.0553 84.429 23.7893 84.863 23.598C85.297 23.4067 85.7613 23.311 86.256 23.311C86.774 23.311 87.2266 23.4347 87.614 23.682C88.006 23.9293 88.321 24.256 88.559 24.662V23.5ZM86.263 29.541C86.7156 29.541 87.1076 29.4243 87.439 29.191C87.775 28.9577 88.034 28.6473 88.216 28.26C88.398 27.8727 88.489 27.4527 88.489 27C88.489 26.5333 88.3956 26.1087 88.209 25.726C88.027 25.3387 87.768 25.0307 87.432 24.802C87.1006 24.5687 86.711 24.452 86.263 24.452C85.8243 24.452 85.423 24.5663 85.059 24.795C84.695 25.0237 84.4056 25.3317 84.191 25.719C83.981 26.1017 83.876 26.5287 83.876 27C83.876 27.4713 83.9833 27.9007 84.198 28.288C84.4173 28.6707 84.7066 28.9763 85.066 29.205C85.43 29.429 85.829 29.541 86.263 29.541ZM94.7814 30.5V20.7H98.2254C98.7481 20.7 99.2194 20.8283 99.6394 21.085C100.064 21.3417 100.4 21.6893 100.647 22.128C100.899 22.562 101.025 23.0473 101.025 23.584C101.025 24.0553 100.932 24.4847 100.745 24.872C100.559 25.2593 100.302 25.5837 99.9754 25.845C99.6534 26.1017 99.2871 26.279 98.8764 26.377L101.256 30.5H99.8984L97.5604 26.475H95.9574V30.5H94.7814ZM95.9574 25.299H98.1064C98.4237 25.299 98.7154 25.222 98.9814 25.068C99.2474 24.9093 99.4574 24.697 99.6114 24.431C99.7701 24.1603 99.8494 23.857 99.8494 23.521C99.8494 23.1803 99.7701 22.877 99.6114 22.611C99.4574 22.3403 99.2474 22.128 98.9814 21.974C98.7154 21.8153 98.4237 21.736 98.1064 21.736H95.9574V25.299ZM108.038 23.5H109.214V30.5H108.038L107.989 29.317C107.77 29.723 107.467 30.052 107.079 30.304C106.697 30.556 106.239 30.682 105.707 30.682C105.194 30.682 104.713 30.5863 104.265 30.395C103.817 30.199 103.421 29.9307 103.075 29.59C102.735 29.2447 102.469 28.848 102.277 28.4C102.086 27.952 101.99 27.469 101.99 26.951C101.99 26.4517 102.084 25.9803 102.27 25.537C102.457 25.0937 102.716 24.7063 103.047 24.375C103.383 24.039 103.771 23.7777 104.209 23.591C104.648 23.3997 105.119 23.304 105.623 23.304C106.174 23.304 106.657 23.4347 107.072 23.696C107.488 23.9527 107.824 24.2863 108.08 24.697L108.038 23.5ZM105.686 29.541C106.148 29.541 106.547 29.429 106.883 29.205C107.224 28.9763 107.485 28.6683 107.667 28.281C107.854 27.8937 107.947 27.4667 107.947 27C107.947 26.524 107.854 26.0947 107.667 25.712C107.481 25.3247 107.217 25.019 106.876 24.795C106.54 24.5663 106.144 24.452 105.686 24.452C105.224 24.452 104.804 24.5663 104.426 24.795C104.048 25.0237 103.747 25.3317 103.523 25.719C103.304 26.1017 103.194 26.5287 103.194 27C103.194 27.4713 103.309 27.9007 103.537 28.288C103.766 28.6707 104.069 28.9763 104.447 29.205C104.825 29.429 105.238 29.541 105.686 29.541ZM116.801 26.146V30.5H115.625V26.405C115.625 26.0503 115.539 25.7283 115.366 25.439C115.194 25.1497 114.963 24.921 114.673 24.753C114.384 24.5803 114.062 24.494 113.707 24.494C113.357 24.494 113.035 24.5803 112.741 24.753C112.452 24.921 112.221 25.1497 112.048 25.439C111.876 25.7283 111.789 26.0503 111.789 26.405V30.5H110.613V23.5H111.789V24.375C112.037 24.0483 112.349 23.7893 112.727 23.598C113.105 23.402 113.516 23.304 113.959 23.304C114.482 23.304 114.958 23.4323 115.387 23.689C115.821 23.941 116.164 24.2817 116.416 24.711C116.673 25.1403 116.801 25.6187 116.801 26.146ZM123.532 23.5H124.708V30.724C124.708 31.186 124.607 31.6153 124.407 32.012C124.211 32.4133 123.945 32.761 123.609 33.055C123.273 33.3537 122.89 33.5847 122.461 33.748C122.031 33.916 121.583 34 121.117 34C120.631 34 120.162 33.8903 119.71 33.671C119.257 33.4563 118.86 33.167 118.52 32.803C118.184 32.4437 117.941 32.04 117.792 31.592L118.87 31.102C118.958 31.424 119.117 31.7133 119.346 31.97C119.579 32.2313 119.85 32.4367 120.158 32.586C120.47 32.74 120.79 32.817 121.117 32.817C121.425 32.817 121.721 32.7633 122.006 32.656C122.295 32.5487 122.554 32.3993 122.783 32.208C123.016 32.0213 123.198 31.7997 123.329 31.543C123.464 31.291 123.532 31.018 123.532 30.724V29.331C123.294 29.7323 122.979 30.059 122.587 30.311C122.199 30.5583 121.747 30.682 121.229 30.682C120.734 30.682 120.27 30.5863 119.836 30.395C119.402 30.2037 119.021 29.94 118.695 29.604C118.368 29.2633 118.111 28.8713 117.925 28.428C117.738 27.9847 117.645 27.5087 117.645 27C117.645 26.4913 117.738 26.0153 117.925 25.572C118.111 25.124 118.368 24.732 118.695 24.396C119.021 24.0553 119.402 23.7893 119.836 23.598C120.27 23.4067 120.734 23.311 121.229 23.311C121.747 23.311 122.199 23.4347 122.587 23.682C122.979 23.9293 123.294 24.256 123.532 24.662V23.5ZM121.236 29.541C121.688 29.541 122.08 29.4243 122.412 29.191C122.748 28.9577 123.007 28.6473 123.189 28.26C123.371 27.8727 123.462 27.4527 123.462 27C123.462 26.5333 123.368 26.1087 123.182 25.726C123 25.3387 122.741 25.0307 122.405 24.802C122.073 24.5687 121.684 24.452 121.236 24.452C120.797 24.452 120.396 24.5663 120.032 24.795C119.668 25.0237 119.378 25.3317 119.164 25.719C118.954 26.1017 118.849 26.5287 118.849 27C118.849 27.4713 118.956 27.9007 119.171 28.288C119.39 28.6707 119.679 28.9763 120.039 29.205C120.403 29.429 120.802 29.541 121.236 29.541ZM129.375 30.682C128.731 30.682 128.143 30.5163 127.611 30.185C127.084 29.8537 126.661 29.4103 126.344 28.855C126.031 28.295 125.875 27.6767 125.875 27C125.875 26.4867 125.966 26.0083 126.148 25.565C126.33 25.117 126.58 24.725 126.897 24.389C127.219 24.0483 127.592 23.7823 128.017 23.591C128.442 23.3997 128.894 23.304 129.375 23.304C129.902 23.304 130.385 23.4113 130.824 23.626C131.267 23.836 131.645 24.13 131.958 24.508C132.275 24.886 132.511 25.3247 132.665 25.824C132.824 26.3233 132.882 26.8577 132.84 27.427H127.128C127.184 27.8237 127.315 28.1783 127.52 28.491C127.725 28.799 127.987 29.044 128.304 29.226C128.626 29.408 128.983 29.5013 129.375 29.506C129.795 29.506 130.175 29.3987 130.516 29.184C130.857 28.9647 131.132 28.666 131.342 28.288L132.539 28.568C132.259 29.1887 131.837 29.6973 131.272 30.094C130.707 30.486 130.075 30.682 129.375 30.682ZM127.093 26.503H131.657C131.62 26.111 131.494 25.754 131.279 25.432C131.064 25.1053 130.791 24.844 130.46 24.648C130.129 24.452 129.767 24.354 129.375 24.354C128.983 24.354 128.624 24.4497 128.297 24.641C127.97 24.8323 127.7 25.0913 127.485 25.418C127.275 25.74 127.144 26.1017 127.093 26.503Z" fill="#999999"></path><rect x="194" y="12" width="28" height="28" rx="14" fill="#1A1A1A"></rect><path d="M214.25 22.875L208 29.125L201.75 22.875" stroke="white" stroke-linecap="round" stroke-linejoin="round"></path></svg>