<svg xmlns="http://www.w3.org/2000/svg" width="236" height="52" viewBox="0 0 236 52" fill="none"><rect x="0.5" y="0.5" width="235" height="51" rx="7.5" fill="#141414"></rect><rect x="0.5" y="0.5" width="235" height="51" rx="7.5" stroke="#262626"></rect><path fill-rule="evenodd" clip-rule="evenodd" d="M19.625 17.875C19.9702 17.875 20.25 18.1548 20.25 18.5V19.75H27.75V18.5C27.75 18.1548 28.0298 17.875 28.375 17.875C28.7202 17.875 29 18.1548 29 18.5V19.75H29.625C31.0057 19.75 32.125 20.8693 32.125 22.25V31.625C32.125 33.0057 31.0057 34.125 29.625 34.125H18.375C16.9943 34.125 15.875 33.0057 15.875 31.625V22.25C15.875 20.8693 16.9943 19.75 18.375 19.75H19V18.5C19 18.1548 19.2798 17.875 19.625 17.875ZM30.875 25.375C30.875 24.6846 30.3154 24.125 29.625 24.125H18.375C17.6846 24.125 17.125 24.6846 17.125 25.375V31.625C17.125 32.3154 17.6846 32.875 18.375 32.875H29.625C30.3154 32.875 30.875 32.3154 30.875 31.625V25.375Z" fill="#999999"></path><line x1="42.5" y1="15.5" x2="42.5" y2="36.5" stroke="#262626"></line><path d="M50.84 30.5V20.7H54.221C54.7063 20.7 55.1473 20.8003 55.544 21.001C55.9453 21.197 56.2627 21.484 56.496 21.862C56.7293 22.24 56.846 22.6927 56.846 23.22C56.846 23.5047 56.797 23.78 56.699 24.046C56.6057 24.3073 56.475 24.5337 56.307 24.725C56.1437 24.9117 55.957 25.0377 55.747 25.103C56.041 25.1777 56.2907 25.3107 56.496 25.502C56.7013 25.6887 56.867 25.908 56.993 26.16C57.1237 26.412 57.217 26.6757 57.273 26.951C57.329 27.2263 57.357 27.4923 57.357 27.749C57.357 28.2903 57.2333 28.7687 56.986 29.184C56.7433 29.5947 56.4167 29.9167 56.006 30.15C55.5953 30.3833 55.1427 30.5 54.648 30.5H50.84ZM52.016 29.464H54.543C54.865 29.464 55.1567 29.3823 55.418 29.219C55.684 29.051 55.8963 28.8223 56.055 28.533C56.2137 28.2437 56.293 27.917 56.293 27.553C56.293 27.231 56.2137 26.9277 56.055 26.643C55.8963 26.3537 55.684 26.1203 55.418 25.943C55.1567 25.7657 54.865 25.677 54.543 25.677H52.016V29.464ZM52.016 24.662H54.109C54.5383 24.662 54.9047 24.536 55.208 24.284C55.516 24.0273 55.67 23.6703 55.67 23.213C55.67 22.7183 55.516 22.3497 55.208 22.107C54.9047 21.8597 54.5383 21.736 54.109 21.736H52.016V24.662ZM58.312 27.84V23.5H59.488V27.581C59.488 27.9357 59.5743 28.2577 59.747 28.547C59.9196 28.8363 60.1506 29.0673 60.44 29.24C60.734 29.408 61.056 29.492 61.406 29.492C61.7606 29.492 62.0803 29.408 62.365 29.24C62.6543 29.0673 62.8853 28.8363 63.058 28.547C63.2306 28.2577 63.317 27.9357 63.317 27.581V23.5H64.493L64.5 30.5H63.324L63.317 29.611C63.0696 29.9377 62.757 30.199 62.379 30.395C62.001 30.5863 61.5926 30.682 61.154 30.682C60.6313 30.682 60.153 30.556 59.719 30.304C59.2896 30.0473 58.9466 29.7043 58.69 29.275C58.438 28.8457 58.312 28.3673 58.312 27.84ZM65.9064 23.5H67.0824V30.5H65.9064V23.5ZM66.5084 22.359C66.3217 22.359 66.1654 22.2983 66.0394 22.177C65.9134 22.0557 65.8504 21.904 65.8504 21.722C65.8504 21.54 65.9134 21.3883 66.0394 21.267C66.1654 21.1457 66.3194 21.085 66.5014 21.085C66.6834 21.085 66.8374 21.1457 66.9634 21.267C67.0894 21.3883 67.1524 21.54 67.1524 21.722C67.1524 21.904 67.0894 22.0557 66.9634 22.177C66.8421 22.2983 66.6904 22.359 66.5084 22.359ZM68.8048 30.5V20H69.9808V30.5H68.8048ZM77.2289 20H78.4049V30.5H77.2289V29.31C76.9909 29.7207 76.6712 30.052 76.2699 30.304C75.8686 30.556 75.3972 30.682 74.8559 30.682C74.3472 30.682 73.8712 30.5863 73.4279 30.395C72.9846 30.2037 72.5926 29.94 72.2519 29.604C71.9159 29.2633 71.6522 28.8713 71.4609 28.428C71.2696 27.9847 71.1739 27.5087 71.1739 27C71.1739 26.4913 71.2696 26.0153 71.4609 25.572C71.6522 25.124 71.9159 24.732 72.2519 24.396C72.5926 24.0553 72.9846 23.7893 73.4279 23.598C73.8712 23.4067 74.3472 23.311 74.8559 23.311C75.3972 23.311 75.8686 23.437 76.2699 23.689C76.6712 23.941 76.9909 24.2723 77.2289 24.683V20ZM74.8699 29.541C75.3319 29.541 75.7309 29.429 76.0669 29.205C76.4076 28.9763 76.6689 28.6683 76.8509 28.281C77.0376 27.8937 77.1309 27.4667 77.1309 27C77.1309 26.524 77.0376 26.0947 76.8509 25.712C76.6642 25.3247 76.4006 25.019 76.0599 24.795C75.7239 24.5663 75.3272 24.452 74.8699 24.452C74.4079 24.452 73.9879 24.5663 73.6099 24.795C73.2366 25.0237 72.9379 25.3317 72.7139 25.719C72.4899 26.1017 72.3779 26.5287 72.3779 27C72.3779 27.4713 72.4922 27.9007 72.7209 28.288C72.9496 28.6707 73.2529 28.9763 73.6309 29.205C74.0089 29.429 74.4219 29.541 74.8699 29.541ZM89.4534 20.7H90.8394L87.5214 26.069V30.5H86.3454V26.069L83.0274 20.7H84.4134L86.9334 24.781L89.4534 20.7ZM93.9649 30.682C93.3209 30.682 92.7329 30.5163 92.2009 30.185C91.6736 29.8537 91.2513 29.4103 90.9339 28.855C90.6213 28.295 90.4649 27.6767 90.4649 27C90.4649 26.4867 90.5559 26.0083 90.7379 25.565C90.9199 25.117 91.1696 24.725 91.4869 24.389C91.8089 24.0483 92.1823 23.7823 92.6069 23.591C93.0316 23.3997 93.4843 23.304 93.9649 23.304C94.4923 23.304 94.9753 23.4113 95.4139 23.626C95.8573 23.836 96.2353 24.13 96.5479 24.508C96.8653 24.886 97.1009 25.3247 97.2549 25.824C97.4136 26.3233 97.4719 26.8577 97.4299 27.427H91.7179C91.7739 27.8237 91.9046 28.1783 92.1099 28.491C92.3153 28.799 92.5766 29.044 92.8939 29.226C93.2159 29.408 93.5729 29.5013 93.9649 29.506C94.3849 29.506 94.7653 29.3987 95.1059 29.184C95.4466 28.9647 95.7219 28.666 95.9319 28.288L97.1289 28.568C96.8489 29.1887 96.4266 29.6973 95.8619 30.094C95.2973 30.486 94.6649 30.682 93.9649 30.682ZM91.6829 26.503H96.2469C96.2096 26.111 96.0836 25.754 95.8689 25.432C95.6543 25.1053 95.3813 24.844 95.0499 24.648C94.7186 24.452 94.3569 24.354 93.9649 24.354C93.5729 24.354 93.2136 24.4497 92.8869 24.641C92.5603 24.8323 92.2896 25.0913 92.0749 25.418C91.8649 25.74 91.7343 26.1017 91.6829 26.503ZM104.197 23.5H105.373V30.5H104.197L104.148 29.317C103.928 29.723 103.625 30.052 103.238 30.304C102.855 30.556 102.398 30.682 101.866 30.682C101.352 30.682 100.872 30.5863 100.424 30.395C99.9755 30.199 99.5788 29.9307 99.2335 29.59C98.8928 29.2447 98.6268 28.848 98.4355 28.4C98.2442 27.952 98.1485 27.469 98.1485 26.951C98.1485 26.4517 98.2418 25.9803 98.4285 25.537C98.6152 25.0937 98.8742 24.7063 99.2055 24.375C99.5415 24.039 99.9288 23.7777 100.368 23.591C100.806 23.3997 101.278 23.304 101.782 23.304C102.332 23.304 102.815 23.4347 103.231 23.696C103.646 23.9527 103.982 24.2863 104.239 24.697L104.197 23.5ZM101.845 29.541C102.307 29.541 102.706 29.429 103.042 29.205C103.382 28.9763 103.644 28.6683 103.826 28.281C104.012 27.8937 104.106 27.4667 104.106 27C104.106 26.524 104.012 26.0947 103.826 25.712C103.639 25.3247 103.375 25.019 103.035 24.795C102.699 24.5663 102.302 24.452 101.845 24.452C101.383 24.452 100.963 24.5663 100.585 24.795C100.207 25.0237 99.9055 25.3317 99.6815 25.719C99.4622 26.1017 99.3525 26.5287 99.3525 27C99.3525 27.4713 99.4668 27.9007 99.6955 28.288C99.9242 28.6707 100.228 28.9763 100.606 29.205C100.984 29.429 101.397 29.541 101.845 29.541ZM106.772 30.5V23.5H107.948V24.375C108.195 24.0483 108.508 23.7893 108.886 23.598C109.264 23.402 109.674 23.304 110.118 23.304C110.388 23.304 110.65 23.339 110.902 23.409L110.426 24.585C110.234 24.5243 110.048 24.494 109.866 24.494C109.516 24.494 109.194 24.5803 108.9 24.753C108.61 24.921 108.379 25.1497 108.207 25.439C108.034 25.7283 107.948 26.0503 107.948 26.405V30.5H106.772Z" fill="#999999"></path><rect x="194" y="12" width="28" height="28" rx="14" fill="#1A1A1A"></rect><path d="M214.25 22.875L208 29.125L201.75 22.875" stroke="white" stroke-linecap="round" stroke-linejoin="round"></path></svg>