<svg xmlns="http://www.w3.org/2000/svg" width="313" height="68" viewBox="0 0 313 68" fill="none"><rect x="1.25" y="0.5" width="310.75" height="67" rx="7.5" fill="#1A1A1A"></rect><rect x="1.25" y="0.5" width="310.75" height="67" rx="7.5" stroke="#262626"></rect><path d="M26.267 40.234C25.589 40.234 24.935 40.129 24.305 39.919C23.675 39.703 23.123 39.397 22.649 39.001C22.181 38.605 21.848 38.134 21.65 37.588L23.063 37.057C23.183 37.393 23.405 37.687 23.729 37.939C24.059 38.185 24.446 38.377 24.89 38.515C25.334 38.653 25.793 38.722 26.267 38.722C26.807 38.722 27.308 38.635 27.77 38.461C28.238 38.281 28.616 38.032 28.904 37.714C29.192 37.396 29.336 37.024 29.336 36.598C29.336 36.16 29.186 35.803 28.886 35.527C28.586 35.245 28.202 35.023 27.734 34.861C27.266 34.693 26.777 34.564 26.267 34.474C25.397 34.33 24.617 34.126 23.927 33.862C23.243 33.592 22.7 33.217 22.298 32.737C21.902 32.257 21.704 31.624 21.704 30.838C21.704 30.106 21.914 29.467 22.334 28.921C22.76 28.375 23.321 27.952 24.017 27.652C24.713 27.352 25.463 27.202 26.267 27.202C26.933 27.202 27.578 27.307 28.202 27.517C28.832 27.721 29.387 28.021 29.867 28.417C30.347 28.813 30.692 29.296 30.902 29.866L29.471 30.388C29.351 30.046 29.126 29.752 28.796 29.506C28.472 29.254 28.088 29.062 27.644 28.93C27.206 28.792 26.747 28.723 26.267 28.723C25.733 28.717 25.235 28.804 24.773 28.984C24.311 29.164 23.936 29.413 23.648 29.731C23.36 30.049 23.216 30.418 23.216 30.838C23.216 31.342 23.348 31.729 23.612 31.999C23.882 32.263 24.248 32.461 24.71 32.593C25.172 32.725 25.691 32.842 26.267 32.944C27.083 33.082 27.839 33.301 28.535 33.601C29.231 33.895 29.789 34.288 30.209 34.78C30.635 35.272 30.848 35.878 30.848 36.598C30.848 37.33 30.635 37.969 30.209 38.515C29.789 39.061 29.231 39.484 28.535 39.784C27.839 40.084 27.083 40.234 26.267 40.234ZM36.6884 40.234C35.8604 40.234 35.1044 40.021 34.4204 39.595C33.7424 39.169 33.1994 38.599 32.7914 37.885C32.3894 37.165 32.1884 36.37 32.1884 35.5C32.1884 34.84 32.3054 34.225 32.5394 33.655C32.7734 33.079 33.0944 32.575 33.5024 32.143C33.9164 31.705 34.3964 31.363 34.9424 31.117C35.4884 30.871 36.0704 30.748 36.6884 30.748C37.3664 30.748 37.9874 30.886 38.5514 31.162C39.1214 31.432 39.6074 31.81 40.0094 32.296C40.4174 32.782 40.7204 33.346 40.9184 33.988C41.1224 34.63 41.1974 35.317 41.1434 36.049H33.7994C33.8714 36.559 34.0394 37.015 34.3034 37.417C34.5674 37.813 34.9034 38.128 35.3114 38.362C35.7254 38.596 36.1844 38.716 36.6884 38.722C37.2284 38.722 37.7174 38.584 38.1554 38.308C38.5934 38.026 38.9474 37.642 39.2174 37.156L40.7564 37.516C40.3964 38.314 39.8534 38.968 39.1274 39.478C38.4014 39.982 37.5884 40.234 36.6884 40.234ZM33.7544 34.861H39.6224C39.5744 34.357 39.4124 33.898 39.1364 33.484C38.8604 33.064 38.5094 32.728 38.0834 32.476C37.6574 32.224 37.1924 32.098 36.6884 32.098C36.1844 32.098 35.7224 32.221 35.3024 32.467C34.8824 32.713 34.5344 33.046 34.2584 33.466C33.9884 33.88 33.8204 34.345 33.7544 34.861ZM42.5722 40V26.5H44.0842V40H42.5722ZM50.1181 40.234C49.2901 40.234 48.5341 40.021 47.8501 39.595C47.1721 39.169 46.6291 38.599 46.2211 37.885C45.8191 37.165 45.6181 36.37 45.6181 35.5C45.6181 34.84 45.7351 34.225 45.9691 33.655C46.2031 33.079 46.5241 32.575 46.9321 32.143C47.3461 31.705 47.8261 31.363 48.3721 31.117C48.9181 30.871 49.5001 30.748 50.1181 30.748C50.7961 30.748 51.4171 30.886 51.9811 31.162C52.5511 31.432 53.0371 31.81 53.4391 32.296C53.8471 32.782 54.1501 33.346 54.3481 33.988C54.5521 34.63 54.6271 35.317 54.5731 36.049H47.2291C47.3011 36.559 47.4691 37.015 47.7331 37.417C47.9971 37.813 48.3331 38.128 48.7411 38.362C49.1551 38.596 49.6141 38.716 50.1181 38.722C50.6581 38.722 51.1471 38.584 51.5851 38.308C52.0231 38.026 52.3771 37.642 52.6471 37.156L54.1861 37.516C53.8261 38.314 53.2831 38.968 52.5571 39.478C51.8311 39.982 51.0181 40.234 50.1181 40.234ZM47.1841 34.861H53.0521C53.0041 34.357 52.8421 33.898 52.5661 33.484C52.2901 33.064 51.9391 32.728 51.5131 32.476C51.0871 32.224 50.6221 32.098 50.1181 32.098C49.6141 32.098 49.1521 32.221 48.7321 32.467C48.3121 32.713 47.9641 33.046 47.6881 33.466C47.4181 33.88 47.2501 34.345 47.1841 34.861ZM62.238 37.624L63.588 38.353C63.18 38.923 62.661 39.379 62.031 39.721C61.407 40.063 60.729 40.234 59.997 40.234C59.169 40.234 58.413 40.021 57.729 39.595C57.051 39.169 56.508 38.599 56.1 37.885C55.698 37.165 55.497 36.37 55.497 35.5C55.497 34.84 55.614 34.225 55.848 33.655C56.082 33.079 56.403 32.575 56.811 32.143C57.225 31.705 57.705 31.363 58.251 31.117C58.797 30.871 59.379 30.748 59.997 30.748C60.729 30.748 61.407 30.919 62.031 31.261C62.661 31.603 63.18 32.062 63.588 32.638L62.238 33.367C61.95 33.013 61.608 32.74 61.212 32.548C60.816 32.356 60.411 32.26 59.997 32.26C59.439 32.26 58.932 32.41 58.476 32.71C58.026 33.004 57.669 33.397 57.405 33.889C57.141 34.381 57.009 34.918 57.009 35.5C57.009 36.082 57.141 36.619 57.405 37.111C57.675 37.597 58.035 37.987 58.485 38.281C58.941 38.575 59.445 38.722 59.997 38.722C60.441 38.722 60.858 38.62 61.248 38.416C61.638 38.212 61.968 37.948 62.238 37.624ZM69.8748 32.512H67.8318L67.8228 40H66.3108L66.3198 32.512H64.7718V31H66.3198L66.3108 28.174H67.8228L67.8318 31H69.8748V32.512ZM75.8124 40V27.4H79.9704C80.6484 27.4 81.2574 27.565 81.7974 27.895C82.3434 28.225 82.7754 28.672 83.0934 29.236C83.4174 29.794 83.5794 30.418 83.5794 31.108C83.5794 31.81 83.4144 32.443 83.0844 33.007C82.7604 33.565 82.3224 34.009 81.7704 34.339C81.2244 34.663 80.6244 34.825 79.9704 34.825H77.3244V40H75.8124ZM77.3244 33.313H79.8354C80.2434 33.313 80.6154 33.214 80.9514 33.016C81.2934 32.812 81.5634 32.539 81.7614 32.197C81.9654 31.849 82.0674 31.459 82.0674 31.027C82.0674 30.589 81.9654 30.199 81.7614 29.857C81.5634 29.509 81.2934 29.236 80.9514 29.038C80.6154 28.834 80.2434 28.732 79.8354 28.732H77.3244V33.313ZM85.1288 40V31H86.6408V32.125C86.9588 31.705 87.3608 31.372 87.8468 31.126C88.3328 30.874 88.8608 30.748 89.4308 30.748C89.7788 30.748 90.1148 30.793 90.4388 30.883L89.8268 32.395C89.5808 32.317 89.3408 32.278 89.1068 32.278C88.6568 32.278 88.2428 32.389 87.8648 32.611C87.4928 32.827 87.1958 33.121 86.9738 33.493C86.7518 33.865 86.6408 34.279 86.6408 34.735V40H85.1288ZM95.0478 40.234C94.2198 40.234 93.4638 40.021 92.7798 39.595C92.1018 39.169 91.5588 38.599 91.1508 37.885C90.7488 37.165 90.5478 36.37 90.5478 35.5C90.5478 34.84 90.6648 34.225 90.8988 33.655C91.1328 33.079 91.4538 32.575 91.8618 32.143C92.2758 31.705 92.7558 31.363 93.3018 31.117C93.8478 30.871 94.4298 30.748 95.0478 30.748C95.8758 30.748 96.6288 30.961 97.3068 31.387C97.9908 31.813 98.5338 32.386 98.9358 33.106C99.3438 33.826 99.5478 34.624 99.5478 35.5C99.5478 36.154 99.4308 36.766 99.1968 37.336C98.9628 37.906 98.6388 38.41 98.2248 38.848C97.8168 39.28 97.3398 39.619 96.7938 39.865C96.2538 40.111 95.6718 40.234 95.0478 40.234ZM95.0478 38.722C95.6118 38.722 96.1188 38.575 96.5688 38.281C97.0248 37.981 97.3818 37.588 97.6398 37.102C97.9038 36.61 98.0358 36.076 98.0358 35.5C98.0358 34.912 97.9008 34.372 97.6308 33.88C97.3668 33.388 97.0098 32.995 96.5598 32.701C96.1098 32.407 95.6058 32.26 95.0478 32.26C94.4838 32.26 93.9768 32.41 93.5268 32.71C93.0768 33.004 92.7198 33.397 92.4558 33.889C92.1918 34.381 92.0598 34.918 92.0598 35.5C92.0598 36.1 92.1948 36.646 92.4648 37.138C92.7348 37.624 93.0978 38.011 93.5538 38.299C94.0098 38.581 94.5078 38.722 95.0478 38.722ZM102.549 44.5H101.037V31H102.549V32.539C102.855 32.011 103.263 31.585 103.773 31.261C104.283 30.931 104.889 30.766 105.591 30.766C106.245 30.766 106.857 30.889 107.427 31.135C108.003 31.381 108.507 31.723 108.939 32.161C109.371 32.593 109.71 33.094 109.956 33.664C110.202 34.234 110.325 34.846 110.325 35.5C110.325 36.154 110.202 36.769 109.956 37.345C109.71 37.921 109.371 38.428 108.939 38.866C108.507 39.298 108.003 39.637 107.427 39.883C106.857 40.129 106.245 40.252 105.591 40.252C104.889 40.252 104.283 40.09 103.773 39.766C103.263 39.436 102.855 39.007 102.549 38.479V44.5ZM105.573 32.233C104.991 32.233 104.481 32.38 104.043 32.674C103.605 32.968 103.266 33.361 103.026 33.853C102.792 34.345 102.675 34.894 102.675 35.5C102.675 36.1 102.792 36.649 103.026 37.147C103.266 37.645 103.602 38.041 104.034 38.335C104.472 38.629 104.985 38.776 105.573 38.776C106.155 38.776 106.689 38.632 107.175 38.344C107.661 38.05 108.051 37.657 108.345 37.165C108.639 36.667 108.786 36.112 108.786 35.5C108.786 34.9 108.642 34.354 108.354 33.862C108.066 33.364 107.679 32.968 107.193 32.674C106.707 32.38 106.167 32.233 105.573 32.233ZM115.737 40.234C114.909 40.234 114.153 40.021 113.469 39.595C112.791 39.169 112.248 38.599 111.84 37.885C111.438 37.165 111.237 36.37 111.237 35.5C111.237 34.84 111.354 34.225 111.588 33.655C111.822 33.079 112.143 32.575 112.551 32.143C112.965 31.705 113.445 31.363 113.991 31.117C114.537 30.871 115.119 30.748 115.737 30.748C116.415 30.748 117.036 30.886 117.6 31.162C118.17 31.432 118.656 31.81 119.058 32.296C119.466 32.782 119.769 33.346 119.967 33.988C120.171 34.63 120.246 35.317 120.192 36.049H112.848C112.92 36.559 113.088 37.015 113.352 37.417C113.616 37.813 113.952 38.128 114.36 38.362C114.774 38.596 115.233 38.716 115.737 38.722C116.277 38.722 116.766 38.584 117.204 38.308C117.642 38.026 117.996 37.642 118.266 37.156L119.805 37.516C119.445 38.314 118.902 38.968 118.176 39.478C117.45 39.982 116.637 40.234 115.737 40.234ZM112.803 34.861H118.671C118.623 34.357 118.461 33.898 118.185 33.484C117.909 33.064 117.558 32.728 117.132 32.476C116.706 32.224 116.241 32.098 115.737 32.098C115.233 32.098 114.771 32.221 114.351 32.467C113.931 32.713 113.583 33.046 113.307 33.466C113.037 33.88 112.869 34.345 112.803 34.861ZM121.709 40V31H123.221V32.125C123.539 31.705 123.941 31.372 124.427 31.126C124.913 30.874 125.441 30.748 126.011 30.748C126.359 30.748 126.695 30.793 127.019 30.883L126.407 32.395C126.161 32.317 125.921 32.278 125.687 32.278C125.237 32.278 124.823 32.389 124.445 32.611C124.073 32.827 123.776 33.121 123.554 33.493C123.332 33.865 123.221 34.279 123.221 34.735V40H121.709ZM132.945 32.512H130.902L130.893 40H129.381L129.39 32.512H127.842V31H129.39L129.381 28.174H130.893L130.902 31H132.945V32.512ZM140.513 31H142.115L137.192 44.5H135.59L137.219 40L133.988 31H135.644L137.975 37.921L140.513 31ZM157.765 27.4V28.912H153.571V40H152.059V28.912H147.874V27.4H157.765ZM164.102 31H165.704L160.781 44.5H159.179L160.808 40L157.577 31H159.233L161.564 37.921L164.102 31ZM168.731 44.5H167.219V31H168.731V32.539C169.037 32.011 169.445 31.585 169.955 31.261C170.465 30.931 171.071 30.766 171.773 30.766C172.427 30.766 173.039 30.889 173.609 31.135C174.185 31.381 174.689 31.723 175.121 32.161C175.553 32.593 175.892 33.094 176.138 33.664C176.384 34.234 176.507 34.846 176.507 35.5C176.507 36.154 176.384 36.769 176.138 37.345C175.892 37.921 175.553 38.428 175.121 38.866C174.689 39.298 174.185 39.637 173.609 39.883C173.039 40.129 172.427 40.252 171.773 40.252C171.071 40.252 170.465 40.09 169.955 39.766C169.445 39.436 169.037 39.007 168.731 38.479V44.5ZM171.755 32.233C171.173 32.233 170.663 32.38 170.225 32.674C169.787 32.968 169.448 33.361 169.208 33.853C168.974 34.345 168.857 34.894 168.857 35.5C168.857 36.1 168.974 36.649 169.208 37.147C169.448 37.645 169.784 38.041 170.216 38.335C170.654 38.629 171.167 38.776 171.755 38.776C172.337 38.776 172.871 38.632 173.357 38.344C173.843 38.05 174.233 37.657 174.527 37.165C174.821 36.667 174.968 36.112 174.968 35.5C174.968 34.9 174.824 34.354 174.536 33.862C174.248 33.364 173.861 32.968 173.375 32.674C172.889 32.38 172.349 32.233 171.755 32.233ZM181.919 40.234C181.091 40.234 180.335 40.021 179.651 39.595C178.973 39.169 178.43 38.599 178.022 37.885C177.62 37.165 177.419 36.37 177.419 35.5C177.419 34.84 177.536 34.225 177.77 33.655C178.004 33.079 178.325 32.575 178.733 32.143C179.147 31.705 179.627 31.363 180.173 31.117C180.719 30.871 181.301 30.748 181.919 30.748C182.597 30.748 183.218 30.886 183.782 31.162C184.352 31.432 184.838 31.81 185.24 32.296C185.648 32.782 185.951 33.346 186.149 33.988C186.353 34.63 186.428 35.317 186.374 36.049H179.03C179.102 36.559 179.27 37.015 179.534 37.417C179.798 37.813 180.134 38.128 180.542 38.362C180.956 38.596 181.415 38.716 181.919 38.722C182.459 38.722 182.948 38.584 183.386 38.308C183.824 38.026 184.178 37.642 184.448 37.156L185.987 37.516C185.627 38.314 185.084 38.968 184.358 39.478C183.632 39.982 182.819 40.234 181.919 40.234ZM178.985 34.861H184.853C184.805 34.357 184.643 33.898 184.367 33.484C184.091 33.064 183.74 32.728 183.314 32.476C182.888 32.224 182.423 32.098 181.919 32.098C181.415 32.098 180.953 32.221 180.533 32.467C180.113 32.713 179.765 33.046 179.489 33.466C179.219 33.88 179.051 34.345 178.985 34.861Z" fill="#666666"></path><path d="M288 30.25L280.5 37.75L273 30.25" stroke="white" stroke-width="1.5" stroke-linecap="round" stroke-linejoin="round"></path></svg>