<svg xmlns="http://www.w3.org/2000/svg" width="184" height="40" viewBox="0 0 184 40" fill="none"><rect width="40" height="40" rx="20" fill="#141414"></rect><path d="M23.1203 13.32H25.0003V10.14C24.0901 10.0454 23.1755 9.99865 22.2603 10C19.5403 10 17.6803 11.66 17.6803 14.7V17.32H14.6104V20.88H17.6803V30H21.3603V20.88H24.4203L24.8803 17.32H21.3603V15.05C21.3603 14 21.6403 13.32 23.1203 13.32Z" fill="white"></path><rect x="48" width="40" height="40" rx="20" fill="#141414"></rect><path d="M75.0585 11.6666H60.9418C60.7831 11.6644 60.6255 11.6935 60.4781 11.7522C60.3307 11.8109 60.1962 11.8981 60.0825 12.0087C59.9687 12.1194 59.8779 12.2514 59.8151 12.3971C59.7524 12.5429 59.719 12.6996 59.7168 12.8583V27.1416C59.719 27.3003 59.7524 27.457 59.8151 27.6028C59.8779 27.7486 59.9687 27.8805 60.0825 27.9912C60.1962 28.1019 60.3307 28.189 60.4781 28.2477C60.6255 28.3064 60.7831 28.3355 60.9418 28.3333H75.0585C75.2171 28.3355 75.3747 28.3064 75.5222 28.2477C75.6696 28.189 75.804 28.1019 75.9178 27.9912C76.0316 27.8805 76.1224 27.7486 76.1851 27.6028C76.2479 27.457 76.2813 27.3003 76.2835 27.1416V12.8583C76.2813 12.6996 76.2479 12.5429 76.1851 12.3971C76.1224 12.2514 76.0316 12.1194 75.9178 12.0087C75.804 11.8981 75.6696 11.8109 75.5222 11.7522C75.3747 11.6935 75.2171 11.6644 75.0585 11.6666ZM64.7418 25.6166H62.2418V18.1166H64.7418V25.6166ZM63.4918 17.0666C63.147 17.0666 62.8164 16.9297 62.5726 16.6859C62.3288 16.4421 62.1918 16.1114 62.1918 15.7666C62.1918 15.4218 62.3288 15.0912 62.5726 14.8474C62.8164 14.6036 63.147 14.4666 63.4918 14.4666C63.6749 14.4459 63.8603 14.464 64.0359 14.5199C64.2114 14.5757 64.3732 14.668 64.5107 14.7908C64.6481 14.9135 64.7581 15.0639 64.8334 15.232C64.9086 15.4002 64.9476 15.5824 64.9476 15.7666C64.9476 15.9509 64.9086 16.133 64.8334 16.3012C64.7581 16.4694 64.6481 16.6198 64.5107 16.7425C64.3732 16.8652 64.2114 16.9575 64.0359 17.0134C63.8603 17.0692 63.6749 17.0874 63.4918 17.0666ZM73.7585 25.6166H71.2585V21.5916C71.2585 20.5833 70.9001 19.925 69.9918 19.925C69.7107 19.927 69.437 20.0152 69.2075 20.1776C68.978 20.34 68.8039 20.5688 68.7085 20.8333C68.6433 21.0292 68.615 21.2354 68.6251 21.4416V25.6083H66.1251C66.1251 25.6083 66.1251 18.7916 66.1251 18.1083H68.6251V19.1666C68.8522 18.7725 69.1826 18.4479 69.5805 18.2276C69.9784 18.0074 70.4289 17.8998 70.8835 17.9166C72.5501 17.9166 73.7585 18.9916 73.7585 21.3V25.6166Z" fill="white"></path><rect x="96" width="40" height="40" rx="20" fill="#141414"></rect><path d="M124.334 14.8333C123.707 15.105 123.045 15.2847 122.367 15.3666C123.082 14.9394 123.618 14.2672 123.875 13.4749C123.203 13.875 122.468 14.1568 121.7 14.3083C121.187 13.7521 120.504 13.3818 119.759 13.2556C119.013 13.1294 118.246 13.2544 117.578 13.6109C116.911 13.9674 116.381 14.5354 116.071 15.2256C115.762 15.9159 115.69 16.6894 115.867 17.4249C114.508 17.3562 113.179 17.0024 111.966 16.3865C110.753 15.7706 109.683 14.9063 108.825 13.8499C108.525 14.3751 108.367 14.9698 108.367 15.5749C108.366 16.1369 108.504 16.6904 108.768 17.1862C109.033 17.682 109.416 18.1047 109.884 18.4166C109.34 18.4018 108.809 18.256 108.334 17.9916V18.0333C108.338 18.8207 108.614 19.5825 109.115 20.1899C109.616 20.7973 110.311 21.213 111.084 21.3666C110.786 21.4571 110.478 21.5048 110.167 21.5083C109.952 21.5058 109.737 21.4862 109.525 21.4499C109.745 22.1273 110.171 22.7192 110.743 23.1434C111.315 23.5676 112.005 23.8029 112.717 23.8166C111.515 24.7627 110.03 25.279 108.5 25.2833C108.222 25.2842 107.943 25.2675 107.667 25.2333C109.229 26.2418 111.049 26.7772 112.909 26.7749C114.192 26.7883 115.465 26.5458 116.653 26.0617C117.841 25.5775 118.921 24.8615 119.83 23.9553C120.738 23.0492 121.457 21.9711 121.944 20.784C122.431 19.5969 122.677 18.3247 122.667 17.0416C122.667 16.8999 122.667 16.7499 122.667 16.5999C123.321 16.1123 123.885 15.5145 124.334 14.8333Z" fill="white"></path><rect x="144" width="40" height="40" rx="20" fill="#141414"></rect><path d="M173.167 18.0917C173.208 16.8989 172.947 15.715 172.409 14.65C172.043 14.213 171.536 13.9181 170.975 13.8167C168.656 13.6063 166.328 13.52 164 13.5583C161.681 13.5183 159.361 13.6017 157.05 13.8083C156.593 13.8914 156.171 14.1057 155.834 14.425C155.084 15.1167 155 16.3 154.917 17.3C154.796 19.098 154.796 20.902 154.917 22.7C154.941 23.2628 155.025 23.8215 155.167 24.3667C155.267 24.7875 155.471 25.1769 155.759 25.5C156.098 25.8362 156.531 26.0627 157 26.15C158.797 26.3718 160.607 26.4637 162.417 26.425C165.334 26.4667 167.892 26.425 170.917 26.1917C171.398 26.1097 171.843 25.8829 172.192 25.5417C172.425 25.3082 172.599 25.0226 172.7 24.7083C172.998 23.7938 173.145 22.8367 173.134 21.875C173.167 21.4083 173.167 18.5917 173.167 18.0917ZM162.117 22.375V17.2167L167.05 19.8083C165.667 20.575 163.842 21.4417 162.117 22.375Z" fill="white"></path></svg>