<svg xmlns="http://www.w3.org/2000/svg" width="433" height="114" viewBox="0 0 433 114" fill="none"><path d="M1.83203 22V8H3.91203V22H1.83203ZM15.6102 15.73V22H13.5302V16.24C13.5302 15.7933 13.4202 15.3867 13.2002 15.02C12.9868 14.6533 12.6968 14.3633 12.3302 14.15C11.9702 13.93 11.5635 13.82 11.1102 13.82C10.6702 13.82 10.2668 13.93 9.90016 14.15C9.53349 14.3633 9.24016 14.6533 9.02016 15.02C8.80016 15.3867 8.69016 15.7933 8.69016 16.24V22H6.61016V12H8.69016V13.06C9.03682 12.6467 9.46349 12.32 9.97016 12.08C10.4768 11.84 11.0235 11.72 11.6102 11.72C12.3502 11.72 13.0235 11.9 13.6302 12.26C14.2368 12.62 14.7168 13.1033 15.0702 13.71C15.4302 14.3167 15.6102 14.99 15.6102 15.73ZM22.0709 22.28C21.1043 22.28 20.2209 22.0433 19.4209 21.57C18.6276 21.0967 17.9943 20.46 17.5209 19.66C17.0476 18.86 16.8109 17.9733 16.8109 17C16.8109 16.2733 16.9476 15.5933 17.2209 14.96C17.4943 14.3267 17.8709 13.77 18.3509 13.29C18.8376 12.8033 19.3976 12.4233 20.0309 12.15C20.6643 11.8767 21.3443 11.74 22.0709 11.74C22.7776 11.74 23.3909 11.9 23.9109 12.22C24.4309 12.54 24.8576 12.9567 25.1909 13.47V12H27.2709V27H25.1909V20.55C24.8576 21.0567 24.4309 21.4733 23.9109 21.8C23.3909 22.12 22.7776 22.28 22.0709 22.28ZM22.0909 13.75C21.5109 13.75 20.9809 13.8967 20.5009 14.19C20.0209 14.4833 19.6409 14.8767 19.3609 15.37C19.0809 15.8633 18.9409 16.4067 18.9409 17C18.9409 17.6067 19.0843 18.1567 19.3709 18.65C19.6576 19.1433 20.0376 19.5367 20.5109 19.83C20.9909 20.1167 21.5176 20.26 22.0909 20.26C22.6776 20.26 23.1909 20.1133 23.6309 19.82C24.0709 19.5267 24.4109 19.1333 24.6509 18.64C24.8909 18.1467 25.0109 17.6 25.0109 17C25.0109 16.4 24.8876 15.8567 24.6409 15.37C24.4009 14.8767 24.0609 14.4833 23.6209 14.19C23.1876 13.8967 22.6776 13.75 22.0909 13.75ZM29.0422 18.25V12H31.1222V17.74C31.1222 18.1867 31.2322 18.5933 31.4522 18.96C31.6722 19.3267 31.9655 19.62 32.3322 19.84C32.6989 20.0533 33.1022 20.16 33.5422 20.16C33.9889 20.16 34.3922 20.0533 34.7522 19.84C35.1189 19.62 35.4089 19.3267 35.6222 18.96C35.8422 18.5933 35.9522 18.1867 35.9522 17.74V12H38.0322L38.0422 22H35.9622L35.9522 20.92C35.6122 21.3333 35.1889 21.66 34.6822 21.9C34.1755 22.14 33.6322 22.26 33.0522 22.26C32.3122 22.26 31.6389 22.08 31.0322 21.72C30.4255 21.36 29.9422 20.8767 29.5822 20.27C29.2222 19.6633 29.0422 18.99 29.0422 18.25ZM40.0477 12H42.1277V22H40.0477V12ZM41.1077 10.55C40.7877 10.55 40.521 10.4467 40.3077 10.24C40.0943 10.0333 39.9877 9.77333 39.9877 9.46C39.9877 9.15333 40.0943 8.89667 40.3077 8.69C40.521 8.47667 40.7843 8.37 41.0977 8.37C41.4043 8.37 41.6643 8.47667 41.8777 8.69C42.091 8.89667 42.1977 9.15333 42.1977 9.46C42.1977 9.77333 42.091 10.0333 41.8777 10.24C41.671 10.4467 41.4143 10.55 41.1077 10.55ZM44.4617 22V12H46.5417V13.06C46.8884 12.6467 47.3151 12.32 47.8217 12.08C48.3284 11.84 48.8751 11.72 49.4617 11.72C49.8351 11.72 50.2051 11.77 50.5717 11.87L49.7417 13.97C49.4817 13.87 49.2217 13.82 48.9617 13.82C48.5217 13.82 48.1184 13.93 47.7517 14.15C47.3851 14.3633 47.0917 14.6533 46.8717 15.02C46.6517 15.3867 46.5417 15.7933 46.5417 16.24V22H44.4617ZM58.5969 12H60.8169L55.3369 27H53.1269L54.9369 22L51.3469 12H53.6169L55.9769 19.15L58.5969 12ZM78.2158 8V10.08H73.7558V22H71.6758V10.08H67.2258V8H78.2158ZM85.3156 12H87.5356L82.0556 27H79.8456L81.6556 22L78.0656 12H80.3356L82.6956 19.15L85.3156 12ZM91.1902 27H89.1102V12H91.1902V13.47C91.5235 12.9567 91.9502 12.54 92.4702 12.22C92.9902 11.9 93.6035 11.74 94.3102 11.74C95.0368 11.74 95.7168 11.8767 96.3502 12.15C96.9902 12.4233 97.5502 12.8033 98.0302 13.29C98.5102 13.77 98.8868 14.3267 99.1602 14.96C99.4335 15.5933 99.5702 16.2733 99.5702 17C99.5702 17.7267 99.4335 18.41 99.1602 19.05C98.8868 19.69 98.5102 20.2533 98.0302 20.74C97.5502 21.22 96.9902 21.5967 96.3502 21.87C95.7168 22.1433 95.0368 22.28 94.3102 22.28C93.6035 22.28 92.9902 22.12 92.4702 21.8C91.9502 21.4733 91.5235 21.0567 91.1902 20.55V27ZM94.2902 13.75C93.7102 13.75 93.2002 13.8967 92.7602 14.19C92.3202 14.4833 91.9768 14.8767 91.7302 15.37C91.4835 15.8567 91.3602 16.4 91.3602 17C91.3602 17.6 91.4835 18.1467 91.7302 18.64C91.9768 19.1333 92.3202 19.5267 92.7602 19.82C93.2002 20.1133 93.7102 20.26 94.2902 20.26C94.8635 20.26 95.3902 20.1167 95.8702 19.83C96.3502 19.5367 96.7335 19.1433 97.0202 18.65C97.3068 18.1567 97.4502 17.6067 97.4502 17C97.4502 16.4067 97.3068 15.8633 97.0202 15.37C96.7402 14.8767 96.3602 14.4833 95.8802 14.19C95.4002 13.8967 94.8702 13.75 94.2902 13.75ZM105.58 22.26C104.66 22.26 103.82 22.0233 103.06 21.55C102.307 21.0767 101.704 20.4433 101.25 19.65C100.804 18.85 100.58 17.9667 100.58 17C100.58 16.2667 100.71 15.5833 100.97 14.95C101.23 14.31 101.587 13.75 102.04 13.27C102.5 12.7833 103.034 12.4033 103.64 12.13C104.247 11.8567 104.894 11.72 105.58 11.72C106.347 11.72 107.05 11.88 107.69 12.2C108.33 12.5133 108.877 12.95 109.33 13.51C109.784 14.0633 110.117 14.7033 110.33 15.43C110.544 16.15 110.607 16.9167 110.52 17.73H102.81C102.897 18.19 103.064 18.6067 103.31 18.98C103.564 19.3467 103.884 19.6367 104.27 19.85C104.664 20.0633 105.1 20.1733 105.58 20.18C106.087 20.18 106.547 20.0533 106.96 19.8C107.38 19.5467 107.724 19.1967 107.99 18.75L110.1 19.24C109.7 20.1267 109.097 20.8533 108.29 21.42C107.484 21.98 106.58 22.26 105.58 22.26ZM102.74 16.14H108.42C108.354 15.66 108.184 15.2267 107.91 14.84C107.644 14.4467 107.307 14.1367 106.9 13.91C106.5 13.6767 106.06 13.56 105.58 13.56C105.107 13.56 104.667 13.6733 104.26 13.9C103.86 14.1267 103.527 14.4367 103.26 14.83C103 15.2167 102.827 15.6533 102.74 16.14Z" fill="white"></path><rect x="0.832031" y="46.5" width="431.333" height="67" rx="7.5" fill="#1A1A1A"></rect><rect x="0.832031" y="46.5" width="431.333" height="67" rx="7.5" stroke="#262626"></rect><path d="M25.849 86.234C25.171 86.234 24.517 86.129 23.887 85.919C23.257 85.703 22.705 85.397 22.231 85.001C21.763 84.605 21.43 84.134 21.232 83.588L22.645 83.057C22.765 83.393 22.987 83.687 23.311 83.939C23.641 84.185 24.028 84.377 24.472 84.515C24.916 84.653 25.375 84.722 25.849 84.722C26.389 84.722 26.89 84.635 27.352 84.461C27.82 84.281 28.198 84.032 28.486 83.714C28.774 83.396 28.918 83.024 28.918 82.598C28.918 82.16 28.768 81.803 28.468 81.527C28.168 81.245 27.784 81.023 27.316 80.861C26.848 80.693 26.359 80.564 25.849 80.474C24.979 80.33 24.199 80.126 23.509 79.862C22.825 79.592 22.282 79.217 21.88 78.737C21.484 78.257 21.286 77.624 21.286 76.838C21.286 76.106 21.496 75.467 21.916 74.921C22.342 74.375 22.903 73.952 23.599 73.652C24.295 73.352 25.045 73.202 25.849 73.202C26.515 73.202 27.16 73.307 27.784 73.517C28.414 73.721 28.969 74.021 29.449 74.417C29.929 74.813 30.274 75.296 30.484 75.866L29.053 76.388C28.933 76.046 28.708 75.752 28.378 75.506C28.054 75.254 27.67 75.062 27.226 74.93C26.788 74.792 26.329 74.723 25.849 74.723C25.315 74.717 24.817 74.804 24.355 74.984C23.893 75.164 23.518 75.413 23.23 75.731C22.942 76.049 22.798 76.418 22.798 76.838C22.798 77.342 22.93 77.729 23.194 77.999C23.464 78.263 23.83 78.461 24.292 78.593C24.754 78.725 25.273 78.842 25.849 78.944C26.665 79.082 27.421 79.301 28.117 79.601C28.813 79.895 29.371 80.288 29.791 80.78C30.217 81.272 30.43 81.878 30.43 82.598C30.43 83.33 30.217 83.969 29.791 84.515C29.371 85.061 28.813 85.484 28.117 85.784C27.421 86.084 26.665 86.234 25.849 86.234ZM36.2705 86.234C35.4425 86.234 34.6865 86.021 34.0025 85.595C33.3245 85.169 32.7815 84.599 32.3735 83.885C31.9715 83.165 31.7705 82.37 31.7705 81.5C31.7705 80.84 31.8875 80.225 32.1215 79.655C32.3555 79.079 32.6765 78.575 33.0845 78.143C33.4985 77.705 33.9785 77.363 34.5245 77.117C35.0705 76.871 35.6525 76.748 36.2705 76.748C36.9485 76.748 37.5695 76.886 38.1335 77.162C38.7035 77.432 39.1895 77.81 39.5915 78.296C39.9995 78.782 40.3025 79.346 40.5005 79.988C40.7045 80.63 40.7795 81.317 40.7255 82.049H33.3815C33.4535 82.559 33.6215 83.015 33.8855 83.417C34.1495 83.813 34.4855 84.128 34.8935 84.362C35.3075 84.596 35.7665 84.716 36.2705 84.722C36.8105 84.722 37.2995 84.584 37.7375 84.308C38.1755 84.026 38.5295 83.642 38.7995 83.156L40.3385 83.516C39.9785 84.314 39.4355 84.968 38.7095 85.478C37.9835 85.982 37.1705 86.234 36.2705 86.234ZM33.3365 80.861H39.2045C39.1565 80.357 38.9945 79.898 38.7185 79.484C38.4425 79.064 38.0915 78.728 37.6655 78.476C37.2395 78.224 36.7745 78.098 36.2705 78.098C35.7665 78.098 35.3045 78.221 34.8845 78.467C34.4645 78.713 34.1165 79.046 33.8405 79.466C33.5705 79.88 33.4025 80.345 33.3365 80.861ZM42.1542 86V72.5H43.6662V86H42.1542ZM49.7002 86.234C48.8722 86.234 48.1162 86.021 47.4322 85.595C46.7542 85.169 46.2112 84.599 45.8032 83.885C45.4012 83.165 45.2002 82.37 45.2002 81.5C45.2002 80.84 45.3172 80.225 45.5512 79.655C45.7852 79.079 46.1062 78.575 46.5142 78.143C46.9282 77.705 47.4082 77.363 47.9542 77.117C48.5002 76.871 49.0822 76.748 49.7002 76.748C50.3782 76.748 50.9992 76.886 51.5632 77.162C52.1332 77.432 52.6192 77.81 53.0212 78.296C53.4292 78.782 53.7322 79.346 53.9302 79.988C54.1342 80.63 54.2092 81.317 54.1552 82.049H46.8112C46.8832 82.559 47.0512 83.015 47.3152 83.417C47.5792 83.813 47.9152 84.128 48.3232 84.362C48.7372 84.596 49.1962 84.716 49.7002 84.722C50.2402 84.722 50.7292 84.584 51.1672 84.308C51.6052 84.026 51.9592 83.642 52.2292 83.156L53.7682 83.516C53.4082 84.314 52.8652 84.968 52.1392 85.478C51.4132 85.982 50.6002 86.234 49.7002 86.234ZM46.7662 80.861H52.6342C52.5862 80.357 52.4242 79.898 52.1482 79.484C51.8722 79.064 51.5212 78.728 51.0952 78.476C50.6692 78.224 50.2042 78.098 49.7002 78.098C49.1962 78.098 48.7342 78.221 48.3142 78.467C47.8942 78.713 47.5462 79.046 47.2702 79.466C47.0002 79.88 46.8322 80.345 46.7662 80.861ZM61.8201 83.624L63.1701 84.353C62.7621 84.923 62.2431 85.379 61.6131 85.721C60.9891 86.063 60.3111 86.234 59.5791 86.234C58.7511 86.234 57.9951 86.021 57.3111 85.595C56.6331 85.169 56.0901 84.599 55.6821 83.885C55.2801 83.165 55.0791 82.37 55.0791 81.5C55.0791 80.84 55.1961 80.225 55.4301 79.655C55.6641 79.079 55.9851 78.575 56.3931 78.143C56.8071 77.705 57.2871 77.363 57.8331 77.117C58.3791 76.871 58.9611 76.748 59.5791 76.748C60.3111 76.748 60.9891 76.919 61.6131 77.261C62.2431 77.603 62.7621 78.062 63.1701 78.638L61.8201 79.367C61.5321 79.013 61.1901 78.74 60.7941 78.548C60.3981 78.356 59.9931 78.26 59.5791 78.26C59.0211 78.26 58.5141 78.41 58.0581 78.71C57.6081 79.004 57.2511 79.397 56.9871 79.889C56.7231 80.381 56.5911 80.918 56.5911 81.5C56.5911 82.082 56.7231 82.619 56.9871 83.111C57.2571 83.597 57.6171 83.987 58.0671 84.281C58.5231 84.575 59.0271 84.722 59.5791 84.722C60.0231 84.722 60.4401 84.62 60.8301 84.416C61.2201 84.212 61.5501 83.948 61.8201 83.624ZM69.4568 78.512H67.4138L67.4048 86H65.8928L65.9018 78.512H64.3538V77H65.9018L65.8928 74.174H67.4048L67.4138 77H69.4568V78.512ZM75.6645 86V73.4H77.1765V86H75.6645ZM87.5692 80.402V86H86.0572V80.735C86.0572 80.279 85.9462 79.865 85.7242 79.493C85.5022 79.121 85.2052 78.827 84.8332 78.611C84.4612 78.389 84.0472 78.278 83.5912 78.278C83.1412 78.278 82.7272 78.389 82.3492 78.611C81.9772 78.827 81.6802 79.121 81.4582 79.493C81.2362 79.865 81.1252 80.279 81.1252 80.735V86H79.6132V77H81.1252V78.125C81.4432 77.705 81.8452 77.372 82.3312 77.126C82.8172 76.874 83.3452 76.748 83.9152 76.748C84.5872 76.748 85.1992 76.913 85.7512 77.243C86.3092 77.567 86.7502 78.005 87.0742 78.557C87.4042 79.109 87.5692 79.724 87.5692 80.402ZM93.3873 86.252C92.5173 86.252 91.7223 86.039 91.0023 85.613C90.2883 85.187 89.7183 84.614 89.2923 83.894C88.8663 83.174 88.6533 82.376 88.6533 81.5C88.6533 80.846 88.7763 80.234 89.0223 79.664C89.2683 79.094 89.6073 78.593 90.0393 78.161C90.4773 77.723 90.9813 77.381 91.5513 77.135C92.1213 76.889 92.7333 76.766 93.3873 76.766C94.0833 76.766 94.6863 76.931 95.1963 77.261C95.7123 77.585 96.1233 78.011 96.4293 78.539V77H97.9413V90.5H96.4293V84.479C96.1233 85.007 95.7123 85.436 95.1963 85.766C94.6863 86.09 94.0833 86.252 93.3873 86.252ZM93.4053 78.233C92.8113 78.233 92.2713 78.38 91.7853 78.674C91.2993 78.968 90.9123 79.364 90.6243 79.862C90.3423 80.354 90.2013 80.9 90.2013 81.5C90.2013 82.112 90.3453 82.667 90.6333 83.165C90.9273 83.657 91.3173 84.05 91.8033 84.344C92.2893 84.632 92.8233 84.776 93.4053 84.776C93.9993 84.776 94.5123 84.629 94.9443 84.335C95.3763 84.041 95.7093 83.645 95.9433 83.147C96.1833 82.649 96.3033 82.1 96.3033 81.5C96.3033 80.894 96.1833 80.345 95.9433 79.853C95.7093 79.361 95.3733 78.968 94.9353 78.674C94.5033 78.38 93.9933 78.233 93.4053 78.233ZM99.5911 82.58V77H101.103V82.247C101.103 82.703 101.214 83.117 101.436 83.489C101.658 83.861 101.955 84.158 102.327 84.38C102.705 84.596 103.119 84.704 103.569 84.704C104.025 84.704 104.436 84.596 104.802 84.38C105.174 84.158 105.471 83.861 105.693 83.489C105.915 83.117 106.026 82.703 106.026 82.247V77H107.538L107.547 86H106.035L106.026 84.857C105.708 85.277 105.306 85.613 104.82 85.865C104.334 86.111 103.809 86.234 103.245 86.234C102.573 86.234 101.958 86.072 101.4 85.748C100.848 85.418 100.407 84.977 100.077 84.425C99.7531 83.873 99.5911 83.258 99.5911 82.58ZM109.355 77H110.867V86H109.355V77ZM110.129 75.533C109.889 75.533 109.688 75.455 109.526 75.299C109.364 75.143 109.283 74.948 109.283 74.714C109.283 74.48 109.364 74.285 109.526 74.129C109.688 73.973 109.886 73.895 110.12 73.895C110.354 73.895 110.552 73.973 110.714 74.129C110.876 74.285 110.957 74.48 110.957 74.714C110.957 74.948 110.876 75.143 110.714 75.299C110.558 75.455 110.363 75.533 110.129 75.533ZM112.994 86V77H114.506V78.125C114.824 77.705 115.226 77.372 115.712 77.126C116.198 76.874 116.726 76.748 117.296 76.748C117.644 76.748 117.98 76.793 118.304 76.883L117.692 78.395C117.446 78.317 117.206 78.278 116.972 78.278C116.522 78.278 116.108 78.389 115.73 78.611C115.358 78.827 115.061 79.121 114.839 79.493C114.617 79.865 114.506 80.279 114.506 80.735V86H112.994ZM125.575 77H127.177L122.254 90.5H120.652L122.281 86L119.05 77H120.706L123.037 83.921L125.575 77ZM142.828 73.4V74.912H138.634V86H137.122V74.912H132.937V73.4H142.828ZM149.165 77H150.767L145.844 90.5H144.242L145.871 86L142.64 77H144.296L146.627 83.921L149.165 77ZM153.793 90.5H152.281V77H153.793V78.539C154.099 78.011 154.507 77.585 155.017 77.261C155.527 76.931 156.133 76.766 156.835 76.766C157.489 76.766 158.101 76.889 158.671 77.135C159.247 77.381 159.751 77.723 160.183 78.161C160.615 78.593 160.954 79.094 161.2 79.664C161.446 80.234 161.569 80.846 161.569 81.5C161.569 82.154 161.446 82.769 161.2 83.345C160.954 83.921 160.615 84.428 160.183 84.866C159.751 85.298 159.247 85.637 158.671 85.883C158.101 86.129 157.489 86.252 156.835 86.252C156.133 86.252 155.527 86.09 155.017 85.766C154.507 85.436 154.099 85.007 153.793 84.479V90.5ZM156.817 78.233C156.235 78.233 155.725 78.38 155.287 78.674C154.849 78.968 154.51 79.361 154.27 79.853C154.036 80.345 153.919 80.894 153.919 81.5C153.919 82.1 154.036 82.649 154.27 83.147C154.51 83.645 154.846 84.041 155.278 84.335C155.716 84.629 156.229 84.776 156.817 84.776C157.399 84.776 157.933 84.632 158.419 84.344C158.905 84.05 159.295 83.657 159.589 83.165C159.883 82.667 160.03 82.112 160.03 81.5C160.03 80.9 159.886 80.354 159.598 79.862C159.31 79.364 158.923 78.968 158.437 78.674C157.951 78.38 157.411 78.233 156.817 78.233ZM166.981 86.234C166.153 86.234 165.397 86.021 164.713 85.595C164.035 85.169 163.492 84.599 163.084 83.885C162.682 83.165 162.481 82.37 162.481 81.5C162.481 80.84 162.598 80.225 162.832 79.655C163.066 79.079 163.387 78.575 163.795 78.143C164.209 77.705 164.689 77.363 165.235 77.117C165.781 76.871 166.363 76.748 166.981 76.748C167.659 76.748 168.28 76.886 168.844 77.162C169.414 77.432 169.9 77.81 170.302 78.296C170.71 78.782 171.013 79.346 171.211 79.988C171.415 80.63 171.49 81.317 171.436 82.049H164.092C164.164 82.559 164.332 83.015 164.596 83.417C164.86 83.813 165.196 84.128 165.604 84.362C166.018 84.596 166.477 84.716 166.981 84.722C167.521 84.722 168.01 84.584 168.448 84.308C168.886 84.026 169.24 83.642 169.51 83.156L171.049 83.516C170.689 84.314 170.146 84.968 169.42 85.478C168.694 85.982 167.881 86.234 166.981 86.234ZM164.047 80.861H169.915C169.867 80.357 169.705 79.898 169.429 79.484C169.153 79.064 168.802 78.728 168.376 78.476C167.95 78.224 167.485 78.098 166.981 78.098C166.477 78.098 166.015 78.221 165.595 78.467C165.175 78.713 164.827 79.046 164.551 79.466C164.281 79.88 164.113 80.345 164.047 80.861Z" fill="#666666"></path><path d="M408.164 76.25L400.664 83.75L393.164 76.25" stroke="white" stroke-width="1.5" stroke-linecap="round" stroke-linejoin="round"></path></svg>