<svg xmlns="http://www.w3.org/2000/svg" width="433" height="114" viewBox="0 0 433 114" fill="none"><path d="M10.278 8H12.358V22H10.278V15.54H3.94797V22H1.86797V8H3.94797V13.46H10.278V8ZM19.0219 22.26C18.1019 22.26 17.2619 22.0233 16.5019 21.55C15.7485 21.0767 15.1452 20.4433 14.6919 19.65C14.2452 18.85 14.0219 17.9667 14.0219 17C14.0219 16.2667 14.1519 15.5833 14.4119 14.95C14.6719 14.31 15.0285 13.75 15.4819 13.27C15.9419 12.7833 16.4752 12.4033 17.0819 12.13C17.6885 11.8567 18.3352 11.72 19.0219 11.72C19.9419 11.72 20.7785 11.9567 21.5319 12.43C22.2919 12.9033 22.8952 13.54 23.3419 14.34C23.7952 15.14 24.0219 16.0267 24.0219 17C24.0219 17.7267 23.8919 18.4067 23.6319 19.04C23.3719 19.6733 23.0119 20.2333 22.5519 20.72C22.0985 21.2 21.5685 21.5767 20.9619 21.85C20.3619 22.1233 19.7152 22.26 19.0219 22.26ZM19.0219 20.18C19.5752 20.18 20.0719 20.0333 20.5119 19.74C20.9519 19.4467 21.2985 19.06 21.5519 18.58C21.8119 18.0933 21.9419 17.5667 21.9419 17C21.9419 16.42 21.8085 15.8867 21.5419 15.4C21.2819 14.9133 20.9319 14.5267 20.4919 14.24C20.0519 13.9467 19.5619 13.8 19.0219 13.8C18.4752 13.8 17.9785 13.9467 17.5319 14.24C17.0919 14.5333 16.7419 14.9233 16.4819 15.41C16.2285 15.8967 16.1019 16.4267 16.1019 17C16.1019 17.5933 16.2352 18.13 16.5019 18.61C16.7685 19.09 17.1219 19.4733 17.5619 19.76C18.0085 20.04 18.4952 20.18 19.0219 20.18ZM29.9888 22H27.9188L24.5688 12H26.6087L28.9688 19.02L31.3088 12H33.4088L35.7488 19.02L38.0988 12H40.1388L36.7988 22H34.7088L32.3488 14.93L29.9888 22ZM46.7508 22V8H51.3808C52.3474 8 53.2541 8.18333 54.1008 8.55C54.9474 8.91 55.6908 9.41333 56.3308 10.06C56.9708 10.7 57.4708 11.4433 57.8308 12.29C58.1974 13.13 58.3808 14.0333 58.3808 15C58.3808 15.9667 58.1974 16.8733 57.8308 17.72C57.4708 18.56 56.9708 19.3033 56.3308 19.95C55.6908 20.59 54.9474 21.0933 54.1008 21.46C53.2541 21.82 52.3474 22 51.3808 22H46.7508ZM48.8308 19.92H51.3808C52.0608 19.92 52.6941 19.7933 53.2808 19.54C53.8741 19.2867 54.3974 18.9333 54.8508 18.48C55.3108 18.0267 55.6674 17.5033 55.9208 16.91C56.1741 16.3167 56.3008 15.68 56.3008 15C56.3008 14.32 56.1741 13.6833 55.9208 13.09C55.6674 12.4967 55.3108 11.9733 54.8508 11.52C54.3974 11.0667 53.8741 10.7133 53.2808 10.46C52.6941 10.2067 52.0608 10.08 51.3808 10.08H48.8308V19.92ZM60.0516 12H62.1316V22H60.0516V12ZM61.1116 10.55C60.7916 10.55 60.5249 10.4467 60.3116 10.24C60.0982 10.0333 59.9916 9.77333 59.9916 9.46C59.9916 9.15333 60.0982 8.89667 60.3116 8.69C60.5249 8.47667 60.7882 8.37 61.1016 8.37C61.4082 8.37 61.6682 8.47667 61.8816 8.69C62.0949 8.89667 62.2016 9.15333 62.2016 9.46C62.2016 9.77333 62.0949 10.0333 61.8816 10.24C61.6749 10.4467 61.4182 10.55 61.1116 10.55ZM72.1384 7H74.2184V22H72.1384V20.53C71.8118 21.05 71.3851 21.47 70.8584 21.79C70.3318 22.1033 69.7151 22.26 69.0084 22.26C68.2818 22.26 67.6018 22.1233 66.9684 21.85C66.3351 21.5767 65.7751 21.2 65.2884 20.72C64.8084 20.2333 64.4318 19.6733 64.1584 19.04C63.8851 18.4067 63.7484 17.7267 63.7484 17C63.7484 16.2733 63.8851 15.5933 64.1584 14.96C64.4318 14.32 64.8084 13.76 65.2884 13.28C65.7751 12.7933 66.3351 12.4133 66.9684 12.14C67.6018 11.8667 68.2818 11.73 69.0084 11.73C69.7151 11.73 70.3318 11.89 70.8584 12.21C71.3851 12.5233 71.8118 12.9367 72.1384 13.45V7ZM69.0284 20.25C69.6151 20.25 70.1284 20.1067 70.5684 19.82C71.0084 19.5267 71.3484 19.1333 71.5884 18.64C71.8351 18.1467 71.9584 17.6 71.9584 17C71.9584 16.3933 71.8351 15.8433 71.5884 15.35C71.3418 14.8567 70.9984 14.4667 70.5584 14.18C70.1251 13.8867 69.6151 13.74 69.0284 13.74C68.4484 13.74 67.9184 13.8867 67.4384 14.18C66.9651 14.4733 66.5851 14.8667 66.2984 15.36C66.0184 15.8533 65.8784 16.4 65.8784 17C65.8784 17.6067 66.0218 18.1567 66.3084 18.65C66.6018 19.1367 66.9851 19.5267 67.4584 19.82C67.9384 20.1067 68.4618 20.25 69.0284 20.25ZM89.9988 8H92.4488L87.6688 15.68V22H85.5888V15.68L80.8188 8H83.2688L86.6288 13.41L89.9988 8ZM96.7172 22.26C95.7972 22.26 94.9572 22.0233 94.1972 21.55C93.4439 21.0767 92.8405 20.4433 92.3872 19.65C91.9405 18.85 91.7172 17.9667 91.7172 17C91.7172 16.2667 91.8472 15.5833 92.1072 14.95C92.3672 14.31 92.7239 13.75 93.1772 13.27C93.6372 12.7833 94.1705 12.4033 94.7772 12.13C95.3839 11.8567 96.0305 11.72 96.7172 11.72C97.6372 11.72 98.4739 11.9567 99.2272 12.43C99.9872 12.9033 100.591 13.54 101.037 14.34C101.491 15.14 101.717 16.0267 101.717 17C101.717 17.7267 101.587 18.4067 101.327 19.04C101.067 19.6733 100.707 20.2333 100.247 20.72C99.7939 21.2 99.2639 21.5767 98.6572 21.85C98.0572 22.1233 97.4105 22.26 96.7172 22.26ZM96.7172 20.18C97.2705 20.18 97.7672 20.0333 98.2072 19.74C98.6472 19.4467 98.9939 19.06 99.2472 18.58C99.5072 18.0933 99.6372 17.5667 99.6372 17C99.6372 16.42 99.5039 15.8867 99.2372 15.4C98.9772 14.9133 98.6272 14.5267 98.1872 14.24C97.7472 13.9467 97.2572 13.8 96.7172 13.8C96.1705 13.8 95.6739 13.9467 95.2272 14.24C94.7872 14.5333 94.4372 14.9233 94.1772 15.41C93.9239 15.8967 93.7972 16.4267 93.7972 17C93.7972 17.5933 93.9305 18.13 94.1972 18.61C94.4639 19.09 94.8172 19.4733 95.2572 19.76C95.7039 20.04 96.1905 20.18 96.7172 20.18ZM102.738 18.25V12H104.818V17.74C104.818 18.1867 104.928 18.5933 105.148 18.96C105.368 19.3267 105.661 19.62 106.028 19.84C106.394 20.0533 106.798 20.16 107.238 20.16C107.684 20.16 108.088 20.0533 108.448 19.84C108.814 19.62 109.104 19.3267 109.318 18.96C109.538 18.5933 109.648 18.1867 109.648 17.74V12H111.728L111.738 22H109.658L109.648 20.92C109.308 21.3333 108.884 21.66 108.378 21.9C107.871 22.14 107.328 22.26 106.748 22.26C106.008 22.26 105.334 22.08 104.728 21.72C104.121 21.36 103.638 20.8767 103.278 20.27C102.918 19.6633 102.738 18.99 102.738 18.25ZM126.958 8H129.038V22H126.958V15.54H120.628V22H118.548V8H120.628V13.46H126.958V8ZM135.702 22.26C134.782 22.26 133.942 22.0233 133.182 21.55C132.428 21.0767 131.825 20.4433 131.372 19.65C130.925 18.85 130.702 17.9667 130.702 17C130.702 16.2667 130.832 15.5833 131.092 14.95C131.352 14.31 131.708 13.75 132.162 13.27C132.622 12.7833 133.155 12.4033 133.762 12.13C134.368 11.8567 135.015 11.72 135.702 11.72C136.468 11.72 137.172 11.88 137.812 12.2C138.452 12.5133 138.998 12.95 139.452 13.51C139.905 14.0633 140.238 14.7033 140.452 15.43C140.665 16.15 140.728 16.9167 140.642 17.73H132.932C133.018 18.19 133.185 18.6067 133.432 18.98C133.685 19.3467 134.005 19.6367 134.392 19.85C134.785 20.0633 135.222 20.1733 135.702 20.18C136.208 20.18 136.668 20.0533 137.082 19.8C137.502 19.5467 137.845 19.1967 138.112 18.75L140.222 19.24C139.822 20.1267 139.218 20.8533 138.412 21.42C137.605 21.98 136.702 22.26 135.702 22.26ZM132.862 16.14H138.542C138.475 15.66 138.305 15.2267 138.032 14.84C137.765 14.4467 137.428 14.1367 137.022 13.91C136.622 13.6767 136.182 13.56 135.702 13.56C135.228 13.56 134.788 13.6733 134.382 13.9C133.982 14.1267 133.648 14.4367 133.382 14.83C133.122 15.2167 132.948 15.6533 132.862 16.14ZM150.058 12H152.138V22H150.048L149.968 20.55C149.675 21.0633 149.278 21.4767 148.778 21.79C148.278 22.1033 147.688 22.26 147.008 22.26C146.275 22.26 145.585 22.1233 144.938 21.85C144.291 21.57 143.721 21.1833 143.228 20.69C142.741 20.1967 142.361 19.63 142.088 18.99C141.815 18.3433 141.678 17.65 141.678 16.91C141.678 16.1967 141.811 15.5267 142.078 14.9C142.345 14.2667 142.715 13.7133 143.188 13.24C143.661 12.7667 144.208 12.3967 144.828 12.13C145.455 11.8567 146.125 11.72 146.838 11.72C147.565 11.72 148.205 11.8867 148.758 12.22C149.318 12.5467 149.781 12.9667 150.148 13.48L150.058 12ZM146.958 20.25C147.545 20.25 148.058 20.1067 148.498 19.82C148.938 19.5267 149.278 19.1333 149.518 18.64C149.765 18.1467 149.888 17.6 149.888 17C149.888 16.3933 149.765 15.8433 149.518 15.35C149.271 14.8567 148.928 14.4667 148.488 14.18C148.055 13.8867 147.545 13.74 146.958 13.74C146.378 13.74 145.848 13.8867 145.368 14.18C144.888 14.4733 144.508 14.8667 144.228 15.36C143.948 15.8533 143.808 16.4 143.808 17C143.808 17.6067 143.951 18.1567 144.238 18.65C144.531 19.1367 144.915 19.5267 145.388 19.82C145.868 20.1067 146.391 20.25 146.958 20.25ZM154.134 22V12H156.214V13.06C156.56 12.6467 156.987 12.32 157.494 12.08C158 11.84 158.547 11.72 159.134 11.72C159.507 11.72 159.877 11.77 160.244 11.87L159.414 13.97C159.154 13.87 158.894 13.82 158.634 13.82C158.194 13.82 157.79 13.93 157.424 14.15C157.057 14.3633 156.764 14.6533 156.544 15.02C156.324 15.3867 156.214 15.7933 156.214 16.24V22H154.134ZM171.148 8H173.578L178.668 22H176.468L175.498 19.34H169.228L168.268 22H166.058L171.148 8ZM169.998 17.26H174.728L172.358 10.76L169.998 17.26ZM185.642 11.72C186.616 11.72 187.499 11.9567 188.292 12.43C189.092 12.9033 189.729 13.54 190.202 14.34C190.676 15.1333 190.912 16.0167 190.912 16.99C190.912 17.7167 190.776 18.4 190.502 19.04C190.229 19.6733 189.849 20.2333 189.362 20.72C188.882 21.2 188.322 21.5767 187.682 21.85C187.049 22.1233 186.369 22.26 185.642 22.26C184.942 22.26 184.329 22.1 183.802 21.78C183.282 21.4533 182.856 21.0367 182.522 20.53V22H180.442V7H182.522V13.45C182.856 12.9367 183.282 12.52 183.802 12.2C184.329 11.88 184.942 11.72 185.642 11.72ZM185.622 20.24C186.202 20.24 186.732 20.0933 187.212 19.8C187.692 19.5067 188.072 19.1133 188.352 18.62C188.639 18.1267 188.782 17.5833 188.782 16.99C188.782 16.3833 188.639 15.8333 188.352 15.34C188.066 14.8467 187.682 14.4567 187.202 14.17C186.722 13.8767 186.196 13.73 185.622 13.73C185.042 13.73 184.532 13.8767 184.092 14.17C183.652 14.4633 183.309 14.8567 183.062 15.35C182.816 15.8433 182.692 16.39 182.692 16.99C182.692 17.59 182.816 18.1367 183.062 18.63C183.309 19.1233 183.652 19.5167 184.092 19.81C184.532 20.0967 185.042 20.24 185.622 20.24ZM196.913 22.26C195.993 22.26 195.153 22.0233 194.393 21.55C193.639 21.0767 193.036 20.4433 192.583 19.65C192.136 18.85 191.913 17.9667 191.913 17C191.913 16.2667 192.043 15.5833 192.303 14.95C192.563 14.31 192.919 13.75 193.373 13.27C193.833 12.7833 194.366 12.4033 194.973 12.13C195.579 11.8567 196.226 11.72 196.913 11.72C197.833 11.72 198.669 11.9567 199.423 12.43C200.183 12.9033 200.786 13.54 201.233 14.34C201.686 15.14 201.913 16.0267 201.913 17C201.913 17.7267 201.783 18.4067 201.523 19.04C201.263 19.6733 200.903 20.2333 200.443 20.72C199.989 21.2 199.459 21.5767 198.853 21.85C198.253 22.1233 197.606 22.26 196.913 22.26ZM196.913 20.18C197.466 20.18 197.963 20.0333 198.403 19.74C198.843 19.4467 199.189 19.06 199.443 18.58C199.703 18.0933 199.833 17.5667 199.833 17C199.833 16.42 199.699 15.8867 199.433 15.4C199.173 14.9133 198.823 14.5267 198.383 14.24C197.943 13.9467 197.453 13.8 196.913 13.8C196.366 13.8 195.869 13.9467 195.423 14.24C194.983 14.5333 194.633 14.9233 194.373 15.41C194.119 15.8967 193.993 16.4267 193.993 17C193.993 17.5933 194.126 18.13 194.393 18.61C194.659 19.09 195.013 19.4733 195.453 19.76C195.899 20.04 196.386 20.18 196.913 20.18ZM202.933 18.25V12H205.013V17.74C205.013 18.1867 205.123 18.5933 205.343 18.96C205.563 19.3267 205.856 19.62 206.223 19.84C206.589 20.0533 206.993 20.16 207.433 20.16C207.879 20.16 208.283 20.0533 208.643 19.84C209.009 19.62 209.299 19.3267 209.513 18.96C209.733 18.5933 209.843 18.1867 209.843 17.74V12H211.923L211.933 22H209.853L209.843 20.92C209.503 21.3333 209.079 21.66 208.573 21.9C208.066 22.14 207.523 22.26 206.943 22.26C206.203 22.26 205.529 22.08 204.923 21.72C204.316 21.36 203.833 20.8767 203.473 20.27C203.113 19.6633 202.933 18.99 202.933 18.25ZM219.218 14.08H217.118L217.108 22H215.028L215.038 14.08H213.448V12H215.038L215.028 8.86H217.108L217.118 12H219.218V14.08ZM231.353 22.26C230.233 22.26 229.257 21.9867 228.423 21.44C227.597 20.8933 226.953 20.16 226.493 19.24C226.04 18.3133 225.813 17.2867 225.813 16.16V8H227.893V16.16C227.893 16.8933 228.027 17.5667 228.293 18.18C228.567 18.7867 228.96 19.2733 229.473 19.64C229.993 20 230.62 20.18 231.353 20.18C232.107 20.18 232.74 20 233.253 19.64C233.767 19.2733 234.153 18.7867 234.413 18.18C234.68 17.5667 234.813 16.8933 234.813 16.16V8H236.893V16.16C236.893 17.0067 236.763 17.8 236.503 18.54C236.243 19.2733 235.87 19.92 235.383 20.48C234.897 21.04 234.313 21.4767 233.633 21.79C232.953 22.1033 232.193 22.26 231.353 22.26ZM242.29 22.19C241.763 22.1567 241.25 22.05 240.75 21.87C240.25 21.69 239.81 21.4467 239.43 21.14C239.057 20.8267 238.777 20.46 238.59 20.04L240.36 19.28C240.447 19.46 240.597 19.6367 240.81 19.81C241.03 19.9833 241.287 20.1267 241.58 20.24C241.873 20.3467 242.18 20.4 242.5 20.4C242.813 20.4 243.103 20.3567 243.37 20.27C243.643 20.1767 243.867 20.0367 244.04 19.85C244.213 19.6633 244.3 19.44 244.3 19.18C244.3 18.8867 244.2 18.66 244 18.5C243.807 18.3333 243.563 18.2067 243.27 18.12C242.977 18.0333 242.683 17.95 242.39 17.87C241.737 17.7233 241.137 17.5233 240.59 17.27C240.05 17.01 239.62 16.68 239.3 16.28C238.98 15.8733 238.82 15.3767 238.82 14.79C238.82 14.15 238.993 13.5967 239.34 13.13C239.687 12.6567 240.14 12.2933 240.7 12.04C241.267 11.7867 241.87 11.66 242.51 11.66C243.31 11.66 244.043 11.83 244.71 12.17C245.377 12.51 245.887 12.9767 246.24 13.57L244.59 14.55C244.49 14.35 244.34 14.17 244.14 14.01C243.94 13.85 243.713 13.7233 243.46 13.63C243.207 13.53 242.943 13.4733 242.67 13.46C242.33 13.4467 242.013 13.4867 241.72 13.58C241.433 13.6667 241.203 13.8067 241.03 14C240.857 14.1933 240.77 14.44 240.77 14.74C240.77 15.0333 240.873 15.2533 241.08 15.4C241.287 15.54 241.547 15.6533 241.86 15.74C242.18 15.8267 242.507 15.9233 242.84 16.03C243.433 16.2167 243.99 16.4467 244.51 16.72C245.03 16.9867 245.45 17.3167 245.77 17.71C246.09 18.1033 246.243 18.5833 246.23 19.15C246.23 19.7767 246.04 20.3267 245.66 20.8C245.287 21.2733 244.8 21.6333 244.2 21.88C243.6 22.1267 242.963 22.23 242.29 22.19ZM250.992 17.53C250.992 16.81 251.172 16.1467 251.532 15.54C251.899 14.9333 252.399 14.4567 253.032 14.11C253.392 13.9233 253.672 13.65 253.872 13.29C254.072 12.9233 254.172 12.52 254.172 12.08C254.172 11.66 254.069 11.28 253.862 10.94C253.662 10.5933 253.389 10.32 253.042 10.12C252.696 9.91333 252.312 9.81 251.892 9.81C251.479 9.81 251.099 9.91333 250.752 10.12C250.406 10.32 250.129 10.5933 249.922 10.94C249.722 11.28 249.622 11.66 249.622 12.08H247.542C247.542 11.28 247.736 10.5533 248.122 9.9C248.516 9.24 249.042 8.71333 249.702 8.32C250.369 7.92667 251.099 7.73 251.892 7.73C252.699 7.73 253.432 7.92667 254.092 8.32C254.752 8.71333 255.276 9.24 255.662 9.9C256.056 10.5533 256.252 11.28 256.252 12.08C256.252 12.9 256.052 13.6567 255.652 14.35C255.259 15.0367 254.716 15.57 254.022 15.95C253.729 16.1033 253.496 16.32 253.322 16.6C253.156 16.88 253.072 17.19 253.072 17.53H250.992ZM252.082 22.26C251.776 22.26 251.516 22.1533 251.302 21.94C251.089 21.72 250.982 21.4567 250.982 21.15C250.982 20.85 251.089 20.5967 251.302 20.39C251.516 20.1767 251.776 20.07 252.082 20.07C252.382 20.07 252.639 20.1767 252.852 20.39C253.066 20.5967 253.172 20.85 253.172 21.15C253.172 21.4567 253.066 21.72 252.852 21.94C252.639 22.1533 252.382 22.26 252.082 22.26Z" fill="white"></path><rect x="1.16797" y="46.5" width="431.333" height="67" rx="7.5" fill="#1A1A1A"></rect><rect x="1.16797" y="46.5" width="431.333" height="67" rx="7.5" stroke="#262626"></rect><path d="M26.185 86.234C25.507 86.234 24.853 86.129 24.223 85.919C23.593 85.703 23.041 85.397 22.567 85.001C22.099 84.605 21.766 84.134 21.568 83.588L22.981 83.057C23.101 83.393 23.323 83.687 23.647 83.939C23.977 84.185 24.364 84.377 24.808 84.515C25.252 84.653 25.711 84.722 26.185 84.722C26.725 84.722 27.226 84.635 27.688 84.461C28.156 84.281 28.534 84.032 28.822 83.714C29.11 83.396 29.254 83.024 29.254 82.598C29.254 82.16 29.104 81.803 28.804 81.527C28.504 81.245 28.12 81.023 27.652 80.861C27.184 80.693 26.695 80.564 26.185 80.474C25.315 80.33 24.535 80.126 23.845 79.862C23.161 79.592 22.618 79.217 22.216 78.737C21.82 78.257 21.622 77.624 21.622 76.838C21.622 76.106 21.832 75.467 22.252 74.921C22.678 74.375 23.239 73.952 23.935 73.652C24.631 73.352 25.381 73.202 26.185 73.202C26.851 73.202 27.496 73.307 28.12 73.517C28.75 73.721 29.305 74.021 29.785 74.417C30.265 74.813 30.61 75.296 30.82 75.866L29.389 76.388C29.269 76.046 29.044 75.752 28.714 75.506C28.39 75.254 28.006 75.062 27.562 74.93C27.124 74.792 26.665 74.723 26.185 74.723C25.651 74.717 25.153 74.804 24.691 74.984C24.229 75.164 23.854 75.413 23.566 75.731C23.278 76.049 23.134 76.418 23.134 76.838C23.134 77.342 23.266 77.729 23.53 77.999C23.8 78.263 24.166 78.461 24.628 78.593C25.09 78.725 25.609 78.842 26.185 78.944C27.001 79.082 27.757 79.301 28.453 79.601C29.149 79.895 29.707 80.288 30.127 80.78C30.553 81.272 30.766 81.878 30.766 82.598C30.766 83.33 30.553 83.969 30.127 84.515C29.707 85.061 29.149 85.484 28.453 85.784C27.757 86.084 27.001 86.234 26.185 86.234ZM36.6064 86.234C35.7784 86.234 35.0224 86.021 34.3384 85.595C33.6604 85.169 33.1174 84.599 32.7094 83.885C32.3074 83.165 32.1064 82.37 32.1064 81.5C32.1064 80.84 32.2234 80.225 32.4574 79.655C32.6914 79.079 33.0124 78.575 33.4204 78.143C33.8344 77.705 34.3144 77.363 34.8604 77.117C35.4064 76.871 35.9884 76.748 36.6064 76.748C37.2844 76.748 37.9054 76.886 38.4694 77.162C39.0394 77.432 39.5254 77.81 39.9274 78.296C40.3354 78.782 40.6384 79.346 40.8364 79.988C41.0404 80.63 41.1154 81.317 41.0614 82.049H33.7174C33.7894 82.559 33.9574 83.015 34.2214 83.417C34.4854 83.813 34.8214 84.128 35.2294 84.362C35.6434 84.596 36.1024 84.716 36.6064 84.722C37.1464 84.722 37.6354 84.584 38.0734 84.308C38.5114 84.026 38.8654 83.642 39.1354 83.156L40.6744 83.516C40.3144 84.314 39.7714 84.968 39.0454 85.478C38.3194 85.982 37.5064 86.234 36.6064 86.234ZM33.6724 80.861H39.5404C39.4924 80.357 39.3304 79.898 39.0544 79.484C38.7784 79.064 38.4274 78.728 38.0014 78.476C37.5754 78.224 37.1104 78.098 36.6064 78.098C36.1024 78.098 35.6404 78.221 35.2204 78.467C34.8004 78.713 34.4524 79.046 34.1764 79.466C33.9064 79.88 33.7384 80.345 33.6724 80.861ZM42.4902 86V72.5H44.0022V86H42.4902ZM50.0361 86.234C49.2081 86.234 48.4521 86.021 47.7681 85.595C47.0901 85.169 46.5471 84.599 46.1391 83.885C45.7371 83.165 45.5361 82.37 45.5361 81.5C45.5361 80.84 45.6531 80.225 45.8871 79.655C46.1211 79.079 46.4421 78.575 46.8501 78.143C47.2641 77.705 47.7441 77.363 48.2901 77.117C48.8361 76.871 49.4181 76.748 50.0361 76.748C50.7141 76.748 51.3351 76.886 51.8991 77.162C52.4691 77.432 52.9551 77.81 53.3571 78.296C53.7651 78.782 54.0681 79.346 54.2661 79.988C54.4701 80.63 54.5451 81.317 54.4911 82.049H47.1471C47.2191 82.559 47.3871 83.015 47.6511 83.417C47.9151 83.813 48.2511 84.128 48.6591 84.362C49.0731 84.596 49.5321 84.716 50.0361 84.722C50.5761 84.722 51.0651 84.584 51.5031 84.308C51.9411 84.026 52.2951 83.642 52.5651 83.156L54.1041 83.516C53.7441 84.314 53.2011 84.968 52.4751 85.478C51.7491 85.982 50.9361 86.234 50.0361 86.234ZM47.1021 80.861H52.9701C52.9221 80.357 52.7601 79.898 52.4841 79.484C52.2081 79.064 51.8571 78.728 51.4311 78.476C51.0051 78.224 50.5401 78.098 50.0361 78.098C49.5321 78.098 49.0701 78.221 48.6501 78.467C48.2301 78.713 47.8821 79.046 47.6061 79.466C47.3361 79.88 47.1681 80.345 47.1021 80.861ZM62.156 83.624L63.506 84.353C63.098 84.923 62.579 85.379 61.949 85.721C61.325 86.063 60.647 86.234 59.915 86.234C59.087 86.234 58.331 86.021 57.647 85.595C56.969 85.169 56.426 84.599 56.018 83.885C55.616 83.165 55.415 82.37 55.415 81.5C55.415 80.84 55.532 80.225 55.766 79.655C56 79.079 56.321 78.575 56.729 78.143C57.143 77.705 57.623 77.363 58.169 77.117C58.715 76.871 59.297 76.748 59.915 76.748C60.647 76.748 61.325 76.919 61.949 77.261C62.579 77.603 63.098 78.062 63.506 78.638L62.156 79.367C61.868 79.013 61.526 78.74 61.13 78.548C60.734 78.356 60.329 78.26 59.915 78.26C59.357 78.26 58.85 78.41 58.394 78.71C57.944 79.004 57.587 79.397 57.323 79.889C57.059 80.381 56.927 80.918 56.927 81.5C56.927 82.082 57.059 82.619 57.323 83.111C57.593 83.597 57.953 83.987 58.403 84.281C58.859 84.575 59.363 84.722 59.915 84.722C60.359 84.722 60.776 84.62 61.166 84.416C61.556 84.212 61.886 83.948 62.156 83.624ZM69.7928 78.512H67.7498L67.7408 86H66.2288L66.2378 78.512H64.6898V77H66.2378L66.2288 74.174H67.7408L67.7498 77H69.7928V78.512Z" fill="#666666"></path><path d="M408.5 76.25L401 83.75L393.5 76.25" stroke="white" stroke-width="1.5" stroke-linecap="round" stroke-linejoin="round"></path></svg>