<svg xmlns="http://www.w3.org/2000/svg" width="330" height="124" viewBox="0 0 330 124" fill="none"><rect x="0.5" y="0.5" width="59" height="59" rx="29.5" fill="#141414"></rect><rect x="0.5" y="0.5" width="59" height="59" rx="29.5" stroke="#703BF7"></rect><path fill-rule="evenodd" clip-rule="evenodd" d="M25.625 23.875C25.625 21.4588 27.5838 19.5 30 19.5C32.4162 19.5 34.375 21.4588 34.375 23.875C34.375 26.2912 32.4162 28.25 30 28.25C27.5838 28.25 25.625 26.2912 25.625 23.875Z" fill="#A685FA"></path><path fill-rule="evenodd" clip-rule="evenodd" d="M34.375 27.375C34.375 25.442 35.942 23.875 37.875 23.875C39.808 23.875 41.375 25.442 41.375 27.375C41.375 29.308 39.808 30.875 37.875 30.875C35.942 30.875 34.375 29.308 34.375 27.375Z" fill="#A685FA"></path><path fill-rule="evenodd" clip-rule="evenodd" d="M18.625 27.375C18.625 25.442 20.192 23.875 22.125 23.875C24.058 23.875 25.625 25.442 25.625 27.375C25.625 29.308 24.058 30.875 22.125 30.875C20.192 30.875 18.625 29.308 18.625 27.375Z" fill="#A685FA"></path><path fill-rule="evenodd" clip-rule="evenodd" d="M23.3615 33.6371C24.7591 31.4518 27.2097 30 30 30C32.7906 30 35.2415 31.4522 36.639 33.6379C37.6052 35.149 38.0232 36.9711 37.8271 38.7476C37.7965 39.0252 37.6351 39.2715 37.3929 39.4105C35.2143 40.6606 32.6893 41.375 30 41.375C27.3107 41.375 24.7857 40.6606 22.6071 39.4105C22.3649 39.2715 22.2035 39.0252 22.1729 38.7476C21.9768 36.9707 22.395 35.1483 23.3615 33.6371Z" fill="#A685FA"></path><path d="M21.9293 32.6293C21.9153 32.6509 21.9013 32.6725 21.8874 32.6942C20.7611 34.4554 20.2456 36.5528 20.4038 38.6205C19.6944 38.5128 19.0061 38.3394 18.3455 38.1068L18.2114 38.0595C17.9667 37.9734 17.7958 37.7512 17.7752 37.4926L17.7639 37.3509C17.7547 37.235 17.75 37.1179 17.75 37C17.75 34.6493 19.6039 32.7316 21.9293 32.6293Z" fill="#A685FA"></path><path d="M39.5966 38.6204C39.7548 36.5532 39.2396 34.4562 38.1136 32.6952C38.0995 32.6732 38.0854 32.6512 38.0711 32.6293C40.3963 32.7319 42.25 34.6495 42.25 37C42.25 37.1179 42.2453 37.235 42.2361 37.3509L42.2248 37.4926C42.2042 37.7512 42.0333 37.9734 41.7886 38.0595L41.6545 38.1068C40.994 38.3394 40.3058 38.5127 39.5966 38.6204Z" fill="#A685FA"></path><path d="M77.68 37.26C76.7333 37.26 75.8433 37.0733 75.01 36.7C74.1767 36.32 73.4433 35.8 72.81 35.14C72.1833 34.4733 71.69 33.7 71.33 32.82C70.9767 31.94 70.8 31 70.8 30C70.8 29 70.9767 28.06 71.33 27.18C71.69 26.3 72.1833 25.53 72.81 24.87C73.4433 24.2033 74.1767 23.6833 75.01 23.31C75.8433 22.93 76.7333 22.74 77.68 22.74C78.8133 22.74 79.8567 23.0033 80.81 23.53C81.7633 24.0567 82.5533 24.7567 83.18 25.63L81.33 26.62C80.8967 26.0733 80.36 25.6367 79.72 25.31C79.08 24.9833 78.4 24.82 77.68 24.82C77.0133 24.82 76.39 24.9567 75.81 25.23C75.23 25.5033 74.72 25.8767 74.28 26.35C73.84 26.8233 73.4967 27.3733 73.25 28C73.0033 28.6267 72.88 29.2933 72.88 30C72.88 30.7133 73.0033 31.3833 73.25 32.01C73.4967 32.63 73.84 33.18 74.28 33.66C74.7267 34.1333 75.24 34.5067 75.82 34.78C76.4 35.0467 77.02 35.18 77.68 35.18C78.4133 35.18 79.0967 35.0167 79.73 34.69C80.37 34.3567 80.9033 33.9167 81.33 33.37L83.18 34.38C82.5533 35.2533 81.7633 35.9533 80.81 36.48C79.8567 37 78.8133 37.26 77.68 37.26ZM85.1453 37V22H87.2253V37H85.1453ZM89.618 27H91.698V37H89.618V27ZM90.678 25.55C90.358 25.55 90.0913 25.4467 89.878 25.24C89.6646 25.0333 89.558 24.7733 89.558 24.46C89.558 24.1533 89.6646 23.8967 89.878 23.69C90.0913 23.4767 90.3546 23.37 90.668 23.37C90.9746 23.37 91.2346 23.4767 91.448 23.69C91.6613 23.8967 91.768 24.1533 91.768 24.46C91.768 24.7733 91.6613 25.0333 91.448 25.24C91.2413 25.4467 90.9846 25.55 90.678 25.55ZM98.3148 37.26C97.3948 37.26 96.5548 37.0233 95.7948 36.55C95.0415 36.0767 94.4382 35.4433 93.9848 34.65C93.5382 33.85 93.3148 32.9667 93.3148 32C93.3148 31.2667 93.4448 30.5833 93.7048 29.95C93.9648 29.31 94.3215 28.75 94.7748 28.27C95.2348 27.7833 95.7682 27.4033 96.3748 27.13C96.9815 26.8567 97.6282 26.72 98.3148 26.72C99.0815 26.72 99.7848 26.88 100.425 27.2C101.065 27.5133 101.612 27.95 102.065 28.51C102.518 29.0633 102.852 29.7033 103.065 30.43C103.278 31.15 103.342 31.9167 103.255 32.73H95.5448C95.6315 33.19 95.7982 33.6067 96.0448 33.98C96.2982 34.3467 96.6182 34.6367 97.0048 34.85C97.3982 35.0633 97.8348 35.1733 98.3148 35.18C98.8215 35.18 99.2815 35.0533 99.6948 34.8C100.115 34.5467 100.458 34.1967 100.725 33.75L102.835 34.24C102.435 35.1267 101.832 35.8533 101.025 36.42C100.218 36.98 99.3148 37.26 98.3148 37.26ZM95.4748 31.14H101.155C101.088 30.66 100.918 30.2267 100.645 29.84C100.378 29.4467 100.042 29.1367 99.6348 28.91C99.2348 28.6767 98.7948 28.56 98.3148 28.56C97.8415 28.56 97.4015 28.6733 96.9948 28.9C96.5948 29.1267 96.2615 29.4367 95.9948 29.83C95.7348 30.2167 95.5615 30.6533 95.4748 31.14ZM113.911 30.73V37H111.831V31.24C111.831 30.7933 111.721 30.3867 111.501 30.02C111.288 29.6533 110.998 29.3633 110.631 29.15C110.271 28.93 109.864 28.82 109.411 28.82C108.971 28.82 108.568 28.93 108.201 29.15C107.834 29.3633 107.541 29.6533 107.321 30.02C107.101 30.3867 106.991 30.7933 106.991 31.24V37H104.911V27H106.991V28.06C107.338 27.6467 107.764 27.32 108.271 27.08C108.778 26.84 109.324 26.72 109.911 26.72C110.651 26.72 111.324 26.9 111.931 27.26C112.538 27.62 113.018 28.1033 113.371 28.71C113.731 29.3167 113.911 29.99 113.911 30.73ZM121.187 29.08H119.087L119.077 37H116.997L117.007 29.08H115.417V27H117.007L116.997 23.86H119.077L119.087 27H121.187V29.08ZM122.782 29.96H129.182V32.04H122.782V29.96ZM138.071 37.26C137.124 37.26 136.234 37.0733 135.401 36.7C134.567 36.32 133.834 35.8 133.201 35.14C132.574 34.4733 132.081 33.7 131.721 32.82C131.367 31.94 131.191 31 131.191 30C131.191 29 131.367 28.06 131.721 27.18C132.081 26.3 132.574 25.53 133.201 24.87C133.834 24.2033 134.567 23.6833 135.401 23.31C136.234 22.93 137.124 22.74 138.071 22.74C139.204 22.74 140.247 23.0033 141.201 23.53C142.154 24.0567 142.944 24.7567 143.571 25.63L141.721 26.62C141.287 26.0733 140.751 25.6367 140.111 25.31C139.471 24.9833 138.791 24.82 138.071 24.82C137.404 24.82 136.781 24.9567 136.201 25.23C135.621 25.5033 135.111 25.8767 134.671 26.35C134.231 26.8233 133.887 27.3733 133.641 28C133.394 28.6267 133.271 29.2933 133.271 30C133.271 30.7133 133.394 31.3833 133.641 32.01C133.887 32.63 134.231 33.18 134.671 33.66C135.117 34.1333 135.631 34.5067 136.211 34.78C136.791 35.0467 137.411 35.18 138.071 35.18C138.804 35.18 139.487 35.0167 140.121 34.69C140.761 34.3567 141.294 33.9167 141.721 33.37L143.571 34.38C142.944 35.2533 142.154 35.9533 141.201 36.48C140.247 37 139.204 37.26 138.071 37.26ZM149.389 37.26C148.469 37.26 147.629 37.0233 146.869 36.55C146.116 36.0767 145.512 35.4433 145.059 34.65C144.612 33.85 144.389 32.9667 144.389 32C144.389 31.2667 144.519 30.5833 144.779 29.95C145.039 29.31 145.396 28.75 145.849 28.27C146.309 27.7833 146.842 27.4033 147.449 27.13C148.056 26.8567 148.702 26.72 149.389 26.72C150.156 26.72 150.859 26.88 151.499 27.2C152.139 27.5133 152.686 27.95 153.139 28.51C153.592 29.0633 153.926 29.7033 154.139 30.43C154.352 31.15 154.416 31.9167 154.329 32.73H146.619C146.706 33.19 146.872 33.6067 147.119 33.98C147.372 34.3467 147.692 34.6367 148.079 34.85C148.472 35.0633 148.909 35.1733 149.389 35.18C149.896 35.18 150.356 35.0533 150.769 34.8C151.189 34.5467 151.532 34.1967 151.799 33.75L153.909 34.24C153.509 35.1267 152.906 35.8533 152.099 36.42C151.292 36.98 150.389 37.26 149.389 37.26ZM146.549 31.14H152.229C152.162 30.66 151.992 30.2267 151.719 29.84C151.452 29.4467 151.116 29.1367 150.709 28.91C150.309 28.6767 149.869 28.56 149.389 28.56C148.916 28.56 148.476 28.6733 148.069 28.9C147.669 29.1267 147.336 29.4367 147.069 29.83C146.809 30.2167 146.636 30.6533 146.549 31.14ZM164.985 30.73V37H162.905V31.24C162.905 30.7933 162.795 30.3867 162.575 30.02C162.362 29.6533 162.072 29.3633 161.705 29.15C161.345 28.93 160.938 28.82 160.485 28.82C160.045 28.82 159.642 28.93 159.275 29.15C158.908 29.3633 158.615 29.6533 158.395 30.02C158.175 30.3867 158.065 30.7933 158.065 31.24V37H155.985V27H158.065V28.06C158.412 27.6467 158.838 27.32 159.345 27.08C159.852 26.84 160.398 26.72 160.985 26.72C161.725 26.72 162.398 26.9 163.005 27.26C163.612 27.62 164.092 28.1033 164.445 28.71C164.805 29.3167 164.985 29.99 164.985 30.73ZM172.261 29.08H170.161L170.151 37H168.071L168.081 29.08H166.491V27H168.081L168.071 23.86H170.151L170.161 27H172.261V29.08ZM174.052 37V27H176.132V28.06C176.478 27.6467 176.905 27.32 177.412 27.08C177.918 26.84 178.465 26.72 179.052 26.72C179.425 26.72 179.795 26.77 180.162 26.87L179.332 28.97C179.072 28.87 178.812 28.82 178.552 28.82C178.112 28.82 177.708 28.93 177.342 29.15C176.975 29.3633 176.682 29.6533 176.462 30.02C176.242 30.3867 176.132 30.7933 176.132 31.24V37H174.052ZM181.337 27H183.417V37H181.337V27ZM182.397 25.55C182.077 25.55 181.81 25.4467 181.597 25.24C181.383 25.0333 181.277 24.7733 181.277 24.46C181.277 24.1533 181.383 23.8967 181.597 23.69C181.81 23.4767 182.073 23.37 182.387 23.37C182.693 23.37 182.953 23.4767 183.167 23.69C183.38 23.8967 183.487 24.1533 183.487 24.46C183.487 24.7733 183.38 25.0333 183.167 25.24C182.96 25.4467 182.703 25.55 182.397 25.55ZM192.164 34.16L194.024 35.17C193.57 35.8033 192.994 36.31 192.294 36.69C191.6 37.07 190.847 37.26 190.034 37.26C189.114 37.26 188.274 37.0233 187.514 36.55C186.76 36.0767 186.157 35.4433 185.704 34.65C185.257 33.85 185.034 32.9667 185.034 32C185.034 31.2667 185.164 30.5833 185.424 29.95C185.684 29.31 186.04 28.75 186.494 28.27C186.954 27.7833 187.487 27.4033 188.094 27.13C188.7 26.8567 189.347 26.72 190.034 26.72C190.847 26.72 191.6 26.91 192.294 27.29C192.994 27.67 193.57 28.18 194.024 28.82L192.164 29.83C191.884 29.4967 191.557 29.2433 191.184 29.07C190.81 28.89 190.427 28.8 190.034 28.8C189.487 28.8 188.99 28.95 188.544 29.25C188.104 29.5433 187.754 29.9333 187.494 30.42C187.24 30.9 187.114 31.4267 187.114 32C187.114 32.5667 187.244 33.0933 187.504 33.58C187.764 34.06 188.114 34.4467 188.554 34.74C189 35.0333 189.494 35.18 190.034 35.18C190.447 35.18 190.84 35.0867 191.214 34.9C191.587 34.7133 191.904 34.4667 192.164 34.16Z" fill="white"></path><path d="M7.824 82.8H9.408L5.616 88.936V94H4.272V88.936L0.48 82.8H2.064L4.944 87.464L7.824 82.8ZM12.98 94.208C12.244 94.208 11.572 94.0187 10.964 93.64C10.3613 93.2613 9.87867 92.7547 9.516 92.12C9.15867 91.48 8.98 90.7733 8.98 90C8.98 89.4133 9.084 88.8667 9.292 88.36C9.5 87.848 9.78533 87.4 10.148 87.016C10.516 86.6267 10.9427 86.3227 11.428 86.104C11.9133 85.8853 12.4307 85.776 12.98 85.776C13.716 85.776 14.3853 85.9653 14.988 86.344C15.596 86.7227 16.0787 87.232 16.436 87.872C16.7987 88.512 16.98 89.2213 16.98 90C16.98 90.5813 16.876 91.1253 16.668 91.632C16.46 92.1387 16.172 92.5867 15.804 92.976C15.4413 93.36 15.0173 93.6613 14.532 93.88C14.052 94.0987 13.5347 94.208 12.98 94.208ZM12.98 92.864C13.4813 92.864 13.932 92.7333 14.332 92.472C14.7373 92.2053 15.0547 91.856 15.284 91.424C15.5187 90.9867 15.636 90.512 15.636 90C15.636 89.4773 15.516 88.9973 15.276 88.56C15.0413 88.1227 14.724 87.7733 14.324 87.512C13.924 87.2507 13.476 87.12 12.98 87.12C12.4787 87.12 12.028 87.2533 11.628 87.52C11.228 87.7813 10.9107 88.1307 10.676 88.568C10.4413 89.0053 10.324 89.4827 10.324 90C10.324 90.5333 10.444 91.0187 10.684 91.456C10.924 91.888 11.2467 92.232 11.652 92.488C12.0573 92.7387 12.5 92.864 12.98 92.864ZM17.8744 90.96V86H19.2184V90.664C19.2184 91.0693 19.317 91.4373 19.5144 91.768C19.7117 92.0987 19.9757 92.3627 20.3064 92.56C20.6424 92.752 21.0104 92.848 21.4104 92.848C21.8157 92.848 22.181 92.752 22.5064 92.56C22.837 92.3627 23.101 92.0987 23.2984 91.768C23.4957 91.4373 23.5944 91.0693 23.5944 90.664V86H24.9384L24.9464 94H23.6024L23.5944 92.984C23.3117 93.3573 22.9544 93.656 22.5224 93.88C22.0904 94.0987 21.6237 94.208 21.1224 94.208C20.525 94.208 19.9784 94.064 19.4824 93.776C18.9917 93.4827 18.5997 93.0907 18.3064 92.6C18.0184 92.1093 17.8744 91.5627 17.8744 90.96ZM26.5538 94V86H27.8978V87C28.1804 86.6267 28.5378 86.3307 28.9698 86.112C29.4018 85.888 29.8711 85.776 30.3778 85.776C30.6871 85.776 30.9858 85.816 31.2738 85.896L30.7298 87.24C30.5111 87.1707 30.2978 87.136 30.0898 87.136C29.6898 87.136 29.3218 87.2347 28.9858 87.432C28.6551 87.624 28.3911 87.8853 28.1938 88.216C27.9964 88.5467 27.8978 88.9147 27.8978 89.32V94H26.5538ZM42.6813 82H44.0253V94H42.6813V92.64C42.4093 93.1093 42.0439 93.488 41.5853 93.776C41.1266 94.064 40.5879 94.208 39.9693 94.208C39.3879 94.208 38.8439 94.0987 38.3373 93.88C37.8306 93.6613 37.3826 93.36 36.9933 92.976C36.6093 92.5867 36.3079 92.1387 36.0893 91.632C35.8706 91.1253 35.7613 90.5813 35.7613 90C35.7613 89.4187 35.8706 88.8747 36.0893 88.368C36.3079 87.856 36.6093 87.408 36.9933 87.024C37.3826 86.6347 37.8306 86.3307 38.3373 86.112C38.8439 85.8933 39.3879 85.784 39.9693 85.784C40.5879 85.784 41.1266 85.928 41.5853 86.216C42.0439 86.504 42.4093 86.8827 42.6813 87.352V82ZM39.9852 92.904C40.5133 92.904 40.9693 92.776 41.3533 92.52C41.7426 92.2587 42.0413 91.9067 42.2493 91.464C42.4626 91.0213 42.5693 90.5333 42.5693 90C42.5693 89.456 42.4626 88.9653 42.2493 88.528C42.0359 88.0853 41.7346 87.736 41.3453 87.48C40.9613 87.2187 40.5079 87.088 39.9852 87.088C39.4573 87.088 38.9773 87.2187 38.5453 87.48C38.1186 87.7413 37.7773 88.0933 37.5213 88.536C37.2653 88.9733 37.1373 89.4613 37.1373 90C37.1373 90.5387 37.2679 91.0293 37.5293 91.472C37.7906 91.9093 38.1373 92.2587 38.5693 92.52C39.0013 92.776 39.4733 92.904 39.9852 92.904ZM45.9444 94V86H47.2884V87C47.571 86.6267 47.9284 86.3307 48.3604 86.112C48.7924 85.888 49.2617 85.776 49.7684 85.776C50.0777 85.776 50.3764 85.816 50.6644 85.896L50.1204 87.24C49.9017 87.1707 49.6884 87.136 49.4804 87.136C49.0804 87.136 48.7124 87.2347 48.3764 87.432C48.0457 87.624 47.7817 87.8853 47.5844 88.216C47.387 88.5467 47.2884 88.9147 47.2884 89.32V94H45.9444ZM54.7613 94.208C54.0253 94.208 53.3533 94.0187 52.7453 93.64C52.1426 93.2613 51.6599 92.7547 51.2973 92.12C50.9399 91.48 50.7613 90.7733 50.7613 90C50.7613 89.4133 50.8653 88.8667 51.0733 88.36C51.2813 87.848 51.5666 87.4 51.9293 87.016C52.2973 86.6267 52.7239 86.3227 53.2093 86.104C53.6946 85.8853 54.2119 85.776 54.7613 85.776C55.3639 85.776 55.9159 85.8987 56.4173 86.144C56.9239 86.384 57.3559 86.72 57.7133 87.152C58.0759 87.584 58.3453 88.0853 58.5213 88.656C58.7026 89.2267 58.7693 89.8373 58.7213 90.488H52.1933C52.2573 90.9413 52.4066 91.3467 52.6413 91.704C52.8759 92.056 53.1746 92.336 53.5373 92.544C53.9053 92.752 54.3133 92.8587 54.7613 92.864C55.2413 92.864 55.6759 92.7413 56.0653 92.496C56.4546 92.2453 56.7693 91.904 57.0093 91.472L58.3773 91.792C58.0573 92.5013 57.5746 93.0827 56.9293 93.536C56.2839 93.984 55.5613 94.208 54.7613 94.208ZM52.1533 89.432H57.3693C57.3266 88.984 57.1826 88.576 56.9373 88.208C56.6919 87.8347 56.3799 87.536 56.0013 87.312C55.6226 87.088 55.2093 86.976 54.7613 86.976C54.3133 86.976 53.9026 87.0853 53.5293 87.304C53.1559 87.5227 52.8466 87.8187 52.6013 88.192C52.3613 88.56 52.2119 88.9733 52.1533 89.432ZM66.4545 86H67.7985V94H66.4545L66.3985 92.648C66.1478 93.112 65.8012 93.488 65.3585 93.776C64.9212 94.064 64.3985 94.208 63.7905 94.208C63.2038 94.208 62.6545 94.0987 62.1425 93.88C61.6305 93.656 61.1772 93.3493 60.7825 92.96C60.3932 92.5653 60.0892 92.112 59.8705 91.6C59.6518 91.088 59.5425 90.536 59.5425 89.944C59.5425 89.3733 59.6492 88.8347 59.8625 88.328C60.0758 87.8213 60.3718 87.3787 60.7505 87C61.1345 86.616 61.5772 86.3173 62.0785 86.104C62.5798 85.8853 63.1185 85.776 63.6945 85.776C64.3238 85.776 64.8758 85.9253 65.3505 86.224C65.8252 86.5173 66.2092 86.8987 66.5025 87.368L66.4545 86ZM63.7665 92.904C64.2945 92.904 64.7505 92.776 65.1345 92.52C65.5238 92.2587 65.8225 91.9067 66.0305 91.464C66.2438 91.0213 66.3505 90.5333 66.3505 90C66.3505 89.456 66.2438 88.9653 66.0305 88.528C65.8172 88.0853 65.5158 87.736 65.1265 87.48C64.7425 87.2187 64.2892 87.088 63.7665 87.088C63.2385 87.088 62.7585 87.2187 62.3265 87.48C61.8945 87.7413 61.5505 88.0933 61.2945 88.536C61.0438 88.9733 60.9185 89.4613 60.9185 90C60.9185 90.5387 61.0492 91.0293 61.3105 91.472C61.5718 91.9093 61.9185 92.2587 62.3505 92.52C62.7825 92.776 63.2545 92.904 63.7665 92.904ZM69.3975 94V86H70.7415V87C71.0242 86.6267 71.3788 86.3307 71.8055 86.112C72.2375 85.888 72.7068 85.776 73.2135 85.776C73.8055 85.776 74.3468 85.92 74.8375 86.208C75.3282 86.496 75.7148 86.8773 75.9975 87.352C76.2802 86.8773 76.6642 86.496 77.1495 86.208C77.6402 85.92 78.1788 85.776 78.7655 85.776C79.3682 85.776 79.9148 85.9227 80.4055 86.216C80.8962 86.504 81.2855 86.8933 81.5735 87.384C81.8668 87.8747 82.0135 88.4213 82.0135 89.024V94H80.6695V89.344C80.6695 88.9493 80.5735 88.584 80.3815 88.248C80.1895 87.912 79.9308 87.6427 79.6055 87.44C79.2802 87.2373 78.9202 87.136 78.5255 87.136C78.1308 87.136 77.7708 87.232 77.4455 87.424C77.1202 87.6107 76.8615 87.872 76.6695 88.208C76.4775 88.5387 76.3815 88.9173 76.3815 89.344V94H75.0375V89.344C75.0375 88.9173 74.9415 88.5387 74.7495 88.208C74.5575 87.872 74.2962 87.6107 73.9655 87.424C73.6402 87.232 73.2802 87.136 72.8855 87.136C72.4962 87.136 72.1362 87.2373 71.8055 87.44C71.4802 87.6427 71.2215 87.912 71.0295 88.248C70.8375 88.584 70.7415 88.9493 70.7415 89.344V94H69.3975ZM86.0563 94.152C85.6243 94.136 85.2029 94.056 84.7923 93.912C84.3869 93.7627 84.0296 93.5627 83.7203 93.312C83.4163 93.056 83.1949 92.7627 83.0563 92.432L84.2083 91.936C84.2883 92.1173 84.4323 92.288 84.6403 92.448C84.8483 92.608 85.0883 92.736 85.3603 92.832C85.6323 92.928 85.9069 92.976 86.1843 92.976C86.4776 92.976 86.7523 92.9307 87.0083 92.84C87.2643 92.7493 87.4723 92.616 87.6323 92.44C87.7976 92.2587 87.8803 92.0427 87.8803 91.792C87.8803 91.5253 87.7896 91.3173 87.6083 91.168C87.4323 91.0133 87.2083 90.8933 86.9363 90.808C86.6696 90.7173 86.3976 90.632 86.1203 90.552C85.5709 90.4133 85.0803 90.248 84.6483 90.056C84.2163 89.8587 83.8749 89.6107 83.6243 89.312C83.3789 89.008 83.2563 88.6213 83.2563 88.152C83.2563 87.656 83.3923 87.2267 83.6643 86.864C83.9416 86.5013 84.3043 86.2213 84.7523 86.024C85.2003 85.8267 85.6803 85.728 86.1923 85.728C86.8376 85.728 87.4269 85.8667 87.9603 86.144C88.4936 86.4213 88.8909 86.7973 89.1523 87.272L88.0723 87.904C87.9816 87.712 87.8429 87.544 87.6562 87.4C87.4696 87.2507 87.2563 87.1333 87.0163 87.048C86.7763 86.9627 86.5309 86.9173 86.2803 86.912C85.9709 86.9013 85.6803 86.9413 85.4083 87.032C85.1416 87.1227 84.9256 87.2613 84.7603 87.448C84.6003 87.6293 84.5203 87.856 84.5203 88.128C84.5203 88.3947 84.6056 88.5973 84.7763 88.736C84.9523 88.8747 85.1789 88.9867 85.4563 89.072C85.7389 89.152 86.0456 89.2453 86.3763 89.352C86.8616 89.5067 87.3149 89.6853 87.7363 89.888C88.1576 90.0907 88.4963 90.344 88.7523 90.648C89.0136 90.952 89.1416 91.328 89.1363 91.776C89.1363 92.2667 88.9896 92.696 88.6963 93.064C88.4029 93.4267 88.0216 93.704 87.5523 93.896C87.0883 94.088 86.5896 94.1733 86.0563 94.152ZM100.783 86H102.127V94H100.783L100.727 92.648C100.476 93.112 100.129 93.488 99.6866 93.776C99.2493 94.064 98.7266 94.208 98.1186 94.208C97.532 94.208 96.9826 94.0987 96.4706 93.88C95.9586 93.656 95.5053 93.3493 95.1106 92.96C94.7213 92.5653 94.4173 92.112 94.1986 91.6C93.98 91.088 93.8706 90.536 93.8706 89.944C93.8706 89.3733 93.9773 88.8347 94.1906 88.328C94.404 87.8213 94.7 87.3787 95.0786 87C95.4626 86.616 95.9053 86.3173 96.4066 86.104C96.908 85.8853 97.4466 85.776 98.0226 85.776C98.652 85.776 99.204 85.9253 99.6786 86.224C100.153 86.5173 100.537 86.8987 100.831 87.368L100.783 86ZM98.0946 92.904C98.6226 92.904 99.0786 92.776 99.4626 92.52C99.852 92.2587 100.151 91.9067 100.359 91.464C100.572 91.0213 100.679 90.5333 100.679 90C100.679 89.456 100.572 88.9653 100.359 88.528C100.145 88.0853 99.844 87.736 99.4546 87.48C99.0706 87.2187 98.6173 87.088 98.0946 87.088C97.5666 87.088 97.0866 87.2187 96.6546 87.48C96.2226 87.7413 95.8786 88.0933 95.6226 88.536C95.372 88.9733 95.2466 89.4613 95.2466 90C95.2466 90.5387 95.3773 91.0293 95.6386 91.472C95.9 91.9093 96.2466 92.2587 96.6786 92.52C97.1106 92.776 97.5826 92.904 98.0946 92.904ZM110.798 89.024V94H109.454V89.32C109.454 88.9147 109.355 88.5467 109.158 88.216C108.96 87.8853 108.696 87.624 108.366 87.432C108.035 87.2347 107.667 87.136 107.262 87.136C106.862 87.136 106.494 87.2347 106.158 87.432C105.827 87.624 105.563 87.8853 105.366 88.216C105.168 88.5467 105.07 88.9147 105.07 89.32V94H103.726V86H105.07V87C105.352 86.6267 105.71 86.3307 106.142 86.112C106.574 85.888 107.043 85.776 107.55 85.776C108.147 85.776 108.691 85.9227 109.182 86.216C109.678 86.504 110.07 86.8933 110.358 87.384C110.651 87.8747 110.798 88.4213 110.798 89.024ZM118.681 82H120.025V94H118.681V92.64C118.409 93.1093 118.044 93.488 117.585 93.776C117.127 94.064 116.588 94.208 115.969 94.208C115.388 94.208 114.844 94.0987 114.337 93.88C113.831 93.6613 113.383 93.36 112.993 92.976C112.609 92.5867 112.308 92.1387 112.089 91.632C111.871 91.1253 111.761 90.5813 111.761 90C111.761 89.4187 111.871 88.8747 112.089 88.368C112.308 87.856 112.609 87.408 112.993 87.024C113.383 86.6347 113.831 86.3307 114.337 86.112C114.844 85.8933 115.388 85.784 115.969 85.784C116.588 85.784 117.127 85.928 117.585 86.216C118.044 86.504 118.409 86.8827 118.681 87.352V82ZM115.985 92.904C116.513 92.904 116.969 92.776 117.353 92.52C117.743 92.2587 118.041 91.9067 118.249 91.464C118.463 91.0213 118.569 90.5333 118.569 90C118.569 89.456 118.463 88.9653 118.249 88.528C118.036 88.0853 117.735 87.736 117.345 87.48C116.961 87.2187 116.508 87.088 115.985 87.088C115.457 87.088 114.977 87.2187 114.545 87.48C114.119 87.7413 113.777 88.0933 113.521 88.536C113.265 88.9733 113.137 89.4613 113.137 90C113.137 90.5387 113.268 91.0293 113.529 91.472C113.791 91.9093 114.137 92.2587 114.569 92.52C115.001 92.776 115.473 92.904 115.985 92.904ZM132.86 89.024V94H131.516V89.32C131.516 88.9147 131.417 88.5467 131.22 88.216C131.023 87.8853 130.759 87.624 130.428 87.432C130.097 87.2347 129.729 87.136 129.324 87.136C128.924 87.136 128.556 87.2347 128.22 87.432C127.889 87.624 127.625 87.8853 127.428 88.216C127.231 88.5467 127.132 88.9147 127.132 89.32V94H125.788V86H127.132V87C127.415 86.6267 127.772 86.3307 128.204 86.112C128.636 85.888 129.105 85.776 129.612 85.776C130.209 85.776 130.753 85.9227 131.244 86.216C131.74 86.504 132.132 86.8933 132.42 87.384C132.713 87.8747 132.86 88.4213 132.86 89.024ZM137.824 94.208C137.088 94.208 136.416 94.0187 135.808 93.64C135.205 93.2613 134.722 92.7547 134.36 92.12C134.002 91.48 133.824 90.7733 133.824 90C133.824 89.4133 133.928 88.8667 134.136 88.36C134.344 87.848 134.629 87.4 134.992 87.016C135.36 86.6267 135.786 86.3227 136.272 86.104C136.757 85.8853 137.274 85.776 137.824 85.776C138.426 85.776 138.978 85.8987 139.48 86.144C139.986 86.384 140.418 86.72 140.776 87.152C141.138 87.584 141.408 88.0853 141.584 88.656C141.765 89.2267 141.832 89.8373 141.784 90.488H135.256C135.32 90.9413 135.469 91.3467 135.704 91.704C135.938 92.056 136.237 92.336 136.6 92.544C136.968 92.752 137.376 92.8587 137.824 92.864C138.304 92.864 138.738 92.7413 139.128 92.496C139.517 92.2453 139.832 91.904 140.072 91.472L141.44 91.792C141.12 92.5013 140.637 93.0827 139.992 93.536C139.346 93.984 138.624 94.208 137.824 94.208ZM135.216 89.432H140.432C140.389 88.984 140.245 88.576 140 88.208C139.754 87.8347 139.442 87.536 139.064 87.312C138.685 87.088 138.272 86.976 137.824 86.976C137.376 86.976 136.965 87.0853 136.592 87.304C136.218 87.5227 135.909 87.8187 135.664 88.192C135.424 88.56 135.274 88.9733 135.216 89.432ZM146.605 94.208C145.869 94.208 145.197 94.0187 144.589 93.64C143.986 93.2613 143.504 92.7547 143.141 92.12C142.784 91.48 142.605 90.7733 142.605 90C142.605 89.4133 142.709 88.8667 142.917 88.36C143.125 87.848 143.41 87.4 143.773 87.016C144.141 86.6267 144.568 86.3227 145.053 86.104C145.538 85.8853 146.056 85.776 146.605 85.776C147.208 85.776 147.76 85.8987 148.261 86.144C148.768 86.384 149.2 86.72 149.557 87.152C149.92 87.584 150.189 88.0853 150.365 88.656C150.546 89.2267 150.613 89.8373 150.565 90.488H144.037C144.101 90.9413 144.25 91.3467 144.485 91.704C144.72 92.056 145.018 92.336 145.381 92.544C145.749 92.752 146.157 92.8587 146.605 92.864C147.085 92.864 147.52 92.7413 147.909 92.496C148.298 92.2453 148.613 91.904 148.853 91.472L150.221 91.792C149.901 92.5013 149.418 93.0827 148.773 93.536C148.128 93.984 147.405 94.208 146.605 94.208ZM143.997 89.432H149.213C149.17 88.984 149.026 88.576 148.781 88.208C148.536 87.8347 148.224 87.536 147.845 87.312C147.466 87.088 147.053 86.976 146.605 86.976C146.157 86.976 145.746 87.0853 145.373 87.304C145 87.5227 144.69 87.8187 144.445 88.192C144.205 88.56 144.056 88.9733 143.997 89.432ZM158.306 82H159.65V94H158.306V92.64C158.034 93.1093 157.669 93.488 157.21 93.776C156.752 94.064 156.213 94.208 155.594 94.208C155.013 94.208 154.469 94.0987 153.962 93.88C153.456 93.6613 153.008 93.36 152.618 92.976C152.234 92.5867 151.933 92.1387 151.714 91.632C151.496 91.1253 151.386 90.5813 151.386 90C151.386 89.4187 151.496 88.8747 151.714 88.368C151.933 87.856 152.234 87.408 152.618 87.024C153.008 86.6347 153.456 86.3307 153.962 86.112C154.469 85.8933 155.013 85.784 155.594 85.784C156.213 85.784 156.752 85.928 157.21 86.216C157.669 86.504 158.034 86.8827 158.306 87.352V82ZM155.61 92.904C156.138 92.904 156.594 92.776 156.978 92.52C157.368 92.2587 157.666 91.9067 157.874 91.464C158.088 91.0213 158.194 90.5333 158.194 90C158.194 89.456 158.088 88.9653 157.874 88.528C157.661 88.0853 157.36 87.736 156.97 87.48C156.586 87.2187 156.133 87.088 155.61 87.088C155.082 87.088 154.602 87.2187 154.17 87.48C153.744 87.7413 153.402 88.0933 153.146 88.536C152.89 88.9733 152.762 89.4613 152.762 90C152.762 90.5387 152.893 91.0293 153.154 91.472C153.416 91.9093 153.762 92.2587 154.194 92.52C154.626 92.776 155.098 92.904 155.61 92.904ZM164.009 94.152C163.577 94.136 163.156 94.056 162.745 93.912C162.34 93.7627 161.983 93.5627 161.673 93.312C161.369 93.056 161.148 92.7627 161.009 92.432L162.161 91.936C162.241 92.1173 162.385 92.288 162.593 92.448C162.801 92.608 163.041 92.736 163.313 92.832C163.585 92.928 163.86 92.976 164.137 92.976C164.431 92.976 164.705 92.9307 164.961 92.84C165.217 92.7493 165.425 92.616 165.585 92.44C165.751 92.2587 165.833 92.0427 165.833 91.792C165.833 91.5253 165.743 91.3173 165.561 91.168C165.385 91.0133 165.161 90.8933 164.889 90.808C164.623 90.7173 164.351 90.632 164.073 90.552C163.524 90.4133 163.033 90.248 162.601 90.056C162.169 89.8587 161.828 89.6107 161.577 89.312C161.332 89.008 161.209 88.6213 161.209 88.152C161.209 87.656 161.345 87.2267 161.617 86.864C161.895 86.5013 162.257 86.2213 162.705 86.024C163.153 85.8267 163.633 85.728 164.145 85.728C164.791 85.728 165.38 85.8667 165.913 86.144C166.447 86.4213 166.844 86.7973 167.105 87.272L166.025 87.904C165.935 87.712 165.796 87.544 165.609 87.4C165.423 87.2507 165.209 87.1333 164.969 87.048C164.729 86.9627 164.484 86.9173 164.233 86.912C163.924 86.9013 163.633 86.9413 163.361 87.032C163.095 87.1227 162.879 87.2613 162.713 87.448C162.553 87.6293 162.473 87.856 162.473 88.128C162.473 88.3947 162.559 88.5973 162.729 88.736C162.905 88.8747 163.132 88.9867 163.409 89.072C163.692 89.152 163.999 89.2453 164.329 89.352C164.815 89.5067 165.268 89.6853 165.689 89.888C166.111 90.0907 166.449 90.344 166.705 90.648C166.967 90.952 167.095 91.328 167.089 91.776C167.089 92.2667 166.943 92.696 166.649 93.064C166.356 93.4267 165.975 93.704 165.505 93.896C165.041 94.088 164.543 94.1733 164.009 94.152ZM178.736 86H180.08V94H178.736L178.68 92.648C178.429 93.112 178.082 93.488 177.64 93.776C177.202 94.064 176.68 94.208 176.072 94.208C175.485 94.208 174.936 94.0987 174.424 93.88C173.912 93.656 173.458 93.3493 173.064 92.96C172.674 92.5653 172.37 92.112 172.152 91.6C171.933 91.088 171.824 90.536 171.824 89.944C171.824 89.3733 171.93 88.8347 172.144 88.328C172.357 87.8213 172.653 87.3787 173.032 87C173.416 86.616 173.858 86.3173 174.36 86.104C174.861 85.8853 175.4 85.776 175.976 85.776C176.605 85.776 177.157 85.9253 177.632 86.224C178.106 86.5173 178.49 86.8987 178.784 87.368L178.736 86ZM176.048 92.904C176.576 92.904 177.032 92.776 177.416 92.52C177.805 92.2587 178.104 91.9067 178.312 91.464C178.525 91.0213 178.632 90.5333 178.632 90C178.632 89.456 178.525 88.9653 178.312 88.528C178.098 88.0853 177.797 87.736 177.408 87.48C177.024 87.2187 176.57 87.088 176.048 87.088C175.52 87.088 175.04 87.2187 174.608 87.48C174.176 87.7413 173.832 88.0933 173.576 88.536C173.325 88.9733 173.2 89.4613 173.2 90C173.2 90.5387 173.33 91.0293 173.592 91.472C173.853 91.9093 174.2 92.2587 174.632 92.52C175.064 92.776 175.536 92.904 176.048 92.904ZM181.679 94V86H183.023V87C183.305 86.6267 183.663 86.3307 184.095 86.112C184.527 85.888 184.996 85.776 185.503 85.776C185.812 85.776 186.111 85.816 186.399 85.896L185.855 87.24C185.636 87.1707 185.423 87.136 185.215 87.136C184.815 87.136 184.447 87.2347 184.111 87.432C183.78 87.624 183.516 87.8853 183.319 88.216C183.121 88.5467 183.023 88.9147 183.023 89.32V94H181.679ZM190.496 94.208C189.76 94.208 189.088 94.0187 188.48 93.64C187.877 93.2613 187.394 92.7547 187.032 92.12C186.674 91.48 186.496 90.7733 186.496 90C186.496 89.4133 186.6 88.8667 186.808 88.36C187.016 87.848 187.301 87.4 187.664 87.016C188.032 86.6267 188.458 86.3227 188.944 86.104C189.429 85.8853 189.946 85.776 190.496 85.776C191.098 85.776 191.65 85.8987 192.152 86.144C192.658 86.384 193.09 86.72 193.448 87.152C193.81 87.584 194.08 88.0853 194.256 88.656C194.437 89.2267 194.504 89.8373 194.456 90.488H187.928C187.992 90.9413 188.141 91.3467 188.376 91.704C188.61 92.056 188.909 92.336 189.272 92.544C189.64 92.752 190.048 92.8587 190.496 92.864C190.976 92.864 191.41 92.7413 191.8 92.496C192.189 92.2453 192.504 91.904 192.744 91.472L194.112 91.792C193.792 92.5013 193.309 93.0827 192.664 93.536C192.018 93.984 191.296 94.208 190.496 94.208ZM187.888 89.432H193.104C193.061 88.984 192.917 88.576 192.672 88.208C192.426 87.8347 192.114 87.536 191.736 87.312C191.357 87.088 190.944 86.976 190.496 86.976C190.048 86.976 189.637 87.0853 189.264 87.304C188.89 87.5227 188.581 87.8187 188.336 88.192C188.096 88.56 187.946 88.9733 187.888 89.432ZM206.189 86H207.533V94H206.189L206.133 92.648C205.882 93.112 205.536 93.488 205.093 93.776C204.656 94.064 204.133 94.208 203.525 94.208C202.938 94.208 202.389 94.0987 201.877 93.88C201.365 93.656 200.912 93.3493 200.517 92.96C200.128 92.5653 199.824 92.112 199.605 91.6C199.386 91.088 199.277 90.536 199.277 89.944C199.277 89.3733 199.384 88.8347 199.597 88.328C199.81 87.8213 200.106 87.3787 200.485 87C200.869 86.616 201.312 86.3173 201.813 86.104C202.314 85.8853 202.853 85.776 203.429 85.776C204.058 85.776 204.61 85.9253 205.085 86.224C205.56 86.5173 205.944 86.8987 206.237 87.368L206.189 86ZM203.501 92.904C204.029 92.904 204.485 92.776 204.869 92.52C205.258 92.2587 205.557 91.9067 205.765 91.464C205.978 91.0213 206.085 90.5333 206.085 90C206.085 89.456 205.978 88.9653 205.765 88.528C205.552 88.0853 205.25 87.736 204.861 87.48C204.477 87.2187 204.024 87.088 203.501 87.088C202.973 87.088 202.493 87.2187 202.061 87.48C201.629 87.7413 201.285 88.0933 201.029 88.536C200.778 88.9733 200.653 89.4613 200.653 90C200.653 90.5387 200.784 91.0293 201.045 91.472C201.306 91.9093 201.653 92.2587 202.085 92.52C202.517 92.776 202.989 92.904 203.501 92.904ZM213.276 87.344H211.46L211.452 94H210.108L210.116 87.344H208.74V86H210.116L210.108 83.488H211.452L211.46 86H213.276V87.344ZM222.698 87.344H220.882L220.874 94H219.53L219.538 87.344H218.162V86H219.538L219.53 83.488H220.874L220.882 86H222.698V87.344ZM231.204 89.024V94H229.86V89.32C229.86 88.9147 229.761 88.5467 229.564 88.216C229.367 87.8853 229.103 87.624 228.772 87.432C228.441 87.2347 228.073 87.136 227.668 87.136C227.268 87.136 226.9 87.2347 226.564 87.432C226.233 87.624 225.969 87.8853 225.772 88.216C225.575 88.5467 225.476 88.9147 225.476 89.32V94H224.132V82H225.476V87C225.759 86.6267 226.116 86.3307 226.548 86.112C226.98 85.888 227.449 85.776 227.956 85.776C228.553 85.776 229.097 85.9227 229.588 86.216C230.084 86.504 230.476 86.8933 230.764 87.384C231.057 87.8747 231.204 88.4213 231.204 89.024ZM236.168 94.208C235.432 94.208 234.76 94.0187 234.152 93.64C233.549 93.2613 233.066 92.7547 232.704 92.12C232.346 91.48 232.168 90.7733 232.168 90C232.168 89.4133 232.272 88.8667 232.48 88.36C232.688 87.848 232.973 87.4 233.336 87.016C233.704 86.6267 234.13 86.3227 234.616 86.104C235.101 85.8853 235.618 85.776 236.168 85.776C236.77 85.776 237.322 85.8987 237.824 86.144C238.33 86.384 238.762 86.72 239.12 87.152C239.482 87.584 239.752 88.0853 239.928 88.656C240.109 89.2267 240.176 89.8373 240.128 90.488H233.6C233.664 90.9413 233.813 91.3467 234.048 91.704C234.282 92.056 234.581 92.336 234.944 92.544C235.312 92.752 235.72 92.8587 236.168 92.864C236.648 92.864 237.082 92.7413 237.472 92.496C237.861 92.2453 238.176 91.904 238.416 91.472L239.784 91.792C239.464 92.5013 238.981 93.0827 238.336 93.536C237.69 93.984 236.968 94.208 236.168 94.208ZM233.56 89.432H238.776C238.733 88.984 238.589 88.576 238.344 88.208C238.098 87.8347 237.786 87.536 237.408 87.312C237.029 87.088 236.616 86.976 236.168 86.976C235.72 86.976 235.309 87.0853 234.936 87.304C234.562 87.5227 234.253 87.8187 234.008 88.192C233.768 88.56 233.618 88.9733 233.56 89.432ZM250.941 91.888L252.141 92.536C251.778 93.0427 251.317 93.448 250.757 93.752C250.202 94.056 249.599 94.208 248.949 94.208C248.213 94.208 247.541 94.0187 246.933 93.64C246.33 93.2613 245.847 92.7547 245.485 92.12C245.127 91.48 244.949 90.7733 244.949 90C244.949 89.4133 245.053 88.8667 245.261 88.36C245.469 87.848 245.754 87.4 246.117 87.016C246.485 86.6267 246.911 86.3227 247.397 86.104C247.882 85.8853 248.399 85.776 248.949 85.776C249.599 85.776 250.202 85.928 250.757 86.232C251.317 86.536 251.778 86.944 252.141 87.456L250.941 88.104C250.685 87.7893 250.381 87.5467 250.029 87.376C249.677 87.2053 249.317 87.12 248.949 87.12C248.453 87.12 248.002 87.2533 247.597 87.52C247.197 87.7813 246.879 88.1307 246.645 88.568C246.41 89.0053 246.293 89.4827 246.293 90C246.293 90.5173 246.41 90.9947 246.645 91.432C246.885 91.864 247.205 92.2107 247.605 92.472C248.01 92.7333 248.458 92.864 248.949 92.864C249.343 92.864 249.714 92.7733 250.061 92.592C250.407 92.4107 250.701 92.176 250.941 91.888ZM256.964 94.208C256.228 94.208 255.556 94.0187 254.948 93.64C254.346 93.2613 253.863 92.7547 253.5 92.12C253.143 91.48 252.964 90.7733 252.964 90C252.964 89.4133 253.068 88.8667 253.276 88.36C253.484 87.848 253.77 87.4 254.132 87.016C254.5 86.6267 254.927 86.3227 255.412 86.104C255.898 85.8853 256.415 85.776 256.964 85.776C257.567 85.776 258.119 85.8987 258.62 86.144C259.127 86.384 259.559 86.72 259.916 87.152C260.279 87.584 260.548 88.0853 260.724 88.656C260.906 89.2267 260.972 89.8373 260.924 90.488H254.396C254.46 90.9413 254.61 91.3467 254.844 91.704C255.079 92.056 255.378 92.336 255.74 92.544C256.108 92.752 256.516 92.8587 256.964 92.864C257.444 92.864 257.879 92.7413 258.268 92.496C258.658 92.2453 258.972 91.904 259.212 91.472L260.58 91.792C260.26 92.5013 259.778 93.0827 259.132 93.536C258.487 93.984 257.764 94.208 256.964 94.208ZM254.356 89.432H259.572C259.53 88.984 259.386 88.576 259.14 88.208C258.895 87.8347 258.583 87.536 258.204 87.312C257.826 87.088 257.412 86.976 256.964 86.976C256.516 86.976 256.106 87.0853 255.732 87.304C255.359 87.5227 255.05 87.8187 254.804 88.192C254.564 88.56 254.415 88.9733 254.356 89.432ZM269.345 89.024V94H268.001V89.32C268.001 88.9147 267.902 88.5467 267.705 88.216C267.507 87.8853 267.243 87.624 266.913 87.432C266.582 87.2347 266.214 87.136 265.809 87.136C265.409 87.136 265.041 87.2347 264.705 87.432C264.374 87.624 264.11 87.8853 263.913 88.216C263.715 88.5467 263.617 88.9147 263.617 89.32V94H262.273V86H263.617V87C263.899 86.6267 264.257 86.3307 264.689 86.112C265.121 85.888 265.59 85.776 266.097 85.776C266.694 85.776 267.238 85.9227 267.729 86.216C268.225 86.504 268.617 86.8933 268.905 87.384C269.198 87.8747 269.345 88.4213 269.345 89.024ZM275.088 87.344H273.272L273.264 94H271.92L271.928 87.344H270.552V86H271.928L271.92 83.488H273.264L273.272 86H275.088V87.344ZM279.839 94.208C279.103 94.208 278.431 94.0187 277.823 93.64C277.221 93.2613 276.738 92.7547 276.375 92.12C276.018 91.48 275.839 90.7733 275.839 90C275.839 89.4133 275.943 88.8667 276.151 88.36C276.359 87.848 276.645 87.4 277.007 87.016C277.375 86.6267 277.802 86.3227 278.287 86.104C278.773 85.8853 279.29 85.776 279.839 85.776C280.442 85.776 280.994 85.8987 281.495 86.144C282.002 86.384 282.434 86.72 282.791 87.152C283.154 87.584 283.423 88.0853 283.599 88.656C283.781 89.2267 283.847 89.8373 283.799 90.488H277.271C277.335 90.9413 277.485 91.3467 277.719 91.704C277.954 92.056 278.253 92.336 278.615 92.544C278.983 92.752 279.391 92.8587 279.839 92.864C280.319 92.864 280.754 92.7413 281.143 92.496C281.533 92.2453 281.847 91.904 282.087 91.472L283.455 91.792C283.135 92.5013 282.653 93.0827 282.007 93.536C281.362 93.984 280.639 94.208 279.839 94.208ZM277.231 89.432H282.447C282.405 88.984 282.261 88.576 282.015 88.208C281.77 87.8347 281.458 87.536 281.079 87.312C280.701 87.088 280.287 86.976 279.839 86.976C279.391 86.976 278.981 87.0853 278.607 87.304C278.234 87.5227 277.925 87.8187 277.679 88.192C277.439 88.56 277.29 88.9733 277.231 89.432ZM285.148 94V86H286.492V87C286.774 86.6267 287.132 86.3307 287.564 86.112C287.996 85.888 288.465 85.776 288.972 85.776C289.281 85.776 289.58 85.816 289.868 85.896L289.324 87.24C289.105 87.1707 288.892 87.136 288.684 87.136C288.284 87.136 287.916 87.2347 287.58 87.432C287.249 87.624 286.985 87.8853 286.788 88.216C286.59 88.5467 286.492 88.9147 286.492 89.32V94H285.148ZM298.355 94.208C297.619 94.208 296.947 94.0187 296.339 93.64C295.736 93.2613 295.254 92.7547 294.891 92.12C294.534 91.48 294.355 90.7733 294.355 90C294.355 89.4133 294.459 88.8667 294.667 88.36C294.875 87.848 295.16 87.4 295.523 87.016C295.891 86.6267 296.318 86.3227 296.803 86.104C297.288 85.8853 297.806 85.776 298.355 85.776C299.091 85.776 299.76 85.9653 300.363 86.344C300.971 86.7227 301.454 87.232 301.811 87.872C302.174 88.512 302.355 89.2213 302.355 90C302.355 90.5813 302.251 91.1253 302.043 91.632C301.835 92.1387 301.547 92.5867 301.179 92.976C300.816 93.36 300.392 93.6613 299.907 93.88C299.427 94.0987 298.91 94.208 298.355 94.208ZM298.355 92.864C298.856 92.864 299.307 92.7333 299.707 92.472C300.112 92.2053 300.43 91.856 300.659 91.424C300.894 90.9867 301.011 90.512 301.011 90C301.011 89.4773 300.891 88.9973 300.651 88.56C300.416 88.1227 300.099 87.7733 299.699 87.512C299.299 87.2507 298.851 87.12 298.355 87.12C297.854 87.12 297.403 87.2533 297.003 87.52C296.603 87.7813 296.286 88.1307 296.051 88.568C295.816 89.0053 295.699 89.4827 295.699 90C295.699 90.5333 295.819 91.0187 296.059 91.456C296.299 91.888 296.622 92.232 297.027 92.488C297.432 92.7387 297.875 92.864 298.355 92.864ZM305.604 84.024V86H307.948V87.344H305.604V94H304.26V87.344H303.228V86H304.26V84.024C304.26 83.6133 304.359 83.2427 304.556 82.912C304.759 82.576 305.028 82.3093 305.364 82.112C305.705 81.9093 306.079 81.808 306.484 81.808C306.783 81.808 307.073 81.8693 307.356 81.992C307.639 82.1093 307.889 82.2853 308.108 82.52L307.148 83.472C307.073 83.3707 306.975 83.2933 306.852 83.24C306.735 83.1813 306.612 83.152 306.484 83.152C306.244 83.152 306.036 83.2373 305.86 83.408C305.689 83.5787 305.604 83.784 305.604 84.024ZM4.48 118.208C3.744 118.208 3.072 118.019 2.464 117.64C1.86133 117.261 1.37867 116.755 1.016 116.12C0.658667 115.48 0.48 114.773 0.48 114C0.48 113.413 0.584 112.867 0.792 112.36C1 111.848 1.28533 111.4 1.648 111.016C2.016 110.627 2.44267 110.323 2.928 110.104C3.41333 109.885 3.93067 109.776 4.48 109.776C5.216 109.776 5.88533 109.965 6.488 110.344C7.096 110.723 7.57867 111.232 7.936 111.872C8.29867 112.512 8.48 113.221 8.48 114C8.48 114.581 8.376 115.125 8.168 115.632C7.96 116.139 7.672 116.587 7.304 116.976C6.94133 117.36 6.51733 117.661 6.032 117.88C5.552 118.099 5.03467 118.208 4.48 118.208ZM4.48 116.864C4.98133 116.864 5.432 116.733 5.832 116.472C6.23733 116.205 6.55467 115.856 6.784 115.424C7.01867 114.987 7.136 114.512 7.136 114C7.136 113.477 7.016 112.997 6.776 112.56C6.54133 112.123 6.224 111.773 5.824 111.512C5.424 111.251 4.976 111.12 4.48 111.12C3.97867 111.12 3.528 111.253 3.128 111.52C2.728 111.781 2.41067 112.131 2.176 112.568C1.94133 113.005 1.824 113.483 1.824 114C1.824 114.533 1.944 115.019 2.184 115.456C2.424 115.888 2.74667 116.232 3.152 116.488C3.55733 116.739 4 116.864 4.48 116.864ZM9.37438 114.96V110H10.7184V114.664C10.7184 115.069 10.817 115.437 11.0144 115.768C11.2117 116.099 11.4757 116.363 11.8064 116.56C12.1424 116.752 12.5104 116.848 12.9104 116.848C13.3157 116.848 13.681 116.752 14.0064 116.56C14.337 116.363 14.601 116.099 14.7984 115.768C14.9957 115.437 15.0944 115.069 15.0944 114.664V110H16.4384L16.4464 118H15.1024L15.0944 116.984C14.8117 117.357 14.4544 117.656 14.0224 117.88C13.5904 118.099 13.1237 118.208 12.6224 118.208C12.025 118.208 11.4784 118.064 10.9824 117.776C10.4917 117.483 10.0997 117.091 9.80638 116.6C9.51838 116.109 9.37438 115.563 9.37438 114.96ZM18.0538 118V110H19.3978V111C19.6804 110.627 20.0378 110.331 20.4698 110.112C20.9018 109.888 21.3711 109.776 21.8778 109.776C22.1871 109.776 22.4858 109.816 22.7738 109.896L22.2298 111.24C22.0111 111.171 21.7978 111.136 21.5898 111.136C21.1898 111.136 20.8218 111.235 20.4858 111.432C20.1551 111.624 19.8911 111.885 19.6938 112.216C19.4964 112.547 19.3978 112.915 19.3978 113.32V118H18.0538ZM27.4213 114.96V110H28.7653V114.664C28.7653 115.069 28.8639 115.437 29.0613 115.768C29.2586 116.099 29.5226 116.363 29.8533 116.56C30.1893 116.752 30.5573 116.848 30.9573 116.848C31.3626 116.848 31.7279 116.752 32.0533 116.56C32.3839 116.363 32.6479 116.099 32.8453 115.768C33.0426 115.437 33.1413 115.069 33.1413 114.664V110H34.4853L34.4933 118H33.1493L33.1413 116.984C32.8586 117.357 32.5013 117.656 32.0693 117.88C31.6373 118.099 31.1706 118.208 30.6693 118.208C30.0719 118.208 29.5253 118.064 29.0293 117.776C28.5386 117.483 28.1466 117.091 27.8533 116.6C27.5653 116.109 27.4213 115.563 27.4213 114.96ZM43.1726 113.024V118H41.8286V113.32C41.8286 112.915 41.73 112.547 41.5326 112.216C41.3353 111.885 41.0713 111.624 40.7406 111.432C40.41 111.235 40.042 111.136 39.6366 111.136C39.2366 111.136 38.8686 111.235 38.5326 111.432C38.202 111.624 37.938 111.885 37.7406 112.216C37.5433 112.547 37.4446 112.915 37.4446 113.32V118H36.1006V110H37.4446V111C37.7273 110.627 38.0846 110.331 38.5166 110.112C38.9486 109.888 39.418 109.776 39.9246 109.776C40.522 109.776 41.066 109.923 41.5566 110.216C42.0526 110.504 42.4446 110.893 42.7326 111.384C43.026 111.875 43.1726 112.421 43.1726 113.024ZM44.7725 110H46.1165V118H44.7725V110ZM45.4605 108.696C45.2472 108.696 45.0685 108.627 44.9245 108.488C44.7805 108.349 44.7085 108.176 44.7085 107.968C44.7085 107.76 44.7805 107.587 44.9245 107.448C45.0685 107.309 45.2445 107.24 45.4525 107.24C45.6605 107.24 45.8365 107.309 45.9805 107.448C46.1245 107.587 46.1965 107.76 46.1965 107.968C46.1965 108.176 46.1245 108.349 45.9805 108.488C45.8418 108.627 45.6685 108.696 45.4605 108.696ZM52.0575 118H50.3375L47.4175 109.984H48.8495L51.1935 116.44L53.5375 109.984H54.9695L52.0575 118ZM59.4644 118.208C58.7284 118.208 58.0564 118.019 57.4484 117.64C56.8457 117.261 56.363 116.755 56.0004 116.12C55.643 115.48 55.4644 114.773 55.4644 114C55.4644 113.413 55.5684 112.867 55.7764 112.36C55.9844 111.848 56.2697 111.4 56.6324 111.016C57.0004 110.627 57.427 110.323 57.9124 110.104C58.3977 109.885 58.915 109.776 59.4644 109.776C60.067 109.776 60.619 109.899 61.1204 110.144C61.627 110.384 62.059 110.72 62.4164 111.152C62.779 111.584 63.0484 112.085 63.2244 112.656C63.4057 113.227 63.4724 113.837 63.4244 114.488H56.8964C56.9604 114.941 57.1097 115.347 57.3444 115.704C57.579 116.056 57.8777 116.336 58.2404 116.544C58.6084 116.752 59.0164 116.859 59.4644 116.864C59.9444 116.864 60.379 116.741 60.7684 116.496C61.1577 116.245 61.4724 115.904 61.7124 115.472L63.0804 115.792C62.7604 116.501 62.2777 117.083 61.6324 117.536C60.987 117.984 60.2644 118.208 59.4644 118.208ZM56.8564 113.432H62.0724C62.0297 112.984 61.8857 112.576 61.6404 112.208C61.395 111.835 61.083 111.536 60.7044 111.312C60.3257 111.088 59.9124 110.976 59.4644 110.976C59.0164 110.976 58.6057 111.085 58.2324 111.304C57.859 111.523 57.5497 111.819 57.3044 112.192C57.0644 112.56 56.915 112.973 56.8564 113.432ZM64.7725 118V110H66.1165V111C66.3992 110.627 66.7565 110.331 67.1885 110.112C67.6205 109.888 68.0898 109.776 68.5965 109.776C68.9058 109.776 69.2045 109.816 69.4925 109.896L68.9485 111.24C68.7298 111.171 68.5165 111.136 68.3085 111.136C67.9085 111.136 67.5405 111.235 67.2045 111.432C66.8738 111.624 66.6098 111.885 66.4125 112.216C66.2152 112.547 66.1165 112.915 66.1165 113.32V118H64.7725ZM72.9156 118.152C72.4836 118.136 72.0623 118.056 71.6516 117.912C71.2463 117.763 70.889 117.563 70.5796 117.312C70.2756 117.056 70.0543 116.763 69.9156 116.432L71.0676 115.936C71.1476 116.117 71.2916 116.288 71.4996 116.448C71.7076 116.608 71.9476 116.736 72.2196 116.832C72.4916 116.928 72.7663 116.976 73.0436 116.976C73.337 116.976 73.6116 116.931 73.8676 116.84C74.1236 116.749 74.3316 116.616 74.4916 116.44C74.657 116.259 74.7396 116.043 74.7396 115.792C74.7396 115.525 74.649 115.317 74.4676 115.168C74.2916 115.013 74.0676 114.893 73.7956 114.808C73.529 114.717 73.257 114.632 72.9796 114.552C72.4303 114.413 71.9396 114.248 71.5076 114.056C71.0756 113.859 70.7343 113.611 70.4836 113.312C70.2383 113.008 70.1156 112.621 70.1156 112.152C70.1156 111.656 70.2516 111.227 70.5236 110.864C70.801 110.501 71.1636 110.221 71.6116 110.024C72.0596 109.827 72.5396 109.728 73.0516 109.728C73.697 109.728 74.2863 109.867 74.8196 110.144C75.353 110.421 75.7503 110.797 76.0116 111.272L74.9316 111.904C74.841 111.712 74.7023 111.544 74.5156 111.4C74.329 111.251 74.1156 111.133 73.8756 111.048C73.6356 110.963 73.3903 110.917 73.1396 110.912C72.8303 110.901 72.5396 110.941 72.2676 111.032C72.001 111.123 71.785 111.261 71.6196 111.448C71.4596 111.629 71.3796 111.856 71.3796 112.128C71.3796 112.395 71.465 112.597 71.6356 112.736C71.8116 112.875 72.0383 112.987 72.3156 113.072C72.5983 113.152 72.905 113.245 73.2356 113.352C73.721 113.507 74.1743 113.685 74.5956 113.888C75.017 114.091 75.3556 114.344 75.6116 114.648C75.873 114.952 76.001 115.328 75.9956 115.776C75.9956 116.267 75.849 116.696 75.5556 117.064C75.2623 117.427 74.881 117.704 74.4116 117.896C73.9476 118.088 73.449 118.173 72.9156 118.152ZM80.8081 118.208C80.0721 118.208 79.4001 118.019 78.7921 117.64C78.1895 117.261 77.7068 116.755 77.3441 116.12C76.9868 115.48 76.8081 114.773 76.8081 114C76.8081 113.413 76.9121 112.867 77.1201 112.36C77.3281 111.848 77.6135 111.4 77.9761 111.016C78.3441 110.627 78.7708 110.323 79.2561 110.104C79.7415 109.885 80.2588 109.776 80.8081 109.776C81.4108 109.776 81.9628 109.899 82.4641 110.144C82.9708 110.384 83.4028 110.72 83.7601 111.152C84.1228 111.584 84.3921 112.085 84.5681 112.656C84.7495 113.227 84.8161 113.837 84.7681 114.488H78.2401C78.3041 114.941 78.4535 115.347 78.6881 115.704C78.9228 116.056 79.2215 116.336 79.5841 116.544C79.9521 116.752 80.3601 116.859 80.8081 116.864C81.2881 116.864 81.7228 116.741 82.1121 116.496C82.5015 116.245 82.8161 115.904 83.0561 115.472L84.4241 115.792C84.1041 116.501 83.6215 117.083 82.9761 117.536C82.3308 117.984 81.6081 118.208 80.8081 118.208ZM78.2001 113.432H83.4161C83.3735 112.984 83.2295 112.576 82.9841 112.208C82.7388 111.835 82.4268 111.536 82.0481 111.312C81.6695 111.088 81.2561 110.976 80.8081 110.976C80.3601 110.976 79.9495 111.085 79.5761 111.304C79.2028 111.523 78.8935 111.819 78.6481 112.192C78.4081 112.56 78.2588 112.973 78.2001 113.432ZM86.4774 118.208C86.2747 118.208 86.1014 118.136 85.9574 117.992C85.8187 117.848 85.7494 117.672 85.7494 117.464C85.7494 117.267 85.8187 117.096 85.9574 116.952C86.1014 116.808 86.2747 116.736 86.4774 116.736C86.6854 116.736 86.8614 116.808 87.0054 116.952C87.1494 117.096 87.2214 117.267 87.2214 117.464C87.2214 117.672 87.1494 117.848 87.0054 117.992C86.8614 118.136 86.6854 118.208 86.4774 118.208ZM95.3433 118L92.4793 106.8H93.8633L96.1193 115.64L98.3673 106.8H99.5753L101.831 115.64L104.079 106.8H105.463L102.615 118H101.047L98.9753 109.888L96.9033 118H95.3433ZM109.464 118.208C108.728 118.208 108.056 118.019 107.448 117.64C106.846 117.261 106.363 116.755 106 116.12C105.643 115.48 105.464 114.773 105.464 114C105.464 113.413 105.568 112.867 105.776 112.36C105.984 111.848 106.27 111.4 106.632 111.016C107 110.627 107.427 110.323 107.912 110.104C108.398 109.885 108.915 109.776 109.464 109.776C110.067 109.776 110.619 109.899 111.12 110.144C111.627 110.384 112.059 110.72 112.416 111.152C112.779 111.584 113.048 112.085 113.224 112.656C113.406 113.227 113.472 113.837 113.424 114.488H106.896C106.96 114.941 107.11 115.347 107.344 115.704C107.579 116.056 107.878 116.336 108.24 116.544C108.608 116.752 109.016 116.859 109.464 116.864C109.944 116.864 110.379 116.741 110.768 116.496C111.158 116.245 111.472 115.904 111.712 115.472L113.08 115.792C112.76 116.501 112.278 117.083 111.632 117.536C110.987 117.984 110.264 118.208 109.464 118.208ZM106.856 113.432H112.072C112.03 112.984 111.886 112.576 111.64 112.208C111.395 111.835 111.083 111.536 110.704 111.312C110.326 111.088 109.912 110.976 109.464 110.976C109.016 110.976 108.606 111.085 108.232 111.304C107.859 111.523 107.55 111.819 107.304 112.192C107.064 112.56 106.915 112.973 106.856 113.432ZM118.726 118V106H120.07V118H118.726ZM121.991 110H123.335V118H121.991V110ZM122.679 108.696C122.466 108.696 122.287 108.627 122.143 108.488C121.999 108.349 121.927 108.176 121.927 107.968C121.927 107.76 121.999 107.587 122.143 107.448C122.287 107.309 122.463 107.24 122.671 107.24C122.879 107.24 123.055 107.309 123.199 107.448C123.343 107.587 123.415 107.76 123.415 107.968C123.415 108.176 123.343 108.349 123.199 108.488C123.061 108.627 122.887 108.696 122.679 108.696ZM127.619 118.152C127.187 118.136 126.765 118.056 126.355 117.912C125.949 117.763 125.592 117.563 125.283 117.312C124.979 117.056 124.757 116.763 124.619 116.432L125.771 115.936C125.851 116.117 125.995 116.288 126.203 116.448C126.411 116.608 126.651 116.736 126.923 116.832C127.195 116.928 127.469 116.976 127.747 116.976C128.04 116.976 128.315 116.931 128.571 116.84C128.827 116.749 129.035 116.616 129.195 116.44C129.36 116.259 129.443 116.043 129.443 115.792C129.443 115.525 129.352 115.317 129.171 115.168C128.995 115.013 128.771 114.893 128.499 114.808C128.232 114.717 127.96 114.632 127.683 114.552C127.133 114.413 126.643 114.248 126.211 114.056C125.779 113.859 125.437 113.611 125.187 113.312C124.941 113.008 124.819 112.621 124.819 112.152C124.819 111.656 124.955 111.227 125.227 110.864C125.504 110.501 125.867 110.221 126.315 110.024C126.763 109.827 127.243 109.728 127.755 109.728C128.4 109.728 128.989 109.867 129.523 110.144C130.056 110.421 130.453 110.797 130.715 111.272L129.635 111.904C129.544 111.712 129.405 111.544 129.219 111.4C129.032 111.251 128.819 111.133 128.579 111.048C128.339 110.963 128.093 110.917 127.843 110.912C127.533 110.901 127.243 110.941 126.971 111.032C126.704 111.123 126.488 111.261 126.323 111.448C126.163 111.629 126.083 111.856 126.083 112.128C126.083 112.395 126.168 112.597 126.339 112.736C126.515 112.875 126.741 112.987 127.019 113.072C127.301 113.152 127.608 113.245 127.939 113.352C128.424 113.507 128.877 113.685 129.299 113.888C129.72 114.091 130.059 114.344 130.315 114.648C130.576 114.952 130.704 115.328 130.699 115.776C130.699 116.267 130.552 116.696 130.259 117.064C129.965 117.427 129.584 117.704 129.115 117.896C128.651 118.088 128.152 118.173 127.619 118.152ZM136.213 111.344H134.397L134.389 118H133.045L133.053 111.344H131.677V110H133.053L133.045 107.488H134.389L134.397 110H136.213V111.344ZM140.964 118.208C140.228 118.208 139.556 118.019 138.948 117.64C138.346 117.261 137.863 116.755 137.5 116.12C137.143 115.48 136.964 114.773 136.964 114C136.964 113.413 137.068 112.867 137.276 112.36C137.484 111.848 137.77 111.4 138.132 111.016C138.5 110.627 138.927 110.323 139.412 110.104C139.898 109.885 140.415 109.776 140.964 109.776C141.567 109.776 142.119 109.899 142.62 110.144C143.127 110.384 143.559 110.72 143.916 111.152C144.279 111.584 144.548 112.085 144.724 112.656C144.906 113.227 144.972 113.837 144.924 114.488H138.396C138.46 114.941 138.61 115.347 138.844 115.704C139.079 116.056 139.378 116.336 139.74 116.544C140.108 116.752 140.516 116.859 140.964 116.864C141.444 116.864 141.879 116.741 142.268 116.496C142.658 116.245 142.972 115.904 143.212 115.472L144.58 115.792C144.26 116.501 143.778 117.083 143.132 117.536C142.487 117.984 141.764 118.208 140.964 118.208ZM138.356 113.432H143.572C143.53 112.984 143.386 112.576 143.14 112.208C142.895 111.835 142.583 111.536 142.204 111.312C141.826 111.088 141.412 110.976 140.964 110.976C140.516 110.976 140.106 111.085 139.732 111.304C139.359 111.523 139.05 111.819 138.804 112.192C138.564 112.56 138.415 112.973 138.356 113.432ZM153.345 113.024V118H152.001V113.32C152.001 112.915 151.902 112.547 151.705 112.216C151.507 111.885 151.243 111.624 150.913 111.432C150.582 111.235 150.214 111.136 149.809 111.136C149.409 111.136 149.041 111.235 148.705 111.432C148.374 111.624 148.11 111.885 147.913 112.216C147.715 112.547 147.617 112.915 147.617 113.32V118H146.273V110H147.617V111C147.899 110.627 148.257 110.331 148.689 110.112C149.121 109.888 149.59 109.776 150.097 109.776C150.694 109.776 151.238 109.923 151.729 110.216C152.225 110.504 152.617 110.893 152.905 111.384C153.198 111.875 153.345 112.421 153.345 113.024ZM154.624 118.896L155.12 116.192H156.464L155.52 118.896H154.624ZM161.906 114.96V110H163.25V114.664C163.25 115.069 163.348 115.437 163.546 115.768C163.743 116.099 164.007 116.363 164.338 116.56C164.674 116.752 165.042 116.848 165.442 116.848C165.847 116.848 166.212 116.752 166.538 116.56C166.868 116.363 167.132 116.099 167.33 115.768C167.527 115.437 167.626 115.069 167.626 114.664V110H168.97L168.978 118H167.634L167.626 116.984C167.343 117.357 166.986 117.656 166.554 117.88C166.122 118.099 165.655 118.208 165.154 118.208C164.556 118.208 164.01 118.064 163.514 117.776C163.023 117.483 162.631 117.091 162.338 116.6C162.05 116.109 161.906 115.563 161.906 114.96ZM177.657 113.024V118H176.313V113.32C176.313 112.915 176.214 112.547 176.017 112.216C175.82 111.885 175.556 111.624 175.225 111.432C174.894 111.235 174.526 111.136 174.121 111.136C173.721 111.136 173.353 111.235 173.017 111.432C172.686 111.624 172.422 111.885 172.225 112.216C172.028 112.547 171.929 112.915 171.929 113.32V118H170.585V110H171.929V111C172.212 110.627 172.569 110.331 173.001 110.112C173.433 109.888 173.902 109.776 174.409 109.776C175.006 109.776 175.55 109.923 176.041 110.216C176.537 110.504 176.929 110.893 177.217 111.384C177.51 111.875 177.657 112.421 177.657 113.024ZM185.541 106H186.885V118H185.541V116.64C185.269 117.109 184.903 117.488 184.445 117.776C183.986 118.064 183.447 118.208 182.829 118.208C182.247 118.208 181.703 118.099 181.197 117.88C180.69 117.661 180.242 117.36 179.853 116.976C179.469 116.587 179.167 116.139 178.949 115.632C178.73 115.125 178.621 114.581 178.621 114C178.621 113.419 178.73 112.875 178.949 112.368C179.167 111.856 179.469 111.408 179.853 111.024C180.242 110.635 180.69 110.331 181.197 110.112C181.703 109.893 182.247 109.784 182.829 109.784C183.447 109.784 183.986 109.928 184.445 110.216C184.903 110.504 185.269 110.883 185.541 111.352V106ZM182.845 116.904C183.373 116.904 183.829 116.776 184.213 116.52C184.602 116.259 184.901 115.907 185.109 115.464C185.322 115.021 185.429 114.533 185.429 114C185.429 113.456 185.322 112.965 185.109 112.528C184.895 112.085 184.594 111.736 184.205 111.48C183.821 111.219 183.367 111.088 182.845 111.088C182.317 111.088 181.837 111.219 181.405 111.48C180.978 111.741 180.637 112.093 180.381 112.536C180.125 112.973 179.997 113.461 179.997 114C179.997 114.539 180.127 115.029 180.389 115.472C180.65 115.909 180.997 116.259 181.429 116.52C181.861 116.776 182.333 116.904 182.845 116.904ZM192.246 118.208C191.51 118.208 190.838 118.019 190.23 117.64C189.627 117.261 189.144 116.755 188.782 116.12C188.424 115.48 188.246 114.773 188.246 114C188.246 113.413 188.35 112.867 188.558 112.36C188.766 111.848 189.051 111.4 189.414 111.016C189.782 110.627 190.208 110.323 190.694 110.104C191.179 109.885 191.696 109.776 192.246 109.776C192.848 109.776 193.4 109.899 193.902 110.144C194.408 110.384 194.84 110.72 195.198 111.152C195.56 111.584 195.83 112.085 196.006 112.656C196.187 113.227 196.254 113.837 196.206 114.488H189.678C189.742 114.941 189.891 115.347 190.126 115.704C190.36 116.056 190.659 116.336 191.022 116.544C191.39 116.752 191.798 116.859 192.246 116.864C192.726 116.864 193.16 116.741 193.55 116.496C193.939 116.245 194.254 115.904 194.494 115.472L195.862 115.792C195.542 116.501 195.059 117.083 194.414 117.536C193.768 117.984 193.046 118.208 192.246 118.208ZM189.638 113.432H194.854C194.811 112.984 194.667 112.576 194.422 112.208C194.176 111.835 193.864 111.536 193.486 111.312C193.107 111.088 192.694 110.976 192.246 110.976C191.798 110.976 191.387 111.085 191.014 111.304C190.64 111.523 190.331 111.819 190.086 112.192C189.846 112.56 189.696 112.973 189.638 113.432ZM197.554 118V110H198.898V111C199.18 110.627 199.538 110.331 199.97 110.112C200.402 109.888 200.871 109.776 201.378 109.776C201.687 109.776 201.986 109.816 202.274 109.896L201.73 111.24C201.511 111.171 201.298 111.136 201.09 111.136C200.69 111.136 200.322 111.235 199.986 111.432C199.655 111.624 199.391 111.885 199.194 112.216C198.996 112.547 198.898 112.915 198.898 113.32V118H197.554ZM205.697 118.152C205.265 118.136 204.844 118.056 204.433 117.912C204.028 117.763 203.67 117.563 203.361 117.312C203.057 117.056 202.836 116.763 202.697 116.432L203.849 115.936C203.929 116.117 204.073 116.288 204.281 116.448C204.489 116.608 204.729 116.736 205.001 116.832C205.273 116.928 205.548 116.976 205.825 116.976C206.118 116.976 206.393 116.931 206.649 116.84C206.905 116.749 207.113 116.616 207.273 116.44C207.438 116.259 207.521 116.043 207.521 115.792C207.521 115.525 207.43 115.317 207.249 115.168C207.073 115.013 206.849 114.893 206.577 114.808C206.31 114.717 206.038 114.632 205.761 114.552C205.212 114.413 204.721 114.248 204.289 114.056C203.857 113.859 203.516 113.611 203.265 113.312C203.02 113.008 202.897 112.621 202.897 112.152C202.897 111.656 203.033 111.227 203.305 110.864C203.582 110.501 203.945 110.221 204.393 110.024C204.841 109.827 205.321 109.728 205.833 109.728C206.478 109.728 207.068 109.867 207.601 110.144C208.134 110.421 208.532 110.797 208.793 111.272L207.713 111.904C207.622 111.712 207.484 111.544 207.297 111.4C207.11 111.251 206.897 111.133 206.657 111.048C206.417 110.963 206.172 110.917 205.921 110.912C205.612 110.901 205.321 110.941 205.049 111.032C204.782 111.123 204.566 111.261 204.401 111.448C204.241 111.629 204.161 111.856 204.161 112.128C204.161 112.395 204.246 112.597 204.417 112.736C204.593 112.875 204.82 112.987 205.097 113.072C205.38 113.152 205.686 113.245 206.017 113.352C206.502 113.507 206.956 113.685 207.377 113.888C207.798 114.091 208.137 114.344 208.393 114.648C208.654 114.952 208.782 115.328 208.777 115.776C208.777 116.267 208.63 116.696 208.337 117.064C208.044 117.427 207.662 117.704 207.193 117.896C206.729 118.088 206.23 118.173 205.697 118.152ZM214.292 111.344H212.476L212.468 118H211.124L211.132 111.344H209.756V110H211.132L211.124 107.488H212.468L212.476 110H214.292V111.344ZM221.955 110H223.299V118H221.955L221.899 116.648C221.648 117.112 221.301 117.488 220.859 117.776C220.421 118.064 219.899 118.208 219.291 118.208C218.704 118.208 218.155 118.099 217.643 117.88C217.131 117.656 216.677 117.349 216.283 116.96C215.893 116.565 215.589 116.112 215.371 115.6C215.152 115.088 215.043 114.536 215.043 113.944C215.043 113.373 215.149 112.835 215.363 112.328C215.576 111.821 215.872 111.379 216.251 111C216.635 110.616 217.077 110.317 217.579 110.104C218.08 109.885 218.619 109.776 219.195 109.776C219.824 109.776 220.376 109.925 220.851 110.224C221.325 110.517 221.709 110.899 222.003 111.368L221.955 110ZM219.266 116.904C219.795 116.904 220.251 116.776 220.635 116.52C221.024 116.259 221.323 115.907 221.531 115.464C221.744 115.021 221.851 114.533 221.851 114C221.851 113.456 221.744 112.965 221.531 112.528C221.317 112.085 221.016 111.736 220.627 111.48C220.243 111.219 219.789 111.088 219.266 111.088C218.739 111.088 218.259 111.219 217.827 111.48C217.395 111.741 217.051 112.093 216.795 112.536C216.544 112.973 216.419 113.461 216.419 114C216.419 114.539 216.549 115.029 216.811 115.472C217.072 115.909 217.419 116.259 217.851 116.52C218.283 116.776 218.755 116.904 219.266 116.904ZM231.97 113.024V118H230.626V113.32C230.626 112.915 230.527 112.547 230.33 112.216C230.132 111.885 229.868 111.624 229.538 111.432C229.207 111.235 228.839 111.136 228.434 111.136C228.034 111.136 227.666 111.235 227.33 111.432C226.999 111.624 226.735 111.885 226.538 112.216C226.34 112.547 226.242 112.915 226.242 113.32V118H224.898V110H226.242V111C226.524 110.627 226.882 110.331 227.314 110.112C227.746 109.888 228.215 109.776 228.722 109.776C229.319 109.776 229.863 109.923 230.354 110.216C230.85 110.504 231.242 110.893 231.53 111.384C231.823 111.875 231.97 112.421 231.97 113.024ZM239.853 106H241.197V118H239.853V116.64C239.581 117.109 239.216 117.488 238.757 117.776C238.298 118.064 237.76 118.208 237.141 118.208C236.56 118.208 236.016 118.099 235.509 117.88C235.002 117.661 234.554 117.36 234.165 116.976C233.781 116.587 233.48 116.139 233.261 115.632C233.042 115.125 232.933 114.581 232.933 114C232.933 113.419 233.042 112.875 233.261 112.368C233.48 111.856 233.781 111.408 234.165 111.024C234.554 110.635 235.002 110.331 235.509 110.112C236.016 109.893 236.56 109.784 237.141 109.784C237.76 109.784 238.298 109.928 238.757 110.216C239.216 110.504 239.581 110.883 239.853 111.352V106ZM237.157 116.904C237.685 116.904 238.141 116.776 238.525 116.52C238.914 116.259 239.213 115.907 239.421 115.464C239.634 115.021 239.741 114.533 239.741 114C239.741 113.456 239.634 112.965 239.421 112.528C239.208 112.085 238.906 111.736 238.517 111.48C238.133 111.219 237.68 111.088 237.157 111.088C236.629 111.088 236.149 111.219 235.717 111.48C235.29 111.741 234.949 112.093 234.693 112.536C234.437 112.973 234.309 113.461 234.309 114C234.309 114.539 234.44 115.029 234.701 115.472C234.962 115.909 235.309 116.259 235.741 116.52C236.173 116.776 236.645 116.904 237.157 116.904ZM243.524 118.208C243.322 118.208 243.148 118.136 243.004 117.992C242.866 117.848 242.796 117.672 242.796 117.464C242.796 117.267 242.866 117.096 243.004 116.952C243.148 116.808 243.322 116.736 243.524 116.736C243.732 116.736 243.908 116.808 244.052 116.952C244.196 117.096 244.268 117.267 244.268 117.464C244.268 117.672 244.196 117.848 244.052 117.992C243.908 118.136 243.732 118.208 243.524 118.208Z" fill="#999999"></path></svg>