<svg xmlns="http://www.w3.org/2000/svg" width="427" height="114" viewBox="0 0 427 114" fill="none"><path d="M1.2 22V8H3.28V19.92H9.31V22H1.2ZM18.3941 12H20.4741V22H18.3841L18.3041 20.55C18.0107 21.0633 17.6141 21.4767 17.1141 21.79C16.6141 22.1033 16.0241 22.26 15.3441 22.26C14.6107 22.26 13.9207 22.1233 13.2741 21.85C12.6274 21.57 12.0574 21.1833 11.5641 20.69C11.0774 20.1967 10.6974 19.63 10.4241 18.99C10.1507 18.3433 10.0141 17.65 10.0141 16.91C10.0141 16.1967 10.1474 15.5267 10.4141 14.9C10.6807 14.2667 11.0507 13.7133 11.5241 13.24C11.9974 12.7667 12.5441 12.3967 13.1641 12.13C13.7907 11.8567 14.4607 11.72 15.1741 11.72C15.9007 11.72 16.5407 11.8867 17.0941 12.22C17.6541 12.5467 18.1174 12.9667 18.4841 13.48L18.3941 12ZM15.2941 20.25C15.8807 20.25 16.3941 20.1067 16.8341 19.82C17.2741 19.5267 17.6141 19.1333 17.8541 18.64C18.1007 18.1467 18.2241 17.6 18.2241 17C18.2241 16.3933 18.1007 15.8433 17.8541 15.35C17.6074 14.8567 17.2641 14.4667 16.8241 14.18C16.3907 13.8867 15.8807 13.74 15.2941 13.74C14.7141 13.74 14.1841 13.8867 13.7041 14.18C13.2241 14.4733 12.8441 14.8667 12.5641 15.36C12.2841 15.8533 12.1441 16.4 12.1441 17C12.1441 17.6067 12.2874 18.1567 12.5741 18.65C12.8674 19.1367 13.2507 19.5267 13.7241 19.82C14.2041 20.1067 14.7274 20.25 15.2941 20.25ZM25.4695 22.19C24.9429 22.1567 24.4295 22.05 23.9295 21.87C23.4295 21.69 22.9895 21.4467 22.6095 21.14C22.2362 20.8267 21.9562 20.46 21.7695 20.04L23.5395 19.28C23.6262 19.46 23.7762 19.6367 23.9895 19.81C24.2095 19.9833 24.4662 20.1267 24.7595 20.24C25.0529 20.3467 25.3595 20.4 25.6795 20.4C25.9929 20.4 26.2829 20.3567 26.5495 20.27C26.8229 20.1767 27.0462 20.0367 27.2195 19.85C27.3929 19.6633 27.4795 19.44 27.4795 19.18C27.4795 18.8867 27.3795 18.66 27.1795 18.5C26.9862 18.3333 26.7429 18.2067 26.4495 18.12C26.1562 18.0333 25.8629 17.95 25.5695 17.87C24.9162 17.7233 24.3162 17.5233 23.7695 17.27C23.2295 17.01 22.7995 16.68 22.4795 16.28C22.1595 15.8733 21.9995 15.3767 21.9995 14.79C21.9995 14.15 22.1729 13.5967 22.5195 13.13C22.8662 12.6567 23.3195 12.2933 23.8795 12.04C24.4462 11.7867 25.0495 11.66 25.6895 11.66C26.4895 11.66 27.2229 11.83 27.8895 12.17C28.5562 12.51 29.0662 12.9767 29.4195 13.57L27.7695 14.55C27.6695 14.35 27.5195 14.17 27.3195 14.01C27.1195 13.85 26.8929 13.7233 26.6395 13.63C26.3862 13.53 26.1229 13.4733 25.8495 13.46C25.5095 13.4467 25.1929 13.4867 24.8995 13.58C24.6129 13.6667 24.3829 13.8067 24.2095 14C24.0362 14.1933 23.9495 14.44 23.9495 14.74C23.9495 15.0333 24.0529 15.2533 24.2595 15.4C24.4662 15.54 24.7262 15.6533 25.0395 15.74C25.3595 15.8267 25.6862 15.9233 26.0195 16.03C26.6129 16.2167 27.1695 16.4467 27.6895 16.72C28.2095 16.9867 28.6295 17.3167 28.9495 17.71C29.2695 18.1033 29.4229 18.5833 29.4095 19.15C29.4095 19.7767 29.2195 20.3267 28.8395 20.8C28.4662 21.2733 27.9795 21.6333 27.3795 21.88C26.7795 22.1267 26.1429 22.23 25.4695 22.19ZM36.4019 14.08H34.3019L34.2919 22H32.2119L32.2219 14.08H30.6319V12H32.2219L32.2119 8.86H34.2919L34.3019 12H36.4019V14.08ZM42.9969 22V8H45.2469L51.6769 18.24V8H53.7569V22H51.5069L45.0769 11.76V22H42.9969ZM63.8042 12H65.8842V22H63.7942L63.7142 20.55C63.4209 21.0633 63.0242 21.4767 62.5242 21.79C62.0242 22.1033 61.4342 22.26 60.7542 22.26C60.0209 22.26 59.3309 22.1233 58.6842 21.85C58.0376 21.57 57.4676 21.1833 56.9742 20.69C56.4876 20.1967 56.1076 19.63 55.8342 18.99C55.5609 18.3433 55.4242 17.65 55.4242 16.91C55.4242 16.1967 55.5576 15.5267 55.8242 14.9C56.0909 14.2667 56.4609 13.7133 56.9342 13.24C57.4076 12.7667 57.9542 12.3967 58.5742 12.13C59.2009 11.8567 59.8709 11.72 60.5842 11.72C61.3109 11.72 61.9509 11.8867 62.5042 12.22C63.0642 12.5467 63.5276 12.9667 63.8942 13.48L63.8042 12ZM60.7042 20.25C61.2909 20.25 61.8042 20.1067 62.2442 19.82C62.6842 19.5267 63.0242 19.1333 63.2642 18.64C63.5109 18.1467 63.6342 17.6 63.6342 17C63.6342 16.3933 63.5109 15.8433 63.2642 15.35C63.0176 14.8567 62.6742 14.4667 62.2342 14.18C61.8009 13.8867 61.2909 13.74 60.7042 13.74C60.1242 13.74 59.5942 13.8867 59.1142 14.18C58.6342 14.4733 58.2542 14.8667 57.9742 15.36C57.6942 15.8533 57.5542 16.4 57.5542 17C57.5542 17.6067 57.6976 18.1567 57.9842 18.65C58.2776 19.1367 58.6609 19.5267 59.1342 19.82C59.6142 20.1067 60.1376 20.25 60.7042 20.25ZM67.8797 22V12H69.9597V13.06C70.3064 12.6467 70.7297 12.32 71.2297 12.08C71.7364 11.84 72.283 11.72 72.8697 11.72C73.583 11.72 74.2397 11.8933 74.8397 12.24C75.4397 12.58 75.9164 13.0333 76.2697 13.6C76.623 13.0333 77.093 12.58 77.6797 12.24C78.273 11.8933 78.9264 11.72 79.6397 11.72C80.3797 11.72 81.053 11.9 81.6597 12.26C82.2664 12.62 82.7497 13.1033 83.1097 13.71C83.4697 14.3167 83.6497 14.99 83.6497 15.73V22H81.5697V16.26C81.5697 15.82 81.463 15.4167 81.2497 15.05C81.0364 14.6833 80.7497 14.3867 80.3897 14.16C80.0297 13.9333 79.6297 13.82 79.1897 13.82C78.7497 13.82 78.3497 13.9267 77.9897 14.14C77.6297 14.3533 77.343 14.6433 77.1297 15.01C76.9164 15.3767 76.8097 15.7933 76.8097 16.26V22H74.7297V16.26C74.7297 15.7933 74.623 15.3767 74.4097 15.01C74.1964 14.6433 73.9064 14.3533 73.5397 14.14C73.1797 13.9267 72.7797 13.82 72.3397 13.82C71.9064 13.82 71.5064 13.9333 71.1397 14.16C70.7797 14.3867 70.493 14.6833 70.2797 15.05C70.0664 15.4167 69.9597 15.82 69.9597 16.26V22H67.8797ZM89.8578 22.26C88.9378 22.26 88.0978 22.0233 87.3378 21.55C86.5845 21.0767 85.9811 20.4433 85.5278 19.65C85.0811 18.85 84.8578 17.9667 84.8578 17C84.8578 16.2667 84.9878 15.5833 85.2478 14.95C85.5078 14.31 85.8645 13.75 86.3178 13.27C86.7778 12.7833 87.3111 12.4033 87.9178 12.13C88.5245 11.8567 89.1711 11.72 89.8578 11.72C90.6245 11.72 91.3278 11.88 91.9678 12.2C92.6078 12.5133 93.1545 12.95 93.6078 13.51C94.0611 14.0633 94.3945 14.7033 94.6078 15.43C94.8211 16.15 94.8845 16.9167 94.7978 17.73H87.0878C87.1745 18.19 87.3411 18.6067 87.5878 18.98C87.8411 19.3467 88.1611 19.6367 88.5478 19.85C88.9411 20.0633 89.3778 20.1733 89.8578 20.18C90.3645 20.18 90.8245 20.0533 91.2378 19.8C91.6578 19.5467 92.0011 19.1967 92.2678 18.75L94.3778 19.24C93.9778 20.1267 93.3745 20.8533 92.5678 21.42C91.7611 21.98 90.8578 22.26 89.8578 22.26ZM87.0178 16.14H92.6978C92.6311 15.66 92.4611 15.2267 92.1878 14.84C91.9211 14.4467 91.5845 14.1367 91.1778 13.91C90.7778 13.6767 90.3378 13.56 89.8578 13.56C89.3845 13.56 88.9445 13.6733 88.5378 13.9C88.1378 14.1267 87.8045 14.4367 87.5378 14.83C87.2778 15.2167 87.1045 15.6533 87.0178 16.14Z" fill="white"></path><rect x="0.5" y="46.5" width="426" height="67" rx="7.5" fill="#1A1A1A"></rect><rect x="0.5" y="46.5" width="426" height="67" rx="7.5" stroke="#262626"></rect><path d="M21.08 86V73.4H28.811V74.912H22.592V78.494H27.686V80.006H22.592V84.488H28.811V86H21.08ZM38.7391 80.402V86H37.2271V80.735C37.2271 80.279 37.1161 79.865 36.8941 79.493C36.6721 79.121 36.3751 78.827 36.0031 78.611C35.6311 78.389 35.2171 78.278 34.7611 78.278C34.3111 78.278 33.8971 78.389 33.5191 78.611C33.1471 78.827 32.8501 79.121 32.6281 79.493C32.4061 79.865 32.2951 80.279 32.2951 80.735V86H30.7831V77H32.2951V78.125C32.6131 77.705 33.0151 77.372 33.5011 77.126C33.9871 76.874 34.5151 76.748 35.0851 76.748C35.7571 76.748 36.3691 76.913 36.9211 77.243C37.4791 77.567 37.9201 78.005 38.2441 78.557C38.5741 79.109 38.7391 79.724 38.7391 80.402ZM45.201 78.512H43.158L43.149 86H41.637L41.646 78.512H40.098V77H41.646L41.637 74.174H43.149L43.158 77H45.201V78.512ZM50.5459 86.234C49.7179 86.234 48.9619 86.021 48.2779 85.595C47.5999 85.169 47.0569 84.599 46.6489 83.885C46.2469 83.165 46.0459 82.37 46.0459 81.5C46.0459 80.84 46.1629 80.225 46.3969 79.655C46.6309 79.079 46.9519 78.575 47.3599 78.143C47.7739 77.705 48.2539 77.363 48.7999 77.117C49.3459 76.871 49.9279 76.748 50.5459 76.748C51.2239 76.748 51.8449 76.886 52.4089 77.162C52.9789 77.432 53.4649 77.81 53.8669 78.296C54.2749 78.782 54.5779 79.346 54.7759 79.988C54.9799 80.63 55.0549 81.317 55.0009 82.049H47.6569C47.7289 82.559 47.8969 83.015 48.1609 83.417C48.4249 83.813 48.7609 84.128 49.1689 84.362C49.5829 84.596 50.0419 84.716 50.5459 84.722C51.0859 84.722 51.5749 84.584 52.0129 84.308C52.4509 84.026 52.8049 83.642 53.0749 83.156L54.6139 83.516C54.2539 84.314 53.7109 84.968 52.9849 85.478C52.2589 85.982 51.4459 86.234 50.5459 86.234ZM47.6119 80.861H53.4799C53.4319 80.357 53.2699 79.898 52.9939 79.484C52.7179 79.064 52.3669 78.728 51.9409 78.476C51.5149 78.224 51.0499 78.098 50.5459 78.098C50.0419 78.098 49.5799 78.221 49.1599 78.467C48.7399 78.713 48.3919 79.046 48.1159 79.466C47.8459 79.88 47.6779 80.345 47.6119 80.861ZM56.5175 86V77H58.0295V78.125C58.3475 77.705 58.7495 77.372 59.2355 77.126C59.7215 76.874 60.2495 76.748 60.8195 76.748C61.1675 76.748 61.5035 76.793 61.8275 76.883L61.2155 78.395C60.9695 78.317 60.7295 78.278 60.4955 78.278C60.0455 78.278 59.6315 78.389 59.2535 78.611C58.8815 78.827 58.5845 79.121 58.3625 79.493C58.1405 79.865 58.0295 80.279 58.0295 80.735V86H56.5175ZM67.4159 86V73.4H68.9279V84.488H74.5709V86H67.4159ZM82.9137 77H84.4257V86H82.9137L82.8507 84.479C82.5687 85.001 82.1787 85.424 81.6807 85.748C81.1887 86.072 80.6007 86.234 79.9167 86.234C79.2567 86.234 78.6387 86.111 78.0627 85.865C77.4867 85.613 76.9767 85.268 76.5327 84.83C76.0947 84.386 75.7527 83.876 75.5067 83.3C75.2607 82.724 75.1377 82.103 75.1377 81.437C75.1377 80.795 75.2577 80.189 75.4977 79.619C75.7377 79.049 76.0707 78.551 76.4967 78.125C76.9287 77.693 77.4267 77.357 77.9907 77.117C78.5547 76.871 79.1607 76.748 79.8087 76.748C80.5167 76.748 81.1377 76.916 81.6717 77.252C82.2057 77.582 82.6377 78.011 82.9677 78.539L82.9137 77ZM79.8897 84.767C80.4837 84.767 80.9967 84.623 81.4287 84.335C81.8667 84.041 82.2027 83.645 82.4367 83.147C82.6767 82.649 82.7967 82.1 82.7967 81.5C82.7967 80.888 82.6767 80.336 82.4367 79.844C82.1967 79.346 81.8577 78.953 81.4197 78.665C80.9877 78.371 80.4777 78.224 79.8897 78.224C79.2957 78.224 78.7557 78.371 78.2697 78.665C77.7837 78.959 77.3967 79.355 77.1087 79.853C76.8267 80.345 76.6857 80.894 76.6857 81.5C76.6857 82.106 76.8327 82.658 77.1267 83.156C77.4207 83.648 77.8107 84.041 78.2967 84.335C78.7827 84.623 79.3137 84.767 79.8897 84.767ZM88.9695 86.171C88.4835 86.153 88.0095 86.063 87.5475 85.901C87.0915 85.733 86.6895 85.508 86.3415 85.226C85.9995 84.938 85.7505 84.608 85.5945 84.236L86.8905 83.678C86.9805 83.882 87.1425 84.074 87.3765 84.254C87.6105 84.434 87.8805 84.578 88.1865 84.686C88.4925 84.794 88.8015 84.848 89.1135 84.848C89.4435 84.848 89.7525 84.797 90.0405 84.695C90.3285 84.593 90.5625 84.443 90.7425 84.245C90.9285 84.041 91.0215 83.798 91.0215 83.516C91.0215 83.216 90.9195 82.982 90.7155 82.814C90.5175 82.64 90.2655 82.505 89.9595 82.409C89.6595 82.307 89.3535 82.211 89.0415 82.121C88.4235 81.965 87.8715 81.779 87.3855 81.563C86.8995 81.341 86.5155 81.062 86.2335 80.726C85.9575 80.384 85.8195 79.949 85.8195 79.421C85.8195 78.863 85.9725 78.38 86.2785 77.972C86.5905 77.564 86.9985 77.249 87.5025 77.027C88.0065 76.805 88.5465 76.694 89.1225 76.694C89.8485 76.694 90.5115 76.85 91.1115 77.162C91.7115 77.474 92.1585 77.897 92.4525 78.431L91.2375 79.142C91.1355 78.926 90.9795 78.737 90.7695 78.575C90.5595 78.407 90.3195 78.275 90.0495 78.179C89.7795 78.083 89.5035 78.032 89.2215 78.026C88.8735 78.014 88.5465 78.059 88.2405 78.161C87.9405 78.263 87.6975 78.419 87.5115 78.629C87.3315 78.833 87.2415 79.088 87.2415 79.394C87.2415 79.694 87.3375 79.922 87.5295 80.078C87.7275 80.234 87.9825 80.36 88.2945 80.456C88.6125 80.546 88.9575 80.651 89.3295 80.771C89.8755 80.945 90.3855 81.146 90.8595 81.374C91.3335 81.602 91.7145 81.887 92.0025 82.229C92.2965 82.571 92.4405 82.994 92.4345 83.498C92.4345 84.05 92.2695 84.533 91.9395 84.947C91.6095 85.355 91.1805 85.667 90.6525 85.883C90.1305 86.099 89.5695 86.195 88.9695 86.171ZM98.6385 78.512H96.5955L96.5865 86H95.0745L95.0835 78.512H93.5355V77H95.0835L95.0745 74.174H96.5865L96.5955 77H98.6385V78.512ZM104.576 86V73.4H106.214L112.505 83.264V73.4H114.017V86H112.388L106.088 76.136V86H104.576ZM123.326 77H124.838V86H123.326L123.263 84.479C122.981 85.001 122.591 85.424 122.093 85.748C121.601 86.072 121.013 86.234 120.329 86.234C119.669 86.234 119.051 86.111 118.475 85.865C117.899 85.613 117.389 85.268 116.945 84.83C116.507 84.386 116.165 83.876 115.919 83.3C115.673 82.724 115.55 82.103 115.55 81.437C115.55 80.795 115.67 80.189 115.91 79.619C116.15 79.049 116.483 78.551 116.909 78.125C117.341 77.693 117.839 77.357 118.403 77.117C118.967 76.871 119.573 76.748 120.221 76.748C120.929 76.748 121.55 76.916 122.084 77.252C122.618 77.582 123.05 78.011 123.38 78.539L123.326 77ZM120.302 84.767C120.896 84.767 121.409 84.623 121.841 84.335C122.279 84.041 122.615 83.645 122.849 83.147C123.089 82.649 123.209 82.1 123.209 81.5C123.209 80.888 123.089 80.336 122.849 79.844C122.609 79.346 122.27 78.953 121.832 78.665C121.4 78.371 120.89 78.224 120.302 78.224C119.708 78.224 119.168 78.371 118.682 78.665C118.196 78.959 117.809 79.355 117.521 79.853C117.239 80.345 117.098 80.894 117.098 81.5C117.098 82.106 117.245 82.658 117.539 83.156C117.833 83.648 118.223 84.041 118.709 84.335C119.195 84.623 119.726 84.767 120.302 84.767ZM126.637 86V77H128.149V78.125C128.467 77.705 128.866 77.372 129.346 77.126C129.832 76.874 130.36 76.748 130.93 76.748C131.596 76.748 132.205 76.91 132.757 77.234C133.309 77.558 133.744 77.987 134.062 78.521C134.38 77.987 134.812 77.558 135.358 77.234C135.91 76.91 136.516 76.748 137.176 76.748C137.854 76.748 138.469 76.913 139.021 77.243C139.573 77.567 140.011 78.005 140.335 78.557C140.665 79.109 140.83 79.724 140.83 80.402V86H139.318V80.762C139.318 80.318 139.21 79.907 138.994 79.529C138.778 79.151 138.487 78.848 138.121 78.62C137.755 78.392 137.35 78.278 136.906 78.278C136.462 78.278 136.057 78.386 135.691 78.602C135.325 78.812 135.034 79.106 134.818 79.484C134.602 79.856 134.494 80.282 134.494 80.762V86H132.982V80.762C132.982 80.282 132.874 79.856 132.658 79.484C132.442 79.106 132.148 78.812 131.776 78.602C131.41 78.386 131.005 78.278 130.561 78.278C130.123 78.278 129.718 78.392 129.346 78.62C128.98 78.848 128.689 79.151 128.473 79.529C128.257 79.907 128.149 80.318 128.149 80.762V86H126.637ZM146.417 86.234C145.589 86.234 144.833 86.021 144.149 85.595C143.471 85.169 142.928 84.599 142.52 83.885C142.118 83.165 141.917 82.37 141.917 81.5C141.917 80.84 142.034 80.225 142.268 79.655C142.502 79.079 142.823 78.575 143.231 78.143C143.645 77.705 144.125 77.363 144.671 77.117C145.217 76.871 145.799 76.748 146.417 76.748C147.095 76.748 147.716 76.886 148.28 77.162C148.85 77.432 149.336 77.81 149.738 78.296C150.146 78.782 150.449 79.346 150.647 79.988C150.851 80.63 150.926 81.317 150.872 82.049H143.528C143.6 82.559 143.768 83.015 144.032 83.417C144.296 83.813 144.632 84.128 145.04 84.362C145.454 84.596 145.913 84.716 146.417 84.722C146.957 84.722 147.446 84.584 147.884 84.308C148.322 84.026 148.676 83.642 148.946 83.156L150.485 83.516C150.125 84.314 149.582 84.968 148.856 85.478C148.13 85.982 147.317 86.234 146.417 86.234ZM143.483 80.861H149.351C149.303 80.357 149.141 79.898 148.865 79.484C148.589 79.064 148.238 78.728 147.812 78.476C147.386 78.224 146.921 78.098 146.417 78.098C145.913 78.098 145.451 78.221 145.031 78.467C144.611 78.713 144.263 79.046 143.987 79.466C143.717 79.88 143.549 80.345 143.483 80.861Z" fill="#666666"></path></svg>