<svg xmlns="http://www.w3.org/2000/svg" width="358" height="44" viewBox="0 0 358 44" fill="none"><path d="M6.16 28.421C5.38533 28.421 4.65967 28.2927 3.983 28.036C3.30633 27.7793 2.71133 27.4153 2.198 26.944C1.68467 26.468 1.28333 25.908 0.994 25.264C0.704667 24.62 0.56 23.913 0.56 23.143C0.56 22.373 0.704667 21.6497 0.994 20.973C1.28333 20.2963 1.68467 19.7013 2.198 19.188C2.71133 18.6747 3.30633 18.2733 3.983 17.984C4.65967 17.6947 5.38533 17.55 6.16 17.55C6.93933 17.55 7.66733 17.697 8.344 17.991C9.02067 18.2803 9.61333 18.6817 10.122 19.195C10.6353 19.7083 11.0343 20.3033 11.319 20.98C11.6083 21.652 11.753 22.373 11.753 23.143C11.753 23.5443 11.7017 23.9433 11.599 24.34C11.501 24.732 11.3563 25.089 11.165 25.411C10.9783 25.733 10.745 25.992 10.465 26.188C10.1897 26.3793 9.87467 26.475 9.52 26.475C9.24467 26.475 8.97167 26.4143 8.701 26.293C8.435 26.167 8.20867 25.9967 8.022 25.782C7.84 25.5673 7.735 25.3293 7.707 25.068C7.51567 25.3293 7.27067 25.5393 6.972 25.698C6.678 25.852 6.33967 25.929 5.957 25.929C5.44833 25.929 4.98167 25.8053 4.557 25.558C4.137 25.306 3.801 24.97 3.549 24.55C3.30167 24.1253 3.178 23.6563 3.178 23.143C3.178 22.6297 3.30167 22.163 3.549 21.743C3.801 21.323 4.137 20.9893 4.557 20.742C4.98167 20.49 5.44833 20.364 5.957 20.364C6.32567 20.364 6.671 20.4387 6.993 20.588C7.31967 20.7373 7.574 20.9357 7.756 21.183V20.504L8.673 20.665V24.571C8.673 24.781 8.75233 24.956 8.911 25.096C9.06967 25.2313 9.25167 25.299 9.457 25.299C9.71833 25.299 9.93067 25.1847 10.094 24.956C10.262 24.7227 10.3833 24.4403 10.458 24.109C10.5373 23.773 10.577 23.451 10.577 23.143C10.577 22.5317 10.4603 21.96 10.227 21.428C9.99833 20.8913 9.681 20.4223 9.275 20.021C8.869 19.615 8.4 19.2977 7.868 19.069C7.336 18.8403 6.76667 18.726 6.16 18.726C5.55333 18.726 4.98167 18.8403 4.445 19.069C3.913 19.2977 3.444 19.615 3.038 20.021C2.632 20.4223 2.31233 20.8913 2.079 21.428C1.85033 21.96 1.736 22.5317 1.736 23.143C1.736 23.7543 1.85033 24.312 2.079 24.816C2.30767 25.3153 2.625 25.747 3.031 26.111C3.437 26.475 3.906 26.7573 4.438 26.958C4.97467 27.154 5.54867 27.252 6.16 27.252V28.421ZM6.041 25.012C6.38633 25.012 6.685 24.9187 6.937 24.732C7.189 24.5453 7.385 24.305 7.525 24.011C7.665 23.7123 7.735 23.3997 7.735 23.073C7.735 22.7603 7.66967 22.4687 7.539 22.198C7.40833 21.9227 7.217 21.7033 6.965 21.54C6.713 21.372 6.405 21.288 6.041 21.288C5.69567 21.288 5.383 21.372 5.103 21.54C4.823 21.7033 4.599 21.925 4.431 22.205C4.263 22.485 4.179 22.7977 4.179 23.143C4.179 23.493 4.263 23.808 4.431 24.088C4.60367 24.368 4.83 24.592 5.11 24.76C5.39467 24.928 5.705 25.012 6.041 25.012ZM12.7944 27V25.957C13.1537 25.635 13.5574 25.2757 14.0054 24.879C14.4534 24.4777 14.899 24.06 15.3424 23.626C15.7904 23.1873 16.201 22.7533 16.5744 22.324C16.9477 21.8947 17.2487 21.4887 17.4774 21.106C17.706 20.7187 17.8204 20.3803 17.8204 20.091C17.8204 19.7457 17.7364 19.4307 17.5684 19.146C17.4004 18.8567 17.174 18.6257 16.8894 18.453C16.6094 18.2803 16.2967 18.194 15.9514 18.194C15.606 18.194 15.2887 18.2803 14.9994 18.453C14.7147 18.6257 14.486 18.8567 14.3134 19.146C14.1454 19.4307 14.0614 19.7457 14.0614 20.091H12.8854C12.8854 19.517 13.0254 18.999 13.3054 18.537C13.5854 18.0703 13.9564 17.7017 14.4184 17.431C14.8804 17.1557 15.3914 17.018 15.9514 17.018C16.5114 17.018 17.02 17.1557 17.4774 17.431C17.9394 17.7063 18.308 18.0773 18.5834 18.544C18.8587 19.006 18.9964 19.5217 18.9964 20.091C18.9964 20.4177 18.917 20.77 18.7584 21.148C18.5997 21.5213 18.3827 21.9063 18.1074 22.303C17.832 22.6997 17.5194 23.101 17.1694 23.507C16.8194 23.9083 16.4507 24.305 16.0634 24.697C15.676 25.089 15.291 25.4647 14.9084 25.824H19.1224V27H12.7944ZM23.7125 27.182C23.1292 27.182 22.6065 27.0513 22.1445 26.79C21.6825 26.524 21.2858 26.1577 20.9545 25.691C20.6232 25.2243 20.3712 24.6853 20.1985 24.074C20.0258 23.458 19.9395 22.8 19.9395 22.1C19.9395 21.4 20.0258 20.742 20.1985 20.126C20.3712 19.51 20.6232 18.971 20.9545 18.509C21.2858 18.0423 21.6825 17.6783 22.1445 17.417C22.6065 17.151 23.1292 17.018 23.7125 17.018C24.2912 17.018 24.8115 17.151 25.2735 17.417C25.7402 17.6783 26.1345 18.0423 26.4565 18.509C26.7832 18.971 27.0328 19.51 27.2055 20.126C27.3828 20.742 27.4715 21.4 27.4715 22.1C27.4715 22.8 27.3828 23.458 27.2055 24.074C27.0328 24.6853 26.7832 25.2243 26.4565 25.691C26.1345 26.1577 25.7402 26.524 25.2735 26.79C24.8115 27.0513 24.2912 27.182 23.7125 27.182ZM23.7125 26.006C24.2958 26.006 24.7835 25.8263 25.1755 25.467C25.5722 25.103 25.8685 24.6247 26.0645 24.032C26.2605 23.4393 26.3585 22.7953 26.3585 22.1C26.3585 21.3673 26.2558 20.707 26.0505 20.119C25.8498 19.5263 25.5512 19.0573 25.1545 18.712C24.7625 18.3667 24.2818 18.194 23.7125 18.194C23.2645 18.194 22.8725 18.299 22.5365 18.509C22.2052 18.719 21.9298 19.006 21.7105 19.37C21.4912 19.734 21.3255 20.1517 21.2135 20.623C21.1062 21.0897 21.0525 21.582 21.0525 22.1C21.0525 22.7953 21.1528 23.4417 21.3535 24.039C21.5542 24.6317 21.8505 25.1077 22.2425 25.467C22.6392 25.8263 23.1292 26.006 23.7125 26.006ZM28.3627 27V25.957C28.722 25.635 29.1257 25.2757 29.5737 24.879C30.0217 24.4777 30.4674 24.06 30.9107 23.626C31.3587 23.1873 31.7694 22.7533 32.1427 22.324C32.516 21.8947 32.817 21.4887 33.0457 21.106C33.2744 20.7187 33.3887 20.3803 33.3887 20.091C33.3887 19.7457 33.3047 19.4307 33.1367 19.146C32.9687 18.8567 32.7424 18.6257 32.4577 18.453C32.1777 18.2803 31.865 18.194 31.5197 18.194C31.1744 18.194 30.857 18.2803 30.5677 18.453C30.283 18.6257 30.0544 18.8567 29.8817 19.146C29.7137 19.4307 29.6297 19.7457 29.6297 20.091H28.4537C28.4537 19.517 28.5937 18.999 28.8737 18.537C29.1537 18.0703 29.5247 17.7017 29.9867 17.431C30.4487 17.1557 30.9597 17.018 31.5197 17.018C32.0797 17.018 32.5884 17.1557 33.0457 17.431C33.5077 17.7063 33.8764 18.0773 34.1517 18.544C34.427 19.006 34.5647 19.5217 34.5647 20.091C34.5647 20.4177 34.4854 20.77 34.3267 21.148C34.168 21.5213 33.951 21.9063 33.6757 22.303C33.4004 22.6997 33.0877 23.101 32.7377 23.507C32.3877 23.9083 32.019 24.305 31.6317 24.697C31.2444 25.089 30.8594 25.4647 30.4767 25.824H34.6907V27H28.3627ZM38.9153 27.182C38.3226 27.182 37.7953 27.049 37.3333 26.783C36.876 26.5123 36.5166 26.153 36.2553 25.705C35.994 25.2523 35.8633 24.7507 35.8633 24.2H37.0393C37.0393 24.5313 37.1163 24.8347 37.2703 25.11C37.4243 25.3807 37.6413 25.5977 37.9213 25.761C38.2013 25.9243 38.5326 26.006 38.9153 26.006C39.2466 26.006 39.5546 25.9243 39.8393 25.761C40.1286 25.5977 40.362 25.3807 40.5393 25.11C40.7166 24.8347 40.8053 24.5313 40.8053 24.2C40.8053 23.7847 40.698 23.4393 40.4833 23.164C40.2733 22.884 39.9793 22.6763 39.6013 22.541C39.228 22.401 38.801 22.331 38.3203 22.331V21.386C38.983 21.386 39.5126 21.2483 39.9093 20.973C40.3106 20.6977 40.5113 20.2917 40.5113 19.755C40.5113 19.4703 40.4343 19.209 40.2803 18.971C40.1263 18.733 39.9233 18.544 39.6713 18.404C39.424 18.2593 39.158 18.187 38.8733 18.187C38.584 18.187 38.3063 18.2593 38.0403 18.404C37.7743 18.544 37.5573 18.733 37.3893 18.971C37.2213 19.209 37.1373 19.4703 37.1373 19.755H35.9613C35.9613 19.377 36.0383 19.0223 36.1923 18.691C36.351 18.3597 36.5656 18.068 36.8363 17.816C37.1116 17.564 37.422 17.368 37.7673 17.228C38.1126 17.0833 38.4766 17.011 38.8593 17.011C39.3586 17.011 39.823 17.1347 40.2523 17.382C40.6816 17.6293 41.027 17.9607 41.2883 18.376C41.5543 18.7913 41.6873 19.251 41.6873 19.755C41.6873 20.2077 41.573 20.6253 41.3443 21.008C41.1156 21.3907 40.8053 21.659 40.4133 21.813C40.754 21.9297 41.041 22.1117 41.2743 22.359C41.5076 22.6017 41.6826 22.8817 41.7993 23.199C41.9206 23.5163 41.9813 23.85 41.9813 24.2C41.9813 24.746 41.839 25.2453 41.5543 25.698C41.2743 26.1507 40.901 26.5123 40.4343 26.783C39.9723 27.049 39.466 27.182 38.9153 27.182ZM46.4376 27V17.2H52.4506V18.376H47.6136V21.162H51.5756V22.338H47.6136V25.824H52.4506V27H46.4376ZM56.0354 27.133C55.6574 27.119 55.2888 27.049 54.9294 26.923C54.5748 26.7923 54.2621 26.6173 53.9914 26.398C53.7254 26.174 53.5318 25.9173 53.4104 25.628L54.4184 25.194C54.4884 25.3527 54.6144 25.502 54.7964 25.642C54.9784 25.782 55.1884 25.894 55.4264 25.978C55.6644 26.062 55.9048 26.104 56.1474 26.104C56.4041 26.104 56.6444 26.0643 56.8684 25.985C57.0924 25.9057 57.2744 25.789 57.4144 25.635C57.5591 25.4763 57.6314 25.2873 57.6314 25.068C57.6314 24.8347 57.5521 24.6527 57.3934 24.522C57.2394 24.3867 57.0434 24.2817 56.8054 24.207C56.5721 24.1277 56.3341 24.053 56.0914 23.983C55.6108 23.8617 55.1814 23.717 54.8034 23.549C54.4254 23.3763 54.1268 23.1593 53.9074 22.898C53.6928 22.632 53.5854 22.2937 53.5854 21.883C53.5854 21.449 53.7044 21.0733 53.9424 20.756C54.1851 20.4387 54.5024 20.1937 54.8944 20.021C55.2864 19.8483 55.7064 19.762 56.1544 19.762C56.7191 19.762 57.2348 19.8833 57.7014 20.126C58.1681 20.3687 58.5158 20.6977 58.7444 21.113L57.7994 21.666C57.7201 21.498 57.5988 21.351 57.4354 21.225C57.2721 21.0943 57.0854 20.9917 56.8754 20.917C56.6654 20.8423 56.4508 20.8027 56.2314 20.798C55.9608 20.7887 55.7064 20.8237 55.4684 20.903C55.2351 20.9823 55.0461 21.1037 54.9014 21.267C54.7614 21.4257 54.6914 21.624 54.6914 21.862C54.6914 22.0953 54.7661 22.2727 54.9154 22.394C55.0694 22.5153 55.2678 22.6133 55.5104 22.688C55.7578 22.758 56.0261 22.8397 56.3154 22.933C56.7401 23.0683 57.1368 23.2247 57.5054 23.402C57.8741 23.5793 58.1704 23.801 58.3944 24.067C58.6231 24.333 58.7351 24.662 58.7304 25.054C58.7304 25.4833 58.6021 25.859 58.3454 26.181C58.0888 26.4983 57.7551 26.741 57.3444 26.909C56.9384 27.077 56.5021 27.1517 56.0354 27.133ZM63.4717 21.176H61.8827L61.8757 27H60.6997L60.7067 21.176H59.5027V20H60.7067L60.6997 17.802H61.8757L61.8827 20H63.4717V21.176ZM70.0929 20H71.2689V27H70.0929L70.0439 25.817C69.8245 26.223 69.5212 26.552 69.1339 26.804C68.7512 27.056 68.2939 27.182 67.7619 27.182C67.2485 27.182 66.7679 27.0863 66.3199 26.895C65.8719 26.699 65.4752 26.4307 65.1299 26.09C64.7892 25.7447 64.5232 25.348 64.3319 24.9C64.1405 24.452 64.0449 23.969 64.0449 23.451C64.0449 22.9517 64.1382 22.4803 64.3249 22.037C64.5115 21.5937 64.7705 21.2063 65.1019 20.875C65.4379 20.539 65.8252 20.2777 66.2639 20.091C66.7025 19.8997 67.1739 19.804 67.6779 19.804C68.2285 19.804 68.7115 19.9347 69.1269 20.196C69.5422 20.4527 69.8782 20.7863 70.1349 21.197L70.0929 20ZM67.7409 26.041C68.2029 26.041 68.6019 25.929 68.9379 25.705C69.2785 25.4763 69.5399 25.1683 69.7219 24.781C69.9085 24.3937 70.0019 23.9667 70.0019 23.5C70.0019 23.024 69.9085 22.5947 69.7219 22.212C69.5352 21.8247 69.2715 21.519 68.9309 21.295C68.5949 21.0663 68.1982 20.952 67.7409 20.952C67.2789 20.952 66.8589 21.0663 66.4809 21.295C66.1029 21.5237 65.8019 21.8317 65.5779 22.219C65.3585 22.6017 65.2489 23.0287 65.2489 23.5C65.2489 23.9713 65.3632 24.4007 65.5919 24.788C65.8205 25.1707 66.1239 25.4763 66.5019 25.705C66.8799 25.929 67.2929 26.041 67.7409 26.041ZM76.21 21.176H74.621L74.614 27H73.438L73.445 21.176H72.241V20H73.445L73.438 17.802H74.614L74.621 20H76.21V21.176ZM80.2831 27.182C79.6391 27.182 79.0511 27.0163 78.5191 26.685C77.9918 26.3537 77.5694 25.9103 77.2521 25.355C76.9394 24.795 76.7831 24.1767 76.7831 23.5C76.7831 22.9867 76.8741 22.5083 77.0561 22.065C77.2381 21.617 77.4878 21.225 77.8051 20.889C78.1271 20.5483 78.5004 20.2823 78.9251 20.091C79.3498 19.8997 79.8024 19.804 80.2831 19.804C80.8104 19.804 81.2934 19.9113 81.7321 20.126C82.1754 20.336 82.5534 20.63 82.8661 21.008C83.1834 21.386 83.4191 21.8247 83.5731 22.324C83.7318 22.8233 83.7901 23.3577 83.7481 23.927H78.0361C78.0921 24.3237 78.2228 24.6783 78.4281 24.991C78.6334 25.299 78.8948 25.544 79.2121 25.726C79.5341 25.908 79.8911 26.0013 80.2831 26.006C80.7031 26.006 81.0834 25.8987 81.4241 25.684C81.7648 25.4647 82.0401 25.166 82.2501 24.788L83.4471 25.068C83.1671 25.6887 82.7448 26.1973 82.1801 26.594C81.6154 26.986 80.9831 27.182 80.2831 27.182ZM78.0011 23.003H82.5651C82.5278 22.611 82.4018 22.254 82.1871 21.932C81.9724 21.6053 81.6994 21.344 81.3681 21.148C81.0368 20.952 80.6751 20.854 80.2831 20.854C79.8911 20.854 79.5318 20.9497 79.2051 21.141C78.8784 21.3323 78.6078 21.5913 78.3931 21.918C78.1831 22.24 78.0524 22.6017 78.0011 23.003ZM84.748 20H85.924V27H84.748V20ZM85.35 18.859C85.1633 18.859 85.007 18.7983 84.881 18.677C84.755 18.5557 84.692 18.404 84.692 18.222C84.692 18.04 84.755 17.8883 84.881 17.767C85.007 17.6457 85.161 17.585 85.343 17.585C85.525 17.585 85.679 17.6457 85.805 17.767C85.931 17.8883 85.994 18.04 85.994 18.222C85.994 18.404 85.931 18.5557 85.805 18.677C85.6837 18.7983 85.532 18.859 85.35 18.859ZM93.6821 22.646V27H92.5061V22.905C92.5061 22.5503 92.4198 22.2283 92.2471 21.939C92.0744 21.6497 91.8434 21.421 91.5541 21.253C91.2648 21.0803 90.9428 20.994 90.5881 20.994C90.2381 20.994 89.9161 21.0803 89.6221 21.253C89.3328 21.421 89.1018 21.6497 88.9291 21.939C88.7564 22.2283 88.6701 22.5503 88.6701 22.905V27H87.4941V20H88.6701V20.875C88.9174 20.5483 89.2301 20.2893 89.6081 20.098C89.9861 19.902 90.3968 19.804 90.8401 19.804C91.3628 19.804 91.8388 19.9323 92.2681 20.189C92.7021 20.441 93.0451 20.7817 93.2971 21.211C93.5538 21.6403 93.6821 22.1187 93.6821 22.646ZM95.355 27.182C95.1776 27.182 95.026 27.119 94.9 26.993C94.7786 26.867 94.718 26.713 94.718 26.531C94.718 26.3583 94.7786 26.209 94.9 26.083C95.026 25.957 95.1776 25.894 95.355 25.894C95.537 25.894 95.691 25.957 95.817 26.083C95.943 26.209 96.006 26.3583 96.006 26.531C96.006 26.713 95.943 26.867 95.817 26.993C95.691 27.119 95.537 27.182 95.355 27.182ZM104.17 17.2H105.591L109.154 27H107.908L107.18 24.998H102.581L101.86 27H100.607L104.17 17.2ZM103.015 23.822H106.746L104.877 18.705L103.015 23.822ZM110.346 27V16.5H111.522V27H110.346ZM113.119 27V16.5H114.295V27H113.119ZM119.172 27V17.2H122.616C123.138 17.2 123.61 17.3283 124.03 17.585C124.454 17.8417 124.79 18.1893 125.038 18.628C125.29 19.062 125.416 19.5473 125.416 20.084C125.416 20.5553 125.322 20.9847 125.136 21.372C124.949 21.7593 124.692 22.0837 124.366 22.345C124.044 22.6017 123.677 22.779 123.267 22.877L125.647 27H124.289L121.951 22.975H120.348V27H119.172ZM120.348 21.799H122.497C122.814 21.799 123.106 21.722 123.372 21.568C123.638 21.4093 123.848 21.197 124.002 20.931C124.16 20.6603 124.24 20.357 124.24 20.021C124.24 19.6803 124.16 19.377 124.002 19.111C123.848 18.8403 123.638 18.628 123.372 18.474C123.106 18.3153 122.814 18.236 122.497 18.236H120.348V21.799ZM126.881 20H128.057V27H126.881V20ZM127.483 18.859C127.296 18.859 127.14 18.7983 127.014 18.677C126.888 18.5557 126.825 18.404 126.825 18.222C126.825 18.04 126.888 17.8883 127.014 17.767C127.14 17.6457 127.294 17.585 127.476 17.585C127.658 17.585 127.812 17.6457 127.938 17.767C128.064 17.8883 128.127 18.04 128.127 18.222C128.127 18.404 128.064 18.5557 127.938 18.677C127.816 18.7983 127.665 18.859 127.483 18.859ZM135.025 20H136.201V27.224C136.201 27.686 136.101 28.1153 135.9 28.512C135.704 28.9133 135.438 29.261 135.102 29.555C134.766 29.8537 134.384 30.0847 133.954 30.248C133.525 30.416 133.077 30.5 132.61 30.5C132.125 30.5 131.656 30.3903 131.203 30.171C130.751 29.9563 130.354 29.667 130.013 29.303C129.677 28.9437 129.435 28.54 129.285 28.092L130.363 27.602C130.452 27.924 130.611 28.2133 130.839 28.47C131.073 28.7313 131.343 28.9367 131.651 29.086C131.964 29.24 132.284 29.317 132.61 29.317C132.918 29.317 133.215 29.2633 133.499 29.156C133.789 29.0487 134.048 28.8993 134.276 28.708C134.51 28.5213 134.692 28.2997 134.822 28.043C134.958 27.791 135.025 27.518 135.025 27.224V25.831C134.787 26.2323 134.472 26.559 134.08 26.811C133.693 27.0583 133.24 27.182 132.722 27.182C132.228 27.182 131.763 27.0863 131.329 26.895C130.895 26.7037 130.515 26.44 130.188 26.104C129.862 25.7633 129.605 25.3713 129.418 24.928C129.232 24.4847 129.138 24.0087 129.138 23.5C129.138 22.9913 129.232 22.5153 129.418 22.072C129.605 21.624 129.862 21.232 130.188 20.896C130.515 20.5553 130.895 20.2893 131.329 20.098C131.763 19.9067 132.228 19.811 132.722 19.811C133.24 19.811 133.693 19.9347 134.08 20.182C134.472 20.4293 134.787 20.756 135.025 21.162V20ZM132.729 26.041C133.182 26.041 133.574 25.9243 133.905 25.691C134.241 25.4577 134.5 25.1473 134.682 24.76C134.864 24.3727 134.955 23.9527 134.955 23.5C134.955 23.0333 134.862 22.6087 134.675 22.226C134.493 21.8387 134.234 21.5307 133.898 21.302C133.567 21.0687 133.177 20.952 132.729 20.952C132.291 20.952 131.889 21.0663 131.525 21.295C131.161 21.5237 130.872 21.8317 130.657 22.219C130.447 22.6017 130.342 23.0287 130.342 23.5C130.342 23.9713 130.45 24.4007 130.664 24.788C130.884 25.1707 131.173 25.4763 131.532 25.705C131.896 25.929 132.295 26.041 132.729 26.041ZM143.989 22.646V27H142.813V22.905C142.813 22.5503 142.726 22.2283 142.554 21.939C142.381 21.6497 142.15 21.421 141.861 21.253C141.571 21.0803 141.249 20.994 140.895 20.994C140.545 20.994 140.223 21.0803 139.929 21.253C139.639 21.421 139.408 21.6497 139.236 21.939C139.063 22.2283 138.977 22.5503 138.977 22.905V27H137.801V16.5H138.977V20.875C139.224 20.5483 139.537 20.2893 139.915 20.098C140.293 19.902 140.703 19.804 141.147 19.804C141.669 19.804 142.145 19.9323 142.575 20.189C143.009 20.441 143.352 20.7817 143.604 21.211C143.86 21.6403 143.989 22.1187 143.989 22.646ZM148.93 21.176H147.341L147.334 27H146.158L146.165 21.176H144.961V20H146.165L146.158 17.802H147.334L147.341 20H148.93V21.176ZM152.168 27.133C151.79 27.119 151.421 27.049 151.062 26.923C150.707 26.7923 150.395 26.6173 150.124 26.398C149.858 26.174 149.664 25.9173 149.543 25.628L150.551 25.194C150.621 25.3527 150.747 25.502 150.929 25.642C151.111 25.782 151.321 25.894 151.559 25.978C151.797 26.062 152.037 26.104 152.28 26.104C152.537 26.104 152.777 26.0643 153.001 25.985C153.225 25.9057 153.407 25.789 153.547 25.635C153.692 25.4763 153.764 25.2873 153.764 25.068C153.764 24.8347 153.685 24.6527 153.526 24.522C153.372 24.3867 153.176 24.2817 152.938 24.207C152.705 24.1277 152.467 24.053 152.224 23.983C151.743 23.8617 151.314 23.717 150.936 23.549C150.558 23.3763 150.259 23.1593 150.04 22.898C149.825 22.632 149.718 22.2937 149.718 21.883C149.718 21.449 149.837 21.0733 150.075 20.756C150.318 20.4387 150.635 20.1937 151.027 20.021C151.419 19.8483 151.839 19.762 152.287 19.762C152.852 19.762 153.367 19.8833 153.834 20.126C154.301 20.3687 154.648 20.6977 154.877 21.113L153.932 21.666C153.853 21.498 153.731 21.351 153.568 21.225C153.405 21.0943 153.218 20.9917 153.008 20.917C152.798 20.8423 152.583 20.8027 152.364 20.798C152.093 20.7887 151.839 20.8237 151.601 20.903C151.368 20.9823 151.179 21.1037 151.034 21.267C150.894 21.4257 150.824 21.624 150.824 21.862C150.824 22.0953 150.899 22.2727 151.048 22.394C151.202 22.5153 151.4 22.6133 151.643 22.688C151.89 22.758 152.159 22.8397 152.448 22.933C152.873 23.0683 153.269 23.2247 153.638 23.402C154.007 23.5793 154.303 23.801 154.527 24.067C154.756 24.333 154.868 24.662 154.863 25.054C154.863 25.4833 154.735 25.859 154.478 26.181C154.221 26.4983 153.888 26.741 153.477 26.909C153.071 27.077 152.635 27.1517 152.168 27.133ZM159.258 27V17.2H162.702C163.224 17.2 163.696 17.3283 164.116 17.585C164.54 17.8417 164.876 18.1893 165.124 18.628C165.376 19.062 165.502 19.5473 165.502 20.084C165.502 20.5553 165.408 20.9847 165.222 21.372C165.035 21.7593 164.778 22.0837 164.452 22.345C164.13 22.6017 163.763 22.779 163.353 22.877L165.733 27H164.375L162.037 22.975H160.434V27H159.258ZM160.434 21.799H162.583C162.9 21.799 163.192 21.722 163.458 21.568C163.724 21.4093 163.934 21.197 164.088 20.931C164.246 20.6603 164.326 20.357 164.326 20.021C164.326 19.6803 164.246 19.377 164.088 19.111C163.934 18.8403 163.724 18.628 163.458 18.474C163.192 18.3153 162.9 18.236 162.583 18.236H160.434V21.799ZM169.882 27.182C169.238 27.182 168.65 27.0163 168.118 26.685C167.591 26.3537 167.169 25.9103 166.851 25.355C166.539 24.795 166.382 24.1767 166.382 23.5C166.382 22.9867 166.473 22.5083 166.655 22.065C166.837 21.617 167.087 21.225 167.404 20.889C167.726 20.5483 168.1 20.2823 168.524 20.091C168.949 19.8997 169.402 19.804 169.882 19.804C170.41 19.804 170.893 19.9113 171.331 20.126C171.775 20.336 172.153 20.63 172.465 21.008C172.783 21.386 173.018 21.8247 173.172 22.324C173.331 22.8233 173.389 23.3577 173.347 23.927H167.635C167.691 24.3237 167.822 24.6783 168.027 24.991C168.233 25.299 168.494 25.544 168.811 25.726C169.133 25.908 169.49 26.0013 169.882 26.006C170.302 26.006 170.683 25.8987 171.023 25.684C171.364 25.4647 171.639 25.166 171.849 24.788L173.046 25.068C172.766 25.6887 172.344 26.1973 171.779 26.594C171.215 26.986 170.582 27.182 169.882 27.182ZM167.6 23.003H172.164C172.127 22.611 172.001 22.254 171.786 21.932C171.572 21.6053 171.299 21.344 170.967 21.148C170.636 20.952 170.274 20.854 169.882 20.854C169.49 20.854 169.131 20.9497 168.804 21.141C168.478 21.3323 168.207 21.5913 167.992 21.918C167.782 22.24 167.652 22.6017 167.6 23.003ZM176.605 27.133C176.227 27.119 175.859 27.049 175.499 26.923C175.145 26.7923 174.832 26.6173 174.561 26.398C174.295 26.174 174.102 25.9173 173.98 25.628L174.988 25.194C175.058 25.3527 175.184 25.502 175.366 25.642C175.548 25.782 175.758 25.894 175.996 25.978C176.234 26.062 176.475 26.104 176.717 26.104C176.974 26.104 177.214 26.0643 177.438 25.985C177.662 25.9057 177.844 25.789 177.984 25.635C178.129 25.4763 178.201 25.2873 178.201 25.068C178.201 24.8347 178.122 24.6527 177.963 24.522C177.809 24.3867 177.613 24.2817 177.375 24.207C177.142 24.1277 176.904 24.053 176.661 23.983C176.181 23.8617 175.751 23.717 175.373 23.549C174.995 23.3763 174.697 23.1593 174.477 22.898C174.263 22.632 174.155 22.2937 174.155 21.883C174.155 21.449 174.274 21.0733 174.512 20.756C174.755 20.4387 175.072 20.1937 175.464 20.021C175.856 19.8483 176.276 19.762 176.724 19.762C177.289 19.762 177.805 19.8833 178.271 20.126C178.738 20.3687 179.086 20.6977 179.314 21.113L178.369 21.666C178.29 21.498 178.169 21.351 178.005 21.225C177.842 21.0943 177.655 20.9917 177.445 20.917C177.235 20.8423 177.021 20.8027 176.801 20.798C176.531 20.7887 176.276 20.8237 176.038 20.903C175.805 20.9823 175.616 21.1037 175.471 21.267C175.331 21.4257 175.261 21.624 175.261 21.862C175.261 22.0953 175.336 22.2727 175.485 22.394C175.639 22.5153 175.838 22.6133 176.08 22.688C176.328 22.758 176.596 22.8397 176.885 22.933C177.31 23.0683 177.707 23.2247 178.075 23.402C178.444 23.5793 178.74 23.801 178.964 24.067C179.193 24.333 179.305 24.662 179.3 25.054C179.3 25.4833 179.172 25.859 178.915 26.181C178.659 26.4983 178.325 26.741 177.914 26.909C177.508 27.077 177.072 27.1517 176.605 27.133ZM183.427 27.182C182.783 27.182 182.195 27.0163 181.663 26.685C181.136 26.3537 180.714 25.9103 180.396 25.355C180.084 24.795 179.927 24.1767 179.927 23.5C179.927 22.9867 180.018 22.5083 180.2 22.065C180.382 21.617 180.632 21.225 180.949 20.889C181.271 20.5483 181.645 20.2823 182.069 20.091C182.494 19.8997 182.947 19.804 183.427 19.804C183.955 19.804 184.438 19.9113 184.876 20.126C185.32 20.336 185.698 20.63 186.01 21.008C186.328 21.386 186.563 21.8247 186.717 22.324C186.876 22.8233 186.934 23.3577 186.892 23.927H181.18C181.236 24.3237 181.367 24.6783 181.572 24.991C181.778 25.299 182.039 25.544 182.356 25.726C182.678 25.908 183.035 26.0013 183.427 26.006C183.847 26.006 184.228 25.8987 184.568 25.684C184.909 25.4647 185.184 25.166 185.394 24.788L186.591 25.068C186.311 25.6887 185.889 26.1973 185.324 26.594C184.76 26.986 184.127 27.182 183.427 27.182ZM181.145 23.003H185.709C185.672 22.611 185.546 22.254 185.331 21.932C185.117 21.6053 184.844 21.344 184.512 21.148C184.181 20.952 183.819 20.854 183.427 20.854C183.035 20.854 182.676 20.9497 182.349 21.141C182.023 21.3323 181.752 21.5913 181.537 21.918C181.327 22.24 181.197 22.6017 181.145 23.003ZM187.988 27V20H189.164V20.875C189.411 20.5483 189.724 20.2893 190.102 20.098C190.48 19.902 190.891 19.804 191.334 19.804C191.605 19.804 191.866 19.839 192.118 19.909L191.642 21.085C191.451 21.0243 191.264 20.994 191.082 20.994C190.732 20.994 190.41 21.0803 190.116 21.253C189.827 21.421 189.596 21.6497 189.423 21.939C189.25 22.2283 189.164 22.5503 189.164 22.905V27H187.988ZM196.657 27H195.152L192.597 19.986H193.85L195.901 25.635L197.952 19.986H199.205L196.657 27ZM203.054 27.182C202.41 27.182 201.822 27.0163 201.29 26.685C200.763 26.3537 200.341 25.9103 200.023 25.355C199.711 24.795 199.554 24.1767 199.554 23.5C199.554 22.9867 199.645 22.5083 199.827 22.065C200.009 21.617 200.259 21.225 200.576 20.889C200.898 20.5483 201.272 20.2823 201.696 20.091C202.121 19.8997 202.574 19.804 203.054 19.804C203.582 19.804 204.065 19.9113 204.503 20.126C204.947 20.336 205.325 20.63 205.637 21.008C205.955 21.386 206.19 21.8247 206.344 22.324C206.503 22.8233 206.561 23.3577 206.519 23.927H200.807C200.863 24.3237 200.994 24.6783 201.199 24.991C201.405 25.299 201.666 25.544 201.983 25.726C202.305 25.908 202.662 26.0013 203.054 26.006C203.474 26.006 203.855 25.8987 204.195 25.684C204.536 25.4647 204.811 25.166 205.021 24.788L206.218 25.068C205.938 25.6887 205.516 26.1973 204.951 26.594C204.387 26.986 203.754 27.182 203.054 27.182ZM200.772 23.003H205.336C205.299 22.611 205.173 22.254 204.958 21.932C204.744 21.6053 204.471 21.344 204.139 21.148C203.808 20.952 203.446 20.854 203.054 20.854C202.662 20.854 202.303 20.9497 201.976 21.141C201.65 21.3323 201.379 21.5913 201.164 21.918C200.954 22.24 200.824 22.6017 200.772 23.003ZM213.209 16.5H214.385V27H213.209V25.81C212.971 26.2207 212.651 26.552 212.25 26.804C211.849 27.056 211.377 27.182 210.836 27.182C210.327 27.182 209.851 27.0863 209.408 26.895C208.965 26.7037 208.573 26.44 208.232 26.104C207.896 25.7633 207.632 25.3713 207.441 24.928C207.25 24.4847 207.154 24.0087 207.154 23.5C207.154 22.9913 207.25 22.5153 207.441 22.072C207.632 21.624 207.896 21.232 208.232 20.896C208.573 20.5553 208.965 20.2893 209.408 20.098C209.851 19.9067 210.327 19.811 210.836 19.811C211.377 19.811 211.849 19.937 212.25 20.189C212.651 20.441 212.971 20.7723 213.209 21.183V16.5ZM210.85 26.041C211.312 26.041 211.711 25.929 212.047 25.705C212.388 25.4763 212.649 25.1683 212.831 24.781C213.018 24.3937 213.111 23.9667 213.111 23.5C213.111 23.024 213.018 22.5947 212.831 22.212C212.644 21.8247 212.381 21.519 212.04 21.295C211.704 21.0663 211.307 20.952 210.85 20.952C210.388 20.952 209.968 21.0663 209.59 21.295C209.217 21.5237 208.918 21.8317 208.694 22.219C208.47 22.6017 208.358 23.0287 208.358 23.5C208.358 23.9713 208.472 24.4007 208.701 24.788C208.93 25.1707 209.233 25.4763 209.611 25.705C209.989 25.929 210.402 26.041 210.85 26.041ZM216.337 27.182C216.16 27.182 216.008 27.119 215.882 26.993C215.761 26.867 215.7 26.713 215.7 26.531C215.7 26.3583 215.761 26.209 215.882 26.083C216.008 25.957 216.16 25.894 216.337 25.894C216.519 25.894 216.673 25.957 216.799 26.083C216.925 26.209 216.988 26.3583 216.988 26.531C216.988 26.713 216.925 26.867 216.799 26.993C216.673 27.119 216.519 27.182 216.337 27.182Z" fill="white"></path><path d="M246.253 17.2V18.376H242.991V27H241.815V18.376H238.56V17.2H246.253ZM249.561 27.182C248.917 27.182 248.329 27.0163 247.797 26.685C247.269 26.3537 246.847 25.9103 246.53 25.355C246.217 24.795 246.061 24.1767 246.061 23.5C246.061 22.9867 246.152 22.5083 246.334 22.065C246.516 21.617 246.765 21.225 247.083 20.889C247.405 20.5483 247.778 20.2823 248.203 20.091C248.627 19.8997 249.08 19.804 249.561 19.804C250.088 19.804 250.571 19.9113 251.01 20.126C251.453 20.336 251.831 20.63 252.144 21.008C252.461 21.386 252.697 21.8247 252.851 22.324C253.009 22.8233 253.068 23.3577 253.026 23.927H247.314C247.37 24.3237 247.5 24.6783 247.706 24.991C247.911 25.299 248.172 25.544 248.49 25.726C248.812 25.908 249.169 26.0013 249.561 26.006C249.981 26.006 250.361 25.8987 250.702 25.684C251.042 25.4647 251.318 25.166 251.528 24.788L252.725 25.068C252.445 25.6887 252.022 26.1973 251.458 26.594C250.893 26.986 250.261 27.182 249.561 27.182ZM247.279 23.003H251.843C251.805 22.611 251.679 22.254 251.465 21.932C251.25 21.6053 250.977 21.344 250.646 21.148C250.314 20.952 249.953 20.854 249.561 20.854C249.169 20.854 248.809 20.9497 248.483 21.141C248.156 21.3323 247.885 21.5913 247.671 21.918C247.461 22.24 247.33 22.6017 247.279 23.003ZM254.121 27V20H255.297V20.875C255.545 20.5483 255.857 20.2893 256.235 20.098C256.613 19.902 257.024 19.804 257.467 19.804C257.738 19.804 257.999 19.839 258.251 19.909L257.775 21.085C257.584 21.0243 257.397 20.994 257.215 20.994C256.865 20.994 256.543 21.0803 256.249 21.253C255.96 21.421 255.729 21.6497 255.556 21.939C255.384 22.2283 255.297 22.5503 255.297 22.905V27H254.121ZM259.055 27V20H260.231V20.875C260.478 20.5483 260.788 20.2893 261.162 20.098C261.54 19.902 261.95 19.804 262.394 19.804C262.912 19.804 263.385 19.93 263.815 20.182C264.244 20.434 264.582 20.7677 264.83 21.183C265.077 20.7677 265.413 20.434 265.838 20.182C266.267 19.93 266.738 19.804 267.252 19.804C267.779 19.804 268.257 19.9323 268.687 20.189C269.116 20.441 269.457 20.7817 269.709 21.211C269.965 21.6403 270.094 22.1187 270.094 22.646V27H268.918V22.926C268.918 22.5807 268.834 22.261 268.666 21.967C268.498 21.673 268.271 21.4373 267.987 21.26C267.702 21.0827 267.387 20.994 267.042 20.994C266.696 20.994 266.381 21.078 266.097 21.246C265.812 21.4093 265.586 21.638 265.418 21.932C265.25 22.2213 265.166 22.5527 265.166 22.926V27H263.99V22.926C263.99 22.5527 263.906 22.2213 263.738 21.932C263.57 21.638 263.341 21.4093 263.052 21.246C262.767 21.078 262.452 20.994 262.107 20.994C261.766 20.994 261.451 21.0827 261.162 21.26C260.877 21.4373 260.651 21.673 260.483 21.967C260.315 22.261 260.231 22.5807 260.231 22.926V27H259.055ZM273.547 27.133C273.169 27.119 272.801 27.049 272.441 26.923C272.087 26.7923 271.774 26.6173 271.503 26.398C271.237 26.174 271.044 25.9173 270.922 25.628L271.93 25.194C272 25.3527 272.126 25.502 272.308 25.642C272.49 25.782 272.7 25.894 272.938 25.978C273.176 26.062 273.417 26.104 273.659 26.104C273.916 26.104 274.156 26.0643 274.38 25.985C274.604 25.9057 274.786 25.789 274.926 25.635C275.071 25.4763 275.143 25.2873 275.143 25.068C275.143 24.8347 275.064 24.6527 274.905 24.522C274.751 24.3867 274.555 24.2817 274.317 24.207C274.084 24.1277 273.846 24.053 273.603 23.983C273.123 23.8617 272.693 23.717 272.315 23.549C271.937 23.3763 271.639 23.1593 271.419 22.898C271.205 22.632 271.097 22.2937 271.097 21.883C271.097 21.449 271.216 21.0733 271.454 20.756C271.697 20.4387 272.014 20.1937 272.406 20.021C272.798 19.8483 273.218 19.762 273.666 19.762C274.231 19.762 274.747 19.8833 275.213 20.126C275.68 20.3687 276.028 20.6977 276.256 21.113L275.311 21.666C275.232 21.498 275.111 21.351 274.947 21.225C274.784 21.0943 274.597 20.9917 274.387 20.917C274.177 20.8423 273.963 20.8027 273.743 20.798C273.473 20.7887 273.218 20.8237 272.98 20.903C272.747 20.9823 272.558 21.1037 272.413 21.267C272.273 21.4257 272.203 21.624 272.203 21.862C272.203 22.0953 272.278 22.2727 272.427 22.394C272.581 22.5153 272.78 22.6133 273.022 22.688C273.27 22.758 273.538 22.8397 273.827 22.933C274.252 23.0683 274.649 23.2247 275.017 23.402C275.386 23.5793 275.682 23.801 275.906 24.067C276.135 24.333 276.247 24.662 276.242 25.054C276.242 25.4833 276.114 25.859 275.857 26.181C275.601 26.4983 275.267 26.741 274.856 26.909C274.45 27.077 274.014 27.1517 273.547 27.133ZM283.241 27.182C282.681 27.182 282.184 27.0467 281.75 26.776C281.316 26.5053 280.975 26.1507 280.728 25.712C280.48 25.2687 280.357 24.795 280.357 24.291C280.357 23.9877 280.387 23.724 280.448 23.5C280.508 23.276 280.613 23.0567 280.763 22.842C280.917 22.6227 281.127 22.373 281.393 22.093C281.659 21.813 281.999 21.4653 282.415 21.05C282.177 20.8073 281.978 20.602 281.82 20.434C281.661 20.2613 281.537 20.1027 281.449 19.958C281.36 19.8133 281.297 19.6663 281.26 19.517C281.222 19.3677 281.204 19.195 281.204 18.999C281.204 18.6163 281.297 18.271 281.484 17.963C281.67 17.6503 281.918 17.4053 282.226 17.228C282.538 17.046 282.877 16.955 283.241 16.955C283.619 16.955 283.962 17.046 284.27 17.228C284.578 17.41 284.823 17.655 285.005 17.963C285.191 18.271 285.285 18.6163 285.285 18.999C285.285 19.1997 285.266 19.377 285.229 19.531C285.191 19.685 285.126 19.8343 285.033 19.979C284.939 20.1237 284.813 20.2823 284.655 20.455C284.501 20.623 284.307 20.8213 284.074 21.05L286.489 23.465L288.085 21.862V23.521L287.308 24.305L289.184 26.167L288.351 27L286.489 25.145C286.069 25.5603 285.716 25.901 285.432 26.167C285.152 26.433 284.902 26.6407 284.683 26.79C284.468 26.9393 284.249 27.042 284.025 27.098C283.805 27.154 283.544 27.182 283.241 27.182ZM283.241 26.006C283.455 26.006 283.637 25.9827 283.787 25.936C283.941 25.8847 284.095 25.7983 284.249 25.677C284.407 25.551 284.594 25.3783 284.809 25.159C285.028 24.935 285.31 24.648 285.656 24.298L283.241 21.883C282.886 22.2423 282.597 22.534 282.373 22.758C282.149 22.9773 281.976 23.164 281.855 23.318C281.738 23.472 281.656 23.6237 281.61 23.773C281.563 23.9223 281.54 24.0997 281.54 24.305C281.54 24.627 281.617 24.9163 281.771 25.173C281.929 25.4297 282.137 25.6327 282.394 25.782C282.65 25.9313 282.933 26.006 283.241 26.006ZM283.241 20.371C283.516 20.0957 283.724 19.888 283.864 19.748C284.008 19.608 284.106 19.4867 284.158 19.384C284.209 19.2813 284.235 19.1483 284.235 18.985C284.235 18.6957 284.134 18.4577 283.934 18.271C283.733 18.0843 283.502 17.991 283.241 17.991C282.97 17.991 282.739 18.089 282.548 18.285C282.356 18.481 282.261 18.7143 282.261 18.985C282.261 19.1483 282.289 19.286 282.345 19.398C282.401 19.5053 282.499 19.629 282.639 19.769C282.779 19.909 282.979 20.1097 283.241 20.371ZM298.321 27.182C297.659 27.182 297.036 27.0513 296.452 26.79C295.869 26.524 295.356 26.16 294.912 25.698C294.474 25.2313 294.128 24.69 293.876 24.074C293.629 23.458 293.505 22.8 293.505 22.1C293.505 21.4 293.629 20.742 293.876 20.126C294.128 19.51 294.474 18.971 294.912 18.509C295.356 18.0423 295.869 17.6783 296.452 17.417C297.036 17.151 297.659 17.018 298.321 17.018C299.115 17.018 299.845 17.2023 300.512 17.571C301.18 17.9397 301.733 18.4297 302.171 19.041L301.128 19.601C300.802 19.1717 300.389 18.831 299.889 18.579C299.395 18.3223 298.872 18.194 298.321 18.194C297.813 18.194 297.337 18.2967 296.893 18.502C296.455 18.7073 296.07 18.9897 295.738 19.349C295.407 19.7083 295.148 20.1237 294.961 20.595C294.775 21.0663 294.681 21.568 294.681 22.1C294.681 22.6367 294.775 23.1407 294.961 23.612C295.153 24.0833 295.414 24.4987 295.745 24.858C296.081 25.2173 296.469 25.4997 296.907 25.705C297.351 25.9057 297.822 26.006 298.321 26.006C298.891 26.006 299.418 25.8777 299.903 25.621C300.393 25.3597 300.802 25.019 301.128 24.599L302.171 25.166C301.733 25.7773 301.18 26.2673 300.512 26.636C299.845 27 299.115 27.182 298.321 27.182ZM306.201 27.182C305.557 27.182 304.969 27.0163 304.437 26.685C303.91 26.3537 303.487 25.9103 303.17 25.355C302.857 24.795 302.701 24.1767 302.701 23.5C302.701 22.9867 302.792 22.5083 302.974 22.065C303.156 21.617 303.406 21.225 303.723 20.889C304.045 20.5483 304.418 20.2823 304.843 20.091C305.268 19.8997 305.72 19.804 306.201 19.804C306.845 19.804 307.431 19.9697 307.958 20.301C308.49 20.6323 308.912 21.078 309.225 21.638C309.542 22.198 309.701 22.8187 309.701 23.5C309.701 24.0087 309.61 24.4847 309.428 24.928C309.246 25.3713 308.994 25.7633 308.672 26.104C308.355 26.44 307.984 26.7037 307.559 26.895C307.139 27.0863 306.686 27.182 306.201 27.182ZM306.201 26.006C306.64 26.006 307.034 25.8917 307.384 25.663C307.739 25.4297 308.016 25.124 308.217 24.746C308.422 24.3633 308.525 23.948 308.525 23.5C308.525 23.0427 308.42 22.6227 308.21 22.24C308.005 21.8573 307.727 21.5517 307.377 21.323C307.027 21.0943 306.635 20.98 306.201 20.98C305.762 20.98 305.368 21.0967 305.018 21.33C304.668 21.5587 304.39 21.8643 304.185 22.247C303.98 22.6297 303.877 23.0473 303.877 23.5C303.877 23.9667 303.982 24.3913 304.192 24.774C304.402 25.152 304.684 25.453 305.039 25.677C305.394 25.8963 305.781 26.006 306.201 26.006ZM316.963 22.646V27H315.787V22.905C315.787 22.5503 315.701 22.2283 315.528 21.939C315.356 21.6497 315.125 21.421 314.835 21.253C314.546 21.0803 314.224 20.994 313.869 20.994C313.519 20.994 313.197 21.0803 312.903 21.253C312.614 21.421 312.383 21.6497 312.21 21.939C312.038 22.2283 311.951 22.5503 311.951 22.905V27H310.775V20H311.951V20.875C312.199 20.5483 312.511 20.2893 312.889 20.098C313.267 19.902 313.678 19.804 314.121 19.804C314.644 19.804 315.12 19.9323 315.549 20.189C315.983 20.441 316.326 20.7817 316.578 21.211C316.835 21.6403 316.963 22.1187 316.963 22.646ZM323.778 16.5H324.954V27H323.778V25.81C323.54 26.2207 323.22 26.552 322.819 26.804C322.417 27.056 321.946 27.182 321.405 27.182C320.896 27.182 320.42 27.0863 319.977 26.895C319.533 26.7037 319.141 26.44 318.801 26.104C318.465 25.7633 318.201 25.3713 318.01 24.928C317.818 24.4847 317.723 24.0087 317.723 23.5C317.723 22.9913 317.818 22.5153 318.01 22.072C318.201 21.624 318.465 21.232 318.801 20.896C319.141 20.5553 319.533 20.2893 319.977 20.098C320.42 19.9067 320.896 19.811 321.405 19.811C321.946 19.811 322.417 19.937 322.819 20.189C323.22 20.441 323.54 20.7723 323.778 21.183V16.5ZM321.419 26.041C321.881 26.041 322.28 25.929 322.616 25.705C322.956 25.4763 323.218 25.1683 323.4 24.781C323.586 24.3937 323.68 23.9667 323.68 23.5C323.68 23.024 323.586 22.5947 323.4 22.212C323.213 21.8247 322.949 21.519 322.609 21.295C322.273 21.0663 321.876 20.952 321.419 20.952C320.957 20.952 320.537 21.0663 320.159 21.295C319.785 21.5237 319.487 21.8317 319.263 22.219C319.039 22.6017 318.927 23.0287 318.927 23.5C318.927 23.9713 319.041 24.4007 319.27 24.788C319.498 25.1707 319.802 25.4763 320.18 25.705C320.558 25.929 320.971 26.041 321.419 26.041ZM326.549 20H327.725V27H326.549V20ZM327.151 18.859C326.964 18.859 326.808 18.7983 326.682 18.677C326.556 18.5557 326.493 18.404 326.493 18.222C326.493 18.04 326.556 17.8883 326.682 17.767C326.808 17.6457 326.962 17.585 327.144 17.585C327.326 17.585 327.48 17.6457 327.606 17.767C327.732 17.8883 327.795 18.04 327.795 18.222C327.795 18.404 327.732 18.5557 327.606 18.677C327.484 18.7983 327.333 18.859 327.151 18.859ZM332.948 21.176H331.359L331.352 27H330.176L330.183 21.176H328.979V20H330.183L330.176 17.802H331.352L331.359 20H332.948V21.176ZM334.051 20H335.227V27H334.051V20ZM334.653 18.859C334.466 18.859 334.31 18.7983 334.184 18.677C334.058 18.5557 333.995 18.404 333.995 18.222C333.995 18.04 334.058 17.8883 334.184 17.767C334.31 17.6457 334.464 17.585 334.646 17.585C334.828 17.585 334.982 17.6457 335.108 17.767C335.234 17.8883 335.297 18.04 335.297 18.222C335.297 18.404 335.234 18.5557 335.108 18.677C334.986 18.7983 334.835 18.859 334.653 18.859ZM339.808 27.182C339.164 27.182 338.576 27.0163 338.044 26.685C337.517 26.3537 337.095 25.9103 336.777 25.355C336.465 24.795 336.308 24.1767 336.308 23.5C336.308 22.9867 336.399 22.5083 336.581 22.065C336.763 21.617 337.013 21.225 337.33 20.889C337.652 20.5483 338.026 20.2823 338.45 20.091C338.875 19.8997 339.328 19.804 339.808 19.804C340.452 19.804 341.038 19.9697 341.565 20.301C342.097 20.6323 342.52 21.078 342.832 21.638C343.15 22.198 343.308 22.8187 343.308 23.5C343.308 24.0087 343.217 24.4847 343.035 24.928C342.853 25.3713 342.601 25.7633 342.279 26.104C341.962 26.44 341.591 26.7037 341.166 26.895C340.746 27.0863 340.294 27.182 339.808 27.182ZM339.808 26.006C340.247 26.006 340.641 25.8917 340.991 25.663C341.346 25.4297 341.624 25.124 341.824 24.746C342.03 24.3633 342.132 23.948 342.132 23.5C342.132 23.0427 342.027 22.6227 341.817 22.24C341.612 21.8573 341.334 21.5517 340.984 21.323C340.634 21.0943 340.242 20.98 339.808 20.98C339.37 20.98 338.975 21.0967 338.625 21.33C338.275 21.5587 337.998 21.8643 337.792 22.247C337.587 22.6297 337.484 23.0473 337.484 23.5C337.484 23.9667 337.589 24.3913 337.799 24.774C338.009 25.152 338.292 25.453 338.646 25.677C339.001 25.8963 339.388 26.006 339.808 26.006ZM350.571 22.646V27H349.395V22.905C349.395 22.5503 349.308 22.2283 349.136 21.939C348.963 21.6497 348.732 21.421 348.443 21.253C348.153 21.0803 347.831 20.994 347.477 20.994C347.127 20.994 346.805 21.0803 346.511 21.253C346.221 21.421 345.99 21.6497 345.818 21.939C345.645 22.2283 345.559 22.5503 345.559 22.905V27H344.383V20H345.559V20.875C345.806 20.5483 346.119 20.2893 346.497 20.098C346.875 19.902 347.285 19.804 347.729 19.804C348.251 19.804 348.727 19.9323 349.157 20.189C349.591 20.441 349.934 20.7817 350.186 21.211C350.442 21.6403 350.571 22.1187 350.571 22.646ZM354.022 27.133C353.644 27.119 353.275 27.049 352.916 26.923C352.561 26.7923 352.248 26.6173 351.978 26.398C351.712 26.174 351.518 25.9173 351.397 25.628L352.405 25.194C352.475 25.3527 352.601 25.502 352.783 25.642C352.965 25.782 353.175 25.894 353.413 25.978C353.651 26.062 353.891 26.104 354.134 26.104C354.39 26.104 354.631 26.0643 354.855 25.985C355.079 25.9057 355.261 25.789 355.401 25.635C355.545 25.4763 355.618 25.2873 355.618 25.068C355.618 24.8347 355.538 24.6527 355.38 24.522C355.226 24.3867 355.03 24.2817 354.792 24.207C354.558 24.1277 354.32 24.053 354.078 23.983C353.597 23.8617 353.168 23.717 352.79 23.549C352.412 23.3763 352.113 23.1593 351.894 22.898C351.679 22.632 351.572 22.2937 351.572 21.883C351.572 21.449 351.691 21.0733 351.929 20.756C352.171 20.4387 352.489 20.1937 352.881 20.021C353.273 19.8483 353.693 19.762 354.141 19.762C354.705 19.762 355.221 19.8833 355.688 20.126C356.154 20.3687 356.502 20.6977 356.731 21.113L355.786 21.666C355.706 21.498 355.585 21.351 355.422 21.225C355.258 21.0943 355.072 20.9917 354.862 20.917C354.652 20.8423 354.437 20.8027 354.218 20.798C353.947 20.7887 353.693 20.8237 353.455 20.903C353.221 20.9823 353.032 21.1037 352.888 21.267C352.748 21.4257 352.678 21.624 352.678 21.862C352.678 22.0953 352.752 22.2727 352.902 22.394C353.056 22.5153 353.254 22.6133 353.497 22.688C353.744 22.758 354.012 22.8397 354.302 22.933C354.726 23.0683 355.123 23.2247 355.492 23.402C355.86 23.5793 356.157 23.801 356.381 24.067C356.609 24.333 356.721 24.662 356.717 25.054C356.717 25.4833 356.588 25.859 356.332 26.181C356.075 26.4983 355.741 26.741 355.331 26.909C354.925 27.077 354.488 27.1517 354.022 27.133Z" fill="white"></path></svg>