<svg xmlns="http://www.w3.org/2000/svg" width="965" height="49" viewBox="0 0 965 49" fill="none"><path d="M11.79 17.5V19.58H7.33V31.5H5.25V19.58H0.8V17.5H11.79ZM16.6547 31.76C15.7347 31.76 14.8947 31.5233 14.1347 31.05C13.3814 30.5767 12.778 29.9433 12.3247 29.15C11.878 28.35 11.6547 27.4667 11.6547 26.5C11.6547 25.7667 11.7847 25.0833 12.0447 24.45C12.3047 23.81 12.6614 23.25 13.1147 22.77C13.5747 22.2833 14.108 21.9033 14.7147 21.63C15.3214 21.3567 15.968 21.22 16.6547 21.22C17.5747 21.22 18.4114 21.4567 19.1647 21.93C19.9247 22.4033 20.528 23.04 20.9747 23.84C21.428 24.64 21.6547 25.5267 21.6547 26.5C21.6547 27.2267 21.5247 27.9067 21.2647 28.54C21.0047 29.1733 20.6447 29.7333 20.1847 30.22C19.7314 30.7 19.2014 31.0767 18.5947 31.35C17.9947 31.6233 17.348 31.76 16.6547 31.76ZM16.6547 29.68C17.208 29.68 17.7047 29.5333 18.1447 29.24C18.5847 28.9467 18.9314 28.56 19.1847 28.08C19.4447 27.5933 19.5747 27.0667 19.5747 26.5C19.5747 25.92 19.4414 25.3867 19.1747 24.9C18.9147 24.4133 18.5647 24.0267 18.1247 23.74C17.6847 23.4467 17.1947 23.3 16.6547 23.3C16.108 23.3 15.6114 23.4467 15.1647 23.74C14.7247 24.0333 14.3747 24.4233 14.1147 24.91C13.8614 25.3967 13.7347 25.9267 13.7347 26.5C13.7347 27.0933 13.868 27.63 14.1347 28.11C14.4014 28.59 14.7547 28.9733 15.1947 29.26C15.6414 29.54 16.128 29.68 16.6547 29.68ZM28.4917 23.58H26.3917L26.3817 31.5H24.3017L24.3117 23.58H22.7217V21.5H24.3117L24.3017 18.36H26.3817L26.3917 21.5H28.4917V23.58ZM37.8277 21.5H39.9077V31.5H37.8177L37.7377 30.05C37.4443 30.5633 37.0477 30.9767 36.5477 31.29C36.0477 31.6033 35.4577 31.76 34.7777 31.76C34.0443 31.76 33.3543 31.6233 32.7077 31.35C32.061 31.07 31.491 30.6833 30.9977 30.19C30.511 29.6967 30.131 29.13 29.8577 28.49C29.5843 27.8433 29.4477 27.15 29.4477 26.41C29.4477 25.6967 29.581 25.0267 29.8477 24.4C30.1143 23.7667 30.4843 23.2133 30.9577 22.74C31.431 22.2667 31.9777 21.8967 32.5977 21.63C33.2243 21.3567 33.8943 21.22 34.6077 21.22C35.3343 21.22 35.9743 21.3867 36.5277 21.72C37.0877 22.0467 37.551 22.4667 37.9177 22.98L37.8277 21.5ZM34.7277 29.75C35.3143 29.75 35.8277 29.6067 36.2677 29.32C36.7077 29.0267 37.0477 28.6333 37.2877 28.14C37.5343 27.6467 37.6577 27.1 37.6577 26.5C37.6577 25.8933 37.5343 25.3433 37.2877 24.85C37.041 24.3567 36.6977 23.9667 36.2577 23.68C35.8243 23.3867 35.3143 23.24 34.7277 23.24C34.1477 23.24 33.6177 23.3867 33.1377 23.68C32.6577 23.9733 32.2777 24.3667 31.9977 24.86C31.7177 25.3533 31.5777 25.9 31.5777 26.5C31.5777 27.1067 31.721 27.6567 32.0077 28.15C32.301 28.6367 32.6843 29.0267 33.1577 29.32C33.6377 29.6067 34.161 29.75 34.7277 29.75ZM41.9813 31.5V16.5H44.0613V31.5H41.9813ZM51.5586 31.5V17.5H53.6386V31.5H51.5586ZM65.3367 25.23V31.5H63.2567V25.74C63.2567 25.2933 63.1467 24.8867 62.9267 24.52C62.7134 24.1533 62.4234 23.8633 62.0567 23.65C61.6967 23.43 61.2901 23.32 60.8367 23.32C60.3967 23.32 59.9934 23.43 59.6267 23.65C59.2601 23.8633 58.9667 24.1533 58.7467 24.52C58.5267 24.8867 58.4167 25.2933 58.4167 25.74V31.5H56.3367V21.5H58.4167V22.56C58.7634 22.1467 59.1901 21.82 59.6967 21.58C60.2034 21.34 60.7501 21.22 61.3367 21.22C62.0767 21.22 62.7501 21.4 63.3567 21.76C63.9634 22.12 64.4434 22.6033 64.7967 23.21C65.1567 23.8167 65.3367 24.49 65.3367 25.23ZM67.3328 21.5H69.4128V31.5H67.3328V21.5ZM68.3928 20.05C68.0728 20.05 67.8061 19.9467 67.5928 19.74C67.3795 19.5333 67.2728 19.2733 67.2728 18.96C67.2728 18.6533 67.3795 18.3967 67.5928 18.19C67.8061 17.9767 68.0695 17.87 68.3828 17.87C68.6895 17.87 68.9495 17.9767 69.1628 18.19C69.3761 18.3967 69.4828 18.6533 69.4828 18.96C69.4828 19.2733 69.3761 19.5333 69.1628 19.74C68.9561 19.9467 68.6995 20.05 68.3928 20.05ZM77.0855 23.58H74.9855L74.9755 31.5H72.8955L72.9055 23.58H71.3155V21.5H72.9055L72.8955 18.36H74.9755L74.9855 21.5H77.0855V23.58ZM78.7391 21.5H80.8191V31.5H78.7391V21.5ZM79.7991 20.05C79.4791 20.05 79.2124 19.9467 78.9991 19.74C78.7857 19.5333 78.6791 19.2733 78.6791 18.96C78.6791 18.6533 78.7857 18.3967 78.9991 18.19C79.2124 17.9767 79.4757 17.87 79.7891 17.87C80.0957 17.87 80.3557 17.9767 80.5691 18.19C80.7824 18.3967 80.8891 18.6533 80.8891 18.96C80.8891 19.2733 80.7824 19.5333 80.5691 19.74C80.3624 19.9467 80.1057 20.05 79.7991 20.05ZM90.8159 21.5H92.8959V31.5H90.8059L90.7259 30.05C90.4326 30.5633 90.0359 30.9767 89.5359 31.29C89.0359 31.6033 88.4459 31.76 87.7659 31.76C87.0326 31.76 86.3426 31.6233 85.6959 31.35C85.0493 31.07 84.4793 30.6833 83.9859 30.19C83.4993 29.6967 83.1193 29.13 82.8459 28.49C82.5726 27.8433 82.4359 27.15 82.4359 26.41C82.4359 25.6967 82.5693 25.0267 82.8359 24.4C83.1026 23.7667 83.4726 23.2133 83.9459 22.74C84.4193 22.2667 84.9659 21.8967 85.5859 21.63C86.2126 21.3567 86.8826 21.22 87.5959 21.22C88.3226 21.22 88.9626 21.3867 89.5159 21.72C90.0759 22.0467 90.5393 22.4667 90.9059 22.98L90.8159 21.5ZM87.7159 29.75C88.3026 29.75 88.8159 29.6067 89.2559 29.32C89.6959 29.0267 90.0359 28.6333 90.2759 28.14C90.5226 27.6467 90.6459 27.1 90.6459 26.5C90.6459 25.8933 90.5226 25.3433 90.2759 24.85C90.0293 24.3567 89.6859 23.9667 89.2459 23.68C88.8126 23.3867 88.3026 23.24 87.7159 23.24C87.1359 23.24 86.6059 23.3867 86.1259 23.68C85.6459 23.9733 85.2659 24.3667 84.9859 24.86C84.7059 25.3533 84.5659 25.9 84.5659 26.5C84.5659 27.1067 84.7093 27.6567 84.9959 28.15C85.2893 28.6367 85.6726 29.0267 86.1459 29.32C86.6259 29.6067 87.1493 29.75 87.7159 29.75ZM94.9695 31.5V16.5H97.0495V31.5H94.9695ZM110.727 31.76C109.78 31.76 108.89 31.5733 108.057 31.2C107.224 30.82 106.49 30.3 105.857 29.64C105.23 28.9733 104.737 28.2 104.377 27.32C104.024 26.44 103.847 25.5 103.847 24.5C103.847 23.5 104.024 22.56 104.377 21.68C104.737 20.8 105.23 20.03 105.857 19.37C106.49 18.7033 107.224 18.1833 108.057 17.81C108.89 17.43 109.78 17.24 110.727 17.24C111.86 17.24 112.904 17.5033 113.857 18.03C114.81 18.5567 115.6 19.2567 116.227 20.13L114.377 21.12C113.944 20.5733 113.407 20.1367 112.767 19.81C112.127 19.4833 111.447 19.32 110.727 19.32C110.06 19.32 109.437 19.4567 108.857 19.73C108.277 20.0033 107.767 20.3767 107.327 20.85C106.887 21.3233 106.544 21.8733 106.297 22.5C106.05 23.1267 105.927 23.7933 105.927 24.5C105.927 25.2133 106.05 25.8833 106.297 26.51C106.544 27.13 106.887 27.68 107.327 28.16C107.774 28.6333 108.287 29.0067 108.867 29.28C109.447 29.5467 110.067 29.68 110.727 29.68C111.46 29.68 112.144 29.5167 112.777 29.19C113.417 28.8567 113.95 28.4167 114.377 27.87L116.227 28.88C115.6 29.7533 114.81 30.4533 113.857 30.98C112.904 31.5 111.86 31.76 110.727 31.76ZM122.045 31.76C121.125 31.76 120.285 31.5233 119.525 31.05C118.772 30.5767 118.169 29.9433 117.715 29.15C117.269 28.35 117.045 27.4667 117.045 26.5C117.045 25.7667 117.175 25.0833 117.435 24.45C117.695 23.81 118.052 23.25 118.505 22.77C118.965 22.2833 119.499 21.9033 120.105 21.63C120.712 21.3567 121.359 21.22 122.045 21.22C122.965 21.22 123.802 21.4567 124.555 21.93C125.315 22.4033 125.919 23.04 126.365 23.84C126.819 24.64 127.045 25.5267 127.045 26.5C127.045 27.2267 126.915 27.9067 126.655 28.54C126.395 29.1733 126.035 29.7333 125.575 30.22C125.122 30.7 124.592 31.0767 123.985 31.35C123.385 31.6233 122.739 31.76 122.045 31.76ZM122.045 29.68C122.599 29.68 123.095 29.5333 123.535 29.24C123.975 28.9467 124.322 28.56 124.575 28.08C124.835 27.5933 124.965 27.0667 124.965 26.5C124.965 25.92 124.832 25.3867 124.565 24.9C124.305 24.4133 123.955 24.0267 123.515 23.74C123.075 23.4467 122.585 23.3 122.045 23.3C121.499 23.3 121.002 23.4467 120.555 23.74C120.115 24.0333 119.765 24.4233 119.505 24.91C119.252 25.3967 119.125 25.9267 119.125 26.5C119.125 27.0933 119.259 27.63 119.525 28.11C119.792 28.59 120.145 28.9733 120.585 29.26C121.032 29.54 121.519 29.68 122.045 29.68ZM131.7 31.69C131.173 31.6567 130.66 31.55 130.16 31.37C129.66 31.19 129.22 30.9467 128.84 30.64C128.467 30.3267 128.187 29.96 128 29.54L129.77 28.78C129.857 28.96 130.007 29.1367 130.22 29.31C130.44 29.4833 130.697 29.6267 130.99 29.74C131.283 29.8467 131.59 29.9 131.91 29.9C132.223 29.9 132.513 29.8567 132.78 29.77C133.053 29.6767 133.277 29.5367 133.45 29.35C133.623 29.1633 133.71 28.94 133.71 28.68C133.71 28.3867 133.61 28.16 133.41 28C133.217 27.8333 132.973 27.7067 132.68 27.62C132.387 27.5333 132.093 27.45 131.8 27.37C131.147 27.2233 130.547 27.0233 130 26.77C129.46 26.51 129.03 26.18 128.71 25.78C128.39 25.3733 128.23 24.8767 128.23 24.29C128.23 23.65 128.403 23.0967 128.75 22.63C129.097 22.1567 129.55 21.7933 130.11 21.54C130.677 21.2867 131.28 21.16 131.92 21.16C132.72 21.16 133.453 21.33 134.12 21.67C134.787 22.01 135.297 22.4767 135.65 23.07L134 24.05C133.9 23.85 133.75 23.67 133.55 23.51C133.35 23.35 133.123 23.2233 132.87 23.13C132.617 23.03 132.353 22.9733 132.08 22.96C131.74 22.9467 131.423 22.9867 131.13 23.08C130.843 23.1667 130.613 23.3067 130.44 23.5C130.267 23.6933 130.18 23.94 130.18 24.24C130.18 24.5333 130.283 24.7533 130.49 24.9C130.697 25.04 130.957 25.1533 131.27 25.24C131.59 25.3267 131.917 25.4233 132.25 25.53C132.843 25.7167 133.4 25.9467 133.92 26.22C134.44 26.4867 134.86 26.8167 135.18 27.21C135.5 27.6033 135.653 28.0833 135.64 28.65C135.64 29.2767 135.45 29.8267 135.07 30.3C134.697 30.7733 134.21 31.1333 133.61 31.38C133.01 31.6267 132.373 31.73 131.7 31.69ZM142.632 23.58H140.532L140.522 31.5H138.442L138.452 23.58H136.862V21.5H138.452L138.442 18.36H140.522L140.532 21.5H142.632V23.58ZM147.286 31.69C146.759 31.6567 146.246 31.55 145.746 31.37C145.246 31.19 144.806 30.9467 144.426 30.64C144.053 30.3267 143.773 29.96 143.586 29.54L145.356 28.78C145.443 28.96 145.593 29.1367 145.806 29.31C146.026 29.4833 146.283 29.6267 146.576 29.74C146.869 29.8467 147.176 29.9 147.496 29.9C147.809 29.9 148.099 29.8567 148.366 29.77C148.639 29.6767 148.863 29.5367 149.036 29.35C149.209 29.1633 149.296 28.94 149.296 28.68C149.296 28.3867 149.196 28.16 148.996 28C148.803 27.8333 148.559 27.7067 148.266 27.62C147.973 27.5333 147.679 27.45 147.386 27.37C146.733 27.2233 146.133 27.0233 145.586 26.77C145.046 26.51 144.616 26.18 144.296 25.78C143.976 25.3733 143.816 24.8767 143.816 24.29C143.816 23.65 143.989 23.0967 144.336 22.63C144.683 22.1567 145.136 21.7933 145.696 21.54C146.263 21.2867 146.866 21.16 147.506 21.16C148.306 21.16 149.039 21.33 149.706 21.67C150.373 22.01 150.883 22.4767 151.236 23.07L149.586 24.05C149.486 23.85 149.336 23.67 149.136 23.51C148.936 23.35 148.709 23.2233 148.456 23.13C148.203 23.03 147.939 22.9733 147.666 22.96C147.326 22.9467 147.009 22.9867 146.716 23.08C146.429 23.1667 146.199 23.3067 146.026 23.5C145.853 23.6933 145.766 23.94 145.766 24.24C145.766 24.5333 145.869 24.7533 146.076 24.9C146.283 25.04 146.543 25.1533 146.856 25.24C147.176 25.3267 147.503 25.4233 147.836 25.53C148.429 25.7167 148.986 25.9467 149.506 26.22C150.026 26.4867 150.446 26.8167 150.766 27.21C151.086 27.6033 151.239 28.0833 151.226 28.65C151.226 29.2767 151.036 29.8267 150.656 30.3C150.283 30.7733 149.796 31.1333 149.196 31.38C148.596 31.6267 147.959 31.73 147.286 31.69Z" fill="white"></path><rect x="854.5" y="0.5" width="110" height="48" rx="7.5" fill="#1A1A1A"></rect><rect x="854.5" y="0.5" width="110" height="48" rx="7.5" stroke="#262626"></rect><path d="M874.84 29V19.2H876.016V27.824H880.405V29H874.84ZM884.346 29.182C883.702 29.182 883.114 29.0163 882.582 28.685C882.054 28.3537 881.632 27.9103 881.315 27.355C881.002 26.795 880.846 26.1767 880.846 25.5C880.846 24.9867 880.937 24.5083 881.119 24.065C881.301 23.617 881.55 23.225 881.868 22.889C882.19 22.5483 882.563 22.2823 882.988 22.091C883.412 21.8997 883.865 21.804 884.346 21.804C884.873 21.804 885.356 21.9113 885.795 22.126C886.238 22.336 886.616 22.63 886.929 23.008C887.246 23.386 887.482 23.8247 887.636 24.324C887.794 24.8233 887.853 25.3577 887.811 25.927H882.099C882.155 26.3237 882.285 26.6783 882.491 26.991C882.696 27.299 882.957 27.544 883.275 27.726C883.597 27.908 883.954 28.0013 884.346 28.006C884.766 28.006 885.146 27.8987 885.487 27.684C885.827 27.4647 886.103 27.166 886.313 26.788L887.51 27.068C887.23 27.6887 886.807 28.1973 886.243 28.594C885.678 28.986 885.046 29.182 884.346 29.182ZM882.064 25.003H886.628C886.59 24.611 886.464 24.254 886.25 23.932C886.035 23.6053 885.762 23.344 885.431 23.148C885.099 22.952 884.738 22.854 884.346 22.854C883.954 22.854 883.594 22.9497 883.268 23.141C882.941 23.3323 882.67 23.5913 882.456 23.918C882.246 24.24 882.115 24.6017 882.064 25.003ZM894.577 22H895.753V29H894.577L894.528 27.817C894.309 28.223 894.006 28.552 893.618 28.804C893.236 29.056 892.778 29.182 892.246 29.182C891.733 29.182 891.252 29.0863 890.804 28.895C890.356 28.699 889.96 28.4307 889.614 28.09C889.274 27.7447 889.008 27.348 888.816 26.9C888.625 26.452 888.529 25.969 888.529 25.451C888.529 24.9517 888.623 24.4803 888.809 24.037C888.996 23.5937 889.255 23.2063 889.586 22.875C889.922 22.539 890.31 22.2777 890.748 22.091C891.187 21.8997 891.658 21.804 892.162 21.804C892.713 21.804 893.196 21.9347 893.611 22.196C894.027 22.4527 894.363 22.7863 894.619 23.197L894.577 22ZM892.225 28.041C892.687 28.041 893.086 27.929 893.422 27.705C893.763 27.4763 894.024 27.1683 894.206 26.781C894.393 26.3937 894.486 25.9667 894.486 25.5C894.486 25.024 894.393 24.5947 894.206 24.212C894.02 23.8247 893.756 23.519 893.415 23.295C893.079 23.0663 892.683 22.952 892.225 22.952C891.763 22.952 891.343 23.0663 890.965 23.295C890.587 23.5237 890.286 23.8317 890.062 24.219C889.843 24.6017 889.733 25.0287 889.733 25.5C889.733 25.9713 889.848 26.4007 890.076 26.788C890.305 27.1707 890.608 27.4763 890.986 27.705C891.364 27.929 891.777 28.041 892.225 28.041ZM897.153 29V22H898.329V22.875C898.576 22.5483 898.889 22.2893 899.267 22.098C899.645 21.902 900.055 21.804 900.499 21.804C900.769 21.804 901.031 21.839 901.283 21.909L900.807 23.085C900.615 23.0243 900.429 22.994 900.247 22.994C899.897 22.994 899.575 23.0803 899.281 23.253C898.991 23.421 898.76 23.6497 898.588 23.939C898.415 24.2283 898.329 24.5503 898.329 24.905V29H897.153ZM908.358 24.646V29H907.182V24.905C907.182 24.5503 907.096 24.2283 906.923 23.939C906.75 23.6497 906.519 23.421 906.23 23.253C905.941 23.0803 905.619 22.994 905.264 22.994C904.914 22.994 904.592 23.0803 904.298 23.253C904.009 23.421 903.778 23.6497 903.605 23.939C903.432 24.2283 903.346 24.5503 903.346 24.905V29H902.17V22H903.346V22.875C903.593 22.5483 903.906 22.2893 904.284 22.098C904.662 21.902 905.073 21.804 905.516 21.804C906.039 21.804 906.515 21.9323 906.944 22.189C907.378 22.441 907.721 22.7817 907.973 23.211C908.23 23.6403 908.358 24.1187 908.358 24.646ZM913.121 29L915.018 19.2H915.921L918.567 26.158L921.206 19.2H922.109L924.013 29H922.816L921.437 21.888L918.952 28.468H918.175L915.69 21.888L914.318 29H913.121ZM928.164 29.182C927.52 29.182 926.932 29.0163 926.4 28.685C925.873 28.3537 925.45 27.9103 925.133 27.355C924.82 26.795 924.664 26.1767 924.664 25.5C924.664 24.9867 924.755 24.5083 924.937 24.065C925.119 23.617 925.369 23.225 925.686 22.889C926.008 22.5483 926.381 22.2823 926.806 22.091C927.231 21.8997 927.683 21.804 928.164 21.804C928.808 21.804 929.394 21.9697 929.921 22.301C930.453 22.6323 930.875 23.078 931.188 23.638C931.505 24.198 931.664 24.8187 931.664 25.5C931.664 26.0087 931.573 26.4847 931.391 26.928C931.209 27.3713 930.957 27.7633 930.635 28.104C930.318 28.44 929.947 28.7037 929.522 28.895C929.102 29.0863 928.649 29.182 928.164 29.182ZM928.164 28.006C928.603 28.006 928.997 27.8917 929.347 27.663C929.702 27.4297 929.979 27.124 930.18 26.746C930.385 26.3633 930.488 25.948 930.488 25.5C930.488 25.0427 930.383 24.6227 930.173 24.24C929.968 23.8573 929.69 23.5517 929.34 23.323C928.99 23.0943 928.598 22.98 928.164 22.98C927.725 22.98 927.331 23.0967 926.981 23.33C926.631 23.5587 926.353 23.8643 926.148 24.247C925.943 24.6297 925.84 25.0473 925.84 25.5C925.84 25.9667 925.945 26.3913 926.155 26.774C926.365 27.152 926.647 27.453 927.002 27.677C927.357 27.8963 927.744 28.006 928.164 28.006ZM932.822 29V22H933.998V22.875C934.246 22.5483 934.558 22.2893 934.936 22.098C935.314 21.902 935.725 21.804 936.168 21.804C936.439 21.804 936.7 21.839 936.952 21.909L936.476 23.085C936.285 23.0243 936.098 22.994 935.916 22.994C935.566 22.994 935.244 23.0803 934.95 23.253C934.661 23.421 934.43 23.6497 934.257 23.939C934.085 24.2283 933.998 24.5503 933.998 24.905V29H932.822ZM940.537 29.182C939.893 29.182 939.305 29.0163 938.773 28.685C938.246 28.3537 937.824 27.9103 937.506 27.355C937.194 26.795 937.037 26.1767 937.037 25.5C937.037 24.9867 937.128 24.5083 937.31 24.065C937.492 23.617 937.742 23.225 938.059 22.889C938.381 22.5483 938.755 22.2823 939.179 22.091C939.604 21.8997 940.057 21.804 940.537 21.804C941.065 21.804 941.548 21.9113 941.986 22.126C942.43 22.336 942.808 22.63 943.12 23.008C943.438 23.386 943.673 23.8247 943.827 24.324C943.986 24.8233 944.044 25.3577 944.002 25.927H938.29C938.346 26.3237 938.477 26.6783 938.682 26.991C938.888 27.299 939.149 27.544 939.466 27.726C939.788 27.908 940.145 28.0013 940.537 28.006C940.957 28.006 941.338 27.8987 941.678 27.684C942.019 27.4647 942.294 27.166 942.504 26.788L943.701 27.068C943.421 27.6887 942.999 28.1973 942.434 28.594C941.87 28.986 941.237 29.182 940.537 29.182ZM938.255 25.003H942.819C942.782 24.611 942.656 24.254 942.441 23.932C942.227 23.6053 941.954 23.344 941.622 23.148C941.291 22.952 940.929 22.854 940.537 22.854C940.145 22.854 939.786 22.9497 939.459 23.141C939.133 23.3323 938.862 23.5913 938.647 23.918C938.437 24.24 938.307 24.6017 938.255 25.003Z" fill="white"></path></svg>