<svg xmlns="http://www.w3.org/2000/svg" width="427" height="114" viewBox="0 0 427 114" fill="none"><path d="M1.2 22V8H9.45V10.08H3.28V13.46H8.49V15.54H3.28V22H1.2ZM10.3211 12H12.4011V22H10.3211V12ZM11.3811 10.55C11.0611 10.55 10.7944 10.4467 10.5811 10.24C10.3678 10.0333 10.2611 9.77333 10.2611 9.46C10.2611 9.15333 10.3678 8.89667 10.5811 8.69C10.7944 8.47667 11.0578 8.37 11.3711 8.37C11.6778 8.37 11.9378 8.47667 12.1511 8.69C12.3644 8.89667 12.4711 9.15333 12.4711 9.46C12.4711 9.77333 12.3644 10.0333 12.1511 10.24C11.9444 10.4467 11.6878 10.55 11.3811 10.55ZM14.7156 22V12H16.7956V13.06C17.1423 12.6467 17.569 12.32 18.0756 12.08C18.5823 11.84 19.129 11.72 19.7156 11.72C20.089 11.72 20.459 11.77 20.8256 11.87L19.9956 13.97C19.7356 13.87 19.4756 13.82 19.2156 13.82C18.7756 13.82 18.3723 13.93 18.0056 14.15C17.639 14.3633 17.3456 14.6533 17.1256 15.02C16.9056 15.3867 16.7956 15.7933 16.7956 16.24V22H14.7156ZM24.9813 22.19C24.4546 22.1567 23.9413 22.05 23.4413 21.87C22.9413 21.69 22.5013 21.4467 22.1213 21.14C21.7479 20.8267 21.4679 20.46 21.2813 20.04L23.0513 19.28C23.1379 19.46 23.2879 19.6367 23.5013 19.81C23.7213 19.9833 23.9779 20.1267 24.2713 20.24C24.5646 20.3467 24.8713 20.4 25.1913 20.4C25.5046 20.4 25.7946 20.3567 26.0612 20.27C26.3346 20.1767 26.5579 20.0367 26.7313 19.85C26.9046 19.6633 26.9913 19.44 26.9913 19.18C26.9913 18.8867 26.8913 18.66 26.6913 18.5C26.4979 18.3333 26.2546 18.2067 25.9613 18.12C25.6679 18.0333 25.3746 17.95 25.0813 17.87C24.4279 17.7233 23.8279 17.5233 23.2812 17.27C22.7413 17.01 22.3113 16.68 21.9913 16.28C21.6713 15.8733 21.5113 15.3767 21.5113 14.79C21.5113 14.15 21.6846 13.5967 22.0312 13.13C22.3779 12.6567 22.8313 12.2933 23.3913 12.04C23.9579 11.7867 24.5613 11.66 25.2013 11.66C26.0013 11.66 26.7346 11.83 27.4013 12.17C28.0679 12.51 28.5779 12.9767 28.9313 13.57L27.2813 14.55C27.1813 14.35 27.0313 14.17 26.8313 14.01C26.6313 13.85 26.4046 13.7233 26.1513 13.63C25.8979 13.53 25.6346 13.4733 25.3613 13.46C25.0213 13.4467 24.7046 13.4867 24.4113 13.58C24.1246 13.6667 23.8946 13.8067 23.7212 14C23.5479 14.1933 23.4613 14.44 23.4613 14.74C23.4613 15.0333 23.5646 15.2533 23.7713 15.4C23.9779 15.54 24.2379 15.6533 24.5513 15.74C24.8713 15.8267 25.1979 15.9233 25.5313 16.03C26.1246 16.2167 26.6813 16.4467 27.2013 16.72C27.7213 16.9867 28.1413 17.3167 28.4613 17.71C28.7813 18.1033 28.9346 18.5833 28.9213 19.15C28.9213 19.7767 28.7313 20.3267 28.3513 20.8C27.9779 21.2733 27.4913 21.6333 26.8913 21.88C26.2913 22.1267 25.6546 22.23 24.9813 22.19ZM35.9136 14.08H33.8136L33.8036 22H31.7236L31.7336 14.08H30.1436V12H31.7336L31.7236 8.86H33.8036L33.8136 12H35.9136V14.08ZM42.5086 22V8H44.7586L51.1886 18.24V8H53.2686V22H51.0186L44.5886 11.76V22H42.5086ZM63.3159 12H65.3959V22H63.3059L63.2259 20.55C62.9326 21.0633 62.5359 21.4767 62.0359 21.79C61.5359 22.1033 60.9459 22.26 60.2659 22.26C59.5326 22.26 58.8426 22.1233 58.1959 21.85C57.5493 21.57 56.9793 21.1833 56.4859 20.69C55.9993 20.1967 55.6193 19.63 55.3459 18.99C55.0726 18.3433 54.9359 17.65 54.9359 16.91C54.9359 16.1967 55.0693 15.5267 55.3359 14.9C55.6026 14.2667 55.9726 13.7133 56.4459 13.24C56.9193 12.7667 57.4659 12.3967 58.0859 12.13C58.7126 11.8567 59.3826 11.72 60.0959 11.72C60.8226 11.72 61.4626 11.8867 62.0159 12.22C62.5759 12.5467 63.0393 12.9667 63.4059 13.48L63.3159 12ZM60.2159 20.25C60.8026 20.25 61.3159 20.1067 61.7559 19.82C62.1959 19.5267 62.5359 19.1333 62.7759 18.64C63.0226 18.1467 63.1459 17.6 63.1459 17C63.1459 16.3933 63.0226 15.8433 62.7759 15.35C62.5293 14.8567 62.1859 14.4667 61.7459 14.18C61.3126 13.8867 60.8026 13.74 60.2159 13.74C59.6359 13.74 59.1059 13.8867 58.6259 14.18C58.1459 14.4733 57.7659 14.8667 57.4859 15.36C57.2059 15.8533 57.0659 16.4 57.0659 17C57.0659 17.6067 57.2093 18.1567 57.4959 18.65C57.7893 19.1367 58.1726 19.5267 58.6459 19.82C59.1259 20.1067 59.6493 20.25 60.2159 20.25ZM67.3914 22V12H69.4714V13.06C69.8181 12.6467 70.2414 12.32 70.7414 12.08C71.2481 11.84 71.7947 11.72 72.3814 11.72C73.0947 11.72 73.7514 11.8933 74.3514 12.24C74.9514 12.58 75.4281 13.0333 75.7814 13.6C76.1347 13.0333 76.6047 12.58 77.1914 12.24C77.7847 11.8933 78.4381 11.72 79.1514 11.72C79.8914 11.72 80.5647 11.9 81.1714 12.26C81.7781 12.62 82.2614 13.1033 82.6214 13.71C82.9814 14.3167 83.1614 14.99 83.1614 15.73V22H81.0814V16.26C81.0814 15.82 80.9747 15.4167 80.7614 15.05C80.5481 14.6833 80.2614 14.3867 79.9014 14.16C79.5414 13.9333 79.1414 13.82 78.7014 13.82C78.2614 13.82 77.8614 13.9267 77.5014 14.14C77.1414 14.3533 76.8547 14.6433 76.6414 15.01C76.4281 15.3767 76.3214 15.7933 76.3214 16.26V22H74.2414V16.26C74.2414 15.7933 74.1347 15.3767 73.9214 15.01C73.7081 14.6433 73.4181 14.3533 73.0514 14.14C72.6914 13.9267 72.2914 13.82 71.8514 13.82C71.4181 13.82 71.0181 13.9333 70.6514 14.16C70.2914 14.3867 70.0047 14.6833 69.7914 15.05C69.5781 15.4167 69.4714 15.82 69.4714 16.26V22H67.3914ZM89.3695 22.26C88.4495 22.26 87.6095 22.0233 86.8495 21.55C86.0962 21.0767 85.4929 20.4433 85.0395 19.65C84.5929 18.85 84.3695 17.9667 84.3695 17C84.3695 16.2667 84.4995 15.5833 84.7595 14.95C85.0195 14.31 85.3762 13.75 85.8295 13.27C86.2895 12.7833 86.8229 12.4033 87.4295 12.13C88.0362 11.8567 88.6829 11.72 89.3695 11.72C90.1362 11.72 90.8395 11.88 91.4795 12.2C92.1195 12.5133 92.6662 12.95 93.1195 13.51C93.5729 14.0633 93.9062 14.7033 94.1195 15.43C94.3329 16.15 94.3962 16.9167 94.3095 17.73H86.5995C86.6862 18.19 86.8529 18.6067 87.0995 18.98C87.3529 19.3467 87.6729 19.6367 88.0595 19.85C88.4529 20.0633 88.8895 20.1733 89.3695 20.18C89.8762 20.18 90.3362 20.0533 90.7495 19.8C91.1695 19.5467 91.5129 19.1967 91.7795 18.75L93.8895 19.24C93.4895 20.1267 92.8862 20.8533 92.0795 21.42C91.2729 21.98 90.3695 22.26 89.3695 22.26ZM86.5295 16.14H92.2095C92.1429 15.66 91.9729 15.2267 91.6995 14.84C91.4329 14.4467 91.0962 14.1367 90.6895 13.91C90.2895 13.6767 89.8495 13.56 89.3695 13.56C88.8962 13.56 88.4562 13.6733 88.0495 13.9C87.6495 14.1267 87.3162 14.4367 87.0495 14.83C86.7895 15.2167 86.6162 15.6533 86.5295 16.14Z" fill="white"></path><rect x="0.5" y="46.5" width="426" height="67" rx="7.5" fill="#1A1A1A"></rect><rect x="0.5" y="46.5" width="426" height="67" rx="7.5" stroke="#262626"></rect><path d="M21.08 86V73.4H28.811V74.912H22.592V78.494H27.686V80.006H22.592V84.488H28.811V86H21.08ZM38.7391 80.402V86H37.2271V80.735C37.2271 80.279 37.1161 79.865 36.8941 79.493C36.6721 79.121 36.3751 78.827 36.0031 78.611C35.6311 78.389 35.2171 78.278 34.7611 78.278C34.3111 78.278 33.8971 78.389 33.5191 78.611C33.1471 78.827 32.8501 79.121 32.6281 79.493C32.4061 79.865 32.2951 80.279 32.2951 80.735V86H30.7831V77H32.2951V78.125C32.6131 77.705 33.0151 77.372 33.5011 77.126C33.9871 76.874 34.5151 76.748 35.0851 76.748C35.7571 76.748 36.3691 76.913 36.9211 77.243C37.4791 77.567 37.9201 78.005 38.2441 78.557C38.5741 79.109 38.7391 79.724 38.7391 80.402ZM45.201 78.512H43.158L43.149 86H41.637L41.646 78.512H40.098V77H41.646L41.637 74.174H43.149L43.158 77H45.201V78.512ZM50.5459 86.234C49.7179 86.234 48.9619 86.021 48.2779 85.595C47.5999 85.169 47.0569 84.599 46.6489 83.885C46.2469 83.165 46.0459 82.37 46.0459 81.5C46.0459 80.84 46.1629 80.225 46.3969 79.655C46.6309 79.079 46.9519 78.575 47.3599 78.143C47.7739 77.705 48.2539 77.363 48.7999 77.117C49.3459 76.871 49.9279 76.748 50.5459 76.748C51.2239 76.748 51.8449 76.886 52.4089 77.162C52.9789 77.432 53.4649 77.81 53.8669 78.296C54.2749 78.782 54.5779 79.346 54.7759 79.988C54.9799 80.63 55.0549 81.317 55.0009 82.049H47.6569C47.7289 82.559 47.8969 83.015 48.1609 83.417C48.4249 83.813 48.7609 84.128 49.1689 84.362C49.5829 84.596 50.0419 84.716 50.5459 84.722C51.0859 84.722 51.5749 84.584 52.0129 84.308C52.4509 84.026 52.8049 83.642 53.0749 83.156L54.6139 83.516C54.2539 84.314 53.7109 84.968 52.9849 85.478C52.2589 85.982 51.4459 86.234 50.5459 86.234ZM47.6119 80.861H53.4799C53.4319 80.357 53.2699 79.898 52.9939 79.484C52.7179 79.064 52.3669 78.728 51.9409 78.476C51.5149 78.224 51.0499 78.098 50.5459 78.098C50.0419 78.098 49.5799 78.221 49.1599 78.467C48.7399 78.713 48.3919 79.046 48.1159 79.466C47.8459 79.88 47.6779 80.345 47.6119 80.861ZM56.5175 86V77H58.0295V78.125C58.3475 77.705 58.7495 77.372 59.2355 77.126C59.7215 76.874 60.2495 76.748 60.8195 76.748C61.1675 76.748 61.5035 76.793 61.8275 76.883L61.2155 78.395C60.9695 78.317 60.7295 78.278 60.4955 78.278C60.0455 78.278 59.6315 78.389 59.2535 78.611C58.8815 78.827 58.5845 79.121 58.3625 79.493C58.1405 79.865 58.0295 80.279 58.0295 80.735V86H56.5175ZM67.4159 86V73.4H74.8049V74.912H68.9279V78.494H73.9409V80.006H68.9279V86H67.4159ZM75.5722 77H77.0842V86H75.5722V77ZM76.3462 75.533C76.1062 75.533 75.9052 75.455 75.7432 75.299C75.5812 75.143 75.5002 74.948 75.5002 74.714C75.5002 74.48 75.5812 74.285 75.7432 74.129C75.9052 73.973 76.1032 73.895 76.3372 73.895C76.5712 73.895 76.7692 73.973 76.9312 74.129C77.0932 74.285 77.1742 74.48 77.1742 74.714C77.1742 74.948 77.0932 75.143 76.9312 75.299C76.7752 75.455 76.5802 75.533 76.3462 75.533ZM79.1933 86V77H80.7053V78.125C81.0233 77.705 81.4253 77.372 81.9113 77.126C82.3973 76.874 82.9253 76.748 83.4953 76.748C83.8433 76.748 84.1793 76.793 84.5033 76.883L83.8913 78.395C83.6453 78.317 83.4053 78.278 83.1713 78.278C82.7213 78.278 82.3073 78.389 81.9293 78.611C81.5573 78.827 81.2603 79.121 81.0383 79.493C80.8163 79.865 80.7053 80.279 80.7053 80.735V86H79.1933ZM88.3543 86.171C87.8683 86.153 87.3943 86.063 86.9323 85.901C86.4763 85.733 86.0743 85.508 85.7263 85.226C85.3843 84.938 85.1353 84.608 84.9793 84.236L86.2753 83.678C86.3653 83.882 86.5273 84.074 86.7613 84.254C86.9953 84.434 87.2653 84.578 87.5713 84.686C87.8773 84.794 88.1863 84.848 88.4983 84.848C88.8283 84.848 89.1373 84.797 89.4253 84.695C89.7133 84.593 89.9473 84.443 90.1273 84.245C90.3133 84.041 90.4063 83.798 90.4063 83.516C90.4063 83.216 90.3043 82.982 90.1003 82.814C89.9023 82.64 89.6503 82.505 89.3443 82.409C89.0443 82.307 88.7383 82.211 88.4263 82.121C87.8083 81.965 87.2563 81.779 86.7703 81.563C86.2843 81.341 85.9003 81.062 85.6183 80.726C85.3423 80.384 85.2043 79.949 85.2043 79.421C85.2043 78.863 85.3573 78.38 85.6633 77.972C85.9753 77.564 86.3833 77.249 86.8873 77.027C87.3913 76.805 87.9313 76.694 88.5073 76.694C89.2333 76.694 89.8963 76.85 90.4963 77.162C91.0963 77.474 91.5433 77.897 91.8373 78.431L90.6223 79.142C90.5203 78.926 90.3643 78.737 90.1543 78.575C89.9443 78.407 89.7043 78.275 89.4343 78.179C89.1643 78.083 88.8883 78.032 88.6063 78.026C88.2583 78.014 87.9313 78.059 87.6253 78.161C87.3253 78.263 87.0823 78.419 86.8963 78.629C86.7163 78.833 86.6263 79.088 86.6263 79.394C86.6263 79.694 86.7223 79.922 86.9143 80.078C87.1123 80.234 87.3673 80.36 87.6793 80.456C87.9973 80.546 88.3423 80.651 88.7143 80.771C89.2603 80.945 89.7703 81.146 90.2443 81.374C90.7183 81.602 91.0993 81.887 91.3873 82.229C91.6813 82.571 91.8253 82.994 91.8193 83.498C91.8193 84.05 91.6543 84.533 91.3243 84.947C90.9943 85.355 90.5653 85.667 90.0373 85.883C89.5153 86.099 88.9543 86.195 88.3543 86.171ZM98.0233 78.512H95.9803L95.9713 86H94.4593L94.4683 78.512H92.9203V77H94.4683L94.4593 74.174H95.9713L95.9803 77H98.0233V78.512ZM103.961 86V73.4H105.599L111.89 83.264V73.4H113.402V86H111.773L105.473 76.136V86H103.961ZM122.711 77H124.223V86H122.711L122.648 84.479C122.366 85.001 121.976 85.424 121.478 85.748C120.986 86.072 120.398 86.234 119.714 86.234C119.054 86.234 118.436 86.111 117.86 85.865C117.284 85.613 116.774 85.268 116.33 84.83C115.892 84.386 115.55 83.876 115.304 83.3C115.058 82.724 114.935 82.103 114.935 81.437C114.935 80.795 115.055 80.189 115.295 79.619C115.535 79.049 115.868 78.551 116.294 78.125C116.726 77.693 117.224 77.357 117.788 77.117C118.352 76.871 118.958 76.748 119.606 76.748C120.314 76.748 120.935 76.916 121.469 77.252C122.003 77.582 122.435 78.011 122.765 78.539L122.711 77ZM119.687 84.767C120.281 84.767 120.794 84.623 121.226 84.335C121.664 84.041 122 83.645 122.234 83.147C122.474 82.649 122.594 82.1 122.594 81.5C122.594 80.888 122.474 80.336 122.234 79.844C121.994 79.346 121.655 78.953 121.217 78.665C120.785 78.371 120.275 78.224 119.687 78.224C119.093 78.224 118.553 78.371 118.067 78.665C117.581 78.959 117.194 79.355 116.906 79.853C116.624 80.345 116.483 80.894 116.483 81.5C116.483 82.106 116.63 82.658 116.924 83.156C117.218 83.648 117.608 84.041 118.094 84.335C118.58 84.623 119.111 84.767 119.687 84.767ZM126.021 86V77H127.533V78.125C127.851 77.705 128.25 77.372 128.73 77.126C129.216 76.874 129.744 76.748 130.314 76.748C130.98 76.748 131.589 76.91 132.141 77.234C132.693 77.558 133.128 77.987 133.446 78.521C133.764 77.987 134.196 77.558 134.742 77.234C135.294 76.91 135.9 76.748 136.56 76.748C137.238 76.748 137.853 76.913 138.405 77.243C138.957 77.567 139.395 78.005 139.719 78.557C140.049 79.109 140.214 79.724 140.214 80.402V86H138.702V80.762C138.702 80.318 138.594 79.907 138.378 79.529C138.162 79.151 137.871 78.848 137.505 78.62C137.139 78.392 136.734 78.278 136.29 78.278C135.846 78.278 135.441 78.386 135.075 78.602C134.709 78.812 134.418 79.106 134.202 79.484C133.986 79.856 133.878 80.282 133.878 80.762V86H132.366V80.762C132.366 80.282 132.258 79.856 132.042 79.484C131.826 79.106 131.532 78.812 131.16 78.602C130.794 78.386 130.389 78.278 129.945 78.278C129.507 78.278 129.102 78.392 128.73 78.62C128.364 78.848 128.073 79.151 127.857 79.529C127.641 79.907 127.533 80.318 127.533 80.762V86H126.021ZM145.802 86.234C144.974 86.234 144.218 86.021 143.534 85.595C142.856 85.169 142.313 84.599 141.905 83.885C141.503 83.165 141.302 82.37 141.302 81.5C141.302 80.84 141.419 80.225 141.653 79.655C141.887 79.079 142.208 78.575 142.616 78.143C143.03 77.705 143.51 77.363 144.056 77.117C144.602 76.871 145.184 76.748 145.802 76.748C146.48 76.748 147.101 76.886 147.665 77.162C148.235 77.432 148.721 77.81 149.123 78.296C149.531 78.782 149.834 79.346 150.032 79.988C150.236 80.63 150.311 81.317 150.257 82.049H142.913C142.985 82.559 143.153 83.015 143.417 83.417C143.681 83.813 144.017 84.128 144.425 84.362C144.839 84.596 145.298 84.716 145.802 84.722C146.342 84.722 146.831 84.584 147.269 84.308C147.707 84.026 148.061 83.642 148.331 83.156L149.87 83.516C149.51 84.314 148.967 84.968 148.241 85.478C147.515 85.982 146.702 86.234 145.802 86.234ZM142.868 80.861H148.736C148.688 80.357 148.526 79.898 148.25 79.484C147.974 79.064 147.623 78.728 147.197 78.476C146.771 78.224 146.306 78.098 145.802 78.098C145.298 78.098 144.836 78.221 144.416 78.467C143.996 78.713 143.648 79.046 143.372 79.466C143.102 79.88 142.934 80.345 142.868 80.861Z" fill="#666666"></path></svg>