<svg xmlns="http://www.w3.org/2000/svg" width="313" height="114" viewBox="0 0 313 114" fill="none"><path d="M1.7 22V8H10.39V10.08H3.78V13.46H9.1V15.54H3.78V19.92H10.39V22H1.7ZM12.5984 22V12H14.6784V13.06C15.0251 12.6467 15.4484 12.32 15.9484 12.08C16.4551 11.84 17.0018 11.72 17.5884 11.72C18.3018 11.72 18.9584 11.8933 19.5584 12.24C20.1584 12.58 20.6351 13.0333 20.9884 13.6C21.3418 13.0333 21.8118 12.58 22.3984 12.24C22.9918 11.8933 23.6451 11.72 24.3584 11.72C25.0984 11.72 25.7718 11.9 26.3784 12.26C26.9851 12.62 27.4684 13.1033 27.8284 13.71C28.1884 14.3167 28.3684 14.99 28.3684 15.73V22H26.2884V16.26C26.2884 15.82 26.1818 15.4167 25.9684 15.05C25.7551 14.6833 25.4684 14.3867 25.1084 14.16C24.7484 13.9333 24.3484 13.82 23.9084 13.82C23.4684 13.82 23.0684 13.9267 22.7084 14.14C22.3484 14.3533 22.0618 14.6433 21.8484 15.01C21.6351 15.3767 21.5284 15.7933 21.5284 16.26V22H19.4484V16.26C19.4484 15.7933 19.3418 15.3767 19.1284 15.01C18.9151 14.6433 18.6251 14.3533 18.2584 14.14C17.8984 13.9267 17.4984 13.82 17.0584 13.82C16.6251 13.82 16.2251 13.9333 15.8584 14.16C15.4984 14.3867 15.2118 14.6833 14.9984 15.05C14.7851 15.4167 14.6784 15.82 14.6784 16.26V22H12.5984ZM37.9566 12H40.0366V22H37.9466L37.8666 20.55C37.5732 21.0633 37.1766 21.4767 36.6766 21.79C36.1766 22.1033 35.5866 22.26 34.9066 22.26C34.1732 22.26 33.4832 22.1233 32.8366 21.85C32.1899 21.57 31.6199 21.1833 31.1266 20.69C30.6399 20.1967 30.2599 19.63 29.9866 18.99C29.7132 18.3433 29.5766 17.65 29.5766 16.91C29.5766 16.1967 29.7099 15.5267 29.9766 14.9C30.2432 14.2667 30.6132 13.7133 31.0866 13.24C31.5599 12.7667 32.1066 12.3967 32.7266 12.13C33.3532 11.8567 34.0232 11.72 34.7366 11.72C35.4632 11.72 36.1032 11.8867 36.6566 12.22C37.2166 12.5467 37.6799 12.9667 38.0466 13.48L37.9566 12ZM34.8566 20.25C35.4432 20.25 35.9566 20.1067 36.3966 19.82C36.8366 19.5267 37.1766 19.1333 37.4166 18.64C37.6632 18.1467 37.7866 17.6 37.7866 17C37.7866 16.3933 37.6632 15.8433 37.4166 15.35C37.1699 14.8567 36.8266 14.4667 36.3866 14.18C35.9532 13.8867 35.4432 13.74 34.8566 13.74C34.2766 13.74 33.7466 13.8867 33.2666 14.18C32.7866 14.4733 32.4066 14.8667 32.1266 15.36C31.8466 15.8533 31.7066 16.4 31.7066 17C31.7066 17.6067 31.8499 18.1567 32.1366 18.65C32.4299 19.1367 32.8132 19.5267 33.2866 19.82C33.7666 20.1067 34.2899 20.25 34.8566 20.25ZM42.032 12H44.112V22H42.032V12ZM43.092 10.55C42.772 10.55 42.5054 10.4467 42.292 10.24C42.0787 10.0333 41.972 9.77333 41.972 9.46C41.972 9.15333 42.0787 8.89667 42.292 8.69C42.5054 8.47667 42.7687 8.37 43.082 8.37C43.3887 8.37 43.6487 8.47667 43.862 8.69C44.0754 8.89667 44.182 9.15333 44.182 9.46C44.182 9.77333 44.0754 10.0333 43.862 10.24C43.6554 10.4467 43.3987 10.55 43.092 10.55ZM46.5438 22V7H48.6238V22H46.5438Z" fill="white"></path><rect x="1" y="46.5" width="310.75" height="67" rx="7.5" fill="#1A1A1A"></rect><rect x="1" y="46.5" width="310.75" height="67" rx="7.5" stroke="#262626"></rect><path d="M21.58 86V73.4H29.311V74.912H23.092V78.494H28.186V80.006H23.092V84.488H29.311V86H21.58ZM39.2391 80.402V86H37.7271V80.735C37.7271 80.279 37.6161 79.865 37.3941 79.493C37.1721 79.121 36.8751 78.827 36.5031 78.611C36.1311 78.389 35.7171 78.278 35.2611 78.278C34.8111 78.278 34.3971 78.389 34.0191 78.611C33.6471 78.827 33.3501 79.121 33.1281 79.493C32.9061 79.865 32.7951 80.279 32.7951 80.735V86H31.2831V77H32.7951V78.125C33.1131 77.705 33.5151 77.372 34.0011 77.126C34.4871 76.874 35.0151 76.748 35.5851 76.748C36.2571 76.748 36.8691 76.913 37.4211 77.243C37.9791 77.567 38.4201 78.005 38.7441 78.557C39.0741 79.109 39.2391 79.724 39.2391 80.402ZM45.701 78.512H43.658L43.649 86H42.137L42.146 78.512H40.598V77H42.146L42.137 74.174H43.649L43.658 77H45.701V78.512ZM51.0459 86.234C50.2179 86.234 49.4619 86.021 48.7779 85.595C48.0999 85.169 47.5569 84.599 47.1489 83.885C46.7469 83.165 46.5459 82.37 46.5459 81.5C46.5459 80.84 46.6629 80.225 46.8969 79.655C47.1309 79.079 47.4519 78.575 47.8599 78.143C48.2739 77.705 48.7539 77.363 49.2999 77.117C49.8459 76.871 50.4279 76.748 51.0459 76.748C51.7239 76.748 52.3449 76.886 52.9089 77.162C53.4789 77.432 53.9649 77.81 54.3669 78.296C54.7749 78.782 55.0779 79.346 55.2759 79.988C55.4799 80.63 55.5549 81.317 55.5009 82.049H48.1569C48.2289 82.559 48.3969 83.015 48.6609 83.417C48.9249 83.813 49.2609 84.128 49.6689 84.362C50.0829 84.596 50.5419 84.716 51.0459 84.722C51.5859 84.722 52.0749 84.584 52.5129 84.308C52.9509 84.026 53.3049 83.642 53.5749 83.156L55.1139 83.516C54.7539 84.314 54.2109 84.968 53.4849 85.478C52.7589 85.982 51.9459 86.234 51.0459 86.234ZM48.1119 80.861H53.9799C53.9319 80.357 53.7699 79.898 53.4939 79.484C53.2179 79.064 52.8669 78.728 52.4409 78.476C52.0149 78.224 51.5499 78.098 51.0459 78.098C50.5419 78.098 50.0799 78.221 49.6599 78.467C49.2399 78.713 48.8919 79.046 48.6159 79.466C48.3459 79.88 48.1779 80.345 48.1119 80.861ZM57.0175 86V77H58.5295V78.125C58.8475 77.705 59.2495 77.372 59.7355 77.126C60.2215 76.874 60.7495 76.748 61.3195 76.748C61.6675 76.748 62.0035 76.793 62.3275 76.883L61.7155 78.395C61.4695 78.317 61.2295 78.278 60.9955 78.278C60.5455 78.278 60.1315 78.389 59.7535 78.611C59.3815 78.827 59.0845 79.121 58.8625 79.493C58.6405 79.865 58.5295 80.279 58.5295 80.735V86H57.0175ZM74.0809 77H75.6829L70.7599 90.5H69.1579L70.7869 86L67.5559 77H69.2119L71.5429 83.921L74.0809 77ZM80.8056 86.234C79.9776 86.234 79.2216 86.021 78.5376 85.595C77.8596 85.169 77.3166 84.599 76.9086 83.885C76.5066 83.165 76.3056 82.37 76.3056 81.5C76.3056 80.84 76.4226 80.225 76.6566 79.655C76.8906 79.079 77.2116 78.575 77.6196 78.143C78.0336 77.705 78.5136 77.363 79.0596 77.117C79.6056 76.871 80.1876 76.748 80.8056 76.748C81.6336 76.748 82.3866 76.961 83.0646 77.387C83.7486 77.813 84.2916 78.386 84.6936 79.106C85.1016 79.826 85.3056 80.624 85.3056 81.5C85.3056 82.154 85.1886 82.766 84.9546 83.336C84.7206 83.906 84.3966 84.41 83.9826 84.848C83.5746 85.28 83.0976 85.619 82.5516 85.865C82.0116 86.111 81.4296 86.234 80.8056 86.234ZM80.8056 84.722C81.3696 84.722 81.8766 84.575 82.3266 84.281C82.7826 83.981 83.1396 83.588 83.3976 83.102C83.6616 82.61 83.7936 82.076 83.7936 81.5C83.7936 80.912 83.6586 80.372 83.3886 79.88C83.1246 79.388 82.7676 78.995 82.3176 78.701C81.8676 78.407 81.3636 78.26 80.8056 78.26C80.2416 78.26 79.7346 78.41 79.2846 78.71C78.8346 79.004 78.4776 79.397 78.2136 79.889C77.9496 80.381 77.8176 80.918 77.8176 81.5C77.8176 82.1 77.9526 82.646 78.2226 83.138C78.4926 83.624 78.8556 84.011 79.3116 84.299C79.7676 84.581 80.2656 84.722 80.8056 84.722ZM86.3118 82.58V77H87.8238V82.247C87.8238 82.703 87.9348 83.117 88.1568 83.489C88.3788 83.861 88.6758 84.158 89.0478 84.38C89.4258 84.596 89.8398 84.704 90.2898 84.704C90.7458 84.704 91.1568 84.596 91.5228 84.38C91.8948 84.158 92.1918 83.861 92.4138 83.489C92.6358 83.117 92.7468 82.703 92.7468 82.247V77H94.2588L94.2678 86H92.7558L92.7468 84.857C92.4288 85.277 92.0268 85.613 91.5408 85.865C91.0548 86.111 90.5298 86.234 89.9658 86.234C89.2938 86.234 88.6788 86.072 88.1208 85.748C87.5688 85.418 87.1278 84.977 86.7978 84.425C86.4738 83.873 86.3118 83.258 86.3118 82.58ZM96.0761 86V77H97.5881V78.125C97.9061 77.705 98.3081 77.372 98.7941 77.126C99.2801 76.874 99.8081 76.748 100.378 76.748C100.726 76.748 101.062 76.793 101.386 76.883L100.774 78.395C100.528 78.317 100.288 78.278 100.054 78.278C99.6041 78.278 99.1901 78.389 98.8121 78.611C98.4401 78.827 98.1431 79.121 97.9211 79.493C97.6991 79.865 97.5881 80.279 97.5881 80.735V86H96.0761ZM106.975 86V73.4H114.706V74.912H108.487V78.494H113.581V80.006H108.487V84.488H114.706V86H106.975ZM116.678 86V77H118.19V78.125C118.508 77.705 118.907 77.372 119.387 77.126C119.873 76.874 120.401 76.748 120.971 76.748C121.637 76.748 122.246 76.91 122.798 77.234C123.35 77.558 123.785 77.987 124.103 78.521C124.421 77.987 124.853 77.558 125.399 77.234C125.951 76.91 126.557 76.748 127.217 76.748C127.895 76.748 128.51 76.913 129.062 77.243C129.614 77.567 130.052 78.005 130.376 78.557C130.706 79.109 130.871 79.724 130.871 80.402V86H129.359V80.762C129.359 80.318 129.251 79.907 129.035 79.529C128.819 79.151 128.528 78.848 128.162 78.62C127.796 78.392 127.391 78.278 126.947 78.278C126.503 78.278 126.098 78.386 125.732 78.602C125.366 78.812 125.075 79.106 124.859 79.484C124.643 79.856 124.535 80.282 124.535 80.762V86H123.023V80.762C123.023 80.282 122.915 79.856 122.699 79.484C122.483 79.106 122.189 78.812 121.817 78.602C121.451 78.386 121.046 78.278 120.602 78.278C120.164 78.278 119.759 78.392 119.387 78.62C119.021 78.848 118.73 79.151 118.514 79.529C118.298 79.907 118.19 80.318 118.19 80.762V86H116.678ZM139.734 77H141.246V86H139.734L139.671 84.479C139.389 85.001 138.999 85.424 138.501 85.748C138.009 86.072 137.421 86.234 136.737 86.234C136.077 86.234 135.459 86.111 134.883 85.865C134.307 85.613 133.797 85.268 133.353 84.83C132.915 84.386 132.573 83.876 132.327 83.3C132.081 82.724 131.958 82.103 131.958 81.437C131.958 80.795 132.078 80.189 132.318 79.619C132.558 79.049 132.891 78.551 133.317 78.125C133.749 77.693 134.247 77.357 134.811 77.117C135.375 76.871 135.981 76.748 136.629 76.748C137.337 76.748 137.958 76.916 138.492 77.252C139.026 77.582 139.458 78.011 139.788 78.539L139.734 77ZM136.71 84.767C137.304 84.767 137.817 84.623 138.249 84.335C138.687 84.041 139.023 83.645 139.257 83.147C139.497 82.649 139.617 82.1 139.617 81.5C139.617 80.888 139.497 80.336 139.257 79.844C139.017 79.346 138.678 78.953 138.24 78.665C137.808 78.371 137.298 78.224 136.71 78.224C136.116 78.224 135.576 78.371 135.09 78.665C134.604 78.959 134.217 79.355 133.929 79.853C133.647 80.345 133.506 80.894 133.506 81.5C133.506 82.106 133.653 82.658 133.947 83.156C134.241 83.648 134.631 84.041 135.117 84.335C135.603 84.623 136.134 84.767 136.71 84.767ZM143.045 77H144.557V86H143.045V77ZM143.819 75.533C143.579 75.533 143.378 75.455 143.216 75.299C143.054 75.143 142.973 74.948 142.973 74.714C142.973 74.48 143.054 74.285 143.216 74.129C143.378 73.973 143.576 73.895 143.81 73.895C144.044 73.895 144.242 73.973 144.404 74.129C144.566 74.285 144.647 74.48 144.647 74.714C144.647 74.948 144.566 75.143 144.404 75.299C144.248 75.455 144.053 75.533 143.819 75.533ZM146.771 86V72.5H148.283V86H146.771Z" fill="#666666"></path></svg>