<svg xmlns="http://www.w3.org/2000/svg" width="965" height="66" viewBox="0 0 965 66" fill="none"><path d="M0.84 15L2.737 5.2H3.64L6.286 12.158L8.925 5.2H9.828L11.732 15H10.535L9.156 7.888L6.671 14.468H5.894L3.409 7.888L2.037 15H0.84ZM15.8829 15.182C15.2389 15.182 14.6509 15.0163 14.1189 14.685C13.5916 14.3537 13.1692 13.9103 12.8519 13.355C12.5392 12.795 12.3829 12.1767 12.3829 11.5C12.3829 10.9867 12.4739 10.5083 12.6559 10.065C12.8379 9.617 13.0876 9.225 13.4049 8.889C13.7269 8.54833 14.1002 8.28233 14.5249 8.091C14.9496 7.89967 15.4022 7.804 15.8829 7.804C16.5269 7.804 17.1126 7.96967 17.6399 8.301C18.1719 8.63233 18.5942 9.078 18.9069 9.638C19.2242 10.198 19.3829 10.8187 19.3829 11.5C19.3829 12.0087 19.2919 12.4847 19.1099 12.928C18.9279 13.3713 18.6759 13.7633 18.3539 14.104C18.0366 14.44 17.6656 14.7037 17.2409 14.895C16.8209 15.0863 16.3682 15.182 15.8829 15.182ZM15.8829 14.006C16.3216 14.006 16.7159 13.8917 17.0659 13.663C17.4206 13.4297 17.6982 13.124 17.8989 12.746C18.1042 12.3633 18.2069 11.948 18.2069 11.5C18.2069 11.0427 18.1019 10.6227 17.8919 10.24C17.6866 9.85733 17.4089 9.55167 17.0589 9.323C16.7089 9.09433 16.3169 8.98 15.8829 8.98C15.4442 8.98 15.0499 9.09667 14.6999 9.33C14.3499 9.55867 14.0722 9.86433 13.8669 10.247C13.6616 10.6297 13.5589 11.0473 13.5589 11.5C13.5589 11.9667 13.6639 12.3913 13.8739 12.774C14.0839 13.152 14.3662 13.453 14.7209 13.677C15.0756 13.8963 15.4629 14.006 15.8829 14.006ZM20.5412 15V8H21.7172V8.875C21.9645 8.54833 22.2772 8.28933 22.6552 8.098C23.0332 7.902 23.4438 7.804 23.8872 7.804C24.1578 7.804 24.4192 7.839 24.6712 7.909L24.1952 9.085C24.0038 9.02433 23.8172 8.994 23.6352 8.994C23.2852 8.994 22.9632 9.08033 22.6692 9.253C22.3798 9.421 22.1488 9.64967 21.9762 9.939C21.8035 10.2283 21.7172 10.5503 21.7172 10.905V15H20.5412ZM29.2805 9.176H27.6915L27.6845 15H26.5085L26.5155 9.176H25.3115V8H26.5155L26.5085 5.802H27.6845L27.6915 8H29.2805V9.176ZM35.8246 8H37.0006V15.224C37.0006 15.686 36.9002 16.1153 36.6996 16.512C36.5036 16.9133 36.2376 17.261 35.9016 17.555C35.5656 17.8537 35.1829 18.0847 34.7536 18.248C34.3242 18.416 33.8762 18.5 33.4096 18.5C32.9242 18.5 32.4552 18.3903 32.0026 18.171C31.5499 17.9563 31.1532 17.667 30.8126 17.303C30.4766 16.9437 30.2339 16.54 30.0846 16.092L31.1626 15.602C31.2512 15.924 31.4099 16.2133 31.6386 16.47C31.8719 16.7313 32.1426 16.9367 32.4506 17.086C32.7632 17.24 33.0829 17.317 33.4096 17.317C33.7176 17.317 34.0139 17.2633 34.2986 17.156C34.5879 17.0487 34.8469 16.8993 35.0756 16.708C35.3089 16.5213 35.4909 16.2997 35.6216 16.043C35.7569 15.791 35.8246 15.518 35.8246 15.224V13.831C35.5866 14.2323 35.2716 14.559 34.8796 14.811C34.4922 15.0583 34.0396 15.182 33.5216 15.182C33.0269 15.182 32.5626 15.0863 32.1286 14.895C31.6946 14.7037 31.3142 14.44 30.9876 14.104C30.6609 13.7633 30.4042 13.3713 30.2176 12.928C30.0309 12.4847 29.9376 12.0087 29.9376 11.5C29.9376 10.9913 30.0309 10.5153 30.2176 10.072C30.4042 9.624 30.6609 9.232 30.9876 8.896C31.3142 8.55533 31.6946 8.28933 32.1286 8.098C32.5626 7.90667 33.0269 7.811 33.5216 7.811C34.0396 7.811 34.4922 7.93467 34.8796 8.182C35.2716 8.42933 35.5866 8.756 35.8246 9.162V8ZM33.5286 14.041C33.9812 14.041 34.3732 13.9243 34.7046 13.691C35.0406 13.4577 35.2996 13.1473 35.4816 12.76C35.6636 12.3727 35.7546 11.9527 35.7546 11.5C35.7546 11.0333 35.6612 10.6087 35.4746 10.226C35.2926 9.83867 35.0336 9.53067 34.6976 9.302C34.3662 9.06867 33.9766 8.952 33.5286 8.952C33.0899 8.952 32.6886 9.06633 32.3246 9.295C31.9606 9.52367 31.6712 9.83167 31.4566 10.219C31.2466 10.6017 31.1416 11.0287 31.1416 11.5C31.1416 11.9713 31.2489 12.4007 31.4636 12.788C31.6829 13.1707 31.9722 13.4763 32.3316 13.705C32.6956 13.929 33.0946 14.041 33.5286 14.041ZM44.216 8H45.392V15H44.216L44.167 13.817C43.9477 14.223 43.6444 14.552 43.257 14.804C42.8744 15.056 42.417 15.182 41.885 15.182C41.3717 15.182 40.891 15.0863 40.443 14.895C39.995 14.699 39.5984 14.4307 39.253 14.09C38.9124 13.7447 38.6464 13.348 38.455 12.9C38.2637 12.452 38.168 11.969 38.168 11.451C38.168 10.9517 38.2614 10.4803 38.448 10.037C38.6347 9.59367 38.8937 9.20633 39.225 8.875C39.561 8.539 39.9484 8.27767 40.387 8.091C40.8257 7.89967 41.297 7.804 41.801 7.804C42.3517 7.804 42.8347 7.93467 43.25 8.196C43.6654 8.45267 44.0014 8.78633 44.258 9.197L44.216 8ZM41.864 14.041C42.326 14.041 42.725 13.929 43.061 13.705C43.4017 13.4763 43.663 13.1683 43.845 12.781C44.0317 12.3937 44.125 11.9667 44.125 11.5C44.125 11.024 44.0317 10.5947 43.845 10.212C43.6584 9.82467 43.3947 9.519 43.054 9.295C42.718 9.06633 42.3214 8.952 41.864 8.952C41.402 8.952 40.982 9.06633 40.604 9.295C40.226 9.52367 39.925 9.83167 39.701 10.219C39.4817 10.6017 39.372 11.0287 39.372 11.5C39.372 11.9713 39.4864 12.4007 39.715 12.788C39.9437 13.1707 40.247 13.4763 40.625 13.705C41.003 13.929 41.416 14.041 41.864 14.041ZM52.1215 8H53.2975V15.224C53.2975 15.686 53.1971 16.1153 52.9965 16.512C52.8005 16.9133 52.5345 17.261 52.1985 17.555C51.8625 17.8537 51.4798 18.0847 51.0505 18.248C50.6211 18.416 50.1731 18.5 49.7065 18.5C49.2211 18.5 48.7521 18.3903 48.2995 18.171C47.8468 17.9563 47.4501 17.667 47.1095 17.303C46.7735 16.9437 46.5308 16.54 46.3815 16.092L47.4595 15.602C47.5481 15.924 47.7068 16.2133 47.9355 16.47C48.1688 16.7313 48.4395 16.9367 48.7475 17.086C49.0601 17.24 49.3798 17.317 49.7065 17.317C50.0145 17.317 50.3108 17.2633 50.5955 17.156C50.8848 17.0487 51.1438 16.8993 51.3725 16.708C51.6058 16.5213 51.7878 16.2997 51.9185 16.043C52.0538 15.791 52.1215 15.518 52.1215 15.224V13.831C51.8835 14.2323 51.5685 14.559 51.1765 14.811C50.7891 15.0583 50.3365 15.182 49.8185 15.182C49.3238 15.182 48.8595 15.0863 48.4255 14.895C47.9915 14.7037 47.6111 14.44 47.2845 14.104C46.9578 13.7633 46.7011 13.3713 46.5145 12.928C46.3278 12.4847 46.2345 12.0087 46.2345 11.5C46.2345 10.9913 46.3278 10.5153 46.5145 10.072C46.7011 9.624 46.9578 9.232 47.2845 8.896C47.6111 8.55533 47.9915 8.28933 48.4255 8.098C48.8595 7.90667 49.3238 7.811 49.8185 7.811C50.3365 7.811 50.7891 7.93467 51.1765 8.182C51.5685 8.42933 51.8835 8.756 52.1215 9.162V8ZM49.8255 14.041C50.2781 14.041 50.6701 13.9243 51.0015 13.691C51.3375 13.4577 51.5965 13.1473 51.7785 12.76C51.9605 12.3727 52.0515 11.9527 52.0515 11.5C52.0515 11.0333 51.9581 10.6087 51.7715 10.226C51.5895 9.83867 51.3305 9.53067 50.9945 9.302C50.6631 9.06867 50.2735 8.952 49.8255 8.952C49.3868 8.952 48.9855 9.06633 48.6215 9.295C48.2575 9.52367 47.9681 9.83167 47.7535 10.219C47.5435 10.6017 47.4385 11.0287 47.4385 11.5C47.4385 11.9713 47.5458 12.4007 47.7605 12.788C47.9798 13.1707 48.2691 13.4763 48.6285 13.705C48.9925 13.929 49.3915 14.041 49.8255 14.041ZM57.9649 15.182C57.3209 15.182 56.7329 15.0163 56.2009 14.685C55.6736 14.3537 55.2513 13.9103 54.9339 13.355C54.6213 12.795 54.4649 12.1767 54.4649 11.5C54.4649 10.9867 54.5559 10.5083 54.7379 10.065C54.9199 9.617 55.1696 9.225 55.4869 8.889C55.8089 8.54833 56.1823 8.28233 56.6069 8.091C57.0316 7.89967 57.4843 7.804 57.9649 7.804C58.4923 7.804 58.9753 7.91133 59.4139 8.126C59.8573 8.336 60.2353 8.63 60.5479 9.008C60.8653 9.386 61.1009 9.82467 61.2549 10.324C61.4136 10.8233 61.4719 11.3577 61.4299 11.927H55.7179C55.7739 12.3237 55.9046 12.6783 56.1099 12.991C56.3153 13.299 56.5766 13.544 56.8939 13.726C57.2159 13.908 57.5729 14.0013 57.9649 14.006C58.3849 14.006 58.7653 13.8987 59.1059 13.684C59.4466 13.4647 59.7219 13.166 59.9319 12.788L61.1289 13.068C60.8489 13.6887 60.4266 14.1973 59.8619 14.594C59.2973 14.986 58.6649 15.182 57.9649 15.182ZM55.6829 11.003H60.2469C60.2096 10.611 60.0836 10.254 59.8689 9.932C59.6543 9.60533 59.3813 9.344 59.0499 9.148C58.7186 8.952 58.3569 8.854 57.9649 8.854C57.5729 8.854 57.2136 8.94967 56.8869 9.141C56.5603 9.33233 56.2896 9.59133 56.0749 9.918C55.8649 10.24 55.7343 10.6017 55.6829 11.003ZM66.0685 15V5.2H71.8155V6.376H67.2445V9.162H71.1435V10.338H67.2445V15H66.0685ZM75.2188 15.182C74.5748 15.182 73.9868 15.0163 73.4548 14.685C72.9275 14.3537 72.5052 13.9103 72.1878 13.355C71.8752 12.795 71.7188 12.1767 71.7188 11.5C71.7188 10.9867 71.8098 10.5083 71.9918 10.065C72.1738 9.617 72.4235 9.225 72.7408 8.889C73.0628 8.54833 73.4362 8.28233 73.8608 8.091C74.2855 7.89967 74.7382 7.804 75.2188 7.804C75.7462 7.804 76.2292 7.91133 76.6678 8.126C77.1112 8.336 77.4892 8.63 77.8018 9.008C78.1192 9.386 78.3548 9.82467 78.5088 10.324C78.6675 10.8233 78.7258 11.3577 78.6838 11.927H72.9718C73.0278 12.3237 73.1585 12.6783 73.3638 12.991C73.5692 13.299 73.8305 13.544 74.1478 13.726C74.4698 13.908 74.8268 14.0013 75.2188 14.006C75.6388 14.006 76.0192 13.8987 76.3598 13.684C76.7005 13.4647 76.9758 13.166 77.1858 12.788L78.3828 13.068C78.1028 13.6887 77.6805 14.1973 77.1158 14.594C76.5512 14.986 75.9188 15.182 75.2188 15.182ZM72.9368 11.003H77.5008C77.4635 10.611 77.3375 10.254 77.1228 9.932C76.9082 9.60533 76.6352 9.344 76.3038 9.148C75.9725 8.952 75.6108 8.854 75.2188 8.854C74.8268 8.854 74.4675 8.94967 74.1408 9.141C73.8142 9.33233 73.5435 9.59133 73.3288 9.918C73.1188 10.24 72.9882 10.6017 72.9368 11.003ZM82.9024 15.182C82.2584 15.182 81.6704 15.0163 81.1384 14.685C80.6111 14.3537 80.1888 13.9103 79.8714 13.355C79.5588 12.795 79.4024 12.1767 79.4024 11.5C79.4024 10.9867 79.4934 10.5083 79.6754 10.065C79.8574 9.617 80.1071 9.225 80.4244 8.889C80.7464 8.54833 81.1198 8.28233 81.5444 8.091C81.9691 7.89967 82.4218 7.804 82.9024 7.804C83.4298 7.804 83.9128 7.91133 84.3514 8.126C84.7948 8.336 85.1728 8.63 85.4854 9.008C85.8028 9.386 86.0384 9.82467 86.1924 10.324C86.3511 10.8233 86.4094 11.3577 86.3674 11.927H80.6554C80.7114 12.3237 80.8421 12.6783 81.0474 12.991C81.2528 13.299 81.5141 13.544 81.8314 13.726C82.1534 13.908 82.5104 14.0013 82.9024 14.006C83.3224 14.006 83.7028 13.8987 84.0434 13.684C84.3841 13.4647 84.6594 13.166 84.8694 12.788L86.0664 13.068C85.7864 13.6887 85.3641 14.1973 84.7994 14.594C84.2348 14.986 83.6024 15.182 82.9024 15.182ZM80.6204 11.003H85.1844C85.1471 10.611 85.0211 10.254 84.8064 9.932C84.5918 9.60533 84.3188 9.344 83.9874 9.148C83.6561 8.952 83.2944 8.854 82.9024 8.854C82.5104 8.854 82.1511 8.94967 81.8244 9.141C81.4978 9.33233 81.2271 9.59133 81.0124 9.918C80.8024 10.24 80.6718 10.6017 80.6204 11.003ZM89.7094 15.133C89.3314 15.119 88.9627 15.049 88.6034 14.923C88.2487 14.7923 87.936 14.6173 87.6654 14.398C87.3994 14.174 87.2057 13.9173 87.0844 13.628L88.0924 13.194C88.1624 13.3527 88.2884 13.502 88.4704 13.642C88.6524 13.782 88.8624 13.894 89.1004 13.978C89.3384 14.062 89.5787 14.104 89.8214 14.104C90.078 14.104 90.3184 14.0643 90.5424 13.985C90.7664 13.9057 90.9484 13.789 91.0884 13.635C91.233 13.4763 91.3054 13.2873 91.3054 13.068C91.3054 12.8347 91.226 12.6527 91.0674 12.522C90.9134 12.3867 90.7174 12.2817 90.4794 12.207C90.246 12.1277 90.008 12.053 89.7654 11.983C89.2847 11.8617 88.8554 11.717 88.4774 11.549C88.0994 11.3763 87.8007 11.1593 87.5814 10.898C87.3667 10.632 87.2594 10.2937 87.2594 9.883C87.2594 9.449 87.3784 9.07333 87.6164 8.756C87.859 8.43867 88.1764 8.19367 88.5684 8.021C88.9604 7.84833 89.3804 7.762 89.8284 7.762C90.393 7.762 90.9087 7.88333 91.3754 8.126C91.842 8.36867 92.1897 8.69767 92.4184 9.113L91.4734 9.666C91.394 9.498 91.2727 9.351 91.1094 9.225C90.946 9.09433 90.7594 8.99167 90.5494 8.917C90.3394 8.84233 90.1247 8.80267 89.9054 8.798C89.6347 8.78867 89.3804 8.82367 89.1424 8.903C88.909 8.98233 88.72 9.10367 88.5754 9.267C88.4354 9.42567 88.3654 9.624 88.3654 9.862C88.3654 10.0953 88.44 10.2727 88.5894 10.394C88.7434 10.5153 88.9417 10.6133 89.1844 10.688C89.4317 10.758 89.7 10.8397 89.9894 10.933C90.414 11.0683 90.8107 11.2247 91.1794 11.402C91.548 11.5793 91.8444 11.801 92.0684 12.067C92.297 12.333 92.409 12.662 92.4044 13.054C92.4044 13.4833 92.276 13.859 92.0194 14.181C91.7627 14.4983 91.429 14.741 91.0184 14.909C90.6124 15.077 90.176 15.1517 89.7094 15.133Z" fill="#999999"></path><path d="M5.78 56.5L0.7 42.5H2.9L7.08 54.03L11.28 42.5H13.48L8.4 56.5H5.78ZM21.7144 46.5H23.7944V56.5H21.7044L21.6244 55.05C21.331 55.5633 20.9344 55.9767 20.4344 56.29C19.9344 56.6033 19.3444 56.76 18.6644 56.76C17.931 56.76 17.241 56.6233 16.5944 56.35C15.9477 56.07 15.3777 55.6833 14.8844 55.19C14.3977 54.6967 14.0177 54.13 13.7444 53.49C13.471 52.8433 13.3344 52.15 13.3344 51.41C13.3344 50.6967 13.4677 50.0267 13.7344 49.4C14.001 48.7667 14.371 48.2133 14.8444 47.74C15.3177 47.2667 15.8644 46.8967 16.4844 46.63C17.111 46.3567 17.781 46.22 18.4944 46.22C19.221 46.22 19.861 46.3867 20.4144 46.72C20.9744 47.0467 21.4377 47.4667 21.8044 47.98L21.7144 46.5ZM18.6144 54.75C19.201 54.75 19.7144 54.6067 20.1544 54.32C20.5944 54.0267 20.9344 53.6333 21.1744 53.14C21.421 52.6467 21.5444 52.1 21.5444 51.5C21.5444 50.8933 21.421 50.3433 21.1744 49.85C20.9277 49.3567 20.5844 48.9667 20.1444 48.68C19.711 48.3867 19.201 48.24 18.6144 48.24C18.0344 48.24 17.5044 48.3867 17.0244 48.68C16.5444 48.9733 16.1644 49.3667 15.8844 49.86C15.6044 50.3533 15.4644 50.9 15.4644 51.5C15.4644 52.1067 15.6077 52.6567 15.8944 53.15C16.1877 53.6367 16.571 54.0267 17.0444 54.32C17.5244 54.6067 18.0477 54.75 18.6144 54.75ZM25.7898 56.5V46.5H27.8698V47.56C28.2165 47.1467 28.6432 46.82 29.1498 46.58C29.6565 46.34 30.2032 46.22 30.7898 46.22C31.1632 46.22 31.5332 46.27 31.8998 46.37L31.0698 48.47C30.8098 48.37 30.5498 48.32 30.2898 48.32C29.8498 48.32 29.4465 48.43 29.0798 48.65C28.7132 48.8633 28.4198 49.1533 28.1998 49.52C27.9798 49.8867 27.8698 50.2933 27.8698 50.74V56.5H25.7898ZM33.075 46.5H35.155V56.5H33.075V46.5ZM34.135 45.05C33.815 45.05 33.5483 44.9467 33.335 44.74C33.1217 44.5333 33.015 44.2733 33.015 43.96C33.015 43.6533 33.1217 43.3967 33.335 43.19C33.5483 42.9767 33.8117 42.87 34.125 42.87C34.4317 42.87 34.6917 42.9767 34.905 43.19C35.1183 43.3967 35.225 43.6533 35.225 43.96C35.225 44.2733 35.1183 44.5333 34.905 44.74C34.6983 44.9467 34.4417 45.05 34.135 45.05ZM41.7719 56.76C40.8519 56.76 40.0119 56.5233 39.2519 56.05C38.4985 55.5767 37.8952 54.9433 37.4419 54.15C36.9952 53.35 36.7719 52.4667 36.7719 51.5C36.7719 50.7667 36.9019 50.0833 37.1619 49.45C37.4219 48.81 37.7785 48.25 38.2319 47.77C38.6919 47.2833 39.2252 46.9033 39.8319 46.63C40.4385 46.3567 41.0852 46.22 41.7719 46.22C42.5385 46.22 43.2419 46.38 43.8819 46.7C44.5219 47.0133 45.0685 47.45 45.5219 48.01C45.9752 48.5633 46.3085 49.2033 46.5219 49.93C46.7352 50.65 46.7985 51.4167 46.7119 52.23H39.0019C39.0885 52.69 39.2552 53.1067 39.5019 53.48C39.7552 53.8467 40.0752 54.1367 40.4619 54.35C40.8552 54.5633 41.2919 54.6733 41.7719 54.68C42.2785 54.68 42.7385 54.5533 43.1519 54.3C43.5719 54.0467 43.9152 53.6967 44.1819 53.25L46.2919 53.74C45.8919 54.6267 45.2885 55.3533 44.4819 55.92C43.6752 56.48 42.7719 56.76 41.7719 56.76ZM38.9319 50.64H44.6119C44.5452 50.16 44.3752 49.7267 44.1019 49.34C43.8352 48.9467 43.4985 48.6367 43.0919 48.41C42.6919 48.1767 42.2519 48.06 41.7719 48.06C41.2985 48.06 40.8585 48.1733 40.4519 48.4C40.0519 48.6267 39.7185 48.9367 39.4519 49.33C39.1919 49.7167 39.0185 50.1533 38.9319 50.64ZM51.407 56.69C50.8804 56.6567 50.367 56.55 49.867 56.37C49.367 56.19 48.927 55.9467 48.547 55.64C48.1737 55.3267 47.8937 54.96 47.707 54.54L49.477 53.78C49.5637 53.96 49.7137 54.1367 49.927 54.31C50.147 54.4833 50.4037 54.6267 50.697 54.74C50.9904 54.8467 51.297 54.9 51.617 54.9C51.9304 54.9 52.2204 54.8567 52.487 54.77C52.7604 54.6767 52.9837 54.5367 53.157 54.35C53.3304 54.1633 53.417 53.94 53.417 53.68C53.417 53.3867 53.317 53.16 53.117 53C52.9237 52.8333 52.6804 52.7067 52.387 52.62C52.0937 52.5333 51.8004 52.45 51.507 52.37C50.8537 52.2233 50.2537 52.0233 49.707 51.77C49.167 51.51 48.737 51.18 48.417 50.78C48.097 50.3733 47.937 49.8767 47.937 49.29C47.937 48.65 48.1104 48.0967 48.457 47.63C48.8037 47.1567 49.257 46.7933 49.817 46.54C50.3837 46.2867 50.987 46.16 51.627 46.16C52.427 46.16 53.1604 46.33 53.827 46.67C54.4937 47.01 55.0037 47.4767 55.357 48.07L53.707 49.05C53.607 48.85 53.457 48.67 53.257 48.51C53.057 48.35 52.8304 48.2233 52.577 48.13C52.3237 48.03 52.0604 47.9733 51.787 47.96C51.447 47.9467 51.1304 47.9867 50.837 48.08C50.5504 48.1667 50.3204 48.3067 50.147 48.5C49.9737 48.6933 49.887 48.94 49.887 49.24C49.887 49.5333 49.9904 49.7533 50.197 49.9C50.4037 50.04 50.6637 50.1533 50.977 50.24C51.297 50.3267 51.6237 50.4233 51.957 50.53C52.5504 50.7167 53.107 50.9467 53.627 51.22C54.147 51.4867 54.567 51.8167 54.887 52.21C55.207 52.6033 55.3604 53.0833 55.347 53.65C55.347 54.2767 55.157 54.8267 54.777 55.3C54.4037 55.7733 53.917 56.1333 53.317 56.38C52.717 56.6267 52.0804 56.73 51.407 56.69Z" fill="white"></path><rect x="68.5" y="33.5" width="367" height="32" rx="16" fill="#1A1A1A"></rect><rect x="68.5" y="33.5" width="367" height="32" rx="16" stroke="#262626"></rect><path d="M81.05 54V44.2H82.226V54H81.05ZM85.7103 45.271V47H87.7613V48.176H85.7103V54H84.5343V48.176H83.6313V47H84.5343V45.271C84.5343 44.9117 84.6206 44.5873 84.7933 44.298C84.9706 44.004 85.2063 43.7707 85.5003 43.598C85.7989 43.4207 86.1256 43.332 86.4803 43.332C86.7416 43.332 86.9959 43.3857 87.2433 43.493C87.4906 43.5957 87.7099 43.7497 87.9013 43.955L87.0613 44.788C86.9959 44.6993 86.9096 44.6317 86.8023 44.585C86.6996 44.5337 86.5923 44.508 86.4803 44.508C86.2703 44.508 86.0883 44.5827 85.9343 44.732C85.7849 44.8813 85.7103 45.061 85.7103 45.271ZM97.8977 47H99.0737V54H97.8977L97.8487 52.817C97.6294 53.223 97.326 53.552 96.9387 53.804C96.556 54.056 96.0987 54.182 95.5667 54.182C95.0534 54.182 94.5727 54.0863 94.1247 53.895C93.6767 53.699 93.28 53.4307 92.9347 53.09C92.594 52.7447 92.328 52.348 92.1367 51.9C91.9454 51.452 91.8497 50.969 91.8497 50.451C91.8497 49.9517 91.943 49.4803 92.1297 49.037C92.3164 48.5937 92.5754 48.2063 92.9067 47.875C93.2427 47.539 93.63 47.2777 94.0687 47.091C94.5074 46.8997 94.9787 46.804 95.4827 46.804C96.0334 46.804 96.5164 46.9347 96.9317 47.196C97.347 47.4527 97.683 47.7863 97.9397 48.197L97.8977 47ZM95.5457 53.041C96.0077 53.041 96.4067 52.929 96.7427 52.705C97.0834 52.4763 97.3447 52.1683 97.5267 51.781C97.7134 51.3937 97.8067 50.9667 97.8067 50.5C97.8067 50.024 97.7134 49.5947 97.5267 49.212C97.34 48.8247 97.0764 48.519 96.7357 48.295C96.3997 48.0663 96.003 47.952 95.5457 47.952C95.0837 47.952 94.6637 48.0663 94.2857 48.295C93.9077 48.5237 93.6067 48.8317 93.3827 49.219C93.1634 49.6017 93.0537 50.0287 93.0537 50.5C93.0537 50.9713 93.168 51.4007 93.3967 51.788C93.6254 52.1707 93.9287 52.4763 94.3067 52.705C94.6847 52.929 95.0977 53.041 95.5457 53.041ZM101.649 57.5H100.473V47H101.649V48.197C101.887 47.7863 102.204 47.455 102.601 47.203C102.997 46.9463 103.469 46.818 104.015 46.818C104.523 46.818 104.999 46.9137 105.443 47.105C105.891 47.2963 106.283 47.5623 106.619 47.903C106.955 48.239 107.218 48.6287 107.41 49.072C107.601 49.5153 107.697 49.9913 107.697 50.5C107.697 51.0087 107.601 51.487 107.41 51.935C107.218 52.383 106.955 52.7773 106.619 53.118C106.283 53.454 105.891 53.7177 105.443 53.909C104.999 54.1003 104.523 54.196 104.015 54.196C103.469 54.196 102.997 54.07 102.601 53.818C102.204 53.5613 101.887 53.2277 101.649 52.817V57.5ZM104.001 47.959C103.548 47.959 103.151 48.0733 102.811 48.302C102.47 48.5307 102.206 48.8363 102.02 49.219C101.838 49.6017 101.747 50.0287 101.747 50.5C101.747 50.9667 101.838 51.3937 102.02 51.781C102.206 52.1683 102.468 52.4763 102.804 52.705C103.144 52.9337 103.543 53.048 104.001 53.048C104.453 53.048 104.869 52.936 105.247 52.712C105.625 52.4833 105.928 52.1777 106.157 51.795C106.385 51.4077 106.5 50.976 106.5 50.5C106.5 50.0333 106.388 49.6087 106.164 49.226C105.94 48.8387 105.639 48.5307 105.261 48.302C104.883 48.0733 104.463 47.959 104.001 47.959ZM110.043 57.5H108.867V47H110.043V48.197C110.281 47.7863 110.599 47.455 110.995 47.203C111.392 46.9463 111.863 46.818 112.409 46.818C112.918 46.818 113.394 46.9137 113.837 47.105C114.285 47.2963 114.677 47.5623 115.013 47.903C115.349 48.239 115.613 48.6287 115.804 49.072C115.996 49.5153 116.091 49.9913 116.091 50.5C116.091 51.0087 115.996 51.487 115.804 51.935C115.613 52.383 115.349 52.7773 115.013 53.118C114.677 53.454 114.285 53.7177 113.837 53.909C113.394 54.1003 112.918 54.196 112.409 54.196C111.863 54.196 111.392 54.07 110.995 53.818C110.599 53.5613 110.281 53.2277 110.043 52.817V57.5ZM112.395 47.959C111.943 47.959 111.546 48.0733 111.205 48.302C110.865 48.5307 110.601 48.8363 110.414 49.219C110.232 49.6017 110.141 50.0287 110.141 50.5C110.141 50.9667 110.232 51.3937 110.414 51.781C110.601 52.1683 110.862 52.4763 111.198 52.705C111.539 52.9337 111.938 53.048 112.395 53.048C112.848 53.048 113.263 52.936 113.641 52.712C114.019 52.4833 114.323 52.1777 114.551 51.795C114.78 51.4077 114.894 50.976 114.894 50.5C114.894 50.0333 114.782 49.6087 114.558 49.226C114.334 48.8387 114.033 48.5307 113.655 48.302C113.277 48.0733 112.857 47.959 112.395 47.959ZM117.194 54V43.5H118.37V54H117.194ZM120.051 47H121.227V54H120.051V47ZM120.653 45.859C120.466 45.859 120.31 45.7983 120.184 45.677C120.058 45.5557 119.995 45.404 119.995 45.222C119.995 45.04 120.058 44.8883 120.184 44.767C120.31 44.6457 120.464 44.585 120.646 44.585C120.828 44.585 120.982 44.6457 121.108 44.767C121.234 44.8883 121.297 45.04 121.297 45.222C121.297 45.404 121.234 45.5557 121.108 45.677C120.987 45.7983 120.835 45.859 120.653 45.859ZM127.636 52.152L128.686 52.719C128.368 53.1623 127.965 53.517 127.475 53.783C126.989 54.049 126.462 54.182 125.893 54.182C125.249 54.182 124.661 54.0163 124.129 53.685C123.601 53.3537 123.179 52.9103 122.862 52.355C122.549 51.795 122.393 51.1767 122.393 50.5C122.393 49.9867 122.484 49.5083 122.666 49.065C122.848 48.617 123.097 48.225 123.415 47.889C123.737 47.5483 124.11 47.2823 124.535 47.091C124.959 46.8997 125.412 46.804 125.893 46.804C126.462 46.804 126.989 46.937 127.475 47.203C127.965 47.469 128.368 47.826 128.686 48.274L127.636 48.841C127.412 48.5657 127.146 48.3533 126.838 48.204C126.53 48.0547 126.215 47.98 125.893 47.98C125.459 47.98 125.064 48.0967 124.71 48.33C124.36 48.5587 124.082 48.8643 123.877 49.247C123.671 49.6297 123.569 50.0473 123.569 50.5C123.569 50.9527 123.671 51.3703 123.877 51.753C124.087 52.131 124.367 52.4343 124.717 52.663C125.071 52.8917 125.463 53.006 125.893 53.006C126.238 53.006 126.562 52.9267 126.866 52.768C127.169 52.6093 127.426 52.404 127.636 52.152ZM135.454 47H136.63V54H135.454L135.405 52.817C135.186 53.223 134.883 53.552 134.495 53.804C134.113 54.056 133.655 54.182 133.123 54.182C132.61 54.182 132.129 54.0863 131.681 53.895C131.233 53.699 130.837 53.4307 130.491 53.09C130.151 52.7447 129.885 52.348 129.693 51.9C129.502 51.452 129.406 50.969 129.406 50.451C129.406 49.9517 129.5 49.4803 129.686 49.037C129.873 48.5937 130.132 48.2063 130.463 47.875C130.799 47.539 131.187 47.2777 131.625 47.091C132.064 46.8997 132.535 46.804 133.039 46.804C133.59 46.804 134.073 46.9347 134.488 47.196C134.904 47.4527 135.24 47.7863 135.496 48.197L135.454 47ZM133.102 53.041C133.564 53.041 133.963 52.929 134.299 52.705C134.64 52.4763 134.901 52.1683 135.083 51.781C135.27 51.3937 135.363 50.9667 135.363 50.5C135.363 50.024 135.27 49.5947 135.083 49.212C134.897 48.8247 134.633 48.519 134.292 48.295C133.956 48.0663 133.56 47.952 133.102 47.952C132.64 47.952 132.22 48.0663 131.842 48.295C131.464 48.5237 131.163 48.8317 130.939 49.219C130.72 49.6017 130.61 50.0287 130.61 50.5C130.61 50.9713 130.725 51.4007 130.953 51.788C131.182 52.1707 131.485 52.4763 131.863 52.705C132.241 52.929 132.654 53.041 133.102 53.041ZM141.653 46.804C142.335 46.804 142.953 46.9697 143.508 47.301C144.068 47.6323 144.514 48.078 144.845 48.638C145.177 49.1933 145.342 49.8117 145.342 50.493C145.342 51.0017 145.247 51.48 145.055 51.928C144.864 52.3713 144.598 52.7633 144.257 53.104C143.921 53.44 143.529 53.7037 143.081 53.895C142.638 54.0863 142.162 54.182 141.653 54.182C141.112 54.182 140.641 54.056 140.239 53.804C139.843 53.5473 139.525 53.2137 139.287 52.803V54H138.111V43.5H139.287V48.183C139.525 47.7723 139.843 47.441 140.239 47.189C140.641 46.9323 141.112 46.804 141.653 46.804ZM141.639 53.034C142.101 53.034 142.521 52.9197 142.899 52.691C143.277 52.4623 143.578 52.1567 143.802 51.774C144.026 51.3867 144.138 50.9597 144.138 50.493C144.138 50.017 144.024 49.5877 143.795 49.205C143.567 48.8177 143.263 48.512 142.885 48.288C142.507 48.0593 142.092 47.945 141.639 47.945C141.182 47.945 140.783 48.0593 140.442 48.288C140.106 48.5167 139.845 48.8247 139.658 49.212C139.476 49.5993 139.385 50.0263 139.385 50.493C139.385 50.9643 139.476 51.3937 139.658 51.781C139.845 52.1637 140.109 52.4693 140.449 52.698C140.79 52.922 141.187 53.034 141.639 53.034ZM146.438 54V43.5H147.614V54H146.438ZM152.307 54.182C151.663 54.182 151.075 54.0163 150.543 53.685C150.015 53.3537 149.593 52.9103 149.276 52.355C148.963 51.795 148.807 51.1767 148.807 50.5C148.807 49.9867 148.898 49.5083 149.08 49.065C149.262 48.617 149.511 48.225 149.829 47.889C150.151 47.5483 150.524 47.2823 150.949 47.091C151.373 46.8997 151.826 46.804 152.307 46.804C152.834 46.804 153.317 46.9113 153.756 47.126C154.199 47.336 154.577 47.63 154.89 48.008C155.207 48.386 155.443 48.8247 155.597 49.324C155.755 49.8233 155.814 50.3577 155.772 50.927H150.06C150.116 51.3237 150.246 51.6783 150.452 51.991C150.657 52.299 150.918 52.544 151.236 52.726C151.558 52.908 151.915 53.0013 152.307 53.006C152.727 53.006 153.107 52.8987 153.448 52.684C153.788 52.4647 154.064 52.166 154.274 51.788L155.471 52.068C155.191 52.6887 154.768 53.1973 154.204 53.594C153.639 53.986 153.007 54.182 152.307 54.182ZM150.025 50.003H154.589C154.551 49.611 154.425 49.254 154.211 48.932C153.996 48.6053 153.723 48.344 153.392 48.148C153.06 47.952 152.699 47.854 152.307 47.854C151.915 47.854 151.555 47.9497 151.229 48.141C150.902 48.3323 150.631 48.5913 150.417 48.918C150.207 49.24 150.076 49.6017 150.025 50.003ZM156.63 54.784L157.064 52.418H158.24L157.414 54.784H156.63ZM168.104 52.152L169.154 52.719C168.837 53.1623 168.433 53.517 167.943 53.783C167.458 54.049 166.931 54.182 166.361 54.182C165.717 54.182 165.129 54.0163 164.597 53.685C164.07 53.3537 163.648 52.9103 163.33 52.355C163.018 51.795 162.861 51.1767 162.861 50.5C162.861 49.9867 162.952 49.5083 163.134 49.065C163.316 48.617 163.566 48.225 163.883 47.889C164.205 47.5483 164.579 47.2823 165.003 47.091C165.428 46.8997 165.881 46.804 166.361 46.804C166.931 46.804 167.458 46.937 167.943 47.203C168.433 47.469 168.837 47.826 169.154 48.274L168.104 48.841C167.88 48.5657 167.614 48.3533 167.306 48.204C166.998 48.0547 166.683 47.98 166.361 47.98C165.927 47.98 165.533 48.0967 165.178 48.33C164.828 48.5587 164.551 48.8643 164.345 49.247C164.14 49.6297 164.037 50.0473 164.037 50.5C164.037 50.9527 164.14 51.3703 164.345 51.753C164.555 52.131 164.835 52.4343 165.185 52.663C165.54 52.8917 165.932 53.006 166.361 53.006C166.707 53.006 167.031 52.9267 167.334 52.768C167.638 52.6093 167.894 52.404 168.104 52.152ZM173.375 54.182C172.731 54.182 172.143 54.0163 171.611 53.685C171.084 53.3537 170.661 52.9103 170.344 52.355C170.031 51.795 169.875 51.1767 169.875 50.5C169.875 49.9867 169.966 49.5083 170.148 49.065C170.33 48.617 170.58 48.225 170.897 47.889C171.219 47.5483 171.592 47.2823 172.017 47.091C172.442 46.8997 172.894 46.804 173.375 46.804C174.019 46.804 174.605 46.9697 175.132 47.301C175.664 47.6323 176.086 48.078 176.399 48.638C176.716 49.198 176.875 49.8187 176.875 50.5C176.875 51.0087 176.784 51.4847 176.602 51.928C176.42 52.3713 176.168 52.7633 175.846 53.104C175.529 53.44 175.158 53.7037 174.733 53.895C174.313 54.0863 173.86 54.182 173.375 54.182ZM173.375 53.006C173.814 53.006 174.208 52.8917 174.558 52.663C174.913 52.4297 175.19 52.124 175.391 51.746C175.596 51.3633 175.699 50.948 175.699 50.5C175.699 50.0427 175.594 49.6227 175.384 49.24C175.179 48.8573 174.901 48.5517 174.551 48.323C174.201 48.0943 173.809 47.98 173.375 47.98C172.936 47.98 172.542 48.0967 172.192 48.33C171.842 48.5587 171.564 48.8643 171.359 49.247C171.154 49.6297 171.051 50.0473 171.051 50.5C171.051 50.9667 171.156 51.3913 171.366 51.774C171.576 52.152 171.858 52.453 172.213 52.677C172.568 52.8963 172.955 53.006 173.375 53.006ZM184.221 49.646V54H183.045V49.905C183.045 49.5503 182.959 49.2283 182.786 48.939C182.614 48.6497 182.383 48.421 182.093 48.253C181.804 48.0803 181.482 47.994 181.127 47.994C180.777 47.994 180.455 48.0803 180.161 48.253C179.872 48.421 179.641 48.6497 179.468 48.939C179.296 49.2283 179.209 49.5503 179.209 49.905V54H178.033V47H179.209V47.875C179.457 47.5483 179.769 47.2893 180.147 47.098C180.525 46.902 180.936 46.804 181.379 46.804C181.902 46.804 182.378 46.9323 182.807 47.189C183.241 47.441 183.584 47.7817 183.836 48.211C184.093 48.6403 184.221 49.1187 184.221 49.646ZM187.756 54.133C187.378 54.119 187.01 54.049 186.65 53.923C186.296 53.7923 185.983 53.6173 185.712 53.398C185.446 53.174 185.253 52.9173 185.131 52.628L186.139 52.194C186.209 52.3527 186.335 52.502 186.517 52.642C186.699 52.782 186.909 52.894 187.147 52.978C187.385 53.062 187.626 53.104 187.868 53.104C188.125 53.104 188.365 53.0643 188.589 52.985C188.813 52.9057 188.995 52.789 189.135 52.635C189.28 52.4763 189.352 52.2873 189.352 52.068C189.352 51.8347 189.273 51.6527 189.114 51.522C188.96 51.3867 188.764 51.2817 188.526 51.207C188.293 51.1277 188.055 51.053 187.812 50.983C187.332 50.8617 186.902 50.717 186.524 50.549C186.146 50.3763 185.848 50.1593 185.628 49.898C185.414 49.632 185.306 49.2937 185.306 48.883C185.306 48.449 185.425 48.0733 185.663 47.756C185.906 47.4387 186.223 47.1937 186.615 47.021C187.007 46.8483 187.427 46.762 187.875 46.762C188.44 46.762 188.956 46.8833 189.422 47.126C189.889 47.3687 190.237 47.6977 190.465 48.113L189.52 48.666C189.441 48.498 189.32 48.351 189.156 48.225C188.993 48.0943 188.806 47.9917 188.596 47.917C188.386 47.8423 188.172 47.8027 187.952 47.798C187.682 47.7887 187.427 47.8237 187.189 47.903C186.956 47.9823 186.767 48.1037 186.622 48.267C186.482 48.4257 186.412 48.624 186.412 48.862C186.412 49.0953 186.487 49.2727 186.636 49.394C186.79 49.5153 186.989 49.6133 187.231 49.688C187.479 49.758 187.747 49.8397 188.036 49.933C188.461 50.0683 188.858 50.2247 189.226 50.402C189.595 50.5793 189.891 50.801 190.115 51.067C190.344 51.333 190.456 51.662 190.451 52.054C190.451 52.4833 190.323 52.859 190.066 53.181C189.81 53.4983 189.476 53.741 189.065 53.909C188.659 54.077 188.223 54.1517 187.756 54.133ZM191.371 51.34V47H192.547V51.081C192.547 51.4357 192.633 51.7577 192.806 52.047C192.978 52.3363 193.209 52.5673 193.499 52.74C193.793 52.908 194.115 52.992 194.465 52.992C194.819 52.992 195.139 52.908 195.424 52.74C195.713 52.5673 195.944 52.3363 196.117 52.047C196.289 51.7577 196.376 51.4357 196.376 51.081V47H197.552L197.559 54H196.383L196.376 53.111C196.128 53.4377 195.816 53.699 195.438 53.895C195.06 54.0863 194.651 54.182 194.213 54.182C193.69 54.182 193.212 54.056 192.778 53.804C192.348 53.5473 192.005 53.2043 191.749 52.775C191.497 52.3457 191.371 51.8673 191.371 51.34ZM199.047 54V43.5H200.223V54H199.047ZM205.53 48.176H203.941L203.934 54H202.758L202.765 48.176H201.561V47H202.765L202.758 44.802H203.934L203.941 47H205.53V48.176ZM213.264 54H212.074L209.729 47H210.877L212.683 52.341L214.468 47H215.679L217.471 52.341L219.256 47H220.418L218.073 54H216.876L215.063 48.61L213.264 54ZM221.551 47H222.727V54H221.551V47ZM222.153 45.859C221.966 45.859 221.81 45.7983 221.684 45.677C221.558 45.5557 221.495 45.404 221.495 45.222C221.495 45.04 221.558 44.8883 221.684 44.767C221.81 44.6457 221.964 44.585 222.146 44.585C222.328 44.585 222.482 44.6457 222.608 44.767C222.734 44.8883 222.797 45.04 222.797 45.222C222.797 45.404 222.734 45.5557 222.608 45.677C222.487 45.7983 222.335 45.859 222.153 45.859ZM228.034 48.176H226.445L226.438 54H225.262L225.269 48.176H224.065V47H225.269L225.262 44.802H226.438L226.445 47H228.034V48.176ZM235.477 49.646V54H234.301V49.905C234.301 49.5503 234.215 49.2283 234.042 48.939C233.87 48.6497 233.639 48.421 233.349 48.253C233.06 48.0803 232.738 47.994 232.383 47.994C232.033 47.994 231.711 48.0803 231.417 48.253C231.128 48.421 230.897 48.6497 230.724 48.939C230.552 49.2283 230.465 49.5503 230.465 49.905V54H229.289V43.5H230.465V47.875C230.713 47.5483 231.025 47.2893 231.403 47.098C231.781 46.902 232.192 46.804 232.635 46.804C233.158 46.804 233.634 46.9323 234.063 47.189C234.497 47.441 234.84 47.7817 235.092 48.211C235.349 48.6403 235.477 49.1187 235.477 49.646ZM245.035 47H246.281L242.452 57.5H241.206L242.473 54L239.96 47H241.248L243.061 52.383L245.035 47ZM250.266 54.182C249.622 54.182 249.034 54.0163 248.502 53.685C247.974 53.3537 247.552 52.9103 247.235 52.355C246.922 51.795 246.766 51.1767 246.766 50.5C246.766 49.9867 246.857 49.5083 247.039 49.065C247.221 48.617 247.47 48.225 247.788 47.889C248.11 47.5483 248.483 47.2823 248.908 47.091C249.332 46.8997 249.785 46.804 250.266 46.804C250.91 46.804 251.495 46.9697 252.023 47.301C252.555 47.6323 252.977 48.078 253.29 48.638C253.607 49.198 253.766 49.8187 253.766 50.5C253.766 51.0087 253.675 51.4847 253.493 51.928C253.311 52.3713 253.059 52.7633 252.737 53.104C252.419 53.44 252.048 53.7037 251.624 53.895C251.204 54.0863 250.751 54.182 250.266 54.182ZM250.266 53.006C250.704 53.006 251.099 52.8917 251.449 52.663C251.803 52.4297 252.081 52.124 252.282 51.746C252.487 51.3633 252.59 50.948 252.59 50.5C252.59 50.0427 252.485 49.6227 252.275 49.24C252.069 48.8573 251.792 48.5517 251.442 48.323C251.092 48.0943 250.7 47.98 250.266 47.98C249.827 47.98 249.433 48.0967 249.083 48.33C248.733 48.5587 248.455 48.8643 248.25 49.247C248.044 49.6297 247.942 50.0473 247.942 50.5C247.942 50.9667 248.047 51.3913 248.257 51.774C248.467 52.152 248.749 52.453 249.104 52.677C249.458 52.8963 249.846 53.006 250.266 53.006ZM254.548 51.34V47H255.724V51.081C255.724 51.4357 255.811 51.7577 255.983 52.047C256.156 52.3363 256.387 52.5673 256.676 52.74C256.97 52.908 257.292 52.992 257.642 52.992C257.997 52.992 258.317 52.908 258.601 52.74C258.891 52.5673 259.122 52.3363 259.294 52.047C259.467 51.7577 259.553 51.4357 259.553 51.081V47H260.729L260.736 54H259.56L259.553 53.111C259.306 53.4377 258.993 53.699 258.615 53.895C258.237 54.0863 257.829 54.182 257.39 54.182C256.868 54.182 256.389 54.056 255.955 53.804C255.526 53.5473 255.183 53.2043 254.926 52.775C254.674 52.3457 254.548 51.8673 254.548 51.34ZM262.143 54V47H263.319V47.875C263.566 47.5483 263.879 47.2893 264.257 47.098C264.635 46.902 265.045 46.804 265.489 46.804C265.759 46.804 266.021 46.839 266.273 46.909L265.797 48.085C265.605 48.0243 265.419 47.994 265.237 47.994C264.887 47.994 264.565 48.0803 264.271 48.253C263.981 48.421 263.75 48.6497 263.578 48.939C263.405 49.2283 263.319 49.5503 263.319 49.905V54H262.143ZM270.619 54V43.5H271.795V54H270.619ZM276.488 54.182C275.844 54.182 275.256 54.0163 274.724 53.685C274.197 53.3537 273.775 52.9103 273.457 52.355C273.145 51.795 272.988 51.1767 272.988 50.5C272.988 49.9867 273.079 49.5083 273.261 49.065C273.443 48.617 273.693 48.225 274.01 47.889C274.332 47.5483 274.706 47.2823 275.13 47.091C275.555 46.8997 276.008 46.804 276.488 46.804C277.016 46.804 277.499 46.9113 277.937 47.126C278.381 47.336 278.759 47.63 279.071 48.008C279.389 48.386 279.624 48.8247 279.778 49.324C279.937 49.8233 279.995 50.3577 279.953 50.927H274.241C274.297 51.3237 274.428 51.6783 274.633 51.991C274.839 52.299 275.1 52.544 275.417 52.726C275.739 52.908 276.096 53.0013 276.488 53.006C276.908 53.006 277.289 52.8987 277.629 52.684C277.97 52.4647 278.245 52.166 278.455 51.788L279.652 52.068C279.372 52.6887 278.95 53.1973 278.385 53.594C277.821 53.986 277.188 54.182 276.488 54.182ZM274.206 50.003H278.77C278.733 49.611 278.607 49.254 278.392 48.932C278.178 48.6053 277.905 48.344 277.573 48.148C277.242 47.952 276.88 47.854 276.488 47.854C276.096 47.854 275.737 47.9497 275.41 48.141C275.084 48.3323 274.813 48.5913 274.598 48.918C274.388 49.24 274.258 49.6017 274.206 50.003ZM287.321 49.646V54H286.145V49.905C286.145 49.5503 286.059 49.2283 285.886 48.939C285.713 48.6497 285.482 48.421 285.193 48.253C284.904 48.0803 284.582 47.994 284.227 47.994C283.877 47.994 283.555 48.0803 283.261 48.253C282.972 48.421 282.741 48.6497 282.568 48.939C282.395 49.2283 282.309 49.5503 282.309 49.905V54H281.133V47H282.309V47.875C282.556 47.5483 282.869 47.2893 283.247 47.098C283.625 46.902 284.036 46.804 284.479 46.804C285.002 46.804 285.478 46.9323 285.907 47.189C286.341 47.441 286.684 47.7817 286.936 48.211C287.193 48.6403 287.321 49.1187 287.321 49.646ZM294.219 43.5H295.395V54H294.219V52.81C293.981 53.2207 293.661 53.552 293.26 53.804C292.859 54.056 292.387 54.182 291.846 54.182C291.337 54.182 290.861 54.0863 290.418 53.895C289.975 53.7037 289.583 53.44 289.242 53.104C288.906 52.7633 288.642 52.3713 288.451 51.928C288.26 51.4847 288.164 51.0087 288.164 50.5C288.164 49.9913 288.26 49.5153 288.451 49.072C288.642 48.624 288.906 48.232 289.242 47.896C289.583 47.5553 289.975 47.2893 290.418 47.098C290.861 46.9067 291.337 46.811 291.846 46.811C292.387 46.811 292.859 46.937 293.26 47.189C293.661 47.441 293.981 47.7723 294.219 48.183V43.5ZM291.86 53.041C292.322 53.041 292.721 52.929 293.057 52.705C293.398 52.4763 293.659 52.1683 293.841 51.781C294.028 51.3937 294.121 50.9667 294.121 50.5C294.121 50.024 294.028 49.5947 293.841 49.212C293.654 48.8247 293.391 48.519 293.05 48.295C292.714 48.0663 292.317 47.952 291.86 47.952C291.398 47.952 290.978 48.0663 290.6 48.295C290.227 48.5237 289.928 48.8317 289.704 49.219C289.48 49.6017 289.368 50.0287 289.368 50.5C289.368 50.9713 289.482 51.4007 289.711 51.788C289.94 52.1707 290.243 52.4763 290.621 52.705C290.999 52.929 291.412 53.041 291.86 53.041ZM300.086 54.182C299.442 54.182 298.854 54.0163 298.322 53.685C297.795 53.3537 297.372 52.9103 297.055 52.355C296.742 51.795 296.586 51.1767 296.586 50.5C296.586 49.9867 296.677 49.5083 296.859 49.065C297.041 48.617 297.291 48.225 297.608 47.889C297.93 47.5483 298.303 47.2823 298.728 47.091C299.153 46.8997 299.605 46.804 300.086 46.804C300.613 46.804 301.096 46.9113 301.535 47.126C301.978 47.336 302.356 47.63 302.669 48.008C302.986 48.386 303.222 48.8247 303.376 49.324C303.535 49.8233 303.593 50.3577 303.551 50.927H297.839C297.895 51.3237 298.026 51.6783 298.231 51.991C298.436 52.299 298.698 52.544 299.015 52.726C299.337 52.908 299.694 53.0013 300.086 53.006C300.506 53.006 300.886 52.8987 301.227 52.684C301.568 52.4647 301.843 52.166 302.053 51.788L303.25 52.068C302.97 52.6887 302.548 53.1973 301.983 53.594C301.418 53.986 300.786 54.182 300.086 54.182ZM297.804 50.003H302.368C302.331 49.611 302.205 49.254 301.99 48.932C301.775 48.6053 301.502 48.344 301.171 48.148C300.84 47.952 300.478 47.854 300.086 47.854C299.694 47.854 299.335 47.9497 299.008 48.141C298.681 48.3323 298.411 48.5913 298.196 48.918C297.986 49.24 297.855 49.6017 297.804 50.003ZM304.731 54V47H305.907V47.875C306.154 47.5483 306.467 47.2893 306.845 47.098C307.223 46.902 307.633 46.804 308.077 46.804C308.347 46.804 308.609 46.839 308.861 46.909L308.385 48.085C308.193 48.0243 308.007 47.994 307.825 47.994C307.475 47.994 307.153 48.0803 306.859 48.253C306.569 48.421 306.338 48.6497 306.166 48.939C305.993 49.2283 305.907 49.5503 305.907 49.905V54H304.731ZM314.796 45.271V47H316.847V48.176H314.796V54H313.62V48.176H312.717V47H313.62V45.271C313.62 44.9117 313.707 44.5873 313.879 44.298C314.057 44.004 314.292 43.7707 314.586 43.598C314.885 43.4207 315.212 43.332 315.566 43.332C315.828 43.332 316.082 43.3857 316.329 43.493C316.577 43.5957 316.796 43.7497 316.987 43.955L316.147 44.788C316.082 44.6993 315.996 44.6317 315.888 44.585C315.786 44.5337 315.678 44.508 315.566 44.508C315.356 44.508 315.174 44.5827 315.02 44.732C314.871 44.8813 314.796 45.061 314.796 45.271ZM320.908 54.182C320.264 54.182 319.676 54.0163 319.144 53.685C318.617 53.3537 318.195 52.9103 317.877 52.355C317.565 51.795 317.408 51.1767 317.408 50.5C317.408 49.9867 317.499 49.5083 317.681 49.065C317.863 48.617 318.113 48.225 318.43 47.889C318.752 47.5483 319.126 47.2823 319.55 47.091C319.975 46.8997 320.428 46.804 320.908 46.804C321.552 46.804 322.138 46.9697 322.665 47.301C323.197 47.6323 323.62 48.078 323.932 48.638C324.25 49.198 324.408 49.8187 324.408 50.5C324.408 51.0087 324.317 51.4847 324.135 51.928C323.953 52.3713 323.701 52.7633 323.379 53.104C323.062 53.44 322.691 53.7037 322.266 53.895C321.846 54.0863 321.394 54.182 320.908 54.182ZM320.908 53.006C321.347 53.006 321.741 52.8917 322.091 52.663C322.446 52.4297 322.724 52.124 322.924 51.746C323.13 51.3633 323.232 50.948 323.232 50.5C323.232 50.0427 323.127 49.6227 322.917 49.24C322.712 48.8573 322.434 48.5517 322.084 48.323C321.734 48.0943 321.342 47.98 320.908 47.98C320.47 47.98 320.075 48.0967 319.725 48.33C319.375 48.5587 319.098 48.8643 318.892 49.247C318.687 49.6297 318.584 50.0473 318.584 50.5C318.584 50.9667 318.689 51.3913 318.899 51.774C319.109 52.152 319.392 52.453 319.746 52.677C320.101 52.8963 320.488 53.006 320.908 53.006ZM325.567 54V47H326.743V47.875C326.99 47.5483 327.303 47.2893 327.681 47.098C328.059 46.902 328.469 46.804 328.913 46.804C329.183 46.804 329.445 46.839 329.697 46.909L329.221 48.085C329.029 48.0243 328.843 47.994 328.661 47.994C328.311 47.994 327.989 48.0803 327.695 48.253C327.405 48.421 327.174 48.6497 327.002 48.939C326.829 49.2283 326.743 49.5503 326.743 49.905V54H325.567ZM336.178 54.133C335.8 54.119 335.431 54.049 335.072 53.923C334.717 53.7923 334.405 53.6173 334.134 53.398C333.868 53.174 333.674 52.9173 333.553 52.628L334.561 52.194C334.631 52.3527 334.757 52.502 334.939 52.642C335.121 52.782 335.331 52.894 335.569 52.978C335.807 53.062 336.047 53.104 336.29 53.104C336.547 53.104 336.787 53.0643 337.011 52.985C337.235 52.9057 337.417 52.789 337.557 52.635C337.702 52.4763 337.774 52.2873 337.774 52.068C337.774 51.8347 337.695 51.6527 337.536 51.522C337.382 51.3867 337.186 51.2817 336.948 51.207C336.715 51.1277 336.477 51.053 336.234 50.983C335.753 50.8617 335.324 50.717 334.946 50.549C334.568 50.3763 334.269 50.1593 334.05 49.898C333.835 49.632 333.728 49.2937 333.728 48.883C333.728 48.449 333.847 48.0733 334.085 47.756C334.328 47.4387 334.645 47.1937 335.037 47.021C335.429 46.8483 335.849 46.762 336.297 46.762C336.862 46.762 337.377 46.8833 337.844 47.126C338.311 47.3687 338.658 47.6977 338.887 48.113L337.942 48.666C337.863 48.498 337.741 48.351 337.578 48.225C337.415 48.0943 337.228 47.9917 337.018 47.917C336.808 47.8423 336.593 47.8027 336.374 47.798C336.103 47.7887 335.849 47.8237 335.611 47.903C335.378 47.9823 335.189 48.1037 335.044 48.267C334.904 48.4257 334.834 48.624 334.834 48.862C334.834 49.0953 334.909 49.2727 335.058 49.394C335.212 49.5153 335.41 49.6133 335.653 49.688C335.9 49.758 336.169 49.8397 336.458 49.933C336.883 50.0683 337.279 50.2247 337.648 50.402C338.017 50.5793 338.313 50.801 338.537 51.067C338.766 51.333 338.878 51.662 338.873 52.054C338.873 52.4833 338.745 52.859 338.488 53.181C338.231 53.4983 337.898 53.741 337.487 53.909C337.081 54.077 336.645 54.1517 336.178 54.133ZM341.248 57.5H340.072V47H341.248V48.197C341.486 47.7863 341.804 47.455 342.2 47.203C342.597 46.9463 343.068 46.818 343.614 46.818C344.123 46.818 344.599 46.9137 345.042 47.105C345.49 47.2963 345.882 47.5623 346.218 47.903C346.554 48.239 346.818 48.6287 347.009 49.072C347.201 49.5153 347.296 49.9913 347.296 50.5C347.296 51.0087 347.201 51.487 347.009 51.935C346.818 52.383 346.554 52.7773 346.218 53.118C345.882 53.454 345.49 53.7177 345.042 53.909C344.599 54.1003 344.123 54.196 343.614 54.196C343.068 54.196 342.597 54.07 342.2 53.818C341.804 53.5613 341.486 53.2277 341.248 52.817V57.5ZM343.6 47.959C343.148 47.959 342.751 48.0733 342.41 48.302C342.07 48.5307 341.806 48.8363 341.619 49.219C341.437 49.6017 341.346 50.0287 341.346 50.5C341.346 50.9667 341.437 51.3937 341.619 51.781C341.806 52.1683 342.067 52.4763 342.403 52.705C342.744 52.9337 343.143 53.048 343.6 53.048C344.053 53.048 344.468 52.936 344.846 52.712C345.224 52.4833 345.528 52.1777 345.756 51.795C345.985 51.4077 346.099 50.976 346.099 50.5C346.099 50.0333 345.987 49.6087 345.763 49.226C345.539 48.8387 345.238 48.5307 344.86 48.302C344.482 48.0733 344.062 47.959 343.6 47.959ZM351.506 54.182C350.862 54.182 350.274 54.0163 349.742 53.685C349.215 53.3537 348.792 52.9103 348.475 52.355C348.162 51.795 348.006 51.1767 348.006 50.5C348.006 49.9867 348.097 49.5083 348.279 49.065C348.461 48.617 348.711 48.225 349.028 47.889C349.35 47.5483 349.723 47.2823 350.148 47.091C350.573 46.8997 351.025 46.804 351.506 46.804C352.033 46.804 352.516 46.9113 352.955 47.126C353.398 47.336 353.776 47.63 354.089 48.008C354.406 48.386 354.642 48.8247 354.796 49.324C354.955 49.8233 355.013 50.3577 354.971 50.927H349.259C349.315 51.3237 349.446 51.6783 349.651 51.991C349.856 52.299 350.118 52.544 350.435 52.726C350.757 52.908 351.114 53.0013 351.506 53.006C351.926 53.006 352.306 52.8987 352.647 52.684C352.988 52.4647 353.263 52.166 353.473 51.788L354.67 52.068C354.39 52.6887 353.968 53.1973 353.403 53.594C352.838 53.986 352.206 54.182 351.506 54.182ZM349.224 50.003H353.788C353.751 49.611 353.625 49.254 353.41 48.932C353.195 48.6053 352.922 48.344 352.591 48.148C352.26 47.952 351.898 47.854 351.506 47.854C351.114 47.854 350.755 47.9497 350.428 48.141C350.101 48.3323 349.831 48.5913 349.616 48.918C349.406 49.24 349.275 49.6017 349.224 50.003ZM360.933 52.152L361.983 52.719C361.665 53.1623 361.262 53.517 360.772 53.783C360.286 54.049 359.759 54.182 359.19 54.182C358.546 54.182 357.958 54.0163 357.426 53.685C356.898 53.3537 356.476 52.9103 356.159 52.355C355.846 51.795 355.69 51.1767 355.69 50.5C355.69 49.9867 355.781 49.5083 355.963 49.065C356.145 48.617 356.394 48.225 356.712 47.889C357.034 47.5483 357.407 47.2823 357.832 47.091C358.256 46.8997 358.709 46.804 359.19 46.804C359.759 46.804 360.286 46.937 360.772 47.203C361.262 47.469 361.665 47.826 361.983 48.274L360.933 48.841C360.709 48.5657 360.443 48.3533 360.135 48.204C359.827 48.0547 359.512 47.98 359.19 47.98C358.756 47.98 358.361 48.0967 358.007 48.33C357.657 48.5587 357.379 48.8643 357.174 49.247C356.968 49.6297 356.866 50.0473 356.866 50.5C356.866 50.9527 356.968 51.3703 357.174 51.753C357.384 52.131 357.664 52.4343 358.014 52.663C358.368 52.8917 358.76 53.006 359.19 53.006C359.535 53.006 359.859 52.9267 360.163 52.768C360.466 52.6093 360.723 52.404 360.933 52.152ZM363.082 47H364.258V54H363.082V47ZM363.684 45.859C363.498 45.859 363.341 45.7983 363.215 45.677C363.089 45.5557 363.026 45.404 363.026 45.222C363.026 45.04 363.089 44.8883 363.215 44.767C363.341 44.6457 363.495 44.585 363.677 44.585C363.859 44.585 364.013 44.6457 364.139 44.767C364.265 44.8883 364.328 45.04 364.328 45.222C364.328 45.404 364.265 45.5557 364.139 45.677C364.018 45.7983 363.866 45.859 363.684 45.859ZM367.529 45.271V47H369.58V48.176H367.529V54H366.353V48.176H365.45V47H366.353V45.271C366.353 44.9117 366.439 44.5873 366.612 44.298C366.789 44.004 367.025 43.7707 367.319 43.598C367.617 43.4207 367.944 43.332 368.299 43.332C368.56 43.332 368.814 43.3857 369.062 43.493C369.309 43.5957 369.528 43.7497 369.72 43.955L368.88 44.788C368.814 44.6993 368.728 44.6317 368.621 44.585C368.518 44.5337 368.411 44.508 368.299 44.508C368.089 44.508 367.907 44.5827 367.753 44.732C367.603 44.8813 367.529 45.061 367.529 45.271ZM370.656 47H371.832V54H370.656V47ZM371.258 45.859C371.072 45.859 370.915 45.7983 370.789 45.677C370.663 45.5557 370.6 45.404 370.6 45.222C370.6 45.04 370.663 44.8883 370.789 44.767C370.915 44.6457 371.069 44.585 371.251 44.585C371.433 44.585 371.587 44.6457 371.713 44.767C371.839 44.8883 371.902 45.04 371.902 45.222C371.902 45.404 371.839 45.5557 371.713 45.677C371.592 45.7983 371.44 45.859 371.258 45.859ZM378.241 52.152L379.291 52.719C378.974 53.1623 378.57 53.517 378.08 53.783C377.595 54.049 377.067 54.182 376.498 54.182C375.854 54.182 375.266 54.0163 374.734 53.685C374.207 53.3537 373.784 52.9103 373.467 52.355C373.154 51.795 372.998 51.1767 372.998 50.5C372.998 49.9867 373.089 49.5083 373.271 49.065C373.453 48.617 373.703 48.225 374.02 47.889C374.342 47.5483 374.715 47.2823 375.14 47.091C375.565 46.8997 376.017 46.804 376.498 46.804C377.067 46.804 377.595 46.937 378.08 47.203C378.57 47.469 378.974 47.826 379.291 48.274L378.241 48.841C378.017 48.5657 377.751 48.3533 377.443 48.204C377.135 48.0547 376.82 47.98 376.498 47.98C376.064 47.98 375.67 48.0967 375.315 48.33C374.965 48.5587 374.687 48.8643 374.482 49.247C374.277 49.6297 374.174 50.0473 374.174 50.5C374.174 50.9527 374.277 51.3703 374.482 51.753C374.692 52.131 374.972 52.4343 375.322 52.663C375.677 52.8917 376.069 53.006 376.498 53.006C376.843 53.006 377.168 52.9267 377.471 52.768C377.774 52.6093 378.031 52.404 378.241 52.152ZM389.553 43.5H390.729V54H389.553V52.81C389.315 53.2207 388.995 53.552 388.594 53.804C388.193 54.056 387.721 54.182 387.18 54.182C386.671 54.182 386.195 54.0863 385.752 53.895C385.309 53.7037 384.917 53.44 384.576 53.104C384.24 52.7633 383.976 52.3713 383.785 51.928C383.594 51.4847 383.498 51.0087 383.498 50.5C383.498 49.9913 383.594 49.5153 383.785 49.072C383.976 48.624 384.24 48.232 384.576 47.896C384.917 47.5553 385.309 47.2893 385.752 47.098C386.195 46.9067 386.671 46.811 387.18 46.811C387.721 46.811 388.193 46.937 388.594 47.189C388.995 47.441 389.315 47.7723 389.553 48.183V43.5ZM387.194 53.041C387.656 53.041 388.055 52.929 388.391 52.705C388.732 52.4763 388.993 52.1683 389.175 51.781C389.362 51.3937 389.455 50.9667 389.455 50.5C389.455 50.024 389.362 49.5947 389.175 49.212C388.988 48.8247 388.725 48.519 388.384 48.295C388.048 48.0663 387.651 47.952 387.194 47.952C386.732 47.952 386.312 48.0663 385.934 48.295C385.561 48.5237 385.262 48.8317 385.038 49.219C384.814 49.6017 384.702 50.0287 384.702 50.5C384.702 50.9713 384.816 51.4007 385.045 51.788C385.274 52.1707 385.577 52.4763 385.955 52.705C386.333 52.929 386.746 53.041 387.194 53.041ZM395.42 54.182C394.776 54.182 394.188 54.0163 393.656 53.685C393.129 53.3537 392.706 52.9103 392.389 52.355C392.076 51.795 391.92 51.1767 391.92 50.5C391.92 49.9867 392.011 49.5083 392.193 49.065C392.375 48.617 392.625 48.225 392.942 47.889C393.264 47.5483 393.637 47.2823 394.062 47.091C394.487 46.8997 394.939 46.804 395.42 46.804C395.947 46.804 396.43 46.9113 396.869 47.126C397.312 47.336 397.69 47.63 398.003 48.008C398.32 48.386 398.556 48.8247 398.71 49.324C398.869 49.8233 398.927 50.3577 398.885 50.927H393.173C393.229 51.3237 393.36 51.6783 393.565 51.991C393.77 52.299 394.032 52.544 394.349 52.726C394.671 52.908 395.028 53.0013 395.42 53.006C395.84 53.006 396.22 52.8987 396.561 52.684C396.902 52.4647 397.177 52.166 397.387 51.788L398.584 52.068C398.304 52.6887 397.882 53.1973 397.317 53.594C396.752 53.986 396.12 54.182 395.42 54.182ZM393.138 50.003H397.702C397.665 49.611 397.539 49.254 397.324 48.932C397.109 48.6053 396.836 48.344 396.505 48.148C396.174 47.952 395.812 47.854 395.42 47.854C395.028 47.854 394.669 47.9497 394.342 48.141C394.015 48.3323 393.745 48.5913 393.53 48.918C393.32 49.24 393.189 49.6017 393.138 50.003ZM403.609 48.176H402.02L402.013 54H400.837L400.844 48.176H399.64V47H400.844L400.837 44.802H402.013L402.02 47H403.609V48.176ZM410.314 47H411.49V54H410.314L410.265 52.817C410.045 53.223 409.742 53.552 409.355 53.804C408.972 54.056 408.515 54.182 407.983 54.182C407.469 54.182 406.989 54.0863 406.541 53.895C406.093 53.699 405.696 53.4307 405.351 53.09C405.01 52.7447 404.744 52.348 404.553 51.9C404.361 51.452 404.266 50.969 404.266 50.451C404.266 49.9517 404.359 49.4803 404.546 49.037C404.732 48.5937 404.991 48.2063 405.323 47.875C405.659 47.539 406.046 47.2777 406.485 47.091C406.923 46.8997 407.395 46.804 407.899 46.804C408.449 46.804 408.932 46.9347 409.348 47.196C409.763 47.4527 410.099 47.7863 410.356 48.197L410.314 47ZM407.962 53.041C408.424 53.041 408.823 52.929 409.159 52.705C409.499 52.4763 409.761 52.1683 409.943 51.781C410.129 51.3937 410.223 50.9667 410.223 50.5C410.223 50.024 410.129 49.5947 409.943 49.212C409.756 48.8247 409.492 48.519 409.152 48.295C408.816 48.0663 408.419 47.952 407.962 47.952C407.5 47.952 407.08 48.0663 406.702 48.295C406.324 48.5237 406.023 48.8317 405.799 49.219C405.579 49.6017 405.47 50.0287 405.47 50.5C405.47 50.9713 405.584 51.4007 405.813 51.788C406.041 52.1707 406.345 52.4763 406.723 52.705C407.101 52.929 407.514 53.041 407.962 53.041ZM412.889 47H414.065V54H412.889V47ZM413.491 45.859C413.304 45.859 413.148 45.7983 413.022 45.677C412.896 45.5557 412.833 45.404 412.833 45.222C412.833 45.04 412.896 44.8883 413.022 44.767C413.148 44.6457 413.302 44.585 413.484 44.585C413.666 44.585 413.82 44.6457 413.946 44.767C414.072 44.8883 414.135 45.04 414.135 45.222C414.135 45.404 414.072 45.5557 413.946 45.677C413.824 45.7983 413.673 45.859 413.491 45.859ZM415.787 54V43.5H416.963V54H415.787ZM420.78 54.133C420.402 54.119 420.033 54.049 419.674 53.923C419.319 53.7923 419.006 53.6173 418.736 53.398C418.47 53.174 418.276 52.9173 418.155 52.628L419.163 52.194C419.233 52.3527 419.359 52.502 419.541 52.642C419.723 52.782 419.933 52.894 420.171 52.978C420.409 53.062 420.649 53.104 420.892 53.104C421.148 53.104 421.389 53.0643 421.613 52.985C421.837 52.9057 422.019 52.789 422.159 52.635C422.303 52.4763 422.376 52.2873 422.376 52.068C422.376 51.8347 422.296 51.6527 422.138 51.522C421.984 51.3867 421.788 51.2817 421.55 51.207C421.316 51.1277 421.078 51.053 420.836 50.983C420.355 50.8617 419.926 50.717 419.548 50.549C419.17 50.3763 418.871 50.1593 418.652 49.898C418.437 49.632 418.33 49.2937 418.33 48.883C418.33 48.449 418.449 48.0733 418.687 47.756C418.929 47.4387 419.247 47.1937 419.639 47.021C420.031 46.8483 420.451 46.762 420.899 46.762C421.463 46.762 421.979 46.8833 422.446 47.126C422.912 47.3687 423.26 47.6977 423.489 48.113L422.544 48.666C422.464 48.498 422.343 48.351 422.18 48.225C422.016 48.0943 421.83 47.9917 421.62 47.917C421.41 47.8423 421.195 47.8027 420.976 47.798C420.705 47.7887 420.451 47.8237 420.213 47.903C419.979 47.9823 419.79 48.1037 419.646 48.267C419.506 48.4257 419.436 48.624 419.436 48.862C419.436 49.0953 419.51 49.2727 419.66 49.394C419.814 49.5153 420.012 49.6133 420.255 49.688C420.502 49.758 420.77 49.8397 421.06 49.933C421.484 50.0683 421.881 50.2247 422.25 50.402C422.618 50.5793 422.915 50.801 423.139 51.067C423.367 51.333 423.479 51.662 423.475 52.054C423.475 52.4833 423.346 52.859 423.09 53.181C422.833 53.4983 422.499 53.741 422.089 53.909C421.683 54.077 421.246 54.1517 420.78 54.133Z" fill="#999999"></path></svg>