<svg xmlns="http://www.w3.org/2000/svg" width="330" height="124" viewBox="0 0 330 124" fill="none"><rect x="0.5" y="0.5" width="59" height="59" rx="29.5" fill="#141414"></rect><rect x="0.5" y="0.5" width="59" height="59" rx="29.5" stroke="#703BF7"></rect><path fill-rule="evenodd" clip-rule="evenodd" d="M28.5862 19.7458C29.1093 18.4882 30.8908 18.4882 31.4139 19.7458L33.8429 25.5858L40.1477 26.0913C41.5053 26.2001 42.0559 27.8944 41.0215 28.7805L36.2179 32.8953L37.6854 39.0477C38.0015 40.3726 36.5602 41.4197 35.3978 40.7098L30.0001 37.4128L24.6023 40.7098C23.4399 41.4197 21.9986 40.3726 22.3147 39.0477L23.7822 32.8953L18.9787 28.7805C17.9442 27.8945 18.4948 26.2001 19.8525 26.0913L26.1572 25.5858L28.5862 19.7458Z" fill="#A685FA"></path><path d="M81.79 23V25.08H77.33V37H75.25V25.08H70.8V23H81.79ZM82.3523 37V27H84.4323V28.06C84.779 27.6467 85.2057 27.32 85.7123 27.08C86.219 26.84 86.7657 26.72 87.3523 26.72C87.7257 26.72 88.0957 26.77 88.4623 26.87L87.6323 28.97C87.3723 28.87 87.1123 28.82 86.8523 28.82C86.4123 28.82 86.009 28.93 85.6423 29.15C85.2757 29.3633 84.9823 29.6533 84.7623 30.02C84.5423 30.3867 84.4323 30.7933 84.4323 31.24V37H82.3523ZM89.2766 33.25V27H91.3566V32.74C91.3566 33.1867 91.4666 33.5933 91.6866 33.96C91.9066 34.3267 92.1999 34.62 92.5666 34.84C92.9332 35.0533 93.3366 35.16 93.7766 35.16C94.2232 35.16 94.6266 35.0533 94.9866 34.84C95.3532 34.62 95.6432 34.3267 95.8566 33.96C96.0766 33.5933 96.1866 33.1867 96.1866 32.74V27H98.2666L98.2766 37H96.1966L96.1866 35.92C95.8466 36.3333 95.4232 36.66 94.9166 36.9C94.4099 37.14 93.8666 37.26 93.2866 37.26C92.5466 37.26 91.8732 37.08 91.2666 36.72C90.6599 36.36 90.1766 35.8767 89.8166 35.27C89.4566 34.6633 89.2766 33.99 89.2766 33.25ZM103.282 37.19C102.755 37.1567 102.242 37.05 101.742 36.87C101.242 36.69 100.802 36.4467 100.422 36.14C100.049 35.8267 99.7687 35.46 99.582 35.04L101.352 34.28C101.439 34.46 101.589 34.6367 101.802 34.81C102.022 34.9833 102.279 35.1267 102.572 35.24C102.865 35.3467 103.172 35.4 103.492 35.4C103.805 35.4 104.095 35.3567 104.362 35.27C104.635 35.1767 104.859 35.0367 105.032 34.85C105.205 34.6633 105.292 34.44 105.292 34.18C105.292 33.8867 105.192 33.66 104.992 33.5C104.799 33.3333 104.555 33.2067 104.262 33.12C103.969 33.0333 103.675 32.95 103.382 32.87C102.729 32.7233 102.129 32.5233 101.582 32.27C101.042 32.01 100.612 31.68 100.292 31.28C99.972 30.8733 99.812 30.3767 99.812 29.79C99.812 29.15 99.9854 28.5967 100.332 28.13C100.679 27.6567 101.132 27.2933 101.692 27.04C102.259 26.7867 102.862 26.66 103.502 26.66C104.302 26.66 105.035 26.83 105.702 27.17C106.369 27.51 106.879 27.9767 107.232 28.57L105.582 29.55C105.482 29.35 105.332 29.17 105.132 29.01C104.932 28.85 104.705 28.7233 104.452 28.63C104.199 28.53 103.935 28.4733 103.662 28.46C103.322 28.4467 103.005 28.4867 102.712 28.58C102.425 28.6667 102.195 28.8067 102.022 29C101.849 29.1933 101.762 29.44 101.762 29.74C101.762 30.0333 101.865 30.2533 102.072 30.4C102.279 30.54 102.539 30.6533 102.852 30.74C103.172 30.8267 103.499 30.9233 103.832 31.03C104.425 31.2167 104.982 31.4467 105.502 31.72C106.022 31.9867 106.442 32.3167 106.762 32.71C107.082 33.1033 107.235 33.5833 107.222 34.15C107.222 34.7767 107.032 35.3267 106.652 35.8C106.279 36.2733 105.792 36.6333 105.192 36.88C104.592 37.1267 103.955 37.23 103.282 37.19ZM114.214 29.08H112.114L112.104 37H110.024L110.034 29.08H108.444V27H110.034L110.024 23.86H112.104L112.114 27H114.214V29.08Z" fill="white"></path><path d="M9.432 82.8V84.144H5.704V94H4.36V84.144H0.64V82.8H9.432ZM9.75688 94V86H11.1009V87C11.3835 86.6267 11.7409 86.3307 12.1729 86.112C12.6049 85.888 13.0742 85.776 13.5809 85.776C13.8902 85.776 14.1889 85.816 14.4769 85.896L13.9329 87.24C13.7142 87.1707 13.5009 87.136 13.2929 87.136C12.8929 87.136 12.5249 87.2347 12.1889 87.432C11.8582 87.624 11.5942 87.8853 11.3969 88.216C11.1995 88.5467 11.1009 88.9147 11.1009 89.32V94H9.75688ZM15.1244 90.96V86H16.4684V90.664C16.4684 91.0693 16.567 91.4373 16.7644 91.768C16.9617 92.0987 17.2257 92.3627 17.5564 92.56C17.8924 92.752 18.2604 92.848 18.6604 92.848C19.0657 92.848 19.431 92.752 19.7564 92.56C20.087 92.3627 20.351 92.0987 20.5484 91.768C20.7457 91.4373 20.8444 91.0693 20.8444 90.664V86H22.1884L22.1964 94H20.8524L20.8444 92.984C20.5617 93.3573 20.2044 93.656 19.7724 93.88C19.3404 94.0987 18.8737 94.208 18.3724 94.208C17.775 94.208 17.2284 94.064 16.7324 93.776C16.2417 93.4827 15.8497 93.0907 15.5564 92.6C15.2684 92.1093 15.1244 91.5627 15.1244 90.96ZM26.2438 94.152C25.8118 94.136 25.3904 94.056 24.9798 93.912C24.5744 93.7627 24.2171 93.5627 23.9078 93.312C23.6038 93.056 23.3824 92.7627 23.2438 92.432L24.3958 91.936C24.4758 92.1173 24.6198 92.288 24.8278 92.448C25.0358 92.608 25.2758 92.736 25.5478 92.832C25.8198 92.928 26.0944 92.976 26.3718 92.976C26.6651 92.976 26.9398 92.9307 27.1958 92.84C27.4518 92.7493 27.6598 92.616 27.8198 92.44C27.9851 92.2587 28.0678 92.0427 28.0678 91.792C28.0678 91.5253 27.9771 91.3173 27.7958 91.168C27.6198 91.0133 27.3958 90.8933 27.1238 90.808C26.8571 90.7173 26.5851 90.632 26.3078 90.552C25.7584 90.4133 25.2678 90.248 24.8358 90.056C24.4038 89.8587 24.0624 89.6107 23.8118 89.312C23.5664 89.008 23.4438 88.6213 23.4438 88.152C23.4438 87.656 23.5798 87.2267 23.8518 86.864C24.1291 86.5013 24.4918 86.2213 24.9398 86.024C25.3878 85.8267 25.8678 85.728 26.3798 85.728C27.0251 85.728 27.6144 85.8667 28.1478 86.144C28.6811 86.4213 29.0784 86.7973 29.3398 87.272L28.2598 87.904C28.1691 87.712 28.0304 87.544 27.8438 87.4C27.6571 87.2507 27.4438 87.1333 27.2038 87.048C26.9638 86.9627 26.7184 86.9173 26.4678 86.912C26.1584 86.9013 25.8678 86.9413 25.5958 87.032C25.3291 87.1227 25.1131 87.2613 24.9478 87.448C24.7878 87.6293 24.7078 87.856 24.7078 88.128C24.7078 88.3947 24.7931 88.5973 24.9638 88.736C25.1398 88.8747 25.3664 88.9867 25.6438 89.072C25.9264 89.152 26.2331 89.2453 26.5638 89.352C27.0491 89.5067 27.5024 89.6853 27.9238 89.888C28.3451 90.0907 28.6838 90.344 28.9398 90.648C29.2011 90.952 29.3291 91.328 29.3238 91.776C29.3238 92.2667 29.1771 92.696 28.8838 93.064C28.5904 93.4267 28.2091 93.704 27.7398 93.896C27.2758 94.088 26.7771 94.1733 26.2438 94.152ZM34.8384 87.344H33.0224L33.0144 94H31.6704L31.6784 87.344H30.3024V86H31.6784L31.6704 83.488H33.0144L33.0224 86H34.8384V87.344ZM40.1163 86H41.4603V94H40.1163V86ZM40.8043 84.696C40.5909 84.696 40.4123 84.6267 40.2683 84.488C40.1243 84.3493 40.0523 84.176 40.0523 83.968C40.0523 83.76 40.1243 83.5867 40.2683 83.448C40.4123 83.3093 40.5883 83.24 40.7963 83.24C41.0043 83.24 41.1803 83.3093 41.3243 83.448C41.4683 83.5867 41.5403 83.76 41.5403 83.968C41.5403 84.176 41.4683 84.3493 41.3243 84.488C41.1856 84.6267 41.0123 84.696 40.8043 84.696ZM45.7438 94.152C45.3118 94.136 44.8904 94.056 44.4798 93.912C44.0744 93.7627 43.7171 93.5627 43.4078 93.312C43.1038 93.056 42.8824 92.7627 42.7438 92.432L43.8958 91.936C43.9758 92.1173 44.1198 92.288 44.3278 92.448C44.5358 92.608 44.7758 92.736 45.0478 92.832C45.3198 92.928 45.5944 92.976 45.8718 92.976C46.1651 92.976 46.4398 92.9307 46.6958 92.84C46.9518 92.7493 47.1598 92.616 47.3198 92.44C47.4851 92.2587 47.5678 92.0427 47.5678 91.792C47.5678 91.5253 47.4771 91.3173 47.2958 91.168C47.1198 91.0133 46.8958 90.8933 46.6238 90.808C46.3571 90.7173 46.0851 90.632 45.8078 90.552C45.2584 90.4133 44.7678 90.248 44.3358 90.056C43.9038 89.8587 43.5624 89.6107 43.3118 89.312C43.0664 89.008 42.9438 88.6213 42.9438 88.152C42.9438 87.656 43.0798 87.2267 43.3518 86.864C43.6291 86.5013 43.9918 86.2213 44.4398 86.024C44.8878 85.8267 45.3678 85.728 45.8798 85.728C46.5251 85.728 47.1144 85.8667 47.6478 86.144C48.1811 86.4213 48.5784 86.7973 48.8398 87.272L47.7598 87.904C47.6691 87.712 47.5304 87.544 47.3438 87.4C47.1571 87.2507 46.9438 87.1333 46.7038 87.048C46.4638 86.9627 46.2184 86.9173 45.9678 86.912C45.6584 86.9013 45.3678 86.9413 45.0958 87.032C44.8291 87.1227 44.6131 87.2613 44.4478 87.448C44.2878 87.6293 44.2078 87.856 44.2078 88.128C44.2078 88.3947 44.2931 88.5973 44.4638 88.736C44.6398 88.8747 44.8664 88.9867 45.1438 89.072C45.4264 89.152 45.7331 89.2453 46.0638 89.352C46.5491 89.5067 47.0024 89.6853 47.4238 89.888C47.8451 90.0907 48.1838 90.344 48.4398 90.648C48.7011 90.952 48.8291 91.328 48.8238 91.776C48.8238 92.2667 48.6771 92.696 48.3838 93.064C48.0904 93.4267 47.7091 93.704 47.2398 93.896C46.7758 94.088 46.2771 94.1733 45.7438 94.152ZM58.1821 87.344H56.3661L56.3581 94H55.0141L55.0221 87.344H53.6461V86H55.0221L55.0141 83.488H56.3581L56.3661 86H58.1821V87.344ZM66.6883 89.024V94H65.3443V89.32C65.3443 88.9147 65.2456 88.5467 65.0483 88.216C64.8509 87.8853 64.5869 87.624 64.2563 87.432C63.9256 87.2347 63.5576 87.136 63.1523 87.136C62.7523 87.136 62.3843 87.2347 62.0483 87.432C61.7176 87.624 61.4536 87.8853 61.2563 88.216C61.0589 88.5467 60.9603 88.9147 60.9603 89.32V94H59.6163V82H60.9603V87C61.2429 86.6267 61.6003 86.3307 62.0323 86.112C62.4643 85.888 62.9336 85.776 63.4403 85.776C64.0376 85.776 64.5816 85.9227 65.0723 86.216C65.5683 86.504 65.9603 86.8933 66.2483 87.384C66.5416 87.8747 66.6883 88.4213 66.6883 89.024ZM71.6519 94.208C70.9159 94.208 70.2439 94.0187 69.6359 93.64C69.0332 93.2613 68.5505 92.7547 68.1879 92.12C67.8305 91.48 67.6519 90.7733 67.6519 90C67.6519 89.4133 67.7559 88.8667 67.9639 88.36C68.1719 87.848 68.4572 87.4 68.8199 87.016C69.1879 86.6267 69.6145 86.3227 70.0999 86.104C70.5852 85.8853 71.1025 85.776 71.6519 85.776C72.2545 85.776 72.8065 85.8987 73.3079 86.144C73.8145 86.384 74.2465 86.72 74.6039 87.152C74.9665 87.584 75.2359 88.0853 75.4119 88.656C75.5932 89.2267 75.6599 89.8373 75.6119 90.488H69.0839C69.1479 90.9413 69.2972 91.3467 69.5319 91.704C69.7665 92.056 70.0652 92.336 70.4279 92.544C70.7959 92.752 71.2039 92.8587 71.6519 92.864C72.1319 92.864 72.5665 92.7413 72.9559 92.496C73.3452 92.2453 73.6599 91.904 73.8999 91.472L75.2679 91.792C74.9479 92.5013 74.4652 93.0827 73.8199 93.536C73.1745 93.984 72.4519 94.208 71.6519 94.208ZM69.0439 89.432H74.2599C74.2172 88.984 74.0732 88.576 73.8279 88.208C73.5825 87.8347 73.2705 87.536 72.8919 87.312C72.5132 87.088 72.0999 86.976 71.6519 86.976C71.2039 86.976 70.7932 87.0853 70.4199 87.304C70.0465 87.5227 69.7372 87.8187 69.4919 88.192C69.2519 88.56 69.1025 88.9733 69.0439 89.432ZM86.4251 91.888L87.6251 92.536C87.2625 93.0427 86.8011 93.448 86.2411 93.752C85.6865 94.056 85.0838 94.208 84.4331 94.208C83.6971 94.208 83.0251 94.0187 82.4171 93.64C81.8145 93.2613 81.3318 92.7547 80.9691 92.12C80.6118 91.48 80.4331 90.7733 80.4331 90C80.4331 89.4133 80.5371 88.8667 80.7451 88.36C80.9531 87.848 81.2385 87.4 81.6011 87.016C81.9691 86.6267 82.3958 86.3227 82.8811 86.104C83.3665 85.8853 83.8838 85.776 84.4331 85.776C85.0838 85.776 85.6865 85.928 86.2411 86.232C86.8011 86.536 87.2625 86.944 87.6251 87.456L86.4251 88.104C86.1691 87.7893 85.8651 87.5467 85.5131 87.376C85.1611 87.2053 84.8011 87.12 84.4331 87.12C83.9371 87.12 83.4865 87.2533 83.0811 87.52C82.6811 87.7813 82.3638 88.1307 82.1291 88.568C81.8945 89.0053 81.7771 89.4827 81.7771 90C81.7771 90.5173 81.8945 90.9947 82.1291 91.432C82.3691 91.864 82.6891 92.2107 83.0891 92.472C83.4945 92.7333 83.9425 92.864 84.4331 92.864C84.8278 92.864 85.1985 92.7733 85.5451 92.592C85.8918 92.4107 86.1851 92.176 86.4251 91.888ZM92.4488 94.208C91.7128 94.208 91.0408 94.0187 90.4328 93.64C89.8301 93.2613 89.3474 92.7547 88.9848 92.12C88.6274 91.48 88.4488 90.7733 88.4488 90C88.4488 89.4133 88.5528 88.8667 88.7608 88.36C88.9688 87.848 89.2541 87.4 89.6168 87.016C89.9848 86.6267 90.4114 86.3227 90.8968 86.104C91.3821 85.8853 91.8994 85.776 92.4488 85.776C93.1848 85.776 93.8541 85.9653 94.4568 86.344C95.0648 86.7227 95.5474 87.232 95.9048 87.872C96.2674 88.512 96.4488 89.2213 96.4488 90C96.4488 90.5813 96.3448 91.1253 96.1368 91.632C95.9288 92.1387 95.6408 92.5867 95.2728 92.976C94.9101 93.36 94.4861 93.6613 94.0008 93.88C93.5208 94.0987 93.0034 94.208 92.4488 94.208ZM92.4488 92.864C92.9501 92.864 93.4008 92.7333 93.8008 92.472C94.2061 92.2053 94.5234 91.856 94.7528 91.424C94.9874 90.9867 95.1048 90.512 95.1048 90C95.1048 89.4773 94.9848 88.9973 94.7448 88.56C94.5101 88.1227 94.1928 87.7733 93.7928 87.512C93.3928 87.2507 92.9448 87.12 92.4488 87.12C91.9474 87.12 91.4968 87.2533 91.0968 87.52C90.6968 87.7813 90.3794 88.1307 90.1448 88.568C89.9101 89.0053 89.7928 89.4827 89.7928 90C89.7928 90.5333 89.9128 91.0187 90.1528 91.456C90.3928 91.888 90.7154 92.232 91.1208 92.488C91.5261 92.7387 91.9688 92.864 92.4488 92.864ZM97.7725 94V86H99.1165V87C99.3992 86.6267 99.7565 86.3307 100.189 86.112C100.621 85.888 101.09 85.776 101.597 85.776C101.906 85.776 102.205 85.816 102.493 85.896L101.949 87.24C101.73 87.1707 101.517 87.136 101.309 87.136C100.909 87.136 100.541 87.2347 100.205 87.432C99.8738 87.624 99.6098 87.8853 99.4125 88.216C99.2152 88.5467 99.1165 88.9147 99.1165 89.32V94H97.7725ZM110.579 89.024V94H109.235V89.32C109.235 88.9147 109.136 88.5467 108.939 88.216C108.742 87.8853 108.478 87.624 108.147 87.432C107.816 87.2347 107.448 87.136 107.043 87.136C106.643 87.136 106.275 87.2347 105.939 87.432C105.608 87.624 105.344 87.8853 105.147 88.216C104.95 88.5467 104.851 88.9147 104.851 89.32V94H103.507V86H104.851V87C105.134 86.6267 105.491 86.3307 105.923 86.112C106.355 85.888 106.824 85.776 107.331 85.776C107.928 85.776 108.472 85.9227 108.963 86.216C109.459 86.504 109.851 86.8933 110.139 87.384C110.432 87.8747 110.579 88.4213 110.579 89.024ZM115.543 94.208C114.807 94.208 114.135 94.0187 113.527 93.64C112.924 93.2613 112.441 92.7547 112.079 92.12C111.721 91.48 111.543 90.7733 111.543 90C111.543 89.4133 111.647 88.8667 111.855 88.36C112.063 87.848 112.348 87.4 112.711 87.016C113.079 86.6267 113.505 86.3227 113.991 86.104C114.476 85.8853 114.993 85.776 115.543 85.776C116.145 85.776 116.697 85.8987 117.199 86.144C117.705 86.384 118.137 86.72 118.495 87.152C118.857 87.584 119.127 88.0853 119.303 88.656C119.484 89.2267 119.551 89.8373 119.503 90.488H112.975C113.039 90.9413 113.188 91.3467 113.423 91.704C113.657 92.056 113.956 92.336 114.319 92.544C114.687 92.752 115.095 92.8587 115.543 92.864C116.023 92.864 116.457 92.7413 116.847 92.496C117.236 92.2453 117.551 91.904 117.791 91.472L119.159 91.792C118.839 92.5013 118.356 93.0827 117.711 93.536C117.065 93.984 116.343 94.208 115.543 94.208ZM112.935 89.432H118.151C118.108 88.984 117.964 88.576 117.719 88.208C117.473 87.8347 117.161 87.536 116.783 87.312C116.404 87.088 115.991 86.976 115.543 86.976C115.095 86.976 114.684 87.0853 114.311 87.304C113.937 87.5227 113.628 87.8187 113.383 88.192C113.143 88.56 112.993 88.9733 112.935 89.432ZM120.851 94V86H122.195V87C122.477 86.6267 122.835 86.3307 123.267 86.112C123.699 85.888 124.168 85.776 124.675 85.776C124.984 85.776 125.283 85.816 125.571 85.896L125.027 87.24C124.808 87.1707 124.595 87.136 124.387 87.136C123.987 87.136 123.619 87.2347 123.283 87.432C122.952 87.624 122.688 87.8853 122.491 88.216C122.293 88.5467 122.195 88.9147 122.195 89.32V94H120.851ZM128.994 94.152C128.562 94.136 128.14 94.056 127.73 93.912C127.324 93.7627 126.967 93.5627 126.658 93.312C126.354 93.056 126.132 92.7627 125.994 92.432L127.146 91.936C127.226 92.1173 127.37 92.288 127.578 92.448C127.786 92.608 128.026 92.736 128.298 92.832C128.57 92.928 128.844 92.976 129.122 92.976C129.415 92.976 129.69 92.9307 129.946 92.84C130.202 92.7493 130.41 92.616 130.57 92.44C130.735 92.2587 130.818 92.0427 130.818 91.792C130.818 91.5253 130.727 91.3173 130.546 91.168C130.37 91.0133 130.146 90.8933 129.874 90.808C129.607 90.7173 129.335 90.632 129.058 90.552C128.508 90.4133 128.018 90.248 127.586 90.056C127.154 89.8587 126.812 89.6107 126.562 89.312C126.316 89.008 126.194 88.6213 126.194 88.152C126.194 87.656 126.33 87.2267 126.602 86.864C126.879 86.5013 127.242 86.2213 127.69 86.024C128.138 85.8267 128.618 85.728 129.13 85.728C129.775 85.728 130.364 85.8667 130.898 86.144C131.431 86.4213 131.828 86.7973 132.09 87.272L131.01 87.904C130.919 87.712 130.78 87.544 130.594 87.4C130.407 87.2507 130.194 87.1333 129.954 87.048C129.714 86.9627 129.468 86.9173 129.218 86.912C128.908 86.9013 128.618 86.9413 128.346 87.032C128.079 87.1227 127.863 87.2613 127.698 87.448C127.538 87.6293 127.458 87.856 127.458 88.128C127.458 88.3947 127.543 88.5973 127.714 88.736C127.89 88.8747 128.116 88.9867 128.394 89.072C128.676 89.152 128.983 89.2453 129.314 89.352C129.799 89.5067 130.252 89.6853 130.674 89.888C131.095 90.0907 131.434 90.344 131.69 90.648C131.951 90.952 132.079 91.328 132.074 91.776C132.074 92.2667 131.927 92.696 131.634 93.064C131.34 93.4267 130.959 93.704 130.49 93.896C130.026 94.088 129.527 94.1733 128.994 94.152ZM137.588 87.344H135.772L135.764 94H134.42L134.428 87.344H133.052V86H134.428L134.42 83.488H135.764L135.772 86H137.588V87.344ZM142.339 94.208C141.603 94.208 140.931 94.0187 140.323 93.64C139.721 93.2613 139.238 92.7547 138.875 92.12C138.518 91.48 138.339 90.7733 138.339 90C138.339 89.4133 138.443 88.8667 138.651 88.36C138.859 87.848 139.145 87.4 139.507 87.016C139.875 86.6267 140.302 86.3227 140.787 86.104C141.273 85.8853 141.79 85.776 142.339 85.776C143.075 85.776 143.745 85.9653 144.347 86.344C144.955 86.7227 145.438 87.232 145.795 87.872C146.158 88.512 146.339 89.2213 146.339 90C146.339 90.5813 146.235 91.1253 146.027 91.632C145.819 92.1387 145.531 92.5867 145.163 92.976C144.801 93.36 144.377 93.6613 143.891 93.88C143.411 94.0987 142.894 94.208 142.339 94.208ZM142.339 92.864C142.841 92.864 143.291 92.7333 143.691 92.472C144.097 92.2053 144.414 91.856 144.643 91.424C144.878 90.9867 144.995 90.512 144.995 90C144.995 89.4773 144.875 88.9973 144.635 88.56C144.401 88.1227 144.083 87.7733 143.683 87.512C143.283 87.2507 142.835 87.12 142.339 87.12C141.838 87.12 141.387 87.2533 140.987 87.52C140.587 87.7813 140.27 88.1307 140.035 88.568C139.801 89.0053 139.683 89.4827 139.683 90C139.683 90.5333 139.803 91.0187 140.043 91.456C140.283 91.888 140.606 92.232 141.011 92.488C141.417 92.7387 141.859 92.864 142.339 92.864ZM154.735 89.024V94H153.391V89.32C153.391 88.9147 153.292 88.5467 153.095 88.216C152.898 87.8853 152.634 87.624 152.303 87.432C151.972 87.2347 151.604 87.136 151.199 87.136C150.799 87.136 150.431 87.2347 150.095 87.432C149.764 87.624 149.5 87.8853 149.303 88.216C149.106 88.5467 149.007 88.9147 149.007 89.32V94H147.663V86H149.007V87C149.29 86.6267 149.647 86.3307 150.079 86.112C150.511 85.888 150.98 85.776 151.487 85.776C152.084 85.776 152.628 85.9227 153.119 86.216C153.615 86.504 154.007 86.8933 154.295 87.384C154.588 87.8747 154.735 88.4213 154.735 89.024ZM159.699 94.208C158.963 94.208 158.291 94.0187 157.683 93.64C157.08 93.2613 156.597 92.7547 156.235 92.12C155.877 91.48 155.699 90.7733 155.699 90C155.699 89.4133 155.803 88.8667 156.011 88.36C156.219 87.848 156.504 87.4 156.867 87.016C157.235 86.6267 157.661 86.3227 158.147 86.104C158.632 85.8853 159.149 85.776 159.699 85.776C160.301 85.776 160.853 85.8987 161.355 86.144C161.861 86.384 162.293 86.72 162.651 87.152C163.013 87.584 163.283 88.0853 163.459 88.656C163.64 89.2267 163.707 89.8373 163.659 90.488H157.131C157.195 90.9413 157.344 91.3467 157.579 91.704C157.813 92.056 158.112 92.336 158.475 92.544C158.843 92.752 159.251 92.8587 159.699 92.864C160.179 92.864 160.613 92.7413 161.003 92.496C161.392 92.2453 161.707 91.904 161.947 91.472L163.315 91.792C162.995 92.5013 162.512 93.0827 161.867 93.536C161.221 93.984 160.499 94.208 159.699 94.208ZM157.091 89.432H162.307C162.264 88.984 162.12 88.576 161.875 88.208C161.629 87.8347 161.317 87.536 160.939 87.312C160.56 87.088 160.147 86.976 159.699 86.976C159.251 86.976 158.84 87.0853 158.467 87.304C158.093 87.5227 157.784 87.8187 157.539 88.192C157.299 88.56 157.149 88.9733 157.091 89.432ZM172.48 94.208C171.744 94.208 171.072 94.0187 170.464 93.64C169.861 93.2613 169.379 92.7547 169.016 92.12C168.659 91.48 168.48 90.7733 168.48 90C168.48 89.4133 168.584 88.8667 168.792 88.36C169 87.848 169.285 87.4 169.648 87.016C170.016 86.6267 170.443 86.3227 170.928 86.104C171.413 85.8853 171.931 85.776 172.48 85.776C173.216 85.776 173.885 85.9653 174.488 86.344C175.096 86.7227 175.579 87.232 175.936 87.872C176.299 88.512 176.48 89.2213 176.48 90C176.48 90.5813 176.376 91.1253 176.168 91.632C175.96 92.1387 175.672 92.5867 175.304 92.976C174.941 93.36 174.517 93.6613 174.032 93.88C173.552 94.0987 173.035 94.208 172.48 94.208ZM172.48 92.864C172.981 92.864 173.432 92.7333 173.832 92.472C174.237 92.2053 174.555 91.856 174.784 91.424C175.019 90.9867 175.136 90.512 175.136 90C175.136 89.4773 175.016 88.9973 174.776 88.56C174.541 88.1227 174.224 87.7733 173.824 87.512C173.424 87.2507 172.976 87.12 172.48 87.12C171.979 87.12 171.528 87.2533 171.128 87.52C170.728 87.7813 170.411 88.1307 170.176 88.568C169.941 89.0053 169.824 89.4827 169.824 90C169.824 90.5333 169.944 91.0187 170.184 91.456C170.424 91.888 170.747 92.232 171.152 92.488C171.557 92.7387 172 92.864 172.48 92.864ZM179.729 84.024V86H182.073V87.344H179.729V94H178.385V87.344H177.353V86H178.385V84.024C178.385 83.6133 178.484 83.2427 178.681 82.912C178.884 82.576 179.153 82.3093 179.489 82.112C179.83 81.9093 180.204 81.808 180.609 81.808C180.908 81.808 181.198 81.8693 181.481 81.992C181.764 82.1093 182.014 82.2853 182.233 82.52L181.273 83.472C181.198 83.3707 181.1 83.2933 180.977 83.24C180.86 83.1813 180.737 83.152 180.609 83.152C180.369 83.152 180.161 83.2373 179.985 83.408C179.814 83.5787 179.729 83.784 179.729 84.024ZM190.746 94.208C190.01 94.208 189.338 94.0187 188.73 93.64C188.127 93.2613 187.644 92.7547 187.282 92.12C186.924 91.48 186.746 90.7733 186.746 90C186.746 89.4133 186.85 88.8667 187.058 88.36C187.266 87.848 187.551 87.4 187.914 87.016C188.282 86.6267 188.708 86.3227 189.194 86.104C189.679 85.8853 190.196 85.776 190.746 85.776C191.348 85.776 191.9 85.8987 192.402 86.144C192.908 86.384 193.34 86.72 193.698 87.152C194.06 87.584 194.33 88.0853 194.506 88.656C194.687 89.2267 194.754 89.8373 194.706 90.488H188.178C188.242 90.9413 188.391 91.3467 188.626 91.704C188.86 92.056 189.159 92.336 189.522 92.544C189.89 92.752 190.298 92.8587 190.746 92.864C191.226 92.864 191.66 92.7413 192.05 92.496C192.439 92.2453 192.754 91.904 192.994 91.472L194.362 91.792C194.042 92.5013 193.559 93.0827 192.914 93.536C192.268 93.984 191.546 94.208 190.746 94.208ZM188.138 89.432H193.354C193.311 88.984 193.167 88.576 192.922 88.208C192.676 87.8347 192.364 87.536 191.986 87.312C191.607 87.088 191.194 86.976 190.746 86.976C190.298 86.976 189.887 87.0853 189.514 87.304C189.14 87.5227 188.831 87.8187 188.586 88.192C188.346 88.56 188.196 88.9733 188.138 89.432ZM199.854 94H198.134L195.214 85.984H196.646L198.99 92.44L201.334 85.984H202.766L199.854 94ZM207.261 94.208C206.525 94.208 205.853 94.0187 205.245 93.64C204.643 93.2613 204.16 92.7547 203.797 92.12C203.44 91.48 203.261 90.7733 203.261 90C203.261 89.4133 203.365 88.8667 203.573 88.36C203.781 87.848 204.067 87.4 204.429 87.016C204.797 86.6267 205.224 86.3227 205.709 86.104C206.195 85.8853 206.712 85.776 207.261 85.776C207.864 85.776 208.416 85.8987 208.917 86.144C209.424 86.384 209.856 86.72 210.213 87.152C210.576 87.584 210.845 88.0853 211.021 88.656C211.203 89.2267 211.269 89.8373 211.221 90.488H204.693C204.757 90.9413 204.907 91.3467 205.141 91.704C205.376 92.056 205.675 92.336 206.037 92.544C206.405 92.752 206.813 92.8587 207.261 92.864C207.741 92.864 208.176 92.7413 208.565 92.496C208.955 92.2453 209.269 91.904 209.509 91.472L210.877 91.792C210.557 92.5013 210.075 93.0827 209.429 93.536C208.784 93.984 208.061 94.208 207.261 94.208ZM204.653 89.432H209.869C209.827 88.984 209.683 88.576 209.437 88.208C209.192 87.8347 208.88 87.536 208.501 87.312C208.123 87.088 207.709 86.976 207.261 86.976C206.813 86.976 206.403 87.0853 206.029 87.304C205.656 87.5227 205.347 87.8187 205.101 88.192C204.861 88.56 204.712 88.9733 204.653 89.432ZM212.569 94V86H213.913V87C214.196 86.6267 214.553 86.3307 214.985 86.112C215.417 85.888 215.887 85.776 216.393 85.776C216.703 85.776 217.001 85.816 217.289 85.896L216.745 87.24C216.527 87.1707 216.313 87.136 216.105 87.136C215.705 87.136 215.337 87.2347 215.001 87.432C214.671 87.624 214.407 87.8853 214.209 88.216C214.012 88.5467 213.913 88.9147 213.913 89.32V94H212.569ZM223.753 86H225.177L220.801 98H219.377L220.825 94L217.953 86H219.424L221.497 92.152L223.753 86ZM233.056 94.152C232.624 94.136 232.203 94.056 231.792 93.912C231.387 93.7627 231.03 93.5627 230.72 93.312C230.416 93.056 230.195 92.7627 230.056 92.432L231.208 91.936C231.288 92.1173 231.432 92.288 231.64 92.448C231.848 92.608 232.088 92.736 232.36 92.832C232.632 92.928 232.907 92.976 233.184 92.976C233.478 92.976 233.752 92.9307 234.008 92.84C234.264 92.7493 234.472 92.616 234.632 92.44C234.798 92.2587 234.88 92.0427 234.88 91.792C234.88 91.5253 234.79 91.3173 234.608 91.168C234.432 91.0133 234.208 90.8933 233.936 90.808C233.67 90.7173 233.398 90.632 233.12 90.552C232.571 90.4133 232.08 90.248 231.648 90.056C231.216 89.8587 230.875 89.6107 230.624 89.312C230.379 89.008 230.256 88.6213 230.256 88.152C230.256 87.656 230.392 87.2267 230.664 86.864C230.942 86.5013 231.304 86.2213 231.752 86.024C232.2 85.8267 232.68 85.728 233.192 85.728C233.838 85.728 234.427 85.8667 234.96 86.144C235.494 86.4213 235.891 86.7973 236.152 87.272L235.072 87.904C234.982 87.712 234.843 87.544 234.656 87.4C234.47 87.2507 234.256 87.1333 234.016 87.048C233.776 86.9627 233.531 86.9173 233.28 86.912C232.971 86.9013 232.68 86.9413 232.408 87.032C232.142 87.1227 231.926 87.2613 231.76 87.448C231.6 87.6293 231.52 87.856 231.52 88.128C231.52 88.3947 231.606 88.5973 231.776 88.736C231.952 88.8747 232.179 88.9867 232.456 89.072C232.739 89.152 233.046 89.2453 233.376 89.352C233.862 89.5067 234.315 89.6853 234.736 89.888C235.158 90.0907 235.496 90.344 235.752 90.648C236.014 90.952 236.142 91.328 236.136 91.776C236.136 92.2667 235.99 92.696 235.696 93.064C235.403 93.4267 235.022 93.704 234.552 93.896C234.088 94.088 233.59 94.1733 233.056 94.152ZM237.187 90.96V86H238.531V90.664C238.531 91.0693 238.63 91.4373 238.827 91.768C239.024 92.0987 239.288 92.3627 239.619 92.56C239.955 92.752 240.323 92.848 240.723 92.848C241.128 92.848 241.494 92.752 241.819 92.56C242.15 92.3627 242.414 92.0987 242.611 91.768C242.808 91.4373 242.907 91.0693 242.907 90.664V86H244.251L244.259 94H242.915L242.907 92.984C242.624 93.3573 242.267 93.656 241.835 93.88C241.403 94.0987 240.936 94.208 240.435 94.208C239.838 94.208 239.291 94.064 238.795 93.776C238.304 93.4827 237.912 93.0907 237.619 92.6C237.331 92.1093 237.187 91.5627 237.187 90.96ZM251.3 91.888L252.5 92.536C252.137 93.0427 251.676 93.448 251.116 93.752C250.561 94.056 249.959 94.208 249.308 94.208C248.572 94.208 247.9 94.0187 247.292 93.64C246.689 93.2613 246.207 92.7547 245.844 92.12C245.487 91.48 245.308 90.7733 245.308 90C245.308 89.4133 245.412 88.8667 245.62 88.36C245.828 87.848 246.113 87.4 246.476 87.016C246.844 86.6267 247.271 86.3227 247.756 86.104C248.241 85.8853 248.759 85.776 249.308 85.776C249.959 85.776 250.561 85.928 251.116 86.232C251.676 86.536 252.137 86.944 252.5 87.456L251.3 88.104C251.044 87.7893 250.74 87.5467 250.388 87.376C250.036 87.2053 249.676 87.12 249.308 87.12C248.812 87.12 248.361 87.2533 247.956 87.52C247.556 87.7813 247.239 88.1307 247.004 88.568C246.769 89.0053 246.652 89.4827 246.652 90C246.652 90.5173 246.769 90.9947 247.004 91.432C247.244 91.864 247.564 92.2107 247.964 92.472C248.369 92.7333 248.817 92.864 249.308 92.864C249.703 92.864 250.073 92.7733 250.42 92.592C250.767 92.4107 251.06 92.176 251.3 91.888ZM259.316 91.888L260.516 92.536C260.153 93.0427 259.692 93.448 259.132 93.752C258.577 94.056 257.974 94.208 257.324 94.208C256.588 94.208 255.916 94.0187 255.308 93.64C254.705 93.2613 254.222 92.7547 253.86 92.12C253.502 91.48 253.324 90.7733 253.324 90C253.324 89.4133 253.428 88.8667 253.636 88.36C253.844 87.848 254.129 87.4 254.492 87.016C254.86 86.6267 255.286 86.3227 255.772 86.104C256.257 85.8853 256.774 85.776 257.324 85.776C257.974 85.776 258.577 85.928 259.132 86.232C259.692 86.536 260.153 86.944 260.516 87.456L259.316 88.104C259.06 87.7893 258.756 87.5467 258.404 87.376C258.052 87.2053 257.692 87.12 257.324 87.12C256.828 87.12 256.377 87.2533 255.972 87.52C255.572 87.7813 255.254 88.1307 255.02 88.568C254.785 89.0053 254.668 89.4827 254.668 90C254.668 90.5173 254.785 90.9947 255.02 91.432C255.26 91.864 255.58 92.2107 255.98 92.472C256.385 92.7333 256.833 92.864 257.324 92.864C257.718 92.864 258.089 92.7733 258.436 92.592C258.782 92.4107 259.076 92.176 259.316 91.888ZM265.339 94.208C264.603 94.208 263.931 94.0187 263.323 93.64C262.721 93.2613 262.238 92.7547 261.875 92.12C261.518 91.48 261.339 90.7733 261.339 90C261.339 89.4133 261.443 88.8667 261.651 88.36C261.859 87.848 262.145 87.4 262.507 87.016C262.875 86.6267 263.302 86.3227 263.787 86.104C264.273 85.8853 264.79 85.776 265.339 85.776C265.942 85.776 266.494 85.8987 266.995 86.144C267.502 86.384 267.934 86.72 268.291 87.152C268.654 87.584 268.923 88.0853 269.099 88.656C269.281 89.2267 269.347 89.8373 269.299 90.488H262.771C262.835 90.9413 262.985 91.3467 263.219 91.704C263.454 92.056 263.753 92.336 264.115 92.544C264.483 92.752 264.891 92.8587 265.339 92.864C265.819 92.864 266.254 92.7413 266.643 92.496C267.033 92.2453 267.347 91.904 267.587 91.472L268.955 91.792C268.635 92.5013 268.153 93.0827 267.507 93.536C266.862 93.984 266.139 94.208 265.339 94.208ZM262.731 89.432H267.947C267.905 88.984 267.761 88.576 267.515 88.208C267.27 87.8347 266.958 87.536 266.579 87.312C266.201 87.088 265.787 86.976 265.339 86.976C264.891 86.976 264.481 87.0853 264.107 87.304C263.734 87.5227 263.425 87.8187 263.179 88.192C262.939 88.56 262.79 88.9733 262.731 89.432ZM273.119 94.152C272.687 94.136 272.265 94.056 271.855 93.912C271.449 93.7627 271.092 93.5627 270.783 93.312C270.479 93.056 270.257 92.7627 270.119 92.432L271.271 91.936C271.351 92.1173 271.495 92.288 271.703 92.448C271.911 92.608 272.151 92.736 272.423 92.832C272.695 92.928 272.969 92.976 273.247 92.976C273.54 92.976 273.815 92.9307 274.071 92.84C274.327 92.7493 274.535 92.616 274.695 92.44C274.86 92.2587 274.943 92.0427 274.943 91.792C274.943 91.5253 274.852 91.3173 274.671 91.168C274.495 91.0133 274.271 90.8933 273.999 90.808C273.732 90.7173 273.46 90.632 273.183 90.552C272.633 90.4133 272.143 90.248 271.711 90.056C271.279 89.8587 270.937 89.6107 270.687 89.312C270.441 89.008 270.319 88.6213 270.319 88.152C270.319 87.656 270.455 87.2267 270.727 86.864C271.004 86.5013 271.367 86.2213 271.815 86.024C272.263 85.8267 272.743 85.728 273.255 85.728C273.9 85.728 274.489 85.8667 275.023 86.144C275.556 86.4213 275.953 86.7973 276.215 87.272L275.135 87.904C275.044 87.712 274.905 87.544 274.719 87.4C274.532 87.2507 274.319 87.1333 274.079 87.048C273.839 86.9627 273.593 86.9173 273.343 86.912C273.033 86.9013 272.743 86.9413 272.471 87.032C272.204 87.1227 271.988 87.2613 271.823 87.448C271.663 87.6293 271.583 87.856 271.583 88.128C271.583 88.3947 271.668 88.5973 271.839 88.736C272.015 88.8747 272.241 88.9867 272.519 89.072C272.801 89.152 273.108 89.2453 273.439 89.352C273.924 89.5067 274.377 89.6853 274.799 89.888C275.22 90.0907 275.559 90.344 275.815 90.648C276.076 90.952 276.204 91.328 276.199 91.776C276.199 92.2667 276.052 92.696 275.759 93.064C275.465 93.4267 275.084 93.704 274.615 93.896C274.151 94.088 273.652 94.1733 273.119 94.152ZM280.009 94.152C279.577 94.136 279.156 94.056 278.745 93.912C278.34 93.7627 277.983 93.5627 277.673 93.312C277.369 93.056 277.148 92.7627 277.009 92.432L278.161 91.936C278.241 92.1173 278.385 92.288 278.593 92.448C278.801 92.608 279.041 92.736 279.313 92.832C279.585 92.928 279.86 92.976 280.137 92.976C280.431 92.976 280.705 92.9307 280.961 92.84C281.217 92.7493 281.425 92.616 281.585 92.44C281.751 92.2587 281.833 92.0427 281.833 91.792C281.833 91.5253 281.743 91.3173 281.561 91.168C281.385 91.0133 281.161 90.8933 280.889 90.808C280.623 90.7173 280.351 90.632 280.073 90.552C279.524 90.4133 279.033 90.248 278.601 90.056C278.169 89.8587 277.828 89.6107 277.577 89.312C277.332 89.008 277.209 88.6213 277.209 88.152C277.209 87.656 277.345 87.2267 277.617 86.864C277.895 86.5013 278.257 86.2213 278.705 86.024C279.153 85.8267 279.633 85.728 280.145 85.728C280.791 85.728 281.38 85.8667 281.913 86.144C282.447 86.4213 282.844 86.7973 283.105 87.272L282.025 87.904C281.935 87.712 281.796 87.544 281.609 87.4C281.423 87.2507 281.209 87.1333 280.969 87.048C280.729 86.9627 280.484 86.9173 280.233 86.912C279.924 86.9013 279.633 86.9413 279.361 87.032C279.095 87.1227 278.879 87.2613 278.713 87.448C278.553 87.6293 278.473 87.856 278.473 88.128C278.473 88.3947 278.559 88.5973 278.729 88.736C278.905 88.8747 279.132 88.9867 279.409 89.072C279.692 89.152 279.999 89.2453 280.329 89.352C280.815 89.5067 281.268 89.6853 281.689 89.888C282.111 90.0907 282.449 90.344 282.705 90.648C282.967 90.952 283.095 91.328 283.089 91.776C283.089 92.2667 282.943 92.696 282.649 93.064C282.356 93.4267 281.975 93.704 281.505 93.896C281.041 94.088 280.543 94.1733 280.009 94.152ZM286.276 84.024V86H288.62V87.344H286.276V94H284.932V87.344H283.9V86H284.932V84.024C284.932 83.6133 285.031 83.2427 285.228 82.912C285.431 82.576 285.7 82.3093 286.036 82.112C286.377 81.9093 286.751 81.808 287.156 81.808C287.455 81.808 287.745 81.8693 288.028 81.992C288.311 82.1093 288.561 82.2853 288.78 82.52L287.82 83.472C287.745 83.3707 287.647 83.2933 287.524 83.24C287.407 83.1813 287.284 83.152 287.156 83.152C286.916 83.152 286.708 83.2373 286.532 83.408C286.361 83.5787 286.276 83.784 286.276 84.024ZM289.781 90.96V86H291.125V90.664C291.125 91.0693 291.223 91.4373 291.421 91.768C291.618 92.0987 291.882 92.3627 292.213 92.56C292.549 92.752 292.917 92.848 293.317 92.848C293.722 92.848 294.087 92.752 294.413 92.56C294.743 92.3627 295.007 92.0987 295.205 91.768C295.402 91.4373 295.501 91.0693 295.501 90.664V86H296.845L296.853 94H295.509L295.501 92.984C295.218 93.3573 294.861 93.656 294.429 93.88C293.997 94.0987 293.53 94.208 293.029 94.208C292.431 94.208 291.885 94.064 291.389 93.776C290.898 93.4827 290.506 93.0907 290.213 92.6C289.925 92.1093 289.781 91.5627 289.781 90.96ZM298.554 94V82H299.898V94H298.554ZM0.96 118V110H2.304V111C2.58667 110.627 2.944 110.331 3.376 110.112C3.808 109.888 4.27733 109.776 4.784 109.776C5.09333 109.776 5.392 109.816 5.68 109.896L5.136 111.24C4.91733 111.171 4.704 111.136 4.496 111.136C4.096 111.136 3.728 111.235 3.392 111.432C3.06133 111.624 2.79733 111.885 2.6 112.216C2.40267 112.547 2.304 112.915 2.304 113.32V118H0.96ZM9.77688 118.208C9.04088 118.208 8.36888 118.019 7.76088 117.64C7.15821 117.261 6.67554 116.755 6.31288 116.12C5.95554 115.48 5.77688 114.773 5.77688 114C5.77688 113.413 5.88088 112.867 6.08888 112.36C6.29688 111.848 6.58221 111.4 6.94488 111.016C7.31288 110.627 7.73954 110.323 8.22488 110.104C8.71021 109.885 9.22754 109.776 9.77688 109.776C10.3795 109.776 10.9315 109.899 11.4329 110.144C11.9395 110.384 12.3715 110.72 12.7289 111.152C13.0915 111.584 13.3609 112.085 13.5369 112.656C13.7182 113.227 13.7849 113.837 13.7369 114.488H7.20888C7.27288 114.941 7.42221 115.347 7.65688 115.704C7.89154 116.056 8.19021 116.336 8.55288 116.544C8.92088 116.752 9.32888 116.859 9.77688 116.864C10.2569 116.864 10.6915 116.741 11.0809 116.496C11.4702 116.245 11.7849 115.904 12.0249 115.472L13.3929 115.792C13.0729 116.501 12.5902 117.083 11.9449 117.536C11.2995 117.984 10.5769 118.208 9.77688 118.208ZM7.16888 113.432H12.3849C12.3422 112.984 12.1982 112.576 11.9529 112.208C11.7075 111.835 11.3955 111.536 11.0169 111.312C10.6382 111.088 10.2249 110.976 9.77688 110.976C9.32888 110.976 8.91821 111.085 8.54488 111.304C8.17154 111.523 7.86221 111.819 7.61688 112.192C7.37688 112.56 7.22754 112.973 7.16888 113.432ZM21.4701 110H22.8141V118H21.4701L21.4141 116.648C21.1635 117.112 20.8168 117.488 20.3741 117.776C19.9368 118.064 19.4141 118.208 18.8061 118.208C18.2195 118.208 17.6701 118.099 17.1581 117.88C16.6461 117.656 16.1928 117.349 15.7981 116.96C15.4088 116.565 15.1048 116.112 14.8861 115.6C14.6675 115.088 14.5581 114.536 14.5581 113.944C14.5581 113.373 14.6648 112.835 14.8781 112.328C15.0915 111.821 15.3875 111.379 15.7661 111C16.1501 110.616 16.5928 110.317 17.0941 110.104C17.5955 109.885 18.1341 109.776 18.7101 109.776C19.3395 109.776 19.8915 109.925 20.3661 110.224C20.8408 110.517 21.2248 110.899 21.5181 111.368L21.4701 110ZM18.7821 116.904C19.3101 116.904 19.7661 116.776 20.1501 116.52C20.5395 116.259 20.8381 115.907 21.0461 115.464C21.2595 115.021 21.3661 114.533 21.3661 114C21.3661 113.456 21.2595 112.965 21.0461 112.528C20.8328 112.085 20.5315 111.736 20.1421 111.48C19.7581 111.219 19.3048 111.088 18.7821 111.088C18.2541 111.088 17.7741 111.219 17.3421 111.48C16.9101 111.741 16.5661 112.093 16.3101 112.536C16.0595 112.973 15.9341 113.461 15.9341 114C15.9341 114.539 16.0648 115.029 16.3261 115.472C16.5875 115.909 16.9341 116.259 17.3661 116.52C17.7981 116.776 18.2701 116.904 18.7821 116.904ZM24.5069 118V106H25.8509V118H24.5069ZM35.1363 118.208C34.4003 118.208 33.7283 118.019 33.1203 117.64C32.5176 117.261 32.0349 116.755 31.6723 116.12C31.3149 115.48 31.1363 114.773 31.1363 114C31.1363 113.413 31.2403 112.867 31.4483 112.36C31.6563 111.848 31.9416 111.4 32.3043 111.016C32.6723 110.627 33.0989 110.323 33.5843 110.104C34.0696 109.885 34.5869 109.776 35.1363 109.776C35.7389 109.776 36.2909 109.899 36.7923 110.144C37.2989 110.384 37.7309 110.72 38.0883 111.152C38.4509 111.584 38.7203 112.085 38.8963 112.656C39.0776 113.227 39.1443 113.837 39.0963 114.488H32.5683C32.6323 114.941 32.7816 115.347 33.0163 115.704C33.2509 116.056 33.5496 116.336 33.9123 116.544C34.2803 116.752 34.6883 116.859 35.1363 116.864C35.6163 116.864 36.0509 116.741 36.4403 116.496C36.8296 116.245 37.1443 115.904 37.3843 115.472L38.7523 115.792C38.4323 116.501 37.9496 117.083 37.3043 117.536C36.6589 117.984 35.9363 118.208 35.1363 118.208ZM32.5283 113.432H37.7443C37.7016 112.984 37.5576 112.576 37.3123 112.208C37.0669 111.835 36.7549 111.536 36.3763 111.312C35.9976 111.088 35.5843 110.976 35.1363 110.976C34.6883 110.976 34.2776 111.085 33.9043 111.304C33.5309 111.523 33.2216 111.819 32.9763 112.192C32.7363 112.56 32.5869 112.973 32.5283 113.432ZM42.9156 118.152C42.4836 118.136 42.0623 118.056 41.6516 117.912C41.2463 117.763 40.889 117.563 40.5796 117.312C40.2756 117.056 40.0543 116.763 39.9156 116.432L41.0676 115.936C41.1476 116.117 41.2916 116.288 41.4996 116.448C41.7076 116.608 41.9476 116.736 42.2196 116.832C42.4916 116.928 42.7663 116.976 43.0436 116.976C43.337 116.976 43.6116 116.931 43.8676 116.84C44.1236 116.749 44.3316 116.616 44.4916 116.44C44.657 116.259 44.7396 116.043 44.7396 115.792C44.7396 115.525 44.649 115.317 44.4676 115.168C44.2916 115.013 44.0676 114.893 43.7956 114.808C43.529 114.717 43.257 114.632 42.9796 114.552C42.4303 114.413 41.9396 114.248 41.5076 114.056C41.0756 113.859 40.7343 113.611 40.4836 113.312C40.2383 113.008 40.1156 112.621 40.1156 112.152C40.1156 111.656 40.2516 111.227 40.5236 110.864C40.801 110.501 41.1636 110.221 41.6116 110.024C42.0596 109.827 42.5396 109.728 43.0516 109.728C43.697 109.728 44.2863 109.867 44.8196 110.144C45.353 110.421 45.7503 110.797 46.0116 111.272L44.9316 111.904C44.841 111.712 44.7023 111.544 44.5156 111.4C44.329 111.251 44.1156 111.133 43.8756 111.048C43.6356 110.963 43.3903 110.917 43.1396 110.912C42.8303 110.901 42.5396 110.941 42.2676 111.032C42.001 111.123 41.785 111.261 41.6196 111.448C41.4596 111.629 41.3796 111.856 41.3796 112.128C41.3796 112.395 41.465 112.597 41.6356 112.736C41.8116 112.875 42.0383 112.987 42.3156 113.072C42.5983 113.152 42.905 113.245 43.2356 113.352C43.721 113.507 44.1743 113.685 44.5956 113.888C45.017 114.091 45.3556 114.344 45.6116 114.648C45.873 114.952 46.001 115.328 45.9956 115.776C45.9956 116.267 45.849 116.696 45.5556 117.064C45.2623 117.427 44.881 117.704 44.4116 117.896C43.9476 118.088 43.449 118.173 42.9156 118.152ZM51.5103 111.344H49.6943L49.6863 118H48.3423L48.3503 111.344H46.9743V110H48.3503L48.3423 107.488H49.6863L49.6943 110H51.5103V111.344ZM59.1733 110H60.5173V118H59.1733L59.1173 116.648C58.8666 117.112 58.5199 117.488 58.0773 117.776C57.6399 118.064 57.1173 118.208 56.5093 118.208C55.9226 118.208 55.3733 118.099 54.8613 117.88C54.3493 117.656 53.8959 117.349 53.5013 116.96C53.1119 116.565 52.8079 116.112 52.5893 115.6C52.3706 115.088 52.2613 114.536 52.2613 113.944C52.2613 113.373 52.3679 112.835 52.5813 112.328C52.7946 111.821 53.0906 111.379 53.4693 111C53.8533 110.616 54.2959 110.317 54.7973 110.104C55.2986 109.885 55.8373 109.776 56.4133 109.776C57.0426 109.776 57.5946 109.925 58.0693 110.224C58.5439 110.517 58.9279 110.899 59.2213 111.368L59.1733 110ZM56.4852 116.904C57.0133 116.904 57.4693 116.776 57.8533 116.52C58.2426 116.259 58.5413 115.907 58.7493 115.464C58.9626 115.021 59.0693 114.533 59.0693 114C59.0693 113.456 58.9626 112.965 58.7493 112.528C58.5359 112.085 58.2346 111.736 57.8453 111.48C57.4613 111.219 57.0079 111.088 56.4852 111.088C55.9573 111.088 55.4773 111.219 55.0453 111.48C54.6133 111.741 54.2693 112.093 54.0133 112.536C53.7626 112.973 53.6373 113.461 53.6373 114C53.6373 114.539 53.7679 115.029 54.0293 115.472C54.2906 115.909 54.6373 116.259 55.0693 116.52C55.5013 116.776 55.9733 116.904 56.4852 116.904ZM66.2603 111.344H64.4443L64.4363 118H63.0923L63.1003 111.344H61.7243V110H63.1003L63.0923 107.488H64.4363L64.4443 110H66.2603V111.344ZM71.0113 118.208C70.2753 118.208 69.6033 118.019 68.9953 117.64C68.3926 117.261 67.9099 116.755 67.5473 116.12C67.1899 115.48 67.0113 114.773 67.0113 114C67.0113 113.413 67.1153 112.867 67.3233 112.36C67.5313 111.848 67.8166 111.4 68.1793 111.016C68.5473 110.627 68.9739 110.323 69.4593 110.104C69.9446 109.885 70.4619 109.776 71.0113 109.776C71.6139 109.776 72.1659 109.899 72.6673 110.144C73.1739 110.384 73.6059 110.72 73.9633 111.152C74.3259 111.584 74.5953 112.085 74.7713 112.656C74.9526 113.227 75.0193 113.837 74.9713 114.488H68.4433C68.5073 114.941 68.6566 115.347 68.8913 115.704C69.1259 116.056 69.4246 116.336 69.7873 116.544C70.1553 116.752 70.5633 116.859 71.0113 116.864C71.4913 116.864 71.9259 116.741 72.3153 116.496C72.7046 116.245 73.0193 115.904 73.2593 115.472L74.6273 115.792C74.3073 116.501 73.8246 117.083 73.1793 117.536C72.5339 117.984 71.8113 118.208 71.0113 118.208ZM68.4033 113.432H73.6193C73.5766 112.984 73.4326 112.576 73.1873 112.208C72.9419 111.835 72.6299 111.536 72.2513 111.312C71.8726 111.088 71.4593 110.976 71.0113 110.976C70.5633 110.976 70.1526 111.085 69.7793 111.304C69.4059 111.523 69.0966 111.819 68.8513 112.192C68.6113 112.56 68.4619 112.973 68.4033 113.432ZM84.4165 111.344H82.6005L82.5925 118H81.2485L81.2565 111.344H79.8805V110H81.2565L81.2485 107.488H82.5925L82.6005 110H84.4165V111.344ZM85.8506 118V110H87.1946V111C87.4773 110.627 87.8346 110.331 88.2666 110.112C88.6986 109.888 89.168 109.776 89.6746 109.776C89.984 109.776 90.2826 109.816 90.5706 109.896L90.0266 111.24C89.808 111.171 89.5946 111.136 89.3866 111.136C88.9866 111.136 88.6186 111.235 88.2826 111.432C87.952 111.624 87.688 111.885 87.4906 112.216C87.2933 112.547 87.1946 112.915 87.1946 113.32V118H85.8506ZM97.5795 110H98.9235V118H97.5795L97.5235 116.648C97.2728 117.112 96.9262 117.488 96.4835 117.776C96.0462 118.064 95.5235 118.208 94.9155 118.208C94.3288 118.208 93.7795 118.099 93.2675 117.88C92.7555 117.656 92.3022 117.349 91.9075 116.96C91.5182 116.565 91.2142 116.112 90.9955 115.6C90.7768 115.088 90.6675 114.536 90.6675 113.944C90.6675 113.373 90.7742 112.835 90.9875 112.328C91.2008 111.821 91.4968 111.379 91.8755 111C92.2595 110.616 92.7022 110.317 93.2035 110.104C93.7048 109.885 94.2435 109.776 94.8195 109.776C95.4488 109.776 96.0008 109.925 96.4755 110.224C96.9502 110.517 97.3342 110.899 97.6275 111.368L97.5795 110ZM94.8915 116.904C95.4195 116.904 95.8755 116.776 96.2595 116.52C96.6488 116.259 96.9475 115.907 97.1555 115.464C97.3688 115.021 97.4755 114.533 97.4755 114C97.4755 113.456 97.3688 112.965 97.1555 112.528C96.9422 112.085 96.6408 111.736 96.2515 111.48C95.8675 111.219 95.4142 111.088 94.8915 111.088C94.3635 111.088 93.8835 111.219 93.4515 111.48C93.0195 111.741 92.6755 112.093 92.4195 112.536C92.1688 112.973 92.0435 113.461 92.0435 114C92.0435 114.539 92.1742 115.029 92.4355 115.472C92.6968 115.909 93.0435 116.259 93.4755 116.52C93.9075 116.776 94.3795 116.904 94.8915 116.904ZM107.595 113.024V118H106.251V113.32C106.251 112.915 106.152 112.547 105.955 112.216C105.757 111.885 105.493 111.624 105.163 111.432C104.832 111.235 104.464 111.136 104.059 111.136C103.659 111.136 103.291 111.235 102.955 111.432C102.624 111.624 102.36 111.885 102.163 112.216C101.965 112.547 101.867 112.915 101.867 113.32V118H100.523V110H101.867V111C102.149 110.627 102.507 110.331 102.939 110.112C103.371 109.888 103.84 109.776 104.347 109.776C104.944 109.776 105.488 109.923 105.979 110.216C106.475 110.504 106.867 110.893 107.155 111.384C107.448 111.875 107.595 112.421 107.595 113.024ZM111.634 118.152C111.202 118.136 110.781 118.056 110.37 117.912C109.965 117.763 109.608 117.563 109.298 117.312C108.994 117.056 108.773 116.763 108.634 116.432L109.786 115.936C109.866 116.117 110.01 116.288 110.218 116.448C110.426 116.608 110.666 116.736 110.938 116.832C111.21 116.928 111.485 116.976 111.762 116.976C112.056 116.976 112.33 116.931 112.586 116.84C112.842 116.749 113.05 116.616 113.21 116.44C113.376 116.259 113.458 116.043 113.458 115.792C113.458 115.525 113.368 115.317 113.186 115.168C113.01 115.013 112.786 114.893 112.514 114.808C112.248 114.717 111.976 114.632 111.698 114.552C111.149 114.413 110.658 114.248 110.226 114.056C109.794 113.859 109.453 113.611 109.202 113.312C108.957 113.008 108.834 112.621 108.834 112.152C108.834 111.656 108.97 111.227 109.242 110.864C109.52 110.501 109.882 110.221 110.33 110.024C110.778 109.827 111.258 109.728 111.77 109.728C112.416 109.728 113.005 109.867 113.538 110.144C114.072 110.421 114.469 110.797 114.73 111.272L113.65 111.904C113.56 111.712 113.421 111.544 113.234 111.4C113.048 111.251 112.834 111.133 112.594 111.048C112.354 110.963 112.109 110.917 111.858 110.912C111.549 110.901 111.258 110.941 110.986 111.032C110.72 111.123 110.504 111.261 110.338 111.448C110.178 111.629 110.098 111.856 110.098 112.128C110.098 112.395 110.184 112.597 110.354 112.736C110.53 112.875 110.757 112.987 111.034 113.072C111.317 113.152 111.624 113.245 111.954 113.352C112.44 113.507 112.893 113.685 113.314 113.888C113.736 114.091 114.074 114.344 114.33 114.648C114.592 114.952 114.72 115.328 114.714 115.776C114.714 116.267 114.568 116.696 114.274 117.064C113.981 117.427 113.6 117.704 113.13 117.896C112.666 118.088 112.168 118.173 111.634 118.152ZM122.439 110H123.783V118H122.439L122.383 116.648C122.132 117.112 121.786 117.488 121.343 117.776C120.906 118.064 120.383 118.208 119.775 118.208C119.188 118.208 118.639 118.099 118.127 117.88C117.615 117.656 117.162 117.349 116.767 116.96C116.378 116.565 116.074 116.112 115.855 115.6C115.636 115.088 115.527 114.536 115.527 113.944C115.527 113.373 115.634 112.835 115.847 112.328C116.06 111.821 116.356 111.379 116.735 111C117.119 110.616 117.562 110.317 118.063 110.104C118.564 109.885 119.103 109.776 119.679 109.776C120.308 109.776 120.86 109.925 121.335 110.224C121.81 110.517 122.194 110.899 122.487 111.368L122.439 110ZM119.751 116.904C120.279 116.904 120.735 116.776 121.119 116.52C121.508 116.259 121.807 115.907 122.015 115.464C122.228 115.021 122.335 114.533 122.335 114C122.335 113.456 122.228 112.965 122.015 112.528C121.802 112.085 121.5 111.736 121.111 111.48C120.727 111.219 120.274 111.088 119.751 111.088C119.223 111.088 118.743 111.219 118.311 111.48C117.879 111.741 117.535 112.093 117.279 112.536C117.028 112.973 116.903 113.461 116.903 114C116.903 114.539 117.034 115.029 117.295 115.472C117.556 115.909 117.903 116.259 118.335 116.52C118.767 116.776 119.239 116.904 119.751 116.904ZM130.738 115.888L131.938 116.536C131.575 117.043 131.114 117.448 130.554 117.752C129.999 118.056 129.396 118.208 128.746 118.208C128.01 118.208 127.338 118.019 126.73 117.64C126.127 117.261 125.644 116.755 125.282 116.12C124.924 115.48 124.746 114.773 124.746 114C124.746 113.413 124.85 112.867 125.058 112.36C125.266 111.848 125.551 111.4 125.914 111.016C126.282 110.627 126.708 110.323 127.194 110.104C127.679 109.885 128.196 109.776 128.746 109.776C129.396 109.776 129.999 109.928 130.554 110.232C131.114 110.536 131.575 110.944 131.938 111.456L130.738 112.104C130.482 111.789 130.178 111.547 129.826 111.376C129.474 111.205 129.114 111.12 128.746 111.12C128.25 111.12 127.799 111.253 127.394 111.52C126.994 111.781 126.676 112.131 126.442 112.568C126.207 113.005 126.09 113.483 126.09 114C126.09 114.517 126.207 114.995 126.442 115.432C126.682 115.864 127.002 116.211 127.402 116.472C127.807 116.733 128.255 116.864 128.746 116.864C129.14 116.864 129.511 116.773 129.858 116.592C130.204 116.411 130.498 116.176 130.738 115.888ZM137.526 111.344H135.71L135.702 118H134.358L134.366 111.344H132.99V110H134.366L134.358 107.488H135.702L135.71 110H137.526V111.344ZM138.882 110H140.226V118H138.882V110ZM139.57 108.696C139.357 108.696 139.178 108.627 139.034 108.488C138.89 108.349 138.818 108.176 138.818 107.968C138.818 107.76 138.89 107.587 139.034 107.448C139.178 107.309 139.354 107.24 139.562 107.24C139.77 107.24 139.946 107.309 140.09 107.448C140.234 107.587 140.306 107.76 140.306 107.968C140.306 108.176 140.234 108.349 140.09 108.488C139.951 108.627 139.778 108.696 139.57 108.696ZM145.558 118.208C144.822 118.208 144.15 118.019 143.542 117.64C142.939 117.261 142.457 116.755 142.094 116.12C141.737 115.48 141.558 114.773 141.558 114C141.558 113.413 141.662 112.867 141.87 112.36C142.078 111.848 142.363 111.4 142.726 111.016C143.094 110.627 143.521 110.323 144.006 110.104C144.491 109.885 145.009 109.776 145.558 109.776C146.294 109.776 146.963 109.965 147.566 110.344C148.174 110.723 148.657 111.232 149.014 111.872C149.377 112.512 149.558 113.221 149.558 114C149.558 114.581 149.454 115.125 149.246 115.632C149.038 116.139 148.75 116.587 148.382 116.976C148.019 117.36 147.595 117.661 147.11 117.88C146.63 118.099 146.113 118.208 145.558 118.208ZM145.558 116.864C146.059 116.864 146.51 116.733 146.91 116.472C147.315 116.205 147.633 115.856 147.862 115.424C148.097 114.987 148.214 114.512 148.214 114C148.214 113.477 148.094 112.997 147.854 112.56C147.619 112.123 147.302 111.773 146.902 111.512C146.502 111.251 146.054 111.12 145.558 111.12C145.057 111.12 144.606 111.253 144.206 111.52C143.806 111.781 143.489 112.131 143.254 112.568C143.019 113.005 142.902 113.483 142.902 114C142.902 114.533 143.022 115.019 143.262 115.456C143.502 115.888 143.825 116.232 144.23 116.488C144.635 116.739 145.078 116.864 145.558 116.864ZM157.954 113.024V118H156.61V113.32C156.61 112.915 156.511 112.547 156.314 112.216C156.117 111.885 155.853 111.624 155.522 111.432C155.191 111.235 154.823 111.136 154.418 111.136C154.018 111.136 153.65 111.235 153.314 111.432C152.983 111.624 152.719 111.885 152.522 112.216C152.325 112.547 152.226 112.915 152.226 113.32V118H150.882V110H152.226V111C152.509 110.627 152.866 110.331 153.298 110.112C153.73 109.888 154.199 109.776 154.706 109.776C155.303 109.776 155.847 109.923 156.338 110.216C156.834 110.504 157.226 110.893 157.514 111.384C157.807 111.875 157.954 112.421 157.954 113.024ZM159.962 118.208C159.759 118.208 159.586 118.136 159.442 117.992C159.303 117.848 159.234 117.672 159.234 117.464C159.234 117.267 159.303 117.096 159.442 116.952C159.586 116.808 159.759 116.736 159.962 116.736C160.17 116.736 160.346 116.808 160.49 116.952C160.634 117.096 160.706 117.267 160.706 117.464C160.706 117.672 160.634 117.848 160.49 117.992C160.346 118.136 160.17 118.208 159.962 118.208Z" fill="#999999"></path></svg>