<svg xmlns="http://www.w3.org/2000/svg" width="313" height="114" viewBox="0 0 313 114" fill="none"><path d="M1.7 22V8H3.95L10.38 18.24V8H12.46V22H10.21L3.78 11.76V22H1.7ZM19.1273 22.26C18.2073 22.26 17.3673 22.0233 16.6073 21.55C15.854 21.0767 15.2507 20.4433 14.7973 19.65C14.3507 18.85 14.1273 17.9667 14.1273 17C14.1273 16.2667 14.2573 15.5833 14.5173 14.95C14.7773 14.31 15.134 13.75 15.5873 13.27C16.0473 12.7833 16.5807 12.4033 17.1873 12.13C17.794 11.8567 18.4407 11.72 19.1273 11.72C20.0473 11.72 20.884 11.9567 21.6373 12.43C22.3973 12.9033 23.0007 13.54 23.4473 14.34C23.9007 15.14 24.1273 16.0267 24.1273 17C24.1273 17.7267 23.9973 18.4067 23.7373 19.04C23.4773 19.6733 23.1173 20.2333 22.6573 20.72C22.204 21.2 21.674 21.5767 21.0673 21.85C20.4673 22.1233 19.8207 22.26 19.1273 22.26ZM19.1273 20.18C19.6807 20.18 20.1773 20.0333 20.6173 19.74C21.0573 19.4467 21.404 19.06 21.6573 18.58C21.9173 18.0933 22.0473 17.5667 22.0473 17C22.0473 16.42 21.914 15.8867 21.6473 15.4C21.3873 14.9133 21.0373 14.5267 20.5973 14.24C20.1573 13.9467 19.6673 13.8 19.1273 13.8C18.5807 13.8 18.084 13.9467 17.6373 14.24C17.1973 14.5333 16.8473 14.9233 16.5873 15.41C16.334 15.8967 16.2073 16.4267 16.2073 17C16.2073 17.5933 16.3407 18.13 16.6073 18.61C16.874 19.09 17.2273 19.4733 17.6673 19.76C18.114 20.04 18.6007 20.18 19.1273 20.18ZM26.4134 22.26C26.1068 22.26 25.8468 22.1533 25.6334 21.94C25.4268 21.7267 25.3234 21.4667 25.3234 21.16C25.3234 20.86 25.4268 20.6033 25.6334 20.39C25.8468 20.1767 26.1068 20.07 26.4134 20.07C26.7201 20.07 26.9801 20.1767 27.1934 20.39C27.4068 20.6033 27.5134 20.86 27.5134 21.16C27.5134 21.4667 27.4068 21.7267 27.1934 21.94C26.9801 22.1533 26.7201 22.26 26.4134 22.26ZM39.1273 22.26C38.2073 22.26 37.3673 22.0233 36.6073 21.55C35.854 21.0767 35.2507 20.4433 34.7973 19.65C34.3507 18.85 34.1273 17.9667 34.1273 17C34.1273 16.2667 34.2573 15.5833 34.5173 14.95C34.7773 14.31 35.134 13.75 35.5873 13.27C36.0473 12.7833 36.5807 12.4033 37.1873 12.13C37.794 11.8567 38.4407 11.72 39.1273 11.72C40.0473 11.72 40.884 11.9567 41.6373 12.43C42.3973 12.9033 43.0007 13.54 43.4473 14.34C43.9007 15.14 44.1273 16.0267 44.1273 17C44.1273 17.7267 43.9973 18.4067 43.7373 19.04C43.4773 19.6733 43.1173 20.2333 42.6573 20.72C42.204 21.2 41.674 21.5767 41.0673 21.85C40.4673 22.1233 39.8207 22.26 39.1273 22.26ZM39.1273 20.18C39.6807 20.18 40.1773 20.0333 40.6173 19.74C41.0573 19.4467 41.404 19.06 41.6573 18.58C41.9173 18.0933 42.0473 17.5667 42.0473 17C42.0473 16.42 41.914 15.8867 41.6473 15.4C41.3873 14.9133 41.0373 14.5267 40.5973 14.24C40.1573 13.9467 39.6673 13.8 39.1273 13.8C38.5807 13.8 38.084 13.9467 37.6373 14.24C37.1973 14.5333 36.8473 14.9233 36.5873 15.41C36.334 15.8967 36.2073 16.4267 36.2073 17C36.2073 17.5933 36.3407 18.13 36.6073 18.61C36.874 19.09 37.2273 19.4733 37.6673 19.76C38.114 20.04 38.6007 20.18 39.1273 20.18ZM48.4888 9.73V12H51.3088V14.08H48.4888V22H46.4088V14.08H45.2188V12H46.4088V9.73C46.4088 9.18333 46.5421 8.68667 46.8088 8.24C47.0754 7.78667 47.4321 7.42667 47.8788 7.16C48.3321 6.89333 48.8354 6.76 49.3888 6.76C49.7888 6.76 50.1788 6.84 50.5588 7C50.9388 7.16 51.2788 7.40667 51.5788 7.74L50.0888 9.21C50.0154 9.09 49.9121 9 49.7788 8.94C49.6521 8.87333 49.5221 8.84 49.3888 8.84C49.1421 8.84 48.9288 8.92667 48.7488 9.1C48.5754 9.27333 48.4888 9.48333 48.4888 9.73ZM57.7938 22V8H62.7638C63.4838 8 64.1338 8.14667 64.7138 8.44C65.3004 8.73333 65.7638 9.15667 66.1038 9.71C66.4504 10.2567 66.6238 10.9133 66.6238 11.68C66.6238 12.0533 66.5638 12.42 66.4438 12.78C66.3238 13.14 66.1538 13.4567 65.9338 13.73C65.7138 14.0033 65.4471 14.1967 65.1338 14.31C65.5604 14.4167 65.9138 14.61 66.1938 14.89C66.4804 15.1633 66.7071 15.4833 66.8737 15.85C67.0404 16.2167 67.1571 16.5967 67.2238 16.99C67.2971 17.3833 67.3338 17.7567 67.3338 18.11C67.3338 18.8567 67.1538 19.5233 66.7938 20.11C66.4338 20.6967 65.9504 21.16 65.3438 21.5C64.7438 21.8333 64.0804 22 63.3538 22H57.7938ZM59.8738 20.2H63.1538C63.5804 20.2 63.9671 20.0933 64.3138 19.88C64.6671 19.6667 64.9471 19.3733 65.1538 19C65.3604 18.62 65.4638 18.1933 65.4638 17.72C65.4638 17.3067 65.3604 16.9167 65.1538 16.55C64.9471 16.1767 64.6671 15.8767 64.3138 15.65C63.9671 15.4233 63.5804 15.31 63.1538 15.31H59.8738V20.2ZM59.8738 13.54H62.5438C63.0904 13.54 63.5604 13.3733 63.9538 13.04C64.3471 12.7067 64.5438 12.25 64.5438 11.67C64.5438 11.05 64.3471 10.5867 63.9538 10.28C63.5604 9.96667 63.0904 9.81 62.5438 9.81H59.8738V13.54ZM76.6284 12H78.7084V22H76.6184L76.5384 20.55C76.2451 21.0633 75.8484 21.4767 75.3484 21.79C74.8484 22.1033 74.2584 22.26 73.5784 22.26C72.8451 22.26 72.1551 22.1233 71.5084 21.85C70.8618 21.57 70.2918 21.1833 69.7984 20.69C69.3118 20.1967 68.9318 19.63 68.6584 18.99C68.3851 18.3433 68.2484 17.65 68.2484 16.91C68.2484 16.1967 68.3818 15.5267 68.6484 14.9C68.9151 14.2667 69.2851 13.7133 69.7584 13.24C70.2318 12.7667 70.7784 12.3967 71.3984 12.13C72.0251 11.8567 72.6951 11.72 73.4084 11.72C74.1351 11.72 74.7751 11.8867 75.3284 12.22C75.8884 12.5467 76.3518 12.9667 76.7184 13.48L76.6284 12ZM73.5284 20.25C74.1151 20.25 74.6284 20.1067 75.0684 19.82C75.5084 19.5267 75.8484 19.1333 76.0884 18.64C76.3351 18.1467 76.4584 17.6 76.4584 17C76.4584 16.3933 76.3351 15.8433 76.0884 15.35C75.8418 14.8567 75.4984 14.4667 75.0584 14.18C74.6251 13.8867 74.1151 13.74 73.5284 13.74C72.9484 13.74 72.4184 13.8867 71.9384 14.18C71.4584 14.4733 71.0784 14.8667 70.7984 15.36C70.5184 15.8533 70.3784 16.4 70.3784 17C70.3784 17.6067 70.5218 18.1567 70.8084 18.65C71.1018 19.1367 71.4851 19.5267 71.9584 19.82C72.4384 20.1067 72.9618 20.25 73.5284 20.25ZM85.9839 14.08H83.8839L83.8739 22H81.7939L81.8039 14.08H80.2139V12H81.8039L81.7939 8.86H83.8739L83.8839 12H85.9839V14.08ZM96.7742 15.73V22H94.6942V16.24C94.6942 15.7933 94.5842 15.3867 94.3642 15.02C94.1509 14.6533 93.8609 14.3633 93.4942 14.15C93.1342 13.93 92.7276 13.82 92.2742 13.82C91.8342 13.82 91.4309 13.93 91.0642 14.15C90.6976 14.3633 90.4042 14.6533 90.1842 15.02C89.9642 15.3867 89.8542 15.7933 89.8542 16.24V22H87.7742V7H89.8542V13.06C90.2009 12.6467 90.6276 12.32 91.1342 12.08C91.6409 11.84 92.1876 11.72 92.7742 11.72C93.5142 11.72 94.1876 11.9 94.7942 12.26C95.4009 12.62 95.8809 13.1033 96.2342 13.71C96.5942 14.3167 96.7742 14.99 96.7742 15.73ZM98.7703 22V12H100.85V13.06C101.197 12.6467 101.624 12.32 102.13 12.08C102.637 11.84 103.184 11.72 103.77 11.72C104.144 11.72 104.514 11.77 104.88 11.87L104.05 13.97C103.79 13.87 103.53 13.82 103.27 13.82C102.83 13.82 102.427 13.93 102.06 14.15C101.694 14.3633 101.4 14.6533 101.18 15.02C100.96 15.3867 100.85 15.7933 100.85 16.24V22H98.7703ZM109.967 22.26C109.047 22.26 108.207 22.0233 107.447 21.55C106.694 21.0767 106.091 20.4433 105.637 19.65C105.191 18.85 104.967 17.9667 104.967 17C104.967 16.2667 105.097 15.5833 105.357 14.95C105.617 14.31 105.974 13.75 106.427 13.27C106.887 12.7833 107.421 12.4033 108.027 12.13C108.634 11.8567 109.281 11.72 109.967 11.72C110.887 11.72 111.724 11.9567 112.477 12.43C113.237 12.9033 113.841 13.54 114.287 14.34C114.741 15.14 114.967 16.0267 114.967 17C114.967 17.7267 114.837 18.4067 114.577 19.04C114.317 19.6733 113.957 20.2333 113.497 20.72C113.044 21.2 112.514 21.5767 111.907 21.85C111.307 22.1233 110.661 22.26 109.967 22.26ZM109.967 20.18C110.521 20.18 111.017 20.0333 111.457 19.74C111.897 19.4467 112.244 19.06 112.497 18.58C112.757 18.0933 112.887 17.5667 112.887 17C112.887 16.42 112.754 15.8867 112.487 15.4C112.227 14.9133 111.877 14.5267 111.437 14.24C110.997 13.9467 110.507 13.8 109.967 13.8C109.421 13.8 108.924 13.9467 108.477 14.24C108.037 14.5333 107.687 14.9233 107.427 15.41C107.174 15.8967 107.047 16.4267 107.047 17C107.047 17.5933 107.181 18.13 107.447 18.61C107.714 19.09 108.067 19.4733 108.507 19.76C108.954 20.04 109.441 20.18 109.967 20.18ZM120.963 22.26C120.043 22.26 119.203 22.0233 118.443 21.55C117.69 21.0767 117.087 20.4433 116.633 19.65C116.187 18.85 115.963 17.9667 115.963 17C115.963 16.2667 116.093 15.5833 116.353 14.95C116.613 14.31 116.97 13.75 117.423 13.27C117.883 12.7833 118.417 12.4033 119.023 12.13C119.63 11.8567 120.277 11.72 120.963 11.72C121.883 11.72 122.72 11.9567 123.473 12.43C124.233 12.9033 124.837 13.54 125.283 14.34C125.737 15.14 125.963 16.0267 125.963 17C125.963 17.7267 125.833 18.4067 125.573 19.04C125.313 19.6733 124.953 20.2333 124.493 20.72C124.04 21.2 123.51 21.5767 122.903 21.85C122.303 22.1233 121.657 22.26 120.963 22.26ZM120.963 20.18C121.517 20.18 122.013 20.0333 122.453 19.74C122.893 19.4467 123.24 19.06 123.493 18.58C123.753 18.0933 123.883 17.5667 123.883 17C123.883 16.42 123.75 15.8867 123.483 15.4C123.223 14.9133 122.873 14.5267 122.433 14.24C121.993 13.9467 121.503 13.8 120.963 13.8C120.417 13.8 119.92 13.9467 119.473 14.24C119.033 14.5333 118.683 14.9233 118.423 15.41C118.17 15.8967 118.043 16.4267 118.043 17C118.043 17.5933 118.177 18.13 118.443 18.61C118.71 19.09 119.063 19.4733 119.503 19.76C119.95 20.04 120.437 20.18 120.963 20.18ZM127.579 22V12H129.659V13.06C130.006 12.6467 130.429 12.32 130.929 12.08C131.436 11.84 131.982 11.72 132.569 11.72C133.282 11.72 133.939 11.8933 134.539 12.24C135.139 12.58 135.616 13.0333 135.969 13.6C136.322 13.0333 136.792 12.58 137.379 12.24C137.972 11.8933 138.626 11.72 139.339 11.72C140.079 11.72 140.752 11.9 141.359 12.26C141.966 12.62 142.449 13.1033 142.809 13.71C143.169 14.3167 143.349 14.99 143.349 15.73V22H141.269V16.26C141.269 15.82 141.162 15.4167 140.949 15.05C140.736 14.6833 140.449 14.3867 140.089 14.16C139.729 13.9333 139.329 13.82 138.889 13.82C138.449 13.82 138.049 13.9267 137.689 14.14C137.329 14.3533 137.042 14.6433 136.829 15.01C136.616 15.3767 136.509 15.7933 136.509 16.26V22H134.429V16.26C134.429 15.7933 134.322 15.3767 134.109 15.01C133.896 14.6433 133.606 14.3533 133.239 14.14C132.879 13.9267 132.479 13.82 132.039 13.82C131.606 13.82 131.206 13.9333 130.839 14.16C130.479 14.3867 130.192 14.6833 129.979 15.05C129.766 15.4167 129.659 15.82 129.659 16.26V22H127.579ZM148.352 22.19C147.826 22.1567 147.312 22.05 146.812 21.87C146.312 21.69 145.872 21.4467 145.492 21.14C145.119 20.8267 144.839 20.46 144.652 20.04L146.422 19.28C146.509 19.46 146.659 19.6367 146.872 19.81C147.092 19.9833 147.349 20.1267 147.642 20.24C147.936 20.3467 148.242 20.4 148.562 20.4C148.876 20.4 149.166 20.3567 149.432 20.27C149.706 20.1767 149.929 20.0367 150.102 19.85C150.276 19.6633 150.362 19.44 150.362 19.18C150.362 18.8867 150.262 18.66 150.062 18.5C149.869 18.3333 149.626 18.2067 149.332 18.12C149.039 18.0333 148.746 17.95 148.452 17.87C147.799 17.7233 147.199 17.5233 146.652 17.27C146.112 17.01 145.682 16.68 145.362 16.28C145.042 15.8733 144.882 15.3767 144.882 14.79C144.882 14.15 145.056 13.5967 145.402 13.13C145.749 12.6567 146.202 12.2933 146.762 12.04C147.329 11.7867 147.932 11.66 148.572 11.66C149.372 11.66 150.106 11.83 150.772 12.17C151.439 12.51 151.949 12.9767 152.302 13.57L150.652 14.55C150.552 14.35 150.402 14.17 150.202 14.01C150.002 13.85 149.776 13.7233 149.522 13.63C149.269 13.53 149.006 13.4733 148.732 13.46C148.392 13.4467 148.076 13.4867 147.782 13.58C147.496 13.6667 147.266 13.8067 147.092 14C146.919 14.1933 146.832 14.44 146.832 14.74C146.832 15.0333 146.936 15.2533 147.142 15.4C147.349 15.54 147.609 15.6533 147.922 15.74C148.242 15.8267 148.569 15.9233 148.902 16.03C149.496 16.2167 150.052 16.4467 150.572 16.72C151.092 16.9867 151.512 17.3167 151.832 17.71C152.152 18.1033 152.306 18.5833 152.292 19.15C152.292 19.7767 152.102 20.3267 151.722 20.8C151.349 21.2733 150.862 21.6333 150.262 21.88C149.662 22.1267 149.026 22.23 148.352 22.19Z" fill="white"></path><rect x="1" y="46.5" width="310.75" height="67" rx="7.5" fill="#1A1A1A"></rect><rect x="1" y="46.5" width="310.75" height="67" rx="7.5" stroke="#262626"></rect><path d="M26.017 86.234C25.339 86.234 24.685 86.129 24.055 85.919C23.425 85.703 22.873 85.397 22.399 85.001C21.931 84.605 21.598 84.134 21.4 83.588L22.813 83.057C22.933 83.393 23.155 83.687 23.479 83.939C23.809 84.185 24.196 84.377 24.64 84.515C25.084 84.653 25.543 84.722 26.017 84.722C26.557 84.722 27.058 84.635 27.52 84.461C27.988 84.281 28.366 84.032 28.654 83.714C28.942 83.396 29.086 83.024 29.086 82.598C29.086 82.16 28.936 81.803 28.636 81.527C28.336 81.245 27.952 81.023 27.484 80.861C27.016 80.693 26.527 80.564 26.017 80.474C25.147 80.33 24.367 80.126 23.677 79.862C22.993 79.592 22.45 79.217 22.048 78.737C21.652 78.257 21.454 77.624 21.454 76.838C21.454 76.106 21.664 75.467 22.084 74.921C22.51 74.375 23.071 73.952 23.767 73.652C24.463 73.352 25.213 73.202 26.017 73.202C26.683 73.202 27.328 73.307 27.952 73.517C28.582 73.721 29.137 74.021 29.617 74.417C30.097 74.813 30.442 75.296 30.652 75.866L29.221 76.388C29.101 76.046 28.876 75.752 28.546 75.506C28.222 75.254 27.838 75.062 27.394 74.93C26.956 74.792 26.497 74.723 26.017 74.723C25.483 74.717 24.985 74.804 24.523 74.984C24.061 75.164 23.686 75.413 23.398 75.731C23.11 76.049 22.966 76.418 22.966 76.838C22.966 77.342 23.098 77.729 23.362 77.999C23.632 78.263 23.998 78.461 24.46 78.593C24.922 78.725 25.441 78.842 26.017 78.944C26.833 79.082 27.589 79.301 28.285 79.601C28.981 79.895 29.539 80.288 29.959 80.78C30.385 81.272 30.598 81.878 30.598 82.598C30.598 83.33 30.385 83.969 29.959 84.515C29.539 85.061 28.981 85.484 28.285 85.784C27.589 86.084 26.833 86.234 26.017 86.234ZM36.4384 86.234C35.6104 86.234 34.8544 86.021 34.1704 85.595C33.4924 85.169 32.9494 84.599 32.5414 83.885C32.1394 83.165 31.9384 82.37 31.9384 81.5C31.9384 80.84 32.0554 80.225 32.2894 79.655C32.5234 79.079 32.8444 78.575 33.2524 78.143C33.6664 77.705 34.1464 77.363 34.6924 77.117C35.2384 76.871 35.8204 76.748 36.4384 76.748C37.1164 76.748 37.7374 76.886 38.3014 77.162C38.8714 77.432 39.3574 77.81 39.7594 78.296C40.1674 78.782 40.4704 79.346 40.6684 79.988C40.8724 80.63 40.9474 81.317 40.8934 82.049H33.5494C33.6214 82.559 33.7894 83.015 34.0534 83.417C34.3174 83.813 34.6534 84.128 35.0614 84.362C35.4754 84.596 35.9344 84.716 36.4384 84.722C36.9784 84.722 37.4674 84.584 37.9054 84.308C38.3434 84.026 38.6974 83.642 38.9674 83.156L40.5064 83.516C40.1464 84.314 39.6034 84.968 38.8774 85.478C38.1514 85.982 37.3384 86.234 36.4384 86.234ZM33.5044 80.861H39.3724C39.3244 80.357 39.1624 79.898 38.8864 79.484C38.6104 79.064 38.2594 78.728 37.8334 78.476C37.4074 78.224 36.9424 78.098 36.4384 78.098C35.9344 78.098 35.4724 78.221 35.0524 78.467C34.6324 78.713 34.2844 79.046 34.0084 79.466C33.7384 79.88 33.5704 80.345 33.5044 80.861ZM42.3222 86V72.5H43.8342V86H42.3222ZM49.8681 86.234C49.0401 86.234 48.2841 86.021 47.6001 85.595C46.9221 85.169 46.3791 84.599 45.9711 83.885C45.5691 83.165 45.3681 82.37 45.3681 81.5C45.3681 80.84 45.4851 80.225 45.7191 79.655C45.9531 79.079 46.2741 78.575 46.6821 78.143C47.0961 77.705 47.5761 77.363 48.1221 77.117C48.6681 76.871 49.2501 76.748 49.8681 76.748C50.5461 76.748 51.1671 76.886 51.7311 77.162C52.3011 77.432 52.7871 77.81 53.1891 78.296C53.5971 78.782 53.9001 79.346 54.0981 79.988C54.3021 80.63 54.3771 81.317 54.3231 82.049H46.9791C47.0511 82.559 47.2191 83.015 47.4831 83.417C47.7471 83.813 48.0831 84.128 48.4911 84.362C48.9051 84.596 49.3641 84.716 49.8681 84.722C50.4081 84.722 50.8971 84.584 51.3351 84.308C51.7731 84.026 52.1271 83.642 52.3971 83.156L53.9361 83.516C53.5761 84.314 53.0331 84.968 52.3071 85.478C51.5811 85.982 50.7681 86.234 49.8681 86.234ZM46.9341 80.861H52.8021C52.7541 80.357 52.5921 79.898 52.3161 79.484C52.0401 79.064 51.6891 78.728 51.2631 78.476C50.8371 78.224 50.3721 78.098 49.8681 78.098C49.3641 78.098 48.9021 78.221 48.4821 78.467C48.0621 78.713 47.7141 79.046 47.4381 79.466C47.1681 79.88 47.0001 80.345 46.9341 80.861ZM61.988 83.624L63.338 84.353C62.93 84.923 62.411 85.379 61.781 85.721C61.157 86.063 60.479 86.234 59.747 86.234C58.919 86.234 58.163 86.021 57.479 85.595C56.801 85.169 56.258 84.599 55.85 83.885C55.448 83.165 55.247 82.37 55.247 81.5C55.247 80.84 55.364 80.225 55.598 79.655C55.832 79.079 56.153 78.575 56.561 78.143C56.975 77.705 57.455 77.363 58.001 77.117C58.547 76.871 59.129 76.748 59.747 76.748C60.479 76.748 61.157 76.919 61.781 77.261C62.411 77.603 62.93 78.062 63.338 78.638L61.988 79.367C61.7 79.013 61.358 78.74 60.962 78.548C60.566 78.356 60.161 78.26 59.747 78.26C59.189 78.26 58.682 78.41 58.226 78.71C57.776 79.004 57.419 79.397 57.155 79.889C56.891 80.381 56.759 80.918 56.759 81.5C56.759 82.082 56.891 82.619 57.155 83.111C57.425 83.597 57.785 83.987 58.235 84.281C58.691 84.575 59.195 84.722 59.747 84.722C60.191 84.722 60.608 84.62 60.998 84.416C61.388 84.212 61.718 83.948 61.988 83.624ZM69.6248 78.512H67.5818L67.5728 86H66.0608L66.0698 78.512H64.5218V77H66.0698L66.0608 74.174H67.5728L67.5818 77H69.6248V78.512ZM83.5184 80.402V86H82.0064V80.735C82.0064 80.279 81.8954 79.865 81.6734 79.493C81.4514 79.121 81.1544 78.827 80.7824 78.611C80.4104 78.389 79.9964 78.278 79.5404 78.278C79.0904 78.278 78.6764 78.389 78.2984 78.611C77.9264 78.827 77.6294 79.121 77.4074 79.493C77.1854 79.865 77.0744 80.279 77.0744 80.735V86H75.5624V77H77.0744V78.125C77.3924 77.705 77.7944 77.372 78.2804 77.126C78.7664 76.874 79.2944 76.748 79.8644 76.748C80.5364 76.748 81.1484 76.913 81.7004 77.243C82.2584 77.567 82.6994 78.005 83.0234 78.557C83.3534 79.109 83.5184 79.724 83.5184 80.402ZM89.1025 86.234C88.2745 86.234 87.5185 86.021 86.8345 85.595C86.1565 85.169 85.6135 84.599 85.2055 83.885C84.8035 83.165 84.6025 82.37 84.6025 81.5C84.6025 80.84 84.7195 80.225 84.9535 79.655C85.1875 79.079 85.5085 78.575 85.9165 78.143C86.3305 77.705 86.8105 77.363 87.3565 77.117C87.9025 76.871 88.4845 76.748 89.1025 76.748C89.9305 76.748 90.6835 76.961 91.3615 77.387C92.0455 77.813 92.5885 78.386 92.9905 79.106C93.3985 79.826 93.6025 80.624 93.6025 81.5C93.6025 82.154 93.4855 82.766 93.2515 83.336C93.0175 83.906 92.6935 84.41 92.2795 84.848C91.8715 85.28 91.3945 85.619 90.8485 85.865C90.3085 86.111 89.7265 86.234 89.1025 86.234ZM89.1025 84.722C89.6665 84.722 90.1735 84.575 90.6235 84.281C91.0795 83.981 91.4365 83.588 91.6945 83.102C91.9585 82.61 92.0905 82.076 92.0905 81.5C92.0905 80.912 91.9555 80.372 91.6855 79.88C91.4215 79.388 91.0645 78.995 90.6145 78.701C90.1645 78.407 89.6605 78.26 89.1025 78.26C88.5385 78.26 88.0315 78.41 87.5815 78.71C87.1315 79.004 86.7745 79.397 86.5105 79.889C86.2465 80.381 86.1145 80.918 86.1145 81.5C86.1145 82.1 86.2495 82.646 86.5195 83.138C86.7895 83.624 87.1525 84.011 87.6085 84.299C88.0645 84.581 88.5625 84.722 89.1025 84.722ZM95.498 86.234C95.27 86.234 95.075 86.153 94.913 85.991C94.757 85.829 94.679 85.631 94.679 85.397C94.679 85.175 94.757 84.983 94.913 84.821C95.075 84.659 95.27 84.578 95.498 84.578C95.732 84.578 95.93 84.659 96.092 84.821C96.254 84.983 96.335 85.175 96.335 85.397C96.335 85.631 96.254 85.829 96.092 85.991C95.93 86.153 95.732 86.234 95.498 86.234ZM106.786 86.234C105.958 86.234 105.202 86.021 104.518 85.595C103.84 85.169 103.297 84.599 102.889 83.885C102.487 83.165 102.286 82.37 102.286 81.5C102.286 80.84 102.403 80.225 102.637 79.655C102.871 79.079 103.192 78.575 103.6 78.143C104.014 77.705 104.494 77.363 105.04 77.117C105.586 76.871 106.168 76.748 106.786 76.748C107.614 76.748 108.367 76.961 109.045 77.387C109.729 77.813 110.272 78.386 110.674 79.106C111.082 79.826 111.286 80.624 111.286 81.5C111.286 82.154 111.169 82.766 110.935 83.336C110.701 83.906 110.377 84.41 109.963 84.848C109.555 85.28 109.078 85.619 108.532 85.865C107.992 86.111 107.41 86.234 106.786 86.234ZM106.786 84.722C107.35 84.722 107.857 84.575 108.307 84.281C108.763 83.981 109.12 83.588 109.378 83.102C109.642 82.61 109.774 82.076 109.774 81.5C109.774 80.912 109.639 80.372 109.369 79.88C109.105 79.388 108.748 78.995 108.298 78.701C107.848 78.407 107.344 78.26 106.786 78.26C106.222 78.26 105.715 78.41 105.265 78.71C104.815 79.004 104.458 79.397 104.194 79.889C103.93 80.381 103.798 80.918 103.798 81.5C103.798 82.1 103.933 82.646 104.203 83.138C104.473 83.624 104.836 84.011 105.292 84.299C105.748 84.581 106.246 84.722 106.786 84.722ZM114.941 74.777V77H117.578V78.512H114.941V86H113.429V78.512H112.268V77H113.429V74.777C113.429 74.315 113.54 73.898 113.762 73.526C113.99 73.148 114.293 72.848 114.671 72.626C115.055 72.398 115.475 72.284 115.931 72.284C116.267 72.284 116.594 72.353 116.912 72.491C117.23 72.623 117.512 72.821 117.758 73.085L116.678 74.156C116.594 74.042 116.483 73.955 116.345 73.895C116.213 73.829 116.075 73.796 115.931 73.796C115.661 73.796 115.427 73.892 115.229 74.084C115.037 74.276 114.941 74.507 114.941 74.777ZM123.375 86V73.4H127.722C128.346 73.4 128.913 73.529 129.423 73.787C129.939 74.039 130.347 74.408 130.647 74.894C130.947 75.38 131.097 75.962 131.097 76.64C131.097 77.006 131.034 77.36 130.908 77.702C130.788 78.038 130.62 78.329 130.404 78.575C130.194 78.815 129.954 78.977 129.684 79.061C130.062 79.157 130.383 79.328 130.647 79.574C130.911 79.814 131.124 80.096 131.286 80.42C131.454 80.744 131.574 81.083 131.646 81.437C131.718 81.791 131.754 82.133 131.754 82.463C131.754 83.159 131.595 83.774 131.277 84.308C130.965 84.836 130.545 85.25 130.017 85.55C129.489 85.85 128.907 86 128.271 86H123.375ZM124.887 84.668H128.136C128.55 84.668 128.925 84.563 129.261 84.353C129.603 84.137 129.876 83.843 130.08 83.471C130.284 83.099 130.386 82.679 130.386 82.211C130.386 81.797 130.284 81.407 130.08 81.041C129.876 80.669 129.603 80.369 129.261 80.141C128.925 79.913 128.55 79.799 128.136 79.799H124.887V84.668ZM124.887 78.494H127.578C128.13 78.494 128.601 78.332 128.991 78.008C129.387 77.678 129.585 77.219 129.585 76.631C129.585 75.995 129.387 75.521 128.991 75.209C128.601 74.891 128.13 74.732 127.578 74.732H124.887V78.494ZM137.126 86.234C136.298 86.234 135.542 86.021 134.858 85.595C134.18 85.169 133.637 84.599 133.229 83.885C132.827 83.165 132.626 82.37 132.626 81.5C132.626 80.84 132.743 80.225 132.977 79.655C133.211 79.079 133.532 78.575 133.94 78.143C134.354 77.705 134.834 77.363 135.38 77.117C135.926 76.871 136.508 76.748 137.126 76.748C137.804 76.748 138.425 76.886 138.989 77.162C139.559 77.432 140.045 77.81 140.447 78.296C140.855 78.782 141.158 79.346 141.356 79.988C141.56 80.63 141.635 81.317 141.581 82.049H134.237C134.309 82.559 134.477 83.015 134.741 83.417C135.005 83.813 135.341 84.128 135.749 84.362C136.163 84.596 136.622 84.716 137.126 84.722C137.666 84.722 138.155 84.584 138.593 84.308C139.031 84.026 139.385 83.642 139.655 83.156L141.194 83.516C140.834 84.314 140.291 84.968 139.565 85.478C138.839 85.982 138.026 86.234 137.126 86.234ZM134.192 80.861H140.06C140.012 80.357 139.85 79.898 139.574 79.484C139.298 79.064 138.947 78.728 138.521 78.476C138.095 78.224 137.63 78.098 137.126 78.098C136.622 78.098 136.16 78.221 135.74 78.467C135.32 78.713 134.972 79.046 134.696 79.466C134.426 79.88 134.258 80.345 134.192 80.861ZM150.29 72.5H151.802V86H150.29V84.47C149.984 84.998 149.573 85.424 149.057 85.748C148.541 86.072 147.935 86.234 147.239 86.234C146.585 86.234 145.973 86.111 145.403 85.865C144.833 85.619 144.329 85.28 143.891 84.848C143.459 84.41 143.12 83.906 142.874 83.336C142.628 82.766 142.505 82.154 142.505 81.5C142.505 80.846 142.628 80.234 142.874 79.664C143.12 79.088 143.459 78.584 143.891 78.152C144.329 77.714 144.833 77.372 145.403 77.126C145.973 76.88 146.585 76.757 147.239 76.757C147.935 76.757 148.541 76.919 149.057 77.243C149.573 77.567 149.984 77.993 150.29 78.521V72.5ZM147.257 84.767C147.851 84.767 148.364 84.623 148.796 84.335C149.234 84.041 149.57 83.645 149.804 83.147C150.044 82.649 150.164 82.1 150.164 81.5C150.164 80.888 150.044 80.336 149.804 79.844C149.564 79.346 149.225 78.953 148.787 78.665C148.355 78.371 147.845 78.224 147.257 78.224C146.663 78.224 146.123 78.371 145.637 78.665C145.157 78.959 144.773 79.355 144.485 79.853C144.197 80.345 144.053 80.894 144.053 81.5C144.053 82.106 144.2 82.658 144.494 83.156C144.788 83.648 145.178 84.041 145.664 84.335C146.15 84.623 146.681 84.767 147.257 84.767ZM153.961 86V77H155.473V78.125C155.791 77.705 156.193 77.372 156.679 77.126C157.165 76.874 157.693 76.748 158.263 76.748C158.611 76.748 158.947 76.793 159.271 76.883L158.659 78.395C158.413 78.317 158.173 78.278 157.939 78.278C157.489 78.278 157.075 78.389 156.697 78.611C156.325 78.827 156.028 79.121 155.806 79.493C155.584 79.865 155.473 80.279 155.473 80.735V86H153.961ZM163.88 86.234C163.052 86.234 162.296 86.021 161.612 85.595C160.934 85.169 160.391 84.599 159.983 83.885C159.581 83.165 159.38 82.37 159.38 81.5C159.38 80.84 159.497 80.225 159.731 79.655C159.965 79.079 160.286 78.575 160.694 78.143C161.108 77.705 161.588 77.363 162.134 77.117C162.68 76.871 163.262 76.748 163.88 76.748C164.708 76.748 165.461 76.961 166.139 77.387C166.823 77.813 167.366 78.386 167.768 79.106C168.176 79.826 168.38 80.624 168.38 81.5C168.38 82.154 168.263 82.766 168.029 83.336C167.795 83.906 167.471 84.41 167.057 84.848C166.649 85.28 166.172 85.619 165.626 85.865C165.086 86.111 164.504 86.234 163.88 86.234ZM163.88 84.722C164.444 84.722 164.951 84.575 165.401 84.281C165.857 83.981 166.214 83.588 166.472 83.102C166.736 82.61 166.868 82.076 166.868 81.5C166.868 80.912 166.733 80.372 166.463 79.88C166.199 79.388 165.842 78.995 165.392 78.701C164.942 78.407 164.438 78.26 163.88 78.26C163.316 78.26 162.809 78.41 162.359 78.71C161.909 79.004 161.552 79.397 161.288 79.889C161.024 80.381 160.892 80.918 160.892 81.5C160.892 82.1 161.027 82.646 161.297 83.138C161.567 83.624 161.93 84.011 162.386 84.299C162.842 84.581 163.34 84.722 163.88 84.722ZM173.776 86.234C172.948 86.234 172.192 86.021 171.508 85.595C170.83 85.169 170.287 84.599 169.879 83.885C169.477 83.165 169.276 82.37 169.276 81.5C169.276 80.84 169.393 80.225 169.627 79.655C169.861 79.079 170.182 78.575 170.59 78.143C171.004 77.705 171.484 77.363 172.03 77.117C172.576 76.871 173.158 76.748 173.776 76.748C174.604 76.748 175.357 76.961 176.035 77.387C176.719 77.813 177.262 78.386 177.664 79.106C178.072 79.826 178.276 80.624 178.276 81.5C178.276 82.154 178.159 82.766 177.925 83.336C177.691 83.906 177.367 84.41 176.953 84.848C176.545 85.28 176.068 85.619 175.522 85.865C174.982 86.111 174.4 86.234 173.776 86.234ZM173.776 84.722C174.34 84.722 174.847 84.575 175.297 84.281C175.753 83.981 176.11 83.588 176.368 83.102C176.632 82.61 176.764 82.076 176.764 81.5C176.764 80.912 176.629 80.372 176.359 79.88C176.095 79.388 175.738 78.995 175.288 78.701C174.838 78.407 174.334 78.26 173.776 78.26C173.212 78.26 172.705 78.41 172.255 78.71C171.805 79.004 171.448 79.397 171.184 79.889C170.92 80.381 170.788 80.918 170.788 81.5C170.788 82.1 170.923 82.646 171.193 83.138C171.463 83.624 171.826 84.011 172.282 84.299C172.738 84.581 173.236 84.722 173.776 84.722ZM179.766 86V77H181.278V78.125C181.596 77.705 181.995 77.372 182.475 77.126C182.961 76.874 183.489 76.748 184.059 76.748C184.725 76.748 185.334 76.91 185.886 77.234C186.438 77.558 186.873 77.987 187.191 78.521C187.509 77.987 187.941 77.558 188.487 77.234C189.039 76.91 189.645 76.748 190.305 76.748C190.983 76.748 191.598 76.913 192.15 77.243C192.702 77.567 193.14 78.005 193.464 78.557C193.794 79.109 193.959 79.724 193.959 80.402V86H192.447V80.762C192.447 80.318 192.339 79.907 192.123 79.529C191.907 79.151 191.616 78.848 191.25 78.62C190.884 78.392 190.479 78.278 190.035 78.278C189.591 78.278 189.186 78.386 188.82 78.602C188.454 78.812 188.163 79.106 187.947 79.484C187.731 79.856 187.623 80.282 187.623 80.762V86H186.111V80.762C186.111 80.282 186.003 79.856 185.787 79.484C185.571 79.106 185.277 78.812 184.905 78.602C184.539 78.386 184.134 78.278 183.69 78.278C183.252 78.278 182.847 78.392 182.475 78.62C182.109 78.848 181.818 79.151 181.602 79.529C181.386 79.907 181.278 80.318 181.278 80.762V86H179.766ZM198.507 86.171C198.021 86.153 197.547 86.063 197.085 85.901C196.629 85.733 196.227 85.508 195.879 85.226C195.537 84.938 195.288 84.608 195.132 84.236L196.428 83.678C196.518 83.882 196.68 84.074 196.914 84.254C197.148 84.434 197.418 84.578 197.724 84.686C198.03 84.794 198.339 84.848 198.651 84.848C198.981 84.848 199.29 84.797 199.578 84.695C199.866 84.593 200.1 84.443 200.28 84.245C200.466 84.041 200.559 83.798 200.559 83.516C200.559 83.216 200.457 82.982 200.253 82.814C200.055 82.64 199.803 82.505 199.497 82.409C199.197 82.307 198.891 82.211 198.579 82.121C197.961 81.965 197.409 81.779 196.923 81.563C196.437 81.341 196.053 81.062 195.771 80.726C195.495 80.384 195.357 79.949 195.357 79.421C195.357 78.863 195.51 78.38 195.816 77.972C196.128 77.564 196.536 77.249 197.04 77.027C197.544 76.805 198.084 76.694 198.66 76.694C199.386 76.694 200.049 76.85 200.649 77.162C201.249 77.474 201.696 77.897 201.99 78.431L200.775 79.142C200.673 78.926 200.517 78.737 200.307 78.575C200.097 78.407 199.857 78.275 199.587 78.179C199.317 78.083 199.041 78.032 198.759 78.026C198.411 78.014 198.084 78.059 197.778 78.161C197.478 78.263 197.235 78.419 197.049 78.629C196.869 78.833 196.779 79.088 196.779 79.394C196.779 79.694 196.875 79.922 197.067 80.078C197.265 80.234 197.52 80.36 197.832 80.456C198.15 80.546 198.495 80.651 198.867 80.771C199.413 80.945 199.923 81.146 200.397 81.374C200.871 81.602 201.252 81.887 201.54 82.229C201.834 82.571 201.978 82.994 201.972 83.498C201.972 84.05 201.807 84.533 201.477 84.947C201.147 85.355 200.718 85.667 200.19 85.883C199.668 86.099 199.107 86.195 198.507 86.171Z" fill="#666666"></path><path d="M287.75 76.25L280.25 83.75L272.75 76.25" stroke="white" stroke-width="1.5" stroke-linecap="round" stroke-linejoin="round"></path></svg>