<svg xmlns="http://www.w3.org/2000/svg" width="433" height="114" viewBox="0 0 433 114" fill="none"><path d="M1.2 22V8H6.02C6.77333 8 7.45333 8.18667 8.06 8.56C8.67333 8.93333 9.16 9.43667 9.52 10.07C9.88667 10.7033 10.07 11.4033 10.07 12.17C10.07 12.95 9.88333 13.6567 9.51 14.29C9.14333 14.9167 8.65333 15.4167 8.04 15.79C7.42667 16.1633 6.75333 16.35 6.02 16.35H3.28V22H1.2ZM3.28 14.27H5.81C6.21 14.27 6.57333 14.17 6.9 13.97C7.23333 13.77 7.49667 13.5033 7.69 13.17C7.89 12.8367 7.99 12.46 7.99 12.04C7.99 11.62 7.89 11.2433 7.69 10.91C7.49667 10.57 7.23333 10.3033 6.9 10.11C6.57333 9.91 6.21 9.81 5.81 9.81H3.28V14.27ZM20.9617 15.73V22H18.8817V16.24C18.8817 15.7933 18.7717 15.3867 18.5517 15.02C18.3384 14.6533 18.0484 14.3633 17.6817 14.15C17.3217 13.93 16.9151 13.82 16.4617 13.82C16.0217 13.82 15.6184 13.93 15.2517 14.15C14.8851 14.3633 14.5917 14.6533 14.3717 15.02C14.1517 15.3867 14.0417 15.7933 14.0417 16.24V22H11.9617V7H14.0417V13.06C14.3884 12.6467 14.8151 12.32 15.3217 12.08C15.8284 11.84 16.3751 11.72 16.9617 11.72C17.7017 11.72 18.3751 11.9 18.9817 12.26C19.5884 12.62 20.0684 13.1033 20.4217 13.71C20.7817 14.3167 20.9617 14.99 20.9617 15.73ZM27.1625 22.26C26.2425 22.26 25.4025 22.0233 24.6425 21.55C23.8892 21.0767 23.2858 20.4433 22.8325 19.65C22.3858 18.85 22.1625 17.9667 22.1625 17C22.1625 16.2667 22.2925 15.5833 22.5525 14.95C22.8125 14.31 23.1692 13.75 23.6225 13.27C24.0825 12.7833 24.6158 12.4033 25.2225 12.13C25.8292 11.8567 26.4758 11.72 27.1625 11.72C28.0825 11.72 28.9192 11.9567 29.6725 12.43C30.4325 12.9033 31.0358 13.54 31.4825 14.34C31.9358 15.14 32.1625 16.0267 32.1625 17C32.1625 17.7267 32.0325 18.4067 31.7725 19.04C31.5125 19.6733 31.1525 20.2333 30.6925 20.72C30.2392 21.2 29.7092 21.5767 29.1025 21.85C28.5025 22.1233 27.8558 22.26 27.1625 22.26ZM27.1625 20.18C27.7158 20.18 28.2125 20.0333 28.6525 19.74C29.0925 19.4467 29.4392 19.06 29.6925 18.58C29.9525 18.0933 30.0825 17.5667 30.0825 17C30.0825 16.42 29.9492 15.8867 29.6825 15.4C29.4225 14.9133 29.0725 14.5267 28.6325 14.24C28.1925 13.9467 27.7025 13.8 27.1625 13.8C26.6158 13.8 26.1192 13.9467 25.6725 14.24C25.2325 14.5333 24.8825 14.9233 24.6225 15.41C24.3692 15.8967 24.2425 16.4267 24.2425 17C24.2425 17.5933 24.3758 18.13 24.6425 18.61C24.9092 19.09 25.2625 19.4733 25.7025 19.76C26.1492 20.04 26.6358 20.18 27.1625 20.18ZM42.7781 15.73V22H40.6981V16.24C40.6981 15.7933 40.5881 15.3867 40.3681 15.02C40.1548 14.6533 39.8648 14.3633 39.4981 14.15C39.1381 13.93 38.7315 13.82 38.2781 13.82C37.8381 13.82 37.4348 13.93 37.0681 14.15C36.7015 14.3633 36.4081 14.6533 36.1881 15.02C35.9681 15.3867 35.8581 15.7933 35.8581 16.24V22H33.7781V12H35.8581V13.06C36.2048 12.6467 36.6315 12.32 37.1381 12.08C37.6448 11.84 38.1915 11.72 38.7781 11.72C39.5181 11.72 40.1915 11.9 40.7981 12.26C41.4048 12.62 41.8848 13.1033 42.2381 13.71C42.5981 14.3167 42.7781 14.99 42.7781 15.73ZM48.9789 22.26C48.0589 22.26 47.2189 22.0233 46.4589 21.55C45.7056 21.0767 45.1022 20.4433 44.6489 19.65C44.2022 18.85 43.9789 17.9667 43.9789 17C43.9789 16.2667 44.1089 15.5833 44.3689 14.95C44.6289 14.31 44.9856 13.75 45.4389 13.27C45.8989 12.7833 46.4322 12.4033 47.0389 12.13C47.6456 11.8567 48.2922 11.72 48.9789 11.72C49.7456 11.72 50.4489 11.88 51.0889 12.2C51.7289 12.5133 52.2756 12.95 52.7289 13.51C53.1822 14.0633 53.5156 14.7033 53.7289 15.43C53.9422 16.15 54.0056 16.9167 53.9189 17.73H46.2089C46.2956 18.19 46.4622 18.6067 46.7089 18.98C46.9622 19.3467 47.2822 19.6367 47.6689 19.85C48.0622 20.0633 48.4989 20.1733 48.9789 20.18C49.4856 20.18 49.9456 20.0533 50.3589 19.8C50.7789 19.5467 51.1222 19.1967 51.3889 18.75L53.4989 19.24C53.0989 20.1267 52.4956 20.8533 51.6889 21.42C50.8822 21.98 49.9789 22.26 48.9789 22.26ZM46.1389 16.14H51.8189C51.7522 15.66 51.5822 15.2267 51.3089 14.84C51.0422 14.4467 50.7056 14.1367 50.2989 13.91C49.8989 13.6767 49.4589 13.56 48.9789 13.56C48.5056 13.56 48.0656 13.6733 47.6589 13.9C47.2589 14.1267 46.9256 14.4367 46.6589 14.83C46.3989 15.2167 46.2256 15.6533 46.1389 16.14Z" fill="white"></path><rect x="0.5" y="46.5" width="431.333" height="67" rx="7.5" fill="#1A1A1A"></rect><rect x="0.5" y="46.5" width="431.333" height="67" rx="7.5" stroke="#262626"></rect><path d="M21.08 86V73.4H28.811V74.912H22.592V78.494H27.686V80.006H22.592V84.488H28.811V86H21.08ZM38.7391 80.402V86H37.2271V80.735C37.2271 80.279 37.1161 79.865 36.8941 79.493C36.6721 79.121 36.3751 78.827 36.0031 78.611C35.6311 78.389 35.2171 78.278 34.7611 78.278C34.3111 78.278 33.8971 78.389 33.5191 78.611C33.1471 78.827 32.8501 79.121 32.6281 79.493C32.4061 79.865 32.2951 80.279 32.2951 80.735V86H30.7831V77H32.2951V78.125C32.6131 77.705 33.0151 77.372 33.5011 77.126C33.9871 76.874 34.5151 76.748 35.0851 76.748C35.7571 76.748 36.3691 76.913 36.9211 77.243C37.4791 77.567 37.9201 78.005 38.2441 78.557C38.5741 79.109 38.7391 79.724 38.7391 80.402ZM45.201 78.512H43.158L43.149 86H41.637L41.646 78.512H40.098V77H41.646L41.637 74.174H43.149L43.158 77H45.201V78.512ZM50.5459 86.234C49.7179 86.234 48.9619 86.021 48.2779 85.595C47.5999 85.169 47.0569 84.599 46.6489 83.885C46.2469 83.165 46.0459 82.37 46.0459 81.5C46.0459 80.84 46.1629 80.225 46.3969 79.655C46.6309 79.079 46.9519 78.575 47.3599 78.143C47.7739 77.705 48.2539 77.363 48.7999 77.117C49.3459 76.871 49.9279 76.748 50.5459 76.748C51.2239 76.748 51.8449 76.886 52.4089 77.162C52.9789 77.432 53.4649 77.81 53.8669 78.296C54.2749 78.782 54.5779 79.346 54.7759 79.988C54.9799 80.63 55.0549 81.317 55.0009 82.049H47.6569C47.7289 82.559 47.8969 83.015 48.1609 83.417C48.4249 83.813 48.7609 84.128 49.1689 84.362C49.5829 84.596 50.0419 84.716 50.5459 84.722C51.0859 84.722 51.5749 84.584 52.0129 84.308C52.4509 84.026 52.8049 83.642 53.0749 83.156L54.6139 83.516C54.2539 84.314 53.7109 84.968 52.9849 85.478C52.2589 85.982 51.4459 86.234 50.5459 86.234ZM47.6119 80.861H53.4799C53.4319 80.357 53.2699 79.898 52.9939 79.484C52.7179 79.064 52.3669 78.728 51.9409 78.476C51.5149 78.224 51.0499 78.098 50.5459 78.098C50.0419 78.098 49.5799 78.221 49.1599 78.467C48.7399 78.713 48.3919 79.046 48.1159 79.466C47.8459 79.88 47.6779 80.345 47.6119 80.861ZM56.5175 86V77H58.0295V78.125C58.3475 77.705 58.7495 77.372 59.2355 77.126C59.7215 76.874 60.2495 76.748 60.8195 76.748C61.1675 76.748 61.5035 76.793 61.8275 76.883L61.2155 78.395C60.9695 78.317 60.7295 78.278 60.4955 78.278C60.0455 78.278 59.6315 78.389 59.2535 78.611C58.8815 78.827 58.5845 79.121 58.3625 79.493C58.1405 79.865 58.0295 80.279 58.0295 80.735V86H56.5175ZM67.4159 86V73.4H71.5739C72.2519 73.4 72.8609 73.565 73.4009 73.895C73.9469 74.225 74.3789 74.672 74.6969 75.236C75.0209 75.794 75.1829 76.418 75.1829 77.108C75.1829 77.81 75.0179 78.443 74.6879 79.007C74.3639 79.565 73.9259 80.009 73.3739 80.339C72.8279 80.663 72.2279 80.825 71.5739 80.825H68.9279V86H67.4159ZM68.9279 79.313H71.4389C71.8469 79.313 72.2189 79.214 72.5549 79.016C72.8969 78.812 73.1669 78.539 73.3649 78.197C73.5689 77.849 73.6709 77.459 73.6709 77.027C73.6709 76.589 73.5689 76.199 73.3649 75.857C73.1669 75.509 72.8969 75.236 72.5549 75.038C72.2189 74.834 71.8469 74.732 71.4389 74.732H68.9279V79.313ZM84.8993 80.402V86H83.3873V80.735C83.3873 80.279 83.2763 79.865 83.0543 79.493C82.8323 79.121 82.5353 78.827 82.1633 78.611C81.7913 78.389 81.3773 78.278 80.9213 78.278C80.4713 78.278 80.0573 78.389 79.6793 78.611C79.3073 78.827 79.0103 79.121 78.7883 79.493C78.5663 79.865 78.4553 80.279 78.4553 80.735V86H76.9433V72.5H78.4553V78.125C78.7733 77.705 79.1753 77.372 79.6613 77.126C80.1473 76.874 80.6753 76.748 81.2453 76.748C81.9173 76.748 82.5293 76.913 83.0813 77.243C83.6393 77.567 84.0803 78.005 84.4043 78.557C84.7343 79.109 84.8993 79.724 84.8993 80.402ZM90.4834 86.234C89.6554 86.234 88.8994 86.021 88.2154 85.595C87.5374 85.169 86.9944 84.599 86.5864 83.885C86.1844 83.165 85.9834 82.37 85.9834 81.5C85.9834 80.84 86.1004 80.225 86.3344 79.655C86.5684 79.079 86.8894 78.575 87.2974 78.143C87.7114 77.705 88.1914 77.363 88.7374 77.117C89.2834 76.871 89.8654 76.748 90.4834 76.748C91.3114 76.748 92.0644 76.961 92.7424 77.387C93.4264 77.813 93.9694 78.386 94.3714 79.106C94.7794 79.826 94.9834 80.624 94.9834 81.5C94.9834 82.154 94.8664 82.766 94.6324 83.336C94.3984 83.906 94.0744 84.41 93.6604 84.848C93.2524 85.28 92.7754 85.619 92.2294 85.865C91.6894 86.111 91.1074 86.234 90.4834 86.234ZM90.4834 84.722C91.0474 84.722 91.5544 84.575 92.0044 84.281C92.4604 83.981 92.8174 83.588 93.0754 83.102C93.3394 82.61 93.4714 82.076 93.4714 81.5C93.4714 80.912 93.3364 80.372 93.0664 79.88C92.8024 79.388 92.4454 78.995 91.9954 78.701C91.5454 78.407 91.0414 78.26 90.4834 78.26C89.9194 78.26 89.4124 78.41 88.9624 78.71C88.5124 79.004 88.1554 79.397 87.8914 79.889C87.6274 80.381 87.4954 80.918 87.4954 81.5C87.4954 82.1 87.6304 82.646 87.9004 83.138C88.1704 83.624 88.5334 84.011 88.9894 84.299C89.4454 84.581 89.9434 84.722 90.4834 84.722ZM104.429 80.402V86H102.917V80.735C102.917 80.279 102.806 79.865 102.584 79.493C102.362 79.121 102.065 78.827 101.693 78.611C101.321 78.389 100.907 78.278 100.451 78.278C100.001 78.278 99.5866 78.389 99.2086 78.611C98.8366 78.827 98.5396 79.121 98.3176 79.493C98.0956 79.865 97.9846 80.279 97.9846 80.735V86H96.4726V77H97.9846V78.125C98.3026 77.705 98.7046 77.372 99.1906 77.126C99.6766 76.874 100.205 76.748 100.775 76.748C101.447 76.748 102.059 76.913 102.611 77.243C103.169 77.567 103.61 78.005 103.934 78.557C104.264 79.109 104.429 79.724 104.429 80.402ZM110.013 86.234C109.185 86.234 108.429 86.021 107.745 85.595C107.067 85.169 106.524 84.599 106.116 83.885C105.714 83.165 105.513 82.37 105.513 81.5C105.513 80.84 105.63 80.225 105.864 79.655C106.098 79.079 106.419 78.575 106.827 78.143C107.241 77.705 107.721 77.363 108.267 77.117C108.813 76.871 109.395 76.748 110.013 76.748C110.691 76.748 111.312 76.886 111.876 77.162C112.446 77.432 112.932 77.81 113.334 78.296C113.742 78.782 114.045 79.346 114.243 79.988C114.447 80.63 114.522 81.317 114.468 82.049H107.124C107.196 82.559 107.364 83.015 107.628 83.417C107.892 83.813 108.228 84.128 108.636 84.362C109.05 84.596 109.509 84.716 110.013 84.722C110.553 84.722 111.042 84.584 111.48 84.308C111.918 84.026 112.272 83.642 112.542 83.156L114.081 83.516C113.721 84.314 113.178 84.968 112.452 85.478C111.726 85.982 110.913 86.234 110.013 86.234ZM107.079 80.861H112.947C112.899 80.357 112.737 79.898 112.461 79.484C112.185 79.064 111.834 78.728 111.408 78.476C110.982 78.224 110.517 78.098 110.013 78.098C109.509 78.098 109.047 78.221 108.627 78.467C108.207 78.713 107.859 79.046 107.583 79.466C107.313 79.88 107.145 80.345 107.079 80.861ZM120.432 86V73.4H122.07L128.361 83.264V73.4H129.873V86H128.244L121.944 76.136V86H120.432ZM131.673 82.58V77H133.185V82.247C133.185 82.703 133.296 83.117 133.518 83.489C133.74 83.861 134.037 84.158 134.409 84.38C134.787 84.596 135.201 84.704 135.651 84.704C136.107 84.704 136.518 84.596 136.884 84.38C137.256 84.158 137.553 83.861 137.775 83.489C137.997 83.117 138.108 82.703 138.108 82.247V77H139.62L139.629 86H138.117L138.108 84.857C137.79 85.277 137.388 85.613 136.902 85.865C136.416 86.111 135.891 86.234 135.327 86.234C134.655 86.234 134.04 86.072 133.482 85.748C132.93 85.418 132.489 84.977 132.159 84.425C131.835 83.873 131.673 83.258 131.673 82.58ZM141.437 86V77H142.949V78.125C143.267 77.705 143.666 77.372 144.146 77.126C144.632 76.874 145.16 76.748 145.73 76.748C146.396 76.748 147.005 76.91 147.557 77.234C148.109 77.558 148.544 77.987 148.862 78.521C149.18 77.987 149.612 77.558 150.158 77.234C150.71 76.91 151.316 76.748 151.976 76.748C152.654 76.748 153.269 76.913 153.821 77.243C154.373 77.567 154.811 78.005 155.135 78.557C155.465 79.109 155.63 79.724 155.63 80.402V86H154.118V80.762C154.118 80.318 154.01 79.907 153.794 79.529C153.578 79.151 153.287 78.848 152.921 78.62C152.555 78.392 152.15 78.278 151.706 78.278C151.262 78.278 150.857 78.386 150.491 78.602C150.125 78.812 149.834 79.106 149.618 79.484C149.402 79.856 149.294 80.282 149.294 80.762V86H147.782V80.762C147.782 80.282 147.674 79.856 147.458 79.484C147.242 79.106 146.948 78.812 146.576 78.602C146.21 78.386 145.805 78.278 145.361 78.278C144.923 78.278 144.518 78.392 144.146 78.62C143.78 78.848 143.489 79.151 143.273 79.529C143.057 79.907 142.949 80.318 142.949 80.762V86H141.437ZM162.093 76.748C162.969 76.748 163.764 76.961 164.478 77.387C165.198 77.813 165.771 78.386 166.197 79.106C166.623 79.82 166.836 80.615 166.836 81.491C166.836 82.145 166.713 82.76 166.467 83.336C166.221 83.906 165.879 84.41 165.441 84.848C165.009 85.28 164.505 85.619 163.929 85.865C163.359 86.111 162.747 86.234 162.093 86.234C161.397 86.234 160.791 86.072 160.275 85.748C159.765 85.418 159.357 84.989 159.051 84.461V86H157.539V72.5H159.051V78.521C159.357 77.993 159.765 77.567 160.275 77.243C160.791 76.913 161.397 76.748 162.093 76.748ZM162.075 84.758C162.669 84.758 163.209 84.611 163.695 84.317C164.181 84.023 164.568 83.63 164.856 83.138C165.144 82.64 165.288 82.091 165.288 81.491C165.288 80.879 165.141 80.327 164.847 79.835C164.553 79.337 164.163 78.944 163.677 78.656C163.191 78.362 162.657 78.215 162.075 78.215C161.487 78.215 160.974 78.362 160.536 78.656C160.104 78.95 159.768 79.346 159.528 79.844C159.294 80.342 159.177 80.891 159.177 81.491C159.177 82.097 159.294 82.649 159.528 83.147C159.768 83.639 160.107 84.032 160.545 84.326C160.983 84.614 161.493 84.758 162.075 84.758ZM172.239 86.234C171.411 86.234 170.655 86.021 169.971 85.595C169.293 85.169 168.75 84.599 168.342 83.885C167.94 83.165 167.739 82.37 167.739 81.5C167.739 80.84 167.856 80.225 168.09 79.655C168.324 79.079 168.645 78.575 169.053 78.143C169.467 77.705 169.947 77.363 170.493 77.117C171.039 76.871 171.621 76.748 172.239 76.748C172.917 76.748 173.538 76.886 174.102 77.162C174.672 77.432 175.158 77.81 175.56 78.296C175.968 78.782 176.271 79.346 176.469 79.988C176.673 80.63 176.748 81.317 176.694 82.049H169.35C169.422 82.559 169.59 83.015 169.854 83.417C170.118 83.813 170.454 84.128 170.862 84.362C171.276 84.596 171.735 84.716 172.239 84.722C172.779 84.722 173.268 84.584 173.706 84.308C174.144 84.026 174.498 83.642 174.768 83.156L176.307 83.516C175.947 84.314 175.404 84.968 174.678 85.478C173.952 85.982 173.139 86.234 172.239 86.234ZM169.305 80.861H175.173C175.125 80.357 174.963 79.898 174.687 79.484C174.411 79.064 174.06 78.728 173.634 78.476C173.208 78.224 172.743 78.098 172.239 78.098C171.735 78.098 171.273 78.221 170.853 78.467C170.433 78.713 170.085 79.046 169.809 79.466C169.539 79.88 169.371 80.345 169.305 80.861ZM178.211 86V77H179.723V78.125C180.041 77.705 180.443 77.372 180.929 77.126C181.415 76.874 181.943 76.748 182.513 76.748C182.861 76.748 183.197 76.793 183.521 76.883L182.909 78.395C182.663 78.317 182.423 78.278 182.189 78.278C181.739 78.278 181.325 78.389 180.947 78.611C180.575 78.827 180.278 79.121 180.056 79.493C179.834 79.865 179.723 80.279 179.723 80.735V86H178.211Z" fill="#666666"></path></svg>