<svg xmlns="http://www.w3.org/2000/svg" width="884" height="118" viewBox="0 0 884 118" fill="none"><path d="M6.19 22.26C5.42333 22.26 4.68667 22.14 3.98 21.9C3.27333 21.66 2.65667 21.3167 2.13 20.87C1.60333 20.4167 1.22667 19.88 1 19.26L2.95 18.53C3.06333 18.85 3.28 19.1367 3.6 19.39C3.92667 19.6367 4.31333 19.83 4.76 19.97C5.21333 20.11 5.69 20.18 6.19 20.18C6.72333 20.18 7.22333 20.0933 7.69 19.92C8.16333 19.7467 8.54333 19.5067 8.83 19.2C9.12333 18.8933 9.27 18.5333 9.27 18.12C9.27 17.6933 9.11667 17.3433 8.81 17.07C8.51 16.7967 8.12333 16.58 7.65 16.42C7.18333 16.26 6.69667 16.14 6.19 16.06C5.21 15.9 4.33 15.6667 3.55 15.36C2.77667 15.0533 2.16333 14.6233 1.71 14.07C1.26333 13.5167 1.04 12.7967 1.04 11.91C1.04 11.0767 1.27667 10.35 1.75 9.73C2.23 9.11 2.86 8.63 3.64 8.29C4.42667 7.94333 5.27667 7.77 6.19 7.77C6.94333 7.77 7.67 7.89 8.37 8.13C9.07667 8.36333 9.69667 8.70667 10.23 9.16C10.77 9.60667 11.1567 10.15 11.39 10.79L9.42 11.5C9.30667 11.1733 9.09 10.89 8.77 10.65C8.45 10.4033 8.06333 10.21 7.61 10.07C7.16333 9.93 6.69 9.86 6.19 9.86C5.65667 9.85333 5.15667 9.94 4.69 10.12C4.23 10.2933 3.85333 10.5333 3.56 10.84C3.26667 11.1467 3.12 11.5033 3.12 11.91C3.12 12.41 3.25667 12.79 3.53 13.05C3.80333 13.31 4.17 13.5033 4.63 13.63C5.09667 13.75 5.61667 13.86 6.19 13.96C7.11 14.1067 7.96 14.35 8.74 14.69C9.52667 15.03 10.1567 15.4833 10.63 16.05C11.11 16.61 11.35 17.3 11.35 18.12C11.35 18.9467 11.11 19.6733 10.63 20.3C10.1567 20.92 9.52667 21.4033 8.74 21.75C7.96 22.09 7.11 22.26 6.19 22.26ZM17.7484 22.26C16.8284 22.26 15.9884 22.0233 15.2284 21.55C14.4751 21.0767 13.8718 20.4433 13.4184 19.65C12.9718 18.85 12.7484 17.9667 12.7484 17C12.7484 16.2667 12.8784 15.5833 13.1384 14.95C13.3984 14.31 13.7551 13.75 14.2084 13.27C14.6684 12.7833 15.2018 12.4033 15.8084 12.13C16.4151 11.8567 17.0618 11.72 17.7484 11.72C18.5151 11.72 19.2184 11.88 19.8584 12.2C20.4984 12.5133 21.0451 12.95 21.4984 13.51C21.9518 14.0633 22.2851 14.7033 22.4984 15.43C22.7118 16.15 22.7751 16.9167 22.6884 17.73H14.9784C15.0651 18.19 15.2318 18.6067 15.4784 18.98C15.7318 19.3467 16.0518 19.6367 16.4384 19.85C16.8318 20.0633 17.2684 20.1733 17.7484 20.18C18.2551 20.18 18.7151 20.0533 19.1284 19.8C19.5484 19.5467 19.8918 19.1967 20.1584 18.75L22.2684 19.24C21.8684 20.1267 21.2651 20.8533 20.4584 21.42C19.6518 21.98 18.7484 22.26 17.7484 22.26ZM14.9084 16.14H20.5884C20.5218 15.66 20.3518 15.2267 20.0784 14.84C19.8118 14.4467 19.4751 14.1367 19.0684 13.91C18.6684 13.6767 18.2284 13.56 17.7484 13.56C17.2751 13.56 16.8351 13.6733 16.4284 13.9C16.0284 14.1267 15.6951 14.4367 15.4284 14.83C15.1684 15.2167 14.9951 15.6533 14.9084 16.14ZM24.2078 22V7H26.2878V22H24.2078ZM32.9438 22.26C32.0238 22.26 31.1838 22.0233 30.4238 21.55C29.6704 21.0767 29.0671 20.4433 28.6138 19.65C28.1671 18.85 27.9438 17.9667 27.9438 17C27.9438 16.2667 28.0738 15.5833 28.3338 14.95C28.5938 14.31 28.9504 13.75 29.4038 13.27C29.8638 12.7833 30.3971 12.4033 31.0038 12.13C31.6104 11.8567 32.2571 11.72 32.9438 11.72C33.7104 11.72 34.4138 11.88 35.0538 12.2C35.6938 12.5133 36.2404 12.95 36.6938 13.51C37.1471 14.0633 37.4804 14.7033 37.6938 15.43C37.9071 16.15 37.9704 16.9167 37.8838 17.73H30.1738C30.2604 18.19 30.4271 18.6067 30.6738 18.98C30.9271 19.3467 31.2471 19.6367 31.6338 19.85C32.0271 20.0633 32.4638 20.1733 32.9438 20.18C33.4504 20.18 33.9104 20.0533 34.3238 19.8C34.7438 19.5467 35.0871 19.1967 35.3538 18.75L37.4638 19.24C37.0638 20.1267 36.4604 20.8533 35.6538 21.42C34.8471 21.98 33.9438 22.26 32.9438 22.26ZM30.1038 16.14H35.7838C35.7171 15.66 35.5471 15.2267 35.2738 14.84C35.0071 14.4467 34.6704 14.1367 34.2638 13.91C33.8638 13.6767 33.4238 13.56 32.9438 13.56C32.4704 13.56 32.0304 13.6733 31.6238 13.9C31.2238 14.1267 30.8904 14.4367 30.6238 14.83C30.3638 15.2167 30.1904 15.6533 30.1038 16.14ZM46.0503 19.16L47.9103 20.17C47.457 20.8033 46.8803 21.31 46.1803 21.69C45.487 22.07 44.7336 22.26 43.9203 22.26C43.0003 22.26 42.1603 22.0233 41.4003 21.55C40.647 21.0767 40.0436 20.4433 39.5903 19.65C39.1436 18.85 38.9203 17.9667 38.9203 17C38.9203 16.2667 39.0503 15.5833 39.3103 14.95C39.5703 14.31 39.927 13.75 40.3803 13.27C40.8403 12.7833 41.3736 12.4033 41.9803 12.13C42.587 11.8567 43.2336 11.72 43.9203 11.72C44.7336 11.72 45.487 11.91 46.1803 12.29C46.8803 12.67 47.457 13.18 47.9103 13.82L46.0503 14.83C45.7703 14.4967 45.4436 14.2433 45.0703 14.07C44.697 13.89 44.3136 13.8 43.9203 13.8C43.3736 13.8 42.877 13.95 42.4303 14.25C41.9903 14.5433 41.6403 14.9333 41.3803 15.42C41.127 15.9 41.0003 16.4267 41.0003 17C41.0003 17.5667 41.1303 18.0933 41.3903 18.58C41.6503 19.06 42.0003 19.4467 42.4403 19.74C42.887 20.0333 43.3803 20.18 43.9203 20.18C44.3336 20.18 44.727 20.0867 45.1003 19.9C45.4736 19.7133 45.7903 19.4667 46.0503 19.16ZM54.9956 14.08H52.8956L52.8856 22H50.8056L50.8156 14.08H49.2256V12H50.8156L50.8056 8.86H52.8856L52.8956 12H54.9956V14.08ZM60.9516 22.26C60.0316 22.26 59.1916 22.0233 58.4316 21.55C57.6782 21.0767 57.0749 20.4433 56.6216 19.65C56.1749 18.85 55.9516 17.9667 55.9516 17C55.9516 16.2667 56.0816 15.5833 56.3416 14.95C56.6016 14.31 56.9582 13.75 57.4116 13.27C57.8716 12.7833 58.4049 12.4033 59.0116 12.13C59.6182 11.8567 60.2649 11.72 60.9516 11.72C61.7182 11.72 62.4216 11.88 63.0616 12.2C63.7016 12.5133 64.2482 12.95 64.7016 13.51C65.1549 14.0633 65.4882 14.7033 65.7016 15.43C65.9149 16.15 65.9782 16.9167 65.8916 17.73H58.1816C58.2682 18.19 58.4349 18.6067 58.6816 18.98C58.9349 19.3467 59.2549 19.6367 59.6416 19.85C60.0349 20.0633 60.4716 20.1733 60.9516 20.18C61.4582 20.18 61.9182 20.0533 62.3316 19.8C62.7516 19.5467 63.0949 19.1967 63.3616 18.75L65.4716 19.24C65.0716 20.1267 64.4682 20.8533 63.6616 21.42C62.8549 21.98 61.9516 22.26 60.9516 22.26ZM58.1116 16.14H63.7916C63.7249 15.66 63.5549 15.2267 63.2816 14.84C63.0149 14.4467 62.6782 14.1367 62.2716 13.91C61.8716 13.6767 61.4316 13.56 60.9516 13.56C60.4782 13.56 60.0382 13.6733 59.6316 13.9C59.2316 14.1267 58.8982 14.4367 58.6316 14.83C58.3716 15.2167 58.1982 15.6533 58.1116 16.14ZM75.3181 7H77.3981V22H75.3181V20.53C74.9915 21.05 74.5648 21.47 74.0381 21.79C73.5115 22.1033 72.8948 22.26 72.1881 22.26C71.4615 22.26 70.7815 22.1233 70.1481 21.85C69.5148 21.5767 68.9548 21.2 68.4681 20.72C67.9881 20.2333 67.6115 19.6733 67.3381 19.04C67.0648 18.4067 66.9281 17.7267 66.9281 17C66.9281 16.2733 67.0648 15.5933 67.3381 14.96C67.6115 14.32 67.9881 13.76 68.4681 13.28C68.9548 12.7933 69.5148 12.4133 70.1481 12.14C70.7815 11.8667 71.4615 11.73 72.1881 11.73C72.8948 11.73 73.5115 11.89 74.0381 12.21C74.5648 12.5233 74.9915 12.9367 75.3181 13.45V7ZM72.2081 20.25C72.7948 20.25 73.3081 20.1067 73.7481 19.82C74.1881 19.5267 74.5281 19.1333 74.7681 18.64C75.0148 18.1467 75.1381 17.6 75.1381 17C75.1381 16.3933 75.0148 15.8433 74.7681 15.35C74.5215 14.8567 74.1781 14.4667 73.7381 14.18C73.3048 13.8867 72.7948 13.74 72.2081 13.74C71.6281 13.74 71.0981 13.8867 70.6181 14.18C70.1448 14.4733 69.7648 14.8667 69.4781 15.36C69.1981 15.8533 69.0581 16.4 69.0581 17C69.0581 17.6067 69.2015 18.1567 69.4881 18.65C69.7815 19.1367 70.1648 19.5267 70.6381 19.82C71.1181 20.1067 71.6415 20.25 72.2081 20.25ZM84.5984 22V8H89.4184C90.1718 8 90.8518 8.18667 91.4584 8.56C92.0718 8.93333 92.5584 9.43667 92.9184 10.07C93.2851 10.7033 93.4684 11.4033 93.4684 12.17C93.4684 12.95 93.2818 13.6567 92.9084 14.29C92.5418 14.9167 92.0518 15.4167 91.4384 15.79C90.8251 16.1633 90.1518 16.35 89.4184 16.35H86.6784V22H84.5984ZM86.6784 14.27H89.2084C89.6084 14.27 89.9718 14.17 90.2984 13.97C90.6318 13.77 90.8951 13.5033 91.0884 13.17C91.2884 12.8367 91.3884 12.46 91.3884 12.04C91.3884 11.62 91.2884 11.2433 91.0884 10.91C90.8951 10.57 90.6318 10.3033 90.2984 10.11C89.9718 9.91 89.6084 9.81 89.2084 9.81H86.6784V14.27ZM95.1063 22V12H97.1863V13.06C97.5329 12.6467 97.9596 12.32 98.4663 12.08C98.9729 11.84 99.5196 11.72 100.106 11.72C100.48 11.72 100.85 11.77 101.216 11.87L100.386 13.97C100.126 13.87 99.8663 13.82 99.6063 13.82C99.1663 13.82 98.7629 13.93 98.3963 14.15C98.0296 14.3633 97.7363 14.6533 97.5163 15.02C97.2963 15.3867 97.1863 15.7933 97.1863 16.24V22H95.1063ZM106.303 22.26C105.383 22.26 104.543 22.0233 103.783 21.55C103.03 21.0767 102.426 20.4433 101.973 19.65C101.526 18.85 101.303 17.9667 101.303 17C101.303 16.2667 101.433 15.5833 101.693 14.95C101.953 14.31 102.31 13.75 102.763 13.27C103.223 12.7833 103.756 12.4033 104.363 12.13C104.97 11.8567 105.616 11.72 106.303 11.72C107.223 11.72 108.06 11.9567 108.813 12.43C109.573 12.9033 110.176 13.54 110.623 14.34C111.076 15.14 111.303 16.0267 111.303 17C111.303 17.7267 111.173 18.4067 110.913 19.04C110.653 19.6733 110.293 20.2333 109.833 20.72C109.38 21.2 108.85 21.5767 108.243 21.85C107.643 22.1233 106.996 22.26 106.303 22.26ZM106.303 20.18C106.856 20.18 107.353 20.0333 107.793 19.74C108.233 19.4467 108.58 19.06 108.833 18.58C109.093 18.0933 109.223 17.5667 109.223 17C109.223 16.42 109.09 15.8867 108.823 15.4C108.563 14.9133 108.213 14.5267 107.773 14.24C107.333 13.9467 106.843 13.8 106.303 13.8C105.756 13.8 105.26 13.9467 104.813 14.24C104.373 14.5333 104.023 14.9233 103.763 15.41C103.51 15.8967 103.383 16.4267 103.383 17C103.383 17.5933 103.516 18.13 103.783 18.61C104.05 19.09 104.403 19.4733 104.843 19.76C105.29 20.04 105.776 20.18 106.303 20.18ZM114.999 27H112.919V12H114.999V13.47C115.332 12.9567 115.759 12.54 116.279 12.22C116.799 11.9 117.412 11.74 118.119 11.74C118.845 11.74 119.525 11.8767 120.159 12.15C120.799 12.4233 121.359 12.8033 121.839 13.29C122.319 13.77 122.695 14.3267 122.969 14.96C123.242 15.5933 123.379 16.2733 123.379 17C123.379 17.7267 123.242 18.41 122.969 19.05C122.695 19.69 122.319 20.2533 121.839 20.74C121.359 21.22 120.799 21.5967 120.159 21.87C119.525 22.1433 118.845 22.28 118.119 22.28C117.412 22.28 116.799 22.12 116.279 21.8C115.759 21.4733 115.332 21.0567 114.999 20.55V27ZM118.099 13.75C117.519 13.75 117.009 13.8967 116.569 14.19C116.129 14.4833 115.785 14.8767 115.539 15.37C115.292 15.8567 115.169 16.4 115.169 17C115.169 17.6 115.292 18.1467 115.539 18.64C115.785 19.1333 116.129 19.5267 116.569 19.82C117.009 20.1133 117.519 20.26 118.099 20.26C118.672 20.26 119.199 20.1167 119.679 19.83C120.159 19.5367 120.542 19.1433 120.829 18.65C121.115 18.1567 121.259 17.6067 121.259 17C121.259 16.4067 121.115 15.8633 120.829 15.37C120.549 14.8767 120.169 14.4833 119.689 14.19C119.209 13.8967 118.679 13.75 118.099 13.75ZM129.389 22.26C128.469 22.26 127.629 22.0233 126.869 21.55C126.116 21.0767 125.512 20.4433 125.059 19.65C124.612 18.85 124.389 17.9667 124.389 17C124.389 16.2667 124.519 15.5833 124.779 14.95C125.039 14.31 125.396 13.75 125.849 13.27C126.309 12.7833 126.842 12.4033 127.449 12.13C128.056 11.8567 128.702 11.72 129.389 11.72C130.156 11.72 130.859 11.88 131.499 12.2C132.139 12.5133 132.686 12.95 133.139 13.51C133.592 14.0633 133.926 14.7033 134.139 15.43C134.352 16.15 134.416 16.9167 134.329 17.73H126.619C126.706 18.19 126.872 18.6067 127.119 18.98C127.372 19.3467 127.692 19.6367 128.079 19.85C128.472 20.0633 128.909 20.1733 129.389 20.18C129.896 20.18 130.356 20.0533 130.769 19.8C131.189 19.5467 131.532 19.1967 131.799 18.75L133.909 19.24C133.509 20.1267 132.906 20.8533 132.099 21.42C131.292 21.98 130.389 22.26 129.389 22.26ZM126.549 16.14H132.229C132.162 15.66 131.992 15.2267 131.719 14.84C131.452 14.4467 131.116 14.1367 130.709 13.91C130.309 13.6767 129.869 13.56 129.389 13.56C128.916 13.56 128.476 13.6733 128.069 13.9C127.669 14.1267 127.336 14.4367 127.069 14.83C126.809 15.2167 126.636 15.6533 126.549 16.14ZM135.985 22V12H138.065V13.06C138.412 12.6467 138.838 12.32 139.345 12.08C139.852 11.84 140.398 11.72 140.985 11.72C141.358 11.72 141.728 11.77 142.095 11.87L141.265 13.97C141.005 13.87 140.745 13.82 140.485 13.82C140.045 13.82 139.642 13.93 139.275 14.15C138.908 14.3633 138.615 14.6533 138.395 15.02C138.175 15.3867 138.065 15.7933 138.065 16.24V22H135.985ZM148.785 14.08H146.685L146.675 22H144.595L144.605 14.08H143.015V12H144.605L144.595 8.86H146.675L146.685 12H148.785V14.08ZM157.113 12H159.333L153.853 27H151.643L153.453 22L149.863 12H152.133L154.493 19.15L157.113 12Z" fill="white"></path><rect y="46" width="884" height="72" rx="8" fill="#1A1A1A"></rect><path d="M26.13 89.26C25.3767 89.26 24.65 89.1433 23.95 88.91C23.25 88.67 22.6367 88.33 22.11 87.89C21.59 87.45 21.22 86.9267 21 86.32L22.57 85.73C22.7033 86.1033 22.95 86.43 23.31 86.71C23.6767 86.9833 24.1067 87.1967 24.6 87.35C25.0933 87.5033 25.6033 87.58 26.13 87.58C26.73 87.58 27.2867 87.4833 27.8 87.29C28.32 87.09 28.74 86.8133 29.06 86.46C29.38 86.1067 29.54 85.6933 29.54 85.22C29.54 84.7333 29.3733 84.3367 29.04 84.03C28.7067 83.7167 28.28 83.47 27.76 83.29C27.24 83.1033 26.6967 82.96 26.13 82.86C25.1633 82.7 24.2967 82.4733 23.53 82.18C22.77 81.88 22.1667 81.4633 21.72 80.93C21.28 80.3967 21.06 79.6933 21.06 78.82C21.06 78.0067 21.2933 77.2967 21.76 76.69C22.2333 76.0833 22.8567 75.6133 23.63 75.28C24.4033 74.9467 25.2367 74.78 26.13 74.78C26.87 74.78 27.5867 74.8967 28.28 75.13C28.98 75.3567 29.5967 75.69 30.13 76.13C30.6633 76.57 31.0467 77.1067 31.28 77.74L29.69 78.32C29.5567 77.94 29.3067 77.6133 28.94 77.34C28.58 77.06 28.1533 76.8467 27.66 76.7C27.1733 76.5467 26.6633 76.47 26.13 76.47C25.5367 76.4633 24.9833 76.56 24.47 76.76C23.9567 76.96 23.54 77.2367 23.22 77.59C22.9 77.9433 22.74 78.3533 22.74 78.82C22.74 79.38 22.8867 79.81 23.18 80.11C23.48 80.4033 23.8867 80.6233 24.4 80.77C24.9133 80.9167 25.49 81.0467 26.13 81.16C27.0367 81.3133 27.8767 81.5567 28.65 81.89C29.4233 82.2167 30.0433 82.6533 30.51 83.2C30.9833 83.7467 31.22 84.42 31.22 85.22C31.22 86.0333 30.9833 86.7433 30.51 87.35C30.0433 87.9567 29.4233 88.4267 28.65 88.76C27.8767 89.0933 27.0367 89.26 26.13 89.26ZM37.7094 89.26C36.7894 89.26 35.9494 89.0233 35.1894 88.55C34.436 88.0767 33.8327 87.4433 33.3794 86.65C32.9327 85.85 32.7094 84.9667 32.7094 84C32.7094 83.2667 32.8394 82.5833 33.0994 81.95C33.3594 81.31 33.716 80.75 34.1694 80.27C34.6294 79.7833 35.1627 79.4033 35.7694 79.13C36.376 78.8567 37.0227 78.72 37.7094 78.72C38.4627 78.72 39.1527 78.8733 39.7794 79.18C40.4127 79.48 40.9527 79.9 41.3994 80.44C41.8527 80.98 42.1894 81.6067 42.4094 82.32C42.636 83.0333 42.7194 83.7967 42.6594 84.61H34.4994C34.5794 85.1767 34.766 85.6833 35.0594 86.13C35.3527 86.57 35.726 86.92 36.1794 87.18C36.6394 87.44 37.1494 87.5733 37.7094 87.58C38.3094 87.58 38.8527 87.4267 39.3394 87.12C39.826 86.8067 40.2194 86.38 40.5194 85.84L42.2294 86.24C41.8294 87.1267 41.226 87.8533 40.4194 88.42C39.6127 88.98 38.7094 89.26 37.7094 89.26ZM34.4494 83.29H40.9694C40.916 82.73 40.736 82.22 40.4294 81.76C40.1227 81.2933 39.7327 80.92 39.2594 80.64C38.786 80.36 38.2694 80.22 37.7094 80.22C37.1494 80.22 36.636 80.3567 36.1694 80.63C35.7027 80.9033 35.316 81.2733 35.0094 81.74C34.7094 82.2 34.5227 82.7167 34.4494 83.29ZM52.3259 79H54.0059V89H52.3259L52.2559 87.31C51.9426 87.89 51.5093 88.36 50.9559 88.72C50.4093 89.08 49.7559 89.26 48.9959 89.26C48.2626 89.26 47.5759 89.1233 46.9359 88.85C46.2959 88.57 45.7293 88.1867 45.2359 87.7C44.7493 87.2067 44.3693 86.64 44.0959 86C43.8226 85.36 43.6859 84.67 43.6859 83.93C43.6859 83.2167 43.8193 82.5433 44.0859 81.91C44.3526 81.2767 44.7226 80.7233 45.1959 80.25C45.6759 79.77 46.2293 79.3967 46.8559 79.13C47.4826 78.8567 48.1559 78.72 48.8759 78.72C49.6626 78.72 50.3526 78.9067 50.9459 79.28C51.5393 79.6467 52.0193 80.1233 52.3859 80.71L52.3259 79ZM48.9659 87.63C49.6259 87.63 50.1959 87.47 50.6759 87.15C51.1626 86.8233 51.5359 86.3833 51.7959 85.83C52.0626 85.2767 52.1959 84.6667 52.1959 84C52.1959 83.32 52.0626 82.7067 51.7959 82.16C51.5293 81.6067 51.1526 81.17 50.6659 80.85C50.1859 80.5233 49.6193 80.36 48.9659 80.36C48.3059 80.36 47.7059 80.5233 47.1659 80.85C46.6259 81.1767 46.1959 81.6167 45.8759 82.17C45.5626 82.7167 45.4059 83.3267 45.4059 84C45.4059 84.6733 45.5693 85.2867 45.8959 85.84C46.2226 86.3867 46.6559 86.8233 47.1959 87.15C47.7359 87.47 48.3259 87.63 48.9659 87.63ZM59.0547 89.19C58.5147 89.17 57.988 89.07 57.4747 88.89C56.968 88.7033 56.5214 88.4533 56.1347 88.14C55.7547 87.82 55.478 87.4533 55.3047 87.04L56.7447 86.42C56.8447 86.6467 57.0247 86.86 57.2847 87.06C57.5447 87.26 57.8447 87.42 58.1847 87.54C58.5247 87.66 58.868 87.72 59.2147 87.72C59.5814 87.72 59.9247 87.6633 60.2447 87.55C60.5647 87.4367 60.8247 87.27 61.0247 87.05C61.2314 86.8233 61.3347 86.5533 61.3347 86.24C61.3347 85.9067 61.2214 85.6467 60.9947 85.46C60.7747 85.2667 60.4947 85.1167 60.1547 85.01C59.8214 84.8967 59.4814 84.79 59.1347 84.69C58.448 84.5167 57.8347 84.31 57.2947 84.07C56.7547 83.8233 56.328 83.5133 56.0147 83.14C55.708 82.76 55.5547 82.2767 55.5547 81.69C55.5547 81.07 55.7247 80.5333 56.0647 80.08C56.4114 79.6267 56.8647 79.2767 57.4247 79.03C57.9847 78.7833 58.5847 78.66 59.2247 78.66C60.0314 78.66 60.768 78.8333 61.4347 79.18C62.1014 79.5267 62.598 79.9967 62.9247 80.59L61.5747 81.38C61.4614 81.14 61.288 80.93 61.0547 80.75C60.8214 80.5633 60.5547 80.4167 60.2547 80.31C59.9547 80.2033 59.648 80.1467 59.3347 80.14C58.948 80.1267 58.5847 80.1767 58.2447 80.29C57.9114 80.4033 57.6414 80.5767 57.4347 80.81C57.2347 81.0367 57.1347 81.32 57.1347 81.66C57.1347 81.9933 57.2414 82.2467 57.4547 82.42C57.6747 82.5933 57.958 82.7333 58.3047 82.84C58.658 82.94 59.0414 83.0567 59.4547 83.19C60.0614 83.3833 60.628 83.6067 61.1547 83.86C61.6814 84.1133 62.1047 84.43 62.4247 84.81C62.7514 85.19 62.9114 85.66 62.9047 86.22C62.9047 86.8333 62.7214 87.37 62.3547 87.83C61.988 88.2833 61.5114 88.63 60.9247 88.87C60.3447 89.11 59.7214 89.2167 59.0547 89.19ZM64.4813 79H66.1613V89H64.4813V79ZM65.3413 77.37C65.0746 77.37 64.8513 77.2833 64.6713 77.11C64.4913 76.9367 64.4013 76.72 64.4013 76.46C64.4013 76.2 64.4913 75.9833 64.6713 75.81C64.8513 75.6367 65.0713 75.55 65.3313 75.55C65.5913 75.55 65.8113 75.6367 65.9913 75.81C66.1713 75.9833 66.2613 76.2 66.2613 76.46C66.2613 76.72 66.1713 76.9367 65.9913 77.11C65.8179 77.2833 65.6013 77.37 65.3413 77.37ZM76.4766 74H78.1566V89H76.4766V87.3C76.1366 87.8867 75.6799 88.36 75.1066 88.72C74.5332 89.08 73.8599 89.26 73.0866 89.26C72.3599 89.26 71.6799 89.1233 71.0466 88.85C70.4132 88.5767 69.8532 88.2 69.3666 87.72C68.8866 87.2333 68.5099 86.6733 68.2366 86.04C67.9632 85.4067 67.8266 84.7267 67.8266 84C67.8266 83.2733 67.9632 82.5933 68.2366 81.96C68.5099 81.32 68.8866 80.76 69.3666 80.28C69.8532 79.7933 70.4132 79.4133 71.0466 79.14C71.6799 78.8667 72.3599 78.73 73.0866 78.73C73.8599 78.73 74.5332 78.91 75.1066 79.27C75.6799 79.63 76.1366 80.1033 76.4766 80.69V74ZM73.1066 87.63C73.7666 87.63 74.3366 87.47 74.8166 87.15C75.3032 86.8233 75.6766 86.3833 75.9366 85.83C76.2032 85.2767 76.3366 84.6667 76.3366 84C76.3366 83.32 76.2032 82.7067 75.9366 82.16C75.6699 81.6067 75.2932 81.17 74.8066 80.85C74.3266 80.5233 73.7599 80.36 73.1066 80.36C72.4466 80.36 71.8466 80.5233 71.3066 80.85C70.7732 81.1767 70.3466 81.6167 70.0266 82.17C69.7066 82.7167 69.5466 83.3267 69.5466 84C69.5466 84.6733 69.7099 85.2867 70.0366 85.84C70.3632 86.3867 70.7966 86.8233 71.3366 87.15C71.8766 87.47 72.4666 87.63 73.1066 87.63ZM84.8578 89.26C83.9378 89.26 83.0978 89.0233 82.3378 88.55C81.5845 88.0767 80.9811 87.4433 80.5278 86.65C80.0811 85.85 79.8578 84.9667 79.8578 84C79.8578 83.2667 79.9878 82.5833 80.2478 81.95C80.5078 81.31 80.8645 80.75 81.3178 80.27C81.7778 79.7833 82.3111 79.4033 82.9178 79.13C83.5245 78.8567 84.1711 78.72 84.8578 78.72C85.6111 78.72 86.3011 78.8733 86.9278 79.18C87.5611 79.48 88.1011 79.9 88.5478 80.44C89.0011 80.98 89.3378 81.6067 89.5578 82.32C89.7845 83.0333 89.8678 83.7967 89.8078 84.61H81.6478C81.7278 85.1767 81.9145 85.6833 82.2078 86.13C82.5011 86.57 82.8745 86.92 83.3278 87.18C83.7878 87.44 84.2978 87.5733 84.8578 87.58C85.4578 87.58 86.0011 87.4267 86.4878 87.12C86.9745 86.8067 87.3678 86.38 87.6678 85.84L89.3778 86.24C88.9778 87.1267 88.3745 87.8533 87.5678 88.42C86.7611 88.98 85.8578 89.26 84.8578 89.26ZM81.5978 83.29H88.1178C88.0645 82.73 87.8845 82.22 87.5778 81.76C87.2711 81.2933 86.8811 80.92 86.4078 80.64C85.9345 80.36 85.4178 80.22 84.8578 80.22C84.2978 80.22 83.7845 80.3567 83.3178 80.63C82.8511 80.9033 82.4645 81.2733 82.1578 81.74C81.8578 82.2 81.6711 82.7167 81.5978 83.29ZM101.364 89.26C100.611 89.26 99.8844 89.1433 99.1844 88.91C98.4844 88.67 97.871 88.33 97.3444 87.89C96.8244 87.45 96.4544 86.9267 96.2344 86.32L97.8044 85.73C97.9377 86.1033 98.1844 86.43 98.5444 86.71C98.911 86.9833 99.341 87.1967 99.8344 87.35C100.328 87.5033 100.838 87.58 101.364 87.58C101.964 87.58 102.521 87.4833 103.034 87.29C103.554 87.09 103.974 86.8133 104.294 86.46C104.614 86.1067 104.774 85.6933 104.774 85.22C104.774 84.7333 104.608 84.3367 104.274 84.03C103.941 83.7167 103.514 83.47 102.994 83.29C102.474 83.1033 101.931 82.96 101.364 82.86C100.398 82.7 99.531 82.4733 98.7644 82.18C98.0044 81.88 97.401 81.4633 96.9544 80.93C96.5144 80.3967 96.2944 79.6933 96.2944 78.82C96.2944 78.0067 96.5277 77.2967 96.9944 76.69C97.4677 76.0833 98.091 75.6133 98.8644 75.28C99.6377 74.9467 100.471 74.78 101.364 74.78C102.104 74.78 102.821 74.8967 103.514 75.13C104.214 75.3567 104.831 75.69 105.364 76.13C105.898 76.57 106.281 77.1067 106.514 77.74L104.924 78.32C104.791 77.94 104.541 77.6133 104.174 77.34C103.814 77.06 103.388 76.8467 102.894 76.7C102.408 76.5467 101.898 76.47 101.364 76.47C100.771 76.4633 100.218 76.56 99.7044 76.76C99.191 76.96 98.7744 77.2367 98.4544 77.59C98.1344 77.9433 97.9744 78.3533 97.9744 78.82C97.9744 79.38 98.121 79.81 98.4144 80.11C98.7144 80.4033 99.121 80.6233 99.6344 80.77C100.148 80.9167 100.724 81.0467 101.364 81.16C102.271 81.3133 103.111 81.5567 103.884 81.89C104.658 82.2167 105.278 82.6533 105.744 83.2C106.218 83.7467 106.454 84.42 106.454 85.22C106.454 86.0333 106.218 86.7433 105.744 87.35C105.278 87.9567 104.658 88.4267 103.884 88.76C103.111 89.0933 102.271 89.26 101.364 89.26ZM112.944 89.26C112.024 89.26 111.184 89.0233 110.424 88.55C109.67 88.0767 109.067 87.4433 108.614 86.65C108.167 85.85 107.944 84.9667 107.944 84C107.944 83.2667 108.074 82.5833 108.334 81.95C108.594 81.31 108.95 80.75 109.404 80.27C109.864 79.7833 110.397 79.4033 111.004 79.13C111.61 78.8567 112.257 78.72 112.944 78.72C113.697 78.72 114.387 78.8733 115.014 79.18C115.647 79.48 116.187 79.9 116.634 80.44C117.087 80.98 117.424 81.6067 117.644 82.32C117.87 83.0333 117.954 83.7967 117.894 84.61H109.734C109.814 85.1767 110 85.6833 110.294 86.13C110.587 86.57 110.96 86.92 111.414 87.18C111.874 87.44 112.384 87.5733 112.944 87.58C113.544 87.58 114.087 87.4267 114.574 87.12C115.06 86.8067 115.454 86.38 115.754 85.84L117.464 86.24C117.064 87.1267 116.46 87.8533 115.654 88.42C114.847 88.98 113.944 89.26 112.944 89.26ZM109.684 83.29H116.204C116.15 82.73 115.97 82.22 115.664 81.76C115.357 81.2933 114.967 80.92 114.494 80.64C114.02 80.36 113.504 80.22 112.944 80.22C112.384 80.22 111.87 80.3567 111.404 80.63C110.937 80.9033 110.55 81.2733 110.244 81.74C109.944 82.2 109.757 82.7167 109.684 83.29ZM119.579 89V79H121.259V80.25C121.612 79.7833 122.059 79.4133 122.599 79.14C123.139 78.86 123.726 78.72 124.359 78.72C124.746 78.72 125.119 78.77 125.479 78.87L124.799 80.55C124.526 80.4633 124.259 80.42 123.999 80.42C123.499 80.42 123.039 80.5433 122.619 80.79C122.206 81.03 121.876 81.3567 121.629 81.77C121.382 82.1833 121.259 82.6433 121.259 83.15V89H119.579ZM130.6 89.26C129.68 89.26 128.84 89.0233 128.08 88.55C127.327 88.0767 126.723 87.4433 126.27 86.65C125.823 85.85 125.6 84.9667 125.6 84C125.6 83.2667 125.73 82.5833 125.99 81.95C126.25 81.31 126.607 80.75 127.06 80.27C127.52 79.7833 128.053 79.4033 128.66 79.13C129.267 78.8567 129.913 78.72 130.6 78.72C131.353 78.72 132.043 78.8733 132.67 79.18C133.303 79.48 133.843 79.9 134.29 80.44C134.743 80.98 135.08 81.6067 135.3 82.32C135.527 83.0333 135.61 83.7967 135.55 84.61H127.39C127.47 85.1767 127.657 85.6833 127.95 86.13C128.243 86.57 128.617 86.92 129.07 87.18C129.53 87.44 130.04 87.5733 130.6 87.58C131.2 87.58 131.743 87.4267 132.23 87.12C132.717 86.8067 133.11 86.38 133.41 85.84L135.12 86.24C134.72 87.1267 134.117 87.8533 133.31 88.42C132.503 88.98 131.6 89.26 130.6 89.26ZM127.34 83.29H133.86C133.807 82.73 133.627 82.22 133.32 81.76C133.013 81.2933 132.623 80.92 132.15 80.64C131.677 80.36 131.16 80.22 130.6 80.22C130.04 80.22 129.527 80.3567 129.06 80.63C128.593 80.9033 128.207 81.2733 127.9 81.74C127.6 82.2 127.413 82.7167 127.34 83.29ZM146.075 82.78V89H144.395V83.15C144.395 82.6433 144.272 82.1833 144.025 81.77C143.778 81.3567 143.448 81.03 143.035 80.79C142.622 80.5433 142.162 80.42 141.655 80.42C141.155 80.42 140.695 80.5433 140.275 80.79C139.862 81.03 139.532 81.3567 139.285 81.77C139.038 82.1833 138.915 82.6433 138.915 83.15V89H137.235V79H138.915V80.25C139.268 79.7833 139.715 79.4133 140.255 79.14C140.795 78.86 141.382 78.72 142.015 78.72C142.762 78.72 143.442 78.9033 144.055 79.27C144.675 79.63 145.165 80.1167 145.525 80.73C145.892 81.3433 146.075 82.0267 146.075 82.78ZM148.075 79H149.755V89H148.075V79ZM148.935 77.37C148.668 77.37 148.445 77.2833 148.265 77.11C148.085 76.9367 147.995 76.72 147.995 76.46C147.995 76.2 148.085 75.9833 148.265 75.81C148.445 75.6367 148.665 75.55 148.925 75.55C149.185 75.55 149.405 75.6367 149.585 75.81C149.765 75.9833 149.855 76.2 149.855 76.46C149.855 76.72 149.765 76.9367 149.585 77.11C149.412 77.2833 149.195 77.37 148.935 77.37ZM157.337 80.68H155.067L155.057 89H153.377L153.387 80.68H151.667V79H153.387L153.377 75.86H155.057L155.067 79H157.337V80.68ZM165.745 79H167.525L162.055 94H160.275L162.085 89L158.495 79H160.335L162.925 86.69L165.745 79ZM178.765 89L173.685 75H175.465L179.805 86.95L184.155 75H185.925L180.845 89H178.765ZM186.981 79H188.661V89H186.981V79ZM187.841 77.37C187.575 77.37 187.351 77.2833 187.171 77.11C186.991 76.9367 186.901 76.72 186.901 76.46C186.901 76.2 186.991 75.9833 187.171 75.81C187.351 75.6367 187.571 75.55 187.831 75.55C188.091 75.55 188.311 75.6367 188.491 75.81C188.671 75.9833 188.761 76.2 188.761 76.46C188.761 76.72 188.671 76.9367 188.491 77.11C188.318 77.2833 188.101 77.37 187.841 77.37ZM191.122 89V74H192.802V89H191.122ZM195.204 89V74H196.884V89H195.204ZM207.228 79H208.908V89H207.228L207.158 87.31C206.845 87.89 206.412 88.36 205.858 88.72C205.312 89.08 204.658 89.26 203.898 89.26C203.165 89.26 202.478 89.1233 201.838 88.85C201.198 88.57 200.632 88.1867 200.138 87.7C199.652 87.2067 199.272 86.64 198.998 86C198.725 85.36 198.588 84.67 198.588 83.93C198.588 83.2167 198.722 82.5433 198.988 81.91C199.255 81.2767 199.625 80.7233 200.098 80.25C200.578 79.77 201.132 79.3967 201.758 79.13C202.385 78.8567 203.058 78.72 203.778 78.72C204.565 78.72 205.255 78.9067 205.848 79.28C206.442 79.6467 206.922 80.1233 207.288 80.71L207.228 79ZM203.868 87.63C204.528 87.63 205.098 87.47 205.578 87.15C206.065 86.8233 206.438 86.3833 206.698 85.83C206.965 85.2767 207.098 84.6667 207.098 84C207.098 83.32 206.965 82.7067 206.698 82.16C206.432 81.6067 206.055 81.17 205.568 80.85C205.088 80.5233 204.522 80.36 203.868 80.36C203.208 80.36 202.608 80.5233 202.068 80.85C201.528 81.1767 201.098 81.6167 200.778 82.17C200.465 82.7167 200.308 83.3267 200.308 84C200.308 84.6733 200.472 85.2867 200.798 85.84C201.125 86.3867 201.558 86.8233 202.098 87.15C202.638 87.47 203.228 87.63 203.868 87.63ZM210.507 90.12L211.127 86.74H212.807L211.627 90.12H210.507ZM220.009 89L222.719 75H224.009L227.789 84.94L231.559 75H232.849L235.569 89H233.859L231.889 78.84L228.339 88.24H227.229L223.679 78.84L221.719 89H220.009ZM245.138 79H246.818V89H245.138L245.068 87.31C244.755 87.89 244.322 88.36 243.768 88.72C243.222 89.08 242.568 89.26 241.808 89.26C241.075 89.26 240.388 89.1233 239.748 88.85C239.108 88.57 238.542 88.1867 238.048 87.7C237.562 87.2067 237.182 86.64 236.908 86C236.635 85.36 236.498 84.67 236.498 83.93C236.498 83.2167 236.632 82.5433 236.898 81.91C237.165 81.2767 237.535 80.7233 238.008 80.25C238.488 79.77 239.042 79.3967 239.668 79.13C240.295 78.8567 240.968 78.72 241.688 78.72C242.475 78.72 243.165 78.9067 243.758 79.28C244.352 79.6467 244.832 80.1233 245.198 80.71L245.138 79ZM241.778 87.63C242.438 87.63 243.008 87.47 243.488 87.15C243.975 86.8233 244.348 86.3833 244.608 85.83C244.875 85.2767 245.008 84.6667 245.008 84C245.008 83.32 244.875 82.7067 244.608 82.16C244.342 81.6067 243.965 81.17 243.478 80.85C242.998 80.5233 242.432 80.36 241.778 80.36C241.118 80.36 240.518 80.5233 239.978 80.85C239.438 81.1767 239.008 81.6167 238.688 82.17C238.375 82.7167 238.218 83.3267 238.218 84C238.218 84.6733 238.382 85.2867 238.708 85.84C239.035 86.3867 239.468 86.8233 240.008 87.15C240.548 87.47 241.138 87.63 241.778 87.63ZM248.934 89V74H250.614V89H248.934ZM253.016 79H254.696V89H253.016V79ZM253.876 77.37C253.61 77.37 253.386 77.2833 253.206 77.11C253.026 76.9367 252.936 76.72 252.936 76.46C252.936 76.2 253.026 75.9833 253.206 75.81C253.386 75.6367 253.606 75.55 253.866 75.55C254.126 75.55 254.346 75.6367 254.526 75.81C254.706 75.9833 254.796 76.2 254.796 76.46C254.796 76.72 254.706 76.9367 254.526 77.11C254.353 77.2833 254.136 77.37 253.876 77.37ZM262.217 78.72C263.19 78.72 264.074 78.9567 264.867 79.43C265.667 79.9033 266.304 80.54 266.777 81.34C267.25 82.1333 267.487 83.0167 267.487 83.99C267.487 84.7167 267.35 85.4 267.077 86.04C266.804 86.6733 266.424 87.2333 265.937 87.72C265.457 88.2 264.897 88.5767 264.257 88.85C263.624 89.1233 262.944 89.26 262.217 89.26C261.444 89.26 260.77 89.08 260.197 88.72C259.63 88.3533 259.177 87.8767 258.837 87.29V89H257.157V74H258.837V80.69C259.177 80.1033 259.63 79.63 260.197 79.27C260.77 78.9033 261.444 78.72 262.217 78.72ZM262.197 87.62C262.857 87.62 263.457 87.4567 263.997 87.13C264.537 86.8033 264.967 86.3667 265.287 85.82C265.607 85.2667 265.767 84.6567 265.767 83.99C265.767 83.31 265.604 82.6967 265.277 82.15C264.95 81.5967 264.517 81.16 263.977 80.84C263.437 80.5133 262.844 80.35 262.197 80.35C261.544 80.35 260.974 80.5133 260.487 80.84C260.007 81.1667 259.634 81.6067 259.367 82.16C259.107 82.7133 258.977 83.3233 258.977 83.99C258.977 84.6633 259.107 85.2767 259.367 85.83C259.634 86.3767 260.01 86.8133 260.497 87.14C260.984 87.46 261.55 87.62 262.197 87.62ZM268.613 85.2V79H270.293V84.83C270.293 85.3367 270.416 85.7967 270.663 86.21C270.909 86.6233 271.239 86.9533 271.653 87.2C272.073 87.44 272.533 87.56 273.033 87.56C273.539 87.56 273.996 87.44 274.403 87.2C274.816 86.9533 275.146 86.6233 275.393 86.21C275.639 85.7967 275.763 85.3367 275.763 84.83V79H277.443L277.453 89H275.773L275.763 87.73C275.409 88.1967 274.963 88.57 274.423 88.85C273.883 89.1233 273.299 89.26 272.673 89.26C271.926 89.26 271.243 89.08 270.623 88.72C270.009 88.3533 269.519 87.8633 269.153 87.25C268.793 86.6367 268.613 85.9533 268.613 85.2ZM279.062 90.12L279.682 86.74H281.362L280.182 90.12H279.062ZM295.043 89.26C294.097 89.26 293.207 89.0733 292.373 88.7C291.54 88.32 290.807 87.8 290.173 87.14C289.547 86.4733 289.053 85.7 288.693 84.82C288.34 83.94 288.163 83 288.163 82C288.163 81 288.34 80.06 288.693 79.18C289.053 78.3 289.547 77.53 290.173 76.87C290.807 76.2033 291.54 75.6833 292.373 75.31C293.207 74.93 294.097 74.74 295.043 74.74C296.177 74.74 297.22 75.0033 298.173 75.53C299.127 76.0567 299.917 76.7567 300.543 77.63L299.053 78.43C298.587 77.8167 297.997 77.33 297.283 76.97C296.577 76.6033 295.83 76.42 295.043 76.42C294.317 76.42 293.637 76.5667 293.003 76.86C292.377 77.1533 291.827 77.5567 291.353 78.07C290.88 78.5833 290.51 79.1767 290.243 79.85C289.977 80.5233 289.843 81.24 289.843 82C289.843 82.7667 289.977 83.4867 290.243 84.16C290.517 84.8333 290.89 85.4267 291.363 85.94C291.843 86.4533 292.397 86.8567 293.023 87.15C293.657 87.4367 294.33 87.58 295.043 87.58C295.857 87.58 296.61 87.3967 297.303 87.03C298.003 86.6567 298.587 86.17 299.053 85.57L300.543 86.38C299.917 87.2533 299.127 87.9533 298.173 88.48C297.22 89 296.177 89.26 295.043 89.26ZM310.06 79H311.74V89H310.06L309.99 87.31C309.677 87.89 309.244 88.36 308.69 88.72C308.144 89.08 307.49 89.26 306.73 89.26C305.997 89.26 305.31 89.1233 304.67 88.85C304.03 88.57 303.464 88.1867 302.97 87.7C302.484 87.2067 302.104 86.64 301.83 86C301.557 85.36 301.42 84.67 301.42 83.93C301.42 83.2167 301.554 82.5433 301.82 81.91C302.087 81.2767 302.457 80.7233 302.93 80.25C303.41 79.77 303.964 79.3967 304.59 79.13C305.217 78.8567 305.89 78.72 306.61 78.72C307.397 78.72 308.087 78.9067 308.68 79.28C309.274 79.6467 309.754 80.1233 310.12 80.71L310.06 79ZM306.7 87.63C307.36 87.63 307.93 87.47 308.41 87.15C308.897 86.8233 309.27 86.3833 309.53 85.83C309.797 85.2767 309.93 84.6667 309.93 84C309.93 83.32 309.797 82.7067 309.53 82.16C309.264 81.6067 308.887 81.17 308.4 80.85C307.92 80.5233 307.354 80.36 306.7 80.36C306.04 80.36 305.44 80.5233 304.9 80.85C304.36 81.1767 303.93 81.6167 303.61 82.17C303.297 82.7167 303.14 83.3267 303.14 84C303.14 84.6733 303.304 85.2867 303.63 85.84C303.957 86.3867 304.39 86.8233 304.93 87.15C305.47 87.47 306.06 87.63 306.7 87.63ZM313.856 89V74H315.536V89H313.856ZM317.938 79H319.618V89H317.938V79ZM318.798 77.37C318.532 77.37 318.308 77.2833 318.128 77.11C317.948 76.9367 317.858 76.72 317.858 76.46C317.858 76.2 317.948 75.9833 318.128 75.81C318.308 75.6367 318.528 75.55 318.788 75.55C319.048 75.55 319.268 75.6367 319.448 75.81C319.628 75.9833 319.718 76.2 319.718 76.46C319.718 76.72 319.628 76.9367 319.448 77.11C319.275 77.2833 319.058 77.37 318.798 77.37ZM324.29 76.53V79H327.22V80.68H324.29V89H322.61V80.68H321.32V79H322.61V76.53C322.61 76.0167 322.734 75.5533 322.98 75.14C323.234 74.72 323.57 74.3867 323.99 74.14C324.417 73.8867 324.884 73.76 325.39 73.76C325.764 73.76 326.127 73.8367 326.48 73.99C326.834 74.1367 327.147 74.3567 327.42 74.65L326.22 75.84C326.127 75.7133 326.004 75.6167 325.85 75.55C325.704 75.4767 325.55 75.44 325.39 75.44C325.09 75.44 324.83 75.5467 324.61 75.76C324.397 75.9733 324.29 76.23 324.29 76.53ZM333.022 89.26C332.102 89.26 331.262 89.0233 330.502 88.55C329.749 88.0767 329.145 87.4433 328.692 86.65C328.245 85.85 328.022 84.9667 328.022 84C328.022 83.2667 328.152 82.5833 328.412 81.95C328.672 81.31 329.029 80.75 329.482 80.27C329.942 79.7833 330.475 79.4033 331.082 79.13C331.689 78.8567 332.335 78.72 333.022 78.72C333.942 78.72 334.779 78.9567 335.532 79.43C336.292 79.9033 336.895 80.54 337.342 81.34C337.795 82.14 338.022 83.0267 338.022 84C338.022 84.7267 337.892 85.4067 337.632 86.04C337.372 86.6733 337.012 87.2333 336.552 87.72C336.099 88.2 335.569 88.5767 334.962 88.85C334.362 89.1233 333.715 89.26 333.022 89.26ZM333.022 87.58C333.649 87.58 334.212 87.4167 334.712 87.09C335.219 86.7567 335.615 86.32 335.902 85.78C336.195 85.2333 336.342 84.64 336.342 84C336.342 83.3467 336.192 82.7467 335.892 82.2C335.599 81.6533 335.202 81.2167 334.702 80.89C334.202 80.5633 333.642 80.4 333.022 80.4C332.395 80.4 331.832 80.5667 331.332 80.9C330.832 81.2267 330.435 81.6633 330.142 82.21C329.849 82.7567 329.702 83.3533 329.702 84C329.702 84.6667 329.852 85.2733 330.152 85.82C330.452 86.36 330.855 86.79 331.362 87.11C331.869 87.4233 332.422 87.58 333.022 87.58ZM339.677 89V79H341.357V80.25C341.71 79.7833 342.157 79.4133 342.697 79.14C343.237 78.86 343.823 78.72 344.457 78.72C344.843 78.72 345.217 78.77 345.577 78.87L344.897 80.55C344.623 80.4633 344.357 80.42 344.097 80.42C343.597 80.42 343.137 80.5433 342.717 80.79C342.303 81.03 341.973 81.3567 341.727 81.77C341.48 82.1833 341.357 82.6433 341.357 83.15V89H339.677ZM355.685 82.78V89H354.005V83.15C354.005 82.6433 353.881 82.1833 353.635 81.77C353.388 81.3567 353.058 81.03 352.645 80.79C352.231 80.5433 351.771 80.42 351.265 80.42C350.765 80.42 350.305 80.5433 349.885 80.79C349.471 81.03 349.141 81.3567 348.895 81.77C348.648 82.1833 348.525 82.6433 348.525 83.15V89H346.845V79H348.525V80.25C348.878 79.7833 349.325 79.4133 349.865 79.14C350.405 78.86 350.991 78.72 351.625 78.72C352.371 78.72 353.051 78.9033 353.665 79.27C354.285 79.63 354.775 80.1167 355.135 80.73C355.501 81.3433 355.685 82.0267 355.685 82.78ZM357.684 79H359.364V89H357.684V79ZM358.544 77.37C358.278 77.37 358.054 77.2833 357.874 77.11C357.694 76.9367 357.604 76.72 357.604 76.46C357.604 76.2 357.694 75.9833 357.874 75.81C358.054 75.6367 358.274 75.55 358.534 75.55C358.794 75.55 359.014 75.6367 359.194 75.81C359.374 75.9833 359.464 76.2 359.464 76.46C359.464 76.72 359.374 76.9367 359.194 77.11C359.021 77.2833 358.804 77.37 358.544 77.37ZM369.67 79H371.35V89H369.67L369.6 87.31C369.286 87.89 368.853 88.36 368.3 88.72C367.753 89.08 367.1 89.26 366.34 89.26C365.606 89.26 364.92 89.1233 364.28 88.85C363.64 88.57 363.073 88.1867 362.58 87.7C362.093 87.2067 361.713 86.64 361.44 86C361.166 85.36 361.03 84.67 361.03 83.93C361.03 83.2167 361.163 82.5433 361.43 81.91C361.696 81.2767 362.066 80.7233 362.54 80.25C363.02 79.77 363.573 79.3967 364.2 79.13C364.826 78.8567 365.5 78.72 366.22 78.72C367.006 78.72 367.696 78.9067 368.29 79.28C368.883 79.6467 369.363 80.1233 369.73 80.71L369.67 79ZM366.31 87.63C366.97 87.63 367.54 87.47 368.02 87.15C368.506 86.8233 368.88 86.3833 369.14 85.83C369.406 85.2767 369.54 84.6667 369.54 84C369.54 83.32 369.406 82.7067 369.14 82.16C368.873 81.6067 368.496 81.17 368.01 80.85C367.53 80.5233 366.963 80.36 366.31 80.36C365.65 80.36 365.05 80.5233 364.51 80.85C363.97 81.1767 363.54 81.6167 363.22 82.17C362.906 82.7167 362.75 83.3267 362.75 84C362.75 84.6733 362.913 85.2867 363.24 85.84C363.566 86.3867 364 86.8233 364.54 87.15C365.08 87.47 365.67 87.63 366.31 87.63Z" fill="#E4E4E7"></path><path fill-rule="evenodd" clip-rule="evenodd" d="M851.54 92.351C851.57 92.3685 851.594 92.3821 851.611 92.3915L851.638 92.4071C851.861 92.5294 852.138 92.5285 852.361 92.4075L852.389 92.3915C852.406 92.3821 852.43 92.3685 852.46 92.351C852.521 92.316 852.607 92.265 852.716 92.1982C852.932 92.0646 853.239 91.8676 853.605 91.6091C854.335 91.0931 855.31 90.3274 856.287 89.3273C858.231 87.3368 860.25 84.3462 860.25 80.5C860.25 75.9437 856.556 72.25 852 72.25C847.444 72.25 843.75 75.9437 843.75 80.5C843.75 84.3462 845.769 87.3368 847.713 89.3273C848.69 90.3274 849.665 91.0931 850.395 91.6091C850.761 91.8676 851.068 92.0646 851.284 92.1982C851.393 92.265 851.479 92.316 851.54 92.351ZM852 83.5C853.657 83.5 855 82.1569 855 80.5C855 78.8431 853.657 77.5 852 77.5C850.343 77.5 849 78.8431 849 80.5C849 82.1569 850.343 83.5 852 83.5Z" fill="#E4E4E7"></path></svg>