<svg xmlns="http://www.w3.org/2000/svg" width="313" height="114" viewBox="0 0 313 114" fill="none"><path d="M1.95 22V8H4.03V19.92H10.06V22H1.95ZM19.1441 12H21.2241V22H19.1341L19.0541 20.55C18.7607 21.0633 18.3641 21.4767 17.8641 21.79C17.3641 22.1033 16.7741 22.26 16.0941 22.26C15.3607 22.26 14.6707 22.1233 14.0241 21.85C13.3774 21.57 12.8074 21.1833 12.3141 20.69C11.8274 20.1967 11.4474 19.63 11.1741 18.99C10.9007 18.3433 10.7641 17.65 10.7641 16.91C10.7641 16.1967 10.8974 15.5267 11.1641 14.9C11.4307 14.2667 11.8007 13.7133 12.2741 13.24C12.7474 12.7667 13.2941 12.3967 13.9141 12.13C14.5407 11.8567 15.2107 11.72 15.9241 11.72C16.6507 11.72 17.2907 11.8867 17.8441 12.22C18.4041 12.5467 18.8674 12.9667 19.2341 13.48L19.1441 12ZM16.0441 20.25C16.6307 20.25 17.1441 20.1067 17.5841 19.82C18.0241 19.5267 18.3641 19.1333 18.6041 18.64C18.8507 18.1467 18.9741 17.6 18.9741 17C18.9741 16.3933 18.8507 15.8433 18.6041 15.35C18.3574 14.8567 18.0141 14.4667 17.5741 14.18C17.1407 13.8867 16.6307 13.74 16.0441 13.74C15.4641 13.74 14.9341 13.8867 14.4541 14.18C13.9741 14.4733 13.5941 14.8667 13.3141 15.36C13.0341 15.8533 12.8941 16.4 12.8941 17C12.8941 17.6067 13.0374 18.1567 13.3241 18.65C13.6174 19.1367 14.0007 19.5267 14.4741 19.82C14.9541 20.1067 15.4774 20.25 16.0441 20.25ZM26.2195 22.19C25.6929 22.1567 25.1795 22.05 24.6795 21.87C24.1795 21.69 23.7395 21.4467 23.3595 21.14C22.9862 20.8267 22.7062 20.46 22.5195 20.04L24.2895 19.28C24.3762 19.46 24.5262 19.6367 24.7395 19.81C24.9595 19.9833 25.2162 20.1267 25.5095 20.24C25.8029 20.3467 26.1095 20.4 26.4295 20.4C26.7429 20.4 27.0329 20.3567 27.2995 20.27C27.5729 20.1767 27.7962 20.0367 27.9695 19.85C28.1429 19.6633 28.2295 19.44 28.2295 19.18C28.2295 18.8867 28.1295 18.66 27.9295 18.5C27.7362 18.3333 27.4929 18.2067 27.1995 18.12C26.9062 18.0333 26.6129 17.95 26.3195 17.87C25.6662 17.7233 25.0662 17.5233 24.5195 17.27C23.9795 17.01 23.5495 16.68 23.2295 16.28C22.9095 15.8733 22.7495 15.3767 22.7495 14.79C22.7495 14.15 22.9229 13.5967 23.2695 13.13C23.6162 12.6567 24.0695 12.2933 24.6295 12.04C25.1962 11.7867 25.7995 11.66 26.4395 11.66C27.2395 11.66 27.9729 11.83 28.6395 12.17C29.3062 12.51 29.8162 12.9767 30.1695 13.57L28.5195 14.55C28.4195 14.35 28.2695 14.17 28.0695 14.01C27.8695 13.85 27.6429 13.7233 27.3895 13.63C27.1362 13.53 26.8729 13.4733 26.5995 13.46C26.2595 13.4467 25.9429 13.4867 25.6495 13.58C25.3629 13.6667 25.1329 13.8067 24.9595 14C24.7862 14.1933 24.6995 14.44 24.6995 14.74C24.6995 15.0333 24.8029 15.2533 25.0095 15.4C25.2162 15.54 25.4762 15.6533 25.7895 15.74C26.1095 15.8267 26.4362 15.9233 26.7695 16.03C27.3629 16.2167 27.9195 16.4467 28.4395 16.72C28.9595 16.9867 29.3795 17.3167 29.6995 17.71C30.0195 18.1033 30.1729 18.5833 30.1595 19.15C30.1595 19.7767 29.9695 20.3267 29.5895 20.8C29.2162 21.2733 28.7295 21.6333 28.1295 21.88C27.5295 22.1267 26.8929 22.23 26.2195 22.19ZM37.1519 14.08H35.0519L35.0419 22H32.9619L32.9719 14.08H31.3819V12H32.9719L32.9619 8.86H35.0419L35.0519 12H37.1519V14.08ZM43.7469 22V8H45.9969L52.4269 18.24V8H54.5069V22H52.2569L45.8269 11.76V22H43.7469ZM64.5542 12H66.6342V22H64.5442L64.4642 20.55C64.1709 21.0633 63.7742 21.4767 63.2742 21.79C62.7742 22.1033 62.1842 22.26 61.5042 22.26C60.7709 22.26 60.0809 22.1233 59.4342 21.85C58.7876 21.57 58.2176 21.1833 57.7242 20.69C57.2376 20.1967 56.8576 19.63 56.5842 18.99C56.3109 18.3433 56.1742 17.65 56.1742 16.91C56.1742 16.1967 56.3076 15.5267 56.5742 14.9C56.8409 14.2667 57.2109 13.7133 57.6842 13.24C58.1576 12.7667 58.7042 12.3967 59.3242 12.13C59.9509 11.8567 60.6209 11.72 61.3342 11.72C62.0609 11.72 62.7009 11.8867 63.2542 12.22C63.8142 12.5467 64.2776 12.9667 64.6442 13.48L64.5542 12ZM61.4542 20.25C62.0409 20.25 62.5542 20.1067 62.9942 19.82C63.4342 19.5267 63.7742 19.1333 64.0142 18.64C64.2609 18.1467 64.3842 17.6 64.3842 17C64.3842 16.3933 64.2609 15.8433 64.0142 15.35C63.7676 14.8567 63.4242 14.4667 62.9842 14.18C62.5509 13.8867 62.0409 13.74 61.4542 13.74C60.8742 13.74 60.3442 13.8867 59.8642 14.18C59.3842 14.4733 59.0042 14.8667 58.7242 15.36C58.4442 15.8533 58.3042 16.4 58.3042 17C58.3042 17.6067 58.4476 18.1567 58.7342 18.65C59.0276 19.1367 59.4109 19.5267 59.8842 19.82C60.3642 20.1067 60.8876 20.25 61.4542 20.25ZM68.6297 22V12H70.7097V13.06C71.0564 12.6467 71.4797 12.32 71.9797 12.08C72.4864 11.84 73.033 11.72 73.6197 11.72C74.333 11.72 74.9897 11.8933 75.5897 12.24C76.1897 12.58 76.6664 13.0333 77.0197 13.6C77.373 13.0333 77.843 12.58 78.4297 12.24C79.023 11.8933 79.6764 11.72 80.3897 11.72C81.1297 11.72 81.803 11.9 82.4097 12.26C83.0164 12.62 83.4997 13.1033 83.8597 13.71C84.2197 14.3167 84.3997 14.99 84.3997 15.73V22H82.3197V16.26C82.3197 15.82 82.213 15.4167 81.9997 15.05C81.7864 14.6833 81.4997 14.3867 81.1397 14.16C80.7797 13.9333 80.3797 13.82 79.9397 13.82C79.4997 13.82 79.0997 13.9267 78.7397 14.14C78.3797 14.3533 78.093 14.6433 77.8797 15.01C77.6664 15.3767 77.5597 15.7933 77.5597 16.26V22H75.4797V16.26C75.4797 15.7933 75.373 15.3767 75.1597 15.01C74.9464 14.6433 74.6564 14.3533 74.2897 14.14C73.9297 13.9267 73.5297 13.82 73.0897 13.82C72.6564 13.82 72.2564 13.9333 71.8897 14.16C71.5297 14.3867 71.243 14.6833 71.0297 15.05C70.8164 15.4167 70.7097 15.82 70.7097 16.26V22H68.6297ZM90.6078 22.26C89.6878 22.26 88.8478 22.0233 88.0878 21.55C87.3345 21.0767 86.7311 20.4433 86.2778 19.65C85.8311 18.85 85.6078 17.9667 85.6078 17C85.6078 16.2667 85.7378 15.5833 85.9978 14.95C86.2578 14.31 86.6145 13.75 87.0678 13.27C87.5278 12.7833 88.0611 12.4033 88.6678 12.13C89.2745 11.8567 89.9211 11.72 90.6078 11.72C91.3745 11.72 92.0778 11.88 92.7178 12.2C93.3578 12.5133 93.9045 12.95 94.3578 13.51C94.8111 14.0633 95.1445 14.7033 95.3578 15.43C95.5711 16.15 95.6345 16.9167 95.5478 17.73H87.8378C87.9245 18.19 88.0911 18.6067 88.3378 18.98C88.5911 19.3467 88.9111 19.6367 89.2978 19.85C89.6911 20.0633 90.1278 20.1733 90.6078 20.18C91.1145 20.18 91.5745 20.0533 91.9878 19.8C92.4078 19.5467 92.7511 19.1967 93.0178 18.75L95.1278 19.24C94.7278 20.1267 94.1245 20.8533 93.3178 21.42C92.5111 21.98 91.6078 22.26 90.6078 22.26ZM87.7678 16.14H93.4478C93.3811 15.66 93.2111 15.2267 92.9378 14.84C92.6711 14.4467 92.3345 14.1367 91.9278 13.91C91.5278 13.6767 91.0878 13.56 90.6078 13.56C90.1345 13.56 89.6945 13.6733 89.2878 13.9C88.8878 14.1267 88.5545 14.4367 88.2878 14.83C88.0278 15.2167 87.8545 15.6533 87.7678 16.14Z" fill="white"></path><rect x="1.25" y="46.5" width="310.75" height="67" rx="7.5" fill="#1A1A1A"></rect><rect x="1.25" y="46.5" width="310.75" height="67" rx="7.5" stroke="#262626"></rect><path d="M21.83 86V73.4H29.561V74.912H23.342V78.494H28.436V80.006H23.342V84.488H29.561V86H21.83ZM39.4891 80.402V86H37.9771V80.735C37.9771 80.279 37.8661 79.865 37.6441 79.493C37.4221 79.121 37.1251 78.827 36.7531 78.611C36.3811 78.389 35.9671 78.278 35.5111 78.278C35.0611 78.278 34.6471 78.389 34.2691 78.611C33.8971 78.827 33.6001 79.121 33.3781 79.493C33.1561 79.865 33.0451 80.279 33.0451 80.735V86H31.5331V77H33.0451V78.125C33.3631 77.705 33.7651 77.372 34.2511 77.126C34.7371 76.874 35.2651 76.748 35.8351 76.748C36.5071 76.748 37.1191 76.913 37.6711 77.243C38.2291 77.567 38.6701 78.005 38.9941 78.557C39.3241 79.109 39.4891 79.724 39.4891 80.402ZM45.951 78.512H43.908L43.899 86H42.387L42.396 78.512H40.848V77H42.396L42.387 74.174H43.899L43.908 77H45.951V78.512ZM51.2959 86.234C50.4679 86.234 49.7119 86.021 49.0279 85.595C48.3499 85.169 47.8069 84.599 47.3989 83.885C46.9969 83.165 46.7959 82.37 46.7959 81.5C46.7959 80.84 46.9129 80.225 47.1469 79.655C47.3809 79.079 47.7019 78.575 48.1099 78.143C48.5239 77.705 49.0039 77.363 49.5499 77.117C50.0959 76.871 50.6779 76.748 51.2959 76.748C51.9739 76.748 52.5949 76.886 53.1589 77.162C53.7289 77.432 54.2149 77.81 54.6169 78.296C55.0249 78.782 55.3279 79.346 55.5259 79.988C55.7299 80.63 55.8049 81.317 55.7509 82.049H48.4069C48.4789 82.559 48.6469 83.015 48.9109 83.417C49.1749 83.813 49.5109 84.128 49.9189 84.362C50.3329 84.596 50.7919 84.716 51.2959 84.722C51.8359 84.722 52.3249 84.584 52.7629 84.308C53.2009 84.026 53.5549 83.642 53.8249 83.156L55.3639 83.516C55.0039 84.314 54.4609 84.968 53.7349 85.478C53.0089 85.982 52.1959 86.234 51.2959 86.234ZM48.3619 80.861H54.2299C54.1819 80.357 54.0199 79.898 53.7439 79.484C53.4679 79.064 53.1169 78.728 52.6909 78.476C52.2649 78.224 51.7999 78.098 51.2959 78.098C50.7919 78.098 50.3299 78.221 49.9099 78.467C49.4899 78.713 49.1419 79.046 48.8659 79.466C48.5959 79.88 48.4279 80.345 48.3619 80.861ZM57.2675 86V77H58.7795V78.125C59.0975 77.705 59.4995 77.372 59.9855 77.126C60.4715 76.874 60.9995 76.748 61.5695 76.748C61.9175 76.748 62.2535 76.793 62.5775 76.883L61.9655 78.395C61.7195 78.317 61.4795 78.278 61.2455 78.278C60.7955 78.278 60.3815 78.389 60.0035 78.611C59.6315 78.827 59.3345 79.121 59.1125 79.493C58.8905 79.865 58.7795 80.279 58.7795 80.735V86H57.2675ZM68.1659 86V73.4H69.6779V84.488H75.3209V86H68.1659ZM83.6637 77H85.1757V86H83.6637L83.6007 84.479C83.3187 85.001 82.9287 85.424 82.4307 85.748C81.9387 86.072 81.3507 86.234 80.6667 86.234C80.0067 86.234 79.3887 86.111 78.8127 85.865C78.2367 85.613 77.7267 85.268 77.2827 84.83C76.8447 84.386 76.5027 83.876 76.2567 83.3C76.0107 82.724 75.8877 82.103 75.8877 81.437C75.8877 80.795 76.0077 80.189 76.2477 79.619C76.4877 79.049 76.8207 78.551 77.2467 78.125C77.6787 77.693 78.1767 77.357 78.7407 77.117C79.3047 76.871 79.9107 76.748 80.5587 76.748C81.2667 76.748 81.8877 76.916 82.4217 77.252C82.9557 77.582 83.3877 78.011 83.7177 78.539L83.6637 77ZM80.6397 84.767C81.2337 84.767 81.7467 84.623 82.1787 84.335C82.6167 84.041 82.9527 83.645 83.1867 83.147C83.4267 82.649 83.5467 82.1 83.5467 81.5C83.5467 80.888 83.4267 80.336 83.1867 79.844C82.9467 79.346 82.6077 78.953 82.1697 78.665C81.7377 78.371 81.2277 78.224 80.6397 78.224C80.0457 78.224 79.5057 78.371 79.0197 78.665C78.5337 78.959 78.1467 79.355 77.8587 79.853C77.5767 80.345 77.4357 80.894 77.4357 81.5C77.4357 82.106 77.5827 82.658 77.8767 83.156C78.1707 83.648 78.5607 84.041 79.0467 84.335C79.5327 84.623 80.0637 84.767 80.6397 84.767ZM89.7195 86.171C89.2335 86.153 88.7595 86.063 88.2975 85.901C87.8415 85.733 87.4395 85.508 87.0915 85.226C86.7495 84.938 86.5005 84.608 86.3445 84.236L87.6405 83.678C87.7305 83.882 87.8925 84.074 88.1265 84.254C88.3605 84.434 88.6305 84.578 88.9365 84.686C89.2425 84.794 89.5515 84.848 89.8635 84.848C90.1935 84.848 90.5025 84.797 90.7905 84.695C91.0785 84.593 91.3125 84.443 91.4925 84.245C91.6785 84.041 91.7715 83.798 91.7715 83.516C91.7715 83.216 91.6695 82.982 91.4655 82.814C91.2675 82.64 91.0155 82.505 90.7095 82.409C90.4095 82.307 90.1035 82.211 89.7915 82.121C89.1735 81.965 88.6215 81.779 88.1355 81.563C87.6495 81.341 87.2655 81.062 86.9835 80.726C86.7075 80.384 86.5695 79.949 86.5695 79.421C86.5695 78.863 86.7225 78.38 87.0285 77.972C87.3405 77.564 87.7485 77.249 88.2525 77.027C88.7565 76.805 89.2965 76.694 89.8725 76.694C90.5985 76.694 91.2615 76.85 91.8615 77.162C92.4615 77.474 92.9085 77.897 93.2025 78.431L91.9875 79.142C91.8855 78.926 91.7295 78.737 91.5195 78.575C91.3095 78.407 91.0695 78.275 90.7995 78.179C90.5295 78.083 90.2535 78.032 89.9715 78.026C89.6235 78.014 89.2965 78.059 88.9905 78.161C88.6905 78.263 88.4475 78.419 88.2615 78.629C88.0815 78.833 87.9915 79.088 87.9915 79.394C87.9915 79.694 88.0875 79.922 88.2795 80.078C88.4775 80.234 88.7325 80.36 89.0445 80.456C89.3625 80.546 89.7075 80.651 90.0795 80.771C90.6255 80.945 91.1355 81.146 91.6095 81.374C92.0835 81.602 92.4645 81.887 92.7525 82.229C93.0465 82.571 93.1905 82.994 93.1845 83.498C93.1845 84.05 93.0195 84.533 92.6895 84.947C92.3595 85.355 91.9305 85.667 91.4025 85.883C90.8805 86.099 90.3195 86.195 89.7195 86.171ZM99.3885 78.512H97.3455L97.3365 86H95.8245L95.8335 78.512H94.2855V77H95.8335L95.8245 74.174H97.3365L97.3455 77H99.3885V78.512ZM105.326 86V73.4H106.964L113.255 83.264V73.4H114.767V86H113.138L106.838 76.136V86H105.326ZM124.076 77H125.588V86H124.076L124.013 84.479C123.731 85.001 123.341 85.424 122.843 85.748C122.351 86.072 121.763 86.234 121.079 86.234C120.419 86.234 119.801 86.111 119.225 85.865C118.649 85.613 118.139 85.268 117.695 84.83C117.257 84.386 116.915 83.876 116.669 83.3C116.423 82.724 116.3 82.103 116.3 81.437C116.3 80.795 116.42 80.189 116.66 79.619C116.9 79.049 117.233 78.551 117.659 78.125C118.091 77.693 118.589 77.357 119.153 77.117C119.717 76.871 120.323 76.748 120.971 76.748C121.679 76.748 122.3 76.916 122.834 77.252C123.368 77.582 123.8 78.011 124.13 78.539L124.076 77ZM121.052 84.767C121.646 84.767 122.159 84.623 122.591 84.335C123.029 84.041 123.365 83.645 123.599 83.147C123.839 82.649 123.959 82.1 123.959 81.5C123.959 80.888 123.839 80.336 123.599 79.844C123.359 79.346 123.02 78.953 122.582 78.665C122.15 78.371 121.64 78.224 121.052 78.224C120.458 78.224 119.918 78.371 119.432 78.665C118.946 78.959 118.559 79.355 118.271 79.853C117.989 80.345 117.848 80.894 117.848 81.5C117.848 82.106 117.995 82.658 118.289 83.156C118.583 83.648 118.973 84.041 119.459 84.335C119.945 84.623 120.476 84.767 121.052 84.767ZM127.387 86V77H128.899V78.125C129.217 77.705 129.616 77.372 130.096 77.126C130.582 76.874 131.11 76.748 131.68 76.748C132.346 76.748 132.955 76.91 133.507 77.234C134.059 77.558 134.494 77.987 134.812 78.521C135.13 77.987 135.562 77.558 136.108 77.234C136.66 76.91 137.266 76.748 137.926 76.748C138.604 76.748 139.219 76.913 139.771 77.243C140.323 77.567 140.761 78.005 141.085 78.557C141.415 79.109 141.58 79.724 141.58 80.402V86H140.068V80.762C140.068 80.318 139.96 79.907 139.744 79.529C139.528 79.151 139.237 78.848 138.871 78.62C138.505 78.392 138.1 78.278 137.656 78.278C137.212 78.278 136.807 78.386 136.441 78.602C136.075 78.812 135.784 79.106 135.568 79.484C135.352 79.856 135.244 80.282 135.244 80.762V86H133.732V80.762C133.732 80.282 133.624 79.856 133.408 79.484C133.192 79.106 132.898 78.812 132.526 78.602C132.16 78.386 131.755 78.278 131.311 78.278C130.873 78.278 130.468 78.392 130.096 78.62C129.73 78.848 129.439 79.151 129.223 79.529C129.007 79.907 128.899 80.318 128.899 80.762V86H127.387ZM147.167 86.234C146.339 86.234 145.583 86.021 144.899 85.595C144.221 85.169 143.678 84.599 143.27 83.885C142.868 83.165 142.667 82.37 142.667 81.5C142.667 80.84 142.784 80.225 143.018 79.655C143.252 79.079 143.573 78.575 143.981 78.143C144.395 77.705 144.875 77.363 145.421 77.117C145.967 76.871 146.549 76.748 147.167 76.748C147.845 76.748 148.466 76.886 149.03 77.162C149.6 77.432 150.086 77.81 150.488 78.296C150.896 78.782 151.199 79.346 151.397 79.988C151.601 80.63 151.676 81.317 151.622 82.049H144.278C144.35 82.559 144.518 83.015 144.782 83.417C145.046 83.813 145.382 84.128 145.79 84.362C146.204 84.596 146.663 84.716 147.167 84.722C147.707 84.722 148.196 84.584 148.634 84.308C149.072 84.026 149.426 83.642 149.696 83.156L151.235 83.516C150.875 84.314 150.332 84.968 149.606 85.478C148.88 85.982 148.067 86.234 147.167 86.234ZM144.233 80.861H150.101C150.053 80.357 149.891 79.898 149.615 79.484C149.339 79.064 148.988 78.728 148.562 78.476C148.136 78.224 147.671 78.098 147.167 78.098C146.663 78.098 146.201 78.221 145.781 78.467C145.361 78.713 145.013 79.046 144.737 79.466C144.467 79.88 144.299 80.345 144.233 80.861Z" fill="#666666"></path></svg>