<svg xmlns="http://www.w3.org/2000/svg" width="433" height="114" viewBox="0 0 433 114" fill="none"><path d="M1.2 22V8H9.45V10.08H3.28V13.46H8.49V15.54H3.28V22H1.2ZM10.3016 12H12.3816V22H10.3016V12ZM11.3616 10.55C11.0416 10.55 10.7749 10.4467 10.5616 10.24C10.3482 10.0333 10.2416 9.77333 10.2416 9.46C10.2416 9.15333 10.3482 8.89667 10.5616 8.69C10.7749 8.47667 11.0382 8.37 11.3516 8.37C11.6582 8.37 11.9182 8.47667 12.1316 8.69C12.3449 8.89667 12.4516 9.15333 12.4516 9.46C12.4516 9.77333 12.3449 10.0333 12.1316 10.24C11.9249 10.4467 11.6682 10.55 11.3616 10.55ZM14.7156 22V12H16.7956V13.06C17.1423 12.6467 17.569 12.32 18.0756 12.08C18.5823 11.84 19.129 11.72 19.7156 11.72C20.089 11.72 20.459 11.77 20.8256 11.87L19.9956 13.97C19.7356 13.87 19.4756 13.82 19.2156 13.82C18.7756 13.82 18.3723 13.93 18.0056 14.15C17.639 14.3633 17.3456 14.6533 17.1256 15.02C16.9056 15.3867 16.7956 15.7933 16.7956 16.24V22H14.7156ZM25.0008 22.19C24.4741 22.1567 23.9608 22.05 23.4608 21.87C22.9608 21.69 22.5208 21.4467 22.1408 21.14C21.7674 20.8267 21.4874 20.46 21.3008 20.04L23.0708 19.28C23.1574 19.46 23.3074 19.6367 23.5208 19.81C23.7408 19.9833 23.9974 20.1267 24.2908 20.24C24.5841 20.3467 24.8908 20.4 25.2108 20.4C25.5241 20.4 25.8141 20.3567 26.0808 20.27C26.3541 20.1767 26.5774 20.0367 26.7508 19.85C26.9241 19.6633 27.0108 19.44 27.0108 19.18C27.0108 18.8867 26.9108 18.66 26.7108 18.5C26.5174 18.3333 26.2741 18.2067 25.9808 18.12C25.6874 18.0333 25.3941 17.95 25.1008 17.87C24.4474 17.7233 23.8474 17.5233 23.3008 17.27C22.7608 17.01 22.3308 16.68 22.0108 16.28C21.6908 15.8733 21.5308 15.3767 21.5308 14.79C21.5308 14.15 21.7041 13.5967 22.0508 13.13C22.3974 12.6567 22.8508 12.2933 23.4108 12.04C23.9774 11.7867 24.5808 11.66 25.2208 11.66C26.0208 11.66 26.7541 11.83 27.4208 12.17C28.0874 12.51 28.5974 12.9767 28.9508 13.57L27.3008 14.55C27.2008 14.35 27.0508 14.17 26.8508 14.01C26.6508 13.85 26.4241 13.7233 26.1708 13.63C25.9174 13.53 25.6541 13.4733 25.3808 13.46C25.0408 13.4467 24.7241 13.4867 24.4308 13.58C24.1441 13.6667 23.9141 13.8067 23.7408 14C23.5674 14.1933 23.4808 14.44 23.4808 14.74C23.4808 15.0333 23.5841 15.2533 23.7908 15.4C23.9974 15.54 24.2574 15.6533 24.5708 15.74C24.8908 15.8267 25.2174 15.9233 25.5508 16.03C26.1441 16.2167 26.7008 16.4467 27.2208 16.72C27.7408 16.9867 28.1608 17.3167 28.4808 17.71C28.8008 18.1033 28.9541 18.5833 28.9408 19.15C28.9408 19.7767 28.7508 20.3267 28.3708 20.8C27.9974 21.2733 27.5108 21.6333 26.9108 21.88C26.3108 22.1267 25.6741 22.23 25.0008 22.19ZM35.9331 14.08H33.8331L33.8231 22H31.7431L31.7531 14.08H30.1631V12H31.7531L31.7431 8.86H33.8231L33.8331 12H35.9331V14.08ZM42.5281 22V8H44.7781L51.2081 18.24V8H53.2881V22H51.0381L44.6081 11.76V22H42.5281ZM63.3355 12H65.4155V22H63.3255L63.2455 20.55C62.9521 21.0633 62.5555 21.4767 62.0555 21.79C61.5555 22.1033 60.9655 22.26 60.2855 22.26C59.5521 22.26 58.8621 22.1233 58.2155 21.85C57.5688 21.57 56.9988 21.1833 56.5055 20.69C56.0188 20.1967 55.6388 19.63 55.3655 18.99C55.0921 18.3433 54.9555 17.65 54.9555 16.91C54.9555 16.1967 55.0888 15.5267 55.3555 14.9C55.6221 14.2667 55.9921 13.7133 56.4655 13.24C56.9388 12.7667 57.4855 12.3967 58.1055 12.13C58.7321 11.8567 59.4021 11.72 60.1155 11.72C60.8421 11.72 61.4821 11.8867 62.0355 12.22C62.5955 12.5467 63.0588 12.9667 63.4255 13.48L63.3355 12ZM60.2355 20.25C60.8221 20.25 61.3355 20.1067 61.7755 19.82C62.2155 19.5267 62.5555 19.1333 62.7955 18.64C63.0421 18.1467 63.1655 17.6 63.1655 17C63.1655 16.3933 63.0421 15.8433 62.7955 15.35C62.5488 14.8567 62.2055 14.4667 61.7655 14.18C61.3321 13.8867 60.8221 13.74 60.2355 13.74C59.6555 13.74 59.1255 13.8867 58.6455 14.18C58.1655 14.4733 57.7855 14.8667 57.5055 15.36C57.2255 15.8533 57.0855 16.4 57.0855 17C57.0855 17.6067 57.2288 18.1567 57.5155 18.65C57.8088 19.1367 58.1921 19.5267 58.6655 19.82C59.1455 20.1067 59.6688 20.25 60.2355 20.25ZM67.4109 22V12H69.4909V13.06C69.8376 12.6467 70.2609 12.32 70.7609 12.08C71.2676 11.84 71.8143 11.72 72.4009 11.72C73.1143 11.72 73.7709 11.8933 74.3709 12.24C74.9709 12.58 75.4476 13.0333 75.8009 13.6C76.1543 13.0333 76.6243 12.58 77.2109 12.24C77.8043 11.8933 78.4576 11.72 79.1709 11.72C79.9109 11.72 80.5843 11.9 81.1909 12.26C81.7976 12.62 82.2809 13.1033 82.6409 13.71C83.0009 14.3167 83.1809 14.99 83.1809 15.73V22H81.1009V16.26C81.1009 15.82 80.9943 15.4167 80.7809 15.05C80.5676 14.6833 80.2809 14.3867 79.9209 14.16C79.5609 13.9333 79.1609 13.82 78.7209 13.82C78.2809 13.82 77.8809 13.9267 77.5209 14.14C77.1609 14.3533 76.8743 14.6433 76.6609 15.01C76.4476 15.3767 76.3409 15.7933 76.3409 16.26V22H74.2609V16.26C74.2609 15.7933 74.1543 15.3767 73.9409 15.01C73.7276 14.6433 73.4376 14.3533 73.0709 14.14C72.7109 13.9267 72.3109 13.82 71.8709 13.82C71.4376 13.82 71.0376 13.9333 70.6709 14.16C70.3109 14.3867 70.0243 14.6833 69.8109 15.05C69.5976 15.4167 69.4909 15.82 69.4909 16.26V22H67.4109ZM89.3891 22.26C88.4691 22.26 87.6291 22.0233 86.8691 21.55C86.1157 21.0767 85.5124 20.4433 85.0591 19.65C84.6124 18.85 84.3891 17.9667 84.3891 17C84.3891 16.2667 84.5191 15.5833 84.7791 14.95C85.0391 14.31 85.3957 13.75 85.8491 13.27C86.3091 12.7833 86.8424 12.4033 87.4491 12.13C88.0557 11.8567 88.7024 11.72 89.3891 11.72C90.1557 11.72 90.8591 11.88 91.4991 12.2C92.1391 12.5133 92.6857 12.95 93.1391 13.51C93.5924 14.0633 93.9257 14.7033 94.1391 15.43C94.3524 16.15 94.4157 16.9167 94.3291 17.73H86.6191C86.7057 18.19 86.8724 18.6067 87.1191 18.98C87.3724 19.3467 87.6924 19.6367 88.0791 19.85C88.4724 20.0633 88.9091 20.1733 89.3891 20.18C89.8957 20.18 90.3557 20.0533 90.7691 19.8C91.1891 19.5467 91.5324 19.1967 91.7991 18.75L93.9091 19.24C93.5091 20.1267 92.9057 20.8533 92.0991 21.42C91.2924 21.98 90.3891 22.26 89.3891 22.26ZM86.5491 16.14H92.2291C92.1624 15.66 91.9924 15.2267 91.7191 14.84C91.4524 14.4467 91.1157 14.1367 90.7091 13.91C90.3091 13.6767 89.8691 13.56 89.3891 13.56C88.9157 13.56 88.4757 13.6733 88.0691 13.9C87.6691 14.1267 87.3357 14.4367 87.0691 14.83C86.8091 15.2167 86.6357 15.6533 86.5491 16.14Z" fill="white"></path><rect x="0.5" y="46.5" width="431.333" height="67" rx="7.5" fill="#1A1A1A"></rect><rect x="0.5" y="46.5" width="431.333" height="67" rx="7.5" stroke="#262626"></rect><path d="M21.08 86V73.4H28.811V74.912H22.592V78.494H27.686V80.006H22.592V84.488H28.811V86H21.08ZM38.7391 80.402V86H37.2271V80.735C37.2271 80.279 37.1161 79.865 36.8941 79.493C36.6721 79.121 36.3751 78.827 36.0031 78.611C35.6311 78.389 35.2171 78.278 34.7611 78.278C34.3111 78.278 33.8971 78.389 33.5191 78.611C33.1471 78.827 32.8501 79.121 32.6281 79.493C32.4061 79.865 32.2951 80.279 32.2951 80.735V86H30.7831V77H32.2951V78.125C32.6131 77.705 33.0151 77.372 33.5011 77.126C33.9871 76.874 34.5151 76.748 35.0851 76.748C35.7571 76.748 36.3691 76.913 36.9211 77.243C37.4791 77.567 37.9201 78.005 38.2441 78.557C38.5741 79.109 38.7391 79.724 38.7391 80.402ZM45.201 78.512H43.158L43.149 86H41.637L41.646 78.512H40.098V77H41.646L41.637 74.174H43.149L43.158 77H45.201V78.512ZM50.5459 86.234C49.7179 86.234 48.9619 86.021 48.2779 85.595C47.5999 85.169 47.0569 84.599 46.6489 83.885C46.2469 83.165 46.0459 82.37 46.0459 81.5C46.0459 80.84 46.1629 80.225 46.3969 79.655C46.6309 79.079 46.9519 78.575 47.3599 78.143C47.7739 77.705 48.2539 77.363 48.7999 77.117C49.3459 76.871 49.9279 76.748 50.5459 76.748C51.2239 76.748 51.8449 76.886 52.4089 77.162C52.9789 77.432 53.4649 77.81 53.8669 78.296C54.2749 78.782 54.5779 79.346 54.7759 79.988C54.9799 80.63 55.0549 81.317 55.0009 82.049H47.6569C47.7289 82.559 47.8969 83.015 48.1609 83.417C48.4249 83.813 48.7609 84.128 49.1689 84.362C49.5829 84.596 50.0419 84.716 50.5459 84.722C51.0859 84.722 51.5749 84.584 52.0129 84.308C52.4509 84.026 52.8049 83.642 53.0749 83.156L54.6139 83.516C54.2539 84.314 53.7109 84.968 52.9849 85.478C52.2589 85.982 51.4459 86.234 50.5459 86.234ZM47.6119 80.861H53.4799C53.4319 80.357 53.2699 79.898 52.9939 79.484C52.7179 79.064 52.3669 78.728 51.9409 78.476C51.5149 78.224 51.0499 78.098 50.5459 78.098C50.0419 78.098 49.5799 78.221 49.1599 78.467C48.7399 78.713 48.3919 79.046 48.1159 79.466C47.8459 79.88 47.6779 80.345 47.6119 80.861ZM56.5175 86V77H58.0295V78.125C58.3475 77.705 58.7495 77.372 59.2355 77.126C59.7215 76.874 60.2495 76.748 60.8195 76.748C61.1675 76.748 61.5035 76.793 61.8275 76.883L61.2155 78.395C60.9695 78.317 60.7295 78.278 60.4955 78.278C60.0455 78.278 59.6315 78.389 59.2535 78.611C58.8815 78.827 58.5845 79.121 58.3625 79.493C58.1405 79.865 58.0295 80.279 58.0295 80.735V86H56.5175ZM67.4159 86V73.4H74.8049V74.912H68.9279V78.494H73.9409V80.006H68.9279V86H67.4159ZM75.5546 77H77.0666V86H75.5546V77ZM76.3286 75.533C76.0886 75.533 75.8876 75.455 75.7256 75.299C75.5636 75.143 75.4826 74.948 75.4826 74.714C75.4826 74.48 75.5636 74.285 75.7256 74.129C75.8876 73.973 76.0856 73.895 76.3196 73.895C76.5536 73.895 76.7516 73.973 76.9136 74.129C77.0756 74.285 77.1566 74.48 77.1566 74.714C77.1566 74.948 77.0756 75.143 76.9136 75.299C76.7576 75.455 76.5626 75.533 76.3286 75.533ZM79.1933 86V77H80.7053V78.125C81.0233 77.705 81.4253 77.372 81.9113 77.126C82.3973 76.874 82.9253 76.748 83.4953 76.748C83.8433 76.748 84.1793 76.793 84.5033 76.883L83.8913 78.395C83.6453 78.317 83.4053 78.278 83.1713 78.278C82.7213 78.278 82.3073 78.389 81.9293 78.611C81.5573 78.827 81.2603 79.121 81.0383 79.493C80.8163 79.865 80.7053 80.279 80.7053 80.735V86H79.1933ZM88.3543 86.171C87.8683 86.153 87.3943 86.063 86.9323 85.901C86.4763 85.733 86.0743 85.508 85.7263 85.226C85.3843 84.938 85.1353 84.608 84.9793 84.236L86.2753 83.678C86.3653 83.882 86.5273 84.074 86.7613 84.254C86.9953 84.434 87.2653 84.578 87.5713 84.686C87.8773 84.794 88.1863 84.848 88.4983 84.848C88.8283 84.848 89.1373 84.797 89.4253 84.695C89.7133 84.593 89.9473 84.443 90.1273 84.245C90.3133 84.041 90.4063 83.798 90.4063 83.516C90.4063 83.216 90.3043 82.982 90.1003 82.814C89.9023 82.64 89.6503 82.505 89.3443 82.409C89.0443 82.307 88.7383 82.211 88.4263 82.121C87.8083 81.965 87.2563 81.779 86.7703 81.563C86.2843 81.341 85.9003 81.062 85.6183 80.726C85.3423 80.384 85.2043 79.949 85.2043 79.421C85.2043 78.863 85.3573 78.38 85.6633 77.972C85.9753 77.564 86.3833 77.249 86.8873 77.027C87.3913 76.805 87.9313 76.694 88.5073 76.694C89.2333 76.694 89.8963 76.85 90.4963 77.162C91.0963 77.474 91.5433 77.897 91.8373 78.431L90.6223 79.142C90.5203 78.926 90.3643 78.737 90.1543 78.575C89.9443 78.407 89.7043 78.275 89.4343 78.179C89.1643 78.083 88.8883 78.032 88.6063 78.026C88.2583 78.014 87.9313 78.059 87.6253 78.161C87.3253 78.263 87.0823 78.419 86.8963 78.629C86.7163 78.833 86.6263 79.088 86.6263 79.394C86.6263 79.694 86.7223 79.922 86.9143 80.078C87.1123 80.234 87.3673 80.36 87.6793 80.456C87.9973 80.546 88.3423 80.651 88.7143 80.771C89.2603 80.945 89.7703 81.146 90.2443 81.374C90.7183 81.602 91.0993 81.887 91.3873 82.229C91.6813 82.571 91.8253 82.994 91.8193 83.498C91.8193 84.05 91.6543 84.533 91.3243 84.947C90.9943 85.355 90.5653 85.667 90.0373 85.883C89.5153 86.099 88.9543 86.195 88.3543 86.171ZM98.0233 78.512H95.9803L95.9713 86H94.4593L94.4683 78.512H92.9203V77H94.4683L94.4593 74.174H95.9713L95.9803 77H98.0233V78.512ZM103.961 86V73.4H105.599L111.89 83.264V73.4H113.402V86H111.773L105.473 76.136V86H103.961ZM122.711 77H124.223V86H122.711L122.648 84.479C122.366 85.001 121.976 85.424 121.478 85.748C120.986 86.072 120.398 86.234 119.714 86.234C119.054 86.234 118.436 86.111 117.86 85.865C117.284 85.613 116.774 85.268 116.33 84.83C115.892 84.386 115.55 83.876 115.304 83.3C115.058 82.724 114.935 82.103 114.935 81.437C114.935 80.795 115.055 80.189 115.295 79.619C115.535 79.049 115.868 78.551 116.294 78.125C116.726 77.693 117.224 77.357 117.788 77.117C118.352 76.871 118.958 76.748 119.606 76.748C120.314 76.748 120.935 76.916 121.469 77.252C122.003 77.582 122.435 78.011 122.765 78.539L122.711 77ZM119.687 84.767C120.281 84.767 120.794 84.623 121.226 84.335C121.664 84.041 122 83.645 122.234 83.147C122.474 82.649 122.594 82.1 122.594 81.5C122.594 80.888 122.474 80.336 122.234 79.844C121.994 79.346 121.655 78.953 121.217 78.665C120.785 78.371 120.275 78.224 119.687 78.224C119.093 78.224 118.553 78.371 118.067 78.665C117.581 78.959 117.194 79.355 116.906 79.853C116.624 80.345 116.483 80.894 116.483 81.5C116.483 82.106 116.63 82.658 116.924 83.156C117.218 83.648 117.608 84.041 118.094 84.335C118.58 84.623 119.111 84.767 119.687 84.767ZM126.021 86V77H127.533V78.125C127.851 77.705 128.25 77.372 128.73 77.126C129.216 76.874 129.744 76.748 130.314 76.748C130.98 76.748 131.589 76.91 132.141 77.234C132.693 77.558 133.128 77.987 133.446 78.521C133.764 77.987 134.196 77.558 134.742 77.234C135.294 76.91 135.9 76.748 136.56 76.748C137.238 76.748 137.853 76.913 138.405 77.243C138.957 77.567 139.395 78.005 139.719 78.557C140.049 79.109 140.214 79.724 140.214 80.402V86H138.702V80.762C138.702 80.318 138.594 79.907 138.378 79.529C138.162 79.151 137.871 78.848 137.505 78.62C137.139 78.392 136.734 78.278 136.29 78.278C135.846 78.278 135.441 78.386 135.075 78.602C134.709 78.812 134.418 79.106 134.202 79.484C133.986 79.856 133.878 80.282 133.878 80.762V86H132.366V80.762C132.366 80.282 132.258 79.856 132.042 79.484C131.826 79.106 131.532 78.812 131.16 78.602C130.794 78.386 130.389 78.278 129.945 78.278C129.507 78.278 129.102 78.392 128.73 78.62C128.364 78.848 128.073 79.151 127.857 79.529C127.641 79.907 127.533 80.318 127.533 80.762V86H126.021ZM145.802 86.234C144.974 86.234 144.218 86.021 143.534 85.595C142.856 85.169 142.313 84.599 141.905 83.885C141.503 83.165 141.302 82.37 141.302 81.5C141.302 80.84 141.419 80.225 141.653 79.655C141.887 79.079 142.208 78.575 142.616 78.143C143.03 77.705 143.51 77.363 144.056 77.117C144.602 76.871 145.184 76.748 145.802 76.748C146.48 76.748 147.101 76.886 147.665 77.162C148.235 77.432 148.721 77.81 149.123 78.296C149.531 78.782 149.834 79.346 150.032 79.988C150.236 80.63 150.311 81.317 150.257 82.049H142.913C142.985 82.559 143.153 83.015 143.417 83.417C143.681 83.813 144.017 84.128 144.425 84.362C144.839 84.596 145.298 84.716 145.802 84.722C146.342 84.722 146.831 84.584 147.269 84.308C147.707 84.026 148.061 83.642 148.331 83.156L149.87 83.516C149.51 84.314 148.967 84.968 148.241 85.478C147.515 85.982 146.702 86.234 145.802 86.234ZM142.868 80.861H148.736C148.688 80.357 148.526 79.898 148.25 79.484C147.974 79.064 147.623 78.728 147.197 78.476C146.771 78.224 146.306 78.098 145.802 78.098C145.298 78.098 144.836 78.221 144.416 78.467C143.996 78.713 143.648 79.046 143.372 79.466C143.102 79.88 142.934 80.345 142.868 80.861Z" fill="#666666"></path></svg>