<svg xmlns="http://www.w3.org/2000/svg" width="433" height="114" viewBox="0 0 433 114" fill="none"><path d="M1.53203 22V8H3.61203V19.92H9.64203V22H1.53203ZM18.7261 12H20.8061V22H18.7161L18.6361 20.55C18.3428 21.0633 17.9461 21.4767 17.4461 21.79C16.9461 22.1033 16.3561 22.26 15.6761 22.26C14.9428 22.26 14.2528 22.1233 13.6061 21.85C12.9594 21.57 12.3894 21.1833 11.8961 20.69C11.4094 20.1967 11.0294 19.63 10.7561 18.99C10.4828 18.3433 10.3461 17.65 10.3461 16.91C10.3461 16.1967 10.4794 15.5267 10.7461 14.9C11.0128 14.2667 11.3828 13.7133 11.8561 13.24C12.3294 12.7667 12.8761 12.3967 13.4961 12.13C14.1228 11.8567 14.7928 11.72 15.5061 11.72C16.2328 11.72 16.8728 11.8867 17.4261 12.22C17.9861 12.5467 18.4494 12.9667 18.8161 13.48L18.7261 12ZM15.6261 20.25C16.2128 20.25 16.7261 20.1067 17.1661 19.82C17.6061 19.5267 17.9461 19.1333 18.1861 18.64C18.4328 18.1467 18.5561 17.6 18.5561 17C18.5561 16.3933 18.4328 15.8433 18.1861 15.35C17.9394 14.8567 17.5961 14.4667 17.1561 14.18C16.7228 13.8867 16.2128 13.74 15.6261 13.74C15.0461 13.74 14.5161 13.8867 14.0361 14.18C13.5561 14.4733 13.1761 14.8667 12.8961 15.36C12.6161 15.8533 12.4761 16.4 12.4761 17C12.4761 17.6067 12.6194 18.1567 12.9061 18.65C13.1994 19.1367 13.5828 19.5267 14.0561 19.82C14.5361 20.1067 15.0594 20.25 15.6261 20.25ZM25.8016 22.19C25.2749 22.1567 24.7616 22.05 24.2616 21.87C23.7616 21.69 23.3216 21.4467 22.9416 21.14C22.5682 20.8267 22.2882 20.46 22.1016 20.04L23.8716 19.28C23.9582 19.46 24.1082 19.6367 24.3216 19.81C24.5416 19.9833 24.7982 20.1267 25.0916 20.24C25.3849 20.3467 25.6916 20.4 26.0116 20.4C26.3249 20.4 26.6149 20.3567 26.8816 20.27C27.1549 20.1767 27.3782 20.0367 27.5516 19.85C27.7249 19.6633 27.8116 19.44 27.8116 19.18C27.8116 18.8867 27.7116 18.66 27.5116 18.5C27.3182 18.3333 27.0749 18.2067 26.7816 18.12C26.4882 18.0333 26.1949 17.95 25.9016 17.87C25.2482 17.7233 24.6482 17.5233 24.1016 17.27C23.5616 17.01 23.1316 16.68 22.8116 16.28C22.4916 15.8733 22.3316 15.3767 22.3316 14.79C22.3316 14.15 22.5049 13.5967 22.8516 13.13C23.1982 12.6567 23.6516 12.2933 24.2116 12.04C24.7782 11.7867 25.3816 11.66 26.0216 11.66C26.8216 11.66 27.5549 11.83 28.2216 12.17C28.8882 12.51 29.3982 12.9767 29.7516 13.57L28.1016 14.55C28.0016 14.35 27.8516 14.17 27.6516 14.01C27.4516 13.85 27.2249 13.7233 26.9716 13.63C26.7182 13.53 26.4549 13.4733 26.1816 13.46C25.8416 13.4467 25.5249 13.4867 25.2316 13.58C24.9449 13.6667 24.7149 13.8067 24.5416 14C24.3682 14.1933 24.2816 14.44 24.2816 14.74C24.2816 15.0333 24.3849 15.2533 24.5916 15.4C24.7982 15.54 25.0582 15.6533 25.3716 15.74C25.6916 15.8267 26.0182 15.9233 26.3516 16.03C26.9449 16.2167 27.5016 16.4467 28.0216 16.72C28.5416 16.9867 28.9616 17.3167 29.2816 17.71C29.6016 18.1033 29.7549 18.5833 29.7416 19.15C29.7416 19.7767 29.5516 20.3267 29.1716 20.8C28.7982 21.2733 28.3116 21.6333 27.7116 21.88C27.1116 22.1267 26.4749 22.23 25.8016 22.19ZM36.7339 14.08H34.6339L34.6239 22H32.5439L32.5539 14.08H30.9639V12H32.5539L32.5439 8.86H34.6239L34.6339 12H36.7339V14.08ZM43.3289 22V8H45.5789L52.0089 18.24V8H54.0889V22H51.8389L45.4089 11.76V22H43.3289ZM64.1363 12H66.2163V22H64.1263L64.0463 20.55C63.7529 21.0633 63.3563 21.4767 62.8563 21.79C62.3563 22.1033 61.7663 22.26 61.0863 22.26C60.3529 22.26 59.6629 22.1233 59.0163 21.85C58.3696 21.57 57.7996 21.1833 57.3063 20.69C56.8196 20.1967 56.4396 19.63 56.1663 18.99C55.8929 18.3433 55.7563 17.65 55.7563 16.91C55.7563 16.1967 55.8896 15.5267 56.1563 14.9C56.4229 14.2667 56.7929 13.7133 57.2663 13.24C57.7396 12.7667 58.2863 12.3967 58.9063 12.13C59.5329 11.8567 60.2029 11.72 60.9163 11.72C61.6429 11.72 62.2829 11.8867 62.8363 12.22C63.3963 12.5467 63.8596 12.9667 64.2263 13.48L64.1363 12ZM61.0362 20.25C61.6229 20.25 62.1363 20.1067 62.5763 19.82C63.0163 19.5267 63.3563 19.1333 63.5963 18.64C63.8429 18.1467 63.9663 17.6 63.9663 17C63.9663 16.3933 63.8429 15.8433 63.5963 15.35C63.3496 14.8567 63.0063 14.4667 62.5663 14.18C62.1329 13.8867 61.6229 13.74 61.0362 13.74C60.4563 13.74 59.9263 13.8867 59.4463 14.18C58.9663 14.4733 58.5863 14.8667 58.3063 15.36C58.0263 15.8533 57.8863 16.4 57.8863 17C57.8863 17.6067 58.0296 18.1567 58.3163 18.65C58.6096 19.1367 58.9929 19.5267 59.4663 19.82C59.9463 20.1067 60.4696 20.25 61.0362 20.25ZM68.2117 22V12H70.2917V13.06C70.6384 12.6467 71.0617 12.32 71.5617 12.08C72.0684 11.84 72.6151 11.72 73.2017 11.72C73.9151 11.72 74.5717 11.8933 75.1717 12.24C75.7717 12.58 76.2484 13.0333 76.6017 13.6C76.9551 13.0333 77.4251 12.58 78.0117 12.24C78.6051 11.8933 79.2584 11.72 79.9717 11.72C80.7117 11.72 81.3851 11.9 81.9917 12.26C82.5984 12.62 83.0817 13.1033 83.4417 13.71C83.8017 14.3167 83.9817 14.99 83.9817 15.73V22H81.9017V16.26C81.9017 15.82 81.7951 15.4167 81.5817 15.05C81.3684 14.6833 81.0817 14.3867 80.7217 14.16C80.3617 13.9333 79.9617 13.82 79.5217 13.82C79.0817 13.82 78.6817 13.9267 78.3217 14.14C77.9617 14.3533 77.6751 14.6433 77.4617 15.01C77.2484 15.3767 77.1417 15.7933 77.1417 16.26V22H75.0617V16.26C75.0617 15.7933 74.9551 15.3767 74.7417 15.01C74.5284 14.6433 74.2384 14.3533 73.8717 14.14C73.5117 13.9267 73.1117 13.82 72.6717 13.82C72.2384 13.82 71.8384 13.9333 71.4717 14.16C71.1117 14.3867 70.8251 14.6833 70.6117 15.05C70.3984 15.4167 70.2917 15.82 70.2917 16.26V22H68.2117ZM90.1898 22.26C89.2698 22.26 88.4298 22.0233 87.6698 21.55C86.9165 21.0767 86.3132 20.4433 85.8598 19.65C85.4132 18.85 85.1898 17.9667 85.1898 17C85.1898 16.2667 85.3198 15.5833 85.5798 14.95C85.8398 14.31 86.1965 13.75 86.6498 13.27C87.1098 12.7833 87.6432 12.4033 88.2498 12.13C88.8565 11.8567 89.5032 11.72 90.1898 11.72C90.9565 11.72 91.6598 11.88 92.2998 12.2C92.9398 12.5133 93.4865 12.95 93.9398 13.51C94.3932 14.0633 94.7265 14.7033 94.9398 15.43C95.1532 16.15 95.2165 16.9167 95.1298 17.73H87.4198C87.5065 18.19 87.6732 18.6067 87.9198 18.98C88.1732 19.3467 88.4932 19.6367 88.8798 19.85C89.2732 20.0633 89.7098 20.1733 90.1898 20.18C90.6965 20.18 91.1565 20.0533 91.5698 19.8C91.9898 19.5467 92.3332 19.1967 92.5998 18.75L94.7098 19.24C94.3098 20.1267 93.7065 20.8533 92.8998 21.42C92.0932 21.98 91.1898 22.26 90.1898 22.26ZM87.3498 16.14H93.0298C92.9632 15.66 92.7932 15.2267 92.5198 14.84C92.2532 14.4467 91.9165 14.1367 91.5098 13.91C91.1098 13.6767 90.6698 13.56 90.1898 13.56C89.7165 13.56 89.2765 13.6733 88.8698 13.9C88.4698 14.1267 88.1365 14.4367 87.8698 14.83C87.6098 15.2167 87.4365 15.6533 87.3498 16.14Z" fill="white"></path><rect x="0.832031" y="46.5" width="431.333" height="67" rx="7.5" fill="#1A1A1A"></rect><rect x="0.832031" y="46.5" width="431.333" height="67" rx="7.5" stroke="#262626"></rect><path d="M21.412 86V73.4H29.143V74.912H22.924V78.494H28.018V80.006H22.924V84.488H29.143V86H21.412ZM39.0712 80.402V86H37.5592V80.735C37.5592 80.279 37.4482 79.865 37.2262 79.493C37.0042 79.121 36.7072 78.827 36.3352 78.611C35.9632 78.389 35.5492 78.278 35.0932 78.278C34.6432 78.278 34.2292 78.389 33.8512 78.611C33.4792 78.827 33.1822 79.121 32.9602 79.493C32.7382 79.865 32.6272 80.279 32.6272 80.735V86H31.1152V77H32.6272V78.125C32.9452 77.705 33.3472 77.372 33.8332 77.126C34.3192 76.874 34.8472 76.748 35.4172 76.748C36.0892 76.748 36.7012 76.913 37.2532 77.243C37.8112 77.567 38.2522 78.005 38.5762 78.557C38.9062 79.109 39.0712 79.724 39.0712 80.402ZM45.533 78.512H43.49L43.481 86H41.969L41.978 78.512H40.43V77H41.978L41.969 74.174H43.481L43.49 77H45.533V78.512ZM50.8779 86.234C50.0499 86.234 49.2939 86.021 48.6099 85.595C47.9319 85.169 47.3889 84.599 46.9809 83.885C46.5789 83.165 46.3779 82.37 46.3779 81.5C46.3779 80.84 46.4949 80.225 46.7289 79.655C46.9629 79.079 47.2839 78.575 47.6919 78.143C48.1059 77.705 48.5859 77.363 49.1319 77.117C49.6779 76.871 50.2599 76.748 50.8779 76.748C51.5559 76.748 52.1769 76.886 52.7409 77.162C53.3109 77.432 53.7969 77.81 54.1989 78.296C54.6069 78.782 54.9099 79.346 55.1079 79.988C55.3119 80.63 55.3869 81.317 55.3329 82.049H47.9889C48.0609 82.559 48.2289 83.015 48.4929 83.417C48.7569 83.813 49.0929 84.128 49.5009 84.362C49.9149 84.596 50.3739 84.716 50.8779 84.722C51.4179 84.722 51.9069 84.584 52.3449 84.308C52.7829 84.026 53.1369 83.642 53.4069 83.156L54.9459 83.516C54.5859 84.314 54.0429 84.968 53.3169 85.478C52.5909 85.982 51.7779 86.234 50.8779 86.234ZM47.9439 80.861H53.8119C53.7639 80.357 53.6019 79.898 53.3259 79.484C53.0499 79.064 52.6989 78.728 52.2729 78.476C51.8469 78.224 51.3819 78.098 50.8779 78.098C50.3739 78.098 49.9119 78.221 49.4919 78.467C49.0719 78.713 48.7239 79.046 48.4479 79.466C48.1779 79.88 48.0099 80.345 47.9439 80.861ZM56.8495 86V77H58.3615V78.125C58.6795 77.705 59.0815 77.372 59.5675 77.126C60.0535 76.874 60.5815 76.748 61.1515 76.748C61.4995 76.748 61.8355 76.793 62.1595 76.883L61.5475 78.395C61.3015 78.317 61.0615 78.278 60.8275 78.278C60.3775 78.278 59.9635 78.389 59.5855 78.611C59.2135 78.827 58.9165 79.121 58.6945 79.493C58.4725 79.865 58.3615 80.279 58.3615 80.735V86H56.8495ZM67.748 86V73.4H69.26V84.488H74.903V86H67.748ZM83.2457 77H84.7577V86H83.2457L83.1827 84.479C82.9007 85.001 82.5107 85.424 82.0127 85.748C81.5207 86.072 80.9327 86.234 80.2487 86.234C79.5887 86.234 78.9707 86.111 78.3947 85.865C77.8187 85.613 77.3087 85.268 76.8647 84.83C76.4267 84.386 76.0847 83.876 75.8387 83.3C75.5927 82.724 75.4697 82.103 75.4697 81.437C75.4697 80.795 75.5897 80.189 75.8297 79.619C76.0697 79.049 76.4027 78.551 76.8287 78.125C77.2607 77.693 77.7587 77.357 78.3227 77.117C78.8867 76.871 79.4927 76.748 80.1407 76.748C80.8487 76.748 81.4697 76.916 82.0037 77.252C82.5377 77.582 82.9697 78.011 83.2997 78.539L83.2457 77ZM80.2217 84.767C80.8157 84.767 81.3287 84.623 81.7607 84.335C82.1987 84.041 82.5347 83.645 82.7687 83.147C83.0087 82.649 83.1287 82.1 83.1287 81.5C83.1287 80.888 83.0087 80.336 82.7687 79.844C82.5287 79.346 82.1897 78.953 81.7517 78.665C81.3197 78.371 80.8097 78.224 80.2217 78.224C79.6277 78.224 79.0877 78.371 78.6017 78.665C78.1157 78.959 77.7287 79.355 77.4407 79.853C77.1587 80.345 77.0177 80.894 77.0177 81.5C77.0177 82.106 77.1647 82.658 77.4587 83.156C77.7527 83.648 78.1427 84.041 78.6287 84.335C79.1147 84.623 79.6457 84.767 80.2217 84.767ZM89.3016 86.171C88.8156 86.153 88.3416 86.063 87.8796 85.901C87.4236 85.733 87.0216 85.508 86.6736 85.226C86.3316 84.938 86.0826 84.608 85.9266 84.236L87.2226 83.678C87.3126 83.882 87.4746 84.074 87.7086 84.254C87.9426 84.434 88.2126 84.578 88.5186 84.686C88.8246 84.794 89.1336 84.848 89.4456 84.848C89.7756 84.848 90.0846 84.797 90.3726 84.695C90.6606 84.593 90.8946 84.443 91.0746 84.245C91.2606 84.041 91.3536 83.798 91.3536 83.516C91.3536 83.216 91.2516 82.982 91.0476 82.814C90.8496 82.64 90.5976 82.505 90.2916 82.409C89.9916 82.307 89.6856 82.211 89.3736 82.121C88.7556 81.965 88.2036 81.779 87.7176 81.563C87.2316 81.341 86.8476 81.062 86.5656 80.726C86.2896 80.384 86.1516 79.949 86.1516 79.421C86.1516 78.863 86.3046 78.38 86.6106 77.972C86.9226 77.564 87.3306 77.249 87.8346 77.027C88.3386 76.805 88.8786 76.694 89.4546 76.694C90.1806 76.694 90.8436 76.85 91.4436 77.162C92.0436 77.474 92.4906 77.897 92.7846 78.431L91.5696 79.142C91.4676 78.926 91.3116 78.737 91.1016 78.575C90.8916 78.407 90.6516 78.275 90.3816 78.179C90.1116 78.083 89.8356 78.032 89.5536 78.026C89.2056 78.014 88.8786 78.059 88.5726 78.161C88.2726 78.263 88.0296 78.419 87.8436 78.629C87.6636 78.833 87.5736 79.088 87.5736 79.394C87.5736 79.694 87.6696 79.922 87.8616 80.078C88.0596 80.234 88.3146 80.36 88.6266 80.456C88.9446 80.546 89.2896 80.651 89.6616 80.771C90.2076 80.945 90.7176 81.146 91.1916 81.374C91.6656 81.602 92.0466 81.887 92.3346 82.229C92.6286 82.571 92.7726 82.994 92.7666 83.498C92.7666 84.05 92.6016 84.533 92.2716 84.947C91.9416 85.355 91.5126 85.667 90.9846 85.883C90.4626 86.099 89.9016 86.195 89.3016 86.171ZM98.9705 78.512H96.9275L96.9185 86H95.4065L95.4155 78.512H93.8675V77H95.4155L95.4065 74.174H96.9185L96.9275 77H98.9705V78.512ZM104.908 86V73.4H106.546L112.837 83.264V73.4H114.349V86H112.72L106.42 76.136V86H104.908ZM123.658 77H125.17V86H123.658L123.595 84.479C123.313 85.001 122.923 85.424 122.425 85.748C121.933 86.072 121.345 86.234 120.661 86.234C120.001 86.234 119.383 86.111 118.807 85.865C118.231 85.613 117.721 85.268 117.277 84.83C116.839 84.386 116.497 83.876 116.251 83.3C116.005 82.724 115.882 82.103 115.882 81.437C115.882 80.795 116.002 80.189 116.242 79.619C116.482 79.049 116.815 78.551 117.241 78.125C117.673 77.693 118.171 77.357 118.735 77.117C119.299 76.871 119.905 76.748 120.553 76.748C121.261 76.748 121.882 76.916 122.416 77.252C122.95 77.582 123.382 78.011 123.712 78.539L123.658 77ZM120.634 84.767C121.228 84.767 121.741 84.623 122.173 84.335C122.611 84.041 122.947 83.645 123.181 83.147C123.421 82.649 123.541 82.1 123.541 81.5C123.541 80.888 123.421 80.336 123.181 79.844C122.941 79.346 122.602 78.953 122.164 78.665C121.732 78.371 121.222 78.224 120.634 78.224C120.04 78.224 119.5 78.371 119.014 78.665C118.528 78.959 118.141 79.355 117.853 79.853C117.571 80.345 117.43 80.894 117.43 81.5C117.43 82.106 117.577 82.658 117.871 83.156C118.165 83.648 118.555 84.041 119.041 84.335C119.527 84.623 120.058 84.767 120.634 84.767ZM126.969 86V77H128.481V78.125C128.799 77.705 129.198 77.372 129.678 77.126C130.164 76.874 130.692 76.748 131.262 76.748C131.928 76.748 132.537 76.91 133.089 77.234C133.641 77.558 134.076 77.987 134.394 78.521C134.712 77.987 135.144 77.558 135.69 77.234C136.242 76.91 136.848 76.748 137.508 76.748C138.186 76.748 138.801 76.913 139.353 77.243C139.905 77.567 140.343 78.005 140.667 78.557C140.997 79.109 141.162 79.724 141.162 80.402V86H139.65V80.762C139.65 80.318 139.542 79.907 139.326 79.529C139.11 79.151 138.819 78.848 138.453 78.62C138.087 78.392 137.682 78.278 137.238 78.278C136.794 78.278 136.389 78.386 136.023 78.602C135.657 78.812 135.366 79.106 135.15 79.484C134.934 79.856 134.826 80.282 134.826 80.762V86H133.314V80.762C133.314 80.282 133.206 79.856 132.99 79.484C132.774 79.106 132.48 78.812 132.108 78.602C131.742 78.386 131.337 78.278 130.893 78.278C130.455 78.278 130.05 78.392 129.678 78.62C129.312 78.848 129.021 79.151 128.805 79.529C128.589 79.907 128.481 80.318 128.481 80.762V86H126.969ZM146.749 86.234C145.921 86.234 145.165 86.021 144.481 85.595C143.803 85.169 143.26 84.599 142.852 83.885C142.45 83.165 142.249 82.37 142.249 81.5C142.249 80.84 142.366 80.225 142.6 79.655C142.834 79.079 143.155 78.575 143.563 78.143C143.977 77.705 144.457 77.363 145.003 77.117C145.549 76.871 146.131 76.748 146.749 76.748C147.427 76.748 148.048 76.886 148.612 77.162C149.182 77.432 149.668 77.81 150.07 78.296C150.478 78.782 150.781 79.346 150.979 79.988C151.183 80.63 151.258 81.317 151.204 82.049H143.86C143.932 82.559 144.1 83.015 144.364 83.417C144.628 83.813 144.964 84.128 145.372 84.362C145.786 84.596 146.245 84.716 146.749 84.722C147.289 84.722 147.778 84.584 148.216 84.308C148.654 84.026 149.008 83.642 149.278 83.156L150.817 83.516C150.457 84.314 149.914 84.968 149.188 85.478C148.462 85.982 147.649 86.234 146.749 86.234ZM143.815 80.861H149.683C149.635 80.357 149.473 79.898 149.197 79.484C148.921 79.064 148.57 78.728 148.144 78.476C147.718 78.224 147.253 78.098 146.749 78.098C146.245 78.098 145.783 78.221 145.363 78.467C144.943 78.713 144.595 79.046 144.319 79.466C144.049 79.88 143.881 80.345 143.815 80.861Z" fill="#666666"></path></svg>