<svg xmlns="http://www.w3.org/2000/svg" width="312" height="114" viewBox="0 0 312 114" fill="none"><path d="M1.45 22V8H3.7L10.13 18.24V8H12.21V22H9.96L3.53 11.76V22H1.45ZM18.8773 22.26C17.9573 22.26 17.1173 22.0233 16.3573 21.55C15.604 21.0767 15.0007 20.4433 14.5473 19.65C14.1007 18.85 13.8773 17.9667 13.8773 17C13.8773 16.2667 14.0073 15.5833 14.2673 14.95C14.5273 14.31 14.884 13.75 15.3373 13.27C15.7973 12.7833 16.3307 12.4033 16.9373 12.13C17.544 11.8567 18.1907 11.72 18.8773 11.72C19.7973 11.72 20.634 11.9567 21.3873 12.43C22.1473 12.9033 22.7507 13.54 23.1973 14.34C23.6507 15.14 23.8773 16.0267 23.8773 17C23.8773 17.7267 23.7473 18.4067 23.4873 19.04C23.2273 19.6733 22.8673 20.2333 22.4073 20.72C21.954 21.2 21.424 21.5767 20.8173 21.85C20.2173 22.1233 19.5707 22.26 18.8773 22.26ZM18.8773 20.18C19.4307 20.18 19.9273 20.0333 20.3673 19.74C20.8073 19.4467 21.154 19.06 21.4073 18.58C21.6673 18.0933 21.7973 17.5667 21.7973 17C21.7973 16.42 21.664 15.8867 21.3973 15.4C21.1373 14.9133 20.7873 14.5267 20.3473 14.24C19.9073 13.9467 19.4173 13.8 18.8773 13.8C18.3307 13.8 17.834 13.9467 17.3873 14.24C16.9473 14.5333 16.5973 14.9233 16.3373 15.41C16.084 15.8967 15.9573 16.4267 15.9573 17C15.9573 17.5933 16.0907 18.13 16.3573 18.61C16.624 19.09 16.9773 19.4733 17.4173 19.76C17.864 20.04 18.3507 20.18 18.8773 20.18ZM26.1634 22.26C25.8568 22.26 25.5968 22.1533 25.3834 21.94C25.1768 21.7267 25.0734 21.4667 25.0734 21.16C25.0734 20.86 25.1768 20.6033 25.3834 20.39C25.5968 20.1767 25.8568 20.07 26.1634 20.07C26.4701 20.07 26.7301 20.1767 26.9434 20.39C27.1568 20.6033 27.2634 20.86 27.2634 21.16C27.2634 21.4667 27.1568 21.7267 26.9434 21.94C26.7301 22.1533 26.4701 22.26 26.1634 22.26ZM38.8773 22.26C37.9573 22.26 37.1173 22.0233 36.3573 21.55C35.604 21.0767 35.0007 20.4433 34.5473 19.65C34.1007 18.85 33.8773 17.9667 33.8773 17C33.8773 16.2667 34.0073 15.5833 34.2673 14.95C34.5273 14.31 34.884 13.75 35.3373 13.27C35.7973 12.7833 36.3307 12.4033 36.9373 12.13C37.544 11.8567 38.1907 11.72 38.8773 11.72C39.7973 11.72 40.634 11.9567 41.3873 12.43C42.1473 12.9033 42.7507 13.54 43.1973 14.34C43.6507 15.14 43.8773 16.0267 43.8773 17C43.8773 17.7267 43.7473 18.4067 43.4873 19.04C43.2273 19.6733 42.8673 20.2333 42.4073 20.72C41.954 21.2 41.424 21.5767 40.8173 21.85C40.2173 22.1233 39.5707 22.26 38.8773 22.26ZM38.8773 20.18C39.4307 20.18 39.9273 20.0333 40.3673 19.74C40.8073 19.4467 41.154 19.06 41.4073 18.58C41.6673 18.0933 41.7973 17.5667 41.7973 17C41.7973 16.42 41.664 15.8867 41.3973 15.4C41.1373 14.9133 40.7873 14.5267 40.3473 14.24C39.9073 13.9467 39.4173 13.8 38.8773 13.8C38.3307 13.8 37.834 13.9467 37.3873 14.24C36.9473 14.5333 36.5973 14.9233 36.3373 15.41C36.084 15.8967 35.9573 16.4267 35.9573 17C35.9573 17.5933 36.0907 18.13 36.3573 18.61C36.624 19.09 36.9773 19.4733 37.4173 19.76C37.864 20.04 38.3507 20.18 38.8773 20.18ZM48.2388 9.73V12H51.0588V14.08H48.2388V22H46.1588V14.08H44.9688V12H46.1588V9.73C46.1588 9.18333 46.2921 8.68667 46.5588 8.24C46.8254 7.78667 47.1821 7.42667 47.6288 7.16C48.0821 6.89333 48.5854 6.76 49.1388 6.76C49.5388 6.76 49.9288 6.84 50.3088 7C50.6888 7.16 51.0288 7.40667 51.3288 7.74L49.8388 9.21C49.7654 9.09 49.6621 9 49.5288 8.94C49.4021 8.87333 49.2721 8.84 49.1388 8.84C48.8921 8.84 48.6788 8.92667 48.4988 9.1C48.3254 9.27333 48.2388 9.48333 48.2388 9.73ZM57.5438 22V8H62.5138C63.2338 8 63.8838 8.14667 64.4638 8.44C65.0504 8.73333 65.5138 9.15667 65.8538 9.71C66.2004 10.2567 66.3738 10.9133 66.3738 11.68C66.3738 12.0533 66.3138 12.42 66.1938 12.78C66.0738 13.14 65.9038 13.4567 65.6838 13.73C65.4638 14.0033 65.1971 14.1967 64.8838 14.31C65.3104 14.4167 65.6638 14.61 65.9438 14.89C66.2304 15.1633 66.4571 15.4833 66.6237 15.85C66.7904 16.2167 66.9071 16.5967 66.9738 16.99C67.0471 17.3833 67.0838 17.7567 67.0838 18.11C67.0838 18.8567 66.9038 19.5233 66.5438 20.11C66.1838 20.6967 65.7004 21.16 65.0938 21.5C64.4938 21.8333 63.8304 22 63.1038 22H57.5438ZM59.6238 20.2H62.9038C63.3304 20.2 63.7171 20.0933 64.0638 19.88C64.4171 19.6667 64.6971 19.3733 64.9038 19C65.1104 18.62 65.2138 18.1933 65.2138 17.72C65.2138 17.3067 65.1104 16.9167 64.9038 16.55C64.6971 16.1767 64.4171 15.8767 64.0638 15.65C63.7171 15.4233 63.3304 15.31 62.9038 15.31H59.6238V20.2ZM59.6238 13.54H62.2938C62.8404 13.54 63.3104 13.3733 63.7038 13.04C64.0971 12.7067 64.2938 12.25 64.2938 11.67C64.2938 11.05 64.0971 10.5867 63.7038 10.28C63.3104 9.96667 62.8404 9.81 62.2938 9.81H59.6238V13.54ZM72.9984 22.26C72.0784 22.26 71.2384 22.0233 70.4784 21.55C69.7251 21.0767 69.1218 20.4433 68.6684 19.65C68.2218 18.85 67.9984 17.9667 67.9984 17C67.9984 16.2667 68.1284 15.5833 68.3884 14.95C68.6484 14.31 69.0051 13.75 69.4584 13.27C69.9184 12.7833 70.4518 12.4033 71.0584 12.13C71.6651 11.8567 72.3118 11.72 72.9984 11.72C73.7651 11.72 74.4684 11.88 75.1084 12.2C75.7484 12.5133 76.2951 12.95 76.7484 13.51C77.2018 14.0633 77.5351 14.7033 77.7484 15.43C77.9618 16.15 78.0251 16.9167 77.9384 17.73H70.2284C70.3151 18.19 70.4818 18.6067 70.7284 18.98C70.9818 19.3467 71.3018 19.6367 71.6884 19.85C72.0818 20.0633 72.5184 20.1733 72.9984 20.18C73.5051 20.18 73.9651 20.0533 74.3784 19.8C74.7984 19.5467 75.1418 19.1967 75.4084 18.75L77.5184 19.24C77.1184 20.1267 76.5151 20.8533 75.7084 21.42C74.9018 21.98 73.9984 22.26 72.9984 22.26ZM70.1584 16.14H75.8384C75.7718 15.66 75.6018 15.2267 75.3284 14.84C75.0618 14.4467 74.7251 14.1367 74.3184 13.91C73.9184 13.6767 73.4784 13.56 72.9984 13.56C72.5251 13.56 72.0851 13.6733 71.6784 13.9C71.2784 14.1267 70.9451 14.4367 70.6784 14.83C70.4184 15.2167 70.2451 15.6533 70.1584 16.14ZM87.365 7H89.445V22H87.365V20.53C87.0383 21.05 86.6117 21.47 86.085 21.79C85.5583 22.1033 84.9417 22.26 84.235 22.26C83.5083 22.26 82.8283 22.1233 82.195 21.85C81.5617 21.5767 81.0017 21.2 80.515 20.72C80.035 20.2333 79.6583 19.6733 79.385 19.04C79.1117 18.4067 78.975 17.7267 78.975 17C78.975 16.2733 79.1117 15.5933 79.385 14.96C79.6583 14.32 80.035 13.76 80.515 13.28C81.0017 12.7933 81.5617 12.4133 82.195 12.14C82.8283 11.8667 83.5083 11.73 84.235 11.73C84.9417 11.73 85.5583 11.89 86.085 12.21C86.6117 12.5233 87.0383 12.9367 87.365 13.45V7ZM84.255 20.25C84.8417 20.25 85.355 20.1067 85.795 19.82C86.235 19.5267 86.575 19.1333 86.815 18.64C87.0617 18.1467 87.185 17.6 87.185 17C87.185 16.3933 87.0617 15.8433 86.815 15.35C86.5683 14.8567 86.225 14.4667 85.785 14.18C85.3517 13.8867 84.8417 13.74 84.255 13.74C83.675 13.74 83.145 13.8867 82.665 14.18C82.1917 14.4733 81.8117 14.8667 81.525 15.36C81.245 15.8533 81.105 16.4 81.105 17C81.105 17.6067 81.2483 18.1567 81.535 18.65C81.8283 19.1367 82.2117 19.5267 82.685 19.82C83.165 20.1067 83.6883 20.25 84.255 20.25ZM91.8406 22V12H93.9206V13.06C94.2673 12.6467 94.694 12.32 95.2006 12.08C95.7073 11.84 96.254 11.72 96.8406 11.72C97.214 11.72 97.584 11.77 97.9506 11.87L97.1206 13.97C96.8606 13.87 96.6006 13.82 96.3406 13.82C95.9006 13.82 95.4973 13.93 95.1306 14.15C94.764 14.3633 94.4706 14.6533 94.2506 15.02C94.0306 15.3867 93.9206 15.7933 93.9206 16.24V22H91.8406ZM103.038 22.26C102.118 22.26 101.278 22.0233 100.518 21.55C99.7642 21.0767 99.1608 20.4433 98.7075 19.65C98.2608 18.85 98.0375 17.9667 98.0375 17C98.0375 16.2667 98.1675 15.5833 98.4275 14.95C98.6875 14.31 99.0442 13.75 99.4975 13.27C99.9575 12.7833 100.491 12.4033 101.098 12.13C101.704 11.8567 102.351 11.72 103.038 11.72C103.958 11.72 104.794 11.9567 105.548 12.43C106.308 12.9033 106.911 13.54 107.358 14.34C107.811 15.14 108.038 16.0267 108.038 17C108.038 17.7267 107.908 18.4067 107.648 19.04C107.388 19.6733 107.028 20.2333 106.568 20.72C106.114 21.2 105.584 21.5767 104.978 21.85C104.378 22.1233 103.731 22.26 103.038 22.26ZM103.038 20.18C103.591 20.18 104.088 20.0333 104.528 19.74C104.968 19.4467 105.314 19.06 105.568 18.58C105.828 18.0933 105.958 17.5667 105.958 17C105.958 16.42 105.824 15.8867 105.558 15.4C105.298 14.9133 104.948 14.5267 104.508 14.24C104.068 13.9467 103.578 13.8 103.038 13.8C102.491 13.8 101.994 13.9467 101.548 14.24C101.108 14.5333 100.758 14.9233 100.498 15.41C100.244 15.8967 100.118 16.4267 100.118 17C100.118 17.5933 100.251 18.13 100.518 18.61C100.784 19.09 101.138 19.4733 101.578 19.76C102.024 20.04 102.511 20.18 103.038 20.18ZM114.034 22.26C113.114 22.26 112.274 22.0233 111.514 21.55C110.76 21.0767 110.157 20.4433 109.704 19.65C109.257 18.85 109.034 17.9667 109.034 17C109.034 16.2667 109.164 15.5833 109.424 14.95C109.684 14.31 110.04 13.75 110.494 13.27C110.954 12.7833 111.487 12.4033 112.094 12.13C112.7 11.8567 113.347 11.72 114.034 11.72C114.954 11.72 115.79 11.9567 116.544 12.43C117.304 12.9033 117.907 13.54 118.354 14.34C118.807 15.14 119.034 16.0267 119.034 17C119.034 17.7267 118.904 18.4067 118.644 19.04C118.384 19.6733 118.024 20.2333 117.564 20.72C117.11 21.2 116.58 21.5767 115.974 21.85C115.374 22.1233 114.727 22.26 114.034 22.26ZM114.034 20.18C114.587 20.18 115.084 20.0333 115.524 19.74C115.964 19.4467 116.31 19.06 116.564 18.58C116.824 18.0933 116.954 17.5667 116.954 17C116.954 16.42 116.82 15.8867 116.554 15.4C116.294 14.9133 115.944 14.5267 115.504 14.24C115.064 13.9467 114.574 13.8 114.034 13.8C113.487 13.8 112.99 13.9467 112.544 14.24C112.104 14.5333 111.754 14.9233 111.494 15.41C111.24 15.8967 111.114 16.4267 111.114 17C111.114 17.5933 111.247 18.13 111.514 18.61C111.78 19.09 112.134 19.4733 112.574 19.76C113.02 20.04 113.507 20.18 114.034 20.18ZM120.649 22V12H122.729V13.06C123.076 12.6467 123.499 12.32 123.999 12.08C124.506 11.84 125.053 11.72 125.639 11.72C126.353 11.72 127.009 11.8933 127.609 12.24C128.209 12.58 128.686 13.0333 129.039 13.6C129.393 13.0333 129.863 12.58 130.449 12.24C131.043 11.8933 131.696 11.72 132.409 11.72C133.149 11.72 133.823 11.9 134.429 12.26C135.036 12.62 135.519 13.1033 135.879 13.71C136.239 14.3167 136.419 14.99 136.419 15.73V22H134.339V16.26C134.339 15.82 134.233 15.4167 134.019 15.05C133.806 14.6833 133.519 14.3867 133.159 14.16C132.799 13.9333 132.399 13.82 131.959 13.82C131.519 13.82 131.119 13.9267 130.759 14.14C130.399 14.3533 130.113 14.6433 129.899 15.01C129.686 15.3767 129.579 15.7933 129.579 16.26V22H127.499V16.26C127.499 15.7933 127.393 15.3767 127.179 15.01C126.966 14.6433 126.676 14.3533 126.309 14.14C125.949 13.9267 125.549 13.82 125.109 13.82C124.676 13.82 124.276 13.9333 123.909 14.16C123.549 14.3867 123.263 14.6833 123.049 15.05C122.836 15.4167 122.729 15.82 122.729 16.26V22H120.649ZM141.423 22.19C140.896 22.1567 140.383 22.05 139.883 21.87C139.383 21.69 138.943 21.4467 138.563 21.14C138.189 20.8267 137.909 20.46 137.723 20.04L139.493 19.28C139.579 19.46 139.729 19.6367 139.943 19.81C140.163 19.9833 140.419 20.1267 140.713 20.24C141.006 20.3467 141.313 20.4 141.633 20.4C141.946 20.4 142.236 20.3567 142.503 20.27C142.776 20.1767 142.999 20.0367 143.173 19.85C143.346 19.6633 143.433 19.44 143.433 19.18C143.433 18.8867 143.333 18.66 143.133 18.5C142.939 18.3333 142.696 18.2067 142.403 18.12C142.109 18.0333 141.816 17.95 141.523 17.87C140.869 17.7233 140.269 17.5233 139.723 17.27C139.183 17.01 138.753 16.68 138.433 16.28C138.113 15.8733 137.953 15.3767 137.953 14.79C137.953 14.15 138.126 13.5967 138.473 13.13C138.819 12.6567 139.273 12.2933 139.833 12.04C140.399 11.7867 141.003 11.66 141.643 11.66C142.443 11.66 143.176 11.83 143.843 12.17C144.509 12.51 145.019 12.9767 145.373 13.57L143.723 14.55C143.623 14.35 143.473 14.17 143.273 14.01C143.073 13.85 142.846 13.7233 142.593 13.63C142.339 13.53 142.076 13.4733 141.803 13.46C141.463 13.4467 141.146 13.4867 140.853 13.58C140.566 13.6667 140.336 13.8067 140.163 14C139.989 14.1933 139.903 14.44 139.903 14.74C139.903 15.0333 140.006 15.2533 140.213 15.4C140.419 15.54 140.679 15.6533 140.993 15.74C141.313 15.8267 141.639 15.9233 141.973 16.03C142.566 16.2167 143.123 16.4467 143.643 16.72C144.163 16.9867 144.583 17.3167 144.903 17.71C145.223 18.1033 145.376 18.5833 145.363 19.15C145.363 19.7767 145.173 20.3267 144.793 20.8C144.419 21.2733 143.933 21.6333 143.333 21.88C142.733 22.1267 142.096 22.23 141.423 22.19Z" fill="white"></path><rect x="0.75" y="46.5" width="310.75" height="67" rx="7.5" fill="#1A1A1A"></rect><rect x="0.75" y="46.5" width="310.75" height="67" rx="7.5" stroke="#262626"></rect><path d="M25.767 86.234C25.089 86.234 24.435 86.129 23.805 85.919C23.175 85.703 22.623 85.397 22.149 85.001C21.681 84.605 21.348 84.134 21.15 83.588L22.563 83.057C22.683 83.393 22.905 83.687 23.229 83.939C23.559 84.185 23.946 84.377 24.39 84.515C24.834 84.653 25.293 84.722 25.767 84.722C26.307 84.722 26.808 84.635 27.27 84.461C27.738 84.281 28.116 84.032 28.404 83.714C28.692 83.396 28.836 83.024 28.836 82.598C28.836 82.16 28.686 81.803 28.386 81.527C28.086 81.245 27.702 81.023 27.234 80.861C26.766 80.693 26.277 80.564 25.767 80.474C24.897 80.33 24.117 80.126 23.427 79.862C22.743 79.592 22.2 79.217 21.798 78.737C21.402 78.257 21.204 77.624 21.204 76.838C21.204 76.106 21.414 75.467 21.834 74.921C22.26 74.375 22.821 73.952 23.517 73.652C24.213 73.352 24.963 73.202 25.767 73.202C26.433 73.202 27.078 73.307 27.702 73.517C28.332 73.721 28.887 74.021 29.367 74.417C29.847 74.813 30.192 75.296 30.402 75.866L28.971 76.388C28.851 76.046 28.626 75.752 28.296 75.506C27.972 75.254 27.588 75.062 27.144 74.93C26.706 74.792 26.247 74.723 25.767 74.723C25.233 74.717 24.735 74.804 24.273 74.984C23.811 75.164 23.436 75.413 23.148 75.731C22.86 76.049 22.716 76.418 22.716 76.838C22.716 77.342 22.848 77.729 23.112 77.999C23.382 78.263 23.748 78.461 24.21 78.593C24.672 78.725 25.191 78.842 25.767 78.944C26.583 79.082 27.339 79.301 28.035 79.601C28.731 79.895 29.289 80.288 29.709 80.78C30.135 81.272 30.348 81.878 30.348 82.598C30.348 83.33 30.135 83.969 29.709 84.515C29.289 85.061 28.731 85.484 28.035 85.784C27.339 86.084 26.583 86.234 25.767 86.234ZM36.1884 86.234C35.3604 86.234 34.6044 86.021 33.9204 85.595C33.2424 85.169 32.6994 84.599 32.2914 83.885C31.8894 83.165 31.6884 82.37 31.6884 81.5C31.6884 80.84 31.8054 80.225 32.0394 79.655C32.2734 79.079 32.5944 78.575 33.0024 78.143C33.4164 77.705 33.8964 77.363 34.4424 77.117C34.9884 76.871 35.5704 76.748 36.1884 76.748C36.8664 76.748 37.4874 76.886 38.0514 77.162C38.6214 77.432 39.1074 77.81 39.5094 78.296C39.9174 78.782 40.2204 79.346 40.4184 79.988C40.6224 80.63 40.6974 81.317 40.6434 82.049H33.2994C33.3714 82.559 33.5394 83.015 33.8034 83.417C34.0674 83.813 34.4034 84.128 34.8114 84.362C35.2254 84.596 35.6844 84.716 36.1884 84.722C36.7284 84.722 37.2174 84.584 37.6554 84.308C38.0934 84.026 38.4474 83.642 38.7174 83.156L40.2564 83.516C39.8964 84.314 39.3534 84.968 38.6274 85.478C37.9014 85.982 37.0884 86.234 36.1884 86.234ZM33.2544 80.861H39.1224C39.0744 80.357 38.9124 79.898 38.6364 79.484C38.3604 79.064 38.0094 78.728 37.5834 78.476C37.1574 78.224 36.6924 78.098 36.1884 78.098C35.6844 78.098 35.2224 78.221 34.8024 78.467C34.3824 78.713 34.0344 79.046 33.7584 79.466C33.4884 79.88 33.3204 80.345 33.2544 80.861ZM42.0722 86V72.5H43.5842V86H42.0722ZM49.6181 86.234C48.7901 86.234 48.0341 86.021 47.3501 85.595C46.6721 85.169 46.1291 84.599 45.7211 83.885C45.3191 83.165 45.1181 82.37 45.1181 81.5C45.1181 80.84 45.2351 80.225 45.4691 79.655C45.7031 79.079 46.0241 78.575 46.4321 78.143C46.8461 77.705 47.3261 77.363 47.8721 77.117C48.4181 76.871 49.0001 76.748 49.6181 76.748C50.2961 76.748 50.9171 76.886 51.4811 77.162C52.0511 77.432 52.5371 77.81 52.9391 78.296C53.3471 78.782 53.6501 79.346 53.8481 79.988C54.0521 80.63 54.1271 81.317 54.0731 82.049H46.7291C46.8011 82.559 46.9691 83.015 47.2331 83.417C47.4971 83.813 47.8331 84.128 48.2411 84.362C48.6551 84.596 49.1141 84.716 49.6181 84.722C50.1581 84.722 50.6471 84.584 51.0851 84.308C51.5231 84.026 51.8771 83.642 52.1471 83.156L53.6861 83.516C53.3261 84.314 52.7831 84.968 52.0571 85.478C51.3311 85.982 50.5181 86.234 49.6181 86.234ZM46.6841 80.861H52.5521C52.5041 80.357 52.3421 79.898 52.0661 79.484C51.7901 79.064 51.4391 78.728 51.0131 78.476C50.5871 78.224 50.1221 78.098 49.6181 78.098C49.1141 78.098 48.6521 78.221 48.2321 78.467C47.8121 78.713 47.4641 79.046 47.1881 79.466C46.9181 79.88 46.7501 80.345 46.6841 80.861ZM61.738 83.624L63.088 84.353C62.68 84.923 62.161 85.379 61.531 85.721C60.907 86.063 60.229 86.234 59.497 86.234C58.669 86.234 57.913 86.021 57.229 85.595C56.551 85.169 56.008 84.599 55.6 83.885C55.198 83.165 54.997 82.37 54.997 81.5C54.997 80.84 55.114 80.225 55.348 79.655C55.582 79.079 55.903 78.575 56.311 78.143C56.725 77.705 57.205 77.363 57.751 77.117C58.297 76.871 58.879 76.748 59.497 76.748C60.229 76.748 60.907 76.919 61.531 77.261C62.161 77.603 62.68 78.062 63.088 78.638L61.738 79.367C61.45 79.013 61.108 78.74 60.712 78.548C60.316 78.356 59.911 78.26 59.497 78.26C58.939 78.26 58.432 78.41 57.976 78.71C57.526 79.004 57.169 79.397 56.905 79.889C56.641 80.381 56.509 80.918 56.509 81.5C56.509 82.082 56.641 82.619 56.905 83.111C57.175 83.597 57.535 83.987 57.985 84.281C58.441 84.575 58.945 84.722 59.497 84.722C59.941 84.722 60.358 84.62 60.748 84.416C61.138 84.212 61.468 83.948 61.738 83.624ZM69.3748 78.512H67.3318L67.3228 86H65.8108L65.8198 78.512H64.2718V77H65.8198L65.8108 74.174H67.3228L67.3318 77H69.3748V78.512ZM83.2684 80.402V86H81.7564V80.735C81.7564 80.279 81.6454 79.865 81.4234 79.493C81.2014 79.121 80.9044 78.827 80.5324 78.611C80.1604 78.389 79.7464 78.278 79.2904 78.278C78.8404 78.278 78.4264 78.389 78.0484 78.611C77.6764 78.827 77.3794 79.121 77.1574 79.493C76.9354 79.865 76.8244 80.279 76.8244 80.735V86H75.3124V77H76.8244V78.125C77.1424 77.705 77.5444 77.372 78.0304 77.126C78.5164 76.874 79.0444 76.748 79.6144 76.748C80.2864 76.748 80.8984 76.913 81.4504 77.243C82.0084 77.567 82.4494 78.005 82.7734 78.557C83.1034 79.109 83.2684 79.724 83.2684 80.402ZM88.8525 86.234C88.0245 86.234 87.2685 86.021 86.5845 85.595C85.9065 85.169 85.3635 84.599 84.9555 83.885C84.5535 83.165 84.3525 82.37 84.3525 81.5C84.3525 80.84 84.4695 80.225 84.7035 79.655C84.9375 79.079 85.2585 78.575 85.6665 78.143C86.0805 77.705 86.5605 77.363 87.1065 77.117C87.6525 76.871 88.2345 76.748 88.8525 76.748C89.6805 76.748 90.4335 76.961 91.1115 77.387C91.7955 77.813 92.3385 78.386 92.7405 79.106C93.1485 79.826 93.3525 80.624 93.3525 81.5C93.3525 82.154 93.2355 82.766 93.0015 83.336C92.7675 83.906 92.4435 84.41 92.0295 84.848C91.6215 85.28 91.1445 85.619 90.5985 85.865C90.0585 86.111 89.4765 86.234 88.8525 86.234ZM88.8525 84.722C89.4165 84.722 89.9235 84.575 90.3735 84.281C90.8295 83.981 91.1865 83.588 91.4445 83.102C91.7085 82.61 91.8405 82.076 91.8405 81.5C91.8405 80.912 91.7055 80.372 91.4355 79.88C91.1715 79.388 90.8145 78.995 90.3645 78.701C89.9145 78.407 89.4105 78.26 88.8525 78.26C88.2885 78.26 87.7815 78.41 87.3315 78.71C86.8815 79.004 86.5245 79.397 86.2605 79.889C85.9965 80.381 85.8645 80.918 85.8645 81.5C85.8645 82.1 85.9995 82.646 86.2695 83.138C86.5395 83.624 86.9025 84.011 87.3585 84.299C87.8145 84.581 88.3125 84.722 88.8525 84.722ZM95.248 86.234C95.02 86.234 94.825 86.153 94.663 85.991C94.507 85.829 94.429 85.631 94.429 85.397C94.429 85.175 94.507 84.983 94.663 84.821C94.825 84.659 95.02 84.578 95.248 84.578C95.482 84.578 95.68 84.659 95.842 84.821C96.004 84.983 96.085 85.175 96.085 85.397C96.085 85.631 96.004 85.829 95.842 85.991C95.68 86.153 95.482 86.234 95.248 86.234ZM106.536 86.234C105.708 86.234 104.952 86.021 104.268 85.595C103.59 85.169 103.047 84.599 102.639 83.885C102.237 83.165 102.036 82.37 102.036 81.5C102.036 80.84 102.153 80.225 102.387 79.655C102.621 79.079 102.942 78.575 103.35 78.143C103.764 77.705 104.244 77.363 104.79 77.117C105.336 76.871 105.918 76.748 106.536 76.748C107.364 76.748 108.117 76.961 108.795 77.387C109.479 77.813 110.022 78.386 110.424 79.106C110.832 79.826 111.036 80.624 111.036 81.5C111.036 82.154 110.919 82.766 110.685 83.336C110.451 83.906 110.127 84.41 109.713 84.848C109.305 85.28 108.828 85.619 108.282 85.865C107.742 86.111 107.16 86.234 106.536 86.234ZM106.536 84.722C107.1 84.722 107.607 84.575 108.057 84.281C108.513 83.981 108.87 83.588 109.128 83.102C109.392 82.61 109.524 82.076 109.524 81.5C109.524 80.912 109.389 80.372 109.119 79.88C108.855 79.388 108.498 78.995 108.048 78.701C107.598 78.407 107.094 78.26 106.536 78.26C105.972 78.26 105.465 78.41 105.015 78.71C104.565 79.004 104.208 79.397 103.944 79.889C103.68 80.381 103.548 80.918 103.548 81.5C103.548 82.1 103.683 82.646 103.953 83.138C104.223 83.624 104.586 84.011 105.042 84.299C105.498 84.581 105.996 84.722 106.536 84.722ZM114.691 74.777V77H117.328V78.512H114.691V86H113.179V78.512H112.018V77H113.179V74.777C113.179 74.315 113.29 73.898 113.512 73.526C113.74 73.148 114.043 72.848 114.421 72.626C114.805 72.398 115.225 72.284 115.681 72.284C116.017 72.284 116.344 72.353 116.662 72.491C116.98 72.623 117.262 72.821 117.508 73.085L116.428 74.156C116.344 74.042 116.233 73.955 116.095 73.895C115.963 73.829 115.825 73.796 115.681 73.796C115.411 73.796 115.177 73.892 114.979 74.084C114.787 74.276 114.691 74.507 114.691 74.777ZM123.125 86V73.4H127.472C128.096 73.4 128.663 73.529 129.173 73.787C129.689 74.039 130.097 74.408 130.397 74.894C130.697 75.38 130.847 75.962 130.847 76.64C130.847 77.006 130.784 77.36 130.658 77.702C130.538 78.038 130.37 78.329 130.154 78.575C129.944 78.815 129.704 78.977 129.434 79.061C129.812 79.157 130.133 79.328 130.397 79.574C130.661 79.814 130.874 80.096 131.036 80.42C131.204 80.744 131.324 81.083 131.396 81.437C131.468 81.791 131.504 82.133 131.504 82.463C131.504 83.159 131.345 83.774 131.027 84.308C130.715 84.836 130.295 85.25 129.767 85.55C129.239 85.85 128.657 86 128.021 86H123.125ZM124.637 84.668H127.886C128.3 84.668 128.675 84.563 129.011 84.353C129.353 84.137 129.626 83.843 129.83 83.471C130.034 83.099 130.136 82.679 130.136 82.211C130.136 81.797 130.034 81.407 129.83 81.041C129.626 80.669 129.353 80.369 129.011 80.141C128.675 79.913 128.3 79.799 127.886 79.799H124.637V84.668ZM124.637 78.494H127.328C127.88 78.494 128.351 78.332 128.741 78.008C129.137 77.678 129.335 77.219 129.335 76.631C129.335 75.995 129.137 75.521 128.741 75.209C128.351 74.891 127.88 74.732 127.328 74.732H124.637V78.494ZM136.876 86.234C136.048 86.234 135.292 86.021 134.608 85.595C133.93 85.169 133.387 84.599 132.979 83.885C132.577 83.165 132.376 82.37 132.376 81.5C132.376 80.84 132.493 80.225 132.727 79.655C132.961 79.079 133.282 78.575 133.69 78.143C134.104 77.705 134.584 77.363 135.13 77.117C135.676 76.871 136.258 76.748 136.876 76.748C137.554 76.748 138.175 76.886 138.739 77.162C139.309 77.432 139.795 77.81 140.197 78.296C140.605 78.782 140.908 79.346 141.106 79.988C141.31 80.63 141.385 81.317 141.331 82.049H133.987C134.059 82.559 134.227 83.015 134.491 83.417C134.755 83.813 135.091 84.128 135.499 84.362C135.913 84.596 136.372 84.716 136.876 84.722C137.416 84.722 137.905 84.584 138.343 84.308C138.781 84.026 139.135 83.642 139.405 83.156L140.944 83.516C140.584 84.314 140.041 84.968 139.315 85.478C138.589 85.982 137.776 86.234 136.876 86.234ZM133.942 80.861H139.81C139.762 80.357 139.6 79.898 139.324 79.484C139.048 79.064 138.697 78.728 138.271 78.476C137.845 78.224 137.38 78.098 136.876 78.098C136.372 78.098 135.91 78.221 135.49 78.467C135.07 78.713 134.722 79.046 134.446 79.466C134.176 79.88 134.008 80.345 133.942 80.861ZM150.04 72.5H151.552V86H150.04V84.47C149.734 84.998 149.323 85.424 148.807 85.748C148.291 86.072 147.685 86.234 146.989 86.234C146.335 86.234 145.723 86.111 145.153 85.865C144.583 85.619 144.079 85.28 143.641 84.848C143.209 84.41 142.87 83.906 142.624 83.336C142.378 82.766 142.255 82.154 142.255 81.5C142.255 80.846 142.378 80.234 142.624 79.664C142.87 79.088 143.209 78.584 143.641 78.152C144.079 77.714 144.583 77.372 145.153 77.126C145.723 76.88 146.335 76.757 146.989 76.757C147.685 76.757 148.291 76.919 148.807 77.243C149.323 77.567 149.734 77.993 150.04 78.521V72.5ZM147.007 84.767C147.601 84.767 148.114 84.623 148.546 84.335C148.984 84.041 149.32 83.645 149.554 83.147C149.794 82.649 149.914 82.1 149.914 81.5C149.914 80.888 149.794 80.336 149.554 79.844C149.314 79.346 148.975 78.953 148.537 78.665C148.105 78.371 147.595 78.224 147.007 78.224C146.413 78.224 145.873 78.371 145.387 78.665C144.907 78.959 144.523 79.355 144.235 79.853C143.947 80.345 143.803 80.894 143.803 81.5C143.803 82.106 143.95 82.658 144.244 83.156C144.538 83.648 144.928 84.041 145.414 84.335C145.9 84.623 146.431 84.767 147.007 84.767ZM153.711 86V77H155.223V78.125C155.541 77.705 155.943 77.372 156.429 77.126C156.915 76.874 157.443 76.748 158.013 76.748C158.361 76.748 158.697 76.793 159.021 76.883L158.409 78.395C158.163 78.317 157.923 78.278 157.689 78.278C157.239 78.278 156.825 78.389 156.447 78.611C156.075 78.827 155.778 79.121 155.556 79.493C155.334 79.865 155.223 80.279 155.223 80.735V86H153.711ZM163.63 86.234C162.802 86.234 162.046 86.021 161.362 85.595C160.684 85.169 160.141 84.599 159.733 83.885C159.331 83.165 159.13 82.37 159.13 81.5C159.13 80.84 159.247 80.225 159.481 79.655C159.715 79.079 160.036 78.575 160.444 78.143C160.858 77.705 161.338 77.363 161.884 77.117C162.43 76.871 163.012 76.748 163.63 76.748C164.458 76.748 165.211 76.961 165.889 77.387C166.573 77.813 167.116 78.386 167.518 79.106C167.926 79.826 168.13 80.624 168.13 81.5C168.13 82.154 168.013 82.766 167.779 83.336C167.545 83.906 167.221 84.41 166.807 84.848C166.399 85.28 165.922 85.619 165.376 85.865C164.836 86.111 164.254 86.234 163.63 86.234ZM163.63 84.722C164.194 84.722 164.701 84.575 165.151 84.281C165.607 83.981 165.964 83.588 166.222 83.102C166.486 82.61 166.618 82.076 166.618 81.5C166.618 80.912 166.483 80.372 166.213 79.88C165.949 79.388 165.592 78.995 165.142 78.701C164.692 78.407 164.188 78.26 163.63 78.26C163.066 78.26 162.559 78.41 162.109 78.71C161.659 79.004 161.302 79.397 161.038 79.889C160.774 80.381 160.642 80.918 160.642 81.5C160.642 82.1 160.777 82.646 161.047 83.138C161.317 83.624 161.68 84.011 162.136 84.299C162.592 84.581 163.09 84.722 163.63 84.722ZM173.526 86.234C172.698 86.234 171.942 86.021 171.258 85.595C170.58 85.169 170.037 84.599 169.629 83.885C169.227 83.165 169.026 82.37 169.026 81.5C169.026 80.84 169.143 80.225 169.377 79.655C169.611 79.079 169.932 78.575 170.34 78.143C170.754 77.705 171.234 77.363 171.78 77.117C172.326 76.871 172.908 76.748 173.526 76.748C174.354 76.748 175.107 76.961 175.785 77.387C176.469 77.813 177.012 78.386 177.414 79.106C177.822 79.826 178.026 80.624 178.026 81.5C178.026 82.154 177.909 82.766 177.675 83.336C177.441 83.906 177.117 84.41 176.703 84.848C176.295 85.28 175.818 85.619 175.272 85.865C174.732 86.111 174.15 86.234 173.526 86.234ZM173.526 84.722C174.09 84.722 174.597 84.575 175.047 84.281C175.503 83.981 175.86 83.588 176.118 83.102C176.382 82.61 176.514 82.076 176.514 81.5C176.514 80.912 176.379 80.372 176.109 79.88C175.845 79.388 175.488 78.995 175.038 78.701C174.588 78.407 174.084 78.26 173.526 78.26C172.962 78.26 172.455 78.41 172.005 78.71C171.555 79.004 171.198 79.397 170.934 79.889C170.67 80.381 170.538 80.918 170.538 81.5C170.538 82.1 170.673 82.646 170.943 83.138C171.213 83.624 171.576 84.011 172.032 84.299C172.488 84.581 172.986 84.722 173.526 84.722ZM179.516 86V77H181.028V78.125C181.346 77.705 181.745 77.372 182.225 77.126C182.711 76.874 183.239 76.748 183.809 76.748C184.475 76.748 185.084 76.91 185.636 77.234C186.188 77.558 186.623 77.987 186.941 78.521C187.259 77.987 187.691 77.558 188.237 77.234C188.789 76.91 189.395 76.748 190.055 76.748C190.733 76.748 191.348 76.913 191.9 77.243C192.452 77.567 192.89 78.005 193.214 78.557C193.544 79.109 193.709 79.724 193.709 80.402V86H192.197V80.762C192.197 80.318 192.089 79.907 191.873 79.529C191.657 79.151 191.366 78.848 191 78.62C190.634 78.392 190.229 78.278 189.785 78.278C189.341 78.278 188.936 78.386 188.57 78.602C188.204 78.812 187.913 79.106 187.697 79.484C187.481 79.856 187.373 80.282 187.373 80.762V86H185.861V80.762C185.861 80.282 185.753 79.856 185.537 79.484C185.321 79.106 185.027 78.812 184.655 78.602C184.289 78.386 183.884 78.278 183.44 78.278C183.002 78.278 182.597 78.392 182.225 78.62C181.859 78.848 181.568 79.151 181.352 79.529C181.136 79.907 181.028 80.318 181.028 80.762V86H179.516ZM198.257 86.171C197.771 86.153 197.297 86.063 196.835 85.901C196.379 85.733 195.977 85.508 195.629 85.226C195.287 84.938 195.038 84.608 194.882 84.236L196.178 83.678C196.268 83.882 196.43 84.074 196.664 84.254C196.898 84.434 197.168 84.578 197.474 84.686C197.78 84.794 198.089 84.848 198.401 84.848C198.731 84.848 199.04 84.797 199.328 84.695C199.616 84.593 199.85 84.443 200.03 84.245C200.216 84.041 200.309 83.798 200.309 83.516C200.309 83.216 200.207 82.982 200.003 82.814C199.805 82.64 199.553 82.505 199.247 82.409C198.947 82.307 198.641 82.211 198.329 82.121C197.711 81.965 197.159 81.779 196.673 81.563C196.187 81.341 195.803 81.062 195.521 80.726C195.245 80.384 195.107 79.949 195.107 79.421C195.107 78.863 195.26 78.38 195.566 77.972C195.878 77.564 196.286 77.249 196.79 77.027C197.294 76.805 197.834 76.694 198.41 76.694C199.136 76.694 199.799 76.85 200.399 77.162C200.999 77.474 201.446 77.897 201.74 78.431L200.525 79.142C200.423 78.926 200.267 78.737 200.057 78.575C199.847 78.407 199.607 78.275 199.337 78.179C199.067 78.083 198.791 78.032 198.509 78.026C198.161 78.014 197.834 78.059 197.528 78.161C197.228 78.263 196.985 78.419 196.799 78.629C196.619 78.833 196.529 79.088 196.529 79.394C196.529 79.694 196.625 79.922 196.817 80.078C197.015 80.234 197.27 80.36 197.582 80.456C197.9 80.546 198.245 80.651 198.617 80.771C199.163 80.945 199.673 81.146 200.147 81.374C200.621 81.602 201.002 81.887 201.29 82.229C201.584 82.571 201.728 82.994 201.722 83.498C201.722 84.05 201.557 84.533 201.227 84.947C200.897 85.355 200.468 85.667 199.94 85.883C199.418 86.099 198.857 86.195 198.257 86.171Z" fill="#666666"></path><path d="M287.5 76.25L280 83.75L272.5 76.25" stroke="white" stroke-width="1.5" stroke-linecap="round" stroke-linejoin="round"></path></svg>