<svg xmlns="http://www.w3.org/2000/svg" width="674" height="114" viewBox="0 0 674 114" fill="none"><path d="M1.7 22V8H6.52C7.27333 8 7.95333 8.18667 8.56 8.56C9.17333 8.93333 9.66 9.43667 10.02 10.07C10.3867 10.7033 10.57 11.4033 10.57 12.17C10.57 12.95 10.3833 13.6567 10.01 14.29C9.64333 14.9167 9.15333 15.4167 8.54 15.79C7.92667 16.1633 7.25333 16.35 6.52 16.35H3.78V22H1.7ZM3.78 14.27H6.31C6.71 14.27 7.07333 14.17 7.4 13.97C7.73333 13.77 7.99667 13.5033 8.19 13.17C8.39 12.8367 8.49 12.46 8.49 12.04C8.49 11.62 8.39 11.2433 8.19 10.91C7.99667 10.57 7.73333 10.3033 7.4 10.11C7.07333 9.91 6.71 9.81 6.31 9.81H3.78V14.27ZM12.2078 22V12H14.2878V13.06C14.6345 12.6467 15.0611 12.32 15.5678 12.08C16.0745 11.84 16.6211 11.72 17.2078 11.72C17.5811 11.72 17.9511 11.77 18.3178 11.87L17.4878 13.97C17.2278 13.87 16.9678 13.82 16.7078 13.82C16.2678 13.82 15.8645 13.93 15.4978 14.15C15.1311 14.3633 14.8378 14.6533 14.6178 15.02C14.3978 15.3867 14.2878 15.7933 14.2878 16.24V22H12.2078ZM23.4047 22.26C22.4847 22.26 21.6447 22.0233 20.8847 21.55C20.1314 21.0767 19.528 20.4433 19.0747 19.65C18.628 18.85 18.4047 17.9667 18.4047 17C18.4047 16.2667 18.5347 15.5833 18.7947 14.95C19.0547 14.31 19.4114 13.75 19.8647 13.27C20.3247 12.7833 20.858 12.4033 21.4647 12.13C22.0714 11.8567 22.718 11.72 23.4047 11.72C24.1714 11.72 24.8747 11.88 25.5147 12.2C26.1547 12.5133 26.7014 12.95 27.1547 13.51C27.608 14.0633 27.9414 14.7033 28.1547 15.43C28.368 16.15 28.4314 16.9167 28.3447 17.73H20.6347C20.7214 18.19 20.888 18.6067 21.1347 18.98C21.388 19.3467 21.708 19.6367 22.0947 19.85C22.488 20.0633 22.9247 20.1733 23.4047 20.18C23.9114 20.18 24.3714 20.0533 24.7847 19.8C25.2047 19.5467 25.548 19.1967 25.8147 18.75L27.9247 19.24C27.5247 20.1267 26.9214 20.8533 26.1147 21.42C25.308 21.98 24.4047 22.26 23.4047 22.26ZM20.5647 16.14H26.2447C26.178 15.66 26.008 15.2267 25.7347 14.84C25.468 14.4467 25.1314 14.1367 24.7247 13.91C24.3247 13.6767 23.8847 13.56 23.4047 13.56C22.9314 13.56 22.4914 13.6733 22.0847 13.9C21.6847 14.1267 21.3514 14.4367 21.0847 14.83C20.8247 15.2167 20.6514 15.6533 20.5647 16.14ZM32.7466 9.73V12H35.5666V14.08H32.7466V22H30.6666V14.08H29.4766V12H30.6666V9.73C30.6666 9.18333 30.7999 8.68667 31.0666 8.24C31.3332 7.78667 31.6899 7.42667 32.1366 7.16C32.5899 6.89333 33.0932 6.76 33.6466 6.76C34.0466 6.76 34.4366 6.84 34.8166 7C35.1966 7.16 35.5366 7.40667 35.8366 7.74L34.3466 9.21C34.2732 9.09 34.1699 9 34.0366 8.94C33.9099 8.87333 33.7799 8.84 33.6466 8.84C33.3999 8.84 33.1866 8.92667 33.0066 9.1C32.8332 9.27333 32.7466 9.48333 32.7466 9.73ZM41.393 22.26C40.473 22.26 39.633 22.0233 38.873 21.55C38.1196 21.0767 37.5163 20.4433 37.063 19.65C36.6163 18.85 36.393 17.9667 36.393 17C36.393 16.2667 36.523 15.5833 36.783 14.95C37.043 14.31 37.3996 13.75 37.853 13.27C38.313 12.7833 38.8463 12.4033 39.453 12.13C40.0596 11.8567 40.7063 11.72 41.393 11.72C42.1596 11.72 42.863 11.88 43.503 12.2C44.143 12.5133 44.6896 12.95 45.143 13.51C45.5963 14.0633 45.9296 14.7033 46.143 15.43C46.3563 16.15 46.4196 16.9167 46.333 17.73H38.623C38.7096 18.19 38.8763 18.6067 39.123 18.98C39.3763 19.3467 39.6963 19.6367 40.083 19.85C40.4763 20.0633 40.913 20.1733 41.393 20.18C41.8996 20.18 42.3596 20.0533 42.773 19.8C43.193 19.5467 43.5363 19.1967 43.803 18.75L45.913 19.24C45.513 20.1267 44.9096 20.8533 44.103 21.42C43.2963 21.98 42.393 22.26 41.393 22.26ZM38.553 16.14H44.233C44.1663 15.66 43.9963 15.2267 43.723 14.84C43.4563 14.4467 43.1196 14.1367 42.713 13.91C42.313 13.6767 41.873 13.56 41.393 13.56C40.9196 13.56 40.4796 13.6733 40.073 13.9C39.673 14.1267 39.3396 14.4367 39.073 14.83C38.813 15.2167 38.6396 15.6533 38.553 16.14ZM47.9891 22V12H50.0691V13.06C50.4157 12.6467 50.8424 12.32 51.3491 12.08C51.8557 11.84 52.4024 11.72 52.9891 11.72C53.3624 11.72 53.7324 11.77 54.0991 11.87L53.2691 13.97C53.0091 13.87 52.7491 13.82 52.4891 13.82C52.0491 13.82 51.6457 13.93 51.2791 14.15C50.9124 14.3633 50.6191 14.6533 50.3991 15.02C50.1791 15.3867 50.0691 15.7933 50.0691 16.24V22H47.9891ZM55.3328 22V12H57.4128V13.06C57.7595 12.6467 58.1861 12.32 58.6928 12.08C59.1995 11.84 59.7461 11.72 60.3328 11.72C60.7061 11.72 61.0761 11.77 61.4428 11.87L60.6128 13.97C60.3528 13.87 60.0928 13.82 59.8328 13.82C59.3928 13.82 58.9895 13.93 58.6228 14.15C58.2561 14.3633 57.9628 14.6533 57.7428 15.02C57.5228 15.3867 57.4128 15.7933 57.4128 16.24V22H55.3328ZM66.5297 22.26C65.6097 22.26 64.7697 22.0233 64.0097 21.55C63.2564 21.0767 62.653 20.4433 62.1997 19.65C61.753 18.85 61.5297 17.9667 61.5297 17C61.5297 16.2667 61.6597 15.5833 61.9197 14.95C62.1797 14.31 62.5364 13.75 62.9897 13.27C63.4497 12.7833 63.983 12.4033 64.5897 12.13C65.1964 11.8567 65.843 11.72 66.5297 11.72C67.2964 11.72 67.9997 11.88 68.6397 12.2C69.2797 12.5133 69.8264 12.95 70.2797 13.51C70.733 14.0633 71.0664 14.7033 71.2797 15.43C71.493 16.15 71.5564 16.9167 71.4697 17.73H63.7597C63.8464 18.19 64.013 18.6067 64.2597 18.98C64.513 19.3467 64.833 19.6367 65.2197 19.85C65.613 20.0633 66.0497 20.1733 66.5297 20.18C67.0364 20.18 67.4964 20.0533 67.9097 19.8C68.3297 19.5467 68.673 19.1967 68.9397 18.75L71.0497 19.24C70.6497 20.1267 70.0464 20.8533 69.2397 21.42C68.433 21.98 67.5297 22.26 66.5297 22.26ZM63.6897 16.14H69.3697C69.303 15.66 69.133 15.2267 68.8597 14.84C68.593 14.4467 68.2564 14.1367 67.8497 13.91C67.4497 13.6767 67.0097 13.56 66.5297 13.56C66.0564 13.56 65.6164 13.6733 65.2097 13.9C64.8097 14.1267 64.4764 14.4367 64.2097 14.83C63.9497 15.2167 63.7764 15.6533 63.6897 16.14ZM80.8963 7H82.9762V22H80.8963V20.53C80.5696 21.05 80.1429 21.47 79.6163 21.79C79.0896 22.1033 78.4729 22.26 77.7663 22.26C77.0396 22.26 76.3596 22.1233 75.7263 21.85C75.0929 21.5767 74.5329 21.2 74.0463 20.72C73.5663 20.2333 73.1896 19.6733 72.9163 19.04C72.6429 18.4067 72.5063 17.7267 72.5063 17C72.5063 16.2733 72.6429 15.5933 72.9163 14.96C73.1896 14.32 73.5663 13.76 74.0463 13.28C74.5329 12.7933 75.0929 12.4133 75.7263 12.14C76.3596 11.8667 77.0396 11.73 77.7663 11.73C78.4729 11.73 79.0896 11.89 79.6163 12.21C80.1429 12.5233 80.5696 12.9367 80.8963 13.45V7ZM77.7862 20.25C78.3729 20.25 78.8863 20.1067 79.3263 19.82C79.7663 19.5267 80.1063 19.1333 80.3463 18.64C80.5929 18.1467 80.7163 17.6 80.7163 17C80.7163 16.3933 80.5929 15.8433 80.3463 15.35C80.0996 14.8567 79.7563 14.4667 79.3163 14.18C78.8829 13.8867 78.3729 13.74 77.7862 13.74C77.2063 13.74 76.6763 13.8867 76.1963 14.18C75.7229 14.4733 75.3429 14.8667 75.0563 15.36C74.7763 15.8533 74.6363 16.4 74.6363 17C74.6363 17.6067 74.7796 18.1567 75.0663 18.65C75.3596 19.1367 75.7429 19.5267 76.2163 19.82C76.6963 20.1067 77.2196 20.25 77.7862 20.25ZM96.6566 22.26C95.7099 22.26 94.8199 22.0733 93.9866 21.7C93.1532 21.32 92.4199 20.8 91.7866 20.14C91.1599 19.4733 90.6666 18.7 90.3066 17.82C89.9532 16.94 89.7766 16 89.7766 15C89.7766 14 89.9532 13.06 90.3066 12.18C90.6666 11.3 91.1599 10.53 91.7866 9.87C92.4199 9.20333 93.1532 8.68333 93.9866 8.31C94.8199 7.93 95.7099 7.74 96.6566 7.74C97.7899 7.74 98.8332 8.00333 99.7866 8.53C100.74 9.05667 101.53 9.75667 102.157 10.63L100.307 11.62C99.8732 11.0733 99.3366 10.6367 98.6966 10.31C98.0566 9.98333 97.3766 9.82 96.6566 9.82C95.9899 9.82 95.3666 9.95667 94.7866 10.23C94.2066 10.5033 93.6966 10.8767 93.2566 11.35C92.8166 11.8233 92.4732 12.3733 92.2266 13C91.9799 13.6267 91.8566 14.2933 91.8566 15C91.8566 15.7133 91.9799 16.3833 92.2266 17.01C92.4732 17.63 92.8166 18.18 93.2566 18.66C93.7032 19.1333 94.2166 19.5067 94.7966 19.78C95.3766 20.0467 95.9966 20.18 96.6566 20.18C97.3899 20.18 98.0732 20.0167 98.7066 19.69C99.3466 19.3567 99.8799 18.9167 100.307 18.37L102.157 19.38C101.53 20.2533 100.74 20.9533 99.7866 21.48C98.8332 22 97.7899 22.26 96.6566 22.26ZM107.975 22.26C107.055 22.26 106.215 22.0233 105.455 21.55C104.702 21.0767 104.098 20.4433 103.645 19.65C103.198 18.85 102.975 17.9667 102.975 17C102.975 16.2667 103.105 15.5833 103.365 14.95C103.625 14.31 103.982 13.75 104.435 13.27C104.895 12.7833 105.428 12.4033 106.035 12.13C106.642 11.8567 107.288 11.72 107.975 11.72C108.895 11.72 109.732 11.9567 110.485 12.43C111.245 12.9033 111.848 13.54 112.295 14.34C112.748 15.14 112.975 16.0267 112.975 17C112.975 17.7267 112.845 18.4067 112.585 19.04C112.325 19.6733 111.965 20.2333 111.505 20.72C111.052 21.2 110.522 21.5767 109.915 21.85C109.315 22.1233 108.668 22.26 107.975 22.26ZM107.975 20.18C108.528 20.18 109.025 20.0333 109.465 19.74C109.905 19.4467 110.252 19.06 110.505 18.58C110.765 18.0933 110.895 17.5667 110.895 17C110.895 16.42 110.762 15.8867 110.495 15.4C110.235 14.9133 109.885 14.5267 109.445 14.24C109.005 13.9467 108.515 13.8 107.975 13.8C107.428 13.8 106.932 13.9467 106.485 14.24C106.045 14.5333 105.695 14.9233 105.435 15.41C105.182 15.8967 105.055 16.4267 105.055 17C105.055 17.5933 105.188 18.13 105.455 18.61C105.722 19.09 106.075 19.4733 106.515 19.76C106.962 20.04 107.448 20.18 107.975 20.18ZM123.591 15.73V22H121.511V16.24C121.511 15.7933 121.401 15.3867 121.181 15.02C120.967 14.6533 120.677 14.3633 120.311 14.15C119.951 13.93 119.544 13.82 119.091 13.82C118.651 13.82 118.247 13.93 117.881 14.15C117.514 14.3633 117.221 14.6533 117.001 15.02C116.781 15.3867 116.671 15.7933 116.671 16.24V22H114.591V12H116.671V13.06C117.017 12.6467 117.444 12.32 117.951 12.08C118.457 11.84 119.004 11.72 119.591 11.72C120.331 11.72 121.004 11.9 121.611 12.26C122.217 12.62 122.697 13.1033 123.051 13.71C123.411 14.3167 123.591 14.99 123.591 15.73ZM130.867 14.08H128.767L128.757 22H126.677L126.687 14.08H125.097V12H126.687L126.677 8.86H128.757L128.767 12H130.867V14.08ZM140.203 12H142.283V22H140.193L140.113 20.55C139.819 21.0633 139.423 21.4767 138.923 21.79C138.423 22.1033 137.833 22.26 137.153 22.26C136.419 22.26 135.729 22.1233 135.083 21.85C134.436 21.57 133.866 21.1833 133.373 20.69C132.886 20.1967 132.506 19.63 132.233 18.99C131.959 18.3433 131.823 17.65 131.823 16.91C131.823 16.1967 131.956 15.5267 132.223 14.9C132.489 14.2667 132.859 13.7133 133.333 13.24C133.806 12.7667 134.353 12.3967 134.973 12.13C135.599 11.8567 136.269 11.72 136.983 11.72C137.709 11.72 138.349 11.8867 138.903 12.22C139.463 12.5467 139.926 12.9667 140.293 13.48L140.203 12ZM137.103 20.25C137.689 20.25 138.203 20.1067 138.643 19.82C139.083 19.5267 139.423 19.1333 139.663 18.64C139.909 18.1467 140.033 17.6 140.033 17C140.033 16.3933 139.909 15.8433 139.663 15.35C139.416 14.8567 139.073 14.4667 138.633 14.18C138.199 13.8867 137.689 13.74 137.103 13.74C136.523 13.74 135.993 13.8867 135.513 14.18C135.033 14.4733 134.653 14.8667 134.373 15.36C134.093 15.8533 133.953 16.4 133.953 17C133.953 17.6067 134.096 18.1567 134.383 18.65C134.676 19.1367 135.059 19.5267 135.533 19.82C136.013 20.1067 136.536 20.25 137.103 20.25ZM150.613 19.16L152.473 20.17C152.019 20.8033 151.443 21.31 150.743 21.69C150.049 22.07 149.296 22.26 148.483 22.26C147.563 22.26 146.723 22.0233 145.963 21.55C145.209 21.0767 144.606 20.4433 144.153 19.65C143.706 18.85 143.483 17.9667 143.483 17C143.483 16.2667 143.613 15.5833 143.873 14.95C144.133 14.31 144.489 13.75 144.943 13.27C145.403 12.7833 145.936 12.4033 146.543 12.13C147.149 11.8567 147.796 11.72 148.483 11.72C149.296 11.72 150.049 11.91 150.743 12.29C151.443 12.67 152.019 13.18 152.473 13.82L150.613 14.83C150.333 14.4967 150.006 14.2433 149.633 14.07C149.259 13.89 148.876 13.8 148.483 13.8C147.936 13.8 147.439 13.95 146.993 14.25C146.553 14.5433 146.203 14.9333 145.943 15.42C145.689 15.9 145.563 16.4267 145.563 17C145.563 17.5667 145.693 18.0933 145.953 18.58C146.213 19.06 146.563 19.4467 147.003 19.74C147.449 20.0333 147.943 20.18 148.483 20.18C148.896 20.18 149.289 20.0867 149.663 19.9C150.036 19.7133 150.353 19.4667 150.613 19.16ZM159.558 14.08H157.458L157.448 22H155.368L155.378 14.08H153.788V12H155.378L155.368 8.86H157.448L157.458 12H159.558V14.08ZM166.153 22L168.863 8H170.543L174.133 17.43L177.703 8H179.383L182.103 22H179.983L178.173 12.63L174.823 21.47H173.423L170.083 12.63L168.273 22H166.153ZM187.936 22.26C187.016 22.26 186.176 22.0233 185.416 21.55C184.663 21.0767 184.059 20.4433 183.606 19.65C183.159 18.85 182.936 17.9667 182.936 17C182.936 16.2667 183.066 15.5833 183.326 14.95C183.586 14.31 183.943 13.75 184.396 13.27C184.856 12.7833 185.389 12.4033 185.996 12.13C186.603 11.8567 187.249 11.72 187.936 11.72C188.703 11.72 189.406 11.88 190.046 12.2C190.686 12.5133 191.233 12.95 191.686 13.51C192.139 14.0633 192.473 14.7033 192.686 15.43C192.899 16.15 192.963 16.9167 192.876 17.73H185.166C185.253 18.19 185.419 18.6067 185.666 18.98C185.919 19.3467 186.239 19.6367 186.626 19.85C187.019 20.0633 187.456 20.1733 187.936 20.18C188.443 20.18 188.903 20.0533 189.316 19.8C189.736 19.5467 190.079 19.1967 190.346 18.75L192.456 19.24C192.056 20.1267 191.453 20.8533 190.646 21.42C189.839 21.98 188.936 22.26 187.936 22.26ZM185.096 16.14H190.776C190.709 15.66 190.539 15.2267 190.266 14.84C189.999 14.4467 189.663 14.1367 189.256 13.91C188.856 13.6767 188.416 13.56 187.936 13.56C187.463 13.56 187.023 13.6733 186.616 13.9C186.216 14.1267 185.883 14.4367 185.616 14.83C185.356 15.2167 185.183 15.6533 185.096 16.14ZM199.753 14.08H197.653L197.643 22H195.563L195.573 14.08H193.983V12H195.573L195.563 8.86H197.643L197.653 12H199.753V14.08ZM210.544 15.73V22H208.464V16.24C208.464 15.7933 208.354 15.3867 208.134 15.02C207.92 14.6533 207.63 14.3633 207.264 14.15C206.904 13.93 206.497 13.82 206.044 13.82C205.604 13.82 205.2 13.93 204.834 14.15C204.467 14.3633 204.174 14.6533 203.954 15.02C203.734 15.3867 203.624 15.7933 203.624 16.24V22H201.544V7H203.624V13.06C203.97 12.6467 204.397 12.32 204.904 12.08C205.41 11.84 205.957 11.72 206.544 11.72C207.284 11.72 207.957 11.9 208.564 12.26C209.17 12.62 209.65 13.1033 210.004 13.71C210.364 14.3167 210.544 14.99 210.544 15.73ZM216.745 22.26C215.825 22.26 214.985 22.0233 214.225 21.55C213.471 21.0767 212.868 20.4433 212.415 19.65C211.968 18.85 211.745 17.9667 211.745 17C211.745 16.2667 211.875 15.5833 212.135 14.95C212.395 14.31 212.751 13.75 213.205 13.27C213.665 12.7833 214.198 12.4033 214.805 12.13C215.411 11.8567 216.058 11.72 216.745 11.72C217.665 11.72 218.501 11.9567 219.255 12.43C220.015 12.9033 220.618 13.54 221.065 14.34C221.518 15.14 221.745 16.0267 221.745 17C221.745 17.7267 221.615 18.4067 221.355 19.04C221.095 19.6733 220.735 20.2333 220.275 20.72C219.821 21.2 219.291 21.5767 218.685 21.85C218.085 22.1233 217.438 22.26 216.745 22.26ZM216.745 20.18C217.298 20.18 217.795 20.0333 218.235 19.74C218.675 19.4467 219.021 19.06 219.275 18.58C219.535 18.0933 219.665 17.5667 219.665 17C219.665 16.42 219.531 15.8867 219.265 15.4C219.005 14.9133 218.655 14.5267 218.215 14.24C217.775 13.9467 217.285 13.8 216.745 13.8C216.198 13.8 215.701 13.9467 215.255 14.24C214.815 14.5333 214.465 14.9233 214.205 15.41C213.951 15.8967 213.825 16.4267 213.825 17C213.825 17.5933 213.958 18.13 214.225 18.61C214.491 19.09 214.845 19.4733 215.285 19.76C215.731 20.04 216.218 20.18 216.745 20.18ZM231.131 7H233.211V22H231.131V20.53C230.804 21.05 230.377 21.47 229.851 21.79C229.324 22.1033 228.707 22.26 228.001 22.26C227.274 22.26 226.594 22.1233 225.961 21.85C225.327 21.5767 224.767 21.2 224.281 20.72C223.801 20.2333 223.424 19.6733 223.151 19.04C222.877 18.4067 222.741 17.7267 222.741 17C222.741 16.2733 222.877 15.5933 223.151 14.96C223.424 14.32 223.801 13.76 224.281 13.28C224.767 12.7933 225.327 12.4133 225.961 12.14C226.594 11.8667 227.274 11.73 228.001 11.73C228.707 11.73 229.324 11.89 229.851 12.21C230.377 12.5233 230.804 12.9367 231.131 13.45V7ZM228.021 20.25C228.607 20.25 229.121 20.1067 229.561 19.82C230.001 19.5267 230.341 19.1333 230.581 18.64C230.827 18.1467 230.951 17.6 230.951 17C230.951 16.3933 230.827 15.8433 230.581 15.35C230.334 14.8567 229.991 14.4667 229.551 14.18C229.117 13.8867 228.607 13.74 228.021 13.74C227.441 13.74 226.911 13.8867 226.431 14.18C225.957 14.4733 225.577 14.8667 225.291 15.36C225.011 15.8533 224.871 16.4 224.871 17C224.871 17.6067 225.014 18.1567 225.301 18.65C225.594 19.1367 225.977 19.5267 226.451 19.82C226.931 20.1067 227.454 20.25 228.021 20.25Z" fill="white"></path><rect x="1" y="46.5" width="327.75" height="67" rx="7.5" fill="#1A1A1A"></rect><rect x="1" y="46.5" width="327.75" height="67" rx="7.5" stroke="#262626"></rect><path fill-rule="evenodd" clip-rule="evenodd" d="M26 72.5C26 70.8431 27.3431 69.5 29 69.5H30.3716C31.232 69.5 31.982 70.0856 32.1906 70.9202L33.2964 75.3434C33.4794 76.0753 33.2059 76.8455 32.6024 77.2982L31.3088 78.2684C31.1745 78.3691 31.1453 78.5167 31.183 78.6197C32.3185 81.7195 34.7805 84.1815 37.8803 85.317C37.9833 85.3547 38.1309 85.3255 38.2316 85.1912L39.2018 83.8976C39.6545 83.2941 40.4247 83.0206 41.1566 83.2036L45.5798 84.3094C46.4144 84.518 47 85.268 47 86.1284V87.5C47 89.1569 45.6569 90.5 44 90.5H41.75C33.0515 90.5 26 83.4485 26 74.75V72.5Z" fill="white"></path><path d="M61.58 86V73.4H69.311V74.912H63.092V78.494H68.186V80.006H63.092V84.488H69.311V86H61.58ZM79.2391 80.402V86H77.7271V80.735C77.7271 80.279 77.6161 79.865 77.3941 79.493C77.1721 79.121 76.8751 78.827 76.5031 78.611C76.1311 78.389 75.7171 78.278 75.2611 78.278C74.8111 78.278 74.3971 78.389 74.0191 78.611C73.6471 78.827 73.3501 79.121 73.1281 79.493C72.9061 79.865 72.7951 80.279 72.7951 80.735V86H71.2831V77H72.7951V78.125C73.1131 77.705 73.5151 77.372 74.0011 77.126C74.4871 76.874 75.0151 76.748 75.5851 76.748C76.2571 76.748 76.8691 76.913 77.4211 77.243C77.9791 77.567 78.4201 78.005 78.7441 78.557C79.0741 79.109 79.2391 79.724 79.2391 80.402ZM85.701 78.512H83.658L83.649 86H82.137L82.146 78.512H80.598V77H82.146L82.137 74.174H83.649L83.658 77H85.701V78.512ZM91.0459 86.234C90.2179 86.234 89.4619 86.021 88.7779 85.595C88.0999 85.169 87.5569 84.599 87.1489 83.885C86.7469 83.165 86.5459 82.37 86.5459 81.5C86.5459 80.84 86.6629 80.225 86.8969 79.655C87.1309 79.079 87.4519 78.575 87.8599 78.143C88.2739 77.705 88.7539 77.363 89.2999 77.117C89.8459 76.871 90.4279 76.748 91.0459 76.748C91.7239 76.748 92.3449 76.886 92.9089 77.162C93.4789 77.432 93.9649 77.81 94.3669 78.296C94.7749 78.782 95.0779 79.346 95.2759 79.988C95.4799 80.63 95.5549 81.317 95.5009 82.049H88.1569C88.2289 82.559 88.3969 83.015 88.6609 83.417C88.9249 83.813 89.2609 84.128 89.6689 84.362C90.0829 84.596 90.5419 84.716 91.0459 84.722C91.5859 84.722 92.0749 84.584 92.5129 84.308C92.9509 84.026 93.3049 83.642 93.5749 83.156L95.1139 83.516C94.7539 84.314 94.2109 84.968 93.4849 85.478C92.7589 85.982 91.9459 86.234 91.0459 86.234ZM88.1119 80.861H93.9799C93.9319 80.357 93.7699 79.898 93.4939 79.484C93.2179 79.064 92.8669 78.728 92.4409 78.476C92.0149 78.224 91.5499 78.098 91.0459 78.098C90.5419 78.098 90.0799 78.221 89.6599 78.467C89.2399 78.713 88.8919 79.046 88.6159 79.466C88.3459 79.88 88.1779 80.345 88.1119 80.861ZM97.0175 86V77H98.5295V78.125C98.8475 77.705 99.2495 77.372 99.7355 77.126C100.222 76.874 100.75 76.748 101.32 76.748C101.668 76.748 102.004 76.793 102.328 76.883L101.716 78.395C101.47 78.317 101.23 78.278 100.996 78.278C100.546 78.278 100.132 78.389 99.7535 78.611C99.3815 78.827 99.0845 79.121 98.8625 79.493C98.6405 79.865 98.5295 80.279 98.5295 80.735V86H97.0175ZM115.638 73.4H117.42L113.154 80.303V86H111.642V80.303L107.376 73.4H109.158L112.398 78.647L115.638 73.4ZM121.438 86.234C120.61 86.234 119.854 86.021 119.17 85.595C118.492 85.169 117.949 84.599 117.541 83.885C117.139 83.165 116.938 82.37 116.938 81.5C116.938 80.84 117.055 80.225 117.289 79.655C117.523 79.079 117.844 78.575 118.252 78.143C118.666 77.705 119.146 77.363 119.692 77.117C120.238 76.871 120.82 76.748 121.438 76.748C122.266 76.748 123.019 76.961 123.697 77.387C124.381 77.813 124.924 78.386 125.326 79.106C125.734 79.826 125.938 80.624 125.938 81.5C125.938 82.154 125.821 82.766 125.587 83.336C125.353 83.906 125.029 84.41 124.615 84.848C124.207 85.28 123.73 85.619 123.184 85.865C122.644 86.111 122.062 86.234 121.438 86.234ZM121.438 84.722C122.002 84.722 122.509 84.575 122.959 84.281C123.415 83.981 123.772 83.588 124.03 83.102C124.294 82.61 124.426 82.076 124.426 81.5C124.426 80.912 124.291 80.372 124.021 79.88C123.757 79.388 123.4 78.995 122.95 78.701C122.5 78.407 121.996 78.26 121.438 78.26C120.874 78.26 120.367 78.41 119.917 78.71C119.467 79.004 119.11 79.397 118.846 79.889C118.582 80.381 118.45 80.918 118.45 81.5C118.45 82.1 118.585 82.646 118.855 83.138C119.125 83.624 119.488 84.011 119.944 84.299C120.4 84.581 120.898 84.722 121.438 84.722ZM126.945 82.58V77H128.457V82.247C128.457 82.703 128.568 83.117 128.79 83.489C129.012 83.861 129.309 84.158 129.681 84.38C130.059 84.596 130.473 84.704 130.923 84.704C131.379 84.704 131.79 84.596 132.156 84.38C132.528 84.158 132.825 83.861 133.047 83.489C133.269 83.117 133.38 82.703 133.38 82.247V77H134.892L134.901 86H133.389L133.38 84.857C133.062 85.277 132.66 85.613 132.174 85.865C131.688 86.111 131.163 86.234 130.599 86.234C129.927 86.234 129.312 86.072 128.754 85.748C128.202 85.418 127.761 84.977 127.431 84.425C127.107 83.873 126.945 83.258 126.945 82.58ZM136.709 86V77H138.221V78.125C138.539 77.705 138.941 77.372 139.427 77.126C139.913 76.874 140.441 76.748 141.011 76.748C141.359 76.748 141.695 76.793 142.019 76.883L141.407 78.395C141.161 78.317 140.921 78.278 140.687 78.278C140.237 78.278 139.823 78.389 139.445 78.611C139.073 78.827 138.776 79.121 138.554 79.493C138.332 79.865 138.221 80.279 138.221 80.735V86H136.709ZM147.607 86V73.4H149.245L155.536 83.264V73.4H157.048V86H155.419L149.119 76.136V86H147.607ZM158.849 82.58V77H160.361V82.247C160.361 82.703 160.472 83.117 160.694 83.489C160.916 83.861 161.213 84.158 161.585 84.38C161.963 84.596 162.377 84.704 162.827 84.704C163.283 84.704 163.694 84.596 164.06 84.38C164.432 84.158 164.729 83.861 164.951 83.489C165.173 83.117 165.284 82.703 165.284 82.247V77H166.796L166.805 86H165.293L165.284 84.857C164.966 85.277 164.564 85.613 164.078 85.865C163.592 86.111 163.067 86.234 162.503 86.234C161.831 86.234 161.216 86.072 160.658 85.748C160.106 85.418 159.665 84.977 159.335 84.425C159.011 83.873 158.849 83.258 158.849 82.58ZM168.613 86V77H170.125V78.125C170.443 77.705 170.842 77.372 171.322 77.126C171.808 76.874 172.336 76.748 172.906 76.748C173.572 76.748 174.181 76.91 174.733 77.234C175.285 77.558 175.72 77.987 176.038 78.521C176.356 77.987 176.788 77.558 177.334 77.234C177.886 76.91 178.492 76.748 179.152 76.748C179.83 76.748 180.445 76.913 180.997 77.243C181.549 77.567 181.987 78.005 182.311 78.557C182.641 79.109 182.806 79.724 182.806 80.402V86H181.294V80.762C181.294 80.318 181.186 79.907 180.97 79.529C180.754 79.151 180.463 78.848 180.097 78.62C179.731 78.392 179.326 78.278 178.882 78.278C178.438 78.278 178.033 78.386 177.667 78.602C177.301 78.812 177.01 79.106 176.794 79.484C176.578 79.856 176.47 80.282 176.47 80.762V86H174.958V80.762C174.958 80.282 174.85 79.856 174.634 79.484C174.418 79.106 174.124 78.812 173.752 78.602C173.386 78.386 172.981 78.278 172.537 78.278C172.099 78.278 171.694 78.392 171.322 78.62C170.956 78.848 170.665 79.151 170.449 79.529C170.233 79.907 170.125 80.318 170.125 80.762V86H168.613ZM189.269 76.748C190.145 76.748 190.94 76.961 191.654 77.387C192.374 77.813 192.947 78.386 193.373 79.106C193.799 79.82 194.012 80.615 194.012 81.491C194.012 82.145 193.889 82.76 193.643 83.336C193.397 83.906 193.055 84.41 192.617 84.848C192.185 85.28 191.681 85.619 191.105 85.865C190.535 86.111 189.923 86.234 189.269 86.234C188.573 86.234 187.967 86.072 187.451 85.748C186.941 85.418 186.533 84.989 186.227 84.461V86H184.715V72.5H186.227V78.521C186.533 77.993 186.941 77.567 187.451 77.243C187.967 76.913 188.573 76.748 189.269 76.748ZM189.251 84.758C189.845 84.758 190.385 84.611 190.871 84.317C191.357 84.023 191.744 83.63 192.032 83.138C192.32 82.64 192.464 82.091 192.464 81.491C192.464 80.879 192.317 80.327 192.023 79.835C191.729 79.337 191.339 78.944 190.853 78.656C190.367 78.362 189.833 78.215 189.251 78.215C188.663 78.215 188.15 78.362 187.712 78.656C187.28 78.95 186.944 79.346 186.704 79.844C186.47 80.342 186.353 80.891 186.353 81.491C186.353 82.097 186.47 82.649 186.704 83.147C186.944 83.639 187.283 84.032 187.721 84.326C188.159 84.614 188.669 84.758 189.251 84.758ZM199.415 86.234C198.587 86.234 197.831 86.021 197.147 85.595C196.469 85.169 195.926 84.599 195.518 83.885C195.116 83.165 194.915 82.37 194.915 81.5C194.915 80.84 195.032 80.225 195.266 79.655C195.5 79.079 195.821 78.575 196.229 78.143C196.643 77.705 197.123 77.363 197.669 77.117C198.215 76.871 198.797 76.748 199.415 76.748C200.093 76.748 200.714 76.886 201.278 77.162C201.848 77.432 202.334 77.81 202.736 78.296C203.144 78.782 203.447 79.346 203.645 79.988C203.849 80.63 203.924 81.317 203.87 82.049H196.526C196.598 82.559 196.766 83.015 197.03 83.417C197.294 83.813 197.63 84.128 198.038 84.362C198.452 84.596 198.911 84.716 199.415 84.722C199.955 84.722 200.444 84.584 200.882 84.308C201.32 84.026 201.674 83.642 201.944 83.156L203.483 83.516C203.123 84.314 202.58 84.968 201.854 85.478C201.128 85.982 200.315 86.234 199.415 86.234ZM196.481 80.861H202.349C202.301 80.357 202.139 79.898 201.863 79.484C201.587 79.064 201.236 78.728 200.81 78.476C200.384 78.224 199.919 78.098 199.415 78.098C198.911 78.098 198.449 78.221 198.029 78.467C197.609 78.713 197.261 79.046 196.985 79.466C196.715 79.88 196.547 80.345 196.481 80.861ZM205.387 86V77H206.899V78.125C207.217 77.705 207.619 77.372 208.105 77.126C208.591 76.874 209.119 76.748 209.689 76.748C210.037 76.748 210.373 76.793 210.697 76.883L210.085 78.395C209.839 78.317 209.599 78.278 209.365 78.278C208.915 78.278 208.501 78.389 208.123 78.611C207.751 78.827 207.454 79.121 207.232 79.493C207.01 79.865 206.899 80.279 206.899 80.735V86H205.387Z" fill="#666666"></path><circle cx="297.25" cy="80" r="8" fill="#703BF7"></circle><rect x="345.75" y="46.5" width="327.75" height="67" rx="7.5" fill="#1A1A1A"></rect><rect x="345.75" y="46.5" width="327.75" height="67" rx="7.5" stroke="#262626"></rect><path d="M370.75 76.6691V85.25C370.75 86.9069 372.093 88.25 373.75 88.25H388.75C390.407 88.25 391.75 86.9069 391.75 85.25V76.6691L382.822 82.1631C381.858 82.7564 380.642 82.7564 379.678 82.1631L370.75 76.6691Z" fill="white"></path><path d="M391.75 74.9078V74.75C391.75 73.0931 390.407 71.75 388.75 71.75H373.75C372.093 71.75 370.75 73.0931 370.75 74.75V74.9078L380.464 80.8856C380.946 81.1823 381.554 81.1823 382.036 80.8856L391.75 74.9078Z" fill="white"></path><path d="M406.33 86V73.4H414.061V74.912H407.842V78.494H412.936V80.006H407.842V84.488H414.061V86H406.33ZM423.989 80.402V86H422.477V80.735C422.477 80.279 422.366 79.865 422.144 79.493C421.922 79.121 421.625 78.827 421.253 78.611C420.881 78.389 420.467 78.278 420.011 78.278C419.561 78.278 419.147 78.389 418.769 78.611C418.397 78.827 418.1 79.121 417.878 79.493C417.656 79.865 417.545 80.279 417.545 80.735V86H416.033V77H417.545V78.125C417.863 77.705 418.265 77.372 418.751 77.126C419.237 76.874 419.765 76.748 420.335 76.748C421.007 76.748 421.619 76.913 422.171 77.243C422.729 77.567 423.17 78.005 423.494 78.557C423.824 79.109 423.989 79.724 423.989 80.402ZM430.451 78.512H428.408L428.399 86H426.887L426.896 78.512H425.348V77H426.896L426.887 74.174H428.399L428.408 77H430.451V78.512ZM435.796 86.234C434.968 86.234 434.212 86.021 433.528 85.595C432.85 85.169 432.307 84.599 431.899 83.885C431.497 83.165 431.296 82.37 431.296 81.5C431.296 80.84 431.413 80.225 431.647 79.655C431.881 79.079 432.202 78.575 432.61 78.143C433.024 77.705 433.504 77.363 434.05 77.117C434.596 76.871 435.178 76.748 435.796 76.748C436.474 76.748 437.095 76.886 437.659 77.162C438.229 77.432 438.715 77.81 439.117 78.296C439.525 78.782 439.828 79.346 440.026 79.988C440.23 80.63 440.305 81.317 440.251 82.049H432.907C432.979 82.559 433.147 83.015 433.411 83.417C433.675 83.813 434.011 84.128 434.419 84.362C434.833 84.596 435.292 84.716 435.796 84.722C436.336 84.722 436.825 84.584 437.263 84.308C437.701 84.026 438.055 83.642 438.325 83.156L439.864 83.516C439.504 84.314 438.961 84.968 438.235 85.478C437.509 85.982 436.696 86.234 435.796 86.234ZM432.862 80.861H438.73C438.682 80.357 438.52 79.898 438.244 79.484C437.968 79.064 437.617 78.728 437.191 78.476C436.765 78.224 436.3 78.098 435.796 78.098C435.292 78.098 434.83 78.221 434.41 78.467C433.99 78.713 433.642 79.046 433.366 79.466C433.096 79.88 432.928 80.345 432.862 80.861ZM441.768 86V77H443.28V78.125C443.598 77.705 444 77.372 444.486 77.126C444.972 76.874 445.5 76.748 446.07 76.748C446.418 76.748 446.754 76.793 447.078 76.883L446.466 78.395C446.22 78.317 445.98 78.278 445.746 78.278C445.296 78.278 444.882 78.389 444.504 78.611C444.132 78.827 443.835 79.121 443.613 79.493C443.391 79.865 443.28 80.279 443.28 80.735V86H441.768ZM460.388 73.4H462.17L457.904 80.303V86H456.392V80.303L452.126 73.4H453.908L457.148 78.647L460.388 73.4ZM466.188 86.234C465.36 86.234 464.604 86.021 463.92 85.595C463.242 85.169 462.699 84.599 462.291 83.885C461.889 83.165 461.688 82.37 461.688 81.5C461.688 80.84 461.805 80.225 462.039 79.655C462.273 79.079 462.594 78.575 463.002 78.143C463.416 77.705 463.896 77.363 464.442 77.117C464.988 76.871 465.57 76.748 466.188 76.748C467.016 76.748 467.769 76.961 468.447 77.387C469.131 77.813 469.674 78.386 470.076 79.106C470.484 79.826 470.688 80.624 470.688 81.5C470.688 82.154 470.571 82.766 470.337 83.336C470.103 83.906 469.779 84.41 469.365 84.848C468.957 85.28 468.48 85.619 467.934 85.865C467.394 86.111 466.812 86.234 466.188 86.234ZM466.188 84.722C466.752 84.722 467.259 84.575 467.709 84.281C468.165 83.981 468.522 83.588 468.78 83.102C469.044 82.61 469.176 82.076 469.176 81.5C469.176 80.912 469.041 80.372 468.771 79.88C468.507 79.388 468.15 78.995 467.7 78.701C467.25 78.407 466.746 78.26 466.188 78.26C465.624 78.26 465.117 78.41 464.667 78.71C464.217 79.004 463.86 79.397 463.596 79.889C463.332 80.381 463.2 80.918 463.2 81.5C463.2 82.1 463.335 82.646 463.605 83.138C463.875 83.624 464.238 84.011 464.694 84.299C465.15 84.581 465.648 84.722 466.188 84.722ZM471.695 82.58V77H473.207V82.247C473.207 82.703 473.318 83.117 473.54 83.489C473.762 83.861 474.059 84.158 474.431 84.38C474.809 84.596 475.223 84.704 475.673 84.704C476.129 84.704 476.54 84.596 476.906 84.38C477.278 84.158 477.575 83.861 477.797 83.489C478.019 83.117 478.13 82.703 478.13 82.247V77H479.642L479.651 86H478.139L478.13 84.857C477.812 85.277 477.41 85.613 476.924 85.865C476.438 86.111 475.913 86.234 475.349 86.234C474.677 86.234 474.062 86.072 473.504 85.748C472.952 85.418 472.511 84.977 472.181 84.425C471.857 83.873 471.695 83.258 471.695 82.58ZM481.459 86V77H482.971V78.125C483.289 77.705 483.691 77.372 484.177 77.126C484.663 76.874 485.191 76.748 485.761 76.748C486.109 76.748 486.445 76.793 486.769 76.883L486.157 78.395C485.911 78.317 485.671 78.278 485.437 78.278C484.987 78.278 484.573 78.389 484.195 78.611C483.823 78.827 483.526 79.121 483.304 79.493C483.082 79.865 482.971 80.279 482.971 80.735V86H481.459ZM492.357 86V73.4H500.088V74.912H493.869V78.494H498.963V80.006H493.869V84.488H500.088V86H492.357ZM502.06 86V77H503.572V78.125C503.89 77.705 504.289 77.372 504.769 77.126C505.255 76.874 505.783 76.748 506.353 76.748C507.019 76.748 507.628 76.91 508.18 77.234C508.732 77.558 509.167 77.987 509.485 78.521C509.803 77.987 510.235 77.558 510.781 77.234C511.333 76.91 511.939 76.748 512.599 76.748C513.277 76.748 513.892 76.913 514.444 77.243C514.996 77.567 515.434 78.005 515.758 78.557C516.088 79.109 516.253 79.724 516.253 80.402V86H514.741V80.762C514.741 80.318 514.633 79.907 514.417 79.529C514.201 79.151 513.91 78.848 513.544 78.62C513.178 78.392 512.773 78.278 512.329 78.278C511.885 78.278 511.48 78.386 511.114 78.602C510.748 78.812 510.457 79.106 510.241 79.484C510.025 79.856 509.917 80.282 509.917 80.762V86H508.405V80.762C508.405 80.282 508.297 79.856 508.081 79.484C507.865 79.106 507.571 78.812 507.199 78.602C506.833 78.386 506.428 78.278 505.984 78.278C505.546 78.278 505.141 78.392 504.769 78.62C504.403 78.848 504.112 79.151 503.896 79.529C503.68 79.907 503.572 80.318 503.572 80.762V86H502.06ZM525.117 77H526.629V86H525.117L525.054 84.479C524.772 85.001 524.382 85.424 523.884 85.748C523.392 86.072 522.804 86.234 522.12 86.234C521.46 86.234 520.842 86.111 520.266 85.865C519.69 85.613 519.18 85.268 518.736 84.83C518.298 84.386 517.956 83.876 517.71 83.3C517.464 82.724 517.341 82.103 517.341 81.437C517.341 80.795 517.461 80.189 517.701 79.619C517.941 79.049 518.274 78.551 518.7 78.125C519.132 77.693 519.63 77.357 520.194 77.117C520.758 76.871 521.364 76.748 522.012 76.748C522.72 76.748 523.341 76.916 523.875 77.252C524.409 77.582 524.841 78.011 525.171 78.539L525.117 77ZM522.093 84.767C522.687 84.767 523.2 84.623 523.632 84.335C524.07 84.041 524.406 83.645 524.64 83.147C524.88 82.649 525 82.1 525 81.5C525 80.888 524.88 80.336 524.64 79.844C524.4 79.346 524.061 78.953 523.623 78.665C523.191 78.371 522.681 78.224 522.093 78.224C521.499 78.224 520.959 78.371 520.473 78.665C519.987 78.959 519.6 79.355 519.312 79.853C519.03 80.345 518.889 80.894 518.889 81.5C518.889 82.106 519.036 82.658 519.33 83.156C519.624 83.648 520.014 84.041 520.5 84.335C520.986 84.623 521.517 84.767 522.093 84.767ZM528.428 77H529.94V86H528.428V77ZM529.202 75.533C528.962 75.533 528.761 75.455 528.599 75.299C528.437 75.143 528.356 74.948 528.356 74.714C528.356 74.48 528.437 74.285 528.599 74.129C528.761 73.973 528.959 73.895 529.193 73.895C529.427 73.895 529.625 73.973 529.787 74.129C529.949 74.285 530.03 74.48 530.03 74.714C530.03 74.948 529.949 75.143 529.787 75.299C529.631 75.455 529.436 75.533 529.202 75.533ZM532.154 86V72.5H533.666V86H532.154Z" fill="#666666"></path><circle cx="642" cy="80" r="7.5" stroke="#703BF7"></circle></svg>