<svg xmlns="http://www.w3.org/2000/svg" width="965" height="49" viewBox="0 0 965 49" fill="none"><path d="M1.2 31.5L3.91 17.5H5.59L9.18 26.93L12.75 17.5H14.43L17.15 31.5H15.03L13.22 22.13L9.87 30.97H8.47L5.13 22.13L3.32 31.5H1.2ZM22.9828 31.76C22.0628 31.76 21.2228 31.5233 20.4628 31.05C19.7095 30.5767 19.1061 29.9433 18.6528 29.15C18.2061 28.35 17.9828 27.4667 17.9828 26.5C17.9828 25.7667 18.1128 25.0833 18.3728 24.45C18.6328 23.81 18.9895 23.25 19.4428 22.77C19.9028 22.2833 20.4361 21.9033 21.0428 21.63C21.6495 21.3567 22.2961 21.22 22.9828 21.22C23.9028 21.22 24.7395 21.4567 25.4928 21.93C26.2528 22.4033 26.8561 23.04 27.3028 23.84C27.7561 24.64 27.9828 25.5267 27.9828 26.5C27.9828 27.2267 27.8528 27.9067 27.5928 28.54C27.3328 29.1733 26.9728 29.7333 26.5128 30.22C26.0595 30.7 25.5295 31.0767 24.9228 31.35C24.3228 31.6233 23.6761 31.76 22.9828 31.76ZM22.9828 29.68C23.5361 29.68 24.0328 29.5333 24.4728 29.24C24.9128 28.9467 25.2595 28.56 25.5128 28.08C25.7728 27.5933 25.9028 27.0667 25.9028 26.5C25.9028 25.92 25.7695 25.3867 25.5028 24.9C25.2428 24.4133 24.8928 24.0267 24.4528 23.74C24.0128 23.4467 23.5228 23.3 22.9828 23.3C22.4361 23.3 21.9395 23.4467 21.4928 23.74C21.0528 24.0333 20.7028 24.4233 20.4428 24.91C20.1895 25.3967 20.0628 25.9267 20.0628 26.5C20.0628 27.0933 20.1961 27.63 20.4628 28.11C20.7295 28.59 21.0828 28.9733 21.5228 29.26C21.9695 29.54 22.4561 29.68 22.9828 29.68ZM38.5984 25.23V31.5H36.5184V25.74C36.5184 25.2933 36.4084 24.8867 36.1884 24.52C35.9751 24.1533 35.6851 23.8633 35.3184 23.65C34.9584 23.43 34.5518 23.32 34.0984 23.32C33.6584 23.32 33.2551 23.43 32.8884 23.65C32.5218 23.8633 32.2284 24.1533 32.0084 24.52C31.7884 24.8867 31.6784 25.2933 31.6784 25.74V31.5H29.5984V21.5H31.6784V22.56C32.0251 22.1467 32.4518 21.82 32.9584 21.58C33.4651 21.34 34.0118 21.22 34.5984 21.22C35.3384 21.22 36.0118 21.4 36.6184 21.76C37.2251 22.12 37.7051 22.6033 38.0584 23.21C38.4184 23.8167 38.5984 24.49 38.5984 25.23ZM45.8745 23.58H43.7745L43.7645 31.5H41.6845L41.6945 23.58H40.1045V21.5H41.6945L41.6845 18.36H43.7645L43.7745 21.5H45.8745V23.58ZM56.6648 25.23V31.5H54.5848V25.74C54.5848 25.2933 54.4748 24.8867 54.2548 24.52C54.0415 24.1533 53.7515 23.8633 53.3848 23.65C53.0248 23.43 52.6182 23.32 52.1648 23.32C51.7248 23.32 51.3215 23.43 50.9548 23.65C50.5882 23.8633 50.2948 24.1533 50.0748 24.52C49.8548 24.8867 49.7448 25.2933 49.7448 25.74V31.5H47.6648V16.5H49.7448V22.56C50.0915 22.1467 50.5182 21.82 51.0248 21.58C51.5315 21.34 52.0782 21.22 52.6648 21.22C53.4048 21.22 54.0782 21.4 54.6848 21.76C55.2915 22.12 55.7715 22.6033 56.1248 23.21C56.4848 23.8167 56.6648 24.49 56.6648 25.23ZM58.7391 31.5V16.5H60.8191V31.5H58.7391ZM69.5148 21.5H71.7348L66.2548 36.5H64.0448L65.8548 31.5L62.2648 21.5H64.5348L66.8948 28.65L69.5148 21.5ZM78.5438 31.5V17.5H87.2338V19.58H80.6238V22.96H85.9438V25.04H80.6238V29.42H87.2338V31.5H78.5438ZM88.4758 31.5L92.1358 26.48L88.4958 21.48H91.0658L93.4158 24.7L95.7758 21.48H98.3358L94.7058 26.48L98.3658 31.5H95.7958L93.4158 28.24L91.0458 31.5H88.4758ZM102.069 36.5H99.9891V21.5H102.069V22.97C102.402 22.4567 102.829 22.04 103.349 21.72C103.869 21.4 104.482 21.24 105.189 21.24C105.916 21.24 106.596 21.3767 107.229 21.65C107.869 21.9233 108.429 22.3033 108.909 22.79C109.389 23.27 109.766 23.8267 110.039 24.46C110.312 25.0933 110.449 25.7733 110.449 26.5C110.449 27.2267 110.312 27.91 110.039 28.55C109.766 29.19 109.389 29.7533 108.909 30.24C108.429 30.72 107.869 31.0967 107.229 31.37C106.596 31.6433 105.916 31.78 105.189 31.78C104.482 31.78 103.869 31.62 103.349 31.3C102.829 30.9733 102.402 30.5567 102.069 30.05V36.5ZM105.169 23.25C104.589 23.25 104.079 23.3967 103.639 23.69C103.199 23.9833 102.856 24.3767 102.609 24.87C102.362 25.3567 102.239 25.9 102.239 26.5C102.239 27.1 102.362 27.6467 102.609 28.14C102.856 28.6333 103.199 29.0267 103.639 29.32C104.079 29.6133 104.589 29.76 105.169 29.76C105.742 29.76 106.269 29.6167 106.749 29.33C107.229 29.0367 107.612 28.6433 107.899 28.15C108.186 27.6567 108.329 27.1067 108.329 26.5C108.329 25.9067 108.186 25.3633 107.899 24.87C107.619 24.3767 107.239 23.9833 106.759 23.69C106.279 23.3967 105.749 23.25 105.169 23.25ZM116.459 31.76C115.539 31.76 114.699 31.5233 113.939 31.05C113.186 30.5767 112.583 29.9433 112.129 29.15C111.683 28.35 111.459 27.4667 111.459 26.5C111.459 25.7667 111.589 25.0833 111.849 24.45C112.109 23.81 112.466 23.25 112.919 22.77C113.379 22.2833 113.913 21.9033 114.519 21.63C115.126 21.3567 115.773 21.22 116.459 21.22C117.226 21.22 117.929 21.38 118.569 21.7C119.209 22.0133 119.756 22.45 120.209 23.01C120.663 23.5633 120.996 24.2033 121.209 24.93C121.423 25.65 121.486 26.4167 121.399 27.23H113.689C113.776 27.69 113.943 28.1067 114.189 28.48C114.443 28.8467 114.763 29.1367 115.149 29.35C115.543 29.5633 115.979 29.6733 116.459 29.68C116.966 29.68 117.426 29.5533 117.839 29.3C118.259 29.0467 118.603 28.6967 118.869 28.25L120.979 28.74C120.579 29.6267 119.976 30.3533 119.169 30.92C118.363 31.48 117.459 31.76 116.459 31.76ZM113.619 25.64H119.299C119.233 25.16 119.063 24.7267 118.789 24.34C118.523 23.9467 118.186 23.6367 117.779 23.41C117.379 23.1767 116.939 23.06 116.459 23.06C115.986 23.06 115.546 23.1733 115.139 23.4C114.739 23.6267 114.406 23.9367 114.139 24.33C113.879 24.7167 113.706 25.1533 113.619 25.64ZM132.055 25.23V31.5H129.975V25.74C129.975 25.2933 129.865 24.8867 129.645 24.52C129.432 24.1533 129.142 23.8633 128.775 23.65C128.415 23.43 128.009 23.32 127.555 23.32C127.115 23.32 126.712 23.43 126.345 23.65C125.979 23.8633 125.685 24.1533 125.465 24.52C125.245 24.8867 125.135 25.2933 125.135 25.74V31.5H123.055V21.5H125.135V22.56C125.482 22.1467 125.909 21.82 126.415 21.58C126.922 21.34 127.469 21.22 128.055 21.22C128.795 21.22 129.469 21.4 130.075 21.76C130.682 22.12 131.162 22.6033 131.515 23.21C131.875 23.8167 132.055 24.49 132.055 25.23ZM137.052 31.69C136.525 31.6567 136.012 31.55 135.512 31.37C135.012 31.19 134.572 30.9467 134.192 30.64C133.818 30.3267 133.538 29.96 133.352 29.54L135.122 28.78C135.208 28.96 135.358 29.1367 135.572 29.31C135.792 29.4833 136.048 29.6267 136.342 29.74C136.635 29.8467 136.942 29.9 137.262 29.9C137.575 29.9 137.865 29.8567 138.132 29.77C138.405 29.6767 138.628 29.5367 138.802 29.35C138.975 29.1633 139.062 28.94 139.062 28.68C139.062 28.3867 138.962 28.16 138.762 28C138.568 27.8333 138.325 27.7067 138.032 27.62C137.738 27.5333 137.445 27.45 137.152 27.37C136.498 27.2233 135.898 27.0233 135.352 26.77C134.812 26.51 134.382 26.18 134.062 25.78C133.742 25.3733 133.582 24.8767 133.582 24.29C133.582 23.65 133.755 23.0967 134.102 22.63C134.448 22.1567 134.902 21.7933 135.462 21.54C136.028 21.2867 136.632 21.16 137.272 21.16C138.072 21.16 138.805 21.33 139.472 21.67C140.138 22.01 140.648 22.4767 141.002 23.07L139.352 24.05C139.252 23.85 139.102 23.67 138.902 23.51C138.702 23.35 138.475 23.2233 138.222 23.13C137.968 23.03 137.705 22.9733 137.432 22.96C137.092 22.9467 136.775 22.9867 136.482 23.08C136.195 23.1667 135.965 23.3067 135.792 23.5C135.618 23.6933 135.532 23.94 135.532 24.24C135.532 24.5333 135.635 24.7533 135.842 24.9C136.048 25.04 136.308 25.1533 136.622 25.24C136.942 25.3267 137.268 25.4233 137.602 25.53C138.195 25.7167 138.752 25.9467 139.272 26.22C139.792 26.4867 140.212 26.8167 140.532 27.21C140.852 27.6033 141.005 28.0833 140.992 28.65C140.992 29.2767 140.802 29.8267 140.422 30.3C140.048 30.7733 139.562 31.1333 138.962 31.38C138.362 31.6267 137.725 31.73 137.052 31.69ZM146.967 31.76C146.047 31.76 145.207 31.5233 144.447 31.05C143.694 30.5767 143.091 29.9433 142.637 29.15C142.191 28.35 141.967 27.4667 141.967 26.5C141.967 25.7667 142.097 25.0833 142.357 24.45C142.617 23.81 142.974 23.25 143.427 22.77C143.887 22.2833 144.421 21.9033 145.027 21.63C145.634 21.3567 146.281 21.22 146.967 21.22C147.734 21.22 148.437 21.38 149.077 21.7C149.717 22.0133 150.264 22.45 150.717 23.01C151.171 23.5633 151.504 24.2033 151.717 24.93C151.931 25.65 151.994 26.4167 151.907 27.23H144.197C144.284 27.69 144.451 28.1067 144.697 28.48C144.951 28.8467 145.271 29.1367 145.657 29.35C146.051 29.5633 146.487 29.6733 146.967 29.68C147.474 29.68 147.934 29.5533 148.347 29.3C148.767 29.0467 149.111 28.6967 149.377 28.25L151.487 28.74C151.087 29.6267 150.484 30.3533 149.677 30.92C148.871 31.48 147.967 31.76 146.967 31.76ZM144.127 25.64H149.807C149.741 25.16 149.571 24.7267 149.297 24.34C149.031 23.9467 148.694 23.6367 148.287 23.41C147.887 23.1767 147.447 23.06 146.967 23.06C146.494 23.06 146.054 23.1733 145.647 23.4C145.247 23.6267 144.914 23.9367 144.647 24.33C144.387 24.7167 144.214 25.1533 144.127 25.64ZM156.602 31.69C156.076 31.6567 155.562 31.55 155.062 31.37C154.562 31.19 154.122 30.9467 153.742 30.64C153.369 30.3267 153.089 29.96 152.902 29.54L154.672 28.78C154.759 28.96 154.909 29.1367 155.122 29.31C155.342 29.4833 155.599 29.6267 155.892 29.74C156.186 29.8467 156.492 29.9 156.812 29.9C157.126 29.9 157.416 29.8567 157.682 29.77C157.956 29.6767 158.179 29.5367 158.352 29.35C158.526 29.1633 158.612 28.94 158.612 28.68C158.612 28.3867 158.512 28.16 158.312 28C158.119 27.8333 157.876 27.7067 157.582 27.62C157.289 27.5333 156.996 27.45 156.702 27.37C156.049 27.2233 155.449 27.0233 154.902 26.77C154.362 26.51 153.932 26.18 153.612 25.78C153.292 25.3733 153.132 24.8767 153.132 24.29C153.132 23.65 153.306 23.0967 153.652 22.63C153.999 22.1567 154.452 21.7933 155.012 21.54C155.579 21.2867 156.182 21.16 156.822 21.16C157.622 21.16 158.356 21.33 159.022 21.67C159.689 22.01 160.199 22.4767 160.552 23.07L158.902 24.05C158.802 23.85 158.652 23.67 158.452 23.51C158.252 23.35 158.026 23.2233 157.772 23.13C157.519 23.03 157.256 22.9733 156.982 22.96C156.642 22.9467 156.326 22.9867 156.032 23.08C155.746 23.1667 155.516 23.3067 155.342 23.5C155.169 23.6933 155.082 23.94 155.082 24.24C155.082 24.5333 155.186 24.7533 155.392 24.9C155.599 25.04 155.859 25.1533 156.172 25.24C156.492 25.3267 156.819 25.4233 157.152 25.53C157.746 25.7167 158.302 25.9467 158.822 26.22C159.342 26.4867 159.762 26.8167 160.082 27.21C160.402 27.6033 160.556 28.0833 160.542 28.65C160.542 29.2767 160.352 29.8267 159.972 30.3C159.599 30.7733 159.112 31.1333 158.512 31.38C157.912 31.6267 157.276 31.73 156.602 31.69Z" fill="white"></path><rect x="854.5" y="0.5" width="110" height="48" rx="7.5" fill="#1A1A1A"></rect><rect x="854.5" y="0.5" width="110" height="48" rx="7.5" stroke="#262626"></rect><path d="M874.84 29V19.2H876.016V27.824H880.405V29H874.84ZM884.346 29.182C883.702 29.182 883.114 29.0163 882.582 28.685C882.054 28.3537 881.632 27.9103 881.315 27.355C881.002 26.795 880.846 26.1767 880.846 25.5C880.846 24.9867 880.937 24.5083 881.119 24.065C881.301 23.617 881.55 23.225 881.868 22.889C882.19 22.5483 882.563 22.2823 882.988 22.091C883.412 21.8997 883.865 21.804 884.346 21.804C884.873 21.804 885.356 21.9113 885.795 22.126C886.238 22.336 886.616 22.63 886.929 23.008C887.246 23.386 887.482 23.8247 887.636 24.324C887.794 24.8233 887.853 25.3577 887.811 25.927H882.099C882.155 26.3237 882.285 26.6783 882.491 26.991C882.696 27.299 882.957 27.544 883.275 27.726C883.597 27.908 883.954 28.0013 884.346 28.006C884.766 28.006 885.146 27.8987 885.487 27.684C885.827 27.4647 886.103 27.166 886.313 26.788L887.51 27.068C887.23 27.6887 886.807 28.1973 886.243 28.594C885.678 28.986 885.046 29.182 884.346 29.182ZM882.064 25.003H886.628C886.59 24.611 886.464 24.254 886.25 23.932C886.035 23.6053 885.762 23.344 885.431 23.148C885.099 22.952 884.738 22.854 884.346 22.854C883.954 22.854 883.594 22.9497 883.268 23.141C882.941 23.3323 882.67 23.5913 882.456 23.918C882.246 24.24 882.115 24.6017 882.064 25.003ZM894.577 22H895.753V29H894.577L894.528 27.817C894.309 28.223 894.006 28.552 893.618 28.804C893.236 29.056 892.778 29.182 892.246 29.182C891.733 29.182 891.252 29.0863 890.804 28.895C890.356 28.699 889.96 28.4307 889.614 28.09C889.274 27.7447 889.008 27.348 888.816 26.9C888.625 26.452 888.529 25.969 888.529 25.451C888.529 24.9517 888.623 24.4803 888.809 24.037C888.996 23.5937 889.255 23.2063 889.586 22.875C889.922 22.539 890.31 22.2777 890.748 22.091C891.187 21.8997 891.658 21.804 892.162 21.804C892.713 21.804 893.196 21.9347 893.611 22.196C894.027 22.4527 894.363 22.7863 894.619 23.197L894.577 22ZM892.225 28.041C892.687 28.041 893.086 27.929 893.422 27.705C893.763 27.4763 894.024 27.1683 894.206 26.781C894.393 26.3937 894.486 25.9667 894.486 25.5C894.486 25.024 894.393 24.5947 894.206 24.212C894.02 23.8247 893.756 23.519 893.415 23.295C893.079 23.0663 892.683 22.952 892.225 22.952C891.763 22.952 891.343 23.0663 890.965 23.295C890.587 23.5237 890.286 23.8317 890.062 24.219C889.843 24.6017 889.733 25.0287 889.733 25.5C889.733 25.9713 889.848 26.4007 890.076 26.788C890.305 27.1707 890.608 27.4763 890.986 27.705C891.364 27.929 891.777 28.041 892.225 28.041ZM897.153 29V22H898.329V22.875C898.576 22.5483 898.889 22.2893 899.267 22.098C899.645 21.902 900.055 21.804 900.499 21.804C900.769 21.804 901.031 21.839 901.283 21.909L900.807 23.085C900.615 23.0243 900.429 22.994 900.247 22.994C899.897 22.994 899.575 23.0803 899.281 23.253C898.991 23.421 898.76 23.6497 898.588 23.939C898.415 24.2283 898.329 24.5503 898.329 24.905V29H897.153ZM908.358 24.646V29H907.182V24.905C907.182 24.5503 907.096 24.2283 906.923 23.939C906.75 23.6497 906.519 23.421 906.23 23.253C905.941 23.0803 905.619 22.994 905.264 22.994C904.914 22.994 904.592 23.0803 904.298 23.253C904.009 23.421 903.778 23.6497 903.605 23.939C903.432 24.2283 903.346 24.5503 903.346 24.905V29H902.17V22H903.346V22.875C903.593 22.5483 903.906 22.2893 904.284 22.098C904.662 21.902 905.073 21.804 905.516 21.804C906.039 21.804 906.515 21.9323 906.944 22.189C907.378 22.441 907.721 22.7817 907.973 23.211C908.23 23.6403 908.358 24.1187 908.358 24.646ZM913.121 29L915.018 19.2H915.921L918.567 26.158L921.206 19.2H922.109L924.013 29H922.816L921.437 21.888L918.952 28.468H918.175L915.69 21.888L914.318 29H913.121ZM928.164 29.182C927.52 29.182 926.932 29.0163 926.4 28.685C925.873 28.3537 925.45 27.9103 925.133 27.355C924.82 26.795 924.664 26.1767 924.664 25.5C924.664 24.9867 924.755 24.5083 924.937 24.065C925.119 23.617 925.369 23.225 925.686 22.889C926.008 22.5483 926.381 22.2823 926.806 22.091C927.231 21.8997 927.683 21.804 928.164 21.804C928.808 21.804 929.394 21.9697 929.921 22.301C930.453 22.6323 930.875 23.078 931.188 23.638C931.505 24.198 931.664 24.8187 931.664 25.5C931.664 26.0087 931.573 26.4847 931.391 26.928C931.209 27.3713 930.957 27.7633 930.635 28.104C930.318 28.44 929.947 28.7037 929.522 28.895C929.102 29.0863 928.649 29.182 928.164 29.182ZM928.164 28.006C928.603 28.006 928.997 27.8917 929.347 27.663C929.702 27.4297 929.979 27.124 930.18 26.746C930.385 26.3633 930.488 25.948 930.488 25.5C930.488 25.0427 930.383 24.6227 930.173 24.24C929.968 23.8573 929.69 23.5517 929.34 23.323C928.99 23.0943 928.598 22.98 928.164 22.98C927.725 22.98 927.331 23.0967 926.981 23.33C926.631 23.5587 926.353 23.8643 926.148 24.247C925.943 24.6297 925.84 25.0473 925.84 25.5C925.84 25.9667 925.945 26.3913 926.155 26.774C926.365 27.152 926.647 27.453 927.002 27.677C927.357 27.8963 927.744 28.006 928.164 28.006ZM932.822 29V22H933.998V22.875C934.246 22.5483 934.558 22.2893 934.936 22.098C935.314 21.902 935.725 21.804 936.168 21.804C936.439 21.804 936.7 21.839 936.952 21.909L936.476 23.085C936.285 23.0243 936.098 22.994 935.916 22.994C935.566 22.994 935.244 23.0803 934.95 23.253C934.661 23.421 934.43 23.6497 934.257 23.939C934.085 24.2283 933.998 24.5503 933.998 24.905V29H932.822ZM940.537 29.182C939.893 29.182 939.305 29.0163 938.773 28.685C938.246 28.3537 937.824 27.9103 937.506 27.355C937.194 26.795 937.037 26.1767 937.037 25.5C937.037 24.9867 937.128 24.5083 937.31 24.065C937.492 23.617 937.742 23.225 938.059 22.889C938.381 22.5483 938.755 22.2823 939.179 22.091C939.604 21.8997 940.057 21.804 940.537 21.804C941.065 21.804 941.548 21.9113 941.986 22.126C942.43 22.336 942.808 22.63 943.12 23.008C943.438 23.386 943.673 23.8247 943.827 24.324C943.986 24.8233 944.044 25.3577 944.002 25.927H938.29C938.346 26.3237 938.477 26.6783 938.682 26.991C938.888 27.299 939.149 27.544 939.466 27.726C939.788 27.908 940.145 28.0013 940.537 28.006C940.957 28.006 941.338 27.8987 941.678 27.684C942.019 27.4647 942.294 27.166 942.504 26.788L943.701 27.068C943.421 27.6887 942.999 28.1973 942.434 28.594C941.87 28.986 941.237 29.182 940.537 29.182ZM938.255 25.003H942.819C942.782 24.611 942.656 24.254 942.441 23.932C942.227 23.6053 941.954 23.344 941.622 23.148C941.291 22.952 940.929 22.854 940.537 22.854C940.145 22.854 939.786 22.9497 939.459 23.141C939.133 23.3323 938.862 23.5913 938.647 23.918C938.437 24.24 938.307 24.6017 938.255 25.003Z" fill="white"></path></svg>