<svg xmlns="http://www.w3.org/2000/svg" width="330" height="124" viewBox="0 0 330 124" fill="none"><rect x="1" y="0.5" width="59" height="59" rx="29.5" fill="#141414"></rect><rect x="1" y="0.5" width="59" height="59" rx="29.5" stroke="#703BF7"></rect><path d="M30.149 19.2728C30.3724 19.1752 30.6263 19.1752 30.8497 19.2728C35.1883 21.1685 39.3002 23.4858 43.1337 26.1728C43.4111 26.3673 43.5514 26.7044 43.4937 27.0382C43.4361 27.3721 43.1909 27.6426 42.8643 27.7328C42.0652 27.9534 41.2731 28.1909 40.4881 28.4441C37.3018 29.4717 34.2347 30.7646 31.3126 32.2969L31.3088 32.2989C31.1763 32.3684 31.0441 32.4384 30.9122 32.5088C30.6546 32.6465 30.3452 32.6465 30.0875 32.5088C29.9544 32.4377 29.8209 32.3671 29.6872 32.2969C28.2423 31.5392 26.7619 30.8401 25.2493 30.2026V29.9416C25.2493 29.7884 25.3279 29.6524 25.4496 29.5787C27.2056 28.5148 29.0169 27.5333 30.8781 26.6393C31.3137 26.43 31.4972 25.9073 31.288 25.4717C31.0788 25.0361 30.556 24.8526 30.1204 25.0618C28.208 25.9804 26.3469 26.9889 24.5428 28.0819C24.0139 28.4024 23.6583 28.9268 23.5413 29.5144C22.5439 29.1307 21.5334 28.7734 20.5106 28.4435C19.7256 28.1904 18.9334 27.9533 18.1344 27.7328C17.8078 27.6426 17.5626 27.3721 17.505 27.0382C17.4473 26.7044 17.5876 26.3673 17.865 26.1728C21.6985 23.4858 25.8104 21.1685 30.149 19.2728Z" fill="#A685FA"></path><path d="M31.7369 34.0523C34.5823 32.532 37.5717 31.2468 40.6794 30.2224C40.836 31.873 40.936 33.54 40.9774 35.2214C40.9863 35.5822 40.7728 35.9114 40.4398 36.0504C37.1135 37.4392 33.9495 39.1397 30.9845 41.1156C30.6907 41.3115 30.3079 41.3115 30.0141 41.1156C27.0491 39.1397 23.8851 37.4392 20.5588 36.0504C20.2258 35.9114 20.0123 35.5822 20.0212 35.2214C20.0626 33.5399 20.1626 31.8727 20.3193 30.222C21.3938 30.5762 22.4541 30.9615 23.4993 31.377V32.8591C22.9762 33.1617 22.6243 33.7273 22.6243 34.375C22.6243 34.9529 22.9044 35.4653 23.3362 35.784C23.2318 36.2281 23.0772 36.6626 22.8725 37.0787C23.4006 37.328 23.9243 37.5853 24.4432 37.8504C24.7388 37.2493 24.9531 36.6184 25.0861 35.9742C25.6978 35.7014 26.1243 35.088 26.1243 34.375C26.1243 33.7273 25.7723 33.1617 25.2493 32.8591V32.1069C26.6159 32.704 27.9546 33.3533 29.2628 34.0523C30.0358 34.4654 30.9639 34.4654 31.7369 34.0523Z" fill="#A685FA"></path><path d="M21.7052 38.706C22.1942 38.217 22.5835 37.6663 22.8725 37.0787C23.4006 37.328 23.9243 37.5853 24.4432 37.8504C24.0716 38.6063 23.5712 39.3149 22.9426 39.9434C22.6009 40.2852 22.0469 40.2852 21.7052 39.9434C21.3635 39.6017 21.3635 39.0477 21.7052 38.706Z" fill="#A685FA"></path><path d="M71.7 37V23H80.39V25.08H73.78V28.46H79.1V30.54H73.78V34.92H80.39V37H71.7ZM81.632 37L85.292 31.98L81.652 26.98H84.222L86.572 30.2L88.932 26.98H91.492L87.862 31.98L91.522 37H88.952L86.572 33.74L84.202 37H81.632ZM99.1089 34.16L100.969 35.17C100.516 35.8033 99.9389 36.31 99.2389 36.69C98.5456 37.07 97.7922 37.26 96.9789 37.26C96.0589 37.26 95.2189 37.0233 94.4589 36.55C93.7056 36.0767 93.1022 35.4433 92.6489 34.65C92.2022 33.85 91.9789 32.9667 91.9789 32C91.9789 31.2667 92.1089 30.5833 92.3689 29.95C92.6289 29.31 92.9856 28.75 93.4389 28.27C93.8989 27.7833 94.4322 27.4033 95.0389 27.13C95.6456 26.8567 96.2922 26.72 96.9789 26.72C97.7922 26.72 98.5456 26.91 99.2389 27.29C99.9389 27.67 100.516 28.18 100.969 28.82L99.1089 29.83C98.8289 29.4967 98.5022 29.2433 98.1289 29.07C97.7556 28.89 97.3722 28.8 96.9789 28.8C96.4322 28.8 95.9356 28.95 95.4889 29.25C95.0489 29.5433 94.6989 29.9333 94.4389 30.42C94.1856 30.9 94.0589 31.4267 94.0589 32C94.0589 32.5667 94.1889 33.0933 94.4489 33.58C94.7089 34.06 95.0589 34.4467 95.4989 34.74C95.9456 35.0333 96.4389 35.18 96.9789 35.18C97.3922 35.18 97.7856 35.0867 98.1589 34.9C98.5322 34.7133 98.8489 34.4667 99.1089 34.16ZM106.94 37.26C106.02 37.26 105.18 37.0233 104.42 36.55C103.667 36.0767 103.063 35.4433 102.61 34.65C102.163 33.85 101.94 32.9667 101.94 32C101.94 31.2667 102.07 30.5833 102.33 29.95C102.59 29.31 102.947 28.75 103.4 28.27C103.86 27.7833 104.393 27.4033 105 27.13C105.607 26.8567 106.253 26.72 106.94 26.72C107.707 26.72 108.41 26.88 109.05 27.2C109.69 27.5133 110.237 27.95 110.69 28.51C111.143 29.0633 111.477 29.7033 111.69 30.43C111.903 31.15 111.967 31.9167 111.88 32.73H104.17C104.257 33.19 104.423 33.6067 104.67 33.98C104.923 34.3467 105.243 34.6367 105.63 34.85C106.023 35.0633 106.46 35.1733 106.94 35.18C107.447 35.18 107.907 35.0533 108.32 34.8C108.74 34.5467 109.083 34.1967 109.35 33.75L111.46 34.24C111.06 35.1267 110.457 35.8533 109.65 36.42C108.843 36.98 107.94 37.26 106.94 37.26ZM104.1 31.14H109.78C109.713 30.66 109.543 30.2267 109.27 29.84C109.003 29.4467 108.667 29.1367 108.26 28.91C107.86 28.6767 107.42 28.56 106.94 28.56C106.467 28.56 106.027 28.6733 105.62 28.9C105.22 29.1267 104.887 29.4367 104.62 29.83C104.36 30.2167 104.187 30.6533 104.1 31.14ZM113.399 37V22H115.479V37H113.399ZM117.872 37V22H119.952V37H117.872ZM126.608 37.26C125.688 37.26 124.848 37.0233 124.088 36.55C123.334 36.0767 122.731 35.4433 122.278 34.65C121.831 33.85 121.608 32.9667 121.608 32C121.608 31.2667 121.738 30.5833 121.998 29.95C122.258 29.31 122.614 28.75 123.068 28.27C123.528 27.7833 124.061 27.4033 124.668 27.13C125.274 26.8567 125.921 26.72 126.608 26.72C127.374 26.72 128.078 26.88 128.718 27.2C129.358 27.5133 129.904 27.95 130.358 28.51C130.811 29.0633 131.144 29.7033 131.358 30.43C131.571 31.15 131.634 31.9167 131.548 32.73H123.838C123.924 33.19 124.091 33.6067 124.338 33.98C124.591 34.3467 124.911 34.6367 125.298 34.85C125.691 35.0633 126.128 35.1733 126.608 35.18C127.114 35.18 127.574 35.0533 127.988 34.8C128.408 34.5467 128.751 34.1967 129.018 33.75L131.128 34.24C130.728 35.1267 130.124 35.8533 129.318 36.42C128.511 36.98 127.608 37.26 126.608 37.26ZM123.768 31.14H129.448C129.381 30.66 129.211 30.2267 128.938 29.84C128.671 29.4467 128.334 29.1367 127.928 28.91C127.528 28.6767 127.088 28.56 126.608 28.56C126.134 28.56 125.694 28.6733 125.288 28.9C124.888 29.1267 124.554 29.4367 124.288 29.83C124.028 30.2167 123.854 30.6533 123.768 31.14ZM142.204 30.73V37H140.124V31.24C140.124 30.7933 140.014 30.3867 139.794 30.02C139.581 29.6533 139.291 29.3633 138.924 29.15C138.564 28.93 138.157 28.82 137.704 28.82C137.264 28.82 136.861 28.93 136.494 29.15C136.127 29.3633 135.834 29.6533 135.614 30.02C135.394 30.3867 135.284 30.7933 135.284 31.24V37H133.204V27H135.284V28.06C135.631 27.6467 136.057 27.32 136.564 27.08C137.071 26.84 137.617 26.72 138.204 26.72C138.944 26.72 139.617 26.9 140.224 27.26C140.831 27.62 141.311 28.1033 141.664 28.71C142.024 29.3167 142.204 29.99 142.204 30.73ZM150.535 34.16L152.395 35.17C151.941 35.8033 151.365 36.31 150.665 36.69C149.971 37.07 149.218 37.26 148.405 37.26C147.485 37.26 146.645 37.0233 145.885 36.55C145.131 36.0767 144.528 35.4433 144.075 34.65C143.628 33.85 143.405 32.9667 143.405 32C143.405 31.2667 143.535 30.5833 143.795 29.95C144.055 29.31 144.411 28.75 144.865 28.27C145.325 27.7833 145.858 27.4033 146.465 27.13C147.071 26.8567 147.718 26.72 148.405 26.72C149.218 26.72 149.971 26.91 150.665 27.29C151.365 27.67 151.941 28.18 152.395 28.82L150.535 29.83C150.255 29.4967 149.928 29.2433 149.555 29.07C149.181 28.89 148.798 28.8 148.405 28.8C147.858 28.8 147.361 28.95 146.915 29.25C146.475 29.5433 146.125 29.9333 145.865 30.42C145.611 30.9 145.485 31.4267 145.485 32C145.485 32.5667 145.615 33.0933 145.875 33.58C146.135 34.06 146.485 34.4467 146.925 34.74C147.371 35.0333 147.865 35.18 148.405 35.18C148.818 35.18 149.211 35.0867 149.585 34.9C149.958 34.7133 150.275 34.4667 150.535 34.16ZM158.366 37.26C157.446 37.26 156.606 37.0233 155.846 36.55C155.092 36.0767 154.489 35.4433 154.036 34.65C153.589 33.85 153.366 32.9667 153.366 32C153.366 31.2667 153.496 30.5833 153.756 29.95C154.016 29.31 154.372 28.75 154.826 28.27C155.286 27.7833 155.819 27.4033 156.426 27.13C157.032 26.8567 157.679 26.72 158.366 26.72C159.132 26.72 159.836 26.88 160.476 27.2C161.116 27.5133 161.662 27.95 162.116 28.51C162.569 29.0633 162.902 29.7033 163.116 30.43C163.329 31.15 163.392 31.9167 163.306 32.73H155.596C155.682 33.19 155.849 33.6067 156.096 33.98C156.349 34.3467 156.669 34.6367 157.056 34.85C157.449 35.0633 157.886 35.1733 158.366 35.18C158.872 35.18 159.332 35.0533 159.746 34.8C160.166 34.5467 160.509 34.1967 160.776 33.75L162.886 34.24C162.486 35.1267 161.882 35.8533 161.076 36.42C160.269 36.98 159.366 37.26 158.366 37.26ZM155.526 31.14H161.206C161.139 30.66 160.969 30.2267 160.696 29.84C160.429 29.4467 160.092 29.1367 159.686 28.91C159.286 28.6767 158.846 28.56 158.366 28.56C157.892 28.56 157.452 28.6733 157.046 28.9C156.646 29.1267 156.312 29.4367 156.046 29.83C155.786 30.2167 155.612 30.6533 155.526 31.14Z" fill="white"></path><path d="M3.812 94L0.948 82.8H2.332L4.588 91.64L6.836 82.8H8.044L10.3 91.64L12.548 82.8H13.932L11.084 94H9.516L7.444 85.888L5.372 94H3.812ZM17.9331 94.208C17.1971 94.208 16.5251 94.0187 15.9171 93.64C15.3145 93.2613 14.8318 92.7547 14.4691 92.12C14.1118 91.48 13.9331 90.7733 13.9331 90C13.9331 89.4133 14.0371 88.8667 14.2451 88.36C14.4531 87.848 14.7385 87.4 15.1011 87.016C15.4691 86.6267 15.8958 86.3227 16.3811 86.104C16.8665 85.8853 17.3838 85.776 17.9331 85.776C18.5358 85.776 19.0878 85.8987 19.5891 86.144C20.0958 86.384 20.5278 86.72 20.8851 87.152C21.2478 87.584 21.5171 88.0853 21.6931 88.656C21.8745 89.2267 21.9411 89.8373 21.8931 90.488H15.3651C15.4291 90.9413 15.5785 91.3467 15.8131 91.704C16.0478 92.056 16.3465 92.336 16.7091 92.544C17.0771 92.752 17.4851 92.8587 17.9331 92.864C18.4131 92.864 18.8478 92.7413 19.2371 92.496C19.6265 92.2453 19.9411 91.904 20.1811 91.472L21.5491 91.792C21.2291 92.5013 20.7465 93.0827 20.1011 93.536C19.4558 93.984 18.7331 94.208 17.9331 94.208ZM15.3251 89.432H20.5411C20.4985 88.984 20.3545 88.576 20.1091 88.208C19.8638 87.8347 19.5518 87.536 19.1731 87.312C18.7945 87.088 18.3811 86.976 17.9331 86.976C17.4851 86.976 17.0745 87.0853 16.7011 87.304C16.3278 87.5227 16.0185 87.8187 15.7731 88.192C15.5331 88.56 15.3838 88.9733 15.3251 89.432ZM29.6344 94.152C29.2024 94.136 28.781 94.056 28.3704 93.912C27.965 93.7627 27.6077 93.5627 27.2984 93.312C26.9944 93.056 26.773 92.7627 26.6344 92.432L27.7864 91.936C27.8664 92.1173 28.0104 92.288 28.2184 92.448C28.4264 92.608 28.6664 92.736 28.9384 92.832C29.2104 92.928 29.485 92.976 29.7624 92.976C30.0557 92.976 30.3304 92.9307 30.5864 92.84C30.8424 92.7493 31.0504 92.616 31.2104 92.44C31.3757 92.2587 31.4584 92.0427 31.4584 91.792C31.4584 91.5253 31.3677 91.3173 31.1864 91.168C31.0104 91.0133 30.7864 90.8933 30.5144 90.808C30.2477 90.7173 29.9757 90.632 29.6984 90.552C29.149 90.4133 28.6584 90.248 28.2264 90.056C27.7944 89.8587 27.453 89.6107 27.2024 89.312C26.957 89.008 26.8344 88.6213 26.8344 88.152C26.8344 87.656 26.9704 87.2267 27.2424 86.864C27.5197 86.5013 27.8824 86.2213 28.3304 86.024C28.7784 85.8267 29.2584 85.728 29.7704 85.728C30.4157 85.728 31.005 85.8667 31.5384 86.144C32.0717 86.4213 32.469 86.7973 32.7304 87.272L31.6504 87.904C31.5597 87.712 31.421 87.544 31.2344 87.4C31.0477 87.2507 30.8344 87.1333 30.5944 87.048C30.3544 86.9627 30.109 86.9173 29.8584 86.912C29.549 86.9013 29.2584 86.9413 28.9864 87.032C28.7197 87.1227 28.5037 87.2613 28.3384 87.448C28.1784 87.6293 28.0984 87.856 28.0984 88.128C28.0984 88.3947 28.1837 88.5973 28.3544 88.736C28.5304 88.8747 28.757 88.9867 29.0344 89.072C29.317 89.152 29.6237 89.2453 29.9544 89.352C30.4397 89.5067 30.893 89.6853 31.3144 89.888C31.7357 90.0907 32.0744 90.344 32.3304 90.648C32.5917 90.952 32.7197 91.328 32.7144 91.776C32.7144 92.2667 32.5677 92.696 32.2744 93.064C31.981 93.4267 31.5997 93.704 31.1304 93.896C30.6664 94.088 30.1677 94.1733 29.6344 94.152ZM37.5269 94.208C36.7909 94.208 36.1189 94.0187 35.5109 93.64C34.9082 93.2613 34.4255 92.7547 34.0629 92.12C33.7055 91.48 33.5269 90.7733 33.5269 90C33.5269 89.4133 33.6309 88.8667 33.8389 88.36C34.0469 87.848 34.3322 87.4 34.6949 87.016C35.0629 86.6267 35.4895 86.3227 35.9749 86.104C36.4602 85.8853 36.9775 85.776 37.5269 85.776C38.1295 85.776 38.6815 85.8987 39.1829 86.144C39.6895 86.384 40.1215 86.72 40.4789 87.152C40.8415 87.584 41.1109 88.0853 41.2869 88.656C41.4682 89.2267 41.5349 89.8373 41.4869 90.488H34.9589C35.0229 90.9413 35.1722 91.3467 35.4069 91.704C35.6415 92.056 35.9402 92.336 36.3029 92.544C36.6709 92.752 37.0789 92.8587 37.5269 92.864C38.0069 92.864 38.4415 92.7413 38.8309 92.496C39.2202 92.2453 39.5349 91.904 39.7749 91.472L41.1429 91.792C40.8229 92.5013 40.3402 93.0827 39.6949 93.536C39.0495 93.984 38.3269 94.208 37.5269 94.208ZM34.9189 89.432H40.1349C40.0922 88.984 39.9482 88.576 39.7029 88.208C39.4575 87.8347 39.1455 87.536 38.7669 87.312C38.3882 87.088 37.9749 86.976 37.5269 86.976C37.0789 86.976 36.6682 87.0853 36.2949 87.304C35.9215 87.5227 35.6122 87.8187 35.3669 88.192C35.1269 88.56 34.9775 88.9733 34.9189 89.432ZM46.8853 87.344H45.0693L45.0613 94H43.7173L43.7253 87.344H42.3493V86H43.7253L43.7173 83.488H45.0613L45.0693 86H46.8853V87.344ZM56.3071 87.344H54.4911L54.4831 94H53.1391L53.1471 87.344H51.7711V86H53.1471L53.1391 83.488H54.4831L54.4911 86H56.3071V87.344ZM64.8133 89.024V94H63.4693V89.32C63.4693 88.9147 63.3706 88.5467 63.1733 88.216C62.9759 87.8853 62.7119 87.624 62.3813 87.432C62.0506 87.2347 61.6826 87.136 61.2773 87.136C60.8773 87.136 60.5093 87.2347 60.1733 87.432C59.8426 87.624 59.5786 87.8853 59.3813 88.216C59.1839 88.5467 59.0853 88.9147 59.0853 89.32V94H57.7413V82H59.0853V87C59.3679 86.6267 59.7253 86.3307 60.1573 86.112C60.5893 85.888 61.0586 85.776 61.5653 85.776C62.1626 85.776 62.7066 85.9227 63.1973 86.216C63.6933 86.504 64.0853 86.8933 64.3733 87.384C64.6666 87.8747 64.8133 88.4213 64.8133 89.024ZM69.7769 94.208C69.0409 94.208 68.3689 94.0187 67.7609 93.64C67.1582 93.2613 66.6755 92.7547 66.3129 92.12C65.9555 91.48 65.7769 90.7733 65.7769 90C65.7769 89.4133 65.8809 88.8667 66.0889 88.36C66.2969 87.848 66.5822 87.4 66.9449 87.016C67.3129 86.6267 67.7395 86.3227 68.2249 86.104C68.7102 85.8853 69.2275 85.776 69.7769 85.776C70.3795 85.776 70.9315 85.8987 71.4329 86.144C71.9395 86.384 72.3715 86.72 72.7289 87.152C73.0915 87.584 73.3609 88.0853 73.5369 88.656C73.7182 89.2267 73.7849 89.8373 73.7369 90.488H67.2089C67.2729 90.9413 67.4222 91.3467 67.6569 91.704C67.8915 92.056 68.1902 92.336 68.5529 92.544C68.9209 92.752 69.3289 92.8587 69.7769 92.864C70.2569 92.864 70.6915 92.7413 71.0809 92.496C71.4702 92.2453 71.7849 91.904 72.0249 91.472L73.3929 91.792C73.0729 92.5013 72.5902 93.0827 71.9449 93.536C71.2995 93.984 70.5769 94.208 69.7769 94.208ZM67.1689 89.432H72.3849C72.3422 88.984 72.1982 88.576 71.9529 88.208C71.7075 87.8347 71.3955 87.536 71.0169 87.312C70.6382 87.088 70.2249 86.976 69.7769 86.976C69.3289 86.976 68.9182 87.0853 68.5449 87.304C68.1715 87.5227 67.8622 87.8187 67.6169 88.192C67.3769 88.56 67.2275 88.9733 67.1689 89.432ZM83.0861 85.776C83.8648 85.776 84.5715 85.9653 85.2061 86.344C85.8461 86.7227 86.3555 87.232 86.7341 87.872C87.1128 88.5067 87.3021 89.2133 87.3021 89.992C87.3021 90.5733 87.1928 91.12 86.9741 91.632C86.7555 92.1387 86.4515 92.5867 86.0621 92.976C85.6781 93.36 85.2301 93.6613 84.7181 93.88C84.2115 94.0987 83.6675 94.208 83.0861 94.208C82.4675 94.208 81.9288 94.064 81.4701 93.776C81.0168 93.4827 80.6541 93.1013 80.3821 92.632V94H79.0381V82H80.3821V87.352C80.6541 86.8827 81.0168 86.504 81.4701 86.216C81.9288 85.9227 82.4675 85.776 83.0861 85.776ZM83.0701 92.896C83.5981 92.896 84.0781 92.7653 84.5101 92.504C84.9421 92.2427 85.2861 91.8933 85.5421 91.456C85.7981 91.0133 85.9261 90.5253 85.9261 89.992C85.9261 89.448 85.7955 88.9573 85.5341 88.52C85.2728 88.0773 84.9261 87.728 84.4941 87.472C84.0621 87.2107 83.5875 87.08 83.0701 87.08C82.5475 87.08 82.0915 87.2107 81.7021 87.472C81.3181 87.7333 81.0195 88.0853 80.8061 88.528C80.5981 88.9707 80.4941 89.4587 80.4941 89.992C80.4941 90.5307 80.5981 91.0213 80.8061 91.464C81.0195 91.9013 81.3208 92.2507 81.7101 92.512C82.0995 92.768 82.5528 92.896 83.0701 92.896ZM95.017 86H96.361V94H95.017L94.961 92.648C94.7103 93.112 94.3637 93.488 93.921 93.776C93.4837 94.064 92.961 94.208 92.353 94.208C91.7663 94.208 91.217 94.0987 90.705 93.88C90.193 93.656 89.7397 93.3493 89.345 92.96C88.9557 92.5653 88.6517 92.112 88.433 91.6C88.2143 91.088 88.105 90.536 88.105 89.944C88.105 89.3733 88.2117 88.8347 88.425 88.328C88.6383 87.8213 88.9343 87.3787 89.313 87C89.697 86.616 90.1397 86.3173 90.641 86.104C91.1423 85.8853 91.681 85.776 92.257 85.776C92.8863 85.776 93.4383 85.9253 93.913 86.224C94.3877 86.5173 94.7717 86.8987 95.065 87.368L95.017 86ZM92.329 92.904C92.857 92.904 93.313 92.776 93.697 92.52C94.0863 92.2587 94.385 91.9067 94.593 91.464C94.8063 91.0213 94.913 90.5333 94.913 90C94.913 89.456 94.8063 88.9653 94.593 88.528C94.3797 88.0853 94.0783 87.736 93.689 87.48C93.305 87.2187 92.8517 87.088 92.329 87.088C91.801 87.088 91.321 87.2187 90.889 87.48C90.457 87.7413 90.113 88.0933 89.857 88.536C89.6063 88.9733 89.481 89.4613 89.481 90C89.481 90.5387 89.6117 91.0293 89.873 91.472C90.1343 91.9093 90.481 92.2587 90.913 92.52C91.345 92.776 91.817 92.904 92.329 92.904ZM97.96 94V86H99.304V87C99.5867 86.6267 99.944 86.3307 100.376 86.112C100.808 85.888 101.277 85.776 101.784 85.776C102.093 85.776 102.392 85.816 102.68 85.896L102.136 87.24C101.917 87.1707 101.704 87.136 101.496 87.136C101.096 87.136 100.728 87.2347 100.392 87.432C100.061 87.624 99.7973 87.8853 99.6 88.216C99.4027 88.5467 99.304 88.9147 99.304 89.32V94H97.96ZM114.72 89.024V94H113.376V89.32C113.376 88.9147 113.277 88.5467 113.08 88.216C112.882 87.8853 112.618 87.624 112.288 87.432C111.957 87.2347 111.589 87.136 111.184 87.136C110.784 87.136 110.416 87.2347 110.08 87.432C109.749 87.624 109.485 87.8853 109.288 88.216C109.09 88.5467 108.992 88.9147 108.992 89.32V94H107.648V82H108.992V87C109.274 86.6267 109.632 86.3307 110.064 86.112C110.496 85.888 110.965 85.776 111.472 85.776C112.069 85.776 112.613 85.9227 113.104 86.216C113.6 86.504 113.992 86.8933 114.28 87.384C114.573 87.8747 114.72 88.4213 114.72 89.024ZM116.319 86H117.663V94H116.319V86ZM117.007 84.696C116.794 84.696 116.615 84.6267 116.471 84.488C116.327 84.3493 116.255 84.176 116.255 83.968C116.255 83.76 116.327 83.5867 116.471 83.448C116.615 83.3093 116.791 83.24 116.999 83.24C117.207 83.24 117.383 83.3093 117.527 83.448C117.671 83.5867 117.743 83.76 117.743 83.968C117.743 84.176 117.671 84.3493 117.527 84.488C117.389 84.6267 117.215 84.696 117.007 84.696ZM125.724 86H127.068V94.256C127.068 94.784 126.953 95.2747 126.724 95.728C126.5 96.1867 126.196 96.584 125.812 96.92C125.428 97.2613 124.99 97.5253 124.5 97.712C124.009 97.904 123.497 98 122.964 98C122.409 98 121.873 97.8747 121.356 97.624C120.838 97.3787 120.385 97.048 119.996 96.632C119.612 96.2213 119.334 95.76 119.164 95.248L120.396 94.688C120.497 95.056 120.678 95.3867 120.94 95.68C121.206 95.9787 121.516 96.2133 121.868 96.384C122.225 96.56 122.59 96.648 122.964 96.648C123.316 96.648 123.654 96.5867 123.98 96.464C124.31 96.3413 124.606 96.1707 124.868 95.952C125.134 95.7387 125.342 95.4853 125.492 95.192C125.646 94.904 125.724 94.592 125.724 94.256V92.664C125.452 93.1227 125.092 93.496 124.644 93.784C124.201 94.0667 123.684 94.208 123.092 94.208C122.526 94.208 121.996 94.0987 121.5 93.88C121.004 93.6613 120.569 93.36 120.196 92.976C119.822 92.5867 119.529 92.1387 119.316 91.632C119.102 91.1253 118.996 90.5813 118.996 90C118.996 89.4187 119.102 88.8747 119.316 88.368C119.529 87.856 119.822 87.408 120.196 87.024C120.569 86.6347 121.004 86.3307 121.5 86.112C121.996 85.8933 122.526 85.784 123.092 85.784C123.684 85.784 124.201 85.9253 124.644 86.208C125.092 86.4907 125.452 86.864 125.724 87.328V86ZM123.1 92.904C123.617 92.904 124.065 92.7707 124.444 92.504C124.828 92.2373 125.124 91.8827 125.332 91.44C125.54 90.9973 125.644 90.5173 125.644 90C125.644 89.4667 125.537 88.9813 125.324 88.544C125.116 88.1013 124.82 87.7493 124.436 87.488C124.057 87.2213 123.612 87.088 123.1 87.088C122.598 87.088 122.14 87.2187 121.724 87.48C121.308 87.7413 120.977 88.0933 120.732 88.536C120.492 88.9733 120.372 89.4613 120.372 90C120.372 90.5387 120.494 91.0293 120.74 91.472C120.99 91.9093 121.321 92.2587 121.732 92.52C122.148 92.776 122.604 92.904 123.1 92.904ZM136.063 89.024V94H134.719V89.32C134.719 88.9147 134.621 88.5467 134.423 88.216C134.226 87.8853 133.962 87.624 133.631 87.432C133.301 87.2347 132.933 87.136 132.527 87.136C132.127 87.136 131.759 87.2347 131.423 87.432C131.093 87.624 130.829 87.8853 130.631 88.216C130.434 88.5467 130.335 88.9147 130.335 89.32V94H128.991V82H130.335V87C130.618 86.6267 130.975 86.3307 131.407 86.112C131.839 85.888 132.309 85.776 132.815 85.776C133.413 85.776 133.957 85.9227 134.447 86.216C134.943 86.504 135.335 86.8933 135.623 87.384C135.917 87.8747 136.063 88.4213 136.063 89.024ZM143.323 84.024V86H145.667V87.344H143.323V94H141.979V87.344H140.947V86H141.979V84.024C141.979 83.6133 142.078 83.2427 142.275 82.912C142.478 82.576 142.747 82.3093 143.083 82.112C143.424 81.9093 143.798 81.808 144.203 81.808C144.502 81.808 144.792 81.8693 145.075 81.992C145.358 82.1093 145.608 82.2853 145.827 82.52L144.867 83.472C144.792 83.3707 144.694 83.2933 144.571 83.24C144.454 83.1813 144.331 83.152 144.203 83.152C143.963 83.152 143.755 83.2373 143.579 83.408C143.408 83.5787 143.323 83.784 143.323 84.024ZM150.308 94.208C149.572 94.208 148.9 94.0187 148.292 93.64C147.689 93.2613 147.207 92.7547 146.844 92.12C146.487 91.48 146.308 90.7733 146.308 90C146.308 89.4133 146.412 88.8667 146.62 88.36C146.828 87.848 147.113 87.4 147.476 87.016C147.844 86.6267 148.271 86.3227 148.756 86.104C149.241 85.8853 149.759 85.776 150.308 85.776C151.044 85.776 151.713 85.9653 152.316 86.344C152.924 86.7227 153.407 87.232 153.764 87.872C154.127 88.512 154.308 89.2213 154.308 90C154.308 90.5813 154.204 91.1253 153.996 91.632C153.788 92.1387 153.5 92.5867 153.132 92.976C152.769 93.36 152.345 93.6613 151.86 93.88C151.38 94.0987 150.863 94.208 150.308 94.208ZM150.308 92.864C150.809 92.864 151.26 92.7333 151.66 92.472C152.065 92.2053 152.383 91.856 152.612 91.424C152.847 90.9867 152.964 90.512 152.964 90C152.964 89.4773 152.844 88.9973 152.604 88.56C152.369 88.1227 152.052 87.7733 151.652 87.512C151.252 87.2507 150.804 87.12 150.308 87.12C149.807 87.12 149.356 87.2533 148.956 87.52C148.556 87.7813 148.239 88.1307 148.004 88.568C147.769 89.0053 147.652 89.4827 147.652 90C147.652 90.5333 147.772 91.0187 148.012 91.456C148.252 91.888 148.575 92.232 148.98 92.488C149.385 92.7387 149.828 92.864 150.308 92.864ZM155.632 94V86H156.976V87C157.259 86.6267 157.616 86.3307 158.048 86.112C158.48 85.888 158.949 85.776 159.456 85.776C159.765 85.776 160.064 85.816 160.352 85.896L159.808 87.24C159.589 87.1707 159.376 87.136 159.168 87.136C158.768 87.136 158.4 87.2347 158.064 87.432C157.733 87.624 157.469 87.8853 157.272 88.216C157.075 88.5467 156.976 88.9147 156.976 89.32V94H155.632ZM168.839 94.208C168.103 94.208 167.431 94.0187 166.823 93.64C166.221 93.2613 165.738 92.7547 165.375 92.12C165.018 91.48 164.839 90.7733 164.839 90C164.839 89.4133 164.943 88.8667 165.151 88.36C165.359 87.848 165.645 87.4 166.007 87.016C166.375 86.6267 166.802 86.3227 167.287 86.104C167.773 85.8853 168.29 85.776 168.839 85.776C169.575 85.776 170.245 85.9653 170.847 86.344C171.455 86.7227 171.938 87.232 172.295 87.872C172.658 88.512 172.839 89.2213 172.839 90C172.839 90.5813 172.735 91.1253 172.527 91.632C172.319 92.1387 172.031 92.5867 171.663 92.976C171.301 93.36 170.877 93.6613 170.391 93.88C169.911 94.0987 169.394 94.208 168.839 94.208ZM168.839 92.864C169.341 92.864 169.791 92.7333 170.191 92.472C170.597 92.2053 170.914 91.856 171.143 91.424C171.378 90.9867 171.495 90.512 171.495 90C171.495 89.4773 171.375 88.9973 171.135 88.56C170.901 88.1227 170.583 87.7733 170.183 87.512C169.783 87.2507 169.335 87.12 168.839 87.12C168.338 87.12 167.887 87.2533 167.487 87.52C167.087 87.7813 166.77 88.1307 166.535 88.568C166.301 89.0053 166.183 89.4827 166.183 90C166.183 90.5333 166.303 91.0187 166.543 91.456C166.783 91.888 167.106 92.232 167.511 92.488C167.917 92.7387 168.359 92.864 168.839 92.864ZM173.734 90.96V86H175.078V90.664C175.078 91.0693 175.176 91.4373 175.374 91.768C175.571 92.0987 175.835 92.3627 176.166 92.56C176.502 92.752 176.87 92.848 177.27 92.848C177.675 92.848 178.04 92.752 178.366 92.56C178.696 92.3627 178.96 92.0987 179.158 91.768C179.355 91.4373 179.454 91.0693 179.454 90.664V86H180.798L180.806 94H179.462L179.454 92.984C179.171 93.3573 178.814 93.656 178.382 93.88C177.95 94.0987 177.483 94.208 176.982 94.208C176.384 94.208 175.838 94.064 175.342 93.776C174.851 93.4827 174.459 93.0907 174.166 92.6C173.878 92.1093 173.734 91.5627 173.734 90.96ZM182.413 94V86H183.757V87C184.04 86.6267 184.397 86.3307 184.829 86.112C185.261 85.888 185.73 85.776 186.237 85.776C186.546 85.776 186.845 85.816 187.133 85.896L186.589 87.24C186.37 87.1707 186.157 87.136 185.949 87.136C185.549 87.136 185.181 87.2347 184.845 87.432C184.514 87.624 184.25 87.8853 184.053 88.216C183.856 88.5467 183.757 88.9147 183.757 89.32V94H182.413ZM190.556 94.152C190.124 94.136 189.703 94.056 189.292 93.912C188.887 93.7627 188.53 93.5627 188.22 93.312C187.916 93.056 187.695 92.7627 187.556 92.432L188.708 91.936C188.788 92.1173 188.932 92.288 189.14 92.448C189.348 92.608 189.588 92.736 189.86 92.832C190.132 92.928 190.407 92.976 190.684 92.976C190.978 92.976 191.252 92.9307 191.508 92.84C191.764 92.7493 191.972 92.616 192.132 92.44C192.298 92.2587 192.38 92.0427 192.38 91.792C192.38 91.5253 192.29 91.3173 192.108 91.168C191.932 91.0133 191.708 90.8933 191.436 90.808C191.17 90.7173 190.898 90.632 190.62 90.552C190.071 90.4133 189.58 90.248 189.148 90.056C188.716 89.8587 188.375 89.6107 188.124 89.312C187.879 89.008 187.756 88.6213 187.756 88.152C187.756 87.656 187.892 87.2267 188.164 86.864C188.442 86.5013 188.804 86.2213 189.252 86.024C189.7 85.8267 190.18 85.728 190.692 85.728C191.338 85.728 191.927 85.8667 192.46 86.144C192.994 86.4213 193.391 86.7973 193.652 87.272L192.572 87.904C192.482 87.712 192.343 87.544 192.156 87.4C191.97 87.2507 191.756 87.1333 191.516 87.048C191.276 86.9627 191.031 86.9173 190.78 86.912C190.471 86.9013 190.18 86.9413 189.908 87.032C189.642 87.1227 189.426 87.2613 189.26 87.448C189.1 87.6293 189.02 87.856 189.02 88.128C189.02 88.3947 189.106 88.5973 189.276 88.736C189.452 88.8747 189.679 88.9867 189.956 89.072C190.239 89.152 190.546 89.2453 190.876 89.352C191.362 89.5067 191.815 89.6853 192.236 89.888C192.658 90.0907 192.996 90.344 193.252 90.648C193.514 90.952 193.642 91.328 193.636 91.776C193.636 92.2667 193.49 92.696 193.196 93.064C192.903 93.4267 192.522 93.704 192.052 93.896C191.588 94.088 191.09 94.1733 190.556 94.152ZM198.449 94.208C197.713 94.208 197.041 94.0187 196.433 93.64C195.83 93.2613 195.347 92.7547 194.985 92.12C194.627 91.48 194.449 90.7733 194.449 90C194.449 89.4133 194.553 88.8667 194.761 88.36C194.969 87.848 195.254 87.4 195.617 87.016C195.985 86.6267 196.411 86.3227 196.897 86.104C197.382 85.8853 197.899 85.776 198.449 85.776C199.051 85.776 199.603 85.8987 200.105 86.144C200.611 86.384 201.043 86.72 201.401 87.152C201.763 87.584 202.033 88.0853 202.209 88.656C202.39 89.2267 202.457 89.8373 202.409 90.488H195.881C195.945 90.9413 196.094 91.3467 196.329 91.704C196.563 92.056 196.862 92.336 197.225 92.544C197.593 92.752 198.001 92.8587 198.449 92.864C198.929 92.864 199.363 92.7413 199.753 92.496C200.142 92.2453 200.457 91.904 200.697 91.472L202.065 91.792C201.745 92.5013 201.262 93.0827 200.617 93.536C199.971 93.984 199.249 94.208 198.449 94.208ZM195.841 89.432H201.057C201.014 88.984 200.87 88.576 200.625 88.208C200.379 87.8347 200.067 87.536 199.689 87.312C199.31 87.088 198.897 86.976 198.449 86.976C198.001 86.976 197.59 87.0853 197.217 87.304C196.843 87.5227 196.534 87.8187 196.289 88.192C196.049 88.56 195.899 88.9733 195.841 89.432ZM203.679 94V82H205.023V94H203.679ZM210.995 94H209.275L206.355 85.984H207.787L210.131 92.44L212.475 85.984H213.907L210.995 94ZM218.402 94.208C217.666 94.208 216.994 94.0187 216.386 93.64C215.783 93.2613 215.301 92.7547 214.938 92.12C214.581 91.48 214.402 90.7733 214.402 90C214.402 89.4133 214.506 88.8667 214.714 88.36C214.922 87.848 215.207 87.4 215.57 87.016C215.938 86.6267 216.365 86.3227 216.85 86.104C217.335 85.8853 217.853 85.776 218.402 85.776C219.005 85.776 219.557 85.8987 220.058 86.144C220.565 86.384 220.997 86.72 221.354 87.152C221.717 87.584 221.986 88.0853 222.162 88.656C222.343 89.2267 222.41 89.8373 222.362 90.488H215.834C215.898 90.9413 216.047 91.3467 216.282 91.704C216.517 92.056 216.815 92.336 217.178 92.544C217.546 92.752 217.954 92.8587 218.402 92.864C218.882 92.864 219.317 92.7413 219.706 92.496C220.095 92.2453 220.41 91.904 220.65 91.472L222.018 91.792C221.698 92.5013 221.215 93.0827 220.57 93.536C219.925 93.984 219.202 94.208 218.402 94.208ZM215.794 89.432H221.01C220.967 88.984 220.823 88.576 220.578 88.208C220.333 87.8347 220.021 87.536 219.642 87.312C219.263 87.088 218.85 86.976 218.402 86.976C217.954 86.976 217.543 87.0853 217.17 87.304C216.797 87.5227 216.487 87.8187 216.242 88.192C216.002 88.56 215.853 88.9733 215.794 89.432ZM226.181 94.152C225.749 94.136 225.328 94.056 224.917 93.912C224.512 93.7627 224.155 93.5627 223.845 93.312C223.541 93.056 223.32 92.7627 223.181 92.432L224.333 91.936C224.413 92.1173 224.557 92.288 224.765 92.448C224.973 92.608 225.213 92.736 225.485 92.832C225.757 92.928 226.032 92.976 226.309 92.976C226.603 92.976 226.877 92.9307 227.133 92.84C227.389 92.7493 227.597 92.616 227.757 92.44C227.923 92.2587 228.005 92.0427 228.005 91.792C228.005 91.5253 227.915 91.3173 227.733 91.168C227.557 91.0133 227.333 90.8933 227.061 90.808C226.795 90.7173 226.523 90.632 226.245 90.552C225.696 90.4133 225.205 90.248 224.773 90.056C224.341 89.8587 224 89.6107 223.749 89.312C223.504 89.008 223.381 88.6213 223.381 88.152C223.381 87.656 223.517 87.2267 223.789 86.864C224.067 86.5013 224.429 86.2213 224.877 86.024C225.325 85.8267 225.805 85.728 226.317 85.728C226.963 85.728 227.552 85.8667 228.085 86.144C228.619 86.4213 229.016 86.7973 229.277 87.272L228.197 87.904C228.107 87.712 227.968 87.544 227.781 87.4C227.595 87.2507 227.381 87.1333 227.141 87.048C226.901 86.9627 226.656 86.9173 226.405 86.912C226.096 86.9013 225.805 86.9413 225.533 87.032C225.267 87.1227 225.051 87.2613 224.885 87.448C224.725 87.6293 224.645 87.856 224.645 88.128C224.645 88.3947 224.731 88.5973 224.901 88.736C225.077 88.8747 225.304 88.9867 225.581 89.072C225.864 89.152 226.171 89.2453 226.501 89.352C226.987 89.5067 227.44 89.6853 227.861 89.888C228.283 90.0907 228.621 90.344 228.877 90.648C229.139 90.952 229.267 91.328 229.261 91.776C229.261 92.2667 229.115 92.696 228.821 93.064C228.528 93.4267 228.147 93.704 227.677 93.896C227.213 94.088 226.715 94.1733 226.181 94.152ZM231.009 94.208C230.806 94.208 230.633 94.136 230.489 93.992C230.35 93.848 230.281 93.672 230.281 93.464C230.281 93.2667 230.35 93.096 230.489 92.952C230.633 92.808 230.806 92.736 231.009 92.736C231.217 92.736 231.393 92.808 231.537 92.952C231.681 93.096 231.753 93.2667 231.753 93.464C231.753 93.672 231.681 93.848 231.537 93.992C231.393 94.136 231.217 94.208 231.009 94.208ZM237.523 94V82.8H244.091V84.144H238.867V87.328H243.323V88.672H238.867V94H237.523ZM244.898 94V86H246.242V87C246.524 86.6267 246.882 86.3307 247.314 86.112C247.746 85.888 248.215 85.776 248.722 85.776C249.031 85.776 249.33 85.816 249.618 85.896L249.074 87.24C248.855 87.1707 248.642 87.136 248.434 87.136C248.034 87.136 247.666 87.2347 247.33 87.432C246.999 87.624 246.735 87.8853 246.538 88.216C246.34 88.5467 246.242 88.9147 246.242 89.32V94H244.898ZM253.714 94.208C252.978 94.208 252.306 94.0187 251.698 93.64C251.096 93.2613 250.613 92.7547 250.25 92.12C249.893 91.48 249.714 90.7733 249.714 90C249.714 89.4133 249.818 88.8667 250.026 88.36C250.234 87.848 250.52 87.4 250.882 87.016C251.25 86.6267 251.677 86.3227 252.162 86.104C252.648 85.8853 253.165 85.776 253.714 85.776C254.45 85.776 255.12 85.9653 255.722 86.344C256.33 86.7227 256.813 87.232 257.17 87.872C257.533 88.512 257.714 89.2213 257.714 90C257.714 90.5813 257.61 91.1253 257.402 91.632C257.194 92.1387 256.906 92.5867 256.538 92.976C256.176 93.36 255.752 93.6613 255.266 93.88C254.786 94.0987 254.269 94.208 253.714 94.208ZM253.714 92.864C254.216 92.864 254.666 92.7333 255.066 92.472C255.472 92.2053 255.789 91.856 256.018 91.424C256.253 90.9867 256.37 90.512 256.37 90C256.37 89.4773 256.25 88.9973 256.01 88.56C255.776 88.1227 255.458 87.7733 255.058 87.512C254.658 87.2507 254.21 87.12 253.714 87.12C253.213 87.12 252.762 87.2533 252.362 87.52C251.962 87.7813 251.645 88.1307 251.41 88.568C251.176 89.0053 251.058 89.4827 251.058 90C251.058 90.5333 251.178 91.0187 251.418 91.456C251.658 91.888 251.981 92.232 252.386 92.488C252.792 92.7387 253.234 92.864 253.714 92.864ZM259.038 94V86H260.382V87C260.665 86.6267 261.019 86.3307 261.446 86.112C261.878 85.888 262.347 85.776 262.854 85.776C263.446 85.776 263.987 85.92 264.478 86.208C264.969 86.496 265.355 86.8773 265.638 87.352C265.921 86.8773 266.305 86.496 266.79 86.208C267.281 85.92 267.819 85.776 268.406 85.776C269.009 85.776 269.555 85.9227 270.046 86.216C270.537 86.504 270.926 86.8933 271.214 87.384C271.507 87.8747 271.654 88.4213 271.654 89.024V94H270.31V89.344C270.31 88.9493 270.214 88.584 270.022 88.248C269.83 87.912 269.571 87.6427 269.246 87.44C268.921 87.2373 268.561 87.136 268.166 87.136C267.771 87.136 267.411 87.232 267.086 87.424C266.761 87.6107 266.502 87.872 266.31 88.208C266.118 88.5387 266.022 88.9173 266.022 89.344V94H264.678V89.344C264.678 88.9173 264.582 88.5387 264.39 88.208C264.198 87.872 263.937 87.6107 263.606 87.424C263.281 87.232 262.921 87.136 262.526 87.136C262.137 87.136 261.777 87.2373 261.446 87.44C261.121 87.6427 260.862 87.912 260.67 88.248C260.478 88.584 260.382 88.9493 260.382 89.344V94H259.038ZM281.245 87.344H279.429L279.421 94H278.077L278.085 87.344H276.709V86H278.085L278.077 83.488H279.421L279.429 86H281.245V87.344ZM289.751 89.024V94H288.407V89.32C288.407 88.9147 288.308 88.5467 288.111 88.216C287.913 87.8853 287.649 87.624 287.319 87.432C286.988 87.2347 286.62 87.136 286.215 87.136C285.815 87.136 285.447 87.2347 285.111 87.432C284.78 87.624 284.516 87.8853 284.319 88.216C284.121 88.5467 284.023 88.9147 284.023 89.32V94H282.679V82H284.023V87C284.305 86.6267 284.663 86.3307 285.095 86.112C285.527 85.888 285.996 85.776 286.503 85.776C287.1 85.776 287.644 85.9227 288.135 86.216C288.631 86.504 289.023 86.8933 289.311 87.384C289.604 87.8747 289.751 88.4213 289.751 89.024ZM294.714 94.208C293.978 94.208 293.306 94.0187 292.698 93.64C292.096 93.2613 291.613 92.7547 291.25 92.12C290.893 91.48 290.714 90.7733 290.714 90C290.714 89.4133 290.818 88.8667 291.026 88.36C291.234 87.848 291.52 87.4 291.882 87.016C292.25 86.6267 292.677 86.3227 293.162 86.104C293.648 85.8853 294.165 85.776 294.714 85.776C295.317 85.776 295.869 85.8987 296.37 86.144C296.877 86.384 297.309 86.72 297.666 87.152C298.029 87.584 298.298 88.0853 298.474 88.656C298.656 89.2267 298.722 89.8373 298.674 90.488H292.146C292.21 90.9413 292.36 91.3467 292.594 91.704C292.829 92.056 293.128 92.336 293.49 92.544C293.858 92.752 294.266 92.8587 294.714 92.864C295.194 92.864 295.629 92.7413 296.018 92.496C296.408 92.2453 296.722 91.904 296.962 91.472L298.33 91.792C298.01 92.5013 297.528 93.0827 296.882 93.536C296.237 93.984 295.514 94.208 294.714 94.208ZM292.106 89.432H297.322C297.28 88.984 297.136 88.576 296.89 88.208C296.645 87.8347 296.333 87.536 295.954 87.312C295.576 87.088 295.162 86.976 294.714 86.976C294.266 86.976 293.856 87.0853 293.482 87.304C293.109 87.5227 292.8 87.8187 292.554 88.192C292.314 88.56 292.165 88.9733 292.106 89.432ZM2.804 122H1.46V110H2.804V111.368C3.076 110.899 3.43867 110.52 3.892 110.232C4.34533 109.939 4.884 109.792 5.508 109.792C6.08933 109.792 6.63333 109.901 7.14 110.12C7.652 110.339 8.1 110.643 8.484 111.032C8.868 111.416 9.16933 111.861 9.388 112.368C9.60667 112.875 9.716 113.419 9.716 114C9.716 114.581 9.60667 115.128 9.388 115.64C9.16933 116.152 8.868 116.603 8.484 116.992C8.1 117.376 7.652 117.677 7.14 117.896C6.63333 118.115 6.08933 118.224 5.508 118.224C4.884 118.224 4.34533 118.08 3.892 117.792C3.43867 117.499 3.076 117.117 2.804 116.648V122ZM5.492 111.096C4.97467 111.096 4.52133 111.227 4.132 111.488C3.74267 111.749 3.44133 112.099 3.228 112.536C3.02 112.973 2.916 113.461 2.916 114C2.916 114.533 3.02 115.021 3.228 115.464C3.44133 115.907 3.74 116.259 4.124 116.52C4.51333 116.781 4.96933 116.912 5.492 116.912C6.00933 116.912 6.484 116.784 6.916 116.528C7.348 116.267 7.69467 115.917 7.956 115.48C8.21733 115.037 8.348 114.544 8.348 114C8.348 113.467 8.22 112.981 7.964 112.544C7.708 112.101 7.364 111.749 6.932 111.488C6.5 111.227 6.02 111.096 5.492 111.096ZM11.0538 118V110H12.3978V111C12.6804 110.627 13.0378 110.331 13.4698 110.112C13.9018 109.888 14.3711 109.776 14.8778 109.776C15.1871 109.776 15.4858 109.816 15.7738 109.896L15.2298 111.24C15.0111 111.171 14.7978 111.136 14.5898 111.136C14.1898 111.136 13.8218 111.235 13.4858 111.432C13.1551 111.624 12.8911 111.885 12.6938 112.216C12.4964 112.547 12.3978 112.915 12.3978 113.32V118H11.0538ZM19.8706 118.208C19.1346 118.208 18.4626 118.019 17.8546 117.64C17.252 117.261 16.7693 116.755 16.4066 116.12C16.0493 115.48 15.8706 114.773 15.8706 114C15.8706 113.413 15.9746 112.867 16.1826 112.36C16.3906 111.848 16.676 111.4 17.0386 111.016C17.4066 110.627 17.8333 110.323 18.3186 110.104C18.804 109.885 19.3213 109.776 19.8706 109.776C20.6066 109.776 21.276 109.965 21.8786 110.344C22.4866 110.723 22.9693 111.232 23.3266 111.872C23.6893 112.512 23.8706 113.221 23.8706 114C23.8706 114.581 23.7666 115.125 23.5586 115.632C23.3506 116.139 23.0626 116.587 22.6946 116.976C22.332 117.36 21.908 117.661 21.4226 117.88C20.9426 118.099 20.4253 118.208 19.8706 118.208ZM19.8706 116.864C20.372 116.864 20.8226 116.733 21.2226 116.472C21.628 116.205 21.9453 115.856 22.1746 115.424C22.4093 114.987 22.5266 114.512 22.5266 114C22.5266 113.477 22.4066 112.997 22.1666 112.56C21.932 112.123 21.6146 111.773 21.2146 111.512C20.8146 111.251 20.3666 111.12 19.8706 111.12C19.3693 111.12 18.9186 111.253 18.5186 111.52C18.1186 111.781 17.8013 112.131 17.5666 112.568C17.332 113.005 17.2146 113.483 17.2146 114C17.2146 114.533 17.3346 115.019 17.5746 115.456C17.8146 115.888 18.1373 116.232 18.5426 116.488C18.948 116.739 19.3906 116.864 19.8706 116.864ZM26.5384 122H25.1944V110H26.5384V111.368C26.8104 110.899 27.173 110.52 27.6264 110.232C28.0797 109.939 28.6184 109.792 29.2424 109.792C29.8237 109.792 30.3677 109.901 30.8744 110.12C31.3864 110.339 31.8344 110.643 32.2184 111.032C32.6024 111.416 32.9037 111.861 33.1224 112.368C33.341 112.875 33.4504 113.419 33.4504 114C33.4504 114.581 33.341 115.128 33.1224 115.64C32.9037 116.152 32.6024 116.603 32.2184 116.992C31.8344 117.376 31.3864 117.677 30.8744 117.896C30.3677 118.115 29.8237 118.224 29.2424 118.224C28.6184 118.224 28.0797 118.08 27.6264 117.792C27.173 117.499 26.8104 117.117 26.5384 116.648V122ZM29.2264 111.096C28.709 111.096 28.2557 111.227 27.8664 111.488C27.477 111.749 27.1757 112.099 26.9624 112.536C26.7544 112.973 26.6504 113.461 26.6504 114C26.6504 114.533 26.7544 115.021 26.9624 115.464C27.1757 115.907 27.4744 116.259 27.8584 116.52C28.2477 116.781 28.7037 116.912 29.2264 116.912C29.7437 116.912 30.2184 116.784 30.6504 116.528C31.0824 116.267 31.429 115.917 31.6904 115.48C31.9517 115.037 32.0824 114.544 32.0824 114C32.0824 113.467 31.9544 112.981 31.6984 112.544C31.4424 112.101 31.0984 111.749 30.6664 111.488C30.2344 111.227 29.7544 111.096 29.2264 111.096ZM38.2613 118.208C37.5253 118.208 36.8533 118.019 36.2453 117.64C35.6426 117.261 35.1599 116.755 34.7973 116.12C34.4399 115.48 34.2613 114.773 34.2613 114C34.2613 113.413 34.3653 112.867 34.5733 112.36C34.7813 111.848 35.0666 111.4 35.4293 111.016C35.7973 110.627 36.2239 110.323 36.7093 110.104C37.1946 109.885 37.7119 109.776 38.2613 109.776C38.8639 109.776 39.4159 109.899 39.9173 110.144C40.4239 110.384 40.8559 110.72 41.2133 111.152C41.5759 111.584 41.8453 112.085 42.0213 112.656C42.2026 113.227 42.2693 113.837 42.2213 114.488H35.6933C35.7573 114.941 35.9066 115.347 36.1413 115.704C36.3759 116.056 36.6746 116.336 37.0373 116.544C37.4053 116.752 37.8133 116.859 38.2613 116.864C38.7413 116.864 39.1759 116.741 39.5653 116.496C39.9546 116.245 40.2693 115.904 40.5093 115.472L41.8773 115.792C41.5573 116.501 41.0746 117.083 40.4293 117.536C39.7839 117.984 39.0613 118.208 38.2613 118.208ZM35.6533 113.432H40.8693C40.8266 112.984 40.6826 112.576 40.4373 112.208C40.1919 111.835 39.8799 111.536 39.5013 111.312C39.1226 111.088 38.7093 110.976 38.2613 110.976C37.8133 110.976 37.4026 111.085 37.0293 111.304C36.6559 111.523 36.3466 111.819 36.1013 112.192C35.8613 112.56 35.7119 112.973 35.6533 113.432ZM43.5694 118V110H44.9134V111C45.196 110.627 45.5534 110.331 45.9854 110.112C46.4174 109.888 46.8867 109.776 47.3934 109.776C47.7027 109.776 48.0014 109.816 48.2894 109.896L47.7454 111.24C47.5267 111.171 47.3134 111.136 47.1054 111.136C46.7054 111.136 46.3374 111.235 46.0014 111.432C45.6707 111.624 45.4067 111.885 45.2094 112.216C45.012 112.547 44.9134 112.915 44.9134 113.32V118H43.5694ZM53.5571 111.344H51.7411L51.7331 118H50.3891L50.3971 111.344H49.0211V110H50.3971L50.3891 107.488H51.7331L51.7411 110H53.5571V111.344ZM54.9131 110H56.2571V118H54.9131V110ZM55.6011 108.696C55.3878 108.696 55.2091 108.627 55.0651 108.488C54.9211 108.349 54.8491 108.176 54.8491 107.968C54.8491 107.76 54.9211 107.587 55.0651 107.448C55.2091 107.309 55.3851 107.24 55.5931 107.24C55.8011 107.24 55.9771 107.309 56.1211 107.448C56.2651 107.587 56.3371 107.76 56.3371 107.968C56.3371 108.176 56.2651 108.349 56.1211 108.488C55.9825 108.627 55.8091 108.696 55.6011 108.696ZM61.5894 118.208C60.8534 118.208 60.1814 118.019 59.5734 117.64C58.9707 117.261 58.488 116.755 58.1254 116.12C57.768 115.48 57.5894 114.773 57.5894 114C57.5894 113.413 57.6934 112.867 57.9014 112.36C58.1094 111.848 58.3947 111.4 58.7574 111.016C59.1254 110.627 59.552 110.323 60.0374 110.104C60.5227 109.885 61.04 109.776 61.5894 109.776C62.192 109.776 62.744 109.899 63.2454 110.144C63.752 110.384 64.184 110.72 64.5414 111.152C64.904 111.584 65.1734 112.085 65.3494 112.656C65.5307 113.227 65.5974 113.837 65.5494 114.488H59.0214C59.0854 114.941 59.2347 115.347 59.4694 115.704C59.704 116.056 60.0027 116.336 60.3654 116.544C60.7334 116.752 61.1414 116.859 61.5894 116.864C62.0694 116.864 62.504 116.741 62.8934 116.496C63.2827 116.245 63.5974 115.904 63.8374 115.472L65.2054 115.792C64.8854 116.501 64.4027 117.083 63.7574 117.536C63.112 117.984 62.3894 118.208 61.5894 118.208ZM58.9814 113.432H64.1974C64.1547 112.984 64.0107 112.576 63.7654 112.208C63.52 111.835 63.208 111.536 62.8294 111.312C62.4507 111.088 62.0374 110.976 61.5894 110.976C61.1414 110.976 60.7307 111.085 60.3574 111.304C59.984 111.523 59.6747 111.819 59.4294 112.192C59.1894 112.56 59.04 112.973 58.9814 113.432ZM69.3688 118.152C68.9368 118.136 68.5154 118.056 68.1048 117.912C67.6994 117.763 67.3421 117.563 67.0328 117.312C66.7288 117.056 66.5074 116.763 66.3688 116.432L67.5208 115.936C67.6008 116.117 67.7448 116.288 67.9528 116.448C68.1608 116.608 68.4008 116.736 68.6728 116.832C68.9448 116.928 69.2194 116.976 69.4968 116.976C69.7901 116.976 70.0648 116.931 70.3208 116.84C70.5768 116.749 70.7848 116.616 70.9448 116.44C71.1101 116.259 71.1928 116.043 71.1928 115.792C71.1928 115.525 71.1021 115.317 70.9208 115.168C70.7448 115.013 70.5208 114.893 70.2488 114.808C69.9821 114.717 69.7101 114.632 69.4328 114.552C68.8834 114.413 68.3928 114.248 67.9608 114.056C67.5288 113.859 67.1874 113.611 66.9368 113.312C66.6914 113.008 66.5688 112.621 66.5688 112.152C66.5688 111.656 66.7048 111.227 66.9768 110.864C67.2541 110.501 67.6168 110.221 68.0648 110.024C68.5128 109.827 68.9928 109.728 69.5048 109.728C70.1501 109.728 70.7394 109.867 71.2728 110.144C71.8061 110.421 72.2034 110.797 72.4648 111.272L71.3848 111.904C71.2941 111.712 71.1554 111.544 70.9688 111.4C70.7821 111.251 70.5688 111.133 70.3288 111.048C70.0888 110.963 69.8434 110.917 69.5928 110.912C69.2834 110.901 68.9928 110.941 68.7208 111.032C68.4541 111.123 68.2381 111.261 68.0728 111.448C67.9128 111.629 67.8328 111.856 67.8328 112.128C67.8328 112.395 67.9181 112.597 68.0888 112.736C68.2648 112.875 68.4914 112.987 68.7688 113.072C69.0514 113.152 69.3581 113.245 69.6888 113.352C70.1741 113.507 70.6274 113.685 71.0488 113.888C71.4701 114.091 71.8088 114.344 72.0648 114.648C72.3261 114.952 72.4541 115.328 72.4488 115.776C72.4488 116.267 72.3021 116.696 72.0088 117.064C71.7154 117.427 71.3341 117.704 70.8648 117.896C70.4008 118.088 69.9021 118.173 69.3688 118.152ZM81.2231 118H79.8631L77.1831 110H78.4951L80.5591 116.104L82.5991 110H83.9831L86.0311 116.104L88.0711 110H89.3991L86.7191 118H85.3511L83.2791 111.84L81.2231 118ZM93.8863 118.208C93.1503 118.208 92.4783 118.019 91.8703 117.64C91.2676 117.261 90.7849 116.755 90.4223 116.12C90.0649 115.48 89.8863 114.773 89.8863 114C89.8863 113.413 89.9903 112.867 90.1983 112.36C90.4063 111.848 90.6916 111.4 91.0543 111.016C91.4223 110.627 91.8489 110.323 92.3343 110.104C92.8196 109.885 93.3369 109.776 93.8863 109.776C94.4889 109.776 95.0409 109.899 95.5423 110.144C96.0489 110.384 96.4809 110.72 96.8383 111.152C97.2009 111.584 97.4703 112.085 97.6463 112.656C97.8276 113.227 97.8943 113.837 97.8463 114.488H91.3183C91.3823 114.941 91.5316 115.347 91.7663 115.704C92.0009 116.056 92.2996 116.336 92.6623 116.544C93.0303 116.752 93.4383 116.859 93.8863 116.864C94.3663 116.864 94.8009 116.741 95.1903 116.496C95.5796 116.245 95.8943 115.904 96.1343 115.472L97.5023 115.792C97.1823 116.501 96.6996 117.083 96.0543 117.536C95.4089 117.984 94.6863 118.208 93.8863 118.208ZM91.2783 113.432H96.4943C96.4516 112.984 96.3076 112.576 96.0623 112.208C95.8169 111.835 95.5049 111.536 95.1263 111.312C94.7476 111.088 94.3343 110.976 93.8863 110.976C93.4383 110.976 93.0276 111.085 92.6543 111.304C92.2809 111.523 91.9716 111.819 91.7263 112.192C91.4863 112.56 91.3369 112.973 91.2783 113.432ZM103.148 118V106H104.492V118H103.148ZM106.413 110H107.757V118H106.413V110ZM107.101 108.696C106.888 108.696 106.709 108.627 106.565 108.488C106.421 108.349 106.349 108.176 106.349 107.968C106.349 107.76 106.421 107.587 106.565 107.448C106.709 107.309 106.885 107.24 107.093 107.24C107.301 107.24 107.477 107.309 107.621 107.448C107.765 107.587 107.837 107.76 107.837 107.968C107.837 108.176 107.765 108.349 107.621 108.488C107.482 108.627 107.309 108.696 107.101 108.696ZM112.041 118.152C111.609 118.136 111.187 118.056 110.777 117.912C110.371 117.763 110.014 117.563 109.705 117.312C109.401 117.056 109.179 116.763 109.041 116.432L110.193 115.936C110.273 116.117 110.417 116.288 110.625 116.448C110.833 116.608 111.073 116.736 111.345 116.832C111.617 116.928 111.891 116.976 112.169 116.976C112.462 116.976 112.737 116.931 112.993 116.84C113.249 116.749 113.457 116.616 113.617 116.44C113.782 116.259 113.865 116.043 113.865 115.792C113.865 115.525 113.774 115.317 113.593 115.168C113.417 115.013 113.193 114.893 112.921 114.808C112.654 114.717 112.382 114.632 112.105 114.552C111.555 114.413 111.065 114.248 110.633 114.056C110.201 113.859 109.859 113.611 109.609 113.312C109.363 113.008 109.241 112.621 109.241 112.152C109.241 111.656 109.377 111.227 109.649 110.864C109.926 110.501 110.289 110.221 110.737 110.024C111.185 109.827 111.665 109.728 112.177 109.728C112.822 109.728 113.411 109.867 113.945 110.144C114.478 110.421 114.875 110.797 115.137 111.272L114.057 111.904C113.966 111.712 113.827 111.544 113.641 111.4C113.454 111.251 113.241 111.133 113.001 111.048C112.761 110.963 112.515 110.917 112.265 110.912C111.955 110.901 111.665 110.941 111.393 111.032C111.126 111.123 110.91 111.261 110.745 111.448C110.585 111.629 110.505 111.856 110.505 112.128C110.505 112.395 110.59 112.597 110.761 112.736C110.937 112.875 111.163 112.987 111.441 113.072C111.723 113.152 112.03 113.245 112.361 113.352C112.846 113.507 113.299 113.685 113.721 113.888C114.142 114.091 114.481 114.344 114.737 114.648C114.998 114.952 115.126 115.328 115.121 115.776C115.121 116.267 114.974 116.696 114.681 117.064C114.387 117.427 114.006 117.704 113.537 117.896C113.073 118.088 112.574 118.173 112.041 118.152ZM120.635 111.344H118.819L118.811 118H117.467L117.475 111.344H116.099V110H117.475L117.467 107.488H118.811L118.819 110H120.635V111.344ZM130.057 111.344H128.241L128.233 118H126.889L126.897 111.344H125.521V110H126.897L126.889 107.488H128.233L128.241 110H130.057V111.344ZM134.808 118.208C134.072 118.208 133.4 118.019 132.792 117.64C132.189 117.261 131.707 116.755 131.344 116.12C130.987 115.48 130.808 114.773 130.808 114C130.808 113.413 130.912 112.867 131.12 112.36C131.328 111.848 131.613 111.4 131.976 111.016C132.344 110.627 132.771 110.323 133.256 110.104C133.741 109.885 134.259 109.776 134.808 109.776C135.544 109.776 136.213 109.965 136.816 110.344C137.424 110.723 137.907 111.232 138.264 111.872C138.627 112.512 138.808 113.221 138.808 114C138.808 114.581 138.704 115.125 138.496 115.632C138.288 116.139 138 116.587 137.632 116.976C137.269 117.36 136.845 117.661 136.36 117.88C135.88 118.099 135.363 118.208 134.808 118.208ZM134.808 116.864C135.309 116.864 135.76 116.733 136.16 116.472C136.565 116.205 136.883 115.856 137.112 115.424C137.347 114.987 137.464 114.512 137.464 114C137.464 113.477 137.344 112.997 137.104 112.56C136.869 112.123 136.552 111.773 136.152 111.512C135.752 111.251 135.304 111.12 134.808 111.12C134.307 111.12 133.856 111.253 133.456 111.52C133.056 111.781 132.739 112.131 132.504 112.568C132.269 113.005 132.152 113.483 132.152 114C132.152 114.533 132.272 115.019 132.512 115.456C132.752 115.888 133.075 116.232 133.48 116.488C133.885 116.739 134.328 116.864 134.808 116.864ZM148.229 111.344H146.413L146.405 118H145.061L145.069 111.344H143.693V110H145.069L145.061 107.488H146.405L146.413 110H148.229V111.344ZM156.735 113.024V118H155.391V113.32C155.391 112.915 155.292 112.547 155.095 112.216C154.898 111.885 154.634 111.624 154.303 111.432C153.972 111.235 153.604 111.136 153.199 111.136C152.799 111.136 152.431 111.235 152.095 111.432C151.764 111.624 151.5 111.885 151.303 112.216C151.106 112.547 151.007 112.915 151.007 113.32V118H149.663V106H151.007V111C151.29 110.627 151.647 110.331 152.079 110.112C152.511 109.888 152.98 109.776 153.487 109.776C154.084 109.776 154.628 109.923 155.119 110.216C155.615 110.504 156.007 110.893 156.295 111.384C156.588 111.875 156.735 112.421 156.735 113.024ZM161.699 118.208C160.963 118.208 160.291 118.019 159.683 117.64C159.08 117.261 158.597 116.755 158.235 116.12C157.877 115.48 157.699 114.773 157.699 114C157.699 113.413 157.803 112.867 158.011 112.36C158.219 111.848 158.504 111.4 158.867 111.016C159.235 110.627 159.661 110.323 160.147 110.104C160.632 109.885 161.149 109.776 161.699 109.776C162.301 109.776 162.853 109.899 163.355 110.144C163.861 110.384 164.293 110.72 164.651 111.152C165.013 111.584 165.283 112.085 165.459 112.656C165.64 113.227 165.707 113.837 165.659 114.488H159.131C159.195 114.941 159.344 115.347 159.579 115.704C159.813 116.056 160.112 116.336 160.475 116.544C160.843 116.752 161.251 116.859 161.699 116.864C162.179 116.864 162.613 116.741 163.003 116.496C163.392 116.245 163.707 115.904 163.947 115.472L165.315 115.792C164.995 116.501 164.512 117.083 163.867 117.536C163.221 117.984 162.499 118.208 161.699 118.208ZM159.091 113.432H164.307C164.264 112.984 164.12 112.576 163.875 112.208C163.629 111.835 163.317 111.536 162.939 111.312C162.56 111.088 162.147 110.976 161.699 110.976C161.251 110.976 160.84 111.085 160.467 111.304C160.093 111.523 159.784 111.819 159.539 112.192C159.299 112.56 159.149 112.973 159.091 113.432ZM173.4 118.152C172.968 118.136 172.547 118.056 172.136 117.912C171.731 117.763 171.373 117.563 171.064 117.312C170.76 117.056 170.539 116.763 170.4 116.432L171.552 115.936C171.632 116.117 171.776 116.288 171.984 116.448C172.192 116.608 172.432 116.736 172.704 116.832C172.976 116.928 173.251 116.976 173.528 116.976C173.821 116.976 174.096 116.931 174.352 116.84C174.608 116.749 174.816 116.616 174.976 116.44C175.141 116.259 175.224 116.043 175.224 115.792C175.224 115.525 175.133 115.317 174.952 115.168C174.776 115.013 174.552 114.893 174.28 114.808C174.013 114.717 173.741 114.632 173.464 114.552C172.915 114.413 172.424 114.248 171.992 114.056C171.56 113.859 171.219 113.611 170.968 113.312C170.723 113.008 170.6 112.621 170.6 112.152C170.6 111.656 170.736 111.227 171.008 110.864C171.285 110.501 171.648 110.221 172.096 110.024C172.544 109.827 173.024 109.728 173.536 109.728C174.181 109.728 174.771 109.867 175.304 110.144C175.837 110.421 176.235 110.797 176.496 111.272L175.416 111.904C175.325 111.712 175.187 111.544 175 111.4C174.813 111.251 174.6 111.133 174.36 111.048C174.12 110.963 173.875 110.917 173.624 110.912C173.315 110.901 173.024 110.941 172.752 111.032C172.485 111.123 172.269 111.261 172.104 111.448C171.944 111.629 171.864 111.856 171.864 112.128C171.864 112.395 171.949 112.597 172.12 112.736C172.296 112.875 172.523 112.987 172.8 113.072C173.083 113.152 173.389 113.245 173.72 113.352C174.205 113.507 174.659 113.685 175.08 113.888C175.501 114.091 175.84 114.344 176.096 114.648C176.357 114.952 176.485 115.328 176.48 115.776C176.48 116.267 176.333 116.696 176.04 117.064C175.747 117.427 175.365 117.704 174.896 117.896C174.432 118.088 173.933 118.173 173.4 118.152ZM181.293 118.208C180.557 118.208 179.885 118.019 179.277 117.64C178.674 117.261 178.191 116.755 177.829 116.12C177.471 115.48 177.293 114.773 177.293 114C177.293 113.413 177.397 112.867 177.605 112.36C177.813 111.848 178.098 111.4 178.461 111.016C178.829 110.627 179.255 110.323 179.741 110.104C180.226 109.885 180.743 109.776 181.293 109.776C181.895 109.776 182.447 109.899 182.949 110.144C183.455 110.384 183.887 110.72 184.245 111.152C184.607 111.584 184.877 112.085 185.053 112.656C185.234 113.227 185.301 113.837 185.253 114.488H178.725C178.789 114.941 178.938 115.347 179.173 115.704C179.407 116.056 179.706 116.336 180.069 116.544C180.437 116.752 180.845 116.859 181.293 116.864C181.773 116.864 182.207 116.741 182.597 116.496C182.986 116.245 183.301 115.904 183.541 115.472L184.909 115.792C184.589 116.501 184.106 117.083 183.461 117.536C182.815 117.984 182.093 118.208 181.293 118.208ZM178.685 113.432H183.901C183.858 112.984 183.714 112.576 183.469 112.208C183.223 111.835 182.911 111.536 182.533 111.312C182.154 111.088 181.741 110.976 181.293 110.976C180.845 110.976 180.434 111.085 180.061 111.304C179.687 111.523 179.378 111.819 179.133 112.192C178.893 112.56 178.743 112.973 178.685 113.432ZM186.601 118V110H187.945V111C188.227 110.627 188.585 110.331 189.017 110.112C189.449 109.888 189.918 109.776 190.425 109.776C190.734 109.776 191.033 109.816 191.321 109.896L190.777 111.24C190.558 111.171 190.345 111.136 190.137 111.136C189.737 111.136 189.369 111.235 189.033 111.432C188.702 111.624 188.438 111.885 188.241 112.216C188.043 112.547 187.945 112.915 187.945 113.32V118H186.601ZM196.604 118H194.884L191.964 109.984H193.396L195.74 116.44L198.084 109.984H199.516L196.604 118ZM200.819 110H202.163V118H200.819V110ZM201.507 108.696C201.294 108.696 201.115 108.627 200.971 108.488C200.827 108.349 200.755 108.176 200.755 107.968C200.755 107.76 200.827 107.587 200.971 107.448C201.115 107.309 201.291 107.24 201.499 107.24C201.707 107.24 201.883 107.309 202.027 107.448C202.171 107.587 202.243 107.76 202.243 107.968C202.243 108.176 202.171 108.349 202.027 108.488C201.889 108.627 201.715 108.696 201.507 108.696ZM209.488 115.888L210.688 116.536C210.325 117.043 209.864 117.448 209.304 117.752C208.749 118.056 208.146 118.208 207.496 118.208C206.76 118.208 206.088 118.019 205.48 117.64C204.877 117.261 204.394 116.755 204.032 116.12C203.674 115.48 203.496 114.773 203.496 114C203.496 113.413 203.6 112.867 203.808 112.36C204.016 111.848 204.301 111.4 204.664 111.016C205.032 110.627 205.458 110.323 205.944 110.104C206.429 109.885 206.946 109.776 207.496 109.776C208.146 109.776 208.749 109.928 209.304 110.232C209.864 110.536 210.325 110.944 210.688 111.456L209.488 112.104C209.232 111.789 208.928 111.547 208.576 111.376C208.224 111.205 207.864 111.12 207.496 111.12C207 111.12 206.549 111.253 206.144 111.52C205.744 111.781 205.426 112.131 205.192 112.568C204.957 113.005 204.84 113.483 204.84 114C204.84 114.517 204.957 114.995 205.192 115.432C205.432 115.864 205.752 116.211 206.152 116.472C206.557 116.733 207.005 116.864 207.496 116.864C207.89 116.864 208.261 116.773 208.608 116.592C208.954 116.411 209.248 116.176 209.488 115.888ZM215.511 118.208C214.775 118.208 214.103 118.019 213.495 117.64C212.893 117.261 212.41 116.755 212.047 116.12C211.69 115.48 211.511 114.773 211.511 114C211.511 113.413 211.615 112.867 211.823 112.36C212.031 111.848 212.317 111.4 212.679 111.016C213.047 110.627 213.474 110.323 213.959 110.104C214.445 109.885 214.962 109.776 215.511 109.776C216.114 109.776 216.666 109.899 217.167 110.144C217.674 110.384 218.106 110.72 218.463 111.152C218.826 111.584 219.095 112.085 219.271 112.656C219.453 113.227 219.519 113.837 219.471 114.488H212.943C213.007 114.941 213.157 115.347 213.391 115.704C213.626 116.056 213.925 116.336 214.287 116.544C214.655 116.752 215.063 116.859 215.511 116.864C215.991 116.864 216.426 116.741 216.815 116.496C217.205 116.245 217.519 115.904 217.759 115.472L219.127 115.792C218.807 116.501 218.325 117.083 217.679 117.536C217.034 117.984 216.311 118.208 215.511 118.208ZM212.903 113.432H218.119C218.077 112.984 217.933 112.576 217.687 112.208C217.442 111.835 217.13 111.536 216.751 111.312C216.373 111.088 215.959 110.976 215.511 110.976C215.063 110.976 214.653 111.085 214.279 111.304C213.906 111.523 213.597 111.819 213.351 112.192C213.111 112.56 212.962 112.973 212.903 113.432ZM223.291 118.152C222.859 118.136 222.437 118.056 222.027 117.912C221.621 117.763 221.264 117.563 220.955 117.312C220.651 117.056 220.429 116.763 220.291 116.432L221.443 115.936C221.523 116.117 221.667 116.288 221.875 116.448C222.083 116.608 222.323 116.736 222.595 116.832C222.867 116.928 223.141 116.976 223.419 116.976C223.712 116.976 223.987 116.931 224.243 116.84C224.499 116.749 224.707 116.616 224.867 116.44C225.032 116.259 225.115 116.043 225.115 115.792C225.115 115.525 225.024 115.317 224.843 115.168C224.667 115.013 224.443 114.893 224.171 114.808C223.904 114.717 223.632 114.632 223.355 114.552C222.805 114.413 222.315 114.248 221.883 114.056C221.451 113.859 221.109 113.611 220.859 113.312C220.613 113.008 220.491 112.621 220.491 112.152C220.491 111.656 220.627 111.227 220.899 110.864C221.176 110.501 221.539 110.221 221.987 110.024C222.435 109.827 222.915 109.728 223.427 109.728C224.072 109.728 224.661 109.867 225.195 110.144C225.728 110.421 226.125 110.797 226.387 111.272L225.307 111.904C225.216 111.712 225.077 111.544 224.891 111.4C224.704 111.251 224.491 111.133 224.251 111.048C224.011 110.963 223.765 110.917 223.515 110.912C223.205 110.901 222.915 110.941 222.643 111.032C222.376 111.123 222.16 111.261 221.995 111.448C221.835 111.629 221.755 111.856 221.755 112.128C221.755 112.395 221.84 112.597 222.011 112.736C222.187 112.875 222.413 112.987 222.691 113.072C222.973 113.152 223.28 113.245 223.611 113.352C224.096 113.507 224.549 113.685 224.971 113.888C225.392 114.091 225.731 114.344 225.987 114.648C226.248 114.952 226.376 115.328 226.371 115.776C226.371 116.267 226.224 116.696 225.931 117.064C225.637 117.427 225.256 117.704 224.787 117.896C224.323 118.088 223.824 118.173 223.291 118.152ZM235.145 118H233.785L231.105 110H232.417L234.481 116.104L236.521 110H237.905L239.953 116.104L241.993 110H243.321L240.641 118H239.273L237.201 111.84L235.145 118ZM247.808 118.208C247.072 118.208 246.4 118.019 245.792 117.64C245.189 117.261 244.707 116.755 244.344 116.12C243.987 115.48 243.808 114.773 243.808 114C243.808 113.413 243.912 112.867 244.12 112.36C244.328 111.848 244.613 111.4 244.976 111.016C245.344 110.627 245.771 110.323 246.256 110.104C246.741 109.885 247.259 109.776 247.808 109.776C248.411 109.776 248.963 109.899 249.464 110.144C249.971 110.384 250.403 110.72 250.76 111.152C251.123 111.584 251.392 112.085 251.568 112.656C251.749 113.227 251.816 113.837 251.768 114.488H245.24C245.304 114.941 245.453 115.347 245.688 115.704C245.923 116.056 246.221 116.336 246.584 116.544C246.952 116.752 247.36 116.859 247.808 116.864C248.288 116.864 248.723 116.741 249.112 116.496C249.501 116.245 249.816 115.904 250.056 115.472L251.424 115.792C251.104 116.501 250.621 117.083 249.976 117.536C249.331 117.984 248.608 118.208 247.808 118.208ZM245.2 113.432H250.416C250.373 112.984 250.229 112.576 249.984 112.208C249.739 111.835 249.427 111.536 249.048 111.312C248.669 111.088 248.256 110.976 247.808 110.976C247.36 110.976 246.949 111.085 246.576 111.304C246.203 111.523 245.893 111.819 245.648 112.192C245.408 112.56 245.259 112.973 245.2 113.432ZM258.413 122H257.069V110H258.413V111.368C258.685 110.899 259.048 110.52 259.501 110.232C259.955 109.939 260.493 109.792 261.117 109.792C261.699 109.792 262.243 109.901 262.749 110.12C263.261 110.339 263.709 110.643 264.093 111.032C264.477 111.416 264.779 111.861 264.997 112.368C265.216 112.875 265.325 113.419 265.325 114C265.325 114.581 265.216 115.128 264.997 115.64C264.779 116.152 264.477 116.603 264.093 116.992C263.709 117.376 263.261 117.677 262.749 117.896C262.243 118.115 261.699 118.224 261.117 118.224C260.493 118.224 259.955 118.08 259.501 117.792C259.048 117.499 258.685 117.117 258.413 116.648V122ZM261.101 111.096C260.584 111.096 260.131 111.227 259.741 111.488C259.352 111.749 259.051 112.099 258.837 112.536C258.629 112.973 258.525 113.461 258.525 114C258.525 114.533 258.629 115.021 258.837 115.464C259.051 115.907 259.349 116.259 259.733 116.52C260.123 116.781 260.579 116.912 261.101 116.912C261.619 116.912 262.093 116.784 262.525 116.528C262.957 116.267 263.304 115.917 263.565 115.48C263.827 115.037 263.957 114.544 263.957 114C263.957 113.467 263.829 112.981 263.573 112.544C263.317 112.101 262.973 111.749 262.541 111.488C262.109 111.227 261.629 111.096 261.101 111.096ZM266.663 118V110H268.007V111C268.29 110.627 268.647 110.331 269.079 110.112C269.511 109.888 269.98 109.776 270.487 109.776C270.796 109.776 271.095 109.816 271.383 109.896L270.839 111.24C270.62 111.171 270.407 111.136 270.199 111.136C269.799 111.136 269.431 111.235 269.095 111.432C268.764 111.624 268.5 111.885 268.303 112.216C268.106 112.547 268.007 112.915 268.007 113.32V118H266.663ZM275.48 118.208C274.744 118.208 274.072 118.019 273.464 117.64C272.861 117.261 272.379 116.755 272.016 116.12C271.659 115.48 271.48 114.773 271.48 114C271.48 113.413 271.584 112.867 271.792 112.36C272 111.848 272.285 111.4 272.648 111.016C273.016 110.627 273.443 110.323 273.928 110.104C274.413 109.885 274.931 109.776 275.48 109.776C276.216 109.776 276.885 109.965 277.488 110.344C278.096 110.723 278.579 111.232 278.936 111.872C279.299 112.512 279.48 113.221 279.48 114C279.48 114.581 279.376 115.125 279.168 115.632C278.96 116.139 278.672 116.587 278.304 116.976C277.941 117.36 277.517 117.661 277.032 117.88C276.552 118.099 276.035 118.208 275.48 118.208ZM275.48 116.864C275.981 116.864 276.432 116.733 276.832 116.472C277.237 116.205 277.555 115.856 277.784 115.424C278.019 114.987 278.136 114.512 278.136 114C278.136 113.477 278.016 112.997 277.776 112.56C277.541 112.123 277.224 111.773 276.824 111.512C276.424 111.251 275.976 111.12 275.48 111.12C274.979 111.12 274.528 111.253 274.128 111.52C273.728 111.781 273.411 112.131 273.176 112.568C272.941 113.005 272.824 113.483 272.824 114C272.824 114.533 272.944 115.019 273.184 115.456C273.424 115.888 273.747 116.232 274.152 116.488C274.557 116.739 275 116.864 275.48 116.864ZM284.604 118H282.884L279.964 109.984H281.396L283.74 116.44L286.084 109.984H287.516L284.604 118ZM288.819 110H290.163V118H288.819V110ZM289.507 108.696C289.294 108.696 289.115 108.627 288.971 108.488C288.827 108.349 288.755 108.176 288.755 107.968C288.755 107.76 288.827 107.587 288.971 107.448C289.115 107.309 289.291 107.24 289.499 107.24C289.707 107.24 289.883 107.309 290.027 107.448C290.171 107.587 290.243 107.76 290.243 107.968C290.243 108.176 290.171 108.349 290.027 108.488C289.889 108.627 289.715 108.696 289.507 108.696ZM298.416 106H299.76V118H298.416V116.64C298.144 117.109 297.778 117.488 297.32 117.776C296.861 118.064 296.322 118.208 295.704 118.208C295.122 118.208 294.578 118.099 294.072 117.88C293.565 117.661 293.117 117.36 292.728 116.976C292.344 116.587 292.042 116.139 291.824 115.632C291.605 115.125 291.496 114.581 291.496 114C291.496 113.419 291.605 112.875 291.824 112.368C292.042 111.856 292.344 111.408 292.728 111.024C293.117 110.635 293.565 110.331 294.072 110.112C294.578 109.893 295.122 109.784 295.704 109.784C296.322 109.784 296.861 109.928 297.32 110.216C297.778 110.504 298.144 110.883 298.416 111.352V106ZM295.72 116.904C296.248 116.904 296.704 116.776 297.088 116.52C297.477 116.259 297.776 115.907 297.984 115.464C298.197 115.021 298.304 114.533 298.304 114C298.304 113.456 298.197 112.965 297.984 112.528C297.77 112.085 297.469 111.736 297.08 111.48C296.696 111.219 296.242 111.088 295.72 111.088C295.192 111.088 294.712 111.219 294.28 111.48C293.853 111.741 293.512 112.093 293.256 112.536C293 112.973 292.872 113.461 292.872 114C292.872 114.539 293.002 115.029 293.264 115.472C293.525 115.909 293.872 116.259 294.304 116.52C294.736 116.776 295.208 116.904 295.72 116.904ZM305.121 118.208C304.385 118.208 303.713 118.019 303.105 117.64C302.502 117.261 302.019 116.755 301.657 116.12C301.299 115.48 301.121 114.773 301.121 114C301.121 113.413 301.225 112.867 301.433 112.36C301.641 111.848 301.926 111.4 302.289 111.016C302.657 110.627 303.083 110.323 303.569 110.104C304.054 109.885 304.571 109.776 305.121 109.776C305.723 109.776 306.275 109.899 306.777 110.144C307.283 110.384 307.715 110.72 308.073 111.152C308.435 111.584 308.705 112.085 308.881 112.656C309.062 113.227 309.129 113.837 309.081 114.488H302.553C302.617 114.941 302.766 115.347 303.001 115.704C303.235 116.056 303.534 116.336 303.897 116.544C304.265 116.752 304.673 116.859 305.121 116.864C305.601 116.864 306.035 116.741 306.425 116.496C306.814 116.245 307.129 115.904 307.369 115.472L308.737 115.792C308.417 116.501 307.934 117.083 307.289 117.536C306.643 117.984 305.921 118.208 305.121 118.208ZM302.513 113.432H307.729C307.686 112.984 307.542 112.576 307.297 112.208C307.051 111.835 306.739 111.536 306.361 111.312C305.982 111.088 305.569 110.976 305.121 110.976C304.673 110.976 304.262 111.085 303.889 111.304C303.515 111.523 303.206 111.819 302.961 112.192C302.721 112.56 302.571 112.973 302.513 113.432ZM310.79 118.208C310.587 118.208 310.414 118.136 310.27 117.992C310.131 117.848 310.062 117.672 310.062 117.464C310.062 117.267 310.131 117.096 310.27 116.952C310.414 116.808 310.587 116.736 310.79 116.736C310.998 116.736 311.174 116.808 311.318 116.952C311.462 117.096 311.534 117.267 311.534 117.464C311.534 117.672 311.462 117.848 311.318 117.992C311.174 118.136 310.998 118.208 310.79 118.208Z" fill="#999999"></path></svg>