<svg xmlns="http://www.w3.org/2000/svg" width="965" height="66" viewBox="0 0 965 66" fill="none"><g clip-path="url(#clip0_166_1076)"><path d="M0.84 15V5.2H4.074C4.60133 5.2 5.075 5.32833 5.495 5.585C5.91967 5.84167 6.25567 6.18933 6.503 6.628C6.755 7.062 6.881 7.54733 6.881 8.084C6.881 8.63 6.75267 9.12233 6.496 9.561C6.244 9.995 5.90333 10.3403 5.474 10.597C5.04933 10.849 4.58267 10.975 4.074 10.975H2.016V15H0.84ZM2.016 9.799H3.969C4.28633 9.799 4.57567 9.722 4.837 9.568C5.103 9.40933 5.313 9.197 5.467 8.931C5.62567 8.66033 5.705 8.357 5.705 8.021C5.705 7.68033 5.62567 7.377 5.467 7.111C5.313 6.84033 5.103 6.628 4.837 6.474C4.57567 6.31533 4.28633 6.236 3.969 6.236H2.016V9.799ZM8.08609 15V8H9.26209V8.875C9.50943 8.54833 9.82209 8.28933 10.2001 8.098C10.5781 7.902 10.9888 7.804 11.4321 7.804C11.7028 7.804 11.9641 7.839 12.2161 7.909L11.7401 9.085C11.5488 9.02433 11.3621 8.994 11.1801 8.994C10.8301 8.994 10.5081 9.08033 10.2141 9.253C9.92476 9.421 9.69376 9.64967 9.52109 9.939C9.34843 10.2283 9.26209 10.5503 9.26209 10.905V15H8.08609ZM15.8009 15.182C15.1569 15.182 14.5689 15.0163 14.0369 14.685C13.5095 14.3537 13.0872 13.9103 12.7699 13.355C12.4572 12.795 12.3009 12.1767 12.3009 11.5C12.3009 10.9867 12.3919 10.5083 12.5739 10.065C12.7559 9.617 13.0055 9.225 13.3229 8.889C13.6449 8.54833 14.0182 8.28233 14.4429 8.091C14.8675 7.89967 15.3202 7.804 15.8009 7.804C16.4449 7.804 17.0305 7.96967 17.5579 8.301C18.0899 8.63233 18.5122 9.078 18.8249 9.638C19.1422 10.198 19.3009 10.8187 19.3009 11.5C19.3009 12.0087 19.2099 12.4847 19.0279 12.928C18.8459 13.3713 18.5939 13.7633 18.2719 14.104C17.9545 14.44 17.5835 14.7037 17.1589 14.895C16.7389 15.0863 16.2862 15.182 15.8009 15.182ZM15.8009 14.006C16.2395 14.006 16.6339 13.8917 16.9839 13.663C17.3385 13.4297 17.6162 13.124 17.8169 12.746C18.0222 12.3633 18.1249 11.948 18.1249 11.5C18.1249 11.0427 18.0199 10.6227 17.8099 10.24C17.6045 9.85733 17.3269 9.55167 16.9769 9.323C16.6269 9.09433 16.2349 8.98 15.8009 8.98C15.3622 8.98 14.9679 9.09667 14.6179 9.33C14.2679 9.55867 13.9902 9.86433 13.7849 10.247C13.5795 10.6297 13.4769 11.0473 13.4769 11.5C13.4769 11.9667 13.5819 12.3913 13.7919 12.774C14.0019 13.152 14.2842 13.453 14.6389 13.677C14.9935 13.8963 15.3809 14.006 15.8009 14.006ZM21.6351 18.5H20.4591V8H21.6351V9.197C21.8731 8.78633 22.1905 8.455 22.5871 8.203C22.9838 7.94633 23.4551 7.818 24.0011 7.818C24.5098 7.818 24.9858 7.91367 25.4291 8.105C25.8771 8.29633 26.2691 8.56233 26.6051 8.903C26.9411 9.239 27.2048 9.62867 27.3961 10.072C27.5875 10.5153 27.6831 10.9913 27.6831 11.5C27.6831 12.0087 27.5875 12.487 27.3961 12.935C27.2048 13.383 26.9411 13.7773 26.6051 14.118C26.2691 14.454 25.8771 14.7177 25.4291 14.909C24.9858 15.1003 24.5098 15.196 24.0011 15.196C23.4551 15.196 22.9838 15.07 22.5871 14.818C22.1905 14.5613 21.8731 14.2277 21.6351 13.817V18.5ZM23.9871 8.959C23.5345 8.959 23.1378 9.07333 22.7971 9.302C22.4565 9.53067 22.1928 9.83633 22.0061 10.219C21.8241 10.6017 21.7331 11.0287 21.7331 11.5C21.7331 11.9667 21.8241 12.3937 22.0061 12.781C22.1928 13.1683 22.4541 13.4763 22.7901 13.705C23.1308 13.9337 23.5298 14.048 23.9871 14.048C24.4398 14.048 24.8551 13.936 25.2331 13.712C25.6111 13.4833 25.9145 13.1777 26.1431 12.795C26.3718 12.4077 26.4861 11.976 26.4861 11.5C26.4861 11.0333 26.3741 10.6087 26.1501 10.226C25.9261 9.83867 25.6251 9.53067 25.2471 9.302C24.8691 9.07333 24.4491 8.959 23.9871 8.959ZM31.8927 15.182C31.2487 15.182 30.6607 15.0163 30.1287 14.685C29.6013 14.3537 29.179 13.9103 28.8617 13.355C28.549 12.795 28.3927 12.1767 28.3927 11.5C28.3927 10.9867 28.4837 10.5083 28.6657 10.065C28.8477 9.617 29.0973 9.225 29.4147 8.889C29.7367 8.54833 30.11 8.28233 30.5347 8.091C30.9593 7.89967 31.412 7.804 31.8927 7.804C32.42 7.804 32.903 7.91133 33.3417 8.126C33.785 8.336 34.163 8.63 34.4757 9.008C34.793 9.386 35.0287 9.82467 35.1827 10.324C35.3413 10.8233 35.3997 11.3577 35.3577 11.927H29.6457C29.7017 12.3237 29.8323 12.6783 30.0377 12.991C30.243 13.299 30.5043 13.544 30.8217 13.726C31.1437 13.908 31.5007 14.0013 31.8927 14.006C32.3127 14.006 32.693 13.8987 33.0337 13.684C33.3743 13.4647 33.6497 13.166 33.8597 12.788L35.0567 13.068C34.7767 13.6887 34.3543 14.1973 33.7897 14.594C33.225 14.986 32.5927 15.182 31.8927 15.182ZM29.6107 11.003H34.1747C34.1373 10.611 34.0113 10.254 33.7967 9.932C33.582 9.60533 33.309 9.344 32.9777 9.148C32.6463 8.952 32.2847 8.854 31.8927 8.854C31.5007 8.854 31.1413 8.94967 30.8147 9.141C30.488 9.33233 30.2173 9.59133 30.0027 9.918C29.7927 10.24 29.662 10.6017 29.6107 11.003ZM36.5373 15V8H37.7133V8.875C37.9606 8.54833 38.2733 8.28933 38.6513 8.098C39.0293 7.902 39.4399 7.804 39.8833 7.804C40.1539 7.804 40.4153 7.839 40.6673 7.909L40.1913 9.085C39.9999 9.02433 39.8133 8.994 39.6313 8.994C39.2813 8.994 38.9593 9.08033 38.6653 9.253C38.3759 9.421 38.1449 9.64967 37.9723 9.939C37.7996 10.2283 37.7133 10.5503 37.7133 10.905V15H36.5373ZM45.2765 9.176H43.6875L43.6805 15H42.5045L42.5115 9.176H41.3075V8H42.5115L42.5045 5.802H43.6805L43.6875 8H45.2765V9.176ZM51.1623 8H52.4083L48.5793 18.5H47.3333L48.6003 15L46.0873 8H47.3753L49.1883 13.383L51.1623 8ZM64.5811 5.2V6.376H61.3191V15H60.1431V6.376H56.8881V5.2H64.5811ZM70.5207 8H71.6967V15H70.5207L70.4717 13.817C70.2524 14.223 69.9491 14.552 69.5617 14.804C69.1791 15.056 68.7217 15.182 68.1897 15.182C67.6764 15.182 67.1957 15.0863 66.7477 14.895C66.2997 14.699 65.9031 14.4307 65.5577 14.09C65.2171 13.7447 64.9511 13.348 64.7597 12.9C64.5684 12.452 64.4727 11.969 64.4727 11.451C64.4727 10.9517 64.5661 10.4803 64.7527 10.037C64.9394 9.59367 65.1984 9.20633 65.5297 8.875C65.8657 8.539 66.2531 8.27767 66.6917 8.091C67.1304 7.89967 67.6017 7.804 68.1057 7.804C68.6564 7.804 69.1394 7.93467 69.5547 8.196C69.9701 8.45267 70.3061 8.78633 70.5627 9.197L70.5207 8ZM68.1687 14.041C68.6307 14.041 69.0297 13.929 69.3657 13.705C69.7064 13.4763 69.9677 13.1683 70.1497 12.781C70.3364 12.3937 70.4297 11.9667 70.4297 11.5C70.4297 11.024 70.3364 10.5947 70.1497 10.212C69.9631 9.82467 69.6994 9.519 69.3587 9.295C69.0227 9.06633 68.6261 8.952 68.1687 8.952C67.7067 8.952 67.2867 9.06633 66.9087 9.295C66.5307 9.52367 66.2297 9.83167 66.0057 10.219C65.7864 10.6017 65.6767 11.0287 65.6767 11.5C65.6767 11.9713 65.7911 12.4007 66.0197 12.788C66.2484 13.1707 66.5517 13.4763 66.9297 13.705C67.3077 13.929 67.7207 14.041 68.1687 14.041ZM72.7202 15L75.2822 11.486L72.7342 7.986H74.1832L76.0102 10.478L77.8302 7.986H79.2792L76.7312 11.486L79.2932 15H77.8442L76.0102 12.48L74.1692 15H72.7202ZM83.2169 15.182C82.5729 15.182 81.9849 15.0163 81.4529 14.685C80.9255 14.3537 80.5032 13.9103 80.1859 13.355C79.8732 12.795 79.7169 12.1767 79.7169 11.5C79.7169 10.9867 79.8079 10.5083 79.9899 10.065C80.1719 9.617 80.4215 9.225 80.7389 8.889C81.0609 8.54833 81.4342 8.28233 81.8589 8.091C82.2835 7.89967 82.7362 7.804 83.2169 7.804C83.7442 7.804 84.2272 7.91133 84.6659 8.126C85.1092 8.336 85.4872 8.63 85.7999 9.008C86.1172 9.386 86.3529 9.82467 86.5069 10.324C86.6655 10.8233 86.7239 11.3577 86.6819 11.927H80.9699C81.0259 12.3237 81.1565 12.6783 81.3619 12.991C81.5672 13.299 81.8285 13.544 82.1459 13.726C82.4679 13.908 82.8249 14.0013 83.2169 14.006C83.6369 14.006 84.0172 13.8987 84.3579 13.684C84.6985 13.4647 84.9739 13.166 85.1839 12.788L86.3809 13.068C86.1009 13.6887 85.6785 14.1973 85.1139 14.594C84.5492 14.986 83.9169 15.182 83.2169 15.182ZM80.9349 11.003H85.4989C85.4615 10.611 85.3355 10.254 85.1209 9.932C84.9062 9.60533 84.6332 9.344 84.3019 9.148C83.9705 8.952 83.6089 8.854 83.2169 8.854C82.8249 8.854 82.4655 8.94967 82.1389 9.141C81.8122 9.33233 81.5415 9.59133 81.3269 9.918C81.1169 10.24 80.9862 10.6017 80.9349 11.003ZM90.0238 15.133C89.6458 15.119 89.2772 15.049 88.9178 14.923C88.5632 14.7923 88.2505 14.6173 87.9798 14.398C87.7138 14.174 87.5202 13.9173 87.3988 13.628L88.4068 13.194C88.4768 13.3527 88.6028 13.502 88.7848 13.642C88.9668 13.782 89.1768 13.894 89.4148 13.978C89.6528 14.062 89.8932 14.104 90.1358 14.104C90.3925 14.104 90.6328 14.0643 90.8568 13.985C91.0808 13.9057 91.2628 13.789 91.4028 13.635C91.5475 13.4763 91.6198 13.2873 91.6198 13.068C91.6198 12.8347 91.5405 12.6527 91.3818 12.522C91.2278 12.3867 91.0318 12.2817 90.7938 12.207C90.5605 12.1277 90.3225 12.053 90.0798 11.983C89.5992 11.8617 89.1698 11.717 88.7918 11.549C88.4138 11.3763 88.1152 11.1593 87.8958 10.898C87.6812 10.632 87.5738 10.2937 87.5738 9.883C87.5738 9.449 87.6928 9.07333 87.9308 8.756C88.1735 8.43867 88.4908 8.19367 88.8828 8.021C89.2748 7.84833 89.6948 7.762 90.1428 7.762C90.7075 7.762 91.2232 7.88333 91.6898 8.126C92.1565 8.36867 92.5042 8.69767 92.7328 9.113L91.7878 9.666C91.7085 9.498 91.5872 9.351 91.4238 9.225C91.2605 9.09433 91.0738 8.99167 90.8638 8.917C90.6538 8.84233 90.4392 8.80267 90.2198 8.798C89.9492 8.78867 89.6948 8.82367 89.4568 8.903C89.2235 8.98233 89.0345 9.10367 88.8898 9.267C88.7498 9.42567 88.6798 9.624 88.6798 9.862C88.6798 10.0953 88.7545 10.2727 88.9038 10.394C89.0578 10.5153 89.2562 10.6133 89.4988 10.688C89.7462 10.758 90.0145 10.8397 90.3038 10.933C90.7285 11.0683 91.1252 11.2247 91.4938 11.402C91.8625 11.5793 92.1588 11.801 92.3828 12.067C92.6115 12.333 92.7235 12.662 92.7188 13.054C92.7188 13.4833 92.5905 13.859 92.3338 14.181C92.0772 14.4983 91.7435 14.741 91.3328 14.909C90.9268 15.077 90.4905 15.1517 90.0238 15.133Z" fill="#999999"></path><path d="M5.99 44.36C5.45667 44.3533 4.95667 44.44 4.49 44.62C4.03 44.7933 3.65333 45.0333 3.36 45.34C3.06667 45.6467 2.92 46.0033 2.92 46.41C2.92 46.91 3.05667 47.29 3.33 47.55C3.60333 47.81 3.97 48.0033 4.43 48.13C4.89667 48.25 5.41667 48.36 5.99 48.46C6.91 48.6067 7.76 48.85 8.54 49.19C9.32667 49.53 9.95667 49.9833 10.43 50.55C10.91 51.11 11.15 51.8 11.15 52.62C11.15 53.3733 10.95 54.0433 10.55 54.63C10.15 55.21 9.61333 55.68 8.94 56.04C8.27333 56.3933 7.53667 56.6167 6.73 56.71V58.74H5.26V56.71C4.58667 56.6433 3.94667 56.4833 3.34 56.23C2.74 55.9767 2.21667 55.64 1.77 55.22C1.32333 54.8 1 54.3133 0.8 53.76L2.75 53.03C2.86333 53.35 3.08 53.6367 3.4 53.89C3.72667 54.1367 4.11333 54.33 4.56 54.47C5.01333 54.61 5.49 54.68 5.99 54.68C6.52333 54.68 7.02333 54.5933 7.49 54.42C7.96333 54.2467 8.34333 54.0067 8.63 53.7C8.92333 53.3933 9.07 53.0333 9.07 52.62C9.07 52.1933 8.91667 51.8433 8.61 51.57C8.31 51.2967 7.92333 51.08 7.45 50.92C6.98333 50.76 6.49667 50.64 5.99 50.56C5.01 50.4 4.13 50.1667 3.35 49.86C2.57667 49.5533 1.96333 49.1233 1.51 48.57C1.06333 48.0167 0.84 47.2967 0.84 46.41C0.84 45.6567 1.04 44.9867 1.44 44.4C1.84 43.8133 2.37333 43.3433 3.04 42.99C3.71333 42.63 4.45333 42.4067 5.26 42.32V40.26H6.73V42.32C7.38333 42.3867 8.01 42.5467 8.61 42.8C9.21667 43.0533 9.74667 43.39 10.2 43.81C10.6533 44.2233 10.9833 44.7167 11.19 45.29L9.22 46C9.10667 45.6733 8.89 45.39 8.57 45.15C8.25 44.9033 7.86333 44.71 7.41 44.57C6.96333 44.43 6.49 44.36 5.99 44.36ZM14.4622 56.5V44.58H12.7922L13.3622 42.5H16.5422V56.5H14.4622ZM18.9445 57.62L19.5645 54.24H21.6445L20.3245 57.62H18.9445ZM23.6516 56.5V54.65C24.1249 54.2567 24.6682 53.8 25.2816 53.28C25.8949 52.7533 26.5182 52.1967 27.1516 51.61C27.7849 51.0167 28.3682 50.4267 28.9016 49.84C29.4349 49.2467 29.8649 48.6867 30.1916 48.16C30.5249 47.6267 30.6916 47.1633 30.6916 46.77C30.6916 46.3233 30.5816 45.9167 30.3616 45.55C30.1482 45.1767 29.8582 44.88 29.4916 44.66C29.1249 44.4333 28.7182 44.32 28.2716 44.32C27.8249 44.32 27.4149 44.4333 27.0416 44.66C26.6749 44.88 26.3782 45.1767 26.1516 45.55C25.9316 45.9167 25.8216 46.3233 25.8216 46.77H23.7416C23.7416 45.9233 23.9482 45.16 24.3616 44.48C24.7816 43.7933 25.3316 43.25 26.0116 42.85C26.6982 42.4433 27.4516 42.24 28.2716 42.24C29.0982 42.24 29.8516 42.4433 30.5316 42.85C31.2116 43.2567 31.7549 43.8033 32.1616 44.49C32.5682 45.17 32.7716 45.93 32.7716 46.77C32.7716 47.2367 32.6749 47.7167 32.4816 48.21C32.2882 48.7033 32.0182 49.2067 31.6716 49.72C31.3316 50.2333 30.9349 50.7533 30.4816 51.28C30.0282 51.8067 29.5416 52.3333 29.0216 52.86C28.5016 53.3867 27.9716 53.9067 27.4316 54.42H32.8916V56.5H23.6516ZM39.512 56.76C38.6254 56.76 37.822 56.5467 37.102 56.12C36.3887 55.6867 35.822 55.1133 35.402 54.4C34.9887 53.68 34.782 52.8933 34.782 52.04H36.862C36.862 52.5267 36.982 52.97 37.222 53.37C37.462 53.77 37.782 54.09 38.182 54.33C38.582 54.5633 39.0254 54.68 39.512 54.68C39.992 54.68 40.432 54.5633 40.832 54.33C41.232 54.09 41.552 53.77 41.792 53.37C42.032 52.97 42.152 52.5267 42.152 52.04C42.152 51.5533 42.042 51.11 41.822 50.71C41.602 50.3033 41.272 49.98 40.832 49.74C40.392 49.4933 39.832 49.37 39.152 49.37H35.622L37.042 42.5H43.812V44.58H38.732L38.182 47.29L39.392 47.31C40.3454 47.33 41.182 47.55 41.902 47.97C42.6287 48.3833 43.1987 48.9433 43.612 49.65C44.0254 50.35 44.232 51.1467 44.232 52.04C44.232 52.6867 44.1087 53.2967 43.862 53.87C43.6154 54.4367 43.2754 54.9367 42.842 55.37C42.4154 55.8033 41.9154 56.1433 41.342 56.39C40.7754 56.6367 40.1654 56.76 39.512 56.76ZM50.8542 56.76C50.0276 56.76 49.2809 56.5733 48.6142 56.2C47.9542 55.82 47.3842 55.2967 46.9042 54.63C46.4242 53.9633 46.0576 53.1933 45.8042 52.32C45.5509 51.44 45.4242 50.5 45.4242 49.5C45.4242 48.5 45.5509 47.56 45.8042 46.68C46.0576 45.8 46.4242 45.03 46.9042 44.37C47.3842 43.7033 47.9542 43.1833 48.6142 42.81C49.2809 42.43 50.0276 42.24 50.8542 42.24C51.6676 42.24 52.4076 42.43 53.0742 42.81C53.7409 43.1833 54.3076 43.7033 54.7742 44.37C55.2476 45.03 55.6109 45.8 55.8642 46.68C56.1176 47.56 56.2442 48.5 56.2442 49.5C56.2442 50.5 56.1176 51.44 55.8642 52.32C55.6109 53.1933 55.2476 53.9633 54.7742 54.63C54.3076 55.2967 53.7409 55.82 53.0742 56.2C52.4076 56.5733 51.6676 56.76 50.8542 56.76ZM50.8542 54.68C51.6209 54.68 52.2576 54.44 52.7642 53.96C53.2776 53.4733 53.6609 52.8367 53.9142 52.05C54.1676 51.2633 54.2942 50.4133 54.2942 49.5C54.2942 48.54 54.1609 47.67 53.8942 46.89C53.6342 46.1033 53.2476 45.48 52.7342 45.02C52.2276 44.5533 51.6009 44.32 50.8542 44.32C50.2609 44.32 49.7442 44.46 49.3042 44.74C48.8709 45.02 48.5109 45.4033 48.2242 45.89C47.9442 46.3767 47.7309 46.93 47.5842 47.55C47.4442 48.17 47.3742 48.82 47.3742 49.5C47.3742 50.4133 47.5042 51.2633 47.7642 52.05C48.0242 52.8367 48.4109 53.4733 48.9242 53.96C49.4442 54.44 50.0876 54.68 50.8542 54.68Z" fill="white"></path><rect x="69.5" y="33.5" width="481" height="32" rx="16" fill="#1A1A1A"></rect><rect x="69.5" y="33.5" width="481" height="32" rx="16" stroke="#262626"></rect><path d="M85.123 44.2H86.544L90.107 54H88.861L88.133 51.998H83.534L82.813 54H81.56L85.123 44.2ZM83.968 50.822H87.699L85.83 45.705L83.968 50.822ZM92.4086 57.5H91.2326V47H92.4086V48.197C92.6466 47.7863 92.9639 47.455 93.3606 47.203C93.7572 46.9463 94.2286 46.818 94.7746 46.818C95.2832 46.818 95.7592 46.9137 96.2026 47.105C96.6506 47.2963 97.0426 47.5623 97.3786 47.903C97.7146 48.239 97.9782 48.6287 98.1696 49.072C98.3609 49.5153 98.4566 49.9913 98.4566 50.5C98.4566 51.0087 98.3609 51.487 98.1696 51.935C97.9782 52.383 97.7146 52.7773 97.3786 53.118C97.0426 53.454 96.6506 53.7177 96.2026 53.909C95.7592 54.1003 95.2832 54.196 94.7746 54.196C94.2286 54.196 93.7572 54.07 93.3606 53.818C92.9639 53.5613 92.6466 53.2277 92.4086 52.817V57.5ZM94.7606 47.959C94.3079 47.959 93.9112 48.0733 93.5706 48.302C93.2299 48.5307 92.9662 48.8363 92.7796 49.219C92.5976 49.6017 92.5066 50.0287 92.5066 50.5C92.5066 50.9667 92.5976 51.3937 92.7796 51.781C92.9662 52.1683 93.2276 52.4763 93.5636 52.705C93.9042 52.9337 94.3032 53.048 94.7606 53.048C95.2132 53.048 95.6286 52.936 96.0066 52.712C96.3846 52.4833 96.6879 52.1777 96.9166 51.795C97.1452 51.4077 97.2596 50.976 97.2596 50.5C97.2596 50.0333 97.1476 49.6087 96.9236 49.226C96.6996 48.8387 96.3986 48.5307 96.0206 48.302C95.6426 48.0733 95.2226 47.959 94.7606 47.959ZM100.803 57.5H99.6271V47H100.803V48.197C101.041 47.7863 101.358 47.455 101.755 47.203C102.152 46.9463 102.623 46.818 103.169 46.818C103.678 46.818 104.154 46.9137 104.597 47.105C105.045 47.2963 105.437 47.5623 105.773 47.903C106.109 48.239 106.373 48.6287 106.564 49.072C106.755 49.5153 106.851 49.9913 106.851 50.5C106.851 51.0087 106.755 51.487 106.564 51.935C106.373 52.383 106.109 52.7773 105.773 53.118C105.437 53.454 105.045 53.7177 104.597 53.909C104.154 54.1003 103.678 54.196 103.169 54.196C102.623 54.196 102.152 54.07 101.755 53.818C101.358 53.5613 101.041 53.2277 100.803 52.817V57.5ZM103.155 47.959C102.702 47.959 102.306 48.0733 101.965 48.302C101.624 48.5307 101.361 48.8363 101.174 49.219C100.992 49.6017 100.901 50.0287 100.901 50.5C100.901 50.9667 100.992 51.3937 101.174 51.781C101.361 52.1683 101.622 52.4763 101.958 52.705C102.299 52.9337 102.698 53.048 103.155 53.048C103.608 53.048 104.023 52.936 104.401 52.712C104.779 52.4833 105.082 52.1777 105.311 51.795C105.54 51.4077 105.654 50.976 105.654 50.5C105.654 50.0333 105.542 49.6087 105.318 49.226C105.094 48.8387 104.793 48.5307 104.415 48.302C104.037 48.0733 103.617 47.959 103.155 47.959ZM108.022 54V47H109.198V47.875C109.445 47.5483 109.758 47.2893 110.136 47.098C110.514 46.902 110.924 46.804 111.368 46.804C111.638 46.804 111.9 46.839 112.152 46.909L111.676 48.085C111.484 48.0243 111.298 47.994 111.116 47.994C110.766 47.994 110.444 48.0803 110.15 48.253C109.86 48.421 109.629 48.6497 109.457 48.939C109.284 49.2283 109.198 49.5503 109.198 49.905V54H108.022ZM115.736 54.182C115.092 54.182 114.504 54.0163 113.972 53.685C113.445 53.3537 113.023 52.9103 112.705 52.355C112.393 51.795 112.236 51.1767 112.236 50.5C112.236 49.9867 112.327 49.5083 112.509 49.065C112.691 48.617 112.941 48.225 113.258 47.889C113.58 47.5483 113.954 47.2823 114.378 47.091C114.803 46.8997 115.256 46.804 115.736 46.804C116.38 46.804 116.966 46.9697 117.493 47.301C118.025 47.6323 118.448 48.078 118.76 48.638C119.078 49.198 119.236 49.8187 119.236 50.5C119.236 51.0087 119.145 51.4847 118.963 51.928C118.781 52.3713 118.529 52.7633 118.207 53.104C117.89 53.44 117.519 53.7037 117.094 53.895C116.674 54.0863 116.222 54.182 115.736 54.182ZM115.736 53.006C116.175 53.006 116.569 52.8917 116.919 52.663C117.274 52.4297 117.552 52.124 117.752 51.746C117.958 51.3633 118.06 50.948 118.06 50.5C118.06 50.0427 117.955 49.6227 117.745 49.24C117.54 48.8573 117.262 48.5517 116.912 48.323C116.562 48.0943 116.17 47.98 115.736 47.98C115.298 47.98 114.903 48.0967 114.553 48.33C114.203 48.5587 113.926 48.8643 113.72 49.247C113.515 49.6297 113.412 50.0473 113.412 50.5C113.412 50.9667 113.517 51.3913 113.727 51.774C113.937 52.152 114.22 52.453 114.574 52.677C114.929 52.8963 115.316 53.006 115.736 53.006ZM119.595 54L122.157 50.486L119.609 46.986H121.058L122.885 49.478L124.705 46.986H126.154L123.606 50.486L126.168 54H124.719L122.885 51.48L121.044 54H119.595ZM127.381 47H128.557V54H127.381V47ZM127.983 45.859C127.796 45.859 127.64 45.7983 127.514 45.677C127.388 45.5557 127.325 45.404 127.325 45.222C127.325 45.04 127.388 44.8883 127.514 44.767C127.64 44.6457 127.794 44.585 127.976 44.585C128.158 44.585 128.312 44.6457 128.438 44.767C128.564 44.8883 128.627 45.04 128.627 45.222C128.627 45.404 128.564 45.5557 128.438 45.677C128.317 45.7983 128.165 45.859 127.983 45.859ZM130.211 54V47H131.387V47.875C131.634 47.5483 131.945 47.2893 132.318 47.098C132.696 46.902 133.107 46.804 133.55 46.804C134.068 46.804 134.542 46.93 134.971 47.182C135.4 47.434 135.739 47.7677 135.986 48.183C136.233 47.7677 136.569 47.434 136.994 47.182C137.423 46.93 137.895 46.804 138.408 46.804C138.935 46.804 139.414 46.9323 139.843 47.189C140.272 47.441 140.613 47.7817 140.865 48.211C141.122 48.6403 141.25 49.1187 141.25 49.646V54H140.074V49.926C140.074 49.5807 139.99 49.261 139.822 48.967C139.654 48.673 139.428 48.4373 139.143 48.26C138.858 48.0827 138.543 47.994 138.198 47.994C137.853 47.994 137.538 48.078 137.253 48.246C136.968 48.4093 136.742 48.638 136.574 48.932C136.406 49.2213 136.322 49.5527 136.322 49.926V54H135.146V49.926C135.146 49.5527 135.062 49.2213 134.894 48.932C134.726 48.638 134.497 48.4093 134.208 48.246C133.923 48.078 133.608 47.994 133.263 47.994C132.922 47.994 132.607 48.0827 132.318 48.26C132.033 48.4373 131.807 48.673 131.639 48.967C131.471 49.261 131.387 49.5807 131.387 49.926V54H130.211ZM148.144 47H149.32V54H148.144L148.095 52.817C147.875 53.223 147.572 53.552 147.185 53.804C146.802 54.056 146.345 54.182 145.813 54.182C145.299 54.182 144.819 54.0863 144.371 53.895C143.923 53.699 143.526 53.4307 143.181 53.09C142.84 52.7447 142.574 52.348 142.383 51.9C142.191 51.452 142.096 50.969 142.096 50.451C142.096 49.9517 142.189 49.4803 142.376 49.037C142.562 48.5937 142.821 48.2063 143.153 47.875C143.489 47.539 143.876 47.2777 144.315 47.091C144.753 46.8997 145.225 46.804 145.729 46.804C146.279 46.804 146.762 46.9347 147.178 47.196C147.593 47.4527 147.929 47.7863 148.186 48.197L148.144 47ZM145.792 53.041C146.254 53.041 146.653 52.929 146.989 52.705C147.329 52.4763 147.591 52.1683 147.773 51.781C147.959 51.3937 148.053 50.9667 148.053 50.5C148.053 50.024 147.959 49.5947 147.773 49.212C147.586 48.8247 147.322 48.519 146.982 48.295C146.646 48.0663 146.249 47.952 145.792 47.952C145.33 47.952 144.91 48.0663 144.532 48.295C144.154 48.5237 143.853 48.8317 143.629 49.219C143.409 49.6017 143.3 50.0287 143.3 50.5C143.3 50.9713 143.414 51.4007 143.643 51.788C143.871 52.1707 144.175 52.4763 144.553 52.705C144.931 52.929 145.344 53.041 145.792 53.041ZM154.345 48.176H152.756L152.749 54H151.573L151.58 48.176H150.376V47H151.58L151.573 44.802H152.749L152.756 47H154.345V48.176ZM158.502 54.182C157.858 54.182 157.27 54.0163 156.738 53.685C156.211 53.3537 155.788 52.9103 155.471 52.355C155.158 51.795 155.002 51.1767 155.002 50.5C155.002 49.9867 155.093 49.5083 155.275 49.065C155.457 48.617 155.707 48.225 156.024 47.889C156.346 47.5483 156.719 47.2823 157.144 47.091C157.569 46.8997 158.021 46.804 158.502 46.804C159.029 46.804 159.512 46.9113 159.951 47.126C160.394 47.336 160.772 47.63 161.085 48.008C161.402 48.386 161.638 48.8247 161.792 49.324C161.951 49.8233 162.009 50.3577 161.967 50.927H156.255C156.311 51.3237 156.442 51.6783 156.647 51.991C156.852 52.299 157.114 52.544 157.431 52.726C157.753 52.908 158.11 53.0013 158.502 53.006C158.922 53.006 159.302 52.8987 159.643 52.684C159.984 52.4647 160.259 52.166 160.469 51.788L161.666 52.068C161.386 52.6887 160.964 53.1973 160.399 53.594C159.834 53.986 159.202 54.182 158.502 54.182ZM156.22 50.003H160.784C160.747 49.611 160.621 49.254 160.406 48.932C160.191 48.6053 159.918 48.344 159.587 48.148C159.256 47.952 158.894 47.854 158.502 47.854C158.11 47.854 157.751 47.9497 157.424 48.141C157.097 48.3323 156.827 48.5913 156.612 48.918C156.402 49.24 156.271 49.6017 156.22 50.003ZM166.606 54V47H167.782V47.875C168.029 47.5483 168.339 47.2893 168.713 47.098C169.091 46.902 169.501 46.804 169.945 46.804C170.463 46.804 170.936 46.93 171.366 47.182C171.795 47.434 172.133 47.7677 172.381 48.183C172.628 47.7677 172.964 47.434 173.389 47.182C173.818 46.93 174.289 46.804 174.803 46.804C175.33 46.804 175.808 46.9323 176.238 47.189C176.667 47.441 177.008 47.7817 177.26 48.211C177.516 48.6403 177.645 49.1187 177.645 49.646V54H176.469V49.926C176.469 49.5807 176.385 49.261 176.217 48.967C176.049 48.673 175.822 48.4373 175.538 48.26C175.253 48.0827 174.938 47.994 174.593 47.994C174.247 47.994 173.932 48.078 173.648 48.246C173.363 48.4093 173.137 48.638 172.969 48.932C172.801 49.2213 172.717 49.5527 172.717 49.926V54H171.541V49.926C171.541 49.5527 171.457 49.2213 171.289 48.932C171.121 48.638 170.892 48.4093 170.603 48.246C170.318 48.078 170.003 47.994 169.658 47.994C169.317 47.994 169.002 48.0827 168.713 48.26C168.428 48.4373 168.202 48.673 168.034 48.967C167.866 49.261 167.782 49.5807 167.782 49.926V54H166.606ZM181.99 54.182C181.346 54.182 180.758 54.0163 180.226 53.685C179.699 53.3537 179.277 52.9103 178.959 52.355C178.647 51.795 178.49 51.1767 178.49 50.5C178.49 49.9867 178.581 49.5083 178.763 49.065C178.945 48.617 179.195 48.225 179.512 47.889C179.834 47.5483 180.208 47.2823 180.632 47.091C181.057 46.8997 181.51 46.804 181.99 46.804C182.634 46.804 183.22 46.9697 183.747 47.301C184.279 47.6323 184.702 48.078 185.014 48.638C185.332 49.198 185.49 49.8187 185.49 50.5C185.49 51.0087 185.399 51.4847 185.217 51.928C185.035 52.3713 184.783 52.7633 184.461 53.104C184.144 53.44 183.773 53.7037 183.348 53.895C182.928 54.0863 182.476 54.182 181.99 54.182ZM181.99 53.006C182.429 53.006 182.823 52.8917 183.173 52.663C183.528 52.4297 183.806 52.124 184.006 51.746C184.212 51.3633 184.314 50.948 184.314 50.5C184.314 50.0427 184.209 49.6227 183.999 49.24C183.794 48.8573 183.516 48.5517 183.166 48.323C182.816 48.0943 182.424 47.98 181.99 47.98C181.552 47.98 181.157 48.0967 180.807 48.33C180.457 48.5587 180.18 48.8643 179.974 49.247C179.769 49.6297 179.666 50.0473 179.666 50.5C179.666 50.9667 179.771 51.3913 179.981 51.774C180.191 52.152 180.474 52.453 180.828 52.677C181.183 52.8963 181.57 53.006 181.99 53.006ZM192.837 49.646V54H191.661V49.905C191.661 49.5503 191.574 49.2283 191.402 48.939C191.229 48.6497 190.998 48.421 190.709 48.253C190.419 48.0803 190.097 47.994 189.743 47.994C189.393 47.994 189.071 48.0803 188.777 48.253C188.487 48.421 188.256 48.6497 188.084 48.939C187.911 49.2283 187.825 49.5503 187.825 49.905V54H186.649V47H187.825V47.875C188.072 47.5483 188.385 47.2893 188.763 47.098C189.141 46.902 189.551 46.804 189.995 46.804C190.517 46.804 190.993 46.9323 191.423 47.189C191.857 47.441 192.2 47.7817 192.452 48.211C192.708 48.6403 192.837 49.1187 192.837 49.646ZM197.862 48.176H196.273L196.266 54H195.09L195.097 48.176H193.893V47H195.097L195.09 44.802H196.266L196.273 47H197.862V48.176ZM205.305 49.646V54H204.129V49.905C204.129 49.5503 204.043 49.2283 203.87 48.939C203.698 48.6497 203.467 48.421 203.177 48.253C202.888 48.0803 202.566 47.994 202.211 47.994C201.861 47.994 201.539 48.0803 201.245 48.253C200.956 48.421 200.725 48.6497 200.552 48.939C200.38 49.2283 200.293 49.5503 200.293 49.905V54H199.117V43.5H200.293V47.875C200.541 47.5483 200.853 47.2893 201.231 47.098C201.609 46.902 202.02 46.804 202.463 46.804C202.986 46.804 203.462 46.9323 203.891 47.189C204.325 47.441 204.668 47.7817 204.92 48.211C205.177 48.6403 205.305 49.1187 205.305 49.646ZM206.787 54V43.5H207.963V54H206.787ZM214.166 47H215.412L211.583 57.5H210.337L211.604 54L209.091 47H210.379L212.192 52.383L214.166 47ZM221.348 57.5H220.172V47H221.348V48.197C221.586 47.7863 221.903 47.455 222.3 47.203C222.697 46.9463 223.168 46.818 223.714 46.818C224.223 46.818 224.699 46.9137 225.142 47.105C225.59 47.2963 225.982 47.5623 226.318 47.903C226.654 48.239 226.918 48.6287 227.109 49.072C227.3 49.5153 227.396 49.9913 227.396 50.5C227.396 51.0087 227.3 51.487 227.109 51.935C226.918 52.383 226.654 52.7773 226.318 53.118C225.982 53.454 225.59 53.7177 225.142 53.909C224.699 54.1003 224.223 54.196 223.714 54.196C223.168 54.196 222.697 54.07 222.3 53.818C221.903 53.5613 221.586 53.2277 221.348 52.817V57.5ZM223.7 47.959C223.247 47.959 222.851 48.0733 222.51 48.302C222.169 48.5307 221.906 48.8363 221.719 49.219C221.537 49.6017 221.446 50.0287 221.446 50.5C221.446 50.9667 221.537 51.3937 221.719 51.781C221.906 52.1683 222.167 52.4763 222.503 52.705C222.844 52.9337 223.243 53.048 223.7 53.048C224.153 53.048 224.568 52.936 224.946 52.712C225.324 52.4833 225.627 52.1777 225.856 51.795C226.085 51.4077 226.199 50.976 226.199 50.5C226.199 50.0333 226.087 49.6087 225.863 49.226C225.639 48.8387 225.338 48.5307 224.96 48.302C224.582 48.0733 224.162 47.959 223.7 47.959ZM228.567 54V47H229.743V47.875C229.99 47.5483 230.303 47.2893 230.681 47.098C231.059 46.902 231.469 46.804 231.913 46.804C232.183 46.804 232.445 46.839 232.697 46.909L232.221 48.085C232.029 48.0243 231.843 47.994 231.661 47.994C231.311 47.994 230.989 48.0803 230.695 48.253C230.405 48.421 230.174 48.6497 230.002 48.939C229.829 49.2283 229.743 49.5503 229.743 49.905V54H228.567ZM236.281 54.182C235.637 54.182 235.049 54.0163 234.517 53.685C233.99 53.3537 233.568 52.9103 233.25 52.355C232.938 51.795 232.781 51.1767 232.781 50.5C232.781 49.9867 232.872 49.5083 233.054 49.065C233.236 48.617 233.486 48.225 233.803 47.889C234.125 47.5483 234.499 47.2823 234.923 47.091C235.348 46.8997 235.801 46.804 236.281 46.804C236.925 46.804 237.511 46.9697 238.038 47.301C238.57 47.6323 238.993 48.078 239.305 48.638C239.623 49.198 239.781 49.8187 239.781 50.5C239.781 51.0087 239.69 51.4847 239.508 51.928C239.326 52.3713 239.074 52.7633 238.752 53.104C238.435 53.44 238.064 53.7037 237.639 53.895C237.219 54.0863 236.767 54.182 236.281 54.182ZM236.281 53.006C236.72 53.006 237.114 52.8917 237.464 52.663C237.819 52.4297 238.097 52.124 238.297 51.746C238.503 51.3633 238.605 50.948 238.605 50.5C238.605 50.0427 238.5 49.6227 238.29 49.24C238.085 48.8573 237.807 48.5517 237.457 48.323C237.107 48.0943 236.715 47.98 236.281 47.98C235.843 47.98 235.448 48.0967 235.098 48.33C234.748 48.5587 234.471 48.8643 234.265 49.247C234.06 49.6297 233.957 50.0473 233.957 50.5C233.957 50.9667 234.062 51.3913 234.272 51.774C234.482 52.152 234.765 52.453 235.119 52.677C235.474 52.8963 235.861 53.006 236.281 53.006ZM242.116 57.5H240.94V47H242.116V48.197C242.354 47.7863 242.671 47.455 243.068 47.203C243.464 46.9463 243.936 46.818 244.482 46.818C244.99 46.818 245.466 46.9137 245.91 47.105C246.358 47.2963 246.75 47.5623 247.086 47.903C247.422 48.239 247.685 48.6287 247.877 49.072C248.068 49.5153 248.164 49.9913 248.164 50.5C248.164 51.0087 248.068 51.487 247.877 51.935C247.685 52.383 247.422 52.7773 247.086 53.118C246.75 53.454 246.358 53.7177 245.91 53.909C245.466 54.1003 244.99 54.196 244.482 54.196C243.936 54.196 243.464 54.07 243.068 53.818C242.671 53.5613 242.354 53.2277 242.116 52.817V57.5ZM244.468 47.959C244.015 47.959 243.618 48.0733 243.278 48.302C242.937 48.5307 242.673 48.8363 242.487 49.219C242.305 49.6017 242.214 50.0287 242.214 50.5C242.214 50.9667 242.305 51.3937 242.487 51.781C242.673 52.1683 242.935 52.4763 243.271 52.705C243.611 52.9337 244.01 53.048 244.468 53.048C244.92 53.048 245.336 52.936 245.714 52.712C246.092 52.4833 246.395 52.1777 246.624 51.795C246.852 51.4077 246.967 50.976 246.967 50.5C246.967 50.0333 246.855 49.6087 246.631 49.226C246.407 48.8387 246.106 48.5307 245.728 48.302C245.35 48.0733 244.93 47.959 244.468 47.959ZM252.373 54.182C251.729 54.182 251.141 54.0163 250.609 53.685C250.082 53.3537 249.659 52.9103 249.342 52.355C249.029 51.795 248.873 51.1767 248.873 50.5C248.873 49.9867 248.964 49.5083 249.146 49.065C249.328 48.617 249.578 48.225 249.895 47.889C250.217 47.5483 250.59 47.2823 251.015 47.091C251.44 46.8997 251.892 46.804 252.373 46.804C252.9 46.804 253.383 46.9113 253.822 47.126C254.265 47.336 254.643 47.63 254.956 48.008C255.273 48.386 255.509 48.8247 255.663 49.324C255.822 49.8233 255.88 50.3577 255.838 50.927H250.126C250.182 51.3237 250.313 51.6783 250.518 51.991C250.723 52.299 250.985 52.544 251.302 52.726C251.624 52.908 251.981 53.0013 252.373 53.006C252.793 53.006 253.173 52.8987 253.514 52.684C253.855 52.4647 254.13 52.166 254.34 51.788L255.537 52.068C255.257 52.6887 254.835 53.1973 254.27 53.594C253.705 53.986 253.073 54.182 252.373 54.182ZM250.091 50.003H254.655C254.618 49.611 254.492 49.254 254.277 48.932C254.062 48.6053 253.789 48.344 253.458 48.148C253.127 47.952 252.765 47.854 252.373 47.854C251.981 47.854 251.622 47.9497 251.295 48.141C250.968 48.3323 250.698 48.5913 250.483 48.918C250.273 49.24 250.142 49.6017 250.091 50.003ZM257.018 54V47H258.194V47.875C258.441 47.5483 258.754 47.2893 259.132 47.098C259.51 46.902 259.92 46.804 260.364 46.804C260.634 46.804 260.896 46.839 261.148 46.909L260.672 48.085C260.48 48.0243 260.294 47.994 260.112 47.994C259.762 47.994 259.44 48.0803 259.146 48.253C258.856 48.421 258.625 48.6497 258.453 48.939C258.28 49.2283 258.194 49.5503 258.194 49.905V54H257.018ZM265.757 48.176H264.168L264.161 54H262.985L262.992 48.176H261.788V47H262.992L262.985 44.802H264.161L264.168 47H265.757V48.176ZM271.643 47H272.889L269.06 57.5H267.814L269.081 54L266.568 47H267.856L269.669 52.383L271.643 47ZM281.275 48.176H279.686L279.679 54H278.503L278.51 48.176H277.306V47H278.51L278.503 44.802H279.679L279.686 47H281.275V48.176ZM287.98 47H289.156V54H287.98L287.931 52.817C287.711 53.223 287.408 53.552 287.021 53.804C286.638 54.056 286.181 54.182 285.649 54.182C285.135 54.182 284.655 54.0863 284.207 53.895C283.759 53.699 283.362 53.4307 283.017 53.09C282.676 52.7447 282.41 52.348 282.219 51.9C282.027 51.452 281.932 50.969 281.932 50.451C281.932 49.9517 282.025 49.4803 282.212 49.037C282.398 48.5937 282.657 48.2063 282.989 47.875C283.325 47.539 283.712 47.2777 284.151 47.091C284.589 46.8997 285.061 46.804 285.565 46.804C286.115 46.804 286.598 46.9347 287.014 47.196C287.429 47.4527 287.765 47.7863 288.022 48.197L287.98 47ZM285.628 53.041C286.09 53.041 286.489 52.929 286.825 52.705C287.165 52.4763 287.427 52.1683 287.609 51.781C287.795 51.3937 287.889 50.9667 287.889 50.5C287.889 50.024 287.795 49.5947 287.609 49.212C287.422 48.8247 287.158 48.519 286.818 48.295C286.482 48.0663 286.085 47.952 285.628 47.952C285.166 47.952 284.746 48.0663 284.368 48.295C283.99 48.5237 283.689 48.8317 283.465 49.219C283.245 49.6017 283.136 50.0287 283.136 50.5C283.136 50.9713 283.25 51.4007 283.479 51.788C283.707 52.1707 284.011 52.4763 284.389 52.705C284.767 52.929 285.18 53.041 285.628 53.041ZM290.179 54L292.741 50.486L290.193 46.986H291.642L293.469 49.478L295.289 46.986H296.738L294.19 50.486L296.752 54H295.303L293.469 51.48L291.628 54H290.179ZM305.062 46.804C305.743 46.804 306.361 46.9697 306.917 47.301C307.477 47.6323 307.922 48.078 308.254 48.638C308.585 49.1933 308.751 49.8117 308.751 50.493C308.751 51.0017 308.655 51.48 308.464 51.928C308.272 52.3713 308.006 52.7633 307.666 53.104C307.33 53.44 306.938 53.7037 306.49 53.895C306.046 54.0863 305.57 54.182 305.062 54.182C304.52 54.182 304.049 54.056 303.648 53.804C303.251 53.5473 302.934 53.2137 302.696 52.803V54H301.52V43.5H302.696V48.183C302.934 47.7723 303.251 47.441 303.648 47.189C304.049 46.9323 304.52 46.804 305.062 46.804ZM305.048 53.034C305.51 53.034 305.93 52.9197 306.308 52.691C306.686 52.4623 306.987 52.1567 307.211 51.774C307.435 51.3867 307.547 50.9597 307.547 50.493C307.547 50.017 307.432 49.5877 307.204 49.205C306.975 48.8177 306.672 48.512 306.294 48.288C305.916 48.0593 305.5 47.945 305.048 47.945C304.59 47.945 304.191 48.0593 303.851 48.288C303.515 48.5167 303.253 48.8247 303.067 49.212C302.885 49.5993 302.794 50.0263 302.794 50.493C302.794 50.9643 302.885 51.3937 303.067 51.781C303.253 52.1637 303.517 52.4693 303.858 52.698C304.198 52.922 304.595 53.034 305.048 53.034ZM315.501 47H316.677V54H315.501L315.452 52.817C315.233 53.223 314.93 53.552 314.542 53.804C314.16 54.056 313.702 54.182 313.17 54.182C312.657 54.182 312.176 54.0863 311.728 53.895C311.28 53.699 310.884 53.4307 310.538 53.09C310.198 52.7447 309.932 52.348 309.74 51.9C309.549 51.452 309.453 50.969 309.453 50.451C309.453 49.9517 309.547 49.4803 309.733 49.037C309.92 48.5937 310.179 48.2063 310.51 47.875C310.846 47.539 311.234 47.2777 311.672 47.091C312.111 46.8997 312.582 46.804 313.086 46.804C313.637 46.804 314.12 46.9347 314.535 47.196C314.951 47.4527 315.287 47.7863 315.543 48.197L315.501 47ZM313.149 53.041C313.611 53.041 314.01 52.929 314.346 52.705C314.687 52.4763 314.948 52.1683 315.13 51.781C315.317 51.3937 315.41 50.9667 315.41 50.5C315.41 50.024 315.317 49.5947 315.13 49.212C314.944 48.8247 314.68 48.519 314.339 48.295C314.003 48.0663 313.607 47.952 313.149 47.952C312.687 47.952 312.267 48.0663 311.889 48.295C311.511 48.5237 311.21 48.8317 310.986 49.219C310.767 49.6017 310.657 50.0287 310.657 50.5C310.657 50.9713 310.772 51.4007 311 51.788C311.229 52.1707 311.532 52.4763 311.91 52.705C312.288 52.929 312.701 53.041 313.149 53.041ZM320.211 54.133C319.833 54.119 319.465 54.049 319.105 53.923C318.751 53.7923 318.438 53.6173 318.167 53.398C317.901 53.174 317.708 52.9173 317.586 52.628L318.594 52.194C318.664 52.3527 318.79 52.502 318.972 52.642C319.154 52.782 319.364 52.894 319.602 52.978C319.84 53.062 320.081 53.104 320.323 53.104C320.58 53.104 320.82 53.0643 321.044 52.985C321.268 52.9057 321.45 52.789 321.59 52.635C321.735 52.4763 321.807 52.2873 321.807 52.068C321.807 51.8347 321.728 51.6527 321.569 51.522C321.415 51.3867 321.219 51.2817 320.981 51.207C320.748 51.1277 320.51 51.053 320.267 50.983C319.787 50.8617 319.357 50.717 318.979 50.549C318.601 50.3763 318.303 50.1593 318.083 49.898C317.869 49.632 317.761 49.2937 317.761 48.883C317.761 48.449 317.88 48.0733 318.118 47.756C318.361 47.4387 318.678 47.1937 319.07 47.021C319.462 46.8483 319.882 46.762 320.33 46.762C320.895 46.762 321.411 46.8833 321.877 47.126C322.344 47.3687 322.692 47.6977 322.92 48.113L321.975 48.666C321.896 48.498 321.775 48.351 321.611 48.225C321.448 48.0943 321.261 47.9917 321.051 47.917C320.841 47.8423 320.627 47.8027 320.407 47.798C320.137 47.7887 319.882 47.8237 319.644 47.903C319.411 47.9823 319.222 48.1037 319.077 48.267C318.937 48.4257 318.867 48.624 318.867 48.862C318.867 49.0953 318.942 49.2727 319.091 49.394C319.245 49.5153 319.444 49.6133 319.686 49.688C319.934 49.758 320.202 49.8397 320.491 49.933C320.916 50.0683 321.313 50.2247 321.681 50.402C322.05 50.5793 322.346 50.801 322.57 51.067C322.799 51.333 322.911 51.662 322.906 52.054C322.906 52.4833 322.778 52.859 322.521 53.181C322.265 53.4983 321.931 53.741 321.52 53.909C321.114 54.077 320.678 54.1517 320.211 54.133ZM327.117 54.182C326.473 54.182 325.885 54.0163 325.353 53.685C324.826 53.3537 324.404 52.9103 324.086 52.355C323.774 51.795 323.617 51.1767 323.617 50.5C323.617 49.9867 323.708 49.5083 323.89 49.065C324.072 48.617 324.322 48.225 324.639 47.889C324.961 47.5483 325.335 47.2823 325.759 47.091C326.184 46.8997 326.637 46.804 327.117 46.804C327.645 46.804 328.128 46.9113 328.566 47.126C329.01 47.336 329.388 47.63 329.7 48.008C330.018 48.386 330.253 48.8247 330.407 49.324C330.566 49.8233 330.624 50.3577 330.582 50.927H324.87C324.926 51.3237 325.057 51.6783 325.262 51.991C325.468 52.299 325.729 52.544 326.046 52.726C326.368 52.908 326.725 53.0013 327.117 53.006C327.537 53.006 327.918 52.8987 328.258 52.684C328.599 52.4647 328.874 52.166 329.084 51.788L330.281 52.068C330.001 52.6887 329.579 53.1973 329.014 53.594C328.45 53.986 327.817 54.182 327.117 54.182ZM324.835 50.003H329.399C329.362 49.611 329.236 49.254 329.021 48.932C328.807 48.6053 328.534 48.344 328.202 48.148C327.871 47.952 327.509 47.854 327.117 47.854C326.725 47.854 326.366 47.9497 326.039 48.141C325.713 48.3323 325.442 48.5913 325.227 48.918C325.017 49.24 324.887 49.6017 324.835 50.003ZM337.356 43.5H338.532V54H337.356V52.81C337.118 53.2207 336.798 53.552 336.397 53.804C335.996 54.056 335.524 54.182 334.983 54.182C334.474 54.182 333.998 54.0863 333.555 53.895C333.112 53.7037 332.72 53.44 332.379 53.104C332.043 52.7633 331.779 52.3713 331.588 51.928C331.397 51.4847 331.301 51.0087 331.301 50.5C331.301 49.9913 331.397 49.5153 331.588 49.072C331.779 48.624 332.043 48.232 332.379 47.896C332.72 47.5553 333.112 47.2893 333.555 47.098C333.998 46.9067 334.474 46.811 334.983 46.811C335.524 46.811 335.996 46.937 336.397 47.189C336.798 47.441 337.118 47.7723 337.356 48.183V43.5ZM334.997 53.041C335.459 53.041 335.858 52.929 336.194 52.705C336.535 52.4763 336.796 52.1683 336.978 51.781C337.165 51.3937 337.258 50.9667 337.258 50.5C337.258 50.024 337.165 49.5947 336.978 49.212C336.791 48.8247 336.528 48.519 336.187 48.295C335.851 48.0663 335.454 47.952 334.997 47.952C334.535 47.952 334.115 48.0663 333.737 48.295C333.364 48.5237 333.065 48.8317 332.841 49.219C332.617 49.6017 332.505 50.0287 332.505 50.5C332.505 50.9713 332.619 51.4007 332.848 51.788C333.077 52.1707 333.38 52.4763 333.758 52.705C334.136 52.929 334.549 53.041 334.997 53.041ZM346.654 54.182C346.01 54.182 345.422 54.0163 344.89 53.685C344.363 53.3537 343.941 52.9103 343.623 52.355C343.311 51.795 343.154 51.1767 343.154 50.5C343.154 49.9867 343.245 49.5083 343.427 49.065C343.609 48.617 343.859 48.225 344.176 47.889C344.498 47.5483 344.872 47.2823 345.296 47.091C345.721 46.8997 346.174 46.804 346.654 46.804C347.298 46.804 347.884 46.9697 348.411 47.301C348.943 47.6323 349.366 48.078 349.678 48.638C349.996 49.198 350.154 49.8187 350.154 50.5C350.154 51.0087 350.063 51.4847 349.881 51.928C349.699 52.3713 349.447 52.7633 349.125 53.104C348.808 53.44 348.437 53.7037 348.012 53.895C347.592 54.0863 347.14 54.182 346.654 54.182ZM346.654 53.006C347.093 53.006 347.487 52.8917 347.837 52.663C348.192 52.4297 348.47 52.124 348.67 51.746C348.876 51.3633 348.978 50.948 348.978 50.5C348.978 50.0427 348.873 49.6227 348.663 49.24C348.458 48.8573 348.18 48.5517 347.83 48.323C347.48 48.0943 347.088 47.98 346.654 47.98C346.216 47.98 345.821 48.0967 345.471 48.33C345.121 48.5587 344.844 48.8643 344.638 49.247C344.433 49.6297 344.33 50.0473 344.33 50.5C344.33 50.9667 344.435 51.3913 344.645 51.774C344.855 52.152 345.138 52.453 345.492 52.677C345.847 52.8963 346.234 53.006 346.654 53.006ZM357.501 49.646V54H356.325V49.905C356.325 49.5503 356.238 49.2283 356.066 48.939C355.893 48.6497 355.662 48.421 355.373 48.253C355.083 48.0803 354.761 47.994 354.407 47.994C354.057 47.994 353.735 48.0803 353.441 48.253C353.151 48.421 352.92 48.6497 352.748 48.939C352.575 49.2283 352.489 49.5503 352.489 49.905V54H351.313V47H352.489V47.875C352.736 47.5483 353.049 47.2893 353.427 47.098C353.805 46.902 354.215 46.804 354.659 46.804C355.181 46.804 355.657 46.9323 356.087 47.189C356.521 47.441 356.864 47.7817 357.116 48.211C357.372 48.6403 357.501 49.1187 357.501 49.646ZM365.89 48.176H364.301L364.294 54H363.118L363.125 48.176H361.921V47H363.125L363.118 44.802H364.294L364.301 47H365.89V48.176ZM373.333 49.646V54H372.157V49.905C372.157 49.5503 372.07 49.2283 371.898 48.939C371.725 48.6497 371.494 48.421 371.205 48.253C370.915 48.0803 370.593 47.994 370.239 47.994C369.889 47.994 369.567 48.0803 369.273 48.253C368.983 48.421 368.752 48.6497 368.58 48.939C368.407 49.2283 368.321 49.5503 368.321 49.905V54H367.145V43.5H368.321V47.875C368.568 47.5483 368.881 47.2893 369.259 47.098C369.637 46.902 370.047 46.804 370.491 46.804C371.013 46.804 371.489 46.9323 371.919 47.189C372.353 47.441 372.696 47.7817 372.948 48.211C373.204 48.6403 373.333 49.1187 373.333 49.646ZM377.676 54.182C377.032 54.182 376.444 54.0163 375.912 53.685C375.385 53.3537 374.962 52.9103 374.645 52.355C374.332 51.795 374.176 51.1767 374.176 50.5C374.176 49.9867 374.267 49.5083 374.449 49.065C374.631 48.617 374.881 48.225 375.198 47.889C375.52 47.5483 375.893 47.2823 376.318 47.091C376.743 46.8997 377.195 46.804 377.676 46.804C378.203 46.804 378.686 46.9113 379.125 47.126C379.568 47.336 379.946 47.63 380.259 48.008C380.576 48.386 380.812 48.8247 380.966 49.324C381.125 49.8233 381.183 50.3577 381.141 50.927H375.429C375.485 51.3237 375.616 51.6783 375.821 51.991C376.026 52.299 376.288 52.544 376.605 52.726C376.927 52.908 377.284 53.0013 377.676 53.006C378.096 53.006 378.476 52.8987 378.817 52.684C379.158 52.4647 379.433 52.166 379.643 51.788L380.84 52.068C380.56 52.6887 380.138 53.1973 379.573 53.594C379.008 53.986 378.376 54.182 377.676 54.182ZM375.394 50.003H379.958C379.921 49.611 379.795 49.254 379.58 48.932C379.365 48.6053 379.092 48.344 378.761 48.148C378.43 47.952 378.068 47.854 377.676 47.854C377.284 47.854 376.925 47.9497 376.598 48.141C376.271 48.3323 376.001 48.5913 375.786 48.918C375.576 49.24 375.445 49.6017 375.394 50.003ZM387.914 54.133C387.536 54.119 387.168 54.049 386.808 53.923C386.454 53.7923 386.141 53.6173 385.87 53.398C385.604 53.174 385.411 52.9173 385.289 52.628L386.297 52.194C386.367 52.3527 386.493 52.502 386.675 52.642C386.857 52.782 387.067 52.894 387.305 52.978C387.543 53.062 387.784 53.104 388.026 53.104C388.283 53.104 388.523 53.0643 388.747 52.985C388.971 52.9057 389.153 52.789 389.293 52.635C389.438 52.4763 389.51 52.2873 389.51 52.068C389.51 51.8347 389.431 51.6527 389.272 51.522C389.118 51.3867 388.922 51.2817 388.684 51.207C388.451 51.1277 388.213 51.053 387.97 50.983C387.49 50.8617 387.06 50.717 386.682 50.549C386.304 50.3763 386.006 50.1593 385.786 49.898C385.572 49.632 385.464 49.2937 385.464 48.883C385.464 48.449 385.583 48.0733 385.821 47.756C386.064 47.4387 386.381 47.1937 386.773 47.021C387.165 46.8483 387.585 46.762 388.033 46.762C388.598 46.762 389.114 46.8833 389.58 47.126C390.047 47.3687 390.395 47.6977 390.623 48.113L389.678 48.666C389.599 48.498 389.478 48.351 389.314 48.225C389.151 48.0943 388.964 47.9917 388.754 47.917C388.544 47.8423 388.33 47.8027 388.11 47.798C387.84 47.7887 387.585 47.8237 387.347 47.903C387.114 47.9823 386.925 48.1037 386.78 48.267C386.64 48.4257 386.57 48.624 386.57 48.862C386.57 49.0953 386.645 49.2727 386.794 49.394C386.948 49.5153 387.147 49.6133 387.389 49.688C387.637 49.758 387.905 49.8397 388.194 49.933C388.619 50.0683 389.016 50.2247 389.384 50.402C389.753 50.5793 390.049 50.801 390.273 51.067C390.502 51.333 390.614 51.662 390.609 52.054C390.609 52.4833 390.481 52.859 390.224 53.181C389.968 53.4983 389.634 53.741 389.223 53.909C388.817 54.077 388.381 54.1517 387.914 54.133ZM397.368 47H398.544V54H397.368L397.319 52.817C397.1 53.223 396.797 53.552 396.409 53.804C396.027 54.056 395.569 54.182 395.037 54.182C394.524 54.182 394.043 54.0863 393.595 53.895C393.147 53.699 392.751 53.4307 392.405 53.09C392.065 52.7447 391.799 52.348 391.607 51.9C391.416 51.452 391.32 50.969 391.32 50.451C391.32 49.9517 391.414 49.4803 391.6 49.037C391.787 48.5937 392.046 48.2063 392.377 47.875C392.713 47.539 393.101 47.2777 393.539 47.091C393.978 46.8997 394.449 46.804 394.953 46.804C395.504 46.804 395.987 46.9347 396.402 47.196C396.818 47.4527 397.154 47.7863 397.41 48.197L397.368 47ZM395.016 53.041C395.478 53.041 395.877 52.929 396.213 52.705C396.554 52.4763 396.815 52.1683 396.997 51.781C397.184 51.3937 397.277 50.9667 397.277 50.5C397.277 50.024 397.184 49.5947 396.997 49.212C396.811 48.8247 396.547 48.519 396.206 48.295C395.87 48.0663 395.474 47.952 395.016 47.952C394.554 47.952 394.134 48.0663 393.756 48.295C393.378 48.5237 393.077 48.8317 392.853 49.219C392.634 49.6017 392.524 50.0287 392.524 50.5C392.524 50.9713 392.639 51.4007 392.867 51.788C393.096 52.1707 393.399 52.4763 393.777 52.705C394.155 52.929 394.568 53.041 395.016 53.041ZM400.026 54V43.5H401.202V54H400.026ZM405.895 54.182C405.251 54.182 404.663 54.0163 404.131 53.685C403.603 53.3537 403.181 52.9103 402.864 52.355C402.551 51.795 402.395 51.1767 402.395 50.5C402.395 49.9867 402.486 49.5083 402.668 49.065C402.85 48.617 403.099 48.225 403.417 47.889C403.739 47.5483 404.112 47.2823 404.537 47.091C404.961 46.8997 405.414 46.804 405.895 46.804C406.422 46.804 406.905 46.9113 407.344 47.126C407.787 47.336 408.165 47.63 408.478 48.008C408.795 48.386 409.031 48.8247 409.185 49.324C409.343 49.8233 409.402 50.3577 409.36 50.927H403.648C403.704 51.3237 403.834 51.6783 404.04 51.991C404.245 52.299 404.506 52.544 404.824 52.726C405.146 52.908 405.503 53.0013 405.895 53.006C406.315 53.006 406.695 52.8987 407.036 52.684C407.376 52.4647 407.652 52.166 407.862 51.788L409.059 52.068C408.779 52.6887 408.356 53.1973 407.792 53.594C407.227 53.986 406.595 54.182 405.895 54.182ZM403.613 50.003H408.177C408.139 49.611 408.013 49.254 407.799 48.932C407.584 48.6053 407.311 48.344 406.98 48.148C406.648 47.952 406.287 47.854 405.895 47.854C405.503 47.854 405.143 47.9497 404.817 48.141C404.49 48.3323 404.219 48.5913 404.005 48.918C403.795 49.24 403.664 49.6017 403.613 50.003ZM415.174 57.5H413.998V47H415.174V48.197C415.412 47.7863 415.73 47.455 416.126 47.203C416.523 46.9463 416.994 46.818 417.54 46.818C418.049 46.818 418.525 46.9137 418.968 47.105C419.416 47.2963 419.808 47.5623 420.144 47.903C420.48 48.239 420.744 48.6287 420.935 49.072C421.127 49.5153 421.222 49.9913 421.222 50.5C421.222 51.0087 421.127 51.487 420.935 51.935C420.744 52.383 420.48 52.7773 420.144 53.118C419.808 53.454 419.416 53.7177 418.968 53.909C418.525 54.1003 418.049 54.196 417.54 54.196C416.994 54.196 416.523 54.07 416.126 53.818C415.73 53.5613 415.412 53.2277 415.174 52.817V57.5ZM417.526 47.959C417.074 47.959 416.677 48.0733 416.336 48.302C415.996 48.5307 415.732 48.8363 415.545 49.219C415.363 49.6017 415.272 50.0287 415.272 50.5C415.272 50.9667 415.363 51.3937 415.545 51.781C415.732 52.1683 415.993 52.4763 416.329 52.705C416.67 52.9337 417.069 53.048 417.526 53.048C417.979 53.048 418.394 52.936 418.772 52.712C419.15 52.4833 419.454 52.1777 419.682 51.795C419.911 51.4077 420.025 50.976 420.025 50.5C420.025 50.0333 419.913 49.6087 419.689 49.226C419.465 48.8387 419.164 48.5307 418.786 48.302C418.408 48.0733 417.988 47.959 417.526 47.959ZM422.393 54V47H423.569V47.875C423.816 47.5483 424.129 47.2893 424.507 47.098C424.885 46.902 425.295 46.804 425.739 46.804C426.009 46.804 426.271 46.839 426.523 46.909L426.047 48.085C425.855 48.0243 425.669 47.994 425.487 47.994C425.137 47.994 424.815 48.0803 424.521 48.253C424.231 48.421 424 48.6497 423.828 48.939C423.655 49.2283 423.569 49.5503 423.569 49.905V54H422.393ZM427.383 47H428.559V54H427.383V47ZM427.985 45.859C427.798 45.859 427.642 45.7983 427.516 45.677C427.39 45.5557 427.327 45.404 427.327 45.222C427.327 45.04 427.39 44.8883 427.516 44.767C427.642 44.6457 427.796 44.585 427.978 44.585C428.16 44.585 428.314 44.6457 428.44 44.767C428.566 44.8883 428.629 45.04 428.629 45.222C428.629 45.404 428.566 45.5557 428.44 45.677C428.319 45.7983 428.167 45.859 427.985 45.859ZM434.968 52.152L436.018 52.719C435.7 53.1623 435.297 53.517 434.807 53.783C434.321 54.049 433.794 54.182 433.225 54.182C432.581 54.182 431.993 54.0163 431.461 53.685C430.933 53.3537 430.511 52.9103 430.194 52.355C429.881 51.795 429.725 51.1767 429.725 50.5C429.725 49.9867 429.816 49.5083 429.998 49.065C430.18 48.617 430.429 48.225 430.747 47.889C431.069 47.5483 431.442 47.2823 431.867 47.091C432.291 46.8997 432.744 46.804 433.225 46.804C433.794 46.804 434.321 46.937 434.807 47.203C435.297 47.469 435.7 47.826 436.018 48.274L434.968 48.841C434.744 48.5657 434.478 48.3533 434.17 48.204C433.862 48.0547 433.547 47.98 433.225 47.98C432.791 47.98 432.396 48.0967 432.042 48.33C431.692 48.5587 431.414 48.8643 431.209 49.247C431.003 49.6297 430.901 50.0473 430.901 50.5C430.901 50.9527 431.003 51.3703 431.209 51.753C431.419 52.131 431.699 52.4343 432.049 52.663C432.403 52.8917 432.795 53.006 433.225 53.006C433.57 53.006 433.894 52.9267 434.198 52.768C434.501 52.6093 434.758 52.404 434.968 52.152ZM440.238 54.182C439.594 54.182 439.006 54.0163 438.474 53.685C437.947 53.3537 437.525 52.9103 437.207 52.355C436.895 51.795 436.738 51.1767 436.738 50.5C436.738 49.9867 436.829 49.5083 437.011 49.065C437.193 48.617 437.443 48.225 437.76 47.889C438.082 47.5483 438.456 47.2823 438.88 47.091C439.305 46.8997 439.758 46.804 440.238 46.804C440.766 46.804 441.249 46.9113 441.687 47.126C442.131 47.336 442.509 47.63 442.821 48.008C443.139 48.386 443.374 48.8247 443.528 49.324C443.687 49.8233 443.745 50.3577 443.703 50.927H437.991C438.047 51.3237 438.178 51.6783 438.383 51.991C438.589 52.299 438.85 52.544 439.167 52.726C439.489 52.908 439.846 53.0013 440.238 53.006C440.658 53.006 441.039 52.8987 441.379 52.684C441.72 52.4647 441.995 52.166 442.205 51.788L443.402 52.068C443.122 52.6887 442.7 53.1973 442.135 53.594C441.571 53.986 440.938 54.182 440.238 54.182ZM437.956 50.003H442.52C442.483 49.611 442.357 49.254 442.142 48.932C441.928 48.6053 441.655 48.344 441.323 48.148C440.992 47.952 440.63 47.854 440.238 47.854C439.846 47.854 439.487 47.9497 439.16 48.141C438.834 48.3323 438.563 48.5913 438.348 48.918C438.138 49.24 438.008 49.6017 437.956 50.003ZM453.97 47H455.146V54H453.97L453.921 52.817C453.702 53.223 453.398 53.552 453.011 53.804C452.628 54.056 452.171 54.182 451.639 54.182C451.126 54.182 450.645 54.0863 450.197 53.895C449.749 53.699 449.352 53.4307 449.007 53.09C448.666 52.7447 448.4 52.348 448.209 51.9C448.018 51.452 447.922 50.969 447.922 50.451C447.922 49.9517 448.015 49.4803 448.202 49.037C448.389 48.5937 448.648 48.2063 448.979 47.875C449.315 47.539 449.702 47.2777 450.141 47.091C450.58 46.8997 451.051 46.804 451.555 46.804C452.106 46.804 452.589 46.9347 453.004 47.196C453.419 47.4527 453.755 47.7863 454.012 48.197L453.97 47ZM451.618 53.041C452.08 53.041 452.479 52.929 452.815 52.705C453.156 52.4763 453.417 52.1683 453.599 51.781C453.786 51.3937 453.879 50.9667 453.879 50.5C453.879 50.024 453.786 49.5947 453.599 49.212C453.412 48.8247 453.149 48.519 452.808 48.295C452.472 48.0663 452.075 47.952 451.618 47.952C451.156 47.952 450.736 48.0663 450.358 48.295C449.98 48.5237 449.679 48.8317 449.455 49.219C449.236 49.6017 449.126 50.0287 449.126 50.5C449.126 50.9713 449.24 51.4007 449.469 51.788C449.698 52.1707 450.001 52.4763 450.379 52.705C450.757 52.929 451.17 53.041 451.618 53.041ZM462.733 49.646V54H461.557V49.905C461.557 49.5503 461.471 49.2283 461.298 48.939C461.125 48.6497 460.894 48.421 460.605 48.253C460.316 48.0803 459.994 47.994 459.639 47.994C459.289 47.994 458.967 48.0803 458.673 48.253C458.384 48.421 458.153 48.6497 457.98 48.939C457.807 49.2283 457.721 49.5503 457.721 49.905V54H456.545V47H457.721V47.875C457.968 47.5483 458.281 47.2893 458.659 47.098C459.037 46.902 459.448 46.804 459.891 46.804C460.414 46.804 460.89 46.9323 461.319 47.189C461.753 47.441 462.096 47.7817 462.348 48.211C462.605 48.6403 462.733 49.1187 462.733 49.646ZM469.631 43.5H470.807V54H469.631V52.81C469.393 53.2207 469.074 53.552 468.672 53.804C468.271 54.056 467.8 54.182 467.258 54.182C466.75 54.182 466.274 54.0863 465.83 53.895C465.387 53.7037 464.995 53.44 464.654 53.104C464.318 52.7633 464.055 52.3713 463.863 51.928C463.672 51.4847 463.576 51.0087 463.576 50.5C463.576 49.9913 463.672 49.5153 463.863 49.072C464.055 48.624 464.318 48.232 464.654 47.896C464.995 47.5553 465.387 47.2893 465.83 47.098C466.274 46.9067 466.75 46.811 467.258 46.811C467.8 46.811 468.271 46.937 468.672 47.189C469.074 47.441 469.393 47.7723 469.631 48.183V43.5ZM467.272 53.041C467.734 53.041 468.133 52.929 468.469 52.705C468.81 52.4763 469.071 52.1683 469.253 51.781C469.44 51.3937 469.533 50.9667 469.533 50.5C469.533 50.024 469.44 49.5947 469.253 49.212C469.067 48.8247 468.803 48.519 468.462 48.295C468.126 48.0663 467.73 47.952 467.272 47.952C466.81 47.952 466.39 48.0663 466.012 48.295C465.639 48.5237 465.34 48.8317 465.116 49.219C464.892 49.6017 464.78 50.0287 464.78 50.5C464.78 50.9713 464.895 51.4007 465.123 51.788C465.352 52.1707 465.655 52.4763 466.033 52.705C466.411 52.929 466.824 53.041 467.272 53.041ZM475.85 54V43.5H477.026V54H475.85ZM481.719 54.182C481.075 54.182 480.487 54.0163 479.955 53.685C479.427 53.3537 479.005 52.9103 478.688 52.355C478.375 51.795 478.219 51.1767 478.219 50.5C478.219 49.9867 478.31 49.5083 478.492 49.065C478.674 48.617 478.923 48.225 479.241 47.889C479.563 47.5483 479.936 47.2823 480.361 47.091C480.785 46.8997 481.238 46.804 481.719 46.804C482.363 46.804 482.948 46.9697 483.476 47.301C484.008 47.6323 484.43 48.078 484.743 48.638C485.06 49.198 485.219 49.8187 485.219 50.5C485.219 51.0087 485.128 51.4847 484.946 51.928C484.764 52.3713 484.512 52.7633 484.19 53.104C483.872 53.44 483.501 53.7037 483.077 53.895C482.657 54.0863 482.204 54.182 481.719 54.182ZM481.719 53.006C482.157 53.006 482.552 52.8917 482.902 52.663C483.256 52.4297 483.534 52.124 483.735 51.746C483.94 51.3633 484.043 50.948 484.043 50.5C484.043 50.0427 483.938 49.6227 483.728 49.24C483.522 48.8573 483.245 48.5517 482.895 48.323C482.545 48.0943 482.153 47.98 481.719 47.98C481.28 47.98 480.886 48.0967 480.536 48.33C480.186 48.5587 479.908 48.8643 479.703 49.247C479.497 49.6297 479.395 50.0473 479.395 50.5C479.395 50.9667 479.5 51.3913 479.71 51.774C479.92 52.152 480.202 52.453 480.557 52.677C480.911 52.8963 481.299 53.006 481.719 53.006ZM491.159 52.152L492.209 52.719C491.892 53.1623 491.488 53.517 490.998 53.783C490.513 54.049 489.985 54.182 489.416 54.182C488.772 54.182 488.184 54.0163 487.652 53.685C487.125 53.3537 486.702 52.9103 486.385 52.355C486.072 51.795 485.916 51.1767 485.916 50.5C485.916 49.9867 486.007 49.5083 486.189 49.065C486.371 48.617 486.621 48.225 486.938 47.889C487.26 47.5483 487.633 47.2823 488.058 47.091C488.483 46.8997 488.935 46.804 489.416 46.804C489.985 46.804 490.513 46.937 490.998 47.203C491.488 47.469 491.892 47.826 492.209 48.274L491.159 48.841C490.935 48.5657 490.669 48.3533 490.361 48.204C490.053 48.0547 489.738 47.98 489.416 47.98C488.982 47.98 488.588 48.0967 488.233 48.33C487.883 48.5587 487.605 48.8643 487.4 49.247C487.195 49.6297 487.092 50.0473 487.092 50.5C487.092 50.9527 487.195 51.3703 487.4 51.753C487.61 52.131 487.89 52.4343 488.24 52.663C488.595 52.8917 488.987 53.006 489.416 53.006C489.761 53.006 490.086 52.9267 490.389 52.768C490.692 52.6093 490.949 52.404 491.159 52.152ZM498.978 47H500.154V54H498.978L498.929 52.817C498.709 53.223 498.406 53.552 498.019 53.804C497.636 54.056 497.179 54.182 496.647 54.182C496.133 54.182 495.653 54.0863 495.205 53.895C494.757 53.699 494.36 53.4307 494.015 53.09C493.674 52.7447 493.408 52.348 493.217 51.9C493.025 51.452 492.93 50.969 492.93 50.451C492.93 49.9517 493.023 49.4803 493.21 49.037C493.396 48.5937 493.655 48.2063 493.987 47.875C494.323 47.539 494.71 47.2777 495.149 47.091C495.587 46.8997 496.059 46.804 496.563 46.804C497.113 46.804 497.596 46.9347 498.012 47.196C498.427 47.4527 498.763 47.7863 499.02 48.197L498.978 47ZM496.626 53.041C497.088 53.041 497.487 52.929 497.823 52.705C498.163 52.4763 498.425 52.1683 498.607 51.781C498.793 51.3937 498.887 50.9667 498.887 50.5C498.887 50.024 498.793 49.5947 498.607 49.212C498.42 48.8247 498.156 48.519 497.816 48.295C497.48 48.0663 497.083 47.952 496.626 47.952C496.164 47.952 495.744 48.0663 495.366 48.295C494.988 48.5237 494.687 48.8317 494.463 49.219C494.243 49.6017 494.134 50.0287 494.134 50.5C494.134 50.9713 494.248 51.4007 494.477 51.788C494.705 52.1707 495.009 52.4763 495.387 52.705C495.765 52.929 496.178 53.041 496.626 53.041ZM501.635 54V43.5H502.811V54H501.635ZM507.856 54V47H509.032V47.875C509.279 47.5483 509.592 47.2893 509.97 47.098C510.348 46.902 510.758 46.804 511.202 46.804C511.472 46.804 511.734 46.839 511.986 46.909L511.51 48.085C511.318 48.0243 511.132 47.994 510.95 47.994C510.6 47.994 510.278 48.0803 509.984 48.253C509.694 48.421 509.463 48.6497 509.291 48.939C509.118 49.2283 509.032 49.5503 509.032 49.905V54H507.856ZM518.118 47H519.294V54H518.118L518.069 52.817C517.85 53.223 517.547 53.552 517.159 53.804C516.777 54.056 516.319 54.182 515.787 54.182C515.274 54.182 514.793 54.0863 514.345 53.895C513.897 53.699 513.501 53.4307 513.155 53.09C512.815 52.7447 512.549 52.348 512.357 51.9C512.166 51.452 512.07 50.969 512.07 50.451C512.07 49.9517 512.164 49.4803 512.35 49.037C512.537 48.5937 512.796 48.2063 513.127 47.875C513.463 47.539 513.851 47.2777 514.289 47.091C514.728 46.8997 515.199 46.804 515.703 46.804C516.254 46.804 516.737 46.9347 517.152 47.196C517.568 47.4527 517.904 47.7863 518.16 48.197L518.118 47ZM515.766 53.041C516.228 53.041 516.627 52.929 516.963 52.705C517.304 52.4763 517.565 52.1683 517.747 51.781C517.934 51.3937 518.027 50.9667 518.027 50.5C518.027 50.024 517.934 49.5947 517.747 49.212C517.561 48.8247 517.297 48.519 516.956 48.295C516.62 48.0663 516.224 47.952 515.766 47.952C515.304 47.952 514.884 48.0663 514.506 48.295C514.128 48.5237 513.827 48.8317 513.603 49.219C513.384 49.6017 513.274 50.0287 513.274 50.5C513.274 50.9713 513.389 51.4007 513.617 51.788C513.846 52.1707 514.149 52.4763 514.527 52.705C514.905 52.929 515.318 53.041 515.766 53.041ZM524.32 48.176H522.731L522.724 54H521.548L521.555 48.176H520.351V47H521.555L521.548 44.802H522.724L522.731 47H524.32V48.176ZM528.477 54.182C527.833 54.182 527.245 54.0163 526.713 53.685C526.185 53.3537 525.763 52.9103 525.446 52.355C525.133 51.795 524.977 51.1767 524.977 50.5C524.977 49.9867 525.068 49.5083 525.25 49.065C525.432 48.617 525.681 48.225 525.999 47.889C526.321 47.5483 526.694 47.2823 527.119 47.091C527.543 46.8997 527.996 46.804 528.477 46.804C529.004 46.804 529.487 46.9113 529.926 47.126C530.369 47.336 530.747 47.63 531.06 48.008C531.377 48.386 531.613 48.8247 531.767 49.324C531.925 49.8233 531.984 50.3577 531.942 50.927H526.23C526.286 51.3237 526.416 51.6783 526.622 51.991C526.827 52.299 527.088 52.544 527.406 52.726C527.728 52.908 528.085 53.0013 528.477 53.006C528.897 53.006 529.277 52.8987 529.618 52.684C529.958 52.4647 530.234 52.166 530.444 51.788L531.641 52.068C531.361 52.6887 530.938 53.1973 530.374 53.594C529.809 53.986 529.177 54.182 528.477 54.182ZM526.195 50.003H530.759C530.721 49.611 530.595 49.254 530.381 48.932C530.166 48.6053 529.893 48.344 529.562 48.148C529.23 47.952 528.869 47.854 528.477 47.854C528.085 47.854 527.725 47.9497 527.399 48.141C527.072 48.3323 526.801 48.5913 526.587 48.918C526.377 49.24 526.246 49.6017 526.195 50.003ZM535.284 54.133C534.906 54.119 534.537 54.049 534.178 53.923C533.823 53.7923 533.51 53.6173 533.24 53.398C532.974 53.174 532.78 52.9173 532.659 52.628L533.667 52.194C533.737 52.3527 533.863 52.502 534.045 52.642C534.227 52.782 534.437 52.894 534.675 52.978C534.913 53.062 535.153 53.104 535.396 53.104C535.652 53.104 535.893 53.0643 536.117 52.985C536.341 52.9057 536.523 52.789 536.663 52.635C536.807 52.4763 536.88 52.2873 536.88 52.068C536.88 51.8347 536.8 51.6527 536.642 51.522C536.488 51.3867 536.292 51.2817 536.054 51.207C535.82 51.1277 535.582 51.053 535.34 50.983C534.859 50.8617 534.43 50.717 534.052 50.549C533.674 50.3763 533.375 50.1593 533.156 49.898C532.941 49.632 532.834 49.2937 532.834 48.883C532.834 48.449 532.953 48.0733 533.191 47.756C533.433 47.4387 533.751 47.1937 534.143 47.021C534.535 46.8483 534.955 46.762 535.403 46.762C535.967 46.762 536.483 46.8833 536.95 47.126C537.416 47.3687 537.764 47.6977 537.993 48.113L537.048 48.666C536.968 48.498 536.847 48.351 536.684 48.225C536.52 48.0943 536.334 47.9917 536.124 47.917C535.914 47.8423 535.699 47.8027 535.48 47.798C535.209 47.7887 534.955 47.8237 534.717 47.903C534.483 47.9823 534.294 48.1037 534.15 48.267C534.01 48.4257 533.94 48.624 533.94 48.862C533.94 49.0953 534.014 49.2727 534.164 49.394C534.318 49.5153 534.516 49.6133 534.759 49.688C535.006 49.758 535.274 49.8397 535.564 49.933C535.988 50.0683 536.385 50.2247 536.754 50.402C537.122 50.5793 537.419 50.801 537.643 51.067C537.871 51.333 537.983 51.662 537.979 52.054C537.979 52.4833 537.85 52.859 537.594 53.181C537.337 53.4983 537.003 53.741 536.593 53.909C536.187 54.077 535.75 54.1517 535.284 54.133Z" fill="#999999"></path></g><defs><clipPath id="clip0_166_1076"><rect width="965" height="66" fill="white"></rect></clipPath></defs></svg>