<svg xmlns="http://www.w3.org/2000/svg" width="965" height="49" viewBox="0 0 965 49" fill="none"><path d="M5.89 17.5H8.32L13.41 31.5H11.21L10.24 28.84H3.97L3.01 31.5H0.8L5.89 17.5ZM4.74 26.76H9.47L7.1 20.26L4.74 26.76ZM22.2127 16.5H24.2927V31.5H22.2127V30.03C21.886 30.55 21.4593 30.97 20.9327 31.29C20.406 31.6033 19.7893 31.76 19.0827 31.76C18.356 31.76 17.676 31.6233 17.0427 31.35C16.4093 31.0767 15.8493 30.7 15.3627 30.22C14.8827 29.7333 14.506 29.1733 14.2327 28.54C13.9593 27.9067 13.8227 27.2267 13.8227 26.5C13.8227 25.7733 13.9593 25.0933 14.2327 24.46C14.506 23.82 14.8827 23.26 15.3627 22.78C15.8493 22.2933 16.4093 21.9133 17.0427 21.64C17.676 21.3667 18.356 21.23 19.0827 21.23C19.7893 21.23 20.406 21.39 20.9327 21.71C21.4593 22.0233 21.886 22.4367 22.2127 22.95V16.5ZM19.1027 29.75C19.6893 29.75 20.2027 29.6067 20.6427 29.32C21.0827 29.0267 21.4227 28.6333 21.6627 28.14C21.9093 27.6467 22.0327 27.1 22.0327 26.5C22.0327 25.8933 21.9093 25.3433 21.6627 24.85C21.416 24.3567 21.0727 23.9667 20.6327 23.68C20.1993 23.3867 19.6893 23.24 19.1027 23.24C18.5227 23.24 17.9927 23.3867 17.5127 23.68C17.0393 23.9733 16.6593 24.3667 16.3727 24.86C16.0927 25.3533 15.9527 25.9 15.9527 26.5C15.9527 27.1067 16.096 27.6567 16.3827 28.15C16.676 28.6367 17.0593 29.0267 17.5327 29.32C18.0127 29.6067 18.536 29.75 19.1027 29.75ZM34.3416 16.5H36.4216V31.5H34.3416V30.03C34.0149 30.55 33.5882 30.97 33.0616 31.29C32.5349 31.6033 31.9182 31.76 31.2116 31.76C30.4849 31.76 29.8049 31.6233 29.1716 31.35C28.5382 31.0767 27.9782 30.7 27.4916 30.22C27.0116 29.7333 26.6349 29.1733 26.3616 28.54C26.0882 27.9067 25.9516 27.2267 25.9516 26.5C25.9516 25.7733 26.0882 25.0933 26.3616 24.46C26.6349 23.82 27.0116 23.26 27.4916 22.78C27.9782 22.2933 28.5382 21.9133 29.1716 21.64C29.8049 21.3667 30.4849 21.23 31.2116 21.23C31.9182 21.23 32.5349 21.39 33.0616 21.71C33.5882 22.0233 34.0149 22.4367 34.3416 22.95V16.5ZM31.2316 29.75C31.8182 29.75 32.3316 29.6067 32.7716 29.32C33.2116 29.0267 33.5516 28.6333 33.7916 28.14C34.0382 27.6467 34.1616 27.1 34.1616 26.5C34.1616 25.8933 34.0382 25.3433 33.7916 24.85C33.5449 24.3567 33.2016 23.9667 32.7616 23.68C32.3282 23.3867 31.8182 23.24 31.2316 23.24C30.6516 23.24 30.1216 23.3867 29.6416 23.68C29.1682 23.9733 28.7882 24.3667 28.5016 24.86C28.2216 25.3533 28.0816 25.9 28.0816 26.5C28.0816 27.1067 28.2249 27.6567 28.5116 28.15C28.8049 28.6367 29.1882 29.0267 29.6616 29.32C30.1416 29.6067 30.6649 29.75 31.2316 29.75ZM38.8172 21.5H40.8972V31.5H38.8172V21.5ZM39.8772 20.05C39.5572 20.05 39.2905 19.9467 39.0772 19.74C38.8639 19.5333 38.7572 19.2733 38.7572 18.96C38.7572 18.6533 38.8639 18.3967 39.0772 18.19C39.2905 17.9767 39.5539 17.87 39.8672 17.87C40.1739 17.87 40.4339 17.9767 40.6472 18.19C40.8605 18.3967 40.9672 18.6533 40.9672 18.96C40.9672 19.2733 40.8605 19.5333 40.6472 19.74C40.4405 19.9467 40.1839 20.05 39.8772 20.05ZM48.5698 23.58H46.4698L46.4598 31.5H44.3798L44.3898 23.58H42.7998V21.5H44.3898L44.3798 18.36H46.4598L46.4698 21.5H48.5698V23.58ZM50.2234 21.5H52.3034V31.5H50.2234V21.5ZM51.2834 20.05C50.9634 20.05 50.6968 19.9467 50.4834 19.74C50.2701 19.5333 50.1634 19.2733 50.1634 18.96C50.1634 18.6533 50.2701 18.3967 50.4834 18.19C50.6968 17.9767 50.9601 17.87 51.2734 17.87C51.5801 17.87 51.8401 17.9767 52.0534 18.19C52.2668 18.3967 52.3734 18.6533 52.3734 18.96C52.3734 19.2733 52.2668 19.5333 52.0534 19.74C51.8468 19.9467 51.5901 20.05 51.2834 20.05ZM58.9203 31.76C58.0003 31.76 57.1603 31.5233 56.4003 31.05C55.647 30.5767 55.0436 29.9433 54.5903 29.15C54.1436 28.35 53.9203 27.4667 53.9203 26.5C53.9203 25.7667 54.0503 25.0833 54.3103 24.45C54.5703 23.81 54.927 23.25 55.3803 22.77C55.8403 22.2833 56.3736 21.9033 56.9803 21.63C57.587 21.3567 58.2336 21.22 58.9203 21.22C59.8403 21.22 60.677 21.4567 61.4303 21.93C62.1903 22.4033 62.7936 23.04 63.2403 23.84C63.6936 24.64 63.9203 25.5267 63.9203 26.5C63.9203 27.2267 63.7903 27.9067 63.5303 28.54C63.2703 29.1733 62.9103 29.7333 62.4503 30.22C61.997 30.7 61.467 31.0767 60.8603 31.35C60.2603 31.6233 59.6136 31.76 58.9203 31.76ZM58.9203 29.68C59.4736 29.68 59.9703 29.5333 60.4103 29.24C60.8503 28.9467 61.197 28.56 61.4503 28.08C61.7103 27.5933 61.8403 27.0667 61.8403 26.5C61.8403 25.92 61.707 25.3867 61.4403 24.9C61.1803 24.4133 60.8303 24.0267 60.3903 23.74C59.9503 23.4467 59.4603 23.3 58.9203 23.3C58.3736 23.3 57.877 23.4467 57.4303 23.74C56.9903 24.0333 56.6403 24.4233 56.3803 24.91C56.127 25.3967 56.0003 25.9267 56.0003 26.5C56.0003 27.0933 56.1336 27.63 56.4003 28.11C56.667 28.59 57.0203 28.9733 57.4603 29.26C57.907 29.54 58.3936 29.68 58.9203 29.68ZM74.5359 25.23V31.5H72.4559V25.74C72.4559 25.2933 72.3459 24.8867 72.1259 24.52C71.9126 24.1533 71.6226 23.8633 71.2559 23.65C70.8959 23.43 70.4893 23.32 70.0359 23.32C69.5959 23.32 69.1926 23.43 68.8259 23.65C68.4593 23.8633 68.1659 24.1533 67.9459 24.52C67.7259 24.8867 67.6159 25.2933 67.6159 25.74V31.5H65.5359V21.5H67.6159V22.56C67.9626 22.1467 68.3893 21.82 68.8959 21.58C69.4026 21.34 69.9493 21.22 70.5359 21.22C71.2759 21.22 71.9493 21.4 72.5559 21.76C73.1626 22.12 73.6426 22.6033 73.9959 23.21C74.3559 23.8167 74.5359 24.49 74.5359 25.23ZM84.1167 21.5H86.1967V31.5H84.1067L84.0267 30.05C83.7334 30.5633 83.3367 30.9767 82.8367 31.29C82.3367 31.6033 81.7467 31.76 81.0667 31.76C80.3334 31.76 79.6434 31.6233 78.9967 31.35C78.3501 31.07 77.7801 30.6833 77.2867 30.19C76.8001 29.6967 76.4201 29.13 76.1467 28.49C75.8734 27.8433 75.7367 27.15 75.7367 26.41C75.7367 25.6967 75.8701 25.0267 76.1367 24.4C76.4034 23.7667 76.7734 23.2133 77.2467 22.74C77.7201 22.2667 78.2667 21.8967 78.8867 21.63C79.5134 21.3567 80.1834 21.22 80.8967 21.22C81.6234 21.22 82.2634 21.3867 82.8167 21.72C83.3767 22.0467 83.8401 22.4667 84.2067 22.98L84.1167 21.5ZM81.0167 29.75C81.6034 29.75 82.1167 29.6067 82.5567 29.32C82.9967 29.0267 83.3367 28.6333 83.5767 28.14C83.8234 27.6467 83.9467 27.1 83.9467 26.5C83.9467 25.8933 83.8234 25.3433 83.5767 24.85C83.3301 24.3567 82.9867 23.9667 82.5467 23.68C82.1134 23.3867 81.6034 23.24 81.0167 23.24C80.4367 23.24 79.9067 23.3867 79.4267 23.68C78.9467 23.9733 78.5667 24.3667 78.2867 24.86C78.0067 25.3533 77.8667 25.9 77.8667 26.5C77.8667 27.1067 78.0101 27.6567 78.2967 28.15C78.5901 28.6367 78.9734 29.0267 79.4467 29.32C79.9267 29.6067 80.4501 29.75 81.0167 29.75ZM88.2703 31.5V16.5H90.3503V31.5H88.2703ZM97.5477 31.5V17.5H105.798V19.58H99.6277V22.96H104.838V25.04H99.6277V31.5H97.5477ZM110.776 31.76C109.856 31.76 109.016 31.5233 108.256 31.05C107.502 30.5767 106.899 29.9433 106.446 29.15C105.999 28.35 105.776 27.4667 105.776 26.5C105.776 25.7667 105.906 25.0833 106.166 24.45C106.426 23.81 106.782 23.25 107.236 22.77C107.696 22.2833 108.229 21.9033 108.836 21.63C109.442 21.3567 110.089 21.22 110.776 21.22C111.542 21.22 112.246 21.38 112.886 21.7C113.526 22.0133 114.072 22.45 114.526 23.01C114.979 23.5633 115.312 24.2033 115.526 24.93C115.739 25.65 115.802 26.4167 115.716 27.23H108.006C108.092 27.69 108.259 28.1067 108.506 28.48C108.759 28.8467 109.079 29.1367 109.466 29.35C109.859 29.5633 110.296 29.6733 110.776 29.68C111.282 29.68 111.742 29.5533 112.156 29.3C112.576 29.0467 112.919 28.6967 113.186 28.25L115.296 28.74C114.896 29.6267 114.292 30.3533 113.486 30.92C112.679 31.48 111.776 31.76 110.776 31.76ZM107.936 25.64H113.616C113.549 25.16 113.379 24.7267 113.106 24.34C112.839 23.9467 112.502 23.6367 112.096 23.41C111.696 23.1767 111.256 23.06 110.776 23.06C110.302 23.06 109.862 23.1733 109.456 23.4C109.056 23.6267 108.722 23.9367 108.456 24.33C108.196 24.7167 108.022 25.1533 107.936 25.64ZM121.752 31.76C120.832 31.76 119.992 31.5233 119.232 31.05C118.479 30.5767 117.876 29.9433 117.422 29.15C116.976 28.35 116.752 27.4667 116.752 26.5C116.752 25.7667 116.882 25.0833 117.142 24.45C117.402 23.81 117.759 23.25 118.212 22.77C118.672 22.2833 119.206 21.9033 119.812 21.63C120.419 21.3567 121.066 21.22 121.752 21.22C122.519 21.22 123.222 21.38 123.862 21.7C124.502 22.0133 125.049 22.45 125.502 23.01C125.956 23.5633 126.289 24.2033 126.502 24.93C126.716 25.65 126.779 26.4167 126.692 27.23H118.982C119.069 27.69 119.236 28.1067 119.482 28.48C119.736 28.8467 120.056 29.1367 120.442 29.35C120.836 29.5633 121.272 29.6733 121.752 29.68C122.259 29.68 122.719 29.5533 123.132 29.3C123.552 29.0467 123.896 28.6967 124.162 28.25L126.272 28.74C125.872 29.6267 125.269 30.3533 124.462 30.92C123.656 31.48 122.752 31.76 121.752 31.76ZM118.912 25.64H124.592C124.526 25.16 124.356 24.7267 124.082 24.34C123.816 23.9467 123.479 23.6367 123.072 23.41C122.672 23.1767 122.232 23.06 121.752 23.06C121.279 23.06 120.839 23.1733 120.432 23.4C120.032 23.6267 119.699 23.9367 119.432 24.33C119.172 24.7167 118.999 25.1533 118.912 25.64ZM131.388 31.69C130.861 31.6567 130.348 31.55 129.848 31.37C129.348 31.19 128.908 30.9467 128.528 30.64C128.154 30.3267 127.874 29.96 127.688 29.54L129.458 28.78C129.544 28.96 129.694 29.1367 129.908 29.31C130.128 29.4833 130.384 29.6267 130.678 29.74C130.971 29.8467 131.278 29.9 131.598 29.9C131.911 29.9 132.201 29.8567 132.467 29.77C132.741 29.6767 132.964 29.5367 133.138 29.35C133.311 29.1633 133.398 28.94 133.398 28.68C133.398 28.3867 133.298 28.16 133.098 28C132.904 27.8333 132.661 27.7067 132.368 27.62C132.074 27.5333 131.781 27.45 131.488 27.37C130.834 27.2233 130.234 27.0233 129.688 26.77C129.148 26.51 128.718 26.18 128.398 25.78C128.078 25.3733 127.918 24.8767 127.918 24.29C127.918 23.65 128.091 23.0967 128.438 22.63C128.784 22.1567 129.238 21.7933 129.798 21.54C130.364 21.2867 130.968 21.16 131.608 21.16C132.408 21.16 133.141 21.33 133.808 21.67C134.474 22.01 134.984 22.4767 135.338 23.07L133.688 24.05C133.588 23.85 133.438 23.67 133.238 23.51C133.038 23.35 132.811 23.2233 132.558 23.13C132.304 23.03 132.041 22.9733 131.768 22.96C131.428 22.9467 131.111 22.9867 130.818 23.08C130.531 23.1667 130.301 23.3067 130.127 23.5C129.954 23.6933 129.868 23.94 129.868 24.24C129.868 24.5333 129.971 24.7533 130.178 24.9C130.384 25.04 130.644 25.1533 130.958 25.24C131.278 25.3267 131.604 25.4233 131.938 25.53C132.531 25.7167 133.088 25.9467 133.608 26.22C134.128 26.4867 134.548 26.8167 134.868 27.21C135.188 27.6033 135.341 28.0833 135.328 28.65C135.328 29.2767 135.138 29.8267 134.758 30.3C134.384 30.7733 133.898 31.1333 133.298 31.38C132.698 31.6267 132.061 31.73 131.388 31.69Z" fill="white"></path><rect x="854.5" y="0.5" width="110" height="48" rx="7.5" fill="#1A1A1A"></rect><rect x="854.5" y="0.5" width="110" height="48" rx="7.5" stroke="#262626"></rect><path d="M874.84 29V19.2H876.016V27.824H880.405V29H874.84ZM884.346 29.182C883.702 29.182 883.114 29.0163 882.582 28.685C882.054 28.3537 881.632 27.9103 881.315 27.355C881.002 26.795 880.846 26.1767 880.846 25.5C880.846 24.9867 880.937 24.5083 881.119 24.065C881.301 23.617 881.55 23.225 881.868 22.889C882.19 22.5483 882.563 22.2823 882.988 22.091C883.412 21.8997 883.865 21.804 884.346 21.804C884.873 21.804 885.356 21.9113 885.795 22.126C886.238 22.336 886.616 22.63 886.929 23.008C887.246 23.386 887.482 23.8247 887.636 24.324C887.794 24.8233 887.853 25.3577 887.811 25.927H882.099C882.155 26.3237 882.285 26.6783 882.491 26.991C882.696 27.299 882.957 27.544 883.275 27.726C883.597 27.908 883.954 28.0013 884.346 28.006C884.766 28.006 885.146 27.8987 885.487 27.684C885.827 27.4647 886.103 27.166 886.313 26.788L887.51 27.068C887.23 27.6887 886.807 28.1973 886.243 28.594C885.678 28.986 885.046 29.182 884.346 29.182ZM882.064 25.003H886.628C886.59 24.611 886.464 24.254 886.25 23.932C886.035 23.6053 885.762 23.344 885.431 23.148C885.099 22.952 884.738 22.854 884.346 22.854C883.954 22.854 883.594 22.9497 883.268 23.141C882.941 23.3323 882.67 23.5913 882.456 23.918C882.246 24.24 882.115 24.6017 882.064 25.003ZM894.577 22H895.753V29H894.577L894.528 27.817C894.309 28.223 894.006 28.552 893.618 28.804C893.236 29.056 892.778 29.182 892.246 29.182C891.733 29.182 891.252 29.0863 890.804 28.895C890.356 28.699 889.96 28.4307 889.614 28.09C889.274 27.7447 889.008 27.348 888.816 26.9C888.625 26.452 888.529 25.969 888.529 25.451C888.529 24.9517 888.623 24.4803 888.809 24.037C888.996 23.5937 889.255 23.2063 889.586 22.875C889.922 22.539 890.31 22.2777 890.748 22.091C891.187 21.8997 891.658 21.804 892.162 21.804C892.713 21.804 893.196 21.9347 893.611 22.196C894.027 22.4527 894.363 22.7863 894.619 23.197L894.577 22ZM892.225 28.041C892.687 28.041 893.086 27.929 893.422 27.705C893.763 27.4763 894.024 27.1683 894.206 26.781C894.393 26.3937 894.486 25.9667 894.486 25.5C894.486 25.024 894.393 24.5947 894.206 24.212C894.02 23.8247 893.756 23.519 893.415 23.295C893.079 23.0663 892.683 22.952 892.225 22.952C891.763 22.952 891.343 23.0663 890.965 23.295C890.587 23.5237 890.286 23.8317 890.062 24.219C889.843 24.6017 889.733 25.0287 889.733 25.5C889.733 25.9713 889.848 26.4007 890.076 26.788C890.305 27.1707 890.608 27.4763 890.986 27.705C891.364 27.929 891.777 28.041 892.225 28.041ZM897.153 29V22H898.329V22.875C898.576 22.5483 898.889 22.2893 899.267 22.098C899.645 21.902 900.055 21.804 900.499 21.804C900.769 21.804 901.031 21.839 901.283 21.909L900.807 23.085C900.615 23.0243 900.429 22.994 900.247 22.994C899.897 22.994 899.575 23.0803 899.281 23.253C898.991 23.421 898.76 23.6497 898.588 23.939C898.415 24.2283 898.329 24.5503 898.329 24.905V29H897.153ZM908.358 24.646V29H907.182V24.905C907.182 24.5503 907.096 24.2283 906.923 23.939C906.75 23.6497 906.519 23.421 906.23 23.253C905.941 23.0803 905.619 22.994 905.264 22.994C904.914 22.994 904.592 23.0803 904.298 23.253C904.009 23.421 903.778 23.6497 903.605 23.939C903.432 24.2283 903.346 24.5503 903.346 24.905V29H902.17V22H903.346V22.875C903.593 22.5483 903.906 22.2893 904.284 22.098C904.662 21.902 905.073 21.804 905.516 21.804C906.039 21.804 906.515 21.9323 906.944 22.189C907.378 22.441 907.721 22.7817 907.973 23.211C908.23 23.6403 908.358 24.1187 908.358 24.646ZM913.121 29L915.018 19.2H915.921L918.567 26.158L921.206 19.2H922.109L924.013 29H922.816L921.437 21.888L918.952 28.468H918.175L915.69 21.888L914.318 29H913.121ZM928.164 29.182C927.52 29.182 926.932 29.0163 926.4 28.685C925.873 28.3537 925.45 27.9103 925.133 27.355C924.82 26.795 924.664 26.1767 924.664 25.5C924.664 24.9867 924.755 24.5083 924.937 24.065C925.119 23.617 925.369 23.225 925.686 22.889C926.008 22.5483 926.381 22.2823 926.806 22.091C927.231 21.8997 927.683 21.804 928.164 21.804C928.808 21.804 929.394 21.9697 929.921 22.301C930.453 22.6323 930.875 23.078 931.188 23.638C931.505 24.198 931.664 24.8187 931.664 25.5C931.664 26.0087 931.573 26.4847 931.391 26.928C931.209 27.3713 930.957 27.7633 930.635 28.104C930.318 28.44 929.947 28.7037 929.522 28.895C929.102 29.0863 928.649 29.182 928.164 29.182ZM928.164 28.006C928.603 28.006 928.997 27.8917 929.347 27.663C929.702 27.4297 929.979 27.124 930.18 26.746C930.385 26.3633 930.488 25.948 930.488 25.5C930.488 25.0427 930.383 24.6227 930.173 24.24C929.968 23.8573 929.69 23.5517 929.34 23.323C928.99 23.0943 928.598 22.98 928.164 22.98C927.725 22.98 927.331 23.0967 926.981 23.33C926.631 23.5587 926.353 23.8643 926.148 24.247C925.943 24.6297 925.84 25.0473 925.84 25.5C925.84 25.9667 925.945 26.3913 926.155 26.774C926.365 27.152 926.647 27.453 927.002 27.677C927.357 27.8963 927.744 28.006 928.164 28.006ZM932.822 29V22H933.998V22.875C934.246 22.5483 934.558 22.2893 934.936 22.098C935.314 21.902 935.725 21.804 936.168 21.804C936.439 21.804 936.7 21.839 936.952 21.909L936.476 23.085C936.285 23.0243 936.098 22.994 935.916 22.994C935.566 22.994 935.244 23.0803 934.95 23.253C934.661 23.421 934.43 23.6497 934.257 23.939C934.085 24.2283 933.998 24.5503 933.998 24.905V29H932.822ZM940.537 29.182C939.893 29.182 939.305 29.0163 938.773 28.685C938.246 28.3537 937.824 27.9103 937.506 27.355C937.194 26.795 937.037 26.1767 937.037 25.5C937.037 24.9867 937.128 24.5083 937.31 24.065C937.492 23.617 937.742 23.225 938.059 22.889C938.381 22.5483 938.755 22.2823 939.179 22.091C939.604 21.8997 940.057 21.804 940.537 21.804C941.065 21.804 941.548 21.9113 941.986 22.126C942.43 22.336 942.808 22.63 943.12 23.008C943.438 23.386 943.673 23.8247 943.827 24.324C943.986 24.8233 944.044 25.3577 944.002 25.927H938.29C938.346 26.3237 938.477 26.6783 938.682 26.991C938.888 27.299 939.149 27.544 939.466 27.726C939.788 27.908 940.145 28.0013 940.537 28.006C940.957 28.006 941.338 27.8987 941.678 27.684C942.019 27.4647 942.294 27.166 942.504 26.788L943.701 27.068C943.421 27.6887 942.999 28.1973 942.434 28.594C941.87 28.986 941.237 29.182 940.537 29.182ZM938.255 25.003H942.819C942.782 24.611 942.656 24.254 942.441 23.932C942.227 23.6053 941.954 23.344 941.622 23.148C941.291 22.952 940.929 22.854 940.537 22.854C940.145 22.854 939.786 22.9497 939.459 23.141C939.133 23.3323 938.862 23.5913 938.647 23.918C938.437 24.24 938.307 24.6017 938.255 25.003Z" fill="white"></path></svg>