<svg xmlns="http://www.w3.org/2000/svg" width="427" height="114" viewBox="0 0 427 114" fill="none"><path d="M1.2 22V8H9.89V10.08H3.28V13.46H8.6V15.54H3.28V19.92H9.89V22H1.2ZM12.0984 22V12H14.1784V13.06C14.5251 12.6467 14.9484 12.32 15.4484 12.08C15.9551 11.84 16.5018 11.72 17.0884 11.72C17.8018 11.72 18.4584 11.8933 19.0584 12.24C19.6584 12.58 20.1351 13.0333 20.4884 13.6C20.8418 13.0333 21.3118 12.58 21.8984 12.24C22.4918 11.8933 23.1451 11.72 23.8584 11.72C24.5984 11.72 25.2718 11.9 25.8784 12.26C26.4851 12.62 26.9684 13.1033 27.3284 13.71C27.6884 14.3167 27.8684 14.99 27.8684 15.73V22H25.7884V16.26C25.7884 15.82 25.6818 15.4167 25.4684 15.05C25.2551 14.6833 24.9684 14.3867 24.6084 14.16C24.2484 13.9333 23.8484 13.82 23.4084 13.82C22.9684 13.82 22.5684 13.9267 22.2084 14.14C21.8484 14.3533 21.5618 14.6433 21.3484 15.01C21.1351 15.3767 21.0284 15.7933 21.0284 16.26V22H18.9484V16.26C18.9484 15.7933 18.8418 15.3767 18.6284 15.01C18.4151 14.6433 18.1251 14.3533 17.7584 14.14C17.3984 13.9267 16.9984 13.82 16.5584 13.82C16.1251 13.82 15.7251 13.9333 15.3584 14.16C14.9984 14.3867 14.7118 14.6833 14.4984 15.05C14.2851 15.4167 14.1784 15.82 14.1784 16.26V22H12.0984ZM37.4566 12H39.5366V22H37.4466L37.3666 20.55C37.0732 21.0633 36.6766 21.4767 36.1766 21.79C35.6766 22.1033 35.0866 22.26 34.4066 22.26C33.6732 22.26 32.9832 22.1233 32.3366 21.85C31.6899 21.57 31.1199 21.1833 30.6266 20.69C30.1399 20.1967 29.7599 19.63 29.4866 18.99C29.2132 18.3433 29.0766 17.65 29.0766 16.91C29.0766 16.1967 29.2099 15.5267 29.4766 14.9C29.7432 14.2667 30.1132 13.7133 30.5866 13.24C31.0599 12.7667 31.6066 12.3967 32.2266 12.13C32.8532 11.8567 33.5232 11.72 34.2366 11.72C34.9632 11.72 35.6032 11.8867 36.1566 12.22C36.7166 12.5467 37.1799 12.9667 37.5466 13.48L37.4566 12ZM34.3566 20.25C34.9432 20.25 35.4566 20.1067 35.8966 19.82C36.3366 19.5267 36.6766 19.1333 36.9166 18.64C37.1632 18.1467 37.2866 17.6 37.2866 17C37.2866 16.3933 37.1632 15.8433 36.9166 15.35C36.6699 14.8567 36.3266 14.4667 35.8866 14.18C35.4532 13.8867 34.9432 13.74 34.3566 13.74C33.7766 13.74 33.2466 13.8867 32.7666 14.18C32.2866 14.4733 31.9066 14.8667 31.6266 15.36C31.3466 15.8533 31.2066 16.4 31.2066 17C31.2066 17.6067 31.3499 18.1567 31.6366 18.65C31.9299 19.1367 32.3132 19.5267 32.7866 19.82C33.2666 20.1067 33.7899 20.25 34.3566 20.25ZM41.532 12H43.612V22H41.532V12ZM42.592 10.55C42.272 10.55 42.0054 10.4467 41.792 10.24C41.5787 10.0333 41.472 9.77333 41.472 9.46C41.472 9.15333 41.5787 8.89667 41.792 8.69C42.0054 8.47667 42.2687 8.37 42.582 8.37C42.8887 8.37 43.1487 8.47667 43.362 8.69C43.5754 8.89667 43.682 9.15333 43.682 9.46C43.682 9.77333 43.5754 10.0333 43.362 10.24C43.1554 10.4467 42.8987 10.55 42.592 10.55ZM46.0438 22V7H48.1238V22H46.0438Z" fill="white"></path><rect x="0.5" y="46.5" width="426" height="67" rx="7.5" fill="#1A1A1A"></rect><rect x="0.5" y="46.5" width="426" height="67" rx="7.5" stroke="#262626"></rect><path d="M21.08 86V73.4H28.811V74.912H22.592V78.494H27.686V80.006H22.592V84.488H28.811V86H21.08ZM38.7391 80.402V86H37.2271V80.735C37.2271 80.279 37.1161 79.865 36.8941 79.493C36.6721 79.121 36.3751 78.827 36.0031 78.611C35.6311 78.389 35.2171 78.278 34.7611 78.278C34.3111 78.278 33.8971 78.389 33.5191 78.611C33.1471 78.827 32.8501 79.121 32.6281 79.493C32.4061 79.865 32.2951 80.279 32.2951 80.735V86H30.7831V77H32.2951V78.125C32.6131 77.705 33.0151 77.372 33.5011 77.126C33.9871 76.874 34.5151 76.748 35.0851 76.748C35.7571 76.748 36.3691 76.913 36.9211 77.243C37.4791 77.567 37.9201 78.005 38.2441 78.557C38.5741 79.109 38.7391 79.724 38.7391 80.402ZM45.201 78.512H43.158L43.149 86H41.637L41.646 78.512H40.098V77H41.646L41.637 74.174H43.149L43.158 77H45.201V78.512ZM50.5459 86.234C49.7179 86.234 48.9619 86.021 48.2779 85.595C47.5999 85.169 47.0569 84.599 46.6489 83.885C46.2469 83.165 46.0459 82.37 46.0459 81.5C46.0459 80.84 46.1629 80.225 46.3969 79.655C46.6309 79.079 46.9519 78.575 47.3599 78.143C47.7739 77.705 48.2539 77.363 48.7999 77.117C49.3459 76.871 49.9279 76.748 50.5459 76.748C51.2239 76.748 51.8449 76.886 52.4089 77.162C52.9789 77.432 53.4649 77.81 53.8669 78.296C54.2749 78.782 54.5779 79.346 54.7759 79.988C54.9799 80.63 55.0549 81.317 55.0009 82.049H47.6569C47.7289 82.559 47.8969 83.015 48.1609 83.417C48.4249 83.813 48.7609 84.128 49.1689 84.362C49.5829 84.596 50.0419 84.716 50.5459 84.722C51.0859 84.722 51.5749 84.584 52.0129 84.308C52.4509 84.026 52.8049 83.642 53.0749 83.156L54.6139 83.516C54.2539 84.314 53.7109 84.968 52.9849 85.478C52.2589 85.982 51.4459 86.234 50.5459 86.234ZM47.6119 80.861H53.4799C53.4319 80.357 53.2699 79.898 52.9939 79.484C52.7179 79.064 52.3669 78.728 51.9409 78.476C51.5149 78.224 51.0499 78.098 50.5459 78.098C50.0419 78.098 49.5799 78.221 49.1599 78.467C48.7399 78.713 48.3919 79.046 48.1159 79.466C47.8459 79.88 47.6779 80.345 47.6119 80.861ZM56.5175 86V77H58.0295V78.125C58.3475 77.705 58.7495 77.372 59.2355 77.126C59.7215 76.874 60.2495 76.748 60.8195 76.748C61.1675 76.748 61.5035 76.793 61.8275 76.883L61.2155 78.395C60.9695 78.317 60.7295 78.278 60.4955 78.278C60.0455 78.278 59.6315 78.389 59.2535 78.611C58.8815 78.827 58.5845 79.121 58.3625 79.493C58.1405 79.865 58.0295 80.279 58.0295 80.735V86H56.5175ZM73.5809 77H75.1829L70.2599 90.5H68.6579L70.2869 86L67.0559 77H68.7119L71.0429 83.921L73.5809 77ZM80.3056 86.234C79.4776 86.234 78.7216 86.021 78.0376 85.595C77.3596 85.169 76.8166 84.599 76.4086 83.885C76.0066 83.165 75.8056 82.37 75.8056 81.5C75.8056 80.84 75.9226 80.225 76.1566 79.655C76.3906 79.079 76.7116 78.575 77.1196 78.143C77.5336 77.705 78.0136 77.363 78.5596 77.117C79.1056 76.871 79.6876 76.748 80.3056 76.748C81.1336 76.748 81.8866 76.961 82.5646 77.387C83.2486 77.813 83.7916 78.386 84.1936 79.106C84.6016 79.826 84.8056 80.624 84.8056 81.5C84.8056 82.154 84.6886 82.766 84.4546 83.336C84.2206 83.906 83.8966 84.41 83.4826 84.848C83.0746 85.28 82.5976 85.619 82.0516 85.865C81.5116 86.111 80.9296 86.234 80.3056 86.234ZM80.3056 84.722C80.8696 84.722 81.3766 84.575 81.8266 84.281C82.2826 83.981 82.6396 83.588 82.8976 83.102C83.1616 82.61 83.2936 82.076 83.2936 81.5C83.2936 80.912 83.1586 80.372 82.8886 79.88C82.6246 79.388 82.2676 78.995 81.8176 78.701C81.3676 78.407 80.8636 78.26 80.3056 78.26C79.7416 78.26 79.2346 78.41 78.7846 78.71C78.3346 79.004 77.9776 79.397 77.7136 79.889C77.4496 80.381 77.3176 80.918 77.3176 81.5C77.3176 82.1 77.4526 82.646 77.7226 83.138C77.9926 83.624 78.3556 84.011 78.8116 84.299C79.2676 84.581 79.7656 84.722 80.3056 84.722ZM85.8118 82.58V77H87.3238V82.247C87.3238 82.703 87.4348 83.117 87.6568 83.489C87.8788 83.861 88.1758 84.158 88.5478 84.38C88.9258 84.596 89.3398 84.704 89.7898 84.704C90.2458 84.704 90.6568 84.596 91.0228 84.38C91.3948 84.158 91.6918 83.861 91.9138 83.489C92.1358 83.117 92.2468 82.703 92.2468 82.247V77H93.7588L93.7678 86H92.2558L92.2468 84.857C91.9288 85.277 91.5268 85.613 91.0408 85.865C90.5548 86.111 90.0298 86.234 89.4658 86.234C88.7938 86.234 88.1788 86.072 87.6208 85.748C87.0688 85.418 86.6278 84.977 86.2978 84.425C85.9738 83.873 85.8118 83.258 85.8118 82.58ZM95.5761 86V77H97.0881V78.125C97.4061 77.705 97.8081 77.372 98.2941 77.126C98.7801 76.874 99.3081 76.748 99.8781 76.748C100.226 76.748 100.562 76.793 100.886 76.883L100.274 78.395C100.028 78.317 99.7881 78.278 99.5541 78.278C99.1041 78.278 98.6901 78.389 98.3121 78.611C97.9401 78.827 97.6431 79.121 97.4211 79.493C97.1991 79.865 97.0881 80.279 97.0881 80.735V86H95.5761ZM106.475 86V73.4H114.206V74.912H107.987V78.494H113.081V80.006H107.987V84.488H114.206V86H106.475ZM116.178 86V77H117.69V78.125C118.008 77.705 118.407 77.372 118.887 77.126C119.373 76.874 119.901 76.748 120.471 76.748C121.137 76.748 121.746 76.91 122.298 77.234C122.85 77.558 123.285 77.987 123.603 78.521C123.921 77.987 124.353 77.558 124.899 77.234C125.451 76.91 126.057 76.748 126.717 76.748C127.395 76.748 128.01 76.913 128.562 77.243C129.114 77.567 129.552 78.005 129.876 78.557C130.206 79.109 130.371 79.724 130.371 80.402V86H128.859V80.762C128.859 80.318 128.751 79.907 128.535 79.529C128.319 79.151 128.028 78.848 127.662 78.62C127.296 78.392 126.891 78.278 126.447 78.278C126.003 78.278 125.598 78.386 125.232 78.602C124.866 78.812 124.575 79.106 124.359 79.484C124.143 79.856 124.035 80.282 124.035 80.762V86H122.523V80.762C122.523 80.282 122.415 79.856 122.199 79.484C121.983 79.106 121.689 78.812 121.317 78.602C120.951 78.386 120.546 78.278 120.102 78.278C119.664 78.278 119.259 78.392 118.887 78.62C118.521 78.848 118.23 79.151 118.014 79.529C117.798 79.907 117.69 80.318 117.69 80.762V86H116.178ZM139.234 77H140.746V86H139.234L139.171 84.479C138.889 85.001 138.499 85.424 138.001 85.748C137.509 86.072 136.921 86.234 136.237 86.234C135.577 86.234 134.959 86.111 134.383 85.865C133.807 85.613 133.297 85.268 132.853 84.83C132.415 84.386 132.073 83.876 131.827 83.3C131.581 82.724 131.458 82.103 131.458 81.437C131.458 80.795 131.578 80.189 131.818 79.619C132.058 79.049 132.391 78.551 132.817 78.125C133.249 77.693 133.747 77.357 134.311 77.117C134.875 76.871 135.481 76.748 136.129 76.748C136.837 76.748 137.458 76.916 137.992 77.252C138.526 77.582 138.958 78.011 139.288 78.539L139.234 77ZM136.21 84.767C136.804 84.767 137.317 84.623 137.749 84.335C138.187 84.041 138.523 83.645 138.757 83.147C138.997 82.649 139.117 82.1 139.117 81.5C139.117 80.888 138.997 80.336 138.757 79.844C138.517 79.346 138.178 78.953 137.74 78.665C137.308 78.371 136.798 78.224 136.21 78.224C135.616 78.224 135.076 78.371 134.59 78.665C134.104 78.959 133.717 79.355 133.429 79.853C133.147 80.345 133.006 80.894 133.006 81.5C133.006 82.106 133.153 82.658 133.447 83.156C133.741 83.648 134.131 84.041 134.617 84.335C135.103 84.623 135.634 84.767 136.21 84.767ZM142.545 77H144.057V86H142.545V77ZM143.319 75.533C143.079 75.533 142.878 75.455 142.716 75.299C142.554 75.143 142.473 74.948 142.473 74.714C142.473 74.48 142.554 74.285 142.716 74.129C142.878 73.973 143.076 73.895 143.31 73.895C143.544 73.895 143.742 73.973 143.904 74.129C144.066 74.285 144.147 74.48 144.147 74.714C144.147 74.948 144.066 75.143 143.904 75.299C143.748 75.455 143.553 75.533 143.319 75.533ZM146.271 86V72.5H147.783V86H146.271Z" fill="#666666"></path></svg>