<svg xmlns="http://www.w3.org/2000/svg" width="674" height="114" viewBox="0 0 674 114" fill="none"><path d="M1.2 22V8H6.17C6.89 8 7.54 8.14667 8.12 8.44C8.70667 8.73333 9.17 9.15667 9.51 9.71C9.85667 10.2567 10.03 10.9133 10.03 11.68C10.03 12.0533 9.97 12.42 9.85 12.78C9.73 13.14 9.56 13.4567 9.34 13.73C9.12 14.0033 8.85333 14.1967 8.54 14.31C8.96667 14.4167 9.32 14.61 9.6 14.89C9.88667 15.1633 10.1133 15.4833 10.28 15.85C10.4467 16.2167 10.5633 16.5967 10.63 16.99C10.7033 17.3833 10.74 17.7567 10.74 18.11C10.74 18.8567 10.56 19.5233 10.2 20.11C9.84 20.6967 9.35667 21.16 8.75 21.5C8.15 21.8333 7.48667 22 6.76 22H1.2ZM3.28 20.2H6.56C6.98667 20.2 7.37333 20.0933 7.72 19.88C8.07333 19.6667 8.35333 19.3733 8.56 19C8.76667 18.62 8.87 18.1933 8.87 17.72C8.87 17.3067 8.76667 16.9167 8.56 16.55C8.35333 16.1767 8.07333 15.8767 7.72 15.65C7.37333 15.4233 6.98667 15.31 6.56 15.31H3.28V20.2ZM3.28 13.54H5.95C6.49667 13.54 6.96667 13.3733 7.36 13.04C7.75333 12.7067 7.95 12.25 7.95 11.67C7.95 11.05 7.75333 10.5867 7.36 10.28C6.96667 9.96667 6.49667 9.81 5.95 9.81H3.28V13.54ZM12.0305 18.25V12H14.1105V17.74C14.1105 18.1867 14.2205 18.5933 14.4405 18.96C14.6605 19.3267 14.9538 19.62 15.3205 19.84C15.6871 20.0533 16.0905 20.16 16.5305 20.16C16.9771 20.16 17.3805 20.0533 17.7405 19.84C18.1071 19.62 18.3971 19.3267 18.6105 18.96C18.8305 18.5933 18.9405 18.1867 18.9405 17.74V12H21.0205L21.0305 22H18.9505L18.9405 20.92C18.6005 21.3333 18.1771 21.66 17.6705 21.9C17.1638 22.14 16.6205 22.26 16.0405 22.26C15.3005 22.26 14.6271 22.08 14.0205 21.72C13.4138 21.36 12.9305 20.8767 12.5705 20.27C12.2105 19.6633 12.0305 18.99 12.0305 18.25ZM30.6892 7H32.7692V22H30.6892V20.53C30.3626 21.05 29.9359 21.47 29.4092 21.79C28.8826 22.1033 28.2659 22.26 27.5592 22.26C26.8326 22.26 26.1526 22.1233 25.5192 21.85C24.8859 21.5767 24.3259 21.2 23.8392 20.72C23.3592 20.2333 22.9826 19.6733 22.7092 19.04C22.4359 18.4067 22.2992 17.7267 22.2992 17C22.2992 16.2733 22.4359 15.5933 22.7092 14.96C22.9826 14.32 23.3592 13.76 23.8392 13.28C24.3259 12.7933 24.8859 12.4133 25.5192 12.14C26.1526 11.8667 26.8326 11.73 27.5592 11.73C28.2659 11.73 28.8826 11.89 29.4092 12.21C29.9359 12.5233 30.3626 12.9367 30.6892 13.45V7ZM27.5792 20.25C28.1659 20.25 28.6792 20.1067 29.1192 19.82C29.5592 19.5267 29.8992 19.1333 30.1392 18.64C30.3859 18.1467 30.5092 17.6 30.5092 17C30.5092 16.3933 30.3859 15.8433 30.1392 15.35C29.8926 14.8567 29.5492 14.4667 29.1092 14.18C28.6759 13.8867 28.1659 13.74 27.5792 13.74C26.9992 13.74 26.4692 13.8867 25.9892 14.18C25.5159 14.4733 25.1359 14.8667 24.8492 15.36C24.5692 15.8533 24.4292 16.4 24.4292 17C24.4292 17.6067 24.5726 18.1567 24.8592 18.65C25.1526 19.1367 25.5359 19.5267 26.0092 19.82C26.4892 20.1067 27.0126 20.25 27.5792 20.25ZM42.6381 12H44.7181V22.26C44.7181 22.9467 44.5715 23.58 44.2781 24.16C43.9915 24.74 43.6015 25.24 43.1081 25.66C42.6148 26.0867 42.0481 26.4167 41.4081 26.65C40.7748 26.8833 40.1115 27 39.4181 27C38.7181 27 38.0448 26.85 37.3981 26.55C36.7515 26.2567 36.1815 25.8567 35.6881 25.35C35.2015 24.8433 34.8381 24.27 34.5981 23.63L36.5081 22.77C36.6415 23.1833 36.8548 23.55 37.1481 23.87C37.4481 24.19 37.7948 24.4433 38.1881 24.63C38.5881 24.8167 38.9981 24.91 39.4181 24.91C39.8315 24.91 40.2281 24.8433 40.6081 24.71C40.9948 24.5833 41.3381 24.4033 41.6381 24.17C41.9448 23.9367 42.1881 23.6567 42.3681 23.33C42.5481 23.0033 42.6381 22.6467 42.6381 22.26V20.57C42.3115 21.0767 41.8915 21.4867 41.3781 21.8C40.8648 22.1067 40.2681 22.26 39.5881 22.26C38.8815 22.26 38.2148 22.1233 37.5881 21.85C36.9615 21.5767 36.4115 21.2 35.9381 20.72C35.4648 20.2333 35.0948 19.6733 34.8281 19.04C34.5615 18.4067 34.4281 17.7267 34.4281 17C34.4281 16.2733 34.5615 15.5933 34.8281 14.96C35.0948 14.32 35.4648 13.76 35.9381 13.28C36.4115 12.7933 36.9615 12.4133 37.5881 12.14C38.2148 11.8667 38.8815 11.73 39.5881 11.73C40.2681 11.73 40.8648 11.8867 41.3781 12.2C41.8915 12.5067 42.3115 12.9167 42.6381 13.43V12ZM39.6081 20.25C40.1881 20.25 40.6948 20.1033 41.1281 19.81C41.5615 19.51 41.8981 19.1133 42.1381 18.62C42.3781 18.1267 42.4981 17.5867 42.4981 17C42.4981 16.4 42.3748 15.8567 42.1281 15.37C41.8881 14.8767 41.5515 14.4833 41.1181 14.19C40.6848 13.89 40.1815 13.74 39.6081 13.74C39.0481 13.74 38.5348 13.8867 38.0681 14.18C37.6081 14.4733 37.2415 14.8667 36.9681 15.36C36.6948 15.8533 36.5581 16.4 36.5581 17C36.5581 17.6 36.6948 18.1467 36.9681 18.64C37.2481 19.1333 37.6181 19.5267 38.0781 19.82C38.5448 20.1067 39.0548 20.25 39.6081 20.25ZM51.3422 22.26C50.4222 22.26 49.5822 22.0233 48.8222 21.55C48.0689 21.0767 47.4655 20.4433 47.0122 19.65C46.5655 18.85 46.3422 17.9667 46.3422 17C46.3422 16.2667 46.4722 15.5833 46.7322 14.95C46.9922 14.31 47.3489 13.75 47.8022 13.27C48.2622 12.7833 48.7955 12.4033 49.4022 12.13C50.0089 11.8567 50.6555 11.72 51.3422 11.72C52.1089 11.72 52.8122 11.88 53.4522 12.2C54.0922 12.5133 54.6389 12.95 55.0922 13.51C55.5455 14.0633 55.8789 14.7033 56.0922 15.43C56.3055 16.15 56.3689 16.9167 56.2822 17.73H48.5722C48.6589 18.19 48.8255 18.6067 49.0722 18.98C49.3255 19.3467 49.6455 19.6367 50.0322 19.85C50.4255 20.0633 50.8622 20.1733 51.3422 20.18C51.8489 20.18 52.3089 20.0533 52.7222 19.8C53.1422 19.5467 53.4855 19.1967 53.7522 18.75L55.8622 19.24C55.4622 20.1267 54.8589 20.8533 54.0522 21.42C53.2455 21.98 52.3422 22.26 51.3422 22.26ZM48.5022 16.14H54.1822C54.1155 15.66 53.9455 15.2267 53.6722 14.84C53.4055 14.4467 53.0689 14.1367 52.6622 13.91C52.2622 13.6767 51.8222 13.56 51.3422 13.56C50.8689 13.56 50.4289 13.6733 50.0222 13.9C49.6222 14.1267 49.2889 14.4367 49.0222 14.83C48.7622 15.2167 48.5889 15.6533 48.5022 16.14ZM63.1597 14.08H61.0597L61.0497 22H58.9697L58.9797 14.08H57.3897V12H58.9797L58.9697 8.86H61.0497L61.0597 12H63.1597V14.08Z" fill="white"></path><rect x="0.5" y="46.5" width="672.5" height="67" rx="7.5" fill="#1A1A1A"></rect><rect x="0.5" y="46.5" width="672.5" height="67" rx="7.5" stroke="#262626"></rect><path d="M25.517 86.234C24.839 86.234 24.185 86.129 23.555 85.919C22.925 85.703 22.373 85.397 21.899 85.001C21.431 84.605 21.098 84.134 20.9 83.588L22.313 83.057C22.433 83.393 22.655 83.687 22.979 83.939C23.309 84.185 23.696 84.377 24.14 84.515C24.584 84.653 25.043 84.722 25.517 84.722C26.057 84.722 26.558 84.635 27.02 84.461C27.488 84.281 27.866 84.032 28.154 83.714C28.442 83.396 28.586 83.024 28.586 82.598C28.586 82.16 28.436 81.803 28.136 81.527C27.836 81.245 27.452 81.023 26.984 80.861C26.516 80.693 26.027 80.564 25.517 80.474C24.647 80.33 23.867 80.126 23.177 79.862C22.493 79.592 21.95 79.217 21.548 78.737C21.152 78.257 20.954 77.624 20.954 76.838C20.954 76.106 21.164 75.467 21.584 74.921C22.01 74.375 22.571 73.952 23.267 73.652C23.963 73.352 24.713 73.202 25.517 73.202C26.183 73.202 26.828 73.307 27.452 73.517C28.082 73.721 28.637 74.021 29.117 74.417C29.597 74.813 29.942 75.296 30.152 75.866L28.721 76.388C28.601 76.046 28.376 75.752 28.046 75.506C27.722 75.254 27.338 75.062 26.894 74.93C26.456 74.792 25.997 74.723 25.517 74.723C24.983 74.717 24.485 74.804 24.023 74.984C23.561 75.164 23.186 75.413 22.898 75.731C22.61 76.049 22.466 76.418 22.466 76.838C22.466 77.342 22.598 77.729 22.862 77.999C23.132 78.263 23.498 78.461 23.96 78.593C24.422 78.725 24.941 78.842 25.517 78.944C26.333 79.082 27.089 79.301 27.785 79.601C28.481 79.895 29.039 80.288 29.459 80.78C29.885 81.272 30.098 81.878 30.098 82.598C30.098 83.33 29.885 83.969 29.459 84.515C29.039 85.061 28.481 85.484 27.785 85.784C27.089 86.084 26.333 86.234 25.517 86.234ZM35.9384 86.234C35.1104 86.234 34.3544 86.021 33.6704 85.595C32.9924 85.169 32.4494 84.599 32.0414 83.885C31.6394 83.165 31.4384 82.37 31.4384 81.5C31.4384 80.84 31.5554 80.225 31.7894 79.655C32.0234 79.079 32.3444 78.575 32.7524 78.143C33.1664 77.705 33.6464 77.363 34.1924 77.117C34.7384 76.871 35.3204 76.748 35.9384 76.748C36.6164 76.748 37.2374 76.886 37.8014 77.162C38.3714 77.432 38.8574 77.81 39.2594 78.296C39.6674 78.782 39.9704 79.346 40.1684 79.988C40.3724 80.63 40.4474 81.317 40.3934 82.049H33.0494C33.1214 82.559 33.2894 83.015 33.5534 83.417C33.8174 83.813 34.1534 84.128 34.5614 84.362C34.9754 84.596 35.4344 84.716 35.9384 84.722C36.4784 84.722 36.9674 84.584 37.4054 84.308C37.8434 84.026 38.1974 83.642 38.4674 83.156L40.0064 83.516C39.6464 84.314 39.1034 84.968 38.3774 85.478C37.6514 85.982 36.8384 86.234 35.9384 86.234ZM33.0044 80.861H38.8724C38.8244 80.357 38.6624 79.898 38.3864 79.484C38.1104 79.064 37.7594 78.728 37.3334 78.476C36.9074 78.224 36.4424 78.098 35.9384 78.098C35.4344 78.098 34.9724 78.221 34.5524 78.467C34.1324 78.713 33.7844 79.046 33.5084 79.466C33.2384 79.88 33.0704 80.345 33.0044 80.861ZM41.8222 86V72.5H43.3342V86H41.8222ZM49.3681 86.234C48.5401 86.234 47.7841 86.021 47.1001 85.595C46.4221 85.169 45.8791 84.599 45.4711 83.885C45.0691 83.165 44.8681 82.37 44.8681 81.5C44.8681 80.84 44.9851 80.225 45.2191 79.655C45.4531 79.079 45.7741 78.575 46.1821 78.143C46.5961 77.705 47.0761 77.363 47.6221 77.117C48.1681 76.871 48.7501 76.748 49.3681 76.748C50.0461 76.748 50.6671 76.886 51.2311 77.162C51.8011 77.432 52.2871 77.81 52.6891 78.296C53.0971 78.782 53.4001 79.346 53.5981 79.988C53.8021 80.63 53.8771 81.317 53.8231 82.049H46.4791C46.5511 82.559 46.7191 83.015 46.9831 83.417C47.2471 83.813 47.5831 84.128 47.9911 84.362C48.4051 84.596 48.8641 84.716 49.3681 84.722C49.9081 84.722 50.3971 84.584 50.8351 84.308C51.2731 84.026 51.6271 83.642 51.8971 83.156L53.4361 83.516C53.0761 84.314 52.5331 84.968 51.8071 85.478C51.0811 85.982 50.2681 86.234 49.3681 86.234ZM46.4341 80.861H52.3021C52.2541 80.357 52.0921 79.898 51.8161 79.484C51.5401 79.064 51.1891 78.728 50.7631 78.476C50.3371 78.224 49.8721 78.098 49.3681 78.098C48.8641 78.098 48.4021 78.221 47.9821 78.467C47.5621 78.713 47.2141 79.046 46.9381 79.466C46.6681 79.88 46.5001 80.345 46.4341 80.861ZM61.488 83.624L62.838 84.353C62.43 84.923 61.911 85.379 61.281 85.721C60.657 86.063 59.979 86.234 59.247 86.234C58.419 86.234 57.663 86.021 56.979 85.595C56.301 85.169 55.758 84.599 55.35 83.885C54.948 83.165 54.747 82.37 54.747 81.5C54.747 80.84 54.864 80.225 55.098 79.655C55.332 79.079 55.653 78.575 56.061 78.143C56.475 77.705 56.955 77.363 57.501 77.117C58.047 76.871 58.629 76.748 59.247 76.748C59.979 76.748 60.657 76.919 61.281 77.261C61.911 77.603 62.43 78.062 62.838 78.638L61.488 79.367C61.2 79.013 60.858 78.74 60.462 78.548C60.066 78.356 59.661 78.26 59.247 78.26C58.689 78.26 58.182 78.41 57.726 78.71C57.276 79.004 56.919 79.397 56.655 79.889C56.391 80.381 56.259 80.918 56.259 81.5C56.259 82.082 56.391 82.619 56.655 83.111C56.925 83.597 57.285 83.987 57.735 84.281C58.191 84.575 58.695 84.722 59.247 84.722C59.691 84.722 60.108 84.62 60.498 84.416C60.888 84.212 61.218 83.948 61.488 83.624ZM69.1248 78.512H67.0818L67.0728 86H65.5608L65.5698 78.512H64.0218V77H65.5698L65.5608 74.174H67.0728L67.0818 77H69.1248V78.512ZM75.0624 86V73.4H79.4094C80.0334 73.4 80.6004 73.529 81.1104 73.787C81.6264 74.039 82.0344 74.408 82.3344 74.894C82.6344 75.38 82.7844 75.962 82.7844 76.64C82.7844 77.006 82.7214 77.36 82.5954 77.702C82.4754 78.038 82.3074 78.329 82.0914 78.575C81.8814 78.815 81.6414 78.977 81.3714 79.061C81.7494 79.157 82.0704 79.328 82.3344 79.574C82.5984 79.814 82.8114 80.096 82.9734 80.42C83.1414 80.744 83.2614 81.083 83.3334 81.437C83.4054 81.791 83.4414 82.133 83.4414 82.463C83.4414 83.159 83.2824 83.774 82.9644 84.308C82.6524 84.836 82.2324 85.25 81.7044 85.55C81.1764 85.85 80.5944 86 79.9584 86H75.0624ZM76.5744 84.668H79.8234C80.2374 84.668 80.6124 84.563 80.9484 84.353C81.2904 84.137 81.5634 83.843 81.7674 83.471C81.9714 83.099 82.0734 82.679 82.0734 82.211C82.0734 81.797 81.9714 81.407 81.7674 81.041C81.5634 80.669 81.2904 80.369 80.9484 80.141C80.6124 79.913 80.2374 79.799 79.8234 79.799H76.5744V84.668ZM76.5744 78.494H79.2654C79.8174 78.494 80.2884 78.332 80.6784 78.008C81.0744 77.678 81.2724 77.219 81.2724 76.631C81.2724 75.995 81.0744 75.521 80.6784 75.209C80.2884 74.891 79.8174 74.732 79.2654 74.732H76.5744V78.494ZM84.6692 82.58V77H86.1812V82.247C86.1812 82.703 86.2922 83.117 86.5142 83.489C86.7362 83.861 87.0332 84.158 87.4052 84.38C87.7832 84.596 88.1972 84.704 88.6472 84.704C89.1032 84.704 89.5142 84.596 89.8802 84.38C90.2522 84.158 90.5492 83.861 90.7712 83.489C90.9932 83.117 91.1042 82.703 91.1042 82.247V77H92.6162L92.6252 86H91.1132L91.1042 84.857C90.7862 85.277 90.3842 85.613 89.8982 85.865C89.4122 86.111 88.8872 86.234 88.3232 86.234C87.6512 86.234 87.0362 86.072 86.4782 85.748C85.9262 85.418 85.4852 84.977 85.1552 84.425C84.8312 83.873 84.6692 83.258 84.6692 82.58ZM101.591 72.5H103.103V86H101.591V84.47C101.285 84.998 100.874 85.424 100.358 85.748C99.8416 86.072 99.2356 86.234 98.5396 86.234C97.8856 86.234 97.2736 86.111 96.7036 85.865C96.1336 85.619 95.6296 85.28 95.1916 84.848C94.7596 84.41 94.4206 83.906 94.1746 83.336C93.9286 82.766 93.8056 82.154 93.8056 81.5C93.8056 80.846 93.9286 80.234 94.1746 79.664C94.4206 79.088 94.7596 78.584 95.1916 78.152C95.6296 77.714 96.1336 77.372 96.7036 77.126C97.2736 76.88 97.8856 76.757 98.5396 76.757C99.2356 76.757 99.8416 76.919 100.358 77.243C100.874 77.567 101.285 77.993 101.591 78.521V72.5ZM98.5576 84.767C99.1516 84.767 99.6646 84.623 100.097 84.335C100.535 84.041 100.871 83.645 101.105 83.147C101.345 82.649 101.465 82.1 101.465 81.5C101.465 80.888 101.345 80.336 101.105 79.844C100.865 79.346 100.526 78.953 100.088 78.665C99.6556 78.371 99.1456 78.224 98.5576 78.224C97.9636 78.224 97.4236 78.371 96.9376 78.665C96.4576 78.959 96.0736 79.355 95.7856 79.853C95.4976 80.345 95.3536 80.894 95.3536 81.5C95.3536 82.106 95.5006 82.658 95.7946 83.156C96.0886 83.648 96.4786 84.041 96.9646 84.335C97.4506 84.623 97.9816 84.767 98.5576 84.767ZM112.203 77H113.715V86.288C113.715 86.882 113.586 87.434 113.328 87.944C113.076 88.46 112.734 88.907 112.302 89.285C111.87 89.669 111.378 89.966 110.826 90.176C110.274 90.392 109.698 90.5 109.098 90.5C108.474 90.5 107.871 90.359 107.289 90.077C106.707 89.801 106.197 89.429 105.759 88.961C105.327 88.499 105.015 87.98 104.823 87.404L106.209 86.774C106.323 87.188 106.527 87.56 106.821 87.89C107.121 88.226 107.469 88.49 107.865 88.682C108.267 88.88 108.678 88.979 109.098 88.979C109.494 88.979 109.875 88.91 110.241 88.772C110.613 88.634 110.946 88.442 111.24 88.196C111.54 87.956 111.774 87.671 111.942 87.341C112.116 87.017 112.203 86.666 112.203 86.288V84.497C111.897 85.013 111.492 85.433 110.988 85.757C110.49 86.075 109.908 86.234 109.242 86.234C108.606 86.234 108.009 86.111 107.451 85.865C106.893 85.619 106.404 85.28 105.984 84.848C105.564 84.41 105.234 83.906 104.994 83.336C104.754 82.766 104.634 82.154 104.634 81.5C104.634 80.846 104.754 80.234 104.994 79.664C105.234 79.088 105.564 78.584 105.984 78.152C106.404 77.714 106.893 77.372 107.451 77.126C108.009 76.88 108.606 76.757 109.242 76.757C109.908 76.757 110.49 76.916 110.988 77.234C111.492 77.552 111.897 77.972 112.203 78.494V77ZM109.251 84.767C109.833 84.767 110.337 84.617 110.763 84.317C111.195 84.017 111.528 83.618 111.762 83.12C111.996 82.622 112.113 82.082 112.113 81.5C112.113 80.9 111.993 80.354 111.753 79.862C111.519 79.364 111.186 78.968 110.754 78.674C110.328 78.374 109.827 78.224 109.251 78.224C108.687 78.224 108.171 78.371 107.703 78.665C107.235 78.959 106.863 79.355 106.587 79.853C106.317 80.345 106.182 80.894 106.182 81.5C106.182 82.106 106.32 82.658 106.596 83.156C106.878 83.648 107.25 84.041 107.712 84.335C108.18 84.623 108.693 84.767 109.251 84.767ZM119.716 86.234C118.888 86.234 118.132 86.021 117.448 85.595C116.77 85.169 116.227 84.599 115.819 83.885C115.417 83.165 115.216 82.37 115.216 81.5C115.216 80.84 115.333 80.225 115.567 79.655C115.801 79.079 116.122 78.575 116.53 78.143C116.944 77.705 117.424 77.363 117.97 77.117C118.516 76.871 119.098 76.748 119.716 76.748C120.394 76.748 121.015 76.886 121.579 77.162C122.149 77.432 122.635 77.81 123.037 78.296C123.445 78.782 123.748 79.346 123.946 79.988C124.15 80.63 124.225 81.317 124.171 82.049H116.827C116.899 82.559 117.067 83.015 117.331 83.417C117.595 83.813 117.931 84.128 118.339 84.362C118.753 84.596 119.212 84.716 119.716 84.722C120.256 84.722 120.745 84.584 121.183 84.308C121.621 84.026 121.975 83.642 122.245 83.156L123.784 83.516C123.424 84.314 122.881 84.968 122.155 85.478C121.429 85.982 120.616 86.234 119.716 86.234ZM116.782 80.861H122.65C122.602 80.357 122.44 79.898 122.164 79.484C121.888 79.064 121.537 78.728 121.111 78.476C120.685 78.224 120.22 78.098 119.716 78.098C119.212 78.098 118.75 78.221 118.33 78.467C117.91 78.713 117.562 79.046 117.286 79.466C117.016 79.88 116.848 80.345 116.782 80.861ZM130.244 78.512H128.201L128.192 86H126.68L126.689 78.512H125.141V77H126.689L126.68 74.174H128.192L128.201 77H130.244V78.512Z" fill="#666666"></path><path d="M649 76.25L641.5 83.75L634 76.25" stroke="white" stroke-width="1.5" stroke-linecap="round" stroke-linejoin="round"></path></svg>