<svg xmlns="http://www.w3.org/2000/svg" width="313" height="114" viewBox="0 0 313 114" fill="none"><path d="M1.95 22V8H6.77C7.52333 8 8.20333 8.18667 8.81 8.56C9.42333 8.93333 9.91 9.43667 10.27 10.07C10.6367 10.7033 10.82 11.4033 10.82 12.17C10.82 12.95 10.6333 13.6567 10.26 14.29C9.89333 14.9167 9.40333 15.4167 8.79 15.79C8.17667 16.1633 7.50333 16.35 6.77 16.35H4.03V22H1.95ZM4.03 14.27H6.56C6.96 14.27 7.32333 14.17 7.65 13.97C7.98333 13.77 8.24667 13.5033 8.44 13.17C8.64 12.8367 8.74 12.46 8.74 12.04C8.74 11.62 8.64 11.2433 8.44 10.91C8.24667 10.57 7.98333 10.3033 7.65 10.11C7.32333 9.91 6.96 9.81 6.56 9.81H4.03V14.27ZM12.4578 22V12H14.5378V13.06C14.8845 12.6467 15.3111 12.32 15.8178 12.08C16.3245 11.84 16.8711 11.72 17.4578 11.72C17.8311 11.72 18.2011 11.77 18.5678 11.87L17.7378 13.97C17.4778 13.87 17.2178 13.82 16.9578 13.82C16.5178 13.82 16.1145 13.93 15.7478 14.15C15.3811 14.3633 15.0878 14.6533 14.8678 15.02C14.6478 15.3867 14.5378 15.7933 14.5378 16.24V22H12.4578ZM23.6547 22.26C22.7347 22.26 21.8947 22.0233 21.1347 21.55C20.3814 21.0767 19.778 20.4433 19.3247 19.65C18.878 18.85 18.6547 17.9667 18.6547 17C18.6547 16.2667 18.7847 15.5833 19.0447 14.95C19.3047 14.31 19.6614 13.75 20.1147 13.27C20.5747 12.7833 21.108 12.4033 21.7147 12.13C22.3214 11.8567 22.968 11.72 23.6547 11.72C24.5747 11.72 25.4114 11.9567 26.1647 12.43C26.9247 12.9033 27.528 13.54 27.9747 14.34C28.428 15.14 28.6547 16.0267 28.6547 17C28.6547 17.7267 28.5247 18.4067 28.2647 19.04C28.0047 19.6733 27.6447 20.2333 27.1847 20.72C26.7314 21.2 26.2014 21.5767 25.5947 21.85C24.9947 22.1233 24.348 22.26 23.6547 22.26ZM23.6547 20.18C24.208 20.18 24.7047 20.0333 25.1447 19.74C25.5847 19.4467 25.9314 19.06 26.1847 18.58C26.4447 18.0933 26.5747 17.5667 26.5747 17C26.5747 16.42 26.4414 15.8867 26.1747 15.4C25.9147 14.9133 25.5647 14.5267 25.1247 14.24C24.6847 13.9467 24.1947 13.8 23.6547 13.8C23.108 13.8 22.6114 13.9467 22.1647 14.24C21.7247 14.5333 21.3747 14.9233 21.1147 15.41C20.8614 15.8967 20.7347 16.4267 20.7347 17C20.7347 17.5933 20.868 18.13 21.1347 18.61C21.4014 19.09 21.7547 19.4733 22.1947 19.76C22.6414 20.04 23.128 20.18 23.6547 20.18ZM32.3503 27H30.2703V12H32.3503V13.47C32.6836 12.9567 33.1103 12.54 33.6303 12.22C34.1503 11.9 34.7636 11.74 35.4703 11.74C36.197 11.74 36.877 11.8767 37.5103 12.15C38.1503 12.4233 38.7103 12.8033 39.1903 13.29C39.6703 13.77 40.047 14.3267 40.3203 14.96C40.5936 15.5933 40.7303 16.2733 40.7303 17C40.7303 17.7267 40.5936 18.41 40.3203 19.05C40.047 19.69 39.6703 20.2533 39.1903 20.74C38.7103 21.22 38.1503 21.5967 37.5103 21.87C36.877 22.1433 36.197 22.28 35.4703 22.28C34.7636 22.28 34.1503 22.12 33.6303 21.8C33.1103 21.4733 32.6836 21.0567 32.3503 20.55V27ZM35.4503 13.75C34.8703 13.75 34.3603 13.8967 33.9203 14.19C33.4803 14.4833 33.137 14.8767 32.8903 15.37C32.6436 15.8567 32.5203 16.4 32.5203 17C32.5203 17.6 32.6436 18.1467 32.8903 18.64C33.137 19.1333 33.4803 19.5267 33.9203 19.82C34.3603 20.1133 34.8703 20.26 35.4503 20.26C36.0236 20.26 36.5503 20.1167 37.0303 19.83C37.5103 19.5367 37.8936 19.1433 38.1803 18.65C38.467 18.1567 38.6103 17.6067 38.6103 17C38.6103 16.4067 38.467 15.8633 38.1803 15.37C37.9003 14.8767 37.5203 14.4833 37.0403 14.19C36.5603 13.8967 36.0303 13.75 35.4503 13.75ZM46.7406 22.26C45.8206 22.26 44.9806 22.0233 44.2206 21.55C43.4673 21.0767 42.864 20.4433 42.4106 19.65C41.964 18.85 41.7406 17.9667 41.7406 17C41.7406 16.2667 41.8706 15.5833 42.1306 14.95C42.3906 14.31 42.7473 13.75 43.2006 13.27C43.6606 12.7833 44.194 12.4033 44.8006 12.13C45.4073 11.8567 46.054 11.72 46.7406 11.72C47.5073 11.72 48.2106 11.88 48.8506 12.2C49.4906 12.5133 50.0373 12.95 50.4906 13.51C50.944 14.0633 51.2773 14.7033 51.4906 15.43C51.704 16.15 51.7673 16.9167 51.6806 17.73H43.9706C44.0573 18.19 44.224 18.6067 44.4706 18.98C44.724 19.3467 45.044 19.6367 45.4306 19.85C45.824 20.0633 46.2606 20.1733 46.7406 20.18C47.2473 20.18 47.7073 20.0533 48.1206 19.8C48.5406 19.5467 48.884 19.1967 49.1506 18.75L51.2606 19.24C50.8606 20.1267 50.2573 20.8533 49.4506 21.42C48.644 21.98 47.7406 22.26 46.7406 22.26ZM43.9006 16.14H49.5806C49.514 15.66 49.344 15.2267 49.0706 14.84C48.804 14.4467 48.4673 14.1367 48.0606 13.91C47.6606 13.6767 47.2206 13.56 46.7406 13.56C46.2673 13.56 45.8273 13.6733 45.4206 13.9C45.0206 14.1267 44.6873 14.4367 44.4206 14.83C44.1606 15.2167 43.9873 15.6533 43.9006 16.14ZM53.3367 22V12H55.4167V13.06C55.7634 12.6467 56.1901 12.32 56.6967 12.08C57.2034 11.84 57.7501 11.72 58.3367 11.72C58.7101 11.72 59.0801 11.77 59.4467 11.87L58.6167 13.97C58.3567 13.87 58.0967 13.82 57.8367 13.82C57.3967 13.82 56.9934 13.93 56.6267 14.15C56.2601 14.3633 55.9667 14.6533 55.7467 15.02C55.5267 15.3867 55.4167 15.7933 55.4167 16.24V22H53.3367ZM66.1363 14.08H64.0363L64.0263 22H61.9463L61.9563 14.08H60.3663V12H61.9563L61.9463 8.86H64.0263L64.0363 12H66.1363V14.08ZM74.4641 12H76.6841L71.2041 27H68.9941L70.8041 22L67.2141 12H69.4841L71.8441 19.15L74.4641 12ZM94.083 8V10.08H89.623V22H87.543V10.08H83.093V8H94.083ZM101.183 12H103.403L97.9228 27H95.7128L97.5228 22L93.9328 12H96.2028L98.5628 19.15L101.183 12ZM107.057 27H104.977V12H107.057V13.47C107.391 12.9567 107.817 12.54 108.337 12.22C108.857 11.9 109.471 11.74 110.177 11.74C110.904 11.74 111.584 11.8767 112.217 12.15C112.857 12.4233 113.417 12.8033 113.897 13.29C114.377 13.77 114.754 14.3267 115.027 14.96C115.301 15.5933 115.437 16.2733 115.437 17C115.437 17.7267 115.301 18.41 115.027 19.05C114.754 19.69 114.377 20.2533 113.897 20.74C113.417 21.22 112.857 21.5967 112.217 21.87C111.584 22.1433 110.904 22.28 110.177 22.28C109.471 22.28 108.857 22.12 108.337 21.8C107.817 21.4733 107.391 21.0567 107.057 20.55V27ZM110.157 13.75C109.577 13.75 109.067 13.8967 108.627 14.19C108.187 14.4833 107.844 14.8767 107.597 15.37C107.351 15.8567 107.227 16.4 107.227 17C107.227 17.6 107.351 18.1467 107.597 18.64C107.844 19.1333 108.187 19.5267 108.627 19.82C109.067 20.1133 109.577 20.26 110.157 20.26C110.731 20.26 111.257 20.1167 111.737 19.83C112.217 19.5367 112.601 19.1433 112.887 18.65C113.174 18.1567 113.317 17.6067 113.317 17C113.317 16.4067 113.174 15.8633 112.887 15.37C112.607 14.8767 112.227 14.4833 111.747 14.19C111.267 13.8967 110.737 13.75 110.157 13.75ZM121.448 22.26C120.528 22.26 119.688 22.0233 118.928 21.55C118.174 21.0767 117.571 20.4433 117.118 19.65C116.671 18.85 116.448 17.9667 116.448 17C116.448 16.2667 116.578 15.5833 116.838 14.95C117.098 14.31 117.454 13.75 117.908 13.27C118.368 12.7833 118.901 12.4033 119.508 12.13C120.114 11.8567 120.761 11.72 121.448 11.72C122.214 11.72 122.918 11.88 123.558 12.2C124.198 12.5133 124.744 12.95 125.198 13.51C125.651 14.0633 125.984 14.7033 126.198 15.43C126.411 16.15 126.474 16.9167 126.388 17.73H118.678C118.764 18.19 118.931 18.6067 119.178 18.98C119.431 19.3467 119.751 19.6367 120.138 19.85C120.531 20.0633 120.968 20.1733 121.448 20.18C121.954 20.18 122.414 20.0533 122.828 19.8C123.248 19.5467 123.591 19.1967 123.858 18.75L125.968 19.24C125.568 20.1267 124.964 20.8533 124.158 21.42C123.351 21.98 122.448 22.26 121.448 22.26ZM118.608 16.14H124.288C124.221 15.66 124.051 15.2267 123.778 14.84C123.511 14.4467 123.174 14.1367 122.768 13.91C122.368 13.6767 121.928 13.56 121.448 13.56C120.974 13.56 120.534 13.6733 120.128 13.9C119.728 14.1267 119.394 14.4367 119.128 14.83C118.868 15.2167 118.694 15.6533 118.608 16.14Z" fill="white"></path><rect x="1.25" y="46.5" width="310.75" height="67" rx="7.5" fill="#1A1A1A"></rect><rect x="1.25" y="46.5" width="310.75" height="67" rx="7.5" stroke="#262626"></rect><path d="M26.267 86.234C25.589 86.234 24.935 86.129 24.305 85.919C23.675 85.703 23.123 85.397 22.649 85.001C22.181 84.605 21.848 84.134 21.65 83.588L23.063 83.057C23.183 83.393 23.405 83.687 23.729 83.939C24.059 84.185 24.446 84.377 24.89 84.515C25.334 84.653 25.793 84.722 26.267 84.722C26.807 84.722 27.308 84.635 27.77 84.461C28.238 84.281 28.616 84.032 28.904 83.714C29.192 83.396 29.336 83.024 29.336 82.598C29.336 82.16 29.186 81.803 28.886 81.527C28.586 81.245 28.202 81.023 27.734 80.861C27.266 80.693 26.777 80.564 26.267 80.474C25.397 80.33 24.617 80.126 23.927 79.862C23.243 79.592 22.7 79.217 22.298 78.737C21.902 78.257 21.704 77.624 21.704 76.838C21.704 76.106 21.914 75.467 22.334 74.921C22.76 74.375 23.321 73.952 24.017 73.652C24.713 73.352 25.463 73.202 26.267 73.202C26.933 73.202 27.578 73.307 28.202 73.517C28.832 73.721 29.387 74.021 29.867 74.417C30.347 74.813 30.692 75.296 30.902 75.866L29.471 76.388C29.351 76.046 29.126 75.752 28.796 75.506C28.472 75.254 28.088 75.062 27.644 74.93C27.206 74.792 26.747 74.723 26.267 74.723C25.733 74.717 25.235 74.804 24.773 74.984C24.311 75.164 23.936 75.413 23.648 75.731C23.36 76.049 23.216 76.418 23.216 76.838C23.216 77.342 23.348 77.729 23.612 77.999C23.882 78.263 24.248 78.461 24.71 78.593C25.172 78.725 25.691 78.842 26.267 78.944C27.083 79.082 27.839 79.301 28.535 79.601C29.231 79.895 29.789 80.288 30.209 80.78C30.635 81.272 30.848 81.878 30.848 82.598C30.848 83.33 30.635 83.969 30.209 84.515C29.789 85.061 29.231 85.484 28.535 85.784C27.839 86.084 27.083 86.234 26.267 86.234ZM36.6884 86.234C35.8604 86.234 35.1044 86.021 34.4204 85.595C33.7424 85.169 33.1994 84.599 32.7914 83.885C32.3894 83.165 32.1884 82.37 32.1884 81.5C32.1884 80.84 32.3054 80.225 32.5394 79.655C32.7734 79.079 33.0944 78.575 33.5024 78.143C33.9164 77.705 34.3964 77.363 34.9424 77.117C35.4884 76.871 36.0704 76.748 36.6884 76.748C37.3664 76.748 37.9874 76.886 38.5514 77.162C39.1214 77.432 39.6074 77.81 40.0094 78.296C40.4174 78.782 40.7204 79.346 40.9184 79.988C41.1224 80.63 41.1974 81.317 41.1434 82.049H33.7994C33.8714 82.559 34.0394 83.015 34.3034 83.417C34.5674 83.813 34.9034 84.128 35.3114 84.362C35.7254 84.596 36.1844 84.716 36.6884 84.722C37.2284 84.722 37.7174 84.584 38.1554 84.308C38.5934 84.026 38.9474 83.642 39.2174 83.156L40.7564 83.516C40.3964 84.314 39.8534 84.968 39.1274 85.478C38.4014 85.982 37.5884 86.234 36.6884 86.234ZM33.7544 80.861H39.6224C39.5744 80.357 39.4124 79.898 39.1364 79.484C38.8604 79.064 38.5094 78.728 38.0834 78.476C37.6574 78.224 37.1924 78.098 36.6884 78.098C36.1844 78.098 35.7224 78.221 35.3024 78.467C34.8824 78.713 34.5344 79.046 34.2584 79.466C33.9884 79.88 33.8204 80.345 33.7544 80.861ZM42.5722 86V72.5H44.0842V86H42.5722ZM50.1181 86.234C49.2901 86.234 48.5341 86.021 47.8501 85.595C47.1721 85.169 46.6291 84.599 46.2211 83.885C45.8191 83.165 45.6181 82.37 45.6181 81.5C45.6181 80.84 45.7351 80.225 45.9691 79.655C46.2031 79.079 46.5241 78.575 46.9321 78.143C47.3461 77.705 47.8261 77.363 48.3721 77.117C48.9181 76.871 49.5001 76.748 50.1181 76.748C50.7961 76.748 51.4171 76.886 51.9811 77.162C52.5511 77.432 53.0371 77.81 53.4391 78.296C53.8471 78.782 54.1501 79.346 54.3481 79.988C54.5521 80.63 54.6271 81.317 54.5731 82.049H47.2291C47.3011 82.559 47.4691 83.015 47.7331 83.417C47.9971 83.813 48.3331 84.128 48.7411 84.362C49.1551 84.596 49.6141 84.716 50.1181 84.722C50.6581 84.722 51.1471 84.584 51.5851 84.308C52.0231 84.026 52.3771 83.642 52.6471 83.156L54.1861 83.516C53.8261 84.314 53.2831 84.968 52.5571 85.478C51.8311 85.982 51.0181 86.234 50.1181 86.234ZM47.1841 80.861H53.0521C53.0041 80.357 52.8421 79.898 52.5661 79.484C52.2901 79.064 51.9391 78.728 51.5131 78.476C51.0871 78.224 50.6221 78.098 50.1181 78.098C49.6141 78.098 49.1521 78.221 48.7321 78.467C48.3121 78.713 47.9641 79.046 47.6881 79.466C47.4181 79.88 47.2501 80.345 47.1841 80.861ZM62.238 83.624L63.588 84.353C63.18 84.923 62.661 85.379 62.031 85.721C61.407 86.063 60.729 86.234 59.997 86.234C59.169 86.234 58.413 86.021 57.729 85.595C57.051 85.169 56.508 84.599 56.1 83.885C55.698 83.165 55.497 82.37 55.497 81.5C55.497 80.84 55.614 80.225 55.848 79.655C56.082 79.079 56.403 78.575 56.811 78.143C57.225 77.705 57.705 77.363 58.251 77.117C58.797 76.871 59.379 76.748 59.997 76.748C60.729 76.748 61.407 76.919 62.031 77.261C62.661 77.603 63.18 78.062 63.588 78.638L62.238 79.367C61.95 79.013 61.608 78.74 61.212 78.548C60.816 78.356 60.411 78.26 59.997 78.26C59.439 78.26 58.932 78.41 58.476 78.71C58.026 79.004 57.669 79.397 57.405 79.889C57.141 80.381 57.009 80.918 57.009 81.5C57.009 82.082 57.141 82.619 57.405 83.111C57.675 83.597 58.035 83.987 58.485 84.281C58.941 84.575 59.445 84.722 59.997 84.722C60.441 84.722 60.858 84.62 61.248 84.416C61.638 84.212 61.968 83.948 62.238 83.624ZM69.8748 78.512H67.8318L67.8228 86H66.3108L66.3198 78.512H64.7718V77H66.3198L66.3108 74.174H67.8228L67.8318 77H69.8748V78.512ZM75.8124 86V73.4H79.9704C80.6484 73.4 81.2574 73.565 81.7974 73.895C82.3434 74.225 82.7754 74.672 83.0934 75.236C83.4174 75.794 83.5794 76.418 83.5794 77.108C83.5794 77.81 83.4144 78.443 83.0844 79.007C82.7604 79.565 82.3224 80.009 81.7704 80.339C81.2244 80.663 80.6244 80.825 79.9704 80.825H77.3244V86H75.8124ZM77.3244 79.313H79.8354C80.2434 79.313 80.6154 79.214 80.9514 79.016C81.2934 78.812 81.5634 78.539 81.7614 78.197C81.9654 77.849 82.0674 77.459 82.0674 77.027C82.0674 76.589 81.9654 76.199 81.7614 75.857C81.5634 75.509 81.2934 75.236 80.9514 75.038C80.6154 74.834 80.2434 74.732 79.8354 74.732H77.3244V79.313ZM85.1288 86V77H86.6408V78.125C86.9588 77.705 87.3608 77.372 87.8468 77.126C88.3328 76.874 88.8608 76.748 89.4308 76.748C89.7788 76.748 90.1148 76.793 90.4388 76.883L89.8268 78.395C89.5808 78.317 89.3408 78.278 89.1068 78.278C88.6568 78.278 88.2428 78.389 87.8648 78.611C87.4928 78.827 87.1958 79.121 86.9738 79.493C86.7518 79.865 86.6408 80.279 86.6408 80.735V86H85.1288ZM95.0478 86.234C94.2198 86.234 93.4638 86.021 92.7798 85.595C92.1018 85.169 91.5588 84.599 91.1508 83.885C90.7488 83.165 90.5478 82.37 90.5478 81.5C90.5478 80.84 90.6648 80.225 90.8988 79.655C91.1328 79.079 91.4538 78.575 91.8618 78.143C92.2758 77.705 92.7558 77.363 93.3018 77.117C93.8478 76.871 94.4298 76.748 95.0478 76.748C95.8758 76.748 96.6288 76.961 97.3068 77.387C97.9908 77.813 98.5338 78.386 98.9358 79.106C99.3438 79.826 99.5478 80.624 99.5478 81.5C99.5478 82.154 99.4308 82.766 99.1968 83.336C98.9628 83.906 98.6388 84.41 98.2248 84.848C97.8168 85.28 97.3398 85.619 96.7938 85.865C96.2538 86.111 95.6718 86.234 95.0478 86.234ZM95.0478 84.722C95.6118 84.722 96.1188 84.575 96.5688 84.281C97.0248 83.981 97.3818 83.588 97.6398 83.102C97.9038 82.61 98.0358 82.076 98.0358 81.5C98.0358 80.912 97.9008 80.372 97.6308 79.88C97.3668 79.388 97.0098 78.995 96.5598 78.701C96.1098 78.407 95.6058 78.26 95.0478 78.26C94.4838 78.26 93.9768 78.41 93.5268 78.71C93.0768 79.004 92.7198 79.397 92.4558 79.889C92.1918 80.381 92.0598 80.918 92.0598 81.5C92.0598 82.1 92.1948 82.646 92.4648 83.138C92.7348 83.624 93.0978 84.011 93.5538 84.299C94.0098 84.581 94.5078 84.722 95.0478 84.722ZM102.549 90.5H101.037V77H102.549V78.539C102.855 78.011 103.263 77.585 103.773 77.261C104.283 76.931 104.889 76.766 105.591 76.766C106.245 76.766 106.857 76.889 107.427 77.135C108.003 77.381 108.507 77.723 108.939 78.161C109.371 78.593 109.71 79.094 109.956 79.664C110.202 80.234 110.325 80.846 110.325 81.5C110.325 82.154 110.202 82.769 109.956 83.345C109.71 83.921 109.371 84.428 108.939 84.866C108.507 85.298 108.003 85.637 107.427 85.883C106.857 86.129 106.245 86.252 105.591 86.252C104.889 86.252 104.283 86.09 103.773 85.766C103.263 85.436 102.855 85.007 102.549 84.479V90.5ZM105.573 78.233C104.991 78.233 104.481 78.38 104.043 78.674C103.605 78.968 103.266 79.361 103.026 79.853C102.792 80.345 102.675 80.894 102.675 81.5C102.675 82.1 102.792 82.649 103.026 83.147C103.266 83.645 103.602 84.041 104.034 84.335C104.472 84.629 104.985 84.776 105.573 84.776C106.155 84.776 106.689 84.632 107.175 84.344C107.661 84.05 108.051 83.657 108.345 83.165C108.639 82.667 108.786 82.112 108.786 81.5C108.786 80.9 108.642 80.354 108.354 79.862C108.066 79.364 107.679 78.968 107.193 78.674C106.707 78.38 106.167 78.233 105.573 78.233ZM115.737 86.234C114.909 86.234 114.153 86.021 113.469 85.595C112.791 85.169 112.248 84.599 111.84 83.885C111.438 83.165 111.237 82.37 111.237 81.5C111.237 80.84 111.354 80.225 111.588 79.655C111.822 79.079 112.143 78.575 112.551 78.143C112.965 77.705 113.445 77.363 113.991 77.117C114.537 76.871 115.119 76.748 115.737 76.748C116.415 76.748 117.036 76.886 117.6 77.162C118.17 77.432 118.656 77.81 119.058 78.296C119.466 78.782 119.769 79.346 119.967 79.988C120.171 80.63 120.246 81.317 120.192 82.049H112.848C112.92 82.559 113.088 83.015 113.352 83.417C113.616 83.813 113.952 84.128 114.36 84.362C114.774 84.596 115.233 84.716 115.737 84.722C116.277 84.722 116.766 84.584 117.204 84.308C117.642 84.026 117.996 83.642 118.266 83.156L119.805 83.516C119.445 84.314 118.902 84.968 118.176 85.478C117.45 85.982 116.637 86.234 115.737 86.234ZM112.803 80.861H118.671C118.623 80.357 118.461 79.898 118.185 79.484C117.909 79.064 117.558 78.728 117.132 78.476C116.706 78.224 116.241 78.098 115.737 78.098C115.233 78.098 114.771 78.221 114.351 78.467C113.931 78.713 113.583 79.046 113.307 79.466C113.037 79.88 112.869 80.345 112.803 80.861ZM121.709 86V77H123.221V78.125C123.539 77.705 123.941 77.372 124.427 77.126C124.913 76.874 125.441 76.748 126.011 76.748C126.359 76.748 126.695 76.793 127.019 76.883L126.407 78.395C126.161 78.317 125.921 78.278 125.687 78.278C125.237 78.278 124.823 78.389 124.445 78.611C124.073 78.827 123.776 79.121 123.554 79.493C123.332 79.865 123.221 80.279 123.221 80.735V86H121.709ZM132.945 78.512H130.902L130.893 86H129.381L129.39 78.512H127.842V77H129.39L129.381 74.174H130.893L130.902 77H132.945V78.512ZM140.513 77H142.115L137.192 90.5H135.59L137.219 86L133.988 77H135.644L137.975 83.921L140.513 77ZM157.765 73.4V74.912H153.571V86H152.059V74.912H147.874V73.4H157.765ZM164.102 77H165.704L160.781 90.5H159.179L160.808 86L157.577 77H159.233L161.564 83.921L164.102 77ZM168.731 90.5H167.219V77H168.731V78.539C169.037 78.011 169.445 77.585 169.955 77.261C170.465 76.931 171.071 76.766 171.773 76.766C172.427 76.766 173.039 76.889 173.609 77.135C174.185 77.381 174.689 77.723 175.121 78.161C175.553 78.593 175.892 79.094 176.138 79.664C176.384 80.234 176.507 80.846 176.507 81.5C176.507 82.154 176.384 82.769 176.138 83.345C175.892 83.921 175.553 84.428 175.121 84.866C174.689 85.298 174.185 85.637 173.609 85.883C173.039 86.129 172.427 86.252 171.773 86.252C171.071 86.252 170.465 86.09 169.955 85.766C169.445 85.436 169.037 85.007 168.731 84.479V90.5ZM171.755 78.233C171.173 78.233 170.663 78.38 170.225 78.674C169.787 78.968 169.448 79.361 169.208 79.853C168.974 80.345 168.857 80.894 168.857 81.5C168.857 82.1 168.974 82.649 169.208 83.147C169.448 83.645 169.784 84.041 170.216 84.335C170.654 84.629 171.167 84.776 171.755 84.776C172.337 84.776 172.871 84.632 173.357 84.344C173.843 84.05 174.233 83.657 174.527 83.165C174.821 82.667 174.968 82.112 174.968 81.5C174.968 80.9 174.824 80.354 174.536 79.862C174.248 79.364 173.861 78.968 173.375 78.674C172.889 78.38 172.349 78.233 171.755 78.233ZM181.919 86.234C181.091 86.234 180.335 86.021 179.651 85.595C178.973 85.169 178.43 84.599 178.022 83.885C177.62 83.165 177.419 82.37 177.419 81.5C177.419 80.84 177.536 80.225 177.77 79.655C178.004 79.079 178.325 78.575 178.733 78.143C179.147 77.705 179.627 77.363 180.173 77.117C180.719 76.871 181.301 76.748 181.919 76.748C182.597 76.748 183.218 76.886 183.782 77.162C184.352 77.432 184.838 77.81 185.24 78.296C185.648 78.782 185.951 79.346 186.149 79.988C186.353 80.63 186.428 81.317 186.374 82.049H179.03C179.102 82.559 179.27 83.015 179.534 83.417C179.798 83.813 180.134 84.128 180.542 84.362C180.956 84.596 181.415 84.716 181.919 84.722C182.459 84.722 182.948 84.584 183.386 84.308C183.824 84.026 184.178 83.642 184.448 83.156L185.987 83.516C185.627 84.314 185.084 84.968 184.358 85.478C183.632 85.982 182.819 86.234 181.919 86.234ZM178.985 80.861H184.853C184.805 80.357 184.643 79.898 184.367 79.484C184.091 79.064 183.74 78.728 183.314 78.476C182.888 78.224 182.423 78.098 181.919 78.098C181.415 78.098 180.953 78.221 180.533 78.467C180.113 78.713 179.765 79.046 179.489 79.466C179.219 79.88 179.051 80.345 178.985 80.861Z" fill="#666666"></path><path d="M288 76.25L280.5 83.75L273 76.25" stroke="white" stroke-width="1.5" stroke-linecap="round" stroke-linejoin="round"></path></svg>