<svg xmlns="http://www.w3.org/2000/svg" width="1429" height="47" viewBox="0 0 1429 47" fill="none"><path d="M9.285 34.39C8.135 34.39 7.03 34.21 5.97 33.85C4.91 33.49 3.985 32.975 3.195 32.305C2.405 31.625 1.84 30.82 1.5 29.89L4.425 28.795C4.595 29.275 4.92 29.705 5.4 30.085C5.89 30.455 6.47 30.745 7.14 30.955C7.82 31.165 8.535 31.27 9.285 31.27C10.085 31.27 10.835 31.14 11.535 30.88C12.245 30.62 12.815 30.26 13.245 29.8C13.685 29.34 13.905 28.8 13.905 28.18C13.905 27.54 13.675 27.015 13.215 26.605C12.765 26.195 12.185 25.87 11.475 25.63C10.775 25.39 10.045 25.21 9.285 25.09C7.815 24.85 6.495 24.5 5.325 24.04C4.165 23.58 3.245 22.935 2.565 22.105C1.895 21.275 1.56 20.195 1.56 18.865C1.56 17.615 1.915 16.525 2.625 15.595C3.345 14.665 4.29 13.945 5.46 13.435C6.64 12.915 7.915 12.655 9.285 12.655C10.415 12.655 11.505 12.835 12.555 13.195C13.615 13.545 14.545 14.06 15.345 14.74C16.155 15.41 16.735 16.225 17.085 17.185L14.13 18.25C13.96 17.76 13.635 17.335 13.155 16.975C12.675 16.605 12.095 16.315 11.415 16.105C10.745 15.895 10.035 15.79 9.285 15.79C8.485 15.78 7.735 15.91 7.035 16.18C6.345 16.44 5.78 16.8 5.34 17.26C4.9 17.72 4.68 18.255 4.68 18.865C4.68 19.615 4.885 20.185 5.295 20.575C5.705 20.965 6.255 21.255 6.945 21.445C7.645 21.625 8.425 21.79 9.285 21.94C10.665 22.16 11.94 22.525 13.11 23.035C14.29 23.545 15.235 24.225 15.945 25.075C16.665 25.915 17.025 26.95 17.025 28.18C17.025 29.42 16.665 30.51 15.945 31.45C15.235 32.38 14.29 33.105 13.11 33.625C11.94 34.135 10.665 34.39 9.285 34.39ZM26.5934 34.39C25.2134 34.39 23.9534 34.035 22.8134 33.325C21.6834 32.615 20.7784 31.665 20.0984 30.475C19.4284 29.275 19.0934 27.95 19.0934 26.5C19.0934 25.4 19.2884 24.375 19.6784 23.425C20.0684 22.465 20.6034 21.625 21.2834 20.905C21.9734 20.175 22.7734 19.605 23.6834 19.195C24.5934 18.785 25.5634 18.58 26.5934 18.58C27.7434 18.58 28.7984 18.82 29.7584 19.3C30.7184 19.77 31.5384 20.425 32.2184 21.265C32.8984 22.095 33.3984 23.055 33.7184 24.145C34.0384 25.225 34.1334 26.375 34.0034 27.595H22.4384C22.5684 28.285 22.8184 28.91 23.1884 29.47C23.5684 30.02 24.0484 30.455 24.6284 30.775C25.2184 31.095 25.8734 31.26 26.5934 31.27C27.3534 31.27 28.0434 31.08 28.6634 30.7C29.2934 30.32 29.8084 29.795 30.2084 29.125L33.3734 29.86C32.7734 31.19 31.8684 32.28 30.6584 33.13C29.4484 33.97 28.0934 34.39 26.5934 34.39ZM22.3334 25.21H30.8534C30.7534 24.49 30.4984 23.84 30.0884 23.26C29.6884 22.67 29.1834 22.205 28.5734 21.865C27.9734 21.515 27.3134 21.34 26.5934 21.34C25.8834 21.34 25.2234 21.51 24.6134 21.85C24.0134 22.19 23.5134 22.655 23.1134 23.245C22.7234 23.825 22.4634 24.48 22.3334 25.21ZM48.1282 19H51.2482V34H48.1132L47.9932 31.825C47.5532 32.595 46.9582 33.215 46.2082 33.685C45.4582 34.155 44.5732 34.39 43.5532 34.39C42.4532 34.39 41.4182 34.185 40.4482 33.775C39.4782 33.355 38.6232 32.775 37.8832 32.035C37.1532 31.295 36.5832 30.445 36.1732 29.485C35.7632 28.515 35.5582 27.475 35.5582 26.365C35.5582 25.295 35.7582 24.29 36.1582 23.35C36.5582 22.4 37.1132 21.57 37.8232 20.86C38.5332 20.15 39.3532 19.595 40.2832 19.195C41.2232 18.785 42.2282 18.58 43.2982 18.58C44.3882 18.58 45.3482 18.83 46.1782 19.33C47.0182 19.82 47.7132 20.45 48.2632 21.22L48.1282 19ZM43.4782 31.375C44.3582 31.375 45.1282 31.16 45.7882 30.73C46.4482 30.29 46.9582 29.7 47.3182 28.96C47.6882 28.22 47.8732 27.4 47.8732 26.5C47.8732 25.59 47.6882 24.765 47.3182 24.025C46.9482 23.285 46.4332 22.7 45.7732 22.27C45.1232 21.83 44.3582 21.61 43.4782 21.61C42.6082 21.61 41.8132 21.83 41.0932 22.27C40.3732 22.71 39.8032 23.3 39.3832 24.04C38.9632 24.78 38.7532 25.6 38.7532 26.5C38.7532 27.41 38.9682 28.235 39.3982 28.975C39.8382 29.705 40.4132 30.29 41.1232 30.73C41.8432 31.16 42.6282 31.375 43.4782 31.375ZM58.7414 34.285C57.9514 34.235 57.1814 34.075 56.4314 33.805C55.6814 33.535 55.0214 33.17 54.4514 32.71C53.8914 32.24 53.4714 31.69 53.1914 31.06L55.8464 29.92C55.9764 30.19 56.2014 30.455 56.5214 30.715C56.8514 30.975 57.2364 31.19 57.6764 31.36C58.1164 31.52 58.5764 31.6 59.0564 31.6C59.5264 31.6 59.9614 31.535 60.3614 31.405C60.7714 31.265 61.1064 31.055 61.3664 30.775C61.6264 30.495 61.7564 30.16 61.7564 29.77C61.7564 29.33 61.6064 28.99 61.3064 28.75C61.0164 28.5 60.6514 28.31 60.2114 28.18C59.7714 28.05 59.3314 27.925 58.8914 27.805C57.9114 27.585 57.0114 27.285 56.1914 26.905C55.3814 26.515 54.7364 26.02 54.2564 25.42C53.7764 24.81 53.5364 24.065 53.5364 23.185C53.5364 22.225 53.7964 21.395 54.3164 20.695C54.8364 19.985 55.5164 19.44 56.3564 19.06C57.2064 18.68 58.1114 18.49 59.0714 18.49C60.2714 18.49 61.3714 18.745 62.3714 19.255C63.3714 19.765 64.1364 20.465 64.6664 21.355L62.1914 22.825C62.0414 22.525 61.8164 22.255 61.5164 22.015C61.2164 21.775 60.8764 21.585 60.4964 21.445C60.1164 21.295 59.7214 21.21 59.3114 21.19C58.8014 21.17 58.3264 21.23 57.8864 21.37C57.4564 21.5 57.1114 21.71 56.8514 22C56.5914 22.29 56.4614 22.66 56.4614 23.11C56.4614 23.55 56.6164 23.88 56.9264 24.1C57.2364 24.31 57.6264 24.48 58.0964 24.61C58.5764 24.74 59.0664 24.885 59.5664 25.045C60.4564 25.325 61.2914 25.67 62.0714 26.08C62.8514 26.48 63.4814 26.975 63.9614 27.565C64.4414 28.155 64.6714 28.875 64.6514 29.725C64.6514 30.665 64.3664 31.49 63.7964 32.2C63.2364 32.91 62.5064 33.45 61.6064 33.82C60.7064 34.19 59.7514 34.345 58.7414 34.285ZM66.9563 19H70.0763V34H66.9563V19ZM68.5463 16.825C68.0663 16.825 67.6663 16.67 67.3463 16.36C67.0263 16.05 66.8663 15.66 66.8663 15.19C66.8663 14.73 67.0263 14.345 67.3463 14.035C67.6663 13.715 68.0613 13.555 68.5313 13.555C68.9913 13.555 69.3813 13.715 69.7013 14.035C70.0213 14.345 70.1813 14.73 70.1813 15.19C70.1813 15.66 70.0213 16.05 69.7013 16.36C69.3913 16.67 69.0063 16.825 68.5463 16.825ZM85.0866 11.5H88.2066V34H85.0866V31.795C84.5966 32.575 83.9566 33.205 83.1666 33.685C82.3766 34.155 81.4516 34.39 80.3916 34.39C79.3016 34.39 78.2816 34.185 77.3316 33.775C76.3816 33.365 75.5416 32.8 74.8116 32.08C74.0916 31.35 73.5266 30.51 73.1166 29.56C72.7066 28.61 72.5016 27.59 72.5016 26.5C72.5016 25.41 72.7066 24.39 73.1166 23.44C73.5266 22.48 74.0916 21.64 74.8116 20.92C75.5416 20.19 76.3816 19.62 77.3316 19.21C78.2816 18.8 79.3016 18.595 80.3916 18.595C81.4516 18.595 82.3766 18.835 83.1666 19.315C83.9566 19.785 84.5966 20.405 85.0866 21.175V11.5ZM80.4216 31.375C81.3016 31.375 82.0716 31.16 82.7316 30.73C83.3916 30.29 83.9016 29.7 84.2616 28.96C84.6316 28.22 84.8166 27.4 84.8166 26.5C84.8166 25.59 84.6316 24.765 84.2616 24.025C83.8916 23.285 83.3766 22.7 82.7166 22.27C82.0666 21.83 81.3016 21.61 80.4216 21.61C79.5516 21.61 78.7566 21.83 78.0366 22.27C77.3266 22.71 76.7566 23.3 76.3266 24.04C75.9066 24.78 75.6966 25.6 75.6966 26.5C75.6966 27.41 75.9116 28.235 76.3416 28.975C76.7816 29.705 77.3566 30.29 78.0666 30.73C78.7866 31.16 79.5716 31.375 80.4216 31.375ZM98.1949 34.39C96.8149 34.39 95.5549 34.035 94.4149 33.325C93.2849 32.615 92.3799 31.665 91.6999 30.475C91.0299 29.275 90.6949 27.95 90.6949 26.5C90.6949 25.4 90.8899 24.375 91.2799 23.425C91.6699 22.465 92.2049 21.625 92.8849 20.905C93.5749 20.175 94.3749 19.605 95.2849 19.195C96.1949 18.785 97.1649 18.58 98.1949 18.58C99.3449 18.58 100.4 18.82 101.36 19.3C102.32 19.77 103.14 20.425 103.82 21.265C104.5 22.095 105 23.055 105.32 24.145C105.64 25.225 105.735 26.375 105.605 27.595H94.0399C94.1699 28.285 94.4199 28.91 94.7899 29.47C95.1699 30.02 95.6499 30.455 96.2299 30.775C96.8199 31.095 97.4749 31.26 98.1949 31.27C98.9549 31.27 99.6449 31.08 100.265 30.7C100.895 30.32 101.41 29.795 101.81 29.125L104.975 29.86C104.375 31.19 103.47 32.28 102.26 33.13C101.05 33.97 99.6949 34.39 98.1949 34.39ZM93.9349 25.21H102.455C102.355 24.49 102.1 23.84 101.69 23.26C101.29 22.67 100.785 22.205 100.175 21.865C99.5749 21.515 98.9149 21.34 98.1949 21.34C97.4849 21.34 96.8249 21.51 96.2149 21.85C95.6149 22.19 95.1149 22.655 94.7149 23.245C94.3249 23.825 94.0649 24.48 93.9349 25.21ZM123.045 34.39C121.895 34.39 120.79 34.21 119.73 33.85C118.67 33.49 117.745 32.975 116.955 32.305C116.165 31.625 115.6 30.82 115.26 29.89L118.185 28.795C118.355 29.275 118.68 29.705 119.16 30.085C119.65 30.455 120.23 30.745 120.9 30.955C121.58 31.165 122.295 31.27 123.045 31.27C123.845 31.27 124.595 31.14 125.295 30.88C126.005 30.62 126.575 30.26 127.005 29.8C127.445 29.34 127.665 28.8 127.665 28.18C127.665 27.54 127.435 27.015 126.975 26.605C126.525 26.195 125.945 25.87 125.235 25.63C124.535 25.39 123.805 25.21 123.045 25.09C121.575 24.85 120.255 24.5 119.085 24.04C117.925 23.58 117.005 22.935 116.325 22.105C115.655 21.275 115.32 20.195 115.32 18.865C115.32 17.615 115.675 16.525 116.385 15.595C117.105 14.665 118.05 13.945 119.22 13.435C120.4 12.915 121.675 12.655 123.045 12.655C124.175 12.655 125.265 12.835 126.315 13.195C127.375 13.545 128.305 14.06 129.105 14.74C129.915 15.41 130.495 16.225 130.845 17.185L127.89 18.25C127.72 17.76 127.395 17.335 126.915 16.975C126.435 16.605 125.855 16.315 125.175 16.105C124.505 15.895 123.795 15.79 123.045 15.79C122.245 15.78 121.495 15.91 120.795 16.18C120.105 16.44 119.54 16.8 119.1 17.26C118.66 17.72 118.44 18.255 118.44 18.865C118.44 19.615 118.645 20.185 119.055 20.575C119.465 20.965 120.015 21.255 120.705 21.445C121.405 21.625 122.185 21.79 123.045 21.94C124.425 22.16 125.7 22.525 126.87 23.035C128.05 23.545 128.995 24.225 129.705 25.075C130.425 25.915 130.785 26.95 130.785 28.18C130.785 29.42 130.425 30.51 129.705 31.45C128.995 32.38 128.05 33.105 126.87 33.625C125.7 34.135 124.425 34.39 123.045 34.39ZM140.353 34.39C138.973 34.39 137.713 34.035 136.573 33.325C135.443 32.615 134.538 31.665 133.858 30.475C133.188 29.275 132.853 27.95 132.853 26.5C132.853 25.4 133.048 24.375 133.438 23.425C133.828 22.465 134.363 21.625 135.043 20.905C135.733 20.175 136.533 19.605 137.443 19.195C138.353 18.785 139.323 18.58 140.353 18.58C141.503 18.58 142.558 18.82 143.518 19.3C144.478 19.77 145.298 20.425 145.978 21.265C146.658 22.095 147.158 23.055 147.478 24.145C147.798 25.225 147.893 26.375 147.763 27.595H136.198C136.328 28.285 136.578 28.91 136.948 29.47C137.328 30.02 137.808 30.455 138.388 30.775C138.978 31.095 139.633 31.26 140.353 31.27C141.113 31.27 141.803 31.08 142.423 30.7C143.053 30.32 143.568 29.795 143.968 29.125L147.133 29.86C146.533 31.19 145.628 32.28 144.418 33.13C143.208 33.97 141.853 34.39 140.353 34.39ZM136.093 25.21H144.613C144.513 24.49 144.258 23.84 143.848 23.26C143.448 22.67 142.943 22.205 142.333 21.865C141.733 21.515 141.073 21.34 140.353 21.34C139.643 21.34 138.983 21.51 138.373 21.85C137.773 22.19 137.273 22.655 136.873 23.245C136.483 23.825 136.223 24.48 136.093 25.21ZM150.247 34V19H153.367V20.59C153.887 19.97 154.527 19.48 155.287 19.12C156.047 18.76 156.867 18.58 157.747 18.58C158.307 18.58 158.862 18.655 159.412 18.805L158.167 21.955C157.777 21.805 157.387 21.73 156.997 21.73C156.337 21.73 155.732 21.895 155.182 22.225C154.632 22.545 154.192 22.98 153.862 23.53C153.532 24.08 153.367 24.69 153.367 25.36V34H150.247ZM167.043 34.39C165.663 34.39 164.403 34.035 163.263 33.325C162.133 32.615 161.228 31.665 160.548 30.475C159.878 29.275 159.543 27.95 159.543 26.5C159.543 25.4 159.738 24.375 160.128 23.425C160.518 22.465 161.053 21.625 161.733 20.905C162.423 20.175 163.223 19.605 164.133 19.195C165.043 18.785 166.013 18.58 167.043 18.58C168.193 18.58 169.248 18.82 170.208 19.3C171.168 19.77 171.988 20.425 172.668 21.265C173.348 22.095 173.848 23.055 174.168 24.145C174.488 25.225 174.583 26.375 174.453 27.595H162.888C163.018 28.285 163.268 28.91 163.638 29.47C164.018 30.02 164.498 30.455 165.078 30.775C165.668 31.095 166.323 31.26 167.043 31.27C167.803 31.27 168.493 31.08 169.113 30.7C169.743 30.32 170.258 29.795 170.658 29.125L173.823 29.86C173.223 31.19 172.318 32.28 171.108 33.13C169.898 33.97 168.543 34.39 167.043 34.39ZM162.783 25.21H171.303C171.203 24.49 170.948 23.84 170.538 23.26C170.138 22.67 169.633 22.205 169.023 21.865C168.423 21.515 167.763 21.34 167.043 21.34C166.333 21.34 165.673 21.51 165.063 21.85C164.463 22.19 163.963 22.655 163.563 23.245C163.173 23.825 162.913 24.48 162.783 25.21ZM190.437 24.595V34H187.317V25.36C187.317 24.69 187.152 24.08 186.822 23.53C186.502 22.98 186.067 22.545 185.517 22.225C184.977 21.895 184.367 21.73 183.687 21.73C183.027 21.73 182.422 21.895 181.872 22.225C181.322 22.545 180.882 22.98 180.552 23.53C180.222 24.08 180.057 24.69 180.057 25.36V34H176.937V19H180.057V20.59C180.577 19.97 181.217 19.48 181.977 19.12C182.737 18.76 183.557 18.58 184.437 18.58C185.547 18.58 186.557 18.85 187.467 19.39C188.377 19.93 189.097 20.655 189.627 21.565C190.167 22.475 190.437 23.485 190.437 24.595ZM193.431 19H196.551V34H193.431V19ZM195.021 16.825C194.541 16.825 194.141 16.67 193.821 16.36C193.501 16.05 193.341 15.66 193.341 15.19C193.341 14.73 193.501 14.345 193.821 14.035C194.141 13.715 194.536 13.555 195.006 13.555C195.466 13.555 195.856 13.715 196.176 14.035C196.496 14.345 196.656 14.73 196.656 15.19C196.656 15.66 196.496 16.05 196.176 16.36C195.866 16.67 195.481 16.825 195.021 16.825ZM208.06 22.12H204.91L204.895 34H201.775L201.79 22.12H199.405V19H201.79L201.775 14.29H204.895L204.91 19H208.06V22.12ZM220.552 19H223.882L215.662 41.5H212.347L215.062 34L209.677 19H213.082L216.622 29.725L220.552 19ZM240.965 34L233.345 13H236.645L242.915 30.295L249.215 13H252.515L244.895 34H240.965ZM254.193 19H257.313V34H254.193V19ZM255.783 16.825C255.303 16.825 254.903 16.67 254.583 16.36C254.263 16.05 254.103 15.66 254.103 15.19C254.103 14.73 254.263 14.345 254.583 14.035C254.903 13.715 255.298 13.555 255.768 13.555C256.228 13.555 256.618 13.715 256.938 14.035C257.258 14.345 257.418 14.73 257.418 15.19C257.418 15.66 257.258 16.05 256.938 16.36C256.628 16.67 256.243 16.825 255.783 16.825ZM260.96 34V11.5H264.08V34H260.96ZM267.669 34V11.5H270.789V34H267.669ZM285.843 19H288.963V34H285.828L285.708 31.825C285.268 32.595 284.673 33.215 283.923 33.685C283.173 34.155 282.288 34.39 281.268 34.39C280.168 34.39 279.133 34.185 278.163 33.775C277.193 33.355 276.338 32.775 275.598 32.035C274.868 31.295 274.298 30.445 273.888 29.485C273.478 28.515 273.273 27.475 273.273 26.365C273.273 25.295 273.473 24.29 273.873 23.35C274.273 22.4 274.828 21.57 275.538 20.86C276.248 20.15 277.068 19.595 277.998 19.195C278.938 18.785 279.943 18.58 281.013 18.58C282.103 18.58 283.063 18.83 283.893 19.33C284.733 19.82 285.428 20.45 285.978 21.22L285.843 19ZM281.193 31.375C282.073 31.375 282.843 31.16 283.503 30.73C284.163 30.29 284.673 29.7 285.033 28.96C285.403 28.22 285.588 27.4 285.588 26.5C285.588 25.59 285.403 24.765 285.033 24.025C284.663 23.285 284.148 22.7 283.488 22.27C282.838 21.83 282.073 21.61 281.193 21.61C280.323 21.61 279.528 21.83 278.808 22.27C278.088 22.71 277.518 23.3 277.098 24.04C276.678 24.78 276.468 25.6 276.468 26.5C276.468 27.41 276.683 28.235 277.113 28.975C277.553 29.705 278.128 30.29 278.838 30.73C279.558 31.16 280.343 31.375 281.193 31.375Z" fill="white"></path><rect x="311.5" y="0.5" width="187" height="46" rx="7.5" stroke="#262626"></rect><path fill-rule="evenodd" clip-rule="evenodd" d="M332.54 33.851C332.57 33.8685 332.594 33.8821 332.611 33.8915L332.638 33.9071C332.861 34.0294 333.138 34.0285 333.361 33.9075L333.389 33.8915C333.406 33.8821 333.43 33.8685 333.46 33.851C333.521 33.816 333.607 33.765 333.716 33.6982C333.932 33.5646 334.239 33.3676 334.605 33.1091C335.335 32.5931 336.31 31.8274 337.287 30.8273C339.231 28.8368 341.25 25.8462 341.25 22C341.25 17.4437 337.556 13.75 333 13.75C328.444 13.75 324.75 17.4437 324.75 22C324.75 25.8462 326.769 28.8368 328.713 30.8273C329.69 31.8274 330.665 32.5931 331.395 33.1091C331.761 33.3676 332.068 33.5646 332.284 33.6982C332.393 33.765 332.479 33.816 332.54 33.851ZM333 25C334.657 25 336 23.6569 336 22C336 20.3431 334.657 19 333 19C331.343 19 330 20.3431 330 22C330 23.6569 331.343 25 333 25Z" fill="white"></path><path d="M352.08 30L354.519 17.4H355.68L359.082 26.346L362.475 17.4H363.636L366.084 30H364.545L362.772 20.856L359.577 29.316H358.578L355.383 20.856L353.619 30H352.08ZM374.697 21H376.209V30H374.697L374.634 28.479C374.352 29.001 373.962 29.424 373.464 29.748C372.972 30.072 372.384 30.234 371.7 30.234C371.04 30.234 370.422 30.111 369.846 29.865C369.27 29.613 368.76 29.268 368.316 28.83C367.878 28.386 367.536 27.876 367.29 27.3C367.044 26.724 366.921 26.103 366.921 25.437C366.921 24.795 367.041 24.189 367.281 23.619C367.521 23.049 367.854 22.551 368.28 22.125C368.712 21.693 369.21 21.357 369.774 21.117C370.338 20.871 370.944 20.748 371.592 20.748C372.3 20.748 372.921 20.916 373.455 21.252C373.989 21.582 374.421 22.011 374.751 22.539L374.697 21ZM371.673 28.767C372.267 28.767 372.78 28.623 373.212 28.335C373.65 28.041 373.986 27.645 374.22 27.147C374.46 26.649 374.58 26.1 374.58 25.5C374.58 24.888 374.46 24.336 374.22 23.844C373.98 23.346 373.641 22.953 373.203 22.665C372.771 22.371 372.261 22.224 371.673 22.224C371.079 22.224 370.539 22.371 370.053 22.665C369.567 22.959 369.18 23.355 368.892 23.853C368.61 24.345 368.469 24.894 368.469 25.5C368.469 26.106 368.616 26.658 368.91 27.156C369.204 27.648 369.594 28.041 370.08 28.335C370.566 28.623 371.097 28.767 371.673 28.767ZM378.113 30V16.5H379.625V30H378.113ZM381.787 21H383.299V30H381.787V21ZM382.561 19.533C382.321 19.533 382.12 19.455 381.958 19.299C381.796 19.143 381.715 18.948 381.715 18.714C381.715 18.48 381.796 18.285 381.958 18.129C382.12 17.973 382.318 17.895 382.552 17.895C382.786 17.895 382.984 17.973 383.146 18.129C383.308 18.285 383.389 18.48 383.389 18.714C383.389 18.948 383.308 19.143 383.146 19.299C382.99 19.455 382.795 19.533 382.561 19.533ZM390.068 20.748C390.944 20.748 391.739 20.961 392.453 21.387C393.173 21.813 393.746 22.386 394.172 23.106C394.598 23.82 394.811 24.615 394.811 25.491C394.811 26.145 394.688 26.76 394.442 27.336C394.196 27.906 393.854 28.41 393.416 28.848C392.984 29.28 392.48 29.619 391.904 29.865C391.334 30.111 390.722 30.234 390.068 30.234C389.372 30.234 388.766 30.072 388.25 29.748C387.74 29.418 387.332 28.989 387.026 28.461V30H385.514V16.5H387.026V22.521C387.332 21.993 387.74 21.567 388.25 21.243C388.766 20.913 389.372 20.748 390.068 20.748ZM390.05 28.758C390.644 28.758 391.184 28.611 391.67 28.317C392.156 28.023 392.543 27.63 392.831 27.138C393.119 26.64 393.263 26.091 393.263 25.491C393.263 24.879 393.116 24.327 392.822 23.835C392.528 23.337 392.138 22.944 391.652 22.656C391.166 22.362 390.632 22.215 390.05 22.215C389.462 22.215 388.949 22.362 388.511 22.656C388.079 22.95 387.743 23.346 387.503 23.844C387.269 24.342 387.152 24.891 387.152 25.491C387.152 26.097 387.269 26.649 387.503 27.147C387.743 27.639 388.082 28.032 388.52 28.326C388.958 28.614 389.468 28.758 390.05 28.758ZM395.824 26.58V21H397.336V26.247C397.336 26.703 397.447 27.117 397.669 27.489C397.891 27.861 398.188 28.158 398.56 28.38C398.938 28.596 399.352 28.704 399.802 28.704C400.258 28.704 400.669 28.596 401.035 28.38C401.407 28.158 401.704 27.861 401.926 27.489C402.148 27.117 402.259 26.703 402.259 26.247V21H403.771L403.78 30H402.268L402.259 28.857C401.941 29.277 401.539 29.613 401.053 29.865C400.567 30.111 400.042 30.234 399.478 30.234C398.806 30.234 398.191 30.072 397.633 29.748C397.081 29.418 396.64 28.977 396.31 28.425C395.986 27.873 395.824 27.258 395.824 26.58ZM405.228 31.008L405.786 27.966H407.298L406.236 31.008H405.228ZM419.611 30.234C418.759 30.234 417.958 30.066 417.208 29.73C416.458 29.388 415.798 28.92 415.228 28.326C414.664 27.726 414.22 27.03 413.896 26.238C413.578 25.446 413.419 24.6 413.419 23.7C413.419 22.8 413.578 21.954 413.896 21.162C414.22 20.37 414.664 19.677 415.228 19.083C415.798 18.483 416.458 18.015 417.208 17.679C417.958 17.337 418.759 17.166 419.611 17.166C420.631 17.166 421.57 17.403 422.428 17.877C423.286 18.351 423.997 18.981 424.561 19.767L423.22 20.487C422.8 19.935 422.269 19.497 421.627 19.173C420.991 18.843 420.319 18.678 419.611 18.678C418.957 18.678 418.345 18.81 417.775 19.074C417.211 19.338 416.716 19.701 416.29 20.163C415.864 20.625 415.531 21.159 415.291 21.765C415.051 22.371 414.931 23.016 414.931 23.7C414.931 24.39 415.051 25.038 415.291 25.644C415.537 26.25 415.873 26.784 416.299 27.246C416.731 27.708 417.229 28.071 417.793 28.335C418.363 28.593 418.969 28.722 419.611 28.722C420.343 28.722 421.021 28.557 421.645 28.227C422.275 27.891 422.8 27.453 423.22 26.913L424.561 27.642C423.997 28.428 423.286 29.058 422.428 29.532C421.57 30 420.631 30.234 419.611 30.234ZM433.109 21H434.621V30H433.109L433.046 28.479C432.764 29.001 432.374 29.424 431.876 29.748C431.384 30.072 430.796 30.234 430.112 30.234C429.452 30.234 428.834 30.111 428.258 29.865C427.682 29.613 427.172 29.268 426.728 28.83C426.29 28.386 425.948 27.876 425.702 27.3C425.456 26.724 425.333 26.103 425.333 25.437C425.333 24.795 425.453 24.189 425.693 23.619C425.933 23.049 426.266 22.551 426.692 22.125C427.124 21.693 427.622 21.357 428.186 21.117C428.75 20.871 429.356 20.748 430.004 20.748C430.712 20.748 431.333 20.916 431.867 21.252C432.401 21.582 432.833 22.011 433.163 22.539L433.109 21ZM430.085 28.767C430.679 28.767 431.192 28.623 431.624 28.335C432.062 28.041 432.398 27.645 432.632 27.147C432.872 26.649 432.992 26.1 432.992 25.5C432.992 24.888 432.872 24.336 432.632 23.844C432.392 23.346 432.053 22.953 431.615 22.665C431.183 22.371 430.673 22.224 430.085 22.224C429.491 22.224 428.951 22.371 428.465 22.665C427.979 22.959 427.592 23.355 427.304 23.853C427.022 24.345 426.881 24.894 426.881 25.5C426.881 26.106 427.028 26.658 427.322 27.156C427.616 27.648 428.006 28.041 428.492 28.335C428.978 28.623 429.509 28.767 430.085 28.767ZM436.525 30V16.5H438.037V30H436.525ZM440.199 21H441.711V30H440.199V21ZM440.973 19.533C440.733 19.533 440.532 19.455 440.37 19.299C440.208 19.143 440.127 18.948 440.127 18.714C440.127 18.48 440.208 18.285 440.37 18.129C440.532 17.973 440.73 17.895 440.964 17.895C441.198 17.895 441.396 17.973 441.558 18.129C441.72 18.285 441.801 18.48 441.801 18.714C441.801 18.948 441.72 19.143 441.558 19.299C441.402 19.455 441.207 19.533 440.973 19.533ZM445.916 18.777V21H448.553V22.512H445.916V30H444.404V22.512H443.243V21H444.404V18.777C444.404 18.315 444.515 17.898 444.737 17.526C444.965 17.148 445.268 16.848 445.646 16.626C446.03 16.398 446.45 16.284 446.906 16.284C447.242 16.284 447.569 16.353 447.887 16.491C448.205 16.623 448.487 16.821 448.733 17.085L447.653 18.156C447.569 18.042 447.458 17.955 447.32 17.895C447.188 17.829 447.05 17.796 446.906 17.796C446.636 17.796 446.402 17.892 446.204 18.084C446.012 18.276 445.916 18.507 445.916 18.777ZM453.757 30.234C452.929 30.234 452.173 30.021 451.489 29.595C450.811 29.169 450.268 28.599 449.86 27.885C449.458 27.165 449.257 26.37 449.257 25.5C449.257 24.84 449.374 24.225 449.608 23.655C449.842 23.079 450.163 22.575 450.571 22.143C450.985 21.705 451.465 21.363 452.011 21.117C452.557 20.871 453.139 20.748 453.757 20.748C454.585 20.748 455.338 20.961 456.016 21.387C456.7 21.813 457.243 22.386 457.645 23.106C458.053 23.826 458.257 24.624 458.257 25.5C458.257 26.154 458.14 26.766 457.906 27.336C457.672 27.906 457.348 28.41 456.934 28.848C456.526 29.28 456.049 29.619 455.503 29.865C454.963 30.111 454.381 30.234 453.757 30.234ZM453.757 28.722C454.321 28.722 454.828 28.575 455.278 28.281C455.734 27.981 456.091 27.588 456.349 27.102C456.613 26.61 456.745 26.076 456.745 25.5C456.745 24.912 456.61 24.372 456.34 23.88C456.076 23.388 455.719 22.995 455.269 22.701C454.819 22.407 454.315 22.26 453.757 22.26C453.193 22.26 452.686 22.41 452.236 22.71C451.786 23.004 451.429 23.397 451.165 23.889C450.901 24.381 450.769 24.918 450.769 25.5C450.769 26.1 450.904 26.646 451.174 27.138C451.444 27.624 451.807 28.011 452.263 28.299C452.719 28.581 453.217 28.722 453.757 28.722ZM459.746 30V21H461.258V22.125C461.576 21.705 461.978 21.372 462.464 21.126C462.95 20.874 463.478 20.748 464.048 20.748C464.396 20.748 464.732 20.793 465.056 20.883L464.444 22.395C464.198 22.317 463.958 22.278 463.724 22.278C463.274 22.278 462.86 22.389 462.482 22.611C462.11 22.827 461.813 23.121 461.591 23.493C461.369 23.865 461.258 24.279 461.258 24.735V30H459.746ZM474.153 24.402V30H472.641V24.735C472.641 24.279 472.53 23.865 472.308 23.493C472.086 23.121 471.789 22.827 471.417 22.611C471.045 22.389 470.631 22.278 470.175 22.278C469.725 22.278 469.311 22.389 468.933 22.611C468.561 22.827 468.264 23.121 468.042 23.493C467.82 23.865 467.709 24.279 467.709 24.735V30H466.197V21H467.709V22.125C468.027 21.705 468.429 21.372 468.915 21.126C469.401 20.874 469.929 20.748 470.499 20.748C471.171 20.748 471.783 20.913 472.335 21.243C472.893 21.567 473.334 22.005 473.658 22.557C473.988 23.109 474.153 23.724 474.153 24.402ZM475.953 21H477.465V30H475.953V21ZM476.727 19.533C476.487 19.533 476.286 19.455 476.124 19.299C475.962 19.143 475.881 18.948 475.881 18.714C475.881 18.48 475.962 18.285 476.124 18.129C476.286 17.973 476.484 17.895 476.718 17.895C476.952 17.895 477.15 17.973 477.312 18.129C477.474 18.285 477.555 18.48 477.555 18.714C477.555 18.948 477.474 19.143 477.312 19.299C477.156 19.455 476.961 19.533 476.727 19.533ZM486.74 21H488.252V30H486.74L486.677 28.479C486.395 29.001 486.005 29.424 485.507 29.748C485.015 30.072 484.427 30.234 483.743 30.234C483.083 30.234 482.465 30.111 481.889 29.865C481.313 29.613 480.803 29.268 480.359 28.83C479.921 28.386 479.579 27.876 479.333 27.3C479.087 26.724 478.964 26.103 478.964 25.437C478.964 24.795 479.084 24.189 479.324 23.619C479.564 23.049 479.897 22.551 480.323 22.125C480.755 21.693 481.253 21.357 481.817 21.117C482.381 20.871 482.987 20.748 483.635 20.748C484.343 20.748 484.964 20.916 485.498 21.252C486.032 21.582 486.464 22.011 486.794 22.539L486.74 21ZM483.716 28.767C484.31 28.767 484.823 28.623 485.255 28.335C485.693 28.041 486.029 27.645 486.263 27.147C486.503 26.649 486.623 26.1 486.623 25.5C486.623 24.888 486.503 24.336 486.263 23.844C486.023 23.346 485.684 22.953 485.246 22.665C484.814 22.371 484.304 22.224 483.716 22.224C483.122 22.224 482.582 22.371 482.096 22.665C481.61 22.959 481.223 23.355 480.935 23.853C480.653 24.345 480.512 24.894 480.512 25.5C480.512 26.106 480.659 26.658 480.953 27.156C481.247 27.648 481.637 28.041 482.123 28.335C482.609 28.623 483.14 28.767 483.716 28.767Z" fill="white"></path></svg>