<svg xmlns="http://www.w3.org/2000/svg" width="965" height="66" viewBox="0 0 965 66" fill="none"><g clip-path="url(#clip0_166_1083)"><path d="M6.867 5.2H8.043V15H6.867V10.338H2.016V15H0.84V5.2H2.016V9.162H6.867V5.2ZM12.7384 15.182C12.0944 15.182 11.5064 15.0163 10.9744 14.685C10.447 14.3537 10.0247 13.9103 9.70736 13.355C9.39469 12.795 9.23836 12.1767 9.23836 11.5C9.23836 10.9867 9.32936 10.5083 9.51136 10.065C9.69336 9.617 9.94303 9.225 10.2604 8.889C10.5824 8.54833 10.9557 8.28233 11.3804 8.091C11.805 7.89967 12.2577 7.804 12.7384 7.804C13.3824 7.804 13.968 7.96967 14.4954 8.301C15.0274 8.63233 15.4497 9.078 15.7624 9.638C16.0797 10.198 16.2384 10.8187 16.2384 11.5C16.2384 12.0087 16.1474 12.4847 15.9654 12.928C15.7834 13.3713 15.5314 13.7633 15.2094 14.104C14.892 14.44 14.521 14.7037 14.0964 14.895C13.6764 15.0863 13.2237 15.182 12.7384 15.182ZM12.7384 14.006C13.177 14.006 13.5714 13.8917 13.9214 13.663C14.276 13.4297 14.5537 13.124 14.7544 12.746C14.9597 12.3633 15.0624 11.948 15.0624 11.5C15.0624 11.0427 14.9574 10.6227 14.7474 10.24C14.542 9.85733 14.2644 9.55167 13.9144 9.323C13.5644 9.09433 13.1724 8.98 12.7384 8.98C12.2997 8.98 11.9054 9.09667 11.5554 9.33C11.2054 9.55867 10.9277 9.86433 10.7224 10.247C10.517 10.6297 10.4144 11.0473 10.4144 11.5C10.4144 11.9667 10.5194 12.3913 10.7294 12.774C10.9394 13.152 11.2217 13.453 11.5764 13.677C11.931 13.8963 12.3184 14.006 12.7384 14.006ZM17.3966 15V8H18.5726V8.875C18.82 8.54833 19.1303 8.28933 19.5036 8.098C19.8816 7.902 20.2923 7.804 20.7356 7.804C21.2536 7.804 21.7273 7.93 22.1566 8.182C22.586 8.434 22.9243 8.76767 23.1716 9.183C23.419 8.76767 23.755 8.434 24.1796 8.182C24.609 7.93 25.0803 7.804 25.5936 7.804C26.121 7.804 26.5993 7.93233 27.0286 8.189C27.458 8.441 27.7986 8.78167 28.0506 9.211C28.3073 9.64033 28.4356 10.1187 28.4356 10.646V15H27.2596V10.926C27.2596 10.5807 27.1756 10.261 27.0076 9.967C26.8396 9.673 26.6133 9.43733 26.3286 9.26C26.044 9.08267 25.729 8.994 25.3836 8.994C25.0383 8.994 24.7233 9.078 24.4386 9.246C24.154 9.40933 23.9276 9.638 23.7596 9.932C23.5916 10.2213 23.5076 10.5527 23.5076 10.926V15H22.3316V10.926C22.3316 10.5527 22.2476 10.2213 22.0796 9.932C21.9116 9.638 21.683 9.40933 21.3936 9.246C21.109 9.078 20.794 8.994 20.4486 8.994C20.108 8.994 19.793 9.08267 19.5036 9.26C19.219 9.43733 18.9926 9.673 18.8246 9.967C18.6566 10.261 18.5726 10.5807 18.5726 10.926V15H17.3966ZM32.7813 15.182C32.1373 15.182 31.5493 15.0163 31.0173 14.685C30.49 14.3537 30.0677 13.9103 29.7503 13.355C29.4377 12.795 29.2813 12.1767 29.2813 11.5C29.2813 10.9867 29.3723 10.5083 29.5543 10.065C29.7363 9.617 29.986 9.225 30.3033 8.889C30.6253 8.54833 30.9987 8.28233 31.4233 8.091C31.848 7.89967 32.3007 7.804 32.7813 7.804C33.3087 7.804 33.7917 7.91133 34.2303 8.126C34.6737 8.336 35.0517 8.63 35.3643 9.008C35.6817 9.386 35.9173 9.82467 36.0713 10.324C36.23 10.8233 36.2883 11.3577 36.2463 11.927H30.5343C30.5903 12.3237 30.721 12.6783 30.9263 12.991C31.1317 13.299 31.393 13.544 31.7103 13.726C32.0323 13.908 32.3893 14.0013 32.7813 14.006C33.2013 14.006 33.5817 13.8987 33.9223 13.684C34.263 13.4647 34.5383 13.166 34.7483 12.788L35.9453 13.068C35.6653 13.6887 35.243 14.1973 34.6783 14.594C34.1137 14.986 33.4813 15.182 32.7813 15.182ZM30.4993 11.003H35.0633C35.026 10.611 34.9 10.254 34.6853 9.932C34.4707 9.60533 34.1977 9.344 33.8663 9.148C33.535 8.952 33.1733 8.854 32.7813 8.854C32.3893 8.854 32.03 8.94967 31.7033 9.141C31.3767 9.33233 31.106 9.59133 30.8913 9.918C30.6813 10.24 30.5507 10.6017 30.4993 11.003ZM40.4649 15.182C39.8209 15.182 39.2329 15.0163 38.7009 14.685C38.1736 14.3537 37.7513 13.9103 37.4339 13.355C37.1213 12.795 36.9649 12.1767 36.9649 11.5C36.9649 10.9867 37.0559 10.5083 37.2379 10.065C37.4199 9.617 37.6696 9.225 37.9869 8.889C38.3089 8.54833 38.6823 8.28233 39.1069 8.091C39.5316 7.89967 39.9843 7.804 40.4649 7.804C41.1089 7.804 41.6946 7.96967 42.2219 8.301C42.7539 8.63233 43.1763 9.078 43.4889 9.638C43.8063 10.198 43.9649 10.8187 43.9649 11.5C43.9649 12.0087 43.8739 12.4847 43.6919 12.928C43.5099 13.3713 43.2579 13.7633 42.9359 14.104C42.6186 14.44 42.2476 14.7037 41.8229 14.895C41.4029 15.0863 40.9503 15.182 40.4649 15.182ZM40.4649 14.006C40.9036 14.006 41.2979 13.8917 41.6479 13.663C42.0026 13.4297 42.2803 13.124 42.4809 12.746C42.6863 12.3633 42.7889 11.948 42.7889 11.5C42.7889 11.0427 42.6839 10.6227 42.4739 10.24C42.2686 9.85733 41.9909 9.55167 41.6409 9.323C41.2909 9.09433 40.8989 8.98 40.4649 8.98C40.0263 8.98 39.6319 9.09667 39.2819 9.33C38.9319 9.55867 38.6543 9.86433 38.4489 10.247C38.2436 10.6297 38.1409 11.0473 38.1409 11.5C38.1409 11.9667 38.2459 12.3913 38.4559 12.774C38.6659 13.152 38.9483 13.453 39.3029 13.677C39.6576 13.8963 40.0449 14.006 40.4649 14.006ZM47.9237 15H46.7338L44.3888 8H45.5368L47.3428 13.341L49.1278 8H50.3388L52.1308 13.341L53.9158 8H55.0778L52.7328 15H51.5358L49.7228 9.61L47.9237 15ZM62.3991 10.646V15H61.2231V10.905C61.2231 10.5503 61.1368 10.2283 60.9641 9.939C60.7914 9.64967 60.5604 9.421 60.2711 9.253C59.9818 9.08033 59.6598 8.994 59.3051 8.994C58.9551 8.994 58.6331 9.08033 58.3391 9.253C58.0498 9.421 57.8188 9.64967 57.6461 9.939C57.4734 10.2283 57.3871 10.5503 57.3871 10.905V15H56.2111V8H57.3871V8.875C57.6344 8.54833 57.9471 8.28933 58.3251 8.098C58.7031 7.902 59.1138 7.804 59.5571 7.804C60.0798 7.804 60.5558 7.93233 60.9851 8.189C61.4191 8.441 61.7621 8.78167 62.0141 9.211C62.2708 9.64033 62.3991 10.1187 62.3991 10.646ZM66.7423 15.182C66.0983 15.182 65.5103 15.0163 64.9783 14.685C64.4509 14.3537 64.0286 13.9103 63.7113 13.355C63.3986 12.795 63.2423 12.1767 63.2423 11.5C63.2423 10.9867 63.3333 10.5083 63.5153 10.065C63.6973 9.617 63.9469 9.225 64.2643 8.889C64.5863 8.54833 64.9596 8.28233 65.3843 8.091C65.8089 7.89967 66.2616 7.804 66.7423 7.804C67.2696 7.804 67.7526 7.91133 68.1913 8.126C68.6346 8.336 69.0126 8.63 69.3253 9.008C69.6426 9.386 69.8783 9.82467 70.0323 10.324C70.1909 10.8233 70.2493 11.3577 70.2073 11.927H64.4953C64.5513 12.3237 64.6819 12.6783 64.8873 12.991C65.0926 13.299 65.3539 13.544 65.6713 13.726C65.9933 13.908 66.3503 14.0013 66.7423 14.006C67.1623 14.006 67.5426 13.8987 67.8833 13.684C68.2239 13.4647 68.4993 13.166 68.7093 12.788L69.9063 13.068C69.6263 13.6887 69.2039 14.1973 68.6393 14.594C68.0746 14.986 67.4423 15.182 66.7423 15.182ZM64.4603 11.003H69.0243C68.9869 10.611 68.8609 10.254 68.6463 9.932C68.4316 9.60533 68.1586 9.344 67.8273 9.148C67.4959 8.952 67.1343 8.854 66.7423 8.854C66.3503 8.854 65.9909 8.94967 65.6643 9.141C65.3376 9.33233 65.0669 9.59133 64.8523 9.918C64.6423 10.24 64.5116 10.6017 64.4603 11.003ZM71.3869 15V8H72.5629V8.875C72.8102 8.54833 73.1229 8.28933 73.5009 8.098C73.8789 7.902 74.2895 7.804 74.7329 7.804C75.0035 7.804 75.2649 7.839 75.5169 7.909L75.0409 9.085C74.8495 9.02433 74.6629 8.994 74.4809 8.994C74.1309 8.994 73.8089 9.08033 73.5149 9.253C73.2255 9.421 72.9945 9.64967 72.8219 9.939C72.6492 10.2283 72.5629 10.5503 72.5629 10.905V15H71.3869ZM78.5121 15.133C78.1341 15.119 77.7654 15.049 77.4061 14.923C77.0514 14.7923 76.7388 14.6173 76.4681 14.398C76.2021 14.174 76.0084 13.9173 75.8871 13.628L76.8951 13.194C76.9651 13.3527 77.0911 13.502 77.2731 13.642C77.4551 13.782 77.6651 13.894 77.9031 13.978C78.1411 14.062 78.3814 14.104 78.6241 14.104C78.8808 14.104 79.1211 14.0643 79.3451 13.985C79.5691 13.9057 79.7511 13.789 79.8911 13.635C80.0358 13.4763 80.1081 13.2873 80.1081 13.068C80.1081 12.8347 80.0288 12.6527 79.8701 12.522C79.7161 12.3867 79.5201 12.2817 79.2821 12.207C79.0488 12.1277 78.8108 12.053 78.5681 11.983C78.0874 11.8617 77.6581 11.717 77.2801 11.549C76.9021 11.3763 76.6034 11.1593 76.3841 10.898C76.1694 10.632 76.0621 10.2937 76.0621 9.883C76.0621 9.449 76.1811 9.07333 76.4191 8.756C76.6618 8.43867 76.9791 8.19367 77.3711 8.021C77.7631 7.84833 78.1831 7.762 78.6311 7.762C79.1958 7.762 79.7114 7.88333 80.1781 8.126C80.6448 8.36867 80.9924 8.69767 81.2211 9.113L80.2761 9.666C80.1968 9.498 80.0754 9.351 79.9121 9.225C79.7488 9.09433 79.5621 8.99167 79.3521 8.917C79.1421 8.84233 78.9274 8.80267 78.7081 8.798C78.4374 8.78867 78.1831 8.82367 77.9451 8.903C77.7118 8.98233 77.5228 9.10367 77.3781 9.267C77.2381 9.42567 77.1681 9.624 77.1681 9.862C77.1681 10.0953 77.2428 10.2727 77.3921 10.394C77.5461 10.5153 77.7444 10.6133 77.9871 10.688C78.2344 10.758 78.5028 10.8397 78.7921 10.933C79.2168 11.0683 79.6134 11.2247 79.9821 11.402C80.3508 11.5793 80.6471 11.801 80.8711 12.067C81.0998 12.333 81.2118 12.662 81.2071 13.054C81.2071 13.4833 81.0788 13.859 80.8221 14.181C80.5654 14.4983 80.2318 14.741 79.8211 14.909C79.4151 15.077 78.9788 15.1517 78.5121 15.133ZM82.0634 8.854V5.2H82.9244V8.854H82.0634ZM90.9121 5.2H92.3331L95.8961 15H94.6501L93.9221 12.998H89.3231L88.6021 15H87.3491L90.9121 5.2ZM89.7571 11.822H93.4881L91.6191 6.705L89.7571 11.822ZM98.9652 15.133C98.5872 15.119 98.2186 15.049 97.8592 14.923C97.5046 14.7923 97.1919 14.6173 96.9212 14.398C96.6552 14.174 96.4616 13.9173 96.3402 13.628L97.3482 13.194C97.4182 13.3527 97.5442 13.502 97.7262 13.642C97.9082 13.782 98.1182 13.894 98.3562 13.978C98.5942 14.062 98.8346 14.104 99.0772 14.104C99.3339 14.104 99.5742 14.0643 99.7982 13.985C100.022 13.9057 100.204 13.789 100.344 13.635C100.489 13.4763 100.561 13.2873 100.561 13.068C100.561 12.8347 100.482 12.6527 100.323 12.522C100.169 12.3867 99.9732 12.2817 99.7352 12.207C99.5019 12.1277 99.2639 12.053 99.0212 11.983C98.5406 11.8617 98.1112 11.717 97.7332 11.549C97.3552 11.3763 97.0566 11.1593 96.8372 10.898C96.6226 10.632 96.5152 10.2937 96.5152 9.883C96.5152 9.449 96.6342 9.07333 96.8722 8.756C97.1149 8.43867 97.4322 8.19367 97.8242 8.021C98.2162 7.84833 98.6362 7.762 99.0842 7.762C99.6489 7.762 100.165 7.88333 100.631 8.126C101.098 8.36867 101.446 8.69767 101.674 9.113L100.729 9.666C100.65 9.498 100.529 9.351 100.365 9.225C100.202 9.09433 100.015 8.99167 99.8052 8.917C99.5952 8.84233 99.3806 8.80267 99.1612 8.798C98.8906 8.78867 98.6362 8.82367 98.3982 8.903C98.1649 8.98233 97.9759 9.10367 97.8312 9.267C97.6912 9.42567 97.6212 9.624 97.6212 9.862C97.6212 10.0953 97.6959 10.2727 97.8452 10.394C97.9992 10.5153 98.1976 10.6133 98.4402 10.688C98.6876 10.758 98.9559 10.8397 99.2452 10.933C99.6699 11.0683 100.067 11.2247 100.435 11.402C100.804 11.5793 101.1 11.801 101.324 12.067C101.553 12.333 101.665 12.662 101.66 13.054C101.66 13.4833 101.532 13.859 101.275 14.181C101.019 14.4983 100.685 14.741 100.274 14.909C99.8682 15.077 99.4319 15.1517 98.9652 15.133ZM104.995 15.133C104.617 15.119 104.248 15.049 103.889 14.923C103.534 14.7923 103.221 14.6173 102.951 14.398C102.685 14.174 102.491 13.9173 102.37 13.628L103.378 13.194C103.448 13.3527 103.574 13.502 103.756 13.642C103.938 13.782 104.148 13.894 104.386 13.978C104.624 14.062 104.864 14.104 105.107 14.104C105.363 14.104 105.604 14.0643 105.828 13.985C106.052 13.9057 106.234 13.789 106.374 13.635C106.518 13.4763 106.591 13.2873 106.591 13.068C106.591 12.8347 106.511 12.6527 106.353 12.522C106.199 12.3867 106.003 12.2817 105.765 12.207C105.531 12.1277 105.293 12.053 105.051 11.983C104.57 11.8617 104.141 11.717 103.763 11.549C103.385 11.3763 103.086 11.1593 102.867 10.898C102.652 10.632 102.545 10.2937 102.545 9.883C102.545 9.449 102.664 9.07333 102.902 8.756C103.144 8.43867 103.462 8.19367 103.854 8.021C104.246 7.84833 104.666 7.762 105.114 7.762C105.678 7.762 106.194 7.88333 106.661 8.126C107.127 8.36867 107.475 8.69767 107.704 9.113L106.759 9.666C106.679 9.498 106.558 9.351 106.395 9.225C106.231 9.09433 106.045 8.99167 105.835 8.917C105.625 8.84233 105.41 8.80267 105.191 8.798C104.92 8.78867 104.666 8.82367 104.428 8.903C104.194 8.98233 104.005 9.10367 103.861 9.267C103.721 9.42567 103.651 9.624 103.651 9.862C103.651 10.0953 103.725 10.2727 103.875 10.394C104.029 10.5153 104.227 10.6133 104.47 10.688C104.717 10.758 104.985 10.8397 105.275 10.933C105.699 11.0683 106.096 11.2247 106.465 11.402C106.833 11.5793 107.13 11.801 107.354 12.067C107.582 12.333 107.694 12.662 107.69 13.054C107.69 13.4833 107.561 13.859 107.305 14.181C107.048 14.4983 106.714 14.741 106.304 14.909C105.898 15.077 105.461 15.1517 104.995 15.133ZM111.9 15.182C111.256 15.182 110.668 15.0163 110.136 14.685C109.609 14.3537 109.187 13.9103 108.869 13.355C108.557 12.795 108.4 12.1767 108.4 11.5C108.4 10.9867 108.491 10.5083 108.673 10.065C108.855 9.617 109.105 9.225 109.422 8.889C109.744 8.54833 110.118 8.28233 110.542 8.091C110.967 7.89967 111.42 7.804 111.9 7.804C112.544 7.804 113.13 7.96967 113.657 8.301C114.189 8.63233 114.612 9.078 114.924 9.638C115.242 10.198 115.4 10.8187 115.4 11.5C115.4 12.0087 115.309 12.4847 115.127 12.928C114.945 13.3713 114.693 13.7633 114.371 14.104C114.054 14.44 113.683 14.7037 113.258 14.895C112.838 15.0863 112.386 15.182 111.9 15.182ZM111.9 14.006C112.339 14.006 112.733 13.8917 113.083 13.663C113.438 13.4297 113.716 13.124 113.916 12.746C114.122 12.3633 114.224 11.948 114.224 11.5C114.224 11.0427 114.119 10.6227 113.909 10.24C113.704 9.85733 113.426 9.55167 113.076 9.323C112.726 9.09433 112.334 8.98 111.9 8.98C111.462 8.98 111.067 9.09667 110.717 9.33C110.367 9.55867 110.09 9.86433 109.884 10.247C109.679 10.6297 109.576 11.0473 109.576 11.5C109.576 11.9667 109.681 12.3913 109.891 12.774C110.101 13.152 110.384 13.453 110.738 13.677C111.093 13.8963 111.48 14.006 111.9 14.006ZM121.341 13.152L122.391 13.719C122.073 14.1623 121.67 14.517 121.18 14.783C120.694 15.049 120.167 15.182 119.598 15.182C118.954 15.182 118.366 15.0163 117.834 14.685C117.306 14.3537 116.884 13.9103 116.567 13.355C116.254 12.795 116.098 12.1767 116.098 11.5C116.098 10.9867 116.189 10.5083 116.371 10.065C116.553 9.617 116.802 9.225 117.12 8.889C117.442 8.54833 117.815 8.28233 118.24 8.091C118.664 7.89967 119.117 7.804 119.598 7.804C120.167 7.804 120.694 7.937 121.18 8.203C121.67 8.469 122.073 8.826 122.391 9.274L121.341 9.841C121.117 9.56567 120.851 9.35333 120.543 9.204C120.235 9.05467 119.92 8.98 119.598 8.98C119.164 8.98 118.769 9.09667 118.415 9.33C118.065 9.55867 117.787 9.86433 117.582 10.247C117.376 10.6297 117.274 11.0473 117.274 11.5C117.274 11.9527 117.376 12.3703 117.582 12.753C117.792 13.131 118.072 13.4343 118.422 13.663C118.776 13.8917 119.168 14.006 119.598 14.006C119.943 14.006 120.267 13.9267 120.571 13.768C120.874 13.6093 121.131 13.404 121.341 13.152ZM123.49 8H124.666V15H123.49V8ZM124.092 6.859C123.906 6.859 123.749 6.79833 123.623 6.677C123.497 6.55567 123.434 6.404 123.434 6.222C123.434 6.04 123.497 5.88833 123.623 5.767C123.749 5.64567 123.903 5.585 124.085 5.585C124.267 5.585 124.421 5.64567 124.547 5.767C124.673 5.88833 124.736 6.04 124.736 6.222C124.736 6.404 124.673 6.55567 124.547 6.677C124.426 6.79833 124.274 6.859 124.092 6.859ZM131.88 8H133.056V15H131.88L131.831 13.817C131.612 14.223 131.308 14.552 130.921 14.804C130.538 15.056 130.081 15.182 129.549 15.182C129.036 15.182 128.555 15.0863 128.107 14.895C127.659 14.699 127.262 14.4307 126.917 14.09C126.576 13.7447 126.31 13.348 126.119 12.9C125.928 12.452 125.832 11.969 125.832 11.451C125.832 10.9517 125.925 10.4803 126.112 10.037C126.299 9.59367 126.558 9.20633 126.889 8.875C127.225 8.539 127.612 8.27767 128.051 8.091C128.49 7.89967 128.961 7.804 129.465 7.804C130.016 7.804 130.499 7.93467 130.914 8.196C131.329 8.45267 131.665 8.78633 131.922 9.197L131.88 8ZM129.528 14.041C129.99 14.041 130.389 13.929 130.725 13.705C131.066 13.4763 131.327 13.1683 131.509 12.781C131.696 12.3937 131.789 11.9667 131.789 11.5C131.789 11.024 131.696 10.5947 131.509 10.212C131.322 9.82467 131.059 9.519 130.718 9.295C130.382 9.06633 129.985 8.952 129.528 8.952C129.066 8.952 128.646 9.06633 128.268 9.295C127.89 9.52367 127.589 9.83167 127.365 10.219C127.146 10.6017 127.036 11.0287 127.036 11.5C127.036 11.9713 127.15 12.4007 127.379 12.788C127.608 13.1707 127.911 13.4763 128.289 13.705C128.667 13.929 129.08 14.041 129.528 14.041ZM138.081 9.176H136.492L136.485 15H135.309L135.316 9.176H134.112V8H135.316L135.309 5.802H136.485L136.492 8H138.081V9.176ZM139.268 8H140.444V15H139.268V8ZM139.87 6.859C139.683 6.859 139.527 6.79833 139.401 6.677C139.275 6.55567 139.212 6.404 139.212 6.222C139.212 6.04 139.275 5.88833 139.401 5.767C139.527 5.64567 139.681 5.585 139.863 5.585C140.045 5.585 140.199 5.64567 140.325 5.767C140.451 5.88833 140.514 6.04 140.514 6.222C140.514 6.404 140.451 6.55567 140.325 6.677C140.203 6.79833 140.052 6.859 139.87 6.859ZM145.109 15.182C144.465 15.182 143.877 15.0163 143.345 14.685C142.818 14.3537 142.396 13.9103 142.078 13.355C141.766 12.795 141.609 12.1767 141.609 11.5C141.609 10.9867 141.7 10.5083 141.882 10.065C142.064 9.617 142.314 9.225 142.631 8.889C142.953 8.54833 143.327 8.28233 143.751 8.091C144.176 7.89967 144.629 7.804 145.109 7.804C145.753 7.804 146.339 7.96967 146.866 8.301C147.398 8.63233 147.821 9.078 148.133 9.638C148.451 10.198 148.609 10.8187 148.609 11.5C148.609 12.0087 148.518 12.4847 148.336 12.928C148.154 13.3713 147.902 13.7633 147.58 14.104C147.263 14.44 146.892 14.7037 146.467 14.895C146.047 15.0863 145.595 15.182 145.109 15.182ZM145.109 14.006C145.548 14.006 145.942 13.8917 146.292 13.663C146.647 13.4297 146.925 13.124 147.125 12.746C147.331 12.3633 147.433 11.948 147.433 11.5C147.433 11.0427 147.328 10.6227 147.118 10.24C146.913 9.85733 146.635 9.55167 146.285 9.323C145.935 9.09433 145.543 8.98 145.109 8.98C144.671 8.98 144.276 9.09667 143.926 9.33C143.576 9.55867 143.299 9.86433 143.093 10.247C142.888 10.6297 142.785 11.0473 142.785 11.5C142.785 11.9667 142.89 12.3913 143.1 12.774C143.31 13.152 143.593 13.453 143.947 13.677C144.302 13.8963 144.689 14.006 145.109 14.006ZM155.956 10.646V15H154.78V10.905C154.78 10.5503 154.693 10.2283 154.521 9.939C154.348 9.64967 154.117 9.421 153.828 9.253C153.538 9.08033 153.216 8.994 152.862 8.994C152.512 8.994 152.19 9.08033 151.896 9.253C151.606 9.421 151.375 9.64967 151.203 9.939C151.03 10.2283 150.944 10.5503 150.944 10.905V15H149.768V8H150.944V8.875C151.191 8.54833 151.504 8.28933 151.882 8.098C152.26 7.902 152.67 7.804 153.114 7.804C153.636 7.804 154.112 7.93233 154.542 8.189C154.976 8.441 155.319 8.78167 155.571 9.211C155.827 9.64033 155.956 10.1187 155.956 10.646ZM160.719 15V5.2H166.466V6.376H161.895V9.162H165.794V10.338H161.895V15H160.719ZM169.869 15.182C169.225 15.182 168.637 15.0163 168.105 14.685C167.578 14.3537 167.156 13.9103 166.838 13.355C166.526 12.795 166.369 12.1767 166.369 11.5C166.369 10.9867 166.46 10.5083 166.642 10.065C166.824 9.617 167.074 9.225 167.391 8.889C167.713 8.54833 168.087 8.28233 168.511 8.091C168.936 7.89967 169.389 7.804 169.869 7.804C170.397 7.804 170.88 7.91133 171.318 8.126C171.762 8.336 172.14 8.63 172.452 9.008C172.77 9.386 173.005 9.82467 173.159 10.324C173.318 10.8233 173.376 11.3577 173.334 11.927H167.622C167.678 12.3237 167.809 12.6783 168.014 12.991C168.22 13.299 168.481 13.544 168.798 13.726C169.12 13.908 169.477 14.0013 169.869 14.006C170.289 14.006 170.67 13.8987 171.01 13.684C171.351 13.4647 171.626 13.166 171.836 12.788L173.033 13.068C172.753 13.6887 172.331 14.1973 171.766 14.594C171.202 14.986 170.569 15.182 169.869 15.182ZM167.587 11.003H172.151C172.114 10.611 171.988 10.254 171.773 9.932C171.559 9.60533 171.286 9.344 170.954 9.148C170.623 8.952 170.261 8.854 169.869 8.854C169.477 8.854 169.118 8.94967 168.791 9.141C168.465 9.33233 168.194 9.59133 167.979 9.918C167.769 10.24 167.639 10.6017 167.587 11.003ZM177.553 15.182C176.909 15.182 176.321 15.0163 175.789 14.685C175.261 14.3537 174.839 13.9103 174.522 13.355C174.209 12.795 174.053 12.1767 174.053 11.5C174.053 10.9867 174.144 10.5083 174.326 10.065C174.508 9.617 174.757 9.225 175.075 8.889C175.397 8.54833 175.77 8.28233 176.195 8.091C176.619 7.89967 177.072 7.804 177.553 7.804C178.08 7.804 178.563 7.91133 179.002 8.126C179.445 8.336 179.823 8.63 180.136 9.008C180.453 9.386 180.689 9.82467 180.843 10.324C181.001 10.8233 181.06 11.3577 181.018 11.927H175.306C175.362 12.3237 175.492 12.6783 175.698 12.991C175.903 13.299 176.164 13.544 176.482 13.726C176.804 13.908 177.161 14.0013 177.553 14.006C177.973 14.006 178.353 13.8987 178.694 13.684C179.034 13.4647 179.31 13.166 179.52 12.788L180.717 13.068C180.437 13.6887 180.014 14.1973 179.45 14.594C178.885 14.986 178.253 15.182 177.553 15.182ZM175.271 11.003H179.835C179.797 10.611 179.671 10.254 179.457 9.932C179.242 9.60533 178.969 9.344 178.638 9.148C178.306 8.952 177.945 8.854 177.553 8.854C177.161 8.854 176.801 8.94967 176.475 9.141C176.148 9.33233 175.877 9.59133 175.663 9.918C175.453 10.24 175.322 10.6017 175.271 11.003Z" fill="#999999"></path><path d="M5.99 44.36C5.45667 44.3533 4.95667 44.44 4.49 44.62C4.03 44.7933 3.65333 45.0333 3.36 45.34C3.06667 45.6467 2.92 46.0033 2.92 46.41C2.92 46.91 3.05667 47.29 3.33 47.55C3.60333 47.81 3.97 48.0033 4.43 48.13C4.89667 48.25 5.41667 48.36 5.99 48.46C6.91 48.6067 7.76 48.85 8.54 49.19C9.32667 49.53 9.95667 49.9833 10.43 50.55C10.91 51.11 11.15 51.8 11.15 52.62C11.15 53.3733 10.95 54.0433 10.55 54.63C10.15 55.21 9.61333 55.68 8.94 56.04C8.27333 56.3933 7.53667 56.6167 6.73 56.71V58.74H5.26V56.71C4.58667 56.6433 3.94667 56.4833 3.34 56.23C2.74 55.9767 2.21667 55.64 1.77 55.22C1.32333 54.8 1 54.3133 0.8 53.76L2.75 53.03C2.86333 53.35 3.08 53.6367 3.4 53.89C3.72667 54.1367 4.11333 54.33 4.56 54.47C5.01333 54.61 5.49 54.68 5.99 54.68C6.52333 54.68 7.02333 54.5933 7.49 54.42C7.96333 54.2467 8.34333 54.0067 8.63 53.7C8.92333 53.3933 9.07 53.0333 9.07 52.62C9.07 52.1933 8.91667 51.8433 8.61 51.57C8.31 51.2967 7.92333 51.08 7.45 50.92C6.98333 50.76 6.49667 50.64 5.99 50.56C5.01 50.4 4.13 50.1667 3.35 49.86C2.57667 49.5533 1.96333 49.1233 1.51 48.57C1.06333 48.0167 0.84 47.2967 0.84 46.41C0.84 45.6567 1.04 44.9867 1.44 44.4C1.84 43.8133 2.37333 43.3433 3.04 42.99C3.71333 42.63 4.45333 42.4067 5.26 42.32V40.26H6.73V42.32C7.38333 42.3867 8.01 42.5467 8.61 42.8C9.21667 43.0533 9.74667 43.39 10.2 43.81C10.6533 44.2233 10.9833 44.7167 11.19 45.29L9.22 46C9.10667 45.6733 8.89 45.39 8.57 45.15C8.25 44.9033 7.86333 44.71 7.41 44.57C6.96333 44.43 6.49 44.36 5.99 44.36ZM17.0322 56.76C16.1855 56.76 15.4255 56.5633 14.7522 56.17C14.0855 55.7767 13.5589 55.25 13.1722 54.59C12.7855 53.93 12.5922 53.1967 12.5922 52.39H14.6722C14.6722 52.81 14.7722 53.1933 14.9722 53.54C15.1722 53.8867 15.4489 54.1633 15.8022 54.37C16.1555 54.5767 16.5655 54.68 17.0322 54.68C17.4522 54.68 17.8422 54.5767 18.2022 54.37C18.5622 54.1633 18.8522 53.8867 19.0722 53.54C19.2922 53.1933 19.4022 52.81 19.4022 52.39C19.4022 51.8567 19.2622 51.41 18.9822 51.05C18.7022 50.69 18.3122 50.4233 17.8122 50.25C17.3189 50.07 16.7489 49.98 16.1022 49.98V48.34C16.9822 48.34 17.6855 48.1667 18.2122 47.82C18.7389 47.4733 19.0022 46.9567 19.0022 46.27C19.0022 45.91 18.9055 45.5833 18.7122 45.29C18.5255 44.99 18.2755 44.7533 17.9622 44.58C17.6555 44.4 17.3255 44.31 16.9722 44.31C16.6055 44.31 16.2522 44.4 15.9122 44.58C15.5789 44.7533 15.3055 44.99 15.0922 45.29C14.8789 45.5833 14.7722 45.91 14.7722 46.27H12.6922C12.6922 45.7167 12.8055 45.1967 13.0322 44.71C13.2655 44.2167 13.5789 43.7867 13.9722 43.42C14.3722 43.0467 14.8255 42.7567 15.3322 42.55C15.8455 42.3367 16.3822 42.23 16.9422 42.23C17.6755 42.23 18.3555 42.4133 18.9822 42.78C19.6155 43.14 20.1222 43.6267 20.5022 44.24C20.8889 44.8467 21.0822 45.5233 21.0822 46.27C21.0822 46.8633 20.9355 47.4267 20.6422 47.96C20.3555 48.4867 19.9555 48.86 19.4422 49.08C19.8889 49.24 20.2622 49.4933 20.5622 49.84C20.8689 50.18 21.0989 50.5733 21.2522 51.02C21.4055 51.46 21.4822 51.9167 21.4822 52.39C21.4822 53.19 21.2789 53.9233 20.8722 54.59C20.4655 55.25 19.9222 55.7767 19.2422 56.17C18.5689 56.5633 17.8322 56.76 17.0322 56.76ZM28.1198 56.76C27.2932 56.76 26.5465 56.5733 25.8798 56.2C25.2198 55.82 24.6498 55.2967 24.1698 54.63C23.6898 53.9633 23.3232 53.1933 23.0698 52.32C22.8165 51.44 22.6898 50.5 22.6898 49.5C22.6898 48.5 22.8165 47.56 23.0698 46.68C23.3232 45.8 23.6898 45.03 24.1698 44.37C24.6498 43.7033 25.2198 43.1833 25.8798 42.81C26.5465 42.43 27.2932 42.24 28.1198 42.24C28.9332 42.24 29.6732 42.43 30.3398 42.81C31.0065 43.1833 31.5732 43.7033 32.0398 44.37C32.5132 45.03 32.8765 45.8 33.1298 46.68C33.3832 47.56 33.5098 48.5 33.5098 49.5C33.5098 50.5 33.3832 51.44 33.1298 52.32C32.8765 53.1933 32.5132 53.9633 32.0398 54.63C31.5732 55.2967 31.0065 55.82 30.3398 56.2C29.6732 56.5733 28.9332 56.76 28.1198 56.76ZM28.1198 54.68C28.8865 54.68 29.5232 54.44 30.0298 53.96C30.5432 53.4733 30.9265 52.8367 31.1798 52.05C31.4332 51.2633 31.5598 50.4133 31.5598 49.5C31.5598 48.54 31.4265 47.67 31.1598 46.89C30.8998 46.1033 30.5132 45.48 29.9998 45.02C29.4932 44.5533 28.8665 44.32 28.1198 44.32C27.5265 44.32 27.0098 44.46 26.5698 44.74C26.1365 45.02 25.7765 45.4033 25.4898 45.89C25.2098 46.3767 24.9965 46.93 24.8498 47.55C24.7098 48.17 24.6398 48.82 24.6398 49.5C24.6398 50.4133 24.7698 51.2633 25.0298 52.05C25.2898 52.8367 25.6765 53.4733 26.1898 53.96C26.7098 54.44 27.3532 54.68 28.1198 54.68ZM39.7605 56.76C38.9338 56.76 38.1871 56.5733 37.5205 56.2C36.8605 55.82 36.2905 55.2967 35.8105 54.63C35.3305 53.9633 34.9638 53.1933 34.7105 52.32C34.4571 51.44 34.3305 50.5 34.3305 49.5C34.3305 48.5 34.4571 47.56 34.7105 46.68C34.9638 45.8 35.3305 45.03 35.8105 44.37C36.2905 43.7033 36.8605 43.1833 37.5205 42.81C38.1871 42.43 38.9338 42.24 39.7605 42.24C40.5738 42.24 41.3138 42.43 41.9805 42.81C42.6471 43.1833 43.2138 43.7033 43.6805 44.37C44.1538 45.03 44.5171 45.8 44.7705 46.68C45.0238 47.56 45.1505 48.5 45.1505 49.5C45.1505 50.5 45.0238 51.44 44.7705 52.32C44.5171 53.1933 44.1538 53.9633 43.6805 54.63C43.2138 55.2967 42.6471 55.82 41.9805 56.2C41.3138 56.5733 40.5738 56.76 39.7605 56.76ZM39.7605 54.68C40.5271 54.68 41.1638 54.44 41.6705 53.96C42.1838 53.4733 42.5671 52.8367 42.8205 52.05C43.0738 51.2633 43.2005 50.4133 43.2005 49.5C43.2005 48.54 43.0671 47.67 42.8005 46.89C42.5405 46.1033 42.1538 45.48 41.6405 45.02C41.1338 44.5533 40.5071 44.32 39.7605 44.32C39.1671 44.32 38.6505 44.46 38.2105 44.74C37.7771 45.02 37.4171 45.4033 37.1305 45.89C36.8505 46.3767 36.6371 46.93 36.4905 47.55C36.3505 48.17 36.2805 48.82 36.2805 49.5C36.2805 50.4133 36.4105 51.2633 36.6705 52.05C36.9305 52.8367 37.3171 53.4733 37.8305 53.96C38.3505 54.44 38.9938 54.68 39.7605 54.68Z" fill="white"></path><rect x="58.5" y="33.5" width="371" height="32" rx="16" fill="#1A1A1A"></rect><rect x="58.5" y="33.5" width="371" height="32" rx="16" stroke="#262626"></rect><path d="M70.84 54L72.737 44.2H73.64L76.286 51.158L78.925 44.2H79.828L81.732 54H80.535L79.156 46.888L76.671 53.468H75.894L73.409 46.888L72.037 54H70.84ZM85.8829 54.182C85.2389 54.182 84.6509 54.0163 84.1189 53.685C83.5916 53.3537 83.1692 52.9103 82.8519 52.355C82.5392 51.795 82.3829 51.1767 82.3829 50.5C82.3829 49.9867 82.4739 49.5083 82.6559 49.065C82.8379 48.617 83.0876 48.225 83.4049 47.889C83.7269 47.5483 84.1002 47.2823 84.5249 47.091C84.9496 46.8997 85.4022 46.804 85.8829 46.804C86.5269 46.804 87.1126 46.9697 87.6399 47.301C88.1719 47.6323 88.5942 48.078 88.9069 48.638C89.2242 49.198 89.3829 49.8187 89.3829 50.5C89.3829 51.0087 89.2919 51.4847 89.1099 51.928C88.9279 52.3713 88.6759 52.7633 88.3539 53.104C88.0366 53.44 87.6656 53.7037 87.2409 53.895C86.8209 54.0863 86.3682 54.182 85.8829 54.182ZM85.8829 53.006C86.3216 53.006 86.7159 52.8917 87.0659 52.663C87.4206 52.4297 87.6982 52.124 87.8989 51.746C88.1042 51.3633 88.2069 50.948 88.2069 50.5C88.2069 50.0427 88.1019 49.6227 87.8919 49.24C87.6866 48.8573 87.4089 48.5517 87.0589 48.323C86.7089 48.0943 86.3169 47.98 85.8829 47.98C85.4442 47.98 85.0499 48.0967 84.6999 48.33C84.3499 48.5587 84.0722 48.8643 83.8669 49.247C83.6616 49.6297 83.5589 50.0473 83.5589 50.5C83.5589 50.9667 83.6639 51.3913 83.8739 51.774C84.0839 52.152 84.3662 52.453 84.7209 52.677C85.0756 52.8963 85.4629 53.006 85.8829 53.006ZM96.7292 49.646V54H95.5532V49.905C95.5532 49.5503 95.4668 49.2283 95.2942 48.939C95.1215 48.6497 94.8905 48.421 94.6012 48.253C94.3118 48.0803 93.9898 47.994 93.6352 47.994C93.2852 47.994 92.9632 48.0803 92.6692 48.253C92.3798 48.421 92.1488 48.6497 91.9762 48.939C91.8035 49.2283 91.7172 49.5503 91.7172 49.905V54H90.5412V47H91.7172V47.875C91.9645 47.5483 92.2772 47.2893 92.6552 47.098C93.0332 46.902 93.4438 46.804 93.8872 46.804C94.4098 46.804 94.8858 46.9323 95.3152 47.189C95.7492 47.441 96.0922 47.7817 96.3442 48.211C96.6008 48.6403 96.7292 49.1187 96.7292 49.646ZM101.755 48.176H100.166L100.159 54H98.9831L98.9901 48.176H97.7861V47H98.9901L98.9831 44.802H100.159L100.166 47H101.755V48.176ZM109.198 49.646V54H108.022V49.905C108.022 49.5503 107.936 49.2283 107.763 48.939C107.59 48.6497 107.359 48.421 107.07 48.253C106.781 48.0803 106.459 47.994 106.104 47.994C105.754 47.994 105.432 48.0803 105.138 48.253C104.849 48.421 104.618 48.6497 104.445 48.939C104.272 49.2283 104.186 49.5503 104.186 49.905V54H103.01V43.5H104.186V47.875C104.433 47.5483 104.746 47.2893 105.124 47.098C105.502 46.902 105.913 46.804 106.356 46.804C106.879 46.804 107.355 46.9323 107.784 47.189C108.218 47.441 108.561 47.7817 108.813 48.211C109.07 48.6403 109.198 49.1187 109.198 49.646ZM110.68 54V43.5H111.856V54H110.68ZM118.059 47H119.305L115.476 57.5H114.23L115.497 54L112.984 47H114.272L116.085 52.383L118.059 47ZM125.654 45.271V47H127.705V48.176H125.654V54H124.478V48.176H123.575V47H124.478V45.271C124.478 44.9117 124.564 44.5873 124.737 44.298C124.914 44.004 125.15 43.7707 125.444 43.598C125.742 43.4207 126.069 43.332 126.424 43.332C126.685 43.332 126.939 43.3857 127.187 43.493C127.434 43.5957 127.653 43.7497 127.845 43.955L127.005 44.788C126.939 44.6993 126.853 44.6317 126.746 44.585C126.643 44.5337 126.536 44.508 126.424 44.508C126.214 44.508 126.032 44.5827 125.878 44.732C125.728 44.8813 125.654 45.061 125.654 45.271ZM131.766 54.182C131.122 54.182 130.534 54.0163 130.002 53.685C129.474 53.3537 129.052 52.9103 128.735 52.355C128.422 51.795 128.266 51.1767 128.266 50.5C128.266 49.9867 128.357 49.5083 128.539 49.065C128.721 48.617 128.97 48.225 129.288 47.889C129.61 47.5483 129.983 47.2823 130.408 47.091C130.832 46.8997 131.285 46.804 131.766 46.804C132.293 46.804 132.776 46.9113 133.215 47.126C133.658 47.336 134.036 47.63 134.349 48.008C134.666 48.386 134.902 48.8247 135.056 49.324C135.214 49.8233 135.273 50.3577 135.231 50.927H129.519C129.575 51.3237 129.705 51.6783 129.911 51.991C130.116 52.299 130.377 52.544 130.695 52.726C131.017 52.908 131.374 53.0013 131.766 53.006C132.186 53.006 132.566 52.8987 132.907 52.684C133.247 52.4647 133.523 52.166 133.733 51.788L134.93 52.068C134.65 52.6887 134.227 53.1973 133.663 53.594C133.098 53.986 132.466 54.182 131.766 54.182ZM129.484 50.003H134.048C134.01 49.611 133.884 49.254 133.67 48.932C133.455 48.6053 133.182 48.344 132.851 48.148C132.519 47.952 132.158 47.854 131.766 47.854C131.374 47.854 131.014 47.9497 130.688 48.141C130.361 48.3323 130.09 48.5913 129.876 48.918C129.666 49.24 129.535 49.6017 129.484 50.003ZM139.449 54.182C138.805 54.182 138.217 54.0163 137.685 53.685C137.158 53.3537 136.736 52.9103 136.418 52.355C136.106 51.795 135.949 51.1767 135.949 50.5C135.949 49.9867 136.04 49.5083 136.222 49.065C136.404 48.617 136.654 48.225 136.971 47.889C137.293 47.5483 137.667 47.2823 138.091 47.091C138.516 46.8997 138.969 46.804 139.449 46.804C139.977 46.804 140.46 46.9113 140.898 47.126C141.342 47.336 141.72 47.63 142.032 48.008C142.35 48.386 142.585 48.8247 142.739 49.324C142.898 49.8233 142.956 50.3577 142.914 50.927H137.202C137.258 51.3237 137.389 51.6783 137.594 51.991C137.8 52.299 138.061 52.544 138.378 52.726C138.7 52.908 139.057 53.0013 139.449 53.006C139.869 53.006 140.25 52.8987 140.59 52.684C140.931 52.4647 141.206 52.166 141.416 51.788L142.613 52.068C142.333 52.6887 141.911 53.1973 141.346 53.594C140.782 53.986 140.149 54.182 139.449 54.182ZM137.167 50.003H141.731C141.694 49.611 141.568 49.254 141.353 48.932C141.139 48.6053 140.866 48.344 140.534 48.148C140.203 47.952 139.841 47.854 139.449 47.854C139.057 47.854 138.698 47.9497 138.371 48.141C138.045 48.3323 137.774 48.5913 137.559 48.918C137.349 49.24 137.219 49.6017 137.167 50.003ZM149.142 45.271V47H151.193V48.176H149.142V54H147.966V48.176H147.063V47H147.966V45.271C147.966 44.9117 148.052 44.5873 148.225 44.298C148.402 44.004 148.638 43.7707 148.932 43.598C149.231 43.4207 149.557 43.332 149.912 43.332C150.173 43.332 150.428 43.3857 150.675 43.493C150.922 43.5957 151.142 43.7497 151.333 43.955L150.493 44.788C150.428 44.6993 150.341 44.6317 150.234 44.585C150.131 44.5337 150.024 44.508 149.912 44.508C149.702 44.508 149.52 44.5827 149.366 44.732C149.217 44.8813 149.142 45.061 149.142 45.271ZM155.254 54.182C154.61 54.182 154.022 54.0163 153.49 53.685C152.963 53.3537 152.54 52.9103 152.223 52.355C151.91 51.795 151.754 51.1767 151.754 50.5C151.754 49.9867 151.845 49.5083 152.027 49.065C152.209 48.617 152.459 48.225 152.776 47.889C153.098 47.5483 153.471 47.2823 153.896 47.091C154.321 46.8997 154.773 46.804 155.254 46.804C155.898 46.804 156.484 46.9697 157.011 47.301C157.543 47.6323 157.965 48.078 158.278 48.638C158.595 49.198 158.754 49.8187 158.754 50.5C158.754 51.0087 158.663 51.4847 158.481 51.928C158.299 52.3713 158.047 52.7633 157.725 53.104C157.408 53.44 157.037 53.7037 156.612 53.895C156.192 54.0863 155.739 54.182 155.254 54.182ZM155.254 53.006C155.693 53.006 156.087 52.8917 156.437 52.663C156.792 52.4297 157.069 52.124 157.27 51.746C157.475 51.3633 157.578 50.948 157.578 50.5C157.578 50.0427 157.473 49.6227 157.263 49.24C157.058 48.8573 156.78 48.5517 156.43 48.323C156.08 48.0943 155.688 47.98 155.254 47.98C154.815 47.98 154.421 48.0967 154.071 48.33C153.721 48.5587 153.443 48.8643 153.238 49.247C153.033 49.6297 152.93 50.0473 152.93 50.5C152.93 50.9667 153.035 51.3913 153.245 51.774C153.455 52.152 153.737 52.453 154.092 52.677C154.447 52.8963 154.834 53.006 155.254 53.006ZM159.912 54V47H161.088V47.875C161.336 47.5483 161.648 47.2893 162.026 47.098C162.404 46.902 162.815 46.804 163.258 46.804C163.529 46.804 163.79 46.839 164.042 46.909L163.566 48.085C163.375 48.0243 163.188 47.994 163.006 47.994C162.656 47.994 162.334 48.0803 162.04 48.253C161.751 48.421 161.52 48.6497 161.347 48.939C161.175 49.2283 161.088 49.5503 161.088 49.905V54H159.912ZM173.212 52.152L174.262 52.719C173.944 53.1623 173.541 53.517 173.051 53.783C172.565 54.049 172.038 54.182 171.469 54.182C170.825 54.182 170.237 54.0163 169.705 53.685C169.177 53.3537 168.755 52.9103 168.438 52.355C168.125 51.795 167.969 51.1767 167.969 50.5C167.969 49.9867 168.06 49.5083 168.242 49.065C168.424 48.617 168.673 48.225 168.991 47.889C169.313 47.5483 169.686 47.2823 170.111 47.091C170.535 46.8997 170.988 46.804 171.469 46.804C172.038 46.804 172.565 46.937 173.051 47.203C173.541 47.469 173.944 47.826 174.262 48.274L173.212 48.841C172.988 48.5657 172.722 48.3533 172.414 48.204C172.106 48.0547 171.791 47.98 171.469 47.98C171.035 47.98 170.64 48.0967 170.286 48.33C169.936 48.5587 169.658 48.8643 169.453 49.247C169.247 49.6297 169.145 50.0473 169.145 50.5C169.145 50.9527 169.247 51.3703 169.453 51.753C169.663 52.131 169.943 52.4343 170.293 52.663C170.647 52.8917 171.039 53.006 171.469 53.006C171.814 53.006 172.138 52.9267 172.442 52.768C172.745 52.6093 173.002 52.404 173.212 52.152ZM178.483 54.182C177.839 54.182 177.251 54.0163 176.719 53.685C176.191 53.3537 175.769 52.9103 175.452 52.355C175.139 51.795 174.983 51.1767 174.983 50.5C174.983 49.9867 175.074 49.5083 175.256 49.065C175.438 48.617 175.687 48.225 176.005 47.889C176.327 47.5483 176.7 47.2823 177.125 47.091C177.549 46.8997 178.002 46.804 178.483 46.804C179.127 46.804 179.712 46.9697 180.24 47.301C180.772 47.6323 181.194 48.078 181.507 48.638C181.824 49.198 181.983 49.8187 181.983 50.5C181.983 51.0087 181.892 51.4847 181.71 51.928C181.528 52.3713 181.276 52.7633 180.954 53.104C180.636 53.44 180.265 53.7037 179.841 53.895C179.421 54.0863 178.968 54.182 178.483 54.182ZM178.483 53.006C178.921 53.006 179.316 52.8917 179.666 52.663C180.02 52.4297 180.298 52.124 180.499 51.746C180.704 51.3633 180.807 50.948 180.807 50.5C180.807 50.0427 180.702 49.6227 180.492 49.24C180.286 48.8573 180.009 48.5517 179.659 48.323C179.309 48.0943 178.917 47.98 178.483 47.98C178.044 47.98 177.65 48.0967 177.3 48.33C176.95 48.5587 176.672 48.8643 176.467 49.247C176.261 49.6297 176.159 50.0473 176.159 50.5C176.159 50.9667 176.264 51.3913 176.474 51.774C176.684 52.152 176.966 52.453 177.321 52.677C177.675 52.8963 178.063 53.006 178.483 53.006ZM183.141 54V47H184.317V47.875C184.564 47.5483 184.874 47.2893 185.248 47.098C185.626 46.902 186.036 46.804 186.48 46.804C186.998 46.804 187.471 46.93 187.901 47.182C188.33 47.434 188.668 47.7677 188.916 48.183C189.163 47.7677 189.499 47.434 189.924 47.182C190.353 46.93 190.824 46.804 191.338 46.804C191.865 46.804 192.343 46.9323 192.773 47.189C193.202 47.441 193.543 47.7817 193.795 48.211C194.051 48.6403 194.18 49.1187 194.18 49.646V54H193.004V49.926C193.004 49.5807 192.92 49.261 192.752 48.967C192.584 48.673 192.357 48.4373 192.073 48.26C191.788 48.0827 191.473 47.994 191.128 47.994C190.782 47.994 190.467 48.078 190.183 48.246C189.898 48.4093 189.672 48.638 189.504 48.932C189.336 49.2213 189.252 49.5527 189.252 49.926V54H188.076V49.926C188.076 49.5527 187.992 49.2213 187.824 48.932C187.656 48.638 187.427 48.4093 187.138 48.246C186.853 48.078 186.538 47.994 186.193 47.994C185.852 47.994 185.537 48.0827 185.248 48.26C184.963 48.4373 184.737 48.673 184.569 48.967C184.401 49.261 184.317 49.5807 184.317 49.926V54H183.141ZM195.582 54V47H196.758V47.875C197.006 47.5483 197.316 47.2893 197.689 47.098C198.067 46.902 198.478 46.804 198.921 46.804C199.439 46.804 199.913 46.93 200.342 47.182C200.772 47.434 201.11 47.7677 201.357 48.183C201.605 47.7677 201.941 47.434 202.365 47.182C202.795 46.93 203.266 46.804 203.779 46.804C204.307 46.804 204.785 46.9323 205.214 47.189C205.644 47.441 205.984 47.7817 206.236 48.211C206.493 48.6403 206.621 49.1187 206.621 49.646V54H205.445V49.926C205.445 49.5807 205.361 49.261 205.193 48.967C205.025 48.673 204.799 48.4373 204.514 48.26C204.23 48.0827 203.915 47.994 203.569 47.994C203.224 47.994 202.909 48.078 202.624 48.246C202.34 48.4093 202.113 48.638 201.945 48.932C201.777 49.2213 201.693 49.5527 201.693 49.926V54H200.517V49.926C200.517 49.5527 200.433 49.2213 200.265 48.932C200.097 48.638 199.869 48.4093 199.579 48.246C199.295 48.078 198.98 47.994 198.634 47.994C198.294 47.994 197.979 48.0827 197.689 48.26C197.405 48.4373 197.178 48.673 197.01 48.967C196.842 49.261 196.758 49.5807 196.758 49.926V54H195.582ZM210.967 54.182C210.323 54.182 209.735 54.0163 209.203 53.685C208.676 53.3537 208.253 52.9103 207.936 52.355C207.623 51.795 207.467 51.1767 207.467 50.5C207.467 49.9867 207.558 49.5083 207.74 49.065C207.922 48.617 208.172 48.225 208.489 47.889C208.811 47.5483 209.184 47.2823 209.609 47.091C210.034 46.8997 210.486 46.804 210.967 46.804C211.611 46.804 212.197 46.9697 212.724 47.301C213.256 47.6323 213.678 48.078 213.991 48.638C214.308 49.198 214.467 49.8187 214.467 50.5C214.467 51.0087 214.376 51.4847 214.194 51.928C214.012 52.3713 213.76 52.7633 213.438 53.104C213.121 53.44 212.75 53.7037 212.325 53.895C211.905 54.0863 211.452 54.182 210.967 54.182ZM210.967 53.006C211.406 53.006 211.8 52.8917 212.15 52.663C212.505 52.4297 212.782 52.124 212.983 51.746C213.188 51.3633 213.291 50.948 213.291 50.5C213.291 50.0427 213.186 49.6227 212.976 49.24C212.771 48.8573 212.493 48.5517 212.143 48.323C211.793 48.0943 211.401 47.98 210.967 47.98C210.528 47.98 210.134 48.0967 209.784 48.33C209.434 48.5587 209.156 48.8643 208.951 49.247C208.746 49.6297 208.643 50.0473 208.643 50.5C208.643 50.9667 208.748 51.3913 208.958 51.774C209.168 52.152 209.45 52.453 209.805 52.677C210.16 52.8963 210.547 53.006 210.967 53.006ZM221.813 49.646V54H220.637V49.905C220.637 49.5503 220.551 49.2283 220.378 48.939C220.205 48.6497 219.974 48.421 219.685 48.253C219.396 48.0803 219.074 47.994 218.719 47.994C218.369 47.994 218.047 48.0803 217.753 48.253C217.464 48.421 217.233 48.6497 217.06 48.939C216.887 49.2283 216.801 49.5503 216.801 49.905V54H215.625V47H216.801V47.875C217.048 47.5483 217.361 47.2893 217.739 47.098C218.117 46.902 218.528 46.804 218.971 46.804C219.494 46.804 219.97 46.9323 220.399 47.189C220.833 47.441 221.176 47.7817 221.428 48.211C221.685 48.6403 221.813 49.1187 221.813 49.646ZM232.204 47H233.38V54H232.204L232.155 52.817C231.936 53.223 231.633 53.552 231.245 53.804C230.863 54.056 230.405 54.182 229.873 54.182C229.36 54.182 228.879 54.0863 228.431 53.895C227.983 53.699 227.587 53.4307 227.241 53.09C226.901 52.7447 226.635 52.348 226.443 51.9C226.252 51.452 226.156 50.969 226.156 50.451C226.156 49.9517 226.25 49.4803 226.436 49.037C226.623 48.5937 226.882 48.2063 227.213 47.875C227.549 47.539 227.937 47.2777 228.375 47.091C228.814 46.8997 229.285 46.804 229.789 46.804C230.34 46.804 230.823 46.9347 231.238 47.196C231.654 47.4527 231.99 47.7863 232.246 48.197L232.204 47ZM229.852 53.041C230.314 53.041 230.713 52.929 231.049 52.705C231.39 52.4763 231.651 52.1683 231.833 51.781C232.02 51.3937 232.113 50.9667 232.113 50.5C232.113 50.024 232.02 49.5947 231.833 49.212C231.647 48.8247 231.383 48.519 231.042 48.295C230.706 48.0663 230.31 47.952 229.852 47.952C229.39 47.952 228.97 48.0663 228.592 48.295C228.214 48.5237 227.913 48.8317 227.689 49.219C227.47 49.6017 227.36 50.0287 227.36 50.5C227.36 50.9713 227.475 51.4007 227.703 51.788C227.932 52.1707 228.235 52.4763 228.613 52.705C228.991 52.929 229.404 53.041 229.852 53.041ZM234.779 54V47H235.955V47.875C236.203 47.5483 236.515 47.2893 236.893 47.098C237.271 46.902 237.682 46.804 238.125 46.804C238.396 46.804 238.657 46.839 238.909 46.909L238.433 48.085C238.242 48.0243 238.055 47.994 237.873 47.994C237.523 47.994 237.201 48.0803 236.907 48.253C236.618 48.421 236.387 48.6497 236.214 48.939C236.042 49.2283 235.955 49.5503 235.955 49.905V54H234.779ZM242.494 54.182C241.85 54.182 241.262 54.0163 240.73 53.685C240.203 53.3537 239.781 52.9103 239.463 52.355C239.151 51.795 238.994 51.1767 238.994 50.5C238.994 49.9867 239.085 49.5083 239.267 49.065C239.449 48.617 239.699 48.225 240.016 47.889C240.338 47.5483 240.712 47.2823 241.136 47.091C241.561 46.8997 242.014 46.804 242.494 46.804C243.022 46.804 243.505 46.9113 243.943 47.126C244.387 47.336 244.765 47.63 245.077 48.008C245.395 48.386 245.63 48.8247 245.784 49.324C245.943 49.8233 246.001 50.3577 245.959 50.927H240.247C240.303 51.3237 240.434 51.6783 240.639 51.991C240.845 52.299 241.106 52.544 241.423 52.726C241.745 52.908 242.102 53.0013 242.494 53.006C242.914 53.006 243.295 52.8987 243.635 52.684C243.976 52.4647 244.251 52.166 244.461 51.788L245.658 52.068C245.378 52.6887 244.956 53.1973 244.391 53.594C243.827 53.986 243.194 54.182 242.494 54.182ZM240.212 50.003H244.776C244.739 49.611 244.613 49.254 244.398 48.932C244.184 48.6053 243.911 48.344 243.579 48.148C243.248 47.952 242.886 47.854 242.494 47.854C242.102 47.854 241.743 47.9497 241.416 48.141C241.09 48.3323 240.819 48.5913 240.604 48.918C240.394 49.24 240.264 49.6017 240.212 50.003ZM252.726 47H253.902V54H252.726L252.677 52.817C252.457 53.223 252.154 53.552 251.767 53.804C251.384 54.056 250.927 54.182 250.395 54.182C249.881 54.182 249.401 54.0863 248.953 53.895C248.505 53.699 248.108 53.4307 247.763 53.09C247.422 52.7447 247.156 52.348 246.965 51.9C246.773 51.452 246.678 50.969 246.678 50.451C246.678 49.9517 246.771 49.4803 246.958 49.037C247.144 48.5937 247.403 48.2063 247.735 47.875C248.071 47.539 248.458 47.2777 248.897 47.091C249.335 46.8997 249.807 46.804 250.311 46.804C250.861 46.804 251.344 46.9347 251.76 47.196C252.175 47.4527 252.511 47.7863 252.768 48.197L252.726 47ZM250.374 53.041C250.836 53.041 251.235 52.929 251.571 52.705C251.911 52.4763 252.173 52.1683 252.355 51.781C252.541 51.3937 252.635 50.9667 252.635 50.5C252.635 50.024 252.541 49.5947 252.355 49.212C252.168 48.8247 251.904 48.519 251.564 48.295C251.228 48.0663 250.831 47.952 250.374 47.952C249.912 47.952 249.492 48.0663 249.114 48.295C248.736 48.5237 248.435 48.8317 248.211 49.219C247.991 49.6017 247.882 50.0287 247.882 50.5C247.882 50.9713 247.996 51.4007 248.225 51.788C248.453 52.1707 248.757 52.4763 249.135 52.705C249.513 52.929 249.926 53.041 250.374 53.041ZM258.664 54V47H259.84V47.875C260.088 47.5483 260.398 47.2893 260.771 47.098C261.149 46.902 261.56 46.804 262.003 46.804C262.521 46.804 262.995 46.93 263.424 47.182C263.854 47.434 264.192 47.7677 264.439 48.183C264.687 47.7677 265.023 47.434 265.447 47.182C265.877 46.93 266.348 46.804 266.861 46.804C267.389 46.804 267.867 46.9323 268.296 47.189C268.726 47.441 269.066 47.7817 269.318 48.211C269.575 48.6403 269.703 49.1187 269.703 49.646V54H268.527V49.926C268.527 49.5807 268.443 49.261 268.275 48.967C268.107 48.673 267.881 48.4373 267.596 48.26C267.312 48.0827 266.997 47.994 266.651 47.994C266.306 47.994 265.991 48.078 265.706 48.246C265.422 48.4093 265.195 48.638 265.027 48.932C264.859 49.2213 264.775 49.5527 264.775 49.926V54H263.599V49.926C263.599 49.5527 263.515 49.2213 263.347 48.932C263.179 48.638 262.951 48.4093 262.661 48.246C262.377 48.078 262.062 47.994 261.716 47.994C261.376 47.994 261.061 48.0827 260.771 48.26C260.487 48.4373 260.26 48.673 260.092 48.967C259.924 49.261 259.84 49.5807 259.84 49.926V54H258.664ZM276.597 47H277.773V54H276.597L276.548 52.817C276.329 53.223 276.025 53.552 275.638 53.804C275.255 54.056 274.798 54.182 274.266 54.182C273.753 54.182 273.272 54.0863 272.824 53.895C272.376 53.699 271.979 53.4307 271.634 53.09C271.293 52.7447 271.027 52.348 270.836 51.9C270.645 51.452 270.549 50.969 270.549 50.451C270.549 49.9517 270.642 49.4803 270.829 49.037C271.016 48.5937 271.275 48.2063 271.606 47.875C271.942 47.539 272.329 47.2777 272.768 47.091C273.207 46.8997 273.678 46.804 274.182 46.804C274.733 46.804 275.216 46.9347 275.631 47.196C276.046 47.4527 276.382 47.7863 276.639 48.197L276.597 47ZM274.245 53.041C274.707 53.041 275.106 52.929 275.442 52.705C275.783 52.4763 276.044 52.1683 276.226 51.781C276.413 51.3937 276.506 50.9667 276.506 50.5C276.506 50.024 276.413 49.5947 276.226 49.212C276.039 48.8247 275.776 48.519 275.435 48.295C275.099 48.0663 274.702 47.952 274.245 47.952C273.783 47.952 273.363 48.0663 272.985 48.295C272.607 48.5237 272.306 48.8317 272.082 49.219C271.863 49.6017 271.753 50.0287 271.753 50.5C271.753 50.9713 271.867 51.4007 272.096 51.788C272.325 52.1707 272.628 52.4763 273.006 52.705C273.384 52.929 273.797 53.041 274.245 53.041ZM279.172 47H280.348V54H279.172V47ZM279.774 45.859C279.587 45.859 279.431 45.7983 279.305 45.677C279.179 45.5557 279.116 45.404 279.116 45.222C279.116 45.04 279.179 44.8883 279.305 44.767C279.431 44.6457 279.585 44.585 279.767 44.585C279.949 44.585 280.103 44.6457 280.229 44.767C280.355 44.8883 280.418 45.04 280.418 45.222C280.418 45.404 280.355 45.5557 280.229 45.677C280.108 45.7983 279.956 45.859 279.774 45.859ZM288.19 49.646V54H287.014V49.905C287.014 49.5503 286.928 49.2283 286.755 48.939C286.582 48.6497 286.351 48.421 286.062 48.253C285.773 48.0803 285.451 47.994 285.096 47.994C284.746 47.994 284.424 48.0803 284.13 48.253C283.841 48.421 283.61 48.6497 283.437 48.939C283.264 49.2283 283.178 49.5503 283.178 49.905V54H282.002V47H283.178V47.875C283.425 47.5483 283.738 47.2893 284.116 47.098C284.494 46.902 284.905 46.804 285.348 46.804C285.871 46.804 286.347 46.9323 286.776 47.189C287.21 47.441 287.553 47.7817 287.805 48.211C288.062 48.6403 288.19 49.1187 288.19 49.646ZM293.216 48.176H291.627L291.62 54H290.444L290.451 48.176H289.247V47H290.451L290.444 44.802H291.62L291.627 47H293.216V48.176ZM297.373 54.182C296.729 54.182 296.141 54.0163 295.609 53.685C295.082 53.3537 294.659 52.9103 294.342 52.355C294.029 51.795 293.873 51.1767 293.873 50.5C293.873 49.9867 293.964 49.5083 294.146 49.065C294.328 48.617 294.578 48.225 294.895 47.889C295.217 47.5483 295.59 47.2823 296.015 47.091C296.44 46.8997 296.892 46.804 297.373 46.804C297.9 46.804 298.383 46.9113 298.822 47.126C299.265 47.336 299.643 47.63 299.956 48.008C300.273 48.386 300.509 48.8247 300.663 49.324C300.822 49.8233 300.88 50.3577 300.838 50.927H295.126C295.182 51.3237 295.313 51.6783 295.518 51.991C295.723 52.299 295.985 52.544 296.302 52.726C296.624 52.908 296.981 53.0013 297.373 53.006C297.793 53.006 298.173 52.8987 298.514 52.684C298.855 52.4647 299.13 52.166 299.34 51.788L300.537 52.068C300.257 52.6887 299.835 53.1973 299.27 53.594C298.705 53.986 298.073 54.182 297.373 54.182ZM295.091 50.003H299.655C299.618 49.611 299.492 49.254 299.277 48.932C299.062 48.6053 298.789 48.344 298.458 48.148C298.127 47.952 297.765 47.854 297.373 47.854C296.981 47.854 296.622 47.9497 296.295 48.141C295.968 48.3323 295.698 48.5913 295.483 48.918C295.273 49.24 295.142 49.6017 295.091 50.003ZM308.206 49.646V54H307.03V49.905C307.03 49.5503 306.943 49.2283 306.771 48.939C306.598 48.6497 306.367 48.421 306.078 48.253C305.788 48.0803 305.466 47.994 305.112 47.994C304.762 47.994 304.44 48.0803 304.146 48.253C303.856 48.421 303.625 48.6497 303.453 48.939C303.28 49.2283 303.194 49.5503 303.194 49.905V54H302.018V47H303.194V47.875C303.441 47.5483 303.754 47.2893 304.132 47.098C304.51 46.902 304.92 46.804 305.364 46.804C305.886 46.804 306.362 46.9323 306.792 47.189C307.226 47.441 307.569 47.7817 307.821 48.211C308.077 48.6403 308.206 49.1187 308.206 49.646ZM315.097 47H316.273V54H315.097L315.048 52.817C314.829 53.223 314.525 53.552 314.138 53.804C313.755 54.056 313.298 54.182 312.766 54.182C312.253 54.182 311.772 54.0863 311.324 53.895C310.876 53.699 310.479 53.4307 310.134 53.09C309.793 52.7447 309.527 52.348 309.336 51.9C309.145 51.452 309.049 50.969 309.049 50.451C309.049 49.9517 309.142 49.4803 309.329 49.037C309.516 48.5937 309.775 48.2063 310.106 47.875C310.442 47.539 310.829 47.2777 311.268 47.091C311.707 46.8997 312.178 46.804 312.682 46.804C313.233 46.804 313.716 46.9347 314.131 47.196C314.546 47.4527 314.882 47.7863 315.139 48.197L315.097 47ZM312.745 53.041C313.207 53.041 313.606 52.929 313.942 52.705C314.283 52.4763 314.544 52.1683 314.726 51.781C314.913 51.3937 315.006 50.9667 315.006 50.5C315.006 50.024 314.913 49.5947 314.726 49.212C314.539 48.8247 314.276 48.519 313.935 48.295C313.599 48.0663 313.202 47.952 312.745 47.952C312.283 47.952 311.863 48.0663 311.485 48.295C311.107 48.5237 310.806 48.8317 310.582 49.219C310.363 49.6017 310.253 50.0287 310.253 50.5C310.253 50.9713 310.367 51.4007 310.596 51.788C310.825 52.1707 311.128 52.4763 311.506 52.705C311.884 52.929 312.297 53.041 312.745 53.041ZM323.86 49.646V54H322.684V49.905C322.684 49.5503 322.598 49.2283 322.425 48.939C322.252 48.6497 322.021 48.421 321.732 48.253C321.443 48.0803 321.121 47.994 320.766 47.994C320.416 47.994 320.094 48.0803 319.8 48.253C319.511 48.421 319.28 48.6497 319.107 48.939C318.934 49.2283 318.848 49.5503 318.848 49.905V54H317.672V47H318.848V47.875C319.095 47.5483 319.408 47.2893 319.786 47.098C320.164 46.902 320.575 46.804 321.018 46.804C321.541 46.804 322.017 46.9323 322.446 47.189C322.88 47.441 323.223 47.7817 323.475 48.211C323.732 48.6403 323.86 49.1187 323.86 49.646ZM329.946 52.152L330.996 52.719C330.679 53.1623 330.275 53.517 329.785 53.783C329.3 54.049 328.773 54.182 328.203 54.182C327.559 54.182 326.971 54.0163 326.439 53.685C325.912 53.3537 325.49 52.9103 325.172 52.355C324.86 51.795 324.703 51.1767 324.703 50.5C324.703 49.9867 324.794 49.5083 324.976 49.065C325.158 48.617 325.408 48.225 325.725 47.889C326.047 47.5483 326.421 47.2823 326.845 47.091C327.27 46.8997 327.723 46.804 328.203 46.804C328.773 46.804 329.3 46.937 329.785 47.203C330.275 47.469 330.679 47.826 330.996 48.274L329.946 48.841C329.722 48.5657 329.456 48.3533 329.148 48.204C328.84 48.0547 328.525 47.98 328.203 47.98C327.769 47.98 327.375 48.0967 327.02 48.33C326.67 48.5587 326.393 48.8643 326.187 49.247C325.982 49.6297 325.879 50.0473 325.879 50.5C325.879 50.9527 325.982 51.3703 326.187 51.753C326.397 52.131 326.677 52.4343 327.027 52.663C327.382 52.8917 327.774 53.006 328.203 53.006C328.549 53.006 328.873 52.9267 329.176 52.768C329.48 52.6093 329.736 52.404 329.946 52.152ZM335.217 54.182C334.573 54.182 333.985 54.0163 333.453 53.685C332.926 53.3537 332.503 52.9103 332.186 52.355C331.873 51.795 331.717 51.1767 331.717 50.5C331.717 49.9867 331.808 49.5083 331.99 49.065C332.172 48.617 332.422 48.225 332.739 47.889C333.061 47.5483 333.434 47.2823 333.859 47.091C334.284 46.8997 334.736 46.804 335.217 46.804C335.744 46.804 336.227 46.9113 336.666 47.126C337.109 47.336 337.487 47.63 337.8 48.008C338.117 48.386 338.353 48.8247 338.507 49.324C338.666 49.8233 338.724 50.3577 338.682 50.927H332.97C333.026 51.3237 333.157 51.6783 333.362 51.991C333.567 52.299 333.829 52.544 334.146 52.726C334.468 52.908 334.825 53.0013 335.217 53.006C335.637 53.006 336.017 52.8987 336.358 52.684C336.699 52.4647 336.974 52.166 337.184 51.788L338.381 52.068C338.101 52.6887 337.679 53.1973 337.114 53.594C336.549 53.986 335.917 54.182 335.217 54.182ZM332.935 50.003H337.499C337.462 49.611 337.336 49.254 337.121 48.932C336.906 48.6053 336.633 48.344 336.302 48.148C335.971 47.952 335.609 47.854 335.217 47.854C334.825 47.854 334.466 47.9497 334.139 48.141C333.812 48.3323 333.542 48.5913 333.327 48.918C333.117 49.24 332.986 49.6017 332.935 50.003ZM348.948 47H350.124V54H348.948L348.899 52.817C348.68 53.223 348.377 53.552 347.989 53.804C347.607 54.056 347.149 54.182 346.617 54.182C346.104 54.182 345.623 54.0863 345.175 53.895C344.727 53.699 344.331 53.4307 343.985 53.09C343.645 52.7447 343.379 52.348 343.187 51.9C342.996 51.452 342.9 50.969 342.9 50.451C342.9 49.9517 342.994 49.4803 343.18 49.037C343.367 48.5937 343.626 48.2063 343.957 47.875C344.293 47.539 344.681 47.2777 345.119 47.091C345.558 46.8997 346.029 46.804 346.533 46.804C347.084 46.804 347.567 46.9347 347.982 47.196C348.398 47.4527 348.734 47.7863 348.99 48.197L348.948 47ZM346.596 53.041C347.058 53.041 347.457 52.929 347.793 52.705C348.134 52.4763 348.395 52.1683 348.577 51.781C348.764 51.3937 348.857 50.9667 348.857 50.5C348.857 50.024 348.764 49.5947 348.577 49.212C348.391 48.8247 348.127 48.519 347.786 48.295C347.45 48.0663 347.054 47.952 346.596 47.952C346.134 47.952 345.714 48.0663 345.336 48.295C344.958 48.5237 344.657 48.8317 344.433 49.219C344.214 49.6017 344.104 50.0287 344.104 50.5C344.104 50.9713 344.219 51.4007 344.447 51.788C344.676 52.1707 344.979 52.4763 345.357 52.705C345.735 52.929 346.148 53.041 346.596 53.041ZM357.712 49.646V54H356.536V49.905C356.536 49.5503 356.449 49.2283 356.277 48.939C356.104 48.6497 355.873 48.421 355.584 48.253C355.294 48.0803 354.972 47.994 354.618 47.994C354.268 47.994 353.946 48.0803 353.652 48.253C353.362 48.421 353.131 48.6497 352.959 48.939C352.786 49.2283 352.7 49.5503 352.7 49.905V54H351.524V47H352.7V47.875C352.947 47.5483 353.26 47.2893 353.638 47.098C354.016 46.902 354.426 46.804 354.87 46.804C355.392 46.804 355.868 46.9323 356.298 47.189C356.732 47.441 357.075 47.7817 357.327 48.211C357.583 48.6403 357.712 49.1187 357.712 49.646ZM364.61 43.5H365.786V54H364.61V52.81C364.372 53.2207 364.052 53.552 363.651 53.804C363.249 54.056 362.778 54.182 362.237 54.182C361.728 54.182 361.252 54.0863 360.809 53.895C360.365 53.7037 359.973 53.44 359.633 53.104C359.297 52.7633 359.033 52.3713 358.842 51.928C358.65 51.4847 358.555 51.0087 358.555 50.5C358.555 49.9913 358.65 49.5153 358.842 49.072C359.033 48.624 359.297 48.232 359.633 47.896C359.973 47.5553 360.365 47.2893 360.809 47.098C361.252 46.9067 361.728 46.811 362.237 46.811C362.778 46.811 363.249 46.937 363.651 47.189C364.052 47.441 364.372 47.7723 364.61 48.183V43.5ZM362.251 53.041C362.713 53.041 363.112 52.929 363.448 52.705C363.788 52.4763 364.05 52.1683 364.232 51.781C364.418 51.3937 364.512 50.9667 364.512 50.5C364.512 50.024 364.418 49.5947 364.232 49.212C364.045 48.8247 363.781 48.519 363.441 48.295C363.105 48.0663 362.708 47.952 362.251 47.952C361.789 47.952 361.369 48.0663 360.991 48.295C360.617 48.5237 360.319 48.8317 360.095 49.219C359.871 49.6017 359.759 50.0287 359.759 50.5C359.759 50.9713 359.873 51.4007 360.102 51.788C360.33 52.1707 360.634 52.4763 361.012 52.705C361.39 52.929 361.803 53.041 362.251 53.041ZM372.963 54.133C372.585 54.119 372.217 54.049 371.857 53.923C371.503 53.7923 371.19 53.6173 370.919 53.398C370.653 53.174 370.46 52.9173 370.338 52.628L371.346 52.194C371.416 52.3527 371.542 52.502 371.724 52.642C371.906 52.782 372.116 52.894 372.354 52.978C372.592 53.062 372.833 53.104 373.075 53.104C373.332 53.104 373.572 53.0643 373.796 52.985C374.02 52.9057 374.202 52.789 374.342 52.635C374.487 52.4763 374.559 52.2873 374.559 52.068C374.559 51.8347 374.48 51.6527 374.321 51.522C374.167 51.3867 373.971 51.2817 373.733 51.207C373.5 51.1277 373.262 51.053 373.019 50.983C372.539 50.8617 372.109 50.717 371.731 50.549C371.353 50.3763 371.055 50.1593 370.835 49.898C370.621 49.632 370.513 49.2937 370.513 48.883C370.513 48.449 370.632 48.0733 370.87 47.756C371.113 47.4387 371.43 47.1937 371.822 47.021C372.214 46.8483 372.634 46.762 373.082 46.762C373.647 46.762 374.163 46.8833 374.629 47.126C375.096 47.3687 375.444 47.6977 375.672 48.113L374.727 48.666C374.648 48.498 374.527 48.351 374.363 48.225C374.2 48.0943 374.013 47.9917 373.803 47.917C373.593 47.8423 373.379 47.8027 373.159 47.798C372.889 47.7887 372.634 47.8237 372.396 47.903C372.163 47.9823 371.974 48.1037 371.829 48.267C371.689 48.4257 371.619 48.624 371.619 48.862C371.619 49.0953 371.694 49.2727 371.843 49.394C371.997 49.5153 372.196 49.6133 372.438 49.688C372.686 49.758 372.954 49.8397 373.243 49.933C373.668 50.0683 374.065 50.2247 374.433 50.402C374.802 50.5793 375.098 50.801 375.322 51.067C375.551 51.333 375.663 51.662 375.658 52.054C375.658 52.4833 375.53 52.859 375.273 53.181C375.017 53.4983 374.683 53.741 374.272 53.909C373.866 54.077 373.43 54.1517 372.963 54.133ZM379.869 54.182C379.225 54.182 378.637 54.0163 378.105 53.685C377.578 53.3537 377.156 52.9103 376.838 52.355C376.526 51.795 376.369 51.1767 376.369 50.5C376.369 49.9867 376.46 49.5083 376.642 49.065C376.824 48.617 377.074 48.225 377.391 47.889C377.713 47.5483 378.087 47.2823 378.511 47.091C378.936 46.8997 379.389 46.804 379.869 46.804C380.397 46.804 380.88 46.9113 381.318 47.126C381.762 47.336 382.14 47.63 382.452 48.008C382.77 48.386 383.005 48.8247 383.159 49.324C383.318 49.8233 383.376 50.3577 383.334 50.927H377.622C377.678 51.3237 377.809 51.6783 378.014 51.991C378.22 52.299 378.481 52.544 378.798 52.726C379.12 52.908 379.477 53.0013 379.869 53.006C380.289 53.006 380.67 52.8987 381.01 52.684C381.351 52.4647 381.626 52.166 381.836 51.788L383.033 52.068C382.753 52.6887 382.331 53.1973 381.766 53.594C381.202 53.986 380.569 54.182 379.869 54.182ZM377.587 50.003H382.151C382.114 49.611 381.988 49.254 381.773 48.932C381.559 48.6053 381.286 48.344 380.954 48.148C380.623 47.952 380.261 47.854 379.869 47.854C379.477 47.854 379.118 47.9497 378.791 48.141C378.465 48.3323 378.194 48.5913 377.979 48.918C377.769 49.24 377.639 49.6017 377.587 50.003ZM389.296 52.152L390.346 52.719C390.028 53.1623 389.625 53.517 389.135 53.783C388.649 54.049 388.122 54.182 387.553 54.182C386.909 54.182 386.321 54.0163 385.789 53.685C385.261 53.3537 384.839 52.9103 384.522 52.355C384.209 51.795 384.053 51.1767 384.053 50.5C384.053 49.9867 384.144 49.5083 384.326 49.065C384.508 48.617 384.757 48.225 385.075 47.889C385.397 47.5483 385.77 47.2823 386.195 47.091C386.619 46.8997 387.072 46.804 387.553 46.804C388.122 46.804 388.649 46.937 389.135 47.203C389.625 47.469 390.028 47.826 390.346 48.274L389.296 48.841C389.072 48.5657 388.806 48.3533 388.498 48.204C388.19 48.0547 387.875 47.98 387.553 47.98C387.119 47.98 386.724 48.0967 386.37 48.33C386.02 48.5587 385.742 48.8643 385.537 49.247C385.331 49.6297 385.229 50.0473 385.229 50.5C385.229 50.9527 385.331 51.3703 385.537 51.753C385.747 52.131 386.027 52.4343 386.377 52.663C386.731 52.8917 387.123 53.006 387.553 53.006C387.898 53.006 388.222 52.9267 388.526 52.768C388.829 52.6093 389.086 52.404 389.296 52.152ZM391.234 51.34V47H392.41V51.081C392.41 51.4357 392.496 51.7577 392.669 52.047C392.841 52.3363 393.072 52.5673 393.362 52.74C393.656 52.908 393.978 52.992 394.328 52.992C394.682 52.992 395.002 52.908 395.287 52.74C395.576 52.5673 395.807 52.3363 395.98 52.047C396.152 51.7577 396.239 51.4357 396.239 51.081V47H397.415L397.422 54H396.246L396.239 53.111C395.991 53.4377 395.679 53.699 395.301 53.895C394.923 54.0863 394.514 54.182 394.076 54.182C393.553 54.182 393.075 54.056 392.641 53.804C392.211 53.5473 391.868 53.2043 391.612 52.775C391.36 52.3457 391.234 51.8673 391.234 51.34ZM398.828 54V47H400.004V47.875C400.252 47.5483 400.564 47.2893 400.942 47.098C401.32 46.902 401.731 46.804 402.174 46.804C402.445 46.804 402.706 46.839 402.958 46.909L402.482 48.085C402.291 48.0243 402.104 47.994 401.922 47.994C401.572 47.994 401.25 48.0803 400.956 48.253C400.667 48.421 400.436 48.6497 400.263 48.939C400.091 49.2283 400.004 49.5503 400.004 49.905V54H398.828ZM403.819 47H404.995V54H403.819V47ZM404.421 45.859C404.234 45.859 404.078 45.7983 403.952 45.677C403.826 45.5557 403.763 45.404 403.763 45.222C403.763 45.04 403.826 44.8883 403.952 44.767C404.078 44.6457 404.232 44.585 404.414 44.585C404.596 44.585 404.75 44.6457 404.876 44.767C405.002 44.8883 405.065 45.04 405.065 45.222C405.065 45.404 405.002 45.5557 404.876 45.677C404.754 45.7983 404.603 45.859 404.421 45.859ZM410.302 48.176H408.713L408.706 54H407.53L407.537 48.176H406.333V47H407.537L407.53 44.802H408.706L408.713 47H410.302V48.176ZM416.188 47H417.434L413.605 57.5H412.359L413.626 54L411.113 47H412.401L414.214 52.383L416.188 47Z" fill="#999999"></path></g><defs><clipPath id="clip0_166_1083"><rect width="965" height="66" fill="white"></rect></clipPath></defs></svg>