<svg xmlns="http://www.w3.org/2000/svg" width="965" height="49" viewBox="0 0 965 49" fill="none"><path d="M1.2 31.5L3.91 17.5H5.59L9.18 26.93L12.75 17.5H14.43L17.15 31.5H15.03L13.22 22.13L9.87 30.97H8.47L5.13 22.13L3.32 31.5H1.2ZM22.9828 31.76C22.0628 31.76 21.2228 31.5233 20.4628 31.05C19.7095 30.5767 19.1061 29.9433 18.6528 29.15C18.2061 28.35 17.9828 27.4667 17.9828 26.5C17.9828 25.7667 18.1128 25.0833 18.3728 24.45C18.6328 23.81 18.9895 23.25 19.4428 22.77C19.9028 22.2833 20.4361 21.9033 21.0428 21.63C21.6495 21.3567 22.2961 21.22 22.9828 21.22C23.9028 21.22 24.7395 21.4567 25.4928 21.93C26.2528 22.4033 26.8561 23.04 27.3028 23.84C27.7561 24.64 27.9828 25.5267 27.9828 26.5C27.9828 27.2267 27.8528 27.9067 27.5928 28.54C27.3328 29.1733 26.9728 29.7333 26.5128 30.22C26.0595 30.7 25.5295 31.0767 24.9228 31.35C24.3228 31.6233 23.6761 31.76 22.9828 31.76ZM22.9828 29.68C23.5361 29.68 24.0328 29.5333 24.4728 29.24C24.9128 28.9467 25.2595 28.56 25.5128 28.08C25.7728 27.5933 25.9028 27.0667 25.9028 26.5C25.9028 25.92 25.7695 25.3867 25.5028 24.9C25.2428 24.4133 24.8928 24.0267 24.4528 23.74C24.0128 23.4467 23.5228 23.3 22.9828 23.3C22.4361 23.3 21.9395 23.4467 21.4928 23.74C21.0528 24.0333 20.7028 24.4233 20.4428 24.91C20.1895 25.3967 20.0628 25.9267 20.0628 26.5C20.0628 27.0933 20.1961 27.63 20.4628 28.11C20.7295 28.59 21.0828 28.9733 21.5228 29.26C21.9695 29.54 22.4561 29.68 22.9828 29.68ZM38.5984 25.23V31.5H36.5184V25.74C36.5184 25.2933 36.4084 24.8867 36.1884 24.52C35.9751 24.1533 35.6851 23.8633 35.3184 23.65C34.9584 23.43 34.5518 23.32 34.0984 23.32C33.6584 23.32 33.2551 23.43 32.8884 23.65C32.5218 23.8633 32.2284 24.1533 32.0084 24.52C31.7884 24.8867 31.6784 25.2933 31.6784 25.74V31.5H29.5984V21.5H31.6784V22.56C32.0251 22.1467 32.4518 21.82 32.9584 21.58C33.4651 21.34 34.0118 21.22 34.5984 21.22C35.3384 21.22 36.0118 21.4 36.6184 21.76C37.2251 22.12 37.7051 22.6033 38.0584 23.21C38.4184 23.8167 38.5984 24.49 38.5984 25.23ZM45.8745 23.58H43.7745L43.7645 31.5H41.6845L41.6945 23.58H40.1045V21.5H41.6945L41.6845 18.36H43.7645L43.7745 21.5H45.8745V23.58ZM56.6648 25.23V31.5H54.5848V25.74C54.5848 25.2933 54.4748 24.8867 54.2548 24.52C54.0415 24.1533 53.7515 23.8633 53.3848 23.65C53.0248 23.43 52.6182 23.32 52.1648 23.32C51.7248 23.32 51.3215 23.43 50.9548 23.65C50.5882 23.8633 50.2948 24.1533 50.0748 24.52C49.8548 24.8867 49.7448 25.2933 49.7448 25.74V31.5H47.6648V16.5H49.7448V22.56C50.0915 22.1467 50.5182 21.82 51.0248 21.58C51.5315 21.34 52.0782 21.22 52.6648 21.22C53.4048 21.22 54.0782 21.4 54.6848 21.76C55.2915 22.12 55.7715 22.6033 56.1248 23.21C56.4848 23.8167 56.6648 24.49 56.6648 25.23ZM58.7391 31.5V16.5H60.8191V31.5H58.7391ZM69.5148 21.5H71.7348L66.2548 36.5H64.0448L65.8548 31.5L62.2648 21.5H64.5348L66.8948 28.65L69.5148 21.5ZM85.0238 31.76C84.0771 31.76 83.1871 31.5733 82.3538 31.2C81.5204 30.82 80.7871 30.3 80.1538 29.64C79.5271 28.9733 79.0338 28.2 78.6738 27.32C78.3204 26.44 78.1438 25.5 78.1438 24.5C78.1438 23.5 78.3204 22.56 78.6738 21.68C79.0338 20.8 79.5271 20.03 80.1538 19.37C80.7871 18.7033 81.5204 18.1833 82.3538 17.81C83.1871 17.43 84.0771 17.24 85.0238 17.24C86.1571 17.24 87.2004 17.5033 88.1538 18.03C89.1071 18.5567 89.8971 19.2567 90.5238 20.13L88.6738 21.12C88.2404 20.5733 87.7038 20.1367 87.0638 19.81C86.4238 19.4833 85.7438 19.32 85.0238 19.32C84.3571 19.32 83.7338 19.4567 83.1538 19.73C82.5738 20.0033 82.0638 20.3767 81.6238 20.85C81.1838 21.3233 80.8404 21.8733 80.5938 22.5C80.3471 23.1267 80.2238 23.7933 80.2238 24.5C80.2238 25.2133 80.3471 25.8833 80.5938 26.51C80.8404 27.13 81.1838 27.68 81.6238 28.16C82.0704 28.6333 82.5838 29.0067 83.1638 29.28C83.7438 29.5467 84.3638 29.68 85.0238 29.68C85.7571 29.68 86.4404 29.5167 87.0738 29.19C87.7138 28.8567 88.2471 28.4167 88.6738 27.87L90.5238 28.88C89.8971 29.7533 89.1071 30.4533 88.1538 30.98C87.2004 31.5 86.1571 31.76 85.0238 31.76ZM96.3422 31.76C95.4222 31.76 94.5822 31.5233 93.8222 31.05C93.0689 30.5767 92.4655 29.9433 92.0122 29.15C91.5655 28.35 91.3422 27.4667 91.3422 26.5C91.3422 25.7667 91.4722 25.0833 91.7322 24.45C91.9922 23.81 92.3489 23.25 92.8022 22.77C93.2622 22.2833 93.7955 21.9033 94.4022 21.63C95.0089 21.3567 95.6555 21.22 96.3422 21.22C97.2622 21.22 98.0989 21.4567 98.8522 21.93C99.6122 22.4033 100.216 23.04 100.662 23.84C101.116 24.64 101.342 25.5267 101.342 26.5C101.342 27.2267 101.212 27.9067 100.952 28.54C100.692 29.1733 100.332 29.7333 99.8722 30.22C99.4189 30.7 98.8889 31.0767 98.2822 31.35C97.6822 31.6233 97.0355 31.76 96.3422 31.76ZM96.3422 29.68C96.8955 29.68 97.3922 29.5333 97.8322 29.24C98.2722 28.9467 98.6189 28.56 98.8722 28.08C99.1322 27.5933 99.2622 27.0667 99.2622 26.5C99.2622 25.92 99.1289 25.3867 98.8622 24.9C98.6022 24.4133 98.2522 24.0267 97.8122 23.74C97.3722 23.4467 96.8822 23.3 96.3422 23.3C95.7955 23.3 95.2989 23.4467 94.8522 23.74C94.4122 24.0333 94.0622 24.4233 93.8022 24.91C93.5489 25.3967 93.4222 25.9267 93.4222 26.5C93.4222 27.0933 93.5555 27.63 93.8222 28.11C94.0889 28.59 94.4422 28.9733 94.8822 29.26C95.3289 29.54 95.8155 29.68 96.3422 29.68ZM105.997 31.69C105.47 31.6567 104.957 31.55 104.457 31.37C103.957 31.19 103.517 30.9467 103.137 30.64C102.764 30.3267 102.484 29.96 102.297 29.54L104.067 28.78C104.154 28.96 104.304 29.1367 104.517 29.31C104.737 29.4833 104.994 29.6267 105.287 29.74C105.58 29.8467 105.887 29.9 106.207 29.9C106.52 29.9 106.81 29.8567 107.077 29.77C107.35 29.6767 107.574 29.5367 107.747 29.35C107.92 29.1633 108.007 28.94 108.007 28.68C108.007 28.3867 107.907 28.16 107.707 28C107.514 27.8333 107.27 27.7067 106.977 27.62C106.684 27.5333 106.39 27.45 106.097 27.37C105.444 27.2233 104.844 27.0233 104.297 26.77C103.757 26.51 103.327 26.18 103.007 25.78C102.687 25.3733 102.527 24.8767 102.527 24.29C102.527 23.65 102.7 23.0967 103.047 22.63C103.394 22.1567 103.847 21.7933 104.407 21.54C104.974 21.2867 105.577 21.16 106.217 21.16C107.017 21.16 107.75 21.33 108.417 21.67C109.084 22.01 109.594 22.4767 109.947 23.07L108.297 24.05C108.197 23.85 108.047 23.67 107.847 23.51C107.647 23.35 107.42 23.2233 107.167 23.13C106.914 23.03 106.65 22.9733 106.377 22.96C106.037 22.9467 105.72 22.9867 105.427 23.08C105.14 23.1667 104.91 23.3067 104.737 23.5C104.564 23.6933 104.477 23.94 104.477 24.24C104.477 24.5333 104.58 24.7533 104.787 24.9C104.994 25.04 105.254 25.1533 105.567 25.24C105.887 25.3267 106.214 25.4233 106.547 25.53C107.14 25.7167 107.697 25.9467 108.217 26.22C108.737 26.4867 109.157 26.8167 109.477 27.21C109.797 27.6033 109.95 28.0833 109.937 28.65C109.937 29.2767 109.747 29.8267 109.367 30.3C108.994 30.7733 108.507 31.1333 107.907 31.38C107.307 31.6267 106.67 31.73 105.997 31.69ZM116.929 23.58H114.829L114.819 31.5H112.739L112.749 23.58H111.159V21.5H112.749L112.739 18.36H114.819L114.829 21.5H116.929V23.58ZM121.583 31.69C121.056 31.6567 120.543 31.55 120.043 31.37C119.543 31.19 119.103 30.9467 118.723 30.64C118.349 30.3267 118.069 29.96 117.883 29.54L119.653 28.78C119.739 28.96 119.889 29.1367 120.103 29.31C120.323 29.4833 120.579 29.6267 120.873 29.74C121.166 29.8467 121.473 29.9 121.793 29.9C122.106 29.9 122.396 29.8567 122.663 29.77C122.936 29.6767 123.159 29.5367 123.333 29.35C123.506 29.1633 123.593 28.94 123.593 28.68C123.593 28.3867 123.493 28.16 123.293 28C123.099 27.8333 122.856 27.7067 122.563 27.62C122.269 27.5333 121.976 27.45 121.683 27.37C121.029 27.2233 120.429 27.0233 119.883 26.77C119.343 26.51 118.913 26.18 118.593 25.78C118.273 25.3733 118.113 24.8767 118.113 24.29C118.113 23.65 118.286 23.0967 118.633 22.63C118.979 22.1567 119.433 21.7933 119.993 21.54C120.559 21.2867 121.163 21.16 121.803 21.16C122.603 21.16 123.336 21.33 124.003 21.67C124.669 22.01 125.179 22.4767 125.533 23.07L123.883 24.05C123.783 23.85 123.633 23.67 123.433 23.51C123.233 23.35 123.006 23.2233 122.753 23.13C122.499 23.03 122.236 22.9733 121.963 22.96C121.623 22.9467 121.306 22.9867 121.013 23.08C120.726 23.1667 120.496 23.3067 120.323 23.5C120.149 23.6933 120.063 23.94 120.063 24.24C120.063 24.5333 120.166 24.7533 120.373 24.9C120.579 25.04 120.839 25.1533 121.153 25.24C121.473 25.3267 121.799 25.4233 122.133 25.53C122.726 25.7167 123.283 25.9467 123.803 26.22C124.323 26.4867 124.743 26.8167 125.063 27.21C125.383 27.6033 125.536 28.0833 125.523 28.65C125.523 29.2767 125.333 29.8267 124.953 30.3C124.579 30.7733 124.093 31.1333 123.493 31.38C122.893 31.6267 122.256 31.73 121.583 31.69Z" fill="white"></path><rect x="854.5" y="0.5" width="110" height="48" rx="7.5" fill="#1A1A1A"></rect><rect x="854.5" y="0.5" width="110" height="48" rx="7.5" stroke="#262626"></rect><path d="M874.84 29V19.2H876.016V27.824H880.405V29H874.84ZM884.346 29.182C883.702 29.182 883.114 29.0163 882.582 28.685C882.054 28.3537 881.632 27.9103 881.315 27.355C881.002 26.795 880.846 26.1767 880.846 25.5C880.846 24.9867 880.937 24.5083 881.119 24.065C881.301 23.617 881.55 23.225 881.868 22.889C882.19 22.5483 882.563 22.2823 882.988 22.091C883.412 21.8997 883.865 21.804 884.346 21.804C884.873 21.804 885.356 21.9113 885.795 22.126C886.238 22.336 886.616 22.63 886.929 23.008C887.246 23.386 887.482 23.8247 887.636 24.324C887.794 24.8233 887.853 25.3577 887.811 25.927H882.099C882.155 26.3237 882.285 26.6783 882.491 26.991C882.696 27.299 882.957 27.544 883.275 27.726C883.597 27.908 883.954 28.0013 884.346 28.006C884.766 28.006 885.146 27.8987 885.487 27.684C885.827 27.4647 886.103 27.166 886.313 26.788L887.51 27.068C887.23 27.6887 886.807 28.1973 886.243 28.594C885.678 28.986 885.046 29.182 884.346 29.182ZM882.064 25.003H886.628C886.59 24.611 886.464 24.254 886.25 23.932C886.035 23.6053 885.762 23.344 885.431 23.148C885.099 22.952 884.738 22.854 884.346 22.854C883.954 22.854 883.594 22.9497 883.268 23.141C882.941 23.3323 882.67 23.5913 882.456 23.918C882.246 24.24 882.115 24.6017 882.064 25.003ZM894.577 22H895.753V29H894.577L894.528 27.817C894.309 28.223 894.006 28.552 893.618 28.804C893.236 29.056 892.778 29.182 892.246 29.182C891.733 29.182 891.252 29.0863 890.804 28.895C890.356 28.699 889.96 28.4307 889.614 28.09C889.274 27.7447 889.008 27.348 888.816 26.9C888.625 26.452 888.529 25.969 888.529 25.451C888.529 24.9517 888.623 24.4803 888.809 24.037C888.996 23.5937 889.255 23.2063 889.586 22.875C889.922 22.539 890.31 22.2777 890.748 22.091C891.187 21.8997 891.658 21.804 892.162 21.804C892.713 21.804 893.196 21.9347 893.611 22.196C894.027 22.4527 894.363 22.7863 894.619 23.197L894.577 22ZM892.225 28.041C892.687 28.041 893.086 27.929 893.422 27.705C893.763 27.4763 894.024 27.1683 894.206 26.781C894.393 26.3937 894.486 25.9667 894.486 25.5C894.486 25.024 894.393 24.5947 894.206 24.212C894.02 23.8247 893.756 23.519 893.415 23.295C893.079 23.0663 892.683 22.952 892.225 22.952C891.763 22.952 891.343 23.0663 890.965 23.295C890.587 23.5237 890.286 23.8317 890.062 24.219C889.843 24.6017 889.733 25.0287 889.733 25.5C889.733 25.9713 889.848 26.4007 890.076 26.788C890.305 27.1707 890.608 27.4763 890.986 27.705C891.364 27.929 891.777 28.041 892.225 28.041ZM897.153 29V22H898.329V22.875C898.576 22.5483 898.889 22.2893 899.267 22.098C899.645 21.902 900.055 21.804 900.499 21.804C900.769 21.804 901.031 21.839 901.283 21.909L900.807 23.085C900.615 23.0243 900.429 22.994 900.247 22.994C899.897 22.994 899.575 23.0803 899.281 23.253C898.991 23.421 898.76 23.6497 898.588 23.939C898.415 24.2283 898.329 24.5503 898.329 24.905V29H897.153ZM908.358 24.646V29H907.182V24.905C907.182 24.5503 907.096 24.2283 906.923 23.939C906.75 23.6497 906.519 23.421 906.23 23.253C905.941 23.0803 905.619 22.994 905.264 22.994C904.914 22.994 904.592 23.0803 904.298 23.253C904.009 23.421 903.778 23.6497 903.605 23.939C903.432 24.2283 903.346 24.5503 903.346 24.905V29H902.17V22H903.346V22.875C903.593 22.5483 903.906 22.2893 904.284 22.098C904.662 21.902 905.073 21.804 905.516 21.804C906.039 21.804 906.515 21.9323 906.944 22.189C907.378 22.441 907.721 22.7817 907.973 23.211C908.23 23.6403 908.358 24.1187 908.358 24.646ZM913.121 29L915.018 19.2H915.921L918.567 26.158L921.206 19.2H922.109L924.013 29H922.816L921.437 21.888L918.952 28.468H918.175L915.69 21.888L914.318 29H913.121ZM928.164 29.182C927.52 29.182 926.932 29.0163 926.4 28.685C925.873 28.3537 925.45 27.9103 925.133 27.355C924.82 26.795 924.664 26.1767 924.664 25.5C924.664 24.9867 924.755 24.5083 924.937 24.065C925.119 23.617 925.369 23.225 925.686 22.889C926.008 22.5483 926.381 22.2823 926.806 22.091C927.231 21.8997 927.683 21.804 928.164 21.804C928.808 21.804 929.394 21.9697 929.921 22.301C930.453 22.6323 930.875 23.078 931.188 23.638C931.505 24.198 931.664 24.8187 931.664 25.5C931.664 26.0087 931.573 26.4847 931.391 26.928C931.209 27.3713 930.957 27.7633 930.635 28.104C930.318 28.44 929.947 28.7037 929.522 28.895C929.102 29.0863 928.649 29.182 928.164 29.182ZM928.164 28.006C928.603 28.006 928.997 27.8917 929.347 27.663C929.702 27.4297 929.979 27.124 930.18 26.746C930.385 26.3633 930.488 25.948 930.488 25.5C930.488 25.0427 930.383 24.6227 930.173 24.24C929.968 23.8573 929.69 23.5517 929.34 23.323C928.99 23.0943 928.598 22.98 928.164 22.98C927.725 22.98 927.331 23.0967 926.981 23.33C926.631 23.5587 926.353 23.8643 926.148 24.247C925.943 24.6297 925.84 25.0473 925.84 25.5C925.84 25.9667 925.945 26.3913 926.155 26.774C926.365 27.152 926.647 27.453 927.002 27.677C927.357 27.8963 927.744 28.006 928.164 28.006ZM932.822 29V22H933.998V22.875C934.246 22.5483 934.558 22.2893 934.936 22.098C935.314 21.902 935.725 21.804 936.168 21.804C936.439 21.804 936.7 21.839 936.952 21.909L936.476 23.085C936.285 23.0243 936.098 22.994 935.916 22.994C935.566 22.994 935.244 23.0803 934.95 23.253C934.661 23.421 934.43 23.6497 934.257 23.939C934.085 24.2283 933.998 24.5503 933.998 24.905V29H932.822ZM940.537 29.182C939.893 29.182 939.305 29.0163 938.773 28.685C938.246 28.3537 937.824 27.9103 937.506 27.355C937.194 26.795 937.037 26.1767 937.037 25.5C937.037 24.9867 937.128 24.5083 937.31 24.065C937.492 23.617 937.742 23.225 938.059 22.889C938.381 22.5483 938.755 22.2823 939.179 22.091C939.604 21.8997 940.057 21.804 940.537 21.804C941.065 21.804 941.548 21.9113 941.986 22.126C942.43 22.336 942.808 22.63 943.12 23.008C943.438 23.386 943.673 23.8247 943.827 24.324C943.986 24.8233 944.044 25.3577 944.002 25.927H938.29C938.346 26.3237 938.477 26.6783 938.682 26.991C938.888 27.299 939.149 27.544 939.466 27.726C939.788 27.908 940.145 28.0013 940.537 28.006C940.957 28.006 941.338 27.8987 941.678 27.684C942.019 27.4647 942.294 27.166 942.504 26.788L943.701 27.068C943.421 27.6887 942.999 28.1973 942.434 28.594C941.87 28.986 941.237 29.182 940.537 29.182ZM938.255 25.003H942.819C942.782 24.611 942.656 24.254 942.441 23.932C942.227 23.6053 941.954 23.344 941.622 23.148C941.291 22.952 940.929 22.854 940.537 22.854C940.145 22.854 939.786 22.9497 939.459 23.141C939.133 23.3323 938.862 23.5913 938.647 23.918C938.437 24.24 938.307 24.6017 938.255 25.003Z" fill="white"></path></svg>