<svg xmlns="http://www.w3.org/2000/svg" width="330" height="124" viewBox="0 0 330 124" fill="none"><rect x="1" y="0.5" width="59" height="59" rx="29.5" fill="#141414"></rect><rect x="1" y="0.5" width="59" height="59" rx="29.5" stroke="#703BF7"></rect><path fill-rule="evenodd" clip-rule="evenodd" d="M29.0862 19.7458C29.6093 18.4882 31.3908 18.4882 31.9139 19.7458L34.3429 25.5858L40.6477 26.0913C42.0053 26.2001 42.5559 27.8944 41.5215 28.7805L36.7179 32.8953L38.1854 39.0477C38.5015 40.3726 37.0602 41.4197 35.8978 40.7098L30.5001 37.4128L25.1023 40.7098C23.9399 41.4197 22.4986 40.3726 22.8147 39.0477L24.2822 32.8953L19.4787 28.7805C18.4442 27.8945 18.9948 26.2001 20.3525 26.0913L26.6572 25.5858L29.0862 19.7458Z" fill="#A685FA"></path><path d="M78.2 37.26C77.2533 37.26 76.3633 37.0733 75.53 36.7C74.6967 36.32 73.9633 35.7967 73.33 35.13C72.6967 34.4633 72.2 33.6933 71.84 32.82C71.48 31.94 71.3 31 71.3 30C71.3 29 71.48 28.0633 71.84 27.19C72.2 26.31 72.6967 25.5367 73.33 24.87C73.9633 24.2033 74.6967 23.6833 75.53 23.31C76.3633 22.93 77.2533 22.74 78.2 22.74C79.1533 22.74 80.0467 22.93 80.88 23.31C81.7133 23.6833 82.4467 24.2033 83.08 24.87C83.7133 25.5367 84.2067 26.31 84.56 27.19C84.92 28.0633 85.1 29 85.1 30C85.1 31 84.92 31.94 84.56 32.82C84.2067 33.6933 83.7133 34.4633 83.08 35.13C82.4467 35.7967 81.7133 36.32 80.88 36.7C80.0467 37.0733 79.1533 37.26 78.2 37.26ZM78.2 35.18C78.8667 35.18 79.49 35.0433 80.07 34.77C80.65 34.4967 81.16 34.1233 81.6 33.65C82.0467 33.17 82.3933 32.62 82.64 32C82.8933 31.3733 83.02 30.7067 83.02 30C83.02 29.2933 82.8933 28.6267 82.64 28C82.3933 27.3733 82.0467 26.8233 81.6 26.35C81.16 25.87 80.65 25.4967 80.07 25.23C79.49 24.9567 78.8667 24.82 78.2 24.82C77.5333 24.82 76.91 24.9567 76.33 25.23C75.75 25.5033 75.2367 25.88 74.79 26.36C74.35 26.8333 74.0033 27.3833 73.75 28.01C73.5033 28.63 73.38 29.2933 73.38 30C73.38 30.7133 73.5033 31.3833 73.75 32.01C74.0033 32.63 74.35 33.18 74.79 33.66C75.2367 34.1333 75.75 34.5067 76.33 34.78C76.91 35.0467 77.5333 35.18 78.2 35.18ZM86.4563 33.25V27H88.5363V32.74C88.5363 33.1867 88.6463 33.5933 88.8663 33.96C89.0863 34.3267 89.3796 34.62 89.7463 34.84C90.1129 35.0533 90.5163 35.16 90.9563 35.16C91.4029 35.16 91.8063 35.0533 92.1663 34.84C92.5329 34.62 92.8229 34.3267 93.0363 33.96C93.2563 33.5933 93.3663 33.1867 93.3663 32.74V27H95.4463L95.4563 37H93.3763L93.3663 35.92C93.0263 36.3333 92.6029 36.66 92.0963 36.9C91.5896 37.14 91.0463 37.26 90.4663 37.26C89.7263 37.26 89.0529 37.08 88.4463 36.72C87.8396 36.36 87.3563 35.8767 86.9963 35.27C86.6363 34.6633 86.4563 33.99 86.4563 33.25ZM97.4617 37V27H99.5417V28.06C99.8884 27.6467 100.315 27.32 100.822 27.08C101.328 26.84 101.875 26.72 102.462 26.72C102.835 26.72 103.205 26.77 103.572 26.87L102.742 28.97C102.482 28.87 102.222 28.82 101.962 28.82C101.522 28.82 101.118 28.93 100.752 29.15C100.385 29.3633 100.092 29.6533 99.8717 30.02C99.6517 30.3867 99.5417 30.7933 99.5417 31.24V37H97.4617ZM116.266 37.26C115.319 37.26 114.429 37.0733 113.596 36.7C112.763 36.32 112.029 35.8 111.396 35.14C110.769 34.4733 110.276 33.7 109.916 32.82C109.563 31.94 109.386 31 109.386 30C109.386 29 109.563 28.06 109.916 27.18C110.276 26.3 110.769 25.53 111.396 24.87C112.029 24.2033 112.763 23.6833 113.596 23.31C114.429 22.93 115.319 22.74 116.266 22.74C117.399 22.74 118.443 23.0033 119.396 23.53C120.349 24.0567 121.139 24.7567 121.766 25.63L119.916 26.62C119.483 26.0733 118.946 25.6367 118.306 25.31C117.666 24.9833 116.986 24.82 116.266 24.82C115.599 24.82 114.976 24.9567 114.396 25.23C113.816 25.5033 113.306 25.8767 112.866 26.35C112.426 26.8233 112.083 27.3733 111.836 28C111.589 28.6267 111.466 29.2933 111.466 30C111.466 30.7133 111.589 31.3833 111.836 32.01C112.083 32.63 112.426 33.18 112.866 33.66C113.313 34.1333 113.826 34.5067 114.406 34.78C114.986 35.0467 115.606 35.18 116.266 35.18C116.999 35.18 117.683 35.0167 118.316 34.69C118.956 34.3567 119.489 33.9167 119.916 33.37L121.766 34.38C121.139 35.2533 120.349 35.9533 119.396 36.48C118.443 37 117.399 37.26 116.266 37.26ZM127.584 37.26C126.664 37.26 125.824 37.0233 125.064 36.55C124.311 36.0767 123.708 35.4433 123.254 34.65C122.808 33.85 122.584 32.9667 122.584 32C122.584 31.2667 122.714 30.5833 122.974 29.95C123.234 29.31 123.591 28.75 124.044 28.27C124.504 27.7833 125.038 27.4033 125.644 27.13C126.251 26.8567 126.898 26.72 127.584 26.72C128.504 26.72 129.341 26.9567 130.094 27.43C130.854 27.9033 131.458 28.54 131.904 29.34C132.358 30.14 132.584 31.0267 132.584 32C132.584 32.7267 132.454 33.4067 132.194 34.04C131.934 34.6733 131.574 35.2333 131.114 35.72C130.661 36.2 130.131 36.5767 129.524 36.85C128.924 37.1233 128.278 37.26 127.584 37.26ZM127.584 35.18C128.138 35.18 128.634 35.0333 129.074 34.74C129.514 34.4467 129.861 34.06 130.114 33.58C130.374 33.0933 130.504 32.5667 130.504 32C130.504 31.42 130.371 30.8867 130.104 30.4C129.844 29.9133 129.494 29.5267 129.054 29.24C128.614 28.9467 128.124 28.8 127.584 28.8C127.038 28.8 126.541 28.9467 126.094 29.24C125.654 29.5333 125.304 29.9233 125.044 30.41C124.791 30.8967 124.664 31.4267 124.664 32C124.664 32.5933 124.798 33.13 125.064 33.61C125.331 34.09 125.684 34.4733 126.124 34.76C126.571 35.04 127.058 35.18 127.584 35.18ZM134.2 37V27H136.28V28.06C136.627 27.6467 137.05 27.32 137.55 27.08C138.057 26.84 138.603 26.72 139.19 26.72C139.903 26.72 140.56 26.8933 141.16 27.24C141.76 27.58 142.237 28.0333 142.59 28.6C142.943 28.0333 143.413 27.58 144 27.24C144.593 26.8933 145.247 26.72 145.96 26.72C146.7 26.72 147.373 26.9 147.98 27.26C148.587 27.62 149.07 28.1033 149.43 28.71C149.79 29.3167 149.97 29.99 149.97 30.73V37H147.89V31.26C147.89 30.82 147.783 30.4167 147.57 30.05C147.357 29.6833 147.07 29.3867 146.71 29.16C146.35 28.9333 145.95 28.82 145.51 28.82C145.07 28.82 144.67 28.9267 144.31 29.14C143.95 29.3533 143.663 29.6433 143.45 30.01C143.237 30.3767 143.13 30.7933 143.13 31.26V37H141.05V31.26C141.05 30.7933 140.943 30.3767 140.73 30.01C140.517 29.6433 140.227 29.3533 139.86 29.14C139.5 28.9267 139.1 28.82 138.66 28.82C138.227 28.82 137.827 28.9333 137.46 29.16C137.1 29.3867 136.813 29.6833 136.6 30.05C136.387 30.4167 136.28 30.82 136.28 31.26V37H134.2ZM151.973 37V27H154.053V28.06C154.4 27.6467 154.823 27.32 155.323 27.08C155.83 26.84 156.377 26.72 156.963 26.72C157.677 26.72 158.333 26.8933 158.933 27.24C159.533 27.58 160.01 28.0333 160.363 28.6C160.717 28.0333 161.187 27.58 161.773 27.24C162.367 26.8933 163.02 26.72 163.733 26.72C164.473 26.72 165.147 26.9 165.753 27.26C166.36 27.62 166.843 28.1033 167.203 28.71C167.563 29.3167 167.743 29.99 167.743 30.73V37H165.663V31.26C165.663 30.82 165.557 30.4167 165.343 30.05C165.13 29.6833 164.843 29.3867 164.483 29.16C164.123 28.9333 163.723 28.82 163.283 28.82C162.843 28.82 162.443 28.9267 162.083 29.14C161.723 29.3533 161.437 29.6433 161.223 30.01C161.01 30.3767 160.903 30.7933 160.903 31.26V37H158.823V31.26C158.823 30.7933 158.717 30.3767 158.503 30.01C158.29 29.6433 158 29.3533 157.633 29.14C157.273 28.9267 156.873 28.82 156.433 28.82C156 28.82 155.6 28.9333 155.233 29.16C154.873 29.3867 154.587 29.6833 154.373 30.05C154.16 30.4167 154.053 30.82 154.053 31.26V37H151.973ZM169.747 27H171.827V37H169.747V27ZM170.807 25.55C170.487 25.55 170.22 25.4467 170.007 25.24C169.794 25.0333 169.687 24.7733 169.687 24.46C169.687 24.1533 169.794 23.8967 170.007 23.69C170.22 23.4767 170.484 23.37 170.797 23.37C171.104 23.37 171.364 23.4767 171.577 23.69C171.79 23.8967 171.897 24.1533 171.897 24.46C171.897 24.7733 171.79 25.0333 171.577 25.24C171.37 25.4467 171.114 25.55 170.807 25.55ZM179.5 29.08H177.4L177.39 37H175.31L175.32 29.08H173.73V27H175.32L175.31 23.86H177.39L177.4 27H179.5V29.08ZM181.29 37V27H183.37V28.06C183.717 27.6467 184.14 27.32 184.64 27.08C185.147 26.84 185.693 26.72 186.28 26.72C186.993 26.72 187.65 26.8933 188.25 27.24C188.85 27.58 189.327 28.0333 189.68 28.6C190.033 28.0333 190.503 27.58 191.09 27.24C191.683 26.8933 192.337 26.72 193.05 26.72C193.79 26.72 194.463 26.9 195.07 27.26C195.677 27.62 196.16 28.1033 196.52 28.71C196.88 29.3167 197.06 29.99 197.06 30.73V37H194.98V31.26C194.98 30.82 194.873 30.4167 194.66 30.05C194.447 29.6833 194.16 29.3867 193.8 29.16C193.44 28.9333 193.04 28.82 192.6 28.82C192.16 28.82 191.76 28.9267 191.4 29.14C191.04 29.3533 190.753 29.6433 190.54 30.01C190.327 30.3767 190.22 30.7933 190.22 31.26V37H188.14V31.26C188.14 30.7933 188.033 30.3767 187.82 30.01C187.607 29.6433 187.317 29.3533 186.95 29.14C186.59 28.9267 186.19 28.82 185.75 28.82C185.317 28.82 184.917 28.9333 184.55 29.16C184.19 29.3867 183.903 29.6833 183.69 30.05C183.477 30.4167 183.37 30.82 183.37 31.26V37H181.29ZM203.268 37.26C202.348 37.26 201.508 37.0233 200.748 36.55C199.995 36.0767 199.391 35.4433 198.938 34.65C198.491 33.85 198.268 32.9667 198.268 32C198.268 31.2667 198.398 30.5833 198.658 29.95C198.918 29.31 199.275 28.75 199.728 28.27C200.188 27.7833 200.721 27.4033 201.328 27.13C201.935 26.8567 202.581 26.72 203.268 26.72C204.035 26.72 204.738 26.88 205.378 27.2C206.018 27.5133 206.565 27.95 207.018 28.51C207.471 29.0633 207.805 29.7033 208.018 30.43C208.231 31.15 208.295 31.9167 208.208 32.73H200.498C200.585 33.19 200.751 33.6067 200.998 33.98C201.251 34.3467 201.571 34.6367 201.958 34.85C202.351 35.0633 202.788 35.1733 203.268 35.18C203.775 35.18 204.235 35.0533 204.648 34.8C205.068 34.5467 205.411 34.1967 205.678 33.75L207.788 34.24C207.388 35.1267 206.785 35.8533 205.978 36.42C205.171 36.98 204.268 37.26 203.268 37.26ZM200.428 31.14H206.108C206.041 30.66 205.871 30.2267 205.598 29.84C205.331 29.4467 204.995 29.1367 204.588 28.91C204.188 28.6767 203.748 28.56 203.268 28.56C202.795 28.56 202.355 28.6733 201.948 28.9C201.548 29.1267 201.215 29.4367 200.948 29.83C200.688 30.2167 200.515 30.6533 200.428 31.14ZM218.864 30.73V37H216.784V31.24C216.784 30.7933 216.674 30.3867 216.454 30.02C216.241 29.6533 215.951 29.3633 215.584 29.15C215.224 28.93 214.817 28.82 214.364 28.82C213.924 28.82 213.521 28.93 213.154 29.15C212.787 29.3633 212.494 29.6533 212.274 30.02C212.054 30.3867 211.944 30.7933 211.944 31.24V37H209.864V27H211.944V28.06C212.291 27.6467 212.717 27.32 213.224 27.08C213.731 26.84 214.277 26.72 214.864 26.72C215.604 26.72 216.277 26.9 216.884 27.26C217.491 27.62 217.971 28.1033 218.324 28.71C218.684 29.3167 218.864 29.99 218.864 30.73ZM226.14 29.08H224.04L224.03 37H221.95L221.96 29.08H220.37V27H221.96L221.95 23.86H224.03L224.04 27H226.14V29.08Z" fill="white"></path><path d="M3.812 94L0.948 82.8H2.332L4.588 91.64L6.836 82.8H8.044L10.3 91.64L12.548 82.8H13.932L11.084 94H9.516L7.444 85.888L5.372 94H3.812ZM17.9331 94.208C17.1971 94.208 16.5251 94.0187 15.9171 93.64C15.3145 93.2613 14.8318 92.7547 14.4691 92.12C14.1118 91.48 13.9331 90.7733 13.9331 90C13.9331 89.4133 14.0371 88.8667 14.2451 88.36C14.4531 87.848 14.7385 87.4 15.1011 87.016C15.4691 86.6267 15.8958 86.3227 16.3811 86.104C16.8665 85.8853 17.3838 85.776 17.9331 85.776C18.5358 85.776 19.0878 85.8987 19.5891 86.144C20.0958 86.384 20.5278 86.72 20.8851 87.152C21.2478 87.584 21.5171 88.0853 21.6931 88.656C21.8745 89.2267 21.9411 89.8373 21.8931 90.488H15.3651C15.4291 90.9413 15.5785 91.3467 15.8131 91.704C16.0478 92.056 16.3465 92.336 16.7091 92.544C17.0771 92.752 17.4851 92.8587 17.9331 92.864C18.4131 92.864 18.8478 92.7413 19.2371 92.496C19.6265 92.2453 19.9411 91.904 20.1811 91.472L21.5491 91.792C21.2291 92.5013 20.7465 93.0827 20.1011 93.536C19.4558 93.984 18.7331 94.208 17.9331 94.208ZM15.3251 89.432H20.5411C20.4985 88.984 20.3545 88.576 20.1091 88.208C19.8638 87.8347 19.5518 87.536 19.1731 87.312C18.7945 87.088 18.3811 86.976 17.9331 86.976C17.4851 86.976 17.0745 87.0853 16.7011 87.304C16.3278 87.5227 16.0185 87.8187 15.7731 88.192C15.5331 88.56 15.3838 88.9733 15.3251 89.432ZM33.6264 86H34.9704V94H33.6264L33.5704 92.648C33.3197 93.112 32.973 93.488 32.5304 93.776C32.093 94.064 31.5704 94.208 30.9624 94.208C30.3757 94.208 29.8264 94.0987 29.3144 93.88C28.8024 93.656 28.349 93.3493 27.9544 92.96C27.565 92.5653 27.261 92.112 27.0424 91.6C26.8237 91.088 26.7144 90.536 26.7144 89.944C26.7144 89.3733 26.821 88.8347 27.0344 88.328C27.2477 87.8213 27.5437 87.3787 27.9224 87C28.3064 86.616 28.749 86.3173 29.2504 86.104C29.7517 85.8853 30.2904 85.776 30.8664 85.776C31.4957 85.776 32.0477 85.9253 32.5224 86.224C32.997 86.5173 33.381 86.8987 33.6744 87.368L33.6264 86ZM30.9384 92.904C31.4664 92.904 31.9224 92.776 32.3064 92.52C32.6957 92.2587 32.9944 91.9067 33.2024 91.464C33.4157 91.0213 33.5224 90.5333 33.5224 90C33.5224 89.456 33.4157 88.9653 33.2024 88.528C32.989 88.0853 32.6877 87.736 32.2984 87.48C31.9144 87.2187 31.461 87.088 30.9384 87.088C30.4104 87.088 29.9304 87.2187 29.4984 87.48C29.0664 87.7413 28.7224 88.0933 28.4664 88.536C28.2157 88.9733 28.0904 89.4613 28.0904 90C28.0904 90.5387 28.221 91.0293 28.4824 91.472C28.7437 91.9093 29.0904 92.2587 29.5224 92.52C29.9544 92.776 30.4264 92.904 30.9384 92.904ZM36.5694 94V86H37.9134V87C38.196 86.6267 38.5534 86.3307 38.9854 86.112C39.4174 85.888 39.8867 85.776 40.3934 85.776C40.7027 85.776 41.0014 85.816 41.2894 85.896L40.7454 87.24C40.5267 87.1707 40.3134 87.136 40.1054 87.136C39.7054 87.136 39.3374 87.2347 39.0014 87.432C38.6707 87.624 38.4067 87.8853 38.2094 88.216C38.012 88.5467 37.9134 88.9147 37.9134 89.32V94H36.5694ZM45.3863 94.208C44.6503 94.208 43.9783 94.0187 43.3703 93.64C42.7676 93.2613 42.2849 92.7547 41.9223 92.12C41.5649 91.48 41.3863 90.7733 41.3863 90C41.3863 89.4133 41.4903 88.8667 41.6983 88.36C41.9063 87.848 42.1916 87.4 42.5543 87.016C42.9223 86.6267 43.3489 86.3227 43.8343 86.104C44.3196 85.8853 44.8369 85.776 45.3863 85.776C45.9889 85.776 46.5409 85.8987 47.0423 86.144C47.5489 86.384 47.9809 86.72 48.3383 87.152C48.7009 87.584 48.9703 88.0853 49.1463 88.656C49.3276 89.2267 49.3943 89.8373 49.3463 90.488H42.8183C42.8823 90.9413 43.0316 91.3467 43.2663 91.704C43.5009 92.056 43.7996 92.336 44.1623 92.544C44.5303 92.752 44.9383 92.8587 45.3863 92.864C45.8663 92.864 46.3009 92.7413 46.6903 92.496C47.0796 92.2453 47.3943 91.904 47.6343 91.472L49.0023 91.792C48.6823 92.5013 48.1996 93.0827 47.5543 93.536C46.9089 93.984 46.1863 94.208 45.3863 94.208ZM42.7783 89.432H47.9943C47.9516 88.984 47.8076 88.576 47.5623 88.208C47.3169 87.8347 47.0049 87.536 46.6263 87.312C46.2476 87.088 45.8343 86.976 45.3863 86.976C44.9383 86.976 44.5276 87.0853 44.1543 87.304C43.7809 87.5227 43.4716 87.8187 43.2263 88.192C42.9863 88.56 42.8369 88.9733 42.7783 89.432ZM61.0875 82H62.4315V94H61.0875V92.64C60.8155 93.1093 60.4502 93.488 59.9915 93.776C59.5328 94.064 58.9942 94.208 58.3755 94.208C57.7942 94.208 57.2502 94.0987 56.7435 93.88C56.2368 93.6613 55.7888 93.36 55.3995 92.976C55.0155 92.5867 54.7142 92.1387 54.4955 91.632C54.2768 91.1253 54.1675 90.5813 54.1675 90C54.1675 89.4187 54.2768 88.8747 54.4955 88.368C54.7142 87.856 55.0155 87.408 55.3995 87.024C55.7888 86.6347 56.2368 86.3307 56.7435 86.112C57.2502 85.8933 57.7942 85.784 58.3755 85.784C58.9942 85.784 59.5328 85.928 59.9915 86.216C60.4502 86.504 60.8155 86.8827 61.0875 87.352V82ZM58.3915 92.904C58.9195 92.904 59.3755 92.776 59.7595 92.52C60.1488 92.2587 60.4475 91.9067 60.6555 91.464C60.8688 91.0213 60.9755 90.5333 60.9755 90C60.9755 89.456 60.8688 88.9653 60.6555 88.528C60.4422 88.0853 60.1408 87.736 59.7515 87.48C59.3675 87.2187 58.9142 87.088 58.3915 87.088C57.8635 87.088 57.3835 87.2187 56.9515 87.48C56.5248 87.7413 56.1835 88.0933 55.9275 88.536C55.6715 88.9733 55.5435 89.4613 55.5435 90C55.5435 90.5387 55.6742 91.0293 55.9355 91.472C56.1968 91.9093 56.5435 92.2587 56.9755 92.52C57.4075 92.776 57.8795 92.904 58.3915 92.904ZM67.7925 94.208C67.0565 94.208 66.3845 94.0187 65.7765 93.64C65.1738 93.2613 64.6912 92.7547 64.3285 92.12C63.9712 91.48 63.7925 90.7733 63.7925 90C63.7925 89.4133 63.8965 88.8667 64.1045 88.36C64.3125 87.848 64.5978 87.4 64.9605 87.016C65.3285 86.6267 65.7552 86.3227 66.2405 86.104C66.7258 85.8853 67.2432 85.776 67.7925 85.776C68.3952 85.776 68.9472 85.8987 69.4485 86.144C69.9552 86.384 70.3872 86.72 70.7445 87.152C71.1072 87.584 71.3765 88.0853 71.5525 88.656C71.7338 89.2267 71.8005 89.8373 71.7525 90.488H65.2245C65.2885 90.9413 65.4378 91.3467 65.6725 91.704C65.9072 92.056 66.2058 92.336 66.5685 92.544C66.9365 92.752 67.3445 92.8587 67.7925 92.864C68.2725 92.864 68.7072 92.7413 69.0965 92.496C69.4858 92.2453 69.8005 91.904 70.0405 91.472L71.4085 91.792C71.0885 92.5013 70.6058 93.0827 69.9605 93.536C69.3152 93.984 68.5925 94.208 67.7925 94.208ZM65.1845 89.432H70.4005C70.3578 88.984 70.2138 88.576 69.9685 88.208C69.7232 87.8347 69.4112 87.536 69.0325 87.312C68.6538 87.088 68.2405 86.976 67.7925 86.976C67.3445 86.976 66.9338 87.0853 66.5605 87.304C66.1872 87.5227 65.8778 87.8187 65.6325 88.192C65.3925 88.56 65.2432 88.9733 65.1845 89.432ZM79.4938 82H80.8378V94H79.4938V92.64C79.2218 93.1093 78.8564 93.488 78.3978 93.776C77.9391 94.064 77.4004 94.208 76.7818 94.208C76.2004 94.208 75.6564 94.0987 75.1498 93.88C74.6431 93.6613 74.1951 93.36 73.8058 92.976C73.4218 92.5867 73.1204 92.1387 72.9018 91.632C72.6831 91.1253 72.5738 90.5813 72.5738 90C72.5738 89.4187 72.6831 88.8747 72.9018 88.368C73.1204 87.856 73.4218 87.408 73.8058 87.024C74.1951 86.6347 74.6431 86.3307 75.1498 86.112C75.6564 85.8933 76.2004 85.784 76.7818 85.784C77.4004 85.784 77.9391 85.928 78.3978 86.216C78.8564 86.504 79.2218 86.8827 79.4938 87.352V82ZM76.7977 92.904C77.3258 92.904 77.7818 92.776 78.1658 92.52C78.5551 92.2587 78.8538 91.9067 79.0618 91.464C79.2751 91.0213 79.3818 90.5333 79.3818 90C79.3818 89.456 79.2751 88.9653 79.0618 88.528C78.8484 88.0853 78.5471 87.736 78.1578 87.48C77.7738 87.2187 77.3204 87.088 76.7977 87.088C76.2698 87.088 75.7898 87.2187 75.3578 87.48C74.9311 87.7413 74.5898 88.0933 74.3338 88.536C74.0778 88.9733 73.9498 89.4613 73.9498 90C73.9498 90.5387 74.0804 91.0293 74.3418 91.472C74.6031 91.9093 74.9498 92.2587 75.3818 92.52C75.8138 92.776 76.2858 92.904 76.7977 92.904ZM82.7569 86H84.1009V94H82.7569V86ZM83.4449 84.696C83.2315 84.696 83.0529 84.6267 82.9089 84.488C82.7649 84.3493 82.6929 84.176 82.6929 83.968C82.6929 83.76 82.7649 83.5867 82.9089 83.448C83.0529 83.3093 83.2289 83.24 83.4369 83.24C83.6449 83.24 83.8209 83.3093 83.9649 83.448C84.1089 83.5867 84.1809 83.76 84.1809 83.968C84.1809 84.176 84.1089 84.3493 83.9649 84.488C83.8262 84.6267 83.6529 84.696 83.4449 84.696ZM91.4251 91.888L92.6251 92.536C92.2625 93.0427 91.8011 93.448 91.2411 93.752C90.6865 94.056 90.0838 94.208 89.4331 94.208C88.6971 94.208 88.0251 94.0187 87.4171 93.64C86.8145 93.2613 86.3318 92.7547 85.9691 92.12C85.6118 91.48 85.4331 90.7733 85.4331 90C85.4331 89.4133 85.5371 88.8667 85.7451 88.36C85.9531 87.848 86.2385 87.4 86.6011 87.016C86.9691 86.6267 87.3958 86.3227 87.8811 86.104C88.3665 85.8853 88.8838 85.776 89.4331 85.776C90.0838 85.776 90.6865 85.928 91.2411 86.232C91.8011 86.536 92.2625 86.944 92.6251 87.456L91.4251 88.104C91.1691 87.7893 90.8651 87.5467 90.5131 87.376C90.1611 87.2053 89.8011 87.12 89.4331 87.12C88.9371 87.12 88.4865 87.2533 88.0811 87.52C87.6811 87.7813 87.3638 88.1307 87.1291 88.568C86.8945 89.0053 86.7771 89.4827 86.7771 90C86.7771 90.5173 86.8945 90.9947 87.1291 91.432C87.3691 91.864 87.6891 92.2107 88.0891 92.472C88.4945 92.7333 88.9425 92.864 89.4331 92.864C89.8278 92.864 90.1985 92.7733 90.5451 92.592C90.8918 92.4107 91.1851 92.176 91.4251 91.888ZM100.361 86H101.705V94H100.361L100.305 92.648C100.054 93.112 99.7074 93.488 99.2648 93.776C98.8274 94.064 98.3048 94.208 97.6968 94.208C97.1101 94.208 96.5608 94.0987 96.0488 93.88C95.5368 93.656 95.0834 93.3493 94.6888 92.96C94.2994 92.5653 93.9954 92.112 93.7768 91.6C93.5581 91.088 93.4488 90.536 93.4488 89.944C93.4488 89.3733 93.5554 88.8347 93.7688 88.328C93.9821 87.8213 94.2781 87.3787 94.6568 87C95.0408 86.616 95.4834 86.3173 95.9848 86.104C96.4861 85.8853 97.0248 85.776 97.6008 85.776C98.2301 85.776 98.7821 85.9253 99.2568 86.224C99.7314 86.5173 100.115 86.8987 100.409 87.368L100.361 86ZM97.6727 92.904C98.2008 92.904 98.6568 92.776 99.0408 92.52C99.4301 92.2587 99.7288 91.9067 99.9368 91.464C100.15 91.0213 100.257 90.5333 100.257 90C100.257 89.456 100.15 88.9653 99.9368 88.528C99.7234 88.0853 99.4221 87.736 99.0328 87.48C98.6488 87.2187 98.1954 87.088 97.6727 87.088C97.1448 87.088 96.6648 87.2187 96.2328 87.48C95.8008 87.7413 95.4568 88.0933 95.2008 88.536C94.9501 88.9733 94.8248 89.4613 94.8248 90C94.8248 90.5387 94.9554 91.0293 95.2168 91.472C95.4781 91.9093 95.8248 92.2587 96.2568 92.52C96.6888 92.776 97.1608 92.904 97.6727 92.904ZM107.448 87.344H105.632L105.624 94H104.28L104.288 87.344H102.912V86H104.288L104.28 83.488H105.624L105.632 86H107.448V87.344ZM112.199 94.208C111.463 94.208 110.791 94.0187 110.183 93.64C109.58 93.2613 109.097 92.7547 108.735 92.12C108.377 91.48 108.199 90.7733 108.199 90C108.199 89.4133 108.303 88.8667 108.511 88.36C108.719 87.848 109.004 87.4 109.367 87.016C109.735 86.6267 110.161 86.3227 110.647 86.104C111.132 85.8853 111.649 85.776 112.199 85.776C112.801 85.776 113.353 85.8987 113.855 86.144C114.361 86.384 114.793 86.72 115.151 87.152C115.513 87.584 115.783 88.0853 115.959 88.656C116.14 89.2267 116.207 89.8373 116.159 90.488H109.631C109.695 90.9413 109.844 91.3467 110.079 91.704C110.313 92.056 110.612 92.336 110.975 92.544C111.343 92.752 111.751 92.8587 112.199 92.864C112.679 92.864 113.113 92.7413 113.503 92.496C113.892 92.2453 114.207 91.904 114.447 91.472L115.815 91.792C115.495 92.5013 115.012 93.0827 114.367 93.536C113.721 93.984 112.999 94.208 112.199 94.208ZM109.591 89.432H114.807C114.764 88.984 114.62 88.576 114.375 88.208C114.129 87.8347 113.817 87.536 113.439 87.312C113.06 87.088 112.647 86.976 112.199 86.976C111.751 86.976 111.34 87.0853 110.967 87.304C110.593 87.5227 110.284 87.8187 110.039 88.192C109.799 88.56 109.649 88.9733 109.591 89.432ZM123.9 82H125.244V94H123.9V92.64C123.628 93.1093 123.263 93.488 122.804 93.776C122.345 94.064 121.807 94.208 121.188 94.208C120.607 94.208 120.063 94.0987 119.556 93.88C119.049 93.6613 118.601 93.36 118.212 92.976C117.828 92.5867 117.527 92.1387 117.308 91.632C117.089 91.1253 116.98 90.5813 116.98 90C116.98 89.4187 117.089 88.8747 117.308 88.368C117.527 87.856 117.828 87.408 118.212 87.024C118.601 86.6347 119.049 86.3307 119.556 86.112C120.063 85.8933 120.607 85.784 121.188 85.784C121.807 85.784 122.345 85.928 122.804 86.216C123.263 86.504 123.628 86.8827 123.9 87.352V82ZM121.204 92.904C121.732 92.904 122.188 92.776 122.572 92.52C122.961 92.2587 123.26 91.9067 123.468 91.464C123.681 91.0213 123.788 90.5333 123.788 90C123.788 89.456 123.681 88.9653 123.468 88.528C123.255 88.0853 122.953 87.736 122.564 87.48C122.18 87.2187 121.727 87.088 121.204 87.088C120.676 87.088 120.196 87.2187 119.764 87.48C119.337 87.7413 118.996 88.0933 118.74 88.536C118.484 88.9733 118.356 89.4613 118.356 90C118.356 90.5387 118.487 91.0293 118.748 91.472C119.009 91.9093 119.356 92.2587 119.788 92.52C120.22 92.776 120.692 92.904 121.204 92.904ZM135.151 87.344H133.335L133.327 94H131.983L131.991 87.344H130.615V86H131.991L131.983 83.488H133.327L133.335 86H135.151V87.344ZM139.902 94.208C139.166 94.208 138.494 94.0187 137.886 93.64C137.283 93.2613 136.801 92.7547 136.438 92.12C136.081 91.48 135.902 90.7733 135.902 90C135.902 89.4133 136.006 88.8667 136.214 88.36C136.422 87.848 136.707 87.4 137.07 87.016C137.438 86.6267 137.865 86.3227 138.35 86.104C138.835 85.8853 139.353 85.776 139.902 85.776C140.638 85.776 141.307 85.9653 141.91 86.344C142.518 86.7227 143.001 87.232 143.358 87.872C143.721 88.512 143.902 89.2213 143.902 90C143.902 90.5813 143.798 91.1253 143.59 91.632C143.382 92.1387 143.094 92.5867 142.726 92.976C142.363 93.36 141.939 93.6613 141.454 93.88C140.974 94.0987 140.457 94.208 139.902 94.208ZM139.902 92.864C140.403 92.864 140.854 92.7333 141.254 92.472C141.659 92.2053 141.977 91.856 142.206 91.424C142.441 90.9867 142.558 90.512 142.558 90C142.558 89.4773 142.438 88.9973 142.198 88.56C141.963 88.1227 141.646 87.7733 141.246 87.512C140.846 87.2507 140.398 87.12 139.902 87.12C139.401 87.12 138.95 87.2533 138.55 87.52C138.15 87.7813 137.833 88.1307 137.598 88.568C137.363 89.0053 137.246 89.4827 137.246 90C137.246 90.5333 137.366 91.0187 137.606 91.456C137.846 91.888 138.169 92.232 138.574 92.488C138.979 92.7387 139.422 92.864 139.902 92.864ZM150.523 98H149.179V86H150.523V87.368C150.795 86.8987 151.157 86.52 151.611 86.232C152.064 85.9387 152.603 85.792 153.227 85.792C153.808 85.792 154.352 85.9013 154.859 86.12C155.371 86.3387 155.819 86.6427 156.203 87.032C156.587 87.416 156.888 87.8613 157.107 88.368C157.325 88.8747 157.435 89.4187 157.435 90C157.435 90.5813 157.325 91.128 157.107 91.64C156.888 92.152 156.587 92.6027 156.203 92.992C155.819 93.376 155.371 93.6773 154.859 93.896C154.352 94.1147 153.808 94.224 153.227 94.224C152.603 94.224 152.064 94.08 151.611 93.792C151.157 93.4987 150.795 93.1173 150.523 92.648V98ZM153.211 87.096C152.693 87.096 152.24 87.2267 151.851 87.488C151.461 87.7493 151.16 88.0987 150.947 88.536C150.739 88.9733 150.635 89.4613 150.635 90C150.635 90.5333 150.739 91.0213 150.947 91.464C151.16 91.9067 151.459 92.2587 151.843 92.52C152.232 92.7813 152.688 92.912 153.211 92.912C153.728 92.912 154.203 92.784 154.635 92.528C155.067 92.2667 155.413 91.9173 155.675 91.48C155.936 91.0373 156.067 90.544 156.067 90C156.067 89.4667 155.939 88.9813 155.683 88.544C155.427 88.1013 155.083 87.7493 154.651 87.488C154.219 87.2267 153.739 87.096 153.211 87.096ZM158.773 94V86H160.117V87C160.399 86.6267 160.757 86.3307 161.189 86.112C161.621 85.888 162.09 85.776 162.597 85.776C162.906 85.776 163.205 85.816 163.493 85.896L162.949 87.24C162.73 87.1707 162.517 87.136 162.309 87.136C161.909 87.136 161.541 87.2347 161.205 87.432C160.874 87.624 160.61 87.8853 160.413 88.216C160.215 88.5467 160.117 88.9147 160.117 89.32V94H158.773ZM167.589 94.208C166.853 94.208 166.181 94.0187 165.573 93.64C164.971 93.2613 164.488 92.7547 164.125 92.12C163.768 91.48 163.589 90.7733 163.589 90C163.589 89.4133 163.693 88.8667 163.901 88.36C164.109 87.848 164.395 87.4 164.757 87.016C165.125 86.6267 165.552 86.3227 166.037 86.104C166.523 85.8853 167.04 85.776 167.589 85.776C168.325 85.776 168.995 85.9653 169.597 86.344C170.205 86.7227 170.688 87.232 171.045 87.872C171.408 88.512 171.589 89.2213 171.589 90C171.589 90.5813 171.485 91.1253 171.277 91.632C171.069 92.1387 170.781 92.5867 170.413 92.976C170.051 93.36 169.627 93.6613 169.141 93.88C168.661 94.0987 168.144 94.208 167.589 94.208ZM167.589 92.864C168.091 92.864 168.541 92.7333 168.941 92.472C169.347 92.2053 169.664 91.856 169.893 91.424C170.128 90.9867 170.245 90.512 170.245 90C170.245 89.4773 170.125 88.9973 169.885 88.56C169.651 88.1227 169.333 87.7733 168.933 87.512C168.533 87.2507 168.085 87.12 167.589 87.12C167.088 87.12 166.637 87.2533 166.237 87.52C165.837 87.7813 165.52 88.1307 165.285 88.568C165.051 89.0053 164.933 89.4827 164.933 90C164.933 90.5333 165.053 91.0187 165.293 91.456C165.533 91.888 165.856 92.232 166.261 92.488C166.667 92.7387 167.109 92.864 167.589 92.864ZM176.714 94H174.994L172.074 85.984H173.506L175.85 92.44L178.194 85.984H179.626L176.714 94ZM180.929 86H182.273V94H180.929V86ZM181.617 84.696C181.403 84.696 181.225 84.6267 181.081 84.488C180.937 84.3493 180.865 84.176 180.865 83.968C180.865 83.76 180.937 83.5867 181.081 83.448C181.225 83.3093 181.401 83.24 181.609 83.24C181.817 83.24 181.993 83.3093 182.137 83.448C182.281 83.5867 182.353 83.76 182.353 83.968C182.353 84.176 182.281 84.3493 182.137 84.488C181.998 84.6267 181.825 84.696 181.617 84.696ZM190.525 82H191.869V94H190.525V92.64C190.253 93.1093 189.888 93.488 189.429 93.776C188.97 94.064 188.432 94.208 187.813 94.208C187.232 94.208 186.688 94.0987 186.181 93.88C185.674 93.6613 185.226 93.36 184.837 92.976C184.453 92.5867 184.152 92.1387 183.933 91.632C183.714 91.1253 183.605 90.5813 183.605 90C183.605 89.4187 183.714 88.8747 183.933 88.368C184.152 87.856 184.453 87.408 184.837 87.024C185.226 86.6347 185.674 86.3307 186.181 86.112C186.688 85.8933 187.232 85.784 187.813 85.784C188.432 85.784 188.97 85.928 189.429 86.216C189.888 86.504 190.253 86.8827 190.525 87.352V82ZM187.829 92.904C188.357 92.904 188.813 92.776 189.197 92.52C189.586 92.2587 189.885 91.9067 190.093 91.464C190.306 91.0213 190.413 90.5333 190.413 90C190.413 89.456 190.306 88.9653 190.093 88.528C189.88 88.0853 189.578 87.736 189.189 87.48C188.805 87.2187 188.352 87.088 187.829 87.088C187.301 87.088 186.821 87.2187 186.389 87.48C185.962 87.7413 185.621 88.0933 185.365 88.536C185.109 88.9733 184.981 89.4613 184.981 90C184.981 90.5387 185.112 91.0293 185.373 91.472C185.634 91.9093 185.981 92.2587 186.413 92.52C186.845 92.776 187.317 92.904 187.829 92.904ZM193.788 86H195.132V94H193.788V86ZM194.476 84.696C194.263 84.696 194.084 84.6267 193.94 84.488C193.796 84.3493 193.724 84.176 193.724 83.968C193.724 83.76 193.796 83.5867 193.94 83.448C194.084 83.3093 194.26 83.24 194.468 83.24C194.676 83.24 194.852 83.3093 194.996 83.448C195.14 83.5867 195.212 83.76 195.212 83.968C195.212 84.176 195.14 84.3493 194.996 84.488C194.857 84.6267 194.684 84.696 194.476 84.696ZM204.095 89.024V94H202.751V89.32C202.751 88.9147 202.652 88.5467 202.455 88.216C202.257 87.8853 201.993 87.624 201.663 87.432C201.332 87.2347 200.964 87.136 200.559 87.136C200.159 87.136 199.791 87.2347 199.455 87.432C199.124 87.624 198.86 87.8853 198.663 88.216C198.465 88.5467 198.367 88.9147 198.367 89.32V94H197.023V86H198.367V87C198.649 86.6267 199.007 86.3307 199.439 86.112C199.871 85.888 200.34 85.776 200.847 85.776C201.444 85.776 201.988 85.9227 202.479 86.216C202.975 86.504 203.367 86.8933 203.655 87.384C203.948 87.8747 204.095 88.4213 204.095 89.024ZM211.786 86H213.13V94.256C213.13 94.784 213.015 95.2747 212.786 95.728C212.562 96.1867 212.258 96.584 211.874 96.92C211.49 97.2613 211.053 97.5253 210.562 97.712C210.071 97.904 209.559 98 209.026 98C208.471 98 207.935 97.8747 207.418 97.624C206.901 97.3787 206.447 97.048 206.058 96.632C205.674 96.2213 205.397 95.76 205.226 95.248L206.458 94.688C206.559 95.056 206.741 95.3867 207.002 95.68C207.269 95.9787 207.578 96.2133 207.93 96.384C208.287 96.56 208.653 96.648 209.026 96.648C209.378 96.648 209.717 96.5867 210.042 96.464C210.373 96.3413 210.669 96.1707 210.93 95.952C211.197 95.7387 211.405 95.4853 211.554 95.192C211.709 94.904 211.786 94.592 211.786 94.256V92.664C211.514 93.1227 211.154 93.496 210.706 93.784C210.263 94.0667 209.746 94.208 209.154 94.208C208.589 94.208 208.058 94.0987 207.562 93.88C207.066 93.6613 206.631 93.36 206.258 92.976C205.885 92.5867 205.591 92.1387 205.378 91.632C205.165 91.1253 205.058 90.5813 205.058 90C205.058 89.4187 205.165 88.8747 205.378 88.368C205.591 87.856 205.885 87.408 206.258 87.024C206.631 86.6347 207.066 86.3307 207.562 86.112C208.058 85.8933 208.589 85.784 209.154 85.784C209.746 85.784 210.263 85.9253 210.706 86.208C211.154 86.4907 211.514 86.864 211.786 87.328V86ZM209.162 92.904C209.679 92.904 210.127 92.7707 210.506 92.504C210.89 92.2373 211.186 91.8827 211.394 91.44C211.602 90.9973 211.706 90.5173 211.706 90C211.706 89.4667 211.599 88.9813 211.386 88.544C211.178 88.1013 210.882 87.7493 210.498 87.488C210.119 87.2213 209.674 87.088 209.162 87.088C208.661 87.088 208.202 87.2187 207.786 87.48C207.37 87.7413 207.039 88.0933 206.794 88.536C206.554 88.9733 206.434 89.4613 206.434 90C206.434 90.5387 206.557 91.0293 206.802 91.472C207.053 91.9093 207.383 92.2587 207.794 92.52C208.21 92.776 208.666 92.904 209.162 92.904ZM224.378 86H225.802L221.426 98H220.002L221.45 94L218.578 86H220.049L222.122 92.152L224.378 86ZM230.355 94.208C229.619 94.208 228.947 94.0187 228.339 93.64C227.736 93.2613 227.254 92.7547 226.891 92.12C226.534 91.48 226.355 90.7733 226.355 90C226.355 89.4133 226.459 88.8667 226.667 88.36C226.875 87.848 227.16 87.4 227.523 87.016C227.891 86.6267 228.318 86.3227 228.803 86.104C229.288 85.8853 229.806 85.776 230.355 85.776C231.091 85.776 231.76 85.9653 232.363 86.344C232.971 86.7227 233.454 87.232 233.811 87.872C234.174 88.512 234.355 89.2213 234.355 90C234.355 90.5813 234.251 91.1253 234.043 91.632C233.835 92.1387 233.547 92.5867 233.179 92.976C232.816 93.36 232.392 93.6613 231.907 93.88C231.427 94.0987 230.91 94.208 230.355 94.208ZM230.355 92.864C230.856 92.864 231.307 92.7333 231.707 92.472C232.112 92.2053 232.43 91.856 232.659 91.424C232.894 90.9867 233.011 90.512 233.011 90C233.011 89.4773 232.891 88.9973 232.651 88.56C232.416 88.1227 232.099 87.7733 231.699 87.512C231.299 87.2507 230.851 87.12 230.355 87.12C229.854 87.12 229.403 87.2533 229.003 87.52C228.603 87.7813 228.286 88.1307 228.051 88.568C227.816 89.0053 227.699 89.4827 227.699 90C227.699 90.5333 227.819 91.0187 228.059 91.456C228.299 91.888 228.622 92.232 229.027 92.488C229.432 92.7387 229.875 92.864 230.355 92.864ZM235.249 90.96V86H236.593V90.664C236.593 91.0693 236.692 91.4373 236.889 91.768C237.087 92.0987 237.351 92.3627 237.681 92.56C238.017 92.752 238.385 92.848 238.785 92.848C239.191 92.848 239.556 92.752 239.881 92.56C240.212 92.3627 240.476 92.0987 240.673 91.768C240.871 91.4373 240.969 91.0693 240.969 90.664V86H242.313L242.321 94H240.977L240.969 92.984C240.687 93.3573 240.329 93.656 239.897 93.88C239.465 94.0987 238.999 94.208 238.497 94.208C237.9 94.208 237.353 94.064 236.857 93.776C236.367 93.4827 235.975 93.0907 235.681 92.6C235.393 92.1093 235.249 91.5627 235.249 90.96ZM251.332 94H249.973L247.293 86H248.605L250.669 92.104L252.709 86H254.093L256.141 92.104L258.181 86H259.509L256.829 94H255.461L253.389 87.84L251.332 94ZM260.804 86H262.148V94H260.804V86ZM261.492 84.696C261.278 84.696 261.1 84.6267 260.956 84.488C260.812 84.3493 260.74 84.176 260.74 83.968C260.74 83.76 260.812 83.5867 260.956 83.448C261.1 83.3093 261.276 83.24 261.484 83.24C261.692 83.24 261.868 83.3093 262.012 83.448C262.156 83.5867 262.228 83.76 262.228 83.968C262.228 84.176 262.156 84.3493 262.012 84.488C261.873 84.6267 261.7 84.696 261.492 84.696ZM268.213 87.344H266.397L266.389 94H265.045L265.053 87.344H263.677V86H265.053L265.045 83.488H266.389L266.397 86H268.213V87.344ZM276.72 89.024V94H275.376V89.32C275.376 88.9147 275.277 88.5467 275.08 88.216C274.882 87.8853 274.618 87.624 274.288 87.432C273.957 87.2347 273.589 87.136 273.184 87.136C272.784 87.136 272.416 87.2347 272.08 87.432C271.749 87.624 271.485 87.8853 271.288 88.216C271.09 88.5467 270.992 88.9147 270.992 89.32V94H269.648V82H270.992V87C271.274 86.6267 271.632 86.3307 272.064 86.112C272.496 85.888 272.965 85.776 273.472 85.776C274.069 85.776 274.613 85.9227 275.104 86.216C275.6 86.504 275.992 86.8933 276.28 87.384C276.573 87.8747 276.72 88.4213 276.72 89.024ZM286.307 87.344H284.491L284.483 94H283.139L283.147 87.344H281.771V86H283.147L283.139 83.488H284.483L284.491 86H286.307V87.344ZM294.813 89.024V94H293.469V89.32C293.469 88.9147 293.371 88.5467 293.173 88.216C292.976 87.8853 292.712 87.624 292.381 87.432C292.051 87.2347 291.683 87.136 291.277 87.136C290.877 87.136 290.509 87.2347 290.173 87.432C289.843 87.624 289.579 87.8853 289.381 88.216C289.184 88.5467 289.085 88.9147 289.085 89.32V94H287.741V82H289.085V87C289.368 86.6267 289.725 86.3307 290.157 86.112C290.589 85.888 291.059 85.776 291.565 85.776C292.163 85.776 292.707 85.9227 293.197 86.216C293.693 86.504 294.085 86.8933 294.373 87.384C294.667 87.8747 294.813 88.4213 294.813 89.024ZM299.777 94.208C299.041 94.208 298.369 94.0187 297.761 93.64C297.158 93.2613 296.676 92.7547 296.313 92.12C295.956 91.48 295.777 90.7733 295.777 90C295.777 89.4133 295.881 88.8667 296.089 88.36C296.297 87.848 296.582 87.4 296.945 87.016C297.313 86.6267 297.74 86.3227 298.225 86.104C298.71 85.8853 299.228 85.776 299.777 85.776C300.38 85.776 300.932 85.8987 301.433 86.144C301.94 86.384 302.372 86.72 302.729 87.152C303.092 87.584 303.361 88.0853 303.537 88.656C303.718 89.2267 303.785 89.8373 303.737 90.488H297.209C297.273 90.9413 297.422 91.3467 297.657 91.704C297.892 92.056 298.19 92.336 298.553 92.544C298.921 92.752 299.329 92.8587 299.777 92.864C300.257 92.864 300.692 92.7413 301.081 92.496C301.47 92.2453 301.785 91.904 302.025 91.472L303.393 91.792C303.073 92.5013 302.59 93.0827 301.945 93.536C301.3 93.984 300.577 94.208 299.777 94.208ZM297.169 89.432H302.385C302.342 88.984 302.198 88.576 301.953 88.208C301.708 87.8347 301.396 87.536 301.017 87.312C300.638 87.088 300.225 86.976 299.777 86.976C299.329 86.976 298.918 87.0853 298.545 87.304C298.172 87.5227 297.862 87.8187 297.617 88.192C297.377 88.56 297.228 88.9733 297.169 89.432ZM8.532 113.024V118H7.188V113.32C7.188 112.915 7.08933 112.547 6.892 112.216C6.69467 111.885 6.43067 111.624 6.1 111.432C5.76933 111.235 5.40133 111.136 4.996 111.136C4.596 111.136 4.228 111.235 3.892 111.432C3.56133 111.624 3.29733 111.885 3.1 112.216C2.90267 112.547 2.804 112.915 2.804 113.32V118H1.46V106H2.804V111C3.08667 110.627 3.444 110.331 3.876 110.112C4.308 109.888 4.77733 109.776 5.284 109.776C5.88133 109.776 6.42533 109.923 6.916 110.216C7.412 110.504 7.804 110.893 8.092 111.384C8.38533 111.875 8.532 112.421 8.532 113.024ZM10.1319 110H11.4759V118H10.1319V110ZM10.8199 108.696C10.6065 108.696 10.4279 108.627 10.2839 108.488C10.1399 108.349 10.0679 108.176 10.0679 107.968C10.0679 107.76 10.1399 107.587 10.2839 107.448C10.4279 107.309 10.6039 107.24 10.8119 107.24C11.0199 107.24 11.1959 107.309 11.3399 107.448C11.4839 107.587 11.5559 107.76 11.5559 107.968C11.5559 108.176 11.4839 108.349 11.3399 108.488C11.2012 108.627 11.0279 108.696 10.8199 108.696ZM19.5361 110H20.8801V118.256C20.8801 118.784 20.7655 119.275 20.5361 119.728C20.3121 120.187 20.0081 120.584 19.6241 120.92C19.2401 121.261 18.8028 121.525 18.3121 121.712C17.8215 121.904 17.3095 122 16.7761 122C16.2215 122 15.6855 121.875 15.1681 121.624C14.6508 121.379 14.1975 121.048 13.8081 120.632C13.4241 120.221 13.1468 119.76 12.9761 119.248L14.2081 118.688C14.3095 119.056 14.4908 119.387 14.7521 119.68C15.0188 119.979 15.3281 120.213 15.6801 120.384C16.0375 120.56 16.4028 120.648 16.7761 120.648C17.1281 120.648 17.4668 120.587 17.7921 120.464C18.1228 120.341 18.4188 120.171 18.6801 119.952C18.9468 119.739 19.1548 119.485 19.3041 119.192C19.4588 118.904 19.5361 118.592 19.5361 118.256V116.664C19.2641 117.123 18.9041 117.496 18.4561 117.784C18.0135 118.067 17.4961 118.208 16.9041 118.208C16.3388 118.208 15.8081 118.099 15.3121 117.88C14.8161 117.661 14.3815 117.36 14.0081 116.976C13.6348 116.587 13.3415 116.139 13.1281 115.632C12.9148 115.125 12.8081 114.581 12.8081 114C12.8081 113.419 12.9148 112.875 13.1281 112.368C13.3415 111.856 13.6348 111.408 14.0081 111.024C14.3815 110.635 14.8161 110.331 15.3121 110.112C15.8081 109.893 16.3388 109.784 16.9041 109.784C17.4961 109.784 18.0135 109.925 18.4561 110.208C18.9041 110.491 19.2641 110.864 19.5361 111.328V110ZM16.9121 116.904C17.4295 116.904 17.8775 116.771 18.2561 116.504C18.6401 116.237 18.9361 115.883 19.1441 115.44C19.3521 114.997 19.4561 114.517 19.4561 114C19.4561 113.467 19.3495 112.981 19.1361 112.544C18.9281 112.101 18.6321 111.749 18.2481 111.488C17.8695 111.221 17.4241 111.088 16.9121 111.088C16.4108 111.088 15.9521 111.219 15.5361 111.48C15.1201 111.741 14.7895 112.093 14.5441 112.536C14.3041 112.973 14.1841 113.461 14.1841 114C14.1841 114.539 14.3068 115.029 14.5521 115.472C14.8028 115.909 15.1335 116.259 15.5441 116.52C15.9601 116.776 16.4161 116.904 16.9121 116.904ZM29.8758 113.024V118H28.5318V113.32C28.5318 112.915 28.4331 112.547 28.2358 112.216C28.0384 111.885 27.7744 111.624 27.4438 111.432C27.1131 111.235 26.7451 111.136 26.3398 111.136C25.9398 111.136 25.5718 111.235 25.2358 111.432C24.9051 111.624 24.6411 111.885 24.4438 112.216C24.2464 112.547 24.1478 112.915 24.1478 113.32V118H22.8038V106H24.1478V111C24.4304 110.627 24.7878 110.331 25.2198 110.112C25.6518 109.888 26.1211 109.776 26.6278 109.776C27.2251 109.776 27.7691 109.923 28.2598 110.216C28.7558 110.504 29.1478 110.893 29.4358 111.384C29.7291 111.875 29.8758 112.421 29.8758 113.024ZM34.8394 118.208C34.1034 118.208 33.4314 118.019 32.8234 117.64C32.2207 117.261 31.738 116.755 31.3754 116.12C31.018 115.48 30.8394 114.773 30.8394 114C30.8394 113.413 30.9434 112.867 31.1514 112.36C31.3594 111.848 31.6447 111.4 32.0074 111.016C32.3754 110.627 32.802 110.323 33.2874 110.104C33.7727 109.885 34.29 109.776 34.8394 109.776C35.442 109.776 35.994 109.899 36.4954 110.144C37.002 110.384 37.434 110.72 37.7914 111.152C38.154 111.584 38.4234 112.085 38.5994 112.656C38.7807 113.227 38.8474 113.837 38.7994 114.488H32.2714C32.3354 114.941 32.4847 115.347 32.7194 115.704C32.954 116.056 33.2527 116.336 33.6154 116.544C33.9834 116.752 34.3914 116.859 34.8394 116.864C35.3194 116.864 35.754 116.741 36.1434 116.496C36.5327 116.245 36.8474 115.904 37.0874 115.472L38.4554 115.792C38.1354 116.501 37.6527 117.083 37.0074 117.536C36.362 117.984 35.6394 118.208 34.8394 118.208ZM32.2314 113.432H37.4474C37.4047 112.984 37.2607 112.576 37.0154 112.208C36.77 111.835 36.458 111.536 36.0794 111.312C35.7007 111.088 35.2874 110.976 34.8394 110.976C34.3914 110.976 33.9807 111.085 33.6074 111.304C33.234 111.523 32.9247 111.819 32.6794 112.192C32.4394 112.56 32.29 112.973 32.2314 113.432ZM42.6188 118.152C42.1868 118.136 41.7654 118.056 41.3548 117.912C40.9494 117.763 40.5921 117.563 40.2828 117.312C39.9788 117.056 39.7574 116.763 39.6188 116.432L40.7708 115.936C40.8508 116.117 40.9948 116.288 41.2028 116.448C41.4108 116.608 41.6508 116.736 41.9228 116.832C42.1948 116.928 42.4694 116.976 42.7468 116.976C43.0401 116.976 43.3148 116.931 43.5708 116.84C43.8268 116.749 44.0348 116.616 44.1948 116.44C44.3601 116.259 44.4428 116.043 44.4428 115.792C44.4428 115.525 44.3521 115.317 44.1708 115.168C43.9948 115.013 43.7708 114.893 43.4988 114.808C43.2321 114.717 42.9601 114.632 42.6828 114.552C42.1334 114.413 41.6428 114.248 41.2108 114.056C40.7788 113.859 40.4374 113.611 40.1868 113.312C39.9414 113.008 39.8188 112.621 39.8188 112.152C39.8188 111.656 39.9548 111.227 40.2268 110.864C40.5041 110.501 40.8668 110.221 41.3148 110.024C41.7628 109.827 42.2428 109.728 42.7548 109.728C43.4001 109.728 43.9894 109.867 44.5228 110.144C45.0561 110.421 45.4534 110.797 45.7148 111.272L44.6348 111.904C44.5441 111.712 44.4054 111.544 44.2188 111.4C44.0321 111.251 43.8188 111.133 43.5788 111.048C43.3388 110.963 43.0934 110.917 42.8428 110.912C42.5334 110.901 42.2428 110.941 41.9708 111.032C41.7041 111.123 41.4881 111.261 41.3228 111.448C41.1628 111.629 41.0828 111.856 41.0828 112.128C41.0828 112.395 41.1681 112.597 41.3388 112.736C41.5148 112.875 41.7414 112.987 42.0188 113.072C42.3014 113.152 42.6081 113.245 42.9388 113.352C43.4241 113.507 43.8774 113.685 44.2988 113.888C44.7201 114.091 45.0588 114.344 45.3148 114.648C45.5761 114.952 45.7041 115.328 45.6988 115.776C45.6988 116.267 45.5521 116.696 45.2588 117.064C44.9654 117.427 44.5841 117.704 44.1148 117.896C43.6508 118.088 43.1521 118.173 42.6188 118.152ZM51.2134 111.344H49.3974L49.3894 118H48.0454L48.0534 111.344H46.6774V110H48.0534L48.0454 107.488H49.3894L49.3974 110H51.2134V111.344ZM56.4913 118V106H57.8353V118H56.4913ZM63.1988 118.208C62.4628 118.208 61.7908 118.019 61.1828 117.64C60.5801 117.261 60.0974 116.755 59.7348 116.12C59.3774 115.48 59.1988 114.773 59.1988 114C59.1988 113.413 59.3028 112.867 59.5108 112.36C59.7188 111.848 60.0041 111.4 60.3668 111.016C60.7348 110.627 61.1614 110.323 61.6468 110.104C62.1321 109.885 62.6494 109.776 63.1988 109.776C63.8014 109.776 64.3534 109.899 64.8548 110.144C65.3614 110.384 65.7934 110.72 66.1508 111.152C66.5134 111.584 66.7828 112.085 66.9588 112.656C67.1401 113.227 67.2068 113.837 67.1588 114.488H60.6308C60.6948 114.941 60.8441 115.347 61.0788 115.704C61.3134 116.056 61.6121 116.336 61.9748 116.544C62.3428 116.752 62.7508 116.859 63.1988 116.864C63.6788 116.864 64.1134 116.741 64.5028 116.496C64.8921 116.245 65.2068 115.904 65.4468 115.472L66.8148 115.792C66.4948 116.501 66.0121 117.083 65.3668 117.536C64.7214 117.984 63.9988 118.208 63.1988 118.208ZM60.5908 113.432H65.8068C65.7641 112.984 65.6201 112.576 65.3748 112.208C65.1294 111.835 64.8174 111.536 64.4388 111.312C64.0601 111.088 63.6468 110.976 63.1988 110.976C62.7508 110.976 62.3401 111.085 61.9668 111.304C61.5934 111.523 61.2841 111.819 61.0388 112.192C60.7988 112.56 60.6494 112.973 60.5908 113.432ZM72.3075 118H70.5875L67.6675 109.984H69.0995L71.4435 116.44L73.7875 109.984H75.2195L72.3075 118ZM79.7144 118.208C78.9784 118.208 78.3064 118.019 77.6984 117.64C77.0957 117.261 76.613 116.755 76.2504 116.12C75.893 115.48 75.7144 114.773 75.7144 114C75.7144 113.413 75.8184 112.867 76.0264 112.36C76.2344 111.848 76.5197 111.4 76.8824 111.016C77.2504 110.627 77.677 110.323 78.1624 110.104C78.6477 109.885 79.165 109.776 79.7144 109.776C80.317 109.776 80.869 109.899 81.3704 110.144C81.877 110.384 82.309 110.72 82.6664 111.152C83.029 111.584 83.2984 112.085 83.4744 112.656C83.6557 113.227 83.7224 113.837 83.6744 114.488H77.1464C77.2104 114.941 77.3597 115.347 77.5944 115.704C77.829 116.056 78.1277 116.336 78.4904 116.544C78.8584 116.752 79.2664 116.859 79.7144 116.864C80.1944 116.864 80.629 116.741 81.0184 116.496C81.4077 116.245 81.7224 115.904 81.9624 115.472L83.3304 115.792C83.0104 116.501 82.5277 117.083 81.8824 117.536C81.237 117.984 80.5144 118.208 79.7144 118.208ZM77.1064 113.432H82.3224C82.2797 112.984 82.1357 112.576 81.8904 112.208C81.645 111.835 81.333 111.536 80.9544 111.312C80.5757 111.088 80.1624 110.976 79.7144 110.976C79.2664 110.976 78.8557 111.085 78.4824 111.304C78.109 111.523 77.7997 111.819 77.5544 112.192C77.3144 112.56 77.165 112.973 77.1064 113.432ZM84.9444 118V106H86.2884V118H84.9444ZM95.5738 118.208C94.8378 118.208 94.1658 118.019 93.5578 117.64C92.9551 117.261 92.4724 116.755 92.1098 116.12C91.7524 115.48 91.5738 114.773 91.5738 114C91.5738 113.413 91.6778 112.867 91.8858 112.36C92.0938 111.848 92.3791 111.4 92.7418 111.016C93.1098 110.627 93.5364 110.323 94.0218 110.104C94.5071 109.885 95.0244 109.776 95.5738 109.776C96.3098 109.776 96.9791 109.965 97.5818 110.344C98.1898 110.723 98.6724 111.232 99.0298 111.872C99.3924 112.512 99.5738 113.221 99.5738 114C99.5738 114.581 99.4698 115.125 99.2618 115.632C99.0538 116.139 98.7658 116.587 98.3978 116.976C98.0351 117.36 97.6111 117.661 97.1258 117.88C96.6458 118.099 96.1284 118.208 95.5738 118.208ZM95.5738 116.864C96.0751 116.864 96.5258 116.733 96.9258 116.472C97.3311 116.205 97.6484 115.856 97.8778 115.424C98.1124 114.987 98.2298 114.512 98.2298 114C98.2298 113.477 98.1098 112.997 97.8698 112.56C97.6351 112.123 97.3178 111.773 96.9178 111.512C96.5178 111.251 96.0698 111.12 95.5738 111.12C95.0724 111.12 94.6218 111.253 94.2218 111.52C93.8218 111.781 93.5044 112.131 93.2698 112.568C93.0351 113.005 92.9178 113.483 92.9178 114C92.9178 114.533 93.0378 115.019 93.2778 115.456C93.5178 115.888 93.8404 116.232 94.2458 116.488C94.6511 116.739 95.0938 116.864 95.5738 116.864ZM102.823 108.024V110H105.167V111.344H102.823V118H101.479V111.344H100.447V110H101.479V108.024C101.479 107.613 101.578 107.243 101.775 106.912C101.978 106.576 102.247 106.309 102.583 106.112C102.924 105.909 103.298 105.808 103.703 105.808C104.002 105.808 104.292 105.869 104.575 105.992C104.858 106.109 105.108 106.285 105.327 106.52L104.367 107.472C104.292 107.371 104.194 107.293 104.071 107.24C103.954 107.181 103.831 107.152 103.703 107.152C103.463 107.152 103.255 107.237 103.079 107.408C102.908 107.579 102.823 107.784 102.823 108.024ZM112.759 118.152C112.327 118.136 111.906 118.056 111.495 117.912C111.09 117.763 110.733 117.563 110.423 117.312C110.119 117.056 109.898 116.763 109.759 116.432L110.911 115.936C110.991 116.117 111.135 116.288 111.343 116.448C111.551 116.608 111.791 116.736 112.063 116.832C112.335 116.928 112.61 116.976 112.887 116.976C113.181 116.976 113.455 116.931 113.711 116.84C113.967 116.749 114.175 116.616 114.335 116.44C114.501 116.259 114.583 116.043 114.583 115.792C114.583 115.525 114.493 115.317 114.311 115.168C114.135 115.013 113.911 114.893 113.639 114.808C113.373 114.717 113.101 114.632 112.823 114.552C112.274 114.413 111.783 114.248 111.351 114.056C110.919 113.859 110.578 113.611 110.327 113.312C110.082 113.008 109.959 112.621 109.959 112.152C109.959 111.656 110.095 111.227 110.367 110.864C110.645 110.501 111.007 110.221 111.455 110.024C111.903 109.827 112.383 109.728 112.895 109.728C113.541 109.728 114.13 109.867 114.663 110.144C115.197 110.421 115.594 110.797 115.855 111.272L114.775 111.904C114.685 111.712 114.546 111.544 114.359 111.4C114.173 111.251 113.959 111.133 113.719 111.048C113.479 110.963 113.234 110.917 112.983 110.912C112.674 110.901 112.383 110.941 112.111 111.032C111.845 111.123 111.629 111.261 111.463 111.448C111.303 111.629 111.223 111.856 111.223 112.128C111.223 112.395 111.309 112.597 111.479 112.736C111.655 112.875 111.882 112.987 112.159 113.072C112.442 113.152 112.749 113.245 113.079 113.352C113.565 113.507 114.018 113.685 114.439 113.888C114.861 114.091 115.199 114.344 115.455 114.648C115.717 114.952 115.845 115.328 115.839 115.776C115.839 116.267 115.693 116.696 115.399 117.064C115.106 117.427 114.725 117.704 114.255 117.896C113.791 118.088 113.293 118.173 112.759 118.152ZM120.652 118.208C119.916 118.208 119.244 118.019 118.636 117.64C118.033 117.261 117.551 116.755 117.188 116.12C116.831 115.48 116.652 114.773 116.652 114C116.652 113.413 116.756 112.867 116.964 112.36C117.172 111.848 117.457 111.4 117.82 111.016C118.188 110.627 118.615 110.323 119.1 110.104C119.585 109.885 120.103 109.776 120.652 109.776C121.255 109.776 121.807 109.899 122.308 110.144C122.815 110.384 123.247 110.72 123.604 111.152C123.967 111.584 124.236 112.085 124.412 112.656C124.593 113.227 124.66 113.837 124.612 114.488H118.084C118.148 114.941 118.297 115.347 118.532 115.704C118.767 116.056 119.065 116.336 119.428 116.544C119.796 116.752 120.204 116.859 120.652 116.864C121.132 116.864 121.567 116.741 121.956 116.496C122.345 116.245 122.66 115.904 122.9 115.472L124.268 115.792C123.948 116.501 123.465 117.083 122.82 117.536C122.175 117.984 121.452 118.208 120.652 118.208ZM118.044 113.432H123.26C123.217 112.984 123.073 112.576 122.828 112.208C122.583 111.835 122.271 111.536 121.892 111.312C121.513 111.088 121.1 110.976 120.652 110.976C120.204 110.976 119.793 111.085 119.42 111.304C119.047 111.523 118.737 111.819 118.492 112.192C118.252 112.56 118.103 112.973 118.044 113.432ZM125.96 118V110H127.304V111C127.587 110.627 127.944 110.331 128.376 110.112C128.808 109.888 129.277 109.776 129.784 109.776C130.093 109.776 130.392 109.816 130.68 109.896L130.136 111.24C129.917 111.171 129.704 111.136 129.496 111.136C129.096 111.136 128.728 111.235 128.392 111.432C128.061 111.624 127.797 111.885 127.6 112.216C127.403 112.547 127.304 112.915 127.304 113.32V118H125.96ZM135.964 118H134.244L131.324 109.984H132.756L135.1 116.44L137.444 109.984H138.876L135.964 118ZM140.179 110H141.523V118H140.179V110ZM140.867 108.696C140.653 108.696 140.475 108.627 140.331 108.488C140.187 108.349 140.115 108.176 140.115 107.968C140.115 107.76 140.187 107.587 140.331 107.448C140.475 107.309 140.651 107.24 140.859 107.24C141.067 107.24 141.243 107.309 141.387 107.448C141.531 107.587 141.603 107.76 141.603 107.968C141.603 108.176 141.531 108.349 141.387 108.488C141.248 108.627 141.075 108.696 140.867 108.696ZM148.847 115.888L150.047 116.536C149.684 117.043 149.223 117.448 148.663 117.752C148.108 118.056 147.506 118.208 146.855 118.208C146.119 118.208 145.447 118.019 144.839 117.64C144.236 117.261 143.754 116.755 143.391 116.12C143.034 115.48 142.855 114.773 142.855 114C142.855 113.413 142.959 112.867 143.167 112.36C143.375 111.848 143.66 111.4 144.023 111.016C144.391 110.627 144.818 110.323 145.303 110.104C145.788 109.885 146.306 109.776 146.855 109.776C147.506 109.776 148.108 109.928 148.663 110.232C149.223 110.536 149.684 110.944 150.047 111.456L148.847 112.104C148.591 111.789 148.287 111.547 147.935 111.376C147.583 111.205 147.223 111.12 146.855 111.12C146.359 111.12 145.908 111.253 145.503 111.52C145.103 111.781 144.786 112.131 144.551 112.568C144.316 113.005 144.199 113.483 144.199 114C144.199 114.517 144.316 114.995 144.551 115.432C144.791 115.864 145.111 116.211 145.511 116.472C145.916 116.733 146.364 116.864 146.855 116.864C147.25 116.864 147.62 116.773 147.967 116.592C148.314 116.411 148.607 116.176 148.847 115.888ZM154.871 118.208C154.135 118.208 153.463 118.019 152.855 117.64C152.252 117.261 151.769 116.755 151.407 116.12C151.049 115.48 150.871 114.773 150.871 114C150.871 113.413 150.975 112.867 151.183 112.36C151.391 111.848 151.676 111.4 152.039 111.016C152.407 110.627 152.833 110.323 153.319 110.104C153.804 109.885 154.321 109.776 154.871 109.776C155.473 109.776 156.025 109.899 156.527 110.144C157.033 110.384 157.465 110.72 157.823 111.152C158.185 111.584 158.455 112.085 158.631 112.656C158.812 113.227 158.879 113.837 158.831 114.488H152.303C152.367 114.941 152.516 115.347 152.751 115.704C152.985 116.056 153.284 116.336 153.647 116.544C154.015 116.752 154.423 116.859 154.871 116.864C155.351 116.864 155.785 116.741 156.175 116.496C156.564 116.245 156.879 115.904 157.119 115.472L158.487 115.792C158.167 116.501 157.684 117.083 157.039 117.536C156.393 117.984 155.671 118.208 154.871 118.208ZM152.263 113.432H157.479C157.436 112.984 157.292 112.576 157.047 112.208C156.801 111.835 156.489 111.536 156.111 111.312C155.732 111.088 155.319 110.976 154.871 110.976C154.423 110.976 154.012 111.085 153.639 111.304C153.265 111.523 152.956 111.819 152.711 112.192C152.471 112.56 152.321 112.973 152.263 113.432ZM159.812 118.896L160.308 116.192H161.652L160.708 118.896H159.812ZM168.757 122H167.413V110H168.757V111.368C169.029 110.899 169.392 110.52 169.845 110.232C170.298 109.939 170.837 109.792 171.461 109.792C172.042 109.792 172.586 109.901 173.093 110.12C173.605 110.339 174.053 110.643 174.437 111.032C174.821 111.416 175.122 111.861 175.341 112.368C175.56 112.875 175.669 113.419 175.669 114C175.669 114.581 175.56 115.128 175.341 115.64C175.122 116.152 174.821 116.603 174.437 116.992C174.053 117.376 173.605 117.677 173.093 117.896C172.586 118.115 172.042 118.224 171.461 118.224C170.837 118.224 170.298 118.08 169.845 117.792C169.392 117.499 169.029 117.117 168.757 116.648V122ZM171.445 111.096C170.928 111.096 170.474 111.227 170.085 111.488C169.696 111.749 169.394 112.099 169.181 112.536C168.973 112.973 168.869 113.461 168.869 114C168.869 114.533 168.973 115.021 169.181 115.464C169.394 115.907 169.693 116.259 170.077 116.52C170.466 116.781 170.922 116.912 171.445 116.912C171.962 116.912 172.437 116.784 172.869 116.528C173.301 116.267 173.648 115.917 173.909 115.48C174.17 115.037 174.301 114.544 174.301 114C174.301 113.467 174.173 112.981 173.917 112.544C173.661 112.101 173.317 111.749 172.885 111.488C172.453 111.227 171.973 111.096 171.445 111.096ZM177.007 118V110H178.351V111C178.634 110.627 178.991 110.331 179.423 110.112C179.855 109.888 180.324 109.776 180.831 109.776C181.14 109.776 181.439 109.816 181.727 109.896L181.183 111.24C180.964 111.171 180.751 111.136 180.543 111.136C180.143 111.136 179.775 111.235 179.439 111.432C179.108 111.624 178.844 111.885 178.647 112.216C178.45 112.547 178.351 112.915 178.351 113.32V118H177.007ZM185.824 118.208C185.088 118.208 184.416 118.019 183.808 117.64C183.205 117.261 182.722 116.755 182.36 116.12C182.002 115.48 181.824 114.773 181.824 114C181.824 113.413 181.928 112.867 182.136 112.36C182.344 111.848 182.629 111.4 182.992 111.016C183.36 110.627 183.786 110.323 184.272 110.104C184.757 109.885 185.274 109.776 185.824 109.776C186.56 109.776 187.229 109.965 187.832 110.344C188.44 110.723 188.922 111.232 189.28 111.872C189.642 112.512 189.824 113.221 189.824 114C189.824 114.581 189.72 115.125 189.512 115.632C189.304 116.139 189.016 116.587 188.648 116.976C188.285 117.36 187.861 117.661 187.376 117.88C186.896 118.099 186.378 118.208 185.824 118.208ZM185.824 116.864C186.325 116.864 186.776 116.733 187.176 116.472C187.581 116.205 187.898 115.856 188.128 115.424C188.362 114.987 188.48 114.512 188.48 114C188.48 113.477 188.36 112.997 188.12 112.56C187.885 112.123 187.568 111.773 187.168 111.512C186.768 111.251 186.32 111.12 185.824 111.12C185.322 111.12 184.872 111.253 184.472 111.52C184.072 111.781 183.754 112.131 183.52 112.568C183.285 113.005 183.168 113.483 183.168 114C183.168 114.533 183.288 115.019 183.528 115.456C183.768 115.888 184.09 116.232 184.496 116.488C184.901 116.739 185.344 116.864 185.824 116.864ZM193.073 108.024V110H195.417V111.344H193.073V118H191.729V111.344H190.697V110H191.729V108.024C191.729 107.613 191.828 107.243 192.025 106.912C192.228 106.576 192.497 106.309 192.833 106.112C193.174 105.909 193.548 105.808 193.953 105.808C194.252 105.808 194.542 105.869 194.825 105.992C195.108 106.109 195.358 106.285 195.577 106.52L194.617 107.472C194.542 107.371 194.444 107.293 194.321 107.24C194.204 107.181 194.081 107.152 193.953 107.152C193.713 107.152 193.505 107.237 193.329 107.408C193.158 107.579 193.073 107.784 193.073 108.024ZM200.058 118.208C199.322 118.208 198.65 118.019 198.042 117.64C197.439 117.261 196.957 116.755 196.594 116.12C196.237 115.48 196.058 114.773 196.058 114C196.058 113.413 196.162 112.867 196.37 112.36C196.578 111.848 196.863 111.4 197.226 111.016C197.594 110.627 198.021 110.323 198.506 110.104C198.991 109.885 199.509 109.776 200.058 109.776C200.661 109.776 201.213 109.899 201.714 110.144C202.221 110.384 202.653 110.72 203.01 111.152C203.373 111.584 203.642 112.085 203.818 112.656C203.999 113.227 204.066 113.837 204.018 114.488H197.49C197.554 114.941 197.703 115.347 197.938 115.704C198.173 116.056 198.471 116.336 198.834 116.544C199.202 116.752 199.61 116.859 200.058 116.864C200.538 116.864 200.973 116.741 201.362 116.496C201.751 116.245 202.066 115.904 202.306 115.472L203.674 115.792C203.354 116.501 202.871 117.083 202.226 117.536C201.581 117.984 200.858 118.208 200.058 118.208ZM197.45 113.432H202.666C202.623 112.984 202.479 112.576 202.234 112.208C201.989 111.835 201.677 111.536 201.298 111.312C200.919 111.088 200.506 110.976 200.058 110.976C199.61 110.976 199.199 111.085 198.826 111.304C198.453 111.523 198.143 111.819 197.898 112.192C197.658 112.56 197.509 112.973 197.45 113.432ZM207.838 118.152C207.406 118.136 206.984 118.056 206.574 117.912C206.168 117.763 205.811 117.563 205.502 117.312C205.198 117.056 204.976 116.763 204.838 116.432L205.99 115.936C206.07 116.117 206.214 116.288 206.422 116.448C206.63 116.608 206.87 116.736 207.142 116.832C207.414 116.928 207.688 116.976 207.966 116.976C208.259 116.976 208.534 116.931 208.79 116.84C209.046 116.749 209.254 116.616 209.414 116.44C209.579 116.259 209.662 116.043 209.662 115.792C209.662 115.525 209.571 115.317 209.39 115.168C209.214 115.013 208.99 114.893 208.718 114.808C208.451 114.717 208.179 114.632 207.902 114.552C207.352 114.413 206.862 114.248 206.43 114.056C205.998 113.859 205.656 113.611 205.406 113.312C205.16 113.008 205.038 112.621 205.038 112.152C205.038 111.656 205.174 111.227 205.446 110.864C205.723 110.501 206.086 110.221 206.534 110.024C206.982 109.827 207.462 109.728 207.974 109.728C208.619 109.728 209.208 109.867 209.742 110.144C210.275 110.421 210.672 110.797 210.934 111.272L209.854 111.904C209.763 111.712 209.624 111.544 209.438 111.4C209.251 111.251 209.038 111.133 208.798 111.048C208.558 110.963 208.312 110.917 208.062 110.912C207.752 110.901 207.462 110.941 207.19 111.032C206.923 111.123 206.707 111.261 206.542 111.448C206.382 111.629 206.302 111.856 206.302 112.128C206.302 112.395 206.387 112.597 206.558 112.736C206.734 112.875 206.96 112.987 207.238 113.072C207.52 113.152 207.827 113.245 208.158 113.352C208.643 113.507 209.096 113.685 209.518 113.888C209.939 114.091 210.278 114.344 210.534 114.648C210.795 114.952 210.923 115.328 210.918 115.776C210.918 116.267 210.771 116.696 210.478 117.064C210.184 117.427 209.803 117.704 209.334 117.896C208.87 118.088 208.371 118.173 207.838 118.152ZM214.728 118.152C214.296 118.136 213.875 118.056 213.464 117.912C213.059 117.763 212.701 117.563 212.392 117.312C212.088 117.056 211.867 116.763 211.728 116.432L212.88 115.936C212.96 116.117 213.104 116.288 213.312 116.448C213.52 116.608 213.76 116.736 214.032 116.832C214.304 116.928 214.579 116.976 214.856 116.976C215.149 116.976 215.424 116.931 215.68 116.84C215.936 116.749 216.144 116.616 216.304 116.44C216.469 116.259 216.552 116.043 216.552 115.792C216.552 115.525 216.461 115.317 216.28 115.168C216.104 115.013 215.88 114.893 215.608 114.808C215.341 114.717 215.069 114.632 214.792 114.552C214.243 114.413 213.752 114.248 213.32 114.056C212.888 113.859 212.547 113.611 212.296 113.312C212.051 113.008 211.928 112.621 211.928 112.152C211.928 111.656 212.064 111.227 212.336 110.864C212.613 110.501 212.976 110.221 213.424 110.024C213.872 109.827 214.352 109.728 214.864 109.728C215.509 109.728 216.099 109.867 216.632 110.144C217.165 110.421 217.563 110.797 217.824 111.272L216.744 111.904C216.653 111.712 216.515 111.544 216.328 111.4C216.141 111.251 215.928 111.133 215.688 111.048C215.448 110.963 215.203 110.917 214.952 110.912C214.643 110.901 214.352 110.941 214.08 111.032C213.813 111.123 213.597 111.261 213.432 111.448C213.272 111.629 213.192 111.856 213.192 112.128C213.192 112.395 213.277 112.597 213.448 112.736C213.624 112.875 213.851 112.987 214.128 113.072C214.411 113.152 214.717 113.245 215.048 113.352C215.533 113.507 215.987 113.685 216.408 113.888C216.829 114.091 217.168 114.344 217.424 114.648C217.685 114.952 217.813 115.328 217.808 115.776C217.808 116.267 217.661 116.696 217.368 117.064C217.075 117.427 216.693 117.704 216.224 117.896C215.76 118.088 215.261 118.173 214.728 118.152ZM219.069 110H220.413V118H219.069V110ZM219.757 108.696C219.544 108.696 219.365 108.627 219.221 108.488C219.077 108.349 219.005 108.176 219.005 107.968C219.005 107.76 219.077 107.587 219.221 107.448C219.365 107.309 219.541 107.24 219.749 107.24C219.957 107.24 220.133 107.309 220.277 107.448C220.421 107.587 220.493 107.76 220.493 107.968C220.493 108.176 220.421 108.349 220.277 108.488C220.139 108.627 219.965 108.696 219.757 108.696ZM225.746 118.208C225.01 118.208 224.338 118.019 223.73 117.64C223.127 117.261 222.644 116.755 222.282 116.12C221.924 115.48 221.746 114.773 221.746 114C221.746 113.413 221.85 112.867 222.058 112.36C222.266 111.848 222.551 111.4 222.914 111.016C223.282 110.627 223.708 110.323 224.194 110.104C224.679 109.885 225.196 109.776 225.746 109.776C226.482 109.776 227.151 109.965 227.754 110.344C228.362 110.723 228.844 111.232 229.202 111.872C229.564 112.512 229.746 113.221 229.746 114C229.746 114.581 229.642 115.125 229.434 115.632C229.226 116.139 228.938 116.587 228.57 116.976C228.207 117.36 227.783 117.661 227.298 117.88C226.818 118.099 226.3 118.208 225.746 118.208ZM225.746 116.864C226.247 116.864 226.698 116.733 227.098 116.472C227.503 116.205 227.82 115.856 228.05 115.424C228.284 114.987 228.402 114.512 228.402 114C228.402 113.477 228.282 112.997 228.042 112.56C227.807 112.123 227.49 111.773 227.09 111.512C226.69 111.251 226.242 111.12 225.746 111.12C225.244 111.12 224.794 111.253 224.394 111.52C223.994 111.781 223.676 112.131 223.442 112.568C223.207 113.005 223.09 113.483 223.09 114C223.09 114.533 223.21 115.019 223.45 115.456C223.69 115.888 224.012 116.232 224.418 116.488C224.823 116.739 225.266 116.864 225.746 116.864ZM238.141 113.024V118H236.797V113.32C236.797 112.915 236.699 112.547 236.501 112.216C236.304 111.885 236.04 111.624 235.709 111.432C235.379 111.235 235.011 111.136 234.605 111.136C234.205 111.136 233.837 111.235 233.501 111.432C233.171 111.624 232.907 111.885 232.709 112.216C232.512 112.547 232.413 112.915 232.413 113.32V118H231.069V110H232.413V111C232.696 110.627 233.053 110.331 233.485 110.112C233.917 109.888 234.387 109.776 234.893 109.776C235.491 109.776 236.035 109.923 236.525 110.216C237.021 110.504 237.413 110.893 237.701 111.384C237.995 111.875 238.141 112.421 238.141 113.024ZM246.017 110H247.361V118H246.017L245.961 116.648C245.71 117.112 245.364 117.488 244.921 117.776C244.484 118.064 243.961 118.208 243.353 118.208C242.766 118.208 242.217 118.099 241.705 117.88C241.193 117.656 240.74 117.349 240.345 116.96C239.956 116.565 239.652 116.112 239.433 115.6C239.214 115.088 239.105 114.536 239.105 113.944C239.105 113.373 239.212 112.835 239.425 112.328C239.638 111.821 239.934 111.379 240.313 111C240.697 110.616 241.14 110.317 241.641 110.104C242.142 109.885 242.681 109.776 243.257 109.776C243.886 109.776 244.438 109.925 244.913 110.224C245.388 110.517 245.772 110.899 246.065 111.368L246.017 110ZM243.329 116.904C243.857 116.904 244.313 116.776 244.697 116.52C245.086 116.259 245.385 115.907 245.593 115.464C245.806 115.021 245.913 114.533 245.913 114C245.913 113.456 245.806 112.965 245.593 112.528C245.38 112.085 245.078 111.736 244.689 111.48C244.305 111.219 243.852 111.088 243.329 111.088C242.801 111.088 242.321 111.219 241.889 111.48C241.457 111.741 241.113 112.093 240.857 112.536C240.606 112.973 240.481 113.461 240.481 114C240.481 114.539 240.612 115.029 240.873 115.472C241.134 115.909 241.481 116.259 241.913 116.52C242.345 116.776 242.817 116.904 243.329 116.904ZM249.054 118V106H250.398V118H249.054ZM252.319 110H253.663V118H252.319V110ZM253.007 108.696C252.794 108.696 252.615 108.627 252.471 108.488C252.327 108.349 252.255 108.176 252.255 107.968C252.255 107.76 252.327 107.587 252.471 107.448C252.615 107.309 252.791 107.24 252.999 107.24C253.207 107.24 253.383 107.309 253.527 107.448C253.671 107.587 253.743 107.76 253.743 107.968C253.743 108.176 253.671 108.349 253.527 108.488C253.389 108.627 253.215 108.696 253.007 108.696ZM257.947 118.152C257.515 118.136 257.094 118.056 256.683 117.912C256.278 117.763 255.92 117.563 255.611 117.312C255.307 117.056 255.086 116.763 254.947 116.432L256.099 115.936C256.179 116.117 256.323 116.288 256.531 116.448C256.739 116.608 256.979 116.736 257.251 116.832C257.523 116.928 257.798 116.976 258.075 116.976C258.368 116.976 258.643 116.931 258.899 116.84C259.155 116.749 259.363 116.616 259.523 116.44C259.688 116.259 259.771 116.043 259.771 115.792C259.771 115.525 259.68 115.317 259.499 115.168C259.323 115.013 259.099 114.893 258.827 114.808C258.56 114.717 258.288 114.632 258.011 114.552C257.462 114.413 256.971 114.248 256.539 114.056C256.107 113.859 255.766 113.611 255.515 113.312C255.27 113.008 255.147 112.621 255.147 112.152C255.147 111.656 255.283 111.227 255.555 110.864C255.832 110.501 256.195 110.221 256.643 110.024C257.091 109.827 257.571 109.728 258.083 109.728C258.728 109.728 259.318 109.867 259.851 110.144C260.384 110.421 260.782 110.797 261.043 111.272L259.963 111.904C259.872 111.712 259.734 111.544 259.547 111.4C259.36 111.251 259.147 111.133 258.907 111.048C258.667 110.963 258.422 110.917 258.171 110.912C257.862 110.901 257.571 110.941 257.299 111.032C257.032 111.123 256.816 111.261 256.651 111.448C256.491 111.629 256.411 111.856 256.411 112.128C256.411 112.395 256.496 112.597 256.667 112.736C256.843 112.875 257.07 112.987 257.347 113.072C257.63 113.152 257.936 113.245 258.267 113.352C258.752 113.507 259.206 113.685 259.627 113.888C260.048 114.091 260.387 114.344 260.643 114.648C260.904 114.952 261.032 115.328 261.027 115.776C261.027 116.267 260.88 116.696 260.587 117.064C260.294 117.427 259.912 117.704 259.443 117.896C258.979 118.088 258.48 118.173 257.947 118.152ZM262.398 118V110H263.742V111C264.024 110.627 264.379 110.331 264.806 110.112C265.238 109.888 265.707 109.776 266.214 109.776C266.806 109.776 267.347 109.92 267.838 110.208C268.328 110.496 268.715 110.877 268.998 111.352C269.28 110.877 269.664 110.496 270.15 110.208C270.64 109.92 271.179 109.776 271.766 109.776C272.368 109.776 272.915 109.923 273.406 110.216C273.896 110.504 274.286 110.893 274.574 111.384C274.867 111.875 275.014 112.421 275.014 113.024V118H273.67V113.344C273.67 112.949 273.574 112.584 273.382 112.248C273.19 111.912 272.931 111.643 272.606 111.44C272.28 111.237 271.92 111.136 271.526 111.136C271.131 111.136 270.771 111.232 270.446 111.424C270.12 111.611 269.862 111.872 269.67 112.208C269.478 112.539 269.382 112.917 269.382 113.344V118H268.038V113.344C268.038 112.917 267.942 112.539 267.75 112.208C267.558 111.872 267.296 111.611 266.966 111.424C266.64 111.232 266.28 111.136 265.886 111.136C265.496 111.136 265.136 111.237 264.806 111.44C264.48 111.643 264.222 111.912 264.03 112.248C263.838 112.584 263.742 112.949 263.742 113.344V118H262.398ZM277.024 118.208C276.822 118.208 276.648 118.136 276.504 117.992C276.366 117.848 276.296 117.672 276.296 117.464C276.296 117.267 276.366 117.096 276.504 116.952C276.648 116.808 276.822 116.736 277.024 116.736C277.232 116.736 277.408 116.808 277.552 116.952C277.696 117.096 277.768 117.267 277.768 117.464C277.768 117.672 277.696 117.848 277.552 117.992C277.408 118.136 277.232 118.208 277.024 118.208Z" fill="#999999"></path></svg>