<svg xmlns="http://www.w3.org/2000/svg" width="433" height="114" viewBox="0 0 433 114" fill="none"><path d="M1.86797 22V8H10.558V10.08H3.94797V13.46H9.26797V15.54H3.94797V19.92H10.558V22H1.86797ZM12.7664 22V12H14.8464V13.06C15.1931 12.6467 15.6164 12.32 16.1164 12.08C16.6231 11.84 17.1697 11.72 17.7564 11.72C18.4697 11.72 19.1264 11.8933 19.7264 12.24C20.3264 12.58 20.8031 13.0333 21.1564 13.6C21.5097 13.0333 21.9797 12.58 22.5664 12.24C23.1597 11.8933 23.8131 11.72 24.5264 11.72C25.2664 11.72 25.9397 11.9 26.5464 12.26C27.1531 12.62 27.6364 13.1033 27.9964 13.71C28.3564 14.3167 28.5364 14.99 28.5364 15.73V22H26.4564V16.26C26.4564 15.82 26.3497 15.4167 26.1364 15.05C25.9231 14.6833 25.6364 14.3867 25.2764 14.16C24.9164 13.9333 24.5164 13.82 24.0764 13.82C23.6364 13.82 23.2364 13.9267 22.8764 14.14C22.5164 14.3533 22.2297 14.6433 22.0164 15.01C21.8031 15.3767 21.6964 15.7933 21.6964 16.26V22H19.6164V16.26C19.6164 15.7933 19.5097 15.3767 19.2964 15.01C19.0831 14.6433 18.7931 14.3533 18.4264 14.14C18.0664 13.9267 17.6664 13.82 17.2264 13.82C16.7931 13.82 16.3931 13.9333 16.0264 14.16C15.6664 14.3867 15.3797 14.6833 15.1664 15.05C14.9531 15.4167 14.8464 15.82 14.8464 16.26V22H12.7664ZM38.1245 12H40.2045V22H38.1145L38.0345 20.55C37.7412 21.0633 37.3445 21.4767 36.8445 21.79C36.3445 22.1033 35.7545 22.26 35.0745 22.26C34.3412 22.26 33.6512 22.1233 33.0045 21.85C32.3579 21.57 31.7879 21.1833 31.2945 20.69C30.8079 20.1967 30.4279 19.63 30.1545 18.99C29.8812 18.3433 29.7445 17.65 29.7445 16.91C29.7445 16.1967 29.8779 15.5267 30.1445 14.9C30.4112 14.2667 30.7812 13.7133 31.2545 13.24C31.7279 12.7667 32.2745 12.3967 32.8945 12.13C33.5212 11.8567 34.1912 11.72 34.9045 11.72C35.6312 11.72 36.2712 11.8867 36.8245 12.22C37.3845 12.5467 37.8479 12.9667 38.2145 13.48L38.1245 12ZM35.0245 20.25C35.6112 20.25 36.1245 20.1067 36.5645 19.82C37.0045 19.5267 37.3445 19.1333 37.5845 18.64C37.8312 18.1467 37.9545 17.6 37.9545 17C37.9545 16.3933 37.8312 15.8433 37.5845 15.35C37.3379 14.8567 36.9945 14.4667 36.5545 14.18C36.1212 13.8867 35.6112 13.74 35.0245 13.74C34.4445 13.74 33.9145 13.8867 33.4345 14.18C32.9545 14.4733 32.5745 14.8667 32.2945 15.36C32.0145 15.8533 31.8745 16.4 31.8745 17C31.8745 17.6067 32.0179 18.1567 32.3045 18.65C32.5979 19.1367 32.9812 19.5267 33.4545 19.82C33.9345 20.1067 34.4579 20.25 35.0245 20.25ZM42.2 12H44.28V22H42.2V12ZM43.26 10.55C42.94 10.55 42.6733 10.4467 42.46 10.24C42.2467 10.0333 42.14 9.77333 42.14 9.46C42.14 9.15333 42.2467 8.89667 42.46 8.69C42.6733 8.47667 42.9367 8.37 43.25 8.37C43.5567 8.37 43.8167 8.47667 44.03 8.69C44.2433 8.89667 44.35 9.15333 44.35 9.46C44.35 9.77333 44.2433 10.0333 44.03 10.24C43.8233 10.4467 43.5667 10.55 43.26 10.55ZM46.7117 22V7H48.7917V22H46.7117Z" fill="white"></path><rect x="1.16797" y="46.5" width="431.333" height="67" rx="7.5" fill="#1A1A1A"></rect><rect x="1.16797" y="46.5" width="431.333" height="67" rx="7.5" stroke="#262626"></rect><path d="M21.748 86V73.4H29.479V74.912H23.26V78.494H28.354V80.006H23.26V84.488H29.479V86H21.748ZM39.4071 80.402V86H37.8951V80.735C37.8951 80.279 37.7841 79.865 37.5621 79.493C37.3401 79.121 37.0431 78.827 36.6711 78.611C36.2991 78.389 35.8851 78.278 35.4291 78.278C34.9791 78.278 34.5651 78.389 34.1871 78.611C33.8151 78.827 33.5181 79.121 33.2961 79.493C33.0741 79.865 32.9631 80.279 32.9631 80.735V86H31.4511V77H32.9631V78.125C33.2811 77.705 33.6831 77.372 34.1691 77.126C34.6551 76.874 35.1831 76.748 35.7531 76.748C36.4251 76.748 37.0371 76.913 37.5891 77.243C38.1471 77.567 38.5881 78.005 38.9121 78.557C39.2421 79.109 39.4071 79.724 39.4071 80.402ZM45.869 78.512H43.826L43.817 86H42.305L42.314 78.512H40.766V77H42.314L42.305 74.174H43.817L43.826 77H45.869V78.512ZM51.2138 86.234C50.3858 86.234 49.6298 86.021 48.9458 85.595C48.2678 85.169 47.7248 84.599 47.3168 83.885C46.9148 83.165 46.7138 82.37 46.7138 81.5C46.7138 80.84 46.8308 80.225 47.0648 79.655C47.2988 79.079 47.6198 78.575 48.0278 78.143C48.4418 77.705 48.9218 77.363 49.4678 77.117C50.0138 76.871 50.5958 76.748 51.2138 76.748C51.8918 76.748 52.5128 76.886 53.0768 77.162C53.6468 77.432 54.1328 77.81 54.5348 78.296C54.9428 78.782 55.2458 79.346 55.4438 79.988C55.6478 80.63 55.7228 81.317 55.6688 82.049H48.3248C48.3968 82.559 48.5648 83.015 48.8288 83.417C49.0928 83.813 49.4288 84.128 49.8368 84.362C50.2508 84.596 50.7098 84.716 51.2138 84.722C51.7538 84.722 52.2428 84.584 52.6808 84.308C53.1188 84.026 53.4728 83.642 53.7428 83.156L55.2818 83.516C54.9218 84.314 54.3788 84.968 53.6528 85.478C52.9268 85.982 52.1138 86.234 51.2138 86.234ZM48.2798 80.861H54.1478C54.0998 80.357 53.9378 79.898 53.6618 79.484C53.3858 79.064 53.0348 78.728 52.6088 78.476C52.1828 78.224 51.7178 78.098 51.2138 78.098C50.7098 78.098 50.2478 78.221 49.8278 78.467C49.4078 78.713 49.0598 79.046 48.7838 79.466C48.5138 79.88 48.3458 80.345 48.2798 80.861ZM57.1855 86V77H58.6975V78.125C59.0155 77.705 59.4175 77.372 59.9035 77.126C60.3895 76.874 60.9175 76.748 61.4875 76.748C61.8355 76.748 62.1715 76.793 62.4955 76.883L61.8835 78.395C61.6375 78.317 61.3975 78.278 61.1635 78.278C60.7135 78.278 60.2995 78.389 59.9215 78.611C59.5495 78.827 59.2525 79.121 59.0305 79.493C58.8085 79.865 58.6975 80.279 58.6975 80.735V86H57.1855ZM74.2489 77H75.8509L70.9279 90.5H69.3259L70.9549 86L67.7239 77H69.3799L71.7109 83.921L74.2489 77ZM80.9736 86.234C80.1456 86.234 79.3896 86.021 78.7056 85.595C78.0276 85.169 77.4846 84.599 77.0766 83.885C76.6746 83.165 76.4736 82.37 76.4736 81.5C76.4736 80.84 76.5906 80.225 76.8246 79.655C77.0586 79.079 77.3796 78.575 77.7876 78.143C78.2016 77.705 78.6816 77.363 79.2276 77.117C79.7736 76.871 80.3556 76.748 80.9736 76.748C81.8016 76.748 82.5546 76.961 83.2326 77.387C83.9166 77.813 84.4596 78.386 84.8616 79.106C85.2696 79.826 85.4736 80.624 85.4736 81.5C85.4736 82.154 85.3566 82.766 85.1226 83.336C84.8886 83.906 84.5646 84.41 84.1506 84.848C83.7426 85.28 83.2656 85.619 82.7196 85.865C82.1796 86.111 81.5976 86.234 80.9736 86.234ZM80.9736 84.722C81.5376 84.722 82.0446 84.575 82.4946 84.281C82.9506 83.981 83.3076 83.588 83.5656 83.102C83.8296 82.61 83.9616 82.076 83.9616 81.5C83.9616 80.912 83.8266 80.372 83.5566 79.88C83.2926 79.388 82.9356 78.995 82.4856 78.701C82.0356 78.407 81.5316 78.26 80.9736 78.26C80.4096 78.26 79.9026 78.41 79.4526 78.71C79.0026 79.004 78.6456 79.397 78.3816 79.889C78.1176 80.381 77.9856 80.918 77.9856 81.5C77.9856 82.1 78.1206 82.646 78.3906 83.138C78.6606 83.624 79.0236 84.011 79.4796 84.299C79.9356 84.581 80.4336 84.722 80.9736 84.722ZM86.4798 82.58V77H87.9918V82.247C87.9918 82.703 88.1028 83.117 88.3248 83.489C88.5468 83.861 88.8438 84.158 89.2158 84.38C89.5938 84.596 90.0078 84.704 90.4578 84.704C90.9138 84.704 91.3248 84.596 91.6908 84.38C92.0628 84.158 92.3598 83.861 92.5818 83.489C92.8038 83.117 92.9148 82.703 92.9148 82.247V77H94.4268L94.4358 86H92.9238L92.9148 84.857C92.5968 85.277 92.1948 85.613 91.7088 85.865C91.2228 86.111 90.6978 86.234 90.1338 86.234C89.4618 86.234 88.8468 86.072 88.2888 85.748C87.7368 85.418 87.2958 84.977 86.9658 84.425C86.6418 83.873 86.4798 83.258 86.4798 82.58ZM96.2441 86V77H97.7561V78.125C98.0741 77.705 98.4761 77.372 98.9621 77.126C99.4481 76.874 99.9761 76.748 100.546 76.748C100.894 76.748 101.23 76.793 101.554 76.883L100.942 78.395C100.696 78.317 100.456 78.278 100.222 78.278C99.7721 78.278 99.3581 78.389 98.9801 78.611C98.6081 78.827 98.3111 79.121 98.0891 79.493C97.8671 79.865 97.7561 80.279 97.7561 80.735V86H96.2441ZM107.143 86V73.4H114.874V74.912H108.655V78.494H113.749V80.006H108.655V84.488H114.874V86H107.143ZM116.846 86V77H118.358V78.125C118.676 77.705 119.075 77.372 119.555 77.126C120.041 76.874 120.569 76.748 121.139 76.748C121.805 76.748 122.414 76.91 122.966 77.234C123.518 77.558 123.953 77.987 124.271 78.521C124.589 77.987 125.021 77.558 125.567 77.234C126.119 76.91 126.725 76.748 127.385 76.748C128.063 76.748 128.678 76.913 129.23 77.243C129.782 77.567 130.22 78.005 130.544 78.557C130.874 79.109 131.039 79.724 131.039 80.402V86H129.527V80.762C129.527 80.318 129.419 79.907 129.203 79.529C128.987 79.151 128.696 78.848 128.33 78.62C127.964 78.392 127.559 78.278 127.115 78.278C126.671 78.278 126.266 78.386 125.9 78.602C125.534 78.812 125.243 79.106 125.027 79.484C124.811 79.856 124.703 80.282 124.703 80.762V86H123.191V80.762C123.191 80.282 123.083 79.856 122.867 79.484C122.651 79.106 122.357 78.812 121.985 78.602C121.619 78.386 121.214 78.278 120.77 78.278C120.332 78.278 119.927 78.392 119.555 78.62C119.189 78.848 118.898 79.151 118.682 79.529C118.466 79.907 118.358 80.318 118.358 80.762V86H116.846ZM139.902 77H141.414V86H139.902L139.839 84.479C139.557 85.001 139.167 85.424 138.669 85.748C138.177 86.072 137.589 86.234 136.905 86.234C136.245 86.234 135.627 86.111 135.051 85.865C134.475 85.613 133.965 85.268 133.521 84.83C133.083 84.386 132.741 83.876 132.495 83.3C132.249 82.724 132.126 82.103 132.126 81.437C132.126 80.795 132.246 80.189 132.486 79.619C132.726 79.049 133.059 78.551 133.485 78.125C133.917 77.693 134.415 77.357 134.979 77.117C135.543 76.871 136.149 76.748 136.797 76.748C137.505 76.748 138.126 76.916 138.66 77.252C139.194 77.582 139.626 78.011 139.956 78.539L139.902 77ZM136.878 84.767C137.472 84.767 137.985 84.623 138.417 84.335C138.855 84.041 139.191 83.645 139.425 83.147C139.665 82.649 139.785 82.1 139.785 81.5C139.785 80.888 139.665 80.336 139.425 79.844C139.185 79.346 138.846 78.953 138.408 78.665C137.976 78.371 137.466 78.224 136.878 78.224C136.284 78.224 135.744 78.371 135.258 78.665C134.772 78.959 134.385 79.355 134.097 79.853C133.815 80.345 133.674 80.894 133.674 81.5C133.674 82.106 133.821 82.658 134.115 83.156C134.409 83.648 134.799 84.041 135.285 84.335C135.771 84.623 136.302 84.767 136.878 84.767ZM143.213 77H144.725V86H143.213V77ZM143.987 75.533C143.747 75.533 143.546 75.455 143.384 75.299C143.222 75.143 143.141 74.948 143.141 74.714C143.141 74.48 143.222 74.285 143.384 74.129C143.546 73.973 143.744 73.895 143.978 73.895C144.212 73.895 144.41 73.973 144.572 74.129C144.734 74.285 144.815 74.48 144.815 74.714C144.815 74.948 144.734 75.143 144.572 75.299C144.416 75.455 144.221 75.533 143.987 75.533ZM146.939 86V72.5H148.451V86H146.939Z" fill="#666666"></path></svg>