<svg xmlns="http://www.w3.org/2000/svg" width="312" height="114" viewBox="0 0 312 114" fill="none"><path d="M1.45 22V8H6.27C7.02333 8 7.70333 8.18667 8.31 8.56C8.92333 8.93333 9.41 9.43667 9.77 10.07C10.1367 10.7033 10.32 11.4033 10.32 12.17C10.32 12.95 10.1333 13.6567 9.76 14.29C9.39333 14.9167 8.90333 15.4167 8.29 15.79C7.67667 16.1633 7.00333 16.35 6.27 16.35H3.53V22H1.45ZM3.53 14.27H6.06C6.46 14.27 6.82333 14.17 7.15 13.97C7.48333 13.77 7.74667 13.5033 7.94 13.17C8.14 12.8367 8.24 12.46 8.24 12.04C8.24 11.62 8.14 11.2433 7.94 10.91C7.74667 10.57 7.48333 10.3033 7.15 10.11C6.82333 9.91 6.46 9.81 6.06 9.81H3.53V14.27ZM21.2117 15.73V22H19.1317V16.24C19.1317 15.7933 19.0217 15.3867 18.8017 15.02C18.5884 14.6533 18.2984 14.3633 17.9317 14.15C17.5717 13.93 17.1651 13.82 16.7117 13.82C16.2717 13.82 15.8684 13.93 15.5017 14.15C15.1351 14.3633 14.8417 14.6533 14.6217 15.02C14.4017 15.3867 14.2917 15.7933 14.2917 16.24V22H12.2117V7H14.2917V13.06C14.6384 12.6467 15.0651 12.32 15.5717 12.08C16.0784 11.84 16.6251 11.72 17.2117 11.72C17.9517 11.72 18.6251 11.9 19.2317 12.26C19.8384 12.62 20.3184 13.1033 20.6717 13.71C21.0317 14.3167 21.2117 14.99 21.2117 15.73ZM27.4125 22.26C26.4925 22.26 25.6525 22.0233 24.8925 21.55C24.1392 21.0767 23.5358 20.4433 23.0825 19.65C22.6358 18.85 22.4125 17.9667 22.4125 17C22.4125 16.2667 22.5425 15.5833 22.8025 14.95C23.0625 14.31 23.4192 13.75 23.8725 13.27C24.3325 12.7833 24.8658 12.4033 25.4725 12.13C26.0792 11.8567 26.7258 11.72 27.4125 11.72C28.3325 11.72 29.1692 11.9567 29.9225 12.43C30.6825 12.9033 31.2858 13.54 31.7325 14.34C32.1858 15.14 32.4125 16.0267 32.4125 17C32.4125 17.7267 32.2825 18.4067 32.0225 19.04C31.7625 19.6733 31.4025 20.2333 30.9425 20.72C30.4892 21.2 29.9592 21.5767 29.3525 21.85C28.7525 22.1233 28.1058 22.26 27.4125 22.26ZM27.4125 20.18C27.9658 20.18 28.4625 20.0333 28.9025 19.74C29.3425 19.4467 29.6892 19.06 29.9425 18.58C30.2025 18.0933 30.3325 17.5667 30.3325 17C30.3325 16.42 30.1992 15.8867 29.9325 15.4C29.6725 14.9133 29.3225 14.5267 28.8825 14.24C28.4425 13.9467 27.9525 13.8 27.4125 13.8C26.8658 13.8 26.3692 13.9467 25.9225 14.24C25.4825 14.5333 25.1325 14.9233 24.8725 15.41C24.6192 15.8967 24.4925 16.4267 24.4925 17C24.4925 17.5933 24.6258 18.13 24.8925 18.61C25.1592 19.09 25.5125 19.4733 25.9525 19.76C26.3992 20.04 26.8858 20.18 27.4125 20.18ZM43.0281 15.73V22H40.9481V16.24C40.9481 15.7933 40.8381 15.3867 40.6181 15.02C40.4048 14.6533 40.1148 14.3633 39.7481 14.15C39.3881 13.93 38.9815 13.82 38.5281 13.82C38.0881 13.82 37.6848 13.93 37.3181 14.15C36.9515 14.3633 36.6581 14.6533 36.4381 15.02C36.2181 15.3867 36.1081 15.7933 36.1081 16.24V22H34.0281V12H36.1081V13.06C36.4548 12.6467 36.8815 12.32 37.3881 12.08C37.8948 11.84 38.4415 11.72 39.0281 11.72C39.7681 11.72 40.4415 11.9 41.0481 12.26C41.6548 12.62 42.1348 13.1033 42.4881 13.71C42.8481 14.3167 43.0281 14.99 43.0281 15.73ZM49.2289 22.26C48.3089 22.26 47.4689 22.0233 46.7089 21.55C45.9556 21.0767 45.3522 20.4433 44.8989 19.65C44.4522 18.85 44.2289 17.9667 44.2289 17C44.2289 16.2667 44.3589 15.5833 44.6189 14.95C44.8789 14.31 45.2356 13.75 45.6889 13.27C46.1489 12.7833 46.6822 12.4033 47.2889 12.13C47.8956 11.8567 48.5422 11.72 49.2289 11.72C49.9956 11.72 50.6989 11.88 51.3389 12.2C51.9789 12.5133 52.5256 12.95 52.9789 13.51C53.4322 14.0633 53.7656 14.7033 53.9789 15.43C54.1922 16.15 54.2556 16.9167 54.1689 17.73H46.4589C46.5456 18.19 46.7122 18.6067 46.9589 18.98C47.2122 19.3467 47.5322 19.6367 47.9189 19.85C48.3122 20.0633 48.7489 20.1733 49.2289 20.18C49.7356 20.18 50.1956 20.0533 50.6089 19.8C51.0289 19.5467 51.3722 19.1967 51.6389 18.75L53.7489 19.24C53.3489 20.1267 52.7456 20.8533 51.9389 21.42C51.1322 21.98 50.2289 22.26 49.2289 22.26ZM46.3889 16.14H52.0689C52.0022 15.66 51.8322 15.2267 51.5589 14.84C51.2922 14.4467 50.9556 14.1367 50.5489 13.91C50.1489 13.6767 49.7089 13.56 49.2289 13.56C48.7556 13.56 48.3156 13.6733 47.9089 13.9C47.5089 14.1267 47.1756 14.4367 46.9089 14.83C46.6489 15.2167 46.4756 15.6533 46.3889 16.14Z" fill="white"></path><rect x="0.75" y="46.5" width="310.75" height="67" rx="7.5" fill="#1A1A1A"></rect><rect x="0.75" y="46.5" width="310.75" height="67" rx="7.5" stroke="#262626"></rect><path d="M21.33 86V73.4H29.061V74.912H22.842V78.494H27.936V80.006H22.842V84.488H29.061V86H21.33ZM38.9891 80.402V86H37.4771V80.735C37.4771 80.279 37.3661 79.865 37.1441 79.493C36.9221 79.121 36.6251 78.827 36.2531 78.611C35.8811 78.389 35.4671 78.278 35.0111 78.278C34.5611 78.278 34.1471 78.389 33.7691 78.611C33.3971 78.827 33.1001 79.121 32.8781 79.493C32.6561 79.865 32.5451 80.279 32.5451 80.735V86H31.0331V77H32.5451V78.125C32.8631 77.705 33.2651 77.372 33.7511 77.126C34.2371 76.874 34.7651 76.748 35.3351 76.748C36.0071 76.748 36.6191 76.913 37.1711 77.243C37.7291 77.567 38.1701 78.005 38.4941 78.557C38.8241 79.109 38.9891 79.724 38.9891 80.402ZM45.451 78.512H43.408L43.399 86H41.887L41.896 78.512H40.348V77H41.896L41.887 74.174H43.399L43.408 77H45.451V78.512ZM50.7959 86.234C49.9679 86.234 49.2119 86.021 48.5279 85.595C47.8499 85.169 47.3069 84.599 46.8989 83.885C46.4969 83.165 46.2959 82.37 46.2959 81.5C46.2959 80.84 46.4129 80.225 46.6469 79.655C46.8809 79.079 47.2019 78.575 47.6099 78.143C48.0239 77.705 48.5039 77.363 49.0499 77.117C49.5959 76.871 50.1779 76.748 50.7959 76.748C51.4739 76.748 52.0949 76.886 52.6589 77.162C53.2289 77.432 53.7149 77.81 54.1169 78.296C54.5249 78.782 54.8279 79.346 55.0259 79.988C55.2299 80.63 55.3049 81.317 55.2509 82.049H47.9069C47.9789 82.559 48.1469 83.015 48.4109 83.417C48.6749 83.813 49.0109 84.128 49.4189 84.362C49.8329 84.596 50.2919 84.716 50.7959 84.722C51.3359 84.722 51.8249 84.584 52.2629 84.308C52.7009 84.026 53.0549 83.642 53.3249 83.156L54.8639 83.516C54.5039 84.314 53.9609 84.968 53.2349 85.478C52.5089 85.982 51.6959 86.234 50.7959 86.234ZM47.8619 80.861H53.7299C53.6819 80.357 53.5199 79.898 53.2439 79.484C52.9679 79.064 52.6169 78.728 52.1909 78.476C51.7649 78.224 51.2999 78.098 50.7959 78.098C50.2919 78.098 49.8299 78.221 49.4099 78.467C48.9899 78.713 48.6419 79.046 48.3659 79.466C48.0959 79.88 47.9279 80.345 47.8619 80.861ZM56.7675 86V77H58.2795V78.125C58.5975 77.705 58.9995 77.372 59.4855 77.126C59.9715 76.874 60.4995 76.748 61.0695 76.748C61.4175 76.748 61.7535 76.793 62.0775 76.883L61.4655 78.395C61.2195 78.317 60.9795 78.278 60.7455 78.278C60.2955 78.278 59.8815 78.389 59.5035 78.611C59.1315 78.827 58.8345 79.121 58.6125 79.493C58.3905 79.865 58.2795 80.279 58.2795 80.735V86H56.7675ZM67.6659 86V73.4H71.8239C72.5019 73.4 73.1109 73.565 73.6509 73.895C74.1969 74.225 74.6289 74.672 74.9469 75.236C75.2709 75.794 75.4329 76.418 75.4329 77.108C75.4329 77.81 75.2679 78.443 74.9379 79.007C74.6139 79.565 74.1759 80.009 73.6239 80.339C73.0779 80.663 72.4779 80.825 71.8239 80.825H69.1779V86H67.6659ZM69.1779 79.313H71.6889C72.0969 79.313 72.4689 79.214 72.8049 79.016C73.1469 78.812 73.4169 78.539 73.6149 78.197C73.8189 77.849 73.9209 77.459 73.9209 77.027C73.9209 76.589 73.8189 76.199 73.6149 75.857C73.4169 75.509 73.1469 75.236 72.8049 75.038C72.4689 74.834 72.0969 74.732 71.6889 74.732H69.1779V79.313ZM85.1493 80.402V86H83.6373V80.735C83.6373 80.279 83.5263 79.865 83.3043 79.493C83.0823 79.121 82.7853 78.827 82.4133 78.611C82.0413 78.389 81.6273 78.278 81.1713 78.278C80.7213 78.278 80.3073 78.389 79.9293 78.611C79.5573 78.827 79.2603 79.121 79.0383 79.493C78.8163 79.865 78.7053 80.279 78.7053 80.735V86H77.1933V72.5H78.7053V78.125C79.0233 77.705 79.4253 77.372 79.9113 77.126C80.3973 76.874 80.9253 76.748 81.4953 76.748C82.1673 76.748 82.7793 76.913 83.3313 77.243C83.8893 77.567 84.3303 78.005 84.6543 78.557C84.9843 79.109 85.1493 79.724 85.1493 80.402ZM90.7334 86.234C89.9054 86.234 89.1494 86.021 88.4654 85.595C87.7874 85.169 87.2444 84.599 86.8364 83.885C86.4344 83.165 86.2334 82.37 86.2334 81.5C86.2334 80.84 86.3504 80.225 86.5844 79.655C86.8184 79.079 87.1394 78.575 87.5474 78.143C87.9614 77.705 88.4414 77.363 88.9874 77.117C89.5334 76.871 90.1154 76.748 90.7334 76.748C91.5614 76.748 92.3144 76.961 92.9924 77.387C93.6764 77.813 94.2194 78.386 94.6214 79.106C95.0294 79.826 95.2334 80.624 95.2334 81.5C95.2334 82.154 95.1164 82.766 94.8824 83.336C94.6484 83.906 94.3244 84.41 93.9104 84.848C93.5024 85.28 93.0254 85.619 92.4794 85.865C91.9394 86.111 91.3574 86.234 90.7334 86.234ZM90.7334 84.722C91.2974 84.722 91.8044 84.575 92.2544 84.281C92.7104 83.981 93.0674 83.588 93.3254 83.102C93.5894 82.61 93.7214 82.076 93.7214 81.5C93.7214 80.912 93.5864 80.372 93.3164 79.88C93.0524 79.388 92.6954 78.995 92.2454 78.701C91.7954 78.407 91.2914 78.26 90.7334 78.26C90.1694 78.26 89.6624 78.41 89.2124 78.71C88.7624 79.004 88.4054 79.397 88.1414 79.889C87.8774 80.381 87.7454 80.918 87.7454 81.5C87.7454 82.1 87.8804 82.646 88.1504 83.138C88.4204 83.624 88.7834 84.011 89.2394 84.299C89.6954 84.581 90.1934 84.722 90.7334 84.722ZM104.679 80.402V86H103.167V80.735C103.167 80.279 103.056 79.865 102.834 79.493C102.612 79.121 102.315 78.827 101.943 78.611C101.571 78.389 101.157 78.278 100.701 78.278C100.251 78.278 99.8366 78.389 99.4586 78.611C99.0866 78.827 98.7896 79.121 98.5676 79.493C98.3456 79.865 98.2346 80.279 98.2346 80.735V86H96.7226V77H98.2346V78.125C98.5526 77.705 98.9546 77.372 99.4406 77.126C99.9266 76.874 100.455 76.748 101.025 76.748C101.697 76.748 102.309 76.913 102.861 77.243C103.419 77.567 103.86 78.005 104.184 78.557C104.514 79.109 104.679 79.724 104.679 80.402ZM110.263 86.234C109.435 86.234 108.679 86.021 107.995 85.595C107.317 85.169 106.774 84.599 106.366 83.885C105.964 83.165 105.763 82.37 105.763 81.5C105.763 80.84 105.88 80.225 106.114 79.655C106.348 79.079 106.669 78.575 107.077 78.143C107.491 77.705 107.971 77.363 108.517 77.117C109.063 76.871 109.645 76.748 110.263 76.748C110.941 76.748 111.562 76.886 112.126 77.162C112.696 77.432 113.182 77.81 113.584 78.296C113.992 78.782 114.295 79.346 114.493 79.988C114.697 80.63 114.772 81.317 114.718 82.049H107.374C107.446 82.559 107.614 83.015 107.878 83.417C108.142 83.813 108.478 84.128 108.886 84.362C109.3 84.596 109.759 84.716 110.263 84.722C110.803 84.722 111.292 84.584 111.73 84.308C112.168 84.026 112.522 83.642 112.792 83.156L114.331 83.516C113.971 84.314 113.428 84.968 112.702 85.478C111.976 85.982 111.163 86.234 110.263 86.234ZM107.329 80.861H113.197C113.149 80.357 112.987 79.898 112.711 79.484C112.435 79.064 112.084 78.728 111.658 78.476C111.232 78.224 110.767 78.098 110.263 78.098C109.759 78.098 109.297 78.221 108.877 78.467C108.457 78.713 108.109 79.046 107.833 79.466C107.563 79.88 107.395 80.345 107.329 80.861ZM120.682 86V73.4H122.32L128.611 83.264V73.4H130.123V86H128.494L122.194 76.136V86H120.682ZM131.923 82.58V77H133.435V82.247C133.435 82.703 133.546 83.117 133.768 83.489C133.99 83.861 134.287 84.158 134.659 84.38C135.037 84.596 135.451 84.704 135.901 84.704C136.357 84.704 136.768 84.596 137.134 84.38C137.506 84.158 137.803 83.861 138.025 83.489C138.247 83.117 138.358 82.703 138.358 82.247V77H139.87L139.879 86H138.367L138.358 84.857C138.04 85.277 137.638 85.613 137.152 85.865C136.666 86.111 136.141 86.234 135.577 86.234C134.905 86.234 134.29 86.072 133.732 85.748C133.18 85.418 132.739 84.977 132.409 84.425C132.085 83.873 131.923 83.258 131.923 82.58ZM141.687 86V77H143.199V78.125C143.517 77.705 143.916 77.372 144.396 77.126C144.882 76.874 145.41 76.748 145.98 76.748C146.646 76.748 147.255 76.91 147.807 77.234C148.359 77.558 148.794 77.987 149.112 78.521C149.43 77.987 149.862 77.558 150.408 77.234C150.96 76.91 151.566 76.748 152.226 76.748C152.904 76.748 153.519 76.913 154.071 77.243C154.623 77.567 155.061 78.005 155.385 78.557C155.715 79.109 155.88 79.724 155.88 80.402V86H154.368V80.762C154.368 80.318 154.26 79.907 154.044 79.529C153.828 79.151 153.537 78.848 153.171 78.62C152.805 78.392 152.4 78.278 151.956 78.278C151.512 78.278 151.107 78.386 150.741 78.602C150.375 78.812 150.084 79.106 149.868 79.484C149.652 79.856 149.544 80.282 149.544 80.762V86H148.032V80.762C148.032 80.282 147.924 79.856 147.708 79.484C147.492 79.106 147.198 78.812 146.826 78.602C146.46 78.386 146.055 78.278 145.611 78.278C145.173 78.278 144.768 78.392 144.396 78.62C144.03 78.848 143.739 79.151 143.523 79.529C143.307 79.907 143.199 80.318 143.199 80.762V86H141.687ZM162.343 76.748C163.219 76.748 164.014 76.961 164.728 77.387C165.448 77.813 166.021 78.386 166.447 79.106C166.873 79.82 167.086 80.615 167.086 81.491C167.086 82.145 166.963 82.76 166.717 83.336C166.471 83.906 166.129 84.41 165.691 84.848C165.259 85.28 164.755 85.619 164.179 85.865C163.609 86.111 162.997 86.234 162.343 86.234C161.647 86.234 161.041 86.072 160.525 85.748C160.015 85.418 159.607 84.989 159.301 84.461V86H157.789V72.5H159.301V78.521C159.607 77.993 160.015 77.567 160.525 77.243C161.041 76.913 161.647 76.748 162.343 76.748ZM162.325 84.758C162.919 84.758 163.459 84.611 163.945 84.317C164.431 84.023 164.818 83.63 165.106 83.138C165.394 82.64 165.538 82.091 165.538 81.491C165.538 80.879 165.391 80.327 165.097 79.835C164.803 79.337 164.413 78.944 163.927 78.656C163.441 78.362 162.907 78.215 162.325 78.215C161.737 78.215 161.224 78.362 160.786 78.656C160.354 78.95 160.018 79.346 159.778 79.844C159.544 80.342 159.427 80.891 159.427 81.491C159.427 82.097 159.544 82.649 159.778 83.147C160.018 83.639 160.357 84.032 160.795 84.326C161.233 84.614 161.743 84.758 162.325 84.758ZM172.489 86.234C171.661 86.234 170.905 86.021 170.221 85.595C169.543 85.169 169 84.599 168.592 83.885C168.19 83.165 167.989 82.37 167.989 81.5C167.989 80.84 168.106 80.225 168.34 79.655C168.574 79.079 168.895 78.575 169.303 78.143C169.717 77.705 170.197 77.363 170.743 77.117C171.289 76.871 171.871 76.748 172.489 76.748C173.167 76.748 173.788 76.886 174.352 77.162C174.922 77.432 175.408 77.81 175.81 78.296C176.218 78.782 176.521 79.346 176.719 79.988C176.923 80.63 176.998 81.317 176.944 82.049H169.6C169.672 82.559 169.84 83.015 170.104 83.417C170.368 83.813 170.704 84.128 171.112 84.362C171.526 84.596 171.985 84.716 172.489 84.722C173.029 84.722 173.518 84.584 173.956 84.308C174.394 84.026 174.748 83.642 175.018 83.156L176.557 83.516C176.197 84.314 175.654 84.968 174.928 85.478C174.202 85.982 173.389 86.234 172.489 86.234ZM169.555 80.861H175.423C175.375 80.357 175.213 79.898 174.937 79.484C174.661 79.064 174.31 78.728 173.884 78.476C173.458 78.224 172.993 78.098 172.489 78.098C171.985 78.098 171.523 78.221 171.103 78.467C170.683 78.713 170.335 79.046 170.059 79.466C169.789 79.88 169.621 80.345 169.555 80.861ZM178.461 86V77H179.973V78.125C180.291 77.705 180.693 77.372 181.179 77.126C181.665 76.874 182.193 76.748 182.763 76.748C183.111 76.748 183.447 76.793 183.771 76.883L183.159 78.395C182.913 78.317 182.673 78.278 182.439 78.278C181.989 78.278 181.575 78.389 181.197 78.611C180.825 78.827 180.528 79.121 180.306 79.493C180.084 79.865 179.973 80.279 179.973 80.735V86H178.461Z" fill="#666666"></path></svg>