<svg xmlns="http://www.w3.org/2000/svg" width="312" height="114" viewBox="0 0 312 114" fill="none"><path d="M1.2 22V8H6.02C6.77333 8 7.45333 8.18667 8.06 8.56C8.67333 8.93333 9.16 9.43667 9.52 10.07C9.88667 10.7033 10.07 11.4033 10.07 12.17C10.07 12.95 9.88333 13.6567 9.51 14.29C9.14333 14.9167 8.65333 15.4167 8.04 15.79C7.42667 16.1633 6.75333 16.35 6.02 16.35H3.28V22H1.2ZM3.28 14.27H5.81C6.21 14.27 6.57333 14.17 6.9 13.97C7.23333 13.77 7.49667 13.5033 7.69 13.17C7.89 12.8367 7.99 12.46 7.99 12.04C7.99 11.62 7.89 11.2433 7.69 10.91C7.49667 10.57 7.23333 10.3033 6.9 10.11C6.57333 9.91 6.21 9.81 5.81 9.81H3.28V14.27ZM11.7078 22V12H13.7878V13.06C14.1345 12.6467 14.5611 12.32 15.0678 12.08C15.5745 11.84 16.1211 11.72 16.7078 11.72C17.0811 11.72 17.4511 11.77 17.8178 11.87L16.9878 13.97C16.7278 13.87 16.4678 13.82 16.2078 13.82C15.7678 13.82 15.3645 13.93 14.9978 14.15C14.6311 14.3633 14.3378 14.6533 14.1178 15.02C13.8978 15.3867 13.7878 15.7933 13.7878 16.24V22H11.7078ZM22.9047 22.26C21.9847 22.26 21.1447 22.0233 20.3847 21.55C19.6314 21.0767 19.028 20.4433 18.5747 19.65C18.128 18.85 17.9047 17.9667 17.9047 17C17.9047 16.2667 18.0347 15.5833 18.2947 14.95C18.5547 14.31 18.9114 13.75 19.3647 13.27C19.8247 12.7833 20.358 12.4033 20.9647 12.13C21.5714 11.8567 22.218 11.72 22.9047 11.72C23.6714 11.72 24.3747 11.88 25.0147 12.2C25.6547 12.5133 26.2014 12.95 26.6547 13.51C27.108 14.0633 27.4414 14.7033 27.6547 15.43C27.868 16.15 27.9314 16.9167 27.8447 17.73H20.1347C20.2214 18.19 20.388 18.6067 20.6347 18.98C20.888 19.3467 21.208 19.6367 21.5947 19.85C21.988 20.0633 22.4247 20.1733 22.9047 20.18C23.4114 20.18 23.8714 20.0533 24.2847 19.8C24.7047 19.5467 25.048 19.1967 25.3147 18.75L27.4247 19.24C27.0247 20.1267 26.4214 20.8533 25.6147 21.42C24.808 21.98 23.9047 22.26 22.9047 22.26ZM20.0647 16.14H25.7447C25.678 15.66 25.508 15.2267 25.2347 14.84C24.968 14.4467 24.6314 14.1367 24.2247 13.91C23.8247 13.6767 23.3847 13.56 22.9047 13.56C22.4314 13.56 21.9914 13.6733 21.5847 13.9C21.1847 14.1267 20.8514 14.4367 20.5847 14.83C20.3247 15.2167 20.1514 15.6533 20.0647 16.14ZM32.2466 9.73V12H35.0666V14.08H32.2466V22H30.1666V14.08H28.9766V12H30.1666V9.73C30.1666 9.18333 30.2999 8.68667 30.5666 8.24C30.8332 7.78667 31.1899 7.42667 31.6366 7.16C32.0899 6.89333 32.5932 6.76 33.1466 6.76C33.5466 6.76 33.9366 6.84 34.3166 7C34.6966 7.16 35.0366 7.40667 35.3366 7.74L33.8466 9.21C33.7732 9.09 33.6699 9 33.5366 8.94C33.4099 8.87333 33.2799 8.84 33.1466 8.84C32.8999 8.84 32.6866 8.92667 32.5066 9.1C32.3332 9.27333 32.2466 9.48333 32.2466 9.73ZM40.893 22.26C39.973 22.26 39.133 22.0233 38.373 21.55C37.6196 21.0767 37.0163 20.4433 36.563 19.65C36.1163 18.85 35.893 17.9667 35.893 17C35.893 16.2667 36.023 15.5833 36.283 14.95C36.543 14.31 36.8996 13.75 37.353 13.27C37.813 12.7833 38.3463 12.4033 38.953 12.13C39.5596 11.8567 40.2063 11.72 40.893 11.72C41.6596 11.72 42.363 11.88 43.003 12.2C43.643 12.5133 44.1896 12.95 44.643 13.51C45.0963 14.0633 45.4296 14.7033 45.643 15.43C45.8563 16.15 45.9196 16.9167 45.833 17.73H38.123C38.2096 18.19 38.3763 18.6067 38.623 18.98C38.8763 19.3467 39.1963 19.6367 39.583 19.85C39.9763 20.0633 40.413 20.1733 40.893 20.18C41.3996 20.18 41.8596 20.0533 42.273 19.8C42.693 19.5467 43.0363 19.1967 43.303 18.75L45.413 19.24C45.013 20.1267 44.4096 20.8533 43.603 21.42C42.7963 21.98 41.893 22.26 40.893 22.26ZM38.053 16.14H43.733C43.6663 15.66 43.4963 15.2267 43.223 14.84C42.9563 14.4467 42.6196 14.1367 42.213 13.91C41.813 13.6767 41.373 13.56 40.893 13.56C40.4196 13.56 39.9796 13.6733 39.573 13.9C39.173 14.1267 38.8396 14.4367 38.573 14.83C38.313 15.2167 38.1396 15.6533 38.053 16.14ZM47.4891 22V12H49.5691V13.06C49.9157 12.6467 50.3424 12.32 50.8491 12.08C51.3557 11.84 51.9024 11.72 52.4891 11.72C52.8624 11.72 53.2324 11.77 53.5991 11.87L52.7691 13.97C52.5091 13.87 52.2491 13.82 51.9891 13.82C51.5491 13.82 51.1457 13.93 50.7791 14.15C50.4124 14.3633 50.1191 14.6533 49.8991 15.02C49.6791 15.3867 49.5691 15.7933 49.5691 16.24V22H47.4891ZM54.8328 22V12H56.9128V13.06C57.2595 12.6467 57.6861 12.32 58.1928 12.08C58.6995 11.84 59.2461 11.72 59.8328 11.72C60.2061 11.72 60.5761 11.77 60.9428 11.87L60.1128 13.97C59.8528 13.87 59.5928 13.82 59.3328 13.82C58.8928 13.82 58.4895 13.93 58.1228 14.15C57.7561 14.3633 57.4628 14.6533 57.2428 15.02C57.0228 15.3867 56.9128 15.7933 56.9128 16.24V22H54.8328ZM66.0297 22.26C65.1097 22.26 64.2697 22.0233 63.5097 21.55C62.7564 21.0767 62.153 20.4433 61.6997 19.65C61.253 18.85 61.0297 17.9667 61.0297 17C61.0297 16.2667 61.1597 15.5833 61.4197 14.95C61.6797 14.31 62.0364 13.75 62.4897 13.27C62.9497 12.7833 63.483 12.4033 64.0897 12.13C64.6964 11.8567 65.343 11.72 66.0297 11.72C66.7964 11.72 67.4997 11.88 68.1397 12.2C68.7797 12.5133 69.3264 12.95 69.7797 13.51C70.233 14.0633 70.5664 14.7033 70.7797 15.43C70.993 16.15 71.0564 16.9167 70.9697 17.73H63.2597C63.3464 18.19 63.513 18.6067 63.7597 18.98C64.013 19.3467 64.333 19.6367 64.7197 19.85C65.113 20.0633 65.5497 20.1733 66.0297 20.18C66.5364 20.18 66.9964 20.0533 67.4097 19.8C67.8297 19.5467 68.173 19.1967 68.4397 18.75L70.5497 19.24C70.1497 20.1267 69.5464 20.8533 68.7397 21.42C67.933 21.98 67.0297 22.26 66.0297 22.26ZM63.1897 16.14H68.8697C68.803 15.66 68.633 15.2267 68.3597 14.84C68.093 14.4467 67.7564 14.1367 67.3497 13.91C66.9497 13.6767 66.5097 13.56 66.0297 13.56C65.5564 13.56 65.1164 13.6733 64.7097 13.9C64.3097 14.1267 63.9764 14.4367 63.7097 14.83C63.4497 15.2167 63.2764 15.6533 63.1897 16.14ZM80.3963 7H82.4762V22H80.3963V20.53C80.0696 21.05 79.6429 21.47 79.1163 21.79C78.5896 22.1033 77.9729 22.26 77.2663 22.26C76.5396 22.26 75.8596 22.1233 75.2263 21.85C74.5929 21.5767 74.0329 21.2 73.5463 20.72C73.0663 20.2333 72.6896 19.6733 72.4163 19.04C72.1429 18.4067 72.0063 17.7267 72.0063 17C72.0063 16.2733 72.1429 15.5933 72.4163 14.96C72.6896 14.32 73.0663 13.76 73.5463 13.28C74.0329 12.7933 74.5929 12.4133 75.2263 12.14C75.8596 11.8667 76.5396 11.73 77.2663 11.73C77.9729 11.73 78.5896 11.89 79.1163 12.21C79.6429 12.5233 80.0696 12.9367 80.3963 13.45V7ZM77.2862 20.25C77.8729 20.25 78.3863 20.1067 78.8263 19.82C79.2663 19.5267 79.6063 19.1333 79.8463 18.64C80.0929 18.1467 80.2163 17.6 80.2163 17C80.2163 16.3933 80.0929 15.8433 79.8463 15.35C79.5996 14.8567 79.2563 14.4667 78.8163 14.18C78.3829 13.8867 77.8729 13.74 77.2862 13.74C76.7063 13.74 76.1763 13.8867 75.6963 14.18C75.2229 14.4733 74.8429 14.8667 74.5563 15.36C74.2763 15.8533 74.1363 16.4 74.1363 17C74.1363 17.6067 74.2796 18.1567 74.5663 18.65C74.8596 19.1367 75.2429 19.5267 75.7163 19.82C76.1963 20.1067 76.7196 20.25 77.2862 20.25ZM89.6766 22V8H91.7566V19.92H97.7866V22H89.6766ZM103.491 22.26C102.571 22.26 101.731 22.0233 100.971 21.55C100.217 21.0767 99.614 20.4433 99.1606 19.65C98.714 18.85 98.4906 17.9667 98.4906 17C98.4906 16.2667 98.6206 15.5833 98.8806 14.95C99.1406 14.31 99.4973 13.75 99.9506 13.27C100.411 12.7833 100.944 12.4033 101.551 12.13C102.157 11.8567 102.804 11.72 103.491 11.72C104.411 11.72 105.247 11.9567 106.001 12.43C106.761 12.9033 107.364 13.54 107.811 14.34C108.264 15.14 108.491 16.0267 108.491 17C108.491 17.7267 108.361 18.4067 108.101 19.04C107.841 19.6733 107.481 20.2333 107.021 20.72C106.567 21.2 106.037 21.5767 105.431 21.85C104.831 22.1233 104.184 22.26 103.491 22.26ZM103.491 20.18C104.044 20.18 104.541 20.0333 104.981 19.74C105.421 19.4467 105.767 19.06 106.021 18.58C106.281 18.0933 106.411 17.5667 106.411 17C106.411 16.42 106.277 15.8867 106.011 15.4C105.751 14.9133 105.401 14.5267 104.961 14.24C104.521 13.9467 104.031 13.8 103.491 13.8C102.944 13.8 102.447 13.9467 102.001 14.24C101.561 14.5333 101.211 14.9233 100.951 15.41C100.697 15.8967 100.571 16.4267 100.571 17C100.571 17.5933 100.704 18.13 100.971 18.61C101.237 19.09 101.591 19.4733 102.031 19.76C102.477 20.04 102.964 20.18 103.491 20.18ZM116.617 19.16L118.477 20.17C118.023 20.8033 117.447 21.31 116.747 21.69C116.053 22.07 115.3 22.26 114.487 22.26C113.567 22.26 112.727 22.0233 111.967 21.55C111.213 21.0767 110.61 20.4433 110.157 19.65C109.71 18.85 109.487 17.9667 109.487 17C109.487 16.2667 109.617 15.5833 109.877 14.95C110.137 14.31 110.493 13.75 110.947 13.27C111.407 12.7833 111.94 12.4033 112.547 12.13C113.153 11.8567 113.8 11.72 114.487 11.72C115.3 11.72 116.053 11.91 116.747 12.29C117.447 12.67 118.023 13.18 118.477 13.82L116.617 14.83C116.337 14.4967 116.01 14.2433 115.637 14.07C115.263 13.89 114.88 13.8 114.487 13.8C113.94 13.8 113.443 13.95 112.997 14.25C112.557 14.5433 112.207 14.9333 111.947 15.42C111.693 15.9 111.567 16.4267 111.567 17C111.567 17.5667 111.697 18.0933 111.957 18.58C112.217 19.06 112.567 19.4467 113.007 19.74C113.453 20.0333 113.947 20.18 114.487 20.18C114.9 20.18 115.293 20.0867 115.667 19.9C116.04 19.7133 116.357 19.4667 116.617 19.16ZM127.828 12H129.908V22H127.818L127.738 20.55C127.444 21.0633 127.048 21.4767 126.548 21.79C126.048 22.1033 125.458 22.26 124.778 22.26C124.044 22.26 123.354 22.1233 122.708 21.85C122.061 21.57 121.491 21.1833 120.998 20.69C120.511 20.1967 120.131 19.63 119.858 18.99C119.584 18.3433 119.448 17.65 119.448 16.91C119.448 16.1967 119.581 15.5267 119.848 14.9C120.114 14.2667 120.484 13.7133 120.958 13.24C121.431 12.7667 121.978 12.3967 122.598 12.13C123.224 11.8567 123.894 11.72 124.608 11.72C125.334 11.72 125.974 11.8867 126.528 12.22C127.088 12.5467 127.551 12.9667 127.918 13.48L127.828 12ZM124.728 20.25C125.314 20.25 125.828 20.1067 126.268 19.82C126.708 19.5267 127.048 19.1333 127.288 18.64C127.534 18.1467 127.658 17.6 127.658 17C127.658 16.3933 127.534 15.8433 127.288 15.35C127.041 14.8567 126.698 14.4667 126.258 14.18C125.824 13.8867 125.314 13.74 124.728 13.74C124.148 13.74 123.618 13.8867 123.138 14.18C122.658 14.4733 122.278 14.8667 121.998 15.36C121.718 15.8533 121.578 16.4 121.578 17C121.578 17.6067 121.721 18.1567 122.008 18.65C122.301 19.1367 122.684 19.5267 123.158 19.82C123.638 20.1067 124.161 20.25 124.728 20.25ZM137.183 14.08H135.083L135.073 22H132.993L133.003 14.08H131.413V12H133.003L132.993 8.86H135.073L135.083 12H137.183V14.08ZM138.837 12H140.917V22H138.837V12ZM139.897 10.55C139.577 10.55 139.31 10.4467 139.097 10.24C138.883 10.0333 138.777 9.77333 138.777 9.46C138.777 9.15333 138.883 8.89667 139.097 8.69C139.31 8.47667 139.573 8.37 139.887 8.37C140.193 8.37 140.453 8.47667 140.667 8.69C140.88 8.89667 140.987 9.15333 140.987 9.46C140.987 9.77333 140.88 10.0333 140.667 10.24C140.46 10.4467 140.203 10.55 139.897 10.55ZM147.534 22.26C146.614 22.26 145.774 22.0233 145.014 21.55C144.26 21.0767 143.657 20.4433 143.204 19.65C142.757 18.85 142.534 17.9667 142.534 17C142.534 16.2667 142.664 15.5833 142.924 14.95C143.184 14.31 143.54 13.75 143.994 13.27C144.454 12.7833 144.987 12.4033 145.594 12.13C146.2 11.8567 146.847 11.72 147.534 11.72C148.454 11.72 149.29 11.9567 150.044 12.43C150.804 12.9033 151.407 13.54 151.854 14.34C152.307 15.14 152.534 16.0267 152.534 17C152.534 17.7267 152.404 18.4067 152.144 19.04C151.884 19.6733 151.524 20.2333 151.064 20.72C150.61 21.2 150.08 21.5767 149.474 21.85C148.874 22.1233 148.227 22.26 147.534 22.26ZM147.534 20.18C148.087 20.18 148.584 20.0333 149.024 19.74C149.464 19.4467 149.81 19.06 150.064 18.58C150.324 18.0933 150.454 17.5667 150.454 17C150.454 16.42 150.32 15.8867 150.054 15.4C149.794 14.9133 149.444 14.5267 149.004 14.24C148.564 13.9467 148.074 13.8 147.534 13.8C146.987 13.8 146.49 13.9467 146.044 14.24C145.604 14.5333 145.254 14.9233 144.994 15.41C144.74 15.8967 144.614 16.4267 144.614 17C144.614 17.5933 144.747 18.13 145.014 18.61C145.28 19.09 145.634 19.4733 146.074 19.76C146.52 20.04 147.007 20.18 147.534 20.18ZM163.149 15.73V22H161.069V16.24C161.069 15.7933 160.959 15.3867 160.739 15.02C160.526 14.6533 160.236 14.3633 159.869 14.15C159.509 13.93 159.103 13.82 158.649 13.82C158.209 13.82 157.806 13.93 157.439 14.15C157.073 14.3633 156.779 14.6533 156.559 15.02C156.339 15.3867 156.229 15.7933 156.229 16.24V22H154.149V12H156.229V13.06C156.576 12.6467 157.003 12.32 157.509 12.08C158.016 11.84 158.563 11.72 159.149 11.72C159.889 11.72 160.563 11.9 161.169 12.26C161.776 12.62 162.256 13.1033 162.609 13.71C162.969 14.3167 163.149 14.99 163.149 15.73Z" fill="white"></path><rect x="0.5" y="46.5" width="310.75" height="67" rx="7.5" fill="#1A1A1A"></rect><rect x="0.5" y="46.5" width="310.75" height="67" rx="7.5" stroke="#262626"></rect><path d="M25.517 86.234C24.839 86.234 24.185 86.129 23.555 85.919C22.925 85.703 22.373 85.397 21.899 85.001C21.431 84.605 21.098 84.134 20.9 83.588L22.313 83.057C22.433 83.393 22.655 83.687 22.979 83.939C23.309 84.185 23.696 84.377 24.14 84.515C24.584 84.653 25.043 84.722 25.517 84.722C26.057 84.722 26.558 84.635 27.02 84.461C27.488 84.281 27.866 84.032 28.154 83.714C28.442 83.396 28.586 83.024 28.586 82.598C28.586 82.16 28.436 81.803 28.136 81.527C27.836 81.245 27.452 81.023 26.984 80.861C26.516 80.693 26.027 80.564 25.517 80.474C24.647 80.33 23.867 80.126 23.177 79.862C22.493 79.592 21.95 79.217 21.548 78.737C21.152 78.257 20.954 77.624 20.954 76.838C20.954 76.106 21.164 75.467 21.584 74.921C22.01 74.375 22.571 73.952 23.267 73.652C23.963 73.352 24.713 73.202 25.517 73.202C26.183 73.202 26.828 73.307 27.452 73.517C28.082 73.721 28.637 74.021 29.117 74.417C29.597 74.813 29.942 75.296 30.152 75.866L28.721 76.388C28.601 76.046 28.376 75.752 28.046 75.506C27.722 75.254 27.338 75.062 26.894 74.93C26.456 74.792 25.997 74.723 25.517 74.723C24.983 74.717 24.485 74.804 24.023 74.984C23.561 75.164 23.186 75.413 22.898 75.731C22.61 76.049 22.466 76.418 22.466 76.838C22.466 77.342 22.598 77.729 22.862 77.999C23.132 78.263 23.498 78.461 23.96 78.593C24.422 78.725 24.941 78.842 25.517 78.944C26.333 79.082 27.089 79.301 27.785 79.601C28.481 79.895 29.039 80.288 29.459 80.78C29.885 81.272 30.098 81.878 30.098 82.598C30.098 83.33 29.885 83.969 29.459 84.515C29.039 85.061 28.481 85.484 27.785 85.784C27.089 86.084 26.333 86.234 25.517 86.234ZM35.9384 86.234C35.1104 86.234 34.3544 86.021 33.6704 85.595C32.9924 85.169 32.4494 84.599 32.0414 83.885C31.6394 83.165 31.4384 82.37 31.4384 81.5C31.4384 80.84 31.5554 80.225 31.7894 79.655C32.0234 79.079 32.3444 78.575 32.7524 78.143C33.1664 77.705 33.6464 77.363 34.1924 77.117C34.7384 76.871 35.3204 76.748 35.9384 76.748C36.6164 76.748 37.2374 76.886 37.8014 77.162C38.3714 77.432 38.8574 77.81 39.2594 78.296C39.6674 78.782 39.9704 79.346 40.1684 79.988C40.3724 80.63 40.4474 81.317 40.3934 82.049H33.0494C33.1214 82.559 33.2894 83.015 33.5534 83.417C33.8174 83.813 34.1534 84.128 34.5614 84.362C34.9754 84.596 35.4344 84.716 35.9384 84.722C36.4784 84.722 36.9674 84.584 37.4054 84.308C37.8434 84.026 38.1974 83.642 38.4674 83.156L40.0064 83.516C39.6464 84.314 39.1034 84.968 38.3774 85.478C37.6514 85.982 36.8384 86.234 35.9384 86.234ZM33.0044 80.861H38.8724C38.8244 80.357 38.6624 79.898 38.3864 79.484C38.1104 79.064 37.7594 78.728 37.3334 78.476C36.9074 78.224 36.4424 78.098 35.9384 78.098C35.4344 78.098 34.9724 78.221 34.5524 78.467C34.1324 78.713 33.7844 79.046 33.5084 79.466C33.2384 79.88 33.0704 80.345 33.0044 80.861ZM41.8222 86V72.5H43.3342V86H41.8222ZM49.3681 86.234C48.5401 86.234 47.7841 86.021 47.1001 85.595C46.4221 85.169 45.8791 84.599 45.4711 83.885C45.0691 83.165 44.8681 82.37 44.8681 81.5C44.8681 80.84 44.9851 80.225 45.2191 79.655C45.4531 79.079 45.7741 78.575 46.1821 78.143C46.5961 77.705 47.0761 77.363 47.6221 77.117C48.1681 76.871 48.7501 76.748 49.3681 76.748C50.0461 76.748 50.6671 76.886 51.2311 77.162C51.8011 77.432 52.2871 77.81 52.6891 78.296C53.0971 78.782 53.4001 79.346 53.5981 79.988C53.8021 80.63 53.8771 81.317 53.8231 82.049H46.4791C46.5511 82.559 46.7191 83.015 46.9831 83.417C47.2471 83.813 47.5831 84.128 47.9911 84.362C48.4051 84.596 48.8641 84.716 49.3681 84.722C49.9081 84.722 50.3971 84.584 50.8351 84.308C51.2731 84.026 51.6271 83.642 51.8971 83.156L53.4361 83.516C53.0761 84.314 52.5331 84.968 51.8071 85.478C51.0811 85.982 50.2681 86.234 49.3681 86.234ZM46.4341 80.861H52.3021C52.2541 80.357 52.0921 79.898 51.8161 79.484C51.5401 79.064 51.1891 78.728 50.7631 78.476C50.3371 78.224 49.8721 78.098 49.3681 78.098C48.8641 78.098 48.4021 78.221 47.9821 78.467C47.5621 78.713 47.2141 79.046 46.9381 79.466C46.6681 79.88 46.5001 80.345 46.4341 80.861ZM61.488 83.624L62.838 84.353C62.43 84.923 61.911 85.379 61.281 85.721C60.657 86.063 59.979 86.234 59.247 86.234C58.419 86.234 57.663 86.021 56.979 85.595C56.301 85.169 55.758 84.599 55.35 83.885C54.948 83.165 54.747 82.37 54.747 81.5C54.747 80.84 54.864 80.225 55.098 79.655C55.332 79.079 55.653 78.575 56.061 78.143C56.475 77.705 56.955 77.363 57.501 77.117C58.047 76.871 58.629 76.748 59.247 76.748C59.979 76.748 60.657 76.919 61.281 77.261C61.911 77.603 62.43 78.062 62.838 78.638L61.488 79.367C61.2 79.013 60.858 78.74 60.462 78.548C60.066 78.356 59.661 78.26 59.247 78.26C58.689 78.26 58.182 78.41 57.726 78.71C57.276 79.004 56.919 79.397 56.655 79.889C56.391 80.381 56.259 80.918 56.259 81.5C56.259 82.082 56.391 82.619 56.655 83.111C56.925 83.597 57.285 83.987 57.735 84.281C58.191 84.575 58.695 84.722 59.247 84.722C59.691 84.722 60.108 84.62 60.498 84.416C60.888 84.212 61.218 83.948 61.488 83.624ZM69.1248 78.512H67.0818L67.0728 86H65.5608L65.5698 78.512H64.0218V77H65.5698L65.5608 74.174H67.0728L67.0818 77H69.1248V78.512ZM75.0624 86V73.4H76.5744V84.488H82.2174V86H75.0624ZM87.2841 86.234C86.4561 86.234 85.7001 86.021 85.0161 85.595C84.3381 85.169 83.7951 84.599 83.3871 83.885C82.9851 83.165 82.7841 82.37 82.7841 81.5C82.7841 80.84 82.9011 80.225 83.1351 79.655C83.3691 79.079 83.6901 78.575 84.0981 78.143C84.5121 77.705 84.9921 77.363 85.5381 77.117C86.0841 76.871 86.6661 76.748 87.2841 76.748C88.1121 76.748 88.8651 76.961 89.5431 77.387C90.2271 77.813 90.7701 78.386 91.1721 79.106C91.5801 79.826 91.7841 80.624 91.7841 81.5C91.7841 82.154 91.6671 82.766 91.4331 83.336C91.1991 83.906 90.8751 84.41 90.4611 84.848C90.0531 85.28 89.5761 85.619 89.0301 85.865C88.4901 86.111 87.9081 86.234 87.2841 86.234ZM87.2841 84.722C87.8481 84.722 88.3551 84.575 88.8051 84.281C89.2611 83.981 89.6181 83.588 89.8761 83.102C90.1401 82.61 90.2721 82.076 90.2721 81.5C90.2721 80.912 90.1371 80.372 89.8671 79.88C89.6031 79.388 89.2461 78.995 88.7961 78.701C88.3461 78.407 87.8421 78.26 87.2841 78.26C86.7201 78.26 86.2131 78.41 85.7631 78.71C85.3131 79.004 84.9561 79.397 84.6921 79.889C84.4281 80.381 84.2961 80.918 84.2961 81.5C84.2961 82.1 84.4311 82.646 84.7011 83.138C84.9711 83.624 85.3341 84.011 85.7901 84.299C86.2461 84.581 86.7441 84.722 87.2841 84.722ZM99.4216 83.624L100.772 84.353C100.364 84.923 99.8446 85.379 99.2146 85.721C98.5906 86.063 97.9126 86.234 97.1806 86.234C96.3526 86.234 95.5966 86.021 94.9126 85.595C94.2346 85.169 93.6916 84.599 93.2836 83.885C92.8816 83.165 92.6806 82.37 92.6806 81.5C92.6806 80.84 92.7976 80.225 93.0316 79.655C93.2656 79.079 93.5866 78.575 93.9946 78.143C94.4086 77.705 94.8886 77.363 95.4346 77.117C95.9806 76.871 96.5626 76.748 97.1806 76.748C97.9126 76.748 98.5906 76.919 99.2146 77.261C99.8446 77.603 100.364 78.062 100.772 78.638L99.4216 79.367C99.1336 79.013 98.7916 78.74 98.3956 78.548C97.9996 78.356 97.5946 78.26 97.1806 78.26C96.6226 78.26 96.1156 78.41 95.6596 78.71C95.2096 79.004 94.8526 79.397 94.5886 79.889C94.3246 80.381 94.1926 80.918 94.1926 81.5C94.1926 82.082 94.3246 82.619 94.5886 83.111C94.8586 83.597 95.2186 83.987 95.6686 84.281C96.1246 84.575 96.6286 84.722 97.1806 84.722C97.6246 84.722 98.0416 84.62 98.4316 84.416C98.8216 84.212 99.1516 83.948 99.4216 83.624ZM109.474 77H110.986V86H109.474L109.411 84.479C109.129 85.001 108.739 85.424 108.241 85.748C107.749 86.072 107.161 86.234 106.477 86.234C105.817 86.234 105.199 86.111 104.623 85.865C104.047 85.613 103.537 85.268 103.093 84.83C102.655 84.386 102.313 83.876 102.067 83.3C101.821 82.724 101.698 82.103 101.698 81.437C101.698 80.795 101.818 80.189 102.058 79.619C102.298 79.049 102.631 78.551 103.057 78.125C103.489 77.693 103.987 77.357 104.551 77.117C105.115 76.871 105.721 76.748 106.369 76.748C107.077 76.748 107.698 76.916 108.232 77.252C108.766 77.582 109.198 78.011 109.528 78.539L109.474 77ZM106.45 84.767C107.044 84.767 107.557 84.623 107.989 84.335C108.427 84.041 108.763 83.645 108.997 83.147C109.237 82.649 109.357 82.1 109.357 81.5C109.357 80.888 109.237 80.336 108.997 79.844C108.757 79.346 108.418 78.953 107.98 78.665C107.548 78.371 107.038 78.224 106.45 78.224C105.856 78.224 105.316 78.371 104.83 78.665C104.344 78.959 103.957 79.355 103.669 79.853C103.387 80.345 103.246 80.894 103.246 81.5C103.246 82.106 103.393 82.658 103.687 83.156C103.981 83.648 104.371 84.041 104.857 84.335C105.343 84.623 105.874 84.767 106.45 84.767ZM117.447 78.512H115.404L115.395 86H113.883L113.892 78.512H112.344V77H113.892L113.883 74.174H115.395L115.404 77H117.447V78.512ZM118.973 77H120.485V86H118.973V77ZM119.747 75.533C119.507 75.533 119.306 75.455 119.144 75.299C118.982 75.143 118.901 74.948 118.901 74.714C118.901 74.48 118.982 74.285 119.144 74.129C119.306 73.973 119.504 73.895 119.738 73.895C119.972 73.895 120.17 73.973 120.332 74.129C120.494 74.285 120.575 74.48 120.575 74.714C120.575 74.948 120.494 75.143 120.332 75.299C120.176 75.455 119.981 75.533 119.747 75.533ZM126.483 86.234C125.655 86.234 124.899 86.021 124.215 85.595C123.537 85.169 122.994 84.599 122.586 83.885C122.184 83.165 121.983 82.37 121.983 81.5C121.983 80.84 122.1 80.225 122.334 79.655C122.568 79.079 122.889 78.575 123.297 78.143C123.711 77.705 124.191 77.363 124.737 77.117C125.283 76.871 125.865 76.748 126.483 76.748C127.311 76.748 128.064 76.961 128.742 77.387C129.426 77.813 129.969 78.386 130.371 79.106C130.779 79.826 130.983 80.624 130.983 81.5C130.983 82.154 130.866 82.766 130.632 83.336C130.398 83.906 130.074 84.41 129.66 84.848C129.252 85.28 128.775 85.619 128.229 85.865C127.689 86.111 127.107 86.234 126.483 86.234ZM126.483 84.722C127.047 84.722 127.554 84.575 128.004 84.281C128.46 83.981 128.817 83.588 129.075 83.102C129.339 82.61 129.471 82.076 129.471 81.5C129.471 80.912 129.336 80.372 129.066 79.88C128.802 79.388 128.445 78.995 127.995 78.701C127.545 78.407 127.041 78.26 126.483 78.26C125.919 78.26 125.412 78.41 124.962 78.71C124.512 79.004 124.155 79.397 123.891 79.889C123.627 80.381 123.495 80.918 123.495 81.5C123.495 82.1 123.63 82.646 123.9 83.138C124.17 83.624 124.533 84.011 124.989 84.299C125.445 84.581 125.943 84.722 126.483 84.722ZM140.429 80.402V86H138.917V80.735C138.917 80.279 138.806 79.865 138.584 79.493C138.362 79.121 138.065 78.827 137.693 78.611C137.321 78.389 136.907 78.278 136.451 78.278C136.001 78.278 135.587 78.389 135.209 78.611C134.837 78.827 134.54 79.121 134.318 79.493C134.096 79.865 133.985 80.279 133.985 80.735V86H132.473V77H133.985V78.125C134.303 77.705 134.705 77.372 135.191 77.126C135.677 76.874 136.205 76.748 136.775 76.748C137.447 76.748 138.059 76.913 138.611 77.243C139.169 77.567 139.61 78.005 139.934 78.557C140.264 79.109 140.429 79.724 140.429 80.402Z" fill="#666666"></path><path d="M287.25 76.25L279.75 83.75L272.25 76.25" stroke="white" stroke-width="1.5" stroke-linecap="round" stroke-linejoin="round"></path></svg>