<svg xmlns="http://www.w3.org/2000/svg" width="413" height="69" viewBox="0 0 413 69" fill="none"><rect width="413" height="69" rx="8" fill="#1A1A1A"></rect><rect x="10.5" y="10.5" width="123.333" height="48" rx="7.5" fill="#141414"></rect><rect x="10.5" y="10.5" width="123.333" height="48" rx="7.5" stroke="#262626"></rect><path d="M68.291 29.2H69.712L73.275 39H72.029L71.301 36.998H66.702L65.981 39H64.728L68.291 29.2ZM67.136 35.822H70.867L68.998 30.705L67.136 35.822ZM74.5509 39V28.5H75.7269V39H74.5509ZM77.4084 39V28.5H78.5844V39H77.4084Z" fill="white"></path><rect x="144.832" y="10.5" width="123.333" height="48" rx="7.5" stroke="#262626"></rect><path d="M180.84 39V29.2H184.284C184.807 29.2 185.278 29.3283 185.698 29.585C186.123 29.8417 186.459 30.1893 186.706 30.628C186.958 31.062 187.084 31.5473 187.084 32.084C187.084 32.5553 186.991 32.9847 186.804 33.372C186.617 33.7593 186.361 34.0837 186.034 34.345C185.712 34.6017 185.346 34.779 184.935 34.877L187.315 39H185.957L183.619 34.975H182.016V39H180.84ZM182.016 33.799H184.165C184.482 33.799 184.774 33.722 185.04 33.568C185.306 33.4093 185.516 33.197 185.67 32.931C185.829 32.6603 185.908 32.357 185.908 32.021C185.908 31.6803 185.829 31.377 185.67 31.111C185.516 30.8403 185.306 30.628 185.04 30.474C184.774 30.3153 184.482 30.236 184.165 30.236H182.016V33.799ZM191.549 39.182C190.905 39.182 190.317 39.0163 189.785 38.685C189.258 38.3537 188.835 37.9103 188.518 37.355C188.205 36.795 188.049 36.1767 188.049 35.5C188.049 34.9867 188.14 34.5083 188.322 34.065C188.504 33.617 188.754 33.225 189.071 32.889C189.393 32.5483 189.766 32.2823 190.191 32.091C190.616 31.8997 191.068 31.804 191.549 31.804C192.076 31.804 192.559 31.9113 192.998 32.126C193.441 32.336 193.819 32.63 194.132 33.008C194.449 33.386 194.685 33.8247 194.839 34.324C194.998 34.8233 195.056 35.3577 195.014 35.927H189.302C189.358 36.3237 189.489 36.6783 189.694 36.991C189.899 37.299 190.161 37.544 190.478 37.726C190.8 37.908 191.157 38.0013 191.549 38.006C191.969 38.006 192.349 37.8987 192.69 37.684C193.031 37.4647 193.306 37.166 193.516 36.788L194.713 37.068C194.433 37.6887 194.011 38.1973 193.446 38.594C192.881 38.986 192.249 39.182 191.549 39.182ZM189.267 35.003H193.831C193.794 34.611 193.668 34.254 193.453 33.932C193.238 33.6053 192.965 33.344 192.634 33.148C192.303 32.952 191.941 32.854 191.549 32.854C191.157 32.854 190.798 32.9497 190.471 33.141C190.144 33.3323 189.874 33.5913 189.659 33.918C189.449 34.24 189.318 34.6017 189.267 35.003ZM201.62 32H202.796V39.224C202.796 39.686 202.695 40.1153 202.495 40.512C202.299 40.9133 202.033 41.261 201.697 41.555C201.361 41.8537 200.978 42.0847 200.549 42.248C200.119 42.416 199.671 42.5 199.205 42.5C198.719 42.5 198.25 42.3903 197.798 42.171C197.345 41.9563 196.948 41.667 196.608 41.303C196.272 40.9437 196.029 40.54 195.88 40.092L196.958 39.602C197.046 39.924 197.205 40.2133 197.434 40.47C197.667 40.7313 197.938 40.9367 198.246 41.086C198.558 41.24 198.878 41.317 199.205 41.317C199.513 41.317 199.809 41.2633 200.094 41.156C200.383 41.0487 200.642 40.8993 200.871 40.708C201.104 40.5213 201.286 40.2997 201.417 40.043C201.552 39.791 201.62 39.518 201.62 39.224V37.831C201.382 38.2323 201.067 38.559 200.675 38.811C200.287 39.0583 199.835 39.182 199.317 39.182C198.822 39.182 198.358 39.0863 197.924 38.895C197.49 38.7037 197.109 38.44 196.783 38.104C196.456 37.7633 196.199 37.3713 196.013 36.928C195.826 36.4847 195.733 36.0087 195.733 35.5C195.733 34.9913 195.826 34.5153 196.013 34.072C196.199 33.624 196.456 33.232 196.783 32.896C197.109 32.5553 197.49 32.2893 197.924 32.098C198.358 31.9067 198.822 31.811 199.317 31.811C199.835 31.811 200.287 31.9347 200.675 32.182C201.067 32.4293 201.382 32.756 201.62 33.162V32ZM199.324 38.041C199.776 38.041 200.168 37.9243 200.5 37.691C200.836 37.4577 201.095 37.1473 201.277 36.76C201.459 36.3727 201.55 35.9527 201.55 35.5C201.55 35.0333 201.456 34.6087 201.27 34.226C201.088 33.8387 200.829 33.5307 200.493 33.302C200.161 33.0687 199.772 32.952 199.324 32.952C198.885 32.952 198.484 33.0663 198.12 33.295C197.756 33.5237 197.466 33.8317 197.252 34.219C197.042 34.6017 196.937 35.0287 196.937 35.5C196.937 35.9713 197.044 36.4007 197.259 36.788C197.478 37.1707 197.767 37.4763 198.127 37.705C198.491 37.929 198.89 38.041 199.324 38.041ZM204.383 32H205.559V39H204.383V32ZM204.985 30.859C204.798 30.859 204.642 30.7983 204.516 30.677C204.39 30.5557 204.327 30.404 204.327 30.222C204.327 30.04 204.39 29.8883 204.516 29.767C204.642 29.6457 204.796 29.585 204.978 29.585C205.16 29.585 205.314 29.6457 205.44 29.767C205.566 29.8883 205.629 30.04 205.629 30.222C205.629 30.404 205.566 30.5557 205.44 30.677C205.319 30.7983 205.167 30.859 204.985 30.859ZM210.225 39.182C209.581 39.182 208.993 39.0163 208.461 38.685C207.933 38.3537 207.511 37.9103 207.194 37.355C206.881 36.795 206.725 36.1767 206.725 35.5C206.725 34.9867 206.816 34.5083 206.998 34.065C207.18 33.617 207.429 33.225 207.747 32.889C208.069 32.5483 208.442 32.2823 208.867 32.091C209.291 31.8997 209.744 31.804 210.225 31.804C210.869 31.804 211.454 31.9697 211.982 32.301C212.514 32.6323 212.936 33.078 213.249 33.638C213.566 34.198 213.725 34.8187 213.725 35.5C213.725 36.0087 213.634 36.4847 213.452 36.928C213.27 37.3713 213.018 37.7633 212.696 38.104C212.378 38.44 212.007 38.7037 211.583 38.895C211.163 39.0863 210.71 39.182 210.225 39.182ZM210.225 38.006C210.663 38.006 211.058 37.8917 211.408 37.663C211.762 37.4297 212.04 37.124 212.241 36.746C212.446 36.3633 212.549 35.948 212.549 35.5C212.549 35.0427 212.444 34.6227 212.234 34.24C212.028 33.8573 211.751 33.5517 211.401 33.323C211.051 33.0943 210.659 32.98 210.225 32.98C209.786 32.98 209.392 33.0967 209.042 33.33C208.692 33.5587 208.414 33.8643 208.209 34.247C208.003 34.6297 207.901 35.0473 207.901 35.5C207.901 35.9667 208.006 36.3913 208.216 36.774C208.426 37.152 208.708 37.453 209.063 37.677C209.417 37.8963 209.805 38.006 210.225 38.006ZM221.071 34.646V39H219.895V34.905C219.895 34.5503 219.809 34.2283 219.636 33.939C219.463 33.6497 219.232 33.421 218.943 33.253C218.654 33.0803 218.332 32.994 217.977 32.994C217.627 32.994 217.305 33.0803 217.011 33.253C216.722 33.421 216.491 33.6497 216.318 33.939C216.145 34.2283 216.059 34.5503 216.059 34.905V39H214.883V32H216.059V32.875C216.306 32.5483 216.619 32.2893 216.997 32.098C217.375 31.902 217.786 31.804 218.229 31.804C218.752 31.804 219.228 31.9323 219.657 32.189C220.091 32.441 220.434 32.7817 220.686 33.211C220.943 33.6403 221.071 34.1187 221.071 34.646ZM227.962 32H229.138V39H227.962L227.913 37.817C227.694 38.223 227.39 38.552 227.003 38.804C226.62 39.056 226.163 39.182 225.631 39.182C225.118 39.182 224.637 39.0863 224.189 38.895C223.741 38.699 223.344 38.4307 222.999 38.09C222.658 37.7447 222.392 37.348 222.201 36.9C222.01 36.452 221.914 35.969 221.914 35.451C221.914 34.9517 222.007 34.4803 222.194 34.037C222.381 33.5937 222.64 33.2063 222.971 32.875C223.307 32.539 223.694 32.2777 224.133 32.091C224.572 31.8997 225.043 31.804 225.547 31.804C226.098 31.804 226.581 31.9347 226.996 32.196C227.411 32.4527 227.747 32.7863 228.004 33.197L227.962 32ZM225.61 38.041C226.072 38.041 226.471 37.929 226.807 37.705C227.148 37.4763 227.409 37.1683 227.591 36.781C227.778 36.3937 227.871 35.9667 227.871 35.5C227.871 35.024 227.778 34.5947 227.591 34.212C227.404 33.8247 227.141 33.519 226.8 33.295C226.464 33.0663 226.067 32.952 225.61 32.952C225.148 32.952 224.728 33.0663 224.35 33.295C223.972 33.5237 223.671 33.8317 223.447 34.219C223.228 34.6017 223.118 35.0287 223.118 35.5C223.118 35.9713 223.232 36.4007 223.461 36.788C223.69 37.1707 223.993 37.4763 224.371 37.705C224.749 37.929 225.162 38.041 225.61 38.041ZM230.619 39V28.5H231.795V39H230.619Z" fill="white"></path><rect x="279.168" y="10.5" width="123.333" height="48" rx="7.5" stroke="#262626"></rect><path d="M302.886 39V29.2H304.062V39H302.886ZM312.145 34.646V39H310.969V34.905C310.969 34.5503 310.883 34.2283 310.71 33.939C310.538 33.6497 310.307 33.421 310.017 33.253C309.728 33.0803 309.406 32.994 309.051 32.994C308.701 32.994 308.379 33.0803 308.085 33.253C307.796 33.421 307.565 33.6497 307.392 33.939C307.22 34.2283 307.133 34.5503 307.133 34.905V39H305.957V32H307.133V32.875C307.381 32.5483 307.693 32.2893 308.071 32.098C308.449 31.902 308.86 31.804 309.303 31.804C309.826 31.804 310.302 31.9323 310.731 32.189C311.165 32.441 311.508 32.7817 311.76 33.211C312.017 33.6403 312.145 34.1187 312.145 34.646ZM317.171 33.176H315.582L315.575 39H314.399L314.406 33.176H313.202V32H314.406L314.399 29.802H315.575L315.582 32H317.171V33.176ZM321.328 39.182C320.684 39.182 320.096 39.0163 319.564 38.685C319.037 38.3537 318.615 37.9103 318.297 37.355C317.985 36.795 317.828 36.1767 317.828 35.5C317.828 34.9867 317.919 34.5083 318.101 34.065C318.283 33.617 318.533 33.225 318.85 32.889C319.172 32.5483 319.546 32.2823 319.97 32.091C320.395 31.8997 320.848 31.804 321.328 31.804C321.856 31.804 322.339 31.9113 322.777 32.126C323.221 32.336 323.599 32.63 323.911 33.008C324.229 33.386 324.464 33.8247 324.618 34.324C324.777 34.8233 324.835 35.3577 324.793 35.927H319.081C319.137 36.3237 319.268 36.6783 319.473 36.991C319.679 37.299 319.94 37.544 320.257 37.726C320.579 37.908 320.936 38.0013 321.328 38.006C321.748 38.006 322.129 37.8987 322.469 37.684C322.81 37.4647 323.085 37.166 323.295 36.788L324.492 37.068C324.212 37.6887 323.79 38.1973 323.225 38.594C322.661 38.986 322.028 39.182 321.328 39.182ZM319.046 35.003H323.61C323.573 34.611 323.447 34.254 323.232 33.932C323.018 33.6053 322.745 33.344 322.413 33.148C322.082 32.952 321.72 32.854 321.328 32.854C320.936 32.854 320.577 32.9497 320.25 33.141C319.924 33.3323 319.653 33.5913 319.438 33.918C319.228 34.24 319.098 34.6017 319.046 35.003ZM325.973 39V32H327.149V32.875C327.396 32.5483 327.709 32.2893 328.087 32.098C328.465 31.902 328.875 31.804 329.319 31.804C329.589 31.804 329.851 31.839 330.103 31.909L329.627 33.085C329.435 33.0243 329.249 32.994 329.067 32.994C328.717 32.994 328.395 33.0803 328.101 33.253C327.811 33.421 327.58 33.6497 327.408 33.939C327.235 34.2283 327.149 34.5503 327.149 34.905V39H325.973ZM337.178 34.646V39H336.002V34.905C336.002 34.5503 335.916 34.2283 335.743 33.939C335.571 33.6497 335.34 33.421 335.05 33.253C334.761 33.0803 334.439 32.994 334.084 32.994C333.734 32.994 333.412 33.0803 333.118 33.253C332.829 33.421 332.598 33.6497 332.425 33.939C332.253 34.2283 332.166 34.5503 332.166 34.905V39H330.99V32H332.166V32.875C332.414 32.5483 332.726 32.2893 333.104 32.098C333.482 31.902 333.893 31.804 334.336 31.804C334.859 31.804 335.335 31.9323 335.764 32.189C336.198 32.441 336.541 32.7817 336.793 33.211C337.05 33.6403 337.178 34.1187 337.178 34.646ZM344.07 32H345.246V39H344.07L344.021 37.817C343.801 38.223 343.498 38.552 343.111 38.804C342.728 39.056 342.271 39.182 341.739 39.182C341.225 39.182 340.745 39.0863 340.297 38.895C339.849 38.699 339.452 38.4307 339.107 38.09C338.766 37.7447 338.5 37.348 338.309 36.9C338.117 36.452 338.022 35.969 338.022 35.451C338.022 34.9517 338.115 34.4803 338.302 34.037C338.488 33.5937 338.747 33.2063 339.079 32.875C339.415 32.539 339.802 32.2777 340.241 32.091C340.679 31.8997 341.151 31.804 341.655 31.804C342.205 31.804 342.688 31.9347 343.104 32.196C343.519 32.4527 343.855 32.7863 344.112 33.197L344.07 32ZM341.718 38.041C342.18 38.041 342.579 37.929 342.915 37.705C343.255 37.4763 343.517 37.1683 343.699 36.781C343.885 36.3937 343.979 35.9667 343.979 35.5C343.979 35.024 343.885 34.5947 343.699 34.212C343.512 33.8247 343.248 33.519 342.908 33.295C342.572 33.0663 342.175 32.952 341.718 32.952C341.256 32.952 340.836 33.0663 340.458 33.295C340.08 33.5237 339.779 33.8317 339.555 34.219C339.335 34.6017 339.226 35.0287 339.226 35.5C339.226 35.9713 339.34 36.4007 339.569 36.788C339.797 37.1707 340.101 37.4763 340.479 37.705C340.857 37.929 341.27 38.041 341.718 38.041ZM350.271 33.176H348.682L348.675 39H347.499L347.506 33.176H346.302V32H347.506L347.499 29.802H348.675L348.682 32H350.271V33.176ZM351.457 32H352.633V39H351.457V32ZM352.059 30.859C351.873 30.859 351.716 30.7983 351.59 30.677C351.464 30.5557 351.401 30.404 351.401 30.222C351.401 30.04 351.464 29.8883 351.59 29.767C351.716 29.6457 351.87 29.585 352.052 29.585C352.234 29.585 352.388 29.6457 352.514 29.767C352.64 29.8883 352.703 30.04 352.703 30.222C352.703 30.404 352.64 30.5557 352.514 30.677C352.393 30.7983 352.241 30.859 352.059 30.859ZM357.299 39.182C356.655 39.182 356.067 39.0163 355.535 38.685C355.008 38.3537 354.585 37.9103 354.268 37.355C353.955 36.795 353.799 36.1767 353.799 35.5C353.799 34.9867 353.89 34.5083 354.072 34.065C354.254 33.617 354.504 33.225 354.821 32.889C355.143 32.5483 355.516 32.2823 355.941 32.091C356.366 31.8997 356.818 31.804 357.299 31.804C357.943 31.804 358.529 31.9697 359.056 32.301C359.588 32.6323 360.01 33.078 360.323 33.638C360.64 34.198 360.799 34.8187 360.799 35.5C360.799 36.0087 360.708 36.4847 360.526 36.928C360.344 37.3713 360.092 37.7633 359.77 38.104C359.453 38.44 359.082 38.7037 358.657 38.895C358.237 39.0863 357.784 39.182 357.299 39.182ZM357.299 38.006C357.738 38.006 358.132 37.8917 358.482 37.663C358.837 37.4297 359.114 37.124 359.315 36.746C359.52 36.3633 359.623 35.948 359.623 35.5C359.623 35.0427 359.518 34.6227 359.308 34.24C359.103 33.8573 358.825 33.5517 358.475 33.323C358.125 33.0943 357.733 32.98 357.299 32.98C356.86 32.98 356.466 33.0967 356.116 33.33C355.766 33.5587 355.488 33.8643 355.283 34.247C355.078 34.6297 354.975 35.0473 354.975 35.5C354.975 35.9667 355.08 36.3913 355.29 36.774C355.5 37.152 355.782 37.453 356.137 37.677C356.492 37.8963 356.879 38.006 357.299 38.006ZM368.145 34.646V39H366.969V34.905C366.969 34.5503 366.883 34.2283 366.71 33.939C366.538 33.6497 366.307 33.421 366.017 33.253C365.728 33.0803 365.406 32.994 365.051 32.994C364.701 32.994 364.379 33.0803 364.085 33.253C363.796 33.421 363.565 33.6497 363.392 33.939C363.22 34.2283 363.133 34.5503 363.133 34.905V39H361.957V32H363.133V32.875C363.381 32.5483 363.693 32.2893 364.071 32.098C364.449 31.902 364.86 31.804 365.303 31.804C365.826 31.804 366.302 31.9323 366.731 32.189C367.165 32.441 367.508 32.7817 367.76 33.211C368.017 33.6403 368.145 34.1187 368.145 34.646ZM375.036 32H376.212V39H375.036L374.987 37.817C374.768 38.223 374.465 38.552 374.077 38.804C373.695 39.056 373.237 39.182 372.705 39.182C372.192 39.182 371.711 39.0863 371.263 38.895C370.815 38.699 370.419 38.4307 370.073 38.09C369.733 37.7447 369.467 37.348 369.275 36.9C369.084 36.452 368.988 35.969 368.988 35.451C368.988 34.9517 369.082 34.4803 369.268 34.037C369.455 33.5937 369.714 33.2063 370.045 32.875C370.381 32.539 370.769 32.2777 371.207 32.091C371.646 31.8997 372.117 31.804 372.621 31.804C373.172 31.804 373.655 31.9347 374.07 32.196C374.486 32.4527 374.822 32.7863 375.078 33.197L375.036 32ZM372.684 38.041C373.146 38.041 373.545 37.929 373.881 37.705C374.222 37.4763 374.483 37.1683 374.665 36.781C374.852 36.3937 374.945 35.9667 374.945 35.5C374.945 35.024 374.852 34.5947 374.665 34.212C374.479 33.8247 374.215 33.519 373.874 33.295C373.538 33.0663 373.142 32.952 372.684 32.952C372.222 32.952 371.802 33.0663 371.424 33.295C371.046 33.5237 370.745 33.8317 370.521 34.219C370.302 34.6017 370.192 35.0287 370.192 35.5C370.192 35.9713 370.307 36.4007 370.535 36.788C370.764 37.1707 371.067 37.4763 371.445 37.705C371.823 37.929 372.236 38.041 372.684 38.041ZM377.694 39V28.5H378.87V39H377.694Z" fill="white"></path></svg>