<svg xmlns="http://www.w3.org/2000/svg" width="194" height="99" viewBox="0 0 194 99" fill="none"><rect x="1.1665" y="0.5" width="191.667" height="98" rx="9.5" fill="#1A1A1A"></rect><rect x="1.1665" y="0.5" width="191.667" height="98" rx="9.5" stroke="#262626"></rect><path d="M24.5065 47V29.66H21.8665L22.8565 26H28.1665V47H24.5065ZM39.6438 47.39C38.4238 47.39 37.3138 47.11 36.3138 46.55C35.3138 45.98 34.4488 45.195 33.7188 44.195C32.9988 43.195 32.4438 42.04 32.0538 40.73C31.6638 39.41 31.4688 38 31.4688 36.5C31.4688 35 31.6638 33.595 32.0538 32.285C32.4438 30.965 32.9988 29.805 33.7188 28.805C34.4488 27.805 35.3138 27.025 36.3138 26.465C37.3138 25.895 38.4238 25.61 39.6438 25.61C40.8638 25.61 41.9738 25.895 42.9738 26.465C43.9738 27.025 44.8288 27.805 45.5388 28.805C46.2588 29.805 46.8138 30.965 47.2038 32.285C47.6038 33.595 47.8038 35 47.8038 36.5C47.8038 38 47.6038 39.41 47.2038 40.73C46.8138 42.04 46.2588 43.195 45.5388 44.195C44.8288 45.195 43.9738 45.98 42.9738 46.55C41.9738 47.11 40.8638 47.39 39.6438 47.39ZM39.6438 43.73C40.7138 43.73 41.5988 43.39 42.2988 42.71C42.9988 42.03 43.5188 41.14 43.8588 40.04C44.1988 38.94 44.3688 37.76 44.3688 36.5C44.3688 35.17 44.1888 33.96 43.8288 32.87C43.4688 31.77 42.9388 30.895 42.2388 30.245C41.5388 29.595 40.6738 29.27 39.6438 29.27C38.8338 29.27 38.1288 29.47 37.5288 29.87C36.9388 30.26 36.4488 30.795 36.0588 31.475C35.6688 32.155 35.3788 32.93 35.1888 33.8C34.9988 34.66 34.9038 35.56 34.9038 36.5C34.9038 37.75 35.0738 38.93 35.4138 40.04C35.7638 41.14 36.2888 42.03 36.9888 42.71C37.6988 43.39 38.5838 43.73 39.6438 43.73ZM63.8986 47H59.6836L56.2636 41.105L54.1636 43.61V47H50.5036V24.5H54.1636V37.925L59.1286 32H63.9136L58.7686 38.135L63.8986 47ZM71.6283 45.5V39.83H65.9583V36.17H71.6283V30.5H75.2883V36.17H80.9583V39.83H75.2883V45.5H71.6283Z" fill="white"></path><path d="M21.6265 79V67.8H25.3225C25.9252 67.8 26.4665 67.9467 26.9465 68.24C27.4318 68.5333 27.8158 68.9307 28.0985 69.432C28.3865 69.928 28.5305 70.4827 28.5305 71.096C28.5305 71.72 28.3838 72.2827 28.0905 72.784C27.8025 73.28 27.4132 73.6747 26.9225 73.968C26.4372 74.256 25.9038 74.4 25.3225 74.4H22.9705V79H21.6265ZM22.9705 73.056H25.2025C25.5652 73.056 25.8958 72.968 26.1945 72.792C26.4985 72.6107 26.7385 72.368 26.9145 72.064C27.0958 71.7547 27.1865 71.408 27.1865 71.024C27.1865 70.6347 27.0958 70.288 26.9145 69.984C26.7385 69.6747 26.4985 69.432 26.1945 69.256C25.8958 69.0747 25.5652 68.984 25.2025 68.984H22.9705V73.056ZM29.9078 79V71H31.2518V72C31.5344 71.6267 31.8918 71.3307 32.3238 71.112C32.7558 70.888 33.2251 70.776 33.7318 70.776C34.0411 70.776 34.3398 70.816 34.6278 70.896L34.0838 72.24C33.8651 72.1707 33.6518 72.136 33.4438 72.136C33.0438 72.136 32.6758 72.2347 32.3398 72.432C32.0091 72.624 31.7451 72.8853 31.5478 73.216C31.3504 73.5467 31.2518 73.9147 31.2518 74.32V79H29.9078ZM38.7246 79.208C37.9886 79.208 37.3166 79.0187 36.7086 78.64C36.106 78.2613 35.6233 77.7547 35.2606 77.12C34.9033 76.48 34.7246 75.7733 34.7246 75C34.7246 74.4133 34.8286 73.8667 35.0366 73.36C35.2446 72.848 35.53 72.4 35.8926 72.016C36.2606 71.6267 36.6873 71.3227 37.1726 71.104C37.658 70.8853 38.1753 70.776 38.7246 70.776C39.4606 70.776 40.13 70.9653 40.7326 71.344C41.3406 71.7227 41.8233 72.232 42.1806 72.872C42.5433 73.512 42.7246 74.2213 42.7246 75C42.7246 75.5813 42.6206 76.1253 42.4126 76.632C42.2046 77.1387 41.9166 77.5867 41.5486 77.976C41.186 78.36 40.762 78.6613 40.2766 78.88C39.7966 79.0987 39.2793 79.208 38.7246 79.208ZM38.7246 77.864C39.226 77.864 39.6766 77.7333 40.0766 77.472C40.482 77.2053 40.7993 76.856 41.0286 76.424C41.2633 75.9867 41.3806 75.512 41.3806 75C41.3806 74.4773 41.2606 73.9973 41.0206 73.56C40.786 73.1227 40.4686 72.7733 40.0686 72.512C39.6686 72.2507 39.2206 72.12 38.7246 72.12C38.2233 72.12 37.7726 72.2533 37.3726 72.52C36.9726 72.7813 36.6553 73.1307 36.4206 73.568C36.186 74.0053 36.0686 74.4827 36.0686 75C36.0686 75.5333 36.1886 76.0187 36.4286 76.456C36.6686 76.888 36.9913 77.232 37.3966 77.488C37.802 77.7387 38.2446 77.864 38.7246 77.864ZM45.3924 83H44.0484V71H45.3924V72.368C45.6644 71.8987 46.027 71.52 46.4804 71.232C46.9337 70.9387 47.4724 70.792 48.0964 70.792C48.6777 70.792 49.2217 70.9013 49.7284 71.12C50.2404 71.3387 50.6884 71.6427 51.0724 72.032C51.4564 72.416 51.7577 72.8613 51.9764 73.368C52.195 73.8747 52.3044 74.4187 52.3044 75C52.3044 75.5813 52.195 76.128 51.9764 76.64C51.7577 77.152 51.4564 77.6027 51.0724 77.992C50.6884 78.376 50.2404 78.6773 49.7284 78.896C49.2217 79.1147 48.6777 79.224 48.0964 79.224C47.4724 79.224 46.9337 79.08 46.4804 78.792C46.027 78.4987 45.6644 78.1173 45.3924 77.648V83ZM48.0804 72.096C47.563 72.096 47.1097 72.2267 46.7204 72.488C46.331 72.7493 46.0297 73.0987 45.8164 73.536C45.6084 73.9733 45.5044 74.4613 45.5044 75C45.5044 75.5333 45.6084 76.0213 45.8164 76.464C46.0297 76.9067 46.3284 77.2587 46.7124 77.52C47.1017 77.7813 47.5577 77.912 48.0804 77.912C48.5977 77.912 49.0724 77.784 49.5044 77.528C49.9364 77.2667 50.283 76.9173 50.5444 76.48C50.8057 76.0373 50.9364 75.544 50.9364 75C50.9364 74.4667 50.8084 73.9813 50.5524 73.544C50.2964 73.1013 49.9524 72.7493 49.5204 72.488C49.0884 72.2267 48.6084 72.096 48.0804 72.096ZM57.1153 79.208C56.3793 79.208 55.7073 79.0187 55.0993 78.64C54.4966 78.2613 54.0139 77.7547 53.6513 77.12C53.2939 76.48 53.1153 75.7733 53.1153 75C53.1153 74.4133 53.2193 73.8667 53.4273 73.36C53.6353 72.848 53.9206 72.4 54.2833 72.016C54.6513 71.6267 55.0779 71.3227 55.5633 71.104C56.0486 70.8853 56.5659 70.776 57.1153 70.776C57.7179 70.776 58.2699 70.8987 58.7713 71.144C59.2779 71.384 59.7099 71.72 60.0673 72.152C60.4299 72.584 60.6993 73.0853 60.8753 73.656C61.0566 74.2267 61.1233 74.8373 61.0753 75.488H54.5473C54.6113 75.9413 54.7606 76.3467 54.9953 76.704C55.2299 77.056 55.5286 77.336 55.8913 77.544C56.2593 77.752 56.6673 77.8587 57.1153 77.864C57.5953 77.864 58.0299 77.7413 58.4193 77.496C58.8086 77.2453 59.1233 76.904 59.3633 76.472L60.7313 76.792C60.4113 77.5013 59.9286 78.0827 59.2833 78.536C58.6379 78.984 57.9153 79.208 57.1153 79.208ZM54.5073 74.432H59.7233C59.6806 73.984 59.5366 73.576 59.2913 73.208C59.0459 72.8347 58.7339 72.536 58.3553 72.312C57.9766 72.088 57.5633 71.976 57.1153 71.976C56.6673 71.976 56.2566 72.0853 55.8833 72.304C55.5099 72.5227 55.2006 72.8187 54.9553 73.192C54.7153 73.56 54.5659 73.9733 54.5073 74.432ZM62.4234 79V71H63.7674V72C64.05 71.6267 64.4074 71.3307 64.8394 71.112C65.2714 70.888 65.7407 70.776 66.2474 70.776C66.5567 70.776 66.8554 70.816 67.1434 70.896L66.5994 72.24C66.3807 72.1707 66.1674 72.136 65.9594 72.136C65.5594 72.136 65.1914 72.2347 64.8554 72.432C64.5247 72.624 64.2607 72.8853 64.0634 73.216C63.866 73.5467 63.7674 73.9147 63.7674 74.32V79H62.4234ZM72.4111 72.344H70.5951L70.5871 79H69.2431L69.2511 72.344H67.8751V71H69.2511L69.2431 68.488H70.5871L70.5951 71H72.4111V72.344ZM73.7671 71H75.1111V79H73.7671V71ZM74.4551 69.696C74.2418 69.696 74.0631 69.6267 73.9191 69.488C73.7751 69.3493 73.7031 69.176 73.7031 68.968C73.7031 68.76 73.7751 68.5867 73.9191 68.448C74.0631 68.3093 74.2391 68.24 74.4471 68.24C74.6551 68.24 74.8311 68.3093 74.9751 68.448C75.1191 68.5867 75.1911 68.76 75.1911 68.968C75.1911 69.176 75.1191 69.3493 74.9751 69.488C74.8365 69.6267 74.6631 69.696 74.4551 69.696ZM80.4434 79.208C79.7074 79.208 79.0354 79.0187 78.4274 78.64C77.8247 78.2613 77.342 77.7547 76.9794 77.12C76.622 76.48 76.4434 75.7733 76.4434 75C76.4434 74.4133 76.5474 73.8667 76.7554 73.36C76.9634 72.848 77.2487 72.4 77.6114 72.016C77.9794 71.6267 78.406 71.3227 78.8914 71.104C79.3767 70.8853 79.894 70.776 80.4434 70.776C81.046 70.776 81.598 70.8987 82.0994 71.144C82.606 71.384 83.038 71.72 83.3954 72.152C83.758 72.584 84.0274 73.0853 84.2034 73.656C84.3847 74.2267 84.4514 74.8373 84.4034 75.488H77.8754C77.9394 75.9413 78.0887 76.3467 78.3234 76.704C78.558 77.056 78.8567 77.336 79.2194 77.544C79.5874 77.752 79.9954 77.8587 80.4434 77.864C80.9234 77.864 81.358 77.7413 81.7474 77.496C82.1367 77.2453 82.4514 76.904 82.6914 76.472L84.0594 76.792C83.7394 77.5013 83.2567 78.0827 82.6114 78.536C81.966 78.984 81.2434 79.208 80.4434 79.208ZM77.8354 74.432H83.0514C83.0087 73.984 82.8647 73.576 82.6194 73.208C82.374 72.8347 82.062 72.536 81.6834 72.312C81.3047 72.088 80.8914 71.976 80.4434 71.976C79.9954 71.976 79.5847 72.0853 79.2114 72.304C78.838 72.5227 78.5287 72.8187 78.2834 73.192C78.0434 73.56 77.894 73.9733 77.8354 74.432ZM88.2228 79.152C87.7908 79.136 87.3694 79.056 86.9588 78.912C86.5534 78.7627 86.1961 78.5627 85.8868 78.312C85.5828 78.056 85.3614 77.7627 85.2228 77.432L86.3748 76.936C86.4548 77.1173 86.5988 77.288 86.8068 77.448C87.0148 77.608 87.2548 77.736 87.5268 77.832C87.7988 77.928 88.0734 77.976 88.3508 77.976C88.6441 77.976 88.9188 77.9307 89.1748 77.84C89.4308 77.7493 89.6388 77.616 89.7988 77.44C89.9641 77.2587 90.0468 77.0427 90.0468 76.792C90.0468 76.5253 89.9561 76.3173 89.7748 76.168C89.5988 76.0133 89.3748 75.8933 89.1028 75.808C88.8361 75.7173 88.5641 75.632 88.2868 75.552C87.7374 75.4133 87.2468 75.248 86.8148 75.056C86.3828 74.8587 86.0414 74.6107 85.7908 74.312C85.5454 74.008 85.4228 73.6213 85.4228 73.152C85.4228 72.656 85.5588 72.2267 85.8308 71.864C86.1081 71.5013 86.4708 71.2213 86.9188 71.024C87.3668 70.8267 87.8468 70.728 88.3588 70.728C89.0041 70.728 89.5934 70.8667 90.1268 71.144C90.6601 71.4213 91.0574 71.7973 91.3188 72.272L90.2388 72.904C90.1481 72.712 90.0094 72.544 89.8228 72.4C89.6361 72.2507 89.4228 72.1333 89.1828 72.048C88.9428 71.9627 88.6974 71.9173 88.4468 71.912C88.1374 71.9013 87.8468 71.9413 87.5748 72.032C87.3081 72.1227 87.0921 72.2613 86.9268 72.448C86.7668 72.6293 86.6868 72.856 86.6868 73.128C86.6868 73.3947 86.7721 73.5973 86.9428 73.736C87.1188 73.8747 87.3454 73.9867 87.6228 74.072C87.9054 74.152 88.2121 74.2453 88.5428 74.352C89.0281 74.5067 89.4814 74.6853 89.9028 74.888C90.3241 75.0907 90.6628 75.344 90.9188 75.648C91.1801 75.952 91.3081 76.328 91.3028 76.776C91.3028 77.2667 91.1561 77.696 90.8628 78.064C90.5694 78.4267 90.1881 78.704 89.7188 78.896C89.2548 79.088 88.7561 79.1733 88.2228 79.152ZM96.5171 79V67.8H103.085V69.144H97.8611V72.328H102.317V73.672H97.8611V79H96.5171ZM106.975 79.208C106.239 79.208 105.567 79.0187 104.959 78.64C104.356 78.2613 103.873 77.7547 103.511 77.12C103.153 76.48 102.975 75.7733 102.975 75C102.975 74.4133 103.079 73.8667 103.287 73.36C103.495 72.848 103.78 72.4 104.143 72.016C104.511 71.6267 104.937 71.3227 105.423 71.104C105.908 70.8853 106.425 70.776 106.975 70.776C107.711 70.776 108.38 70.9653 108.983 71.344C109.591 71.7227 110.073 72.232 110.431 72.872C110.793 73.512 110.975 74.2213 110.975 75C110.975 75.5813 110.871 76.1253 110.663 76.632C110.455 77.1387 110.167 77.5867 109.799 77.976C109.436 78.36 109.012 78.6613 108.527 78.88C108.047 79.0987 107.529 79.208 106.975 79.208ZM106.975 77.864C107.476 77.864 107.927 77.7333 108.327 77.472C108.732 77.2053 109.049 76.856 109.279 76.424C109.513 75.9867 109.631 75.512 109.631 75C109.631 74.4773 109.511 73.9973 109.271 73.56C109.036 73.1227 108.719 72.7733 108.319 72.512C107.919 72.2507 107.471 72.12 106.975 72.12C106.473 72.12 106.023 72.2533 105.623 72.52C105.223 72.7813 104.905 73.1307 104.671 73.568C104.436 74.0053 104.319 74.4827 104.319 75C104.319 75.5333 104.439 76.0187 104.679 76.456C104.919 76.888 105.241 77.232 105.647 77.488C106.052 77.7387 106.495 77.864 106.975 77.864ZM112.298 79V71H113.642V72C113.925 71.6267 114.282 71.3307 114.714 71.112C115.146 70.888 115.616 70.776 116.122 70.776C116.432 70.776 116.73 70.816 117.018 70.896L116.474 72.24C116.256 72.1707 116.042 72.136 115.834 72.136C115.434 72.136 115.066 72.2347 114.73 72.432C114.4 72.624 114.136 72.8853 113.938 73.216C113.741 73.5467 113.642 73.9147 113.642 74.32V79H112.298ZM127.17 79.208C126.413 79.208 125.701 79.0587 125.034 78.76C124.367 78.456 123.781 78.04 123.274 77.512C122.773 76.9787 122.378 76.36 122.09 75.656C121.807 74.952 121.666 74.2 121.666 73.4C121.666 72.6 121.807 71.848 122.09 71.144C122.378 70.44 122.773 69.824 123.274 69.296C123.781 68.7627 124.367 68.3467 125.034 68.048C125.701 67.744 126.413 67.592 127.17 67.592C128.077 67.592 128.911 67.8027 129.674 68.224C130.437 68.6453 131.069 69.2053 131.57 69.904L130.378 70.544C130.005 70.0533 129.533 69.664 128.962 69.376C128.397 69.0827 127.799 68.936 127.17 68.936C126.589 68.936 126.045 69.0533 125.538 69.288C125.037 69.5227 124.597 69.8453 124.218 70.256C123.839 70.6667 123.543 71.1413 123.33 71.68C123.117 72.2187 123.01 72.792 123.01 73.4C123.01 74.0133 123.117 74.5893 123.33 75.128C123.549 75.6667 123.847 76.1413 124.226 76.552C124.61 76.9627 125.053 77.2853 125.554 77.52C126.061 77.7493 126.599 77.864 127.17 77.864C127.821 77.864 128.423 77.7173 128.978 77.424C129.538 77.1253 130.005 76.736 130.378 76.256L131.57 76.904C131.069 77.6027 130.437 78.1627 129.674 78.584C128.911 79 128.077 79.208 127.17 79.208ZM133.189 79V67H134.533V79H133.189ZM136.455 71H137.799V79H136.455V71ZM137.143 69.696C136.929 69.696 136.751 69.6267 136.607 69.488C136.463 69.3493 136.391 69.176 136.391 68.968C136.391 68.76 136.463 68.5867 136.607 68.448C136.751 68.3093 136.927 68.24 137.135 68.24C137.343 68.24 137.519 68.3093 137.663 68.448C137.807 68.5867 137.879 68.76 137.879 68.968C137.879 69.176 137.807 69.3493 137.663 69.488C137.524 69.6267 137.351 69.696 137.143 69.696ZM143.131 79.208C142.395 79.208 141.723 79.0187 141.115 78.64C140.512 78.2613 140.03 77.7547 139.667 77.12C139.31 76.48 139.131 75.7733 139.131 75C139.131 74.4133 139.235 73.8667 139.443 73.36C139.651 72.848 139.936 72.4 140.299 72.016C140.667 71.6267 141.094 71.3227 141.579 71.104C142.064 70.8853 142.582 70.776 143.131 70.776C143.734 70.776 144.286 70.8987 144.787 71.144C145.294 71.384 145.726 71.72 146.083 72.152C146.446 72.584 146.715 73.0853 146.891 73.656C147.072 74.2267 147.139 74.8373 147.091 75.488H140.563C140.627 75.9413 140.776 76.3467 141.011 76.704C141.246 77.056 141.544 77.336 141.907 77.544C142.275 77.752 142.683 77.8587 143.131 77.864C143.611 77.864 144.046 77.7413 144.435 77.496C144.824 77.2453 145.139 76.904 145.379 76.472L146.747 76.792C146.427 77.5013 145.944 78.0827 145.299 78.536C144.654 78.984 143.931 79.208 143.131 79.208ZM140.523 74.432H145.739C145.696 73.984 145.552 73.576 145.307 73.208C145.062 72.8347 144.75 72.536 144.371 72.312C143.992 72.088 143.579 71.976 143.131 71.976C142.683 71.976 142.272 72.0853 141.899 72.304C141.526 72.5227 141.216 72.8187 140.971 73.192C140.731 73.56 140.582 73.9733 140.523 74.432ZM155.511 74.024V79H154.167V74.32C154.167 73.9147 154.068 73.5467 153.871 73.216C153.674 72.8853 153.41 72.624 153.079 72.432C152.748 72.2347 152.38 72.136 151.975 72.136C151.575 72.136 151.207 72.2347 150.871 72.432C150.54 72.624 150.276 72.8853 150.079 73.216C149.882 73.5467 149.783 73.9147 149.783 74.32V79H148.439V71H149.783V72C150.066 71.6267 150.423 71.3307 150.855 71.112C151.287 70.888 151.756 70.776 152.263 70.776C152.86 70.776 153.404 70.9227 153.895 71.216C154.391 71.504 154.783 71.8933 155.071 72.384C155.364 72.8747 155.511 73.4213 155.511 74.024ZM161.255 72.344H159.439L159.431 79H158.087L158.095 72.344H156.719V71H158.095L158.087 68.488H159.431L159.439 71H161.255V72.344ZM165.051 79.152C164.619 79.136 164.198 79.056 163.787 78.912C163.382 78.7627 163.024 78.5627 162.715 78.312C162.411 78.056 162.19 77.7627 162.051 77.432L163.203 76.936C163.283 77.1173 163.427 77.288 163.635 77.448C163.843 77.608 164.083 77.736 164.355 77.832C164.627 77.928 164.902 77.976 165.179 77.976C165.472 77.976 165.747 77.9307 166.003 77.84C166.259 77.7493 166.467 77.616 166.627 77.44C166.792 77.2587 166.875 77.0427 166.875 76.792C166.875 76.5253 166.784 76.3173 166.603 76.168C166.427 76.0133 166.203 75.8933 165.931 75.808C165.664 75.7173 165.392 75.632 165.115 75.552C164.566 75.4133 164.075 75.248 163.643 75.056C163.211 74.8587 162.87 74.6107 162.619 74.312C162.374 74.008 162.251 73.6213 162.251 73.152C162.251 72.656 162.387 72.2267 162.659 71.864C162.936 71.5013 163.299 71.2213 163.747 71.024C164.195 70.8267 164.675 70.728 165.187 70.728C165.832 70.728 166.422 70.8667 166.955 71.144C167.488 71.4213 167.886 71.7973 168.147 72.272L167.067 72.904C166.976 72.712 166.838 72.544 166.651 72.4C166.464 72.2507 166.251 72.1333 166.011 72.048C165.771 71.9627 165.526 71.9173 165.275 71.912C164.966 71.9013 164.675 71.9413 164.403 72.032C164.136 72.1227 163.92 72.2613 163.755 72.448C163.595 72.6293 163.515 72.856 163.515 73.128C163.515 73.3947 163.6 73.5973 163.771 73.736C163.947 73.8747 164.174 73.9867 164.451 74.072C164.734 74.152 165.04 74.2453 165.371 74.352C165.856 74.5067 166.31 74.6853 166.731 74.888C167.152 75.0907 167.491 75.344 167.747 75.648C168.008 75.952 168.136 76.328 168.131 76.776C168.131 77.2667 167.984 77.696 167.691 78.064C167.398 78.4267 167.016 78.704 166.547 78.896C166.083 79.088 165.584 79.1733 165.051 79.152Z" fill="#999999"></path></svg>