<svg xmlns="http://www.w3.org/2000/svg" width="463" height="63" viewBox="0 0 463 63" fill="none"><g clip-path="url(#clip0_166_1128)"><path d="M0.84 15V5.2H4.074C4.60133 5.2 5.075 5.32833 5.495 5.585C5.91967 5.84167 6.25567 6.18933 6.503 6.628C6.755 7.062 6.881 7.54733 6.881 8.084C6.881 8.63 6.75267 9.12233 6.496 9.561C6.244 9.995 5.90333 10.3403 5.474 10.597C5.04933 10.849 4.58267 10.975 4.074 10.975H2.016V15H0.84ZM2.016 9.799H3.969C4.28633 9.799 4.57567 9.722 4.837 9.568C5.103 9.40933 5.313 9.197 5.467 8.931C5.62567 8.66033 5.705 8.357 5.705 8.021C5.705 7.68033 5.62567 7.377 5.467 7.111C5.313 6.84033 5.103 6.628 4.837 6.474C4.57567 6.31533 4.28633 6.236 3.969 6.236H2.016V9.799ZM8.08609 15V8H9.26209V8.875C9.50943 8.54833 9.82209 8.28933 10.2001 8.098C10.5781 7.902 10.9888 7.804 11.4321 7.804C11.7028 7.804 11.9641 7.839 12.2161 7.909L11.7401 9.085C11.5488 9.02433 11.3621 8.994 11.1801 8.994C10.8301 8.994 10.5081 9.08033 10.2141 9.253C9.92476 9.421 9.69376 9.64967 9.52109 9.939C9.34843 10.2283 9.26209 10.5503 9.26209 10.905V15H8.08609ZM15.8009 15.182C15.1569 15.182 14.5689 15.0163 14.0369 14.685C13.5095 14.3537 13.0872 13.9103 12.7699 13.355C12.4572 12.795 12.3009 12.1767 12.3009 11.5C12.3009 10.9867 12.3919 10.5083 12.5739 10.065C12.7559 9.617 13.0055 9.225 13.3229 8.889C13.6449 8.54833 14.0182 8.28233 14.4429 8.091C14.8675 7.89967 15.3202 7.804 15.8009 7.804C16.4449 7.804 17.0305 7.96967 17.5579 8.301C18.0899 8.63233 18.5122 9.078 18.8249 9.638C19.1422 10.198 19.3009 10.8187 19.3009 11.5C19.3009 12.0087 19.2099 12.4847 19.0279 12.928C18.8459 13.3713 18.5939 13.7633 18.2719 14.104C17.9545 14.44 17.5835 14.7037 17.1589 14.895C16.7389 15.0863 16.2862 15.182 15.8009 15.182ZM15.8009 14.006C16.2395 14.006 16.6339 13.8917 16.9839 13.663C17.3385 13.4297 17.6162 13.124 17.8169 12.746C18.0222 12.3633 18.1249 11.948 18.1249 11.5C18.1249 11.0427 18.0199 10.6227 17.8099 10.24C17.6045 9.85733 17.3269 9.55167 16.9769 9.323C16.6269 9.09433 16.2349 8.98 15.8009 8.98C15.3622 8.98 14.9679 9.09667 14.6179 9.33C14.2679 9.55867 13.9902 9.86433 13.7849 10.247C13.5795 10.6297 13.4769 11.0473 13.4769 11.5C13.4769 11.9667 13.5819 12.3913 13.7919 12.774C14.0019 13.152 14.2842 13.453 14.6389 13.677C14.9935 13.8963 15.3809 14.006 15.8009 14.006ZM21.6351 18.5H20.4591V8H21.6351V9.197C21.8731 8.78633 22.1905 8.455 22.5871 8.203C22.9838 7.94633 23.4551 7.818 24.0011 7.818C24.5098 7.818 24.9858 7.91367 25.4291 8.105C25.8771 8.29633 26.2691 8.56233 26.6051 8.903C26.9411 9.239 27.2048 9.62867 27.3961 10.072C27.5875 10.5153 27.6831 10.9913 27.6831 11.5C27.6831 12.0087 27.5875 12.487 27.3961 12.935C27.2048 13.383 26.9411 13.7773 26.6051 14.118C26.2691 14.454 25.8771 14.7177 25.4291 14.909C24.9858 15.1003 24.5098 15.196 24.0011 15.196C23.4551 15.196 22.9838 15.07 22.5871 14.818C22.1905 14.5613 21.8731 14.2277 21.6351 13.817V18.5ZM23.9871 8.959C23.5345 8.959 23.1378 9.07333 22.7971 9.302C22.4565 9.53067 22.1928 9.83633 22.0061 10.219C21.8241 10.6017 21.7331 11.0287 21.7331 11.5C21.7331 11.9667 21.8241 12.3937 22.0061 12.781C22.1928 13.1683 22.4541 13.4763 22.7901 13.705C23.1308 13.9337 23.5298 14.048 23.9871 14.048C24.4398 14.048 24.8551 13.936 25.2331 13.712C25.6111 13.4833 25.9145 13.1777 26.1431 12.795C26.3718 12.4077 26.4861 11.976 26.4861 11.5C26.4861 11.0333 26.3741 10.6087 26.1501 10.226C25.9261 9.83867 25.6251 9.53067 25.2471 9.302C24.8691 9.07333 24.4491 8.959 23.9871 8.959ZM31.8927 15.182C31.2487 15.182 30.6607 15.0163 30.1287 14.685C29.6013 14.3537 29.179 13.9103 28.8617 13.355C28.549 12.795 28.3927 12.1767 28.3927 11.5C28.3927 10.9867 28.4837 10.5083 28.6657 10.065C28.8477 9.617 29.0973 9.225 29.4147 8.889C29.7367 8.54833 30.11 8.28233 30.5347 8.091C30.9593 7.89967 31.412 7.804 31.8927 7.804C32.42 7.804 32.903 7.91133 33.3417 8.126C33.785 8.336 34.163 8.63 34.4757 9.008C34.793 9.386 35.0287 9.82467 35.1827 10.324C35.3413 10.8233 35.3997 11.3577 35.3577 11.927H29.6457C29.7017 12.3237 29.8323 12.6783 30.0377 12.991C30.243 13.299 30.5043 13.544 30.8217 13.726C31.1437 13.908 31.5007 14.0013 31.8927 14.006C32.3127 14.006 32.693 13.8987 33.0337 13.684C33.3743 13.4647 33.6497 13.166 33.8597 12.788L35.0567 13.068C34.7767 13.6887 34.3543 14.1973 33.7897 14.594C33.225 14.986 32.5927 15.182 31.8927 15.182ZM29.6107 11.003H34.1747C34.1373 10.611 34.0113 10.254 33.7967 9.932C33.582 9.60533 33.309 9.344 32.9777 9.148C32.6463 8.952 32.2847 8.854 31.8927 8.854C31.5007 8.854 31.1413 8.94967 30.8147 9.141C30.488 9.33233 30.2173 9.59133 30.0027 9.918C29.7927 10.24 29.662 10.6017 29.6107 11.003ZM36.5373 15V8H37.7133V8.875C37.9606 8.54833 38.2733 8.28933 38.6513 8.098C39.0293 7.902 39.4399 7.804 39.8833 7.804C40.1539 7.804 40.4153 7.839 40.6673 7.909L40.1913 9.085C39.9999 9.02433 39.8133 8.994 39.6313 8.994C39.2813 8.994 38.9593 9.08033 38.6653 9.253C38.3759 9.421 38.1449 9.64967 37.9723 9.939C37.7996 10.2283 37.7133 10.5503 37.7133 10.905V15H36.5373ZM45.2765 9.176H43.6875L43.6805 15H42.5045L42.5115 9.176H41.3075V8H42.5115L42.5045 5.802H43.6805L43.6875 8H45.2765V9.176ZM51.1623 8H52.4083L48.5793 18.5H47.3333L48.6003 15L46.0873 8H47.3753L49.1883 13.383L51.1623 8ZM64.5811 5.2V6.376H61.3191V15H60.1431V6.376H56.8881V5.2H64.5811ZM70.5207 8H71.6967V15H70.5207L70.4717 13.817C70.2524 14.223 69.9491 14.552 69.5617 14.804C69.1791 15.056 68.7217 15.182 68.1897 15.182C67.6764 15.182 67.1957 15.0863 66.7477 14.895C66.2997 14.699 65.9031 14.4307 65.5577 14.09C65.2171 13.7447 64.9511 13.348 64.7597 12.9C64.5684 12.452 64.4727 11.969 64.4727 11.451C64.4727 10.9517 64.5661 10.4803 64.7527 10.037C64.9394 9.59367 65.1984 9.20633 65.5297 8.875C65.8657 8.539 66.2531 8.27767 66.6917 8.091C67.1304 7.89967 67.6017 7.804 68.1057 7.804C68.6564 7.804 69.1394 7.93467 69.5547 8.196C69.9701 8.45267 70.3061 8.78633 70.5627 9.197L70.5207 8ZM68.1687 14.041C68.6307 14.041 69.0297 13.929 69.3657 13.705C69.7064 13.4763 69.9677 13.1683 70.1497 12.781C70.3364 12.3937 70.4297 11.9667 70.4297 11.5C70.4297 11.024 70.3364 10.5947 70.1497 10.212C69.9631 9.82467 69.6994 9.519 69.3587 9.295C69.0227 9.06633 68.6261 8.952 68.1687 8.952C67.7067 8.952 67.2867 9.06633 66.9087 9.295C66.5307 9.52367 66.2297 9.83167 66.0057 10.219C65.7864 10.6017 65.6767 11.0287 65.6767 11.5C65.6767 11.9713 65.7911 12.4007 66.0197 12.788C66.2484 13.1707 66.5517 13.4763 66.9297 13.705C67.3077 13.929 67.7207 14.041 68.1687 14.041ZM72.7202 15L75.2822 11.486L72.7342 7.986H74.1832L76.0102 10.478L77.8302 7.986H79.2792L76.7312 11.486L79.2932 15H77.8442L76.0102 12.48L74.1692 15H72.7202ZM83.2169 15.182C82.5729 15.182 81.9849 15.0163 81.4529 14.685C80.9255 14.3537 80.5032 13.9103 80.1859 13.355C79.8732 12.795 79.7169 12.1767 79.7169 11.5C79.7169 10.9867 79.8079 10.5083 79.9899 10.065C80.1719 9.617 80.4215 9.225 80.7389 8.889C81.0609 8.54833 81.4342 8.28233 81.8589 8.091C82.2835 7.89967 82.7362 7.804 83.2169 7.804C83.7442 7.804 84.2272 7.91133 84.6659 8.126C85.1092 8.336 85.4872 8.63 85.7999 9.008C86.1172 9.386 86.3529 9.82467 86.5069 10.324C86.6655 10.8233 86.7239 11.3577 86.6819 11.927H80.9699C81.0259 12.3237 81.1565 12.6783 81.3619 12.991C81.5672 13.299 81.8285 13.544 82.1459 13.726C82.4679 13.908 82.8249 14.0013 83.2169 14.006C83.6369 14.006 84.0172 13.8987 84.3579 13.684C84.6985 13.4647 84.9739 13.166 85.1839 12.788L86.3809 13.068C86.1009 13.6887 85.6785 14.1973 85.1139 14.594C84.5492 14.986 83.9169 15.182 83.2169 15.182ZM80.9349 11.003H85.4989C85.4615 10.611 85.3355 10.254 85.1209 9.932C84.9062 9.60533 84.6332 9.344 84.3019 9.148C83.9705 8.952 83.6089 8.854 83.2169 8.854C82.8249 8.854 82.4655 8.94967 82.1389 9.141C81.8122 9.33233 81.5415 9.59133 81.3269 9.918C81.1169 10.24 80.9862 10.6017 80.9349 11.003ZM90.0238 15.133C89.6458 15.119 89.2772 15.049 88.9178 14.923C88.5632 14.7923 88.2505 14.6173 87.9798 14.398C87.7138 14.174 87.5202 13.9173 87.3988 13.628L88.4068 13.194C88.4768 13.3527 88.6028 13.502 88.7848 13.642C88.9668 13.782 89.1768 13.894 89.4148 13.978C89.6528 14.062 89.8932 14.104 90.1358 14.104C90.3925 14.104 90.6328 14.0643 90.8568 13.985C91.0808 13.9057 91.2628 13.789 91.4028 13.635C91.5475 13.4763 91.6198 13.2873 91.6198 13.068C91.6198 12.8347 91.5405 12.6527 91.3818 12.522C91.2278 12.3867 91.0318 12.2817 90.7938 12.207C90.5605 12.1277 90.3225 12.053 90.0798 11.983C89.5992 11.8617 89.1698 11.717 88.7918 11.549C88.4138 11.3763 88.1152 11.1593 87.8958 10.898C87.6812 10.632 87.5738 10.2937 87.5738 9.883C87.5738 9.449 87.6928 9.07333 87.9308 8.756C88.1735 8.43867 88.4908 8.19367 88.8828 8.021C89.2748 7.84833 89.6948 7.762 90.1428 7.762C90.7075 7.762 91.2232 7.88333 91.6898 8.126C92.1565 8.36867 92.5042 8.69767 92.7328 9.113L91.7878 9.666C91.7085 9.498 91.5872 9.351 91.4238 9.225C91.2605 9.09433 91.0738 8.99167 90.8638 8.917C90.6538 8.84233 90.4392 8.80267 90.2198 8.798C89.9492 8.78867 89.6948 8.82367 89.4568 8.903C89.2235 8.98233 89.0345 9.10367 88.8898 9.267C88.7498 9.42567 88.6798 9.624 88.6798 9.862C88.6798 10.0953 88.7545 10.2727 88.9038 10.394C89.0578 10.5153 89.2562 10.6133 89.4988 10.688C89.7462 10.758 90.0145 10.8397 90.3038 10.933C90.7285 11.0683 91.1252 11.2247 91.4938 11.402C91.8625 11.5793 92.1588 11.801 92.3828 12.067C92.6115 12.333 92.7235 12.662 92.7188 13.054C92.7188 13.4833 92.5905 13.859 92.3338 14.181C92.0772 14.4983 91.7435 14.741 91.3328 14.909C90.9268 15.077 90.4905 15.1517 90.0238 15.133Z" fill="#999999"></path><path d="M5.99 42.86C5.45667 42.8533 4.95667 42.94 4.49 43.12C4.03 43.2933 3.65333 43.5333 3.36 43.84C3.06667 44.1467 2.92 44.5033 2.92 44.91C2.92 45.41 3.05667 45.79 3.33 46.05C3.60333 46.31 3.97 46.5033 4.43 46.63C4.89667 46.75 5.41667 46.86 5.99 46.96C6.91 47.1067 7.76 47.35 8.54 47.69C9.32667 48.03 9.95667 48.4833 10.43 49.05C10.91 49.61 11.15 50.3 11.15 51.12C11.15 51.8733 10.95 52.5433 10.55 53.13C10.15 53.71 9.61333 54.18 8.94 54.54C8.27333 54.8933 7.53667 55.1167 6.73 55.21V57.24H5.26V55.21C4.58667 55.1433 3.94667 54.9833 3.34 54.73C2.74 54.4767 2.21667 54.14 1.77 53.72C1.32333 53.3 1 52.8133 0.8 52.26L2.75 51.53C2.86333 51.85 3.08 52.1367 3.4 52.39C3.72667 52.6367 4.11333 52.83 4.56 52.97C5.01333 53.11 5.49 53.18 5.99 53.18C6.52333 53.18 7.02333 53.0933 7.49 52.92C7.96333 52.7467 8.34333 52.5067 8.63 52.2C8.92333 51.8933 9.07 51.5333 9.07 51.12C9.07 50.6933 8.91667 50.3433 8.61 50.07C8.31 49.7967 7.92333 49.58 7.45 49.42C6.98333 49.26 6.49667 49.14 5.99 49.06C5.01 48.9 4.13 48.6667 3.35 48.36C2.57667 48.0533 1.96333 47.6233 1.51 47.07C1.06333 46.5167 0.84 45.7967 0.84 44.91C0.84 44.1567 1.04 43.4867 1.44 42.9C1.84 42.3133 2.37333 41.8433 3.04 41.49C3.71333 41.13 4.45333 40.9067 5.26 40.82V38.76H6.73V40.82C7.38333 40.8867 8.01 41.0467 8.61 41.3C9.21667 41.5533 9.74667 41.89 10.2 42.31C10.6533 42.7233 10.9833 43.2167 11.19 43.79L9.22 44.5C9.10667 44.1733 8.89 43.89 8.57 43.65C8.25 43.4033 7.86333 43.21 7.41 43.07C6.96333 42.93 6.49 42.86 5.99 42.86ZM14.4622 55V43.08H12.7922L13.3622 41H16.5422V55H14.4622ZM18.9445 56.12L19.5645 52.74H21.6445L20.3245 56.12H18.9445ZM23.6516 55V53.15C24.1249 52.7567 24.6682 52.3 25.2816 51.78C25.8949 51.2533 26.5182 50.6967 27.1516 50.11C27.7849 49.5167 28.3682 48.9267 28.9016 48.34C29.4349 47.7467 29.8649 47.1867 30.1916 46.66C30.5249 46.1267 30.6916 45.6633 30.6916 45.27C30.6916 44.8233 30.5816 44.4167 30.3616 44.05C30.1482 43.6767 29.8582 43.38 29.4916 43.16C29.1249 42.9333 28.7182 42.82 28.2716 42.82C27.8249 42.82 27.4149 42.9333 27.0416 43.16C26.6749 43.38 26.3782 43.6767 26.1516 44.05C25.9316 44.4167 25.8216 44.8233 25.8216 45.27H23.7416C23.7416 44.4233 23.9482 43.66 24.3616 42.98C24.7816 42.2933 25.3316 41.75 26.0116 41.35C26.6982 40.9433 27.4516 40.74 28.2716 40.74C29.0982 40.74 29.8516 40.9433 30.5316 41.35C31.2116 41.7567 31.7549 42.3033 32.1616 42.99C32.5682 43.67 32.7716 44.43 32.7716 45.27C32.7716 45.7367 32.6749 46.2167 32.4816 46.71C32.2882 47.2033 32.0182 47.7067 31.6716 48.22C31.3316 48.7333 30.9349 49.2533 30.4816 49.78C30.0282 50.3067 29.5416 50.8333 29.0216 51.36C28.5016 51.8867 27.9716 52.4067 27.4316 52.92H32.8916V55H23.6516ZM39.512 55.26C38.6254 55.26 37.822 55.0467 37.102 54.62C36.3887 54.1867 35.822 53.6133 35.402 52.9C34.9887 52.18 34.782 51.3933 34.782 50.54H36.862C36.862 51.0267 36.982 51.47 37.222 51.87C37.462 52.27 37.782 52.59 38.182 52.83C38.582 53.0633 39.0254 53.18 39.512 53.18C39.992 53.18 40.432 53.0633 40.832 52.83C41.232 52.59 41.552 52.27 41.792 51.87C42.032 51.47 42.152 51.0267 42.152 50.54C42.152 50.0533 42.042 49.61 41.822 49.21C41.602 48.8033 41.272 48.48 40.832 48.24C40.392 47.9933 39.832 47.87 39.152 47.87H35.622L37.042 41H43.812V43.08H38.732L38.182 45.79L39.392 45.81C40.3454 45.83 41.182 46.05 41.902 46.47C42.6287 46.8833 43.1987 47.4433 43.612 48.15C44.0254 48.85 44.232 49.6467 44.232 50.54C44.232 51.1867 44.1087 51.7967 43.862 52.37C43.6154 52.9367 43.2754 53.4367 42.842 53.87C42.4154 54.3033 41.9154 54.6433 41.342 54.89C40.7754 55.1367 40.1654 55.26 39.512 55.26ZM50.8542 55.26C50.0276 55.26 49.2809 55.0733 48.6142 54.7C47.9542 54.32 47.3842 53.7967 46.9042 53.13C46.4242 52.4633 46.0576 51.6933 45.8042 50.82C45.5509 49.94 45.4242 49 45.4242 48C45.4242 47 45.5509 46.06 45.8042 45.18C46.0576 44.3 46.4242 43.53 46.9042 42.87C47.3842 42.2033 47.9542 41.6833 48.6142 41.31C49.2809 40.93 50.0276 40.74 50.8542 40.74C51.6676 40.74 52.4076 40.93 53.0742 41.31C53.7409 41.6833 54.3076 42.2033 54.7742 42.87C55.2476 43.53 55.6109 44.3 55.8642 45.18C56.1176 46.06 56.2442 47 56.2442 48C56.2442 49 56.1176 49.94 55.8642 50.82C55.6109 51.6933 55.2476 52.4633 54.7742 53.13C54.3076 53.7967 53.7409 54.32 53.0742 54.7C52.4076 55.0733 51.6676 55.26 50.8542 55.26ZM50.8542 53.18C51.6209 53.18 52.2576 52.94 52.7642 52.46C53.2776 51.9733 53.6609 51.3367 53.9142 50.55C54.1676 49.7633 54.2942 48.9133 54.2942 48C54.2942 47.04 54.1609 46.17 53.8942 45.39C53.6342 44.6033 53.2476 43.98 52.7342 43.52C52.2276 43.0533 51.6009 42.82 50.8542 42.82C50.2609 42.82 49.7442 42.96 49.3042 43.24C48.8709 43.52 48.5109 43.9033 48.2242 44.39C47.9442 44.8767 47.7309 45.43 47.5842 46.05C47.4442 46.67 47.3742 47.32 47.3742 48C47.3742 48.9133 47.5042 49.7633 47.7642 50.55C48.0242 51.3367 48.4109 51.9733 48.9242 52.46C49.4442 52.94 50.0876 53.18 50.8542 53.18Z" fill="white"></path></g><defs><clipPath id="clip0_166_1128"><rect width="462.5" height="63" fill="white"></rect></clipPath></defs></svg>