<svg xmlns="http://www.w3.org/2000/svg" width="363" height="22" viewBox="0 0 363 22" fill="none"><path d="M0.216797 18.26H18.2168V0.26H0.216797V18.26ZM19.2968 17V4.4H23.4638C24.3338 4.4 25.1498 4.565 25.9118 4.895C26.6738 5.219 27.3428 5.672 27.9188 6.254C28.4948 6.83 28.9448 7.499 29.2688 8.261C29.5988 9.017 29.7638 9.83 29.7638 10.7C29.7638 11.57 29.5988 12.386 29.2688 13.148C28.9448 13.904 28.4948 14.573 27.9188 15.155C27.3428 15.731 26.6738 16.184 25.9118 16.514C25.1498 16.838 24.3338 17 23.4638 17H19.2968ZM20.8088 15.488H23.4638C24.1238 15.488 24.7418 15.365 25.3178 15.119C25.8998 14.867 26.4098 14.522 26.8478 14.084C27.2858 13.646 27.6278 13.139 27.8738 12.563C28.1258 11.981 28.2518 11.36 28.2518 10.7C28.2518 10.04 28.1258 9.422 27.8738 8.846C27.6278 8.264 27.2828 7.754 26.8388 7.316C26.4008 6.878 25.8938 6.536 25.3178 6.29C24.7418 6.038 24.1238 5.912 23.4638 5.912H20.8088V15.488ZM31.3027 8H32.8147V17H31.3027V8ZM32.0767 6.533C31.8367 6.533 31.6357 6.455 31.4737 6.299C31.3117 6.143 31.2307 5.948 31.2307 5.714C31.2307 5.48 31.3117 5.285 31.4737 5.129C31.6357 4.973 31.8337 4.895 32.0677 4.895C32.3017 4.895 32.4997 4.973 32.6617 5.129C32.8237 5.285 32.9047 5.48 32.9047 5.714C32.9047 5.948 32.8237 6.143 32.6617 6.299C32.5057 6.455 32.3107 6.533 32.0767 6.533ZM37.6336 17.171C37.1476 17.153 36.6736 17.063 36.2116 16.901C35.7556 16.733 35.3536 16.508 35.0056 16.226C34.6636 15.938 34.4146 15.608 34.2586 15.236L35.5546 14.678C35.6446 14.882 35.8066 15.074 36.0406 15.254C36.2746 15.434 36.5446 15.578 36.8506 15.686C37.1566 15.794 37.4656 15.848 37.7776 15.848C38.1076 15.848 38.4166 15.797 38.7046 15.695C38.9926 15.593 39.2266 15.443 39.4066 15.245C39.5926 15.041 39.6856 14.798 39.6856 14.516C39.6856 14.216 39.5836 13.982 39.3796 13.814C39.1816 13.64 38.9296 13.505 38.6236 13.409C38.3236 13.307 38.0176 13.211 37.7056 13.121C37.0876 12.965 36.5356 12.779 36.0496 12.563C35.5636 12.341 35.1796 12.062 34.8976 11.726C34.6216 11.384 34.4836 10.949 34.4836 10.421C34.4836 9.863 34.6366 9.38 34.9426 8.972C35.2546 8.564 35.6626 8.249 36.1666 8.027C36.6706 7.805 37.2106 7.694 37.7866 7.694C38.5126 7.694 39.1756 7.85 39.7756 8.162C40.3756 8.474 40.8226 8.897 41.1166 9.431L39.9016 10.142C39.7996 9.926 39.6436 9.737 39.4336 9.575C39.2236 9.407 38.9836 9.275 38.7136 9.179C38.4436 9.083 38.1676 9.032 37.8856 9.026C37.5376 9.014 37.2106 9.059 36.9046 9.161C36.6046 9.263 36.3616 9.419 36.1756 9.629C35.9956 9.833 35.9056 10.088 35.9056 10.394C35.9056 10.694 36.0016 10.922 36.1936 11.078C36.3916 11.234 36.6466 11.36 36.9586 11.456C37.2766 11.546 37.6216 11.651 37.9936 11.771C38.5396 11.945 39.0496 12.146 39.5236 12.374C39.9976 12.602 40.3786 12.887 40.6666 13.229C40.9606 13.571 41.1046 13.994 41.0986 14.498C41.0986 15.05 40.9336 15.533 40.6036 15.947C40.2736 16.355 39.8446 16.667 39.3166 16.883C38.7946 17.099 38.2336 17.195 37.6336 17.171ZM48.7537 14.624L50.1037 15.353C49.6957 15.923 49.1767 16.379 48.5467 16.721C47.9227 17.063 47.2447 17.234 46.5127 17.234C45.6847 17.234 44.9287 17.021 44.2447 16.595C43.5667 16.169 43.0237 15.599 42.6157 14.885C42.2137 14.165 42.0127 13.37 42.0127 12.5C42.0127 11.84 42.1297 11.225 42.3637 10.655C42.5977 10.079 42.9187 9.575 43.3267 9.143C43.7407 8.705 44.2207 8.363 44.7667 8.117C45.3127 7.871 45.8947 7.748 46.5127 7.748C47.2447 7.748 47.9227 7.919 48.5467 8.261C49.1767 8.603 49.6957 9.062 50.1037 9.638L48.7537 10.367C48.4657 10.013 48.1237 9.74 47.7277 9.548C47.3317 9.356 46.9267 9.26 46.5127 9.26C45.9547 9.26 45.4477 9.41 44.9917 9.71C44.5417 10.004 44.1847 10.397 43.9207 10.889C43.6567 11.381 43.5247 11.918 43.5247 12.5C43.5247 13.082 43.6567 13.619 43.9207 14.111C44.1907 14.597 44.5507 14.987 45.0007 15.281C45.4567 15.575 45.9607 15.722 46.5127 15.722C46.9567 15.722 47.3737 15.62 47.7637 15.416C48.1537 15.212 48.4837 14.948 48.7537 14.624ZM55.5302 17.234C54.7022 17.234 53.9462 17.021 53.2622 16.595C52.5842 16.169 52.0412 15.599 51.6332 14.885C51.2312 14.165 51.0302 13.37 51.0302 12.5C51.0302 11.84 51.1472 11.225 51.3812 10.655C51.6152 10.079 51.9362 9.575 52.3442 9.143C52.7582 8.705 53.2382 8.363 53.7842 8.117C54.3302 7.871 54.9122 7.748 55.5302 7.748C56.3582 7.748 57.1112 7.961 57.7892 8.387C58.4732 8.813 59.0162 9.386 59.4182 10.106C59.8262 10.826 60.0302 11.624 60.0302 12.5C60.0302 13.154 59.9132 13.766 59.6792 14.336C59.4452 14.906 59.1212 15.41 58.7072 15.848C58.2992 16.28 57.8222 16.619 57.2762 16.865C56.7362 17.111 56.1542 17.234 55.5302 17.234ZM55.5302 15.722C56.0942 15.722 56.6012 15.575 57.0512 15.281C57.5072 14.981 57.8642 14.588 58.1222 14.102C58.3862 13.61 58.5182 13.076 58.5182 12.5C58.5182 11.912 58.3832 11.372 58.1132 10.88C57.8492 10.388 57.4922 9.995 57.0422 9.701C56.5922 9.407 56.0882 9.26 55.5302 9.26C54.9662 9.26 54.4592 9.41 54.0092 9.71C53.5592 10.004 53.2022 10.397 52.9382 10.889C52.6742 11.381 52.5422 11.918 52.5422 12.5C52.5422 13.1 52.6772 13.646 52.9472 14.138C53.2172 14.624 53.5802 15.011 54.0362 15.299C54.4922 15.581 54.9902 15.722 55.5302 15.722ZM65.8127 17H63.8777L60.5927 7.982H62.2037L64.8407 15.245L67.4777 7.982H69.0887L65.8127 17ZM74.163 17.234C73.335 17.234 72.579 17.021 71.895 16.595C71.217 16.169 70.674 15.599 70.266 14.885C69.864 14.165 69.663 13.37 69.663 12.5C69.663 11.84 69.78 11.225 70.014 10.655C70.248 10.079 70.569 9.575 70.977 9.143C71.391 8.705 71.871 8.363 72.417 8.117C72.963 7.871 73.545 7.748 74.163 7.748C74.841 7.748 75.462 7.886 76.026 8.162C76.596 8.432 77.082 8.81 77.484 9.296C77.892 9.782 78.195 10.346 78.393 10.988C78.597 11.63 78.672 12.317 78.618 13.049H71.274C71.346 13.559 71.514 14.015 71.778 14.417C72.042 14.813 72.378 15.128 72.786 15.362C73.2 15.596 73.659 15.716 74.163 15.722C74.703 15.722 75.192 15.584 75.63 15.308C76.068 15.026 76.422 14.642 76.692 14.156L78.231 14.516C77.871 15.314 77.328 15.968 76.602 16.478C75.876 16.982 75.063 17.234 74.163 17.234ZM71.229 11.861H77.097C77.049 11.357 76.887 10.898 76.611 10.484C76.335 10.064 75.984 9.728 75.558 9.476C75.132 9.224 74.667 9.098 74.163 9.098C73.659 9.098 73.197 9.221 72.777 9.467C72.357 9.713 72.009 10.046 71.733 10.466C71.463 10.88 71.295 11.345 71.229 11.861ZM80.1347 17V8H81.6467V9.125C81.9647 8.705 82.3667 8.372 82.8527 8.126C83.3387 7.874 83.8667 7.748 84.4367 7.748C84.7847 7.748 85.1207 7.793 85.4447 7.883L84.8327 9.395C84.5867 9.317 84.3467 9.278 84.1127 9.278C83.6627 9.278 83.2487 9.389 82.8707 9.611C82.4987 9.827 82.2017 10.121 81.9797 10.493C81.7577 10.865 81.6467 11.279 81.6467 11.735V17H80.1347ZM98.7551 4.4H100.537L96.2711 11.303V17H94.7591V11.303L90.4931 4.4H92.2751L95.5151 9.647L98.7551 4.4ZM104.556 17.234C103.728 17.234 102.972 17.021 102.288 16.595C101.61 16.169 101.067 15.599 100.659 14.885C100.257 14.165 100.056 13.37 100.056 12.5C100.056 11.84 100.173 11.225 100.407 10.655C100.641 10.079 100.962 9.575 101.37 9.143C101.784 8.705 102.264 8.363 102.81 8.117C103.356 7.871 103.938 7.748 104.556 7.748C105.384 7.748 106.137 7.961 106.815 8.387C107.499 8.813 108.042 9.386 108.444 10.106C108.852 10.826 109.056 11.624 109.056 12.5C109.056 13.154 108.939 13.766 108.705 14.336C108.471 14.906 108.147 15.41 107.733 15.848C107.325 16.28 106.848 16.619 106.302 16.865C105.762 17.111 105.18 17.234 104.556 17.234ZM104.556 15.722C105.12 15.722 105.627 15.575 106.077 15.281C106.533 14.981 106.89 14.588 107.148 14.102C107.412 13.61 107.544 13.076 107.544 12.5C107.544 11.912 107.409 11.372 107.139 10.88C106.875 10.388 106.518 9.995 106.068 9.701C105.618 9.407 105.114 9.26 104.556 9.26C103.992 9.26 103.485 9.41 103.035 9.71C102.585 10.004 102.228 10.397 101.964 10.889C101.7 11.381 101.568 11.918 101.568 12.5C101.568 13.1 101.703 13.646 101.973 14.138C102.243 14.624 102.606 15.011 103.062 15.299C103.518 15.581 104.016 15.722 104.556 15.722ZM110.062 13.58V8H111.574V13.247C111.574 13.703 111.685 14.117 111.907 14.489C112.129 14.861 112.426 15.158 112.798 15.38C113.176 15.596 113.59 15.704 114.04 15.704C114.496 15.704 114.907 15.596 115.273 15.38C115.645 15.158 115.942 14.861 116.164 14.489C116.386 14.117 116.497 13.703 116.497 13.247V8H118.009L118.018 17H116.506L116.497 15.857C116.179 16.277 115.777 16.613 115.291 16.865C114.805 17.111 114.28 17.234 113.716 17.234C113.044 17.234 112.429 17.072 111.871 16.748C111.319 16.418 110.878 15.977 110.548 15.425C110.224 14.873 110.062 14.258 110.062 13.58ZM119.826 17V8H121.338V9.125C121.656 8.705 122.058 8.372 122.544 8.126C123.03 7.874 123.558 7.748 124.128 7.748C124.476 7.748 124.812 7.793 125.136 7.883L124.524 9.395C124.278 9.317 124.038 9.278 123.804 9.278C123.354 9.278 122.94 9.389 122.562 9.611C122.19 9.827 121.893 10.121 121.671 10.493C121.449 10.865 121.338 11.279 121.338 11.735V17H119.826ZM130.725 17V4.4H134.892C135.762 4.4 136.578 4.565 137.34 4.895C138.102 5.219 138.771 5.672 139.347 6.254C139.923 6.83 140.373 7.499 140.697 8.261C141.027 9.017 141.192 9.83 141.192 10.7C141.192 11.57 141.027 12.386 140.697 13.148C140.373 13.904 139.923 14.573 139.347 15.155C138.771 15.731 138.102 16.184 137.34 16.514C136.578 16.838 135.762 17 134.892 17H130.725ZM132.237 15.488H134.892C135.552 15.488 136.17 15.365 136.746 15.119C137.328 14.867 137.838 14.522 138.276 14.084C138.714 13.646 139.056 13.139 139.302 12.563C139.554 11.981 139.68 11.36 139.68 10.7C139.68 10.04 139.554 9.422 139.302 8.846C139.056 8.264 138.711 7.754 138.267 7.316C137.829 6.878 137.322 6.536 136.746 6.29C136.17 6.038 135.552 5.912 134.892 5.912H132.237V15.488ZM142.766 17V8H144.278V9.125C144.596 8.705 144.998 8.372 145.484 8.126C145.97 7.874 146.498 7.748 147.068 7.748C147.416 7.748 147.752 7.793 148.076 7.883L147.464 9.395C147.218 9.317 146.978 9.278 146.744 9.278C146.294 9.278 145.88 9.389 145.502 9.611C145.13 9.827 144.833 10.121 144.611 10.493C144.389 10.865 144.278 11.279 144.278 11.735V17H142.766ZM152.685 17.234C151.857 17.234 151.101 17.021 150.417 16.595C149.739 16.169 149.196 15.599 148.788 14.885C148.386 14.165 148.185 13.37 148.185 12.5C148.185 11.84 148.302 11.225 148.536 10.655C148.77 10.079 149.091 9.575 149.499 9.143C149.913 8.705 150.393 8.363 150.939 8.117C151.485 7.871 152.067 7.748 152.685 7.748C153.363 7.748 153.984 7.886 154.548 8.162C155.118 8.432 155.604 8.81 156.006 9.296C156.414 9.782 156.717 10.346 156.915 10.988C157.119 11.63 157.194 12.317 157.14 13.049H149.796C149.868 13.559 150.036 14.015 150.3 14.417C150.564 14.813 150.9 15.128 151.308 15.362C151.722 15.596 152.181 15.716 152.685 15.722C153.225 15.722 153.714 15.584 154.152 15.308C154.59 15.026 154.944 14.642 155.214 14.156L156.753 14.516C156.393 15.314 155.85 15.968 155.124 16.478C154.398 16.982 153.585 17.234 152.685 17.234ZM149.751 11.861H155.619C155.571 11.357 155.409 10.898 155.133 10.484C154.857 10.064 154.506 9.728 154.08 9.476C153.654 9.224 153.189 9.098 152.685 9.098C152.181 9.098 151.719 9.221 151.299 9.467C150.879 9.713 150.531 10.046 150.255 10.466C149.985 10.88 149.817 11.345 149.751 11.861ZM165.839 8H167.351V17H165.839L165.776 15.479C165.494 16.001 165.104 16.424 164.606 16.748C164.114 17.072 163.526 17.234 162.842 17.234C162.182 17.234 161.564 17.111 160.988 16.865C160.412 16.613 159.902 16.268 159.458 15.83C159.02 15.386 158.678 14.876 158.432 14.3C158.186 13.724 158.063 13.103 158.063 12.437C158.063 11.795 158.183 11.189 158.423 10.619C158.663 10.049 158.996 9.551 159.422 9.125C159.854 8.693 160.352 8.357 160.916 8.117C161.48 7.871 162.086 7.748 162.734 7.748C163.442 7.748 164.063 7.916 164.597 8.252C165.131 8.582 165.563 9.011 165.893 9.539L165.839 8ZM162.815 15.767C163.409 15.767 163.922 15.623 164.354 15.335C164.792 15.041 165.128 14.645 165.362 14.147C165.602 13.649 165.722 13.1 165.722 12.5C165.722 11.888 165.602 11.336 165.362 10.844C165.122 10.346 164.783 9.953 164.345 9.665C163.913 9.371 163.403 9.224 162.815 9.224C162.221 9.224 161.681 9.371 161.195 9.665C160.709 9.959 160.322 10.355 160.034 10.853C159.752 11.345 159.611 11.894 159.611 12.5C159.611 13.106 159.758 13.658 160.052 14.156C160.346 14.648 160.736 15.041 161.222 15.335C161.708 15.623 162.239 15.767 162.815 15.767ZM169.15 17V8H170.662V9.125C170.98 8.705 171.379 8.372 171.859 8.126C172.345 7.874 172.873 7.748 173.443 7.748C174.109 7.748 174.718 7.91 175.27 8.234C175.822 8.558 176.257 8.987 176.575 9.521C176.893 8.987 177.325 8.558 177.871 8.234C178.423 7.91 179.029 7.748 179.689 7.748C180.367 7.748 180.982 7.913 181.534 8.243C182.086 8.567 182.524 9.005 182.848 9.557C183.178 10.109 183.343 10.724 183.343 11.402V17H181.831V11.762C181.831 11.318 181.723 10.907 181.507 10.529C181.291 10.151 181 9.848 180.634 9.62C180.268 9.392 179.863 9.278 179.419 9.278C178.975 9.278 178.57 9.386 178.204 9.602C177.838 9.812 177.547 10.106 177.331 10.484C177.115 10.856 177.007 11.282 177.007 11.762V17H175.495V11.762C175.495 11.282 175.387 10.856 175.171 10.484C174.955 10.106 174.661 9.812 174.289 9.602C173.923 9.386 173.518 9.278 173.074 9.278C172.636 9.278 172.231 9.392 171.859 9.62C171.493 9.848 171.202 10.151 170.986 10.529C170.77 10.907 170.662 11.318 170.662 11.762V17H169.15ZM189.471 17V4.4H193.629C194.307 4.4 194.916 4.565 195.456 4.895C196.002 5.225 196.434 5.672 196.752 6.236C197.076 6.794 197.238 7.418 197.238 8.108C197.238 8.81 197.073 9.443 196.743 10.007C196.419 10.565 195.981 11.009 195.429 11.339C194.883 11.663 194.283 11.825 193.629 11.825H190.983V17H189.471ZM190.983 10.313H193.494C193.902 10.313 194.274 10.214 194.61 10.016C194.952 9.812 195.222 9.539 195.42 9.197C195.624 8.849 195.726 8.459 195.726 8.027C195.726 7.589 195.624 7.199 195.42 6.857C195.222 6.509 194.952 6.236 194.61 6.038C194.274 5.834 193.902 5.732 193.494 5.732H190.983V10.313ZM198.787 17V8H200.299V9.125C200.617 8.705 201.019 8.372 201.505 8.126C201.991 7.874 202.519 7.748 203.089 7.748C203.437 7.748 203.773 7.793 204.097 7.883L203.485 9.395C203.239 9.317 202.999 9.278 202.765 9.278C202.315 9.278 201.901 9.389 201.523 9.611C201.151 9.827 200.854 10.121 200.632 10.493C200.41 10.865 200.299 11.279 200.299 11.735V17H198.787ZM208.706 17.234C207.878 17.234 207.122 17.021 206.438 16.595C205.76 16.169 205.217 15.599 204.809 14.885C204.407 14.165 204.206 13.37 204.206 12.5C204.206 11.84 204.323 11.225 204.557 10.655C204.791 10.079 205.112 9.575 205.52 9.143C205.934 8.705 206.414 8.363 206.96 8.117C207.506 7.871 208.088 7.748 208.706 7.748C209.534 7.748 210.287 7.961 210.965 8.387C211.649 8.813 212.192 9.386 212.594 10.106C213.002 10.826 213.206 11.624 213.206 12.5C213.206 13.154 213.089 13.766 212.855 14.336C212.621 14.906 212.297 15.41 211.883 15.848C211.475 16.28 210.998 16.619 210.452 16.865C209.912 17.111 209.33 17.234 208.706 17.234ZM208.706 15.722C209.27 15.722 209.777 15.575 210.227 15.281C210.683 14.981 211.04 14.588 211.298 14.102C211.562 13.61 211.694 13.076 211.694 12.5C211.694 11.912 211.559 11.372 211.289 10.88C211.025 10.388 210.668 9.995 210.218 9.701C209.768 9.407 209.264 9.26 208.706 9.26C208.142 9.26 207.635 9.41 207.185 9.71C206.735 10.004 206.378 10.397 206.114 10.889C205.85 11.381 205.718 11.918 205.718 12.5C205.718 13.1 205.853 13.646 206.123 14.138C206.393 14.624 206.756 15.011 207.212 15.299C207.668 15.581 208.166 15.722 208.706 15.722ZM216.207 21.5H214.695V8H216.207V9.539C216.513 9.011 216.921 8.585 217.431 8.261C217.941 7.931 218.547 7.766 219.249 7.766C219.903 7.766 220.515 7.889 221.085 8.135C221.661 8.381 222.165 8.723 222.597 9.161C223.029 9.593 223.368 10.094 223.614 10.664C223.86 11.234 223.983 11.846 223.983 12.5C223.983 13.154 223.86 13.769 223.614 14.345C223.368 14.921 223.029 15.428 222.597 15.866C222.165 16.298 221.661 16.637 221.085 16.883C220.515 17.129 219.903 17.252 219.249 17.252C218.547 17.252 217.941 17.09 217.431 16.766C216.921 16.436 216.513 16.007 216.207 15.479V21.5ZM219.231 9.233C218.649 9.233 218.139 9.38 217.701 9.674C217.263 9.968 216.924 10.361 216.684 10.853C216.45 11.345 216.333 11.894 216.333 12.5C216.333 13.1 216.45 13.649 216.684 14.147C216.924 14.645 217.26 15.041 217.692 15.335C218.13 15.629 218.643 15.776 219.231 15.776C219.813 15.776 220.347 15.632 220.833 15.344C221.319 15.05 221.709 14.657 222.003 14.165C222.297 13.667 222.444 13.112 222.444 12.5C222.444 11.9 222.3 11.354 222.012 10.862C221.724 10.364 221.337 9.968 220.851 9.674C220.365 9.38 219.825 9.233 219.231 9.233ZM229.395 17.234C228.567 17.234 227.811 17.021 227.127 16.595C226.449 16.169 225.906 15.599 225.498 14.885C225.096 14.165 224.895 13.37 224.895 12.5C224.895 11.84 225.012 11.225 225.246 10.655C225.48 10.079 225.801 9.575 226.209 9.143C226.623 8.705 227.103 8.363 227.649 8.117C228.195 7.871 228.777 7.748 229.395 7.748C230.073 7.748 230.694 7.886 231.258 8.162C231.828 8.432 232.314 8.81 232.716 9.296C233.124 9.782 233.427 10.346 233.625 10.988C233.829 11.63 233.904 12.317 233.85 13.049H226.506C226.578 13.559 226.746 14.015 227.01 14.417C227.274 14.813 227.61 15.128 228.018 15.362C228.432 15.596 228.891 15.716 229.395 15.722C229.935 15.722 230.424 15.584 230.862 15.308C231.3 15.026 231.654 14.642 231.924 14.156L233.463 14.516C233.103 15.314 232.56 15.968 231.834 16.478C231.108 16.982 230.295 17.234 229.395 17.234ZM226.461 11.861H232.329C232.281 11.357 232.119 10.898 231.843 10.484C231.567 10.064 231.216 9.728 230.79 9.476C230.364 9.224 229.899 9.098 229.395 9.098C228.891 9.098 228.429 9.221 228.009 9.467C227.589 9.713 227.241 10.046 226.965 10.466C226.695 10.88 226.527 11.345 226.461 11.861ZM235.367 17V8H236.879V9.125C237.197 8.705 237.599 8.372 238.085 8.126C238.571 7.874 239.099 7.748 239.669 7.748C240.017 7.748 240.353 7.793 240.677 7.883L240.065 9.395C239.819 9.317 239.579 9.278 239.345 9.278C238.895 9.278 238.481 9.389 238.103 9.611C237.731 9.827 237.434 10.121 237.212 10.493C236.99 10.865 236.879 11.279 236.879 11.735V17H235.367ZM246.603 9.512H244.56L244.551 17H243.039L243.048 9.512H241.5V8H243.048L243.039 5.174H244.551L244.56 8H246.603V9.512ZM254.171 8H255.773L250.85 21.5H249.248L250.877 17L247.646 8H249.302L251.633 14.921L254.171 8ZM265.897 17H264.368L261.353 8H262.829L265.151 14.867L267.446 8H269.003L271.307 14.867L273.602 8H275.096L272.081 17H270.542L268.211 10.07L265.897 17ZM276.553 8H278.065V17H276.553V8ZM277.327 6.533C277.087 6.533 276.886 6.455 276.724 6.299C276.562 6.143 276.481 5.948 276.481 5.714C276.481 5.48 276.562 5.285 276.724 5.129C276.886 4.973 277.084 4.895 277.318 4.895C277.552 4.895 277.75 4.973 277.912 5.129C278.074 5.285 278.155 5.48 278.155 5.714C278.155 5.948 278.074 6.143 277.912 6.299C277.756 6.455 277.561 6.533 277.327 6.533ZM284.888 9.512H282.845L282.836 17H281.324L281.333 9.512H279.785V8H281.333L281.324 5.174H282.836L282.845 8H284.888V9.512ZM294.458 11.402V17H292.946V11.735C292.946 11.279 292.835 10.865 292.613 10.493C292.391 10.121 292.094 9.827 291.722 9.611C291.35 9.389 290.936 9.278 290.48 9.278C290.03 9.278 289.616 9.389 289.238 9.611C288.866 9.827 288.569 10.121 288.347 10.493C288.125 10.865 288.014 11.279 288.014 11.735V17H286.502V3.5H288.014V9.125C288.332 8.705 288.734 8.372 289.22 8.126C289.706 7.874 290.234 7.748 290.804 7.748C291.476 7.748 292.088 7.913 292.64 8.243C293.198 8.567 293.639 9.005 293.963 9.557C294.293 10.109 294.458 10.724 294.458 11.402ZM300.582 17V4.4H308.313V5.912H302.094V9.494H307.188V11.006H302.094V15.488H308.313V17H300.582ZM313.03 17.171C312.544 17.153 312.07 17.063 311.608 16.901C311.152 16.733 310.75 16.508 310.402 16.226C310.06 15.938 309.811 15.608 309.655 15.236L310.951 14.678C311.041 14.882 311.203 15.074 311.437 15.254C311.671 15.434 311.941 15.578 312.247 15.686C312.553 15.794 312.862 15.848 313.174 15.848C313.504 15.848 313.813 15.797 314.101 15.695C314.389 15.593 314.623 15.443 314.803 15.245C314.989 15.041 315.082 14.798 315.082 14.516C315.082 14.216 314.98 13.982 314.776 13.814C314.578 13.64 314.326 13.505 314.02 13.409C313.72 13.307 313.414 13.211 313.102 13.121C312.484 12.965 311.932 12.779 311.446 12.563C310.96 12.341 310.576 12.062 310.294 11.726C310.018 11.384 309.88 10.949 309.88 10.421C309.88 9.863 310.033 9.38 310.339 8.972C310.651 8.564 311.059 8.249 311.563 8.027C312.067 7.805 312.607 7.694 313.183 7.694C313.909 7.694 314.572 7.85 315.172 8.162C315.772 8.474 316.219 8.897 316.513 9.431L315.298 10.142C315.196 9.926 315.04 9.737 314.83 9.575C314.62 9.407 314.38 9.275 314.11 9.179C313.84 9.083 313.564 9.032 313.282 9.026C312.934 9.014 312.607 9.059 312.301 9.161C312.001 9.263 311.758 9.419 311.572 9.629C311.392 9.833 311.302 10.088 311.302 10.394C311.302 10.694 311.398 10.922 311.59 11.078C311.788 11.234 312.043 11.36 312.355 11.456C312.673 11.546 313.018 11.651 313.39 11.771C313.936 11.945 314.446 12.146 314.92 12.374C315.394 12.602 315.775 12.887 316.063 13.229C316.357 13.571 316.501 13.994 316.495 14.498C316.495 15.05 316.33 15.533 316 15.947C315.67 16.355 315.241 16.667 314.713 16.883C314.191 17.099 313.63 17.195 313.03 17.171ZM322.699 9.512H320.656L320.647 17H319.135L319.144 9.512H317.596V8H319.144L319.135 5.174H320.647L320.656 8H322.699V9.512ZM331.32 8H332.832V17H331.32L331.257 15.479C330.975 16.001 330.585 16.424 330.087 16.748C329.595 17.072 329.007 17.234 328.323 17.234C327.663 17.234 327.045 17.111 326.469 16.865C325.893 16.613 325.383 16.268 324.939 15.83C324.501 15.386 324.159 14.876 323.913 14.3C323.667 13.724 323.544 13.103 323.544 12.437C323.544 11.795 323.664 11.189 323.904 10.619C324.144 10.049 324.477 9.551 324.903 9.125C325.335 8.693 325.833 8.357 326.397 8.117C326.961 7.871 327.567 7.748 328.215 7.748C328.923 7.748 329.544 7.916 330.078 8.252C330.612 8.582 331.044 9.011 331.374 9.539L331.32 8ZM328.296 15.767C328.89 15.767 329.403 15.623 329.835 15.335C330.273 15.041 330.609 14.645 330.843 14.147C331.083 13.649 331.203 13.1 331.203 12.5C331.203 11.888 331.083 11.336 330.843 10.844C330.603 10.346 330.264 9.953 329.826 9.665C329.394 9.371 328.884 9.224 328.296 9.224C327.702 9.224 327.162 9.371 326.676 9.665C326.19 9.959 325.803 10.355 325.515 10.853C325.233 11.345 325.092 11.894 325.092 12.5C325.092 13.106 325.239 13.658 325.533 14.156C325.827 14.648 326.217 15.041 326.703 15.335C327.189 15.623 327.72 15.767 328.296 15.767ZM339.293 9.512H337.25L337.241 17H335.729L335.738 9.512H334.19V8H335.738L335.729 5.174H337.241L337.25 8H339.293V9.512ZM344.638 17.234C343.81 17.234 343.054 17.021 342.37 16.595C341.692 16.169 341.149 15.599 340.741 14.885C340.339 14.165 340.138 13.37 340.138 12.5C340.138 11.84 340.255 11.225 340.489 10.655C340.723 10.079 341.044 9.575 341.452 9.143C341.866 8.705 342.346 8.363 342.892 8.117C343.438 7.871 344.02 7.748 344.638 7.748C345.316 7.748 345.937 7.886 346.501 8.162C347.071 8.432 347.557 8.81 347.959 9.296C348.367 9.782 348.67 10.346 348.868 10.988C349.072 11.63 349.147 12.317 349.093 13.049H341.749C341.821 13.559 341.989 14.015 342.253 14.417C342.517 14.813 342.853 15.128 343.261 15.362C343.675 15.596 344.134 15.716 344.638 15.722C345.178 15.722 345.667 15.584 346.105 15.308C346.543 15.026 346.897 14.642 347.167 14.156L348.706 14.516C348.346 15.314 347.803 15.968 347.077 16.478C346.351 16.982 345.538 17.234 344.638 17.234ZM341.704 11.861H347.572C347.524 11.357 347.362 10.898 347.086 10.484C346.81 10.064 346.459 9.728 346.033 9.476C345.607 9.224 345.142 9.098 344.638 9.098C344.134 9.098 343.672 9.221 343.252 9.467C342.832 9.713 342.484 10.046 342.208 10.466C341.938 10.88 341.77 11.345 341.704 11.861ZM350.486 8H351.998V17H350.486V8ZM351.26 6.533C351.02 6.533 350.819 6.455 350.657 6.299C350.495 6.143 350.414 5.948 350.414 5.714C350.414 5.48 350.495 5.285 350.657 5.129C350.819 4.973 351.017 4.895 351.251 4.895C351.485 4.895 351.683 4.973 351.845 5.129C352.007 5.285 352.088 5.48 352.088 5.714C352.088 5.948 352.007 6.143 351.845 6.299C351.689 6.455 351.494 6.533 351.26 6.533ZM362.063 11.402V17H360.551V11.735C360.551 11.279 360.44 10.865 360.218 10.493C359.996 10.121 359.699 9.827 359.327 9.611C358.955 9.389 358.541 9.278 358.085 9.278C357.635 9.278 357.221 9.389 356.843 9.611C356.471 9.827 356.174 10.121 355.952 10.493C355.73 10.865 355.619 11.279 355.619 11.735V17H354.107V8H355.619V9.125C355.937 8.705 356.339 8.372 356.825 8.126C357.311 7.874 357.839 7.748 358.409 7.748C359.081 7.748 359.693 7.913 360.245 8.243C360.803 8.567 361.244 9.005 361.568 9.557C361.898 10.109 362.063 10.724 362.063 11.402Z" fill="white"></path></svg>