<svg xmlns="http://www.w3.org/2000/svg" width="193" height="99" viewBox="0 0 193 99" fill="none"><rect x="0.833496" y="0.5" width="191.667" height="98" rx="9.5" fill="#1A1A1A"></rect><rect x="0.833496" y="0.5" width="191.667" height="98" rx="9.5" stroke="#262626"></rect><path d="M24.1735 47V29.66H21.5335L22.5235 26H27.8335V47H24.1735ZM38.3658 47.39C37.0258 47.39 35.7958 47.055 34.6758 46.385C33.5558 45.715 32.6608 44.82 31.9908 43.7C31.3208 42.58 30.9858 41.34 30.9858 39.98C30.9858 39.28 31.0658 38.63 31.2258 38.03C31.3958 37.43 31.6558 36.825 32.0058 36.215L37.8858 26H42.1308L38.1858 32.825C38.9958 32.765 39.7758 32.835 40.5258 33.035C41.2758 33.235 41.9708 33.55 42.6108 33.98C43.2508 34.41 43.8108 34.93 44.2908 35.54C44.7708 36.15 45.1408 36.83 45.4008 37.58C45.6708 38.33 45.8058 39.13 45.8058 39.98C45.8058 41 45.6108 41.955 45.2208 42.845C44.8408 43.735 44.3108 44.525 43.6308 45.215C42.9508 45.895 42.1608 46.43 41.2608 46.82C40.3608 47.2 39.3958 47.39 38.3658 47.39ZM38.3658 43.73C39.0958 43.73 39.7458 43.555 40.3158 43.205C40.8858 42.845 41.3308 42.38 41.6508 41.81C41.9808 41.24 42.1458 40.635 42.1458 39.995C42.1458 39.305 41.9808 38.675 41.6508 38.105C41.3208 37.535 40.8708 37.08 40.3008 36.74C39.7408 36.4 39.1058 36.23 38.3958 36.23C37.6658 36.23 37.0158 36.41 36.4458 36.77C35.8858 37.12 35.4458 37.58 35.1258 38.15C34.8058 38.72 34.6458 39.335 34.6458 39.995C34.6458 40.705 34.8208 41.34 35.1708 41.9C35.5208 42.46 35.9758 42.905 36.5358 43.235C37.1058 43.565 37.7158 43.73 38.3658 43.73ZM53.5707 45.5V39.83H47.9007V36.17H53.5707V30.5H57.2307V36.17H62.9007V39.83H57.2307V45.5H53.5707Z" fill="white"></path><path d="M28.1575 67.8H29.7415L25.9495 73.936V79H24.6055V73.936L20.8135 67.8H22.3975L25.2775 72.464L28.1575 67.8ZM33.3135 79.208C32.5775 79.208 31.9055 79.0187 31.2975 78.64C30.6948 78.2613 30.2122 77.7547 29.8495 77.12C29.4922 76.48 29.3135 75.7733 29.3135 75C29.3135 74.4133 29.4175 73.8667 29.6255 73.36C29.8335 72.848 30.1188 72.4 30.4815 72.016C30.8495 71.6267 31.2762 71.3227 31.7615 71.104C32.2468 70.8853 32.7642 70.776 33.3135 70.776C33.9162 70.776 34.4682 70.8987 34.9695 71.144C35.4762 71.384 35.9082 71.72 36.2655 72.152C36.6282 72.584 36.8975 73.0853 37.0735 73.656C37.2548 74.2267 37.3215 74.8373 37.2735 75.488H30.7455C30.8095 75.9413 30.9588 76.3467 31.1935 76.704C31.4282 77.056 31.7268 77.336 32.0895 77.544C32.4575 77.752 32.8655 77.8587 33.3135 77.864C33.7935 77.864 34.2282 77.7413 34.6175 77.496C35.0068 77.2453 35.3215 76.904 35.5615 76.472L36.9295 76.792C36.6095 77.5013 36.1268 78.0827 35.4815 78.536C34.8362 78.984 34.1135 79.208 33.3135 79.208ZM30.7055 74.432H35.9215C35.8788 73.984 35.7348 73.576 35.4895 73.208C35.2442 72.8347 34.9322 72.536 34.5535 72.312C34.1748 72.088 33.7615 71.976 33.3135 71.976C32.8655 71.976 32.4548 72.0853 32.0815 72.304C31.7082 72.5227 31.3988 72.8187 31.1535 73.192C30.9135 73.56 30.7642 73.9733 30.7055 74.432ZM45.0067 71H46.3507V79H45.0067L44.9507 77.648C44.7001 78.112 44.3534 78.488 43.9107 78.776C43.4734 79.064 42.9507 79.208 42.3427 79.208C41.7561 79.208 41.2067 79.0987 40.6947 78.88C40.1827 78.656 39.7294 78.3493 39.3347 77.96C38.9454 77.5653 38.6414 77.112 38.4227 76.6C38.2041 76.088 38.0947 75.536 38.0947 74.944C38.0947 74.3733 38.2014 73.8347 38.4147 73.328C38.6281 72.8213 38.9241 72.3787 39.3027 72C39.6867 71.616 40.1294 71.3173 40.6307 71.104C41.1321 70.8853 41.6707 70.776 42.2467 70.776C42.8761 70.776 43.4281 70.9253 43.9027 71.224C44.3774 71.5173 44.7614 71.8987 45.0547 72.368L45.0067 71ZM42.3187 77.904C42.8467 77.904 43.3027 77.776 43.6867 77.52C44.0761 77.2587 44.3747 76.9067 44.5827 76.464C44.7961 76.0213 44.9027 75.5333 44.9027 75C44.9027 74.456 44.7961 73.9653 44.5827 73.528C44.3694 73.0853 44.0681 72.736 43.6787 72.48C43.2947 72.2187 42.8414 72.088 42.3187 72.088C41.7907 72.088 41.3107 72.2187 40.8787 72.48C40.4467 72.7413 40.1027 73.0933 39.8467 73.536C39.5961 73.9733 39.4707 74.4613 39.4707 75C39.4707 75.5387 39.6014 76.0293 39.8627 76.472C40.1241 76.9093 40.4707 77.2587 40.9027 77.52C41.3347 77.776 41.8067 77.904 42.3187 77.904ZM47.9497 79V71H49.2937V72C49.5764 71.6267 49.9337 71.3307 50.3657 71.112C50.7977 70.888 51.2671 70.776 51.7737 70.776C52.0831 70.776 52.3817 70.816 52.6697 70.896L52.1257 72.24C51.9071 72.1707 51.6937 72.136 51.4857 72.136C51.0857 72.136 50.7177 72.2347 50.3817 72.432C50.0511 72.624 49.7871 72.8853 49.5897 73.216C49.3924 73.5467 49.2937 73.9147 49.2937 74.32V79H47.9497ZM56.0929 79.152C55.6609 79.136 55.2395 79.056 54.8289 78.912C54.4235 78.7627 54.0662 78.5627 53.7569 78.312C53.4529 78.056 53.2315 77.7627 53.0929 77.432L54.2449 76.936C54.3249 77.1173 54.4689 77.288 54.6769 77.448C54.8849 77.608 55.1249 77.736 55.3969 77.832C55.6689 77.928 55.9435 77.976 56.2209 77.976C56.5142 77.976 56.7889 77.9307 57.0449 77.84C57.3009 77.7493 57.5089 77.616 57.6689 77.44C57.8342 77.2587 57.9169 77.0427 57.9169 76.792C57.9169 76.5253 57.8262 76.3173 57.6449 76.168C57.4689 76.0133 57.2449 75.8933 56.9729 75.808C56.7062 75.7173 56.4342 75.632 56.1569 75.552C55.6075 75.4133 55.1169 75.248 54.6849 75.056C54.2529 74.8587 53.9115 74.6107 53.6609 74.312C53.4155 74.008 53.2929 73.6213 53.2929 73.152C53.2929 72.656 53.4289 72.2267 53.7009 71.864C53.9782 71.5013 54.3409 71.2213 54.7889 71.024C55.2369 70.8267 55.7169 70.728 56.2289 70.728C56.8742 70.728 57.4635 70.8667 57.9969 71.144C58.5302 71.4213 58.9275 71.7973 59.1889 72.272L58.1089 72.904C58.0182 72.712 57.8795 72.544 57.6929 72.4C57.5062 72.2507 57.2929 72.1333 57.0529 72.048C56.8129 71.9627 56.5675 71.9173 56.3169 71.912C56.0075 71.9013 55.7169 71.9413 55.4449 72.032C55.1782 72.1227 54.9622 72.2613 54.7969 72.448C54.6369 72.6293 54.5569 72.856 54.5569 73.128C54.5569 73.3947 54.6422 73.5973 54.8129 73.736C54.9889 73.8747 55.2155 73.9867 55.4929 74.072C55.7755 74.152 56.0822 74.2453 56.4129 74.352C56.8982 74.5067 57.3515 74.6853 57.7729 74.888C58.1942 75.0907 58.5329 75.344 58.7889 75.648C59.0502 75.952 59.1782 76.328 59.1729 76.776C59.1729 77.2667 59.0262 77.696 58.7329 78.064C58.4395 78.4267 58.0582 78.704 57.5889 78.896C57.1249 79.088 56.6262 79.1733 56.0929 79.152ZM67.9072 79.208C67.1712 79.208 66.4992 79.0187 65.8912 78.64C65.2886 78.2613 64.8059 77.7547 64.4432 77.12C64.0859 76.48 63.9072 75.7733 63.9072 75C63.9072 74.4133 64.0112 73.8667 64.2192 73.36C64.4272 72.848 64.7126 72.4 65.0752 72.016C65.4432 71.6267 65.8699 71.3227 66.3552 71.104C66.8406 70.8853 67.3579 70.776 67.9072 70.776C68.6432 70.776 69.3126 70.9653 69.9152 71.344C70.5232 71.7227 71.0059 72.232 71.3632 72.872C71.7259 73.512 71.9072 74.2213 71.9072 75C71.9072 75.5813 71.8032 76.1253 71.5952 76.632C71.3872 77.1387 71.0992 77.5867 70.7312 77.976C70.3686 78.36 69.9446 78.6613 69.4592 78.88C68.9792 79.0987 68.4619 79.208 67.9072 79.208ZM67.9072 77.864C68.4086 77.864 68.8592 77.7333 69.2592 77.472C69.6646 77.2053 69.9819 76.856 70.2112 76.424C70.4459 75.9867 70.5632 75.512 70.5632 75C70.5632 74.4773 70.4432 73.9973 70.2032 73.56C69.9686 73.1227 69.6512 72.7733 69.2512 72.512C68.8512 72.2507 68.4032 72.12 67.9072 72.12C67.4059 72.12 66.9552 72.2533 66.5552 72.52C66.1552 72.7813 65.8379 73.1307 65.6032 73.568C65.3686 74.0053 65.2512 74.4827 65.2512 75C65.2512 75.5333 65.3712 76.0187 65.6112 76.456C65.8512 76.888 66.1739 77.232 66.5792 77.488C66.9846 77.7387 67.4272 77.864 67.9072 77.864ZM75.1564 69.024V71H77.5004V72.344H75.1564V79H73.8124V72.344H72.7804V71H73.8124V69.024C73.8124 68.6133 73.911 68.2427 74.1084 67.912C74.311 67.576 74.5804 67.3093 74.9164 67.112C75.2577 66.9093 75.631 66.808 76.0364 66.808C76.335 66.808 76.6257 66.8693 76.9084 66.992C77.191 67.1093 77.4417 67.2853 77.6604 67.52L76.7004 68.472C76.6257 68.3707 76.527 68.2933 76.4044 68.24C76.287 68.1813 76.1644 68.152 76.0364 68.152C75.7964 68.152 75.5884 68.2373 75.4124 68.408C75.2417 68.5787 75.1564 68.784 75.1564 69.024ZM82.6529 79V67.8H89.5249V69.144H83.9969V72.328H88.5249V73.672H83.9969V77.656H89.5249V79H82.6529ZM90.5204 79L93.4484 74.984L90.5364 70.984H92.1924L94.2804 73.832L96.3604 70.984H98.0164L95.1044 74.984L98.0324 79H96.3764L94.2804 76.12L92.1764 79H90.5204ZM100.762 83H99.4185V71H100.762V72.368C101.034 71.8987 101.397 71.52 101.85 71.232C102.304 70.9387 102.842 70.792 103.466 70.792C104.048 70.792 104.592 70.9013 105.098 71.12C105.61 71.3387 106.058 71.6427 106.442 72.032C106.826 72.416 107.128 72.8613 107.346 73.368C107.565 73.8747 107.674 74.4187 107.674 75C107.674 75.5813 107.565 76.128 107.346 76.64C107.128 77.152 106.826 77.6027 106.442 77.992C106.058 78.376 105.61 78.6773 105.098 78.896C104.592 79.1147 104.048 79.224 103.466 79.224C102.842 79.224 102.304 79.08 101.85 78.792C101.397 78.4987 101.034 78.1173 100.762 77.648V83ZM103.45 72.096C102.933 72.096 102.48 72.2267 102.09 72.488C101.701 72.7493 101.4 73.0987 101.186 73.536C100.978 73.9733 100.874 74.4613 100.874 75C100.874 75.5333 100.978 76.0213 101.186 76.464C101.4 76.9067 101.698 77.2587 102.082 77.52C102.472 77.7813 102.928 77.912 103.45 77.912C103.968 77.912 104.442 77.784 104.874 77.528C105.306 77.2667 105.653 76.9173 105.914 76.48C106.176 76.0373 106.306 75.544 106.306 75C106.306 74.4667 106.178 73.9813 105.922 73.544C105.666 73.1013 105.322 72.7493 104.89 72.488C104.458 72.2267 103.978 72.096 103.45 72.096ZM112.485 79.208C111.749 79.208 111.077 79.0187 110.469 78.64C109.867 78.2613 109.384 77.7547 109.021 77.12C108.664 76.48 108.485 75.7733 108.485 75C108.485 74.4133 108.589 73.8667 108.797 73.36C109.005 72.848 109.291 72.4 109.653 72.016C110.021 71.6267 110.448 71.3227 110.933 71.104C111.419 70.8853 111.936 70.776 112.485 70.776C113.088 70.776 113.64 70.8987 114.141 71.144C114.648 71.384 115.08 71.72 115.437 72.152C115.8 72.584 116.069 73.0853 116.245 73.656C116.427 74.2267 116.493 74.8373 116.445 75.488H109.917C109.981 75.9413 110.131 76.3467 110.365 76.704C110.6 77.056 110.899 77.336 111.261 77.544C111.629 77.752 112.037 77.8587 112.485 77.864C112.965 77.864 113.4 77.7413 113.789 77.496C114.179 77.2453 114.493 76.904 114.733 76.472L116.101 76.792C115.781 77.5013 115.299 78.0827 114.653 78.536C114.008 78.984 113.285 79.208 112.485 79.208ZM109.877 74.432H115.093C115.051 73.984 114.907 73.576 114.661 73.208C114.416 72.8347 114.104 72.536 113.725 72.312C113.347 72.088 112.933 71.976 112.485 71.976C112.037 71.976 111.627 72.0853 111.253 72.304C110.88 72.5227 110.571 72.8187 110.325 73.192C110.085 73.56 109.936 73.9733 109.877 74.432ZM117.793 79V71H119.137V72C119.42 71.6267 119.777 71.3307 120.209 71.112C120.641 70.888 121.111 70.776 121.617 70.776C121.927 70.776 122.225 70.816 122.513 70.896L121.969 72.24C121.751 72.1707 121.537 72.136 121.329 72.136C120.929 72.136 120.561 72.2347 120.225 72.432C119.895 72.624 119.631 72.8853 119.433 73.216C119.236 73.5467 119.137 73.9147 119.137 74.32V79H117.793ZM123.497 71H124.841V79H123.497V71ZM124.185 69.696C123.971 69.696 123.793 69.6267 123.649 69.488C123.505 69.3493 123.433 69.176 123.433 68.968C123.433 68.76 123.505 68.5867 123.649 68.448C123.793 68.3093 123.969 68.24 124.177 68.24C124.385 68.24 124.561 68.3093 124.705 68.448C124.849 68.5867 124.921 68.76 124.921 68.968C124.921 69.176 124.849 69.3493 124.705 69.488C124.566 69.6267 124.393 69.696 124.185 69.696ZM130.173 79.208C129.437 79.208 128.765 79.0187 128.157 78.64C127.554 78.2613 127.072 77.7547 126.709 77.12C126.352 76.48 126.173 75.7733 126.173 75C126.173 74.4133 126.277 73.8667 126.485 73.36C126.693 72.848 126.978 72.4 127.341 72.016C127.709 71.6267 128.136 71.3227 128.621 71.104C129.106 70.8853 129.624 70.776 130.173 70.776C130.776 70.776 131.328 70.8987 131.829 71.144C132.336 71.384 132.768 71.72 133.125 72.152C133.488 72.584 133.757 73.0853 133.933 73.656C134.114 74.2267 134.181 74.8373 134.133 75.488H127.605C127.669 75.9413 127.818 76.3467 128.053 76.704C128.288 77.056 128.586 77.336 128.949 77.544C129.317 77.752 129.725 77.8587 130.173 77.864C130.653 77.864 131.088 77.7413 131.477 77.496C131.866 77.2453 132.181 76.904 132.421 76.472L133.789 76.792C133.469 77.5013 132.986 78.0827 132.341 78.536C131.696 78.984 130.973 79.208 130.173 79.208ZM127.565 74.432H132.781C132.738 73.984 132.594 73.576 132.349 73.208C132.104 72.8347 131.792 72.536 131.413 72.312C131.034 72.088 130.621 71.976 130.173 71.976C129.725 71.976 129.314 72.0853 128.941 72.304C128.568 72.5227 128.258 72.8187 128.013 73.192C127.773 73.56 127.624 73.9733 127.565 74.432ZM142.553 74.024V79H141.209V74.32C141.209 73.9147 141.11 73.5467 140.913 73.216C140.716 72.8853 140.452 72.624 140.121 72.432C139.79 72.2347 139.422 72.136 139.017 72.136C138.617 72.136 138.249 72.2347 137.913 72.432C137.582 72.624 137.318 72.8853 137.121 73.216C136.924 73.5467 136.825 73.9147 136.825 74.32V79H135.481V71H136.825V72C137.108 71.6267 137.465 71.3307 137.897 71.112C138.329 70.888 138.798 70.776 139.305 70.776C139.902 70.776 140.446 70.9227 140.937 71.216C141.433 71.504 141.825 71.8933 142.113 72.384C142.406 72.8747 142.553 73.4213 142.553 74.024ZM149.509 76.888L150.709 77.536C150.346 78.0427 149.885 78.448 149.325 78.752C148.77 79.056 148.167 79.208 147.517 79.208C146.781 79.208 146.109 79.0187 145.501 78.64C144.898 78.2613 144.415 77.7547 144.053 77.12C143.695 76.48 143.517 75.7733 143.517 75C143.517 74.4133 143.621 73.8667 143.829 73.36C144.037 72.848 144.322 72.4 144.685 72.016C145.053 71.6267 145.479 71.3227 145.965 71.104C146.45 70.8853 146.967 70.776 147.517 70.776C148.167 70.776 148.77 70.928 149.325 71.232C149.885 71.536 150.346 71.944 150.709 72.456L149.509 73.104C149.253 72.7893 148.949 72.5467 148.597 72.376C148.245 72.2053 147.885 72.12 147.517 72.12C147.021 72.12 146.57 72.2533 146.165 72.52C145.765 72.7813 145.447 73.1307 145.213 73.568C144.978 74.0053 144.861 74.4827 144.861 75C144.861 75.5173 144.978 75.9947 145.213 76.432C145.453 76.864 145.773 77.2107 146.173 77.472C146.578 77.7333 147.026 77.864 147.517 77.864C147.911 77.864 148.282 77.7733 148.629 77.592C148.975 77.4107 149.269 77.176 149.509 76.888ZM155.532 79.208C154.796 79.208 154.124 79.0187 153.516 78.64C152.914 78.2613 152.431 77.7547 152.068 77.12C151.711 76.48 151.532 75.7733 151.532 75C151.532 74.4133 151.636 73.8667 151.844 73.36C152.052 72.848 152.338 72.4 152.7 72.016C153.068 71.6267 153.495 71.3227 153.98 71.104C154.466 70.8853 154.983 70.776 155.532 70.776C156.135 70.776 156.687 70.8987 157.188 71.144C157.695 71.384 158.127 71.72 158.484 72.152C158.847 72.584 159.116 73.0853 159.292 73.656C159.474 74.2267 159.54 74.8373 159.492 75.488H152.964C153.028 75.9413 153.178 76.3467 153.412 76.704C153.647 77.056 153.946 77.336 154.308 77.544C154.676 77.752 155.084 77.8587 155.532 77.864C156.012 77.864 156.447 77.7413 156.836 77.496C157.226 77.2453 157.54 76.904 157.78 76.472L159.148 76.792C158.828 77.5013 158.346 78.0827 157.7 78.536C157.055 78.984 156.332 79.208 155.532 79.208ZM152.924 74.432H158.14C158.098 73.984 157.954 73.576 157.708 73.208C157.463 72.8347 157.151 72.536 156.772 72.312C156.394 72.088 155.98 71.976 155.532 71.976C155.084 71.976 154.674 72.0853 154.3 72.304C153.927 72.5227 153.618 72.8187 153.372 73.192C153.132 73.56 152.983 73.9733 152.924 74.432Z" fill="#999999"></path></svg>