<svg xmlns="http://www.w3.org/2000/svg" width="463" height="63" viewBox="0 0 463 63" fill="none"><g clip-path="url(#clip0_166_1132)"><path d="M7.367 5.2H8.543V15H7.367V10.338H2.516V15H1.34V5.2H2.516V9.162H7.367V5.2ZM13.2384 15.182C12.5944 15.182 12.0064 15.0163 11.4744 14.685C10.947 14.3537 10.5247 13.9103 10.2074 13.355C9.89469 12.795 9.73836 12.1767 9.73836 11.5C9.73836 10.9867 9.82936 10.5083 10.0114 10.065C10.1934 9.617 10.443 9.225 10.7604 8.889C11.0824 8.54833 11.4557 8.28233 11.8804 8.091C12.305 7.89967 12.7577 7.804 13.2384 7.804C13.8824 7.804 14.468 7.96967 14.9954 8.301C15.5274 8.63233 15.9497 9.078 16.2624 9.638C16.5797 10.198 16.7384 10.8187 16.7384 11.5C16.7384 12.0087 16.6474 12.4847 16.4654 12.928C16.2834 13.3713 16.0314 13.7633 15.7094 14.104C15.392 14.44 15.021 14.7037 14.5964 14.895C14.1764 15.0863 13.7237 15.182 13.2384 15.182ZM13.2384 14.006C13.677 14.006 14.0714 13.8917 14.4214 13.663C14.776 13.4297 15.0537 13.124 15.2544 12.746C15.4597 12.3633 15.5624 11.948 15.5624 11.5C15.5624 11.0427 15.4574 10.6227 15.2474 10.24C15.042 9.85733 14.7644 9.55167 14.4144 9.323C14.0644 9.09433 13.6724 8.98 13.2384 8.98C12.7997 8.98 12.4054 9.09667 12.0554 9.33C11.7054 9.55867 11.4277 9.86433 11.2224 10.247C11.017 10.6297 10.9144 11.0473 10.9144 11.5C10.9144 11.9667 11.0194 12.3913 11.2294 12.774C11.4394 13.152 11.7217 13.453 12.0764 13.677C12.431 13.8963 12.8184 14.006 13.2384 14.006ZM17.8966 15V8H19.0726V8.875C19.32 8.54833 19.6303 8.28933 20.0036 8.098C20.3816 7.902 20.7923 7.804 21.2356 7.804C21.7536 7.804 22.2273 7.93 22.6566 8.182C23.086 8.434 23.4243 8.76767 23.6716 9.183C23.919 8.76767 24.255 8.434 24.6796 8.182C25.109 7.93 25.5803 7.804 26.0936 7.804C26.621 7.804 27.0993 7.93233 27.5286 8.189C27.958 8.441 28.2986 8.78167 28.5506 9.211C28.8073 9.64033 28.9356 10.1187 28.9356 10.646V15H27.7596V10.926C27.7596 10.5807 27.6756 10.261 27.5076 9.967C27.3396 9.673 27.1133 9.43733 26.8286 9.26C26.544 9.08267 26.229 8.994 25.8836 8.994C25.5383 8.994 25.2233 9.078 24.9386 9.246C24.654 9.40933 24.4276 9.638 24.2596 9.932C24.0916 10.2213 24.0076 10.5527 24.0076 10.926V15H22.8316V10.926C22.8316 10.5527 22.7476 10.2213 22.5796 9.932C22.4116 9.638 22.183 9.40933 21.8936 9.246C21.609 9.078 21.294 8.994 20.9486 8.994C20.608 8.994 20.293 9.08267 20.0036 9.26C19.719 9.43733 19.4926 9.673 19.3246 9.967C19.1566 10.261 19.0726 10.5807 19.0726 10.926V15H17.8966ZM33.2813 15.182C32.6373 15.182 32.0493 15.0163 31.5173 14.685C30.99 14.3537 30.5677 13.9103 30.2503 13.355C29.9377 12.795 29.7813 12.1767 29.7813 11.5C29.7813 10.9867 29.8723 10.5083 30.0543 10.065C30.2363 9.617 30.486 9.225 30.8033 8.889C31.1253 8.54833 31.4987 8.28233 31.9233 8.091C32.348 7.89967 32.8007 7.804 33.2813 7.804C33.8087 7.804 34.2917 7.91133 34.7303 8.126C35.1737 8.336 35.5517 8.63 35.8643 9.008C36.1817 9.386 36.4173 9.82467 36.5713 10.324C36.73 10.8233 36.7883 11.3577 36.7463 11.927H31.0343C31.0903 12.3237 31.221 12.6783 31.4263 12.991C31.6317 13.299 31.893 13.544 32.2103 13.726C32.5323 13.908 32.8893 14.0013 33.2813 14.006C33.7013 14.006 34.0817 13.8987 34.4223 13.684C34.763 13.4647 35.0383 13.166 35.2483 12.788L36.4453 13.068C36.1653 13.6887 35.743 14.1973 35.1783 14.594C34.6137 14.986 33.9813 15.182 33.2813 15.182ZM30.9993 11.003H35.5633C35.526 10.611 35.4 10.254 35.1853 9.932C34.9707 9.60533 34.6977 9.344 34.3663 9.148C34.035 8.952 33.6733 8.854 33.2813 8.854C32.8893 8.854 32.53 8.94967 32.2033 9.141C31.8767 9.33233 31.606 9.59133 31.3913 9.918C31.1813 10.24 31.0507 10.6017 30.9993 11.003ZM40.9649 15.182C40.3209 15.182 39.7329 15.0163 39.2009 14.685C38.6736 14.3537 38.2513 13.9103 37.9339 13.355C37.6213 12.795 37.4649 12.1767 37.4649 11.5C37.4649 10.9867 37.5559 10.5083 37.7379 10.065C37.9199 9.617 38.1696 9.225 38.4869 8.889C38.8089 8.54833 39.1823 8.28233 39.6069 8.091C40.0316 7.89967 40.4843 7.804 40.9649 7.804C41.6089 7.804 42.1946 7.96967 42.7219 8.301C43.2539 8.63233 43.6763 9.078 43.9889 9.638C44.3063 10.198 44.4649 10.8187 44.4649 11.5C44.4649 12.0087 44.3739 12.4847 44.1919 12.928C44.0099 13.3713 43.7579 13.7633 43.4359 14.104C43.1186 14.44 42.7476 14.7037 42.3229 14.895C41.9029 15.0863 41.4503 15.182 40.9649 15.182ZM40.9649 14.006C41.4036 14.006 41.7979 13.8917 42.1479 13.663C42.5026 13.4297 42.7803 13.124 42.9809 12.746C43.1863 12.3633 43.2889 11.948 43.2889 11.5C43.2889 11.0427 43.1839 10.6227 42.9739 10.24C42.7686 9.85733 42.4909 9.55167 42.1409 9.323C41.7909 9.09433 41.3989 8.98 40.9649 8.98C40.5263 8.98 40.1319 9.09667 39.7819 9.33C39.4319 9.55867 39.1543 9.86433 38.9489 10.247C38.7436 10.6297 38.6409 11.0473 38.6409 11.5C38.6409 11.9667 38.7459 12.3913 38.9559 12.774C39.1659 13.152 39.4483 13.453 39.8029 13.677C40.1576 13.8963 40.5449 14.006 40.9649 14.006ZM48.4237 15H47.2338L44.8888 8H46.0368L47.8428 13.341L49.6278 8H50.8388L52.6308 13.341L54.4158 8H55.5778L53.2328 15H52.0358L50.2228 9.61L48.4237 15ZM62.8991 10.646V15H61.7231V10.905C61.7231 10.5503 61.6368 10.2283 61.4641 9.939C61.2914 9.64967 61.0604 9.421 60.7711 9.253C60.4818 9.08033 60.1598 8.994 59.8051 8.994C59.4551 8.994 59.1331 9.08033 58.8391 9.253C58.5498 9.421 58.3188 9.64967 58.1461 9.939C57.9734 10.2283 57.8871 10.5503 57.8871 10.905V15H56.7111V8H57.8871V8.875C58.1344 8.54833 58.4471 8.28933 58.8251 8.098C59.2031 7.902 59.6138 7.804 60.0571 7.804C60.5798 7.804 61.0558 7.93233 61.4851 8.189C61.9191 8.441 62.2621 8.78167 62.5141 9.211C62.7708 9.64033 62.8991 10.1187 62.8991 10.646ZM67.2423 15.182C66.5983 15.182 66.0103 15.0163 65.4783 14.685C64.9509 14.3537 64.5286 13.9103 64.2113 13.355C63.8986 12.795 63.7423 12.1767 63.7423 11.5C63.7423 10.9867 63.8333 10.5083 64.0153 10.065C64.1973 9.617 64.4469 9.225 64.7643 8.889C65.0863 8.54833 65.4596 8.28233 65.8843 8.091C66.3089 7.89967 66.7616 7.804 67.2423 7.804C67.7696 7.804 68.2526 7.91133 68.6913 8.126C69.1346 8.336 69.5126 8.63 69.8253 9.008C70.1426 9.386 70.3783 9.82467 70.5323 10.324C70.6909 10.8233 70.7493 11.3577 70.7073 11.927H64.9953C65.0513 12.3237 65.1819 12.6783 65.3873 12.991C65.5926 13.299 65.8539 13.544 66.1713 13.726C66.4933 13.908 66.8503 14.0013 67.2423 14.006C67.6623 14.006 68.0426 13.8987 68.3833 13.684C68.7239 13.4647 68.9993 13.166 69.2093 12.788L70.4063 13.068C70.1263 13.6887 69.7039 14.1973 69.1393 14.594C68.5746 14.986 67.9423 15.182 67.2423 15.182ZM64.9603 11.003H69.5243C69.4869 10.611 69.3609 10.254 69.1463 9.932C68.9316 9.60533 68.6586 9.344 68.3273 9.148C67.9959 8.952 67.6343 8.854 67.2423 8.854C66.8503 8.854 66.4909 8.94967 66.1643 9.141C65.8376 9.33233 65.5669 9.59133 65.3523 9.918C65.1423 10.24 65.0116 10.6017 64.9603 11.003ZM71.8869 15V8H73.0629V8.875C73.3102 8.54833 73.6229 8.28933 74.0009 8.098C74.3789 7.902 74.7895 7.804 75.2329 7.804C75.5035 7.804 75.7649 7.839 76.0169 7.909L75.5409 9.085C75.3495 9.02433 75.1629 8.994 74.9809 8.994C74.6309 8.994 74.3089 9.08033 74.0149 9.253C73.7255 9.421 73.4945 9.64967 73.3219 9.939C73.1492 10.2283 73.0629 10.5503 73.0629 10.905V15H71.8869ZM79.0121 15.133C78.6341 15.119 78.2654 15.049 77.9061 14.923C77.5514 14.7923 77.2388 14.6173 76.9681 14.398C76.7021 14.174 76.5084 13.9173 76.3871 13.628L77.3951 13.194C77.4651 13.3527 77.5911 13.502 77.7731 13.642C77.9551 13.782 78.1651 13.894 78.4031 13.978C78.6411 14.062 78.8814 14.104 79.1241 14.104C79.3808 14.104 79.6211 14.0643 79.8451 13.985C80.0691 13.9057 80.2511 13.789 80.3911 13.635C80.5358 13.4763 80.6081 13.2873 80.6081 13.068C80.6081 12.8347 80.5288 12.6527 80.3701 12.522C80.2161 12.3867 80.0201 12.2817 79.7821 12.207C79.5488 12.1277 79.3108 12.053 79.0681 11.983C78.5874 11.8617 78.1581 11.717 77.7801 11.549C77.4021 11.3763 77.1034 11.1593 76.8841 10.898C76.6694 10.632 76.5621 10.2937 76.5621 9.883C76.5621 9.449 76.6811 9.07333 76.9191 8.756C77.1618 8.43867 77.4791 8.19367 77.8711 8.021C78.2631 7.84833 78.6831 7.762 79.1311 7.762C79.6958 7.762 80.2114 7.88333 80.6781 8.126C81.1448 8.36867 81.4924 8.69767 81.7211 9.113L80.7761 9.666C80.6968 9.498 80.5754 9.351 80.4121 9.225C80.2488 9.09433 80.0621 8.99167 79.8521 8.917C79.6421 8.84233 79.4274 8.80267 79.2081 8.798C78.9374 8.78867 78.6831 8.82367 78.4451 8.903C78.2118 8.98233 78.0228 9.10367 77.8781 9.267C77.7381 9.42567 77.6681 9.624 77.6681 9.862C77.6681 10.0953 77.7428 10.2727 77.8921 10.394C78.0461 10.5153 78.2444 10.6133 78.4871 10.688C78.7344 10.758 79.0028 10.8397 79.2921 10.933C79.7168 11.0683 80.1134 11.2247 80.4821 11.402C80.8508 11.5793 81.1471 11.801 81.3711 12.067C81.5998 12.333 81.7118 12.662 81.7071 13.054C81.7071 13.4833 81.5788 13.859 81.3221 14.181C81.0654 14.4983 80.7318 14.741 80.3211 14.909C79.9151 15.077 79.4788 15.1517 79.0121 15.133ZM82.5634 8.854V5.2H83.4244V8.854H82.5634ZM91.4121 5.2H92.8331L96.3961 15H95.1501L94.4221 12.998H89.8231L89.1021 15H87.8491L91.4121 5.2ZM90.2571 11.822H93.9881L92.1191 6.705L90.2571 11.822ZM99.4652 15.133C99.0872 15.119 98.7186 15.049 98.3592 14.923C98.0046 14.7923 97.6919 14.6173 97.4212 14.398C97.1552 14.174 96.9616 13.9173 96.8402 13.628L97.8482 13.194C97.9182 13.3527 98.0442 13.502 98.2262 13.642C98.4082 13.782 98.6182 13.894 98.8562 13.978C99.0942 14.062 99.3346 14.104 99.5772 14.104C99.8339 14.104 100.074 14.0643 100.298 13.985C100.522 13.9057 100.704 13.789 100.844 13.635C100.989 13.4763 101.061 13.2873 101.061 13.068C101.061 12.8347 100.982 12.6527 100.823 12.522C100.669 12.3867 100.473 12.2817 100.235 12.207C100.002 12.1277 99.7639 12.053 99.5212 11.983C99.0406 11.8617 98.6112 11.717 98.2332 11.549C97.8552 11.3763 97.5566 11.1593 97.3372 10.898C97.1226 10.632 97.0152 10.2937 97.0152 9.883C97.0152 9.449 97.1342 9.07333 97.3722 8.756C97.6149 8.43867 97.9322 8.19367 98.3242 8.021C98.7162 7.84833 99.1362 7.762 99.5842 7.762C100.149 7.762 100.665 7.88333 101.131 8.126C101.598 8.36867 101.946 8.69767 102.174 9.113L101.229 9.666C101.15 9.498 101.029 9.351 100.865 9.225C100.702 9.09433 100.515 8.99167 100.305 8.917C100.095 8.84233 99.8806 8.80267 99.6612 8.798C99.3906 8.78867 99.1362 8.82367 98.8982 8.903C98.6649 8.98233 98.4759 9.10367 98.3312 9.267C98.1912 9.42567 98.1212 9.624 98.1212 9.862C98.1212 10.0953 98.1959 10.2727 98.3452 10.394C98.4992 10.5153 98.6976 10.6133 98.9402 10.688C99.1876 10.758 99.4559 10.8397 99.7452 10.933C100.17 11.0683 100.567 11.2247 100.935 11.402C101.304 11.5793 101.6 11.801 101.824 12.067C102.053 12.333 102.165 12.662 102.16 13.054C102.16 13.4833 102.032 13.859 101.775 14.181C101.519 14.4983 101.185 14.741 100.774 14.909C100.368 15.077 99.9319 15.1517 99.4652 15.133ZM105.495 15.133C105.117 15.119 104.748 15.049 104.389 14.923C104.034 14.7923 103.721 14.6173 103.451 14.398C103.185 14.174 102.991 13.9173 102.87 13.628L103.878 13.194C103.948 13.3527 104.074 13.502 104.256 13.642C104.438 13.782 104.648 13.894 104.886 13.978C105.124 14.062 105.364 14.104 105.607 14.104C105.863 14.104 106.104 14.0643 106.328 13.985C106.552 13.9057 106.734 13.789 106.874 13.635C107.018 13.4763 107.091 13.2873 107.091 13.068C107.091 12.8347 107.011 12.6527 106.853 12.522C106.699 12.3867 106.503 12.2817 106.265 12.207C106.031 12.1277 105.793 12.053 105.551 11.983C105.07 11.8617 104.641 11.717 104.263 11.549C103.885 11.3763 103.586 11.1593 103.367 10.898C103.152 10.632 103.045 10.2937 103.045 9.883C103.045 9.449 103.164 9.07333 103.402 8.756C103.644 8.43867 103.962 8.19367 104.354 8.021C104.746 7.84833 105.166 7.762 105.614 7.762C106.178 7.762 106.694 7.88333 107.161 8.126C107.627 8.36867 107.975 8.69767 108.204 9.113L107.259 9.666C107.179 9.498 107.058 9.351 106.895 9.225C106.731 9.09433 106.545 8.99167 106.335 8.917C106.125 8.84233 105.91 8.80267 105.691 8.798C105.42 8.78867 105.166 8.82367 104.928 8.903C104.694 8.98233 104.505 9.10367 104.361 9.267C104.221 9.42567 104.151 9.624 104.151 9.862C104.151 10.0953 104.225 10.2727 104.375 10.394C104.529 10.5153 104.727 10.6133 104.97 10.688C105.217 10.758 105.485 10.8397 105.775 10.933C106.199 11.0683 106.596 11.2247 106.965 11.402C107.333 11.5793 107.63 11.801 107.854 12.067C108.082 12.333 108.194 12.662 108.19 13.054C108.19 13.4833 108.061 13.859 107.805 14.181C107.548 14.4983 107.214 14.741 106.804 14.909C106.398 15.077 105.961 15.1517 105.495 15.133ZM112.4 15.182C111.756 15.182 111.168 15.0163 110.636 14.685C110.109 14.3537 109.687 13.9103 109.369 13.355C109.057 12.795 108.9 12.1767 108.9 11.5C108.9 10.9867 108.991 10.5083 109.173 10.065C109.355 9.617 109.605 9.225 109.922 8.889C110.244 8.54833 110.618 8.28233 111.042 8.091C111.467 7.89967 111.92 7.804 112.4 7.804C113.044 7.804 113.63 7.96967 114.157 8.301C114.689 8.63233 115.112 9.078 115.424 9.638C115.742 10.198 115.9 10.8187 115.9 11.5C115.9 12.0087 115.809 12.4847 115.627 12.928C115.445 13.3713 115.193 13.7633 114.871 14.104C114.554 14.44 114.183 14.7037 113.758 14.895C113.338 15.0863 112.886 15.182 112.4 15.182ZM112.4 14.006C112.839 14.006 113.233 13.8917 113.583 13.663C113.938 13.4297 114.216 13.124 114.416 12.746C114.622 12.3633 114.724 11.948 114.724 11.5C114.724 11.0427 114.619 10.6227 114.409 10.24C114.204 9.85733 113.926 9.55167 113.576 9.323C113.226 9.09433 112.834 8.98 112.4 8.98C111.962 8.98 111.567 9.09667 111.217 9.33C110.867 9.55867 110.59 9.86433 110.384 10.247C110.179 10.6297 110.076 11.0473 110.076 11.5C110.076 11.9667 110.181 12.3913 110.391 12.774C110.601 13.152 110.884 13.453 111.238 13.677C111.593 13.8963 111.98 14.006 112.4 14.006ZM121.841 13.152L122.891 13.719C122.573 14.1623 122.17 14.517 121.68 14.783C121.194 15.049 120.667 15.182 120.098 15.182C119.454 15.182 118.866 15.0163 118.334 14.685C117.806 14.3537 117.384 13.9103 117.067 13.355C116.754 12.795 116.598 12.1767 116.598 11.5C116.598 10.9867 116.689 10.5083 116.871 10.065C117.053 9.617 117.302 9.225 117.62 8.889C117.942 8.54833 118.315 8.28233 118.74 8.091C119.164 7.89967 119.617 7.804 120.098 7.804C120.667 7.804 121.194 7.937 121.68 8.203C122.17 8.469 122.573 8.826 122.891 9.274L121.841 9.841C121.617 9.56567 121.351 9.35333 121.043 9.204C120.735 9.05467 120.42 8.98 120.098 8.98C119.664 8.98 119.269 9.09667 118.915 9.33C118.565 9.55867 118.287 9.86433 118.082 10.247C117.876 10.6297 117.774 11.0473 117.774 11.5C117.774 11.9527 117.876 12.3703 118.082 12.753C118.292 13.131 118.572 13.4343 118.922 13.663C119.276 13.8917 119.668 14.006 120.098 14.006C120.443 14.006 120.767 13.9267 121.071 13.768C121.374 13.6093 121.631 13.404 121.841 13.152ZM123.99 8H125.166V15H123.99V8ZM124.592 6.859C124.406 6.859 124.249 6.79833 124.123 6.677C123.997 6.55567 123.934 6.404 123.934 6.222C123.934 6.04 123.997 5.88833 124.123 5.767C124.249 5.64567 124.403 5.585 124.585 5.585C124.767 5.585 124.921 5.64567 125.047 5.767C125.173 5.88833 125.236 6.04 125.236 6.222C125.236 6.404 125.173 6.55567 125.047 6.677C124.926 6.79833 124.774 6.859 124.592 6.859ZM132.38 8H133.556V15H132.38L132.331 13.817C132.112 14.223 131.808 14.552 131.421 14.804C131.038 15.056 130.581 15.182 130.049 15.182C129.536 15.182 129.055 15.0863 128.607 14.895C128.159 14.699 127.762 14.4307 127.417 14.09C127.076 13.7447 126.81 13.348 126.619 12.9C126.428 12.452 126.332 11.969 126.332 11.451C126.332 10.9517 126.425 10.4803 126.612 10.037C126.799 9.59367 127.058 9.20633 127.389 8.875C127.725 8.539 128.112 8.27767 128.551 8.091C128.99 7.89967 129.461 7.804 129.965 7.804C130.516 7.804 130.999 7.93467 131.414 8.196C131.829 8.45267 132.165 8.78633 132.422 9.197L132.38 8ZM130.028 14.041C130.49 14.041 130.889 13.929 131.225 13.705C131.566 13.4763 131.827 13.1683 132.009 12.781C132.196 12.3937 132.289 11.9667 132.289 11.5C132.289 11.024 132.196 10.5947 132.009 10.212C131.822 9.82467 131.559 9.519 131.218 9.295C130.882 9.06633 130.485 8.952 130.028 8.952C129.566 8.952 129.146 9.06633 128.768 9.295C128.39 9.52367 128.089 9.83167 127.865 10.219C127.646 10.6017 127.536 11.0287 127.536 11.5C127.536 11.9713 127.65 12.4007 127.879 12.788C128.108 13.1707 128.411 13.4763 128.789 13.705C129.167 13.929 129.58 14.041 130.028 14.041ZM138.581 9.176H136.992L136.985 15H135.809L135.816 9.176H134.612V8H135.816L135.809 5.802H136.985L136.992 8H138.581V9.176ZM139.768 8H140.944V15H139.768V8ZM140.37 6.859C140.183 6.859 140.027 6.79833 139.901 6.677C139.775 6.55567 139.712 6.404 139.712 6.222C139.712 6.04 139.775 5.88833 139.901 5.767C140.027 5.64567 140.181 5.585 140.363 5.585C140.545 5.585 140.699 5.64567 140.825 5.767C140.951 5.88833 141.014 6.04 141.014 6.222C141.014 6.404 140.951 6.55567 140.825 6.677C140.703 6.79833 140.552 6.859 140.37 6.859ZM145.609 15.182C144.965 15.182 144.377 15.0163 143.845 14.685C143.318 14.3537 142.896 13.9103 142.578 13.355C142.266 12.795 142.109 12.1767 142.109 11.5C142.109 10.9867 142.2 10.5083 142.382 10.065C142.564 9.617 142.814 9.225 143.131 8.889C143.453 8.54833 143.827 8.28233 144.251 8.091C144.676 7.89967 145.129 7.804 145.609 7.804C146.253 7.804 146.839 7.96967 147.366 8.301C147.898 8.63233 148.321 9.078 148.633 9.638C148.951 10.198 149.109 10.8187 149.109 11.5C149.109 12.0087 149.018 12.4847 148.836 12.928C148.654 13.3713 148.402 13.7633 148.08 14.104C147.763 14.44 147.392 14.7037 146.967 14.895C146.547 15.0863 146.095 15.182 145.609 15.182ZM145.609 14.006C146.048 14.006 146.442 13.8917 146.792 13.663C147.147 13.4297 147.425 13.124 147.625 12.746C147.831 12.3633 147.933 11.948 147.933 11.5C147.933 11.0427 147.828 10.6227 147.618 10.24C147.413 9.85733 147.135 9.55167 146.785 9.323C146.435 9.09433 146.043 8.98 145.609 8.98C145.171 8.98 144.776 9.09667 144.426 9.33C144.076 9.55867 143.799 9.86433 143.593 10.247C143.388 10.6297 143.285 11.0473 143.285 11.5C143.285 11.9667 143.39 12.3913 143.6 12.774C143.81 13.152 144.093 13.453 144.447 13.677C144.802 13.8963 145.189 14.006 145.609 14.006ZM156.456 10.646V15H155.28V10.905C155.28 10.5503 155.193 10.2283 155.021 9.939C154.848 9.64967 154.617 9.421 154.328 9.253C154.038 9.08033 153.716 8.994 153.362 8.994C153.012 8.994 152.69 9.08033 152.396 9.253C152.106 9.421 151.875 9.64967 151.703 9.939C151.53 10.2283 151.444 10.5503 151.444 10.905V15H150.268V8H151.444V8.875C151.691 8.54833 152.004 8.28933 152.382 8.098C152.76 7.902 153.17 7.804 153.614 7.804C154.136 7.804 154.612 7.93233 155.042 8.189C155.476 8.441 155.819 8.78167 156.071 9.211C156.327 9.64033 156.456 10.1187 156.456 10.646ZM161.219 15V5.2H166.966V6.376H162.395V9.162H166.294V10.338H162.395V15H161.219ZM170.369 15.182C169.725 15.182 169.137 15.0163 168.605 14.685C168.078 14.3537 167.656 13.9103 167.338 13.355C167.026 12.795 166.869 12.1767 166.869 11.5C166.869 10.9867 166.96 10.5083 167.142 10.065C167.324 9.617 167.574 9.225 167.891 8.889C168.213 8.54833 168.587 8.28233 169.011 8.091C169.436 7.89967 169.889 7.804 170.369 7.804C170.897 7.804 171.38 7.91133 171.818 8.126C172.262 8.336 172.64 8.63 172.952 9.008C173.27 9.386 173.505 9.82467 173.659 10.324C173.818 10.8233 173.876 11.3577 173.834 11.927H168.122C168.178 12.3237 168.309 12.6783 168.514 12.991C168.72 13.299 168.981 13.544 169.298 13.726C169.62 13.908 169.977 14.0013 170.369 14.006C170.789 14.006 171.17 13.8987 171.51 13.684C171.851 13.4647 172.126 13.166 172.336 12.788L173.533 13.068C173.253 13.6887 172.831 14.1973 172.266 14.594C171.702 14.986 171.069 15.182 170.369 15.182ZM168.087 11.003H172.651C172.614 10.611 172.488 10.254 172.273 9.932C172.059 9.60533 171.786 9.344 171.454 9.148C171.123 8.952 170.761 8.854 170.369 8.854C169.977 8.854 169.618 8.94967 169.291 9.141C168.965 9.33233 168.694 9.59133 168.479 9.918C168.269 10.24 168.139 10.6017 168.087 11.003ZM178.053 15.182C177.409 15.182 176.821 15.0163 176.289 14.685C175.761 14.3537 175.339 13.9103 175.022 13.355C174.709 12.795 174.553 12.1767 174.553 11.5C174.553 10.9867 174.644 10.5083 174.826 10.065C175.008 9.617 175.257 9.225 175.575 8.889C175.897 8.54833 176.27 8.28233 176.695 8.091C177.119 7.89967 177.572 7.804 178.053 7.804C178.58 7.804 179.063 7.91133 179.502 8.126C179.945 8.336 180.323 8.63 180.636 9.008C180.953 9.386 181.189 9.82467 181.343 10.324C181.501 10.8233 181.56 11.3577 181.518 11.927H175.806C175.862 12.3237 175.992 12.6783 176.198 12.991C176.403 13.299 176.664 13.544 176.982 13.726C177.304 13.908 177.661 14.0013 178.053 14.006C178.473 14.006 178.853 13.8987 179.194 13.684C179.534 13.4647 179.81 13.166 180.02 12.788L181.217 13.068C180.937 13.6887 180.514 14.1973 179.95 14.594C179.385 14.986 178.753 15.182 178.053 15.182ZM175.771 11.003H180.335C180.297 10.611 180.171 10.254 179.957 9.932C179.742 9.60533 179.469 9.344 179.138 9.148C178.806 8.952 178.445 8.854 178.053 8.854C177.661 8.854 177.301 8.94967 176.975 9.141C176.648 9.33233 176.377 9.59133 176.163 9.918C175.953 10.24 175.822 10.6017 175.771 11.003Z" fill="#999999"></path><path d="M6.49 42.86C5.95667 42.8533 5.45667 42.94 4.99 43.12C4.53 43.2933 4.15333 43.5333 3.86 43.84C3.56667 44.1467 3.42 44.5033 3.42 44.91C3.42 45.41 3.55667 45.79 3.83 46.05C4.10333 46.31 4.47 46.5033 4.93 46.63C5.39667 46.75 5.91667 46.86 6.49 46.96C7.41 47.1067 8.26 47.35 9.04 47.69C9.82667 48.03 10.4567 48.4833 10.93 49.05C11.41 49.61 11.65 50.3 11.65 51.12C11.65 51.8733 11.45 52.5433 11.05 53.13C10.65 53.71 10.1133 54.18 9.44 54.54C8.77333 54.8933 8.03667 55.1167 7.23 55.21V57.24H5.76V55.21C5.08667 55.1433 4.44667 54.9833 3.84 54.73C3.24 54.4767 2.71667 54.14 2.27 53.72C1.82333 53.3 1.5 52.8133 1.3 52.26L3.25 51.53C3.36333 51.85 3.58 52.1367 3.9 52.39C4.22667 52.6367 4.61333 52.83 5.06 52.97C5.51333 53.11 5.99 53.18 6.49 53.18C7.02333 53.18 7.52333 53.0933 7.99 52.92C8.46333 52.7467 8.84333 52.5067 9.13 52.2C9.42333 51.8933 9.57 51.5333 9.57 51.12C9.57 50.6933 9.41667 50.3433 9.11 50.07C8.81 49.7967 8.42333 49.58 7.95 49.42C7.48333 49.26 6.99667 49.14 6.49 49.06C5.51 48.9 4.63 48.6667 3.85 48.36C3.07667 48.0533 2.46333 47.6233 2.01 47.07C1.56333 46.5167 1.34 45.7967 1.34 44.91C1.34 44.1567 1.54 43.4867 1.94 42.9C2.34 42.3133 2.87333 41.8433 3.54 41.49C4.21333 41.13 4.95333 40.9067 5.76 40.82V38.76H7.23V40.82C7.88333 40.8867 8.51 41.0467 9.11 41.3C9.71667 41.5533 10.2467 41.89 10.7 42.31C11.1533 42.7233 11.4833 43.2167 11.69 43.79L9.72 44.5C9.60667 44.1733 9.39 43.89 9.07 43.65C8.75 43.4033 8.36333 43.21 7.91 43.07C7.46333 42.93 6.99 42.86 6.49 42.86ZM17.5322 55.26C16.6855 55.26 15.9255 55.0633 15.2522 54.67C14.5855 54.2767 14.0589 53.75 13.6722 53.09C13.2855 52.43 13.0922 51.6967 13.0922 50.89H15.1722C15.1722 51.31 15.2722 51.6933 15.4722 52.04C15.6722 52.3867 15.9489 52.6633 16.3022 52.87C16.6555 53.0767 17.0655 53.18 17.5322 53.18C17.9522 53.18 18.3422 53.0767 18.7022 52.87C19.0622 52.6633 19.3522 52.3867 19.5722 52.04C19.7922 51.6933 19.9022 51.31 19.9022 50.89C19.9022 50.3567 19.7622 49.91 19.4822 49.55C19.2022 49.19 18.8122 48.9233 18.3122 48.75C17.8189 48.57 17.2489 48.48 16.6022 48.48V46.84C17.4822 46.84 18.1855 46.6667 18.7122 46.32C19.2389 45.9733 19.5022 45.4567 19.5022 44.77C19.5022 44.41 19.4055 44.0833 19.2122 43.79C19.0255 43.49 18.7755 43.2533 18.4622 43.08C18.1555 42.9 17.8255 42.81 17.4722 42.81C17.1055 42.81 16.7522 42.9 16.4122 43.08C16.0789 43.2533 15.8055 43.49 15.5922 43.79C15.3789 44.0833 15.2722 44.41 15.2722 44.77H13.1922C13.1922 44.2167 13.3055 43.6967 13.5322 43.21C13.7655 42.7167 14.0789 42.2867 14.4722 41.92C14.8722 41.5467 15.3255 41.2567 15.8322 41.05C16.3455 40.8367 16.8822 40.73 17.4422 40.73C18.1755 40.73 18.8555 40.9133 19.4822 41.28C20.1155 41.64 20.6222 42.1267 21.0022 42.74C21.3889 43.3467 21.5822 44.0233 21.5822 44.77C21.5822 45.3633 21.4355 45.9267 21.1422 46.46C20.8555 46.9867 20.4555 47.36 19.9422 47.58C20.3889 47.74 20.7622 47.9933 21.0622 48.34C21.3689 48.68 21.5989 49.0733 21.7522 49.52C21.9055 49.96 21.9822 50.4167 21.9822 50.89C21.9822 51.69 21.7789 52.4233 21.3722 53.09C20.9655 53.75 20.4222 54.2767 19.7422 54.67C19.0689 55.0633 18.3322 55.26 17.5322 55.26ZM28.6198 55.26C27.7932 55.26 27.0465 55.0733 26.3798 54.7C25.7198 54.32 25.1498 53.7967 24.6698 53.13C24.1898 52.4633 23.8232 51.6933 23.5698 50.82C23.3165 49.94 23.1898 49 23.1898 48C23.1898 47 23.3165 46.06 23.5698 45.18C23.8232 44.3 24.1898 43.53 24.6698 42.87C25.1498 42.2033 25.7198 41.6833 26.3798 41.31C27.0465 40.93 27.7932 40.74 28.6198 40.74C29.4332 40.74 30.1732 40.93 30.8398 41.31C31.5065 41.6833 32.0732 42.2033 32.5398 42.87C33.0132 43.53 33.3765 44.3 33.6298 45.18C33.8832 46.06 34.0098 47 34.0098 48C34.0098 49 33.8832 49.94 33.6298 50.82C33.3765 51.6933 33.0132 52.4633 32.5398 53.13C32.0732 53.7967 31.5065 54.32 30.8398 54.7C30.1732 55.0733 29.4332 55.26 28.6198 55.26ZM28.6198 53.18C29.3865 53.18 30.0232 52.94 30.5298 52.46C31.0432 51.9733 31.4265 51.3367 31.6798 50.55C31.9332 49.7633 32.0598 48.9133 32.0598 48C32.0598 47.04 31.9265 46.17 31.6598 45.39C31.3998 44.6033 31.0132 43.98 30.4998 43.52C29.9932 43.0533 29.3665 42.82 28.6198 42.82C28.0265 42.82 27.5098 42.96 27.0698 43.24C26.6365 43.52 26.2765 43.9033 25.9898 44.39C25.7098 44.8767 25.4965 45.43 25.3498 46.05C25.2098 46.67 25.1398 47.32 25.1398 48C25.1398 48.9133 25.2698 49.7633 25.5298 50.55C25.7898 51.3367 26.1765 51.9733 26.6898 52.46C27.2098 52.94 27.8532 53.18 28.6198 53.18ZM40.2605 55.26C39.4338 55.26 38.6871 55.0733 38.0205 54.7C37.3605 54.32 36.7905 53.7967 36.3105 53.13C35.8305 52.4633 35.4638 51.6933 35.2105 50.82C34.9571 49.94 34.8305 49 34.8305 48C34.8305 47 34.9571 46.06 35.2105 45.18C35.4638 44.3 35.8305 43.53 36.3105 42.87C36.7905 42.2033 37.3605 41.6833 38.0205 41.31C38.6871 40.93 39.4338 40.74 40.2605 40.74C41.0738 40.74 41.8138 40.93 42.4805 41.31C43.1471 41.6833 43.7138 42.2033 44.1805 42.87C44.6538 43.53 45.0171 44.3 45.2705 45.18C45.5238 46.06 45.6505 47 45.6505 48C45.6505 49 45.5238 49.94 45.2705 50.82C45.0171 51.6933 44.6538 52.4633 44.1805 53.13C43.7138 53.7967 43.1471 54.32 42.4805 54.7C41.8138 55.0733 41.0738 55.26 40.2605 55.26ZM40.2605 53.18C41.0271 53.18 41.6638 52.94 42.1705 52.46C42.6838 51.9733 43.0671 51.3367 43.3205 50.55C43.5738 49.7633 43.7005 48.9133 43.7005 48C43.7005 47.04 43.5671 46.17 43.3005 45.39C43.0405 44.6033 42.6538 43.98 42.1405 43.52C41.6338 43.0533 41.0071 42.82 40.2605 42.82C39.6671 42.82 39.1505 42.96 38.7105 43.24C38.2771 43.52 37.9171 43.9033 37.6305 44.39C37.3505 44.8767 37.1371 45.43 36.9905 46.05C36.8505 46.67 36.7805 47.32 36.7805 48C36.7805 48.9133 36.9105 49.7633 37.1705 50.55C37.4305 51.3367 37.8171 51.9733 38.3305 52.46C38.8505 52.94 39.4938 53.18 40.2605 53.18Z" fill="white"></path></g><defs><clipPath id="clip0_166_1132"><rect width="462.5" height="63" fill="white" transform="translate(0.5)"></rect></clipPath></defs></svg>