<svg xmlns="http://www.w3.org/2000/svg" width="193" height="99" viewBox="0 0 193 99" fill="none"><rect x="0.5" y="0.5" width="191.667" height="98" rx="9.5" fill="#1A1A1A"></rect><rect x="0.5" y="0.5" width="191.667" height="98" rx="9.5" stroke="#262626"></rect><path d="M21.2 47V43.73C21.85 43.24 22.62 42.635 23.51 41.915C24.4 41.185 25.315 40.4 26.255 39.56C27.195 38.71 28.065 37.86 28.865 37.01C29.665 36.16 30.315 35.35 30.815 34.58C31.325 33.81 31.58 33.15 31.58 32.6C31.58 31.99 31.43 31.435 31.13 30.935C30.83 30.425 30.43 30.02 29.93 29.72C29.44 29.42 28.89 29.27 28.28 29.27C27.67 29.27 27.115 29.42 26.615 29.72C26.115 30.02 25.715 30.425 25.415 30.935C25.115 31.435 24.965 31.99 24.965 32.6H21.305C21.305 31.28 21.625 30.095 22.265 29.045C22.905 27.985 23.75 27.15 24.8 26.54C25.86 25.92 27.02 25.61 28.28 25.61C29.56 25.61 30.725 25.925 31.775 26.555C32.825 27.175 33.665 28.015 34.295 29.075C34.925 30.135 35.24 31.31 35.24 32.6C35.24 33.28 35.115 33.965 34.865 34.655C34.615 35.345 34.265 36.04 33.815 36.74C33.365 37.44 32.835 38.15 32.225 38.87C31.615 39.58 30.94 40.31 30.2 41.06C29.47 41.8 28.7 42.56 27.89 43.34H35.345V47H21.2ZM45.452 47.39C44.232 47.39 43.122 47.11 42.122 46.55C41.122 45.98 40.257 45.195 39.527 44.195C38.807 43.195 38.252 42.04 37.862 40.73C37.472 39.41 37.277 38 37.277 36.5C37.277 35 37.472 33.595 37.862 32.285C38.252 30.965 38.807 29.805 39.527 28.805C40.257 27.805 41.122 27.025 42.122 26.465C43.122 25.895 44.232 25.61 45.452 25.61C46.672 25.61 47.782 25.895 48.782 26.465C49.782 27.025 50.637 27.805 51.347 28.805C52.067 29.805 52.622 30.965 53.012 32.285C53.412 33.595 53.612 35 53.612 36.5C53.612 38 53.412 39.41 53.012 40.73C52.622 42.04 52.067 43.195 51.347 44.195C50.637 45.195 49.782 45.98 48.782 46.55C47.782 47.11 46.672 47.39 45.452 47.39ZM45.452 43.73C46.522 43.73 47.407 43.39 48.107 42.71C48.807 42.03 49.327 41.14 49.667 40.04C50.007 38.94 50.177 37.76 50.177 36.5C50.177 35.17 49.997 33.96 49.637 32.87C49.277 31.77 48.747 30.895 48.047 30.245C47.347 29.595 46.482 29.27 45.452 29.27C44.642 29.27 43.937 29.47 43.337 29.87C42.747 30.26 42.257 30.795 41.867 31.475C41.477 32.155 41.187 32.93 40.997 33.8C40.807 34.66 40.712 35.56 40.712 36.5C40.712 37.75 40.882 38.93 41.222 40.04C41.572 41.14 42.097 42.03 42.797 42.71C43.507 43.39 44.392 43.73 45.452 43.73ZM62.8836 47.39C61.6636 47.39 60.5536 47.11 59.5536 46.55C58.5536 45.98 57.6886 45.195 56.9586 44.195C56.2386 43.195 55.6836 42.04 55.2936 40.73C54.9036 39.41 54.7086 38 54.7086 36.5C54.7086 35 54.9036 33.595 55.2936 32.285C55.6836 30.965 56.2386 29.805 56.9586 28.805C57.6886 27.805 58.5536 27.025 59.5536 26.465C60.5536 25.895 61.6636 25.61 62.8836 25.61C64.1036 25.61 65.2136 25.895 66.2136 26.465C67.2136 27.025 68.0686 27.805 68.7786 28.805C69.4986 29.805 70.0536 30.965 70.4436 32.285C70.8436 33.595 71.0436 35 71.0436 36.5C71.0436 38 70.8436 39.41 70.4436 40.73C70.0536 42.04 69.4986 43.195 68.7786 44.195C68.0686 45.195 67.2136 45.98 66.2136 46.55C65.2136 47.11 64.1036 47.39 62.8836 47.39ZM62.8836 43.73C63.9536 43.73 64.8386 43.39 65.5386 42.71C66.2386 42.03 66.7586 41.14 67.0986 40.04C67.4386 38.94 67.6086 37.76 67.6086 36.5C67.6086 35.17 67.4286 33.96 67.0686 32.87C66.7086 31.77 66.1786 30.895 65.4786 30.245C64.7786 29.595 63.9136 29.27 62.8836 29.27C62.0736 29.27 61.3686 29.47 60.7686 29.87C60.1786 30.26 59.6886 30.795 59.2986 31.475C58.9086 32.155 58.6186 32.93 58.4286 33.8C58.2386 34.66 58.1436 35.56 58.1436 36.5C58.1436 37.75 58.3136 38.93 58.6536 40.04C59.0036 41.14 59.5286 42.03 60.2286 42.71C60.9386 43.39 61.8236 43.73 62.8836 43.73ZM78.8134 45.5V39.83H73.1434V36.17H78.8134V30.5H82.4734V36.17H88.1434V39.83H82.4734V45.5H78.8134Z" fill="white"></path><path d="M27.848 67.8H29.192V79H27.848V73.672H22.304V79H20.96V67.8H22.304V72.328H27.848V67.8ZM37.4701 71H38.8141V79H37.4701L37.4141 77.648C37.1635 78.112 36.8168 78.488 36.3741 78.776C35.9368 79.064 35.4141 79.208 34.8061 79.208C34.2195 79.208 33.6701 79.0987 33.1581 78.88C32.6461 78.656 32.1928 78.3493 31.7981 77.96C31.4088 77.5653 31.1048 77.112 30.8861 76.6C30.6675 76.088 30.5581 75.536 30.5581 74.944C30.5581 74.3733 30.6648 73.8347 30.8781 73.328C31.0915 72.8213 31.3875 72.3787 31.7661 72C32.1501 71.616 32.5928 71.3173 33.0941 71.104C33.5955 70.8853 34.1341 70.776 34.7101 70.776C35.3395 70.776 35.8915 70.9253 36.3661 71.224C36.8408 71.5173 37.2248 71.8987 37.5181 72.368L37.4701 71ZM34.7821 77.904C35.3101 77.904 35.7661 77.776 36.1501 77.52C36.5395 77.2587 36.8381 76.9067 37.0461 76.464C37.2595 76.0213 37.3661 75.5333 37.3661 75C37.3661 74.456 37.2595 73.9653 37.0461 73.528C36.8328 73.0853 36.5315 72.736 36.1421 72.48C35.7581 72.2187 35.3048 72.088 34.7821 72.088C34.2541 72.088 33.7741 72.2187 33.3421 72.48C32.9101 72.7413 32.5661 73.0933 32.3101 73.536C32.0595 73.9733 31.9341 74.4613 31.9341 75C31.9341 75.5387 32.0648 76.0293 32.3261 76.472C32.5875 76.9093 32.9341 77.2587 33.3661 77.52C33.7981 77.776 34.2701 77.904 34.7821 77.904ZM41.7571 83H40.4131V71H41.7571V72.368C42.0291 71.8987 42.3918 71.52 42.8451 71.232C43.2985 70.9387 43.8371 70.792 44.4611 70.792C45.0425 70.792 45.5865 70.9013 46.0931 71.12C46.6051 71.3387 47.0531 71.6427 47.4371 72.032C47.8211 72.416 48.1225 72.8613 48.3411 73.368C48.5598 73.8747 48.6691 74.4187 48.6691 75C48.6691 75.5813 48.5598 76.128 48.3411 76.64C48.1225 77.152 47.8211 77.6027 47.4371 77.992C47.0531 78.376 46.6051 78.6773 46.0931 78.896C45.5865 79.1147 45.0425 79.224 44.4611 79.224C43.8371 79.224 43.2985 79.08 42.8451 78.792C42.3918 78.4987 42.0291 78.1173 41.7571 77.648V83ZM44.4451 72.096C43.9278 72.096 43.4745 72.2267 43.0851 72.488C42.6958 72.7493 42.3945 73.0987 42.1811 73.536C41.9731 73.9733 41.8691 74.4613 41.8691 75C41.8691 75.5333 41.9731 76.0213 42.1811 76.464C42.3945 76.9067 42.6931 77.2587 43.0771 77.52C43.4665 77.7813 43.9225 77.912 44.4451 77.912C44.9625 77.912 45.4371 77.784 45.8691 77.528C46.3011 77.2667 46.6478 76.9173 46.9091 76.48C47.1705 76.0373 47.3011 75.544 47.3011 75C47.3011 74.4667 47.1731 73.9813 46.9171 73.544C46.6611 73.1013 46.3171 72.7493 45.8851 72.488C45.4531 72.2267 44.9731 72.096 44.4451 72.096ZM51.3509 83H50.0069V71H51.3509V72.368C51.6229 71.8987 51.9855 71.52 52.4389 71.232C52.8922 70.9387 53.4309 70.792 54.0549 70.792C54.6362 70.792 55.1802 70.9013 55.6869 71.12C56.1989 71.3387 56.6469 71.6427 57.0309 72.032C57.4149 72.416 57.7162 72.8613 57.9349 73.368C58.1535 73.8747 58.2629 74.4187 58.2629 75C58.2629 75.5813 58.1535 76.128 57.9349 76.64C57.7162 77.152 57.4149 77.6027 57.0309 77.992C56.6469 78.376 56.1989 78.6773 55.6869 78.896C55.1802 79.1147 54.6362 79.224 54.0549 79.224C53.4309 79.224 52.8922 79.08 52.4389 78.792C51.9855 78.4987 51.6229 78.1173 51.3509 77.648V83ZM54.0389 72.096C53.5215 72.096 53.0682 72.2267 52.6789 72.488C52.2895 72.7493 51.9882 73.0987 51.7749 73.536C51.5669 73.9733 51.4629 74.4613 51.4629 75C51.4629 75.5333 51.5669 76.0213 51.7749 76.464C51.9882 76.9067 52.2869 77.2587 52.6709 77.52C53.0602 77.7813 53.5162 77.912 54.0389 77.912C54.5562 77.912 55.0309 77.784 55.4629 77.528C55.8949 77.2667 56.2415 76.9173 56.5029 76.48C56.7642 76.0373 56.8949 75.544 56.8949 75C56.8949 74.4667 56.7669 73.9813 56.5109 73.544C56.2549 73.1013 55.9109 72.7493 55.4789 72.488C55.0469 72.2267 54.5669 72.096 54.0389 72.096ZM64.6588 71H66.0828L61.7068 83H60.2828L61.7308 79L58.8588 71H60.3307L62.4028 77.152L64.6588 71ZM76.7065 79.208C75.9492 79.208 75.2372 79.0587 74.5705 78.76C73.9038 78.456 73.3172 78.04 72.8105 77.512C72.3092 76.9787 71.9145 76.36 71.6265 75.656C71.3438 74.952 71.2025 74.2 71.2025 73.4C71.2025 72.6 71.3438 71.848 71.6265 71.144C71.9145 70.44 72.3092 69.824 72.8105 69.296C73.3172 68.7627 73.9038 68.3467 74.5705 68.048C75.2372 67.744 75.9492 67.592 76.7065 67.592C77.6132 67.592 78.4478 67.8027 79.2105 68.224C79.9732 68.6453 80.6052 69.2053 81.1065 69.904L79.9145 70.544C79.5412 70.0533 79.0692 69.664 78.4985 69.376C77.9332 69.0827 77.3358 68.936 76.7065 68.936C76.1252 68.936 75.5812 69.0533 75.0745 69.288C74.5732 69.5227 74.1332 69.8453 73.7545 70.256C73.3758 70.6667 73.0798 71.1413 72.8665 71.68C72.6532 72.2187 72.5465 72.792 72.5465 73.4C72.5465 74.0133 72.6532 74.5893 72.8665 75.128C73.0852 75.6667 73.3838 76.1413 73.7625 76.552C74.1465 76.9627 74.5892 77.2853 75.0905 77.52C75.5972 77.7493 76.1358 77.864 76.7065 77.864C77.3572 77.864 77.9598 77.7173 78.5145 77.424C79.0745 77.1253 79.5412 76.736 79.9145 76.256L81.1065 76.904C80.6052 77.6027 79.9732 78.1627 79.2105 78.584C78.4478 79 77.6132 79.208 76.7065 79.208ZM82.3588 75.96V71H83.7028V75.664C83.7028 76.0693 83.8014 76.4373 83.9988 76.768C84.1961 77.0987 84.4601 77.3627 84.7908 77.56C85.1268 77.752 85.4948 77.848 85.8948 77.848C86.3001 77.848 86.6654 77.752 86.9908 77.56C87.3214 77.3627 87.5854 77.0987 87.7828 76.768C87.9801 76.4373 88.0788 76.0693 88.0788 75.664V71H89.4228L89.4308 79H88.0868L88.0788 77.984C87.7961 78.3573 87.4388 78.656 87.0068 78.88C86.5748 79.0987 86.1081 79.208 85.6068 79.208C85.0094 79.208 84.4628 79.064 83.9668 78.776C83.4761 78.4827 83.0841 78.0907 82.7908 77.6C82.5028 77.1093 82.3588 76.5627 82.3588 75.96ZM93.4781 79.152C93.0461 79.136 92.6248 79.056 92.2141 78.912C91.8088 78.7627 91.4515 78.5627 91.1421 78.312C90.8381 78.056 90.6168 77.7627 90.4781 77.432L91.6301 76.936C91.7101 77.1173 91.8541 77.288 92.0621 77.448C92.2701 77.608 92.5101 77.736 92.7821 77.832C93.0541 77.928 93.3288 77.976 93.6061 77.976C93.8995 77.976 94.1741 77.9307 94.4301 77.84C94.6861 77.7493 94.8941 77.616 95.0541 77.44C95.2195 77.2587 95.3021 77.0427 95.3021 76.792C95.3021 76.5253 95.2115 76.3173 95.0301 76.168C94.8541 76.0133 94.6301 75.8933 94.3581 75.808C94.0915 75.7173 93.8195 75.632 93.5421 75.552C92.9928 75.4133 92.5021 75.248 92.0701 75.056C91.6381 74.8587 91.2968 74.6107 91.0461 74.312C90.8008 74.008 90.6781 73.6213 90.6781 73.152C90.6781 72.656 90.8141 72.2267 91.0861 71.864C91.3635 71.5013 91.7261 71.2213 92.1741 71.024C92.6221 70.8267 93.1021 70.728 93.6141 70.728C94.2595 70.728 94.8488 70.8667 95.3821 71.144C95.9155 71.4213 96.3128 71.7973 96.5741 72.272L95.4941 72.904C95.4035 72.712 95.2648 72.544 95.0781 72.4C94.8915 72.2507 94.6781 72.1333 94.4381 72.048C94.1981 71.9627 93.9528 71.9173 93.7021 71.912C93.3928 71.9013 93.1021 71.9413 92.8301 72.032C92.5635 72.1227 92.3475 72.2613 92.1821 72.448C92.0221 72.6293 91.9421 72.856 91.9421 73.128C91.9421 73.3947 92.0275 73.5973 92.1981 73.736C92.3741 73.8747 92.6008 73.9867 92.8781 74.072C93.1608 74.152 93.4675 74.2453 93.7981 74.352C94.2835 74.5067 94.7368 74.6853 95.1581 74.888C95.5795 75.0907 95.9181 75.344 96.1741 75.648C96.4355 75.952 96.5635 76.328 96.5581 76.776C96.5581 77.2667 96.4115 77.696 96.1181 78.064C95.8248 78.4267 95.4435 78.704 94.9741 78.896C94.5101 79.088 94.0115 79.1733 93.4781 79.152ZM102.073 72.344H100.257L100.249 79H98.9048L98.9128 72.344H97.5368V71H98.9128L98.9048 68.488H100.249L100.257 71H102.073V72.344ZM106.824 79.208C106.088 79.208 105.416 79.0187 104.808 78.64C104.205 78.2613 103.722 77.7547 103.36 77.12C103.002 76.48 102.824 75.7733 102.824 75C102.824 74.4133 102.928 73.8667 103.136 73.36C103.344 72.848 103.629 72.4 103.992 72.016C104.36 71.6267 104.786 71.3227 105.272 71.104C105.757 70.8853 106.274 70.776 106.824 70.776C107.56 70.776 108.229 70.9653 108.832 71.344C109.44 71.7227 109.922 72.232 110.28 72.872C110.642 73.512 110.824 74.2213 110.824 75C110.824 75.5813 110.72 76.1253 110.512 76.632C110.304 77.1387 110.016 77.5867 109.648 77.976C109.285 78.36 108.861 78.6613 108.376 78.88C107.896 79.0987 107.378 79.208 106.824 79.208ZM106.824 77.864C107.325 77.864 107.776 77.7333 108.176 77.472C108.581 77.2053 108.898 76.856 109.128 76.424C109.362 75.9867 109.48 75.512 109.48 75C109.48 74.4773 109.36 73.9973 109.12 73.56C108.885 73.1227 108.568 72.7733 108.168 72.512C107.768 72.2507 107.32 72.12 106.824 72.12C106.322 72.12 105.872 72.2533 105.472 72.52C105.072 72.7813 104.754 73.1307 104.52 73.568C104.285 74.0053 104.168 74.4827 104.168 75C104.168 75.5333 104.288 76.0187 104.528 76.456C104.768 76.888 105.09 77.232 105.496 77.488C105.901 77.7387 106.344 77.864 106.824 77.864ZM112.148 79V71H113.492V72C113.774 71.6267 114.129 71.3307 114.556 71.112C114.988 70.888 115.457 70.776 115.964 70.776C116.556 70.776 117.097 70.92 117.588 71.208C118.078 71.496 118.465 71.8773 118.748 72.352C119.03 71.8773 119.414 71.496 119.9 71.208C120.39 70.92 120.929 70.776 121.516 70.776C122.118 70.776 122.665 70.9227 123.156 71.216C123.646 71.504 124.036 71.8933 124.324 72.384C124.617 72.8747 124.764 73.4213 124.764 74.024V79H123.42V74.344C123.42 73.9493 123.324 73.584 123.132 73.248C122.94 72.912 122.681 72.6427 122.356 72.44C122.03 72.2373 121.67 72.136 121.276 72.136C120.881 72.136 120.521 72.232 120.196 72.424C119.87 72.6107 119.612 72.872 119.42 73.208C119.228 73.5387 119.132 73.9173 119.132 74.344V79H117.788V74.344C117.788 73.9173 117.692 73.5387 117.5 73.208C117.308 72.872 117.046 72.6107 116.716 72.424C116.39 72.232 116.03 72.136 115.636 72.136C115.246 72.136 114.886 72.2373 114.556 72.44C114.23 72.6427 113.972 72.912 113.78 73.248C113.588 73.584 113.492 73.9493 113.492 74.344V79H112.148ZM129.73 79.208C128.994 79.208 128.322 79.0187 127.714 78.64C127.111 78.2613 126.629 77.7547 126.266 77.12C125.909 76.48 125.73 75.7733 125.73 75C125.73 74.4133 125.834 73.8667 126.042 73.36C126.25 72.848 126.535 72.4 126.898 72.016C127.266 71.6267 127.693 71.3227 128.178 71.104C128.663 70.8853 129.181 70.776 129.73 70.776C130.333 70.776 130.885 70.8987 131.386 71.144C131.893 71.384 132.325 71.72 132.682 72.152C133.045 72.584 133.314 73.0853 133.49 73.656C133.671 74.2267 133.738 74.8373 133.69 75.488H127.162C127.226 75.9413 127.375 76.3467 127.61 76.704C127.845 77.056 128.143 77.336 128.506 77.544C128.874 77.752 129.282 77.8587 129.73 77.864C130.21 77.864 130.645 77.7413 131.034 77.496C131.423 77.2453 131.738 76.904 131.978 76.472L133.346 76.792C133.026 77.5013 132.543 78.0827 131.898 78.536C131.253 78.984 130.53 79.208 129.73 79.208ZM127.122 74.432H132.338C132.295 73.984 132.151 73.576 131.906 73.208C131.661 72.8347 131.349 72.536 130.97 72.312C130.591 72.088 130.178 71.976 129.73 71.976C129.282 71.976 128.871 72.0853 128.498 72.304C128.125 72.5227 127.815 72.8187 127.57 73.192C127.33 73.56 127.181 73.9733 127.122 74.432ZM135.038 79V71H136.382V72C136.665 71.6267 137.022 71.3307 137.454 71.112C137.886 70.888 138.355 70.776 138.862 70.776C139.171 70.776 139.47 70.816 139.758 70.896L139.214 72.24C138.995 72.1707 138.782 72.136 138.574 72.136C138.174 72.136 137.806 72.2347 137.47 72.432C137.139 72.624 136.875 72.8853 136.678 73.216C136.481 73.5467 136.382 73.9147 136.382 74.32V79H135.038ZM143.181 79.152C142.749 79.136 142.328 79.056 141.917 78.912C141.512 78.7627 141.155 78.5627 140.845 78.312C140.541 78.056 140.32 77.7627 140.181 77.432L141.333 76.936C141.413 77.1173 141.557 77.288 141.765 77.448C141.973 77.608 142.213 77.736 142.485 77.832C142.757 77.928 143.032 77.976 143.309 77.976C143.603 77.976 143.877 77.9307 144.133 77.84C144.389 77.7493 144.597 77.616 144.757 77.44C144.923 77.2587 145.005 77.0427 145.005 76.792C145.005 76.5253 144.915 76.3173 144.733 76.168C144.557 76.0133 144.333 75.8933 144.061 75.808C143.795 75.7173 143.523 75.632 143.245 75.552C142.696 75.4133 142.205 75.248 141.773 75.056C141.341 74.8587 141 74.6107 140.749 74.312C140.504 74.008 140.381 73.6213 140.381 73.152C140.381 72.656 140.517 72.2267 140.789 71.864C141.067 71.5013 141.429 71.2213 141.877 71.024C142.325 70.8267 142.805 70.728 143.317 70.728C143.963 70.728 144.552 70.8667 145.085 71.144C145.619 71.4213 146.016 71.7973 146.277 72.272L145.197 72.904C145.107 72.712 144.968 72.544 144.781 72.4C144.595 72.2507 144.381 72.1333 144.141 72.048C143.901 71.9627 143.656 71.9173 143.405 71.912C143.096 71.9013 142.805 71.9413 142.533 72.032C142.267 72.1227 142.051 72.2613 141.885 72.448C141.725 72.6293 141.645 72.856 141.645 73.128C141.645 73.3947 141.731 73.5973 141.901 73.736C142.077 73.8747 142.304 73.9867 142.581 74.072C142.864 74.152 143.171 74.2453 143.501 74.352C143.987 74.5067 144.44 74.6853 144.861 74.888C145.283 75.0907 145.621 75.344 145.877 75.648C146.139 75.952 146.267 76.328 146.261 76.776C146.261 77.2667 146.115 77.696 145.821 78.064C145.528 78.4267 145.147 78.704 144.677 78.896C144.213 79.088 143.715 79.1733 143.181 79.152Z" fill="#999999"></path></svg>