<svg xmlns="http://www.w3.org/2000/svg" width="220" height="92" viewBox="0 0 220 92" fill="none"><path d="M1.2 22V8H2.88V20.32H9.15V22H1.2ZM11.3563 12H13.0363V22H11.3563V12ZM12.2163 10.37C11.9496 10.37 11.7263 10.2833 11.5463 10.11C11.3663 9.93667 11.2763 9.72 11.2763 9.46C11.2763 9.2 11.3663 8.98333 11.5463 8.81C11.7263 8.63667 11.9463 8.55 12.2063 8.55C12.4663 8.55 12.6863 8.63667 12.8663 8.81C13.0463 8.98333 13.1363 9.2 13.1363 9.46C13.1363 9.72 13.0463 9.93667 12.8663 10.11C12.6929 10.2833 12.4763 10.37 12.2163 10.37ZM18.3906 22.19C17.8506 22.17 17.324 22.07 16.8106 21.89C16.304 21.7033 15.8573 21.4533 15.4706 21.14C15.0906 20.82 14.814 20.4533 14.6406 20.04L16.0806 19.42C16.1806 19.6467 16.3606 19.86 16.6206 20.06C16.8806 20.26 17.1806 20.42 17.5206 20.54C17.8606 20.66 18.204 20.72 18.5506 20.72C18.9173 20.72 19.2606 20.6633 19.5806 20.55C19.9006 20.4367 20.1606 20.27 20.3606 20.05C20.5673 19.8233 20.6706 19.5533 20.6706 19.24C20.6706 18.9067 20.5573 18.6467 20.3306 18.46C20.1106 18.2667 19.8306 18.1167 19.4906 18.01C19.1573 17.8967 18.8173 17.79 18.4706 17.69C17.784 17.5167 17.1706 17.31 16.6306 17.07C16.0906 16.8233 15.664 16.5133 15.3506 16.14C15.044 15.76 14.8906 15.2767 14.8906 14.69C14.8906 14.07 15.0606 13.5333 15.4006 13.08C15.7473 12.6267 16.2006 12.2767 16.7606 12.03C17.3206 11.7833 17.9206 11.66 18.5606 11.66C19.3673 11.66 20.104 11.8333 20.7706 12.18C21.4373 12.5267 21.934 12.9967 22.2606 13.59L20.9106 14.38C20.7973 14.14 20.624 13.93 20.3906 13.75C20.1573 13.5633 19.8906 13.4167 19.5906 13.31C19.2906 13.2033 18.984 13.1467 18.6706 13.14C18.284 13.1267 17.9206 13.1767 17.5806 13.29C17.2473 13.4033 16.9773 13.5767 16.7706 13.81C16.5706 14.0367 16.4706 14.32 16.4706 14.66C16.4706 14.9933 16.5773 15.2467 16.7906 15.42C17.0106 15.5933 17.294 15.7333 17.6406 15.84C17.994 15.94 18.3773 16.0567 18.7906 16.19C19.3973 16.3833 19.964 16.6067 20.4906 16.86C21.0173 17.1133 21.4406 17.43 21.7606 17.81C22.0873 18.19 22.2473 18.66 22.2406 19.22C22.2406 19.8333 22.0573 20.37 21.6906 20.83C21.324 21.2833 20.8473 21.63 20.2606 21.87C19.6806 22.11 19.0573 22.2167 18.3906 22.19ZM29.1339 13.68H26.8639L26.8539 22H25.1739L25.1839 13.68H23.4639V12H25.1839L25.1739 8.86H26.8539L26.8639 12H29.1339V13.68ZM30.8289 12H32.5089V22H30.8289V12ZM31.6889 10.37C31.4222 10.37 31.1989 10.2833 31.0189 10.11C30.8389 9.93667 30.7489 9.72 30.7489 9.46C30.7489 9.2 30.8389 8.98333 31.0189 8.81C31.1989 8.63667 31.4189 8.55 31.6789 8.55C31.9389 8.55 32.1589 8.63667 32.3389 8.81C32.5189 8.98333 32.6089 9.2 32.6089 9.46C32.6089 9.72 32.5189 9.93667 32.3389 10.11C32.1656 10.2833 31.9489 10.37 31.6889 10.37ZM43.7119 15.78V22H42.0319V16.15C42.0319 15.6433 41.9085 15.1833 41.6619 14.77C41.4152 14.3567 41.0852 14.03 40.6719 13.79C40.2585 13.5433 39.7985 13.42 39.2919 13.42C38.7919 13.42 38.3319 13.5433 37.9119 13.79C37.4985 14.03 37.1685 14.3567 36.9219 14.77C36.6752 15.1833 36.5519 15.6433 36.5519 16.15V22H34.8719V12H36.5519V13.25C36.9052 12.7833 37.3519 12.4133 37.8919 12.14C38.4319 11.86 39.0185 11.72 39.6519 11.72C40.3985 11.72 41.0785 11.9033 41.6919 12.27C42.3119 12.63 42.8019 13.1167 43.1619 13.73C43.5285 14.3433 43.7119 15.0267 43.7119 15.78ZM53.3264 12H55.0064V22.32C55.0064 22.98 54.8631 23.5933 54.5764 24.16C54.2964 24.7333 53.9164 25.23 53.4364 25.65C52.9564 26.0767 52.4097 26.4067 51.7964 26.64C51.1831 26.88 50.5431 27 49.8764 27C49.1831 27 48.5131 26.8433 47.8664 26.53C47.2197 26.2233 46.6531 25.81 46.1664 25.29C45.6864 24.7767 45.3397 24.2 45.1264 23.56L46.6664 22.86C46.7931 23.32 47.0197 23.7333 47.3464 24.1C47.6797 24.4733 48.0664 24.7667 48.5064 24.98C48.9531 25.2 49.4097 25.31 49.8764 25.31C50.3164 25.31 50.7397 25.2333 51.1464 25.08C51.5597 24.9267 51.9297 24.7133 52.2564 24.44C52.5897 24.1733 52.8497 23.8567 53.0364 23.49C53.2297 23.13 53.3264 22.74 53.3264 22.32V20.33C52.9864 20.9033 52.5364 21.37 51.9764 21.73C51.4231 22.0833 50.7764 22.26 50.0364 22.26C49.3297 22.26 48.6664 22.1233 48.0464 21.85C47.4264 21.5767 46.8831 21.2 46.4164 20.72C45.9497 20.2333 45.5831 19.6733 45.3164 19.04C45.0497 18.4067 44.9164 17.7267 44.9164 17C44.9164 16.2733 45.0497 15.5933 45.3164 14.96C45.5831 14.32 45.9497 13.76 46.4164 13.28C46.8831 12.7933 47.4264 12.4133 48.0464 12.14C48.6664 11.8667 49.3297 11.73 50.0364 11.73C50.7764 11.73 51.4231 11.9067 51.9764 12.26C52.5364 12.6133 52.9864 13.08 53.3264 13.66V12ZM50.0464 20.63C50.6931 20.63 51.2531 20.4633 51.7264 20.13C52.2064 19.7967 52.5764 19.3533 52.8364 18.8C53.0964 18.2467 53.2264 17.6467 53.2264 17C53.2264 16.3333 53.0931 15.7267 52.8264 15.18C52.5664 14.6267 52.1964 14.1867 51.7164 13.86C51.2431 13.5267 50.6864 13.36 50.0464 13.36C49.4197 13.36 48.8464 13.5233 48.3264 13.85C47.8064 14.1767 47.3931 14.6167 47.0864 15.17C46.7864 15.7167 46.6364 16.3267 46.6364 17C46.6364 17.6733 46.7897 18.2867 47.0964 18.84C47.4097 19.3867 47.8231 19.8233 48.3364 20.15C48.8564 20.47 49.4264 20.63 50.0464 20.63ZM62.2156 22V8H66.8356C67.589 8 68.2656 8.18333 68.8656 8.55C69.4723 8.91667 69.9523 9.41333 70.3056 10.04C70.6656 10.66 70.8456 11.3533 70.8456 12.12C70.8456 12.9 70.6623 13.6033 70.2956 14.23C69.9356 14.85 69.449 15.3433 68.8356 15.71C68.229 16.07 67.5623 16.25 66.8356 16.25H63.8956V22H62.2156ZM63.8956 14.57H66.6856C67.139 14.57 67.5523 14.46 67.9256 14.24C68.3056 14.0133 68.6056 13.71 68.8256 13.33C69.0523 12.9433 69.1656 12.51 69.1656 12.03C69.1656 11.5433 69.0523 11.11 68.8256 10.73C68.6056 10.3433 68.3056 10.04 67.9256 9.82C67.5523 9.59333 67.139 9.48 66.6856 9.48H63.8956V14.57ZM72.5672 22V12H74.2472V13.25C74.6005 12.7833 75.0472 12.4133 75.5872 12.14C76.1272 11.86 76.7139 11.72 77.3472 11.72C77.7339 11.72 78.1072 11.77 78.4672 11.87L77.7872 13.55C77.5139 13.4633 77.2472 13.42 76.9872 13.42C76.4872 13.42 76.0272 13.5433 75.6072 13.79C75.1939 14.03 74.8639 14.3567 74.6172 14.77C74.3705 15.1833 74.2472 15.6433 74.2472 16.15V22H72.5672ZM79.6961 12H81.3761V22H79.6961V12ZM80.5561 10.37C80.2894 10.37 80.0661 10.2833 79.8861 10.11C79.7061 9.93667 79.6161 9.72 79.6161 9.46C79.6161 9.2 79.7061 8.98333 79.8861 8.81C80.0661 8.63667 80.2861 8.55 80.5461 8.55C80.8061 8.55 81.0261 8.63667 81.2061 8.81C81.3861 8.98333 81.4761 9.2 81.4761 9.46C81.4761 9.72 81.3861 9.93667 81.2061 10.11C81.0328 10.2833 80.8161 10.37 80.5561 10.37ZM90.5314 19.36L92.0314 20.17C91.5781 20.8033 91.0014 21.31 90.3014 21.69C89.6081 22.07 88.8547 22.26 88.0414 22.26C87.1214 22.26 86.2814 22.0233 85.5214 21.55C84.7681 21.0767 84.1647 20.4433 83.7114 19.65C83.2647 18.85 83.0414 17.9667 83.0414 17C83.0414 16.2667 83.1714 15.5833 83.4314 14.95C83.6914 14.31 84.0481 13.75 84.5014 13.27C84.9614 12.7833 85.4947 12.4033 86.1014 12.13C86.7081 11.8567 87.3547 11.72 88.0414 11.72C88.8547 11.72 89.6081 11.91 90.3014 12.29C91.0014 12.67 91.5781 13.18 92.0314 13.82L90.5314 14.63C90.2114 14.2367 89.8314 13.9333 89.3914 13.72C88.9514 13.5067 88.5014 13.4 88.0414 13.4C87.4214 13.4 86.8581 13.5667 86.3514 13.9C85.8514 14.2267 85.4547 14.6633 85.1614 15.21C84.8681 15.7567 84.7214 16.3533 84.7214 17C84.7214 17.6467 84.8681 18.2433 85.1614 18.79C85.4614 19.33 85.8614 19.7633 86.3614 20.09C86.8681 20.4167 87.4281 20.58 88.0414 20.58C88.5347 20.58 88.9981 20.4667 89.4314 20.24C89.8647 20.0133 90.2314 19.72 90.5314 19.36ZM98.0609 22.26C97.1409 22.26 96.3009 22.0233 95.5409 21.55C94.7876 21.0767 94.1843 20.4433 93.7309 19.65C93.2843 18.85 93.0609 17.9667 93.0609 17C93.0609 16.2667 93.1909 15.5833 93.4509 14.95C93.7109 14.31 94.0676 13.75 94.5209 13.27C94.9809 12.7833 95.5143 12.4033 96.1209 12.13C96.7276 11.8567 97.3743 11.72 98.0609 11.72C98.8143 11.72 99.5043 11.8733 100.131 12.18C100.764 12.48 101.304 12.9 101.751 13.44C102.204 13.98 102.541 14.6067 102.761 15.32C102.988 16.0333 103.071 16.7967 103.011 17.61H94.8509C94.9309 18.1767 95.1176 18.6833 95.4109 19.13C95.7043 19.57 96.0776 19.92 96.5309 20.18C96.9909 20.44 97.5009 20.5733 98.0609 20.58C98.6609 20.58 99.2043 20.4267 99.6909 20.12C100.178 19.8067 100.571 19.38 100.871 18.84L102.581 19.24C102.181 20.1267 101.578 20.8533 100.771 21.42C99.9643 21.98 99.0609 22.26 98.0609 22.26ZM94.8009 16.29H101.321C101.268 15.73 101.088 15.22 100.781 14.76C100.474 14.2933 100.084 13.92 99.6109 13.64C99.1376 13.36 98.6209 13.22 98.0609 13.22C97.5009 13.22 96.9876 13.3567 96.5209 13.63C96.0543 13.9033 95.6676 14.2733 95.3609 14.74C95.0609 15.2 94.8743 15.7167 94.8009 16.29Z" fill="#999999"></path><path d="M11.98 51.72C10.9133 51.7067 9.91333 51.88 8.98 52.24C8.06 52.5867 7.30667 53.0667 6.72 53.68C6.13333 54.2933 5.84 55.0067 5.84 55.82C5.84 56.82 6.11333 57.58 6.66 58.1C7.20667 58.62 7.94 59.0067 8.86 59.26C9.79333 59.5 10.8333 59.72 11.98 59.92C13.82 60.2133 15.52 60.7 17.08 61.38C18.6533 62.06 19.9133 62.9667 20.86 64.1C21.82 65.22 22.3 66.6 22.3 68.24C22.3 69.7467 21.9 71.0867 21.1 72.26C20.3 73.42 19.2267 74.36 17.88 75.08C16.5467 75.7867 15.0733 76.2333 13.46 76.42V80.48H10.52V76.42C9.17333 76.2867 7.89333 75.9667 6.68 75.46C5.48 74.9533 4.43333 74.28 3.54 73.44C2.64667 72.6 2 71.6267 1.6 70.52L5.5 69.06C5.72667 69.7 6.16 70.2733 6.8 70.78C7.45333 71.2733 8.22667 71.66 9.12 71.94C10.0267 72.22 10.98 72.36 11.98 72.36C13.0467 72.36 14.0467 72.1867 14.98 71.84C15.9267 71.4933 16.6867 71.0133 17.26 70.4C17.8467 69.7867 18.14 69.0667 18.14 68.24C18.14 67.3867 17.8333 66.6867 17.22 66.14C16.62 65.5933 15.8467 65.16 14.9 64.84C13.9667 64.52 12.9933 64.28 11.98 64.12C10.02 63.8 8.26 63.3333 6.7 62.72C5.15333 62.1067 3.92667 61.2467 3.02 60.14C2.12667 59.0333 1.68 57.5933 1.68 55.82C1.68 54.3133 2.08 52.9733 2.88 51.8C3.68 50.6267 4.74667 49.6867 6.08 48.98C7.42667 48.26 8.90667 47.8133 10.52 47.64V43.52H13.46V47.64C14.7667 47.7733 16.02 48.0933 17.22 48.6C18.4333 49.1067 19.4933 49.78 20.4 50.62C21.3067 51.4467 21.9667 52.4333 22.38 53.58L18.44 55C18.2133 54.3467 17.78 53.78 17.14 53.3C16.5 52.8067 15.7267 52.42 14.82 52.14C13.9267 51.86 12.98 51.72 11.98 51.72ZM28.9244 76V52.16H25.5844L26.7244 48H33.0844V76H28.9244ZM37.8891 78.24L39.1291 71.48H43.2891L40.6491 78.24H37.8891ZM47.3031 76V72.3C48.2498 71.5133 49.3365 70.6 50.5631 69.56C51.7898 68.5067 53.0365 67.3933 54.3031 66.22C55.5698 65.0333 56.7365 63.8533 57.8031 62.68C58.8698 61.4933 59.7298 60.3733 60.3831 59.32C61.0498 58.2533 61.3831 57.3267 61.3831 56.54C61.3831 55.6467 61.1631 54.8333 60.7231 54.1C60.2965 53.3533 59.7165 52.76 58.9831 52.32C58.2498 51.8667 57.4365 51.64 56.5431 51.64C55.6498 51.64 54.8298 51.8667 54.0831 52.32C53.3498 52.76 52.7565 53.3533 52.3031 54.1C51.8631 54.8333 51.6431 55.6467 51.6431 56.54H47.4831C47.4831 54.8467 47.8965 53.32 48.7231 51.96C49.5631 50.5867 50.6631 49.5 52.0231 48.7C53.3965 47.8867 54.9031 47.48 56.5431 47.48C58.1965 47.48 59.7031 47.8867 61.0631 48.7C62.4231 49.5133 63.5098 50.6067 64.3231 51.98C65.1365 53.34 65.5431 54.86 65.5431 56.54C65.5431 57.4733 65.3498 58.4333 64.9631 59.42C64.5765 60.4067 64.0365 61.4133 63.3431 62.44C62.6631 63.4667 61.8698 64.5067 60.9631 65.56C60.0565 66.6133 59.0831 67.6667 58.0431 68.72C57.0031 69.7733 55.9431 70.8133 54.8631 71.84H65.7831V76H47.3031ZM79.0241 76.52C77.2507 76.52 75.6441 76.0933 74.2041 75.24C72.7774 74.3733 71.6441 73.2267 70.8041 71.8C69.9774 70.36 69.5641 68.7867 69.5641 67.08H73.7241C73.7241 68.0533 73.9641 68.94 74.4441 69.74C74.9241 70.54 75.5641 71.18 76.3641 71.66C77.1641 72.1267 78.0507 72.36 79.0241 72.36C79.9841 72.36 80.8641 72.1267 81.6641 71.66C82.4641 71.18 83.1041 70.54 83.5841 69.74C84.0641 68.94 84.3041 68.0533 84.3041 67.08C84.3041 66.1067 84.0841 65.22 83.6441 64.42C83.2041 63.6067 82.5441 62.96 81.6641 62.48C80.7841 61.9867 79.6641 61.74 78.3041 61.74H71.2441L74.0841 48H87.6241V52.16H77.4641L76.3641 57.58L78.7841 57.62C80.6907 57.66 82.3641 58.1 83.8041 58.94C85.2574 59.7667 86.3974 60.8867 87.2241 62.3C88.0507 63.7 88.4641 65.2933 88.4641 67.08C88.4641 68.3733 88.2174 69.5933 87.7241 70.74C87.2307 71.8733 86.5507 72.8733 85.6841 73.74C84.8307 74.6067 83.8307 75.2867 82.6841 75.78C81.5507 76.2733 80.3307 76.52 79.0241 76.52ZM101.708 76.52C100.055 76.52 98.5618 76.1467 97.2284 75.4C95.9084 74.64 94.7684 73.5933 93.8084 72.26C92.8484 70.9267 92.1151 69.3867 91.6084 67.64C91.1018 65.88 90.8484 64 90.8484 62C90.8484 60 91.1018 58.12 91.6084 56.36C92.1151 54.6 92.8484 53.06 93.8084 51.74C94.7684 50.4067 95.9084 49.3667 97.2284 48.62C98.5618 47.86 100.055 47.48 101.708 47.48C103.335 47.48 104.815 47.86 106.148 48.62C107.482 49.3667 108.615 50.4067 109.548 51.74C110.495 53.06 111.222 54.6 111.728 56.36C112.235 58.12 112.488 60 112.488 62C112.488 64 112.235 65.88 111.728 67.64C111.222 69.3867 110.495 70.9267 109.548 72.26C108.615 73.5933 107.482 74.64 106.148 75.4C104.815 76.1467 103.335 76.52 101.708 76.52ZM101.708 72.36C103.242 72.36 104.515 71.88 105.528 70.92C106.555 69.9467 107.322 68.6733 107.828 67.1C108.335 65.5267 108.588 63.8267 108.588 62C108.588 60.08 108.322 58.34 107.788 56.78C107.268 55.2067 106.495 53.96 105.468 53.04C104.455 52.1067 103.202 51.64 101.708 51.64C100.522 51.64 99.4884 51.92 98.6084 52.48C97.7418 53.04 97.0218 53.8067 96.4484 54.78C95.8884 55.7533 95.4618 56.86 95.1684 58.1C94.8884 59.34 94.7484 60.64 94.7484 62C94.7484 63.8267 95.0084 65.5267 95.5284 67.1C96.0484 68.6733 96.8218 69.9467 97.8484 70.92C98.8884 71.88 100.175 72.36 101.708 72.36ZM115.272 78.24L116.512 71.48H120.672L118.032 78.24H115.272ZM135.146 76.52C133.493 76.52 131.999 76.1467 130.666 75.4C129.346 74.64 128.206 73.5933 127.246 72.26C126.286 70.9267 125.553 69.3867 125.046 67.64C124.539 65.88 124.286 64 124.286 62C124.286 60 124.539 58.12 125.046 56.36C125.553 54.6 126.286 53.06 127.246 51.74C128.206 50.4067 129.346 49.3667 130.666 48.62C131.999 47.86 133.493 47.48 135.146 47.48C136.773 47.48 138.253 47.86 139.586 48.62C140.919 49.3667 142.053 50.4067 142.986 51.74C143.933 53.06 144.659 54.6 145.166 56.36C145.673 58.12 145.926 60 145.926 62C145.926 64 145.673 65.88 145.166 67.64C144.659 69.3867 143.933 70.9267 142.986 72.26C142.053 73.5933 140.919 74.64 139.586 75.4C138.253 76.1467 136.773 76.52 135.146 76.52ZM135.146 72.36C136.679 72.36 137.953 71.88 138.966 70.92C139.993 69.9467 140.759 68.6733 141.266 67.1C141.773 65.5267 142.026 63.8267 142.026 62C142.026 60.08 141.759 58.34 141.226 56.78C140.706 55.2067 139.933 53.96 138.906 53.04C137.893 52.1067 136.639 51.64 135.146 51.64C133.959 51.64 132.926 51.92 132.046 52.48C131.179 53.04 130.459 53.8067 129.886 54.78C129.326 55.7533 128.899 56.86 128.606 58.1C128.326 59.34 128.186 60.64 128.186 62C128.186 63.8267 128.446 65.5267 128.966 67.1C129.486 68.6733 130.259 69.9467 131.286 70.92C132.326 71.88 133.613 72.36 135.146 72.36ZM158.427 76.52C156.774 76.52 155.281 76.1467 153.947 75.4C152.627 74.64 151.487 73.5933 150.527 72.26C149.567 70.9267 148.834 69.3867 148.327 67.64C147.821 65.88 147.567 64 147.567 62C147.567 60 147.821 58.12 148.327 56.36C148.834 54.6 149.567 53.06 150.527 51.74C151.487 50.4067 152.627 49.3667 153.947 48.62C155.281 47.86 156.774 47.48 158.427 47.48C160.054 47.48 161.534 47.86 162.867 48.62C164.201 49.3667 165.334 50.4067 166.267 51.74C167.214 53.06 167.941 54.6 168.447 56.36C168.954 58.12 169.207 60 169.207 62C169.207 64 168.954 65.88 168.447 67.64C167.941 69.3867 167.214 70.9267 166.267 72.26C165.334 73.5933 164.201 74.64 162.867 75.4C161.534 76.1467 160.054 76.52 158.427 76.52ZM158.427 72.36C159.961 72.36 161.234 71.88 162.247 70.92C163.274 69.9467 164.041 68.6733 164.547 67.1C165.054 65.5267 165.307 63.8267 165.307 62C165.307 60.08 165.041 58.34 164.507 56.78C163.987 55.2067 163.214 53.96 162.187 53.04C161.174 52.1067 159.921 51.64 158.427 51.64C157.241 51.64 156.207 51.92 155.327 52.48C154.461 53.04 153.741 53.8067 153.167 54.78C152.607 55.7533 152.181 56.86 151.887 58.1C151.607 59.34 151.467 60.64 151.467 62C151.467 63.8267 151.727 65.5267 152.247 67.1C152.767 68.6733 153.541 69.9467 154.567 70.92C155.607 71.88 156.894 72.36 158.427 72.36ZM181.708 76.52C180.055 76.52 178.562 76.1467 177.228 75.4C175.908 74.64 174.768 73.5933 173.808 72.26C172.848 70.9267 172.115 69.3867 171.608 67.64C171.102 65.88 170.848 64 170.848 62C170.848 60 171.102 58.12 171.608 56.36C172.115 54.6 172.848 53.06 173.808 51.74C174.768 50.4067 175.908 49.3667 177.228 48.62C178.562 47.86 180.055 47.48 181.708 47.48C183.335 47.48 184.815 47.86 186.148 48.62C187.482 49.3667 188.615 50.4067 189.548 51.74C190.495 53.06 191.222 54.6 191.728 56.36C192.235 58.12 192.488 60 192.488 62C192.488 64 192.235 65.88 191.728 67.64C191.222 69.3867 190.495 70.9267 189.548 72.26C188.615 73.5933 187.482 74.64 186.148 75.4C184.815 76.1467 183.335 76.52 181.708 76.52ZM181.708 72.36C183.242 72.36 184.515 71.88 185.528 70.92C186.555 69.9467 187.322 68.6733 187.828 67.1C188.335 65.5267 188.588 63.8267 188.588 62C188.588 60.08 188.322 58.34 187.788 56.78C187.268 55.2067 186.495 53.96 185.468 53.04C184.455 52.1067 183.202 51.64 181.708 51.64C180.522 51.64 179.488 51.92 178.608 52.48C177.742 53.04 177.022 53.8067 176.448 54.78C175.888 55.7533 175.462 56.86 175.168 58.1C174.888 59.34 174.748 60.64 174.748 62C174.748 63.8267 175.008 65.5267 175.528 67.1C176.048 68.6733 176.822 69.9467 177.848 70.92C178.888 71.88 180.175 72.36 181.708 72.36Z" fill="white"></path></svg>